G04 #@! TF.GenerationSoftware,KiCad,Pcbnew,5.1.4-e60b266~84~ubuntu19.04.1*
G04 #@! TF.CreationDate,2020-01-09T17:11:54-08:00*
G04 #@! TF.ProjectId,fissure,66697373-7572-4652-9e6b-696361645f70,rev?*
G04 #@! TF.SameCoordinates,Original*
G04 #@! TF.FileFunction,Copper,L2,Bot*
G04 #@! TF.FilePolarity,Positive*
%FSLAX46Y46*%
G04 Gerber Fmt 4.6, Leading zero omitted, Abs format (unit mm)*
G04 Created by KiCad (PCBNEW 5.1.4-e60b266~84~ubuntu19.04.1) date 2020-01-09 17:11:54*
%MOMM*%
%LPD*%
G04 APERTURE LIST*
%ADD10R,1.600000X0.850000*%
%ADD11C,2.000000*%
%ADD12O,1.700000X1.700000*%
%ADD13C,1.752600*%
%ADD14R,1.752600X1.752600*%
%ADD15C,1.600000*%
%ADD16R,1.600000X1.600000*%
%ADD17R,0.500000X2.500000*%
%ADD18R,1.200000X1.200000*%
%ADD19R,2.500000X1.200000*%
%ADD20C,2.300000*%
%ADD21C,17.800000*%
%ADD22R,1.700000X1.700000*%
%ADD23C,0.800000*%
%ADD24C,0.508000*%
%ADD25C,1.270000*%
G04 APERTURE END LIST*
D10*
X140647000Y-114974000D03*
X140647000Y-116724000D03*
X137147000Y-114974000D03*
X137147000Y-116724000D03*
D11*
X103502000Y-46149000D03*
X103502000Y-41649000D03*
X110002000Y-46149000D03*
X110002000Y-41649000D03*
X56497000Y-80449000D03*
X51497000Y-78349000D03*
X46497000Y-80449000D03*
X120497000Y-73549000D03*
X125497000Y-75649000D03*
X130497000Y-73549000D03*
X64997000Y-70549000D03*
X69997000Y-72649000D03*
X74997000Y-70549000D03*
D12*
X99207000Y-43609000D03*
X99207000Y-46149000D03*
X99207000Y-48689000D03*
X99207000Y-51229000D03*
D13*
X49527000Y-41069000D03*
X77467000Y-56309000D03*
X52067000Y-41069000D03*
X54607000Y-41069000D03*
X57147000Y-41069000D03*
X59687000Y-41069000D03*
X62227000Y-41069000D03*
X64767000Y-41069000D03*
X67307000Y-41069000D03*
X69847000Y-41069000D03*
X72387000Y-41069000D03*
X74927000Y-41069000D03*
X77467000Y-41069000D03*
X74927000Y-56309000D03*
X72387000Y-56309000D03*
X69847000Y-56309000D03*
X67307000Y-56309000D03*
X64767000Y-56309000D03*
X62227000Y-56309000D03*
X59687000Y-56309000D03*
X57147000Y-56309000D03*
X54607000Y-56309000D03*
X52067000Y-56309000D03*
D14*
X49527000Y-56309000D03*
D15*
X46747000Y-62349000D03*
D16*
X46747000Y-70149000D03*
D17*
X46747000Y-63549000D03*
D18*
X46747000Y-64674000D03*
X46747000Y-67824000D03*
D17*
X46747000Y-68949000D03*
D11*
X56497000Y-97949000D03*
X51497000Y-95849000D03*
X46497000Y-97949000D03*
X101997000Y-70549000D03*
X106997000Y-72649000D03*
X111997000Y-70549000D03*
X93497000Y-75449000D03*
X88497000Y-73349000D03*
X83497000Y-75449000D03*
X141497000Y-123449000D03*
X136497000Y-121349000D03*
X131497000Y-123449000D03*
X122997000Y-118349000D03*
X117997000Y-116249000D03*
X112997000Y-118349000D03*
X104497000Y-116449000D03*
X99497000Y-114349000D03*
X94497000Y-116449000D03*
X130497000Y-100949000D03*
X125497000Y-98849000D03*
X120497000Y-100949000D03*
X111997000Y-97949000D03*
X106997000Y-95849000D03*
X101997000Y-97949000D03*
X93497000Y-92949000D03*
X88497000Y-90849000D03*
X83497000Y-92949000D03*
X74997000Y-97949000D03*
X69997000Y-95849000D03*
X64997000Y-97949000D03*
X59497000Y-115449000D03*
X54497000Y-113349000D03*
X49497000Y-115449000D03*
X130497000Y-83449000D03*
X125497000Y-81349000D03*
X120497000Y-83449000D03*
X111997000Y-80449000D03*
X106997000Y-78349000D03*
X101997000Y-80449000D03*
X74997000Y-80449000D03*
X69997000Y-78349000D03*
X64997000Y-80449000D03*
X83497000Y-65549000D03*
X88497000Y-67649000D03*
X93497000Y-65549000D03*
D15*
X120757000Y-49096000D03*
D16*
X120757000Y-56896000D03*
D17*
X120757000Y-50296000D03*
D18*
X120757000Y-51421000D03*
X120757000Y-54571000D03*
D17*
X120757000Y-55696000D03*
D15*
X109962000Y-49093000D03*
D16*
X109962000Y-56893000D03*
D17*
X109962000Y-50293000D03*
D18*
X109962000Y-51418000D03*
X109962000Y-54568000D03*
D17*
X109962000Y-55693000D03*
X92817000Y-49259000D03*
D18*
X92817000Y-48134000D03*
X92817000Y-44984000D03*
D17*
X92817000Y-43859000D03*
D16*
X92817000Y-50459000D03*
D15*
X92817000Y-42659000D03*
X118257000Y-49096000D03*
D16*
X118257000Y-56896000D03*
D17*
X118257000Y-50296000D03*
D18*
X118257000Y-51421000D03*
X118257000Y-54571000D03*
D17*
X118257000Y-55696000D03*
D15*
X107462000Y-49093000D03*
D16*
X107462000Y-56893000D03*
D17*
X107462000Y-50293000D03*
D18*
X107462000Y-51418000D03*
X107462000Y-54568000D03*
D17*
X107462000Y-55693000D03*
X90317000Y-49259000D03*
D18*
X90317000Y-48134000D03*
X90317000Y-44984000D03*
D17*
X90317000Y-43859000D03*
D16*
X90317000Y-50459000D03*
D15*
X90317000Y-42659000D03*
X54997000Y-62349000D03*
D16*
X54997000Y-70149000D03*
D17*
X54997000Y-63549000D03*
D18*
X54997000Y-64674000D03*
X54997000Y-67824000D03*
D17*
X54997000Y-68949000D03*
D15*
X51747000Y-62349000D03*
D16*
X51747000Y-70149000D03*
D17*
X51747000Y-63549000D03*
D18*
X51747000Y-64674000D03*
X51747000Y-67824000D03*
D17*
X51747000Y-68949000D03*
D15*
X115757000Y-49096000D03*
D16*
X115757000Y-56896000D03*
D17*
X115757000Y-50296000D03*
D18*
X115757000Y-51421000D03*
X115757000Y-54571000D03*
D17*
X115757000Y-55696000D03*
D15*
X104962000Y-49093000D03*
D16*
X104962000Y-56893000D03*
D17*
X104962000Y-50293000D03*
D18*
X104962000Y-51418000D03*
X104962000Y-54568000D03*
D17*
X104962000Y-55693000D03*
X87817000Y-49259000D03*
D18*
X87817000Y-48134000D03*
X87817000Y-44984000D03*
D17*
X87817000Y-43859000D03*
D16*
X87817000Y-50459000D03*
D15*
X87817000Y-42659000D03*
X57497000Y-62349000D03*
D16*
X57497000Y-70149000D03*
D17*
X57497000Y-63549000D03*
D18*
X57497000Y-64674000D03*
X57497000Y-67824000D03*
D17*
X57497000Y-68949000D03*
D15*
X49247000Y-62349000D03*
D16*
X49247000Y-70149000D03*
D17*
X49247000Y-63549000D03*
D18*
X49247000Y-64674000D03*
X49247000Y-67824000D03*
D17*
X49247000Y-68949000D03*
D15*
X113257000Y-49096000D03*
D16*
X113257000Y-56896000D03*
D17*
X113257000Y-50296000D03*
D18*
X113257000Y-51421000D03*
X113257000Y-54571000D03*
D17*
X113257000Y-55696000D03*
D15*
X102462000Y-49093000D03*
D16*
X102462000Y-56893000D03*
D17*
X102462000Y-50293000D03*
D18*
X102462000Y-51418000D03*
X102462000Y-54568000D03*
D17*
X102462000Y-55693000D03*
X85317000Y-49259000D03*
D18*
X85317000Y-48134000D03*
X85317000Y-44984000D03*
D17*
X85317000Y-43859000D03*
D16*
X85317000Y-50459000D03*
D15*
X85317000Y-42659000D03*
X59997000Y-62349000D03*
D16*
X59997000Y-70149000D03*
D17*
X59997000Y-63549000D03*
D18*
X59997000Y-64674000D03*
X59997000Y-67824000D03*
D17*
X59997000Y-68949000D03*
D19*
X135747000Y-103074000D03*
X135747000Y-106074000D03*
X135747000Y-110074000D03*
X142247000Y-111174000D03*
D20*
X87397000Y-118749000D03*
X87397000Y-121849000D03*
X66597000Y-121849000D03*
X66597000Y-118749000D03*
X66597000Y-121849000D03*
X66597000Y-118749000D03*
X87397000Y-118749000D03*
X87397000Y-121849000D03*
D21*
X76997000Y-120349000D03*
D12*
X124307000Y-56944000D03*
X124307000Y-59484000D03*
X126847000Y-56944000D03*
X126847000Y-59484000D03*
X129387000Y-56944000D03*
X129387000Y-59484000D03*
X131927000Y-56944000D03*
D22*
X131927000Y-59484000D03*
D23*
X138997000Y-111499000D03*
X85397000Y-126349000D03*
X52090000Y-50340000D03*
X138997000Y-103249000D03*
X133897000Y-115049000D03*
X70283000Y-50499000D03*
X86126000Y-58087000D03*
X87269000Y-57579000D03*
X83840000Y-57706000D03*
X87650000Y-56563000D03*
X138997000Y-109849000D03*
X79395000Y-84630000D03*
X138897000Y-106049000D03*
X78252000Y-85519000D03*
X81935000Y-47165000D03*
X138897000Y-115849000D03*
X102097000Y-113349000D03*
D24*
X46497000Y-70399000D02*
X46747000Y-70149000D01*
X46497000Y-80449000D02*
X46497000Y-70399000D01*
X64997000Y-70549000D02*
X74997000Y-70549000D01*
X64597000Y-70149000D02*
X64997000Y-70549000D01*
X59997000Y-70149000D02*
X64597000Y-70149000D01*
X101997000Y-70549000D02*
X111997000Y-70549000D01*
X120497000Y-73549000D02*
X130497000Y-73549000D01*
X56497000Y-97949000D02*
X46497000Y-97949000D01*
X46497000Y-97949000D02*
X46497000Y-88549000D01*
X46497000Y-88549000D02*
X48797000Y-86249000D01*
X48797000Y-70599000D02*
X49247000Y-70149000D01*
X48797000Y-86249000D02*
X48797000Y-70599000D01*
X64997000Y-80449000D02*
X74997000Y-80449000D01*
X101997000Y-80449000D02*
X111997000Y-80449000D01*
X120497000Y-83449000D02*
X130497000Y-83449000D01*
X49497000Y-115449000D02*
X59497000Y-115449000D01*
X120497000Y-100949000D02*
X130497000Y-100949000D01*
X52067000Y-56309000D02*
X52067000Y-55824000D01*
X52067000Y-55824000D02*
X53741000Y-54150000D01*
X96286000Y-54150000D02*
X99207000Y-51229000D01*
X53741000Y-54150000D02*
X96286000Y-54150000D01*
X49527000Y-56309000D02*
X49550000Y-56309000D01*
X49550000Y-56309000D02*
X52471000Y-53388000D01*
X52471000Y-53388000D02*
X95651000Y-53388000D01*
X95651000Y-53388000D02*
X97683000Y-51356000D01*
X97683000Y-50213000D02*
X99207000Y-48689000D01*
X97683000Y-51356000D02*
X97683000Y-50213000D01*
D25*
X79397000Y-120349000D02*
X76997000Y-120349000D01*
X85397000Y-126349000D02*
X79397000Y-120349000D01*
X85397000Y-126349000D02*
X89397000Y-126349000D01*
X89397000Y-126349000D02*
X91497000Y-124249000D01*
X91497000Y-124249000D02*
X91497000Y-111949000D01*
X138547000Y-111949000D02*
X138997000Y-111499000D01*
X91497000Y-111949000D02*
X138547000Y-111949000D01*
X52067000Y-41069000D02*
X52067000Y-50317000D01*
X52067000Y-50317000D02*
X52090000Y-50340000D01*
X142247000Y-111174000D02*
X142247000Y-99699000D01*
X95905000Y-47673000D02*
X97429000Y-46149000D01*
X65298000Y-50340000D02*
X67203000Y-52245000D01*
X52090000Y-50340000D02*
X65298000Y-50340000D01*
X67203000Y-52245000D02*
X94381000Y-52245000D01*
X97429000Y-46149000D02*
X99207000Y-46149000D01*
X94381000Y-52245000D02*
X95905000Y-50721000D01*
X95905000Y-50721000D02*
X95905000Y-47673000D01*
D24*
X140647000Y-116724000D02*
X141872000Y-116724000D01*
X142247000Y-116349000D02*
X142247000Y-111174000D01*
X141872000Y-116724000D02*
X142247000Y-116349000D01*
D25*
X139322000Y-111174000D02*
X138997000Y-111499000D01*
X142247000Y-111174000D02*
X139322000Y-111174000D01*
X99207000Y-46149000D02*
X132497000Y-46149000D01*
X132497000Y-46149000D02*
X133997000Y-47649000D01*
X133997000Y-91449000D02*
X142247000Y-99699000D01*
X133997000Y-47649000D02*
X133997000Y-59549000D01*
X133932000Y-59484000D02*
X133997000Y-59549000D01*
X131927000Y-59484000D02*
X133932000Y-59484000D01*
X133997000Y-59549000D02*
X133997000Y-91449000D01*
X66597000Y-121849000D02*
X66597000Y-118749000D01*
X87397000Y-121849000D02*
X87397000Y-118749000D01*
X66597000Y-118749000D02*
X66597000Y-115399000D01*
X66597000Y-115399000D02*
X71747000Y-110249000D01*
X131497000Y-110249000D02*
X133247000Y-108499000D01*
X133247000Y-108499000D02*
X133247000Y-103999000D01*
X134172000Y-103074000D02*
X135747000Y-103074000D01*
X133247000Y-103999000D02*
X134172000Y-103074000D01*
X135747000Y-103074000D02*
X138822000Y-103074000D01*
X138822000Y-103074000D02*
X138997000Y-103249000D01*
X71747000Y-110249000D02*
X87297000Y-110249000D01*
X87397000Y-118749000D02*
X87397000Y-110349000D01*
X87297000Y-110249000D02*
X131497000Y-110249000D01*
X57147000Y-41069000D02*
X57147000Y-43840000D01*
X57147000Y-43840000D02*
X58694000Y-45387000D01*
X58694000Y-45387000D02*
X81554000Y-45387000D01*
X81554000Y-45387000D02*
X82697000Y-44244000D01*
X96794000Y-41196000D02*
X99207000Y-43609000D01*
D24*
X137147000Y-114974000D02*
X133972000Y-114974000D01*
X133972000Y-114974000D02*
X133897000Y-115049000D01*
D25*
X82697000Y-44244000D02*
X82697000Y-42649000D01*
X82697000Y-42649000D02*
X84497000Y-40849000D01*
X96447000Y-40849000D02*
X96794000Y-41196000D01*
X84497000Y-40849000D02*
X96447000Y-40849000D01*
D24*
X51747000Y-62349000D02*
X51747000Y-61224000D01*
X51747000Y-61224000D02*
X52852000Y-60119000D01*
X60957000Y-60119000D02*
X64767000Y-56309000D01*
X52852000Y-60119000D02*
X60957000Y-60119000D01*
X61267000Y-62349000D02*
X67307000Y-56309000D01*
X59997000Y-62349000D02*
X61267000Y-62349000D01*
X70283000Y-50499000D02*
X82142000Y-50499000D01*
X82142000Y-50499000D02*
X83367000Y-49274000D01*
X83367000Y-46934000D02*
X85317000Y-44984000D01*
X83367000Y-49274000D02*
X83367000Y-46934000D01*
X85317000Y-43859000D02*
X92817000Y-43859000D01*
X72387000Y-56309000D02*
X72410000Y-56309000D01*
X72410000Y-56309000D02*
X73807000Y-54912000D01*
X98968000Y-54912000D02*
X102462000Y-51418000D01*
X73807000Y-54912000D02*
X98968000Y-54912000D01*
X102462000Y-50293000D02*
X109962000Y-50293000D01*
X76959000Y-58341000D02*
X79395000Y-58341000D01*
X74927000Y-56309000D02*
X76959000Y-58341000D01*
X79395000Y-58341000D02*
X82062000Y-55674000D01*
X82062000Y-55674000D02*
X97175000Y-55674000D01*
X97175000Y-55674000D02*
X100223000Y-58722000D01*
X113257000Y-50296000D02*
X120757000Y-50296000D01*
X100223000Y-58722000D02*
X110924000Y-58722000D01*
X110924000Y-58722000D02*
X111597000Y-58049000D01*
X111597000Y-53081000D02*
X113257000Y-51421000D01*
X111597000Y-58049000D02*
X111597000Y-53081000D01*
X69997000Y-72649000D02*
X76517000Y-72649000D01*
X81517000Y-67649000D02*
X88497000Y-67649000D01*
X76517000Y-72649000D02*
X81517000Y-67649000D01*
X88497000Y-67649000D02*
X96323000Y-67649000D01*
X101323000Y-72649000D02*
X106997000Y-72649000D01*
X96323000Y-67649000D02*
X101323000Y-72649000D01*
X106997000Y-72649000D02*
X116563000Y-72649000D01*
X119563000Y-75649000D02*
X125497000Y-75649000D01*
X116563000Y-72649000D02*
X119563000Y-75649000D01*
X57197000Y-72649000D02*
X51497000Y-78349000D01*
X69997000Y-72649000D02*
X57197000Y-72649000D01*
X63897000Y-78349000D02*
X69997000Y-78349000D01*
X61247000Y-80999000D02*
X63897000Y-78349000D01*
X69997000Y-78349000D02*
X78310000Y-78349000D01*
X83310000Y-73349000D02*
X88497000Y-73349000D01*
X78310000Y-78349000D02*
X83310000Y-73349000D01*
X88497000Y-73349000D02*
X94149000Y-73349000D01*
X99149000Y-78349000D02*
X106997000Y-78349000D01*
X94149000Y-73349000D02*
X99149000Y-78349000D01*
X106997000Y-78349000D02*
X112611000Y-78349000D01*
X115611000Y-81349000D02*
X125497000Y-81349000D01*
X112611000Y-78349000D02*
X115611000Y-81349000D01*
X61247000Y-86099000D02*
X51497000Y-95849000D01*
X61247000Y-80999000D02*
X61247000Y-86099000D01*
X122497000Y-95849000D02*
X125497000Y-98849000D01*
X106997000Y-95849000D02*
X122497000Y-95849000D01*
X101997000Y-90849000D02*
X106997000Y-95849000D01*
X74997000Y-90849000D02*
X69997000Y-95849000D01*
X88497000Y-90849000D02*
X74997000Y-90849000D01*
X98897000Y-90849000D02*
X98597000Y-90849000D01*
X98897000Y-90849000D02*
X101997000Y-90849000D01*
X88497000Y-90849000D02*
X98197000Y-90849000D01*
X98197000Y-90849000D02*
X98897000Y-90849000D01*
X61497000Y-98499000D02*
X64147000Y-95849000D01*
X64147000Y-95849000D02*
X69997000Y-95849000D01*
X61497000Y-106349000D02*
X54497000Y-113349000D01*
X61497000Y-98499000D02*
X61497000Y-106349000D01*
X131497000Y-116349000D02*
X136497000Y-121349000D01*
X116097000Y-114349000D02*
X117997000Y-116249000D01*
X99497000Y-114349000D02*
X116097000Y-114349000D01*
X131397000Y-116249000D02*
X131497000Y-116349000D01*
X117997000Y-116249000D02*
X131397000Y-116249000D01*
X124607000Y-59484000D02*
X124607000Y-59865000D01*
X95397000Y-58595000D02*
X97810000Y-61008000D01*
X97810000Y-61008000D02*
X122783000Y-61008000D01*
X86126000Y-58087000D02*
X86634000Y-58595000D01*
X122783000Y-61008000D02*
X124307000Y-59484000D01*
X86634000Y-58595000D02*
X95397000Y-58595000D01*
X125352000Y-55449000D02*
X126847000Y-56944000D01*
X123497000Y-55449000D02*
X125352000Y-55449000D01*
X122897000Y-56049000D02*
X123497000Y-55449000D01*
X95524000Y-57579000D02*
X98191000Y-60246000D01*
X87269000Y-57579000D02*
X95524000Y-57579000D01*
X98191000Y-60246000D02*
X122000000Y-60246000D01*
X122897000Y-59349000D02*
X122897000Y-56049000D01*
X122000000Y-60246000D02*
X122897000Y-59349000D01*
X127147000Y-59484000D02*
X127147000Y-59738000D01*
X94381000Y-59357000D02*
X96794000Y-61770000D01*
X124561000Y-61770000D02*
X126847000Y-59484000D01*
X83840000Y-57706000D02*
X85491000Y-59357000D01*
X96794000Y-61770000D02*
X124561000Y-61770000D01*
X85491000Y-59357000D02*
X94381000Y-59357000D01*
X122097000Y-55349000D02*
X122797000Y-54649000D01*
X87650000Y-56563000D02*
X96413000Y-56563000D01*
X96413000Y-56563000D02*
X99334000Y-59484000D01*
X99334000Y-59484000D02*
X121662000Y-59484000D01*
X127092000Y-54649000D02*
X129387000Y-56944000D01*
X122797000Y-54649000D02*
X127092000Y-54649000D01*
X122097000Y-59049000D02*
X122097000Y-55349000D01*
X121662000Y-59484000D02*
X122097000Y-59049000D01*
X135747000Y-110074000D02*
X138772000Y-110074000D01*
X138772000Y-110074000D02*
X138997000Y-109849000D01*
X138997000Y-109849000D02*
X140197000Y-109849000D01*
X140197000Y-109849000D02*
X141097000Y-108949000D01*
X141097000Y-108949000D02*
X141097000Y-100449000D01*
X141097000Y-100449000D02*
X133297000Y-92649000D01*
X133297000Y-92649000D02*
X133261000Y-92649000D01*
X133261000Y-92649000D02*
X132862000Y-92250000D01*
X132862000Y-92250000D02*
X107335000Y-92250000D01*
X107335000Y-92250000D02*
X99715000Y-84630000D01*
X99715000Y-84630000D02*
X79395000Y-84630000D01*
X135747000Y-106074000D02*
X138872000Y-106074000D01*
X138872000Y-106074000D02*
X138897000Y-106049000D01*
X138897000Y-106049000D02*
X139197000Y-106049000D01*
X139197000Y-106049000D02*
X140297000Y-104949000D01*
X140297000Y-104949000D02*
X140297000Y-100849000D01*
X140297000Y-100849000D02*
X132497000Y-93049000D01*
X132497000Y-93049000D02*
X107118000Y-93049000D01*
X107118000Y-93049000D02*
X99588000Y-85519000D01*
X99588000Y-85519000D02*
X78252000Y-85519000D01*
X54607000Y-41069000D02*
X54607000Y-45872000D01*
X54607000Y-45872000D02*
X55900000Y-47165000D01*
X55900000Y-47165000D02*
X81935000Y-47165000D01*
X137147000Y-116724000D02*
X138022000Y-116724000D01*
X138022000Y-116724000D02*
X138897000Y-115849000D01*
X137147000Y-116724000D02*
X133972000Y-116724000D01*
X133972000Y-116724000D02*
X130597000Y-113349000D01*
X130597000Y-113349000D02*
X102097000Y-113349000D01*
M02*
