M48
; DRILL file {KiCad 5.1.4-e60b266~84~ubuntu19.04.1} date Thu 09 Jan 2020 05:11:44 PM PST
; FORMAT={-:-/ absolute / inch / decimal}
; #@! TF.CreationDate,2020-01-09T17:11:44-08:00
; #@! TF.GenerationSoftware,Kicad,Pcbnew,5.1.4-e60b266~84~ubuntu19.04.1
; #@! TF.FileFunction,Plated,1,2,PTH
FMAT,2
INCH
T1C0.0157
T2C0.0276
T3C0.0394
T4C0.0430
T5C0.0433
T6C0.0472
%
G90
G05
T1
X2.0508Y-1.9819
X2.767Y-1.9881
X3.0808Y-3.3669
X3.1258Y-3.3319
X3.2258Y-1.8569
X3.3008Y-2.2719
X3.3621Y-4.9744
X3.3908Y-2.2869
X3.4358Y-2.2669
X3.4508Y-2.2269
X4.0196Y-4.4626
X5.2715Y-4.5295
X5.4684Y-4.1752
X5.4684Y-4.561
X5.4723Y-4.0649
X5.4723Y-4.3248
X5.4723Y-4.3897
T2
X4.5574Y-1.9329
X4.5574Y-2.24
X3.5558Y-1.6795
X3.5558Y-1.9866
X2.2637Y-2.4547
X2.2637Y-2.7618
X3.6542Y-1.6795
X3.6542Y-1.9866
X4.2308Y-1.9328
X4.2308Y-2.2399
X2.1652Y-2.4547
X2.1652Y-2.7618
X3.4574Y-1.6795
X3.4574Y-1.9866
X2.0373Y-2.4547
X2.0373Y-2.7618
X4.4589Y-1.9329
X4.4589Y-2.24
X1.8404Y-2.4547
X1.8404Y-2.7618
X4.7542Y-1.9329
X4.7542Y-2.24
X4.1324Y-1.9328
X4.1324Y-2.2399
X1.9389Y-2.4547
X1.9389Y-2.7618
X4.3292Y-1.9328
X4.3292Y-2.2399
X4.0339Y-1.9328
X4.0339Y-2.2399
X3.3589Y-1.6795
X3.3589Y-1.9866
X2.3621Y-2.4547
X2.3621Y-2.7618
X4.6558Y-1.9329
X4.6558Y-2.24
T3
X3.9058Y-1.7169
X3.9058Y-1.8169
X3.9058Y-1.9169
X3.9058Y-2.0169
X4.894Y-2.2419
X4.894Y-2.3419
X4.994Y-2.2419
X4.994Y-2.3419
X5.094Y-2.2419
X5.094Y-2.3419
X5.194Y-2.2419
X5.194Y-2.3419
X2.6219Y-4.6752
X2.6219Y-4.7972
X3.4408Y-4.6752
X3.4408Y-4.7972
X2.6219Y-4.6752
X2.6219Y-4.7972
X3.4408Y-4.6752
X3.4408Y-4.7972
T4
X1.9499Y-1.6169
X1.9499Y-2.2169
X2.0499Y-1.6169
X2.0499Y-2.2169
X2.1499Y-1.6169
X2.1499Y-2.2169
X2.2499Y-1.6169
X2.2499Y-2.2169
X2.3499Y-1.6169
X2.3499Y-2.2169
X2.4499Y-1.6169
X2.4499Y-2.2169
X2.5499Y-1.6169
X2.5499Y-2.2169
X2.6499Y-1.6169
X2.6499Y-2.2169
X2.7499Y-1.6169
X2.7499Y-2.2169
X2.8499Y-1.6169
X2.8499Y-2.2169
X2.9499Y-1.6169
X2.9499Y-2.2169
X3.0499Y-1.6169
X3.0499Y-2.2169
T5
X4.0749Y-1.6397
X4.0749Y-1.8169
X4.3308Y-1.6397
X4.3308Y-1.8169
T6
X4.4487Y-4.6594
X4.6456Y-4.5767
X4.8424Y-4.6594
X2.5589Y-2.7775
X2.7558Y-2.8602
X2.9526Y-2.7775
X4.744Y-3.9744
X4.9408Y-3.8917
X5.1377Y-3.9744
X2.5589Y-3.1673
X2.7558Y-3.0846
X2.9526Y-3.1673
X3.2873Y-2.5807
X3.4841Y-2.6633
X3.681Y-2.5807
X5.177Y-4.8602
X5.3739Y-4.7775
X5.5707Y-4.8602
X4.744Y-3.2854
X4.9408Y-3.2027
X5.1377Y-3.2854
X3.2873Y-2.9704
X3.4841Y-2.8878
X3.681Y-2.9704
X4.0156Y-2.7775
X4.2125Y-2.8602
X4.4093Y-2.7775
X1.9487Y-4.5452
X2.1456Y-4.4626
X2.3424Y-4.5452
X3.2873Y-3.6594
X3.4841Y-3.5767
X3.681Y-3.6594
X4.0156Y-3.1673
X4.2125Y-3.0846
X4.4093Y-3.1673
X4.0156Y-3.8563
X4.2125Y-3.7736
X4.4093Y-3.8563
X1.8306Y-3.8563
X2.0274Y-3.7736
X2.2243Y-3.8563
X2.5589Y-3.8563
X2.7558Y-3.7736
X2.9526Y-3.8563
X3.7204Y-4.5846
X3.9172Y-4.5019
X4.1141Y-4.5846
X4.744Y-2.8956
X4.9408Y-2.9783
X5.1377Y-2.8956
X1.8306Y-3.1673
X2.0274Y-3.0846
X2.2243Y-3.1673
T0
M30
