G04 #@! TF.GenerationSoftware,KiCad,Pcbnew,5.1.3-ffb9f22~84~ubuntu19.04.1*
G04 #@! TF.CreationDate,2019-08-05T11:02:01+08:00*
G04 #@! TF.ProjectId,fissure,66697373-7572-4652-9e6b-696361645f70,rev?*
G04 #@! TF.SameCoordinates,Original*
G04 #@! TF.FileFunction,Legend,Bot*
G04 #@! TF.FilePolarity,Positive*
%FSLAX46Y46*%
G04 Gerber Fmt 4.6, Leading zero omitted, Abs format (unit mm)*
G04 Created by KiCad (PCBNEW 5.1.3-ffb9f22~84~ubuntu19.04.1) date 2019-08-05 11:02:01*
%MOMM*%
%LPD*%
G04 APERTURE LIST*
%ADD10C,0.150000*%
%ADD11C,0.200000*%
%ADD12C,0.381000*%
G04 APERTURE END LIST*
D10*
X36853714Y-105957714D02*
X36853714Y-106624380D01*
X37091809Y-105576761D02*
X37329904Y-106291047D01*
X36710857Y-106291047D01*
X36329904Y-106624380D02*
X36329904Y-105624380D01*
X35758476Y-106624380D02*
X36187047Y-106052952D01*
X35758476Y-105624380D02*
X36329904Y-106195809D01*
X35425142Y-105624380D02*
X34758476Y-105624380D01*
X35187047Y-106624380D01*
D11*
X58109000Y-79491000D02*
X60509000Y-79491000D01*
X58109000Y-79666000D02*
X60509000Y-79666000D01*
X58109000Y-79841000D02*
X60509000Y-79841000D01*
X60509000Y-80241000D02*
X58109000Y-80241000D01*
X58109000Y-80016000D02*
X60509000Y-80016000D01*
X58109000Y-80141000D02*
X60509000Y-80141000D01*
X58109000Y-80216000D02*
X58109000Y-74416000D01*
X58109000Y-74416000D02*
X60509000Y-74416000D01*
X60509000Y-74416000D02*
X60509000Y-80216000D01*
D12*
X25654000Y-110236000D02*
X25654000Y-112776000D01*
X23114000Y-94996000D02*
X23114000Y-112776000D01*
X23114000Y-112776000D02*
X56134000Y-112776000D01*
X56134000Y-112776000D02*
X56134000Y-94996000D01*
X56134000Y-94996000D02*
X23114000Y-94996000D01*
D10*
G36*
X31543030Y-98041365D02*
G01*
X31643030Y-98041365D01*
X31643030Y-97541365D01*
X31543030Y-97541365D01*
X31543030Y-98041365D01*
G37*
X31543030Y-98041365D02*
X31643030Y-98041365D01*
X31643030Y-97541365D01*
X31543030Y-97541365D01*
X31543030Y-98041365D01*
G36*
X31543030Y-98041365D02*
G01*
X31843030Y-98041365D01*
X31843030Y-97941365D01*
X31543030Y-97941365D01*
X31543030Y-98041365D01*
G37*
X31543030Y-98041365D02*
X31843030Y-98041365D01*
X31843030Y-97941365D01*
X31543030Y-97941365D01*
X31543030Y-98041365D01*
G36*
X32143030Y-98041365D02*
G01*
X32343030Y-98041365D01*
X32343030Y-97941365D01*
X32143030Y-97941365D01*
X32143030Y-98041365D01*
G37*
X32143030Y-98041365D02*
X32343030Y-98041365D01*
X32343030Y-97941365D01*
X32143030Y-97941365D01*
X32143030Y-98041365D01*
G36*
X31543030Y-97641365D02*
G01*
X32343030Y-97641365D01*
X32343030Y-97541365D01*
X31543030Y-97541365D01*
X31543030Y-97641365D01*
G37*
X31543030Y-97641365D02*
X32343030Y-97641365D01*
X32343030Y-97541365D01*
X31543030Y-97541365D01*
X31543030Y-97641365D01*
G36*
X31943030Y-97841365D02*
G01*
X32043030Y-97841365D01*
X32043030Y-97741365D01*
X31943030Y-97741365D01*
X31943030Y-97841365D01*
G37*
X31943030Y-97841365D02*
X32043030Y-97841365D01*
X32043030Y-97741365D01*
X31943030Y-97741365D01*
X31943030Y-97841365D01*
D12*
X25654000Y-110236000D02*
X28194000Y-110236000D01*
X28194000Y-110236000D02*
X28194000Y-112776000D01*
D11*
X60509000Y-101611000D02*
X58109000Y-101611000D01*
X60509000Y-101436000D02*
X58109000Y-101436000D01*
X60509000Y-101261000D02*
X58109000Y-101261000D01*
X58109000Y-100861000D02*
X60509000Y-100861000D01*
X60509000Y-101086000D02*
X58109000Y-101086000D01*
X60509000Y-100961000D02*
X58109000Y-100961000D01*
X60509000Y-100886000D02*
X60509000Y-106686000D01*
X60509000Y-106686000D02*
X58109000Y-106686000D01*
X58109000Y-106686000D02*
X58109000Y-100886000D01*
X98609000Y-104659000D02*
X96209000Y-104659000D01*
X98609000Y-104484000D02*
X96209000Y-104484000D01*
X98609000Y-104309000D02*
X96209000Y-104309000D01*
X96209000Y-103909000D02*
X98609000Y-103909000D01*
X98609000Y-104134000D02*
X96209000Y-104134000D01*
X98609000Y-104009000D02*
X96209000Y-104009000D01*
X98609000Y-103934000D02*
X98609000Y-109734000D01*
X98609000Y-109734000D02*
X96209000Y-109734000D01*
X96209000Y-109734000D02*
X96209000Y-103934000D01*
X90181000Y-92272000D02*
X90181000Y-94672000D01*
X90006000Y-92272000D02*
X90006000Y-94672000D01*
X89831000Y-92272000D02*
X89831000Y-94672000D01*
X89431000Y-94672000D02*
X89431000Y-92272000D01*
X89656000Y-92272000D02*
X89656000Y-94672000D01*
X89531000Y-92272000D02*
X89531000Y-94672000D01*
X89456000Y-92272000D02*
X95256000Y-92272000D01*
X95256000Y-92272000D02*
X95256000Y-94672000D01*
X95256000Y-94672000D02*
X89456000Y-94672000D01*
X90181000Y-89224000D02*
X90181000Y-91624000D01*
X90006000Y-89224000D02*
X90006000Y-91624000D01*
X89831000Y-89224000D02*
X89831000Y-91624000D01*
X89431000Y-91624000D02*
X89431000Y-89224000D01*
X89656000Y-89224000D02*
X89656000Y-91624000D01*
X89531000Y-89224000D02*
X89531000Y-91624000D01*
X89456000Y-89224000D02*
X95256000Y-89224000D01*
X95256000Y-89224000D02*
X95256000Y-91624000D01*
X95256000Y-91624000D02*
X89456000Y-91624000D01*
X96209000Y-79491000D02*
X98609000Y-79491000D01*
X96209000Y-79666000D02*
X98609000Y-79666000D01*
X96209000Y-79841000D02*
X98609000Y-79841000D01*
X98609000Y-80241000D02*
X96209000Y-80241000D01*
X96209000Y-80016000D02*
X98609000Y-80016000D01*
X96209000Y-80141000D02*
X98609000Y-80141000D01*
X96209000Y-80216000D02*
X96209000Y-74416000D01*
X96209000Y-74416000D02*
X98609000Y-74416000D01*
X98609000Y-74416000D02*
X98609000Y-80216000D01*
X96209000Y-60441000D02*
X98609000Y-60441000D01*
X96209000Y-60616000D02*
X98609000Y-60616000D01*
X96209000Y-60791000D02*
X98609000Y-60791000D01*
X98609000Y-61191000D02*
X96209000Y-61191000D01*
X96209000Y-60966000D02*
X98609000Y-60966000D01*
X96209000Y-61091000D02*
X98609000Y-61091000D01*
X96209000Y-61166000D02*
X96209000Y-55366000D01*
X96209000Y-55366000D02*
X98609000Y-55366000D01*
X98609000Y-55366000D02*
X98609000Y-61166000D01*
X98736000Y-36316000D02*
X98736000Y-42116000D01*
X96336000Y-36316000D02*
X98736000Y-36316000D01*
X96336000Y-42116000D02*
X96336000Y-36316000D01*
X96336000Y-42041000D02*
X98736000Y-42041000D01*
X96336000Y-41916000D02*
X98736000Y-41916000D01*
X98736000Y-42141000D02*
X96336000Y-42141000D01*
X96336000Y-41741000D02*
X98736000Y-41741000D01*
X96336000Y-41566000D02*
X98736000Y-41566000D01*
X96336000Y-41391000D02*
X98736000Y-41391000D01*
X96209000Y-22341000D02*
X98609000Y-22341000D01*
X96209000Y-22516000D02*
X98609000Y-22516000D01*
X96209000Y-22691000D02*
X98609000Y-22691000D01*
X98609000Y-23091000D02*
X96209000Y-23091000D01*
X96209000Y-22866000D02*
X98609000Y-22866000D01*
X96209000Y-22991000D02*
X98609000Y-22991000D01*
X96209000Y-23066000D02*
X96209000Y-17266000D01*
X96209000Y-17266000D02*
X98609000Y-17266000D01*
X98609000Y-17266000D02*
X98609000Y-23066000D01*
X79559000Y-101611000D02*
X77159000Y-101611000D01*
X79559000Y-101436000D02*
X77159000Y-101436000D01*
X79559000Y-101261000D02*
X77159000Y-101261000D01*
X77159000Y-100861000D02*
X79559000Y-100861000D01*
X79559000Y-101086000D02*
X77159000Y-101086000D01*
X79559000Y-100961000D02*
X77159000Y-100961000D01*
X79559000Y-100886000D02*
X79559000Y-106686000D01*
X79559000Y-106686000D02*
X77159000Y-106686000D01*
X77159000Y-106686000D02*
X77159000Y-100886000D01*
X77159000Y-79491000D02*
X79559000Y-79491000D01*
X77159000Y-79666000D02*
X79559000Y-79666000D01*
X77159000Y-79841000D02*
X79559000Y-79841000D01*
X79559000Y-80241000D02*
X77159000Y-80241000D01*
X77159000Y-80016000D02*
X79559000Y-80016000D01*
X77159000Y-80141000D02*
X79559000Y-80141000D01*
X77159000Y-80216000D02*
X77159000Y-74416000D01*
X77159000Y-74416000D02*
X79559000Y-74416000D01*
X79559000Y-74416000D02*
X79559000Y-80216000D01*
X77159000Y-60441000D02*
X79559000Y-60441000D01*
X77159000Y-60616000D02*
X79559000Y-60616000D01*
X77159000Y-60791000D02*
X79559000Y-60791000D01*
X79559000Y-61191000D02*
X77159000Y-61191000D01*
X77159000Y-60966000D02*
X79559000Y-60966000D01*
X77159000Y-61091000D02*
X79559000Y-61091000D01*
X77159000Y-61166000D02*
X77159000Y-55366000D01*
X77159000Y-55366000D02*
X79559000Y-55366000D01*
X79559000Y-55366000D02*
X79559000Y-61166000D01*
X77159000Y-41391000D02*
X79559000Y-41391000D01*
X77159000Y-41566000D02*
X79559000Y-41566000D01*
X77159000Y-41741000D02*
X79559000Y-41741000D01*
X79559000Y-42141000D02*
X77159000Y-42141000D01*
X77159000Y-41916000D02*
X79559000Y-41916000D01*
X77159000Y-42041000D02*
X79559000Y-42041000D01*
X77159000Y-42116000D02*
X77159000Y-36316000D01*
X77159000Y-36316000D02*
X79559000Y-36316000D01*
X79559000Y-36316000D02*
X79559000Y-42116000D01*
X77159000Y-22341000D02*
X79559000Y-22341000D01*
X77159000Y-22516000D02*
X79559000Y-22516000D01*
X77159000Y-22691000D02*
X79559000Y-22691000D01*
X79559000Y-23091000D02*
X77159000Y-23091000D01*
X77159000Y-22866000D02*
X79559000Y-22866000D01*
X77159000Y-22991000D02*
X79559000Y-22991000D01*
X77159000Y-23066000D02*
X77159000Y-17266000D01*
X77159000Y-17266000D02*
X79559000Y-17266000D01*
X79559000Y-17266000D02*
X79559000Y-23066000D01*
X58109000Y-60441000D02*
X60509000Y-60441000D01*
X58109000Y-60616000D02*
X60509000Y-60616000D01*
X58109000Y-60791000D02*
X60509000Y-60791000D01*
X60509000Y-61191000D02*
X58109000Y-61191000D01*
X58109000Y-60966000D02*
X60509000Y-60966000D01*
X58109000Y-61091000D02*
X60509000Y-61091000D01*
X58109000Y-61166000D02*
X58109000Y-55366000D01*
X58109000Y-55366000D02*
X60509000Y-55366000D01*
X60509000Y-55366000D02*
X60509000Y-61166000D01*
X58109000Y-41391000D02*
X60509000Y-41391000D01*
X58109000Y-41566000D02*
X60509000Y-41566000D01*
X58109000Y-41741000D02*
X60509000Y-41741000D01*
X60509000Y-42141000D02*
X58109000Y-42141000D01*
X58109000Y-41916000D02*
X60509000Y-41916000D01*
X58109000Y-42041000D02*
X60509000Y-42041000D01*
X58109000Y-42116000D02*
X58109000Y-36316000D01*
X58109000Y-36316000D02*
X60509000Y-36316000D01*
X60509000Y-36316000D02*
X60509000Y-42116000D01*
X58109000Y-22341000D02*
X60509000Y-22341000D01*
X58109000Y-22516000D02*
X60509000Y-22516000D01*
X58109000Y-22691000D02*
X60509000Y-22691000D01*
X60509000Y-23091000D02*
X58109000Y-23091000D01*
X58109000Y-22866000D02*
X60509000Y-22866000D01*
X58109000Y-22991000D02*
X60509000Y-22991000D01*
X58109000Y-23066000D02*
X58109000Y-17266000D01*
X58109000Y-17266000D02*
X60509000Y-17266000D01*
X60509000Y-17266000D02*
X60509000Y-23066000D01*
X39059000Y-79491000D02*
X41459000Y-79491000D01*
X39059000Y-79666000D02*
X41459000Y-79666000D01*
X39059000Y-79841000D02*
X41459000Y-79841000D01*
X41459000Y-80241000D02*
X39059000Y-80241000D01*
X39059000Y-80016000D02*
X41459000Y-80016000D01*
X39059000Y-80141000D02*
X41459000Y-80141000D01*
X39059000Y-80216000D02*
X39059000Y-74416000D01*
X39059000Y-74416000D02*
X41459000Y-74416000D01*
X41459000Y-74416000D02*
X41459000Y-80216000D01*
X39059000Y-60441000D02*
X41459000Y-60441000D01*
X39059000Y-60616000D02*
X41459000Y-60616000D01*
X39059000Y-60791000D02*
X41459000Y-60791000D01*
X41459000Y-61191000D02*
X39059000Y-61191000D01*
X39059000Y-60966000D02*
X41459000Y-60966000D01*
X39059000Y-61091000D02*
X41459000Y-61091000D01*
X39059000Y-61166000D02*
X39059000Y-55366000D01*
X39059000Y-55366000D02*
X41459000Y-55366000D01*
X41459000Y-55366000D02*
X41459000Y-61166000D01*
X39059000Y-41391000D02*
X41459000Y-41391000D01*
X39059000Y-41566000D02*
X41459000Y-41566000D01*
X39059000Y-41741000D02*
X41459000Y-41741000D01*
X41459000Y-42141000D02*
X39059000Y-42141000D01*
X39059000Y-41916000D02*
X41459000Y-41916000D01*
X39059000Y-42041000D02*
X41459000Y-42041000D01*
X39059000Y-42116000D02*
X39059000Y-36316000D01*
X39059000Y-36316000D02*
X41459000Y-36316000D01*
X41459000Y-36316000D02*
X41459000Y-42116000D01*
X39059000Y-22341000D02*
X41459000Y-22341000D01*
X39059000Y-22516000D02*
X41459000Y-22516000D01*
X39059000Y-22691000D02*
X41459000Y-22691000D01*
X41459000Y-23091000D02*
X39059000Y-23091000D01*
X39059000Y-22866000D02*
X41459000Y-22866000D01*
X39059000Y-22991000D02*
X41459000Y-22991000D01*
X39059000Y-23066000D02*
X39059000Y-17266000D01*
X39059000Y-17266000D02*
X41459000Y-17266000D01*
X41459000Y-17266000D02*
X41459000Y-23066000D01*
X28459000Y-89351000D02*
X28459000Y-91751000D01*
X28284000Y-89351000D02*
X28284000Y-91751000D01*
X28109000Y-89351000D02*
X28109000Y-91751000D01*
X27709000Y-91751000D02*
X27709000Y-89351000D01*
X27934000Y-89351000D02*
X27934000Y-91751000D01*
X27809000Y-89351000D02*
X27809000Y-91751000D01*
X27734000Y-89351000D02*
X33534000Y-89351000D01*
X33534000Y-89351000D02*
X33534000Y-91751000D01*
X33534000Y-91751000D02*
X27734000Y-91751000D01*
X28459000Y-70555000D02*
X28459000Y-72955000D01*
X28284000Y-70555000D02*
X28284000Y-72955000D01*
X28109000Y-70555000D02*
X28109000Y-72955000D01*
X27709000Y-72955000D02*
X27709000Y-70555000D01*
X27934000Y-70555000D02*
X27934000Y-72955000D01*
X27809000Y-70555000D02*
X27809000Y-72955000D01*
X27734000Y-70555000D02*
X33534000Y-70555000D01*
X33534000Y-70555000D02*
X33534000Y-72955000D01*
X33534000Y-72955000D02*
X27734000Y-72955000D01*
X28459000Y-51251000D02*
X28459000Y-53651000D01*
X28284000Y-51251000D02*
X28284000Y-53651000D01*
X28109000Y-51251000D02*
X28109000Y-53651000D01*
X27709000Y-53651000D02*
X27709000Y-51251000D01*
X27934000Y-51251000D02*
X27934000Y-53651000D01*
X27809000Y-51251000D02*
X27809000Y-53651000D01*
X27734000Y-51251000D02*
X33534000Y-51251000D01*
X33534000Y-51251000D02*
X33534000Y-53651000D01*
X33534000Y-53651000D02*
X27734000Y-53651000D01*
X28459000Y-32201000D02*
X28459000Y-34601000D01*
X28284000Y-32201000D02*
X28284000Y-34601000D01*
X28109000Y-32201000D02*
X28109000Y-34601000D01*
X27709000Y-34601000D02*
X27709000Y-32201000D01*
X27934000Y-32201000D02*
X27934000Y-34601000D01*
X27809000Y-32201000D02*
X27809000Y-34601000D01*
X27734000Y-32201000D02*
X33534000Y-32201000D01*
X33534000Y-32201000D02*
X33534000Y-34601000D01*
X33534000Y-34601000D02*
X27734000Y-34601000D01*
D10*
X114046000Y-90295000D02*
X114046000Y-96395000D01*
X101946000Y-90295000D02*
X101946000Y-96395000D01*
X114046000Y-90295000D02*
X101946000Y-90295000D01*
X114046000Y-96395000D02*
X101946000Y-96395000D01*
X114046000Y-90545000D02*
X116046000Y-90545000D01*
X114046000Y-96145000D02*
X116046000Y-96145000D01*
X116046000Y-90545000D02*
X116046000Y-96145000D01*
X32307809Y-93192666D02*
X32345904Y-93306952D01*
X32345904Y-93497428D01*
X32307809Y-93573619D01*
X32269714Y-93611714D01*
X32193523Y-93649809D01*
X32117333Y-93649809D01*
X32041142Y-93611714D01*
X32003047Y-93573619D01*
X31964952Y-93497428D01*
X31926857Y-93345047D01*
X31888761Y-93268857D01*
X31850666Y-93230761D01*
X31774476Y-93192666D01*
X31698285Y-93192666D01*
X31622095Y-93230761D01*
X31584000Y-93268857D01*
X31545904Y-93345047D01*
X31545904Y-93535523D01*
X31584000Y-93649809D01*
X31545904Y-93878380D02*
X31545904Y-94335523D01*
X32345904Y-94106952D02*
X31545904Y-94106952D01*
X26485904Y-105267395D02*
X26485904Y-105724538D01*
X27285904Y-105495967D02*
X26485904Y-105495967D01*
X26485904Y-105915014D02*
X27285904Y-106448348D01*
X26485904Y-106448348D02*
X27285904Y-105915014D01*
X26485904Y-106905491D02*
X26485904Y-106981681D01*
X26524000Y-107057872D01*
X26562095Y-107095967D01*
X26638285Y-107134062D01*
X26790666Y-107172157D01*
X26981142Y-107172157D01*
X27133523Y-107134062D01*
X27209714Y-107095967D01*
X27247809Y-107057872D01*
X27285904Y-106981681D01*
X27285904Y-106905491D01*
X27247809Y-106829300D01*
X27209714Y-106791205D01*
X27133523Y-106753110D01*
X26981142Y-106715014D01*
X26790666Y-106715014D01*
X26638285Y-106753110D01*
X26562095Y-106791205D01*
X26524000Y-106829300D01*
X26485904Y-106905491D01*
X26447809Y-108086443D02*
X27476380Y-107400729D01*
X27285904Y-108353110D02*
X26485904Y-108353110D01*
X26485904Y-108543586D01*
X26524000Y-108657872D01*
X26600190Y-108734062D01*
X26676380Y-108772157D01*
X26828761Y-108810252D01*
X26943047Y-108810252D01*
X27095428Y-108772157D01*
X27171619Y-108734062D01*
X27247809Y-108657872D01*
X27285904Y-108543586D01*
X27285904Y-108353110D01*
X26485904Y-109076919D02*
X26485904Y-109572157D01*
X26790666Y-109305491D01*
X26790666Y-109419776D01*
X26828761Y-109495967D01*
X26866857Y-109534062D01*
X26943047Y-109572157D01*
X27133523Y-109572157D01*
X27209714Y-109534062D01*
X27247809Y-109495967D01*
X27285904Y-109419776D01*
X27285904Y-109191205D01*
X27247809Y-109115014D01*
X27209714Y-109076919D01*
X52266857Y-98101190D02*
X52304952Y-98215476D01*
X52343047Y-98253571D01*
X52419238Y-98291666D01*
X52533523Y-98291666D01*
X52609714Y-98253571D01*
X52647809Y-98215476D01*
X52685904Y-98139285D01*
X52685904Y-97834523D01*
X51885904Y-97834523D01*
X51885904Y-98101190D01*
X51924000Y-98177380D01*
X51962095Y-98215476D01*
X52038285Y-98253571D01*
X52114476Y-98253571D01*
X52190666Y-98215476D01*
X52228761Y-98177380D01*
X52266857Y-98101190D01*
X52266857Y-97834523D01*
X51962095Y-98596428D02*
X51924000Y-98634523D01*
X51885904Y-98710714D01*
X51885904Y-98901190D01*
X51924000Y-98977380D01*
X51962095Y-99015476D01*
X52038285Y-99053571D01*
X52114476Y-99053571D01*
X52228761Y-99015476D01*
X52685904Y-98558333D01*
X52685904Y-99053571D01*
X44646857Y-98158333D02*
X44646857Y-97891666D01*
X45065904Y-97891666D02*
X44265904Y-97891666D01*
X44265904Y-98272619D01*
X44265904Y-98501190D02*
X44265904Y-99034523D01*
X45065904Y-98691666D01*
X42106857Y-98158333D02*
X42106857Y-97891666D01*
X42525904Y-97891666D02*
X41725904Y-97891666D01*
X41725904Y-98272619D01*
X41725904Y-98920238D02*
X41725904Y-98767857D01*
X41764000Y-98691666D01*
X41802095Y-98653571D01*
X41916380Y-98577380D01*
X42068761Y-98539285D01*
X42373523Y-98539285D01*
X42449714Y-98577380D01*
X42487809Y-98615476D01*
X42525904Y-98691666D01*
X42525904Y-98844047D01*
X42487809Y-98920238D01*
X42449714Y-98958333D01*
X42373523Y-98996428D01*
X42183047Y-98996428D01*
X42106857Y-98958333D01*
X42068761Y-98920238D01*
X42030666Y-98844047D01*
X42030666Y-98691666D01*
X42068761Y-98615476D01*
X42106857Y-98577380D01*
X42183047Y-98539285D01*
X39439857Y-92824333D02*
X39439857Y-92557666D01*
X39858904Y-92557666D02*
X39058904Y-92557666D01*
X39058904Y-92938619D01*
X39058904Y-93624333D02*
X39058904Y-93243380D01*
X39439857Y-93205285D01*
X39401761Y-93243380D01*
X39363666Y-93319571D01*
X39363666Y-93510047D01*
X39401761Y-93586238D01*
X39439857Y-93624333D01*
X39516047Y-93662428D01*
X39706523Y-93662428D01*
X39782714Y-93624333D01*
X39820809Y-93586238D01*
X39858904Y-93510047D01*
X39858904Y-93319571D01*
X39820809Y-93243380D01*
X39782714Y-93205285D01*
X27285904Y-97872619D02*
X26904952Y-97605952D01*
X27285904Y-97415476D02*
X26485904Y-97415476D01*
X26485904Y-97720238D01*
X26524000Y-97796428D01*
X26562095Y-97834523D01*
X26638285Y-97872619D01*
X26752571Y-97872619D01*
X26828761Y-97834523D01*
X26866857Y-97796428D01*
X26904952Y-97720238D01*
X26904952Y-97415476D01*
X27057333Y-98177380D02*
X27057333Y-98558333D01*
X27285904Y-98101190D02*
X26485904Y-98367857D01*
X27285904Y-98634523D01*
X26485904Y-98825000D02*
X27285904Y-99015476D01*
X26714476Y-99167857D01*
X27285904Y-99320238D01*
X26485904Y-99510714D01*
X29064000Y-97815476D02*
X29025904Y-97739285D01*
X29025904Y-97625000D01*
X29064000Y-97510714D01*
X29140190Y-97434523D01*
X29216380Y-97396428D01*
X29368761Y-97358333D01*
X29483047Y-97358333D01*
X29635428Y-97396428D01*
X29711619Y-97434523D01*
X29787809Y-97510714D01*
X29825904Y-97625000D01*
X29825904Y-97701190D01*
X29787809Y-97815476D01*
X29749714Y-97853571D01*
X29483047Y-97853571D01*
X29483047Y-97701190D01*
X29825904Y-98196428D02*
X29025904Y-98196428D01*
X29825904Y-98653571D01*
X29025904Y-98653571D01*
X29825904Y-99034523D02*
X29025904Y-99034523D01*
X29025904Y-99225000D01*
X29064000Y-99339285D01*
X29140190Y-99415476D01*
X29216380Y-99453571D01*
X29368761Y-99491666D01*
X29483047Y-99491666D01*
X29635428Y-99453571D01*
X29711619Y-99415476D01*
X29787809Y-99339285D01*
X29825904Y-99225000D01*
X29825904Y-99034523D01*
X34105904Y-92278333D02*
X34905904Y-92545000D01*
X34105904Y-92811666D01*
X34829714Y-93535476D02*
X34867809Y-93497380D01*
X34905904Y-93383095D01*
X34905904Y-93306904D01*
X34867809Y-93192619D01*
X34791619Y-93116428D01*
X34715428Y-93078333D01*
X34563047Y-93040238D01*
X34448761Y-93040238D01*
X34296380Y-93078333D01*
X34220190Y-93116428D01*
X34144000Y-93192619D01*
X34105904Y-93306904D01*
X34105904Y-93383095D01*
X34144000Y-93497380D01*
X34182095Y-93535476D01*
X34829714Y-94335476D02*
X34867809Y-94297380D01*
X34905904Y-94183095D01*
X34905904Y-94106904D01*
X34867809Y-93992619D01*
X34791619Y-93916428D01*
X34715428Y-93878333D01*
X34563047Y-93840238D01*
X34448761Y-93840238D01*
X34296380Y-93878333D01*
X34220190Y-93916428D01*
X34144000Y-93992619D01*
X34105904Y-94106904D01*
X34105904Y-94183095D01*
X34144000Y-94297380D01*
X34182095Y-94335476D01*
X37026857Y-92824333D02*
X37026857Y-92557666D01*
X37445904Y-92557666D02*
X36645904Y-92557666D01*
X36645904Y-92938619D01*
X36912571Y-93586238D02*
X37445904Y-93586238D01*
X36607809Y-93395761D02*
X37179238Y-93205285D01*
X37179238Y-93700523D01*
X47186857Y-98101190D02*
X47224952Y-98215476D01*
X47263047Y-98253571D01*
X47339238Y-98291666D01*
X47453523Y-98291666D01*
X47529714Y-98253571D01*
X47567809Y-98215476D01*
X47605904Y-98139285D01*
X47605904Y-97834523D01*
X46805904Y-97834523D01*
X46805904Y-98101190D01*
X46844000Y-98177380D01*
X46882095Y-98215476D01*
X46958285Y-98253571D01*
X47034476Y-98253571D01*
X47110666Y-98215476D01*
X47148761Y-98177380D01*
X47186857Y-98101190D01*
X47186857Y-97834523D01*
X47605904Y-99053571D02*
X47605904Y-98596428D01*
X47605904Y-98825000D02*
X46805904Y-98825000D01*
X46920190Y-98748809D01*
X46996380Y-98672619D01*
X47034476Y-98596428D01*
X49726857Y-98101190D02*
X49764952Y-98215476D01*
X49803047Y-98253571D01*
X49879238Y-98291666D01*
X49993523Y-98291666D01*
X50069714Y-98253571D01*
X50107809Y-98215476D01*
X50145904Y-98139285D01*
X50145904Y-97834523D01*
X49345904Y-97834523D01*
X49345904Y-98101190D01*
X49384000Y-98177380D01*
X49422095Y-98215476D01*
X49498285Y-98253571D01*
X49574476Y-98253571D01*
X49650666Y-98215476D01*
X49688761Y-98177380D01*
X49726857Y-98101190D01*
X49726857Y-97834523D01*
X49345904Y-98558333D02*
X49345904Y-99053571D01*
X49650666Y-98786904D01*
X49650666Y-98901190D01*
X49688761Y-98977380D01*
X49726857Y-99015476D01*
X49803047Y-99053571D01*
X49993523Y-99053571D01*
X50069714Y-99015476D01*
X50107809Y-98977380D01*
X50145904Y-98901190D01*
X50145904Y-98672619D01*
X50107809Y-98596428D01*
X50069714Y-98558333D01*
X54806857Y-98101190D02*
X54844952Y-98215476D01*
X54883047Y-98253571D01*
X54959238Y-98291666D01*
X55073523Y-98291666D01*
X55149714Y-98253571D01*
X55187809Y-98215476D01*
X55225904Y-98139285D01*
X55225904Y-97834523D01*
X54425904Y-97834523D01*
X54425904Y-98101190D01*
X54464000Y-98177380D01*
X54502095Y-98215476D01*
X54578285Y-98253571D01*
X54654476Y-98253571D01*
X54730666Y-98215476D01*
X54768761Y-98177380D01*
X54806857Y-98101190D01*
X54806857Y-97834523D01*
X54425904Y-98977380D02*
X54425904Y-98825000D01*
X54464000Y-98748809D01*
X54502095Y-98710714D01*
X54616380Y-98634523D01*
X54768761Y-98596428D01*
X55073523Y-98596428D01*
X55149714Y-98634523D01*
X55187809Y-98672619D01*
X55225904Y-98748809D01*
X55225904Y-98901190D01*
X55187809Y-98977380D01*
X55149714Y-99015476D01*
X55073523Y-99053571D01*
X54883047Y-99053571D01*
X54806857Y-99015476D01*
X54768761Y-98977380D01*
X54730666Y-98901190D01*
X54730666Y-98748809D01*
X54768761Y-98672619D01*
X54806857Y-98634523D01*
X54883047Y-98596428D01*
X54806857Y-109023190D02*
X54844952Y-109137476D01*
X54883047Y-109175571D01*
X54959238Y-109213666D01*
X55073523Y-109213666D01*
X55149714Y-109175571D01*
X55187809Y-109137476D01*
X55225904Y-109061285D01*
X55225904Y-108756523D01*
X54425904Y-108756523D01*
X54425904Y-109023190D01*
X54464000Y-109099380D01*
X54502095Y-109137476D01*
X54578285Y-109175571D01*
X54654476Y-109175571D01*
X54730666Y-109137476D01*
X54768761Y-109099380D01*
X54806857Y-109023190D01*
X54806857Y-108756523D01*
X54425904Y-109937476D02*
X54425904Y-109556523D01*
X54806857Y-109518428D01*
X54768761Y-109556523D01*
X54730666Y-109632714D01*
X54730666Y-109823190D01*
X54768761Y-109899380D01*
X54806857Y-109937476D01*
X54883047Y-109975571D01*
X55073523Y-109975571D01*
X55149714Y-109937476D01*
X55187809Y-109899380D01*
X55225904Y-109823190D01*
X55225904Y-109632714D01*
X55187809Y-109556523D01*
X55149714Y-109518428D01*
X52266857Y-109023190D02*
X52304952Y-109137476D01*
X52343047Y-109175571D01*
X52419238Y-109213666D01*
X52533523Y-109213666D01*
X52609714Y-109175571D01*
X52647809Y-109137476D01*
X52685904Y-109061285D01*
X52685904Y-108756523D01*
X51885904Y-108756523D01*
X51885904Y-109023190D01*
X51924000Y-109099380D01*
X51962095Y-109137476D01*
X52038285Y-109175571D01*
X52114476Y-109175571D01*
X52190666Y-109137476D01*
X52228761Y-109099380D01*
X52266857Y-109023190D01*
X52266857Y-108756523D01*
X52152571Y-109899380D02*
X52685904Y-109899380D01*
X51847809Y-109708904D02*
X52419238Y-109518428D01*
X52419238Y-110013666D01*
X49726857Y-108794619D02*
X49726857Y-109061285D01*
X50145904Y-109175571D02*
X50145904Y-108794619D01*
X49345904Y-108794619D01*
X49345904Y-109175571D01*
X49345904Y-109861285D02*
X49345904Y-109708904D01*
X49384000Y-109632714D01*
X49422095Y-109594619D01*
X49536380Y-109518428D01*
X49688761Y-109480333D01*
X49993523Y-109480333D01*
X50069714Y-109518428D01*
X50107809Y-109556523D01*
X50145904Y-109632714D01*
X50145904Y-109785095D01*
X50107809Y-109861285D01*
X50069714Y-109899380D01*
X49993523Y-109937476D01*
X49803047Y-109937476D01*
X49726857Y-109899380D01*
X49688761Y-109861285D01*
X49650666Y-109785095D01*
X49650666Y-109632714D01*
X49688761Y-109556523D01*
X49726857Y-109518428D01*
X49803047Y-109480333D01*
X47605904Y-108756523D02*
X46805904Y-108756523D01*
X46805904Y-108947000D01*
X46844000Y-109061285D01*
X46920190Y-109137476D01*
X46996380Y-109175571D01*
X47148761Y-109213666D01*
X47263047Y-109213666D01*
X47415428Y-109175571D01*
X47491619Y-109137476D01*
X47567809Y-109061285D01*
X47605904Y-108947000D01*
X47605904Y-108756523D01*
X46805904Y-109480333D02*
X46805904Y-110013666D01*
X47605904Y-109670809D01*
X44989714Y-109213666D02*
X45027809Y-109175571D01*
X45065904Y-109061285D01*
X45065904Y-108985095D01*
X45027809Y-108870809D01*
X44951619Y-108794619D01*
X44875428Y-108756523D01*
X44723047Y-108718428D01*
X44608761Y-108718428D01*
X44456380Y-108756523D01*
X44380190Y-108794619D01*
X44304000Y-108870809D01*
X44265904Y-108985095D01*
X44265904Y-109061285D01*
X44304000Y-109175571D01*
X44342095Y-109213666D01*
X44265904Y-109899380D02*
X44265904Y-109747000D01*
X44304000Y-109670809D01*
X44342095Y-109632714D01*
X44456380Y-109556523D01*
X44608761Y-109518428D01*
X44913523Y-109518428D01*
X44989714Y-109556523D01*
X45027809Y-109594619D01*
X45065904Y-109670809D01*
X45065904Y-109823190D01*
X45027809Y-109899380D01*
X44989714Y-109937476D01*
X44913523Y-109975571D01*
X44723047Y-109975571D01*
X44646857Y-109937476D01*
X44608761Y-109899380D01*
X44570666Y-109823190D01*
X44570666Y-109670809D01*
X44608761Y-109594619D01*
X44646857Y-109556523D01*
X44723047Y-109518428D01*
X42525904Y-108756523D02*
X41725904Y-108756523D01*
X41725904Y-108947000D01*
X41764000Y-109061285D01*
X41840190Y-109137476D01*
X41916380Y-109175571D01*
X42068761Y-109213666D01*
X42183047Y-109213666D01*
X42335428Y-109175571D01*
X42411619Y-109137476D01*
X42487809Y-109061285D01*
X42525904Y-108947000D01*
X42525904Y-108756523D01*
X41992571Y-109899380D02*
X42525904Y-109899380D01*
X41687809Y-109708904D02*
X42259238Y-109518428D01*
X42259238Y-110013666D01*
X31604000Y-108737476D02*
X31565904Y-108661285D01*
X31565904Y-108547000D01*
X31604000Y-108432714D01*
X31680190Y-108356523D01*
X31756380Y-108318428D01*
X31908761Y-108280333D01*
X32023047Y-108280333D01*
X32175428Y-108318428D01*
X32251619Y-108356523D01*
X32327809Y-108432714D01*
X32365904Y-108547000D01*
X32365904Y-108623190D01*
X32327809Y-108737476D01*
X32289714Y-108775571D01*
X32023047Y-108775571D01*
X32023047Y-108623190D01*
X32365904Y-109118428D02*
X31565904Y-109118428D01*
X32365904Y-109575571D01*
X31565904Y-109575571D01*
X32365904Y-109956523D02*
X31565904Y-109956523D01*
X31565904Y-110147000D01*
X31604000Y-110261285D01*
X31680190Y-110337476D01*
X31756380Y-110375571D01*
X31908761Y-110413666D01*
X32023047Y-110413666D01*
X32175428Y-110375571D01*
X32251619Y-110337476D01*
X32327809Y-110261285D01*
X32365904Y-110147000D01*
X32365904Y-109956523D01*
X34144000Y-108737476D02*
X34105904Y-108661285D01*
X34105904Y-108547000D01*
X34144000Y-108432714D01*
X34220190Y-108356523D01*
X34296380Y-108318428D01*
X34448761Y-108280333D01*
X34563047Y-108280333D01*
X34715428Y-108318428D01*
X34791619Y-108356523D01*
X34867809Y-108432714D01*
X34905904Y-108547000D01*
X34905904Y-108623190D01*
X34867809Y-108737476D01*
X34829714Y-108775571D01*
X34563047Y-108775571D01*
X34563047Y-108623190D01*
X34905904Y-109118428D02*
X34105904Y-109118428D01*
X34905904Y-109575571D01*
X34105904Y-109575571D01*
X34905904Y-109956523D02*
X34105904Y-109956523D01*
X34105904Y-110147000D01*
X34144000Y-110261285D01*
X34220190Y-110337476D01*
X34296380Y-110375571D01*
X34448761Y-110413666D01*
X34563047Y-110413666D01*
X34715428Y-110375571D01*
X34791619Y-110337476D01*
X34867809Y-110261285D01*
X34905904Y-110147000D01*
X34905904Y-109956523D01*
X37445904Y-108756523D02*
X36645904Y-108756523D01*
X36645904Y-108947000D01*
X36684000Y-109061285D01*
X36760190Y-109137476D01*
X36836380Y-109175571D01*
X36988761Y-109213666D01*
X37103047Y-109213666D01*
X37255428Y-109175571D01*
X37331619Y-109137476D01*
X37407809Y-109061285D01*
X37445904Y-108947000D01*
X37445904Y-108756523D01*
X37445904Y-109975571D02*
X37445904Y-109518428D01*
X37445904Y-109747000D02*
X36645904Y-109747000D01*
X36760190Y-109670809D01*
X36836380Y-109594619D01*
X36874476Y-109518428D01*
X39985904Y-108756523D02*
X39185904Y-108756523D01*
X39185904Y-108947000D01*
X39224000Y-109061285D01*
X39300190Y-109137476D01*
X39376380Y-109175571D01*
X39528761Y-109213666D01*
X39643047Y-109213666D01*
X39795428Y-109175571D01*
X39871619Y-109137476D01*
X39947809Y-109061285D01*
X39985904Y-108947000D01*
X39985904Y-108756523D01*
X39185904Y-109708904D02*
X39185904Y-109785095D01*
X39224000Y-109861285D01*
X39262095Y-109899380D01*
X39338285Y-109937476D01*
X39490666Y-109975571D01*
X39681142Y-109975571D01*
X39833523Y-109937476D01*
X39909714Y-109899380D01*
X39947809Y-109861285D01*
X39985904Y-109785095D01*
X39985904Y-109708904D01*
X39947809Y-109632714D01*
X39909714Y-109594619D01*
X39833523Y-109556523D01*
X39681142Y-109518428D01*
X39490666Y-109518428D01*
X39338285Y-109556523D01*
X39262095Y-109594619D01*
X39224000Y-109632714D01*
X39185904Y-109708904D01*
X29825904Y-108756523D02*
X29025904Y-108756523D01*
X29025904Y-108947000D01*
X29064000Y-109061285D01*
X29140190Y-109137476D01*
X29216380Y-109175571D01*
X29368761Y-109213666D01*
X29483047Y-109213666D01*
X29635428Y-109175571D01*
X29711619Y-109137476D01*
X29787809Y-109061285D01*
X29825904Y-108947000D01*
X29825904Y-108756523D01*
X29102095Y-109518428D02*
X29064000Y-109556523D01*
X29025904Y-109632714D01*
X29025904Y-109823190D01*
X29064000Y-109899380D01*
X29102095Y-109937476D01*
X29178285Y-109975571D01*
X29254476Y-109975571D01*
X29368761Y-109937476D01*
X29825904Y-109480333D01*
X29825904Y-109975571D01*
M02*
