G04 #@! TF.GenerationSoftware,KiCad,Pcbnew,5.1.3-ffb9f22~84~ubuntu19.04.1*
G04 #@! TF.CreationDate,2019-08-05T11:02:01+08:00*
G04 #@! TF.ProjectId,fissure,66697373-7572-4652-9e6b-696361645f70,rev?*
G04 #@! TF.SameCoordinates,Original*
G04 #@! TF.FileFunction,Legend,Top*
G04 #@! TF.FilePolarity,Positive*
%FSLAX46Y46*%
G04 Gerber Fmt 4.6, Leading zero omitted, Abs format (unit mm)*
G04 Created by KiCad (PCBNEW 5.1.3-ffb9f22~84~ubuntu19.04.1) date 2019-08-05 11:02:01*
%MOMM*%
%LPD*%
G04 APERTURE LIST*
%ADD10C,0.150000*%
%ADD11C,0.200000*%
%ADD12C,0.381000*%
G04 APERTURE END LIST*
D10*
X35282285Y-105957714D02*
X35282285Y-106624380D01*
X35044190Y-105576761D02*
X34806095Y-106291047D01*
X35425142Y-106291047D01*
X35806095Y-106624380D02*
X35806095Y-105624380D01*
X36377523Y-106624380D02*
X35948952Y-106052952D01*
X36377523Y-105624380D02*
X35806095Y-106195809D01*
X36710857Y-105624380D02*
X37377523Y-105624380D01*
X36948952Y-106624380D01*
D11*
X60509000Y-74416000D02*
X60509000Y-80216000D01*
X58109000Y-74416000D02*
X60509000Y-74416000D01*
X58109000Y-80216000D02*
X58109000Y-74416000D01*
X58109000Y-80141000D02*
X60509000Y-80141000D01*
X58109000Y-80016000D02*
X60509000Y-80016000D01*
X60509000Y-80241000D02*
X58109000Y-80241000D01*
X58109000Y-79841000D02*
X60509000Y-79841000D01*
X58109000Y-79666000D02*
X60509000Y-79666000D01*
X58109000Y-79491000D02*
X60509000Y-79491000D01*
D12*
X25654000Y-110236000D02*
X25654000Y-112776000D01*
X23114000Y-112776000D02*
X25654000Y-112776000D01*
X23114000Y-94996000D02*
X23114000Y-112776000D01*
X25654000Y-94996000D02*
X23114000Y-94996000D01*
D10*
G36*
X32133360Y-98954432D02*
G01*
X32333360Y-98954432D01*
X32333360Y-99054432D01*
X32133360Y-99054432D01*
X32133360Y-98954432D01*
G37*
X32133360Y-98954432D02*
X32333360Y-98954432D01*
X32333360Y-99054432D01*
X32133360Y-99054432D01*
X32133360Y-98954432D01*
G36*
X31533360Y-99354432D02*
G01*
X32333360Y-99354432D01*
X32333360Y-99454432D01*
X31533360Y-99454432D01*
X31533360Y-99354432D01*
G37*
X31533360Y-99354432D02*
X32333360Y-99354432D01*
X32333360Y-99454432D01*
X31533360Y-99454432D01*
X31533360Y-99354432D01*
G36*
X31533360Y-98954432D02*
G01*
X31633360Y-98954432D01*
X31633360Y-99454432D01*
X31533360Y-99454432D01*
X31533360Y-98954432D01*
G37*
X31533360Y-98954432D02*
X31633360Y-98954432D01*
X31633360Y-99454432D01*
X31533360Y-99454432D01*
X31533360Y-98954432D01*
G36*
X31933360Y-99154432D02*
G01*
X32033360Y-99154432D01*
X32033360Y-99254432D01*
X31933360Y-99254432D01*
X31933360Y-99154432D01*
G37*
X31933360Y-99154432D02*
X32033360Y-99154432D01*
X32033360Y-99254432D01*
X31933360Y-99254432D01*
X31933360Y-99154432D01*
G36*
X31533360Y-98954432D02*
G01*
X31833360Y-98954432D01*
X31833360Y-99054432D01*
X31533360Y-99054432D01*
X31533360Y-98954432D01*
G37*
X31533360Y-98954432D02*
X31833360Y-98954432D01*
X31833360Y-99054432D01*
X31533360Y-99054432D01*
X31533360Y-98954432D01*
D12*
X28194000Y-110236000D02*
X28194000Y-112776000D01*
X25654000Y-110236000D02*
X28194000Y-110236000D01*
X56134000Y-94996000D02*
X25654000Y-94996000D01*
X56134000Y-112776000D02*
X56134000Y-94996000D01*
X25654000Y-112776000D02*
X56134000Y-112776000D01*
D11*
X58109000Y-106686000D02*
X58109000Y-100886000D01*
X60509000Y-106686000D02*
X58109000Y-106686000D01*
X60509000Y-100886000D02*
X60509000Y-106686000D01*
X60509000Y-100961000D02*
X58109000Y-100961000D01*
X60509000Y-101086000D02*
X58109000Y-101086000D01*
X58109000Y-100861000D02*
X60509000Y-100861000D01*
X60509000Y-101261000D02*
X58109000Y-101261000D01*
X60509000Y-101436000D02*
X58109000Y-101436000D01*
X60509000Y-101611000D02*
X58109000Y-101611000D01*
X96209000Y-109734000D02*
X96209000Y-103934000D01*
X98609000Y-109734000D02*
X96209000Y-109734000D01*
X98609000Y-103934000D02*
X98609000Y-109734000D01*
X98609000Y-104009000D02*
X96209000Y-104009000D01*
X98609000Y-104134000D02*
X96209000Y-104134000D01*
X96209000Y-103909000D02*
X98609000Y-103909000D01*
X98609000Y-104309000D02*
X96209000Y-104309000D01*
X98609000Y-104484000D02*
X96209000Y-104484000D01*
X98609000Y-104659000D02*
X96209000Y-104659000D01*
X95256000Y-94672000D02*
X89456000Y-94672000D01*
X95256000Y-92272000D02*
X95256000Y-94672000D01*
X89456000Y-92272000D02*
X95256000Y-92272000D01*
X89531000Y-92272000D02*
X89531000Y-94672000D01*
X89656000Y-92272000D02*
X89656000Y-94672000D01*
X89431000Y-94672000D02*
X89431000Y-92272000D01*
X89831000Y-92272000D02*
X89831000Y-94672000D01*
X90006000Y-92272000D02*
X90006000Y-94672000D01*
X90181000Y-92272000D02*
X90181000Y-94672000D01*
X95256000Y-91624000D02*
X89456000Y-91624000D01*
X95256000Y-89224000D02*
X95256000Y-91624000D01*
X89456000Y-89224000D02*
X95256000Y-89224000D01*
X89531000Y-89224000D02*
X89531000Y-91624000D01*
X89656000Y-89224000D02*
X89656000Y-91624000D01*
X89431000Y-91624000D02*
X89431000Y-89224000D01*
X89831000Y-89224000D02*
X89831000Y-91624000D01*
X90006000Y-89224000D02*
X90006000Y-91624000D01*
X90181000Y-89224000D02*
X90181000Y-91624000D01*
X98609000Y-74416000D02*
X98609000Y-80216000D01*
X96209000Y-74416000D02*
X98609000Y-74416000D01*
X96209000Y-80216000D02*
X96209000Y-74416000D01*
X96209000Y-80141000D02*
X98609000Y-80141000D01*
X96209000Y-80016000D02*
X98609000Y-80016000D01*
X98609000Y-80241000D02*
X96209000Y-80241000D01*
X96209000Y-79841000D02*
X98609000Y-79841000D01*
X96209000Y-79666000D02*
X98609000Y-79666000D01*
X96209000Y-79491000D02*
X98609000Y-79491000D01*
X98609000Y-55366000D02*
X98609000Y-61166000D01*
X96209000Y-55366000D02*
X98609000Y-55366000D01*
X96209000Y-61166000D02*
X96209000Y-55366000D01*
X96209000Y-61091000D02*
X98609000Y-61091000D01*
X96209000Y-60966000D02*
X98609000Y-60966000D01*
X98609000Y-61191000D02*
X96209000Y-61191000D01*
X96209000Y-60791000D02*
X98609000Y-60791000D01*
X96209000Y-60616000D02*
X98609000Y-60616000D01*
X96209000Y-60441000D02*
X98609000Y-60441000D01*
X96336000Y-41391000D02*
X98736000Y-41391000D01*
X96336000Y-41566000D02*
X98736000Y-41566000D01*
X96336000Y-41741000D02*
X98736000Y-41741000D01*
X98736000Y-42141000D02*
X96336000Y-42141000D01*
X96336000Y-41916000D02*
X98736000Y-41916000D01*
X96336000Y-42041000D02*
X98736000Y-42041000D01*
X96336000Y-42116000D02*
X96336000Y-36316000D01*
X96336000Y-36316000D02*
X98736000Y-36316000D01*
X98736000Y-36316000D02*
X98736000Y-42116000D01*
X98609000Y-17266000D02*
X98609000Y-23066000D01*
X96209000Y-17266000D02*
X98609000Y-17266000D01*
X96209000Y-23066000D02*
X96209000Y-17266000D01*
X96209000Y-22991000D02*
X98609000Y-22991000D01*
X96209000Y-22866000D02*
X98609000Y-22866000D01*
X98609000Y-23091000D02*
X96209000Y-23091000D01*
X96209000Y-22691000D02*
X98609000Y-22691000D01*
X96209000Y-22516000D02*
X98609000Y-22516000D01*
X96209000Y-22341000D02*
X98609000Y-22341000D01*
X77159000Y-106686000D02*
X77159000Y-100886000D01*
X79559000Y-106686000D02*
X77159000Y-106686000D01*
X79559000Y-100886000D02*
X79559000Y-106686000D01*
X79559000Y-100961000D02*
X77159000Y-100961000D01*
X79559000Y-101086000D02*
X77159000Y-101086000D01*
X77159000Y-100861000D02*
X79559000Y-100861000D01*
X79559000Y-101261000D02*
X77159000Y-101261000D01*
X79559000Y-101436000D02*
X77159000Y-101436000D01*
X79559000Y-101611000D02*
X77159000Y-101611000D01*
X79559000Y-74416000D02*
X79559000Y-80216000D01*
X77159000Y-74416000D02*
X79559000Y-74416000D01*
X77159000Y-80216000D02*
X77159000Y-74416000D01*
X77159000Y-80141000D02*
X79559000Y-80141000D01*
X77159000Y-80016000D02*
X79559000Y-80016000D01*
X79559000Y-80241000D02*
X77159000Y-80241000D01*
X77159000Y-79841000D02*
X79559000Y-79841000D01*
X77159000Y-79666000D02*
X79559000Y-79666000D01*
X77159000Y-79491000D02*
X79559000Y-79491000D01*
X79559000Y-55366000D02*
X79559000Y-61166000D01*
X77159000Y-55366000D02*
X79559000Y-55366000D01*
X77159000Y-61166000D02*
X77159000Y-55366000D01*
X77159000Y-61091000D02*
X79559000Y-61091000D01*
X77159000Y-60966000D02*
X79559000Y-60966000D01*
X79559000Y-61191000D02*
X77159000Y-61191000D01*
X77159000Y-60791000D02*
X79559000Y-60791000D01*
X77159000Y-60616000D02*
X79559000Y-60616000D01*
X77159000Y-60441000D02*
X79559000Y-60441000D01*
X79559000Y-36316000D02*
X79559000Y-42116000D01*
X77159000Y-36316000D02*
X79559000Y-36316000D01*
X77159000Y-42116000D02*
X77159000Y-36316000D01*
X77159000Y-42041000D02*
X79559000Y-42041000D01*
X77159000Y-41916000D02*
X79559000Y-41916000D01*
X79559000Y-42141000D02*
X77159000Y-42141000D01*
X77159000Y-41741000D02*
X79559000Y-41741000D01*
X77159000Y-41566000D02*
X79559000Y-41566000D01*
X77159000Y-41391000D02*
X79559000Y-41391000D01*
X79559000Y-17266000D02*
X79559000Y-23066000D01*
X77159000Y-17266000D02*
X79559000Y-17266000D01*
X77159000Y-23066000D02*
X77159000Y-17266000D01*
X77159000Y-22991000D02*
X79559000Y-22991000D01*
X77159000Y-22866000D02*
X79559000Y-22866000D01*
X79559000Y-23091000D02*
X77159000Y-23091000D01*
X77159000Y-22691000D02*
X79559000Y-22691000D01*
X77159000Y-22516000D02*
X79559000Y-22516000D01*
X77159000Y-22341000D02*
X79559000Y-22341000D01*
X60509000Y-55366000D02*
X60509000Y-61166000D01*
X58109000Y-55366000D02*
X60509000Y-55366000D01*
X58109000Y-61166000D02*
X58109000Y-55366000D01*
X58109000Y-61091000D02*
X60509000Y-61091000D01*
X58109000Y-60966000D02*
X60509000Y-60966000D01*
X60509000Y-61191000D02*
X58109000Y-61191000D01*
X58109000Y-60791000D02*
X60509000Y-60791000D01*
X58109000Y-60616000D02*
X60509000Y-60616000D01*
X58109000Y-60441000D02*
X60509000Y-60441000D01*
X60509000Y-36316000D02*
X60509000Y-42116000D01*
X58109000Y-36316000D02*
X60509000Y-36316000D01*
X58109000Y-42116000D02*
X58109000Y-36316000D01*
X58109000Y-42041000D02*
X60509000Y-42041000D01*
X58109000Y-41916000D02*
X60509000Y-41916000D01*
X60509000Y-42141000D02*
X58109000Y-42141000D01*
X58109000Y-41741000D02*
X60509000Y-41741000D01*
X58109000Y-41566000D02*
X60509000Y-41566000D01*
X58109000Y-41391000D02*
X60509000Y-41391000D01*
X60509000Y-17266000D02*
X60509000Y-23066000D01*
X58109000Y-17266000D02*
X60509000Y-17266000D01*
X58109000Y-23066000D02*
X58109000Y-17266000D01*
X58109000Y-22991000D02*
X60509000Y-22991000D01*
X58109000Y-22866000D02*
X60509000Y-22866000D01*
X60509000Y-23091000D02*
X58109000Y-23091000D01*
X58109000Y-22691000D02*
X60509000Y-22691000D01*
X58109000Y-22516000D02*
X60509000Y-22516000D01*
X58109000Y-22341000D02*
X60509000Y-22341000D01*
X41459000Y-74416000D02*
X41459000Y-80216000D01*
X39059000Y-74416000D02*
X41459000Y-74416000D01*
X39059000Y-80216000D02*
X39059000Y-74416000D01*
X39059000Y-80141000D02*
X41459000Y-80141000D01*
X39059000Y-80016000D02*
X41459000Y-80016000D01*
X41459000Y-80241000D02*
X39059000Y-80241000D01*
X39059000Y-79841000D02*
X41459000Y-79841000D01*
X39059000Y-79666000D02*
X41459000Y-79666000D01*
X39059000Y-79491000D02*
X41459000Y-79491000D01*
X41459000Y-55366000D02*
X41459000Y-61166000D01*
X39059000Y-55366000D02*
X41459000Y-55366000D01*
X39059000Y-61166000D02*
X39059000Y-55366000D01*
X39059000Y-61091000D02*
X41459000Y-61091000D01*
X39059000Y-60966000D02*
X41459000Y-60966000D01*
X41459000Y-61191000D02*
X39059000Y-61191000D01*
X39059000Y-60791000D02*
X41459000Y-60791000D01*
X39059000Y-60616000D02*
X41459000Y-60616000D01*
X39059000Y-60441000D02*
X41459000Y-60441000D01*
X41459000Y-36316000D02*
X41459000Y-42116000D01*
X39059000Y-36316000D02*
X41459000Y-36316000D01*
X39059000Y-42116000D02*
X39059000Y-36316000D01*
X39059000Y-42041000D02*
X41459000Y-42041000D01*
X39059000Y-41916000D02*
X41459000Y-41916000D01*
X41459000Y-42141000D02*
X39059000Y-42141000D01*
X39059000Y-41741000D02*
X41459000Y-41741000D01*
X39059000Y-41566000D02*
X41459000Y-41566000D01*
X39059000Y-41391000D02*
X41459000Y-41391000D01*
X41459000Y-17266000D02*
X41459000Y-23066000D01*
X39059000Y-17266000D02*
X41459000Y-17266000D01*
X39059000Y-23066000D02*
X39059000Y-17266000D01*
X39059000Y-22991000D02*
X41459000Y-22991000D01*
X39059000Y-22866000D02*
X41459000Y-22866000D01*
X41459000Y-23091000D02*
X39059000Y-23091000D01*
X39059000Y-22691000D02*
X41459000Y-22691000D01*
X39059000Y-22516000D02*
X41459000Y-22516000D01*
X39059000Y-22341000D02*
X41459000Y-22341000D01*
X33534000Y-91751000D02*
X27734000Y-91751000D01*
X33534000Y-89351000D02*
X33534000Y-91751000D01*
X27734000Y-89351000D02*
X33534000Y-89351000D01*
X27809000Y-89351000D02*
X27809000Y-91751000D01*
X27934000Y-89351000D02*
X27934000Y-91751000D01*
X27709000Y-91751000D02*
X27709000Y-89351000D01*
X28109000Y-89351000D02*
X28109000Y-91751000D01*
X28284000Y-89351000D02*
X28284000Y-91751000D01*
X28459000Y-89351000D02*
X28459000Y-91751000D01*
X33534000Y-72955000D02*
X27734000Y-72955000D01*
X33534000Y-70555000D02*
X33534000Y-72955000D01*
X27734000Y-70555000D02*
X33534000Y-70555000D01*
X27809000Y-70555000D02*
X27809000Y-72955000D01*
X27934000Y-70555000D02*
X27934000Y-72955000D01*
X27709000Y-72955000D02*
X27709000Y-70555000D01*
X28109000Y-70555000D02*
X28109000Y-72955000D01*
X28284000Y-70555000D02*
X28284000Y-72955000D01*
X28459000Y-70555000D02*
X28459000Y-72955000D01*
X33534000Y-53651000D02*
X27734000Y-53651000D01*
X33534000Y-51251000D02*
X33534000Y-53651000D01*
X27734000Y-51251000D02*
X33534000Y-51251000D01*
X27809000Y-51251000D02*
X27809000Y-53651000D01*
X27934000Y-51251000D02*
X27934000Y-53651000D01*
X27709000Y-53651000D02*
X27709000Y-51251000D01*
X28109000Y-51251000D02*
X28109000Y-53651000D01*
X28284000Y-51251000D02*
X28284000Y-53651000D01*
X28459000Y-51251000D02*
X28459000Y-53651000D01*
X33534000Y-34601000D02*
X27734000Y-34601000D01*
X33534000Y-32201000D02*
X33534000Y-34601000D01*
X27734000Y-32201000D02*
X33534000Y-32201000D01*
X27809000Y-32201000D02*
X27809000Y-34601000D01*
X27934000Y-32201000D02*
X27934000Y-34601000D01*
X27709000Y-34601000D02*
X27709000Y-32201000D01*
X28109000Y-32201000D02*
X28109000Y-34601000D01*
X28284000Y-32201000D02*
X28284000Y-34601000D01*
X28459000Y-32201000D02*
X28459000Y-34601000D01*
D10*
X114046000Y-96395000D02*
X114046000Y-90295000D01*
X101946000Y-96395000D02*
X101946000Y-90295000D01*
X114046000Y-96395000D02*
X101946000Y-96395000D01*
X114046000Y-90295000D02*
X101946000Y-90295000D01*
X114046000Y-96145000D02*
X116046000Y-96145000D01*
X114046000Y-90545000D02*
X116046000Y-90545000D01*
X116046000Y-96145000D02*
X116046000Y-90545000D01*
X26485904Y-109648348D02*
X26485904Y-109191205D01*
X27285904Y-109419776D02*
X26485904Y-109419776D01*
X26485904Y-109000729D02*
X27285904Y-108467395D01*
X26485904Y-108467395D02*
X27285904Y-109000729D01*
X26485904Y-108010252D02*
X26485904Y-107934062D01*
X26524000Y-107857872D01*
X26562095Y-107819776D01*
X26638285Y-107781681D01*
X26790666Y-107743586D01*
X26981142Y-107743586D01*
X27133523Y-107781681D01*
X27209714Y-107819776D01*
X27247809Y-107857872D01*
X27285904Y-107934062D01*
X27285904Y-108010252D01*
X27247809Y-108086443D01*
X27209714Y-108124538D01*
X27133523Y-108162633D01*
X26981142Y-108200729D01*
X26790666Y-108200729D01*
X26638285Y-108162633D01*
X26562095Y-108124538D01*
X26524000Y-108086443D01*
X26485904Y-108010252D01*
X26447809Y-106829300D02*
X27476380Y-107515014D01*
X27285904Y-106562633D02*
X26485904Y-106562633D01*
X26485904Y-106372157D01*
X26524000Y-106257872D01*
X26600190Y-106181681D01*
X26676380Y-106143586D01*
X26828761Y-106105491D01*
X26943047Y-106105491D01*
X27095428Y-106143586D01*
X27171619Y-106181681D01*
X27247809Y-106257872D01*
X27285904Y-106372157D01*
X27285904Y-106562633D01*
X26485904Y-105838824D02*
X26485904Y-105343586D01*
X26790666Y-105610252D01*
X26790666Y-105495967D01*
X26828761Y-105419776D01*
X26866857Y-105381681D01*
X26943047Y-105343586D01*
X27133523Y-105343586D01*
X27209714Y-105381681D01*
X27247809Y-105419776D01*
X27285904Y-105495967D01*
X27285904Y-105724538D01*
X27247809Y-105800729D01*
X27209714Y-105838824D01*
X29825904Y-109937476D02*
X29025904Y-109937476D01*
X29025904Y-109747000D01*
X29064000Y-109632714D01*
X29140190Y-109556523D01*
X29216380Y-109518428D01*
X29368761Y-109480333D01*
X29483047Y-109480333D01*
X29635428Y-109518428D01*
X29711619Y-109556523D01*
X29787809Y-109632714D01*
X29825904Y-109747000D01*
X29825904Y-109937476D01*
X29102095Y-109175571D02*
X29064000Y-109137476D01*
X29025904Y-109061285D01*
X29025904Y-108870809D01*
X29064000Y-108794619D01*
X29102095Y-108756523D01*
X29178285Y-108718428D01*
X29254476Y-108718428D01*
X29368761Y-108756523D01*
X29825904Y-109213666D01*
X29825904Y-108718428D01*
X39985904Y-109937476D02*
X39185904Y-109937476D01*
X39185904Y-109747000D01*
X39224000Y-109632714D01*
X39300190Y-109556523D01*
X39376380Y-109518428D01*
X39528761Y-109480333D01*
X39643047Y-109480333D01*
X39795428Y-109518428D01*
X39871619Y-109556523D01*
X39947809Y-109632714D01*
X39985904Y-109747000D01*
X39985904Y-109937476D01*
X39185904Y-108985095D02*
X39185904Y-108908904D01*
X39224000Y-108832714D01*
X39262095Y-108794619D01*
X39338285Y-108756523D01*
X39490666Y-108718428D01*
X39681142Y-108718428D01*
X39833523Y-108756523D01*
X39909714Y-108794619D01*
X39947809Y-108832714D01*
X39985904Y-108908904D01*
X39985904Y-108985095D01*
X39947809Y-109061285D01*
X39909714Y-109099380D01*
X39833523Y-109137476D01*
X39681142Y-109175571D01*
X39490666Y-109175571D01*
X39338285Y-109137476D01*
X39262095Y-109099380D01*
X39224000Y-109061285D01*
X39185904Y-108985095D01*
X37445904Y-109937476D02*
X36645904Y-109937476D01*
X36645904Y-109747000D01*
X36684000Y-109632714D01*
X36760190Y-109556523D01*
X36836380Y-109518428D01*
X36988761Y-109480333D01*
X37103047Y-109480333D01*
X37255428Y-109518428D01*
X37331619Y-109556523D01*
X37407809Y-109632714D01*
X37445904Y-109747000D01*
X37445904Y-109937476D01*
X37445904Y-108718428D02*
X37445904Y-109175571D01*
X37445904Y-108947000D02*
X36645904Y-108947000D01*
X36760190Y-109023190D01*
X36836380Y-109099380D01*
X36874476Y-109175571D01*
X34144000Y-109956523D02*
X34105904Y-110032714D01*
X34105904Y-110147000D01*
X34144000Y-110261285D01*
X34220190Y-110337476D01*
X34296380Y-110375571D01*
X34448761Y-110413666D01*
X34563047Y-110413666D01*
X34715428Y-110375571D01*
X34791619Y-110337476D01*
X34867809Y-110261285D01*
X34905904Y-110147000D01*
X34905904Y-110070809D01*
X34867809Y-109956523D01*
X34829714Y-109918428D01*
X34563047Y-109918428D01*
X34563047Y-110070809D01*
X34905904Y-109575571D02*
X34105904Y-109575571D01*
X34905904Y-109118428D01*
X34105904Y-109118428D01*
X34905904Y-108737476D02*
X34105904Y-108737476D01*
X34105904Y-108547000D01*
X34144000Y-108432714D01*
X34220190Y-108356523D01*
X34296380Y-108318428D01*
X34448761Y-108280333D01*
X34563047Y-108280333D01*
X34715428Y-108318428D01*
X34791619Y-108356523D01*
X34867809Y-108432714D01*
X34905904Y-108547000D01*
X34905904Y-108737476D01*
X31604000Y-109956523D02*
X31565904Y-110032714D01*
X31565904Y-110147000D01*
X31604000Y-110261285D01*
X31680190Y-110337476D01*
X31756380Y-110375571D01*
X31908761Y-110413666D01*
X32023047Y-110413666D01*
X32175428Y-110375571D01*
X32251619Y-110337476D01*
X32327809Y-110261285D01*
X32365904Y-110147000D01*
X32365904Y-110070809D01*
X32327809Y-109956523D01*
X32289714Y-109918428D01*
X32023047Y-109918428D01*
X32023047Y-110070809D01*
X32365904Y-109575571D02*
X31565904Y-109575571D01*
X32365904Y-109118428D01*
X31565904Y-109118428D01*
X32365904Y-108737476D02*
X31565904Y-108737476D01*
X31565904Y-108547000D01*
X31604000Y-108432714D01*
X31680190Y-108356523D01*
X31756380Y-108318428D01*
X31908761Y-108280333D01*
X32023047Y-108280333D01*
X32175428Y-108318428D01*
X32251619Y-108356523D01*
X32327809Y-108432714D01*
X32365904Y-108547000D01*
X32365904Y-108737476D01*
X42525904Y-109937476D02*
X41725904Y-109937476D01*
X41725904Y-109747000D01*
X41764000Y-109632714D01*
X41840190Y-109556523D01*
X41916380Y-109518428D01*
X42068761Y-109480333D01*
X42183047Y-109480333D01*
X42335428Y-109518428D01*
X42411619Y-109556523D01*
X42487809Y-109632714D01*
X42525904Y-109747000D01*
X42525904Y-109937476D01*
X41992571Y-108794619D02*
X42525904Y-108794619D01*
X41687809Y-108985095D02*
X42259238Y-109175571D01*
X42259238Y-108680333D01*
X44989714Y-109480333D02*
X45027809Y-109518428D01*
X45065904Y-109632714D01*
X45065904Y-109708904D01*
X45027809Y-109823190D01*
X44951619Y-109899380D01*
X44875428Y-109937476D01*
X44723047Y-109975571D01*
X44608761Y-109975571D01*
X44456380Y-109937476D01*
X44380190Y-109899380D01*
X44304000Y-109823190D01*
X44265904Y-109708904D01*
X44265904Y-109632714D01*
X44304000Y-109518428D01*
X44342095Y-109480333D01*
X44265904Y-108794619D02*
X44265904Y-108947000D01*
X44304000Y-109023190D01*
X44342095Y-109061285D01*
X44456380Y-109137476D01*
X44608761Y-109175571D01*
X44913523Y-109175571D01*
X44989714Y-109137476D01*
X45027809Y-109099380D01*
X45065904Y-109023190D01*
X45065904Y-108870809D01*
X45027809Y-108794619D01*
X44989714Y-108756523D01*
X44913523Y-108718428D01*
X44723047Y-108718428D01*
X44646857Y-108756523D01*
X44608761Y-108794619D01*
X44570666Y-108870809D01*
X44570666Y-109023190D01*
X44608761Y-109099380D01*
X44646857Y-109137476D01*
X44723047Y-109175571D01*
X47605904Y-109937476D02*
X46805904Y-109937476D01*
X46805904Y-109747000D01*
X46844000Y-109632714D01*
X46920190Y-109556523D01*
X46996380Y-109518428D01*
X47148761Y-109480333D01*
X47263047Y-109480333D01*
X47415428Y-109518428D01*
X47491619Y-109556523D01*
X47567809Y-109632714D01*
X47605904Y-109747000D01*
X47605904Y-109937476D01*
X46805904Y-109213666D02*
X46805904Y-108680333D01*
X47605904Y-109023190D01*
X49726857Y-109899380D02*
X49726857Y-109632714D01*
X50145904Y-109518428D02*
X50145904Y-109899380D01*
X49345904Y-109899380D01*
X49345904Y-109518428D01*
X49345904Y-108832714D02*
X49345904Y-108985095D01*
X49384000Y-109061285D01*
X49422095Y-109099380D01*
X49536380Y-109175571D01*
X49688761Y-109213666D01*
X49993523Y-109213666D01*
X50069714Y-109175571D01*
X50107809Y-109137476D01*
X50145904Y-109061285D01*
X50145904Y-108908904D01*
X50107809Y-108832714D01*
X50069714Y-108794619D01*
X49993523Y-108756523D01*
X49803047Y-108756523D01*
X49726857Y-108794619D01*
X49688761Y-108832714D01*
X49650666Y-108908904D01*
X49650666Y-109061285D01*
X49688761Y-109137476D01*
X49726857Y-109175571D01*
X49803047Y-109213666D01*
X52266857Y-109670809D02*
X52304952Y-109556523D01*
X52343047Y-109518428D01*
X52419238Y-109480333D01*
X52533523Y-109480333D01*
X52609714Y-109518428D01*
X52647809Y-109556523D01*
X52685904Y-109632714D01*
X52685904Y-109937476D01*
X51885904Y-109937476D01*
X51885904Y-109670809D01*
X51924000Y-109594619D01*
X51962095Y-109556523D01*
X52038285Y-109518428D01*
X52114476Y-109518428D01*
X52190666Y-109556523D01*
X52228761Y-109594619D01*
X52266857Y-109670809D01*
X52266857Y-109937476D01*
X52152571Y-108794619D02*
X52685904Y-108794619D01*
X51847809Y-108985095D02*
X52419238Y-109175571D01*
X52419238Y-108680333D01*
X54806857Y-109670809D02*
X54844952Y-109556523D01*
X54883047Y-109518428D01*
X54959238Y-109480333D01*
X55073523Y-109480333D01*
X55149714Y-109518428D01*
X55187809Y-109556523D01*
X55225904Y-109632714D01*
X55225904Y-109937476D01*
X54425904Y-109937476D01*
X54425904Y-109670809D01*
X54464000Y-109594619D01*
X54502095Y-109556523D01*
X54578285Y-109518428D01*
X54654476Y-109518428D01*
X54730666Y-109556523D01*
X54768761Y-109594619D01*
X54806857Y-109670809D01*
X54806857Y-109937476D01*
X54425904Y-108756523D02*
X54425904Y-109137476D01*
X54806857Y-109175571D01*
X54768761Y-109137476D01*
X54730666Y-109061285D01*
X54730666Y-108870809D01*
X54768761Y-108794619D01*
X54806857Y-108756523D01*
X54883047Y-108718428D01*
X55073523Y-108718428D01*
X55149714Y-108756523D01*
X55187809Y-108794619D01*
X55225904Y-108870809D01*
X55225904Y-109061285D01*
X55187809Y-109137476D01*
X55149714Y-109175571D01*
X54806857Y-98748809D02*
X54844952Y-98634523D01*
X54883047Y-98596428D01*
X54959238Y-98558333D01*
X55073523Y-98558333D01*
X55149714Y-98596428D01*
X55187809Y-98634523D01*
X55225904Y-98710714D01*
X55225904Y-99015476D01*
X54425904Y-99015476D01*
X54425904Y-98748809D01*
X54464000Y-98672619D01*
X54502095Y-98634523D01*
X54578285Y-98596428D01*
X54654476Y-98596428D01*
X54730666Y-98634523D01*
X54768761Y-98672619D01*
X54806857Y-98748809D01*
X54806857Y-99015476D01*
X54425904Y-97872619D02*
X54425904Y-98025000D01*
X54464000Y-98101190D01*
X54502095Y-98139285D01*
X54616380Y-98215476D01*
X54768761Y-98253571D01*
X55073523Y-98253571D01*
X55149714Y-98215476D01*
X55187809Y-98177380D01*
X55225904Y-98101190D01*
X55225904Y-97948809D01*
X55187809Y-97872619D01*
X55149714Y-97834523D01*
X55073523Y-97796428D01*
X54883047Y-97796428D01*
X54806857Y-97834523D01*
X54768761Y-97872619D01*
X54730666Y-97948809D01*
X54730666Y-98101190D01*
X54768761Y-98177380D01*
X54806857Y-98215476D01*
X54883047Y-98253571D01*
X49726857Y-98748809D02*
X49764952Y-98634523D01*
X49803047Y-98596428D01*
X49879238Y-98558333D01*
X49993523Y-98558333D01*
X50069714Y-98596428D01*
X50107809Y-98634523D01*
X50145904Y-98710714D01*
X50145904Y-99015476D01*
X49345904Y-99015476D01*
X49345904Y-98748809D01*
X49384000Y-98672619D01*
X49422095Y-98634523D01*
X49498285Y-98596428D01*
X49574476Y-98596428D01*
X49650666Y-98634523D01*
X49688761Y-98672619D01*
X49726857Y-98748809D01*
X49726857Y-99015476D01*
X49345904Y-98291666D02*
X49345904Y-97796428D01*
X49650666Y-98063095D01*
X49650666Y-97948809D01*
X49688761Y-97872619D01*
X49726857Y-97834523D01*
X49803047Y-97796428D01*
X49993523Y-97796428D01*
X50069714Y-97834523D01*
X50107809Y-97872619D01*
X50145904Y-97948809D01*
X50145904Y-98177380D01*
X50107809Y-98253571D01*
X50069714Y-98291666D01*
X47186857Y-98748809D02*
X47224952Y-98634523D01*
X47263047Y-98596428D01*
X47339238Y-98558333D01*
X47453523Y-98558333D01*
X47529714Y-98596428D01*
X47567809Y-98634523D01*
X47605904Y-98710714D01*
X47605904Y-99015476D01*
X46805904Y-99015476D01*
X46805904Y-98748809D01*
X46844000Y-98672619D01*
X46882095Y-98634523D01*
X46958285Y-98596428D01*
X47034476Y-98596428D01*
X47110666Y-98634523D01*
X47148761Y-98672619D01*
X47186857Y-98748809D01*
X47186857Y-99015476D01*
X47605904Y-97796428D02*
X47605904Y-98253571D01*
X47605904Y-98025000D02*
X46805904Y-98025000D01*
X46920190Y-98101190D01*
X46996380Y-98177380D01*
X47034476Y-98253571D01*
X37026857Y-93357666D02*
X37026857Y-93624333D01*
X37445904Y-93624333D02*
X36645904Y-93624333D01*
X36645904Y-93243380D01*
X36912571Y-92595761D02*
X37445904Y-92595761D01*
X36607809Y-92786238D02*
X37179238Y-92976714D01*
X37179238Y-92481476D01*
X34105904Y-94284666D02*
X34905904Y-94018000D01*
X34105904Y-93751333D01*
X34829714Y-93027523D02*
X34867809Y-93065619D01*
X34905904Y-93179904D01*
X34905904Y-93256095D01*
X34867809Y-93370380D01*
X34791619Y-93446571D01*
X34715428Y-93484666D01*
X34563047Y-93522761D01*
X34448761Y-93522761D01*
X34296380Y-93484666D01*
X34220190Y-93446571D01*
X34144000Y-93370380D01*
X34105904Y-93256095D01*
X34105904Y-93179904D01*
X34144000Y-93065619D01*
X34182095Y-93027523D01*
X34829714Y-92227523D02*
X34867809Y-92265619D01*
X34905904Y-92379904D01*
X34905904Y-92456095D01*
X34867809Y-92570380D01*
X34791619Y-92646571D01*
X34715428Y-92684666D01*
X34563047Y-92722761D01*
X34448761Y-92722761D01*
X34296380Y-92684666D01*
X34220190Y-92646571D01*
X34144000Y-92570380D01*
X34105904Y-92456095D01*
X34105904Y-92379904D01*
X34144000Y-92265619D01*
X34182095Y-92227523D01*
X32327809Y-94259333D02*
X32365904Y-94145047D01*
X32365904Y-93954571D01*
X32327809Y-93878380D01*
X32289714Y-93840285D01*
X32213523Y-93802190D01*
X32137333Y-93802190D01*
X32061142Y-93840285D01*
X32023047Y-93878380D01*
X31984952Y-93954571D01*
X31946857Y-94106952D01*
X31908761Y-94183142D01*
X31870666Y-94221238D01*
X31794476Y-94259333D01*
X31718285Y-94259333D01*
X31642095Y-94221238D01*
X31604000Y-94183142D01*
X31565904Y-94106952D01*
X31565904Y-93916476D01*
X31604000Y-93802190D01*
X31565904Y-93573619D02*
X31565904Y-93116476D01*
X32365904Y-93345047D02*
X31565904Y-93345047D01*
X29064000Y-99034523D02*
X29025904Y-99110714D01*
X29025904Y-99225000D01*
X29064000Y-99339285D01*
X29140190Y-99415476D01*
X29216380Y-99453571D01*
X29368761Y-99491666D01*
X29483047Y-99491666D01*
X29635428Y-99453571D01*
X29711619Y-99415476D01*
X29787809Y-99339285D01*
X29825904Y-99225000D01*
X29825904Y-99148809D01*
X29787809Y-99034523D01*
X29749714Y-98996428D01*
X29483047Y-98996428D01*
X29483047Y-99148809D01*
X29825904Y-98653571D02*
X29025904Y-98653571D01*
X29825904Y-98196428D01*
X29025904Y-98196428D01*
X29825904Y-97815476D02*
X29025904Y-97815476D01*
X29025904Y-97625000D01*
X29064000Y-97510714D01*
X29140190Y-97434523D01*
X29216380Y-97396428D01*
X29368761Y-97358333D01*
X29483047Y-97358333D01*
X29635428Y-97396428D01*
X29711619Y-97434523D01*
X29787809Y-97510714D01*
X29825904Y-97625000D01*
X29825904Y-97815476D01*
X27285904Y-98977380D02*
X26904952Y-99244047D01*
X27285904Y-99434523D02*
X26485904Y-99434523D01*
X26485904Y-99129761D01*
X26524000Y-99053571D01*
X26562095Y-99015476D01*
X26638285Y-98977380D01*
X26752571Y-98977380D01*
X26828761Y-99015476D01*
X26866857Y-99053571D01*
X26904952Y-99129761D01*
X26904952Y-99434523D01*
X27057333Y-98672619D02*
X27057333Y-98291666D01*
X27285904Y-98748809D02*
X26485904Y-98482142D01*
X27285904Y-98215476D01*
X26485904Y-98025000D02*
X27285904Y-97834523D01*
X26714476Y-97682142D01*
X27285904Y-97529761D01*
X26485904Y-97339285D01*
X39439857Y-93357666D02*
X39439857Y-93624333D01*
X39858904Y-93624333D02*
X39058904Y-93624333D01*
X39058904Y-93243380D01*
X39058904Y-92557666D02*
X39058904Y-92938619D01*
X39439857Y-92976714D01*
X39401761Y-92938619D01*
X39363666Y-92862428D01*
X39363666Y-92671952D01*
X39401761Y-92595761D01*
X39439857Y-92557666D01*
X39516047Y-92519571D01*
X39706523Y-92519571D01*
X39782714Y-92557666D01*
X39820809Y-92595761D01*
X39858904Y-92671952D01*
X39858904Y-92862428D01*
X39820809Y-92938619D01*
X39782714Y-92976714D01*
X42106857Y-98691666D02*
X42106857Y-98958333D01*
X42525904Y-98958333D02*
X41725904Y-98958333D01*
X41725904Y-98577380D01*
X41725904Y-97929761D02*
X41725904Y-98082142D01*
X41764000Y-98158333D01*
X41802095Y-98196428D01*
X41916380Y-98272619D01*
X42068761Y-98310714D01*
X42373523Y-98310714D01*
X42449714Y-98272619D01*
X42487809Y-98234523D01*
X42525904Y-98158333D01*
X42525904Y-98005952D01*
X42487809Y-97929761D01*
X42449714Y-97891666D01*
X42373523Y-97853571D01*
X42183047Y-97853571D01*
X42106857Y-97891666D01*
X42068761Y-97929761D01*
X42030666Y-98005952D01*
X42030666Y-98158333D01*
X42068761Y-98234523D01*
X42106857Y-98272619D01*
X42183047Y-98310714D01*
X44646857Y-98691666D02*
X44646857Y-98958333D01*
X45065904Y-98958333D02*
X44265904Y-98958333D01*
X44265904Y-98577380D01*
X44265904Y-98348809D02*
X44265904Y-97815476D01*
X45065904Y-98158333D01*
X52266857Y-98748809D02*
X52304952Y-98634523D01*
X52343047Y-98596428D01*
X52419238Y-98558333D01*
X52533523Y-98558333D01*
X52609714Y-98596428D01*
X52647809Y-98634523D01*
X52685904Y-98710714D01*
X52685904Y-99015476D01*
X51885904Y-99015476D01*
X51885904Y-98748809D01*
X51924000Y-98672619D01*
X51962095Y-98634523D01*
X52038285Y-98596428D01*
X52114476Y-98596428D01*
X52190666Y-98634523D01*
X52228761Y-98672619D01*
X52266857Y-98748809D01*
X52266857Y-99015476D01*
X51962095Y-98253571D02*
X51924000Y-98215476D01*
X51885904Y-98139285D01*
X51885904Y-97948809D01*
X51924000Y-97872619D01*
X51962095Y-97834523D01*
X52038285Y-97796428D01*
X52114476Y-97796428D01*
X52228761Y-97834523D01*
X52685904Y-98291666D01*
X52685904Y-97796428D01*
M02*
