M48
; DRILL file {KiCad 5.1.4-e60b266~84~ubuntu19.04.1} date Thu 12 Dec 2019 04:42:37 AM CST
; FORMAT={-:-/ absolute / inch / decimal}
; #@! TF.CreationDate,2019-12-12T04:42:37-06:00
; #@! TF.GenerationSoftware,Kicad,Pcbnew,5.1.4-e60b266~84~ubuntu19.04.1
; #@! TF.FileFunction,Plated,1,2,PTH
FMAT,2
INCH
T1C0.0157
T2C0.0276
T3C0.0394
T4C0.0430
T5C0.0472
%
G90
G05
T1
X1.7652Y-2.3756
X1.9046Y-4.3169
X2.0156Y-2.6988
X2.4507Y-2.7862
X2.9763Y-1.7618
X3.1987Y-4.3996
X3.303Y-1.5673
X3.3148Y-1.6681
X3.3267Y-4.4586
X3.4054Y-1.6633
X3.4448Y-1.7716
X3.494Y-4.3208
X5.0589Y-2.0964
X5.4723Y-4.0649
X5.4723Y-4.1732
X5.4723Y-4.3405
X5.4723Y-4.4193
T2
X2.7696Y-2.9724
X3.0767Y-2.9724
X3.1633Y-3.4645
X3.4704Y-3.4645
X4.2814Y-4.5807
X4.2814Y-4.8878
X4.5806Y-3.0905
X4.8877Y-3.0905
X2.0806Y-3.7401
X2.3877Y-3.7401
X3.8493Y-2.9724
X4.1564Y-2.9724
X2.49Y-4.7185
X2.49Y-5.0256
X4.5806Y-3.7795
X4.8877Y-3.7795
X3.8522Y-3.6515
X4.1593Y-3.6515
X5.0097Y-4.6496
X5.0097Y-4.9567
X3.5727Y-4.5708
X3.5727Y-4.8779
X3.1633Y-2.7756
X3.4704Y-2.7756
X2.0806Y-4.4291
X2.3877Y-4.4291
X2.7696Y-3.6614
X3.0767Y-3.6614
X3.8483Y-3.8523
X3.8483Y-4.1594
X3.1003Y-3.8622
X3.1003Y-4.1693
X4.5767Y-3.9409
X4.5767Y-4.248
X3.2026Y-4.1535
X3.5097Y-4.1535
T3
X3.1889Y-1.5177
X3.1889Y-1.6177
X3.1889Y-1.7177
X3.1889Y-1.8177
X3.1889Y-1.9177
X3.1889Y-2.0177
X2.6219Y-4.6752
X2.6219Y-4.7972
X3.4408Y-4.6752
X3.4408Y-4.7972
X4.6652Y-2.2326
X4.6652Y-2.3326
X4.7652Y-2.2326
X4.7652Y-2.3326
X4.8652Y-2.2326
X4.8652Y-2.3326
X4.9652Y-2.2326
X4.9652Y-2.3326
X2.6219Y-4.6752
X2.6219Y-4.7972
X3.4408Y-4.6752
X3.4408Y-4.7972
T4
X1.9499Y-1.5405
X1.9499Y-2.1405
X2.0499Y-1.5405
X2.0499Y-2.1405
X2.1499Y-1.5405
X2.1499Y-2.1405
X2.2499Y-1.5405
X2.2499Y-2.1405
X2.3499Y-1.5405
X2.3499Y-2.1405
X2.4499Y-1.5405
X2.4499Y-2.1405
X2.5499Y-1.5405
X2.5499Y-2.1405
X2.6499Y-1.5405
X2.6499Y-2.1405
X2.7499Y-1.5405
X2.7499Y-2.1405
X2.8499Y-1.5405
X2.8499Y-2.1405
X2.9499Y-1.5405
X2.9499Y-2.1405
X3.0499Y-1.5405
X3.0499Y-2.1405
T5
X2.5589Y-3.4665
X2.7558Y-3.5492
X2.9526Y-3.4665
X3.2873Y-3.2696
X3.4841Y-3.3523
X3.681Y-3.2696
X1.8306Y-4.2342
X2.0274Y-4.3169
X2.2243Y-4.2342
X3.7204Y-4.5846
X3.9172Y-4.5019
X4.1141Y-4.5846
X4.0156Y-3.4665
X4.2125Y-3.5492
X4.4093Y-3.4665
X4.4487Y-4.6633
X4.6456Y-4.5807
X4.8424Y-4.6633
X5.177Y-4.8602
X5.3739Y-4.7775
X5.5707Y-4.8602
X3.2873Y-2.5807
X3.4841Y-2.6633
X3.681Y-2.5807
X3.2873Y-3.9586
X3.4841Y-4.0413
X3.681Y-3.9586
X1.9487Y-4.624
X2.1456Y-4.5413
X2.3424Y-4.624
X2.5589Y-4.1555
X2.7558Y-4.2381
X2.9526Y-4.1555
X4.0156Y-4.1555
X4.2125Y-4.2381
X4.4093Y-4.1555
X4.0156Y-2.7775
X4.2125Y-2.8602
X4.4093Y-2.7775
X4.744Y-3.5846
X4.9408Y-3.6673
X5.1377Y-3.5846
X4.744Y-2.8956
X4.9408Y-2.9783
X5.1377Y-2.8956
X2.5589Y-2.7775
X2.7558Y-2.8602
X2.9526Y-2.7775
X1.8306Y-3.5452
X2.0274Y-3.6279
X2.2243Y-3.5452
X4.744Y-4.2736
X4.9408Y-4.3563
X5.1377Y-4.2736
T0
M30
