G04 #@! TF.GenerationSoftware,KiCad,Pcbnew,5.1.4-e60b266~84~ubuntu19.04.1*
G04 #@! TF.CreationDate,2019-12-12T22:12:58-06:00*
G04 #@! TF.ProjectId,fissure,66697373-7572-4652-9e6b-696361645f70,rev?*
G04 #@! TF.SameCoordinates,Original*
G04 #@! TF.FileFunction,Soldermask,Bot*
G04 #@! TF.FilePolarity,Negative*
%FSLAX46Y46*%
G04 Gerber Fmt 4.6, Leading zero omitted, Abs format (unit mm)*
G04 Created by KiCad (PCBNEW 5.1.4-e60b266~84~ubuntu19.04.1) date 2019-12-12 22:12:58*
%MOMM*%
%LPD*%
G04 APERTURE LIST*
%ADD10C,0.100000*%
G04 APERTURE END LIST*
D10*
G36*
X79607909Y-111741981D02*
G01*
X81236887Y-112416726D01*
X81236888Y-112416727D01*
X82702930Y-113396304D01*
X83949696Y-114643070D01*
X84455460Y-115400000D01*
X84929274Y-116109113D01*
X85604019Y-117738091D01*
X85948000Y-119467402D01*
X85948000Y-121230598D01*
X85604019Y-122959909D01*
X84929274Y-124588887D01*
X84929273Y-124588888D01*
X83949696Y-126054930D01*
X82702930Y-127301696D01*
X82017406Y-127759748D01*
X81236887Y-128281274D01*
X79607909Y-128956019D01*
X77878598Y-129300000D01*
X76115402Y-129300000D01*
X74386091Y-128956019D01*
X72757113Y-128281274D01*
X71976594Y-127759748D01*
X71291070Y-127301696D01*
X70044304Y-126054930D01*
X69064727Y-124588888D01*
X69064726Y-124588887D01*
X68389981Y-122959909D01*
X68046000Y-121230598D01*
X68046000Y-119467402D01*
X68389981Y-117738091D01*
X69064726Y-116109113D01*
X69538540Y-115400000D01*
X70044304Y-114643070D01*
X71291070Y-113396304D01*
X72757112Y-112416727D01*
X72757113Y-112416726D01*
X74386091Y-111741981D01*
X76115402Y-111398000D01*
X77878598Y-111398000D01*
X79607909Y-111741981D01*
X79607909Y-111741981D01*
G37*
G36*
X136894985Y-125542860D02*
G01*
X137007748Y-125565290D01*
X137139741Y-125619963D01*
X137326408Y-125697283D01*
X137613196Y-125888909D01*
X137857091Y-126132804D01*
X138048717Y-126419592D01*
X138180710Y-126738253D01*
X138248000Y-127076540D01*
X138248000Y-127421460D01*
X138180710Y-127759747D01*
X138048717Y-128078408D01*
X137857091Y-128365196D01*
X137613196Y-128609091D01*
X137326408Y-128800717D01*
X137139741Y-128878037D01*
X137007748Y-128932710D01*
X136894985Y-128955140D01*
X136669460Y-129000000D01*
X136324540Y-129000000D01*
X136099015Y-128955140D01*
X135986252Y-128932710D01*
X135854259Y-128878037D01*
X135667592Y-128800717D01*
X135380804Y-128609091D01*
X135136909Y-128365196D01*
X134945283Y-128078408D01*
X134813290Y-127759747D01*
X134746000Y-127421460D01*
X134746000Y-127076540D01*
X134813290Y-126738253D01*
X134945283Y-126419592D01*
X135136909Y-126132804D01*
X135380804Y-125888909D01*
X135667592Y-125697283D01*
X135854259Y-125619963D01*
X135986252Y-125565290D01*
X136099015Y-125542860D01*
X136324540Y-125498000D01*
X136669460Y-125498000D01*
X136894985Y-125542860D01*
X136894985Y-125542860D01*
G37*
G36*
X142110512Y-126352927D02*
G01*
X142259812Y-126382624D01*
X142423784Y-126450544D01*
X142571354Y-126549147D01*
X142696853Y-126674646D01*
X142795456Y-126822216D01*
X142863376Y-126986188D01*
X142898000Y-127160259D01*
X142898000Y-127337741D01*
X142863376Y-127511812D01*
X142795456Y-127675784D01*
X142696853Y-127823354D01*
X142571354Y-127948853D01*
X142423784Y-128047456D01*
X142259812Y-128115376D01*
X142110512Y-128145073D01*
X142085742Y-128150000D01*
X141908258Y-128150000D01*
X141883488Y-128145073D01*
X141734188Y-128115376D01*
X141570216Y-128047456D01*
X141422646Y-127948853D01*
X141297147Y-127823354D01*
X141198544Y-127675784D01*
X141130624Y-127511812D01*
X141096000Y-127337741D01*
X141096000Y-127160259D01*
X141130624Y-126986188D01*
X141198544Y-126822216D01*
X141297147Y-126674646D01*
X141422646Y-126549147D01*
X141570216Y-126450544D01*
X141734188Y-126382624D01*
X141883488Y-126352927D01*
X141908258Y-126348000D01*
X142085742Y-126348000D01*
X142110512Y-126352927D01*
X142110512Y-126352927D01*
G37*
G36*
X131110512Y-126352927D02*
G01*
X131259812Y-126382624D01*
X131423784Y-126450544D01*
X131571354Y-126549147D01*
X131696853Y-126674646D01*
X131795456Y-126822216D01*
X131863376Y-126986188D01*
X131898000Y-127160259D01*
X131898000Y-127337741D01*
X131863376Y-127511812D01*
X131795456Y-127675784D01*
X131696853Y-127823354D01*
X131571354Y-127948853D01*
X131423784Y-128047456D01*
X131259812Y-128115376D01*
X131110512Y-128145073D01*
X131085742Y-128150000D01*
X130908258Y-128150000D01*
X130883488Y-128145073D01*
X130734188Y-128115376D01*
X130570216Y-128047456D01*
X130422646Y-127948853D01*
X130297147Y-127823354D01*
X130198544Y-127675784D01*
X130130624Y-127511812D01*
X130096000Y-127337741D01*
X130096000Y-127160259D01*
X130130624Y-126986188D01*
X130198544Y-126822216D01*
X130297147Y-126674646D01*
X130422646Y-126549147D01*
X130570216Y-126450544D01*
X130734188Y-126382624D01*
X130883488Y-126352927D01*
X130908258Y-126348000D01*
X131085742Y-126348000D01*
X131110512Y-126352927D01*
X131110512Y-126352927D01*
G37*
G36*
X131803564Y-122438389D02*
G01*
X131994833Y-122517615D01*
X131994835Y-122517616D01*
X132166973Y-122632635D01*
X132313365Y-122779027D01*
X132425906Y-122947456D01*
X132428385Y-122951167D01*
X132507611Y-123142436D01*
X132548000Y-123345484D01*
X132548000Y-123552516D01*
X132507611Y-123755564D01*
X132475656Y-123832710D01*
X132428384Y-123946835D01*
X132313365Y-124118973D01*
X132166973Y-124265365D01*
X131994835Y-124380384D01*
X131994834Y-124380385D01*
X131994833Y-124380385D01*
X131803564Y-124459611D01*
X131600516Y-124500000D01*
X131393484Y-124500000D01*
X131190436Y-124459611D01*
X130999167Y-124380385D01*
X130999166Y-124380385D01*
X130999165Y-124380384D01*
X130827027Y-124265365D01*
X130680635Y-124118973D01*
X130565616Y-123946835D01*
X130518344Y-123832710D01*
X130486389Y-123755564D01*
X130446000Y-123552516D01*
X130446000Y-123345484D01*
X130486389Y-123142436D01*
X130565615Y-122951167D01*
X130568095Y-122947456D01*
X130680635Y-122779027D01*
X130827027Y-122632635D01*
X130999165Y-122517616D01*
X130999167Y-122517615D01*
X131190436Y-122438389D01*
X131393484Y-122398000D01*
X131600516Y-122398000D01*
X131803564Y-122438389D01*
X131803564Y-122438389D01*
G37*
G36*
X141803564Y-122438389D02*
G01*
X141994833Y-122517615D01*
X141994835Y-122517616D01*
X142166973Y-122632635D01*
X142313365Y-122779027D01*
X142425906Y-122947456D01*
X142428385Y-122951167D01*
X142507611Y-123142436D01*
X142548000Y-123345484D01*
X142548000Y-123552516D01*
X142507611Y-123755564D01*
X142475656Y-123832710D01*
X142428384Y-123946835D01*
X142313365Y-124118973D01*
X142166973Y-124265365D01*
X141994835Y-124380384D01*
X141994834Y-124380385D01*
X141994833Y-124380385D01*
X141803564Y-124459611D01*
X141600516Y-124500000D01*
X141393484Y-124500000D01*
X141190436Y-124459611D01*
X140999167Y-124380385D01*
X140999166Y-124380385D01*
X140999165Y-124380384D01*
X140827027Y-124265365D01*
X140680635Y-124118973D01*
X140565616Y-123946835D01*
X140518344Y-123832710D01*
X140486389Y-123755564D01*
X140446000Y-123552516D01*
X140446000Y-123345484D01*
X140486389Y-123142436D01*
X140565615Y-122951167D01*
X140568095Y-122947456D01*
X140680635Y-122779027D01*
X140827027Y-122632635D01*
X140999165Y-122517616D01*
X140999167Y-122517615D01*
X141190436Y-122438389D01*
X141393484Y-122398000D01*
X141600516Y-122398000D01*
X141803564Y-122438389D01*
X141803564Y-122438389D01*
G37*
G36*
X118394985Y-120442860D02*
G01*
X118507748Y-120465290D01*
X118620059Y-120511811D01*
X118826408Y-120597283D01*
X119113196Y-120788909D01*
X119357091Y-121032804D01*
X119548717Y-121319592D01*
X119622898Y-121498681D01*
X119680710Y-121638252D01*
X119697411Y-121722216D01*
X119748000Y-121976540D01*
X119748000Y-122321460D01*
X119680710Y-122659747D01*
X119548717Y-122978408D01*
X119357091Y-123265196D01*
X119113196Y-123509091D01*
X118826408Y-123700717D01*
X118639741Y-123778037D01*
X118507748Y-123832710D01*
X118394985Y-123855140D01*
X118169460Y-123900000D01*
X117824540Y-123900000D01*
X117599015Y-123855140D01*
X117486252Y-123832710D01*
X117354259Y-123778037D01*
X117167592Y-123700717D01*
X116880804Y-123509091D01*
X116636909Y-123265196D01*
X116445283Y-122978408D01*
X116313290Y-122659747D01*
X116246000Y-122321460D01*
X116246000Y-121976540D01*
X116296589Y-121722216D01*
X116313290Y-121638252D01*
X116371102Y-121498681D01*
X116445283Y-121319592D01*
X116636909Y-121032804D01*
X116880804Y-120788909D01*
X117167592Y-120597283D01*
X117373941Y-120511811D01*
X117486252Y-120465290D01*
X117599015Y-120442860D01*
X117824540Y-120398000D01*
X118169460Y-120398000D01*
X118394985Y-120442860D01*
X118394985Y-120442860D01*
G37*
G36*
X123610512Y-121252927D02*
G01*
X123759812Y-121282624D01*
X123923784Y-121350544D01*
X124071354Y-121449147D01*
X124196853Y-121574646D01*
X124295456Y-121722216D01*
X124363376Y-121886188D01*
X124398000Y-122060259D01*
X124398000Y-122237741D01*
X124363376Y-122411812D01*
X124295456Y-122575784D01*
X124196853Y-122723354D01*
X124071354Y-122848853D01*
X123923784Y-122947456D01*
X123759812Y-123015376D01*
X123610512Y-123045073D01*
X123585742Y-123050000D01*
X123408258Y-123050000D01*
X123383488Y-123045073D01*
X123234188Y-123015376D01*
X123070216Y-122947456D01*
X122922646Y-122848853D01*
X122797147Y-122723354D01*
X122698544Y-122575784D01*
X122630624Y-122411812D01*
X122596000Y-122237741D01*
X122596000Y-122060259D01*
X122630624Y-121886188D01*
X122698544Y-121722216D01*
X122797147Y-121574646D01*
X122922646Y-121449147D01*
X123070216Y-121350544D01*
X123234188Y-121282624D01*
X123383488Y-121252927D01*
X123408258Y-121248000D01*
X123585742Y-121248000D01*
X123610512Y-121252927D01*
X123610512Y-121252927D01*
G37*
G36*
X112610512Y-121252927D02*
G01*
X112759812Y-121282624D01*
X112923784Y-121350544D01*
X113071354Y-121449147D01*
X113196853Y-121574646D01*
X113295456Y-121722216D01*
X113363376Y-121886188D01*
X113398000Y-122060259D01*
X113398000Y-122237741D01*
X113363376Y-122411812D01*
X113295456Y-122575784D01*
X113196853Y-122723354D01*
X113071354Y-122848853D01*
X112923784Y-122947456D01*
X112759812Y-123015376D01*
X112610512Y-123045073D01*
X112585742Y-123050000D01*
X112408258Y-123050000D01*
X112383488Y-123045073D01*
X112234188Y-123015376D01*
X112070216Y-122947456D01*
X111922646Y-122848853D01*
X111797147Y-122723354D01*
X111698544Y-122575784D01*
X111630624Y-122411812D01*
X111596000Y-122237741D01*
X111596000Y-122060259D01*
X111630624Y-121886188D01*
X111698544Y-121722216D01*
X111797147Y-121574646D01*
X111922646Y-121449147D01*
X112070216Y-121350544D01*
X112234188Y-121282624D01*
X112383488Y-121252927D01*
X112408258Y-121248000D01*
X112585742Y-121248000D01*
X112610512Y-121252927D01*
X112610512Y-121252927D01*
G37*
G36*
X87747318Y-120694153D02*
G01*
X87905677Y-120759748D01*
X87965887Y-120784688D01*
X88162593Y-120916122D01*
X88329878Y-121083407D01*
X88438175Y-121245486D01*
X88461313Y-121280115D01*
X88551847Y-121498682D01*
X88598000Y-121730710D01*
X88598000Y-121967290D01*
X88551847Y-122199318D01*
X88461313Y-122417885D01*
X88461312Y-122417887D01*
X88329878Y-122614593D01*
X88162593Y-122781878D01*
X87965887Y-122913312D01*
X87965886Y-122913313D01*
X87965885Y-122913313D01*
X87747318Y-123003847D01*
X87515290Y-123050000D01*
X87278710Y-123050000D01*
X87046682Y-123003847D01*
X86828115Y-122913313D01*
X86828114Y-122913313D01*
X86828113Y-122913312D01*
X86631407Y-122781878D01*
X86464122Y-122614593D01*
X86332688Y-122417887D01*
X86332687Y-122417885D01*
X86242153Y-122199318D01*
X86196000Y-121967290D01*
X86196000Y-121730710D01*
X86242153Y-121498682D01*
X86332687Y-121280115D01*
X86355825Y-121245486D01*
X86464122Y-121083407D01*
X86631407Y-120916122D01*
X86828113Y-120784688D01*
X86888323Y-120759748D01*
X87046682Y-120694153D01*
X87278710Y-120648000D01*
X87515290Y-120648000D01*
X87747318Y-120694153D01*
X87747318Y-120694153D01*
G37*
G36*
X66947318Y-120694153D02*
G01*
X67105677Y-120759748D01*
X67165887Y-120784688D01*
X67362593Y-120916122D01*
X67529878Y-121083407D01*
X67638175Y-121245486D01*
X67661313Y-121280115D01*
X67751847Y-121498682D01*
X67798000Y-121730710D01*
X67798000Y-121967290D01*
X67751847Y-122199318D01*
X67661313Y-122417885D01*
X67661312Y-122417887D01*
X67529878Y-122614593D01*
X67362593Y-122781878D01*
X67165887Y-122913312D01*
X67165886Y-122913313D01*
X67165885Y-122913313D01*
X66947318Y-123003847D01*
X66715290Y-123050000D01*
X66478710Y-123050000D01*
X66246682Y-123003847D01*
X66028115Y-122913313D01*
X66028114Y-122913313D01*
X66028113Y-122913312D01*
X65831407Y-122781878D01*
X65664122Y-122614593D01*
X65532688Y-122417887D01*
X65532687Y-122417885D01*
X65442153Y-122199318D01*
X65396000Y-121967290D01*
X65396000Y-121730710D01*
X65442153Y-121498682D01*
X65532687Y-121280115D01*
X65555825Y-121245486D01*
X65664122Y-121083407D01*
X65831407Y-120916122D01*
X66028113Y-120784688D01*
X66088323Y-120759748D01*
X66246682Y-120694153D01*
X66478710Y-120648000D01*
X66715290Y-120648000D01*
X66947318Y-120694153D01*
X66947318Y-120694153D01*
G37*
G36*
X54894985Y-119542860D02*
G01*
X55007748Y-119565290D01*
X55139741Y-119619963D01*
X55326408Y-119697283D01*
X55613196Y-119888909D01*
X55857091Y-120132804D01*
X56048717Y-120419592D01*
X56122319Y-120597283D01*
X56180710Y-120738252D01*
X56184986Y-120759748D01*
X56248000Y-121076540D01*
X56248000Y-121421460D01*
X56217529Y-121574646D01*
X56186486Y-121730712D01*
X56180710Y-121759747D01*
X56048717Y-122078408D01*
X55857091Y-122365196D01*
X55613196Y-122609091D01*
X55326408Y-122800717D01*
X55139741Y-122878037D01*
X55007748Y-122932710D01*
X54914968Y-122951165D01*
X54669460Y-123000000D01*
X54324540Y-123000000D01*
X54079032Y-122951165D01*
X53986252Y-122932710D01*
X53854259Y-122878037D01*
X53667592Y-122800717D01*
X53380804Y-122609091D01*
X53136909Y-122365196D01*
X52945283Y-122078408D01*
X52813290Y-121759747D01*
X52807515Y-121730712D01*
X52776471Y-121574646D01*
X52746000Y-121421460D01*
X52746000Y-121076540D01*
X52809014Y-120759748D01*
X52813290Y-120738252D01*
X52871681Y-120597283D01*
X52945283Y-120419592D01*
X53136909Y-120132804D01*
X53380804Y-119888909D01*
X53667592Y-119697283D01*
X53854259Y-119619963D01*
X53986252Y-119565290D01*
X54099015Y-119542860D01*
X54324540Y-119498000D01*
X54669460Y-119498000D01*
X54894985Y-119542860D01*
X54894985Y-119542860D01*
G37*
G36*
X136803564Y-120338389D02*
G01*
X136994833Y-120417615D01*
X136994835Y-120417616D01*
X137166973Y-120532635D01*
X137313365Y-120679027D01*
X137409801Y-120823353D01*
X137428385Y-120851167D01*
X137507611Y-121042436D01*
X137548000Y-121245484D01*
X137548000Y-121452516D01*
X137507611Y-121655564D01*
X137438110Y-121823354D01*
X137428384Y-121846835D01*
X137313365Y-122018973D01*
X137166973Y-122165365D01*
X136994835Y-122280384D01*
X136994834Y-122280385D01*
X136994833Y-122280385D01*
X136803564Y-122359611D01*
X136600516Y-122400000D01*
X136393484Y-122400000D01*
X136190436Y-122359611D01*
X135999167Y-122280385D01*
X135999166Y-122280385D01*
X135999165Y-122280384D01*
X135827027Y-122165365D01*
X135680635Y-122018973D01*
X135565616Y-121846835D01*
X135555890Y-121823354D01*
X135486389Y-121655564D01*
X135446000Y-121452516D01*
X135446000Y-121245484D01*
X135486389Y-121042436D01*
X135565615Y-120851167D01*
X135584200Y-120823353D01*
X135680635Y-120679027D01*
X135827027Y-120532635D01*
X135999165Y-120417616D01*
X135999167Y-120417615D01*
X136190436Y-120338389D01*
X136393484Y-120298000D01*
X136600516Y-120298000D01*
X136803564Y-120338389D01*
X136803564Y-120338389D01*
G37*
G36*
X60110512Y-120352927D02*
G01*
X60259812Y-120382624D01*
X60423784Y-120450544D01*
X60571354Y-120549147D01*
X60696853Y-120674646D01*
X60795456Y-120822216D01*
X60863376Y-120986188D01*
X60889072Y-121115375D01*
X60895960Y-121150000D01*
X60898000Y-121160259D01*
X60898000Y-121337741D01*
X60863376Y-121511812D01*
X60795456Y-121675784D01*
X60696853Y-121823354D01*
X60571354Y-121948853D01*
X60423784Y-122047456D01*
X60259812Y-122115376D01*
X60110512Y-122145073D01*
X60085742Y-122150000D01*
X59908258Y-122150000D01*
X59883488Y-122145073D01*
X59734188Y-122115376D01*
X59570216Y-122047456D01*
X59422646Y-121948853D01*
X59297147Y-121823354D01*
X59198544Y-121675784D01*
X59130624Y-121511812D01*
X59096000Y-121337741D01*
X59096000Y-121160259D01*
X59098041Y-121150000D01*
X59104928Y-121115375D01*
X59130624Y-120986188D01*
X59198544Y-120822216D01*
X59297147Y-120674646D01*
X59422646Y-120549147D01*
X59570216Y-120450544D01*
X59734188Y-120382624D01*
X59883488Y-120352927D01*
X59908258Y-120348000D01*
X60085742Y-120348000D01*
X60110512Y-120352927D01*
X60110512Y-120352927D01*
G37*
G36*
X49110512Y-120352927D02*
G01*
X49259812Y-120382624D01*
X49423784Y-120450544D01*
X49571354Y-120549147D01*
X49696853Y-120674646D01*
X49795456Y-120822216D01*
X49863376Y-120986188D01*
X49889072Y-121115375D01*
X49895960Y-121150000D01*
X49898000Y-121160259D01*
X49898000Y-121337741D01*
X49863376Y-121511812D01*
X49795456Y-121675784D01*
X49696853Y-121823354D01*
X49571354Y-121948853D01*
X49423784Y-122047456D01*
X49259812Y-122115376D01*
X49110512Y-122145073D01*
X49085742Y-122150000D01*
X48908258Y-122150000D01*
X48883488Y-122145073D01*
X48734188Y-122115376D01*
X48570216Y-122047456D01*
X48422646Y-121948853D01*
X48297147Y-121823354D01*
X48198544Y-121675784D01*
X48130624Y-121511812D01*
X48096000Y-121337741D01*
X48096000Y-121160259D01*
X48098041Y-121150000D01*
X48104928Y-121115375D01*
X48130624Y-120986188D01*
X48198544Y-120822216D01*
X48297147Y-120674646D01*
X48422646Y-120549147D01*
X48570216Y-120450544D01*
X48734188Y-120382624D01*
X48883488Y-120352927D01*
X48908258Y-120348000D01*
X49085742Y-120348000D01*
X49110512Y-120352927D01*
X49110512Y-120352927D01*
G37*
G36*
X99894985Y-118542860D02*
G01*
X100007748Y-118565290D01*
X100139741Y-118619963D01*
X100326408Y-118697283D01*
X100613196Y-118888909D01*
X100857091Y-119132804D01*
X101048717Y-119419592D01*
X101109067Y-119565290D01*
X101180710Y-119738252D01*
X101197411Y-119822216D01*
X101248000Y-120076540D01*
X101248000Y-120421460D01*
X101225886Y-120532635D01*
X101180710Y-120759748D01*
X101154835Y-120822216D01*
X101048717Y-121078408D01*
X100857091Y-121365196D01*
X100613196Y-121609091D01*
X100326408Y-121800717D01*
X100139741Y-121878037D01*
X100007748Y-121932710D01*
X99894985Y-121955140D01*
X99669460Y-122000000D01*
X99324540Y-122000000D01*
X99099015Y-121955140D01*
X98986252Y-121932710D01*
X98854259Y-121878037D01*
X98667592Y-121800717D01*
X98380804Y-121609091D01*
X98136909Y-121365196D01*
X97945283Y-121078408D01*
X97839165Y-120822216D01*
X97813290Y-120759748D01*
X97768114Y-120532635D01*
X97746000Y-120421460D01*
X97746000Y-120076540D01*
X97796589Y-119822216D01*
X97813290Y-119738252D01*
X97884933Y-119565290D01*
X97945283Y-119419592D01*
X98136909Y-119132804D01*
X98380804Y-118888909D01*
X98667592Y-118697283D01*
X98854259Y-118619963D01*
X98986252Y-118565290D01*
X99099015Y-118542860D01*
X99324540Y-118498000D01*
X99669460Y-118498000D01*
X99894985Y-118542860D01*
X99894985Y-118542860D01*
G37*
G36*
X94110512Y-119352927D02*
G01*
X94259812Y-119382624D01*
X94423784Y-119450544D01*
X94571354Y-119549147D01*
X94696853Y-119674646D01*
X94795456Y-119822216D01*
X94863376Y-119986188D01*
X94881348Y-120076542D01*
X94898000Y-120160258D01*
X94898000Y-120337742D01*
X94893073Y-120362512D01*
X94863376Y-120511812D01*
X94795456Y-120675784D01*
X94696853Y-120823354D01*
X94571354Y-120948853D01*
X94423784Y-121047456D01*
X94259812Y-121115376D01*
X94110512Y-121145073D01*
X94085742Y-121150000D01*
X93908258Y-121150000D01*
X93883488Y-121145073D01*
X93734188Y-121115376D01*
X93570216Y-121047456D01*
X93422646Y-120948853D01*
X93297147Y-120823354D01*
X93198544Y-120675784D01*
X93130624Y-120511812D01*
X93100927Y-120362512D01*
X93096000Y-120337742D01*
X93096000Y-120160258D01*
X93112652Y-120076542D01*
X93130624Y-119986188D01*
X93198544Y-119822216D01*
X93297147Y-119674646D01*
X93422646Y-119549147D01*
X93570216Y-119450544D01*
X93734188Y-119382624D01*
X93883488Y-119352927D01*
X93908258Y-119348000D01*
X94085742Y-119348000D01*
X94110512Y-119352927D01*
X94110512Y-119352927D01*
G37*
G36*
X105110512Y-119352927D02*
G01*
X105259812Y-119382624D01*
X105423784Y-119450544D01*
X105571354Y-119549147D01*
X105696853Y-119674646D01*
X105795456Y-119822216D01*
X105863376Y-119986188D01*
X105881348Y-120076542D01*
X105898000Y-120160258D01*
X105898000Y-120337742D01*
X105893073Y-120362512D01*
X105863376Y-120511812D01*
X105795456Y-120675784D01*
X105696853Y-120823354D01*
X105571354Y-120948853D01*
X105423784Y-121047456D01*
X105259812Y-121115376D01*
X105110512Y-121145073D01*
X105085742Y-121150000D01*
X104908258Y-121150000D01*
X104883488Y-121145073D01*
X104734188Y-121115376D01*
X104570216Y-121047456D01*
X104422646Y-120948853D01*
X104297147Y-120823354D01*
X104198544Y-120675784D01*
X104130624Y-120511812D01*
X104100927Y-120362512D01*
X104096000Y-120337742D01*
X104096000Y-120160258D01*
X104112652Y-120076542D01*
X104130624Y-119986188D01*
X104198544Y-119822216D01*
X104297147Y-119674646D01*
X104422646Y-119549147D01*
X104570216Y-119450544D01*
X104734188Y-119382624D01*
X104883488Y-119352927D01*
X104908258Y-119348000D01*
X105085742Y-119348000D01*
X105110512Y-119352927D01*
X105110512Y-119352927D01*
G37*
G36*
X66947318Y-117594153D02*
G01*
X67165885Y-117684687D01*
X67165887Y-117684688D01*
X67362593Y-117816122D01*
X67529878Y-117983407D01*
X67661312Y-118180113D01*
X67661313Y-118180115D01*
X67751847Y-118398682D01*
X67798000Y-118630710D01*
X67798000Y-118867290D01*
X67751847Y-119099318D01*
X67676846Y-119280385D01*
X67661312Y-119317887D01*
X67529878Y-119514593D01*
X67362593Y-119681878D01*
X67165887Y-119813312D01*
X67165886Y-119813313D01*
X67165885Y-119813313D01*
X66947318Y-119903847D01*
X66715290Y-119950000D01*
X66478710Y-119950000D01*
X66246682Y-119903847D01*
X66028115Y-119813313D01*
X66028114Y-119813313D01*
X66028113Y-119813312D01*
X65831407Y-119681878D01*
X65664122Y-119514593D01*
X65532688Y-119317887D01*
X65517154Y-119280385D01*
X65442153Y-119099318D01*
X65396000Y-118867290D01*
X65396000Y-118630710D01*
X65442153Y-118398682D01*
X65532687Y-118180115D01*
X65532688Y-118180113D01*
X65664122Y-117983407D01*
X65831407Y-117816122D01*
X66028113Y-117684688D01*
X66028115Y-117684687D01*
X66246682Y-117594153D01*
X66478710Y-117548000D01*
X66715290Y-117548000D01*
X66947318Y-117594153D01*
X66947318Y-117594153D01*
G37*
G36*
X87747318Y-117594153D02*
G01*
X87965885Y-117684687D01*
X87965887Y-117684688D01*
X88162593Y-117816122D01*
X88329878Y-117983407D01*
X88461312Y-118180113D01*
X88461313Y-118180115D01*
X88551847Y-118398682D01*
X88598000Y-118630710D01*
X88598000Y-118867290D01*
X88551847Y-119099318D01*
X88476846Y-119280385D01*
X88461312Y-119317887D01*
X88329878Y-119514593D01*
X88162593Y-119681878D01*
X87965887Y-119813312D01*
X87965886Y-119813313D01*
X87965885Y-119813313D01*
X87747318Y-119903847D01*
X87515290Y-119950000D01*
X87278710Y-119950000D01*
X87046682Y-119903847D01*
X86828115Y-119813313D01*
X86828114Y-119813313D01*
X86828113Y-119813312D01*
X86631407Y-119681878D01*
X86464122Y-119514593D01*
X86332688Y-119317887D01*
X86317154Y-119280385D01*
X86242153Y-119099318D01*
X86196000Y-118867290D01*
X86196000Y-118630710D01*
X86242153Y-118398682D01*
X86332687Y-118180115D01*
X86332688Y-118180113D01*
X86464122Y-117983407D01*
X86631407Y-117816122D01*
X86828113Y-117684688D01*
X86828115Y-117684687D01*
X87046682Y-117594153D01*
X87278710Y-117548000D01*
X87515290Y-117548000D01*
X87747318Y-117594153D01*
X87747318Y-117594153D01*
G37*
G36*
X113303564Y-117338389D02*
G01*
X113494833Y-117417615D01*
X113494835Y-117417616D01*
X113557683Y-117459610D01*
X113666973Y-117532635D01*
X113813365Y-117679027D01*
X113928385Y-117851167D01*
X114007611Y-118042436D01*
X114048000Y-118245484D01*
X114048000Y-118452516D01*
X114007611Y-118655564D01*
X113990330Y-118697283D01*
X113928384Y-118846835D01*
X113813365Y-119018973D01*
X113666973Y-119165365D01*
X113494835Y-119280384D01*
X113494834Y-119280385D01*
X113494833Y-119280385D01*
X113303564Y-119359611D01*
X113100516Y-119400000D01*
X112893484Y-119400000D01*
X112690436Y-119359611D01*
X112499167Y-119280385D01*
X112499166Y-119280385D01*
X112499165Y-119280384D01*
X112327027Y-119165365D01*
X112180635Y-119018973D01*
X112065616Y-118846835D01*
X112003670Y-118697283D01*
X111986389Y-118655564D01*
X111946000Y-118452516D01*
X111946000Y-118245484D01*
X111986389Y-118042436D01*
X112065615Y-117851167D01*
X112180635Y-117679027D01*
X112327027Y-117532635D01*
X112436317Y-117459610D01*
X112499165Y-117417616D01*
X112499167Y-117417615D01*
X112690436Y-117338389D01*
X112893484Y-117298000D01*
X113100516Y-117298000D01*
X113303564Y-117338389D01*
X113303564Y-117338389D01*
G37*
G36*
X123303564Y-117338389D02*
G01*
X123494833Y-117417615D01*
X123494835Y-117417616D01*
X123557683Y-117459610D01*
X123666973Y-117532635D01*
X123813365Y-117679027D01*
X123928385Y-117851167D01*
X124007611Y-118042436D01*
X124048000Y-118245484D01*
X124048000Y-118452516D01*
X124007611Y-118655564D01*
X123990330Y-118697283D01*
X123928384Y-118846835D01*
X123813365Y-119018973D01*
X123666973Y-119165365D01*
X123494835Y-119280384D01*
X123494834Y-119280385D01*
X123494833Y-119280385D01*
X123303564Y-119359611D01*
X123100516Y-119400000D01*
X122893484Y-119400000D01*
X122690436Y-119359611D01*
X122499167Y-119280385D01*
X122499166Y-119280385D01*
X122499165Y-119280384D01*
X122327027Y-119165365D01*
X122180635Y-119018973D01*
X122065616Y-118846835D01*
X122003670Y-118697283D01*
X121986389Y-118655564D01*
X121946000Y-118452516D01*
X121946000Y-118245484D01*
X121986389Y-118042436D01*
X122065615Y-117851167D01*
X122180635Y-117679027D01*
X122327027Y-117532635D01*
X122436317Y-117459610D01*
X122499165Y-117417616D01*
X122499167Y-117417615D01*
X122690436Y-117338389D01*
X122893484Y-117298000D01*
X123100516Y-117298000D01*
X123303564Y-117338389D01*
X123303564Y-117338389D01*
G37*
G36*
X59803564Y-116438389D02*
G01*
X59994833Y-116517615D01*
X59994835Y-116517616D01*
X60166973Y-116632635D01*
X60313365Y-116779027D01*
X60425491Y-116946835D01*
X60428385Y-116951167D01*
X60507611Y-117142436D01*
X60548000Y-117345484D01*
X60548000Y-117552516D01*
X60507611Y-117755564D01*
X60468011Y-117851167D01*
X60428384Y-117946835D01*
X60313365Y-118118973D01*
X60166973Y-118265365D01*
X59994835Y-118380384D01*
X59994834Y-118380385D01*
X59994833Y-118380385D01*
X59803564Y-118459611D01*
X59600516Y-118500000D01*
X59393484Y-118500000D01*
X59190436Y-118459611D01*
X58999167Y-118380385D01*
X58999166Y-118380385D01*
X58999165Y-118380384D01*
X58827027Y-118265365D01*
X58680635Y-118118973D01*
X58565616Y-117946835D01*
X58525989Y-117851167D01*
X58486389Y-117755564D01*
X58446000Y-117552516D01*
X58446000Y-117345484D01*
X58486389Y-117142436D01*
X58565615Y-116951167D01*
X58568510Y-116946835D01*
X58680635Y-116779027D01*
X58827027Y-116632635D01*
X58999165Y-116517616D01*
X58999167Y-116517615D01*
X59190436Y-116438389D01*
X59393484Y-116398000D01*
X59600516Y-116398000D01*
X59803564Y-116438389D01*
X59803564Y-116438389D01*
G37*
G36*
X49803564Y-116438389D02*
G01*
X49994833Y-116517615D01*
X49994835Y-116517616D01*
X50166973Y-116632635D01*
X50313365Y-116779027D01*
X50425491Y-116946835D01*
X50428385Y-116951167D01*
X50507611Y-117142436D01*
X50548000Y-117345484D01*
X50548000Y-117552516D01*
X50507611Y-117755564D01*
X50468011Y-117851167D01*
X50428384Y-117946835D01*
X50313365Y-118118973D01*
X50166973Y-118265365D01*
X49994835Y-118380384D01*
X49994834Y-118380385D01*
X49994833Y-118380385D01*
X49803564Y-118459611D01*
X49600516Y-118500000D01*
X49393484Y-118500000D01*
X49190436Y-118459611D01*
X48999167Y-118380385D01*
X48999166Y-118380385D01*
X48999165Y-118380384D01*
X48827027Y-118265365D01*
X48680635Y-118118973D01*
X48565616Y-117946835D01*
X48525989Y-117851167D01*
X48486389Y-117755564D01*
X48446000Y-117552516D01*
X48446000Y-117345484D01*
X48486389Y-117142436D01*
X48565615Y-116951167D01*
X48568510Y-116946835D01*
X48680635Y-116779027D01*
X48827027Y-116632635D01*
X48999165Y-116517616D01*
X48999167Y-116517615D01*
X49190436Y-116438389D01*
X49393484Y-116398000D01*
X49600516Y-116398000D01*
X49803564Y-116438389D01*
X49803564Y-116438389D01*
G37*
G36*
X94803564Y-115438389D02*
G01*
X94994833Y-115517615D01*
X94994835Y-115517616D01*
X95166973Y-115632635D01*
X95313365Y-115779027D01*
X95422551Y-115942435D01*
X95428385Y-115951167D01*
X95507611Y-116142436D01*
X95548000Y-116345484D01*
X95548000Y-116552516D01*
X95507611Y-116755564D01*
X95497892Y-116779027D01*
X95428384Y-116946835D01*
X95313365Y-117118973D01*
X95166973Y-117265365D01*
X94994835Y-117380384D01*
X94994834Y-117380385D01*
X94994833Y-117380385D01*
X94803564Y-117459611D01*
X94600516Y-117500000D01*
X94393484Y-117500000D01*
X94190436Y-117459611D01*
X93999167Y-117380385D01*
X93999166Y-117380385D01*
X93999165Y-117380384D01*
X93827027Y-117265365D01*
X93680635Y-117118973D01*
X93565616Y-116946835D01*
X93496108Y-116779027D01*
X93486389Y-116755564D01*
X93446000Y-116552516D01*
X93446000Y-116345484D01*
X93486389Y-116142436D01*
X93565615Y-115951167D01*
X93571450Y-115942435D01*
X93680635Y-115779027D01*
X93827027Y-115632635D01*
X93999165Y-115517616D01*
X93999167Y-115517615D01*
X94190436Y-115438389D01*
X94393484Y-115398000D01*
X94600516Y-115398000D01*
X94803564Y-115438389D01*
X94803564Y-115438389D01*
G37*
G36*
X104803564Y-115438389D02*
G01*
X104994833Y-115517615D01*
X104994835Y-115517616D01*
X105166973Y-115632635D01*
X105313365Y-115779027D01*
X105422551Y-115942435D01*
X105428385Y-115951167D01*
X105507611Y-116142436D01*
X105548000Y-116345484D01*
X105548000Y-116552516D01*
X105507611Y-116755564D01*
X105497892Y-116779027D01*
X105428384Y-116946835D01*
X105313365Y-117118973D01*
X105166973Y-117265365D01*
X104994835Y-117380384D01*
X104994834Y-117380385D01*
X104994833Y-117380385D01*
X104803564Y-117459611D01*
X104600516Y-117500000D01*
X104393484Y-117500000D01*
X104190436Y-117459611D01*
X103999167Y-117380385D01*
X103999166Y-117380385D01*
X103999165Y-117380384D01*
X103827027Y-117265365D01*
X103680635Y-117118973D01*
X103565616Y-116946835D01*
X103496108Y-116779027D01*
X103486389Y-116755564D01*
X103446000Y-116552516D01*
X103446000Y-116345484D01*
X103486389Y-116142436D01*
X103565615Y-115951167D01*
X103571450Y-115942435D01*
X103680635Y-115779027D01*
X103827027Y-115632635D01*
X103999165Y-115517616D01*
X103999167Y-115517615D01*
X104190436Y-115438389D01*
X104393484Y-115398000D01*
X104600516Y-115398000D01*
X104803564Y-115438389D01*
X104803564Y-115438389D01*
G37*
G36*
X118303564Y-115238389D02*
G01*
X118494833Y-115317615D01*
X118494835Y-115317616D01*
X118557683Y-115359610D01*
X118666973Y-115432635D01*
X118813365Y-115579027D01*
X118928385Y-115751167D01*
X119007611Y-115942436D01*
X119048000Y-116145484D01*
X119048000Y-116352516D01*
X119007611Y-116555564D01*
X118975687Y-116632635D01*
X118928384Y-116746835D01*
X118813365Y-116918973D01*
X118666973Y-117065365D01*
X118494835Y-117180384D01*
X118494834Y-117180385D01*
X118494833Y-117180385D01*
X118303564Y-117259611D01*
X118100516Y-117300000D01*
X117893484Y-117300000D01*
X117690436Y-117259611D01*
X117499167Y-117180385D01*
X117499166Y-117180385D01*
X117499165Y-117180384D01*
X117327027Y-117065365D01*
X117180635Y-116918973D01*
X117065616Y-116746835D01*
X117018313Y-116632635D01*
X116986389Y-116555564D01*
X116946000Y-116352516D01*
X116946000Y-116145484D01*
X116986389Y-115942436D01*
X117065615Y-115751167D01*
X117180635Y-115579027D01*
X117327027Y-115432635D01*
X117436317Y-115359610D01*
X117499165Y-115317616D01*
X117499167Y-115317615D01*
X117690436Y-115238389D01*
X117893484Y-115198000D01*
X118100516Y-115198000D01*
X118303564Y-115238389D01*
X118303564Y-115238389D01*
G37*
G36*
X54803564Y-114338389D02*
G01*
X54994833Y-114417615D01*
X54994835Y-114417616D01*
X55166973Y-114532635D01*
X55313365Y-114679027D01*
X55425491Y-114846835D01*
X55428385Y-114851167D01*
X55507611Y-115042436D01*
X55548000Y-115245484D01*
X55548000Y-115452516D01*
X55507611Y-115655564D01*
X55468011Y-115751167D01*
X55428384Y-115846835D01*
X55313365Y-116018973D01*
X55166973Y-116165365D01*
X54994835Y-116280384D01*
X54994834Y-116280385D01*
X54994833Y-116280385D01*
X54803564Y-116359611D01*
X54600516Y-116400000D01*
X54393484Y-116400000D01*
X54190436Y-116359611D01*
X53999167Y-116280385D01*
X53999166Y-116280385D01*
X53999165Y-116280384D01*
X53827027Y-116165365D01*
X53680635Y-116018973D01*
X53565616Y-115846835D01*
X53525989Y-115751167D01*
X53486389Y-115655564D01*
X53446000Y-115452516D01*
X53446000Y-115245484D01*
X53486389Y-115042436D01*
X53565615Y-114851167D01*
X53568510Y-114846835D01*
X53680635Y-114679027D01*
X53827027Y-114532635D01*
X53999165Y-114417616D01*
X53999167Y-114417615D01*
X54190436Y-114338389D01*
X54393484Y-114298000D01*
X54600516Y-114298000D01*
X54803564Y-114338389D01*
X54803564Y-114338389D01*
G37*
G36*
X99803564Y-113338389D02*
G01*
X99994833Y-113417615D01*
X99994835Y-113417616D01*
X100166973Y-113532635D01*
X100313365Y-113679027D01*
X100428385Y-113851167D01*
X100507611Y-114042436D01*
X100548000Y-114245484D01*
X100548000Y-114452516D01*
X100507611Y-114655564D01*
X100497892Y-114679027D01*
X100428384Y-114846835D01*
X100313365Y-115018973D01*
X100166973Y-115165365D01*
X99994835Y-115280384D01*
X99994834Y-115280385D01*
X99994833Y-115280385D01*
X99803564Y-115359611D01*
X99600516Y-115400000D01*
X99393484Y-115400000D01*
X99190436Y-115359611D01*
X98999167Y-115280385D01*
X98999166Y-115280385D01*
X98999165Y-115280384D01*
X98827027Y-115165365D01*
X98680635Y-115018973D01*
X98565616Y-114846835D01*
X98496108Y-114679027D01*
X98486389Y-114655564D01*
X98446000Y-114452516D01*
X98446000Y-114245484D01*
X98486389Y-114042436D01*
X98565615Y-113851167D01*
X98680635Y-113679027D01*
X98827027Y-113532635D01*
X98999165Y-113417616D01*
X98999167Y-113417615D01*
X99190436Y-113338389D01*
X99393484Y-113298000D01*
X99600516Y-113298000D01*
X99803564Y-113338389D01*
X99803564Y-113338389D01*
G37*
G36*
X143548000Y-111825000D02*
G01*
X140946000Y-111825000D01*
X140946000Y-110523000D01*
X143548000Y-110523000D01*
X143548000Y-111825000D01*
X143548000Y-111825000D01*
G37*
G36*
X137048000Y-110725000D02*
G01*
X134446000Y-110725000D01*
X134446000Y-109423000D01*
X137048000Y-109423000D01*
X137048000Y-110725000D01*
X137048000Y-110725000D01*
G37*
G36*
X139230642Y-107703781D02*
G01*
X139376414Y-107764162D01*
X139376416Y-107764163D01*
X139507608Y-107851822D01*
X139619178Y-107963392D01*
X139706837Y-108094584D01*
X139706838Y-108094586D01*
X139767219Y-108240358D01*
X139798000Y-108395107D01*
X139798000Y-108552893D01*
X139767219Y-108707642D01*
X139706838Y-108853414D01*
X139706837Y-108853416D01*
X139619178Y-108984608D01*
X139507608Y-109096178D01*
X139376416Y-109183837D01*
X139376415Y-109183838D01*
X139376414Y-109183838D01*
X139230642Y-109244219D01*
X139075893Y-109275000D01*
X138918107Y-109275000D01*
X138763358Y-109244219D01*
X138617586Y-109183838D01*
X138617585Y-109183838D01*
X138617584Y-109183837D01*
X138486392Y-109096178D01*
X138374822Y-108984608D01*
X138287163Y-108853416D01*
X138287162Y-108853414D01*
X138226781Y-108707642D01*
X138196000Y-108552893D01*
X138196000Y-108395107D01*
X138226781Y-108240358D01*
X138287162Y-108094586D01*
X138287163Y-108094584D01*
X138374822Y-107963392D01*
X138486392Y-107851822D01*
X138617584Y-107764163D01*
X138617586Y-107764162D01*
X138763358Y-107703781D01*
X138918107Y-107673000D01*
X139075893Y-107673000D01*
X139230642Y-107703781D01*
X139230642Y-107703781D01*
G37*
G36*
X137048000Y-106725000D02*
G01*
X134446000Y-106725000D01*
X134446000Y-105423000D01*
X137048000Y-105423000D01*
X137048000Y-106725000D01*
X137048000Y-106725000D01*
G37*
G36*
X125894985Y-103042860D02*
G01*
X126007748Y-103065290D01*
X126113490Y-103109090D01*
X126326408Y-103197283D01*
X126613196Y-103388909D01*
X126857091Y-103632804D01*
X127048717Y-103919592D01*
X127126037Y-104106259D01*
X127180710Y-104238252D01*
X127184986Y-104259748D01*
X127248000Y-104576540D01*
X127248000Y-104921460D01*
X127180710Y-105259747D01*
X127048717Y-105578408D01*
X126857091Y-105865196D01*
X126613196Y-106109091D01*
X126326408Y-106300717D01*
X126139741Y-106378037D01*
X126007748Y-106432710D01*
X125894985Y-106455140D01*
X125669460Y-106500000D01*
X125324540Y-106500000D01*
X125099015Y-106455140D01*
X124986252Y-106432710D01*
X124854259Y-106378037D01*
X124667592Y-106300717D01*
X124380804Y-106109091D01*
X124136909Y-105865196D01*
X123945283Y-105578408D01*
X123813290Y-105259747D01*
X123746000Y-104921460D01*
X123746000Y-104576540D01*
X123809014Y-104259748D01*
X123813290Y-104238252D01*
X123867963Y-104106259D01*
X123945283Y-103919592D01*
X124136909Y-103632804D01*
X124380804Y-103388909D01*
X124667592Y-103197283D01*
X124880510Y-103109090D01*
X124986252Y-103065290D01*
X125099015Y-103042860D01*
X125324540Y-102998000D01*
X125669460Y-102998000D01*
X125894985Y-103042860D01*
X125894985Y-103042860D01*
G37*
G36*
X120110512Y-103852927D02*
G01*
X120259812Y-103882624D01*
X120423784Y-103950544D01*
X120571354Y-104049147D01*
X120696853Y-104174646D01*
X120795456Y-104322216D01*
X120863376Y-104486188D01*
X120881348Y-104576542D01*
X120895960Y-104650000D01*
X120898000Y-104660259D01*
X120898000Y-104837741D01*
X120863376Y-105011812D01*
X120795456Y-105175784D01*
X120696853Y-105323354D01*
X120571354Y-105448853D01*
X120423784Y-105547456D01*
X120259812Y-105615376D01*
X120110512Y-105645073D01*
X120085742Y-105650000D01*
X119908258Y-105650000D01*
X119883488Y-105645073D01*
X119734188Y-105615376D01*
X119570216Y-105547456D01*
X119422646Y-105448853D01*
X119297147Y-105323354D01*
X119198544Y-105175784D01*
X119130624Y-105011812D01*
X119096000Y-104837741D01*
X119096000Y-104660259D01*
X119098041Y-104650000D01*
X119112652Y-104576542D01*
X119130624Y-104486188D01*
X119198544Y-104322216D01*
X119297147Y-104174646D01*
X119422646Y-104049147D01*
X119570216Y-103950544D01*
X119734188Y-103882624D01*
X119883488Y-103852927D01*
X119908258Y-103848000D01*
X120085742Y-103848000D01*
X120110512Y-103852927D01*
X120110512Y-103852927D01*
G37*
G36*
X131110512Y-103852927D02*
G01*
X131259812Y-103882624D01*
X131423784Y-103950544D01*
X131571354Y-104049147D01*
X131696853Y-104174646D01*
X131795456Y-104322216D01*
X131863376Y-104486188D01*
X131881348Y-104576542D01*
X131895960Y-104650000D01*
X131898000Y-104660259D01*
X131898000Y-104837741D01*
X131863376Y-105011812D01*
X131795456Y-105175784D01*
X131696853Y-105323354D01*
X131571354Y-105448853D01*
X131423784Y-105547456D01*
X131259812Y-105615376D01*
X131110512Y-105645073D01*
X131085742Y-105650000D01*
X130908258Y-105650000D01*
X130883488Y-105645073D01*
X130734188Y-105615376D01*
X130570216Y-105547456D01*
X130422646Y-105448853D01*
X130297147Y-105323354D01*
X130198544Y-105175784D01*
X130130624Y-105011812D01*
X130096000Y-104837741D01*
X130096000Y-104660259D01*
X130098041Y-104650000D01*
X130112652Y-104576542D01*
X130130624Y-104486188D01*
X130198544Y-104322216D01*
X130297147Y-104174646D01*
X130422646Y-104049147D01*
X130570216Y-103950544D01*
X130734188Y-103882624D01*
X130883488Y-103852927D01*
X130908258Y-103848000D01*
X131085742Y-103848000D01*
X131110512Y-103852927D01*
X131110512Y-103852927D01*
G37*
G36*
X51894985Y-102042860D02*
G01*
X52007748Y-102065290D01*
X52082318Y-102096178D01*
X52326408Y-102197283D01*
X52613196Y-102388909D01*
X52857091Y-102632804D01*
X53048717Y-102919592D01*
X53180710Y-103238253D01*
X53248000Y-103576540D01*
X53248000Y-103921460D01*
X53222601Y-104049147D01*
X53184986Y-104238253D01*
X53180710Y-104259747D01*
X53048717Y-104578408D01*
X52857091Y-104865196D01*
X52613196Y-105109091D01*
X52326408Y-105300717D01*
X52139741Y-105378037D01*
X52007748Y-105432710D01*
X51894985Y-105455140D01*
X51669460Y-105500000D01*
X51324540Y-105500000D01*
X51099015Y-105455140D01*
X50986252Y-105432710D01*
X50854259Y-105378037D01*
X50667592Y-105300717D01*
X50380804Y-105109091D01*
X50136909Y-104865196D01*
X49945283Y-104578408D01*
X49813290Y-104259747D01*
X49809015Y-104238253D01*
X49771399Y-104049147D01*
X49746000Y-103921460D01*
X49746000Y-103576540D01*
X49813290Y-103238253D01*
X49945283Y-102919592D01*
X50136909Y-102632804D01*
X50380804Y-102388909D01*
X50667592Y-102197283D01*
X50911682Y-102096178D01*
X50986252Y-102065290D01*
X51099015Y-102042860D01*
X51324540Y-101998000D01*
X51669460Y-101998000D01*
X51894985Y-102042860D01*
X51894985Y-102042860D01*
G37*
G36*
X46110512Y-102852927D02*
G01*
X46259812Y-102882624D01*
X46423784Y-102950544D01*
X46571354Y-103049147D01*
X46696853Y-103174646D01*
X46795456Y-103322216D01*
X46863376Y-103486188D01*
X46881348Y-103576542D01*
X46898000Y-103660258D01*
X46898000Y-103837742D01*
X46893073Y-103862512D01*
X46863376Y-104011812D01*
X46795456Y-104175784D01*
X46696853Y-104323354D01*
X46571354Y-104448853D01*
X46423784Y-104547456D01*
X46259812Y-104615376D01*
X46110512Y-104645073D01*
X46085742Y-104650000D01*
X45908258Y-104650000D01*
X45883488Y-104645073D01*
X45734188Y-104615376D01*
X45570216Y-104547456D01*
X45422646Y-104448853D01*
X45297147Y-104323354D01*
X45198544Y-104175784D01*
X45130624Y-104011812D01*
X45100927Y-103862512D01*
X45096000Y-103837742D01*
X45096000Y-103660258D01*
X45112652Y-103576542D01*
X45130624Y-103486188D01*
X45198544Y-103322216D01*
X45297147Y-103174646D01*
X45422646Y-103049147D01*
X45570216Y-102950544D01*
X45734188Y-102882624D01*
X45883488Y-102852927D01*
X45908258Y-102848000D01*
X46085742Y-102848000D01*
X46110512Y-102852927D01*
X46110512Y-102852927D01*
G37*
G36*
X57110512Y-102852927D02*
G01*
X57259812Y-102882624D01*
X57423784Y-102950544D01*
X57571354Y-103049147D01*
X57696853Y-103174646D01*
X57795456Y-103322216D01*
X57863376Y-103486188D01*
X57881348Y-103576542D01*
X57898000Y-103660258D01*
X57898000Y-103837742D01*
X57893073Y-103862512D01*
X57863376Y-104011812D01*
X57795456Y-104175784D01*
X57696853Y-104323354D01*
X57571354Y-104448853D01*
X57423784Y-104547456D01*
X57259812Y-104615376D01*
X57110512Y-104645073D01*
X57085742Y-104650000D01*
X56908258Y-104650000D01*
X56883488Y-104645073D01*
X56734188Y-104615376D01*
X56570216Y-104547456D01*
X56422646Y-104448853D01*
X56297147Y-104323354D01*
X56198544Y-104175784D01*
X56130624Y-104011812D01*
X56100927Y-103862512D01*
X56096000Y-103837742D01*
X56096000Y-103660258D01*
X56112652Y-103576542D01*
X56130624Y-103486188D01*
X56198544Y-103322216D01*
X56297147Y-103174646D01*
X56422646Y-103049147D01*
X56570216Y-102950544D01*
X56734188Y-102882624D01*
X56883488Y-102852927D01*
X56908258Y-102848000D01*
X57085742Y-102848000D01*
X57110512Y-102852927D01*
X57110512Y-102852927D01*
G37*
G36*
X137048000Y-103725000D02*
G01*
X134446000Y-103725000D01*
X134446000Y-102423000D01*
X137048000Y-102423000D01*
X137048000Y-103725000D01*
X137048000Y-103725000D01*
G37*
G36*
X107394985Y-100042860D02*
G01*
X107507748Y-100065290D01*
X107639741Y-100119963D01*
X107826408Y-100197283D01*
X108113196Y-100388909D01*
X108357091Y-100632804D01*
X108548717Y-100919592D01*
X108621201Y-101094584D01*
X108680710Y-101238252D01*
X108684154Y-101255565D01*
X108748000Y-101576540D01*
X108748000Y-101921460D01*
X108680710Y-102259747D01*
X108548717Y-102578408D01*
X108357091Y-102865196D01*
X108113196Y-103109091D01*
X107826408Y-103300717D01*
X107639741Y-103378037D01*
X107507748Y-103432710D01*
X107394985Y-103455140D01*
X107169460Y-103500000D01*
X106824540Y-103500000D01*
X106599015Y-103455140D01*
X106486252Y-103432710D01*
X106354259Y-103378037D01*
X106167592Y-103300717D01*
X105880804Y-103109091D01*
X105636909Y-102865196D01*
X105445283Y-102578408D01*
X105313290Y-102259747D01*
X105246000Y-101921460D01*
X105246000Y-101576540D01*
X105309846Y-101255565D01*
X105313290Y-101238252D01*
X105372799Y-101094584D01*
X105445283Y-100919592D01*
X105636909Y-100632804D01*
X105880804Y-100388909D01*
X106167592Y-100197283D01*
X106354259Y-100119963D01*
X106486252Y-100065290D01*
X106599015Y-100042860D01*
X106824540Y-99998000D01*
X107169460Y-99998000D01*
X107394985Y-100042860D01*
X107394985Y-100042860D01*
G37*
G36*
X70394985Y-100042860D02*
G01*
X70507748Y-100065290D01*
X70639741Y-100119963D01*
X70826408Y-100197283D01*
X71113196Y-100388909D01*
X71357091Y-100632804D01*
X71548717Y-100919592D01*
X71621201Y-101094584D01*
X71680710Y-101238252D01*
X71684154Y-101255565D01*
X71748000Y-101576540D01*
X71748000Y-101921460D01*
X71680710Y-102259747D01*
X71548717Y-102578408D01*
X71357091Y-102865196D01*
X71113196Y-103109091D01*
X70826408Y-103300717D01*
X70639741Y-103378037D01*
X70507748Y-103432710D01*
X70394985Y-103455140D01*
X70169460Y-103500000D01*
X69824540Y-103500000D01*
X69599015Y-103455140D01*
X69486252Y-103432710D01*
X69354259Y-103378037D01*
X69167592Y-103300717D01*
X68880804Y-103109091D01*
X68636909Y-102865196D01*
X68445283Y-102578408D01*
X68313290Y-102259747D01*
X68246000Y-101921460D01*
X68246000Y-101576540D01*
X68309846Y-101255565D01*
X68313290Y-101238252D01*
X68372799Y-101094584D01*
X68445283Y-100919592D01*
X68636909Y-100632804D01*
X68880804Y-100388909D01*
X69167592Y-100197283D01*
X69354259Y-100119963D01*
X69486252Y-100065290D01*
X69599015Y-100042860D01*
X69824540Y-99998000D01*
X70169460Y-99998000D01*
X70394985Y-100042860D01*
X70394985Y-100042860D01*
G37*
G36*
X101604956Y-100851822D02*
G01*
X101759812Y-100882624D01*
X101923784Y-100950544D01*
X102071354Y-101049147D01*
X102196853Y-101174646D01*
X102295456Y-101322216D01*
X102363376Y-101486188D01*
X102398000Y-101660259D01*
X102398000Y-101837741D01*
X102363376Y-102011812D01*
X102295456Y-102175784D01*
X102196853Y-102323354D01*
X102071354Y-102448853D01*
X101923784Y-102547456D01*
X101759812Y-102615376D01*
X101610512Y-102645073D01*
X101585742Y-102650000D01*
X101408258Y-102650000D01*
X101383488Y-102645073D01*
X101234188Y-102615376D01*
X101070216Y-102547456D01*
X100922646Y-102448853D01*
X100797147Y-102323354D01*
X100698544Y-102175784D01*
X100630624Y-102011812D01*
X100596000Y-101837741D01*
X100596000Y-101660259D01*
X100630624Y-101486188D01*
X100698544Y-101322216D01*
X100797147Y-101174646D01*
X100922646Y-101049147D01*
X101070216Y-100950544D01*
X101234188Y-100882624D01*
X101389044Y-100851822D01*
X101408258Y-100848000D01*
X101585742Y-100848000D01*
X101604956Y-100851822D01*
X101604956Y-100851822D01*
G37*
G36*
X112604956Y-100851822D02*
G01*
X112759812Y-100882624D01*
X112923784Y-100950544D01*
X113071354Y-101049147D01*
X113196853Y-101174646D01*
X113295456Y-101322216D01*
X113363376Y-101486188D01*
X113398000Y-101660259D01*
X113398000Y-101837741D01*
X113363376Y-102011812D01*
X113295456Y-102175784D01*
X113196853Y-102323354D01*
X113071354Y-102448853D01*
X112923784Y-102547456D01*
X112759812Y-102615376D01*
X112610512Y-102645073D01*
X112585742Y-102650000D01*
X112408258Y-102650000D01*
X112383488Y-102645073D01*
X112234188Y-102615376D01*
X112070216Y-102547456D01*
X111922646Y-102448853D01*
X111797147Y-102323354D01*
X111698544Y-102175784D01*
X111630624Y-102011812D01*
X111596000Y-101837741D01*
X111596000Y-101660259D01*
X111630624Y-101486188D01*
X111698544Y-101322216D01*
X111797147Y-101174646D01*
X111922646Y-101049147D01*
X112070216Y-100950544D01*
X112234188Y-100882624D01*
X112389044Y-100851822D01*
X112408258Y-100848000D01*
X112585742Y-100848000D01*
X112604956Y-100851822D01*
X112604956Y-100851822D01*
G37*
G36*
X64604956Y-100851822D02*
G01*
X64759812Y-100882624D01*
X64923784Y-100950544D01*
X65071354Y-101049147D01*
X65196853Y-101174646D01*
X65295456Y-101322216D01*
X65363376Y-101486188D01*
X65398000Y-101660259D01*
X65398000Y-101837741D01*
X65363376Y-102011812D01*
X65295456Y-102175784D01*
X65196853Y-102323354D01*
X65071354Y-102448853D01*
X64923784Y-102547456D01*
X64759812Y-102615376D01*
X64610512Y-102645073D01*
X64585742Y-102650000D01*
X64408258Y-102650000D01*
X64383488Y-102645073D01*
X64234188Y-102615376D01*
X64070216Y-102547456D01*
X63922646Y-102448853D01*
X63797147Y-102323354D01*
X63698544Y-102175784D01*
X63630624Y-102011812D01*
X63596000Y-101837741D01*
X63596000Y-101660259D01*
X63630624Y-101486188D01*
X63698544Y-101322216D01*
X63797147Y-101174646D01*
X63922646Y-101049147D01*
X64070216Y-100950544D01*
X64234188Y-100882624D01*
X64389044Y-100851822D01*
X64408258Y-100848000D01*
X64585742Y-100848000D01*
X64604956Y-100851822D01*
X64604956Y-100851822D01*
G37*
G36*
X75604956Y-100851822D02*
G01*
X75759812Y-100882624D01*
X75923784Y-100950544D01*
X76071354Y-101049147D01*
X76196853Y-101174646D01*
X76295456Y-101322216D01*
X76363376Y-101486188D01*
X76398000Y-101660259D01*
X76398000Y-101837741D01*
X76363376Y-102011812D01*
X76295456Y-102175784D01*
X76196853Y-102323354D01*
X76071354Y-102448853D01*
X75923784Y-102547456D01*
X75759812Y-102615376D01*
X75610512Y-102645073D01*
X75585742Y-102650000D01*
X75408258Y-102650000D01*
X75383488Y-102645073D01*
X75234188Y-102615376D01*
X75070216Y-102547456D01*
X74922646Y-102448853D01*
X74797147Y-102323354D01*
X74698544Y-102175784D01*
X74630624Y-102011812D01*
X74596000Y-101837741D01*
X74596000Y-101660259D01*
X74630624Y-101486188D01*
X74698544Y-101322216D01*
X74797147Y-101174646D01*
X74922646Y-101049147D01*
X75070216Y-100950544D01*
X75234188Y-100882624D01*
X75389044Y-100851822D01*
X75408258Y-100848000D01*
X75585742Y-100848000D01*
X75604956Y-100851822D01*
X75604956Y-100851822D01*
G37*
G36*
X139230642Y-100703781D02*
G01*
X139376414Y-100764162D01*
X139376416Y-100764163D01*
X139507608Y-100851822D01*
X139619178Y-100963392D01*
X139678727Y-101052514D01*
X139706838Y-101094586D01*
X139767219Y-101240358D01*
X139798000Y-101395107D01*
X139798000Y-101552893D01*
X139767219Y-101707642D01*
X139706838Y-101853414D01*
X139706837Y-101853416D01*
X139619178Y-101984608D01*
X139507608Y-102096178D01*
X139376416Y-102183837D01*
X139376415Y-102183838D01*
X139376414Y-102183838D01*
X139230642Y-102244219D01*
X139075893Y-102275000D01*
X138918107Y-102275000D01*
X138763358Y-102244219D01*
X138617586Y-102183838D01*
X138617585Y-102183838D01*
X138617584Y-102183837D01*
X138486392Y-102096178D01*
X138374822Y-101984608D01*
X138287163Y-101853416D01*
X138287162Y-101853414D01*
X138226781Y-101707642D01*
X138196000Y-101552893D01*
X138196000Y-101395107D01*
X138226781Y-101240358D01*
X138287162Y-101094586D01*
X138315273Y-101052514D01*
X138374822Y-100963392D01*
X138486392Y-100851822D01*
X138617584Y-100764163D01*
X138617586Y-100764162D01*
X138763358Y-100703781D01*
X138918107Y-100673000D01*
X139075893Y-100673000D01*
X139230642Y-100703781D01*
X139230642Y-100703781D01*
G37*
G36*
X130803564Y-99938389D02*
G01*
X130994833Y-100017615D01*
X130994835Y-100017616D01*
X131166973Y-100132635D01*
X131313365Y-100279027D01*
X131425491Y-100446835D01*
X131428385Y-100451167D01*
X131507611Y-100642436D01*
X131548000Y-100845484D01*
X131548000Y-101052516D01*
X131507611Y-101255564D01*
X131449810Y-101395108D01*
X131428384Y-101446835D01*
X131313365Y-101618973D01*
X131166973Y-101765365D01*
X130994835Y-101880384D01*
X130994834Y-101880385D01*
X130994833Y-101880385D01*
X130803564Y-101959611D01*
X130600516Y-102000000D01*
X130393484Y-102000000D01*
X130190436Y-101959611D01*
X129999167Y-101880385D01*
X129999166Y-101880385D01*
X129999165Y-101880384D01*
X129827027Y-101765365D01*
X129680635Y-101618973D01*
X129565616Y-101446835D01*
X129544190Y-101395108D01*
X129486389Y-101255564D01*
X129446000Y-101052516D01*
X129446000Y-100845484D01*
X129486389Y-100642436D01*
X129565615Y-100451167D01*
X129568510Y-100446835D01*
X129680635Y-100279027D01*
X129827027Y-100132635D01*
X129999165Y-100017616D01*
X129999167Y-100017615D01*
X130190436Y-99938389D01*
X130393484Y-99898000D01*
X130600516Y-99898000D01*
X130803564Y-99938389D01*
X130803564Y-99938389D01*
G37*
G36*
X120803564Y-99938389D02*
G01*
X120994833Y-100017615D01*
X120994835Y-100017616D01*
X121166973Y-100132635D01*
X121313365Y-100279027D01*
X121425491Y-100446835D01*
X121428385Y-100451167D01*
X121507611Y-100642436D01*
X121548000Y-100845484D01*
X121548000Y-101052516D01*
X121507611Y-101255564D01*
X121449810Y-101395108D01*
X121428384Y-101446835D01*
X121313365Y-101618973D01*
X121166973Y-101765365D01*
X120994835Y-101880384D01*
X120994834Y-101880385D01*
X120994833Y-101880385D01*
X120803564Y-101959611D01*
X120600516Y-102000000D01*
X120393484Y-102000000D01*
X120190436Y-101959611D01*
X119999167Y-101880385D01*
X119999166Y-101880385D01*
X119999165Y-101880384D01*
X119827027Y-101765365D01*
X119680635Y-101618973D01*
X119565616Y-101446835D01*
X119544190Y-101395108D01*
X119486389Y-101255564D01*
X119446000Y-101052516D01*
X119446000Y-100845484D01*
X119486389Y-100642436D01*
X119565615Y-100451167D01*
X119568510Y-100446835D01*
X119680635Y-100279027D01*
X119827027Y-100132635D01*
X119999165Y-100017616D01*
X119999167Y-100017615D01*
X120190436Y-99938389D01*
X120393484Y-99898000D01*
X120600516Y-99898000D01*
X120803564Y-99938389D01*
X120803564Y-99938389D01*
G37*
G36*
X46803564Y-98938389D02*
G01*
X46994833Y-99017615D01*
X46994835Y-99017616D01*
X47166973Y-99132635D01*
X47313365Y-99279027D01*
X47358672Y-99346833D01*
X47428385Y-99451167D01*
X47507611Y-99642436D01*
X47548000Y-99845484D01*
X47548000Y-100052516D01*
X47507611Y-100255564D01*
X47497892Y-100279027D01*
X47428384Y-100446835D01*
X47313365Y-100618973D01*
X47166973Y-100765365D01*
X46994835Y-100880384D01*
X46994834Y-100880385D01*
X46994833Y-100880385D01*
X46803564Y-100959611D01*
X46600516Y-101000000D01*
X46393484Y-101000000D01*
X46190436Y-100959611D01*
X45999167Y-100880385D01*
X45999166Y-100880385D01*
X45999165Y-100880384D01*
X45827027Y-100765365D01*
X45680635Y-100618973D01*
X45565616Y-100446835D01*
X45496108Y-100279027D01*
X45486389Y-100255564D01*
X45446000Y-100052516D01*
X45446000Y-99845484D01*
X45486389Y-99642436D01*
X45565615Y-99451167D01*
X45635329Y-99346833D01*
X45680635Y-99279027D01*
X45827027Y-99132635D01*
X45999165Y-99017616D01*
X45999167Y-99017615D01*
X46190436Y-98938389D01*
X46393484Y-98898000D01*
X46600516Y-98898000D01*
X46803564Y-98938389D01*
X46803564Y-98938389D01*
G37*
G36*
X56803564Y-98938389D02*
G01*
X56994833Y-99017615D01*
X56994835Y-99017616D01*
X57166973Y-99132635D01*
X57313365Y-99279027D01*
X57358672Y-99346833D01*
X57428385Y-99451167D01*
X57507611Y-99642436D01*
X57548000Y-99845484D01*
X57548000Y-100052516D01*
X57507611Y-100255564D01*
X57497892Y-100279027D01*
X57428384Y-100446835D01*
X57313365Y-100618973D01*
X57166973Y-100765365D01*
X56994835Y-100880384D01*
X56994834Y-100880385D01*
X56994833Y-100880385D01*
X56803564Y-100959611D01*
X56600516Y-101000000D01*
X56393484Y-101000000D01*
X56190436Y-100959611D01*
X55999167Y-100880385D01*
X55999166Y-100880385D01*
X55999165Y-100880384D01*
X55827027Y-100765365D01*
X55680635Y-100618973D01*
X55565616Y-100446835D01*
X55496108Y-100279027D01*
X55486389Y-100255564D01*
X55446000Y-100052516D01*
X55446000Y-99845484D01*
X55486389Y-99642436D01*
X55565615Y-99451167D01*
X55635329Y-99346833D01*
X55680635Y-99279027D01*
X55827027Y-99132635D01*
X55999165Y-99017616D01*
X55999167Y-99017615D01*
X56190436Y-98938389D01*
X56393484Y-98898000D01*
X56600516Y-98898000D01*
X56803564Y-98938389D01*
X56803564Y-98938389D01*
G37*
G36*
X125803564Y-97838389D02*
G01*
X125994833Y-97917615D01*
X125994835Y-97917616D01*
X126166973Y-98032635D01*
X126313365Y-98179027D01*
X126425491Y-98346835D01*
X126428385Y-98351167D01*
X126507611Y-98542436D01*
X126548000Y-98745484D01*
X126548000Y-98952516D01*
X126507611Y-99155564D01*
X126456471Y-99279027D01*
X126428384Y-99346835D01*
X126313365Y-99518973D01*
X126166973Y-99665365D01*
X125994835Y-99780384D01*
X125994834Y-99780385D01*
X125994833Y-99780385D01*
X125803564Y-99859611D01*
X125600516Y-99900000D01*
X125393484Y-99900000D01*
X125190436Y-99859611D01*
X124999167Y-99780385D01*
X124999166Y-99780385D01*
X124999165Y-99780384D01*
X124827027Y-99665365D01*
X124680635Y-99518973D01*
X124565616Y-99346835D01*
X124537529Y-99279027D01*
X124486389Y-99155564D01*
X124446000Y-98952516D01*
X124446000Y-98745484D01*
X124486389Y-98542436D01*
X124565615Y-98351167D01*
X124568510Y-98346835D01*
X124680635Y-98179027D01*
X124827027Y-98032635D01*
X124999165Y-97917616D01*
X124999167Y-97917615D01*
X125190436Y-97838389D01*
X125393484Y-97798000D01*
X125600516Y-97798000D01*
X125803564Y-97838389D01*
X125803564Y-97838389D01*
G37*
G36*
X112303564Y-96938389D02*
G01*
X112480823Y-97011812D01*
X112494835Y-97017616D01*
X112666973Y-97132635D01*
X112813365Y-97279027D01*
X112926839Y-97448852D01*
X112928385Y-97451167D01*
X113007611Y-97642436D01*
X113048000Y-97845484D01*
X113048000Y-98052516D01*
X113007611Y-98255564D01*
X112968011Y-98351167D01*
X112928384Y-98446835D01*
X112813365Y-98618973D01*
X112666973Y-98765365D01*
X112494835Y-98880384D01*
X112494834Y-98880385D01*
X112494833Y-98880385D01*
X112303564Y-98959611D01*
X112100516Y-99000000D01*
X111893484Y-99000000D01*
X111690436Y-98959611D01*
X111499167Y-98880385D01*
X111499166Y-98880385D01*
X111499165Y-98880384D01*
X111327027Y-98765365D01*
X111180635Y-98618973D01*
X111065616Y-98446835D01*
X111025989Y-98351167D01*
X110986389Y-98255564D01*
X110946000Y-98052516D01*
X110946000Y-97845484D01*
X110986389Y-97642436D01*
X111065615Y-97451167D01*
X111067162Y-97448852D01*
X111180635Y-97279027D01*
X111327027Y-97132635D01*
X111499165Y-97017616D01*
X111513177Y-97011812D01*
X111690436Y-96938389D01*
X111893484Y-96898000D01*
X112100516Y-96898000D01*
X112303564Y-96938389D01*
X112303564Y-96938389D01*
G37*
G36*
X65303564Y-96938389D02*
G01*
X65480823Y-97011812D01*
X65494835Y-97017616D01*
X65666973Y-97132635D01*
X65813365Y-97279027D01*
X65926839Y-97448852D01*
X65928385Y-97451167D01*
X66007611Y-97642436D01*
X66048000Y-97845484D01*
X66048000Y-98052516D01*
X66007611Y-98255564D01*
X65968011Y-98351167D01*
X65928384Y-98446835D01*
X65813365Y-98618973D01*
X65666973Y-98765365D01*
X65494835Y-98880384D01*
X65494834Y-98880385D01*
X65494833Y-98880385D01*
X65303564Y-98959611D01*
X65100516Y-99000000D01*
X64893484Y-99000000D01*
X64690436Y-98959611D01*
X64499167Y-98880385D01*
X64499166Y-98880385D01*
X64499165Y-98880384D01*
X64327027Y-98765365D01*
X64180635Y-98618973D01*
X64065616Y-98446835D01*
X64025989Y-98351167D01*
X63986389Y-98255564D01*
X63946000Y-98052516D01*
X63946000Y-97845484D01*
X63986389Y-97642436D01*
X64065615Y-97451167D01*
X64067162Y-97448852D01*
X64180635Y-97279027D01*
X64327027Y-97132635D01*
X64499165Y-97017616D01*
X64513177Y-97011812D01*
X64690436Y-96938389D01*
X64893484Y-96898000D01*
X65100516Y-96898000D01*
X65303564Y-96938389D01*
X65303564Y-96938389D01*
G37*
G36*
X75303564Y-96938389D02*
G01*
X75480823Y-97011812D01*
X75494835Y-97017616D01*
X75666973Y-97132635D01*
X75813365Y-97279027D01*
X75926839Y-97448852D01*
X75928385Y-97451167D01*
X76007611Y-97642436D01*
X76048000Y-97845484D01*
X76048000Y-98052516D01*
X76007611Y-98255564D01*
X75968011Y-98351167D01*
X75928384Y-98446835D01*
X75813365Y-98618973D01*
X75666973Y-98765365D01*
X75494835Y-98880384D01*
X75494834Y-98880385D01*
X75494833Y-98880385D01*
X75303564Y-98959611D01*
X75100516Y-99000000D01*
X74893484Y-99000000D01*
X74690436Y-98959611D01*
X74499167Y-98880385D01*
X74499166Y-98880385D01*
X74499165Y-98880384D01*
X74327027Y-98765365D01*
X74180635Y-98618973D01*
X74065616Y-98446835D01*
X74025989Y-98351167D01*
X73986389Y-98255564D01*
X73946000Y-98052516D01*
X73946000Y-97845484D01*
X73986389Y-97642436D01*
X74065615Y-97451167D01*
X74067162Y-97448852D01*
X74180635Y-97279027D01*
X74327027Y-97132635D01*
X74499165Y-97017616D01*
X74513177Y-97011812D01*
X74690436Y-96938389D01*
X74893484Y-96898000D01*
X75100516Y-96898000D01*
X75303564Y-96938389D01*
X75303564Y-96938389D01*
G37*
G36*
X102303564Y-96938389D02*
G01*
X102480823Y-97011812D01*
X102494835Y-97017616D01*
X102666973Y-97132635D01*
X102813365Y-97279027D01*
X102926839Y-97448852D01*
X102928385Y-97451167D01*
X103007611Y-97642436D01*
X103048000Y-97845484D01*
X103048000Y-98052516D01*
X103007611Y-98255564D01*
X102968011Y-98351167D01*
X102928384Y-98446835D01*
X102813365Y-98618973D01*
X102666973Y-98765365D01*
X102494835Y-98880384D01*
X102494834Y-98880385D01*
X102494833Y-98880385D01*
X102303564Y-98959611D01*
X102100516Y-99000000D01*
X101893484Y-99000000D01*
X101690436Y-98959611D01*
X101499167Y-98880385D01*
X101499166Y-98880385D01*
X101499165Y-98880384D01*
X101327027Y-98765365D01*
X101180635Y-98618973D01*
X101065616Y-98446835D01*
X101025989Y-98351167D01*
X100986389Y-98255564D01*
X100946000Y-98052516D01*
X100946000Y-97845484D01*
X100986389Y-97642436D01*
X101065615Y-97451167D01*
X101067162Y-97448852D01*
X101180635Y-97279027D01*
X101327027Y-97132635D01*
X101499165Y-97017616D01*
X101513177Y-97011812D01*
X101690436Y-96938389D01*
X101893484Y-96898000D01*
X102100516Y-96898000D01*
X102303564Y-96938389D01*
X102303564Y-96938389D01*
G37*
G36*
X51803564Y-96838389D02*
G01*
X51994833Y-96917615D01*
X51994835Y-96917616D01*
X52166973Y-97032635D01*
X52313365Y-97179027D01*
X52409801Y-97323353D01*
X52428385Y-97351167D01*
X52507611Y-97542436D01*
X52548000Y-97745484D01*
X52548000Y-97952516D01*
X52507611Y-98155564D01*
X52466189Y-98255565D01*
X52428384Y-98346835D01*
X52313365Y-98518973D01*
X52166973Y-98665365D01*
X51994835Y-98780384D01*
X51994834Y-98780385D01*
X51994833Y-98780385D01*
X51803564Y-98859611D01*
X51600516Y-98900000D01*
X51393484Y-98900000D01*
X51190436Y-98859611D01*
X50999167Y-98780385D01*
X50999166Y-98780385D01*
X50999165Y-98780384D01*
X50827027Y-98665365D01*
X50680635Y-98518973D01*
X50565616Y-98346835D01*
X50527811Y-98255565D01*
X50486389Y-98155564D01*
X50446000Y-97952516D01*
X50446000Y-97745484D01*
X50486389Y-97542436D01*
X50565615Y-97351167D01*
X50584200Y-97323353D01*
X50680635Y-97179027D01*
X50827027Y-97032635D01*
X50999165Y-96917616D01*
X50999167Y-96917615D01*
X51190436Y-96838389D01*
X51393484Y-96798000D01*
X51600516Y-96798000D01*
X51803564Y-96838389D01*
X51803564Y-96838389D01*
G37*
G36*
X88894985Y-95042860D02*
G01*
X89007748Y-95065290D01*
X89139741Y-95119963D01*
X89326408Y-95197283D01*
X89613196Y-95388909D01*
X89857091Y-95632804D01*
X90048717Y-95919592D01*
X90180710Y-96238253D01*
X90248000Y-96576540D01*
X90248000Y-96921460D01*
X90180710Y-97259747D01*
X90048717Y-97578408D01*
X89857091Y-97865196D01*
X89613196Y-98109091D01*
X89326408Y-98300717D01*
X89204615Y-98351165D01*
X89007748Y-98432710D01*
X88894985Y-98455140D01*
X88669460Y-98500000D01*
X88324540Y-98500000D01*
X88099015Y-98455140D01*
X87986252Y-98432710D01*
X87789385Y-98351165D01*
X87667592Y-98300717D01*
X87380804Y-98109091D01*
X87136909Y-97865196D01*
X86945283Y-97578408D01*
X86813290Y-97259747D01*
X86746000Y-96921460D01*
X86746000Y-96576540D01*
X86813290Y-96238253D01*
X86945283Y-95919592D01*
X87136909Y-95632804D01*
X87380804Y-95388909D01*
X87667592Y-95197283D01*
X87854259Y-95119963D01*
X87986252Y-95065290D01*
X88099015Y-95042860D01*
X88324540Y-94998000D01*
X88669460Y-94998000D01*
X88894985Y-95042860D01*
X88894985Y-95042860D01*
G37*
G36*
X94110512Y-95852927D02*
G01*
X94259812Y-95882624D01*
X94423784Y-95950544D01*
X94571354Y-96049147D01*
X94696853Y-96174646D01*
X94795456Y-96322216D01*
X94863376Y-96486188D01*
X94898000Y-96660259D01*
X94898000Y-96837741D01*
X94863376Y-97011812D01*
X94795456Y-97175784D01*
X94696853Y-97323354D01*
X94571354Y-97448853D01*
X94423784Y-97547456D01*
X94259812Y-97615376D01*
X94110512Y-97645073D01*
X94085742Y-97650000D01*
X93908258Y-97650000D01*
X93883488Y-97645073D01*
X93734188Y-97615376D01*
X93570216Y-97547456D01*
X93422646Y-97448853D01*
X93297147Y-97323354D01*
X93198544Y-97175784D01*
X93130624Y-97011812D01*
X93096000Y-96837741D01*
X93096000Y-96660259D01*
X93130624Y-96486188D01*
X93198544Y-96322216D01*
X93297147Y-96174646D01*
X93422646Y-96049147D01*
X93570216Y-95950544D01*
X93734188Y-95882624D01*
X93883488Y-95852927D01*
X93908258Y-95848000D01*
X94085742Y-95848000D01*
X94110512Y-95852927D01*
X94110512Y-95852927D01*
G37*
G36*
X83110512Y-95852927D02*
G01*
X83259812Y-95882624D01*
X83423784Y-95950544D01*
X83571354Y-96049147D01*
X83696853Y-96174646D01*
X83795456Y-96322216D01*
X83863376Y-96486188D01*
X83898000Y-96660259D01*
X83898000Y-96837741D01*
X83863376Y-97011812D01*
X83795456Y-97175784D01*
X83696853Y-97323354D01*
X83571354Y-97448853D01*
X83423784Y-97547456D01*
X83259812Y-97615376D01*
X83110512Y-97645073D01*
X83085742Y-97650000D01*
X82908258Y-97650000D01*
X82883488Y-97645073D01*
X82734188Y-97615376D01*
X82570216Y-97547456D01*
X82422646Y-97448853D01*
X82297147Y-97323354D01*
X82198544Y-97175784D01*
X82130624Y-97011812D01*
X82096000Y-96837741D01*
X82096000Y-96660259D01*
X82130624Y-96486188D01*
X82198544Y-96322216D01*
X82297147Y-96174646D01*
X82422646Y-96049147D01*
X82570216Y-95950544D01*
X82734188Y-95882624D01*
X82883488Y-95852927D01*
X82908258Y-95848000D01*
X83085742Y-95848000D01*
X83110512Y-95852927D01*
X83110512Y-95852927D01*
G37*
G36*
X70303564Y-94838389D02*
G01*
X70494833Y-94917615D01*
X70494835Y-94917616D01*
X70615138Y-94998000D01*
X70666973Y-95032635D01*
X70813365Y-95179027D01*
X70928385Y-95351167D01*
X71007611Y-95542436D01*
X71048000Y-95745484D01*
X71048000Y-95952516D01*
X71007611Y-96155564D01*
X70938581Y-96322218D01*
X70928384Y-96346835D01*
X70813365Y-96518973D01*
X70666973Y-96665365D01*
X70494835Y-96780384D01*
X70494834Y-96780385D01*
X70494833Y-96780385D01*
X70303564Y-96859611D01*
X70100516Y-96900000D01*
X69893484Y-96900000D01*
X69690436Y-96859611D01*
X69499167Y-96780385D01*
X69499166Y-96780385D01*
X69499165Y-96780384D01*
X69327027Y-96665365D01*
X69180635Y-96518973D01*
X69065616Y-96346835D01*
X69055419Y-96322218D01*
X68986389Y-96155564D01*
X68946000Y-95952516D01*
X68946000Y-95745484D01*
X68986389Y-95542436D01*
X69065615Y-95351167D01*
X69180635Y-95179027D01*
X69327027Y-95032635D01*
X69378862Y-94998000D01*
X69499165Y-94917616D01*
X69499167Y-94917615D01*
X69690436Y-94838389D01*
X69893484Y-94798000D01*
X70100516Y-94798000D01*
X70303564Y-94838389D01*
X70303564Y-94838389D01*
G37*
G36*
X107303564Y-94838389D02*
G01*
X107494833Y-94917615D01*
X107494835Y-94917616D01*
X107615138Y-94998000D01*
X107666973Y-95032635D01*
X107813365Y-95179027D01*
X107928385Y-95351167D01*
X108007611Y-95542436D01*
X108048000Y-95745484D01*
X108048000Y-95952516D01*
X108007611Y-96155564D01*
X107938581Y-96322218D01*
X107928384Y-96346835D01*
X107813365Y-96518973D01*
X107666973Y-96665365D01*
X107494835Y-96780384D01*
X107494834Y-96780385D01*
X107494833Y-96780385D01*
X107303564Y-96859611D01*
X107100516Y-96900000D01*
X106893484Y-96900000D01*
X106690436Y-96859611D01*
X106499167Y-96780385D01*
X106499166Y-96780385D01*
X106499165Y-96780384D01*
X106327027Y-96665365D01*
X106180635Y-96518973D01*
X106065616Y-96346835D01*
X106055419Y-96322218D01*
X105986389Y-96155564D01*
X105946000Y-95952516D01*
X105946000Y-95745484D01*
X105986389Y-95542436D01*
X106065615Y-95351167D01*
X106180635Y-95179027D01*
X106327027Y-95032635D01*
X106378862Y-94998000D01*
X106499165Y-94917616D01*
X106499167Y-94917615D01*
X106690436Y-94838389D01*
X106893484Y-94798000D01*
X107100516Y-94798000D01*
X107303564Y-94838389D01*
X107303564Y-94838389D01*
G37*
G36*
X93803564Y-91938389D02*
G01*
X93994833Y-92017615D01*
X93994835Y-92017616D01*
X94166973Y-92132635D01*
X94313365Y-92279027D01*
X94428385Y-92451167D01*
X94507611Y-92642436D01*
X94548000Y-92845484D01*
X94548000Y-93052516D01*
X94507611Y-93255564D01*
X94428385Y-93446833D01*
X94428384Y-93446835D01*
X94313365Y-93618973D01*
X94166973Y-93765365D01*
X93994835Y-93880384D01*
X93994834Y-93880385D01*
X93994833Y-93880385D01*
X93803564Y-93959611D01*
X93600516Y-94000000D01*
X93393484Y-94000000D01*
X93190436Y-93959611D01*
X92999167Y-93880385D01*
X92999166Y-93880385D01*
X92999165Y-93880384D01*
X92827027Y-93765365D01*
X92680635Y-93618973D01*
X92565616Y-93446835D01*
X92565615Y-93446833D01*
X92486389Y-93255564D01*
X92446000Y-93052516D01*
X92446000Y-92845484D01*
X92486389Y-92642436D01*
X92565615Y-92451167D01*
X92680635Y-92279027D01*
X92827027Y-92132635D01*
X92999165Y-92017616D01*
X92999167Y-92017615D01*
X93190436Y-91938389D01*
X93393484Y-91898000D01*
X93600516Y-91898000D01*
X93803564Y-91938389D01*
X93803564Y-91938389D01*
G37*
G36*
X83803564Y-91938389D02*
G01*
X83994833Y-92017615D01*
X83994835Y-92017616D01*
X84166973Y-92132635D01*
X84313365Y-92279027D01*
X84428385Y-92451167D01*
X84507611Y-92642436D01*
X84548000Y-92845484D01*
X84548000Y-93052516D01*
X84507611Y-93255564D01*
X84428385Y-93446833D01*
X84428384Y-93446835D01*
X84313365Y-93618973D01*
X84166973Y-93765365D01*
X83994835Y-93880384D01*
X83994834Y-93880385D01*
X83994833Y-93880385D01*
X83803564Y-93959611D01*
X83600516Y-94000000D01*
X83393484Y-94000000D01*
X83190436Y-93959611D01*
X82999167Y-93880385D01*
X82999166Y-93880385D01*
X82999165Y-93880384D01*
X82827027Y-93765365D01*
X82680635Y-93618973D01*
X82565616Y-93446835D01*
X82565615Y-93446833D01*
X82486389Y-93255564D01*
X82446000Y-93052516D01*
X82446000Y-92845484D01*
X82486389Y-92642436D01*
X82565615Y-92451167D01*
X82680635Y-92279027D01*
X82827027Y-92132635D01*
X82999165Y-92017616D01*
X82999167Y-92017615D01*
X83190436Y-91938389D01*
X83393484Y-91898000D01*
X83600516Y-91898000D01*
X83803564Y-91938389D01*
X83803564Y-91938389D01*
G37*
G36*
X88803564Y-89838389D02*
G01*
X88994833Y-89917615D01*
X88994835Y-89917616D01*
X89166973Y-90032635D01*
X89313365Y-90179027D01*
X89428385Y-90351167D01*
X89507611Y-90542436D01*
X89548000Y-90745484D01*
X89548000Y-90952516D01*
X89507611Y-91155564D01*
X89428385Y-91346833D01*
X89428384Y-91346835D01*
X89313365Y-91518973D01*
X89166973Y-91665365D01*
X88994835Y-91780384D01*
X88994834Y-91780385D01*
X88994833Y-91780385D01*
X88803564Y-91859611D01*
X88600516Y-91900000D01*
X88393484Y-91900000D01*
X88190436Y-91859611D01*
X87999167Y-91780385D01*
X87999166Y-91780385D01*
X87999165Y-91780384D01*
X87827027Y-91665365D01*
X87680635Y-91518973D01*
X87565616Y-91346835D01*
X87565615Y-91346833D01*
X87486389Y-91155564D01*
X87446000Y-90952516D01*
X87446000Y-90745484D01*
X87486389Y-90542436D01*
X87565615Y-90351167D01*
X87680635Y-90179027D01*
X87827027Y-90032635D01*
X87999165Y-89917616D01*
X87999167Y-89917615D01*
X88190436Y-89838389D01*
X88393484Y-89798000D01*
X88600516Y-89798000D01*
X88803564Y-89838389D01*
X88803564Y-89838389D01*
G37*
G36*
X125894985Y-85542860D02*
G01*
X126007748Y-85565290D01*
X126113490Y-85609090D01*
X126326408Y-85697283D01*
X126613196Y-85888909D01*
X126857091Y-86132804D01*
X127048717Y-86419592D01*
X127126037Y-86606259D01*
X127180710Y-86738252D01*
X127184986Y-86759748D01*
X127248000Y-87076540D01*
X127248000Y-87421460D01*
X127180710Y-87759747D01*
X127048717Y-88078408D01*
X126857091Y-88365196D01*
X126613196Y-88609091D01*
X126326408Y-88800717D01*
X126139741Y-88878037D01*
X126007748Y-88932710D01*
X125894985Y-88955140D01*
X125669460Y-89000000D01*
X125324540Y-89000000D01*
X125099015Y-88955140D01*
X124986252Y-88932710D01*
X124854259Y-88878037D01*
X124667592Y-88800717D01*
X124380804Y-88609091D01*
X124136909Y-88365196D01*
X123945283Y-88078408D01*
X123813290Y-87759747D01*
X123746000Y-87421460D01*
X123746000Y-87076540D01*
X123809014Y-86759748D01*
X123813290Y-86738252D01*
X123867963Y-86606259D01*
X123945283Y-86419592D01*
X124136909Y-86132804D01*
X124380804Y-85888909D01*
X124667592Y-85697283D01*
X124880510Y-85609090D01*
X124986252Y-85565290D01*
X125099015Y-85542860D01*
X125324540Y-85498000D01*
X125669460Y-85498000D01*
X125894985Y-85542860D01*
X125894985Y-85542860D01*
G37*
G36*
X120110512Y-86352927D02*
G01*
X120259812Y-86382624D01*
X120423784Y-86450544D01*
X120571354Y-86549147D01*
X120696853Y-86674646D01*
X120795456Y-86822216D01*
X120863376Y-86986188D01*
X120881348Y-87076542D01*
X120895960Y-87150000D01*
X120898000Y-87160259D01*
X120898000Y-87337741D01*
X120863376Y-87511812D01*
X120795456Y-87675784D01*
X120696853Y-87823354D01*
X120571354Y-87948853D01*
X120423784Y-88047456D01*
X120259812Y-88115376D01*
X120110512Y-88145073D01*
X120085742Y-88150000D01*
X119908258Y-88150000D01*
X119883488Y-88145073D01*
X119734188Y-88115376D01*
X119570216Y-88047456D01*
X119422646Y-87948853D01*
X119297147Y-87823354D01*
X119198544Y-87675784D01*
X119130624Y-87511812D01*
X119096000Y-87337741D01*
X119096000Y-87160259D01*
X119098041Y-87150000D01*
X119112652Y-87076542D01*
X119130624Y-86986188D01*
X119198544Y-86822216D01*
X119297147Y-86674646D01*
X119422646Y-86549147D01*
X119570216Y-86450544D01*
X119734188Y-86382624D01*
X119883488Y-86352927D01*
X119908258Y-86348000D01*
X120085742Y-86348000D01*
X120110512Y-86352927D01*
X120110512Y-86352927D01*
G37*
G36*
X131110512Y-86352927D02*
G01*
X131259812Y-86382624D01*
X131423784Y-86450544D01*
X131571354Y-86549147D01*
X131696853Y-86674646D01*
X131795456Y-86822216D01*
X131863376Y-86986188D01*
X131881348Y-87076542D01*
X131895960Y-87150000D01*
X131898000Y-87160259D01*
X131898000Y-87337741D01*
X131863376Y-87511812D01*
X131795456Y-87675784D01*
X131696853Y-87823354D01*
X131571354Y-87948853D01*
X131423784Y-88047456D01*
X131259812Y-88115376D01*
X131110512Y-88145073D01*
X131085742Y-88150000D01*
X130908258Y-88150000D01*
X130883488Y-88145073D01*
X130734188Y-88115376D01*
X130570216Y-88047456D01*
X130422646Y-87948853D01*
X130297147Y-87823354D01*
X130198544Y-87675784D01*
X130130624Y-87511812D01*
X130096000Y-87337741D01*
X130096000Y-87160259D01*
X130098041Y-87150000D01*
X130112652Y-87076542D01*
X130130624Y-86986188D01*
X130198544Y-86822216D01*
X130297147Y-86674646D01*
X130422646Y-86549147D01*
X130570216Y-86450544D01*
X130734188Y-86382624D01*
X130883488Y-86352927D01*
X130908258Y-86348000D01*
X131085742Y-86348000D01*
X131110512Y-86352927D01*
X131110512Y-86352927D01*
G37*
G36*
X51894985Y-84542860D02*
G01*
X52007748Y-84565290D01*
X52139741Y-84619963D01*
X52326408Y-84697283D01*
X52613196Y-84888909D01*
X52857091Y-85132804D01*
X53048717Y-85419592D01*
X53180710Y-85738253D01*
X53248000Y-86076540D01*
X53248000Y-86421460D01*
X53222601Y-86549147D01*
X53184986Y-86738253D01*
X53180710Y-86759747D01*
X53048717Y-87078408D01*
X52857091Y-87365196D01*
X52613196Y-87609091D01*
X52326408Y-87800717D01*
X52139741Y-87878037D01*
X52007748Y-87932710D01*
X51894985Y-87955140D01*
X51669460Y-88000000D01*
X51324540Y-88000000D01*
X51099015Y-87955140D01*
X50986252Y-87932710D01*
X50854259Y-87878037D01*
X50667592Y-87800717D01*
X50380804Y-87609091D01*
X50136909Y-87365196D01*
X49945283Y-87078408D01*
X49813290Y-86759747D01*
X49809015Y-86738253D01*
X49771399Y-86549147D01*
X49746000Y-86421460D01*
X49746000Y-86076540D01*
X49813290Y-85738253D01*
X49945283Y-85419592D01*
X50136909Y-85132804D01*
X50380804Y-84888909D01*
X50667592Y-84697283D01*
X50854259Y-84619963D01*
X50986252Y-84565290D01*
X51099015Y-84542860D01*
X51324540Y-84498000D01*
X51669460Y-84498000D01*
X51894985Y-84542860D01*
X51894985Y-84542860D01*
G37*
G36*
X57110512Y-85352927D02*
G01*
X57259812Y-85382624D01*
X57423784Y-85450544D01*
X57571354Y-85549147D01*
X57696853Y-85674646D01*
X57795456Y-85822216D01*
X57863376Y-85986188D01*
X57881348Y-86076542D01*
X57898000Y-86160258D01*
X57898000Y-86337742D01*
X57893073Y-86362512D01*
X57863376Y-86511812D01*
X57795456Y-86675784D01*
X57696853Y-86823354D01*
X57571354Y-86948853D01*
X57423784Y-87047456D01*
X57259812Y-87115376D01*
X57110512Y-87145073D01*
X57085742Y-87150000D01*
X56908258Y-87150000D01*
X56883488Y-87145073D01*
X56734188Y-87115376D01*
X56570216Y-87047456D01*
X56422646Y-86948853D01*
X56297147Y-86823354D01*
X56198544Y-86675784D01*
X56130624Y-86511812D01*
X56100927Y-86362512D01*
X56096000Y-86337742D01*
X56096000Y-86160258D01*
X56112652Y-86076542D01*
X56130624Y-85986188D01*
X56198544Y-85822216D01*
X56297147Y-85674646D01*
X56422646Y-85549147D01*
X56570216Y-85450544D01*
X56734188Y-85382624D01*
X56883488Y-85352927D01*
X56908258Y-85348000D01*
X57085742Y-85348000D01*
X57110512Y-85352927D01*
X57110512Y-85352927D01*
G37*
G36*
X46110512Y-85352927D02*
G01*
X46259812Y-85382624D01*
X46423784Y-85450544D01*
X46571354Y-85549147D01*
X46696853Y-85674646D01*
X46795456Y-85822216D01*
X46863376Y-85986188D01*
X46881348Y-86076542D01*
X46898000Y-86160258D01*
X46898000Y-86337742D01*
X46893073Y-86362512D01*
X46863376Y-86511812D01*
X46795456Y-86675784D01*
X46696853Y-86823354D01*
X46571354Y-86948853D01*
X46423784Y-87047456D01*
X46259812Y-87115376D01*
X46110512Y-87145073D01*
X46085742Y-87150000D01*
X45908258Y-87150000D01*
X45883488Y-87145073D01*
X45734188Y-87115376D01*
X45570216Y-87047456D01*
X45422646Y-86948853D01*
X45297147Y-86823354D01*
X45198544Y-86675784D01*
X45130624Y-86511812D01*
X45100927Y-86362512D01*
X45096000Y-86337742D01*
X45096000Y-86160258D01*
X45112652Y-86076542D01*
X45130624Y-85986188D01*
X45198544Y-85822216D01*
X45297147Y-85674646D01*
X45422646Y-85549147D01*
X45570216Y-85450544D01*
X45734188Y-85382624D01*
X45883488Y-85352927D01*
X45908258Y-85348000D01*
X46085742Y-85348000D01*
X46110512Y-85352927D01*
X46110512Y-85352927D01*
G37*
G36*
X70394985Y-82542860D02*
G01*
X70507748Y-82565290D01*
X70639741Y-82619963D01*
X70826408Y-82697283D01*
X71113196Y-82888909D01*
X71357091Y-83132804D01*
X71548717Y-83419592D01*
X71626037Y-83606259D01*
X71680710Y-83738252D01*
X71684154Y-83755565D01*
X71748000Y-84076540D01*
X71748000Y-84421460D01*
X71680710Y-84759747D01*
X71548717Y-85078408D01*
X71357091Y-85365196D01*
X71113196Y-85609091D01*
X70826408Y-85800717D01*
X70639741Y-85878037D01*
X70507748Y-85932710D01*
X70394985Y-85955140D01*
X70169460Y-86000000D01*
X69824540Y-86000000D01*
X69599015Y-85955140D01*
X69486252Y-85932710D01*
X69354259Y-85878037D01*
X69167592Y-85800717D01*
X68880804Y-85609091D01*
X68636909Y-85365196D01*
X68445283Y-85078408D01*
X68313290Y-84759747D01*
X68246000Y-84421460D01*
X68246000Y-84076540D01*
X68309846Y-83755565D01*
X68313290Y-83738252D01*
X68367963Y-83606259D01*
X68445283Y-83419592D01*
X68636909Y-83132804D01*
X68880804Y-82888909D01*
X69167592Y-82697283D01*
X69354259Y-82619963D01*
X69486252Y-82565290D01*
X69599015Y-82542860D01*
X69824540Y-82498000D01*
X70169460Y-82498000D01*
X70394985Y-82542860D01*
X70394985Y-82542860D01*
G37*
G36*
X107394985Y-82542860D02*
G01*
X107507748Y-82565290D01*
X107639741Y-82619963D01*
X107826408Y-82697283D01*
X108113196Y-82888909D01*
X108357091Y-83132804D01*
X108548717Y-83419592D01*
X108626037Y-83606259D01*
X108680710Y-83738252D01*
X108684154Y-83755565D01*
X108748000Y-84076540D01*
X108748000Y-84421460D01*
X108680710Y-84759747D01*
X108548717Y-85078408D01*
X108357091Y-85365196D01*
X108113196Y-85609091D01*
X107826408Y-85800717D01*
X107639741Y-85878037D01*
X107507748Y-85932710D01*
X107394985Y-85955140D01*
X107169460Y-86000000D01*
X106824540Y-86000000D01*
X106599015Y-85955140D01*
X106486252Y-85932710D01*
X106354259Y-85878037D01*
X106167592Y-85800717D01*
X105880804Y-85609091D01*
X105636909Y-85365196D01*
X105445283Y-85078408D01*
X105313290Y-84759747D01*
X105246000Y-84421460D01*
X105246000Y-84076540D01*
X105309846Y-83755565D01*
X105313290Y-83738252D01*
X105367963Y-83606259D01*
X105445283Y-83419592D01*
X105636909Y-83132804D01*
X105880804Y-82888909D01*
X106167592Y-82697283D01*
X106354259Y-82619963D01*
X106486252Y-82565290D01*
X106599015Y-82542860D01*
X106824540Y-82498000D01*
X107169460Y-82498000D01*
X107394985Y-82542860D01*
X107394985Y-82542860D01*
G37*
G36*
X101610512Y-83352927D02*
G01*
X101759812Y-83382624D01*
X101923784Y-83450544D01*
X102071354Y-83549147D01*
X102196853Y-83674646D01*
X102295456Y-83822216D01*
X102363376Y-83986188D01*
X102398000Y-84160259D01*
X102398000Y-84337741D01*
X102363376Y-84511812D01*
X102295456Y-84675784D01*
X102196853Y-84823354D01*
X102071354Y-84948853D01*
X101923784Y-85047456D01*
X101759812Y-85115376D01*
X101610512Y-85145073D01*
X101585742Y-85150000D01*
X101408258Y-85150000D01*
X101383488Y-85145073D01*
X101234188Y-85115376D01*
X101070216Y-85047456D01*
X100922646Y-84948853D01*
X100797147Y-84823354D01*
X100698544Y-84675784D01*
X100630624Y-84511812D01*
X100596000Y-84337741D01*
X100596000Y-84160259D01*
X100630624Y-83986188D01*
X100698544Y-83822216D01*
X100797147Y-83674646D01*
X100922646Y-83549147D01*
X101070216Y-83450544D01*
X101234188Y-83382624D01*
X101383488Y-83352927D01*
X101408258Y-83348000D01*
X101585742Y-83348000D01*
X101610512Y-83352927D01*
X101610512Y-83352927D01*
G37*
G36*
X64610512Y-83352927D02*
G01*
X64759812Y-83382624D01*
X64923784Y-83450544D01*
X65071354Y-83549147D01*
X65196853Y-83674646D01*
X65295456Y-83822216D01*
X65363376Y-83986188D01*
X65398000Y-84160259D01*
X65398000Y-84337741D01*
X65363376Y-84511812D01*
X65295456Y-84675784D01*
X65196853Y-84823354D01*
X65071354Y-84948853D01*
X64923784Y-85047456D01*
X64759812Y-85115376D01*
X64610512Y-85145073D01*
X64585742Y-85150000D01*
X64408258Y-85150000D01*
X64383488Y-85145073D01*
X64234188Y-85115376D01*
X64070216Y-85047456D01*
X63922646Y-84948853D01*
X63797147Y-84823354D01*
X63698544Y-84675784D01*
X63630624Y-84511812D01*
X63596000Y-84337741D01*
X63596000Y-84160259D01*
X63630624Y-83986188D01*
X63698544Y-83822216D01*
X63797147Y-83674646D01*
X63922646Y-83549147D01*
X64070216Y-83450544D01*
X64234188Y-83382624D01*
X64383488Y-83352927D01*
X64408258Y-83348000D01*
X64585742Y-83348000D01*
X64610512Y-83352927D01*
X64610512Y-83352927D01*
G37*
G36*
X75610512Y-83352927D02*
G01*
X75759812Y-83382624D01*
X75923784Y-83450544D01*
X76071354Y-83549147D01*
X76196853Y-83674646D01*
X76295456Y-83822216D01*
X76363376Y-83986188D01*
X76398000Y-84160259D01*
X76398000Y-84337741D01*
X76363376Y-84511812D01*
X76295456Y-84675784D01*
X76196853Y-84823354D01*
X76071354Y-84948853D01*
X75923784Y-85047456D01*
X75759812Y-85115376D01*
X75610512Y-85145073D01*
X75585742Y-85150000D01*
X75408258Y-85150000D01*
X75383488Y-85145073D01*
X75234188Y-85115376D01*
X75070216Y-85047456D01*
X74922646Y-84948853D01*
X74797147Y-84823354D01*
X74698544Y-84675784D01*
X74630624Y-84511812D01*
X74596000Y-84337741D01*
X74596000Y-84160259D01*
X74630624Y-83986188D01*
X74698544Y-83822216D01*
X74797147Y-83674646D01*
X74922646Y-83549147D01*
X75070216Y-83450544D01*
X75234188Y-83382624D01*
X75383488Y-83352927D01*
X75408258Y-83348000D01*
X75585742Y-83348000D01*
X75610512Y-83352927D01*
X75610512Y-83352927D01*
G37*
G36*
X112610512Y-83352927D02*
G01*
X112759812Y-83382624D01*
X112923784Y-83450544D01*
X113071354Y-83549147D01*
X113196853Y-83674646D01*
X113295456Y-83822216D01*
X113363376Y-83986188D01*
X113398000Y-84160259D01*
X113398000Y-84337741D01*
X113363376Y-84511812D01*
X113295456Y-84675784D01*
X113196853Y-84823354D01*
X113071354Y-84948853D01*
X112923784Y-85047456D01*
X112759812Y-85115376D01*
X112610512Y-85145073D01*
X112585742Y-85150000D01*
X112408258Y-85150000D01*
X112383488Y-85145073D01*
X112234188Y-85115376D01*
X112070216Y-85047456D01*
X111922646Y-84948853D01*
X111797147Y-84823354D01*
X111698544Y-84675784D01*
X111630624Y-84511812D01*
X111596000Y-84337741D01*
X111596000Y-84160259D01*
X111630624Y-83986188D01*
X111698544Y-83822216D01*
X111797147Y-83674646D01*
X111922646Y-83549147D01*
X112070216Y-83450544D01*
X112234188Y-83382624D01*
X112383488Y-83352927D01*
X112408258Y-83348000D01*
X112585742Y-83348000D01*
X112610512Y-83352927D01*
X112610512Y-83352927D01*
G37*
G36*
X130803564Y-82438389D02*
G01*
X130994833Y-82517615D01*
X130994835Y-82517616D01*
X131166973Y-82632635D01*
X131313365Y-82779027D01*
X131425491Y-82946835D01*
X131428385Y-82951167D01*
X131507611Y-83142436D01*
X131548000Y-83345484D01*
X131548000Y-83552516D01*
X131507611Y-83755564D01*
X131480002Y-83822218D01*
X131428384Y-83946835D01*
X131313365Y-84118973D01*
X131166973Y-84265365D01*
X130994835Y-84380384D01*
X130994834Y-84380385D01*
X130994833Y-84380385D01*
X130803564Y-84459611D01*
X130600516Y-84500000D01*
X130393484Y-84500000D01*
X130190436Y-84459611D01*
X129999167Y-84380385D01*
X129999166Y-84380385D01*
X129999165Y-84380384D01*
X129827027Y-84265365D01*
X129680635Y-84118973D01*
X129565616Y-83946835D01*
X129513998Y-83822218D01*
X129486389Y-83755564D01*
X129446000Y-83552516D01*
X129446000Y-83345484D01*
X129486389Y-83142436D01*
X129565615Y-82951167D01*
X129568510Y-82946835D01*
X129680635Y-82779027D01*
X129827027Y-82632635D01*
X129999165Y-82517616D01*
X129999167Y-82517615D01*
X130190436Y-82438389D01*
X130393484Y-82398000D01*
X130600516Y-82398000D01*
X130803564Y-82438389D01*
X130803564Y-82438389D01*
G37*
G36*
X120803564Y-82438389D02*
G01*
X120994833Y-82517615D01*
X120994835Y-82517616D01*
X121166973Y-82632635D01*
X121313365Y-82779027D01*
X121425491Y-82946835D01*
X121428385Y-82951167D01*
X121507611Y-83142436D01*
X121548000Y-83345484D01*
X121548000Y-83552516D01*
X121507611Y-83755564D01*
X121480002Y-83822218D01*
X121428384Y-83946835D01*
X121313365Y-84118973D01*
X121166973Y-84265365D01*
X120994835Y-84380384D01*
X120994834Y-84380385D01*
X120994833Y-84380385D01*
X120803564Y-84459611D01*
X120600516Y-84500000D01*
X120393484Y-84500000D01*
X120190436Y-84459611D01*
X119999167Y-84380385D01*
X119999166Y-84380385D01*
X119999165Y-84380384D01*
X119827027Y-84265365D01*
X119680635Y-84118973D01*
X119565616Y-83946835D01*
X119513998Y-83822218D01*
X119486389Y-83755564D01*
X119446000Y-83552516D01*
X119446000Y-83345484D01*
X119486389Y-83142436D01*
X119565615Y-82951167D01*
X119568510Y-82946835D01*
X119680635Y-82779027D01*
X119827027Y-82632635D01*
X119999165Y-82517616D01*
X119999167Y-82517615D01*
X120190436Y-82438389D01*
X120393484Y-82398000D01*
X120600516Y-82398000D01*
X120803564Y-82438389D01*
X120803564Y-82438389D01*
G37*
G36*
X56803564Y-81438389D02*
G01*
X56994833Y-81517615D01*
X56994835Y-81517616D01*
X57166973Y-81632635D01*
X57313365Y-81779027D01*
X57358672Y-81846833D01*
X57428385Y-81951167D01*
X57507611Y-82142436D01*
X57548000Y-82345484D01*
X57548000Y-82552516D01*
X57507611Y-82755564D01*
X57497892Y-82779027D01*
X57428384Y-82946835D01*
X57313365Y-83118973D01*
X57166973Y-83265365D01*
X56994835Y-83380384D01*
X56994834Y-83380385D01*
X56994833Y-83380385D01*
X56803564Y-83459611D01*
X56600516Y-83500000D01*
X56393484Y-83500000D01*
X56190436Y-83459611D01*
X55999167Y-83380385D01*
X55999166Y-83380385D01*
X55999165Y-83380384D01*
X55827027Y-83265365D01*
X55680635Y-83118973D01*
X55565616Y-82946835D01*
X55496108Y-82779027D01*
X55486389Y-82755564D01*
X55446000Y-82552516D01*
X55446000Y-82345484D01*
X55486389Y-82142436D01*
X55565615Y-81951167D01*
X55635329Y-81846833D01*
X55680635Y-81779027D01*
X55827027Y-81632635D01*
X55999165Y-81517616D01*
X55999167Y-81517615D01*
X56190436Y-81438389D01*
X56393484Y-81398000D01*
X56600516Y-81398000D01*
X56803564Y-81438389D01*
X56803564Y-81438389D01*
G37*
G36*
X46803564Y-81438389D02*
G01*
X46994833Y-81517615D01*
X46994835Y-81517616D01*
X47166973Y-81632635D01*
X47313365Y-81779027D01*
X47358672Y-81846833D01*
X47428385Y-81951167D01*
X47507611Y-82142436D01*
X47548000Y-82345484D01*
X47548000Y-82552516D01*
X47507611Y-82755564D01*
X47497892Y-82779027D01*
X47428384Y-82946835D01*
X47313365Y-83118973D01*
X47166973Y-83265365D01*
X46994835Y-83380384D01*
X46994834Y-83380385D01*
X46994833Y-83380385D01*
X46803564Y-83459611D01*
X46600516Y-83500000D01*
X46393484Y-83500000D01*
X46190436Y-83459611D01*
X45999167Y-83380385D01*
X45999166Y-83380385D01*
X45999165Y-83380384D01*
X45827027Y-83265365D01*
X45680635Y-83118973D01*
X45565616Y-82946835D01*
X45496108Y-82779027D01*
X45486389Y-82755564D01*
X45446000Y-82552516D01*
X45446000Y-82345484D01*
X45486389Y-82142436D01*
X45565615Y-81951167D01*
X45635329Y-81846833D01*
X45680635Y-81779027D01*
X45827027Y-81632635D01*
X45999165Y-81517616D01*
X45999167Y-81517615D01*
X46190436Y-81438389D01*
X46393484Y-81398000D01*
X46600516Y-81398000D01*
X46803564Y-81438389D01*
X46803564Y-81438389D01*
G37*
G36*
X125803564Y-80338389D02*
G01*
X125994833Y-80417615D01*
X125994835Y-80417616D01*
X126166973Y-80532635D01*
X126313365Y-80679027D01*
X126425491Y-80846835D01*
X126428385Y-80851167D01*
X126507611Y-81042436D01*
X126548000Y-81245484D01*
X126548000Y-81452516D01*
X126507611Y-81655564D01*
X126456471Y-81779027D01*
X126428384Y-81846835D01*
X126313365Y-82018973D01*
X126166973Y-82165365D01*
X125994835Y-82280384D01*
X125994834Y-82280385D01*
X125994833Y-82280385D01*
X125803564Y-82359611D01*
X125600516Y-82400000D01*
X125393484Y-82400000D01*
X125190436Y-82359611D01*
X124999167Y-82280385D01*
X124999166Y-82280385D01*
X124999165Y-82280384D01*
X124827027Y-82165365D01*
X124680635Y-82018973D01*
X124565616Y-81846835D01*
X124537529Y-81779027D01*
X124486389Y-81655564D01*
X124446000Y-81452516D01*
X124446000Y-81245484D01*
X124486389Y-81042436D01*
X124565615Y-80851167D01*
X124568510Y-80846835D01*
X124680635Y-80679027D01*
X124827027Y-80532635D01*
X124999165Y-80417616D01*
X124999167Y-80417615D01*
X125190436Y-80338389D01*
X125393484Y-80298000D01*
X125600516Y-80298000D01*
X125803564Y-80338389D01*
X125803564Y-80338389D01*
G37*
G36*
X112303564Y-79438389D02*
G01*
X112480823Y-79511812D01*
X112494835Y-79517616D01*
X112666973Y-79632635D01*
X112813365Y-79779027D01*
X112926839Y-79948852D01*
X112928385Y-79951167D01*
X113007611Y-80142436D01*
X113048000Y-80345484D01*
X113048000Y-80552516D01*
X113007611Y-80755564D01*
X112968011Y-80851167D01*
X112928384Y-80946835D01*
X112813365Y-81118973D01*
X112666973Y-81265365D01*
X112494835Y-81380384D01*
X112494834Y-81380385D01*
X112494833Y-81380385D01*
X112303564Y-81459611D01*
X112100516Y-81500000D01*
X111893484Y-81500000D01*
X111690436Y-81459611D01*
X111499167Y-81380385D01*
X111499166Y-81380385D01*
X111499165Y-81380384D01*
X111327027Y-81265365D01*
X111180635Y-81118973D01*
X111065616Y-80946835D01*
X111025989Y-80851167D01*
X110986389Y-80755564D01*
X110946000Y-80552516D01*
X110946000Y-80345484D01*
X110986389Y-80142436D01*
X111065615Y-79951167D01*
X111067162Y-79948852D01*
X111180635Y-79779027D01*
X111327027Y-79632635D01*
X111499165Y-79517616D01*
X111513177Y-79511812D01*
X111690436Y-79438389D01*
X111893484Y-79398000D01*
X112100516Y-79398000D01*
X112303564Y-79438389D01*
X112303564Y-79438389D01*
G37*
G36*
X102303564Y-79438389D02*
G01*
X102480823Y-79511812D01*
X102494835Y-79517616D01*
X102666973Y-79632635D01*
X102813365Y-79779027D01*
X102926839Y-79948852D01*
X102928385Y-79951167D01*
X103007611Y-80142436D01*
X103048000Y-80345484D01*
X103048000Y-80552516D01*
X103007611Y-80755564D01*
X102968011Y-80851167D01*
X102928384Y-80946835D01*
X102813365Y-81118973D01*
X102666973Y-81265365D01*
X102494835Y-81380384D01*
X102494834Y-81380385D01*
X102494833Y-81380385D01*
X102303564Y-81459611D01*
X102100516Y-81500000D01*
X101893484Y-81500000D01*
X101690436Y-81459611D01*
X101499167Y-81380385D01*
X101499166Y-81380385D01*
X101499165Y-81380384D01*
X101327027Y-81265365D01*
X101180635Y-81118973D01*
X101065616Y-80946835D01*
X101025989Y-80851167D01*
X100986389Y-80755564D01*
X100946000Y-80552516D01*
X100946000Y-80345484D01*
X100986389Y-80142436D01*
X101065615Y-79951167D01*
X101067162Y-79948852D01*
X101180635Y-79779027D01*
X101327027Y-79632635D01*
X101499165Y-79517616D01*
X101513177Y-79511812D01*
X101690436Y-79438389D01*
X101893484Y-79398000D01*
X102100516Y-79398000D01*
X102303564Y-79438389D01*
X102303564Y-79438389D01*
G37*
G36*
X75303564Y-79438389D02*
G01*
X75480823Y-79511812D01*
X75494835Y-79517616D01*
X75666973Y-79632635D01*
X75813365Y-79779027D01*
X75926839Y-79948852D01*
X75928385Y-79951167D01*
X76007611Y-80142436D01*
X76048000Y-80345484D01*
X76048000Y-80552516D01*
X76007611Y-80755564D01*
X75968011Y-80851167D01*
X75928384Y-80946835D01*
X75813365Y-81118973D01*
X75666973Y-81265365D01*
X75494835Y-81380384D01*
X75494834Y-81380385D01*
X75494833Y-81380385D01*
X75303564Y-81459611D01*
X75100516Y-81500000D01*
X74893484Y-81500000D01*
X74690436Y-81459611D01*
X74499167Y-81380385D01*
X74499166Y-81380385D01*
X74499165Y-81380384D01*
X74327027Y-81265365D01*
X74180635Y-81118973D01*
X74065616Y-80946835D01*
X74025989Y-80851167D01*
X73986389Y-80755564D01*
X73946000Y-80552516D01*
X73946000Y-80345484D01*
X73986389Y-80142436D01*
X74065615Y-79951167D01*
X74067162Y-79948852D01*
X74180635Y-79779027D01*
X74327027Y-79632635D01*
X74499165Y-79517616D01*
X74513177Y-79511812D01*
X74690436Y-79438389D01*
X74893484Y-79398000D01*
X75100516Y-79398000D01*
X75303564Y-79438389D01*
X75303564Y-79438389D01*
G37*
G36*
X65303564Y-79438389D02*
G01*
X65480823Y-79511812D01*
X65494835Y-79517616D01*
X65666973Y-79632635D01*
X65813365Y-79779027D01*
X65926839Y-79948852D01*
X65928385Y-79951167D01*
X66007611Y-80142436D01*
X66048000Y-80345484D01*
X66048000Y-80552516D01*
X66007611Y-80755564D01*
X65968011Y-80851167D01*
X65928384Y-80946835D01*
X65813365Y-81118973D01*
X65666973Y-81265365D01*
X65494835Y-81380384D01*
X65494834Y-81380385D01*
X65494833Y-81380385D01*
X65303564Y-81459611D01*
X65100516Y-81500000D01*
X64893484Y-81500000D01*
X64690436Y-81459611D01*
X64499167Y-81380385D01*
X64499166Y-81380385D01*
X64499165Y-81380384D01*
X64327027Y-81265365D01*
X64180635Y-81118973D01*
X64065616Y-80946835D01*
X64025989Y-80851167D01*
X63986389Y-80755564D01*
X63946000Y-80552516D01*
X63946000Y-80345484D01*
X63986389Y-80142436D01*
X64065615Y-79951167D01*
X64067162Y-79948852D01*
X64180635Y-79779027D01*
X64327027Y-79632635D01*
X64499165Y-79517616D01*
X64513177Y-79511812D01*
X64690436Y-79438389D01*
X64893484Y-79398000D01*
X65100516Y-79398000D01*
X65303564Y-79438389D01*
X65303564Y-79438389D01*
G37*
G36*
X51803564Y-79338389D02*
G01*
X51994833Y-79417615D01*
X51994835Y-79417616D01*
X52166973Y-79532635D01*
X52313365Y-79679027D01*
X52409801Y-79823353D01*
X52428385Y-79851167D01*
X52507611Y-80042436D01*
X52548000Y-80245484D01*
X52548000Y-80452516D01*
X52507611Y-80655564D01*
X52466189Y-80755565D01*
X52428384Y-80846835D01*
X52313365Y-81018973D01*
X52166973Y-81165365D01*
X51994835Y-81280384D01*
X51994834Y-81280385D01*
X51994833Y-81280385D01*
X51803564Y-81359611D01*
X51600516Y-81400000D01*
X51393484Y-81400000D01*
X51190436Y-81359611D01*
X50999167Y-81280385D01*
X50999166Y-81280385D01*
X50999165Y-81280384D01*
X50827027Y-81165365D01*
X50680635Y-81018973D01*
X50565616Y-80846835D01*
X50527811Y-80755565D01*
X50486389Y-80655564D01*
X50446000Y-80452516D01*
X50446000Y-80245484D01*
X50486389Y-80042436D01*
X50565615Y-79851167D01*
X50584200Y-79823353D01*
X50680635Y-79679027D01*
X50827027Y-79532635D01*
X50999165Y-79417616D01*
X50999167Y-79417615D01*
X51190436Y-79338389D01*
X51393484Y-79298000D01*
X51600516Y-79298000D01*
X51803564Y-79338389D01*
X51803564Y-79338389D01*
G37*
G36*
X88894985Y-77542860D02*
G01*
X89007748Y-77565290D01*
X89139741Y-77619963D01*
X89326408Y-77697283D01*
X89613196Y-77888909D01*
X89857091Y-78132804D01*
X90048717Y-78419592D01*
X90180710Y-78738253D01*
X90248000Y-79076540D01*
X90248000Y-79421460D01*
X90180710Y-79759747D01*
X90048717Y-80078408D01*
X89857091Y-80365196D01*
X89613196Y-80609091D01*
X89326408Y-80800717D01*
X89204615Y-80851165D01*
X89007748Y-80932710D01*
X88894985Y-80955140D01*
X88669460Y-81000000D01*
X88324540Y-81000000D01*
X88099015Y-80955140D01*
X87986252Y-80932710D01*
X87789385Y-80851165D01*
X87667592Y-80800717D01*
X87380804Y-80609091D01*
X87136909Y-80365196D01*
X86945283Y-80078408D01*
X86813290Y-79759747D01*
X86746000Y-79421460D01*
X86746000Y-79076540D01*
X86813290Y-78738253D01*
X86945283Y-78419592D01*
X87136909Y-78132804D01*
X87380804Y-77888909D01*
X87667592Y-77697283D01*
X87854259Y-77619963D01*
X87986252Y-77565290D01*
X88099015Y-77542860D01*
X88324540Y-77498000D01*
X88669460Y-77498000D01*
X88894985Y-77542860D01*
X88894985Y-77542860D01*
G37*
G36*
X83110512Y-78352927D02*
G01*
X83259812Y-78382624D01*
X83423784Y-78450544D01*
X83571354Y-78549147D01*
X83696853Y-78674646D01*
X83795456Y-78822216D01*
X83863376Y-78986188D01*
X83898000Y-79160259D01*
X83898000Y-79337741D01*
X83863376Y-79511812D01*
X83795456Y-79675784D01*
X83696853Y-79823354D01*
X83571354Y-79948853D01*
X83423784Y-80047456D01*
X83259812Y-80115376D01*
X83110512Y-80145073D01*
X83085742Y-80150000D01*
X82908258Y-80150000D01*
X82883488Y-80145073D01*
X82734188Y-80115376D01*
X82570216Y-80047456D01*
X82422646Y-79948853D01*
X82297147Y-79823354D01*
X82198544Y-79675784D01*
X82130624Y-79511812D01*
X82096000Y-79337741D01*
X82096000Y-79160259D01*
X82130624Y-78986188D01*
X82198544Y-78822216D01*
X82297147Y-78674646D01*
X82422646Y-78549147D01*
X82570216Y-78450544D01*
X82734188Y-78382624D01*
X82883488Y-78352927D01*
X82908258Y-78348000D01*
X83085742Y-78348000D01*
X83110512Y-78352927D01*
X83110512Y-78352927D01*
G37*
G36*
X94110512Y-78352927D02*
G01*
X94259812Y-78382624D01*
X94423784Y-78450544D01*
X94571354Y-78549147D01*
X94696853Y-78674646D01*
X94795456Y-78822216D01*
X94863376Y-78986188D01*
X94898000Y-79160259D01*
X94898000Y-79337741D01*
X94863376Y-79511812D01*
X94795456Y-79675784D01*
X94696853Y-79823354D01*
X94571354Y-79948853D01*
X94423784Y-80047456D01*
X94259812Y-80115376D01*
X94110512Y-80145073D01*
X94085742Y-80150000D01*
X93908258Y-80150000D01*
X93883488Y-80145073D01*
X93734188Y-80115376D01*
X93570216Y-80047456D01*
X93422646Y-79948853D01*
X93297147Y-79823354D01*
X93198544Y-79675784D01*
X93130624Y-79511812D01*
X93096000Y-79337741D01*
X93096000Y-79160259D01*
X93130624Y-78986188D01*
X93198544Y-78822216D01*
X93297147Y-78674646D01*
X93422646Y-78549147D01*
X93570216Y-78450544D01*
X93734188Y-78382624D01*
X93883488Y-78352927D01*
X93908258Y-78348000D01*
X94085742Y-78348000D01*
X94110512Y-78352927D01*
X94110512Y-78352927D01*
G37*
G36*
X107303564Y-77338389D02*
G01*
X107494833Y-77417615D01*
X107494835Y-77417616D01*
X107615138Y-77498000D01*
X107666973Y-77532635D01*
X107813365Y-77679027D01*
X107928385Y-77851167D01*
X108007611Y-78042436D01*
X108048000Y-78245484D01*
X108048000Y-78452516D01*
X108007611Y-78655564D01*
X107938581Y-78822218D01*
X107928384Y-78846835D01*
X107813365Y-79018973D01*
X107666973Y-79165365D01*
X107494835Y-79280384D01*
X107494834Y-79280385D01*
X107494833Y-79280385D01*
X107303564Y-79359611D01*
X107100516Y-79400000D01*
X106893484Y-79400000D01*
X106690436Y-79359611D01*
X106499167Y-79280385D01*
X106499166Y-79280385D01*
X106499165Y-79280384D01*
X106327027Y-79165365D01*
X106180635Y-79018973D01*
X106065616Y-78846835D01*
X106055419Y-78822218D01*
X105986389Y-78655564D01*
X105946000Y-78452516D01*
X105946000Y-78245484D01*
X105986389Y-78042436D01*
X106065615Y-77851167D01*
X106180635Y-77679027D01*
X106327027Y-77532635D01*
X106378862Y-77498000D01*
X106499165Y-77417616D01*
X106499167Y-77417615D01*
X106690436Y-77338389D01*
X106893484Y-77298000D01*
X107100516Y-77298000D01*
X107303564Y-77338389D01*
X107303564Y-77338389D01*
G37*
G36*
X70303564Y-77338389D02*
G01*
X70494833Y-77417615D01*
X70494835Y-77417616D01*
X70615138Y-77498000D01*
X70666973Y-77532635D01*
X70813365Y-77679027D01*
X70928385Y-77851167D01*
X71007611Y-78042436D01*
X71048000Y-78245484D01*
X71048000Y-78452516D01*
X71007611Y-78655564D01*
X70938581Y-78822218D01*
X70928384Y-78846835D01*
X70813365Y-79018973D01*
X70666973Y-79165365D01*
X70494835Y-79280384D01*
X70494834Y-79280385D01*
X70494833Y-79280385D01*
X70303564Y-79359611D01*
X70100516Y-79400000D01*
X69893484Y-79400000D01*
X69690436Y-79359611D01*
X69499167Y-79280385D01*
X69499166Y-79280385D01*
X69499165Y-79280384D01*
X69327027Y-79165365D01*
X69180635Y-79018973D01*
X69065616Y-78846835D01*
X69055419Y-78822218D01*
X68986389Y-78655564D01*
X68946000Y-78452516D01*
X68946000Y-78245484D01*
X68986389Y-78042436D01*
X69065615Y-77851167D01*
X69180635Y-77679027D01*
X69327027Y-77532635D01*
X69378862Y-77498000D01*
X69499165Y-77417616D01*
X69499167Y-77417615D01*
X69690436Y-77338389D01*
X69893484Y-77298000D01*
X70100516Y-77298000D01*
X70303564Y-77338389D01*
X70303564Y-77338389D01*
G37*
G36*
X93803564Y-74438389D02*
G01*
X93994833Y-74517615D01*
X93994835Y-74517616D01*
X94166973Y-74632635D01*
X94313365Y-74779027D01*
X94428385Y-74951167D01*
X94507611Y-75142436D01*
X94548000Y-75345484D01*
X94548000Y-75552516D01*
X94507611Y-75755564D01*
X94428385Y-75946833D01*
X94428384Y-75946835D01*
X94313365Y-76118973D01*
X94166973Y-76265365D01*
X93994835Y-76380384D01*
X93994834Y-76380385D01*
X93994833Y-76380385D01*
X93803564Y-76459611D01*
X93600516Y-76500000D01*
X93393484Y-76500000D01*
X93190436Y-76459611D01*
X92999167Y-76380385D01*
X92999166Y-76380385D01*
X92999165Y-76380384D01*
X92827027Y-76265365D01*
X92680635Y-76118973D01*
X92565616Y-75946835D01*
X92565615Y-75946833D01*
X92486389Y-75755564D01*
X92446000Y-75552516D01*
X92446000Y-75345484D01*
X92486389Y-75142436D01*
X92565615Y-74951167D01*
X92680635Y-74779027D01*
X92827027Y-74632635D01*
X92999165Y-74517616D01*
X92999167Y-74517615D01*
X93190436Y-74438389D01*
X93393484Y-74398000D01*
X93600516Y-74398000D01*
X93803564Y-74438389D01*
X93803564Y-74438389D01*
G37*
G36*
X83803564Y-74438389D02*
G01*
X83994833Y-74517615D01*
X83994835Y-74517616D01*
X84166973Y-74632635D01*
X84313365Y-74779027D01*
X84428385Y-74951167D01*
X84507611Y-75142436D01*
X84548000Y-75345484D01*
X84548000Y-75552516D01*
X84507611Y-75755564D01*
X84428385Y-75946833D01*
X84428384Y-75946835D01*
X84313365Y-76118973D01*
X84166973Y-76265365D01*
X83994835Y-76380384D01*
X83994834Y-76380385D01*
X83994833Y-76380385D01*
X83803564Y-76459611D01*
X83600516Y-76500000D01*
X83393484Y-76500000D01*
X83190436Y-76459611D01*
X82999167Y-76380385D01*
X82999166Y-76380385D01*
X82999165Y-76380384D01*
X82827027Y-76265365D01*
X82680635Y-76118973D01*
X82565616Y-75946835D01*
X82565615Y-75946833D01*
X82486389Y-75755564D01*
X82446000Y-75552516D01*
X82446000Y-75345484D01*
X82486389Y-75142436D01*
X82565615Y-74951167D01*
X82680635Y-74779027D01*
X82827027Y-74632635D01*
X82999165Y-74517616D01*
X82999167Y-74517615D01*
X83190436Y-74438389D01*
X83393484Y-74398000D01*
X83600516Y-74398000D01*
X83803564Y-74438389D01*
X83803564Y-74438389D01*
G37*
G36*
X88803564Y-72338389D02*
G01*
X88994833Y-72417615D01*
X88994835Y-72417616D01*
X89166973Y-72532635D01*
X89313365Y-72679027D01*
X89428385Y-72851167D01*
X89507611Y-73042436D01*
X89548000Y-73245484D01*
X89548000Y-73452516D01*
X89507611Y-73655564D01*
X89428385Y-73846833D01*
X89428384Y-73846835D01*
X89313365Y-74018973D01*
X89166973Y-74165365D01*
X88994835Y-74280384D01*
X88994834Y-74280385D01*
X88994833Y-74280385D01*
X88803564Y-74359611D01*
X88600516Y-74400000D01*
X88393484Y-74400000D01*
X88190436Y-74359611D01*
X87999167Y-74280385D01*
X87999166Y-74280385D01*
X87999165Y-74280384D01*
X87827027Y-74165365D01*
X87680635Y-74018973D01*
X87565616Y-73846835D01*
X87565615Y-73846833D01*
X87486389Y-73655564D01*
X87446000Y-73452516D01*
X87446000Y-73245484D01*
X87486389Y-73042436D01*
X87565615Y-72851167D01*
X87680635Y-72679027D01*
X87827027Y-72532635D01*
X87999165Y-72417616D01*
X87999167Y-72417615D01*
X88190436Y-72338389D01*
X88393484Y-72298000D01*
X88600516Y-72298000D01*
X88803564Y-72338389D01*
X88803564Y-72338389D01*
G37*
G36*
X125894985Y-68042860D02*
G01*
X126007748Y-68065290D01*
X126113490Y-68109090D01*
X126326408Y-68197283D01*
X126613196Y-68388909D01*
X126857091Y-68632804D01*
X127048717Y-68919592D01*
X127180710Y-69238253D01*
X127248000Y-69576540D01*
X127248000Y-69921460D01*
X127180710Y-70259747D01*
X127048717Y-70578408D01*
X126857091Y-70865196D01*
X126613196Y-71109091D01*
X126326408Y-71300717D01*
X126139741Y-71378037D01*
X126007748Y-71432710D01*
X125894985Y-71455140D01*
X125669460Y-71500000D01*
X125324540Y-71500000D01*
X125099015Y-71455140D01*
X124986252Y-71432710D01*
X124854259Y-71378037D01*
X124667592Y-71300717D01*
X124380804Y-71109091D01*
X124136909Y-70865196D01*
X123945283Y-70578408D01*
X123813290Y-70259747D01*
X123746000Y-69921460D01*
X123746000Y-69576540D01*
X123813290Y-69238253D01*
X123945283Y-68919592D01*
X124136909Y-68632804D01*
X124380804Y-68388909D01*
X124667592Y-68197283D01*
X124880510Y-68109090D01*
X124986252Y-68065290D01*
X125099015Y-68042860D01*
X125324540Y-67998000D01*
X125669460Y-67998000D01*
X125894985Y-68042860D01*
X125894985Y-68042860D01*
G37*
G36*
X52598000Y-71000000D02*
G01*
X50896000Y-71000000D01*
X50896000Y-69298000D01*
X52598000Y-69298000D01*
X52598000Y-71000000D01*
X52598000Y-71000000D01*
G37*
G36*
X60848000Y-71000000D02*
G01*
X59146000Y-71000000D01*
X59146000Y-69298000D01*
X60848000Y-69298000D01*
X60848000Y-71000000D01*
X60848000Y-71000000D01*
G37*
G36*
X55848000Y-71000000D02*
G01*
X54146000Y-71000000D01*
X54146000Y-69298000D01*
X55848000Y-69298000D01*
X55848000Y-71000000D01*
X55848000Y-71000000D01*
G37*
G36*
X58348000Y-71000000D02*
G01*
X56646000Y-71000000D01*
X56646000Y-69298000D01*
X58348000Y-69298000D01*
X58348000Y-71000000D01*
X58348000Y-71000000D01*
G37*
G36*
X47598000Y-71000000D02*
G01*
X45896000Y-71000000D01*
X45896000Y-69298000D01*
X47598000Y-69298000D01*
X47598000Y-71000000D01*
X47598000Y-71000000D01*
G37*
G36*
X50098000Y-71000000D02*
G01*
X48396000Y-71000000D01*
X48396000Y-69298000D01*
X50098000Y-69298000D01*
X50098000Y-71000000D01*
X50098000Y-71000000D01*
G37*
G36*
X131110512Y-68852927D02*
G01*
X131259812Y-68882624D01*
X131423784Y-68950544D01*
X131571354Y-69049147D01*
X131696853Y-69174646D01*
X131795456Y-69322216D01*
X131863376Y-69486188D01*
X131898000Y-69660259D01*
X131898000Y-69837741D01*
X131863376Y-70011812D01*
X131795456Y-70175784D01*
X131696853Y-70323354D01*
X131571354Y-70448853D01*
X131423784Y-70547456D01*
X131259812Y-70615376D01*
X131110512Y-70645073D01*
X131085742Y-70650000D01*
X130908258Y-70650000D01*
X130883488Y-70645073D01*
X130734188Y-70615376D01*
X130570216Y-70547456D01*
X130422646Y-70448853D01*
X130297147Y-70323354D01*
X130198544Y-70175784D01*
X130130624Y-70011812D01*
X130096000Y-69837741D01*
X130096000Y-69660259D01*
X130130624Y-69486188D01*
X130198544Y-69322216D01*
X130297147Y-69174646D01*
X130422646Y-69049147D01*
X130570216Y-68950544D01*
X130734188Y-68882624D01*
X130883488Y-68852927D01*
X130908258Y-68848000D01*
X131085742Y-68848000D01*
X131110512Y-68852927D01*
X131110512Y-68852927D01*
G37*
G36*
X120110512Y-68852927D02*
G01*
X120259812Y-68882624D01*
X120423784Y-68950544D01*
X120571354Y-69049147D01*
X120696853Y-69174646D01*
X120795456Y-69322216D01*
X120863376Y-69486188D01*
X120898000Y-69660259D01*
X120898000Y-69837741D01*
X120863376Y-70011812D01*
X120795456Y-70175784D01*
X120696853Y-70323354D01*
X120571354Y-70448853D01*
X120423784Y-70547456D01*
X120259812Y-70615376D01*
X120110512Y-70645073D01*
X120085742Y-70650000D01*
X119908258Y-70650000D01*
X119883488Y-70645073D01*
X119734188Y-70615376D01*
X119570216Y-70547456D01*
X119422646Y-70448853D01*
X119297147Y-70323354D01*
X119198544Y-70175784D01*
X119130624Y-70011812D01*
X119096000Y-69837741D01*
X119096000Y-69660259D01*
X119130624Y-69486188D01*
X119198544Y-69322216D01*
X119297147Y-69174646D01*
X119422646Y-69049147D01*
X119570216Y-68950544D01*
X119734188Y-68882624D01*
X119883488Y-68852927D01*
X119908258Y-68848000D01*
X120085742Y-68848000D01*
X120110512Y-68852927D01*
X120110512Y-68852927D01*
G37*
G36*
X70394985Y-65042860D02*
G01*
X70507748Y-65065290D01*
X70639741Y-65119963D01*
X70826408Y-65197283D01*
X71113196Y-65388909D01*
X71357091Y-65632804D01*
X71548717Y-65919592D01*
X71626037Y-66106259D01*
X71680710Y-66238252D01*
X71684154Y-66255565D01*
X71748000Y-66576540D01*
X71748000Y-66921460D01*
X71680710Y-67259747D01*
X71548717Y-67578408D01*
X71357091Y-67865196D01*
X71113196Y-68109091D01*
X70826408Y-68300717D01*
X70639741Y-68378037D01*
X70507748Y-68432710D01*
X70394985Y-68455140D01*
X70169460Y-68500000D01*
X69824540Y-68500000D01*
X69599015Y-68455140D01*
X69486252Y-68432710D01*
X69354259Y-68378037D01*
X69167592Y-68300717D01*
X68880804Y-68109091D01*
X68636909Y-67865196D01*
X68445283Y-67578408D01*
X68313290Y-67259747D01*
X68246000Y-66921460D01*
X68246000Y-66576540D01*
X68309846Y-66255565D01*
X68313290Y-66238252D01*
X68367963Y-66106259D01*
X68445283Y-65919592D01*
X68636909Y-65632804D01*
X68880804Y-65388909D01*
X69167592Y-65197283D01*
X69354259Y-65119963D01*
X69486252Y-65065290D01*
X69599015Y-65042860D01*
X69824540Y-64998000D01*
X70169460Y-64998000D01*
X70394985Y-65042860D01*
X70394985Y-65042860D01*
G37*
G36*
X107394985Y-65042860D02*
G01*
X107507748Y-65065290D01*
X107639741Y-65119963D01*
X107826408Y-65197283D01*
X108113196Y-65388909D01*
X108357091Y-65632804D01*
X108548717Y-65919592D01*
X108626037Y-66106259D01*
X108680710Y-66238252D01*
X108684154Y-66255565D01*
X108748000Y-66576540D01*
X108748000Y-66921460D01*
X108680710Y-67259747D01*
X108548717Y-67578408D01*
X108357091Y-67865196D01*
X108113196Y-68109091D01*
X107826408Y-68300717D01*
X107639741Y-68378037D01*
X107507748Y-68432710D01*
X107394985Y-68455140D01*
X107169460Y-68500000D01*
X106824540Y-68500000D01*
X106599015Y-68455140D01*
X106486252Y-68432710D01*
X106354259Y-68378037D01*
X106167592Y-68300717D01*
X105880804Y-68109091D01*
X105636909Y-67865196D01*
X105445283Y-67578408D01*
X105313290Y-67259747D01*
X105246000Y-66921460D01*
X105246000Y-66576540D01*
X105309846Y-66255565D01*
X105313290Y-66238252D01*
X105367963Y-66106259D01*
X105445283Y-65919592D01*
X105636909Y-65632804D01*
X105880804Y-65388909D01*
X106167592Y-65197283D01*
X106354259Y-65119963D01*
X106486252Y-65065290D01*
X106599015Y-65042860D01*
X106824540Y-64998000D01*
X107169460Y-64998000D01*
X107394985Y-65042860D01*
X107394985Y-65042860D01*
G37*
G36*
X60648000Y-68475000D02*
G01*
X59346000Y-68475000D01*
X59346000Y-67173000D01*
X60648000Y-67173000D01*
X60648000Y-68475000D01*
X60648000Y-68475000D01*
G37*
G36*
X52398000Y-68475000D02*
G01*
X51096000Y-68475000D01*
X51096000Y-67173000D01*
X52398000Y-67173000D01*
X52398000Y-68475000D01*
X52398000Y-68475000D01*
G37*
G36*
X55648000Y-68475000D02*
G01*
X54346000Y-68475000D01*
X54346000Y-67173000D01*
X55648000Y-67173000D01*
X55648000Y-68475000D01*
X55648000Y-68475000D01*
G37*
G36*
X58148000Y-68475000D02*
G01*
X56846000Y-68475000D01*
X56846000Y-67173000D01*
X58148000Y-67173000D01*
X58148000Y-68475000D01*
X58148000Y-68475000D01*
G37*
G36*
X47398000Y-68475000D02*
G01*
X46096000Y-68475000D01*
X46096000Y-67173000D01*
X47398000Y-67173000D01*
X47398000Y-68475000D01*
X47398000Y-68475000D01*
G37*
G36*
X49898000Y-68475000D02*
G01*
X48596000Y-68475000D01*
X48596000Y-67173000D01*
X49898000Y-67173000D01*
X49898000Y-68475000D01*
X49898000Y-68475000D01*
G37*
G36*
X64610512Y-65852927D02*
G01*
X64759812Y-65882624D01*
X64923784Y-65950544D01*
X65071354Y-66049147D01*
X65196853Y-66174646D01*
X65295456Y-66322216D01*
X65363376Y-66486188D01*
X65398000Y-66660259D01*
X65398000Y-66837741D01*
X65363376Y-67011812D01*
X65295456Y-67175784D01*
X65196853Y-67323354D01*
X65071354Y-67448853D01*
X64923784Y-67547456D01*
X64759812Y-67615376D01*
X64610512Y-67645073D01*
X64585742Y-67650000D01*
X64408258Y-67650000D01*
X64383488Y-67645073D01*
X64234188Y-67615376D01*
X64070216Y-67547456D01*
X63922646Y-67448853D01*
X63797147Y-67323354D01*
X63698544Y-67175784D01*
X63630624Y-67011812D01*
X63596000Y-66837741D01*
X63596000Y-66660259D01*
X63630624Y-66486188D01*
X63698544Y-66322216D01*
X63797147Y-66174646D01*
X63922646Y-66049147D01*
X64070216Y-65950544D01*
X64234188Y-65882624D01*
X64383488Y-65852927D01*
X64408258Y-65848000D01*
X64585742Y-65848000D01*
X64610512Y-65852927D01*
X64610512Y-65852927D01*
G37*
G36*
X101610512Y-65852927D02*
G01*
X101759812Y-65882624D01*
X101923784Y-65950544D01*
X102071354Y-66049147D01*
X102196853Y-66174646D01*
X102295456Y-66322216D01*
X102363376Y-66486188D01*
X102398000Y-66660259D01*
X102398000Y-66837741D01*
X102363376Y-67011812D01*
X102295456Y-67175784D01*
X102196853Y-67323354D01*
X102071354Y-67448853D01*
X101923784Y-67547456D01*
X101759812Y-67615376D01*
X101610512Y-67645073D01*
X101585742Y-67650000D01*
X101408258Y-67650000D01*
X101383488Y-67645073D01*
X101234188Y-67615376D01*
X101070216Y-67547456D01*
X100922646Y-67448853D01*
X100797147Y-67323354D01*
X100698544Y-67175784D01*
X100630624Y-67011812D01*
X100596000Y-66837741D01*
X100596000Y-66660259D01*
X100630624Y-66486188D01*
X100698544Y-66322216D01*
X100797147Y-66174646D01*
X100922646Y-66049147D01*
X101070216Y-65950544D01*
X101234188Y-65882624D01*
X101383488Y-65852927D01*
X101408258Y-65848000D01*
X101585742Y-65848000D01*
X101610512Y-65852927D01*
X101610512Y-65852927D01*
G37*
G36*
X112610512Y-65852927D02*
G01*
X112759812Y-65882624D01*
X112923784Y-65950544D01*
X113071354Y-66049147D01*
X113196853Y-66174646D01*
X113295456Y-66322216D01*
X113363376Y-66486188D01*
X113398000Y-66660259D01*
X113398000Y-66837741D01*
X113363376Y-67011812D01*
X113295456Y-67175784D01*
X113196853Y-67323354D01*
X113071354Y-67448853D01*
X112923784Y-67547456D01*
X112759812Y-67615376D01*
X112610512Y-67645073D01*
X112585742Y-67650000D01*
X112408258Y-67650000D01*
X112383488Y-67645073D01*
X112234188Y-67615376D01*
X112070216Y-67547456D01*
X111922646Y-67448853D01*
X111797147Y-67323354D01*
X111698544Y-67175784D01*
X111630624Y-67011812D01*
X111596000Y-66837741D01*
X111596000Y-66660259D01*
X111630624Y-66486188D01*
X111698544Y-66322216D01*
X111797147Y-66174646D01*
X111922646Y-66049147D01*
X112070216Y-65950544D01*
X112234188Y-65882624D01*
X112383488Y-65852927D01*
X112408258Y-65848000D01*
X112585742Y-65848000D01*
X112610512Y-65852927D01*
X112610512Y-65852927D01*
G37*
G36*
X75610512Y-65852927D02*
G01*
X75759812Y-65882624D01*
X75923784Y-65950544D01*
X76071354Y-66049147D01*
X76196853Y-66174646D01*
X76295456Y-66322216D01*
X76363376Y-66486188D01*
X76398000Y-66660259D01*
X76398000Y-66837741D01*
X76363376Y-67011812D01*
X76295456Y-67175784D01*
X76196853Y-67323354D01*
X76071354Y-67448853D01*
X75923784Y-67547456D01*
X75759812Y-67615376D01*
X75610512Y-67645073D01*
X75585742Y-67650000D01*
X75408258Y-67650000D01*
X75383488Y-67645073D01*
X75234188Y-67615376D01*
X75070216Y-67547456D01*
X74922646Y-67448853D01*
X74797147Y-67323354D01*
X74698544Y-67175784D01*
X74630624Y-67011812D01*
X74596000Y-66837741D01*
X74596000Y-66660259D01*
X74630624Y-66486188D01*
X74698544Y-66322216D01*
X74797147Y-66174646D01*
X74922646Y-66049147D01*
X75070216Y-65950544D01*
X75234188Y-65882624D01*
X75383488Y-65852927D01*
X75408258Y-65848000D01*
X75585742Y-65848000D01*
X75610512Y-65852927D01*
X75610512Y-65852927D01*
G37*
G36*
X130803564Y-64938389D02*
G01*
X130994833Y-65017615D01*
X130994835Y-65017616D01*
X131166973Y-65132635D01*
X131313365Y-65279027D01*
X131386787Y-65388910D01*
X131428385Y-65451167D01*
X131507611Y-65642436D01*
X131548000Y-65845484D01*
X131548000Y-66052516D01*
X131507611Y-66255564D01*
X131480002Y-66322218D01*
X131428384Y-66446835D01*
X131313365Y-66618973D01*
X131166973Y-66765365D01*
X130994835Y-66880384D01*
X130994834Y-66880385D01*
X130994833Y-66880385D01*
X130803564Y-66959611D01*
X130600516Y-67000000D01*
X130393484Y-67000000D01*
X130190436Y-66959611D01*
X129999167Y-66880385D01*
X129999166Y-66880385D01*
X129999165Y-66880384D01*
X129827027Y-66765365D01*
X129680635Y-66618973D01*
X129565616Y-66446835D01*
X129513998Y-66322218D01*
X129486389Y-66255564D01*
X129446000Y-66052516D01*
X129446000Y-65845484D01*
X129486389Y-65642436D01*
X129565615Y-65451167D01*
X129607214Y-65388910D01*
X129680635Y-65279027D01*
X129827027Y-65132635D01*
X129999165Y-65017616D01*
X129999167Y-65017615D01*
X130190436Y-64938389D01*
X130393484Y-64898000D01*
X130600516Y-64898000D01*
X130803564Y-64938389D01*
X130803564Y-64938389D01*
G37*
G36*
X120803564Y-64938389D02*
G01*
X120994833Y-65017615D01*
X120994835Y-65017616D01*
X121166973Y-65132635D01*
X121313365Y-65279027D01*
X121386787Y-65388910D01*
X121428385Y-65451167D01*
X121507611Y-65642436D01*
X121548000Y-65845484D01*
X121548000Y-66052516D01*
X121507611Y-66255564D01*
X121480002Y-66322218D01*
X121428384Y-66446835D01*
X121313365Y-66618973D01*
X121166973Y-66765365D01*
X120994835Y-66880384D01*
X120994834Y-66880385D01*
X120994833Y-66880385D01*
X120803564Y-66959611D01*
X120600516Y-67000000D01*
X120393484Y-67000000D01*
X120190436Y-66959611D01*
X119999167Y-66880385D01*
X119999166Y-66880385D01*
X119999165Y-66880384D01*
X119827027Y-66765365D01*
X119680635Y-66618973D01*
X119565616Y-66446835D01*
X119513998Y-66322218D01*
X119486389Y-66255564D01*
X119446000Y-66052516D01*
X119446000Y-65845484D01*
X119486389Y-65642436D01*
X119565615Y-65451167D01*
X119607214Y-65388910D01*
X119680635Y-65279027D01*
X119827027Y-65132635D01*
X119999165Y-65017616D01*
X119999167Y-65017615D01*
X120190436Y-64938389D01*
X120393484Y-64898000D01*
X120600516Y-64898000D01*
X120803564Y-64938389D01*
X120803564Y-64938389D01*
G37*
G36*
X49898000Y-65325000D02*
G01*
X48596000Y-65325000D01*
X48596000Y-64023000D01*
X49898000Y-64023000D01*
X49898000Y-65325000D01*
X49898000Y-65325000D01*
G37*
G36*
X47398000Y-65325000D02*
G01*
X46096000Y-65325000D01*
X46096000Y-64023000D01*
X47398000Y-64023000D01*
X47398000Y-65325000D01*
X47398000Y-65325000D01*
G37*
G36*
X52398000Y-65325000D02*
G01*
X51096000Y-65325000D01*
X51096000Y-64023000D01*
X52398000Y-64023000D01*
X52398000Y-65325000D01*
X52398000Y-65325000D01*
G37*
G36*
X55648000Y-65325000D02*
G01*
X54346000Y-65325000D01*
X54346000Y-64023000D01*
X55648000Y-64023000D01*
X55648000Y-65325000D01*
X55648000Y-65325000D01*
G37*
G36*
X60648000Y-65325000D02*
G01*
X59346000Y-65325000D01*
X59346000Y-64023000D01*
X60648000Y-64023000D01*
X60648000Y-65325000D01*
X60648000Y-65325000D01*
G37*
G36*
X58148000Y-65325000D02*
G01*
X56846000Y-65325000D01*
X56846000Y-64023000D01*
X58148000Y-64023000D01*
X58148000Y-65325000D01*
X58148000Y-65325000D01*
G37*
G36*
X125803564Y-62838389D02*
G01*
X125994833Y-62917615D01*
X125994835Y-62917616D01*
X126166973Y-63032635D01*
X126313365Y-63179027D01*
X126394676Y-63300717D01*
X126428385Y-63351167D01*
X126507611Y-63542436D01*
X126548000Y-63745484D01*
X126548000Y-63952516D01*
X126507611Y-64155564D01*
X126428385Y-64346833D01*
X126428384Y-64346835D01*
X126313365Y-64518973D01*
X126166973Y-64665365D01*
X125994835Y-64780384D01*
X125994834Y-64780385D01*
X125994833Y-64780385D01*
X125803564Y-64859611D01*
X125600516Y-64900000D01*
X125393484Y-64900000D01*
X125190436Y-64859611D01*
X124999167Y-64780385D01*
X124999166Y-64780385D01*
X124999165Y-64780384D01*
X124827027Y-64665365D01*
X124680635Y-64518973D01*
X124565616Y-64346835D01*
X124565615Y-64346833D01*
X124486389Y-64155564D01*
X124446000Y-63952516D01*
X124446000Y-63745484D01*
X124486389Y-63542436D01*
X124565615Y-63351167D01*
X124599325Y-63300717D01*
X124680635Y-63179027D01*
X124827027Y-63032635D01*
X124999165Y-62917616D01*
X124999167Y-62917615D01*
X125190436Y-62838389D01*
X125393484Y-62798000D01*
X125600516Y-62798000D01*
X125803564Y-62838389D01*
X125803564Y-62838389D01*
G37*
G36*
X112303564Y-61938389D02*
G01*
X112480823Y-62011812D01*
X112494835Y-62017616D01*
X112666973Y-62132635D01*
X112813365Y-62279027D01*
X112926839Y-62448852D01*
X112928385Y-62451167D01*
X113007611Y-62642436D01*
X113048000Y-62845484D01*
X113048000Y-63052516D01*
X113007611Y-63255564D01*
X112968011Y-63351167D01*
X112928384Y-63446835D01*
X112813365Y-63618973D01*
X112666973Y-63765365D01*
X112494835Y-63880384D01*
X112494834Y-63880385D01*
X112494833Y-63880385D01*
X112303564Y-63959611D01*
X112100516Y-64000000D01*
X111893484Y-64000000D01*
X111690436Y-63959611D01*
X111499167Y-63880385D01*
X111499166Y-63880385D01*
X111499165Y-63880384D01*
X111327027Y-63765365D01*
X111180635Y-63618973D01*
X111065616Y-63446835D01*
X111025989Y-63351167D01*
X110986389Y-63255564D01*
X110946000Y-63052516D01*
X110946000Y-62845484D01*
X110986389Y-62642436D01*
X111065615Y-62451167D01*
X111067162Y-62448852D01*
X111180635Y-62279027D01*
X111327027Y-62132635D01*
X111499165Y-62017616D01*
X111513177Y-62011812D01*
X111690436Y-61938389D01*
X111893484Y-61898000D01*
X112100516Y-61898000D01*
X112303564Y-61938389D01*
X112303564Y-61938389D01*
G37*
G36*
X102303564Y-61938389D02*
G01*
X102480823Y-62011812D01*
X102494835Y-62017616D01*
X102666973Y-62132635D01*
X102813365Y-62279027D01*
X102926839Y-62448852D01*
X102928385Y-62451167D01*
X103007611Y-62642436D01*
X103048000Y-62845484D01*
X103048000Y-63052516D01*
X103007611Y-63255564D01*
X102968011Y-63351167D01*
X102928384Y-63446835D01*
X102813365Y-63618973D01*
X102666973Y-63765365D01*
X102494835Y-63880384D01*
X102494834Y-63880385D01*
X102494833Y-63880385D01*
X102303564Y-63959611D01*
X102100516Y-64000000D01*
X101893484Y-64000000D01*
X101690436Y-63959611D01*
X101499167Y-63880385D01*
X101499166Y-63880385D01*
X101499165Y-63880384D01*
X101327027Y-63765365D01*
X101180635Y-63618973D01*
X101065616Y-63446835D01*
X101025989Y-63351167D01*
X100986389Y-63255564D01*
X100946000Y-63052516D01*
X100946000Y-62845484D01*
X100986389Y-62642436D01*
X101065615Y-62451167D01*
X101067162Y-62448852D01*
X101180635Y-62279027D01*
X101327027Y-62132635D01*
X101499165Y-62017616D01*
X101513177Y-62011812D01*
X101690436Y-61938389D01*
X101893484Y-61898000D01*
X102100516Y-61898000D01*
X102303564Y-61938389D01*
X102303564Y-61938389D01*
G37*
G36*
X75303564Y-61938389D02*
G01*
X75480823Y-62011812D01*
X75494835Y-62017616D01*
X75666973Y-62132635D01*
X75813365Y-62279027D01*
X75926839Y-62448852D01*
X75928385Y-62451167D01*
X76007611Y-62642436D01*
X76048000Y-62845484D01*
X76048000Y-63052516D01*
X76007611Y-63255564D01*
X75968011Y-63351167D01*
X75928384Y-63446835D01*
X75813365Y-63618973D01*
X75666973Y-63765365D01*
X75494835Y-63880384D01*
X75494834Y-63880385D01*
X75494833Y-63880385D01*
X75303564Y-63959611D01*
X75100516Y-64000000D01*
X74893484Y-64000000D01*
X74690436Y-63959611D01*
X74499167Y-63880385D01*
X74499166Y-63880385D01*
X74499165Y-63880384D01*
X74327027Y-63765365D01*
X74180635Y-63618973D01*
X74065616Y-63446835D01*
X74025989Y-63351167D01*
X73986389Y-63255564D01*
X73946000Y-63052516D01*
X73946000Y-62845484D01*
X73986389Y-62642436D01*
X74065615Y-62451167D01*
X74067162Y-62448852D01*
X74180635Y-62279027D01*
X74327027Y-62132635D01*
X74499165Y-62017616D01*
X74513177Y-62011812D01*
X74690436Y-61938389D01*
X74893484Y-61898000D01*
X75100516Y-61898000D01*
X75303564Y-61938389D01*
X75303564Y-61938389D01*
G37*
G36*
X65303564Y-61938389D02*
G01*
X65480823Y-62011812D01*
X65494835Y-62017616D01*
X65666973Y-62132635D01*
X65813365Y-62279027D01*
X65926839Y-62448852D01*
X65928385Y-62451167D01*
X66007611Y-62642436D01*
X66048000Y-62845484D01*
X66048000Y-63052516D01*
X66007611Y-63255564D01*
X65968011Y-63351167D01*
X65928384Y-63446835D01*
X65813365Y-63618973D01*
X65666973Y-63765365D01*
X65494835Y-63880384D01*
X65494834Y-63880385D01*
X65494833Y-63880385D01*
X65303564Y-63959611D01*
X65100516Y-64000000D01*
X64893484Y-64000000D01*
X64690436Y-63959611D01*
X64499167Y-63880385D01*
X64499166Y-63880385D01*
X64499165Y-63880384D01*
X64327027Y-63765365D01*
X64180635Y-63618973D01*
X64065616Y-63446835D01*
X64025989Y-63351167D01*
X63986389Y-63255564D01*
X63946000Y-63052516D01*
X63946000Y-62845484D01*
X63986389Y-62642436D01*
X64065615Y-62451167D01*
X64067162Y-62448852D01*
X64180635Y-62279027D01*
X64327027Y-62132635D01*
X64499165Y-62017616D01*
X64513177Y-62011812D01*
X64690436Y-61938389D01*
X64893484Y-61898000D01*
X65100516Y-61898000D01*
X65303564Y-61938389D01*
X65303564Y-61938389D01*
G37*
G36*
X88894985Y-60042860D02*
G01*
X89007748Y-60065290D01*
X89139741Y-60119963D01*
X89326408Y-60197283D01*
X89613196Y-60388909D01*
X89857091Y-60632804D01*
X90048717Y-60919592D01*
X90180710Y-61238253D01*
X90248000Y-61576540D01*
X90248000Y-61921460D01*
X90180710Y-62259747D01*
X90048717Y-62578408D01*
X89857091Y-62865196D01*
X89613196Y-63109091D01*
X89326408Y-63300717D01*
X89204615Y-63351165D01*
X89007748Y-63432710D01*
X88894985Y-63455140D01*
X88669460Y-63500000D01*
X88324540Y-63500000D01*
X88099015Y-63455140D01*
X87986252Y-63432710D01*
X87789385Y-63351165D01*
X87667592Y-63300717D01*
X87380804Y-63109091D01*
X87136909Y-62865196D01*
X86945283Y-62578408D01*
X86813290Y-62259747D01*
X86746000Y-61921460D01*
X86746000Y-61576540D01*
X86813290Y-61238253D01*
X86945283Y-60919592D01*
X87136909Y-60632804D01*
X87380804Y-60388909D01*
X87667592Y-60197283D01*
X87854259Y-60119963D01*
X87986252Y-60065290D01*
X88099015Y-60042860D01*
X88324540Y-59998000D01*
X88669460Y-59998000D01*
X88894985Y-60042860D01*
X88894985Y-60042860D01*
G37*
G36*
X51995228Y-61530703D02*
G01*
X52150100Y-61594853D01*
X52289481Y-61687985D01*
X52408015Y-61806519D01*
X52501147Y-61945900D01*
X52565297Y-62100772D01*
X52598000Y-62265184D01*
X52598000Y-62432816D01*
X52565297Y-62597228D01*
X52501147Y-62752100D01*
X52408015Y-62891481D01*
X52289481Y-63010015D01*
X52150100Y-63103147D01*
X51995228Y-63167297D01*
X51830816Y-63200000D01*
X51663184Y-63200000D01*
X51498772Y-63167297D01*
X51343900Y-63103147D01*
X51204519Y-63010015D01*
X51085985Y-62891481D01*
X50992853Y-62752100D01*
X50928703Y-62597228D01*
X50896000Y-62432816D01*
X50896000Y-62265184D01*
X50928703Y-62100772D01*
X50992853Y-61945900D01*
X51085985Y-61806519D01*
X51204519Y-61687985D01*
X51343900Y-61594853D01*
X51498772Y-61530703D01*
X51663184Y-61498000D01*
X51830816Y-61498000D01*
X51995228Y-61530703D01*
X51995228Y-61530703D01*
G37*
G36*
X55245228Y-61530703D02*
G01*
X55400100Y-61594853D01*
X55539481Y-61687985D01*
X55658015Y-61806519D01*
X55751147Y-61945900D01*
X55815297Y-62100772D01*
X55848000Y-62265184D01*
X55848000Y-62432816D01*
X55815297Y-62597228D01*
X55751147Y-62752100D01*
X55658015Y-62891481D01*
X55539481Y-63010015D01*
X55400100Y-63103147D01*
X55245228Y-63167297D01*
X55080816Y-63200000D01*
X54913184Y-63200000D01*
X54748772Y-63167297D01*
X54593900Y-63103147D01*
X54454519Y-63010015D01*
X54335985Y-62891481D01*
X54242853Y-62752100D01*
X54178703Y-62597228D01*
X54146000Y-62432816D01*
X54146000Y-62265184D01*
X54178703Y-62100772D01*
X54242853Y-61945900D01*
X54335985Y-61806519D01*
X54454519Y-61687985D01*
X54593900Y-61594853D01*
X54748772Y-61530703D01*
X54913184Y-61498000D01*
X55080816Y-61498000D01*
X55245228Y-61530703D01*
X55245228Y-61530703D01*
G37*
G36*
X57745228Y-61530703D02*
G01*
X57900100Y-61594853D01*
X58039481Y-61687985D01*
X58158015Y-61806519D01*
X58251147Y-61945900D01*
X58315297Y-62100772D01*
X58348000Y-62265184D01*
X58348000Y-62432816D01*
X58315297Y-62597228D01*
X58251147Y-62752100D01*
X58158015Y-62891481D01*
X58039481Y-63010015D01*
X57900100Y-63103147D01*
X57745228Y-63167297D01*
X57580816Y-63200000D01*
X57413184Y-63200000D01*
X57248772Y-63167297D01*
X57093900Y-63103147D01*
X56954519Y-63010015D01*
X56835985Y-62891481D01*
X56742853Y-62752100D01*
X56678703Y-62597228D01*
X56646000Y-62432816D01*
X56646000Y-62265184D01*
X56678703Y-62100772D01*
X56742853Y-61945900D01*
X56835985Y-61806519D01*
X56954519Y-61687985D01*
X57093900Y-61594853D01*
X57248772Y-61530703D01*
X57413184Y-61498000D01*
X57580816Y-61498000D01*
X57745228Y-61530703D01*
X57745228Y-61530703D01*
G37*
G36*
X49495228Y-61530703D02*
G01*
X49650100Y-61594853D01*
X49789481Y-61687985D01*
X49908015Y-61806519D01*
X50001147Y-61945900D01*
X50065297Y-62100772D01*
X50098000Y-62265184D01*
X50098000Y-62432816D01*
X50065297Y-62597228D01*
X50001147Y-62752100D01*
X49908015Y-62891481D01*
X49789481Y-63010015D01*
X49650100Y-63103147D01*
X49495228Y-63167297D01*
X49330816Y-63200000D01*
X49163184Y-63200000D01*
X48998772Y-63167297D01*
X48843900Y-63103147D01*
X48704519Y-63010015D01*
X48585985Y-62891481D01*
X48492853Y-62752100D01*
X48428703Y-62597228D01*
X48396000Y-62432816D01*
X48396000Y-62265184D01*
X48428703Y-62100772D01*
X48492853Y-61945900D01*
X48585985Y-61806519D01*
X48704519Y-61687985D01*
X48843900Y-61594853D01*
X48998772Y-61530703D01*
X49163184Y-61498000D01*
X49330816Y-61498000D01*
X49495228Y-61530703D01*
X49495228Y-61530703D01*
G37*
G36*
X60245228Y-61530703D02*
G01*
X60400100Y-61594853D01*
X60539481Y-61687985D01*
X60658015Y-61806519D01*
X60751147Y-61945900D01*
X60815297Y-62100772D01*
X60848000Y-62265184D01*
X60848000Y-62432816D01*
X60815297Y-62597228D01*
X60751147Y-62752100D01*
X60658015Y-62891481D01*
X60539481Y-63010015D01*
X60400100Y-63103147D01*
X60245228Y-63167297D01*
X60080816Y-63200000D01*
X59913184Y-63200000D01*
X59748772Y-63167297D01*
X59593900Y-63103147D01*
X59454519Y-63010015D01*
X59335985Y-62891481D01*
X59242853Y-62752100D01*
X59178703Y-62597228D01*
X59146000Y-62432816D01*
X59146000Y-62265184D01*
X59178703Y-62100772D01*
X59242853Y-61945900D01*
X59335985Y-61806519D01*
X59454519Y-61687985D01*
X59593900Y-61594853D01*
X59748772Y-61530703D01*
X59913184Y-61498000D01*
X60080816Y-61498000D01*
X60245228Y-61530703D01*
X60245228Y-61530703D01*
G37*
G36*
X46995228Y-61530703D02*
G01*
X47150100Y-61594853D01*
X47289481Y-61687985D01*
X47408015Y-61806519D01*
X47501147Y-61945900D01*
X47565297Y-62100772D01*
X47598000Y-62265184D01*
X47598000Y-62432816D01*
X47565297Y-62597228D01*
X47501147Y-62752100D01*
X47408015Y-62891481D01*
X47289481Y-63010015D01*
X47150100Y-63103147D01*
X46995228Y-63167297D01*
X46830816Y-63200000D01*
X46663184Y-63200000D01*
X46498772Y-63167297D01*
X46343900Y-63103147D01*
X46204519Y-63010015D01*
X46085985Y-62891481D01*
X45992853Y-62752100D01*
X45928703Y-62597228D01*
X45896000Y-62432816D01*
X45896000Y-62265184D01*
X45928703Y-62100772D01*
X45992853Y-61945900D01*
X46085985Y-61806519D01*
X46204519Y-61687985D01*
X46343900Y-61594853D01*
X46498772Y-61530703D01*
X46663184Y-61498000D01*
X46830816Y-61498000D01*
X46995228Y-61530703D01*
X46995228Y-61530703D01*
G37*
G36*
X83110512Y-60852927D02*
G01*
X83259812Y-60882624D01*
X83423784Y-60950544D01*
X83571354Y-61049147D01*
X83696853Y-61174646D01*
X83795456Y-61322216D01*
X83863376Y-61486188D01*
X83898000Y-61660259D01*
X83898000Y-61837741D01*
X83863376Y-62011812D01*
X83795456Y-62175784D01*
X83696853Y-62323354D01*
X83571354Y-62448853D01*
X83423784Y-62547456D01*
X83259812Y-62615376D01*
X83110512Y-62645073D01*
X83085742Y-62650000D01*
X82908258Y-62650000D01*
X82883488Y-62645073D01*
X82734188Y-62615376D01*
X82570216Y-62547456D01*
X82422646Y-62448853D01*
X82297147Y-62323354D01*
X82198544Y-62175784D01*
X82130624Y-62011812D01*
X82096000Y-61837741D01*
X82096000Y-61660259D01*
X82130624Y-61486188D01*
X82198544Y-61322216D01*
X82297147Y-61174646D01*
X82422646Y-61049147D01*
X82570216Y-60950544D01*
X82734188Y-60882624D01*
X82883488Y-60852927D01*
X82908258Y-60848000D01*
X83085742Y-60848000D01*
X83110512Y-60852927D01*
X83110512Y-60852927D01*
G37*
G36*
X94110512Y-60852927D02*
G01*
X94259812Y-60882624D01*
X94423784Y-60950544D01*
X94571354Y-61049147D01*
X94696853Y-61174646D01*
X94795456Y-61322216D01*
X94863376Y-61486188D01*
X94898000Y-61660259D01*
X94898000Y-61837741D01*
X94863376Y-62011812D01*
X94795456Y-62175784D01*
X94696853Y-62323354D01*
X94571354Y-62448853D01*
X94423784Y-62547456D01*
X94259812Y-62615376D01*
X94110512Y-62645073D01*
X94085742Y-62650000D01*
X93908258Y-62650000D01*
X93883488Y-62645073D01*
X93734188Y-62615376D01*
X93570216Y-62547456D01*
X93422646Y-62448853D01*
X93297147Y-62323354D01*
X93198544Y-62175784D01*
X93130624Y-62011812D01*
X93096000Y-61837741D01*
X93096000Y-61660259D01*
X93130624Y-61486188D01*
X93198544Y-61322216D01*
X93297147Y-61174646D01*
X93422646Y-61049147D01*
X93570216Y-60950544D01*
X93734188Y-60882624D01*
X93883488Y-60852927D01*
X93908258Y-60848000D01*
X94085742Y-60848000D01*
X94110512Y-60852927D01*
X94110512Y-60852927D01*
G37*
G36*
X70303564Y-59838389D02*
G01*
X70494833Y-59917615D01*
X70494835Y-59917616D01*
X70615138Y-59998000D01*
X70666973Y-60032635D01*
X70813365Y-60179027D01*
X70928385Y-60351167D01*
X71007611Y-60542436D01*
X71048000Y-60745484D01*
X71048000Y-60952516D01*
X71007611Y-61155564D01*
X70938581Y-61322218D01*
X70928384Y-61346835D01*
X70813365Y-61518973D01*
X70666973Y-61665365D01*
X70494835Y-61780384D01*
X70494834Y-61780385D01*
X70494833Y-61780385D01*
X70303564Y-61859611D01*
X70100516Y-61900000D01*
X69893484Y-61900000D01*
X69690436Y-61859611D01*
X69499167Y-61780385D01*
X69499166Y-61780385D01*
X69499165Y-61780384D01*
X69327027Y-61665365D01*
X69180635Y-61518973D01*
X69065616Y-61346835D01*
X69055419Y-61322218D01*
X68986389Y-61155564D01*
X68946000Y-60952516D01*
X68946000Y-60745484D01*
X68986389Y-60542436D01*
X69065615Y-60351167D01*
X69180635Y-60179027D01*
X69327027Y-60032635D01*
X69378862Y-59998000D01*
X69499165Y-59917616D01*
X69499167Y-59917615D01*
X69690436Y-59838389D01*
X69893484Y-59798000D01*
X70100516Y-59798000D01*
X70303564Y-59838389D01*
X70303564Y-59838389D01*
G37*
G36*
X107303564Y-59838389D02*
G01*
X107494833Y-59917615D01*
X107494835Y-59917616D01*
X107615138Y-59998000D01*
X107666973Y-60032635D01*
X107813365Y-60179027D01*
X107928385Y-60351167D01*
X108007611Y-60542436D01*
X108048000Y-60745484D01*
X108048000Y-60952516D01*
X108007611Y-61155564D01*
X107938581Y-61322218D01*
X107928384Y-61346835D01*
X107813365Y-61518973D01*
X107666973Y-61665365D01*
X107494835Y-61780384D01*
X107494834Y-61780385D01*
X107494833Y-61780385D01*
X107303564Y-61859611D01*
X107100516Y-61900000D01*
X106893484Y-61900000D01*
X106690436Y-61859611D01*
X106499167Y-61780385D01*
X106499166Y-61780385D01*
X106499165Y-61780384D01*
X106327027Y-61665365D01*
X106180635Y-61518973D01*
X106065616Y-61346835D01*
X106055419Y-61322218D01*
X105986389Y-61155564D01*
X105946000Y-60952516D01*
X105946000Y-60745484D01*
X105986389Y-60542436D01*
X106065615Y-60351167D01*
X106180635Y-60179027D01*
X106327027Y-60032635D01*
X106378862Y-59998000D01*
X106499165Y-59917616D01*
X106499167Y-59917615D01*
X106690436Y-59838389D01*
X106893484Y-59798000D01*
X107100516Y-59798000D01*
X107303564Y-59838389D01*
X107303564Y-59838389D01*
G37*
G36*
X119398000Y-60150000D02*
G01*
X117596000Y-60150000D01*
X117596000Y-58348000D01*
X119398000Y-58348000D01*
X119398000Y-60150000D01*
X119398000Y-60150000D01*
G37*
G36*
X126227442Y-58354518D02*
G01*
X126293627Y-58361037D01*
X126463466Y-58412557D01*
X126619991Y-58496222D01*
X126655729Y-58525552D01*
X126757186Y-58608814D01*
X126840448Y-58710271D01*
X126869778Y-58746009D01*
X126869779Y-58746011D01*
X126941604Y-58880384D01*
X126953443Y-58902534D01*
X127004963Y-59072373D01*
X127022359Y-59249000D01*
X127004963Y-59425627D01*
X126953443Y-59595466D01*
X126869778Y-59751991D01*
X126840448Y-59787729D01*
X126757186Y-59889186D01*
X126655729Y-59972448D01*
X126619991Y-60001778D01*
X126463466Y-60085443D01*
X126293627Y-60136963D01*
X126227443Y-60143481D01*
X126161260Y-60150000D01*
X126072740Y-60150000D01*
X126006557Y-60143481D01*
X125940373Y-60136963D01*
X125770534Y-60085443D01*
X125614009Y-60001778D01*
X125578271Y-59972448D01*
X125476814Y-59889186D01*
X125393552Y-59787729D01*
X125364222Y-59751991D01*
X125280557Y-59595466D01*
X125229037Y-59425627D01*
X125211641Y-59249000D01*
X125229037Y-59072373D01*
X125280557Y-58902534D01*
X125292397Y-58880384D01*
X125364221Y-58746011D01*
X125364222Y-58746009D01*
X125393552Y-58710271D01*
X125476814Y-58608814D01*
X125578271Y-58525552D01*
X125614009Y-58496222D01*
X125770534Y-58412557D01*
X125940373Y-58361037D01*
X126006558Y-58354518D01*
X126072740Y-58348000D01*
X126161260Y-58348000D01*
X126227442Y-58354518D01*
X126227442Y-58354518D01*
G37*
G36*
X123687442Y-58354518D02*
G01*
X123753627Y-58361037D01*
X123923466Y-58412557D01*
X124079991Y-58496222D01*
X124115729Y-58525552D01*
X124217186Y-58608814D01*
X124300448Y-58710271D01*
X124329778Y-58746009D01*
X124329779Y-58746011D01*
X124401604Y-58880384D01*
X124413443Y-58902534D01*
X124464963Y-59072373D01*
X124482359Y-59249000D01*
X124464963Y-59425627D01*
X124413443Y-59595466D01*
X124329778Y-59751991D01*
X124300448Y-59787729D01*
X124217186Y-59889186D01*
X124115729Y-59972448D01*
X124079991Y-60001778D01*
X123923466Y-60085443D01*
X123753627Y-60136963D01*
X123687443Y-60143481D01*
X123621260Y-60150000D01*
X123532740Y-60150000D01*
X123466557Y-60143481D01*
X123400373Y-60136963D01*
X123230534Y-60085443D01*
X123074009Y-60001778D01*
X123038271Y-59972448D01*
X122936814Y-59889186D01*
X122853552Y-59787729D01*
X122824222Y-59751991D01*
X122740557Y-59595466D01*
X122689037Y-59425627D01*
X122671641Y-59249000D01*
X122689037Y-59072373D01*
X122740557Y-58902534D01*
X122752397Y-58880384D01*
X122824221Y-58746011D01*
X122824222Y-58746009D01*
X122853552Y-58710271D01*
X122936814Y-58608814D01*
X123038271Y-58525552D01*
X123074009Y-58496222D01*
X123230534Y-58412557D01*
X123400373Y-58361037D01*
X123466558Y-58354518D01*
X123532740Y-58348000D01*
X123621260Y-58348000D01*
X123687442Y-58354518D01*
X123687442Y-58354518D01*
G37*
G36*
X121147442Y-58354518D02*
G01*
X121213627Y-58361037D01*
X121383466Y-58412557D01*
X121539991Y-58496222D01*
X121575729Y-58525552D01*
X121677186Y-58608814D01*
X121760448Y-58710271D01*
X121789778Y-58746009D01*
X121789779Y-58746011D01*
X121861604Y-58880384D01*
X121873443Y-58902534D01*
X121924963Y-59072373D01*
X121942359Y-59249000D01*
X121924963Y-59425627D01*
X121873443Y-59595466D01*
X121789778Y-59751991D01*
X121760448Y-59787729D01*
X121677186Y-59889186D01*
X121575729Y-59972448D01*
X121539991Y-60001778D01*
X121383466Y-60085443D01*
X121213627Y-60136963D01*
X121147443Y-60143481D01*
X121081260Y-60150000D01*
X120992740Y-60150000D01*
X120926557Y-60143481D01*
X120860373Y-60136963D01*
X120690534Y-60085443D01*
X120534009Y-60001778D01*
X120498271Y-59972448D01*
X120396814Y-59889186D01*
X120313552Y-59787729D01*
X120284222Y-59751991D01*
X120200557Y-59595466D01*
X120149037Y-59425627D01*
X120131641Y-59249000D01*
X120149037Y-59072373D01*
X120200557Y-58902534D01*
X120212397Y-58880384D01*
X120284221Y-58746011D01*
X120284222Y-58746009D01*
X120313552Y-58710271D01*
X120396814Y-58608814D01*
X120498271Y-58525552D01*
X120534009Y-58496222D01*
X120690534Y-58412557D01*
X120860373Y-58361037D01*
X120926558Y-58354518D01*
X120992740Y-58348000D01*
X121081260Y-58348000D01*
X121147442Y-58354518D01*
X121147442Y-58354518D01*
G37*
G36*
X83803564Y-56938389D02*
G01*
X83994833Y-57017615D01*
X83994835Y-57017616D01*
X84051481Y-57055466D01*
X84166973Y-57132635D01*
X84313365Y-57279027D01*
X84428385Y-57451167D01*
X84507611Y-57642436D01*
X84548000Y-57845484D01*
X84548000Y-58052516D01*
X84507611Y-58255564D01*
X84442582Y-58412558D01*
X84428384Y-58446835D01*
X84313365Y-58618973D01*
X84166973Y-58765365D01*
X83994835Y-58880384D01*
X83994834Y-58880385D01*
X83994833Y-58880385D01*
X83803564Y-58959611D01*
X83600516Y-59000000D01*
X83393484Y-59000000D01*
X83190436Y-58959611D01*
X82999167Y-58880385D01*
X82999166Y-58880385D01*
X82999165Y-58880384D01*
X82827027Y-58765365D01*
X82680635Y-58618973D01*
X82565616Y-58446835D01*
X82551418Y-58412558D01*
X82486389Y-58255564D01*
X82446000Y-58052516D01*
X82446000Y-57845484D01*
X82486389Y-57642436D01*
X82565615Y-57451167D01*
X82680635Y-57279027D01*
X82827027Y-57132635D01*
X82942519Y-57055466D01*
X82999165Y-57017616D01*
X82999167Y-57017615D01*
X83190436Y-56938389D01*
X83393484Y-56898000D01*
X83600516Y-56898000D01*
X83803564Y-56938389D01*
X83803564Y-56938389D01*
G37*
G36*
X93803564Y-56938389D02*
G01*
X93994833Y-57017615D01*
X93994835Y-57017616D01*
X94051481Y-57055466D01*
X94166973Y-57132635D01*
X94313365Y-57279027D01*
X94428385Y-57451167D01*
X94507611Y-57642436D01*
X94548000Y-57845484D01*
X94548000Y-58052516D01*
X94507611Y-58255564D01*
X94442582Y-58412558D01*
X94428384Y-58446835D01*
X94313365Y-58618973D01*
X94166973Y-58765365D01*
X93994835Y-58880384D01*
X93994834Y-58880385D01*
X93994833Y-58880385D01*
X93803564Y-58959611D01*
X93600516Y-59000000D01*
X93393484Y-59000000D01*
X93190436Y-58959611D01*
X92999167Y-58880385D01*
X92999166Y-58880385D01*
X92999165Y-58880384D01*
X92827027Y-58765365D01*
X92680635Y-58618973D01*
X92565616Y-58446835D01*
X92551418Y-58412558D01*
X92486389Y-58255564D01*
X92446000Y-58052516D01*
X92446000Y-57845484D01*
X92486389Y-57642436D01*
X92565615Y-57451167D01*
X92680635Y-57279027D01*
X92827027Y-57132635D01*
X92942519Y-57055466D01*
X92999165Y-57017616D01*
X92999167Y-57017615D01*
X93190436Y-56938389D01*
X93393484Y-56898000D01*
X93600516Y-56898000D01*
X93803564Y-56938389D01*
X93803564Y-56938389D01*
G37*
G36*
X123687443Y-55814519D02*
G01*
X123753627Y-55821037D01*
X123923466Y-55872557D01*
X124079991Y-55956222D01*
X124115729Y-55985552D01*
X124217186Y-56068814D01*
X124300448Y-56170271D01*
X124329778Y-56206009D01*
X124413443Y-56362534D01*
X124464963Y-56532373D01*
X124482359Y-56709000D01*
X124464963Y-56885627D01*
X124413443Y-57055466D01*
X124329778Y-57211991D01*
X124300448Y-57247729D01*
X124217186Y-57349186D01*
X124115729Y-57432448D01*
X124079991Y-57461778D01*
X123923466Y-57545443D01*
X123753627Y-57596963D01*
X123687443Y-57603481D01*
X123621260Y-57610000D01*
X123532740Y-57610000D01*
X123466557Y-57603481D01*
X123400373Y-57596963D01*
X123230534Y-57545443D01*
X123074009Y-57461778D01*
X123038271Y-57432448D01*
X122936814Y-57349186D01*
X122853552Y-57247729D01*
X122824222Y-57211991D01*
X122740557Y-57055466D01*
X122689037Y-56885627D01*
X122671641Y-56709000D01*
X122689037Y-56532373D01*
X122740557Y-56362534D01*
X122824222Y-56206009D01*
X122853552Y-56170271D01*
X122936814Y-56068814D01*
X123038271Y-55985552D01*
X123074009Y-55956222D01*
X123230534Y-55872557D01*
X123400373Y-55821037D01*
X123466557Y-55814519D01*
X123532740Y-55808000D01*
X123621260Y-55808000D01*
X123687443Y-55814519D01*
X123687443Y-55814519D01*
G37*
G36*
X121147443Y-55814519D02*
G01*
X121213627Y-55821037D01*
X121383466Y-55872557D01*
X121539991Y-55956222D01*
X121575729Y-55985552D01*
X121677186Y-56068814D01*
X121760448Y-56170271D01*
X121789778Y-56206009D01*
X121873443Y-56362534D01*
X121924963Y-56532373D01*
X121942359Y-56709000D01*
X121924963Y-56885627D01*
X121873443Y-57055466D01*
X121789778Y-57211991D01*
X121760448Y-57247729D01*
X121677186Y-57349186D01*
X121575729Y-57432448D01*
X121539991Y-57461778D01*
X121383466Y-57545443D01*
X121213627Y-57596963D01*
X121147443Y-57603481D01*
X121081260Y-57610000D01*
X120992740Y-57610000D01*
X120926557Y-57603481D01*
X120860373Y-57596963D01*
X120690534Y-57545443D01*
X120534009Y-57461778D01*
X120498271Y-57432448D01*
X120396814Y-57349186D01*
X120313552Y-57247729D01*
X120284222Y-57211991D01*
X120200557Y-57055466D01*
X120149037Y-56885627D01*
X120131641Y-56709000D01*
X120149037Y-56532373D01*
X120200557Y-56362534D01*
X120284222Y-56206009D01*
X120313552Y-56170271D01*
X120396814Y-56068814D01*
X120498271Y-55985552D01*
X120534009Y-55956222D01*
X120690534Y-55872557D01*
X120860373Y-55821037D01*
X120926557Y-55814519D01*
X120992740Y-55808000D01*
X121081260Y-55808000D01*
X121147443Y-55814519D01*
X121147443Y-55814519D01*
G37*
G36*
X126227443Y-55814519D02*
G01*
X126293627Y-55821037D01*
X126463466Y-55872557D01*
X126619991Y-55956222D01*
X126655729Y-55985552D01*
X126757186Y-56068814D01*
X126840448Y-56170271D01*
X126869778Y-56206009D01*
X126953443Y-56362534D01*
X127004963Y-56532373D01*
X127022359Y-56709000D01*
X127004963Y-56885627D01*
X126953443Y-57055466D01*
X126869778Y-57211991D01*
X126840448Y-57247729D01*
X126757186Y-57349186D01*
X126655729Y-57432448D01*
X126619991Y-57461778D01*
X126463466Y-57545443D01*
X126293627Y-57596963D01*
X126227443Y-57603481D01*
X126161260Y-57610000D01*
X126072740Y-57610000D01*
X126006557Y-57603481D01*
X125940373Y-57596963D01*
X125770534Y-57545443D01*
X125614009Y-57461778D01*
X125578271Y-57432448D01*
X125476814Y-57349186D01*
X125393552Y-57247729D01*
X125364222Y-57211991D01*
X125280557Y-57055466D01*
X125229037Y-56885627D01*
X125211641Y-56709000D01*
X125229037Y-56532373D01*
X125280557Y-56362534D01*
X125364222Y-56206009D01*
X125393552Y-56170271D01*
X125476814Y-56068814D01*
X125578271Y-55985552D01*
X125614009Y-55956222D01*
X125770534Y-55872557D01*
X125940373Y-55821037D01*
X126006557Y-55814519D01*
X126072740Y-55808000D01*
X126161260Y-55808000D01*
X126227443Y-55814519D01*
X126227443Y-55814519D01*
G37*
G36*
X118607443Y-55814519D02*
G01*
X118673627Y-55821037D01*
X118843466Y-55872557D01*
X118999991Y-55956222D01*
X119035729Y-55985552D01*
X119137186Y-56068814D01*
X119220448Y-56170271D01*
X119249778Y-56206009D01*
X119333443Y-56362534D01*
X119384963Y-56532373D01*
X119402359Y-56709000D01*
X119384963Y-56885627D01*
X119333443Y-57055466D01*
X119249778Y-57211991D01*
X119220448Y-57247729D01*
X119137186Y-57349186D01*
X119035729Y-57432448D01*
X118999991Y-57461778D01*
X118843466Y-57545443D01*
X118673627Y-57596963D01*
X118607443Y-57603481D01*
X118541260Y-57610000D01*
X118452740Y-57610000D01*
X118386557Y-57603481D01*
X118320373Y-57596963D01*
X118150534Y-57545443D01*
X117994009Y-57461778D01*
X117958271Y-57432448D01*
X117856814Y-57349186D01*
X117773552Y-57247729D01*
X117744222Y-57211991D01*
X117660557Y-57055466D01*
X117609037Y-56885627D01*
X117591641Y-56709000D01*
X117609037Y-56532373D01*
X117660557Y-56362534D01*
X117744222Y-56206009D01*
X117773552Y-56170271D01*
X117856814Y-56068814D01*
X117958271Y-55985552D01*
X117994009Y-55956222D01*
X118150534Y-55872557D01*
X118320373Y-55821037D01*
X118386557Y-55814519D01*
X118452740Y-55808000D01*
X118541260Y-55808000D01*
X118607443Y-55814519D01*
X118607443Y-55814519D01*
G37*
G36*
X88803564Y-54838389D02*
G01*
X88994833Y-54917615D01*
X88994835Y-54917616D01*
X89058445Y-54960119D01*
X89166973Y-55032635D01*
X89313365Y-55179027D01*
X89428385Y-55351167D01*
X89507611Y-55542436D01*
X89548000Y-55745484D01*
X89548000Y-55952516D01*
X89507611Y-56155564D01*
X89486716Y-56206009D01*
X89428384Y-56346835D01*
X89313365Y-56518973D01*
X89166973Y-56665365D01*
X88994835Y-56780384D01*
X88994834Y-56780385D01*
X88994833Y-56780385D01*
X88803564Y-56859611D01*
X88600516Y-56900000D01*
X88393484Y-56900000D01*
X88190436Y-56859611D01*
X87999167Y-56780385D01*
X87999166Y-56780385D01*
X87999165Y-56780384D01*
X87827027Y-56665365D01*
X87680635Y-56518973D01*
X87565616Y-56346835D01*
X87507284Y-56206009D01*
X87486389Y-56155564D01*
X87446000Y-55952516D01*
X87446000Y-55745484D01*
X87486389Y-55542436D01*
X87565615Y-55351167D01*
X87680635Y-55179027D01*
X87827027Y-55032635D01*
X87935555Y-54960119D01*
X87999165Y-54917616D01*
X87999167Y-54917615D01*
X88190436Y-54838389D01*
X88393484Y-54798000D01*
X88600516Y-54798000D01*
X88803564Y-54838389D01*
X88803564Y-54838389D01*
G37*
G36*
X65037483Y-53477335D02*
G01*
X65206240Y-53547236D01*
X65358118Y-53648718D01*
X65487282Y-53777882D01*
X65588764Y-53929760D01*
X65658665Y-54098517D01*
X65694300Y-54277668D01*
X65694300Y-54460332D01*
X65658665Y-54639483D01*
X65588764Y-54808240D01*
X65487282Y-54960118D01*
X65358118Y-55089282D01*
X65206240Y-55190764D01*
X65037483Y-55260665D01*
X64858332Y-55296300D01*
X64675668Y-55296300D01*
X64496517Y-55260665D01*
X64327760Y-55190764D01*
X64175882Y-55089282D01*
X64046718Y-54960118D01*
X63945236Y-54808240D01*
X63875335Y-54639483D01*
X63839700Y-54460332D01*
X63839700Y-54277668D01*
X63875335Y-54098517D01*
X63945236Y-53929760D01*
X64046718Y-53777882D01*
X64175882Y-53648718D01*
X64327760Y-53547236D01*
X64496517Y-53477335D01*
X64675668Y-53441700D01*
X64858332Y-53441700D01*
X65037483Y-53477335D01*
X65037483Y-53477335D01*
G37*
G36*
X77737483Y-53477335D02*
G01*
X77906240Y-53547236D01*
X78058118Y-53648718D01*
X78187282Y-53777882D01*
X78288764Y-53929760D01*
X78358665Y-54098517D01*
X78394300Y-54277668D01*
X78394300Y-54460332D01*
X78358665Y-54639483D01*
X78288764Y-54808240D01*
X78187282Y-54960118D01*
X78058118Y-55089282D01*
X77906240Y-55190764D01*
X77737483Y-55260665D01*
X77558332Y-55296300D01*
X77375668Y-55296300D01*
X77196517Y-55260665D01*
X77027760Y-55190764D01*
X76875882Y-55089282D01*
X76746718Y-54960118D01*
X76645236Y-54808240D01*
X76575335Y-54639483D01*
X76539700Y-54460332D01*
X76539700Y-54277668D01*
X76575335Y-54098517D01*
X76645236Y-53929760D01*
X76746718Y-53777882D01*
X76875882Y-53648718D01*
X77027760Y-53547236D01*
X77196517Y-53477335D01*
X77375668Y-53441700D01*
X77558332Y-53441700D01*
X77737483Y-53477335D01*
X77737483Y-53477335D01*
G37*
G36*
X75197483Y-53477335D02*
G01*
X75366240Y-53547236D01*
X75518118Y-53648718D01*
X75647282Y-53777882D01*
X75748764Y-53929760D01*
X75818665Y-54098517D01*
X75854300Y-54277668D01*
X75854300Y-54460332D01*
X75818665Y-54639483D01*
X75748764Y-54808240D01*
X75647282Y-54960118D01*
X75518118Y-55089282D01*
X75366240Y-55190764D01*
X75197483Y-55260665D01*
X75018332Y-55296300D01*
X74835668Y-55296300D01*
X74656517Y-55260665D01*
X74487760Y-55190764D01*
X74335882Y-55089282D01*
X74206718Y-54960118D01*
X74105236Y-54808240D01*
X74035335Y-54639483D01*
X73999700Y-54460332D01*
X73999700Y-54277668D01*
X74035335Y-54098517D01*
X74105236Y-53929760D01*
X74206718Y-53777882D01*
X74335882Y-53648718D01*
X74487760Y-53547236D01*
X74656517Y-53477335D01*
X74835668Y-53441700D01*
X75018332Y-53441700D01*
X75197483Y-53477335D01*
X75197483Y-53477335D01*
G37*
G36*
X72657483Y-53477335D02*
G01*
X72826240Y-53547236D01*
X72978118Y-53648718D01*
X73107282Y-53777882D01*
X73208764Y-53929760D01*
X73278665Y-54098517D01*
X73314300Y-54277668D01*
X73314300Y-54460332D01*
X73278665Y-54639483D01*
X73208764Y-54808240D01*
X73107282Y-54960118D01*
X72978118Y-55089282D01*
X72826240Y-55190764D01*
X72657483Y-55260665D01*
X72478332Y-55296300D01*
X72295668Y-55296300D01*
X72116517Y-55260665D01*
X71947760Y-55190764D01*
X71795882Y-55089282D01*
X71666718Y-54960118D01*
X71565236Y-54808240D01*
X71495335Y-54639483D01*
X71459700Y-54460332D01*
X71459700Y-54277668D01*
X71495335Y-54098517D01*
X71565236Y-53929760D01*
X71666718Y-53777882D01*
X71795882Y-53648718D01*
X71947760Y-53547236D01*
X72116517Y-53477335D01*
X72295668Y-53441700D01*
X72478332Y-53441700D01*
X72657483Y-53477335D01*
X72657483Y-53477335D01*
G37*
G36*
X70117483Y-53477335D02*
G01*
X70286240Y-53547236D01*
X70438118Y-53648718D01*
X70567282Y-53777882D01*
X70668764Y-53929760D01*
X70738665Y-54098517D01*
X70774300Y-54277668D01*
X70774300Y-54460332D01*
X70738665Y-54639483D01*
X70668764Y-54808240D01*
X70567282Y-54960118D01*
X70438118Y-55089282D01*
X70286240Y-55190764D01*
X70117483Y-55260665D01*
X69938332Y-55296300D01*
X69755668Y-55296300D01*
X69576517Y-55260665D01*
X69407760Y-55190764D01*
X69255882Y-55089282D01*
X69126718Y-54960118D01*
X69025236Y-54808240D01*
X68955335Y-54639483D01*
X68919700Y-54460332D01*
X68919700Y-54277668D01*
X68955335Y-54098517D01*
X69025236Y-53929760D01*
X69126718Y-53777882D01*
X69255882Y-53648718D01*
X69407760Y-53547236D01*
X69576517Y-53477335D01*
X69755668Y-53441700D01*
X69938332Y-53441700D01*
X70117483Y-53477335D01*
X70117483Y-53477335D01*
G37*
G36*
X67577483Y-53477335D02*
G01*
X67746240Y-53547236D01*
X67898118Y-53648718D01*
X68027282Y-53777882D01*
X68128764Y-53929760D01*
X68198665Y-54098517D01*
X68234300Y-54277668D01*
X68234300Y-54460332D01*
X68198665Y-54639483D01*
X68128764Y-54808240D01*
X68027282Y-54960118D01*
X67898118Y-55089282D01*
X67746240Y-55190764D01*
X67577483Y-55260665D01*
X67398332Y-55296300D01*
X67215668Y-55296300D01*
X67036517Y-55260665D01*
X66867760Y-55190764D01*
X66715882Y-55089282D01*
X66586718Y-54960118D01*
X66485236Y-54808240D01*
X66415335Y-54639483D01*
X66379700Y-54460332D01*
X66379700Y-54277668D01*
X66415335Y-54098517D01*
X66485236Y-53929760D01*
X66586718Y-53777882D01*
X66715882Y-53648718D01*
X66867760Y-53547236D01*
X67036517Y-53477335D01*
X67215668Y-53441700D01*
X67398332Y-53441700D01*
X67577483Y-53477335D01*
X67577483Y-53477335D01*
G37*
G36*
X62497483Y-53477335D02*
G01*
X62666240Y-53547236D01*
X62818118Y-53648718D01*
X62947282Y-53777882D01*
X63048764Y-53929760D01*
X63118665Y-54098517D01*
X63154300Y-54277668D01*
X63154300Y-54460332D01*
X63118665Y-54639483D01*
X63048764Y-54808240D01*
X62947282Y-54960118D01*
X62818118Y-55089282D01*
X62666240Y-55190764D01*
X62497483Y-55260665D01*
X62318332Y-55296300D01*
X62135668Y-55296300D01*
X61956517Y-55260665D01*
X61787760Y-55190764D01*
X61635882Y-55089282D01*
X61506718Y-54960118D01*
X61405236Y-54808240D01*
X61335335Y-54639483D01*
X61299700Y-54460332D01*
X61299700Y-54277668D01*
X61335335Y-54098517D01*
X61405236Y-53929760D01*
X61506718Y-53777882D01*
X61635882Y-53648718D01*
X61787760Y-53547236D01*
X61956517Y-53477335D01*
X62135668Y-53441700D01*
X62318332Y-53441700D01*
X62497483Y-53477335D01*
X62497483Y-53477335D01*
G37*
G36*
X59957483Y-53477335D02*
G01*
X60126240Y-53547236D01*
X60278118Y-53648718D01*
X60407282Y-53777882D01*
X60508764Y-53929760D01*
X60578665Y-54098517D01*
X60614300Y-54277668D01*
X60614300Y-54460332D01*
X60578665Y-54639483D01*
X60508764Y-54808240D01*
X60407282Y-54960118D01*
X60278118Y-55089282D01*
X60126240Y-55190764D01*
X59957483Y-55260665D01*
X59778332Y-55296300D01*
X59595668Y-55296300D01*
X59416517Y-55260665D01*
X59247760Y-55190764D01*
X59095882Y-55089282D01*
X58966718Y-54960118D01*
X58865236Y-54808240D01*
X58795335Y-54639483D01*
X58759700Y-54460332D01*
X58759700Y-54277668D01*
X58795335Y-54098517D01*
X58865236Y-53929760D01*
X58966718Y-53777882D01*
X59095882Y-53648718D01*
X59247760Y-53547236D01*
X59416517Y-53477335D01*
X59595668Y-53441700D01*
X59778332Y-53441700D01*
X59957483Y-53477335D01*
X59957483Y-53477335D01*
G37*
G36*
X57417483Y-53477335D02*
G01*
X57586240Y-53547236D01*
X57738118Y-53648718D01*
X57867282Y-53777882D01*
X57968764Y-53929760D01*
X58038665Y-54098517D01*
X58074300Y-54277668D01*
X58074300Y-54460332D01*
X58038665Y-54639483D01*
X57968764Y-54808240D01*
X57867282Y-54960118D01*
X57738118Y-55089282D01*
X57586240Y-55190764D01*
X57417483Y-55260665D01*
X57238332Y-55296300D01*
X57055668Y-55296300D01*
X56876517Y-55260665D01*
X56707760Y-55190764D01*
X56555882Y-55089282D01*
X56426718Y-54960118D01*
X56325236Y-54808240D01*
X56255335Y-54639483D01*
X56219700Y-54460332D01*
X56219700Y-54277668D01*
X56255335Y-54098517D01*
X56325236Y-53929760D01*
X56426718Y-53777882D01*
X56555882Y-53648718D01*
X56707760Y-53547236D01*
X56876517Y-53477335D01*
X57055668Y-53441700D01*
X57238332Y-53441700D01*
X57417483Y-53477335D01*
X57417483Y-53477335D01*
G37*
G36*
X54877483Y-53477335D02*
G01*
X55046240Y-53547236D01*
X55198118Y-53648718D01*
X55327282Y-53777882D01*
X55428764Y-53929760D01*
X55498665Y-54098517D01*
X55534300Y-54277668D01*
X55534300Y-54460332D01*
X55498665Y-54639483D01*
X55428764Y-54808240D01*
X55327282Y-54960118D01*
X55198118Y-55089282D01*
X55046240Y-55190764D01*
X54877483Y-55260665D01*
X54698332Y-55296300D01*
X54515668Y-55296300D01*
X54336517Y-55260665D01*
X54167760Y-55190764D01*
X54015882Y-55089282D01*
X53886718Y-54960118D01*
X53785236Y-54808240D01*
X53715335Y-54639483D01*
X53679700Y-54460332D01*
X53679700Y-54277668D01*
X53715335Y-54098517D01*
X53785236Y-53929760D01*
X53886718Y-53777882D01*
X54015882Y-53648718D01*
X54167760Y-53547236D01*
X54336517Y-53477335D01*
X54515668Y-53441700D01*
X54698332Y-53441700D01*
X54877483Y-53477335D01*
X54877483Y-53477335D01*
G37*
G36*
X50454300Y-55296300D02*
G01*
X48599700Y-55296300D01*
X48599700Y-53441700D01*
X50454300Y-53441700D01*
X50454300Y-55296300D01*
X50454300Y-55296300D01*
G37*
G36*
X52337483Y-53477335D02*
G01*
X52506240Y-53547236D01*
X52658118Y-53648718D01*
X52787282Y-53777882D01*
X52888764Y-53929760D01*
X52958665Y-54098517D01*
X52994300Y-54277668D01*
X52994300Y-54460332D01*
X52958665Y-54639483D01*
X52888764Y-54808240D01*
X52787282Y-54960118D01*
X52658118Y-55089282D01*
X52506240Y-55190764D01*
X52337483Y-55260665D01*
X52158332Y-55296300D01*
X51975668Y-55296300D01*
X51796517Y-55260665D01*
X51627760Y-55190764D01*
X51475882Y-55089282D01*
X51346718Y-54960118D01*
X51245236Y-54808240D01*
X51175335Y-54639483D01*
X51139700Y-54460332D01*
X51139700Y-54277668D01*
X51175335Y-54098517D01*
X51245236Y-53929760D01*
X51346718Y-53777882D01*
X51475882Y-53648718D01*
X51627760Y-53547236D01*
X51796517Y-53477335D01*
X51975668Y-53441700D01*
X52158332Y-53441700D01*
X52337483Y-53477335D01*
X52337483Y-53477335D01*
G37*
G36*
X109998000Y-51350000D02*
G01*
X108296000Y-51350000D01*
X108296000Y-49648000D01*
X109998000Y-49648000D01*
X109998000Y-51350000D01*
X109998000Y-51350000D01*
G37*
G36*
X118095228Y-49680703D02*
G01*
X118250100Y-49744853D01*
X118389481Y-49837985D01*
X118508015Y-49956519D01*
X118601147Y-50095900D01*
X118665297Y-50250772D01*
X118698000Y-50415184D01*
X118698000Y-50582816D01*
X118665297Y-50747228D01*
X118601147Y-50902100D01*
X118508015Y-51041481D01*
X118389481Y-51160015D01*
X118250100Y-51253147D01*
X118095228Y-51317297D01*
X117930816Y-51350000D01*
X117763184Y-51350000D01*
X117598772Y-51317297D01*
X117443900Y-51253147D01*
X117304519Y-51160015D01*
X117185985Y-51041481D01*
X117092853Y-50902100D01*
X117028703Y-50747228D01*
X116996000Y-50582816D01*
X116996000Y-50415184D01*
X117028703Y-50250772D01*
X117092853Y-50095900D01*
X117185985Y-49956519D01*
X117304519Y-49837985D01*
X117443900Y-49744853D01*
X117598772Y-49680703D01*
X117763184Y-49648000D01*
X117930816Y-49648000D01*
X118095228Y-49680703D01*
X118095228Y-49680703D01*
G37*
G36*
X126498000Y-51350000D02*
G01*
X124796000Y-51350000D01*
X124796000Y-49648000D01*
X126498000Y-49648000D01*
X126498000Y-51350000D01*
X126498000Y-51350000D01*
G37*
G36*
X101595228Y-49680703D02*
G01*
X101750100Y-49744853D01*
X101889481Y-49837985D01*
X102008015Y-49956519D01*
X102101147Y-50095900D01*
X102165297Y-50250772D01*
X102198000Y-50415184D01*
X102198000Y-50582816D01*
X102165297Y-50747228D01*
X102101147Y-50902100D01*
X102008015Y-51041481D01*
X101889481Y-51160015D01*
X101750100Y-51253147D01*
X101595228Y-51317297D01*
X101430816Y-51350000D01*
X101263184Y-51350000D01*
X101098772Y-51317297D01*
X100943900Y-51253147D01*
X100804519Y-51160015D01*
X100685985Y-51041481D01*
X100592853Y-50902100D01*
X100528703Y-50747228D01*
X100496000Y-50582816D01*
X100496000Y-50415184D01*
X100528703Y-50250772D01*
X100592853Y-50095900D01*
X100685985Y-49956519D01*
X100804519Y-49837985D01*
X100943900Y-49744853D01*
X101098772Y-49680703D01*
X101263184Y-49648000D01*
X101430816Y-49648000D01*
X101595228Y-49680703D01*
X101595228Y-49680703D01*
G37*
G36*
X96198000Y-51350000D02*
G01*
X94496000Y-51350000D01*
X94496000Y-49648000D01*
X96198000Y-49648000D01*
X96198000Y-51350000D01*
X96198000Y-51350000D01*
G37*
G36*
X87795228Y-49680703D02*
G01*
X87950100Y-49744853D01*
X88089481Y-49837985D01*
X88208015Y-49956519D01*
X88301147Y-50095900D01*
X88365297Y-50250772D01*
X88398000Y-50415184D01*
X88398000Y-50582816D01*
X88365297Y-50747228D01*
X88301147Y-50902100D01*
X88208015Y-51041481D01*
X88089481Y-51160015D01*
X87950100Y-51253147D01*
X87795228Y-51317297D01*
X87630816Y-51350000D01*
X87463184Y-51350000D01*
X87298772Y-51317297D01*
X87143900Y-51253147D01*
X87004519Y-51160015D01*
X86885985Y-51041481D01*
X86792853Y-50902100D01*
X86728703Y-50747228D01*
X86696000Y-50582816D01*
X86696000Y-50415184D01*
X86728703Y-50250772D01*
X86792853Y-50095900D01*
X86885985Y-49956519D01*
X87004519Y-49837985D01*
X87143900Y-49744853D01*
X87298772Y-49680703D01*
X87463184Y-49648000D01*
X87630816Y-49648000D01*
X87795228Y-49680703D01*
X87795228Y-49680703D01*
G37*
G36*
X90523000Y-51150000D02*
G01*
X89221000Y-51150000D01*
X89221000Y-49848000D01*
X90523000Y-49848000D01*
X90523000Y-51150000D01*
X90523000Y-51150000D01*
G37*
G36*
X123973000Y-51150000D02*
G01*
X122671000Y-51150000D01*
X122671000Y-49848000D01*
X123973000Y-49848000D01*
X123973000Y-51150000D01*
X123973000Y-51150000D01*
G37*
G36*
X120823000Y-51150000D02*
G01*
X119521000Y-51150000D01*
X119521000Y-49848000D01*
X120823000Y-49848000D01*
X120823000Y-51150000D01*
X120823000Y-51150000D01*
G37*
G36*
X104323000Y-51150000D02*
G01*
X103021000Y-51150000D01*
X103021000Y-49848000D01*
X104323000Y-49848000D01*
X104323000Y-51150000D01*
X104323000Y-51150000D01*
G37*
G36*
X107473000Y-51150000D02*
G01*
X106171000Y-51150000D01*
X106171000Y-49848000D01*
X107473000Y-49848000D01*
X107473000Y-51150000D01*
X107473000Y-51150000D01*
G37*
G36*
X93673000Y-51150000D02*
G01*
X92371000Y-51150000D01*
X92371000Y-49848000D01*
X93673000Y-49848000D01*
X93673000Y-51150000D01*
X93673000Y-51150000D01*
G37*
G36*
X81907442Y-47914518D02*
G01*
X81973627Y-47921037D01*
X82143466Y-47972557D01*
X82299991Y-48056222D01*
X82332394Y-48082815D01*
X82437186Y-48168814D01*
X82520448Y-48270271D01*
X82549778Y-48306009D01*
X82633443Y-48462534D01*
X82684963Y-48632373D01*
X82702359Y-48809000D01*
X82684963Y-48985627D01*
X82633443Y-49155466D01*
X82549778Y-49311991D01*
X82520448Y-49347729D01*
X82437186Y-49449186D01*
X82335729Y-49532448D01*
X82299991Y-49561778D01*
X82143466Y-49645443D01*
X81973627Y-49696963D01*
X81907442Y-49703482D01*
X81841260Y-49710000D01*
X81752740Y-49710000D01*
X81686558Y-49703482D01*
X81620373Y-49696963D01*
X81450534Y-49645443D01*
X81294009Y-49561778D01*
X81258271Y-49532448D01*
X81156814Y-49449186D01*
X81073552Y-49347729D01*
X81044222Y-49311991D01*
X80960557Y-49155466D01*
X80909037Y-48985627D01*
X80891641Y-48809000D01*
X80909037Y-48632373D01*
X80960557Y-48462534D01*
X81044222Y-48306009D01*
X81073552Y-48270271D01*
X81156814Y-48168814D01*
X81261606Y-48082815D01*
X81294009Y-48056222D01*
X81450534Y-47972557D01*
X81620373Y-47921037D01*
X81686557Y-47914519D01*
X81752740Y-47908000D01*
X81841260Y-47908000D01*
X81907442Y-47914518D01*
X81907442Y-47914518D01*
G37*
G36*
X101595228Y-47180703D02*
G01*
X101750100Y-47244853D01*
X101889481Y-47337985D01*
X102008015Y-47456519D01*
X102101147Y-47595900D01*
X102165297Y-47750772D01*
X102198000Y-47915184D01*
X102198000Y-48082816D01*
X102165297Y-48247228D01*
X102101147Y-48402100D01*
X102008015Y-48541481D01*
X101889481Y-48660015D01*
X101750100Y-48753147D01*
X101595228Y-48817297D01*
X101430816Y-48850000D01*
X101263184Y-48850000D01*
X101098772Y-48817297D01*
X100943900Y-48753147D01*
X100804519Y-48660015D01*
X100685985Y-48541481D01*
X100592853Y-48402100D01*
X100528703Y-48247228D01*
X100496000Y-48082816D01*
X100496000Y-47915184D01*
X100528703Y-47750772D01*
X100592853Y-47595900D01*
X100685985Y-47456519D01*
X100804519Y-47337985D01*
X100943900Y-47244853D01*
X101098772Y-47180703D01*
X101263184Y-47148000D01*
X101430816Y-47148000D01*
X101595228Y-47180703D01*
X101595228Y-47180703D01*
G37*
G36*
X109998000Y-48850000D02*
G01*
X108296000Y-48850000D01*
X108296000Y-47148000D01*
X109998000Y-47148000D01*
X109998000Y-48850000D01*
X109998000Y-48850000D01*
G37*
G36*
X126498000Y-48850000D02*
G01*
X124796000Y-48850000D01*
X124796000Y-47148000D01*
X126498000Y-47148000D01*
X126498000Y-48850000D01*
X126498000Y-48850000D01*
G37*
G36*
X87795228Y-47180703D02*
G01*
X87950100Y-47244853D01*
X88089481Y-47337985D01*
X88208015Y-47456519D01*
X88301147Y-47595900D01*
X88365297Y-47750772D01*
X88398000Y-47915184D01*
X88398000Y-48082816D01*
X88365297Y-48247228D01*
X88301147Y-48402100D01*
X88208015Y-48541481D01*
X88089481Y-48660015D01*
X87950100Y-48753147D01*
X87795228Y-48817297D01*
X87630816Y-48850000D01*
X87463184Y-48850000D01*
X87298772Y-48817297D01*
X87143900Y-48753147D01*
X87004519Y-48660015D01*
X86885985Y-48541481D01*
X86792853Y-48402100D01*
X86728703Y-48247228D01*
X86696000Y-48082816D01*
X86696000Y-47915184D01*
X86728703Y-47750772D01*
X86792853Y-47595900D01*
X86885985Y-47456519D01*
X87004519Y-47337985D01*
X87143900Y-47244853D01*
X87298772Y-47180703D01*
X87463184Y-47148000D01*
X87630816Y-47148000D01*
X87795228Y-47180703D01*
X87795228Y-47180703D01*
G37*
G36*
X118095228Y-47180703D02*
G01*
X118250100Y-47244853D01*
X118389481Y-47337985D01*
X118508015Y-47456519D01*
X118601147Y-47595900D01*
X118665297Y-47750772D01*
X118698000Y-47915184D01*
X118698000Y-48082816D01*
X118665297Y-48247228D01*
X118601147Y-48402100D01*
X118508015Y-48541481D01*
X118389481Y-48660015D01*
X118250100Y-48753147D01*
X118095228Y-48817297D01*
X117930816Y-48850000D01*
X117763184Y-48850000D01*
X117598772Y-48817297D01*
X117443900Y-48753147D01*
X117304519Y-48660015D01*
X117185985Y-48541481D01*
X117092853Y-48402100D01*
X117028703Y-48247228D01*
X116996000Y-48082816D01*
X116996000Y-47915184D01*
X117028703Y-47750772D01*
X117092853Y-47595900D01*
X117185985Y-47456519D01*
X117304519Y-47337985D01*
X117443900Y-47244853D01*
X117598772Y-47180703D01*
X117763184Y-47148000D01*
X117930816Y-47148000D01*
X118095228Y-47180703D01*
X118095228Y-47180703D01*
G37*
G36*
X96198000Y-48850000D02*
G01*
X94496000Y-48850000D01*
X94496000Y-47148000D01*
X96198000Y-47148000D01*
X96198000Y-48850000D01*
X96198000Y-48850000D01*
G37*
G36*
X104323000Y-48650000D02*
G01*
X103021000Y-48650000D01*
X103021000Y-47348000D01*
X104323000Y-47348000D01*
X104323000Y-48650000D01*
X104323000Y-48650000D01*
G37*
G36*
X90523000Y-48650000D02*
G01*
X89221000Y-48650000D01*
X89221000Y-47348000D01*
X90523000Y-47348000D01*
X90523000Y-48650000D01*
X90523000Y-48650000D01*
G37*
G36*
X107473000Y-48650000D02*
G01*
X106171000Y-48650000D01*
X106171000Y-47348000D01*
X107473000Y-47348000D01*
X107473000Y-48650000D01*
X107473000Y-48650000D01*
G37*
G36*
X93673000Y-48650000D02*
G01*
X92371000Y-48650000D01*
X92371000Y-47348000D01*
X93673000Y-47348000D01*
X93673000Y-48650000D01*
X93673000Y-48650000D01*
G37*
G36*
X123973000Y-48650000D02*
G01*
X122671000Y-48650000D01*
X122671000Y-47348000D01*
X123973000Y-47348000D01*
X123973000Y-48650000D01*
X123973000Y-48650000D01*
G37*
G36*
X120823000Y-48650000D02*
G01*
X119521000Y-48650000D01*
X119521000Y-47348000D01*
X120823000Y-47348000D01*
X120823000Y-48650000D01*
X120823000Y-48650000D01*
G37*
G36*
X81907443Y-45374519D02*
G01*
X81973627Y-45381037D01*
X82143466Y-45432557D01*
X82299991Y-45516222D01*
X82335729Y-45545552D01*
X82437186Y-45628814D01*
X82520448Y-45730271D01*
X82549778Y-45766009D01*
X82633443Y-45922534D01*
X82684963Y-46092373D01*
X82702359Y-46269000D01*
X82684963Y-46445627D01*
X82633443Y-46615466D01*
X82549778Y-46771991D01*
X82520448Y-46807729D01*
X82437186Y-46909186D01*
X82335729Y-46992448D01*
X82299991Y-47021778D01*
X82143466Y-47105443D01*
X81973627Y-47156963D01*
X81907443Y-47163481D01*
X81841260Y-47170000D01*
X81752740Y-47170000D01*
X81686557Y-47163481D01*
X81620373Y-47156963D01*
X81450534Y-47105443D01*
X81294009Y-47021778D01*
X81258271Y-46992448D01*
X81156814Y-46909186D01*
X81073552Y-46807729D01*
X81044222Y-46771991D01*
X80960557Y-46615466D01*
X80909037Y-46445627D01*
X80891641Y-46269000D01*
X80909037Y-46092373D01*
X80960557Y-45922534D01*
X81044222Y-45766009D01*
X81073552Y-45730271D01*
X81156814Y-45628814D01*
X81258271Y-45545552D01*
X81294009Y-45516222D01*
X81450534Y-45432557D01*
X81620373Y-45381037D01*
X81686557Y-45374519D01*
X81752740Y-45368000D01*
X81841260Y-45368000D01*
X81907443Y-45374519D01*
X81907443Y-45374519D01*
G37*
G36*
X87795228Y-44680703D02*
G01*
X87950100Y-44744853D01*
X88089481Y-44837985D01*
X88208015Y-44956519D01*
X88301147Y-45095900D01*
X88365297Y-45250772D01*
X88398000Y-45415184D01*
X88398000Y-45582816D01*
X88365297Y-45747228D01*
X88301147Y-45902100D01*
X88208015Y-46041481D01*
X88089481Y-46160015D01*
X87950100Y-46253147D01*
X87795228Y-46317297D01*
X87630816Y-46350000D01*
X87463184Y-46350000D01*
X87298772Y-46317297D01*
X87143900Y-46253147D01*
X87004519Y-46160015D01*
X86885985Y-46041481D01*
X86792853Y-45902100D01*
X86728703Y-45747228D01*
X86696000Y-45582816D01*
X86696000Y-45415184D01*
X86728703Y-45250772D01*
X86792853Y-45095900D01*
X86885985Y-44956519D01*
X87004519Y-44837985D01*
X87143900Y-44744853D01*
X87298772Y-44680703D01*
X87463184Y-44648000D01*
X87630816Y-44648000D01*
X87795228Y-44680703D01*
X87795228Y-44680703D01*
G37*
G36*
X96198000Y-46350000D02*
G01*
X94496000Y-46350000D01*
X94496000Y-44648000D01*
X96198000Y-44648000D01*
X96198000Y-46350000D01*
X96198000Y-46350000D01*
G37*
G36*
X126498000Y-46350000D02*
G01*
X124796000Y-46350000D01*
X124796000Y-44648000D01*
X126498000Y-44648000D01*
X126498000Y-46350000D01*
X126498000Y-46350000D01*
G37*
G36*
X118095228Y-44680703D02*
G01*
X118250100Y-44744853D01*
X118389481Y-44837985D01*
X118508015Y-44956519D01*
X118601147Y-45095900D01*
X118665297Y-45250772D01*
X118698000Y-45415184D01*
X118698000Y-45582816D01*
X118665297Y-45747228D01*
X118601147Y-45902100D01*
X118508015Y-46041481D01*
X118389481Y-46160015D01*
X118250100Y-46253147D01*
X118095228Y-46317297D01*
X117930816Y-46350000D01*
X117763184Y-46350000D01*
X117598772Y-46317297D01*
X117443900Y-46253147D01*
X117304519Y-46160015D01*
X117185985Y-46041481D01*
X117092853Y-45902100D01*
X117028703Y-45747228D01*
X116996000Y-45582816D01*
X116996000Y-45415184D01*
X117028703Y-45250772D01*
X117092853Y-45095900D01*
X117185985Y-44956519D01*
X117304519Y-44837985D01*
X117443900Y-44744853D01*
X117598772Y-44680703D01*
X117763184Y-44648000D01*
X117930816Y-44648000D01*
X118095228Y-44680703D01*
X118095228Y-44680703D01*
G37*
G36*
X109998000Y-46350000D02*
G01*
X108296000Y-46350000D01*
X108296000Y-44648000D01*
X109998000Y-44648000D01*
X109998000Y-46350000D01*
X109998000Y-46350000D01*
G37*
G36*
X101595228Y-44680703D02*
G01*
X101750100Y-44744853D01*
X101889481Y-44837985D01*
X102008015Y-44956519D01*
X102101147Y-45095900D01*
X102165297Y-45250772D01*
X102198000Y-45415184D01*
X102198000Y-45582816D01*
X102165297Y-45747228D01*
X102101147Y-45902100D01*
X102008015Y-46041481D01*
X101889481Y-46160015D01*
X101750100Y-46253147D01*
X101595228Y-46317297D01*
X101430816Y-46350000D01*
X101263184Y-46350000D01*
X101098772Y-46317297D01*
X100943900Y-46253147D01*
X100804519Y-46160015D01*
X100685985Y-46041481D01*
X100592853Y-45902100D01*
X100528703Y-45747228D01*
X100496000Y-45582816D01*
X100496000Y-45415184D01*
X100528703Y-45250772D01*
X100592853Y-45095900D01*
X100685985Y-44956519D01*
X100804519Y-44837985D01*
X100943900Y-44744853D01*
X101098772Y-44680703D01*
X101263184Y-44648000D01*
X101430816Y-44648000D01*
X101595228Y-44680703D01*
X101595228Y-44680703D01*
G37*
G36*
X104323000Y-46150000D02*
G01*
X103021000Y-46150000D01*
X103021000Y-44848000D01*
X104323000Y-44848000D01*
X104323000Y-46150000D01*
X104323000Y-46150000D01*
G37*
G36*
X90523000Y-46150000D02*
G01*
X89221000Y-46150000D01*
X89221000Y-44848000D01*
X90523000Y-44848000D01*
X90523000Y-46150000D01*
X90523000Y-46150000D01*
G37*
G36*
X107473000Y-46150000D02*
G01*
X106171000Y-46150000D01*
X106171000Y-44848000D01*
X107473000Y-44848000D01*
X107473000Y-46150000D01*
X107473000Y-46150000D01*
G37*
G36*
X93673000Y-46150000D02*
G01*
X92371000Y-46150000D01*
X92371000Y-44848000D01*
X93673000Y-44848000D01*
X93673000Y-46150000D01*
X93673000Y-46150000D01*
G37*
G36*
X123973000Y-46150000D02*
G01*
X122671000Y-46150000D01*
X122671000Y-44848000D01*
X123973000Y-44848000D01*
X123973000Y-46150000D01*
X123973000Y-46150000D01*
G37*
G36*
X120823000Y-46150000D02*
G01*
X119521000Y-46150000D01*
X119521000Y-44848000D01*
X120823000Y-44848000D01*
X120823000Y-46150000D01*
X120823000Y-46150000D01*
G37*
G36*
X81907442Y-42834518D02*
G01*
X81973627Y-42841037D01*
X82143466Y-42892557D01*
X82299991Y-42976222D01*
X82335729Y-43005552D01*
X82437186Y-43088814D01*
X82520448Y-43190271D01*
X82549778Y-43226009D01*
X82633443Y-43382534D01*
X82684963Y-43552373D01*
X82702359Y-43729000D01*
X82684963Y-43905627D01*
X82633443Y-44075466D01*
X82549778Y-44231991D01*
X82520448Y-44267729D01*
X82437186Y-44369186D01*
X82335729Y-44452448D01*
X82299991Y-44481778D01*
X82143466Y-44565443D01*
X81973627Y-44616963D01*
X81907442Y-44623482D01*
X81841260Y-44630000D01*
X81752740Y-44630000D01*
X81686558Y-44623482D01*
X81620373Y-44616963D01*
X81450534Y-44565443D01*
X81294009Y-44481778D01*
X81258271Y-44452448D01*
X81156814Y-44369186D01*
X81073552Y-44267729D01*
X81044222Y-44231991D01*
X80960557Y-44075466D01*
X80909037Y-43905627D01*
X80891641Y-43729000D01*
X80909037Y-43552373D01*
X80960557Y-43382534D01*
X81044222Y-43226009D01*
X81073552Y-43190271D01*
X81156814Y-43088814D01*
X81258271Y-43005552D01*
X81294009Y-42976222D01*
X81450534Y-42892557D01*
X81620373Y-42841037D01*
X81686558Y-42834518D01*
X81752740Y-42828000D01*
X81841260Y-42828000D01*
X81907442Y-42834518D01*
X81907442Y-42834518D01*
G37*
G36*
X96198000Y-43850000D02*
G01*
X94496000Y-43850000D01*
X94496000Y-42148000D01*
X96198000Y-42148000D01*
X96198000Y-43850000D01*
X96198000Y-43850000D01*
G37*
G36*
X109998000Y-43850000D02*
G01*
X108296000Y-43850000D01*
X108296000Y-42148000D01*
X109998000Y-42148000D01*
X109998000Y-43850000D01*
X109998000Y-43850000D01*
G37*
G36*
X118095228Y-42180703D02*
G01*
X118250100Y-42244853D01*
X118389481Y-42337985D01*
X118508015Y-42456519D01*
X118601147Y-42595900D01*
X118665297Y-42750772D01*
X118698000Y-42915184D01*
X118698000Y-43082816D01*
X118665297Y-43247228D01*
X118601147Y-43402100D01*
X118508015Y-43541481D01*
X118389481Y-43660015D01*
X118250100Y-43753147D01*
X118095228Y-43817297D01*
X117930816Y-43850000D01*
X117763184Y-43850000D01*
X117598772Y-43817297D01*
X117443900Y-43753147D01*
X117304519Y-43660015D01*
X117185985Y-43541481D01*
X117092853Y-43402100D01*
X117028703Y-43247228D01*
X116996000Y-43082816D01*
X116996000Y-42915184D01*
X117028703Y-42750772D01*
X117092853Y-42595900D01*
X117185985Y-42456519D01*
X117304519Y-42337985D01*
X117443900Y-42244853D01*
X117598772Y-42180703D01*
X117763184Y-42148000D01*
X117930816Y-42148000D01*
X118095228Y-42180703D01*
X118095228Y-42180703D01*
G37*
G36*
X126498000Y-43850000D02*
G01*
X124796000Y-43850000D01*
X124796000Y-42148000D01*
X126498000Y-42148000D01*
X126498000Y-43850000D01*
X126498000Y-43850000D01*
G37*
G36*
X101595228Y-42180703D02*
G01*
X101750100Y-42244853D01*
X101889481Y-42337985D01*
X102008015Y-42456519D01*
X102101147Y-42595900D01*
X102165297Y-42750772D01*
X102198000Y-42915184D01*
X102198000Y-43082816D01*
X102165297Y-43247228D01*
X102101147Y-43402100D01*
X102008015Y-43541481D01*
X101889481Y-43660015D01*
X101750100Y-43753147D01*
X101595228Y-43817297D01*
X101430816Y-43850000D01*
X101263184Y-43850000D01*
X101098772Y-43817297D01*
X100943900Y-43753147D01*
X100804519Y-43660015D01*
X100685985Y-43541481D01*
X100592853Y-43402100D01*
X100528703Y-43247228D01*
X100496000Y-43082816D01*
X100496000Y-42915184D01*
X100528703Y-42750772D01*
X100592853Y-42595900D01*
X100685985Y-42456519D01*
X100804519Y-42337985D01*
X100943900Y-42244853D01*
X101098772Y-42180703D01*
X101263184Y-42148000D01*
X101430816Y-42148000D01*
X101595228Y-42180703D01*
X101595228Y-42180703D01*
G37*
G36*
X87795228Y-42180703D02*
G01*
X87950100Y-42244853D01*
X88089481Y-42337985D01*
X88208015Y-42456519D01*
X88301147Y-42595900D01*
X88365297Y-42750772D01*
X88398000Y-42915184D01*
X88398000Y-43082816D01*
X88365297Y-43247228D01*
X88301147Y-43402100D01*
X88208015Y-43541481D01*
X88089481Y-43660015D01*
X87950100Y-43753147D01*
X87795228Y-43817297D01*
X87630816Y-43850000D01*
X87463184Y-43850000D01*
X87298772Y-43817297D01*
X87143900Y-43753147D01*
X87004519Y-43660015D01*
X86885985Y-43541481D01*
X86792853Y-43402100D01*
X86728703Y-43247228D01*
X86696000Y-43082816D01*
X86696000Y-42915184D01*
X86728703Y-42750772D01*
X86792853Y-42595900D01*
X86885985Y-42456519D01*
X87004519Y-42337985D01*
X87143900Y-42244853D01*
X87298772Y-42180703D01*
X87463184Y-42148000D01*
X87630816Y-42148000D01*
X87795228Y-42180703D01*
X87795228Y-42180703D01*
G37*
G36*
X93673000Y-43650000D02*
G01*
X92371000Y-43650000D01*
X92371000Y-42348000D01*
X93673000Y-42348000D01*
X93673000Y-43650000D01*
X93673000Y-43650000D01*
G37*
G36*
X90523000Y-43650000D02*
G01*
X89221000Y-43650000D01*
X89221000Y-42348000D01*
X90523000Y-42348000D01*
X90523000Y-43650000D01*
X90523000Y-43650000D01*
G37*
G36*
X104323000Y-43650000D02*
G01*
X103021000Y-43650000D01*
X103021000Y-42348000D01*
X104323000Y-42348000D01*
X104323000Y-43650000D01*
X104323000Y-43650000D01*
G37*
G36*
X107473000Y-43650000D02*
G01*
X106171000Y-43650000D01*
X106171000Y-42348000D01*
X107473000Y-42348000D01*
X107473000Y-43650000D01*
X107473000Y-43650000D01*
G37*
G36*
X120823000Y-43650000D02*
G01*
X119521000Y-43650000D01*
X119521000Y-42348000D01*
X120823000Y-42348000D01*
X120823000Y-43650000D01*
X120823000Y-43650000D01*
G37*
G36*
X123973000Y-43650000D02*
G01*
X122671000Y-43650000D01*
X122671000Y-42348000D01*
X123973000Y-42348000D01*
X123973000Y-43650000D01*
X123973000Y-43650000D01*
G37*
G36*
X81907442Y-40294518D02*
G01*
X81973627Y-40301037D01*
X82143466Y-40352557D01*
X82299991Y-40436222D01*
X82335729Y-40465552D01*
X82437186Y-40548814D01*
X82520448Y-40650271D01*
X82549778Y-40686009D01*
X82633443Y-40842534D01*
X82684963Y-41012373D01*
X82702359Y-41189000D01*
X82684963Y-41365627D01*
X82633443Y-41535466D01*
X82549778Y-41691991D01*
X82520448Y-41727729D01*
X82437186Y-41829186D01*
X82335729Y-41912448D01*
X82299991Y-41941778D01*
X82143466Y-42025443D01*
X81973627Y-42076963D01*
X81907442Y-42083482D01*
X81841260Y-42090000D01*
X81752740Y-42090000D01*
X81686558Y-42083482D01*
X81620373Y-42076963D01*
X81450534Y-42025443D01*
X81294009Y-41941778D01*
X81258271Y-41912448D01*
X81156814Y-41829186D01*
X81073552Y-41727729D01*
X81044222Y-41691991D01*
X80960557Y-41535466D01*
X80909037Y-41365627D01*
X80891641Y-41189000D01*
X80909037Y-41012373D01*
X80960557Y-40842534D01*
X81044222Y-40686009D01*
X81073552Y-40650271D01*
X81156814Y-40548814D01*
X81258271Y-40465552D01*
X81294009Y-40436222D01*
X81450534Y-40352557D01*
X81620373Y-40301037D01*
X81686558Y-40294518D01*
X81752740Y-40288000D01*
X81841260Y-40288000D01*
X81907442Y-40294518D01*
X81907442Y-40294518D01*
G37*
G36*
X75197483Y-38237335D02*
G01*
X75366240Y-38307236D01*
X75518118Y-38408718D01*
X75647282Y-38537882D01*
X75748764Y-38689760D01*
X75818665Y-38858517D01*
X75854300Y-39037668D01*
X75854300Y-39220332D01*
X75818665Y-39399483D01*
X75748764Y-39568240D01*
X75647282Y-39720118D01*
X75518118Y-39849282D01*
X75366240Y-39950764D01*
X75197483Y-40020665D01*
X75018332Y-40056300D01*
X74835668Y-40056300D01*
X74656517Y-40020665D01*
X74487760Y-39950764D01*
X74335882Y-39849282D01*
X74206718Y-39720118D01*
X74105236Y-39568240D01*
X74035335Y-39399483D01*
X73999700Y-39220332D01*
X73999700Y-39037668D01*
X74035335Y-38858517D01*
X74105236Y-38689760D01*
X74206718Y-38537882D01*
X74335882Y-38408718D01*
X74487760Y-38307236D01*
X74656517Y-38237335D01*
X74835668Y-38201700D01*
X75018332Y-38201700D01*
X75197483Y-38237335D01*
X75197483Y-38237335D01*
G37*
G36*
X59957483Y-38237335D02*
G01*
X60126240Y-38307236D01*
X60278118Y-38408718D01*
X60407282Y-38537882D01*
X60508764Y-38689760D01*
X60578665Y-38858517D01*
X60614300Y-39037668D01*
X60614300Y-39220332D01*
X60578665Y-39399483D01*
X60508764Y-39568240D01*
X60407282Y-39720118D01*
X60278118Y-39849282D01*
X60126240Y-39950764D01*
X59957483Y-40020665D01*
X59778332Y-40056300D01*
X59595668Y-40056300D01*
X59416517Y-40020665D01*
X59247760Y-39950764D01*
X59095882Y-39849282D01*
X58966718Y-39720118D01*
X58865236Y-39568240D01*
X58795335Y-39399483D01*
X58759700Y-39220332D01*
X58759700Y-39037668D01*
X58795335Y-38858517D01*
X58865236Y-38689760D01*
X58966718Y-38537882D01*
X59095882Y-38408718D01*
X59247760Y-38307236D01*
X59416517Y-38237335D01*
X59595668Y-38201700D01*
X59778332Y-38201700D01*
X59957483Y-38237335D01*
X59957483Y-38237335D01*
G37*
G36*
X77737483Y-38237335D02*
G01*
X77906240Y-38307236D01*
X78058118Y-38408718D01*
X78187282Y-38537882D01*
X78288764Y-38689760D01*
X78358665Y-38858517D01*
X78394300Y-39037668D01*
X78394300Y-39220332D01*
X78358665Y-39399483D01*
X78288764Y-39568240D01*
X78187282Y-39720118D01*
X78058118Y-39849282D01*
X77906240Y-39950764D01*
X77737483Y-40020665D01*
X77558332Y-40056300D01*
X77375668Y-40056300D01*
X77196517Y-40020665D01*
X77027760Y-39950764D01*
X76875882Y-39849282D01*
X76746718Y-39720118D01*
X76645236Y-39568240D01*
X76575335Y-39399483D01*
X76539700Y-39220332D01*
X76539700Y-39037668D01*
X76575335Y-38858517D01*
X76645236Y-38689760D01*
X76746718Y-38537882D01*
X76875882Y-38408718D01*
X77027760Y-38307236D01*
X77196517Y-38237335D01*
X77375668Y-38201700D01*
X77558332Y-38201700D01*
X77737483Y-38237335D01*
X77737483Y-38237335D01*
G37*
G36*
X72657483Y-38237335D02*
G01*
X72826240Y-38307236D01*
X72978118Y-38408718D01*
X73107282Y-38537882D01*
X73208764Y-38689760D01*
X73278665Y-38858517D01*
X73314300Y-39037668D01*
X73314300Y-39220332D01*
X73278665Y-39399483D01*
X73208764Y-39568240D01*
X73107282Y-39720118D01*
X72978118Y-39849282D01*
X72826240Y-39950764D01*
X72657483Y-40020665D01*
X72478332Y-40056300D01*
X72295668Y-40056300D01*
X72116517Y-40020665D01*
X71947760Y-39950764D01*
X71795882Y-39849282D01*
X71666718Y-39720118D01*
X71565236Y-39568240D01*
X71495335Y-39399483D01*
X71459700Y-39220332D01*
X71459700Y-39037668D01*
X71495335Y-38858517D01*
X71565236Y-38689760D01*
X71666718Y-38537882D01*
X71795882Y-38408718D01*
X71947760Y-38307236D01*
X72116517Y-38237335D01*
X72295668Y-38201700D01*
X72478332Y-38201700D01*
X72657483Y-38237335D01*
X72657483Y-38237335D01*
G37*
G36*
X70117483Y-38237335D02*
G01*
X70286240Y-38307236D01*
X70438118Y-38408718D01*
X70567282Y-38537882D01*
X70668764Y-38689760D01*
X70738665Y-38858517D01*
X70774300Y-39037668D01*
X70774300Y-39220332D01*
X70738665Y-39399483D01*
X70668764Y-39568240D01*
X70567282Y-39720118D01*
X70438118Y-39849282D01*
X70286240Y-39950764D01*
X70117483Y-40020665D01*
X69938332Y-40056300D01*
X69755668Y-40056300D01*
X69576517Y-40020665D01*
X69407760Y-39950764D01*
X69255882Y-39849282D01*
X69126718Y-39720118D01*
X69025236Y-39568240D01*
X68955335Y-39399483D01*
X68919700Y-39220332D01*
X68919700Y-39037668D01*
X68955335Y-38858517D01*
X69025236Y-38689760D01*
X69126718Y-38537882D01*
X69255882Y-38408718D01*
X69407760Y-38307236D01*
X69576517Y-38237335D01*
X69755668Y-38201700D01*
X69938332Y-38201700D01*
X70117483Y-38237335D01*
X70117483Y-38237335D01*
G37*
G36*
X67577483Y-38237335D02*
G01*
X67746240Y-38307236D01*
X67898118Y-38408718D01*
X68027282Y-38537882D01*
X68128764Y-38689760D01*
X68198665Y-38858517D01*
X68234300Y-39037668D01*
X68234300Y-39220332D01*
X68198665Y-39399483D01*
X68128764Y-39568240D01*
X68027282Y-39720118D01*
X67898118Y-39849282D01*
X67746240Y-39950764D01*
X67577483Y-40020665D01*
X67398332Y-40056300D01*
X67215668Y-40056300D01*
X67036517Y-40020665D01*
X66867760Y-39950764D01*
X66715882Y-39849282D01*
X66586718Y-39720118D01*
X66485236Y-39568240D01*
X66415335Y-39399483D01*
X66379700Y-39220332D01*
X66379700Y-39037668D01*
X66415335Y-38858517D01*
X66485236Y-38689760D01*
X66586718Y-38537882D01*
X66715882Y-38408718D01*
X66867760Y-38307236D01*
X67036517Y-38237335D01*
X67215668Y-38201700D01*
X67398332Y-38201700D01*
X67577483Y-38237335D01*
X67577483Y-38237335D01*
G37*
G36*
X65037483Y-38237335D02*
G01*
X65206240Y-38307236D01*
X65358118Y-38408718D01*
X65487282Y-38537882D01*
X65588764Y-38689760D01*
X65658665Y-38858517D01*
X65694300Y-39037668D01*
X65694300Y-39220332D01*
X65658665Y-39399483D01*
X65588764Y-39568240D01*
X65487282Y-39720118D01*
X65358118Y-39849282D01*
X65206240Y-39950764D01*
X65037483Y-40020665D01*
X64858332Y-40056300D01*
X64675668Y-40056300D01*
X64496517Y-40020665D01*
X64327760Y-39950764D01*
X64175882Y-39849282D01*
X64046718Y-39720118D01*
X63945236Y-39568240D01*
X63875335Y-39399483D01*
X63839700Y-39220332D01*
X63839700Y-39037668D01*
X63875335Y-38858517D01*
X63945236Y-38689760D01*
X64046718Y-38537882D01*
X64175882Y-38408718D01*
X64327760Y-38307236D01*
X64496517Y-38237335D01*
X64675668Y-38201700D01*
X64858332Y-38201700D01*
X65037483Y-38237335D01*
X65037483Y-38237335D01*
G37*
G36*
X62497483Y-38237335D02*
G01*
X62666240Y-38307236D01*
X62818118Y-38408718D01*
X62947282Y-38537882D01*
X63048764Y-38689760D01*
X63118665Y-38858517D01*
X63154300Y-39037668D01*
X63154300Y-39220332D01*
X63118665Y-39399483D01*
X63048764Y-39568240D01*
X62947282Y-39720118D01*
X62818118Y-39849282D01*
X62666240Y-39950764D01*
X62497483Y-40020665D01*
X62318332Y-40056300D01*
X62135668Y-40056300D01*
X61956517Y-40020665D01*
X61787760Y-39950764D01*
X61635882Y-39849282D01*
X61506718Y-39720118D01*
X61405236Y-39568240D01*
X61335335Y-39399483D01*
X61299700Y-39220332D01*
X61299700Y-39037668D01*
X61335335Y-38858517D01*
X61405236Y-38689760D01*
X61506718Y-38537882D01*
X61635882Y-38408718D01*
X61787760Y-38307236D01*
X61956517Y-38237335D01*
X62135668Y-38201700D01*
X62318332Y-38201700D01*
X62497483Y-38237335D01*
X62497483Y-38237335D01*
G37*
G36*
X57417483Y-38237335D02*
G01*
X57586240Y-38307236D01*
X57738118Y-38408718D01*
X57867282Y-38537882D01*
X57968764Y-38689760D01*
X58038665Y-38858517D01*
X58074300Y-39037668D01*
X58074300Y-39220332D01*
X58038665Y-39399483D01*
X57968764Y-39568240D01*
X57867282Y-39720118D01*
X57738118Y-39849282D01*
X57586240Y-39950764D01*
X57417483Y-40020665D01*
X57238332Y-40056300D01*
X57055668Y-40056300D01*
X56876517Y-40020665D01*
X56707760Y-39950764D01*
X56555882Y-39849282D01*
X56426718Y-39720118D01*
X56325236Y-39568240D01*
X56255335Y-39399483D01*
X56219700Y-39220332D01*
X56219700Y-39037668D01*
X56255335Y-38858517D01*
X56325236Y-38689760D01*
X56426718Y-38537882D01*
X56555882Y-38408718D01*
X56707760Y-38307236D01*
X56876517Y-38237335D01*
X57055668Y-38201700D01*
X57238332Y-38201700D01*
X57417483Y-38237335D01*
X57417483Y-38237335D01*
G37*
G36*
X54877483Y-38237335D02*
G01*
X55046240Y-38307236D01*
X55198118Y-38408718D01*
X55327282Y-38537882D01*
X55428764Y-38689760D01*
X55498665Y-38858517D01*
X55534300Y-39037668D01*
X55534300Y-39220332D01*
X55498665Y-39399483D01*
X55428764Y-39568240D01*
X55327282Y-39720118D01*
X55198118Y-39849282D01*
X55046240Y-39950764D01*
X54877483Y-40020665D01*
X54698332Y-40056300D01*
X54515668Y-40056300D01*
X54336517Y-40020665D01*
X54167760Y-39950764D01*
X54015882Y-39849282D01*
X53886718Y-39720118D01*
X53785236Y-39568240D01*
X53715335Y-39399483D01*
X53679700Y-39220332D01*
X53679700Y-39037668D01*
X53715335Y-38858517D01*
X53785236Y-38689760D01*
X53886718Y-38537882D01*
X54015882Y-38408718D01*
X54167760Y-38307236D01*
X54336517Y-38237335D01*
X54515668Y-38201700D01*
X54698332Y-38201700D01*
X54877483Y-38237335D01*
X54877483Y-38237335D01*
G37*
G36*
X52337483Y-38237335D02*
G01*
X52506240Y-38307236D01*
X52658118Y-38408718D01*
X52787282Y-38537882D01*
X52888764Y-38689760D01*
X52958665Y-38858517D01*
X52994300Y-39037668D01*
X52994300Y-39220332D01*
X52958665Y-39399483D01*
X52888764Y-39568240D01*
X52787282Y-39720118D01*
X52658118Y-39849282D01*
X52506240Y-39950764D01*
X52337483Y-40020665D01*
X52158332Y-40056300D01*
X51975668Y-40056300D01*
X51796517Y-40020665D01*
X51627760Y-39950764D01*
X51475882Y-39849282D01*
X51346718Y-39720118D01*
X51245236Y-39568240D01*
X51175335Y-39399483D01*
X51139700Y-39220332D01*
X51139700Y-39037668D01*
X51175335Y-38858517D01*
X51245236Y-38689760D01*
X51346718Y-38537882D01*
X51475882Y-38408718D01*
X51627760Y-38307236D01*
X51796517Y-38237335D01*
X51975668Y-38201700D01*
X52158332Y-38201700D01*
X52337483Y-38237335D01*
X52337483Y-38237335D01*
G37*
G36*
X49797483Y-38237335D02*
G01*
X49966240Y-38307236D01*
X50118118Y-38408718D01*
X50247282Y-38537882D01*
X50348764Y-38689760D01*
X50418665Y-38858517D01*
X50454300Y-39037668D01*
X50454300Y-39220332D01*
X50418665Y-39399483D01*
X50348764Y-39568240D01*
X50247282Y-39720118D01*
X50118118Y-39849282D01*
X49966240Y-39950764D01*
X49797483Y-40020665D01*
X49618332Y-40056300D01*
X49435668Y-40056300D01*
X49256517Y-40020665D01*
X49087760Y-39950764D01*
X48935882Y-39849282D01*
X48806718Y-39720118D01*
X48705236Y-39568240D01*
X48635335Y-39399483D01*
X48599700Y-39220332D01*
X48599700Y-39037668D01*
X48635335Y-38858517D01*
X48705236Y-38689760D01*
X48806718Y-38537882D01*
X48935882Y-38408718D01*
X49087760Y-38307236D01*
X49256517Y-38237335D01*
X49435668Y-38201700D01*
X49618332Y-38201700D01*
X49797483Y-38237335D01*
X49797483Y-38237335D01*
G37*
M02*
