G04 #@! TF.GenerationSoftware,KiCad,Pcbnew,5.1.4-e60b266~84~ubuntu19.04.1*
G04 #@! TF.CreationDate,2019-12-12T22:12:58-06:00*
G04 #@! TF.ProjectId,fissure,66697373-7572-4652-9e6b-696361645f70,rev?*
G04 #@! TF.SameCoordinates,Original*
G04 #@! TF.FileFunction,Legend,Top*
G04 #@! TF.FilePolarity,Positive*
%FSLAX46Y46*%
G04 Gerber Fmt 4.6, Leading zero omitted, Abs format (unit mm)*
G04 Created by KiCad (PCBNEW 5.1.4-e60b266~84~ubuntu19.04.1) date 2019-12-12 22:12:58*
%MOMM*%
%LPD*%
G04 APERTURE LIST*
%ADD10C,0.150000*%
%ADD11C,0.120000*%
%ADD12C,0.381000*%
%ADD13C,0.200000*%
%ADD14C,0.100000*%
%ADD15C,0.254000*%
G04 APERTURE END LIST*
D10*
X49165928Y-43527571D02*
X48832595Y-43527571D01*
X48832595Y-44051380D02*
X48832595Y-43051380D01*
X49308785Y-43051380D01*
X49689738Y-44051380D02*
X49689738Y-43384714D01*
X49689738Y-43051380D02*
X49642119Y-43099000D01*
X49689738Y-43146619D01*
X49737357Y-43099000D01*
X49689738Y-43051380D01*
X49689738Y-43146619D01*
X50118309Y-44003761D02*
X50213547Y-44051380D01*
X50404023Y-44051380D01*
X50499261Y-44003761D01*
X50546880Y-43908523D01*
X50546880Y-43860904D01*
X50499261Y-43765666D01*
X50404023Y-43718047D01*
X50261166Y-43718047D01*
X50165928Y-43670428D01*
X50118309Y-43575190D01*
X50118309Y-43527571D01*
X50165928Y-43432333D01*
X50261166Y-43384714D01*
X50404023Y-43384714D01*
X50499261Y-43432333D01*
X50927833Y-44003761D02*
X51023071Y-44051380D01*
X51213547Y-44051380D01*
X51308785Y-44003761D01*
X51356404Y-43908523D01*
X51356404Y-43860904D01*
X51308785Y-43765666D01*
X51213547Y-43718047D01*
X51070690Y-43718047D01*
X50975452Y-43670428D01*
X50927833Y-43575190D01*
X50927833Y-43527571D01*
X50975452Y-43432333D01*
X51070690Y-43384714D01*
X51213547Y-43384714D01*
X51308785Y-43432333D01*
X52213547Y-43384714D02*
X52213547Y-44051380D01*
X51784976Y-43384714D02*
X51784976Y-43908523D01*
X51832595Y-44003761D01*
X51927833Y-44051380D01*
X52070690Y-44051380D01*
X52165928Y-44003761D01*
X52213547Y-43956142D01*
X52689738Y-44051380D02*
X52689738Y-43384714D01*
X52689738Y-43575190D02*
X52737357Y-43479952D01*
X52784976Y-43432333D01*
X52880214Y-43384714D01*
X52975452Y-43384714D01*
X53689738Y-44003761D02*
X53594500Y-44051380D01*
X53404023Y-44051380D01*
X53308785Y-44003761D01*
X53261166Y-43908523D01*
X53261166Y-43527571D01*
X53308785Y-43432333D01*
X53404023Y-43384714D01*
X53594500Y-43384714D01*
X53689738Y-43432333D01*
X53737357Y-43527571D01*
X53737357Y-43622809D01*
X53261166Y-43718047D01*
X54832595Y-43384714D02*
X55070690Y-44051380D01*
X55308785Y-43384714D01*
X55642119Y-43146619D02*
X55689738Y-43099000D01*
X55784976Y-43051380D01*
X56023071Y-43051380D01*
X56118309Y-43099000D01*
X56165928Y-43146619D01*
X56213547Y-43241857D01*
X56213547Y-43337095D01*
X56165928Y-43479952D01*
X55594500Y-44051380D01*
X56213547Y-44051380D01*
X49261166Y-45034714D02*
X49261166Y-45701380D01*
X48832595Y-45034714D02*
X48832595Y-45558523D01*
X48880214Y-45653761D01*
X48975452Y-45701380D01*
X49118309Y-45701380D01*
X49213547Y-45653761D01*
X49261166Y-45606142D01*
X50451642Y-44653761D02*
X49594500Y-45939476D01*
X50737357Y-45653761D02*
X50832595Y-45701380D01*
X51023071Y-45701380D01*
X51118309Y-45653761D01*
X51165928Y-45558523D01*
X51165928Y-45510904D01*
X51118309Y-45415666D01*
X51023071Y-45368047D01*
X50880214Y-45368047D01*
X50784976Y-45320428D01*
X50737357Y-45225190D01*
X50737357Y-45177571D01*
X50784976Y-45082333D01*
X50880214Y-45034714D01*
X51023071Y-45034714D01*
X51118309Y-45082333D01*
X51451642Y-45034714D02*
X51832595Y-45034714D01*
X51594500Y-44701380D02*
X51594500Y-45558523D01*
X51642119Y-45653761D01*
X51737357Y-45701380D01*
X51832595Y-45701380D01*
X52546880Y-45653761D02*
X52451642Y-45701380D01*
X52261166Y-45701380D01*
X52165928Y-45653761D01*
X52118309Y-45558523D01*
X52118309Y-45177571D01*
X52165928Y-45082333D01*
X52261166Y-45034714D01*
X52451642Y-45034714D01*
X52546880Y-45082333D01*
X52594500Y-45177571D01*
X52594500Y-45272809D01*
X52118309Y-45368047D01*
X52927833Y-45034714D02*
X53165928Y-45701380D01*
X53404023Y-45034714D01*
X54165928Y-45653761D02*
X54070690Y-45701380D01*
X53880214Y-45701380D01*
X53784976Y-45653761D01*
X53737357Y-45558523D01*
X53737357Y-45177571D01*
X53784976Y-45082333D01*
X53880214Y-45034714D01*
X54070690Y-45034714D01*
X54165928Y-45082333D01*
X54213547Y-45177571D01*
X54213547Y-45272809D01*
X53737357Y-45368047D01*
X54642119Y-45034714D02*
X54642119Y-45701380D01*
X54642119Y-45129952D02*
X54689738Y-45082333D01*
X54784976Y-45034714D01*
X54927833Y-45034714D01*
X55023071Y-45082333D01*
X55070690Y-45177571D01*
X55070690Y-45701380D01*
X55975452Y-45034714D02*
X55975452Y-45701380D01*
X55737357Y-44653761D02*
X55499261Y-45368047D01*
X56118309Y-45368047D01*
X56689738Y-44701380D02*
X56784976Y-44701380D01*
X56880214Y-44749000D01*
X56927833Y-44796619D01*
X56975452Y-44891857D01*
X57023071Y-45082333D01*
X57023071Y-45320428D01*
X56975452Y-45510904D01*
X56927833Y-45606142D01*
X56880214Y-45653761D01*
X56784976Y-45701380D01*
X56689738Y-45701380D01*
X56594500Y-45653761D01*
X56546880Y-45606142D01*
X56499261Y-45510904D01*
X56451642Y-45320428D01*
X56451642Y-45082333D01*
X56499261Y-44891857D01*
X56546880Y-44796619D01*
X56594500Y-44749000D01*
X56689738Y-44701380D01*
X57975452Y-45701380D02*
X57404023Y-45701380D01*
X57689738Y-45701380D02*
X57689738Y-44701380D01*
X57594500Y-44844238D01*
X57499261Y-44939476D01*
X57404023Y-44987095D01*
X58356404Y-44796619D02*
X58404023Y-44749000D01*
X58499261Y-44701380D01*
X58737357Y-44701380D01*
X58832595Y-44749000D01*
X58880214Y-44796619D01*
X58927833Y-44891857D01*
X58927833Y-44987095D01*
X58880214Y-45129952D01*
X58308785Y-45701380D01*
X58927833Y-45701380D01*
X48832595Y-47351380D02*
X48832595Y-46351380D01*
X49261166Y-47351380D02*
X49261166Y-46827571D01*
X49213547Y-46732333D01*
X49118309Y-46684714D01*
X48975452Y-46684714D01*
X48880214Y-46732333D01*
X48832595Y-46779952D01*
X49594500Y-46684714D02*
X49975452Y-46684714D01*
X49737357Y-46351380D02*
X49737357Y-47208523D01*
X49784976Y-47303761D01*
X49880214Y-47351380D01*
X49975452Y-47351380D01*
X50165928Y-46684714D02*
X50546880Y-46684714D01*
X50308785Y-46351380D02*
X50308785Y-47208523D01*
X50356404Y-47303761D01*
X50451642Y-47351380D01*
X50546880Y-47351380D01*
X50880214Y-46684714D02*
X50880214Y-47684714D01*
X50880214Y-46732333D02*
X50975452Y-46684714D01*
X51165928Y-46684714D01*
X51261166Y-46732333D01*
X51308785Y-46779952D01*
X51356404Y-46875190D01*
X51356404Y-47160904D01*
X51308785Y-47256142D01*
X51261166Y-47303761D01*
X51165928Y-47351380D01*
X50975452Y-47351380D01*
X50880214Y-47303761D01*
X51737357Y-47303761D02*
X51832595Y-47351380D01*
X52023071Y-47351380D01*
X52118309Y-47303761D01*
X52165928Y-47208523D01*
X52165928Y-47160904D01*
X52118309Y-47065666D01*
X52023071Y-47018047D01*
X51880214Y-47018047D01*
X51784976Y-46970428D01*
X51737357Y-46875190D01*
X51737357Y-46827571D01*
X51784976Y-46732333D01*
X51880214Y-46684714D01*
X52023071Y-46684714D01*
X52118309Y-46732333D01*
X52594500Y-47256142D02*
X52642119Y-47303761D01*
X52594500Y-47351380D01*
X52546880Y-47303761D01*
X52594500Y-47256142D01*
X52594500Y-47351380D01*
X52594500Y-46732333D02*
X52642119Y-46779952D01*
X52594500Y-46827571D01*
X52546880Y-46779952D01*
X52594500Y-46732333D01*
X52594500Y-46827571D01*
X53784976Y-46303761D02*
X52927833Y-47589476D01*
X54832595Y-46303761D02*
X53975452Y-47589476D01*
X55594500Y-46684714D02*
X55594500Y-47494238D01*
X55546880Y-47589476D01*
X55499261Y-47637095D01*
X55404023Y-47684714D01*
X55261166Y-47684714D01*
X55165928Y-47637095D01*
X55594500Y-47303761D02*
X55499261Y-47351380D01*
X55308785Y-47351380D01*
X55213547Y-47303761D01*
X55165928Y-47256142D01*
X55118309Y-47160904D01*
X55118309Y-46875190D01*
X55165928Y-46779952D01*
X55213547Y-46732333D01*
X55308785Y-46684714D01*
X55499261Y-46684714D01*
X55594500Y-46732333D01*
X56070690Y-47351380D02*
X56070690Y-46684714D01*
X56070690Y-46351380D02*
X56023071Y-46399000D01*
X56070690Y-46446619D01*
X56118309Y-46399000D01*
X56070690Y-46351380D01*
X56070690Y-46446619D01*
X56404023Y-46684714D02*
X56784976Y-46684714D01*
X56546880Y-46351380D02*
X56546880Y-47208523D01*
X56594500Y-47303761D01*
X56689738Y-47351380D01*
X56784976Y-47351380D01*
X57118309Y-47351380D02*
X57118309Y-46351380D01*
X57546880Y-47351380D02*
X57546880Y-46827571D01*
X57499261Y-46732333D01*
X57404023Y-46684714D01*
X57261166Y-46684714D01*
X57165928Y-46732333D01*
X57118309Y-46779952D01*
X58451642Y-46684714D02*
X58451642Y-47351380D01*
X58023071Y-46684714D02*
X58023071Y-47208523D01*
X58070690Y-47303761D01*
X58165928Y-47351380D01*
X58308785Y-47351380D01*
X58404023Y-47303761D01*
X58451642Y-47256142D01*
X58927833Y-47351380D02*
X58927833Y-46351380D01*
X58927833Y-46732333D02*
X59023071Y-46684714D01*
X59213547Y-46684714D01*
X59308785Y-46732333D01*
X59356404Y-46779952D01*
X59404023Y-46875190D01*
X59404023Y-47160904D01*
X59356404Y-47256142D01*
X59308785Y-47303761D01*
X59213547Y-47351380D01*
X59023071Y-47351380D01*
X58927833Y-47303761D01*
X59832595Y-47256142D02*
X59880214Y-47303761D01*
X59832595Y-47351380D01*
X59784976Y-47303761D01*
X59832595Y-47256142D01*
X59832595Y-47351380D01*
X60737357Y-47303761D02*
X60642119Y-47351380D01*
X60451642Y-47351380D01*
X60356404Y-47303761D01*
X60308785Y-47256142D01*
X60261166Y-47160904D01*
X60261166Y-46875190D01*
X60308785Y-46779952D01*
X60356404Y-46732333D01*
X60451642Y-46684714D01*
X60642119Y-46684714D01*
X60737357Y-46732333D01*
X61308785Y-47351380D02*
X61213547Y-47303761D01*
X61165928Y-47256142D01*
X61118309Y-47160904D01*
X61118309Y-46875190D01*
X61165928Y-46779952D01*
X61213547Y-46732333D01*
X61308785Y-46684714D01*
X61451642Y-46684714D01*
X61546880Y-46732333D01*
X61594500Y-46779952D01*
X61642119Y-46875190D01*
X61642119Y-47160904D01*
X61594500Y-47256142D01*
X61546880Y-47303761D01*
X61451642Y-47351380D01*
X61308785Y-47351380D01*
X62070690Y-47351380D02*
X62070690Y-46684714D01*
X62070690Y-46779952D02*
X62118309Y-46732333D01*
X62213547Y-46684714D01*
X62356404Y-46684714D01*
X62451642Y-46732333D01*
X62499261Y-46827571D01*
X62499261Y-47351380D01*
X62499261Y-46827571D02*
X62546880Y-46732333D01*
X62642119Y-46684714D01*
X62784976Y-46684714D01*
X62880214Y-46732333D01*
X62927833Y-46827571D01*
X62927833Y-47351380D01*
X64118309Y-46303761D02*
X63261166Y-47589476D01*
X64880214Y-47303761D02*
X64784976Y-47351380D01*
X64594500Y-47351380D01*
X64499261Y-47303761D01*
X64451642Y-47256142D01*
X64404023Y-47160904D01*
X64404023Y-46875190D01*
X64451642Y-46779952D01*
X64499261Y-46732333D01*
X64594500Y-46684714D01*
X64784976Y-46684714D01*
X64880214Y-46732333D01*
X65308785Y-47351380D02*
X65308785Y-46684714D01*
X65308785Y-46875190D02*
X65356404Y-46779952D01*
X65404023Y-46732333D01*
X65499261Y-46684714D01*
X65594500Y-46684714D01*
X65927833Y-47351380D02*
X65927833Y-46684714D01*
X65927833Y-46351380D02*
X65880214Y-46399000D01*
X65927833Y-46446619D01*
X65975452Y-46399000D01*
X65927833Y-46351380D01*
X65927833Y-46446619D01*
X66832595Y-47351380D02*
X66832595Y-46351380D01*
X66832595Y-47303761D02*
X66737357Y-47351380D01*
X66546880Y-47351380D01*
X66451642Y-47303761D01*
X66404023Y-47256142D01*
X66356404Y-47160904D01*
X66356404Y-46875190D01*
X66404023Y-46779952D01*
X66451642Y-46732333D01*
X66546880Y-46684714D01*
X66737357Y-46684714D01*
X66832595Y-46732333D01*
X67689738Y-47303761D02*
X67594500Y-47351380D01*
X67404023Y-47351380D01*
X67308785Y-47303761D01*
X67261166Y-47208523D01*
X67261166Y-46827571D01*
X67308785Y-46732333D01*
X67404023Y-46684714D01*
X67594500Y-46684714D01*
X67689738Y-46732333D01*
X67737357Y-46827571D01*
X67737357Y-46922809D01*
X67261166Y-47018047D01*
X68118309Y-47303761D02*
X68213547Y-47351380D01*
X68404023Y-47351380D01*
X68499261Y-47303761D01*
X68546880Y-47208523D01*
X68546880Y-47160904D01*
X68499261Y-47065666D01*
X68404023Y-47018047D01*
X68261166Y-47018047D01*
X68165928Y-46970428D01*
X68118309Y-46875190D01*
X68118309Y-46827571D01*
X68165928Y-46732333D01*
X68261166Y-46684714D01*
X68404023Y-46684714D01*
X68499261Y-46732333D01*
X69689738Y-46303761D02*
X68832595Y-47589476D01*
X69880214Y-46684714D02*
X70261166Y-46684714D01*
X70023071Y-47351380D02*
X70023071Y-46494238D01*
X70070690Y-46399000D01*
X70165928Y-46351380D01*
X70261166Y-46351380D01*
X70594500Y-47351380D02*
X70594500Y-46684714D01*
X70594500Y-46351380D02*
X70546880Y-46399000D01*
X70594500Y-46446619D01*
X70642119Y-46399000D01*
X70594500Y-46351380D01*
X70594500Y-46446619D01*
X71023071Y-47303761D02*
X71118309Y-47351380D01*
X71308785Y-47351380D01*
X71404023Y-47303761D01*
X71451642Y-47208523D01*
X71451642Y-47160904D01*
X71404023Y-47065666D01*
X71308785Y-47018047D01*
X71165928Y-47018047D01*
X71070690Y-46970428D01*
X71023071Y-46875190D01*
X71023071Y-46827571D01*
X71070690Y-46732333D01*
X71165928Y-46684714D01*
X71308785Y-46684714D01*
X71404023Y-46732333D01*
X71832595Y-47303761D02*
X71927833Y-47351380D01*
X72118309Y-47351380D01*
X72213547Y-47303761D01*
X72261166Y-47208523D01*
X72261166Y-47160904D01*
X72213547Y-47065666D01*
X72118309Y-47018047D01*
X71975452Y-47018047D01*
X71880214Y-46970428D01*
X71832595Y-46875190D01*
X71832595Y-46827571D01*
X71880214Y-46732333D01*
X71975452Y-46684714D01*
X72118309Y-46684714D01*
X72213547Y-46732333D01*
X73118309Y-46684714D02*
X73118309Y-47351380D01*
X72689738Y-46684714D02*
X72689738Y-47208523D01*
X72737357Y-47303761D01*
X72832595Y-47351380D01*
X72975452Y-47351380D01*
X73070690Y-47303761D01*
X73118309Y-47256142D01*
X73594500Y-47351380D02*
X73594500Y-46684714D01*
X73594500Y-46875190D02*
X73642119Y-46779952D01*
X73689738Y-46732333D01*
X73784976Y-46684714D01*
X73880214Y-46684714D01*
X74594500Y-47303761D02*
X74499261Y-47351380D01*
X74308785Y-47351380D01*
X74213547Y-47303761D01*
X74165928Y-47208523D01*
X74165928Y-46827571D01*
X74213547Y-46732333D01*
X74308785Y-46684714D01*
X74499261Y-46684714D01*
X74594500Y-46732333D01*
X74642119Y-46827571D01*
X74642119Y-46922809D01*
X74165928Y-47018047D01*
D11*
X83127000Y-52679000D02*
X81797000Y-52679000D01*
X83127000Y-51349000D02*
X83127000Y-52679000D01*
X83127000Y-50079000D02*
X80467000Y-50079000D01*
X80467000Y-50079000D02*
X80467000Y-37319000D01*
X83127000Y-50079000D02*
X83127000Y-37319000D01*
X83127000Y-37319000D02*
X80467000Y-37319000D01*
D12*
X48257000Y-53099000D02*
X48257000Y-55639000D01*
X45717000Y-55639000D02*
X48257000Y-55639000D01*
X45717000Y-37859000D02*
X45717000Y-55639000D01*
X48257000Y-37859000D02*
X45717000Y-37859000D01*
D10*
G36*
X54736360Y-41817432D02*
G01*
X54936360Y-41817432D01*
X54936360Y-41917432D01*
X54736360Y-41917432D01*
X54736360Y-41817432D01*
G37*
X54736360Y-41817432D02*
X54936360Y-41817432D01*
X54936360Y-41917432D01*
X54736360Y-41917432D01*
X54736360Y-41817432D01*
G36*
X54136360Y-42217432D02*
G01*
X54936360Y-42217432D01*
X54936360Y-42317432D01*
X54136360Y-42317432D01*
X54136360Y-42217432D01*
G37*
X54136360Y-42217432D02*
X54936360Y-42217432D01*
X54936360Y-42317432D01*
X54136360Y-42317432D01*
X54136360Y-42217432D01*
G36*
X54136360Y-41817432D02*
G01*
X54236360Y-41817432D01*
X54236360Y-42317432D01*
X54136360Y-42317432D01*
X54136360Y-41817432D01*
G37*
X54136360Y-41817432D02*
X54236360Y-41817432D01*
X54236360Y-42317432D01*
X54136360Y-42317432D01*
X54136360Y-41817432D01*
G36*
X54536360Y-42017432D02*
G01*
X54636360Y-42017432D01*
X54636360Y-42117432D01*
X54536360Y-42117432D01*
X54536360Y-42017432D01*
G37*
X54536360Y-42017432D02*
X54636360Y-42017432D01*
X54636360Y-42117432D01*
X54536360Y-42117432D01*
X54536360Y-42017432D01*
G36*
X54136360Y-41817432D02*
G01*
X54436360Y-41817432D01*
X54436360Y-41917432D01*
X54136360Y-41917432D01*
X54136360Y-41817432D01*
G37*
X54136360Y-41817432D02*
X54436360Y-41817432D01*
X54436360Y-41917432D01*
X54136360Y-41917432D01*
X54136360Y-41817432D01*
D12*
X50797000Y-53099000D02*
X50797000Y-55639000D01*
X48257000Y-53099000D02*
X50797000Y-53099000D01*
X78737000Y-37859000D02*
X48257000Y-37859000D01*
X78737000Y-55639000D02*
X78737000Y-37859000D01*
X48257000Y-55639000D02*
X78737000Y-55639000D01*
D13*
X47947000Y-63449000D02*
X47947000Y-69249000D01*
X45547000Y-63449000D02*
X47947000Y-63449000D01*
X45547000Y-69249000D02*
X45547000Y-63449000D01*
X45547000Y-69174000D02*
X47947000Y-69174000D01*
X45547000Y-69049000D02*
X47947000Y-69049000D01*
X47947000Y-69274000D02*
X45547000Y-69274000D01*
X45547000Y-68874000D02*
X47947000Y-68874000D01*
X45547000Y-68699000D02*
X47947000Y-68699000D01*
X45547000Y-68524000D02*
X47947000Y-68524000D01*
X118947000Y-41799000D02*
X124747000Y-41799000D01*
X118947000Y-44199000D02*
X118947000Y-41799000D01*
X124747000Y-44199000D02*
X118947000Y-44199000D01*
X124672000Y-44199000D02*
X124672000Y-41799000D01*
X124547000Y-44199000D02*
X124547000Y-41799000D01*
X124772000Y-41799000D02*
X124772000Y-44199000D01*
X124372000Y-44199000D02*
X124372000Y-41799000D01*
X124197000Y-44199000D02*
X124197000Y-41799000D01*
X124022000Y-44199000D02*
X124022000Y-41799000D01*
X102447000Y-41799000D02*
X108247000Y-41799000D01*
X102447000Y-44199000D02*
X102447000Y-41799000D01*
X108247000Y-44199000D02*
X102447000Y-44199000D01*
X108172000Y-44199000D02*
X108172000Y-41799000D01*
X108047000Y-44199000D02*
X108047000Y-41799000D01*
X108272000Y-41799000D02*
X108272000Y-44199000D01*
X107872000Y-44199000D02*
X107872000Y-41799000D01*
X107697000Y-44199000D02*
X107697000Y-41799000D01*
X107522000Y-44199000D02*
X107522000Y-41799000D01*
X93722000Y-44199000D02*
X93722000Y-41799000D01*
X93897000Y-44199000D02*
X93897000Y-41799000D01*
X94072000Y-44199000D02*
X94072000Y-41799000D01*
X94472000Y-41799000D02*
X94472000Y-44199000D01*
X94247000Y-44199000D02*
X94247000Y-41799000D01*
X94372000Y-44199000D02*
X94372000Y-41799000D01*
X94447000Y-44199000D02*
X88647000Y-44199000D01*
X88647000Y-44199000D02*
X88647000Y-41799000D01*
X88647000Y-41799000D02*
X94447000Y-41799000D01*
X118947000Y-44299000D02*
X124747000Y-44299000D01*
X118947000Y-46699000D02*
X118947000Y-44299000D01*
X124747000Y-46699000D02*
X118947000Y-46699000D01*
X124672000Y-46699000D02*
X124672000Y-44299000D01*
X124547000Y-46699000D02*
X124547000Y-44299000D01*
X124772000Y-44299000D02*
X124772000Y-46699000D01*
X124372000Y-46699000D02*
X124372000Y-44299000D01*
X124197000Y-46699000D02*
X124197000Y-44299000D01*
X124022000Y-46699000D02*
X124022000Y-44299000D01*
X102447000Y-44299000D02*
X108247000Y-44299000D01*
X102447000Y-46699000D02*
X102447000Y-44299000D01*
X108247000Y-46699000D02*
X102447000Y-46699000D01*
X108172000Y-46699000D02*
X108172000Y-44299000D01*
X108047000Y-46699000D02*
X108047000Y-44299000D01*
X108272000Y-44299000D02*
X108272000Y-46699000D01*
X107872000Y-46699000D02*
X107872000Y-44299000D01*
X107697000Y-46699000D02*
X107697000Y-44299000D01*
X107522000Y-46699000D02*
X107522000Y-44299000D01*
X93722000Y-46699000D02*
X93722000Y-44299000D01*
X93897000Y-46699000D02*
X93897000Y-44299000D01*
X94072000Y-46699000D02*
X94072000Y-44299000D01*
X94472000Y-44299000D02*
X94472000Y-46699000D01*
X94247000Y-46699000D02*
X94247000Y-44299000D01*
X94372000Y-46699000D02*
X94372000Y-44299000D01*
X94447000Y-46699000D02*
X88647000Y-46699000D01*
X88647000Y-46699000D02*
X88647000Y-44299000D01*
X88647000Y-44299000D02*
X94447000Y-44299000D01*
X56197000Y-63449000D02*
X56197000Y-69249000D01*
X53797000Y-63449000D02*
X56197000Y-63449000D01*
X53797000Y-69249000D02*
X53797000Y-63449000D01*
X53797000Y-69174000D02*
X56197000Y-69174000D01*
X53797000Y-69049000D02*
X56197000Y-69049000D01*
X56197000Y-69274000D02*
X53797000Y-69274000D01*
X53797000Y-68874000D02*
X56197000Y-68874000D01*
X53797000Y-68699000D02*
X56197000Y-68699000D01*
X53797000Y-68524000D02*
X56197000Y-68524000D01*
X52947000Y-63449000D02*
X52947000Y-69249000D01*
X50547000Y-63449000D02*
X52947000Y-63449000D01*
X50547000Y-69249000D02*
X50547000Y-63449000D01*
X50547000Y-69174000D02*
X52947000Y-69174000D01*
X50547000Y-69049000D02*
X52947000Y-69049000D01*
X52947000Y-69274000D02*
X50547000Y-69274000D01*
X50547000Y-68874000D02*
X52947000Y-68874000D01*
X50547000Y-68699000D02*
X52947000Y-68699000D01*
X50547000Y-68524000D02*
X52947000Y-68524000D01*
X118947000Y-46799000D02*
X124747000Y-46799000D01*
X118947000Y-49199000D02*
X118947000Y-46799000D01*
X124747000Y-49199000D02*
X118947000Y-49199000D01*
X124672000Y-49199000D02*
X124672000Y-46799000D01*
X124547000Y-49199000D02*
X124547000Y-46799000D01*
X124772000Y-46799000D02*
X124772000Y-49199000D01*
X124372000Y-49199000D02*
X124372000Y-46799000D01*
X124197000Y-49199000D02*
X124197000Y-46799000D01*
X124022000Y-49199000D02*
X124022000Y-46799000D01*
X102447000Y-46799000D02*
X108247000Y-46799000D01*
X102447000Y-49199000D02*
X102447000Y-46799000D01*
X108247000Y-49199000D02*
X102447000Y-49199000D01*
X108172000Y-49199000D02*
X108172000Y-46799000D01*
X108047000Y-49199000D02*
X108047000Y-46799000D01*
X108272000Y-46799000D02*
X108272000Y-49199000D01*
X107872000Y-49199000D02*
X107872000Y-46799000D01*
X107697000Y-49199000D02*
X107697000Y-46799000D01*
X107522000Y-49199000D02*
X107522000Y-46799000D01*
X93722000Y-49199000D02*
X93722000Y-46799000D01*
X93897000Y-49199000D02*
X93897000Y-46799000D01*
X94072000Y-49199000D02*
X94072000Y-46799000D01*
X94472000Y-46799000D02*
X94472000Y-49199000D01*
X94247000Y-49199000D02*
X94247000Y-46799000D01*
X94372000Y-49199000D02*
X94372000Y-46799000D01*
X94447000Y-49199000D02*
X88647000Y-49199000D01*
X88647000Y-49199000D02*
X88647000Y-46799000D01*
X88647000Y-46799000D02*
X94447000Y-46799000D01*
X58697000Y-63449000D02*
X58697000Y-69249000D01*
X56297000Y-63449000D02*
X58697000Y-63449000D01*
X56297000Y-69249000D02*
X56297000Y-63449000D01*
X56297000Y-69174000D02*
X58697000Y-69174000D01*
X56297000Y-69049000D02*
X58697000Y-69049000D01*
X58697000Y-69274000D02*
X56297000Y-69274000D01*
X56297000Y-68874000D02*
X58697000Y-68874000D01*
X56297000Y-68699000D02*
X58697000Y-68699000D01*
X56297000Y-68524000D02*
X58697000Y-68524000D01*
X50447000Y-63449000D02*
X50447000Y-69249000D01*
X48047000Y-63449000D02*
X50447000Y-63449000D01*
X48047000Y-69249000D02*
X48047000Y-63449000D01*
X48047000Y-69174000D02*
X50447000Y-69174000D01*
X48047000Y-69049000D02*
X50447000Y-69049000D01*
X50447000Y-69274000D02*
X48047000Y-69274000D01*
X48047000Y-68874000D02*
X50447000Y-68874000D01*
X48047000Y-68699000D02*
X50447000Y-68699000D01*
X48047000Y-68524000D02*
X50447000Y-68524000D01*
X118947000Y-49299000D02*
X124747000Y-49299000D01*
X118947000Y-51699000D02*
X118947000Y-49299000D01*
X124747000Y-51699000D02*
X118947000Y-51699000D01*
X124672000Y-51699000D02*
X124672000Y-49299000D01*
X124547000Y-51699000D02*
X124547000Y-49299000D01*
X124772000Y-49299000D02*
X124772000Y-51699000D01*
X124372000Y-51699000D02*
X124372000Y-49299000D01*
X124197000Y-51699000D02*
X124197000Y-49299000D01*
X124022000Y-51699000D02*
X124022000Y-49299000D01*
X102447000Y-49299000D02*
X108247000Y-49299000D01*
X102447000Y-51699000D02*
X102447000Y-49299000D01*
X108247000Y-51699000D02*
X102447000Y-51699000D01*
X108172000Y-51699000D02*
X108172000Y-49299000D01*
X108047000Y-51699000D02*
X108047000Y-49299000D01*
X108272000Y-49299000D02*
X108272000Y-51699000D01*
X107872000Y-51699000D02*
X107872000Y-49299000D01*
X107697000Y-51699000D02*
X107697000Y-49299000D01*
X107522000Y-51699000D02*
X107522000Y-49299000D01*
X93722000Y-51699000D02*
X93722000Y-49299000D01*
X93897000Y-51699000D02*
X93897000Y-49299000D01*
X94072000Y-51699000D02*
X94072000Y-49299000D01*
X94472000Y-49299000D02*
X94472000Y-51699000D01*
X94247000Y-51699000D02*
X94247000Y-49299000D01*
X94372000Y-51699000D02*
X94372000Y-49299000D01*
X94447000Y-51699000D02*
X88647000Y-51699000D01*
X88647000Y-51699000D02*
X88647000Y-49299000D01*
X88647000Y-49299000D02*
X94447000Y-49299000D01*
X61197000Y-63449000D02*
X61197000Y-69249000D01*
X58797000Y-63449000D02*
X61197000Y-63449000D01*
X58797000Y-69249000D02*
X58797000Y-63449000D01*
X58797000Y-69174000D02*
X61197000Y-69174000D01*
X58797000Y-69049000D02*
X61197000Y-69049000D01*
X61197000Y-69274000D02*
X58797000Y-69274000D01*
X58797000Y-68874000D02*
X61197000Y-68874000D01*
X58797000Y-68699000D02*
X61197000Y-68699000D01*
X58797000Y-68524000D02*
X61197000Y-68524000D01*
D11*
X136497000Y-99874000D02*
X136497000Y-97874000D01*
X141497000Y-99874000D02*
X141497000Y-97874000D01*
X141497000Y-97874000D02*
X136497000Y-97874000D01*
X136497000Y-99874000D02*
X135897000Y-99874000D01*
X142097000Y-99874000D02*
X141497000Y-99874000D01*
X135897000Y-111974000D02*
X142097000Y-111974000D01*
X142097000Y-99874000D02*
X142097000Y-102249000D01*
X142097000Y-103899000D02*
X142097000Y-105249000D01*
X142097000Y-106899000D02*
X142097000Y-109299000D01*
X142097000Y-110849000D02*
X142097000Y-111974000D01*
X135897000Y-110399000D02*
X135897000Y-99874000D01*
X142097000Y-110849000D02*
X143497000Y-110849000D01*
X142097000Y-109299000D02*
X143497000Y-109299000D01*
D14*
X66447000Y-127999000D02*
X71497000Y-127999000D01*
X66447000Y-123749000D02*
X66447000Y-127999000D01*
X66447000Y-112499000D02*
X66447000Y-116749000D01*
X71997000Y-112499000D02*
X66447000Y-112499000D01*
X87547000Y-127999000D02*
X82497000Y-127999000D01*
X87547000Y-123749000D02*
X87547000Y-127999000D01*
X87502000Y-112499000D02*
X87547000Y-116749000D01*
X81997000Y-112499000D02*
X87502000Y-112499000D01*
D11*
X117167000Y-60579000D02*
X117167000Y-59249000D01*
X118497000Y-60579000D02*
X117167000Y-60579000D01*
X117167000Y-57979000D02*
X117167000Y-55379000D01*
X119767000Y-57979000D02*
X117167000Y-57979000D01*
X119767000Y-60579000D02*
X119767000Y-57979000D01*
X117167000Y-55379000D02*
X127447000Y-55379000D01*
X119767000Y-60579000D02*
X127447000Y-60579000D01*
X127447000Y-60579000D02*
X127447000Y-55379000D01*
D10*
X49088904Y-52511348D02*
X49088904Y-52054205D01*
X49888904Y-52282776D02*
X49088904Y-52282776D01*
X49088904Y-51863729D02*
X49888904Y-51330395D01*
X49088904Y-51330395D02*
X49888904Y-51863729D01*
X49088904Y-50873252D02*
X49088904Y-50797062D01*
X49127000Y-50720872D01*
X49165095Y-50682776D01*
X49241285Y-50644681D01*
X49393666Y-50606586D01*
X49584142Y-50606586D01*
X49736523Y-50644681D01*
X49812714Y-50682776D01*
X49850809Y-50720872D01*
X49888904Y-50797062D01*
X49888904Y-50873252D01*
X49850809Y-50949443D01*
X49812714Y-50987538D01*
X49736523Y-51025633D01*
X49584142Y-51063729D01*
X49393666Y-51063729D01*
X49241285Y-51025633D01*
X49165095Y-50987538D01*
X49127000Y-50949443D01*
X49088904Y-50873252D01*
X49050809Y-49692300D02*
X50079380Y-50378014D01*
X49888904Y-49425633D02*
X49088904Y-49425633D01*
X49088904Y-49235157D01*
X49127000Y-49120872D01*
X49203190Y-49044681D01*
X49279380Y-49006586D01*
X49431761Y-48968491D01*
X49546047Y-48968491D01*
X49698428Y-49006586D01*
X49774619Y-49044681D01*
X49850809Y-49120872D01*
X49888904Y-49235157D01*
X49888904Y-49425633D01*
X49088904Y-48701824D02*
X49088904Y-48206586D01*
X49393666Y-48473252D01*
X49393666Y-48358967D01*
X49431761Y-48282776D01*
X49469857Y-48244681D01*
X49546047Y-48206586D01*
X49736523Y-48206586D01*
X49812714Y-48244681D01*
X49850809Y-48282776D01*
X49888904Y-48358967D01*
X49888904Y-48587538D01*
X49850809Y-48663729D01*
X49812714Y-48701824D01*
X52428904Y-52800476D02*
X51628904Y-52800476D01*
X51628904Y-52610000D01*
X51667000Y-52495714D01*
X51743190Y-52419523D01*
X51819380Y-52381428D01*
X51971761Y-52343333D01*
X52086047Y-52343333D01*
X52238428Y-52381428D01*
X52314619Y-52419523D01*
X52390809Y-52495714D01*
X52428904Y-52610000D01*
X52428904Y-52800476D01*
X51705095Y-52038571D02*
X51667000Y-52000476D01*
X51628904Y-51924285D01*
X51628904Y-51733809D01*
X51667000Y-51657619D01*
X51705095Y-51619523D01*
X51781285Y-51581428D01*
X51857476Y-51581428D01*
X51971761Y-51619523D01*
X52428904Y-52076666D01*
X52428904Y-51581428D01*
X62588904Y-52800476D02*
X61788904Y-52800476D01*
X61788904Y-52610000D01*
X61827000Y-52495714D01*
X61903190Y-52419523D01*
X61979380Y-52381428D01*
X62131761Y-52343333D01*
X62246047Y-52343333D01*
X62398428Y-52381428D01*
X62474619Y-52419523D01*
X62550809Y-52495714D01*
X62588904Y-52610000D01*
X62588904Y-52800476D01*
X61788904Y-51848095D02*
X61788904Y-51771904D01*
X61827000Y-51695714D01*
X61865095Y-51657619D01*
X61941285Y-51619523D01*
X62093666Y-51581428D01*
X62284142Y-51581428D01*
X62436523Y-51619523D01*
X62512714Y-51657619D01*
X62550809Y-51695714D01*
X62588904Y-51771904D01*
X62588904Y-51848095D01*
X62550809Y-51924285D01*
X62512714Y-51962380D01*
X62436523Y-52000476D01*
X62284142Y-52038571D01*
X62093666Y-52038571D01*
X61941285Y-52000476D01*
X61865095Y-51962380D01*
X61827000Y-51924285D01*
X61788904Y-51848095D01*
X60048904Y-52800476D02*
X59248904Y-52800476D01*
X59248904Y-52610000D01*
X59287000Y-52495714D01*
X59363190Y-52419523D01*
X59439380Y-52381428D01*
X59591761Y-52343333D01*
X59706047Y-52343333D01*
X59858428Y-52381428D01*
X59934619Y-52419523D01*
X60010809Y-52495714D01*
X60048904Y-52610000D01*
X60048904Y-52800476D01*
X60048904Y-51581428D02*
X60048904Y-52038571D01*
X60048904Y-51810000D02*
X59248904Y-51810000D01*
X59363190Y-51886190D01*
X59439380Y-51962380D01*
X59477476Y-52038571D01*
X56747000Y-52819523D02*
X56708904Y-52895714D01*
X56708904Y-53010000D01*
X56747000Y-53124285D01*
X56823190Y-53200476D01*
X56899380Y-53238571D01*
X57051761Y-53276666D01*
X57166047Y-53276666D01*
X57318428Y-53238571D01*
X57394619Y-53200476D01*
X57470809Y-53124285D01*
X57508904Y-53010000D01*
X57508904Y-52933809D01*
X57470809Y-52819523D01*
X57432714Y-52781428D01*
X57166047Y-52781428D01*
X57166047Y-52933809D01*
X57508904Y-52438571D02*
X56708904Y-52438571D01*
X57508904Y-51981428D01*
X56708904Y-51981428D01*
X57508904Y-51600476D02*
X56708904Y-51600476D01*
X56708904Y-51410000D01*
X56747000Y-51295714D01*
X56823190Y-51219523D01*
X56899380Y-51181428D01*
X57051761Y-51143333D01*
X57166047Y-51143333D01*
X57318428Y-51181428D01*
X57394619Y-51219523D01*
X57470809Y-51295714D01*
X57508904Y-51410000D01*
X57508904Y-51600476D01*
X54207000Y-52819523D02*
X54168904Y-52895714D01*
X54168904Y-53010000D01*
X54207000Y-53124285D01*
X54283190Y-53200476D01*
X54359380Y-53238571D01*
X54511761Y-53276666D01*
X54626047Y-53276666D01*
X54778428Y-53238571D01*
X54854619Y-53200476D01*
X54930809Y-53124285D01*
X54968904Y-53010000D01*
X54968904Y-52933809D01*
X54930809Y-52819523D01*
X54892714Y-52781428D01*
X54626047Y-52781428D01*
X54626047Y-52933809D01*
X54968904Y-52438571D02*
X54168904Y-52438571D01*
X54968904Y-51981428D01*
X54168904Y-51981428D01*
X54968904Y-51600476D02*
X54168904Y-51600476D01*
X54168904Y-51410000D01*
X54207000Y-51295714D01*
X54283190Y-51219523D01*
X54359380Y-51181428D01*
X54511761Y-51143333D01*
X54626047Y-51143333D01*
X54778428Y-51181428D01*
X54854619Y-51219523D01*
X54930809Y-51295714D01*
X54968904Y-51410000D01*
X54968904Y-51600476D01*
X65128904Y-52800476D02*
X64328904Y-52800476D01*
X64328904Y-52610000D01*
X64367000Y-52495714D01*
X64443190Y-52419523D01*
X64519380Y-52381428D01*
X64671761Y-52343333D01*
X64786047Y-52343333D01*
X64938428Y-52381428D01*
X65014619Y-52419523D01*
X65090809Y-52495714D01*
X65128904Y-52610000D01*
X65128904Y-52800476D01*
X64595571Y-51657619D02*
X65128904Y-51657619D01*
X64290809Y-51848095D02*
X64862238Y-52038571D01*
X64862238Y-51543333D01*
X67592714Y-52343333D02*
X67630809Y-52381428D01*
X67668904Y-52495714D01*
X67668904Y-52571904D01*
X67630809Y-52686190D01*
X67554619Y-52762380D01*
X67478428Y-52800476D01*
X67326047Y-52838571D01*
X67211761Y-52838571D01*
X67059380Y-52800476D01*
X66983190Y-52762380D01*
X66907000Y-52686190D01*
X66868904Y-52571904D01*
X66868904Y-52495714D01*
X66907000Y-52381428D01*
X66945095Y-52343333D01*
X66868904Y-51657619D02*
X66868904Y-51810000D01*
X66907000Y-51886190D01*
X66945095Y-51924285D01*
X67059380Y-52000476D01*
X67211761Y-52038571D01*
X67516523Y-52038571D01*
X67592714Y-52000476D01*
X67630809Y-51962380D01*
X67668904Y-51886190D01*
X67668904Y-51733809D01*
X67630809Y-51657619D01*
X67592714Y-51619523D01*
X67516523Y-51581428D01*
X67326047Y-51581428D01*
X67249857Y-51619523D01*
X67211761Y-51657619D01*
X67173666Y-51733809D01*
X67173666Y-51886190D01*
X67211761Y-51962380D01*
X67249857Y-52000476D01*
X67326047Y-52038571D01*
X70208904Y-52800476D02*
X69408904Y-52800476D01*
X69408904Y-52610000D01*
X69447000Y-52495714D01*
X69523190Y-52419523D01*
X69599380Y-52381428D01*
X69751761Y-52343333D01*
X69866047Y-52343333D01*
X70018428Y-52381428D01*
X70094619Y-52419523D01*
X70170809Y-52495714D01*
X70208904Y-52610000D01*
X70208904Y-52800476D01*
X69408904Y-52076666D02*
X69408904Y-51543333D01*
X70208904Y-51886190D01*
X72329857Y-52762380D02*
X72329857Y-52495714D01*
X72748904Y-52381428D02*
X72748904Y-52762380D01*
X71948904Y-52762380D01*
X71948904Y-52381428D01*
X71948904Y-51695714D02*
X71948904Y-51848095D01*
X71987000Y-51924285D01*
X72025095Y-51962380D01*
X72139380Y-52038571D01*
X72291761Y-52076666D01*
X72596523Y-52076666D01*
X72672714Y-52038571D01*
X72710809Y-52000476D01*
X72748904Y-51924285D01*
X72748904Y-51771904D01*
X72710809Y-51695714D01*
X72672714Y-51657619D01*
X72596523Y-51619523D01*
X72406047Y-51619523D01*
X72329857Y-51657619D01*
X72291761Y-51695714D01*
X72253666Y-51771904D01*
X72253666Y-51924285D01*
X72291761Y-52000476D01*
X72329857Y-52038571D01*
X72406047Y-52076666D01*
X74869857Y-52533809D02*
X74907952Y-52419523D01*
X74946047Y-52381428D01*
X75022238Y-52343333D01*
X75136523Y-52343333D01*
X75212714Y-52381428D01*
X75250809Y-52419523D01*
X75288904Y-52495714D01*
X75288904Y-52800476D01*
X74488904Y-52800476D01*
X74488904Y-52533809D01*
X74527000Y-52457619D01*
X74565095Y-52419523D01*
X74641285Y-52381428D01*
X74717476Y-52381428D01*
X74793666Y-52419523D01*
X74831761Y-52457619D01*
X74869857Y-52533809D01*
X74869857Y-52800476D01*
X74755571Y-51657619D02*
X75288904Y-51657619D01*
X74450809Y-51848095D02*
X75022238Y-52038571D01*
X75022238Y-51543333D01*
X77409857Y-52533809D02*
X77447952Y-52419523D01*
X77486047Y-52381428D01*
X77562238Y-52343333D01*
X77676523Y-52343333D01*
X77752714Y-52381428D01*
X77790809Y-52419523D01*
X77828904Y-52495714D01*
X77828904Y-52800476D01*
X77028904Y-52800476D01*
X77028904Y-52533809D01*
X77067000Y-52457619D01*
X77105095Y-52419523D01*
X77181285Y-52381428D01*
X77257476Y-52381428D01*
X77333666Y-52419523D01*
X77371761Y-52457619D01*
X77409857Y-52533809D01*
X77409857Y-52800476D01*
X77028904Y-51619523D02*
X77028904Y-52000476D01*
X77409857Y-52038571D01*
X77371761Y-52000476D01*
X77333666Y-51924285D01*
X77333666Y-51733809D01*
X77371761Y-51657619D01*
X77409857Y-51619523D01*
X77486047Y-51581428D01*
X77676523Y-51581428D01*
X77752714Y-51619523D01*
X77790809Y-51657619D01*
X77828904Y-51733809D01*
X77828904Y-51924285D01*
X77790809Y-52000476D01*
X77752714Y-52038571D01*
X77409857Y-41611809D02*
X77447952Y-41497523D01*
X77486047Y-41459428D01*
X77562238Y-41421333D01*
X77676523Y-41421333D01*
X77752714Y-41459428D01*
X77790809Y-41497523D01*
X77828904Y-41573714D01*
X77828904Y-41878476D01*
X77028904Y-41878476D01*
X77028904Y-41611809D01*
X77067000Y-41535619D01*
X77105095Y-41497523D01*
X77181285Y-41459428D01*
X77257476Y-41459428D01*
X77333666Y-41497523D01*
X77371761Y-41535619D01*
X77409857Y-41611809D01*
X77409857Y-41878476D01*
X77028904Y-40735619D02*
X77028904Y-40888000D01*
X77067000Y-40964190D01*
X77105095Y-41002285D01*
X77219380Y-41078476D01*
X77371761Y-41116571D01*
X77676523Y-41116571D01*
X77752714Y-41078476D01*
X77790809Y-41040380D01*
X77828904Y-40964190D01*
X77828904Y-40811809D01*
X77790809Y-40735619D01*
X77752714Y-40697523D01*
X77676523Y-40659428D01*
X77486047Y-40659428D01*
X77409857Y-40697523D01*
X77371761Y-40735619D01*
X77333666Y-40811809D01*
X77333666Y-40964190D01*
X77371761Y-41040380D01*
X77409857Y-41078476D01*
X77486047Y-41116571D01*
X72329857Y-41611809D02*
X72367952Y-41497523D01*
X72406047Y-41459428D01*
X72482238Y-41421333D01*
X72596523Y-41421333D01*
X72672714Y-41459428D01*
X72710809Y-41497523D01*
X72748904Y-41573714D01*
X72748904Y-41878476D01*
X71948904Y-41878476D01*
X71948904Y-41611809D01*
X71987000Y-41535619D01*
X72025095Y-41497523D01*
X72101285Y-41459428D01*
X72177476Y-41459428D01*
X72253666Y-41497523D01*
X72291761Y-41535619D01*
X72329857Y-41611809D01*
X72329857Y-41878476D01*
X71948904Y-41154666D02*
X71948904Y-40659428D01*
X72253666Y-40926095D01*
X72253666Y-40811809D01*
X72291761Y-40735619D01*
X72329857Y-40697523D01*
X72406047Y-40659428D01*
X72596523Y-40659428D01*
X72672714Y-40697523D01*
X72710809Y-40735619D01*
X72748904Y-40811809D01*
X72748904Y-41040380D01*
X72710809Y-41116571D01*
X72672714Y-41154666D01*
X69789857Y-41611809D02*
X69827952Y-41497523D01*
X69866047Y-41459428D01*
X69942238Y-41421333D01*
X70056523Y-41421333D01*
X70132714Y-41459428D01*
X70170809Y-41497523D01*
X70208904Y-41573714D01*
X70208904Y-41878476D01*
X69408904Y-41878476D01*
X69408904Y-41611809D01*
X69447000Y-41535619D01*
X69485095Y-41497523D01*
X69561285Y-41459428D01*
X69637476Y-41459428D01*
X69713666Y-41497523D01*
X69751761Y-41535619D01*
X69789857Y-41611809D01*
X69789857Y-41878476D01*
X70208904Y-40659428D02*
X70208904Y-41116571D01*
X70208904Y-40888000D02*
X69408904Y-40888000D01*
X69523190Y-40964190D01*
X69599380Y-41040380D01*
X69637476Y-41116571D01*
X59629857Y-41554666D02*
X59629857Y-41821333D01*
X60048904Y-41821333D02*
X59248904Y-41821333D01*
X59248904Y-41440380D01*
X59515571Y-40792761D02*
X60048904Y-40792761D01*
X59210809Y-40983238D02*
X59782238Y-41173714D01*
X59782238Y-40678476D01*
X56708904Y-42354666D02*
X57508904Y-42088000D01*
X56708904Y-41821333D01*
X57432714Y-41097523D02*
X57470809Y-41135619D01*
X57508904Y-41249904D01*
X57508904Y-41326095D01*
X57470809Y-41440380D01*
X57394619Y-41516571D01*
X57318428Y-41554666D01*
X57166047Y-41592761D01*
X57051761Y-41592761D01*
X56899380Y-41554666D01*
X56823190Y-41516571D01*
X56747000Y-41440380D01*
X56708904Y-41326095D01*
X56708904Y-41249904D01*
X56747000Y-41135619D01*
X56785095Y-41097523D01*
X57432714Y-40297523D02*
X57470809Y-40335619D01*
X57508904Y-40449904D01*
X57508904Y-40526095D01*
X57470809Y-40640380D01*
X57394619Y-40716571D01*
X57318428Y-40754666D01*
X57166047Y-40792761D01*
X57051761Y-40792761D01*
X56899380Y-40754666D01*
X56823190Y-40716571D01*
X56747000Y-40640380D01*
X56708904Y-40526095D01*
X56708904Y-40449904D01*
X56747000Y-40335619D01*
X56785095Y-40297523D01*
X54900809Y-41549213D02*
X54938904Y-41434927D01*
X54938904Y-41244451D01*
X54900809Y-41168260D01*
X54862714Y-41130165D01*
X54786523Y-41092070D01*
X54710333Y-41092070D01*
X54634142Y-41130165D01*
X54596047Y-41168260D01*
X54557952Y-41244451D01*
X54519857Y-41396832D01*
X54481761Y-41473022D01*
X54443666Y-41511118D01*
X54367476Y-41549213D01*
X54291285Y-41549213D01*
X54215095Y-41511118D01*
X54177000Y-41473022D01*
X54138904Y-41396832D01*
X54138904Y-41206356D01*
X54177000Y-41092070D01*
X54138904Y-40863499D02*
X54138904Y-40406356D01*
X54938904Y-40634927D02*
X54138904Y-40634927D01*
X51667000Y-41897523D02*
X51628904Y-41973714D01*
X51628904Y-42088000D01*
X51667000Y-42202285D01*
X51743190Y-42278476D01*
X51819380Y-42316571D01*
X51971761Y-42354666D01*
X52086047Y-42354666D01*
X52238428Y-42316571D01*
X52314619Y-42278476D01*
X52390809Y-42202285D01*
X52428904Y-42088000D01*
X52428904Y-42011809D01*
X52390809Y-41897523D01*
X52352714Y-41859428D01*
X52086047Y-41859428D01*
X52086047Y-42011809D01*
X52428904Y-41516571D02*
X51628904Y-41516571D01*
X52428904Y-41059428D01*
X51628904Y-41059428D01*
X52428904Y-40678476D02*
X51628904Y-40678476D01*
X51628904Y-40488000D01*
X51667000Y-40373714D01*
X51743190Y-40297523D01*
X51819380Y-40259428D01*
X51971761Y-40221333D01*
X52086047Y-40221333D01*
X52238428Y-40259428D01*
X52314619Y-40297523D01*
X52390809Y-40373714D01*
X52428904Y-40488000D01*
X52428904Y-40678476D01*
X49888904Y-41840380D02*
X49507952Y-42107047D01*
X49888904Y-42297523D02*
X49088904Y-42297523D01*
X49088904Y-41992761D01*
X49127000Y-41916571D01*
X49165095Y-41878476D01*
X49241285Y-41840380D01*
X49355571Y-41840380D01*
X49431761Y-41878476D01*
X49469857Y-41916571D01*
X49507952Y-41992761D01*
X49507952Y-42297523D01*
X49660333Y-41535619D02*
X49660333Y-41154666D01*
X49888904Y-41611809D02*
X49088904Y-41345142D01*
X49888904Y-41078476D01*
X49088904Y-40888000D02*
X49888904Y-40697523D01*
X49317476Y-40545142D01*
X49888904Y-40392761D01*
X49088904Y-40202285D01*
X62169857Y-41554666D02*
X62169857Y-41821333D01*
X62588904Y-41821333D02*
X61788904Y-41821333D01*
X61788904Y-41440380D01*
X61788904Y-40754666D02*
X61788904Y-41135619D01*
X62169857Y-41173714D01*
X62131761Y-41135619D01*
X62093666Y-41059428D01*
X62093666Y-40868952D01*
X62131761Y-40792761D01*
X62169857Y-40754666D01*
X62246047Y-40716571D01*
X62436523Y-40716571D01*
X62512714Y-40754666D01*
X62550809Y-40792761D01*
X62588904Y-40868952D01*
X62588904Y-41059428D01*
X62550809Y-41135619D01*
X62512714Y-41173714D01*
X64709857Y-41554666D02*
X64709857Y-41821333D01*
X65128904Y-41821333D02*
X64328904Y-41821333D01*
X64328904Y-41440380D01*
X64328904Y-40792761D02*
X64328904Y-40945142D01*
X64367000Y-41021333D01*
X64405095Y-41059428D01*
X64519380Y-41135619D01*
X64671761Y-41173714D01*
X64976523Y-41173714D01*
X65052714Y-41135619D01*
X65090809Y-41097523D01*
X65128904Y-41021333D01*
X65128904Y-40868952D01*
X65090809Y-40792761D01*
X65052714Y-40754666D01*
X64976523Y-40716571D01*
X64786047Y-40716571D01*
X64709857Y-40754666D01*
X64671761Y-40792761D01*
X64633666Y-40868952D01*
X64633666Y-41021333D01*
X64671761Y-41097523D01*
X64709857Y-41135619D01*
X64786047Y-41173714D01*
X67249857Y-41554666D02*
X67249857Y-41821333D01*
X67668904Y-41821333D02*
X66868904Y-41821333D01*
X66868904Y-41440380D01*
X66868904Y-41211809D02*
X66868904Y-40678476D01*
X67668904Y-41021333D01*
X74869857Y-41611809D02*
X74907952Y-41497523D01*
X74946047Y-41459428D01*
X75022238Y-41421333D01*
X75136523Y-41421333D01*
X75212714Y-41459428D01*
X75250809Y-41497523D01*
X75288904Y-41573714D01*
X75288904Y-41878476D01*
X74488904Y-41878476D01*
X74488904Y-41611809D01*
X74527000Y-41535619D01*
X74565095Y-41497523D01*
X74641285Y-41459428D01*
X74717476Y-41459428D01*
X74793666Y-41497523D01*
X74831761Y-41535619D01*
X74869857Y-41611809D01*
X74869857Y-41878476D01*
X74565095Y-41116571D02*
X74527000Y-41078476D01*
X74488904Y-41002285D01*
X74488904Y-40811809D01*
X74527000Y-40735619D01*
X74565095Y-40697523D01*
X74641285Y-40659428D01*
X74717476Y-40659428D01*
X74831761Y-40697523D01*
X75288904Y-41154666D01*
X75288904Y-40659428D01*
D15*
X76029380Y-119553523D02*
X76029380Y-120581619D01*
X76089857Y-120702571D01*
X76150333Y-120763047D01*
X76271285Y-120823523D01*
X76513190Y-120823523D01*
X76634142Y-120763047D01*
X76694619Y-120702571D01*
X76755095Y-120581619D01*
X76755095Y-119553523D01*
X77904142Y-119976857D02*
X77904142Y-120823523D01*
X77601761Y-119493047D02*
X77299380Y-120400190D01*
X78085571Y-120400190D01*
M02*
