G04 #@! TF.GenerationSoftware,KiCad,Pcbnew,5.1.4-e60b266~84~ubuntu19.04.1*
G04 #@! TF.CreationDate,2019-12-12T04:42:41-06:00*
G04 #@! TF.ProjectId,fissure,66697373-7572-4652-9e6b-696361645f70,rev?*
G04 #@! TF.SameCoordinates,Original*
G04 #@! TF.FileFunction,Copper,L2,Bot*
G04 #@! TF.FilePolarity,Positive*
%FSLAX46Y46*%
G04 Gerber Fmt 4.6, Leading zero omitted, Abs format (unit mm)*
G04 Created by KiCad (PCBNEW 5.1.4-e60b266~84~ubuntu19.04.1) date 2019-12-12 04:42:41*
%MOMM*%
%LPD*%
G04 APERTURE LIST*
%ADD10C,1.600000*%
%ADD11R,1.600000X1.600000*%
%ADD12R,0.500000X2.500000*%
%ADD13R,1.200000X1.200000*%
%ADD14R,2.500000X0.500000*%
%ADD15C,1.752600*%
%ADD16R,1.752600X1.752600*%
%ADD17O,1.700000X1.700000*%
%ADD18R,1.700000X1.700000*%
%ADD19R,2.500000X1.200000*%
%ADD20C,2.300000*%
%ADD21C,17.800000*%
%ADD22C,2.000000*%
%ADD23C,0.800000*%
%ADD24C,0.508000*%
%ADD25C,1.270000*%
%ADD26C,0.254000*%
G04 APERTURE END LIST*
D10*
X127247000Y-118099000D03*
D11*
X127247000Y-125899000D03*
D12*
X127247000Y-119299000D03*
D13*
X127247000Y-120424000D03*
X127247000Y-123574000D03*
D12*
X127247000Y-124699000D03*
D10*
X108747000Y-116349000D03*
D11*
X108747000Y-124149000D03*
D12*
X108747000Y-117549000D03*
D13*
X108747000Y-118674000D03*
X108747000Y-121824000D03*
D12*
X108747000Y-122949000D03*
D10*
X90747000Y-116099000D03*
D11*
X90747000Y-123899000D03*
D12*
X90747000Y-117299000D03*
D13*
X90747000Y-118424000D03*
X90747000Y-121574000D03*
D12*
X90747000Y-122699000D03*
D10*
X116247000Y-100099000D03*
D11*
X116247000Y-107899000D03*
D12*
X116247000Y-101299000D03*
D13*
X116247000Y-102424000D03*
X116247000Y-105574000D03*
D12*
X116247000Y-106699000D03*
D10*
X97747000Y-97849000D03*
D11*
X97747000Y-105649000D03*
D12*
X97747000Y-99049000D03*
D13*
X97747000Y-100174000D03*
X97747000Y-103324000D03*
D12*
X97747000Y-104449000D03*
D10*
X81347000Y-105499000D03*
D11*
X89147000Y-105499000D03*
D14*
X82547000Y-105499000D03*
D13*
X83672000Y-105499000D03*
X86822000Y-105499000D03*
D14*
X87947000Y-105499000D03*
D10*
X78747000Y-98099000D03*
D11*
X78747000Y-105899000D03*
D12*
X78747000Y-99299000D03*
D13*
X78747000Y-100424000D03*
X78747000Y-103574000D03*
D12*
X78747000Y-104699000D03*
D10*
X63247000Y-119849000D03*
D11*
X63247000Y-127649000D03*
D12*
X63247000Y-121049000D03*
D13*
X63247000Y-122174000D03*
X63247000Y-125324000D03*
D12*
X63247000Y-126449000D03*
D10*
X116347000Y-95999000D03*
D11*
X124147000Y-95999000D03*
D14*
X117547000Y-95999000D03*
D13*
X118672000Y-95999000D03*
X121822000Y-95999000D03*
D14*
X122947000Y-95999000D03*
D10*
X97847000Y-92749000D03*
D11*
X105647000Y-92749000D03*
D14*
X99047000Y-92749000D03*
D13*
X100172000Y-92749000D03*
X103322000Y-92749000D03*
D14*
X104447000Y-92749000D03*
D10*
X80347000Y-87999000D03*
D11*
X88147000Y-87999000D03*
D14*
X81547000Y-87999000D03*
D13*
X82672000Y-87999000D03*
X85822000Y-87999000D03*
D14*
X86947000Y-87999000D03*
D10*
X78147000Y-92999000D03*
D11*
X70347000Y-92999000D03*
D14*
X76947000Y-92999000D03*
D13*
X75822000Y-92999000D03*
X72672000Y-92999000D03*
D14*
X71547000Y-92999000D03*
D10*
X60647000Y-112499000D03*
D11*
X52847000Y-112499000D03*
D14*
X59447000Y-112499000D03*
D13*
X58322000Y-112499000D03*
X55172000Y-112499000D03*
D14*
X54047000Y-112499000D03*
D10*
X116347000Y-78499000D03*
D11*
X124147000Y-78499000D03*
D14*
X117547000Y-78499000D03*
D13*
X118672000Y-78499000D03*
X121822000Y-78499000D03*
D14*
X122947000Y-78499000D03*
D10*
X97772000Y-75499000D03*
D11*
X105572000Y-75499000D03*
D14*
X98972000Y-75499000D03*
D13*
X100097000Y-75499000D03*
X103247000Y-75499000D03*
D14*
X104372000Y-75499000D03*
D10*
X80347000Y-70499000D03*
D11*
X88147000Y-70499000D03*
D14*
X81547000Y-70499000D03*
D13*
X82672000Y-70499000D03*
X85822000Y-70499000D03*
D14*
X86947000Y-70499000D03*
D10*
X78147000Y-75499000D03*
D11*
X70347000Y-75499000D03*
D14*
X76947000Y-75499000D03*
D13*
X75822000Y-75499000D03*
X72672000Y-75499000D03*
D14*
X71547000Y-75499000D03*
D10*
X60647000Y-94999000D03*
D11*
X52847000Y-94999000D03*
D14*
X59447000Y-94999000D03*
D13*
X58322000Y-94999000D03*
X55172000Y-94999000D03*
D14*
X54047000Y-94999000D03*
D15*
X49527000Y-39129000D03*
X77467000Y-54369000D03*
X52067000Y-39129000D03*
X54607000Y-39129000D03*
X57147000Y-39129000D03*
X59687000Y-39129000D03*
X62227000Y-39129000D03*
X64767000Y-39129000D03*
X67307000Y-39129000D03*
X69847000Y-39129000D03*
X72387000Y-39129000D03*
X74927000Y-39129000D03*
X77467000Y-39129000D03*
X74927000Y-54369000D03*
X72387000Y-54369000D03*
X69847000Y-54369000D03*
X67307000Y-54369000D03*
X64767000Y-54369000D03*
X62227000Y-54369000D03*
X59687000Y-54369000D03*
X57147000Y-54369000D03*
X54607000Y-54369000D03*
X52067000Y-54369000D03*
D16*
X49527000Y-54369000D03*
D17*
X80997000Y-38549000D03*
X80997000Y-41089000D03*
X80997000Y-43629000D03*
X80997000Y-46169000D03*
X80997000Y-48709000D03*
D18*
X80997000Y-51249000D03*
D19*
X135747000Y-103074000D03*
X135747000Y-106074000D03*
X135747000Y-110074000D03*
X142247000Y-111174000D03*
D20*
X87397000Y-118749000D03*
X87397000Y-121849000D03*
X66597000Y-121849000D03*
X66597000Y-118749000D03*
X66597000Y-121849000D03*
X66597000Y-118749000D03*
X87397000Y-118749000D03*
X87397000Y-121849000D03*
D21*
X76997000Y-120349000D03*
D17*
X126117000Y-56709000D03*
X126117000Y-59249000D03*
X123577000Y-56709000D03*
X123577000Y-59249000D03*
X121037000Y-56709000D03*
X121037000Y-59249000D03*
X118497000Y-56709000D03*
D18*
X118497000Y-59249000D03*
D22*
X141497000Y-123449000D03*
X136497000Y-121349000D03*
X131497000Y-123449000D03*
X122997000Y-118449000D03*
X117997000Y-116349000D03*
X112997000Y-118449000D03*
X104497000Y-116449000D03*
X99497000Y-114349000D03*
X94497000Y-116449000D03*
X120497000Y-108549000D03*
X125497000Y-110649000D03*
X130497000Y-108549000D03*
X101997000Y-105549000D03*
X106997000Y-107649000D03*
X111997000Y-105549000D03*
X83497000Y-100549000D03*
X88497000Y-102649000D03*
X93497000Y-100549000D03*
X64997000Y-105549000D03*
X69997000Y-107649000D03*
X74997000Y-105549000D03*
X59497000Y-117449000D03*
X54497000Y-115349000D03*
X49497000Y-117449000D03*
X120497000Y-91049000D03*
X125497000Y-93149000D03*
X130497000Y-91049000D03*
X101997000Y-88049000D03*
X106997000Y-90149000D03*
X111997000Y-88049000D03*
X83497000Y-83049000D03*
X88497000Y-85149000D03*
X93497000Y-83049000D03*
X64997000Y-88049000D03*
X69997000Y-90149000D03*
X74997000Y-88049000D03*
X46497000Y-107549000D03*
X51497000Y-109649000D03*
X56497000Y-107549000D03*
X120497000Y-73549000D03*
X125497000Y-75649000D03*
X130497000Y-73549000D03*
X101997000Y-70549000D03*
X106997000Y-72649000D03*
X111997000Y-70549000D03*
X83497000Y-65549000D03*
X88497000Y-67649000D03*
X93497000Y-65549000D03*
X64997000Y-70549000D03*
X69997000Y-72649000D03*
X74997000Y-70549000D03*
X46497000Y-90049000D03*
X51497000Y-92149000D03*
X56497000Y-90049000D03*
D23*
X75597000Y-44749000D03*
X138997000Y-112249000D03*
X81247000Y-111749000D03*
X138997000Y-103249000D03*
X88747000Y-109749000D03*
X44837000Y-60339000D03*
X51197000Y-68549000D03*
X48377000Y-109649000D03*
X62247000Y-70769000D03*
X84497000Y-113249000D03*
X84197000Y-42369000D03*
X87497000Y-44999000D03*
X83897000Y-39809000D03*
X86497000Y-42249000D03*
X128497000Y-53249000D03*
X138997000Y-110249000D03*
X138997000Y-105999000D03*
D24*
X73957000Y-51089000D02*
X75597000Y-49449000D01*
X53587000Y-51089000D02*
X73957000Y-51089000D01*
X75597000Y-49449000D02*
X75597000Y-44749000D01*
X52067000Y-54369000D02*
X52067000Y-52609000D01*
X52067000Y-52609000D02*
X53587000Y-51089000D01*
X49527000Y-54369000D02*
X49527000Y-51319000D01*
X49527000Y-51319000D02*
X50567000Y-50279000D01*
X50567000Y-50279000D02*
X59237000Y-50279000D01*
X65887000Y-43629000D02*
X80997000Y-43629000D01*
X59237000Y-50279000D02*
X65887000Y-43629000D01*
D25*
X142247000Y-111174000D02*
X142247000Y-111749000D01*
X142247000Y-111749000D02*
X141747000Y-112249000D01*
X141747000Y-112249000D02*
X138997000Y-112249000D01*
X57147000Y-54369000D02*
X57147000Y-53759000D01*
X57147000Y-53759000D02*
X58457000Y-52449000D01*
X74717000Y-52449000D02*
X80997000Y-46169000D01*
X58457000Y-52449000D02*
X74717000Y-52449000D01*
X76997000Y-120349000D02*
X76997000Y-115999000D01*
X76997000Y-115999000D02*
X81247000Y-111749000D01*
X110902000Y-114134000D02*
X108457000Y-111689000D01*
X108457000Y-111689000D02*
X81307000Y-111689000D01*
X138997000Y-112249000D02*
X137112000Y-114134000D01*
X81307000Y-111689000D02*
X81247000Y-111749000D01*
X137112000Y-114134000D02*
X110902000Y-114134000D01*
X135747000Y-103074000D02*
X138822000Y-103074000D01*
X138822000Y-103074000D02*
X138997000Y-103249000D01*
X80997000Y-48709000D02*
X82757000Y-48709000D01*
X82757000Y-48709000D02*
X89897000Y-55849000D01*
X117637000Y-55849000D02*
X118497000Y-56709000D01*
X89897000Y-55849000D02*
X117637000Y-55849000D01*
X109957000Y-109749000D02*
X112707000Y-112499000D01*
X88747000Y-109749000D02*
X109957000Y-109749000D01*
X134422000Y-103074000D02*
X135747000Y-103074000D01*
X112707000Y-112499000D02*
X133247000Y-112499000D01*
X133247000Y-104249000D02*
X134422000Y-103074000D01*
X133247000Y-112499000D02*
X133247000Y-104249000D01*
D24*
X51497000Y-92149000D02*
X58397000Y-92149000D01*
X61847000Y-72649000D02*
X69997000Y-72649000D01*
X106997000Y-72649000D02*
X113397000Y-72649000D01*
X116397000Y-75649000D02*
X125497000Y-75649000D01*
X113397000Y-72649000D02*
X116397000Y-75649000D01*
X88847000Y-67649000D02*
X93847000Y-72649000D01*
X88497000Y-67649000D02*
X88847000Y-67649000D01*
X69997000Y-72649000D02*
X93847000Y-72649000D01*
X93847000Y-72649000D02*
X106997000Y-72649000D01*
X59687000Y-39129000D02*
X59687000Y-40509000D01*
X59687000Y-40509000D02*
X54557000Y-45639000D01*
X54557000Y-45639000D02*
X45977000Y-45639000D01*
X45977000Y-45639000D02*
X44837000Y-46779000D01*
X44837000Y-46779000D02*
X44837000Y-60339000D01*
X61847000Y-72649000D02*
X59357000Y-72649000D01*
X58397000Y-73609000D02*
X59357000Y-72649000D01*
X58397000Y-92149000D02*
X58397000Y-73609000D01*
X58397000Y-73609000D02*
X56257000Y-73609000D01*
X56257000Y-73609000D02*
X51197000Y-68549000D01*
X69347000Y-90149000D02*
X69997000Y-90149000D01*
X62747000Y-96749000D02*
X69347000Y-90149000D01*
X51597000Y-109649000D02*
X54747000Y-106499000D01*
X54747000Y-100499000D02*
X58497000Y-96749000D01*
X58497000Y-96749000D02*
X62747000Y-96749000D01*
X51497000Y-109649000D02*
X51597000Y-109649000D01*
X54747000Y-106499000D02*
X54747000Y-100499000D01*
X106997000Y-90149000D02*
X113897000Y-90149000D01*
X116897000Y-93149000D02*
X125497000Y-93149000D01*
X113897000Y-90149000D02*
X116897000Y-93149000D01*
X62227000Y-39129000D02*
X62227000Y-39529000D01*
X62227000Y-39529000D02*
X54907000Y-46849000D01*
X54907000Y-46849000D02*
X48227000Y-46849000D01*
X48227000Y-46849000D02*
X45957000Y-49119000D01*
X45957000Y-49119000D02*
X45957000Y-59999000D01*
X88497000Y-85149000D02*
X88597000Y-85149000D01*
X69997000Y-90149000D02*
X93597000Y-90149000D01*
X88597000Y-85149000D02*
X93597000Y-90149000D01*
X93597000Y-90149000D02*
X106997000Y-90149000D01*
X45957000Y-59999000D02*
X45957000Y-60119000D01*
X45957000Y-60119000D02*
X48377000Y-62539000D01*
X48377000Y-62539000D02*
X48377000Y-109649000D01*
X106997000Y-107649000D02*
X110897000Y-107649000D01*
X113897000Y-110649000D02*
X125497000Y-110649000D01*
X110897000Y-107649000D02*
X113897000Y-110649000D01*
X69997000Y-107649000D02*
X69997000Y-107749000D01*
X88497000Y-102649000D02*
X89147000Y-102649000D01*
X89147000Y-102649000D02*
X94147000Y-107649000D01*
X94147000Y-107649000D02*
X94397000Y-107649000D01*
X69997000Y-107649000D02*
X94397000Y-107649000D01*
X94397000Y-107649000D02*
X106997000Y-107649000D01*
X52097000Y-115349000D02*
X54497000Y-115349000D01*
X49267000Y-112519000D02*
X52097000Y-115349000D01*
X64767000Y-40159000D02*
X56997000Y-47929000D01*
X49907000Y-47929000D02*
X46957000Y-50879000D01*
X64767000Y-39129000D02*
X64767000Y-40159000D01*
X49267000Y-61829000D02*
X49267000Y-112519000D01*
X56997000Y-47929000D02*
X49907000Y-47929000D01*
X46957000Y-59519000D02*
X49267000Y-61829000D01*
X46957000Y-50879000D02*
X46957000Y-59519000D01*
X62297000Y-115349000D02*
X69997000Y-107649000D01*
X54497000Y-115349000D02*
X62297000Y-115349000D01*
X67307000Y-39129000D02*
X67307000Y-40379000D01*
X67307000Y-40379000D02*
X58207000Y-49479000D01*
X58207000Y-49479000D02*
X49687000Y-49479000D01*
X49687000Y-49479000D02*
X47987000Y-51179000D01*
X62247000Y-70769000D02*
X47987000Y-56509000D01*
X47987000Y-51179000D02*
X47987000Y-55539000D01*
X47987000Y-56509000D02*
X47987000Y-55539000D01*
X136497000Y-121349000D02*
X136497000Y-118999000D01*
X133847000Y-116349000D02*
X117997000Y-116349000D01*
X136497000Y-118999000D02*
X133847000Y-116349000D01*
X117997000Y-116349000D02*
X111097000Y-116349000D01*
X109097000Y-114349000D02*
X99497000Y-114349000D01*
X111097000Y-116349000D02*
X109097000Y-114349000D01*
X99497000Y-114349000D02*
X85597000Y-114349000D01*
X85597000Y-114349000D02*
X84497000Y-113249000D01*
D26*
X72387000Y-39129000D02*
X72617000Y-39129000D01*
X72617000Y-39129000D02*
X75857000Y-42369000D01*
X75857000Y-42369000D02*
X82087000Y-42369000D01*
X82087000Y-42369000D02*
X84197000Y-42369000D01*
D24*
X89747000Y-50499000D02*
X91497000Y-52249000D01*
X91497000Y-52249000D02*
X124247000Y-52249000D01*
X124247000Y-52249000D02*
X127747000Y-55749000D01*
X127747000Y-57619000D02*
X126117000Y-59249000D01*
X127747000Y-55749000D02*
X127747000Y-57619000D01*
X89747000Y-50499000D02*
X87497000Y-48249000D01*
X87497000Y-48249000D02*
X87497000Y-44999000D01*
D26*
X83887000Y-39799000D02*
X83897000Y-39809000D01*
X79507000Y-40589000D02*
X80297000Y-39799000D01*
X74927000Y-39129000D02*
X74927000Y-40069000D01*
X75447000Y-40589000D02*
X79507000Y-40589000D01*
X74927000Y-40069000D02*
X75447000Y-40589000D01*
X80297000Y-39799000D02*
X83887000Y-39799000D01*
D24*
X123577000Y-56709000D02*
X123577000Y-56329000D01*
X123577000Y-56329000D02*
X120497000Y-53249000D01*
X120497000Y-53249000D02*
X91247000Y-53249000D01*
X91247000Y-53249000D02*
X86497000Y-48499000D01*
X86497000Y-48499000D02*
X86497000Y-42249000D01*
X123577000Y-59249000D02*
X123577000Y-60079000D01*
X123577000Y-60079000D02*
X124247000Y-60749000D01*
X124247000Y-60749000D02*
X126497000Y-60749000D01*
X126497000Y-60749000D02*
X128497000Y-58749000D01*
X128497000Y-58749000D02*
X128497000Y-53249000D01*
X77467000Y-39129000D02*
X77467000Y-39099000D01*
D26*
X77467000Y-39129000D02*
X77807000Y-39129000D01*
X77807000Y-39129000D02*
X79657000Y-37279000D01*
X79657000Y-37279000D02*
X83127000Y-37279000D01*
D24*
X83127000Y-37279000D02*
X83527000Y-37279000D01*
X83527000Y-37279000D02*
X85247000Y-38999000D01*
X85247000Y-38999000D02*
X85247000Y-48999000D01*
X85247000Y-48999000D02*
X90747000Y-54499000D01*
X118827000Y-54499000D02*
X121037000Y-56709000D01*
X90747000Y-54499000D02*
X118827000Y-54499000D01*
D25*
X135747000Y-110074000D02*
X138822000Y-110074000D01*
X138822000Y-110074000D02*
X138997000Y-110249000D01*
D24*
X62227000Y-54369000D02*
X62227000Y-55579000D01*
X62227000Y-55579000D02*
X63727000Y-57079000D01*
X63727000Y-57079000D02*
X113157000Y-57079000D01*
X113157000Y-57079000D02*
X120117000Y-64039000D01*
X138997000Y-110249000D02*
X139677000Y-110249000D01*
X139677000Y-110249000D02*
X141297000Y-108629000D01*
X141297000Y-108629000D02*
X141297000Y-99309000D01*
X120117000Y-64039000D02*
X130487000Y-64039000D01*
X130487000Y-64039000D02*
X133797000Y-67349000D01*
X133797000Y-91809000D02*
X141297000Y-99309000D01*
X133797000Y-67349000D02*
X133797000Y-91809000D01*
D25*
X138922000Y-106074000D02*
X135747000Y-106074000D01*
X138997000Y-105999000D02*
X138922000Y-106074000D01*
D24*
X59687000Y-54799000D02*
X63417000Y-58529000D01*
X59687000Y-54369000D02*
X59687000Y-54799000D01*
X112237000Y-58529000D02*
X119357000Y-65649000D01*
X63417000Y-58529000D02*
X112237000Y-58529000D01*
X119357000Y-65649000D02*
X119397000Y-65649000D01*
X130097000Y-65649000D02*
X119357000Y-65649000D01*
X140477000Y-104519000D02*
X140477000Y-99629000D01*
X138997000Y-105999000D02*
X140477000Y-104519000D01*
X132797000Y-68349000D02*
X130097000Y-65649000D01*
X140477000Y-99629000D02*
X132797000Y-91949000D01*
X132797000Y-91949000D02*
X132797000Y-68349000D01*
M02*
