G04 #@! TF.GenerationSoftware,KiCad,Pcbnew,5.1.4-e60b266~84~ubuntu19.04.1*
G04 #@! TF.CreationDate,2019-12-12T04:42:41-06:00*
G04 #@! TF.ProjectId,fissure,66697373-7572-4652-9e6b-696361645f70,rev?*
G04 #@! TF.SameCoordinates,Original*
G04 #@! TF.FileFunction,Legend,Bot*
G04 #@! TF.FilePolarity,Positive*
%FSLAX46Y46*%
G04 Gerber Fmt 4.6, Leading zero omitted, Abs format (unit mm)*
G04 Created by KiCad (PCBNEW 5.1.4-e60b266~84~ubuntu19.04.1) date 2019-12-12 04:42:41*
%MOMM*%
%LPD*%
G04 APERTURE LIST*
%ADD10C,0.200000*%
%ADD11C,0.381000*%
%ADD12C,0.150000*%
%ADD13C,0.120000*%
%ADD14C,0.100000*%
%ADD15C,0.254000*%
G04 APERTURE END LIST*
D10*
X126047000Y-124274000D02*
X128447000Y-124274000D01*
X126047000Y-124449000D02*
X128447000Y-124449000D01*
X126047000Y-124624000D02*
X128447000Y-124624000D01*
X128447000Y-125024000D02*
X126047000Y-125024000D01*
X126047000Y-124799000D02*
X128447000Y-124799000D01*
X126047000Y-124924000D02*
X128447000Y-124924000D01*
X126047000Y-124999000D02*
X126047000Y-119199000D01*
X126047000Y-119199000D02*
X128447000Y-119199000D01*
X128447000Y-119199000D02*
X128447000Y-124999000D01*
X107547000Y-122524000D02*
X109947000Y-122524000D01*
X107547000Y-122699000D02*
X109947000Y-122699000D01*
X107547000Y-122874000D02*
X109947000Y-122874000D01*
X109947000Y-123274000D02*
X107547000Y-123274000D01*
X107547000Y-123049000D02*
X109947000Y-123049000D01*
X107547000Y-123174000D02*
X109947000Y-123174000D01*
X107547000Y-123249000D02*
X107547000Y-117449000D01*
X107547000Y-117449000D02*
X109947000Y-117449000D01*
X109947000Y-117449000D02*
X109947000Y-123249000D01*
X89547000Y-122274000D02*
X91947000Y-122274000D01*
X89547000Y-122449000D02*
X91947000Y-122449000D01*
X89547000Y-122624000D02*
X91947000Y-122624000D01*
X91947000Y-123024000D02*
X89547000Y-123024000D01*
X89547000Y-122799000D02*
X91947000Y-122799000D01*
X89547000Y-122924000D02*
X91947000Y-122924000D01*
X89547000Y-122999000D02*
X89547000Y-117199000D01*
X89547000Y-117199000D02*
X91947000Y-117199000D01*
X91947000Y-117199000D02*
X91947000Y-122999000D01*
X115047000Y-106274000D02*
X117447000Y-106274000D01*
X115047000Y-106449000D02*
X117447000Y-106449000D01*
X115047000Y-106624000D02*
X117447000Y-106624000D01*
X117447000Y-107024000D02*
X115047000Y-107024000D01*
X115047000Y-106799000D02*
X117447000Y-106799000D01*
X115047000Y-106924000D02*
X117447000Y-106924000D01*
X115047000Y-106999000D02*
X115047000Y-101199000D01*
X115047000Y-101199000D02*
X117447000Y-101199000D01*
X117447000Y-101199000D02*
X117447000Y-106999000D01*
X96547000Y-104024000D02*
X98947000Y-104024000D01*
X96547000Y-104199000D02*
X98947000Y-104199000D01*
X96547000Y-104374000D02*
X98947000Y-104374000D01*
X98947000Y-104774000D02*
X96547000Y-104774000D01*
X96547000Y-104549000D02*
X98947000Y-104549000D01*
X96547000Y-104674000D02*
X98947000Y-104674000D01*
X96547000Y-104749000D02*
X96547000Y-98949000D01*
X96547000Y-98949000D02*
X98947000Y-98949000D01*
X98947000Y-98949000D02*
X98947000Y-104749000D01*
X87522000Y-106699000D02*
X87522000Y-104299000D01*
X87697000Y-106699000D02*
X87697000Y-104299000D01*
X87872000Y-106699000D02*
X87872000Y-104299000D01*
X88272000Y-104299000D02*
X88272000Y-106699000D01*
X88047000Y-106699000D02*
X88047000Y-104299000D01*
X88172000Y-106699000D02*
X88172000Y-104299000D01*
X88247000Y-106699000D02*
X82447000Y-106699000D01*
X82447000Y-106699000D02*
X82447000Y-104299000D01*
X82447000Y-104299000D02*
X88247000Y-104299000D01*
X77547000Y-104274000D02*
X79947000Y-104274000D01*
X77547000Y-104449000D02*
X79947000Y-104449000D01*
X77547000Y-104624000D02*
X79947000Y-104624000D01*
X79947000Y-105024000D02*
X77547000Y-105024000D01*
X77547000Y-104799000D02*
X79947000Y-104799000D01*
X77547000Y-104924000D02*
X79947000Y-104924000D01*
X77547000Y-104999000D02*
X77547000Y-99199000D01*
X77547000Y-99199000D02*
X79947000Y-99199000D01*
X79947000Y-99199000D02*
X79947000Y-104999000D01*
X62047000Y-126024000D02*
X64447000Y-126024000D01*
X62047000Y-126199000D02*
X64447000Y-126199000D01*
X62047000Y-126374000D02*
X64447000Y-126374000D01*
X64447000Y-126774000D02*
X62047000Y-126774000D01*
X62047000Y-126549000D02*
X64447000Y-126549000D01*
X62047000Y-126674000D02*
X64447000Y-126674000D01*
X62047000Y-126749000D02*
X62047000Y-120949000D01*
X62047000Y-120949000D02*
X64447000Y-120949000D01*
X64447000Y-120949000D02*
X64447000Y-126749000D01*
X122522000Y-97199000D02*
X122522000Y-94799000D01*
X122697000Y-97199000D02*
X122697000Y-94799000D01*
X122872000Y-97199000D02*
X122872000Y-94799000D01*
X123272000Y-94799000D02*
X123272000Y-97199000D01*
X123047000Y-97199000D02*
X123047000Y-94799000D01*
X123172000Y-97199000D02*
X123172000Y-94799000D01*
X123247000Y-97199000D02*
X117447000Y-97199000D01*
X117447000Y-97199000D02*
X117447000Y-94799000D01*
X117447000Y-94799000D02*
X123247000Y-94799000D01*
X104022000Y-93949000D02*
X104022000Y-91549000D01*
X104197000Y-93949000D02*
X104197000Y-91549000D01*
X104372000Y-93949000D02*
X104372000Y-91549000D01*
X104772000Y-91549000D02*
X104772000Y-93949000D01*
X104547000Y-93949000D02*
X104547000Y-91549000D01*
X104672000Y-93949000D02*
X104672000Y-91549000D01*
X104747000Y-93949000D02*
X98947000Y-93949000D01*
X98947000Y-93949000D02*
X98947000Y-91549000D01*
X98947000Y-91549000D02*
X104747000Y-91549000D01*
X86522000Y-89199000D02*
X86522000Y-86799000D01*
X86697000Y-89199000D02*
X86697000Y-86799000D01*
X86872000Y-89199000D02*
X86872000Y-86799000D01*
X87272000Y-86799000D02*
X87272000Y-89199000D01*
X87047000Y-89199000D02*
X87047000Y-86799000D01*
X87172000Y-89199000D02*
X87172000Y-86799000D01*
X87247000Y-89199000D02*
X81447000Y-89199000D01*
X81447000Y-89199000D02*
X81447000Y-86799000D01*
X81447000Y-86799000D02*
X87247000Y-86799000D01*
X71972000Y-91799000D02*
X71972000Y-94199000D01*
X71797000Y-91799000D02*
X71797000Y-94199000D01*
X71622000Y-91799000D02*
X71622000Y-94199000D01*
X71222000Y-94199000D02*
X71222000Y-91799000D01*
X71447000Y-91799000D02*
X71447000Y-94199000D01*
X71322000Y-91799000D02*
X71322000Y-94199000D01*
X71247000Y-91799000D02*
X77047000Y-91799000D01*
X77047000Y-91799000D02*
X77047000Y-94199000D01*
X77047000Y-94199000D02*
X71247000Y-94199000D01*
X54472000Y-111299000D02*
X54472000Y-113699000D01*
X54297000Y-111299000D02*
X54297000Y-113699000D01*
X54122000Y-111299000D02*
X54122000Y-113699000D01*
X53722000Y-113699000D02*
X53722000Y-111299000D01*
X53947000Y-111299000D02*
X53947000Y-113699000D01*
X53822000Y-111299000D02*
X53822000Y-113699000D01*
X53747000Y-111299000D02*
X59547000Y-111299000D01*
X59547000Y-111299000D02*
X59547000Y-113699000D01*
X59547000Y-113699000D02*
X53747000Y-113699000D01*
X122522000Y-79699000D02*
X122522000Y-77299000D01*
X122697000Y-79699000D02*
X122697000Y-77299000D01*
X122872000Y-79699000D02*
X122872000Y-77299000D01*
X123272000Y-77299000D02*
X123272000Y-79699000D01*
X123047000Y-79699000D02*
X123047000Y-77299000D01*
X123172000Y-79699000D02*
X123172000Y-77299000D01*
X123247000Y-79699000D02*
X117447000Y-79699000D01*
X117447000Y-79699000D02*
X117447000Y-77299000D01*
X117447000Y-77299000D02*
X123247000Y-77299000D01*
X103947000Y-76699000D02*
X103947000Y-74299000D01*
X104122000Y-76699000D02*
X104122000Y-74299000D01*
X104297000Y-76699000D02*
X104297000Y-74299000D01*
X104697000Y-74299000D02*
X104697000Y-76699000D01*
X104472000Y-76699000D02*
X104472000Y-74299000D01*
X104597000Y-76699000D02*
X104597000Y-74299000D01*
X104672000Y-76699000D02*
X98872000Y-76699000D01*
X98872000Y-76699000D02*
X98872000Y-74299000D01*
X98872000Y-74299000D02*
X104672000Y-74299000D01*
X86522000Y-71699000D02*
X86522000Y-69299000D01*
X86697000Y-71699000D02*
X86697000Y-69299000D01*
X86872000Y-71699000D02*
X86872000Y-69299000D01*
X87272000Y-69299000D02*
X87272000Y-71699000D01*
X87047000Y-71699000D02*
X87047000Y-69299000D01*
X87172000Y-71699000D02*
X87172000Y-69299000D01*
X87247000Y-71699000D02*
X81447000Y-71699000D01*
X81447000Y-71699000D02*
X81447000Y-69299000D01*
X81447000Y-69299000D02*
X87247000Y-69299000D01*
X71972000Y-74299000D02*
X71972000Y-76699000D01*
X71797000Y-74299000D02*
X71797000Y-76699000D01*
X71622000Y-74299000D02*
X71622000Y-76699000D01*
X71222000Y-76699000D02*
X71222000Y-74299000D01*
X71447000Y-74299000D02*
X71447000Y-76699000D01*
X71322000Y-74299000D02*
X71322000Y-76699000D01*
X71247000Y-74299000D02*
X77047000Y-74299000D01*
X77047000Y-74299000D02*
X77047000Y-76699000D01*
X77047000Y-76699000D02*
X71247000Y-76699000D01*
X54472000Y-93799000D02*
X54472000Y-96199000D01*
X54297000Y-93799000D02*
X54297000Y-96199000D01*
X54122000Y-93799000D02*
X54122000Y-96199000D01*
X53722000Y-96199000D02*
X53722000Y-93799000D01*
X53947000Y-93799000D02*
X53947000Y-96199000D01*
X53822000Y-93799000D02*
X53822000Y-96199000D01*
X53747000Y-93799000D02*
X59547000Y-93799000D01*
X59547000Y-93799000D02*
X59547000Y-96199000D01*
X59547000Y-96199000D02*
X53747000Y-96199000D01*
D11*
X48257000Y-53099000D02*
X48257000Y-55639000D01*
X45717000Y-37859000D02*
X45717000Y-55639000D01*
X45717000Y-55639000D02*
X78737000Y-55639000D01*
X78737000Y-55639000D02*
X78737000Y-37859000D01*
X78737000Y-37859000D02*
X45717000Y-37859000D01*
D12*
G36*
X54146030Y-40904365D02*
G01*
X54246030Y-40904365D01*
X54246030Y-40404365D01*
X54146030Y-40404365D01*
X54146030Y-40904365D01*
G37*
X54146030Y-40904365D02*
X54246030Y-40904365D01*
X54246030Y-40404365D01*
X54146030Y-40404365D01*
X54146030Y-40904365D01*
G36*
X54146030Y-40904365D02*
G01*
X54446030Y-40904365D01*
X54446030Y-40804365D01*
X54146030Y-40804365D01*
X54146030Y-40904365D01*
G37*
X54146030Y-40904365D02*
X54446030Y-40904365D01*
X54446030Y-40804365D01*
X54146030Y-40804365D01*
X54146030Y-40904365D01*
G36*
X54746030Y-40904365D02*
G01*
X54946030Y-40904365D01*
X54946030Y-40804365D01*
X54746030Y-40804365D01*
X54746030Y-40904365D01*
G37*
X54746030Y-40904365D02*
X54946030Y-40904365D01*
X54946030Y-40804365D01*
X54746030Y-40804365D01*
X54746030Y-40904365D01*
G36*
X54146030Y-40504365D02*
G01*
X54946030Y-40504365D01*
X54946030Y-40404365D01*
X54146030Y-40404365D01*
X54146030Y-40504365D01*
G37*
X54146030Y-40504365D02*
X54946030Y-40504365D01*
X54946030Y-40404365D01*
X54146030Y-40404365D01*
X54146030Y-40504365D01*
G36*
X54546030Y-40704365D02*
G01*
X54646030Y-40704365D01*
X54646030Y-40604365D01*
X54546030Y-40604365D01*
X54546030Y-40704365D01*
G37*
X54546030Y-40704365D02*
X54646030Y-40704365D01*
X54646030Y-40604365D01*
X54546030Y-40604365D01*
X54546030Y-40704365D01*
D11*
X48257000Y-53099000D02*
X50797000Y-53099000D01*
X50797000Y-53099000D02*
X50797000Y-55639000D01*
D13*
X141497000Y-99874000D02*
X141497000Y-97874000D01*
X136497000Y-99874000D02*
X136497000Y-97874000D01*
X136497000Y-97874000D02*
X141497000Y-97874000D01*
X141497000Y-99874000D02*
X142097000Y-99874000D01*
X135897000Y-99874000D02*
X136497000Y-99874000D01*
X142097000Y-111974000D02*
X135897000Y-111974000D01*
X135897000Y-99874000D02*
X135897000Y-102249000D01*
X135897000Y-103899000D02*
X135897000Y-105249000D01*
X135897000Y-106899000D02*
X135897000Y-109299000D01*
X135897000Y-110849000D02*
X135897000Y-111974000D01*
X142097000Y-110399000D02*
X142097000Y-99874000D01*
X135897000Y-110849000D02*
X134497000Y-110849000D01*
X135897000Y-109299000D02*
X134497000Y-109299000D01*
D14*
X81997000Y-128099000D02*
X87502000Y-128099000D01*
X87502000Y-128099000D02*
X87547000Y-123849000D01*
X87547000Y-116849000D02*
X87547000Y-112599000D01*
X87547000Y-112599000D02*
X82497000Y-112599000D01*
X71997000Y-128099000D02*
X66447000Y-128099000D01*
X66447000Y-128099000D02*
X66447000Y-123849000D01*
X66447000Y-116849000D02*
X66447000Y-112599000D01*
X66447000Y-112599000D02*
X71497000Y-112599000D01*
D12*
X54910809Y-41175666D02*
X54948904Y-41289952D01*
X54948904Y-41480428D01*
X54910809Y-41556619D01*
X54872714Y-41594714D01*
X54796523Y-41632809D01*
X54720333Y-41632809D01*
X54644142Y-41594714D01*
X54606047Y-41556619D01*
X54567952Y-41480428D01*
X54529857Y-41328047D01*
X54491761Y-41251857D01*
X54453666Y-41213761D01*
X54377476Y-41175666D01*
X54301285Y-41175666D01*
X54225095Y-41213761D01*
X54187000Y-41251857D01*
X54148904Y-41328047D01*
X54148904Y-41518523D01*
X54187000Y-41632809D01*
X54148904Y-41861380D02*
X54148904Y-42318523D01*
X54948904Y-42089952D02*
X54148904Y-42089952D01*
X49088904Y-48130395D02*
X49088904Y-48587538D01*
X49888904Y-48358967D02*
X49088904Y-48358967D01*
X49088904Y-48778014D02*
X49888904Y-49311348D01*
X49088904Y-49311348D02*
X49888904Y-48778014D01*
X49088904Y-49768491D02*
X49088904Y-49844681D01*
X49127000Y-49920872D01*
X49165095Y-49958967D01*
X49241285Y-49997062D01*
X49393666Y-50035157D01*
X49584142Y-50035157D01*
X49736523Y-49997062D01*
X49812714Y-49958967D01*
X49850809Y-49920872D01*
X49888904Y-49844681D01*
X49888904Y-49768491D01*
X49850809Y-49692300D01*
X49812714Y-49654205D01*
X49736523Y-49616110D01*
X49584142Y-49578014D01*
X49393666Y-49578014D01*
X49241285Y-49616110D01*
X49165095Y-49654205D01*
X49127000Y-49692300D01*
X49088904Y-49768491D01*
X49050809Y-50949443D02*
X50079380Y-50263729D01*
X49888904Y-51216110D02*
X49088904Y-51216110D01*
X49088904Y-51406586D01*
X49127000Y-51520872D01*
X49203190Y-51597062D01*
X49279380Y-51635157D01*
X49431761Y-51673252D01*
X49546047Y-51673252D01*
X49698428Y-51635157D01*
X49774619Y-51597062D01*
X49850809Y-51520872D01*
X49888904Y-51406586D01*
X49888904Y-51216110D01*
X49088904Y-51939919D02*
X49088904Y-52435157D01*
X49393666Y-52168491D01*
X49393666Y-52282776D01*
X49431761Y-52358967D01*
X49469857Y-52397062D01*
X49546047Y-52435157D01*
X49736523Y-52435157D01*
X49812714Y-52397062D01*
X49850809Y-52358967D01*
X49888904Y-52282776D01*
X49888904Y-52054205D01*
X49850809Y-51978014D01*
X49812714Y-51939919D01*
X74869857Y-40964190D02*
X74907952Y-41078476D01*
X74946047Y-41116571D01*
X75022238Y-41154666D01*
X75136523Y-41154666D01*
X75212714Y-41116571D01*
X75250809Y-41078476D01*
X75288904Y-41002285D01*
X75288904Y-40697523D01*
X74488904Y-40697523D01*
X74488904Y-40964190D01*
X74527000Y-41040380D01*
X74565095Y-41078476D01*
X74641285Y-41116571D01*
X74717476Y-41116571D01*
X74793666Y-41078476D01*
X74831761Y-41040380D01*
X74869857Y-40964190D01*
X74869857Y-40697523D01*
X74565095Y-41459428D02*
X74527000Y-41497523D01*
X74488904Y-41573714D01*
X74488904Y-41764190D01*
X74527000Y-41840380D01*
X74565095Y-41878476D01*
X74641285Y-41916571D01*
X74717476Y-41916571D01*
X74831761Y-41878476D01*
X75288904Y-41421333D01*
X75288904Y-41916571D01*
X67249857Y-41021333D02*
X67249857Y-40754666D01*
X67668904Y-40754666D02*
X66868904Y-40754666D01*
X66868904Y-41135619D01*
X66868904Y-41364190D02*
X66868904Y-41897523D01*
X67668904Y-41554666D01*
X64709857Y-41021333D02*
X64709857Y-40754666D01*
X65128904Y-40754666D02*
X64328904Y-40754666D01*
X64328904Y-41135619D01*
X64328904Y-41783238D02*
X64328904Y-41630857D01*
X64367000Y-41554666D01*
X64405095Y-41516571D01*
X64519380Y-41440380D01*
X64671761Y-41402285D01*
X64976523Y-41402285D01*
X65052714Y-41440380D01*
X65090809Y-41478476D01*
X65128904Y-41554666D01*
X65128904Y-41707047D01*
X65090809Y-41783238D01*
X65052714Y-41821333D01*
X64976523Y-41859428D01*
X64786047Y-41859428D01*
X64709857Y-41821333D01*
X64671761Y-41783238D01*
X64633666Y-41707047D01*
X64633666Y-41554666D01*
X64671761Y-41478476D01*
X64709857Y-41440380D01*
X64786047Y-41402285D01*
X62169857Y-41021333D02*
X62169857Y-40754666D01*
X62588904Y-40754666D02*
X61788904Y-40754666D01*
X61788904Y-41135619D01*
X61788904Y-41821333D02*
X61788904Y-41440380D01*
X62169857Y-41402285D01*
X62131761Y-41440380D01*
X62093666Y-41516571D01*
X62093666Y-41707047D01*
X62131761Y-41783238D01*
X62169857Y-41821333D01*
X62246047Y-41859428D01*
X62436523Y-41859428D01*
X62512714Y-41821333D01*
X62550809Y-41783238D01*
X62588904Y-41707047D01*
X62588904Y-41516571D01*
X62550809Y-41440380D01*
X62512714Y-41402285D01*
X49888904Y-40735619D02*
X49507952Y-40468952D01*
X49888904Y-40278476D02*
X49088904Y-40278476D01*
X49088904Y-40583238D01*
X49127000Y-40659428D01*
X49165095Y-40697523D01*
X49241285Y-40735619D01*
X49355571Y-40735619D01*
X49431761Y-40697523D01*
X49469857Y-40659428D01*
X49507952Y-40583238D01*
X49507952Y-40278476D01*
X49660333Y-41040380D02*
X49660333Y-41421333D01*
X49888904Y-40964190D02*
X49088904Y-41230857D01*
X49888904Y-41497523D01*
X49088904Y-41688000D02*
X49888904Y-41878476D01*
X49317476Y-42030857D01*
X49888904Y-42183238D01*
X49088904Y-42373714D01*
X51667000Y-40678476D02*
X51628904Y-40602285D01*
X51628904Y-40488000D01*
X51667000Y-40373714D01*
X51743190Y-40297523D01*
X51819380Y-40259428D01*
X51971761Y-40221333D01*
X52086047Y-40221333D01*
X52238428Y-40259428D01*
X52314619Y-40297523D01*
X52390809Y-40373714D01*
X52428904Y-40488000D01*
X52428904Y-40564190D01*
X52390809Y-40678476D01*
X52352714Y-40716571D01*
X52086047Y-40716571D01*
X52086047Y-40564190D01*
X52428904Y-41059428D02*
X51628904Y-41059428D01*
X52428904Y-41516571D01*
X51628904Y-41516571D01*
X52428904Y-41897523D02*
X51628904Y-41897523D01*
X51628904Y-42088000D01*
X51667000Y-42202285D01*
X51743190Y-42278476D01*
X51819380Y-42316571D01*
X51971761Y-42354666D01*
X52086047Y-42354666D01*
X52238428Y-42316571D01*
X52314619Y-42278476D01*
X52390809Y-42202285D01*
X52428904Y-42088000D01*
X52428904Y-41897523D01*
X56708904Y-40221333D02*
X57508904Y-40488000D01*
X56708904Y-40754666D01*
X57432714Y-41478476D02*
X57470809Y-41440380D01*
X57508904Y-41326095D01*
X57508904Y-41249904D01*
X57470809Y-41135619D01*
X57394619Y-41059428D01*
X57318428Y-41021333D01*
X57166047Y-40983238D01*
X57051761Y-40983238D01*
X56899380Y-41021333D01*
X56823190Y-41059428D01*
X56747000Y-41135619D01*
X56708904Y-41249904D01*
X56708904Y-41326095D01*
X56747000Y-41440380D01*
X56785095Y-41478476D01*
X57432714Y-42278476D02*
X57470809Y-42240380D01*
X57508904Y-42126095D01*
X57508904Y-42049904D01*
X57470809Y-41935619D01*
X57394619Y-41859428D01*
X57318428Y-41821333D01*
X57166047Y-41783238D01*
X57051761Y-41783238D01*
X56899380Y-41821333D01*
X56823190Y-41859428D01*
X56747000Y-41935619D01*
X56708904Y-42049904D01*
X56708904Y-42126095D01*
X56747000Y-42240380D01*
X56785095Y-42278476D01*
X59629857Y-41021333D02*
X59629857Y-40754666D01*
X60048904Y-40754666D02*
X59248904Y-40754666D01*
X59248904Y-41135619D01*
X59515571Y-41783238D02*
X60048904Y-41783238D01*
X59210809Y-41592761D02*
X59782238Y-41402285D01*
X59782238Y-41897523D01*
X69789857Y-40964190D02*
X69827952Y-41078476D01*
X69866047Y-41116571D01*
X69942238Y-41154666D01*
X70056523Y-41154666D01*
X70132714Y-41116571D01*
X70170809Y-41078476D01*
X70208904Y-41002285D01*
X70208904Y-40697523D01*
X69408904Y-40697523D01*
X69408904Y-40964190D01*
X69447000Y-41040380D01*
X69485095Y-41078476D01*
X69561285Y-41116571D01*
X69637476Y-41116571D01*
X69713666Y-41078476D01*
X69751761Y-41040380D01*
X69789857Y-40964190D01*
X69789857Y-40697523D01*
X70208904Y-41916571D02*
X70208904Y-41459428D01*
X70208904Y-41688000D02*
X69408904Y-41688000D01*
X69523190Y-41611809D01*
X69599380Y-41535619D01*
X69637476Y-41459428D01*
X72329857Y-40964190D02*
X72367952Y-41078476D01*
X72406047Y-41116571D01*
X72482238Y-41154666D01*
X72596523Y-41154666D01*
X72672714Y-41116571D01*
X72710809Y-41078476D01*
X72748904Y-41002285D01*
X72748904Y-40697523D01*
X71948904Y-40697523D01*
X71948904Y-40964190D01*
X71987000Y-41040380D01*
X72025095Y-41078476D01*
X72101285Y-41116571D01*
X72177476Y-41116571D01*
X72253666Y-41078476D01*
X72291761Y-41040380D01*
X72329857Y-40964190D01*
X72329857Y-40697523D01*
X71948904Y-41421333D02*
X71948904Y-41916571D01*
X72253666Y-41649904D01*
X72253666Y-41764190D01*
X72291761Y-41840380D01*
X72329857Y-41878476D01*
X72406047Y-41916571D01*
X72596523Y-41916571D01*
X72672714Y-41878476D01*
X72710809Y-41840380D01*
X72748904Y-41764190D01*
X72748904Y-41535619D01*
X72710809Y-41459428D01*
X72672714Y-41421333D01*
X77409857Y-40964190D02*
X77447952Y-41078476D01*
X77486047Y-41116571D01*
X77562238Y-41154666D01*
X77676523Y-41154666D01*
X77752714Y-41116571D01*
X77790809Y-41078476D01*
X77828904Y-41002285D01*
X77828904Y-40697523D01*
X77028904Y-40697523D01*
X77028904Y-40964190D01*
X77067000Y-41040380D01*
X77105095Y-41078476D01*
X77181285Y-41116571D01*
X77257476Y-41116571D01*
X77333666Y-41078476D01*
X77371761Y-41040380D01*
X77409857Y-40964190D01*
X77409857Y-40697523D01*
X77028904Y-41840380D02*
X77028904Y-41688000D01*
X77067000Y-41611809D01*
X77105095Y-41573714D01*
X77219380Y-41497523D01*
X77371761Y-41459428D01*
X77676523Y-41459428D01*
X77752714Y-41497523D01*
X77790809Y-41535619D01*
X77828904Y-41611809D01*
X77828904Y-41764190D01*
X77790809Y-41840380D01*
X77752714Y-41878476D01*
X77676523Y-41916571D01*
X77486047Y-41916571D01*
X77409857Y-41878476D01*
X77371761Y-41840380D01*
X77333666Y-41764190D01*
X77333666Y-41611809D01*
X77371761Y-41535619D01*
X77409857Y-41497523D01*
X77486047Y-41459428D01*
X77409857Y-51886190D02*
X77447952Y-52000476D01*
X77486047Y-52038571D01*
X77562238Y-52076666D01*
X77676523Y-52076666D01*
X77752714Y-52038571D01*
X77790809Y-52000476D01*
X77828904Y-51924285D01*
X77828904Y-51619523D01*
X77028904Y-51619523D01*
X77028904Y-51886190D01*
X77067000Y-51962380D01*
X77105095Y-52000476D01*
X77181285Y-52038571D01*
X77257476Y-52038571D01*
X77333666Y-52000476D01*
X77371761Y-51962380D01*
X77409857Y-51886190D01*
X77409857Y-51619523D01*
X77028904Y-52800476D02*
X77028904Y-52419523D01*
X77409857Y-52381428D01*
X77371761Y-52419523D01*
X77333666Y-52495714D01*
X77333666Y-52686190D01*
X77371761Y-52762380D01*
X77409857Y-52800476D01*
X77486047Y-52838571D01*
X77676523Y-52838571D01*
X77752714Y-52800476D01*
X77790809Y-52762380D01*
X77828904Y-52686190D01*
X77828904Y-52495714D01*
X77790809Y-52419523D01*
X77752714Y-52381428D01*
X74869857Y-51886190D02*
X74907952Y-52000476D01*
X74946047Y-52038571D01*
X75022238Y-52076666D01*
X75136523Y-52076666D01*
X75212714Y-52038571D01*
X75250809Y-52000476D01*
X75288904Y-51924285D01*
X75288904Y-51619523D01*
X74488904Y-51619523D01*
X74488904Y-51886190D01*
X74527000Y-51962380D01*
X74565095Y-52000476D01*
X74641285Y-52038571D01*
X74717476Y-52038571D01*
X74793666Y-52000476D01*
X74831761Y-51962380D01*
X74869857Y-51886190D01*
X74869857Y-51619523D01*
X74755571Y-52762380D02*
X75288904Y-52762380D01*
X74450809Y-52571904D02*
X75022238Y-52381428D01*
X75022238Y-52876666D01*
X72329857Y-51657619D02*
X72329857Y-51924285D01*
X72748904Y-52038571D02*
X72748904Y-51657619D01*
X71948904Y-51657619D01*
X71948904Y-52038571D01*
X71948904Y-52724285D02*
X71948904Y-52571904D01*
X71987000Y-52495714D01*
X72025095Y-52457619D01*
X72139380Y-52381428D01*
X72291761Y-52343333D01*
X72596523Y-52343333D01*
X72672714Y-52381428D01*
X72710809Y-52419523D01*
X72748904Y-52495714D01*
X72748904Y-52648095D01*
X72710809Y-52724285D01*
X72672714Y-52762380D01*
X72596523Y-52800476D01*
X72406047Y-52800476D01*
X72329857Y-52762380D01*
X72291761Y-52724285D01*
X72253666Y-52648095D01*
X72253666Y-52495714D01*
X72291761Y-52419523D01*
X72329857Y-52381428D01*
X72406047Y-52343333D01*
X70208904Y-51619523D02*
X69408904Y-51619523D01*
X69408904Y-51810000D01*
X69447000Y-51924285D01*
X69523190Y-52000476D01*
X69599380Y-52038571D01*
X69751761Y-52076666D01*
X69866047Y-52076666D01*
X70018428Y-52038571D01*
X70094619Y-52000476D01*
X70170809Y-51924285D01*
X70208904Y-51810000D01*
X70208904Y-51619523D01*
X69408904Y-52343333D02*
X69408904Y-52876666D01*
X70208904Y-52533809D01*
X67592714Y-52076666D02*
X67630809Y-52038571D01*
X67668904Y-51924285D01*
X67668904Y-51848095D01*
X67630809Y-51733809D01*
X67554619Y-51657619D01*
X67478428Y-51619523D01*
X67326047Y-51581428D01*
X67211761Y-51581428D01*
X67059380Y-51619523D01*
X66983190Y-51657619D01*
X66907000Y-51733809D01*
X66868904Y-51848095D01*
X66868904Y-51924285D01*
X66907000Y-52038571D01*
X66945095Y-52076666D01*
X66868904Y-52762380D02*
X66868904Y-52610000D01*
X66907000Y-52533809D01*
X66945095Y-52495714D01*
X67059380Y-52419523D01*
X67211761Y-52381428D01*
X67516523Y-52381428D01*
X67592714Y-52419523D01*
X67630809Y-52457619D01*
X67668904Y-52533809D01*
X67668904Y-52686190D01*
X67630809Y-52762380D01*
X67592714Y-52800476D01*
X67516523Y-52838571D01*
X67326047Y-52838571D01*
X67249857Y-52800476D01*
X67211761Y-52762380D01*
X67173666Y-52686190D01*
X67173666Y-52533809D01*
X67211761Y-52457619D01*
X67249857Y-52419523D01*
X67326047Y-52381428D01*
X65128904Y-51619523D02*
X64328904Y-51619523D01*
X64328904Y-51810000D01*
X64367000Y-51924285D01*
X64443190Y-52000476D01*
X64519380Y-52038571D01*
X64671761Y-52076666D01*
X64786047Y-52076666D01*
X64938428Y-52038571D01*
X65014619Y-52000476D01*
X65090809Y-51924285D01*
X65128904Y-51810000D01*
X65128904Y-51619523D01*
X64595571Y-52762380D02*
X65128904Y-52762380D01*
X64290809Y-52571904D02*
X64862238Y-52381428D01*
X64862238Y-52876666D01*
X54207000Y-51600476D02*
X54168904Y-51524285D01*
X54168904Y-51410000D01*
X54207000Y-51295714D01*
X54283190Y-51219523D01*
X54359380Y-51181428D01*
X54511761Y-51143333D01*
X54626047Y-51143333D01*
X54778428Y-51181428D01*
X54854619Y-51219523D01*
X54930809Y-51295714D01*
X54968904Y-51410000D01*
X54968904Y-51486190D01*
X54930809Y-51600476D01*
X54892714Y-51638571D01*
X54626047Y-51638571D01*
X54626047Y-51486190D01*
X54968904Y-51981428D02*
X54168904Y-51981428D01*
X54968904Y-52438571D01*
X54168904Y-52438571D01*
X54968904Y-52819523D02*
X54168904Y-52819523D01*
X54168904Y-53010000D01*
X54207000Y-53124285D01*
X54283190Y-53200476D01*
X54359380Y-53238571D01*
X54511761Y-53276666D01*
X54626047Y-53276666D01*
X54778428Y-53238571D01*
X54854619Y-53200476D01*
X54930809Y-53124285D01*
X54968904Y-53010000D01*
X54968904Y-52819523D01*
X56747000Y-51600476D02*
X56708904Y-51524285D01*
X56708904Y-51410000D01*
X56747000Y-51295714D01*
X56823190Y-51219523D01*
X56899380Y-51181428D01*
X57051761Y-51143333D01*
X57166047Y-51143333D01*
X57318428Y-51181428D01*
X57394619Y-51219523D01*
X57470809Y-51295714D01*
X57508904Y-51410000D01*
X57508904Y-51486190D01*
X57470809Y-51600476D01*
X57432714Y-51638571D01*
X57166047Y-51638571D01*
X57166047Y-51486190D01*
X57508904Y-51981428D02*
X56708904Y-51981428D01*
X57508904Y-52438571D01*
X56708904Y-52438571D01*
X57508904Y-52819523D02*
X56708904Y-52819523D01*
X56708904Y-53010000D01*
X56747000Y-53124285D01*
X56823190Y-53200476D01*
X56899380Y-53238571D01*
X57051761Y-53276666D01*
X57166047Y-53276666D01*
X57318428Y-53238571D01*
X57394619Y-53200476D01*
X57470809Y-53124285D01*
X57508904Y-53010000D01*
X57508904Y-52819523D01*
X60048904Y-51619523D02*
X59248904Y-51619523D01*
X59248904Y-51810000D01*
X59287000Y-51924285D01*
X59363190Y-52000476D01*
X59439380Y-52038571D01*
X59591761Y-52076666D01*
X59706047Y-52076666D01*
X59858428Y-52038571D01*
X59934619Y-52000476D01*
X60010809Y-51924285D01*
X60048904Y-51810000D01*
X60048904Y-51619523D01*
X60048904Y-52838571D02*
X60048904Y-52381428D01*
X60048904Y-52610000D02*
X59248904Y-52610000D01*
X59363190Y-52533809D01*
X59439380Y-52457619D01*
X59477476Y-52381428D01*
X62588904Y-51619523D02*
X61788904Y-51619523D01*
X61788904Y-51810000D01*
X61827000Y-51924285D01*
X61903190Y-52000476D01*
X61979380Y-52038571D01*
X62131761Y-52076666D01*
X62246047Y-52076666D01*
X62398428Y-52038571D01*
X62474619Y-52000476D01*
X62550809Y-51924285D01*
X62588904Y-51810000D01*
X62588904Y-51619523D01*
X61788904Y-52571904D02*
X61788904Y-52648095D01*
X61827000Y-52724285D01*
X61865095Y-52762380D01*
X61941285Y-52800476D01*
X62093666Y-52838571D01*
X62284142Y-52838571D01*
X62436523Y-52800476D01*
X62512714Y-52762380D01*
X62550809Y-52724285D01*
X62588904Y-52648095D01*
X62588904Y-52571904D01*
X62550809Y-52495714D01*
X62512714Y-52457619D01*
X62436523Y-52419523D01*
X62284142Y-52381428D01*
X62093666Y-52381428D01*
X61941285Y-52419523D01*
X61865095Y-52457619D01*
X61827000Y-52495714D01*
X61788904Y-52571904D01*
X52428904Y-51619523D02*
X51628904Y-51619523D01*
X51628904Y-51810000D01*
X51667000Y-51924285D01*
X51743190Y-52000476D01*
X51819380Y-52038571D01*
X51971761Y-52076666D01*
X52086047Y-52076666D01*
X52238428Y-52038571D01*
X52314619Y-52000476D01*
X52390809Y-51924285D01*
X52428904Y-51810000D01*
X52428904Y-51619523D01*
X51705095Y-52381428D02*
X51667000Y-52419523D01*
X51628904Y-52495714D01*
X51628904Y-52686190D01*
X51667000Y-52762380D01*
X51705095Y-52800476D01*
X51781285Y-52838571D01*
X51857476Y-52838571D01*
X51971761Y-52800476D01*
X52428904Y-52343333D01*
X52428904Y-52838571D01*
X133099380Y-105965666D02*
X133813666Y-105965666D01*
X133956523Y-105918047D01*
X134051761Y-105822809D01*
X134099380Y-105679952D01*
X134099380Y-105584714D01*
X133194619Y-106394238D02*
X133147000Y-106441857D01*
X133099380Y-106537095D01*
X133099380Y-106775190D01*
X133147000Y-106870428D01*
X133194619Y-106918047D01*
X133289857Y-106965666D01*
X133385095Y-106965666D01*
X133527952Y-106918047D01*
X134099380Y-106346619D01*
X134099380Y-106965666D01*
D15*
X77964619Y-119653523D02*
X77964619Y-120681619D01*
X77904142Y-120802571D01*
X77843666Y-120863047D01*
X77722714Y-120923523D01*
X77480809Y-120923523D01*
X77359857Y-120863047D01*
X77299380Y-120802571D01*
X77238904Y-120681619D01*
X77238904Y-119653523D01*
X76694619Y-119774476D02*
X76634142Y-119714000D01*
X76513190Y-119653523D01*
X76210809Y-119653523D01*
X76089857Y-119714000D01*
X76029380Y-119774476D01*
X75968904Y-119895428D01*
X75968904Y-120016380D01*
X76029380Y-120197809D01*
X76755095Y-120923523D01*
X75968904Y-120923523D01*
M02*
