M48
; DRILL file {KiCad 5.1.3-ffb9f22~84~ubuntu19.04.1} date Mon 05 Aug 2019 11:02:06 AM CST
; FORMAT={-:-/ absolute / inch / decimal}
; #@! TF.CreationDate,2019-08-05T11:02:06+08:00
; #@! TF.GenerationSoftware,Kicad,Pcbnew,5.1.3-ffb9f22~84~ubuntu19.04.1
; #@! TF.FileFunction,Plated,1,2,PTH
FMAT,2
INCH
T1C0.0157
T2C0.0276
T3C0.0430
T4C0.0472
%
G90
G05
T1
X3.99Y-3.67
X4.09Y-3.67
X4.245Y-3.675
X4.365Y-3.675
T2
X1.585Y-2.8865
X1.585Y-3.1935
X3.4865Y-3.68
X3.7935Y-3.68
X3.085Y-2.8865
X3.085Y-3.1935
X3.835Y-2.1365
X3.835Y-2.4435
X1.585Y-1.3865
X1.585Y-1.6935
X2.335Y-3.9365
X2.335Y-4.2435
X3.835Y-0.6365
X3.835Y-0.9435
X3.84Y-1.3865
X3.84Y-1.6935
X1.0565Y-3.565
X1.3635Y-3.565
X3.085Y-2.1365
X3.085Y-2.4435
X3.085Y-0.6365
X3.085Y-0.9435
X1.585Y-0.6365
X1.585Y-0.9435
X1.0565Y-1.315
X1.3635Y-1.315
X3.4865Y-3.56
X3.7935Y-3.56
X3.085Y-1.3865
X3.085Y-1.6935
X1.0565Y-2.825
X1.3635Y-2.825
X3.835Y-4.0565
X3.835Y-4.3635
X2.335Y-2.8865
X2.335Y-3.1935
X3.085Y-3.9365
X3.085Y-4.2435
X2.335Y-1.3865
X2.335Y-1.6935
X3.835Y-2.8865
X3.835Y-3.1935
X2.335Y-2.1365
X2.335Y-2.4435
X1.585Y-2.1365
X1.585Y-2.4435
X1.0565Y-2.065
X1.3635Y-2.065
X2.335Y-0.6365
X2.335Y-0.9435
T3
X1.06Y-3.79
X1.06Y-4.39
X1.16Y-3.79
X1.16Y-4.39
X1.26Y-3.79
X1.26Y-4.39
X1.36Y-3.79
X1.36Y-4.39
X1.46Y-3.79
X1.46Y-4.39
X1.56Y-3.79
X1.56Y-4.39
X1.66Y-3.79
X1.66Y-4.39
X1.76Y-3.79
X1.76Y-4.39
X1.86Y-3.79
X1.86Y-4.39
X1.96Y-3.79
X1.96Y-4.39
X2.06Y-3.79
X2.06Y-4.39
X2.16Y-3.79
X2.16Y-4.39
T4
X4.0131Y-4.3296
X4.21Y-4.4123
X4.4069Y-4.3296
X3.2631Y-2.2904
X3.46Y-2.2077
X3.6569Y-2.2904
X4.0131Y-0.7904
X4.21Y-0.7077
X4.4069Y-0.7904
X1.7631Y-2.2904
X1.96Y-2.2077
X2.1569Y-2.2904
X1.0131Y-2.2904
X1.21Y-2.2077
X1.4069Y-2.2904
X4.0131Y-1.5404
X4.21Y-1.4577
X4.4069Y-1.5404
X2.5131Y-1.5404
X2.71Y-1.4577
X2.9069Y-1.5404
X2.5131Y-0.7904
X2.71Y-0.7077
X2.9069Y-0.7904
X1.0131Y-0.7904
X1.21Y-0.7077
X1.4069Y-0.7904
X3.2631Y-0.7904
X3.46Y-0.7077
X3.6569Y-0.7904
X1.7631Y-1.5404
X1.96Y-1.4577
X2.1569Y-1.5404
X3.2631Y-3.0404
X3.46Y-2.9577
X3.6569Y-3.0404
X2.5131Y-3.0404
X2.71Y-2.9577
X2.9069Y-3.0404
X1.7631Y-3.0404
X1.96Y-2.9577
X2.1569Y-3.0404
X1.7631Y-0.7904
X1.96Y-0.7077
X2.1569Y-0.7904
X2.5131Y-4.0896
X2.71Y-4.1723
X2.9069Y-4.0896
X1.0131Y-3.0404
X1.21Y-2.9577
X1.4069Y-3.0404
X1.0131Y-1.5404
X1.21Y-1.4577
X1.4069Y-1.5404
X3.2631Y-4.2096
X3.46Y-4.2923
X3.6569Y-4.2096
X3.2631Y-1.5404
X3.46Y-1.4577
X3.6569Y-1.5404
X4.0131Y-3.0404
X4.21Y-2.9577
X4.4069Y-3.0404
X2.5131Y-2.2904
X2.71Y-2.2077
X2.9069Y-2.2904
X4.0131Y-2.2904
X4.21Y-2.2077
X4.4069Y-2.2904
T0
M30
