G04 #@! TF.GenerationSoftware,KiCad,Pcbnew,5.1.4-e60b266~84~ubuntu19.04.1*
G04 #@! TF.CreationDate,2019-12-12T04:42:41-06:00*
G04 #@! TF.ProjectId,fissure,66697373-7572-4652-9e6b-696361645f70,rev?*
G04 #@! TF.SameCoordinates,Original*
G04 #@! TF.FileFunction,Soldermask,Top*
G04 #@! TF.FilePolarity,Negative*
%FSLAX46Y46*%
G04 Gerber Fmt 4.6, Leading zero omitted, Abs format (unit mm)*
G04 Created by KiCad (PCBNEW 5.1.4-e60b266~84~ubuntu19.04.1) date 2019-12-12 04:42:41*
%MOMM*%
%LPD*%
G04 APERTURE LIST*
%ADD10C,0.100000*%
G04 APERTURE END LIST*
D10*
G36*
X79607909Y-111641981D02*
G01*
X81236887Y-112316726D01*
X81384241Y-112415185D01*
X82702930Y-113296304D01*
X83949696Y-114543070D01*
X84547928Y-115438389D01*
X84929274Y-116009113D01*
X85604019Y-117638091D01*
X85948000Y-119367402D01*
X85948000Y-121130598D01*
X85604019Y-122859909D01*
X84929274Y-124488887D01*
X84754804Y-124750000D01*
X83949696Y-125954930D01*
X82702930Y-127201696D01*
X82238808Y-127511812D01*
X81236887Y-128181274D01*
X79607909Y-128856019D01*
X77878598Y-129200000D01*
X76115402Y-129200000D01*
X74386091Y-128856019D01*
X72757113Y-128181274D01*
X71755192Y-127511812D01*
X71291070Y-127201696D01*
X70044304Y-125954930D01*
X69239196Y-124750000D01*
X69064726Y-124488887D01*
X68389981Y-122859909D01*
X68046000Y-121130598D01*
X68046000Y-119367402D01*
X68389981Y-117638091D01*
X69064726Y-116009113D01*
X69446072Y-115438389D01*
X70044304Y-114543070D01*
X71291070Y-113296304D01*
X72609759Y-112415185D01*
X72757113Y-112316726D01*
X74386091Y-111641981D01*
X76115402Y-111298000D01*
X77878598Y-111298000D01*
X79607909Y-111641981D01*
X79607909Y-111641981D01*
G37*
G36*
X136894985Y-125542860D02*
G01*
X137007748Y-125565290D01*
X137139741Y-125619963D01*
X137326408Y-125697283D01*
X137613196Y-125888909D01*
X137857091Y-126132804D01*
X138048717Y-126419592D01*
X138180710Y-126738253D01*
X138248000Y-127076540D01*
X138248000Y-127421460D01*
X138180710Y-127759747D01*
X138048717Y-128078408D01*
X137857091Y-128365196D01*
X137613196Y-128609091D01*
X137326408Y-128800717D01*
X137192896Y-128856019D01*
X137007748Y-128932710D01*
X136894985Y-128955140D01*
X136669460Y-129000000D01*
X136324540Y-129000000D01*
X136099015Y-128955140D01*
X135986252Y-128932710D01*
X135801104Y-128856019D01*
X135667592Y-128800717D01*
X135380804Y-128609091D01*
X135136909Y-128365196D01*
X134945283Y-128078408D01*
X134813290Y-127759747D01*
X134746000Y-127421460D01*
X134746000Y-127076540D01*
X134813290Y-126738253D01*
X134945283Y-126419592D01*
X135136909Y-126132804D01*
X135380804Y-125888909D01*
X135667592Y-125697283D01*
X135854259Y-125619963D01*
X135986252Y-125565290D01*
X136099015Y-125542860D01*
X136324540Y-125498000D01*
X136669460Y-125498000D01*
X136894985Y-125542860D01*
X136894985Y-125542860D01*
G37*
G36*
X64098000Y-128500000D02*
G01*
X62396000Y-128500000D01*
X62396000Y-126798000D01*
X64098000Y-126798000D01*
X64098000Y-128500000D01*
X64098000Y-128500000D01*
G37*
G36*
X142110512Y-126352927D02*
G01*
X142259812Y-126382624D01*
X142423784Y-126450544D01*
X142571354Y-126549147D01*
X142696853Y-126674646D01*
X142795456Y-126822216D01*
X142863376Y-126986188D01*
X142898000Y-127160259D01*
X142898000Y-127337741D01*
X142863376Y-127511812D01*
X142795456Y-127675784D01*
X142696853Y-127823354D01*
X142571354Y-127948853D01*
X142423784Y-128047456D01*
X142259812Y-128115376D01*
X142110512Y-128145073D01*
X142085742Y-128150000D01*
X141908258Y-128150000D01*
X141883488Y-128145073D01*
X141734188Y-128115376D01*
X141570216Y-128047456D01*
X141422646Y-127948853D01*
X141297147Y-127823354D01*
X141198544Y-127675784D01*
X141130624Y-127511812D01*
X141096000Y-127337741D01*
X141096000Y-127160259D01*
X141130624Y-126986188D01*
X141198544Y-126822216D01*
X141297147Y-126674646D01*
X141422646Y-126549147D01*
X141570216Y-126450544D01*
X141734188Y-126382624D01*
X141883488Y-126352927D01*
X141908258Y-126348000D01*
X142085742Y-126348000D01*
X142110512Y-126352927D01*
X142110512Y-126352927D01*
G37*
G36*
X131110512Y-126352927D02*
G01*
X131259812Y-126382624D01*
X131423784Y-126450544D01*
X131571354Y-126549147D01*
X131696853Y-126674646D01*
X131795456Y-126822216D01*
X131863376Y-126986188D01*
X131898000Y-127160259D01*
X131898000Y-127337741D01*
X131863376Y-127511812D01*
X131795456Y-127675784D01*
X131696853Y-127823354D01*
X131571354Y-127948853D01*
X131423784Y-128047456D01*
X131259812Y-128115376D01*
X131110512Y-128145073D01*
X131085742Y-128150000D01*
X130908258Y-128150000D01*
X130883488Y-128145073D01*
X130734188Y-128115376D01*
X130570216Y-128047456D01*
X130422646Y-127948853D01*
X130297147Y-127823354D01*
X130198544Y-127675784D01*
X130130624Y-127511812D01*
X130096000Y-127337741D01*
X130096000Y-127160259D01*
X130130624Y-126986188D01*
X130198544Y-126822216D01*
X130297147Y-126674646D01*
X130422646Y-126549147D01*
X130570216Y-126450544D01*
X130734188Y-126382624D01*
X130883488Y-126352927D01*
X130908258Y-126348000D01*
X131085742Y-126348000D01*
X131110512Y-126352927D01*
X131110512Y-126352927D01*
G37*
G36*
X128098000Y-126750000D02*
G01*
X126396000Y-126750000D01*
X126396000Y-125048000D01*
X128098000Y-125048000D01*
X128098000Y-126750000D01*
X128098000Y-126750000D01*
G37*
G36*
X63898000Y-125975000D02*
G01*
X62596000Y-125975000D01*
X62596000Y-124673000D01*
X63898000Y-124673000D01*
X63898000Y-125975000D01*
X63898000Y-125975000D01*
G37*
G36*
X109598000Y-125000000D02*
G01*
X107896000Y-125000000D01*
X107896000Y-123298000D01*
X109598000Y-123298000D01*
X109598000Y-125000000D01*
X109598000Y-125000000D01*
G37*
G36*
X91598000Y-124750000D02*
G01*
X89896000Y-124750000D01*
X89896000Y-123048000D01*
X91598000Y-123048000D01*
X91598000Y-124750000D01*
X91598000Y-124750000D01*
G37*
G36*
X131803564Y-122438389D02*
G01*
X131980823Y-122511812D01*
X131994835Y-122517616D01*
X132166973Y-122632635D01*
X132313365Y-122779027D01*
X132426839Y-122948852D01*
X132428385Y-122951167D01*
X132507611Y-123142436D01*
X132548000Y-123345484D01*
X132548000Y-123552516D01*
X132507611Y-123755564D01*
X132488908Y-123800716D01*
X132428384Y-123946835D01*
X132313365Y-124118973D01*
X132166973Y-124265365D01*
X131994835Y-124380384D01*
X131994834Y-124380385D01*
X131994833Y-124380385D01*
X131803564Y-124459611D01*
X131600516Y-124500000D01*
X131393484Y-124500000D01*
X131190436Y-124459611D01*
X130999167Y-124380385D01*
X130999166Y-124380385D01*
X130999165Y-124380384D01*
X130827027Y-124265365D01*
X130680635Y-124118973D01*
X130565616Y-123946835D01*
X130505092Y-123800716D01*
X130486389Y-123755564D01*
X130446000Y-123552516D01*
X130446000Y-123345484D01*
X130486389Y-123142436D01*
X130565615Y-122951167D01*
X130567162Y-122948852D01*
X130680635Y-122779027D01*
X130827027Y-122632635D01*
X130999165Y-122517616D01*
X131013177Y-122511812D01*
X131190436Y-122438389D01*
X131393484Y-122398000D01*
X131600516Y-122398000D01*
X131803564Y-122438389D01*
X131803564Y-122438389D01*
G37*
G36*
X127898000Y-124225000D02*
G01*
X126596000Y-124225000D01*
X126596000Y-122923000D01*
X127898000Y-122923000D01*
X127898000Y-124225000D01*
X127898000Y-124225000D01*
G37*
G36*
X118394985Y-120542860D02*
G01*
X118507748Y-120565290D01*
X118599145Y-120603148D01*
X118826408Y-120697283D01*
X119113196Y-120888909D01*
X119357091Y-121132804D01*
X119548717Y-121419592D01*
X119626037Y-121606259D01*
X119680710Y-121738252D01*
X119684986Y-121759748D01*
X119748000Y-122076540D01*
X119748000Y-122421460D01*
X119728873Y-122517615D01*
X119680710Y-122759748D01*
X119639222Y-122859909D01*
X119548717Y-123078408D01*
X119357091Y-123365196D01*
X119113196Y-123609091D01*
X118826408Y-123800717D01*
X118639741Y-123878037D01*
X118507748Y-123932710D01*
X118394985Y-123955140D01*
X118169460Y-124000000D01*
X117824540Y-124000000D01*
X117599015Y-123955140D01*
X117486252Y-123932710D01*
X117354259Y-123878037D01*
X117167592Y-123800717D01*
X116880804Y-123609091D01*
X116636909Y-123365196D01*
X116445283Y-123078408D01*
X116354778Y-122859909D01*
X116313290Y-122759748D01*
X116265127Y-122517615D01*
X116246000Y-122421460D01*
X116246000Y-122076540D01*
X116309014Y-121759748D01*
X116313290Y-121738252D01*
X116367963Y-121606259D01*
X116445283Y-121419592D01*
X116636909Y-121132804D01*
X116880804Y-120888909D01*
X117167592Y-120697283D01*
X117394855Y-120603148D01*
X117486252Y-120565290D01*
X117599015Y-120542860D01*
X117824540Y-120498000D01*
X118169460Y-120498000D01*
X118394985Y-120542860D01*
X118394985Y-120542860D01*
G37*
G36*
X123610512Y-121352927D02*
G01*
X123759812Y-121382624D01*
X123923784Y-121450544D01*
X124071354Y-121549147D01*
X124196853Y-121674646D01*
X124295456Y-121822216D01*
X124363376Y-121986188D01*
X124381348Y-122076542D01*
X124395960Y-122150000D01*
X124398000Y-122160259D01*
X124398000Y-122337741D01*
X124363376Y-122511812D01*
X124295456Y-122675784D01*
X124196853Y-122823354D01*
X124071354Y-122948853D01*
X123923784Y-123047456D01*
X123759812Y-123115376D01*
X123610512Y-123145073D01*
X123585742Y-123150000D01*
X123408258Y-123150000D01*
X123383488Y-123145073D01*
X123234188Y-123115376D01*
X123070216Y-123047456D01*
X122922646Y-122948853D01*
X122797147Y-122823354D01*
X122698544Y-122675784D01*
X122630624Y-122511812D01*
X122596000Y-122337741D01*
X122596000Y-122160259D01*
X122598041Y-122150000D01*
X122612652Y-122076542D01*
X122630624Y-121986188D01*
X122698544Y-121822216D01*
X122797147Y-121674646D01*
X122922646Y-121549147D01*
X123070216Y-121450544D01*
X123234188Y-121382624D01*
X123383488Y-121352927D01*
X123408258Y-121348000D01*
X123585742Y-121348000D01*
X123610512Y-121352927D01*
X123610512Y-121352927D01*
G37*
G36*
X112610512Y-121352927D02*
G01*
X112759812Y-121382624D01*
X112923784Y-121450544D01*
X113071354Y-121549147D01*
X113196853Y-121674646D01*
X113295456Y-121822216D01*
X113363376Y-121986188D01*
X113381348Y-122076542D01*
X113395960Y-122150000D01*
X113398000Y-122160259D01*
X113398000Y-122337741D01*
X113363376Y-122511812D01*
X113295456Y-122675784D01*
X113196853Y-122823354D01*
X113071354Y-122948853D01*
X112923784Y-123047456D01*
X112759812Y-123115376D01*
X112610512Y-123145073D01*
X112585742Y-123150000D01*
X112408258Y-123150000D01*
X112383488Y-123145073D01*
X112234188Y-123115376D01*
X112070216Y-123047456D01*
X111922646Y-122948853D01*
X111797147Y-122823354D01*
X111698544Y-122675784D01*
X111630624Y-122511812D01*
X111596000Y-122337741D01*
X111596000Y-122160259D01*
X111598041Y-122150000D01*
X111612652Y-122076542D01*
X111630624Y-121986188D01*
X111698544Y-121822216D01*
X111797147Y-121674646D01*
X111922646Y-121549147D01*
X112070216Y-121450544D01*
X112234188Y-121382624D01*
X112383488Y-121352927D01*
X112408258Y-121348000D01*
X112585742Y-121348000D01*
X112610512Y-121352927D01*
X112610512Y-121352927D01*
G37*
G36*
X87747318Y-120694153D02*
G01*
X87905677Y-120759748D01*
X87965887Y-120784688D01*
X88162593Y-120916122D01*
X88329878Y-121083407D01*
X88438175Y-121245486D01*
X88461313Y-121280115D01*
X88551847Y-121498682D01*
X88598000Y-121730710D01*
X88598000Y-121967290D01*
X88551847Y-122199318D01*
X88468721Y-122400000D01*
X88461312Y-122417887D01*
X88329878Y-122614593D01*
X88162593Y-122781878D01*
X87965887Y-122913312D01*
X87965886Y-122913313D01*
X87965885Y-122913313D01*
X87747318Y-123003847D01*
X87515290Y-123050000D01*
X87278710Y-123050000D01*
X87046682Y-123003847D01*
X86828115Y-122913313D01*
X86828114Y-122913313D01*
X86828113Y-122913312D01*
X86631407Y-122781878D01*
X86464122Y-122614593D01*
X86332688Y-122417887D01*
X86325279Y-122400000D01*
X86242153Y-122199318D01*
X86196000Y-121967290D01*
X86196000Y-121730710D01*
X86242153Y-121498682D01*
X86332687Y-121280115D01*
X86355825Y-121245486D01*
X86464122Y-121083407D01*
X86631407Y-120916122D01*
X86828113Y-120784688D01*
X86888323Y-120759748D01*
X87046682Y-120694153D01*
X87278710Y-120648000D01*
X87515290Y-120648000D01*
X87747318Y-120694153D01*
X87747318Y-120694153D01*
G37*
G36*
X66947318Y-120694153D02*
G01*
X67105677Y-120759748D01*
X67165887Y-120784688D01*
X67362593Y-120916122D01*
X67529878Y-121083407D01*
X67638175Y-121245486D01*
X67661313Y-121280115D01*
X67751847Y-121498682D01*
X67798000Y-121730710D01*
X67798000Y-121967290D01*
X67751847Y-122199318D01*
X67668721Y-122400000D01*
X67661312Y-122417887D01*
X67529878Y-122614593D01*
X67362593Y-122781878D01*
X67165887Y-122913312D01*
X67165886Y-122913313D01*
X67165885Y-122913313D01*
X66947318Y-123003847D01*
X66715290Y-123050000D01*
X66478710Y-123050000D01*
X66246682Y-123003847D01*
X66028115Y-122913313D01*
X66028114Y-122913313D01*
X66028113Y-122913312D01*
X65831407Y-122781878D01*
X65664122Y-122614593D01*
X65532688Y-122417887D01*
X65525279Y-122400000D01*
X65442153Y-122199318D01*
X65396000Y-121967290D01*
X65396000Y-121730710D01*
X65442153Y-121498682D01*
X65532687Y-121280115D01*
X65555825Y-121245486D01*
X65664122Y-121083407D01*
X65831407Y-120916122D01*
X66028113Y-120784688D01*
X66088323Y-120759748D01*
X66246682Y-120694153D01*
X66478710Y-120648000D01*
X66715290Y-120648000D01*
X66947318Y-120694153D01*
X66947318Y-120694153D01*
G37*
G36*
X54894985Y-119542860D02*
G01*
X55007748Y-119565290D01*
X55093409Y-119600772D01*
X55326408Y-119697283D01*
X55613196Y-119888909D01*
X55857091Y-120132804D01*
X56048717Y-120419592D01*
X56109067Y-120565290D01*
X56180710Y-120738252D01*
X56184986Y-120759748D01*
X56248000Y-121076540D01*
X56248000Y-121421460D01*
X56227802Y-121523000D01*
X56184986Y-121738253D01*
X56180710Y-121759747D01*
X56048717Y-122078408D01*
X55857091Y-122365196D01*
X55613196Y-122609091D01*
X55326408Y-122800717D01*
X55139741Y-122878037D01*
X55007748Y-122932710D01*
X54914968Y-122951165D01*
X54669460Y-123000000D01*
X54324540Y-123000000D01*
X54079032Y-122951165D01*
X53986252Y-122932710D01*
X53854259Y-122878037D01*
X53667592Y-122800717D01*
X53380804Y-122609091D01*
X53136909Y-122365196D01*
X52945283Y-122078408D01*
X52813290Y-121759747D01*
X52809015Y-121738253D01*
X52766198Y-121523000D01*
X52746000Y-121421460D01*
X52746000Y-121076540D01*
X52809014Y-120759748D01*
X52813290Y-120738252D01*
X52884933Y-120565290D01*
X52945283Y-120419592D01*
X53136909Y-120132804D01*
X53380804Y-119888909D01*
X53667592Y-119697283D01*
X53900591Y-119600772D01*
X53986252Y-119565290D01*
X54099015Y-119542860D01*
X54324540Y-119498000D01*
X54669460Y-119498000D01*
X54894985Y-119542860D01*
X54894985Y-119542860D01*
G37*
G36*
X63898000Y-122825000D02*
G01*
X62596000Y-122825000D01*
X62596000Y-121523000D01*
X63898000Y-121523000D01*
X63898000Y-122825000D01*
X63898000Y-122825000D01*
G37*
G36*
X109398000Y-122475000D02*
G01*
X108096000Y-122475000D01*
X108096000Y-121173000D01*
X109398000Y-121173000D01*
X109398000Y-122475000D01*
X109398000Y-122475000D01*
G37*
G36*
X136803564Y-120338389D02*
G01*
X136994833Y-120417615D01*
X136994835Y-120417616D01*
X137166973Y-120532635D01*
X137313365Y-120679027D01*
X137409801Y-120823353D01*
X137428385Y-120851167D01*
X137507611Y-121042436D01*
X137548000Y-121245484D01*
X137548000Y-121452516D01*
X137507611Y-121655564D01*
X137438110Y-121823354D01*
X137428384Y-121846835D01*
X137313365Y-122018973D01*
X137166973Y-122165365D01*
X136994835Y-122280384D01*
X136994834Y-122280385D01*
X136994833Y-122280385D01*
X136803564Y-122359611D01*
X136600516Y-122400000D01*
X136393484Y-122400000D01*
X136190436Y-122359611D01*
X135999167Y-122280385D01*
X135999166Y-122280385D01*
X135999165Y-122280384D01*
X135827027Y-122165365D01*
X135680635Y-122018973D01*
X135565616Y-121846835D01*
X135555890Y-121823354D01*
X135486389Y-121655564D01*
X135446000Y-121452516D01*
X135446000Y-121245484D01*
X135486389Y-121042436D01*
X135565615Y-120851167D01*
X135584200Y-120823353D01*
X135680635Y-120679027D01*
X135827027Y-120532635D01*
X135999165Y-120417616D01*
X135999167Y-120417615D01*
X136190436Y-120338389D01*
X136393484Y-120298000D01*
X136600516Y-120298000D01*
X136803564Y-120338389D01*
X136803564Y-120338389D01*
G37*
G36*
X91398000Y-122225000D02*
G01*
X90096000Y-122225000D01*
X90096000Y-120923000D01*
X91398000Y-120923000D01*
X91398000Y-122225000D01*
X91398000Y-122225000D01*
G37*
G36*
X49110512Y-120352927D02*
G01*
X49259812Y-120382624D01*
X49423784Y-120450544D01*
X49571354Y-120549147D01*
X49696853Y-120674646D01*
X49795456Y-120822216D01*
X49863376Y-120986188D01*
X49889072Y-121115375D01*
X49898000Y-121160258D01*
X49898000Y-121337742D01*
X49893073Y-121362512D01*
X49863376Y-121511812D01*
X49795456Y-121675784D01*
X49696853Y-121823354D01*
X49571354Y-121948853D01*
X49423784Y-122047456D01*
X49259812Y-122115376D01*
X49110512Y-122145073D01*
X49085742Y-122150000D01*
X48908258Y-122150000D01*
X48883488Y-122145073D01*
X48734188Y-122115376D01*
X48570216Y-122047456D01*
X48422646Y-121948853D01*
X48297147Y-121823354D01*
X48198544Y-121675784D01*
X48130624Y-121511812D01*
X48100927Y-121362512D01*
X48096000Y-121337742D01*
X48096000Y-121160258D01*
X48104928Y-121115375D01*
X48130624Y-120986188D01*
X48198544Y-120822216D01*
X48297147Y-120674646D01*
X48422646Y-120549147D01*
X48570216Y-120450544D01*
X48734188Y-120382624D01*
X48883488Y-120352927D01*
X48908258Y-120348000D01*
X49085742Y-120348000D01*
X49110512Y-120352927D01*
X49110512Y-120352927D01*
G37*
G36*
X60110512Y-120352927D02*
G01*
X60259812Y-120382624D01*
X60423784Y-120450544D01*
X60571354Y-120549147D01*
X60696853Y-120674646D01*
X60795456Y-120822216D01*
X60863376Y-120986188D01*
X60889072Y-121115375D01*
X60898000Y-121160258D01*
X60898000Y-121337742D01*
X60893073Y-121362512D01*
X60863376Y-121511812D01*
X60795456Y-121675784D01*
X60696853Y-121823354D01*
X60571354Y-121948853D01*
X60423784Y-122047456D01*
X60259812Y-122115376D01*
X60110512Y-122145073D01*
X60085742Y-122150000D01*
X59908258Y-122150000D01*
X59883488Y-122145073D01*
X59734188Y-122115376D01*
X59570216Y-122047456D01*
X59422646Y-121948853D01*
X59297147Y-121823354D01*
X59198544Y-121675784D01*
X59130624Y-121511812D01*
X59100927Y-121362512D01*
X59096000Y-121337742D01*
X59096000Y-121160258D01*
X59104928Y-121115375D01*
X59130624Y-120986188D01*
X59198544Y-120822216D01*
X59297147Y-120674646D01*
X59422646Y-120549147D01*
X59570216Y-120450544D01*
X59734188Y-120382624D01*
X59883488Y-120352927D01*
X59908258Y-120348000D01*
X60085742Y-120348000D01*
X60110512Y-120352927D01*
X60110512Y-120352927D01*
G37*
G36*
X99894985Y-118542860D02*
G01*
X100007748Y-118565290D01*
X100139741Y-118619963D01*
X100326408Y-118697283D01*
X100613196Y-118888909D01*
X100857091Y-119132804D01*
X101048717Y-119419592D01*
X101109067Y-119565290D01*
X101180710Y-119738252D01*
X101197411Y-119822216D01*
X101248000Y-120076540D01*
X101248000Y-120421460D01*
X101225886Y-120532635D01*
X101184986Y-120738253D01*
X101180710Y-120759747D01*
X101048717Y-121078408D01*
X100857091Y-121365196D01*
X100613196Y-121609091D01*
X100326408Y-121800717D01*
X100139741Y-121878037D01*
X100007748Y-121932710D01*
X99894985Y-121955140D01*
X99669460Y-122000000D01*
X99324540Y-122000000D01*
X99099015Y-121955140D01*
X98986252Y-121932710D01*
X98854259Y-121878037D01*
X98667592Y-121800717D01*
X98380804Y-121609091D01*
X98136909Y-121365196D01*
X97945283Y-121078408D01*
X97813290Y-120759747D01*
X97809015Y-120738253D01*
X97768114Y-120532635D01*
X97746000Y-120421460D01*
X97746000Y-120076540D01*
X97796589Y-119822216D01*
X97813290Y-119738252D01*
X97884933Y-119565290D01*
X97945283Y-119419592D01*
X98136909Y-119132804D01*
X98380804Y-118888909D01*
X98667592Y-118697283D01*
X98854259Y-118619963D01*
X98986252Y-118565290D01*
X99099015Y-118542860D01*
X99324540Y-118498000D01*
X99669460Y-118498000D01*
X99894985Y-118542860D01*
X99894985Y-118542860D01*
G37*
G36*
X105110512Y-119352927D02*
G01*
X105259812Y-119382624D01*
X105423784Y-119450544D01*
X105571354Y-119549147D01*
X105696853Y-119674646D01*
X105795456Y-119822216D01*
X105863376Y-119986188D01*
X105885463Y-120097229D01*
X105898000Y-120160258D01*
X105898000Y-120337742D01*
X105893073Y-120362512D01*
X105863376Y-120511812D01*
X105795456Y-120675784D01*
X105696853Y-120823354D01*
X105571354Y-120948853D01*
X105423784Y-121047456D01*
X105259812Y-121115376D01*
X105110512Y-121145073D01*
X105085742Y-121150000D01*
X104908258Y-121150000D01*
X104883488Y-121145073D01*
X104734188Y-121115376D01*
X104570216Y-121047456D01*
X104422646Y-120948853D01*
X104297147Y-120823354D01*
X104198544Y-120675784D01*
X104130624Y-120511812D01*
X104100927Y-120362512D01*
X104096000Y-120337742D01*
X104096000Y-120160258D01*
X104108537Y-120097229D01*
X104130624Y-119986188D01*
X104198544Y-119822216D01*
X104297147Y-119674646D01*
X104422646Y-119549147D01*
X104570216Y-119450544D01*
X104734188Y-119382624D01*
X104883488Y-119352927D01*
X104908258Y-119348000D01*
X105085742Y-119348000D01*
X105110512Y-119352927D01*
X105110512Y-119352927D01*
G37*
G36*
X94110512Y-119352927D02*
G01*
X94259812Y-119382624D01*
X94423784Y-119450544D01*
X94571354Y-119549147D01*
X94696853Y-119674646D01*
X94795456Y-119822216D01*
X94863376Y-119986188D01*
X94885463Y-120097229D01*
X94898000Y-120160258D01*
X94898000Y-120337742D01*
X94893073Y-120362512D01*
X94863376Y-120511812D01*
X94795456Y-120675784D01*
X94696853Y-120823354D01*
X94571354Y-120948853D01*
X94423784Y-121047456D01*
X94259812Y-121115376D01*
X94110512Y-121145073D01*
X94085742Y-121150000D01*
X93908258Y-121150000D01*
X93883488Y-121145073D01*
X93734188Y-121115376D01*
X93570216Y-121047456D01*
X93422646Y-120948853D01*
X93297147Y-120823354D01*
X93198544Y-120675784D01*
X93130624Y-120511812D01*
X93100927Y-120362512D01*
X93096000Y-120337742D01*
X93096000Y-120160258D01*
X93108537Y-120097229D01*
X93130624Y-119986188D01*
X93198544Y-119822216D01*
X93297147Y-119674646D01*
X93422646Y-119549147D01*
X93570216Y-119450544D01*
X93734188Y-119382624D01*
X93883488Y-119352927D01*
X93908258Y-119348000D01*
X94085742Y-119348000D01*
X94110512Y-119352927D01*
X94110512Y-119352927D01*
G37*
G36*
X127898000Y-121075000D02*
G01*
X126596000Y-121075000D01*
X126596000Y-119773000D01*
X127898000Y-119773000D01*
X127898000Y-121075000D01*
X127898000Y-121075000D01*
G37*
G36*
X63495228Y-119030703D02*
G01*
X63650100Y-119094853D01*
X63789481Y-119187985D01*
X63908015Y-119306519D01*
X64001147Y-119445900D01*
X64065297Y-119600772D01*
X64098000Y-119765184D01*
X64098000Y-119932816D01*
X64065297Y-120097228D01*
X64001147Y-120252100D01*
X63908015Y-120391481D01*
X63789481Y-120510015D01*
X63650100Y-120603147D01*
X63495228Y-120667297D01*
X63330816Y-120700000D01*
X63163184Y-120700000D01*
X62998772Y-120667297D01*
X62843900Y-120603147D01*
X62704519Y-120510015D01*
X62585985Y-120391481D01*
X62492853Y-120252100D01*
X62428703Y-120097228D01*
X62396000Y-119932816D01*
X62396000Y-119765184D01*
X62428703Y-119600772D01*
X62492853Y-119445900D01*
X62585985Y-119306519D01*
X62704519Y-119187985D01*
X62843900Y-119094853D01*
X62998772Y-119030703D01*
X63163184Y-118998000D01*
X63330816Y-118998000D01*
X63495228Y-119030703D01*
X63495228Y-119030703D01*
G37*
G36*
X87747318Y-117594153D02*
G01*
X87965885Y-117684687D01*
X87965887Y-117684688D01*
X88162593Y-117816122D01*
X88329878Y-117983407D01*
X88436137Y-118142436D01*
X88461313Y-118180115D01*
X88551847Y-118398682D01*
X88598000Y-118630710D01*
X88598000Y-118867290D01*
X88551847Y-119099318D01*
X88461313Y-119317885D01*
X88461312Y-119317887D01*
X88329878Y-119514593D01*
X88162593Y-119681878D01*
X87965887Y-119813312D01*
X87965886Y-119813313D01*
X87965885Y-119813313D01*
X87747318Y-119903847D01*
X87515290Y-119950000D01*
X87278710Y-119950000D01*
X87046682Y-119903847D01*
X86828115Y-119813313D01*
X86828114Y-119813313D01*
X86828113Y-119813312D01*
X86631407Y-119681878D01*
X86464122Y-119514593D01*
X86332688Y-119317887D01*
X86332687Y-119317885D01*
X86242153Y-119099318D01*
X86196000Y-118867290D01*
X86196000Y-118630710D01*
X86242153Y-118398682D01*
X86332687Y-118180115D01*
X86357863Y-118142436D01*
X86464122Y-117983407D01*
X86631407Y-117816122D01*
X86828113Y-117684688D01*
X86828115Y-117684687D01*
X87046682Y-117594153D01*
X87278710Y-117548000D01*
X87515290Y-117548000D01*
X87747318Y-117594153D01*
X87747318Y-117594153D01*
G37*
G36*
X66947318Y-117594153D02*
G01*
X67165885Y-117684687D01*
X67165887Y-117684688D01*
X67362593Y-117816122D01*
X67529878Y-117983407D01*
X67636137Y-118142436D01*
X67661313Y-118180115D01*
X67751847Y-118398682D01*
X67798000Y-118630710D01*
X67798000Y-118867290D01*
X67751847Y-119099318D01*
X67661313Y-119317885D01*
X67661312Y-119317887D01*
X67529878Y-119514593D01*
X67362593Y-119681878D01*
X67165887Y-119813312D01*
X67165886Y-119813313D01*
X67165885Y-119813313D01*
X66947318Y-119903847D01*
X66715290Y-119950000D01*
X66478710Y-119950000D01*
X66246682Y-119903847D01*
X66028115Y-119813313D01*
X66028114Y-119813313D01*
X66028113Y-119813312D01*
X65831407Y-119681878D01*
X65664122Y-119514593D01*
X65532688Y-119317887D01*
X65532687Y-119317885D01*
X65442153Y-119099318D01*
X65396000Y-118867290D01*
X65396000Y-118630710D01*
X65442153Y-118398682D01*
X65532687Y-118180115D01*
X65557863Y-118142436D01*
X65664122Y-117983407D01*
X65831407Y-117816122D01*
X66028113Y-117684688D01*
X66028115Y-117684687D01*
X66246682Y-117594153D01*
X66478710Y-117548000D01*
X66715290Y-117548000D01*
X66947318Y-117594153D01*
X66947318Y-117594153D01*
G37*
G36*
X113303564Y-117438389D02*
G01*
X113494833Y-117517615D01*
X113494835Y-117517616D01*
X113666973Y-117632635D01*
X113813365Y-117779027D01*
X113925491Y-117946835D01*
X113928385Y-117951167D01*
X114007611Y-118142436D01*
X114048000Y-118345484D01*
X114048000Y-118552516D01*
X114007611Y-118755564D01*
X113952378Y-118888909D01*
X113928384Y-118946835D01*
X113813365Y-119118973D01*
X113666973Y-119265365D01*
X113494835Y-119380384D01*
X113494834Y-119380385D01*
X113494833Y-119380385D01*
X113303564Y-119459611D01*
X113100516Y-119500000D01*
X112893484Y-119500000D01*
X112690436Y-119459611D01*
X112499167Y-119380385D01*
X112499166Y-119380385D01*
X112499165Y-119380384D01*
X112327027Y-119265365D01*
X112180635Y-119118973D01*
X112065616Y-118946835D01*
X112041622Y-118888909D01*
X111986389Y-118755564D01*
X111946000Y-118552516D01*
X111946000Y-118345484D01*
X111986389Y-118142436D01*
X112065615Y-117951167D01*
X112068510Y-117946835D01*
X112180635Y-117779027D01*
X112327027Y-117632635D01*
X112499165Y-117517616D01*
X112499167Y-117517615D01*
X112690436Y-117438389D01*
X112893484Y-117398000D01*
X113100516Y-117398000D01*
X113303564Y-117438389D01*
X113303564Y-117438389D01*
G37*
G36*
X109398000Y-119325000D02*
G01*
X108096000Y-119325000D01*
X108096000Y-118023000D01*
X109398000Y-118023000D01*
X109398000Y-119325000D01*
X109398000Y-119325000D01*
G37*
G36*
X91398000Y-119075000D02*
G01*
X90096000Y-119075000D01*
X90096000Y-117773000D01*
X91398000Y-117773000D01*
X91398000Y-119075000D01*
X91398000Y-119075000D01*
G37*
G36*
X127495228Y-117280703D02*
G01*
X127650100Y-117344853D01*
X127789481Y-117437985D01*
X127908015Y-117556519D01*
X128001147Y-117695900D01*
X128065297Y-117850772D01*
X128098000Y-118015184D01*
X128098000Y-118182816D01*
X128065297Y-118347228D01*
X128001147Y-118502100D01*
X127908015Y-118641481D01*
X127789481Y-118760015D01*
X127650100Y-118853147D01*
X127495228Y-118917297D01*
X127330816Y-118950000D01*
X127163184Y-118950000D01*
X126998772Y-118917297D01*
X126843900Y-118853147D01*
X126704519Y-118760015D01*
X126585985Y-118641481D01*
X126492853Y-118502100D01*
X126428703Y-118347228D01*
X126396000Y-118182816D01*
X126396000Y-118015184D01*
X126428703Y-117850772D01*
X126492853Y-117695900D01*
X126585985Y-117556519D01*
X126704519Y-117437985D01*
X126843900Y-117344853D01*
X126998772Y-117280703D01*
X127163184Y-117248000D01*
X127330816Y-117248000D01*
X127495228Y-117280703D01*
X127495228Y-117280703D01*
G37*
G36*
X49803564Y-116438389D02*
G01*
X49957369Y-116502097D01*
X49994835Y-116517616D01*
X50166973Y-116632635D01*
X50313365Y-116779027D01*
X50427606Y-116950000D01*
X50428385Y-116951167D01*
X50507611Y-117142436D01*
X50548000Y-117345484D01*
X50548000Y-117552516D01*
X50507611Y-117755564D01*
X50428385Y-117946833D01*
X50428384Y-117946835D01*
X50313365Y-118118973D01*
X50166973Y-118265365D01*
X49994835Y-118380384D01*
X49994834Y-118380385D01*
X49994833Y-118380385D01*
X49803564Y-118459611D01*
X49600516Y-118500000D01*
X49393484Y-118500000D01*
X49190436Y-118459611D01*
X48999167Y-118380385D01*
X48999166Y-118380385D01*
X48999165Y-118380384D01*
X48827027Y-118265365D01*
X48680635Y-118118973D01*
X48565616Y-117946835D01*
X48565615Y-117946833D01*
X48486389Y-117755564D01*
X48446000Y-117552516D01*
X48446000Y-117345484D01*
X48486389Y-117142436D01*
X48565615Y-116951167D01*
X48566395Y-116950000D01*
X48680635Y-116779027D01*
X48827027Y-116632635D01*
X48999165Y-116517616D01*
X49036631Y-116502097D01*
X49190436Y-116438389D01*
X49393484Y-116398000D01*
X49600516Y-116398000D01*
X49803564Y-116438389D01*
X49803564Y-116438389D01*
G37*
G36*
X94803564Y-115438389D02*
G01*
X94994833Y-115517615D01*
X94994835Y-115517616D01*
X95166973Y-115632635D01*
X95313365Y-115779027D01*
X95361304Y-115850772D01*
X95428385Y-115951167D01*
X95507611Y-116142436D01*
X95548000Y-116345484D01*
X95548000Y-116552516D01*
X95507611Y-116755564D01*
X95505767Y-116760015D01*
X95428384Y-116946835D01*
X95313365Y-117118973D01*
X95166973Y-117265365D01*
X94994835Y-117380384D01*
X94994834Y-117380385D01*
X94994833Y-117380385D01*
X94803564Y-117459611D01*
X94600516Y-117500000D01*
X94393484Y-117500000D01*
X94190436Y-117459611D01*
X93999167Y-117380385D01*
X93999166Y-117380385D01*
X93999165Y-117380384D01*
X93827027Y-117265365D01*
X93680635Y-117118973D01*
X93565616Y-116946835D01*
X93488233Y-116760015D01*
X93486389Y-116755564D01*
X93446000Y-116552516D01*
X93446000Y-116345484D01*
X93486389Y-116142436D01*
X93565615Y-115951167D01*
X93632697Y-115850772D01*
X93680635Y-115779027D01*
X93827027Y-115632635D01*
X93999165Y-115517616D01*
X93999167Y-115517615D01*
X94190436Y-115438389D01*
X94393484Y-115398000D01*
X94600516Y-115398000D01*
X94803564Y-115438389D01*
X94803564Y-115438389D01*
G37*
G36*
X118303564Y-115338389D02*
G01*
X118494833Y-115417615D01*
X118494835Y-115417616D01*
X118666973Y-115532635D01*
X118813365Y-115679027D01*
X118928121Y-115850771D01*
X118928385Y-115851167D01*
X119007611Y-116042436D01*
X119048000Y-116245484D01*
X119048000Y-116452516D01*
X119007611Y-116655564D01*
X118966189Y-116755565D01*
X118928384Y-116846835D01*
X118813365Y-117018973D01*
X118666973Y-117165365D01*
X118494835Y-117280384D01*
X118494834Y-117280385D01*
X118494833Y-117280385D01*
X118303564Y-117359611D01*
X118100516Y-117400000D01*
X117893484Y-117400000D01*
X117690436Y-117359611D01*
X117499167Y-117280385D01*
X117499166Y-117280385D01*
X117499165Y-117280384D01*
X117327027Y-117165365D01*
X117180635Y-117018973D01*
X117065616Y-116846835D01*
X117027811Y-116755565D01*
X116986389Y-116655564D01*
X116946000Y-116452516D01*
X116946000Y-116245484D01*
X116986389Y-116042436D01*
X117065615Y-115851167D01*
X117065880Y-115850771D01*
X117180635Y-115679027D01*
X117327027Y-115532635D01*
X117499165Y-115417616D01*
X117499167Y-115417615D01*
X117690436Y-115338389D01*
X117893484Y-115298000D01*
X118100516Y-115298000D01*
X118303564Y-115338389D01*
X118303564Y-115338389D01*
G37*
G36*
X108995228Y-115530703D02*
G01*
X109150100Y-115594853D01*
X109289481Y-115687985D01*
X109408015Y-115806519D01*
X109501147Y-115945900D01*
X109565297Y-116100772D01*
X109598000Y-116265184D01*
X109598000Y-116432816D01*
X109565297Y-116597228D01*
X109501147Y-116752100D01*
X109408015Y-116891481D01*
X109289481Y-117010015D01*
X109150100Y-117103147D01*
X108995228Y-117167297D01*
X108830816Y-117200000D01*
X108663184Y-117200000D01*
X108498772Y-117167297D01*
X108343900Y-117103147D01*
X108204519Y-117010015D01*
X108085985Y-116891481D01*
X107992853Y-116752100D01*
X107928703Y-116597228D01*
X107896000Y-116432816D01*
X107896000Y-116265184D01*
X107928703Y-116100772D01*
X107992853Y-115945900D01*
X108085985Y-115806519D01*
X108204519Y-115687985D01*
X108343900Y-115594853D01*
X108498772Y-115530703D01*
X108663184Y-115498000D01*
X108830816Y-115498000D01*
X108995228Y-115530703D01*
X108995228Y-115530703D01*
G37*
G36*
X90995228Y-115280703D02*
G01*
X91150100Y-115344853D01*
X91289481Y-115437985D01*
X91408015Y-115556519D01*
X91501147Y-115695900D01*
X91565297Y-115850772D01*
X91598000Y-116015184D01*
X91598000Y-116182816D01*
X91565297Y-116347228D01*
X91501147Y-116502100D01*
X91408015Y-116641481D01*
X91289481Y-116760015D01*
X91150100Y-116853147D01*
X90995228Y-116917297D01*
X90830816Y-116950000D01*
X90663184Y-116950000D01*
X90498772Y-116917297D01*
X90343900Y-116853147D01*
X90204519Y-116760015D01*
X90085985Y-116641481D01*
X89992853Y-116502100D01*
X89928703Y-116347228D01*
X89896000Y-116182816D01*
X89896000Y-116015184D01*
X89928703Y-115850772D01*
X89992853Y-115695900D01*
X90085985Y-115556519D01*
X90204519Y-115437985D01*
X90343900Y-115344853D01*
X90498772Y-115280703D01*
X90663184Y-115248000D01*
X90830816Y-115248000D01*
X90995228Y-115280703D01*
X90995228Y-115280703D01*
G37*
G36*
X54803564Y-114338389D02*
G01*
X54994833Y-114417615D01*
X54994835Y-114417616D01*
X55166973Y-114532635D01*
X55313365Y-114679027D01*
X55425491Y-114846835D01*
X55428385Y-114851167D01*
X55507611Y-115042436D01*
X55548000Y-115245484D01*
X55548000Y-115452516D01*
X55507611Y-115655564D01*
X55445083Y-115806520D01*
X55428384Y-115846835D01*
X55313365Y-116018973D01*
X55166973Y-116165365D01*
X54994835Y-116280384D01*
X54994834Y-116280385D01*
X54994833Y-116280385D01*
X54803564Y-116359611D01*
X54600516Y-116400000D01*
X54393484Y-116400000D01*
X54190436Y-116359611D01*
X53999167Y-116280385D01*
X53999166Y-116280385D01*
X53999165Y-116280384D01*
X53827027Y-116165365D01*
X53680635Y-116018973D01*
X53565616Y-115846835D01*
X53548917Y-115806520D01*
X53486389Y-115655564D01*
X53446000Y-115452516D01*
X53446000Y-115245484D01*
X53486389Y-115042436D01*
X53565615Y-114851167D01*
X53568510Y-114846835D01*
X53680635Y-114679027D01*
X53827027Y-114532635D01*
X53999165Y-114417616D01*
X53999167Y-114417615D01*
X54190436Y-114338389D01*
X54393484Y-114298000D01*
X54600516Y-114298000D01*
X54803564Y-114338389D01*
X54803564Y-114338389D01*
G37*
G36*
X99803564Y-113338389D02*
G01*
X99994833Y-113417615D01*
X99994835Y-113417616D01*
X100166973Y-113532635D01*
X100313365Y-113679027D01*
X100428385Y-113851167D01*
X100507611Y-114042436D01*
X100548000Y-114245484D01*
X100548000Y-114452516D01*
X100507611Y-114655564D01*
X100497892Y-114679027D01*
X100428384Y-114846835D01*
X100313365Y-115018973D01*
X100166973Y-115165365D01*
X99994835Y-115280384D01*
X99994834Y-115280385D01*
X99994833Y-115280385D01*
X99803564Y-115359611D01*
X99600516Y-115400000D01*
X99393484Y-115400000D01*
X99190436Y-115359611D01*
X98999167Y-115280385D01*
X98999166Y-115280385D01*
X98999165Y-115280384D01*
X98827027Y-115165365D01*
X98680635Y-115018973D01*
X98565616Y-114846835D01*
X98496108Y-114679027D01*
X98486389Y-114655564D01*
X98446000Y-114452516D01*
X98446000Y-114245484D01*
X98486389Y-114042436D01*
X98565615Y-113851167D01*
X98680635Y-113679027D01*
X98827027Y-113532635D01*
X98999165Y-113417616D01*
X98999167Y-113417615D01*
X99190436Y-113338389D01*
X99393484Y-113298000D01*
X99600516Y-113298000D01*
X99803564Y-113338389D01*
X99803564Y-113338389D01*
G37*
G36*
X60895228Y-111680703D02*
G01*
X61050100Y-111744853D01*
X61189481Y-111837985D01*
X61308015Y-111956519D01*
X61401147Y-112095900D01*
X61465297Y-112250772D01*
X61498000Y-112415184D01*
X61498000Y-112582816D01*
X61465297Y-112747228D01*
X61401147Y-112902100D01*
X61308015Y-113041481D01*
X61189481Y-113160015D01*
X61050100Y-113253147D01*
X60895228Y-113317297D01*
X60730816Y-113350000D01*
X60563184Y-113350000D01*
X60398772Y-113317297D01*
X60243900Y-113253147D01*
X60104519Y-113160015D01*
X59985985Y-113041481D01*
X59892853Y-112902100D01*
X59828703Y-112747228D01*
X59796000Y-112582816D01*
X59796000Y-112415184D01*
X59828703Y-112250772D01*
X59892853Y-112095900D01*
X59985985Y-111956519D01*
X60104519Y-111837985D01*
X60243900Y-111744853D01*
X60398772Y-111680703D01*
X60563184Y-111648000D01*
X60730816Y-111648000D01*
X60895228Y-111680703D01*
X60895228Y-111680703D01*
G37*
G36*
X53698000Y-113350000D02*
G01*
X51996000Y-113350000D01*
X51996000Y-111648000D01*
X53698000Y-111648000D01*
X53698000Y-113350000D01*
X53698000Y-113350000D01*
G37*
G36*
X55823000Y-113150000D02*
G01*
X54521000Y-113150000D01*
X54521000Y-111848000D01*
X55823000Y-111848000D01*
X55823000Y-113150000D01*
X55823000Y-113150000D01*
G37*
G36*
X58973000Y-113150000D02*
G01*
X57671000Y-113150000D01*
X57671000Y-111848000D01*
X58973000Y-111848000D01*
X58973000Y-113150000D01*
X58973000Y-113150000D01*
G37*
G36*
X137048000Y-111825000D02*
G01*
X134446000Y-111825000D01*
X134446000Y-110523000D01*
X137048000Y-110523000D01*
X137048000Y-111825000D01*
X137048000Y-111825000D01*
G37*
G36*
X125803564Y-109638389D02*
G01*
X125994833Y-109717615D01*
X125994835Y-109717616D01*
X126166973Y-109832635D01*
X126313365Y-109979027D01*
X126425491Y-110146835D01*
X126428385Y-110151167D01*
X126507611Y-110342436D01*
X126548000Y-110545484D01*
X126548000Y-110752516D01*
X126507611Y-110955564D01*
X126428385Y-111146833D01*
X126428384Y-111146835D01*
X126313365Y-111318973D01*
X126166973Y-111465365D01*
X125994835Y-111580384D01*
X125994834Y-111580385D01*
X125994833Y-111580385D01*
X125803564Y-111659611D01*
X125600516Y-111700000D01*
X125393484Y-111700000D01*
X125190436Y-111659611D01*
X124999167Y-111580385D01*
X124999166Y-111580385D01*
X124999165Y-111580384D01*
X124827027Y-111465365D01*
X124680635Y-111318973D01*
X124565616Y-111146835D01*
X124565615Y-111146833D01*
X124486389Y-110955564D01*
X124446000Y-110752516D01*
X124446000Y-110545484D01*
X124486389Y-110342436D01*
X124565615Y-110151167D01*
X124568510Y-110146835D01*
X124680635Y-109979027D01*
X124827027Y-109832635D01*
X124999165Y-109717616D01*
X124999167Y-109717615D01*
X125190436Y-109638389D01*
X125393484Y-109598000D01*
X125600516Y-109598000D01*
X125803564Y-109638389D01*
X125803564Y-109638389D01*
G37*
G36*
X143548000Y-110725000D02*
G01*
X140946000Y-110725000D01*
X140946000Y-109423000D01*
X143548000Y-109423000D01*
X143548000Y-110725000D01*
X143548000Y-110725000D01*
G37*
G36*
X51803564Y-108638389D02*
G01*
X51970758Y-108707643D01*
X51994835Y-108717616D01*
X52166973Y-108832635D01*
X52313365Y-108979027D01*
X52358672Y-109046833D01*
X52428385Y-109151167D01*
X52507611Y-109342436D01*
X52548000Y-109545484D01*
X52548000Y-109752516D01*
X52507611Y-109955564D01*
X52497892Y-109979027D01*
X52428384Y-110146835D01*
X52313365Y-110318973D01*
X52166973Y-110465365D01*
X51994835Y-110580384D01*
X51994834Y-110580385D01*
X51994833Y-110580385D01*
X51803564Y-110659611D01*
X51600516Y-110700000D01*
X51393484Y-110700000D01*
X51190436Y-110659611D01*
X50999167Y-110580385D01*
X50999166Y-110580385D01*
X50999165Y-110580384D01*
X50827027Y-110465365D01*
X50680635Y-110318973D01*
X50565616Y-110146835D01*
X50496108Y-109979027D01*
X50486389Y-109955564D01*
X50446000Y-109752516D01*
X50446000Y-109545484D01*
X50486389Y-109342436D01*
X50565615Y-109151167D01*
X50635329Y-109046833D01*
X50680635Y-108979027D01*
X50827027Y-108832635D01*
X50999165Y-108717616D01*
X51023242Y-108707643D01*
X51190436Y-108638389D01*
X51393484Y-108598000D01*
X51600516Y-108598000D01*
X51803564Y-108638389D01*
X51803564Y-108638389D01*
G37*
G36*
X130803564Y-107538389D02*
G01*
X130994833Y-107617615D01*
X130994835Y-107617616D01*
X131166973Y-107732635D01*
X131313365Y-107879027D01*
X131425491Y-108046835D01*
X131428385Y-108051167D01*
X131507611Y-108242436D01*
X131548000Y-108445484D01*
X131548000Y-108652516D01*
X131507611Y-108855564D01*
X131454159Y-108984608D01*
X131428384Y-109046835D01*
X131313365Y-109218973D01*
X131166973Y-109365365D01*
X130994835Y-109480384D01*
X130994834Y-109480385D01*
X130994833Y-109480385D01*
X130803564Y-109559611D01*
X130600516Y-109600000D01*
X130393484Y-109600000D01*
X130190436Y-109559611D01*
X129999167Y-109480385D01*
X129999166Y-109480385D01*
X129999165Y-109480384D01*
X129827027Y-109365365D01*
X129680635Y-109218973D01*
X129565616Y-109046835D01*
X129539841Y-108984608D01*
X129486389Y-108855564D01*
X129446000Y-108652516D01*
X129446000Y-108445484D01*
X129486389Y-108242436D01*
X129565615Y-108051167D01*
X129568510Y-108046835D01*
X129680635Y-107879027D01*
X129827027Y-107732635D01*
X129999165Y-107617616D01*
X129999167Y-107617615D01*
X130190436Y-107538389D01*
X130393484Y-107498000D01*
X130600516Y-107498000D01*
X130803564Y-107538389D01*
X130803564Y-107538389D01*
G37*
G36*
X139230642Y-107703781D02*
G01*
X139348293Y-107752514D01*
X139376416Y-107764163D01*
X139507608Y-107851822D01*
X139619178Y-107963392D01*
X139706837Y-108094584D01*
X139706838Y-108094586D01*
X139767219Y-108240358D01*
X139798000Y-108395107D01*
X139798000Y-108552893D01*
X139767219Y-108707642D01*
X139715445Y-108832635D01*
X139706837Y-108853416D01*
X139619178Y-108984608D01*
X139507608Y-109096178D01*
X139376416Y-109183837D01*
X139376415Y-109183838D01*
X139376414Y-109183838D01*
X139230642Y-109244219D01*
X139075893Y-109275000D01*
X138918107Y-109275000D01*
X138763358Y-109244219D01*
X138617586Y-109183838D01*
X138617585Y-109183838D01*
X138617584Y-109183837D01*
X138486392Y-109096178D01*
X138374822Y-108984608D01*
X138287163Y-108853416D01*
X138278555Y-108832635D01*
X138226781Y-108707642D01*
X138196000Y-108552893D01*
X138196000Y-108395107D01*
X138226781Y-108240358D01*
X138287162Y-108094586D01*
X138287163Y-108094584D01*
X138374822Y-107963392D01*
X138486392Y-107851822D01*
X138617584Y-107764163D01*
X138645707Y-107752514D01*
X138763358Y-107703781D01*
X138918107Y-107673000D01*
X139075893Y-107673000D01*
X139230642Y-107703781D01*
X139230642Y-107703781D01*
G37*
G36*
X117098000Y-108750000D02*
G01*
X115396000Y-108750000D01*
X115396000Y-107048000D01*
X117098000Y-107048000D01*
X117098000Y-108750000D01*
X117098000Y-108750000D01*
G37*
G36*
X70303564Y-106638389D02*
G01*
X70494833Y-106717615D01*
X70494835Y-106717616D01*
X70543301Y-106750000D01*
X70666973Y-106832635D01*
X70813365Y-106979027D01*
X70928385Y-107151167D01*
X71007611Y-107342436D01*
X71048000Y-107545484D01*
X71048000Y-107752516D01*
X71007611Y-107955564D01*
X70968011Y-108051167D01*
X70928384Y-108146835D01*
X70813365Y-108318973D01*
X70666973Y-108465365D01*
X70494835Y-108580384D01*
X70494834Y-108580385D01*
X70494833Y-108580385D01*
X70303564Y-108659611D01*
X70100516Y-108700000D01*
X69893484Y-108700000D01*
X69690436Y-108659611D01*
X69499167Y-108580385D01*
X69499166Y-108580385D01*
X69499165Y-108580384D01*
X69327027Y-108465365D01*
X69180635Y-108318973D01*
X69065616Y-108146835D01*
X69025989Y-108051167D01*
X68986389Y-107955564D01*
X68946000Y-107752516D01*
X68946000Y-107545484D01*
X68986389Y-107342436D01*
X69065615Y-107151167D01*
X69180635Y-106979027D01*
X69327027Y-106832635D01*
X69450699Y-106750000D01*
X69499165Y-106717616D01*
X69499167Y-106717615D01*
X69690436Y-106638389D01*
X69893484Y-106598000D01*
X70100516Y-106598000D01*
X70303564Y-106638389D01*
X70303564Y-106638389D01*
G37*
G36*
X107303564Y-106638389D02*
G01*
X107494833Y-106717615D01*
X107494835Y-106717616D01*
X107543301Y-106750000D01*
X107666973Y-106832635D01*
X107813365Y-106979027D01*
X107928385Y-107151167D01*
X108007611Y-107342436D01*
X108048000Y-107545484D01*
X108048000Y-107752516D01*
X108007611Y-107955564D01*
X107968011Y-108051167D01*
X107928384Y-108146835D01*
X107813365Y-108318973D01*
X107666973Y-108465365D01*
X107494835Y-108580384D01*
X107494834Y-108580385D01*
X107494833Y-108580385D01*
X107303564Y-108659611D01*
X107100516Y-108700000D01*
X106893484Y-108700000D01*
X106690436Y-108659611D01*
X106499167Y-108580385D01*
X106499166Y-108580385D01*
X106499165Y-108580384D01*
X106327027Y-108465365D01*
X106180635Y-108318973D01*
X106065616Y-108146835D01*
X106025989Y-108051167D01*
X105986389Y-107955564D01*
X105946000Y-107752516D01*
X105946000Y-107545484D01*
X105986389Y-107342436D01*
X106065615Y-107151167D01*
X106180635Y-106979027D01*
X106327027Y-106832635D01*
X106450699Y-106750000D01*
X106499165Y-106717616D01*
X106499167Y-106717615D01*
X106690436Y-106638389D01*
X106893484Y-106598000D01*
X107100516Y-106598000D01*
X107303564Y-106638389D01*
X107303564Y-106638389D01*
G37*
G36*
X56803564Y-106538389D02*
G01*
X56994833Y-106617615D01*
X56994835Y-106617616D01*
X57025924Y-106638389D01*
X57166973Y-106732635D01*
X57313365Y-106879027D01*
X57428385Y-107051167D01*
X57507611Y-107242436D01*
X57548000Y-107445484D01*
X57548000Y-107652516D01*
X57507611Y-107855564D01*
X57466189Y-107955565D01*
X57428384Y-108046835D01*
X57313365Y-108218973D01*
X57166973Y-108365365D01*
X56994835Y-108480384D01*
X56994834Y-108480385D01*
X56994833Y-108480385D01*
X56803564Y-108559611D01*
X56600516Y-108600000D01*
X56393484Y-108600000D01*
X56190436Y-108559611D01*
X55999167Y-108480385D01*
X55999166Y-108480385D01*
X55999165Y-108480384D01*
X55827027Y-108365365D01*
X55680635Y-108218973D01*
X55565616Y-108046835D01*
X55527811Y-107955565D01*
X55486389Y-107855564D01*
X55446000Y-107652516D01*
X55446000Y-107445484D01*
X55486389Y-107242436D01*
X55565615Y-107051167D01*
X55680635Y-106879027D01*
X55827027Y-106732635D01*
X55968076Y-106638389D01*
X55999165Y-106617616D01*
X55999167Y-106617615D01*
X56190436Y-106538389D01*
X56393484Y-106498000D01*
X56600516Y-106498000D01*
X56803564Y-106538389D01*
X56803564Y-106538389D01*
G37*
G36*
X79598000Y-106750000D02*
G01*
X77896000Y-106750000D01*
X77896000Y-105048000D01*
X79598000Y-105048000D01*
X79598000Y-106750000D01*
X79598000Y-106750000D01*
G37*
G36*
X143548000Y-106725000D02*
G01*
X140946000Y-106725000D01*
X140946000Y-105423000D01*
X143548000Y-105423000D01*
X143548000Y-106725000D01*
X143548000Y-106725000D01*
G37*
G36*
X75303564Y-104538389D02*
G01*
X75494833Y-104617615D01*
X75494835Y-104617616D01*
X75666973Y-104732635D01*
X75813365Y-104879027D01*
X75865144Y-104956519D01*
X75928385Y-105051167D01*
X76007611Y-105242436D01*
X76048000Y-105445484D01*
X76048000Y-105652516D01*
X76007611Y-105855564D01*
X75988336Y-105902097D01*
X75928384Y-106046835D01*
X75813365Y-106218973D01*
X75666973Y-106365365D01*
X75494835Y-106480384D01*
X75494834Y-106480385D01*
X75494833Y-106480385D01*
X75303564Y-106559611D01*
X75100516Y-106600000D01*
X74893484Y-106600000D01*
X74690436Y-106559611D01*
X74499167Y-106480385D01*
X74499166Y-106480385D01*
X74499165Y-106480384D01*
X74327027Y-106365365D01*
X74180635Y-106218973D01*
X74065616Y-106046835D01*
X74005664Y-105902097D01*
X73986389Y-105855564D01*
X73946000Y-105652516D01*
X73946000Y-105445484D01*
X73986389Y-105242436D01*
X74065615Y-105051167D01*
X74128857Y-104956519D01*
X74180635Y-104879027D01*
X74327027Y-104732635D01*
X74499165Y-104617616D01*
X74499167Y-104617615D01*
X74690436Y-104538389D01*
X74893484Y-104498000D01*
X75100516Y-104498000D01*
X75303564Y-104538389D01*
X75303564Y-104538389D01*
G37*
G36*
X112303564Y-104538389D02*
G01*
X112494833Y-104617615D01*
X112494835Y-104617616D01*
X112666973Y-104732635D01*
X112813365Y-104879027D01*
X112865144Y-104956519D01*
X112928385Y-105051167D01*
X113007611Y-105242436D01*
X113048000Y-105445484D01*
X113048000Y-105652516D01*
X113007611Y-105855564D01*
X112988336Y-105902097D01*
X112928384Y-106046835D01*
X112813365Y-106218973D01*
X112666973Y-106365365D01*
X112494835Y-106480384D01*
X112494834Y-106480385D01*
X112494833Y-106480385D01*
X112303564Y-106559611D01*
X112100516Y-106600000D01*
X111893484Y-106600000D01*
X111690436Y-106559611D01*
X111499167Y-106480385D01*
X111499166Y-106480385D01*
X111499165Y-106480384D01*
X111327027Y-106365365D01*
X111180635Y-106218973D01*
X111065616Y-106046835D01*
X111005664Y-105902097D01*
X110986389Y-105855564D01*
X110946000Y-105652516D01*
X110946000Y-105445484D01*
X110986389Y-105242436D01*
X111065615Y-105051167D01*
X111128857Y-104956519D01*
X111180635Y-104879027D01*
X111327027Y-104732635D01*
X111499165Y-104617616D01*
X111499167Y-104617615D01*
X111690436Y-104538389D01*
X111893484Y-104498000D01*
X112100516Y-104498000D01*
X112303564Y-104538389D01*
X112303564Y-104538389D01*
G37*
G36*
X125894985Y-103042860D02*
G01*
X126007748Y-103065290D01*
X126113490Y-103109090D01*
X126326408Y-103197283D01*
X126613196Y-103388909D01*
X126857091Y-103632804D01*
X127048717Y-103919592D01*
X127126037Y-104106259D01*
X127180710Y-104238252D01*
X127184986Y-104259748D01*
X127248000Y-104576540D01*
X127248000Y-104921460D01*
X127222829Y-105048000D01*
X127182496Y-105250771D01*
X127180710Y-105259747D01*
X127048717Y-105578408D01*
X126857091Y-105865196D01*
X126613196Y-106109091D01*
X126326408Y-106300717D01*
X126170333Y-106365365D01*
X126007748Y-106432710D01*
X125894985Y-106455140D01*
X125669460Y-106500000D01*
X125324540Y-106500000D01*
X125099015Y-106455140D01*
X124986252Y-106432710D01*
X124823667Y-106365365D01*
X124667592Y-106300717D01*
X124380804Y-106109091D01*
X124136909Y-105865196D01*
X123945283Y-105578408D01*
X123813290Y-105259747D01*
X123811505Y-105250771D01*
X123771171Y-105048000D01*
X123746000Y-104921460D01*
X123746000Y-104576540D01*
X123809014Y-104259748D01*
X123813290Y-104238252D01*
X123867963Y-104106259D01*
X123945283Y-103919592D01*
X124136909Y-103632804D01*
X124380804Y-103388909D01*
X124667592Y-103197283D01*
X124880510Y-103109090D01*
X124986252Y-103065290D01*
X125099015Y-103042860D01*
X125324540Y-102998000D01*
X125669460Y-102998000D01*
X125894985Y-103042860D01*
X125894985Y-103042860D01*
G37*
G36*
X98598000Y-106500000D02*
G01*
X96896000Y-106500000D01*
X96896000Y-104798000D01*
X98598000Y-104798000D01*
X98598000Y-106500000D01*
X98598000Y-106500000D01*
G37*
G36*
X81595228Y-104680703D02*
G01*
X81750100Y-104744853D01*
X81889481Y-104837985D01*
X82008015Y-104956519D01*
X82101147Y-105095900D01*
X82165297Y-105250772D01*
X82198000Y-105415184D01*
X82198000Y-105582816D01*
X82165297Y-105747228D01*
X82101147Y-105902100D01*
X82008015Y-106041481D01*
X81889481Y-106160015D01*
X81750100Y-106253147D01*
X81595228Y-106317297D01*
X81430816Y-106350000D01*
X81263184Y-106350000D01*
X81098772Y-106317297D01*
X80943900Y-106253147D01*
X80804519Y-106160015D01*
X80685985Y-106041481D01*
X80592853Y-105902100D01*
X80528703Y-105747228D01*
X80496000Y-105582816D01*
X80496000Y-105415184D01*
X80528703Y-105250772D01*
X80592853Y-105095900D01*
X80685985Y-104956519D01*
X80804519Y-104837985D01*
X80943900Y-104744853D01*
X81098772Y-104680703D01*
X81263184Y-104648000D01*
X81430816Y-104648000D01*
X81595228Y-104680703D01*
X81595228Y-104680703D01*
G37*
G36*
X89998000Y-106350000D02*
G01*
X88296000Y-106350000D01*
X88296000Y-104648000D01*
X89998000Y-104648000D01*
X89998000Y-106350000D01*
X89998000Y-106350000D01*
G37*
G36*
X116898000Y-106225000D02*
G01*
X115596000Y-106225000D01*
X115596000Y-104923000D01*
X116898000Y-104923000D01*
X116898000Y-106225000D01*
X116898000Y-106225000D01*
G37*
G36*
X84323000Y-106150000D02*
G01*
X83021000Y-106150000D01*
X83021000Y-104848000D01*
X84323000Y-104848000D01*
X84323000Y-106150000D01*
X84323000Y-106150000D01*
G37*
G36*
X87473000Y-106150000D02*
G01*
X86171000Y-106150000D01*
X86171000Y-104848000D01*
X87473000Y-104848000D01*
X87473000Y-106150000D01*
X87473000Y-106150000D01*
G37*
G36*
X131110512Y-103852927D02*
G01*
X131259812Y-103882624D01*
X131423784Y-103950544D01*
X131571354Y-104049147D01*
X131696853Y-104174646D01*
X131795456Y-104322216D01*
X131863376Y-104486188D01*
X131881348Y-104576542D01*
X131898000Y-104660258D01*
X131898000Y-104837742D01*
X131893073Y-104862512D01*
X131863376Y-105011812D01*
X131795456Y-105175784D01*
X131696853Y-105323354D01*
X131571354Y-105448853D01*
X131423784Y-105547456D01*
X131259812Y-105615376D01*
X131110512Y-105645073D01*
X131085742Y-105650000D01*
X130908258Y-105650000D01*
X130883488Y-105645073D01*
X130734188Y-105615376D01*
X130570216Y-105547456D01*
X130422646Y-105448853D01*
X130297147Y-105323354D01*
X130198544Y-105175784D01*
X130130624Y-105011812D01*
X130100927Y-104862512D01*
X130096000Y-104837742D01*
X130096000Y-104660258D01*
X130112652Y-104576542D01*
X130130624Y-104486188D01*
X130198544Y-104322216D01*
X130297147Y-104174646D01*
X130422646Y-104049147D01*
X130570216Y-103950544D01*
X130734188Y-103882624D01*
X130883488Y-103852927D01*
X130908258Y-103848000D01*
X131085742Y-103848000D01*
X131110512Y-103852927D01*
X131110512Y-103852927D01*
G37*
G36*
X120110512Y-103852927D02*
G01*
X120259812Y-103882624D01*
X120423784Y-103950544D01*
X120571354Y-104049147D01*
X120696853Y-104174646D01*
X120795456Y-104322216D01*
X120863376Y-104486188D01*
X120881348Y-104576542D01*
X120898000Y-104660258D01*
X120898000Y-104837742D01*
X120893073Y-104862512D01*
X120863376Y-105011812D01*
X120795456Y-105175784D01*
X120696853Y-105323354D01*
X120571354Y-105448853D01*
X120423784Y-105547456D01*
X120259812Y-105615376D01*
X120110512Y-105645073D01*
X120085742Y-105650000D01*
X119908258Y-105650000D01*
X119883488Y-105645073D01*
X119734188Y-105615376D01*
X119570216Y-105547456D01*
X119422646Y-105448853D01*
X119297147Y-105323354D01*
X119198544Y-105175784D01*
X119130624Y-105011812D01*
X119100927Y-104862512D01*
X119096000Y-104837742D01*
X119096000Y-104660258D01*
X119112652Y-104576542D01*
X119130624Y-104486188D01*
X119198544Y-104322216D01*
X119297147Y-104174646D01*
X119422646Y-104049147D01*
X119570216Y-103950544D01*
X119734188Y-103882624D01*
X119883488Y-103852927D01*
X119908258Y-103848000D01*
X120085742Y-103848000D01*
X120110512Y-103852927D01*
X120110512Y-103852927D01*
G37*
G36*
X51894985Y-102042860D02*
G01*
X52007748Y-102065290D01*
X52082318Y-102096178D01*
X52326408Y-102197283D01*
X52613196Y-102388909D01*
X52857091Y-102632804D01*
X53048717Y-102919592D01*
X53180710Y-103238253D01*
X53248000Y-103576540D01*
X53248000Y-103921460D01*
X53222601Y-104049147D01*
X53184986Y-104238253D01*
X53180710Y-104259747D01*
X53048717Y-104578408D01*
X52857091Y-104865196D01*
X52613196Y-105109091D01*
X52326408Y-105300717D01*
X52139741Y-105378037D01*
X52007748Y-105432710D01*
X51894985Y-105455140D01*
X51669460Y-105500000D01*
X51324540Y-105500000D01*
X51099015Y-105455140D01*
X50986252Y-105432710D01*
X50854259Y-105378037D01*
X50667592Y-105300717D01*
X50380804Y-105109091D01*
X50136909Y-104865196D01*
X49945283Y-104578408D01*
X49813290Y-104259747D01*
X49809015Y-104238253D01*
X49771399Y-104049147D01*
X49746000Y-103921460D01*
X49746000Y-103576540D01*
X49813290Y-103238253D01*
X49945283Y-102919592D01*
X50136909Y-102632804D01*
X50380804Y-102388909D01*
X50667592Y-102197283D01*
X50911682Y-102096178D01*
X50986252Y-102065290D01*
X51099015Y-102042860D01*
X51324540Y-101998000D01*
X51669460Y-101998000D01*
X51894985Y-102042860D01*
X51894985Y-102042860D01*
G37*
G36*
X57110512Y-102852927D02*
G01*
X57259812Y-102882624D01*
X57423784Y-102950544D01*
X57571354Y-103049147D01*
X57696853Y-103174646D01*
X57795456Y-103322216D01*
X57863376Y-103486188D01*
X57881348Y-103576542D01*
X57898000Y-103660258D01*
X57898000Y-103837742D01*
X57893073Y-103862512D01*
X57863376Y-104011812D01*
X57795456Y-104175784D01*
X57696853Y-104323354D01*
X57571354Y-104448853D01*
X57423784Y-104547456D01*
X57259812Y-104615376D01*
X57110512Y-104645073D01*
X57085742Y-104650000D01*
X56908258Y-104650000D01*
X56883488Y-104645073D01*
X56734188Y-104615376D01*
X56570216Y-104547456D01*
X56422646Y-104448853D01*
X56297147Y-104323354D01*
X56198544Y-104175784D01*
X56130624Y-104011812D01*
X56100927Y-103862512D01*
X56096000Y-103837742D01*
X56096000Y-103660258D01*
X56112652Y-103576542D01*
X56130624Y-103486188D01*
X56198544Y-103322216D01*
X56297147Y-103174646D01*
X56422646Y-103049147D01*
X56570216Y-102950544D01*
X56734188Y-102882624D01*
X56883488Y-102852927D01*
X56908258Y-102848000D01*
X57085742Y-102848000D01*
X57110512Y-102852927D01*
X57110512Y-102852927D01*
G37*
G36*
X46110512Y-102852927D02*
G01*
X46259812Y-102882624D01*
X46423784Y-102950544D01*
X46571354Y-103049147D01*
X46696853Y-103174646D01*
X46795456Y-103322216D01*
X46863376Y-103486188D01*
X46881348Y-103576542D01*
X46898000Y-103660258D01*
X46898000Y-103837742D01*
X46893073Y-103862512D01*
X46863376Y-104011812D01*
X46795456Y-104175784D01*
X46696853Y-104323354D01*
X46571354Y-104448853D01*
X46423784Y-104547456D01*
X46259812Y-104615376D01*
X46110512Y-104645073D01*
X46085742Y-104650000D01*
X45908258Y-104650000D01*
X45883488Y-104645073D01*
X45734188Y-104615376D01*
X45570216Y-104547456D01*
X45422646Y-104448853D01*
X45297147Y-104323354D01*
X45198544Y-104175784D01*
X45130624Y-104011812D01*
X45100927Y-103862512D01*
X45096000Y-103837742D01*
X45096000Y-103660258D01*
X45112652Y-103576542D01*
X45130624Y-103486188D01*
X45198544Y-103322216D01*
X45297147Y-103174646D01*
X45422646Y-103049147D01*
X45570216Y-102950544D01*
X45734188Y-102882624D01*
X45883488Y-102852927D01*
X45908258Y-102848000D01*
X46085742Y-102848000D01*
X46110512Y-102852927D01*
X46110512Y-102852927D01*
G37*
G36*
X79398000Y-104225000D02*
G01*
X78096000Y-104225000D01*
X78096000Y-102923000D01*
X79398000Y-102923000D01*
X79398000Y-104225000D01*
X79398000Y-104225000D01*
G37*
G36*
X98398000Y-103975000D02*
G01*
X97096000Y-103975000D01*
X97096000Y-102673000D01*
X98398000Y-102673000D01*
X98398000Y-103975000D01*
X98398000Y-103975000D01*
G37*
G36*
X143548000Y-103725000D02*
G01*
X140946000Y-103725000D01*
X140946000Y-102423000D01*
X143548000Y-102423000D01*
X143548000Y-103725000D01*
X143548000Y-103725000D01*
G37*
G36*
X88803564Y-101638389D02*
G01*
X88970758Y-101707643D01*
X88994835Y-101717616D01*
X89077723Y-101773000D01*
X89166973Y-101832635D01*
X89313365Y-101979027D01*
X89428385Y-102151167D01*
X89507611Y-102342436D01*
X89548000Y-102545484D01*
X89548000Y-102752516D01*
X89507611Y-102955564D01*
X89444018Y-103109091D01*
X89428384Y-103146835D01*
X89313365Y-103318973D01*
X89166973Y-103465365D01*
X88994835Y-103580384D01*
X88994834Y-103580385D01*
X88994833Y-103580385D01*
X88803564Y-103659611D01*
X88600516Y-103700000D01*
X88393484Y-103700000D01*
X88190436Y-103659611D01*
X87999167Y-103580385D01*
X87999166Y-103580385D01*
X87999165Y-103580384D01*
X87827027Y-103465365D01*
X87680635Y-103318973D01*
X87565616Y-103146835D01*
X87549982Y-103109091D01*
X87486389Y-102955564D01*
X87446000Y-102752516D01*
X87446000Y-102545484D01*
X87486389Y-102342436D01*
X87565615Y-102151167D01*
X87680635Y-101979027D01*
X87827027Y-101832635D01*
X87916277Y-101773000D01*
X87999165Y-101717616D01*
X88023242Y-101707643D01*
X88190436Y-101638389D01*
X88393484Y-101598000D01*
X88600516Y-101598000D01*
X88803564Y-101638389D01*
X88803564Y-101638389D01*
G37*
G36*
X107394985Y-100042860D02*
G01*
X107507748Y-100065290D01*
X107639741Y-100119963D01*
X107826408Y-100197283D01*
X108113196Y-100388909D01*
X108357091Y-100632804D01*
X108548717Y-100919592D01*
X108680710Y-101238253D01*
X108748000Y-101576540D01*
X108748000Y-101921460D01*
X108680710Y-102259747D01*
X108548717Y-102578408D01*
X108357091Y-102865196D01*
X108113196Y-103109091D01*
X107826408Y-103300717D01*
X107639741Y-103378037D01*
X107507748Y-103432710D01*
X107394985Y-103455140D01*
X107169460Y-103500000D01*
X106824540Y-103500000D01*
X106599015Y-103455140D01*
X106486252Y-103432710D01*
X106354259Y-103378037D01*
X106167592Y-103300717D01*
X105880804Y-103109091D01*
X105636909Y-102865196D01*
X105445283Y-102578408D01*
X105313290Y-102259747D01*
X105246000Y-101921460D01*
X105246000Y-101576540D01*
X105313290Y-101238253D01*
X105445283Y-100919592D01*
X105636909Y-100632804D01*
X105880804Y-100388909D01*
X106167592Y-100197283D01*
X106354259Y-100119963D01*
X106486252Y-100065290D01*
X106599015Y-100042860D01*
X106824540Y-99998000D01*
X107169460Y-99998000D01*
X107394985Y-100042860D01*
X107394985Y-100042860D01*
G37*
G36*
X70394985Y-100042860D02*
G01*
X70507748Y-100065290D01*
X70639741Y-100119963D01*
X70826408Y-100197283D01*
X71113196Y-100388909D01*
X71357091Y-100632804D01*
X71548717Y-100919592D01*
X71680710Y-101238253D01*
X71748000Y-101576540D01*
X71748000Y-101921460D01*
X71680710Y-102259747D01*
X71548717Y-102578408D01*
X71357091Y-102865196D01*
X71113196Y-103109091D01*
X70826408Y-103300717D01*
X70639741Y-103378037D01*
X70507748Y-103432710D01*
X70394985Y-103455140D01*
X70169460Y-103500000D01*
X69824540Y-103500000D01*
X69599015Y-103455140D01*
X69486252Y-103432710D01*
X69354259Y-103378037D01*
X69167592Y-103300717D01*
X68880804Y-103109091D01*
X68636909Y-102865196D01*
X68445283Y-102578408D01*
X68313290Y-102259747D01*
X68246000Y-101921460D01*
X68246000Y-101576540D01*
X68313290Y-101238253D01*
X68445283Y-100919592D01*
X68636909Y-100632804D01*
X68880804Y-100388909D01*
X69167592Y-100197283D01*
X69354259Y-100119963D01*
X69486252Y-100065290D01*
X69599015Y-100042860D01*
X69824540Y-99998000D01*
X70169460Y-99998000D01*
X70394985Y-100042860D01*
X70394985Y-100042860D01*
G37*
G36*
X116898000Y-103075000D02*
G01*
X115596000Y-103075000D01*
X115596000Y-101773000D01*
X116898000Y-101773000D01*
X116898000Y-103075000D01*
X116898000Y-103075000D01*
G37*
G36*
X64604956Y-100851822D02*
G01*
X64759812Y-100882624D01*
X64923784Y-100950544D01*
X65071354Y-101049147D01*
X65196853Y-101174646D01*
X65295456Y-101322216D01*
X65363376Y-101486188D01*
X65398000Y-101660259D01*
X65398000Y-101837741D01*
X65363376Y-102011812D01*
X65295456Y-102175784D01*
X65196853Y-102323354D01*
X65071354Y-102448853D01*
X64923784Y-102547456D01*
X64759812Y-102615376D01*
X64610512Y-102645073D01*
X64585742Y-102650000D01*
X64408258Y-102650000D01*
X64383488Y-102645073D01*
X64234188Y-102615376D01*
X64070216Y-102547456D01*
X63922646Y-102448853D01*
X63797147Y-102323354D01*
X63698544Y-102175784D01*
X63630624Y-102011812D01*
X63596000Y-101837741D01*
X63596000Y-101660259D01*
X63630624Y-101486188D01*
X63698544Y-101322216D01*
X63797147Y-101174646D01*
X63922646Y-101049147D01*
X64070216Y-100950544D01*
X64234188Y-100882624D01*
X64389044Y-100851822D01*
X64408258Y-100848000D01*
X64585742Y-100848000D01*
X64604956Y-100851822D01*
X64604956Y-100851822D01*
G37*
G36*
X75604956Y-100851822D02*
G01*
X75759812Y-100882624D01*
X75923784Y-100950544D01*
X76071354Y-101049147D01*
X76196853Y-101174646D01*
X76295456Y-101322216D01*
X76363376Y-101486188D01*
X76398000Y-101660259D01*
X76398000Y-101837741D01*
X76363376Y-102011812D01*
X76295456Y-102175784D01*
X76196853Y-102323354D01*
X76071354Y-102448853D01*
X75923784Y-102547456D01*
X75759812Y-102615376D01*
X75610512Y-102645073D01*
X75585742Y-102650000D01*
X75408258Y-102650000D01*
X75383488Y-102645073D01*
X75234188Y-102615376D01*
X75070216Y-102547456D01*
X74922646Y-102448853D01*
X74797147Y-102323354D01*
X74698544Y-102175784D01*
X74630624Y-102011812D01*
X74596000Y-101837741D01*
X74596000Y-101660259D01*
X74630624Y-101486188D01*
X74698544Y-101322216D01*
X74797147Y-101174646D01*
X74922646Y-101049147D01*
X75070216Y-100950544D01*
X75234188Y-100882624D01*
X75389044Y-100851822D01*
X75408258Y-100848000D01*
X75585742Y-100848000D01*
X75604956Y-100851822D01*
X75604956Y-100851822D01*
G37*
G36*
X112604956Y-100851822D02*
G01*
X112759812Y-100882624D01*
X112923784Y-100950544D01*
X113071354Y-101049147D01*
X113196853Y-101174646D01*
X113295456Y-101322216D01*
X113363376Y-101486188D01*
X113398000Y-101660259D01*
X113398000Y-101837741D01*
X113363376Y-102011812D01*
X113295456Y-102175784D01*
X113196853Y-102323354D01*
X113071354Y-102448853D01*
X112923784Y-102547456D01*
X112759812Y-102615376D01*
X112610512Y-102645073D01*
X112585742Y-102650000D01*
X112408258Y-102650000D01*
X112383488Y-102645073D01*
X112234188Y-102615376D01*
X112070216Y-102547456D01*
X111922646Y-102448853D01*
X111797147Y-102323354D01*
X111698544Y-102175784D01*
X111630624Y-102011812D01*
X111596000Y-101837741D01*
X111596000Y-101660259D01*
X111630624Y-101486188D01*
X111698544Y-101322216D01*
X111797147Y-101174646D01*
X111922646Y-101049147D01*
X112070216Y-100950544D01*
X112234188Y-100882624D01*
X112389044Y-100851822D01*
X112408258Y-100848000D01*
X112585742Y-100848000D01*
X112604956Y-100851822D01*
X112604956Y-100851822D01*
G37*
G36*
X101604956Y-100851822D02*
G01*
X101759812Y-100882624D01*
X101923784Y-100950544D01*
X102071354Y-101049147D01*
X102196853Y-101174646D01*
X102295456Y-101322216D01*
X102363376Y-101486188D01*
X102398000Y-101660259D01*
X102398000Y-101837741D01*
X102363376Y-102011812D01*
X102295456Y-102175784D01*
X102196853Y-102323354D01*
X102071354Y-102448853D01*
X101923784Y-102547456D01*
X101759812Y-102615376D01*
X101610512Y-102645073D01*
X101585742Y-102650000D01*
X101408258Y-102650000D01*
X101383488Y-102645073D01*
X101234188Y-102615376D01*
X101070216Y-102547456D01*
X100922646Y-102448853D01*
X100797147Y-102323354D01*
X100698544Y-102175784D01*
X100630624Y-102011812D01*
X100596000Y-101837741D01*
X100596000Y-101660259D01*
X100630624Y-101486188D01*
X100698544Y-101322216D01*
X100797147Y-101174646D01*
X100922646Y-101049147D01*
X101070216Y-100950544D01*
X101234188Y-100882624D01*
X101389044Y-100851822D01*
X101408258Y-100848000D01*
X101585742Y-100848000D01*
X101604956Y-100851822D01*
X101604956Y-100851822D01*
G37*
G36*
X139230642Y-100703781D02*
G01*
X139366402Y-100760015D01*
X139376416Y-100764163D01*
X139507608Y-100851822D01*
X139619178Y-100963392D01*
X139693751Y-101075000D01*
X139706838Y-101094586D01*
X139767219Y-101240358D01*
X139798000Y-101395107D01*
X139798000Y-101552893D01*
X139767219Y-101707642D01*
X139706838Y-101853414D01*
X139706837Y-101853416D01*
X139619178Y-101984608D01*
X139507608Y-102096178D01*
X139376416Y-102183837D01*
X139376415Y-102183838D01*
X139376414Y-102183838D01*
X139230642Y-102244219D01*
X139075893Y-102275000D01*
X138918107Y-102275000D01*
X138763358Y-102244219D01*
X138617586Y-102183838D01*
X138617585Y-102183838D01*
X138617584Y-102183837D01*
X138486392Y-102096178D01*
X138374822Y-101984608D01*
X138287163Y-101853416D01*
X138287162Y-101853414D01*
X138226781Y-101707642D01*
X138196000Y-101552893D01*
X138196000Y-101395107D01*
X138226781Y-101240358D01*
X138287162Y-101094586D01*
X138300249Y-101075000D01*
X138374822Y-100963392D01*
X138486392Y-100851822D01*
X138617584Y-100764163D01*
X138627598Y-100760015D01*
X138763358Y-100703781D01*
X138918107Y-100673000D01*
X139075893Y-100673000D01*
X139230642Y-100703781D01*
X139230642Y-100703781D01*
G37*
G36*
X93803564Y-99538389D02*
G01*
X93994833Y-99617615D01*
X93994835Y-99617616D01*
X94111995Y-99695900D01*
X94166973Y-99732635D01*
X94313365Y-99879027D01*
X94428385Y-100051167D01*
X94507611Y-100242436D01*
X94548000Y-100445484D01*
X94548000Y-100652516D01*
X94507611Y-100855564D01*
X94468494Y-100950000D01*
X94428384Y-101046835D01*
X94313365Y-101218973D01*
X94166973Y-101365365D01*
X93994835Y-101480384D01*
X93994834Y-101480385D01*
X93994833Y-101480385D01*
X93803564Y-101559611D01*
X93600516Y-101600000D01*
X93393484Y-101600000D01*
X93190436Y-101559611D01*
X92999167Y-101480385D01*
X92999166Y-101480385D01*
X92999165Y-101480384D01*
X92827027Y-101365365D01*
X92680635Y-101218973D01*
X92565616Y-101046835D01*
X92525506Y-100950000D01*
X92486389Y-100855564D01*
X92446000Y-100652516D01*
X92446000Y-100445484D01*
X92486389Y-100242436D01*
X92565615Y-100051167D01*
X92680635Y-99879027D01*
X92827027Y-99732635D01*
X92882005Y-99695900D01*
X92999165Y-99617616D01*
X92999167Y-99617615D01*
X93190436Y-99538389D01*
X93393484Y-99498000D01*
X93600516Y-99498000D01*
X93803564Y-99538389D01*
X93803564Y-99538389D01*
G37*
G36*
X79398000Y-101075000D02*
G01*
X78096000Y-101075000D01*
X78096000Y-99773000D01*
X79398000Y-99773000D01*
X79398000Y-101075000D01*
X79398000Y-101075000D01*
G37*
G36*
X116495228Y-99280703D02*
G01*
X116650100Y-99344853D01*
X116789481Y-99437985D01*
X116908015Y-99556519D01*
X117001147Y-99695900D01*
X117065297Y-99850772D01*
X117098000Y-100015184D01*
X117098000Y-100182816D01*
X117065297Y-100347228D01*
X117001147Y-100502100D01*
X116908015Y-100641481D01*
X116789481Y-100760015D01*
X116650100Y-100853147D01*
X116495228Y-100917297D01*
X116330816Y-100950000D01*
X116163184Y-100950000D01*
X115998772Y-100917297D01*
X115843900Y-100853147D01*
X115704519Y-100760015D01*
X115585985Y-100641481D01*
X115492853Y-100502100D01*
X115428703Y-100347228D01*
X115396000Y-100182816D01*
X115396000Y-100015184D01*
X115428703Y-99850772D01*
X115492853Y-99695900D01*
X115585985Y-99556519D01*
X115704519Y-99437985D01*
X115843900Y-99344853D01*
X115998772Y-99280703D01*
X116163184Y-99248000D01*
X116330816Y-99248000D01*
X116495228Y-99280703D01*
X116495228Y-99280703D01*
G37*
G36*
X98398000Y-100825000D02*
G01*
X97096000Y-100825000D01*
X97096000Y-99523000D01*
X98398000Y-99523000D01*
X98398000Y-100825000D01*
X98398000Y-100825000D01*
G37*
G36*
X78995228Y-97280703D02*
G01*
X79150100Y-97344853D01*
X79289481Y-97437985D01*
X79408015Y-97556519D01*
X79501147Y-97695900D01*
X79565297Y-97850772D01*
X79598000Y-98015184D01*
X79598000Y-98182816D01*
X79565297Y-98347228D01*
X79501147Y-98502100D01*
X79408015Y-98641481D01*
X79289481Y-98760015D01*
X79150100Y-98853147D01*
X78995228Y-98917297D01*
X78830816Y-98950000D01*
X78663184Y-98950000D01*
X78498772Y-98917297D01*
X78343900Y-98853147D01*
X78204519Y-98760015D01*
X78085985Y-98641481D01*
X77992853Y-98502100D01*
X77928703Y-98347228D01*
X77896000Y-98182816D01*
X77896000Y-98015184D01*
X77928703Y-97850772D01*
X77992853Y-97695900D01*
X78085985Y-97556519D01*
X78204519Y-97437985D01*
X78343900Y-97344853D01*
X78498772Y-97280703D01*
X78663184Y-97248000D01*
X78830816Y-97248000D01*
X78995228Y-97280703D01*
X78995228Y-97280703D01*
G37*
G36*
X97995228Y-97030703D02*
G01*
X98150100Y-97094853D01*
X98289481Y-97187985D01*
X98408015Y-97306519D01*
X98501147Y-97445900D01*
X98565297Y-97600772D01*
X98598000Y-97765184D01*
X98598000Y-97932816D01*
X98565297Y-98097228D01*
X98501147Y-98252100D01*
X98408015Y-98391481D01*
X98289481Y-98510015D01*
X98150100Y-98603147D01*
X97995228Y-98667297D01*
X97830816Y-98700000D01*
X97663184Y-98700000D01*
X97498772Y-98667297D01*
X97343900Y-98603147D01*
X97204519Y-98510015D01*
X97085985Y-98391481D01*
X96992853Y-98252100D01*
X96928703Y-98097228D01*
X96896000Y-97932816D01*
X96896000Y-97765184D01*
X96928703Y-97600772D01*
X96992853Y-97445900D01*
X97085985Y-97306519D01*
X97204519Y-97187985D01*
X97343900Y-97094853D01*
X97498772Y-97030703D01*
X97663184Y-96998000D01*
X97830816Y-96998000D01*
X97995228Y-97030703D01*
X97995228Y-97030703D01*
G37*
G36*
X88894985Y-95042860D02*
G01*
X89007748Y-95065290D01*
X89050059Y-95082816D01*
X89326408Y-95197283D01*
X89613196Y-95388909D01*
X89857091Y-95632804D01*
X90048717Y-95919592D01*
X90116326Y-96082815D01*
X90180710Y-96238252D01*
X90197411Y-96322216D01*
X90248000Y-96576540D01*
X90248000Y-96921460D01*
X90213510Y-97094852D01*
X90194985Y-97187985D01*
X90180710Y-97259747D01*
X90048717Y-97578408D01*
X89857091Y-97865196D01*
X89613196Y-98109091D01*
X89326408Y-98300717D01*
X89214117Y-98347229D01*
X89007748Y-98432710D01*
X88894985Y-98455140D01*
X88669460Y-98500000D01*
X88324540Y-98500000D01*
X88099015Y-98455140D01*
X87986252Y-98432710D01*
X87779883Y-98347229D01*
X87667592Y-98300717D01*
X87380804Y-98109091D01*
X87136909Y-97865196D01*
X86945283Y-97578408D01*
X86813290Y-97259747D01*
X86799016Y-97187985D01*
X86780490Y-97094852D01*
X86746000Y-96921460D01*
X86746000Y-96576540D01*
X86796589Y-96322216D01*
X86813290Y-96238252D01*
X86877674Y-96082815D01*
X86945283Y-95919592D01*
X87136909Y-95632804D01*
X87380804Y-95388909D01*
X87667592Y-95197283D01*
X87943941Y-95082816D01*
X87986252Y-95065290D01*
X88099015Y-95042860D01*
X88324540Y-94998000D01*
X88669460Y-94998000D01*
X88894985Y-95042860D01*
X88894985Y-95042860D01*
G37*
G36*
X94110512Y-95852927D02*
G01*
X94259812Y-95882624D01*
X94423784Y-95950544D01*
X94571354Y-96049147D01*
X94696853Y-96174646D01*
X94795456Y-96322216D01*
X94863376Y-96486188D01*
X94881348Y-96576542D01*
X94897952Y-96660015D01*
X94898000Y-96660259D01*
X94898000Y-96837741D01*
X94863376Y-97011812D01*
X94795456Y-97175784D01*
X94696853Y-97323354D01*
X94571354Y-97448853D01*
X94423784Y-97547456D01*
X94259812Y-97615376D01*
X94110512Y-97645073D01*
X94085742Y-97650000D01*
X93908258Y-97650000D01*
X93883488Y-97645073D01*
X93734188Y-97615376D01*
X93570216Y-97547456D01*
X93422646Y-97448853D01*
X93297147Y-97323354D01*
X93198544Y-97175784D01*
X93130624Y-97011812D01*
X93096000Y-96837741D01*
X93096000Y-96660259D01*
X93096049Y-96660015D01*
X93112652Y-96576542D01*
X93130624Y-96486188D01*
X93198544Y-96322216D01*
X93297147Y-96174646D01*
X93422646Y-96049147D01*
X93570216Y-95950544D01*
X93734188Y-95882624D01*
X93883488Y-95852927D01*
X93908258Y-95848000D01*
X94085742Y-95848000D01*
X94110512Y-95852927D01*
X94110512Y-95852927D01*
G37*
G36*
X83110512Y-95852927D02*
G01*
X83259812Y-95882624D01*
X83423784Y-95950544D01*
X83571354Y-96049147D01*
X83696853Y-96174646D01*
X83795456Y-96322216D01*
X83863376Y-96486188D01*
X83881348Y-96576542D01*
X83897952Y-96660015D01*
X83898000Y-96660259D01*
X83898000Y-96837741D01*
X83863376Y-97011812D01*
X83795456Y-97175784D01*
X83696853Y-97323354D01*
X83571354Y-97448853D01*
X83423784Y-97547456D01*
X83259812Y-97615376D01*
X83110512Y-97645073D01*
X83085742Y-97650000D01*
X82908258Y-97650000D01*
X82883488Y-97645073D01*
X82734188Y-97615376D01*
X82570216Y-97547456D01*
X82422646Y-97448853D01*
X82297147Y-97323354D01*
X82198544Y-97175784D01*
X82130624Y-97011812D01*
X82096000Y-96837741D01*
X82096000Y-96660259D01*
X82096049Y-96660015D01*
X82112652Y-96576542D01*
X82130624Y-96486188D01*
X82198544Y-96322216D01*
X82297147Y-96174646D01*
X82422646Y-96049147D01*
X82570216Y-95950544D01*
X82734188Y-95882624D01*
X82883488Y-95852927D01*
X82908258Y-95848000D01*
X83085742Y-95848000D01*
X83110512Y-95852927D01*
X83110512Y-95852927D01*
G37*
G36*
X124998000Y-96850000D02*
G01*
X123296000Y-96850000D01*
X123296000Y-95148000D01*
X124998000Y-95148000D01*
X124998000Y-96850000D01*
X124998000Y-96850000D01*
G37*
G36*
X116595228Y-95180703D02*
G01*
X116750100Y-95244853D01*
X116889481Y-95337985D01*
X117008015Y-95456519D01*
X117101147Y-95595900D01*
X117165297Y-95750772D01*
X117198000Y-95915184D01*
X117198000Y-96082816D01*
X117165297Y-96247228D01*
X117101147Y-96402100D01*
X117008015Y-96541481D01*
X116889481Y-96660015D01*
X116750100Y-96753147D01*
X116595228Y-96817297D01*
X116430816Y-96850000D01*
X116263184Y-96850000D01*
X116098772Y-96817297D01*
X115943900Y-96753147D01*
X115804519Y-96660015D01*
X115685985Y-96541481D01*
X115592853Y-96402100D01*
X115528703Y-96247228D01*
X115496000Y-96082816D01*
X115496000Y-95915184D01*
X115528703Y-95750772D01*
X115592853Y-95595900D01*
X115685985Y-95456519D01*
X115804519Y-95337985D01*
X115943900Y-95244853D01*
X116098772Y-95180703D01*
X116263184Y-95148000D01*
X116430816Y-95148000D01*
X116595228Y-95180703D01*
X116595228Y-95180703D01*
G37*
G36*
X122473000Y-96650000D02*
G01*
X121171000Y-96650000D01*
X121171000Y-95348000D01*
X122473000Y-95348000D01*
X122473000Y-96650000D01*
X122473000Y-96650000D01*
G37*
G36*
X119323000Y-96650000D02*
G01*
X118021000Y-96650000D01*
X118021000Y-95348000D01*
X119323000Y-95348000D01*
X119323000Y-96650000D01*
X119323000Y-96650000D01*
G37*
G36*
X53698000Y-95850000D02*
G01*
X51996000Y-95850000D01*
X51996000Y-94148000D01*
X53698000Y-94148000D01*
X53698000Y-95850000D01*
X53698000Y-95850000D01*
G37*
G36*
X60895228Y-94180703D02*
G01*
X61050100Y-94244853D01*
X61189481Y-94337985D01*
X61308015Y-94456519D01*
X61401147Y-94595900D01*
X61465297Y-94750772D01*
X61498000Y-94915184D01*
X61498000Y-95082816D01*
X61465297Y-95247228D01*
X61401147Y-95402100D01*
X61308015Y-95541481D01*
X61189481Y-95660015D01*
X61050100Y-95753147D01*
X60895228Y-95817297D01*
X60730816Y-95850000D01*
X60563184Y-95850000D01*
X60398772Y-95817297D01*
X60243900Y-95753147D01*
X60104519Y-95660015D01*
X59985985Y-95541481D01*
X59892853Y-95402100D01*
X59828703Y-95247228D01*
X59796000Y-95082816D01*
X59796000Y-94915184D01*
X59828703Y-94750772D01*
X59892853Y-94595900D01*
X59985985Y-94456519D01*
X60104519Y-94337985D01*
X60243900Y-94244853D01*
X60398772Y-94180703D01*
X60563184Y-94148000D01*
X60730816Y-94148000D01*
X60895228Y-94180703D01*
X60895228Y-94180703D01*
G37*
G36*
X55823000Y-95650000D02*
G01*
X54521000Y-95650000D01*
X54521000Y-94348000D01*
X55823000Y-94348000D01*
X55823000Y-95650000D01*
X55823000Y-95650000D01*
G37*
G36*
X58973000Y-95650000D02*
G01*
X57671000Y-95650000D01*
X57671000Y-94348000D01*
X58973000Y-94348000D01*
X58973000Y-95650000D01*
X58973000Y-95650000D01*
G37*
G36*
X125803564Y-92138389D02*
G01*
X125968047Y-92206520D01*
X125994835Y-92217616D01*
X126166973Y-92332635D01*
X126313365Y-92479027D01*
X126425491Y-92646835D01*
X126428385Y-92651167D01*
X126507611Y-92842436D01*
X126548000Y-93045484D01*
X126548000Y-93252516D01*
X126507611Y-93455564D01*
X126447784Y-93600000D01*
X126428384Y-93646835D01*
X126313365Y-93818973D01*
X126166973Y-93965365D01*
X125994835Y-94080384D01*
X125994834Y-94080385D01*
X125994833Y-94080385D01*
X125803564Y-94159611D01*
X125600516Y-94200000D01*
X125393484Y-94200000D01*
X125190436Y-94159611D01*
X124999167Y-94080385D01*
X124999166Y-94080385D01*
X124999165Y-94080384D01*
X124827027Y-93965365D01*
X124680635Y-93818973D01*
X124565616Y-93646835D01*
X124546216Y-93600000D01*
X124486389Y-93455564D01*
X124446000Y-93252516D01*
X124446000Y-93045484D01*
X124486389Y-92842436D01*
X124565615Y-92651167D01*
X124568510Y-92646835D01*
X124680635Y-92479027D01*
X124827027Y-92332635D01*
X124999165Y-92217616D01*
X125025953Y-92206520D01*
X125190436Y-92138389D01*
X125393484Y-92098000D01*
X125600516Y-92098000D01*
X125803564Y-92138389D01*
X125803564Y-92138389D01*
G37*
G36*
X71198000Y-93850000D02*
G01*
X69496000Y-93850000D01*
X69496000Y-92148000D01*
X71198000Y-92148000D01*
X71198000Y-93850000D01*
X71198000Y-93850000D01*
G37*
G36*
X78395228Y-92180703D02*
G01*
X78550100Y-92244853D01*
X78689481Y-92337985D01*
X78808015Y-92456519D01*
X78901147Y-92595900D01*
X78965297Y-92750772D01*
X78998000Y-92915184D01*
X78998000Y-93082816D01*
X78965297Y-93247228D01*
X78901147Y-93402100D01*
X78808015Y-93541481D01*
X78689481Y-93660015D01*
X78550100Y-93753147D01*
X78395228Y-93817297D01*
X78230816Y-93850000D01*
X78063184Y-93850000D01*
X77898772Y-93817297D01*
X77743900Y-93753147D01*
X77604519Y-93660015D01*
X77485985Y-93541481D01*
X77392853Y-93402100D01*
X77328703Y-93247228D01*
X77296000Y-93082816D01*
X77296000Y-92915184D01*
X77328703Y-92750772D01*
X77392853Y-92595900D01*
X77485985Y-92456519D01*
X77604519Y-92337985D01*
X77743900Y-92244853D01*
X77898772Y-92180703D01*
X78063184Y-92148000D01*
X78230816Y-92148000D01*
X78395228Y-92180703D01*
X78395228Y-92180703D01*
G37*
G36*
X73323000Y-93650000D02*
G01*
X72021000Y-93650000D01*
X72021000Y-92348000D01*
X73323000Y-92348000D01*
X73323000Y-93650000D01*
X73323000Y-93650000D01*
G37*
G36*
X76473000Y-93650000D02*
G01*
X75171000Y-93650000D01*
X75171000Y-92348000D01*
X76473000Y-92348000D01*
X76473000Y-93650000D01*
X76473000Y-93650000D01*
G37*
G36*
X106498000Y-93600000D02*
G01*
X104796000Y-93600000D01*
X104796000Y-91898000D01*
X106498000Y-91898000D01*
X106498000Y-93600000D01*
X106498000Y-93600000D01*
G37*
G36*
X98095228Y-91930703D02*
G01*
X98250100Y-91994853D01*
X98389481Y-92087985D01*
X98508015Y-92206519D01*
X98601147Y-92345900D01*
X98665297Y-92500772D01*
X98698000Y-92665184D01*
X98698000Y-92832816D01*
X98665297Y-92997228D01*
X98601147Y-93152100D01*
X98508015Y-93291481D01*
X98389481Y-93410015D01*
X98250100Y-93503147D01*
X98095228Y-93567297D01*
X97930816Y-93600000D01*
X97763184Y-93600000D01*
X97598772Y-93567297D01*
X97443900Y-93503147D01*
X97304519Y-93410015D01*
X97185985Y-93291481D01*
X97092853Y-93152100D01*
X97028703Y-92997228D01*
X96996000Y-92832816D01*
X96996000Y-92665184D01*
X97028703Y-92500772D01*
X97092853Y-92345900D01*
X97185985Y-92206519D01*
X97304519Y-92087985D01*
X97443900Y-91994853D01*
X97598772Y-91930703D01*
X97763184Y-91898000D01*
X97930816Y-91898000D01*
X98095228Y-91930703D01*
X98095228Y-91930703D01*
G37*
G36*
X103973000Y-93400000D02*
G01*
X102671000Y-93400000D01*
X102671000Y-92098000D01*
X103973000Y-92098000D01*
X103973000Y-93400000D01*
X103973000Y-93400000D01*
G37*
G36*
X100823000Y-93400000D02*
G01*
X99521000Y-93400000D01*
X99521000Y-92098000D01*
X100823000Y-92098000D01*
X100823000Y-93400000D01*
X100823000Y-93400000D01*
G37*
G36*
X51803564Y-91138389D02*
G01*
X51994833Y-91217615D01*
X51994835Y-91217616D01*
X52166973Y-91332635D01*
X52313365Y-91479027D01*
X52358672Y-91546833D01*
X52428385Y-91651167D01*
X52507611Y-91842436D01*
X52548000Y-92045484D01*
X52548000Y-92252516D01*
X52507611Y-92455564D01*
X52488885Y-92500772D01*
X52428384Y-92646835D01*
X52313365Y-92818973D01*
X52166973Y-92965365D01*
X51994835Y-93080384D01*
X51994834Y-93080385D01*
X51994833Y-93080385D01*
X51803564Y-93159611D01*
X51600516Y-93200000D01*
X51393484Y-93200000D01*
X51190436Y-93159611D01*
X50999167Y-93080385D01*
X50999166Y-93080385D01*
X50999165Y-93080384D01*
X50827027Y-92965365D01*
X50680635Y-92818973D01*
X50565616Y-92646835D01*
X50505115Y-92500772D01*
X50486389Y-92455564D01*
X50446000Y-92252516D01*
X50446000Y-92045484D01*
X50486389Y-91842436D01*
X50565615Y-91651167D01*
X50635329Y-91546833D01*
X50680635Y-91479027D01*
X50827027Y-91332635D01*
X50999165Y-91217616D01*
X50999167Y-91217615D01*
X51190436Y-91138389D01*
X51393484Y-91098000D01*
X51600516Y-91098000D01*
X51803564Y-91138389D01*
X51803564Y-91138389D01*
G37*
G36*
X130803564Y-90038389D02*
G01*
X130994833Y-90117615D01*
X130994835Y-90117616D01*
X131166973Y-90232635D01*
X131313365Y-90379027D01*
X131425491Y-90546835D01*
X131428385Y-90551167D01*
X131507611Y-90742436D01*
X131548000Y-90945484D01*
X131548000Y-91152516D01*
X131507611Y-91355564D01*
X131456471Y-91479027D01*
X131428384Y-91546835D01*
X131313365Y-91718973D01*
X131166973Y-91865365D01*
X130994835Y-91980384D01*
X130994834Y-91980385D01*
X130994833Y-91980385D01*
X130803564Y-92059611D01*
X130600516Y-92100000D01*
X130393484Y-92100000D01*
X130190436Y-92059611D01*
X129999167Y-91980385D01*
X129999166Y-91980385D01*
X129999165Y-91980384D01*
X129827027Y-91865365D01*
X129680635Y-91718973D01*
X129565616Y-91546835D01*
X129537529Y-91479027D01*
X129486389Y-91355564D01*
X129446000Y-91152516D01*
X129446000Y-90945484D01*
X129486389Y-90742436D01*
X129565615Y-90551167D01*
X129568510Y-90546835D01*
X129680635Y-90379027D01*
X129827027Y-90232635D01*
X129999165Y-90117616D01*
X129999167Y-90117615D01*
X130190436Y-90038389D01*
X130393484Y-89998000D01*
X130600516Y-89998000D01*
X130803564Y-90038389D01*
X130803564Y-90038389D01*
G37*
G36*
X107303564Y-89138389D02*
G01*
X107494833Y-89217615D01*
X107494835Y-89217616D01*
X107666973Y-89332635D01*
X107813365Y-89479027D01*
X107928385Y-89651167D01*
X108007611Y-89842436D01*
X108048000Y-90045484D01*
X108048000Y-90252516D01*
X108007611Y-90455564D01*
X107968011Y-90551167D01*
X107928384Y-90646835D01*
X107813365Y-90818973D01*
X107666973Y-90965365D01*
X107494835Y-91080384D01*
X107494834Y-91080385D01*
X107494833Y-91080385D01*
X107303564Y-91159611D01*
X107100516Y-91200000D01*
X106893484Y-91200000D01*
X106690436Y-91159611D01*
X106499167Y-91080385D01*
X106499166Y-91080385D01*
X106499165Y-91080384D01*
X106327027Y-90965365D01*
X106180635Y-90818973D01*
X106065616Y-90646835D01*
X106025989Y-90551167D01*
X105986389Y-90455564D01*
X105946000Y-90252516D01*
X105946000Y-90045484D01*
X105986389Y-89842436D01*
X106065615Y-89651167D01*
X106180635Y-89479027D01*
X106327027Y-89332635D01*
X106499165Y-89217616D01*
X106499167Y-89217615D01*
X106690436Y-89138389D01*
X106893484Y-89098000D01*
X107100516Y-89098000D01*
X107303564Y-89138389D01*
X107303564Y-89138389D01*
G37*
G36*
X70303564Y-89138389D02*
G01*
X70494833Y-89217615D01*
X70494835Y-89217616D01*
X70666973Y-89332635D01*
X70813365Y-89479027D01*
X70928385Y-89651167D01*
X71007611Y-89842436D01*
X71048000Y-90045484D01*
X71048000Y-90252516D01*
X71007611Y-90455564D01*
X70968011Y-90551167D01*
X70928384Y-90646835D01*
X70813365Y-90818973D01*
X70666973Y-90965365D01*
X70494835Y-91080384D01*
X70494834Y-91080385D01*
X70494833Y-91080385D01*
X70303564Y-91159611D01*
X70100516Y-91200000D01*
X69893484Y-91200000D01*
X69690436Y-91159611D01*
X69499167Y-91080385D01*
X69499166Y-91080385D01*
X69499165Y-91080384D01*
X69327027Y-90965365D01*
X69180635Y-90818973D01*
X69065616Y-90646835D01*
X69025989Y-90551167D01*
X68986389Y-90455564D01*
X68946000Y-90252516D01*
X68946000Y-90045484D01*
X68986389Y-89842436D01*
X69065615Y-89651167D01*
X69180635Y-89479027D01*
X69327027Y-89332635D01*
X69499165Y-89217616D01*
X69499167Y-89217615D01*
X69690436Y-89138389D01*
X69893484Y-89098000D01*
X70100516Y-89098000D01*
X70303564Y-89138389D01*
X70303564Y-89138389D01*
G37*
G36*
X56803564Y-89038389D02*
G01*
X56994833Y-89117615D01*
X56994835Y-89117616D01*
X57025924Y-89138389D01*
X57166973Y-89232635D01*
X57313365Y-89379027D01*
X57428385Y-89551167D01*
X57507611Y-89742436D01*
X57548000Y-89945484D01*
X57548000Y-90152516D01*
X57507611Y-90355564D01*
X57466189Y-90455565D01*
X57428384Y-90546835D01*
X57313365Y-90718973D01*
X57166973Y-90865365D01*
X56994835Y-90980384D01*
X56994834Y-90980385D01*
X56994833Y-90980385D01*
X56803564Y-91059611D01*
X56600516Y-91100000D01*
X56393484Y-91100000D01*
X56190436Y-91059611D01*
X55999167Y-90980385D01*
X55999166Y-90980385D01*
X55999165Y-90980384D01*
X55827027Y-90865365D01*
X55680635Y-90718973D01*
X55565616Y-90546835D01*
X55527811Y-90455565D01*
X55486389Y-90355564D01*
X55446000Y-90152516D01*
X55446000Y-89945484D01*
X55486389Y-89742436D01*
X55565615Y-89551167D01*
X55680635Y-89379027D01*
X55827027Y-89232635D01*
X55968076Y-89138389D01*
X55999165Y-89117616D01*
X55999167Y-89117615D01*
X56190436Y-89038389D01*
X56393484Y-88998000D01*
X56600516Y-88998000D01*
X56803564Y-89038389D01*
X56803564Y-89038389D01*
G37*
G36*
X75303564Y-87038389D02*
G01*
X75494833Y-87117615D01*
X75494835Y-87117616D01*
X75666973Y-87232635D01*
X75813365Y-87379027D01*
X75865144Y-87456519D01*
X75928385Y-87551167D01*
X76007611Y-87742436D01*
X76048000Y-87945484D01*
X76048000Y-88152516D01*
X76007611Y-88355564D01*
X75988336Y-88402097D01*
X75928384Y-88546835D01*
X75813365Y-88718973D01*
X75666973Y-88865365D01*
X75494835Y-88980384D01*
X75494834Y-88980385D01*
X75494833Y-88980385D01*
X75303564Y-89059611D01*
X75100516Y-89100000D01*
X74893484Y-89100000D01*
X74690436Y-89059611D01*
X74499167Y-88980385D01*
X74499166Y-88980385D01*
X74499165Y-88980384D01*
X74327027Y-88865365D01*
X74180635Y-88718973D01*
X74065616Y-88546835D01*
X74005664Y-88402097D01*
X73986389Y-88355564D01*
X73946000Y-88152516D01*
X73946000Y-87945484D01*
X73986389Y-87742436D01*
X74065615Y-87551167D01*
X74128857Y-87456519D01*
X74180635Y-87379027D01*
X74327027Y-87232635D01*
X74499165Y-87117616D01*
X74499167Y-87117615D01*
X74690436Y-87038389D01*
X74893484Y-86998000D01*
X75100516Y-86998000D01*
X75303564Y-87038389D01*
X75303564Y-87038389D01*
G37*
G36*
X112303564Y-87038389D02*
G01*
X112494833Y-87117615D01*
X112494835Y-87117616D01*
X112666973Y-87232635D01*
X112813365Y-87379027D01*
X112865144Y-87456519D01*
X112928385Y-87551167D01*
X113007611Y-87742436D01*
X113048000Y-87945484D01*
X113048000Y-88152516D01*
X113007611Y-88355564D01*
X112988336Y-88402097D01*
X112928384Y-88546835D01*
X112813365Y-88718973D01*
X112666973Y-88865365D01*
X112494835Y-88980384D01*
X112494834Y-88980385D01*
X112494833Y-88980385D01*
X112303564Y-89059611D01*
X112100516Y-89100000D01*
X111893484Y-89100000D01*
X111690436Y-89059611D01*
X111499167Y-88980385D01*
X111499166Y-88980385D01*
X111499165Y-88980384D01*
X111327027Y-88865365D01*
X111180635Y-88718973D01*
X111065616Y-88546835D01*
X111005664Y-88402097D01*
X110986389Y-88355564D01*
X110946000Y-88152516D01*
X110946000Y-87945484D01*
X110986389Y-87742436D01*
X111065615Y-87551167D01*
X111128857Y-87456519D01*
X111180635Y-87379027D01*
X111327027Y-87232635D01*
X111499165Y-87117616D01*
X111499167Y-87117615D01*
X111690436Y-87038389D01*
X111893484Y-86998000D01*
X112100516Y-86998000D01*
X112303564Y-87038389D01*
X112303564Y-87038389D01*
G37*
G36*
X125894985Y-85542860D02*
G01*
X126007748Y-85565290D01*
X126113490Y-85609090D01*
X126326408Y-85697283D01*
X126613196Y-85888909D01*
X126857091Y-86132804D01*
X127048717Y-86419592D01*
X127126037Y-86606259D01*
X127180710Y-86738252D01*
X127184986Y-86759748D01*
X127248000Y-87076540D01*
X127248000Y-87421460D01*
X127222200Y-87551165D01*
X127182496Y-87750771D01*
X127180710Y-87759747D01*
X127048717Y-88078408D01*
X126857091Y-88365196D01*
X126613196Y-88609091D01*
X126326408Y-88800717D01*
X126170333Y-88865365D01*
X126007748Y-88932710D01*
X125894985Y-88955140D01*
X125669460Y-89000000D01*
X125324540Y-89000000D01*
X125099015Y-88955140D01*
X124986252Y-88932710D01*
X124823667Y-88865365D01*
X124667592Y-88800717D01*
X124380804Y-88609091D01*
X124136909Y-88365196D01*
X123945283Y-88078408D01*
X123813290Y-87759747D01*
X123811505Y-87750771D01*
X123771800Y-87551165D01*
X123746000Y-87421460D01*
X123746000Y-87076540D01*
X123809014Y-86759748D01*
X123813290Y-86738252D01*
X123867963Y-86606259D01*
X123945283Y-86419592D01*
X124136909Y-86132804D01*
X124380804Y-85888909D01*
X124667592Y-85697283D01*
X124880510Y-85609090D01*
X124986252Y-85565290D01*
X125099015Y-85542860D01*
X125324540Y-85498000D01*
X125669460Y-85498000D01*
X125894985Y-85542860D01*
X125894985Y-85542860D01*
G37*
G36*
X80595228Y-87180703D02*
G01*
X80750100Y-87244853D01*
X80889481Y-87337985D01*
X81008015Y-87456519D01*
X81101147Y-87595900D01*
X81165297Y-87750772D01*
X81198000Y-87915184D01*
X81198000Y-88082816D01*
X81165297Y-88247228D01*
X81101147Y-88402100D01*
X81008015Y-88541481D01*
X80889481Y-88660015D01*
X80750100Y-88753147D01*
X80595228Y-88817297D01*
X80430816Y-88850000D01*
X80263184Y-88850000D01*
X80098772Y-88817297D01*
X79943900Y-88753147D01*
X79804519Y-88660015D01*
X79685985Y-88541481D01*
X79592853Y-88402100D01*
X79528703Y-88247228D01*
X79496000Y-88082816D01*
X79496000Y-87915184D01*
X79528703Y-87750772D01*
X79592853Y-87595900D01*
X79685985Y-87456519D01*
X79804519Y-87337985D01*
X79943900Y-87244853D01*
X80098772Y-87180703D01*
X80263184Y-87148000D01*
X80430816Y-87148000D01*
X80595228Y-87180703D01*
X80595228Y-87180703D01*
G37*
G36*
X88998000Y-88850000D02*
G01*
X87296000Y-88850000D01*
X87296000Y-87148000D01*
X88998000Y-87148000D01*
X88998000Y-88850000D01*
X88998000Y-88850000D01*
G37*
G36*
X86473000Y-88650000D02*
G01*
X85171000Y-88650000D01*
X85171000Y-87348000D01*
X86473000Y-87348000D01*
X86473000Y-88650000D01*
X86473000Y-88650000D01*
G37*
G36*
X83323000Y-88650000D02*
G01*
X82021000Y-88650000D01*
X82021000Y-87348000D01*
X83323000Y-87348000D01*
X83323000Y-88650000D01*
X83323000Y-88650000D01*
G37*
G36*
X131110512Y-86352927D02*
G01*
X131259812Y-86382624D01*
X131423784Y-86450544D01*
X131571354Y-86549147D01*
X131696853Y-86674646D01*
X131795456Y-86822216D01*
X131863376Y-86986188D01*
X131881348Y-87076542D01*
X131898000Y-87160258D01*
X131898000Y-87337742D01*
X131893073Y-87362512D01*
X131863376Y-87511812D01*
X131795456Y-87675784D01*
X131696853Y-87823354D01*
X131571354Y-87948853D01*
X131423784Y-88047456D01*
X131259812Y-88115376D01*
X131110512Y-88145073D01*
X131085742Y-88150000D01*
X130908258Y-88150000D01*
X130883488Y-88145073D01*
X130734188Y-88115376D01*
X130570216Y-88047456D01*
X130422646Y-87948853D01*
X130297147Y-87823354D01*
X130198544Y-87675784D01*
X130130624Y-87511812D01*
X130100927Y-87362512D01*
X130096000Y-87337742D01*
X130096000Y-87160258D01*
X130112652Y-87076542D01*
X130130624Y-86986188D01*
X130198544Y-86822216D01*
X130297147Y-86674646D01*
X130422646Y-86549147D01*
X130570216Y-86450544D01*
X130734188Y-86382624D01*
X130883488Y-86352927D01*
X130908258Y-86348000D01*
X131085742Y-86348000D01*
X131110512Y-86352927D01*
X131110512Y-86352927D01*
G37*
G36*
X120110512Y-86352927D02*
G01*
X120259812Y-86382624D01*
X120423784Y-86450544D01*
X120571354Y-86549147D01*
X120696853Y-86674646D01*
X120795456Y-86822216D01*
X120863376Y-86986188D01*
X120881348Y-87076542D01*
X120898000Y-87160258D01*
X120898000Y-87337742D01*
X120893073Y-87362512D01*
X120863376Y-87511812D01*
X120795456Y-87675784D01*
X120696853Y-87823354D01*
X120571354Y-87948853D01*
X120423784Y-88047456D01*
X120259812Y-88115376D01*
X120110512Y-88145073D01*
X120085742Y-88150000D01*
X119908258Y-88150000D01*
X119883488Y-88145073D01*
X119734188Y-88115376D01*
X119570216Y-88047456D01*
X119422646Y-87948853D01*
X119297147Y-87823354D01*
X119198544Y-87675784D01*
X119130624Y-87511812D01*
X119100927Y-87362512D01*
X119096000Y-87337742D01*
X119096000Y-87160258D01*
X119112652Y-87076542D01*
X119130624Y-86986188D01*
X119198544Y-86822216D01*
X119297147Y-86674646D01*
X119422646Y-86549147D01*
X119570216Y-86450544D01*
X119734188Y-86382624D01*
X119883488Y-86352927D01*
X119908258Y-86348000D01*
X120085742Y-86348000D01*
X120110512Y-86352927D01*
X120110512Y-86352927D01*
G37*
G36*
X51894985Y-84542860D02*
G01*
X52007748Y-84565290D01*
X52139741Y-84619963D01*
X52326408Y-84697283D01*
X52613196Y-84888909D01*
X52857091Y-85132804D01*
X53048717Y-85419592D01*
X53180710Y-85738253D01*
X53248000Y-86076540D01*
X53248000Y-86421460D01*
X53222601Y-86549147D01*
X53184986Y-86738253D01*
X53180710Y-86759747D01*
X53048717Y-87078408D01*
X52857091Y-87365196D01*
X52613196Y-87609091D01*
X52326408Y-87800717D01*
X52139741Y-87878037D01*
X52007748Y-87932710D01*
X51894985Y-87955140D01*
X51669460Y-88000000D01*
X51324540Y-88000000D01*
X51099015Y-87955140D01*
X50986252Y-87932710D01*
X50854259Y-87878037D01*
X50667592Y-87800717D01*
X50380804Y-87609091D01*
X50136909Y-87365196D01*
X49945283Y-87078408D01*
X49813290Y-86759747D01*
X49809015Y-86738253D01*
X49771399Y-86549147D01*
X49746000Y-86421460D01*
X49746000Y-86076540D01*
X49813290Y-85738253D01*
X49945283Y-85419592D01*
X50136909Y-85132804D01*
X50380804Y-84888909D01*
X50667592Y-84697283D01*
X50854259Y-84619963D01*
X50986252Y-84565290D01*
X51099015Y-84542860D01*
X51324540Y-84498000D01*
X51669460Y-84498000D01*
X51894985Y-84542860D01*
X51894985Y-84542860D01*
G37*
G36*
X57110512Y-85352927D02*
G01*
X57259812Y-85382624D01*
X57423784Y-85450544D01*
X57571354Y-85549147D01*
X57696853Y-85674646D01*
X57795456Y-85822216D01*
X57863376Y-85986188D01*
X57881348Y-86076542D01*
X57898000Y-86160258D01*
X57898000Y-86337742D01*
X57893073Y-86362512D01*
X57863376Y-86511812D01*
X57795456Y-86675784D01*
X57696853Y-86823354D01*
X57571354Y-86948853D01*
X57423784Y-87047456D01*
X57259812Y-87115376D01*
X57110512Y-87145073D01*
X57085742Y-87150000D01*
X56908258Y-87150000D01*
X56883488Y-87145073D01*
X56734188Y-87115376D01*
X56570216Y-87047456D01*
X56422646Y-86948853D01*
X56297147Y-86823354D01*
X56198544Y-86675784D01*
X56130624Y-86511812D01*
X56100927Y-86362512D01*
X56096000Y-86337742D01*
X56096000Y-86160258D01*
X56112652Y-86076542D01*
X56130624Y-85986188D01*
X56198544Y-85822216D01*
X56297147Y-85674646D01*
X56422646Y-85549147D01*
X56570216Y-85450544D01*
X56734188Y-85382624D01*
X56883488Y-85352927D01*
X56908258Y-85348000D01*
X57085742Y-85348000D01*
X57110512Y-85352927D01*
X57110512Y-85352927D01*
G37*
G36*
X46110512Y-85352927D02*
G01*
X46259812Y-85382624D01*
X46423784Y-85450544D01*
X46571354Y-85549147D01*
X46696853Y-85674646D01*
X46795456Y-85822216D01*
X46863376Y-85986188D01*
X46881348Y-86076542D01*
X46898000Y-86160258D01*
X46898000Y-86337742D01*
X46893073Y-86362512D01*
X46863376Y-86511812D01*
X46795456Y-86675784D01*
X46696853Y-86823354D01*
X46571354Y-86948853D01*
X46423784Y-87047456D01*
X46259812Y-87115376D01*
X46110512Y-87145073D01*
X46085742Y-87150000D01*
X45908258Y-87150000D01*
X45883488Y-87145073D01*
X45734188Y-87115376D01*
X45570216Y-87047456D01*
X45422646Y-86948853D01*
X45297147Y-86823354D01*
X45198544Y-86675784D01*
X45130624Y-86511812D01*
X45100927Y-86362512D01*
X45096000Y-86337742D01*
X45096000Y-86160258D01*
X45112652Y-86076542D01*
X45130624Y-85986188D01*
X45198544Y-85822216D01*
X45297147Y-85674646D01*
X45422646Y-85549147D01*
X45570216Y-85450544D01*
X45734188Y-85382624D01*
X45883488Y-85352927D01*
X45908258Y-85348000D01*
X46085742Y-85348000D01*
X46110512Y-85352927D01*
X46110512Y-85352927D01*
G37*
G36*
X88803564Y-84138389D02*
G01*
X88994833Y-84217615D01*
X88994835Y-84217616D01*
X89166973Y-84332635D01*
X89313365Y-84479027D01*
X89428385Y-84651167D01*
X89507611Y-84842436D01*
X89548000Y-85045484D01*
X89548000Y-85252516D01*
X89507611Y-85455564D01*
X89444018Y-85609091D01*
X89428384Y-85646835D01*
X89313365Y-85818973D01*
X89166973Y-85965365D01*
X88994835Y-86080384D01*
X88994834Y-86080385D01*
X88994833Y-86080385D01*
X88803564Y-86159611D01*
X88600516Y-86200000D01*
X88393484Y-86200000D01*
X88190436Y-86159611D01*
X87999167Y-86080385D01*
X87999166Y-86080385D01*
X87999165Y-86080384D01*
X87827027Y-85965365D01*
X87680635Y-85818973D01*
X87565616Y-85646835D01*
X87549982Y-85609091D01*
X87486389Y-85455564D01*
X87446000Y-85252516D01*
X87446000Y-85045484D01*
X87486389Y-84842436D01*
X87565615Y-84651167D01*
X87680635Y-84479027D01*
X87827027Y-84332635D01*
X87999165Y-84217616D01*
X87999167Y-84217615D01*
X88190436Y-84138389D01*
X88393484Y-84098000D01*
X88600516Y-84098000D01*
X88803564Y-84138389D01*
X88803564Y-84138389D01*
G37*
G36*
X107394985Y-82542860D02*
G01*
X107507748Y-82565290D01*
X107639741Y-82619963D01*
X107826408Y-82697283D01*
X108113196Y-82888909D01*
X108357091Y-83132804D01*
X108548717Y-83419592D01*
X108680710Y-83738253D01*
X108748000Y-84076540D01*
X108748000Y-84421460D01*
X108680710Y-84759747D01*
X108548717Y-85078408D01*
X108357091Y-85365196D01*
X108113196Y-85609091D01*
X107826408Y-85800717D01*
X107639741Y-85878037D01*
X107507748Y-85932710D01*
X107394985Y-85955140D01*
X107169460Y-86000000D01*
X106824540Y-86000000D01*
X106599015Y-85955140D01*
X106486252Y-85932710D01*
X106354259Y-85878037D01*
X106167592Y-85800717D01*
X105880804Y-85609091D01*
X105636909Y-85365196D01*
X105445283Y-85078408D01*
X105313290Y-84759747D01*
X105246000Y-84421460D01*
X105246000Y-84076540D01*
X105313290Y-83738253D01*
X105445283Y-83419592D01*
X105636909Y-83132804D01*
X105880804Y-82888909D01*
X106167592Y-82697283D01*
X106354259Y-82619963D01*
X106486252Y-82565290D01*
X106599015Y-82542860D01*
X106824540Y-82498000D01*
X107169460Y-82498000D01*
X107394985Y-82542860D01*
X107394985Y-82542860D01*
G37*
G36*
X70394985Y-82542860D02*
G01*
X70507748Y-82565290D01*
X70639741Y-82619963D01*
X70826408Y-82697283D01*
X71113196Y-82888909D01*
X71357091Y-83132804D01*
X71548717Y-83419592D01*
X71680710Y-83738253D01*
X71748000Y-84076540D01*
X71748000Y-84421460D01*
X71680710Y-84759747D01*
X71548717Y-85078408D01*
X71357091Y-85365196D01*
X71113196Y-85609091D01*
X70826408Y-85800717D01*
X70639741Y-85878037D01*
X70507748Y-85932710D01*
X70394985Y-85955140D01*
X70169460Y-86000000D01*
X69824540Y-86000000D01*
X69599015Y-85955140D01*
X69486252Y-85932710D01*
X69354259Y-85878037D01*
X69167592Y-85800717D01*
X68880804Y-85609091D01*
X68636909Y-85365196D01*
X68445283Y-85078408D01*
X68313290Y-84759747D01*
X68246000Y-84421460D01*
X68246000Y-84076540D01*
X68313290Y-83738253D01*
X68445283Y-83419592D01*
X68636909Y-83132804D01*
X68880804Y-82888909D01*
X69167592Y-82697283D01*
X69354259Y-82619963D01*
X69486252Y-82565290D01*
X69599015Y-82542860D01*
X69824540Y-82498000D01*
X70169460Y-82498000D01*
X70394985Y-82542860D01*
X70394985Y-82542860D01*
G37*
G36*
X112610512Y-83352927D02*
G01*
X112759812Y-83382624D01*
X112923784Y-83450544D01*
X113071354Y-83549147D01*
X113196853Y-83674646D01*
X113295456Y-83822216D01*
X113363376Y-83986188D01*
X113398000Y-84160259D01*
X113398000Y-84337741D01*
X113363376Y-84511812D01*
X113295456Y-84675784D01*
X113196853Y-84823354D01*
X113071354Y-84948853D01*
X112923784Y-85047456D01*
X112759812Y-85115376D01*
X112610512Y-85145073D01*
X112585742Y-85150000D01*
X112408258Y-85150000D01*
X112383488Y-85145073D01*
X112234188Y-85115376D01*
X112070216Y-85047456D01*
X111922646Y-84948853D01*
X111797147Y-84823354D01*
X111698544Y-84675784D01*
X111630624Y-84511812D01*
X111596000Y-84337741D01*
X111596000Y-84160259D01*
X111630624Y-83986188D01*
X111698544Y-83822216D01*
X111797147Y-83674646D01*
X111922646Y-83549147D01*
X112070216Y-83450544D01*
X112234188Y-83382624D01*
X112383488Y-83352927D01*
X112408258Y-83348000D01*
X112585742Y-83348000D01*
X112610512Y-83352927D01*
X112610512Y-83352927D01*
G37*
G36*
X64610512Y-83352927D02*
G01*
X64759812Y-83382624D01*
X64923784Y-83450544D01*
X65071354Y-83549147D01*
X65196853Y-83674646D01*
X65295456Y-83822216D01*
X65363376Y-83986188D01*
X65398000Y-84160259D01*
X65398000Y-84337741D01*
X65363376Y-84511812D01*
X65295456Y-84675784D01*
X65196853Y-84823354D01*
X65071354Y-84948853D01*
X64923784Y-85047456D01*
X64759812Y-85115376D01*
X64610512Y-85145073D01*
X64585742Y-85150000D01*
X64408258Y-85150000D01*
X64383488Y-85145073D01*
X64234188Y-85115376D01*
X64070216Y-85047456D01*
X63922646Y-84948853D01*
X63797147Y-84823354D01*
X63698544Y-84675784D01*
X63630624Y-84511812D01*
X63596000Y-84337741D01*
X63596000Y-84160259D01*
X63630624Y-83986188D01*
X63698544Y-83822216D01*
X63797147Y-83674646D01*
X63922646Y-83549147D01*
X64070216Y-83450544D01*
X64234188Y-83382624D01*
X64383488Y-83352927D01*
X64408258Y-83348000D01*
X64585742Y-83348000D01*
X64610512Y-83352927D01*
X64610512Y-83352927D01*
G37*
G36*
X75610512Y-83352927D02*
G01*
X75759812Y-83382624D01*
X75923784Y-83450544D01*
X76071354Y-83549147D01*
X76196853Y-83674646D01*
X76295456Y-83822216D01*
X76363376Y-83986188D01*
X76398000Y-84160259D01*
X76398000Y-84337741D01*
X76363376Y-84511812D01*
X76295456Y-84675784D01*
X76196853Y-84823354D01*
X76071354Y-84948853D01*
X75923784Y-85047456D01*
X75759812Y-85115376D01*
X75610512Y-85145073D01*
X75585742Y-85150000D01*
X75408258Y-85150000D01*
X75383488Y-85145073D01*
X75234188Y-85115376D01*
X75070216Y-85047456D01*
X74922646Y-84948853D01*
X74797147Y-84823354D01*
X74698544Y-84675784D01*
X74630624Y-84511812D01*
X74596000Y-84337741D01*
X74596000Y-84160259D01*
X74630624Y-83986188D01*
X74698544Y-83822216D01*
X74797147Y-83674646D01*
X74922646Y-83549147D01*
X75070216Y-83450544D01*
X75234188Y-83382624D01*
X75383488Y-83352927D01*
X75408258Y-83348000D01*
X75585742Y-83348000D01*
X75610512Y-83352927D01*
X75610512Y-83352927D01*
G37*
G36*
X101610512Y-83352927D02*
G01*
X101759812Y-83382624D01*
X101923784Y-83450544D01*
X102071354Y-83549147D01*
X102196853Y-83674646D01*
X102295456Y-83822216D01*
X102363376Y-83986188D01*
X102398000Y-84160259D01*
X102398000Y-84337741D01*
X102363376Y-84511812D01*
X102295456Y-84675784D01*
X102196853Y-84823354D01*
X102071354Y-84948853D01*
X101923784Y-85047456D01*
X101759812Y-85115376D01*
X101610512Y-85145073D01*
X101585742Y-85150000D01*
X101408258Y-85150000D01*
X101383488Y-85145073D01*
X101234188Y-85115376D01*
X101070216Y-85047456D01*
X100922646Y-84948853D01*
X100797147Y-84823354D01*
X100698544Y-84675784D01*
X100630624Y-84511812D01*
X100596000Y-84337741D01*
X100596000Y-84160259D01*
X100630624Y-83986188D01*
X100698544Y-83822216D01*
X100797147Y-83674646D01*
X100922646Y-83549147D01*
X101070216Y-83450544D01*
X101234188Y-83382624D01*
X101383488Y-83352927D01*
X101408258Y-83348000D01*
X101585742Y-83348000D01*
X101610512Y-83352927D01*
X101610512Y-83352927D01*
G37*
G36*
X93803564Y-82038389D02*
G01*
X93994833Y-82117615D01*
X93994835Y-82117616D01*
X94166973Y-82232635D01*
X94313365Y-82379027D01*
X94428385Y-82551167D01*
X94507611Y-82742436D01*
X94548000Y-82945484D01*
X94548000Y-83152516D01*
X94507611Y-83355564D01*
X94468269Y-83450544D01*
X94428384Y-83546835D01*
X94313365Y-83718973D01*
X94166973Y-83865365D01*
X93994835Y-83980384D01*
X93994834Y-83980385D01*
X93994833Y-83980385D01*
X93803564Y-84059611D01*
X93600516Y-84100000D01*
X93393484Y-84100000D01*
X93190436Y-84059611D01*
X92999167Y-83980385D01*
X92999166Y-83980385D01*
X92999165Y-83980384D01*
X92827027Y-83865365D01*
X92680635Y-83718973D01*
X92565616Y-83546835D01*
X92525731Y-83450544D01*
X92486389Y-83355564D01*
X92446000Y-83152516D01*
X92446000Y-82945484D01*
X92486389Y-82742436D01*
X92565615Y-82551167D01*
X92680635Y-82379027D01*
X92827027Y-82232635D01*
X92999165Y-82117616D01*
X92999167Y-82117615D01*
X93190436Y-82038389D01*
X93393484Y-81998000D01*
X93600516Y-81998000D01*
X93803564Y-82038389D01*
X93803564Y-82038389D01*
G37*
G36*
X88894985Y-77542860D02*
G01*
X89007748Y-77565290D01*
X89139741Y-77619963D01*
X89326408Y-77697283D01*
X89613196Y-77888909D01*
X89857091Y-78132804D01*
X90048717Y-78419592D01*
X90116326Y-78582815D01*
X90180710Y-78738252D01*
X90197411Y-78822216D01*
X90248000Y-79076540D01*
X90248000Y-79421460D01*
X90180710Y-79759747D01*
X90048717Y-80078408D01*
X89857091Y-80365196D01*
X89613196Y-80609091D01*
X89326408Y-80800717D01*
X89139741Y-80878037D01*
X89007748Y-80932710D01*
X88894985Y-80955140D01*
X88669460Y-81000000D01*
X88324540Y-81000000D01*
X88099015Y-80955140D01*
X87986252Y-80932710D01*
X87854259Y-80878037D01*
X87667592Y-80800717D01*
X87380804Y-80609091D01*
X87136909Y-80365196D01*
X86945283Y-80078408D01*
X86813290Y-79759747D01*
X86746000Y-79421460D01*
X86746000Y-79076540D01*
X86796589Y-78822216D01*
X86813290Y-78738252D01*
X86877674Y-78582815D01*
X86945283Y-78419592D01*
X87136909Y-78132804D01*
X87380804Y-77888909D01*
X87667592Y-77697283D01*
X87854259Y-77619963D01*
X87986252Y-77565290D01*
X88099015Y-77542860D01*
X88324540Y-77498000D01*
X88669460Y-77498000D01*
X88894985Y-77542860D01*
X88894985Y-77542860D01*
G37*
G36*
X94110512Y-78352927D02*
G01*
X94259812Y-78382624D01*
X94423784Y-78450544D01*
X94571354Y-78549147D01*
X94696853Y-78674646D01*
X94795456Y-78822216D01*
X94863376Y-78986188D01*
X94881348Y-79076542D01*
X94897952Y-79160015D01*
X94898000Y-79160259D01*
X94898000Y-79337741D01*
X94863376Y-79511812D01*
X94795456Y-79675784D01*
X94696853Y-79823354D01*
X94571354Y-79948853D01*
X94423784Y-80047456D01*
X94259812Y-80115376D01*
X94110512Y-80145073D01*
X94085742Y-80150000D01*
X93908258Y-80150000D01*
X93883488Y-80145073D01*
X93734188Y-80115376D01*
X93570216Y-80047456D01*
X93422646Y-79948853D01*
X93297147Y-79823354D01*
X93198544Y-79675784D01*
X93130624Y-79511812D01*
X93096000Y-79337741D01*
X93096000Y-79160259D01*
X93096049Y-79160015D01*
X93112652Y-79076542D01*
X93130624Y-78986188D01*
X93198544Y-78822216D01*
X93297147Y-78674646D01*
X93422646Y-78549147D01*
X93570216Y-78450544D01*
X93734188Y-78382624D01*
X93883488Y-78352927D01*
X93908258Y-78348000D01*
X94085742Y-78348000D01*
X94110512Y-78352927D01*
X94110512Y-78352927D01*
G37*
G36*
X83110512Y-78352927D02*
G01*
X83259812Y-78382624D01*
X83423784Y-78450544D01*
X83571354Y-78549147D01*
X83696853Y-78674646D01*
X83795456Y-78822216D01*
X83863376Y-78986188D01*
X83881348Y-79076542D01*
X83897952Y-79160015D01*
X83898000Y-79160259D01*
X83898000Y-79337741D01*
X83863376Y-79511812D01*
X83795456Y-79675784D01*
X83696853Y-79823354D01*
X83571354Y-79948853D01*
X83423784Y-80047456D01*
X83259812Y-80115376D01*
X83110512Y-80145073D01*
X83085742Y-80150000D01*
X82908258Y-80150000D01*
X82883488Y-80145073D01*
X82734188Y-80115376D01*
X82570216Y-80047456D01*
X82422646Y-79948853D01*
X82297147Y-79823354D01*
X82198544Y-79675784D01*
X82130624Y-79511812D01*
X82096000Y-79337741D01*
X82096000Y-79160259D01*
X82096049Y-79160015D01*
X82112652Y-79076542D01*
X82130624Y-78986188D01*
X82198544Y-78822216D01*
X82297147Y-78674646D01*
X82422646Y-78549147D01*
X82570216Y-78450544D01*
X82734188Y-78382624D01*
X82883488Y-78352927D01*
X82908258Y-78348000D01*
X83085742Y-78348000D01*
X83110512Y-78352927D01*
X83110512Y-78352927D01*
G37*
G36*
X124998000Y-79350000D02*
G01*
X123296000Y-79350000D01*
X123296000Y-77648000D01*
X124998000Y-77648000D01*
X124998000Y-79350000D01*
X124998000Y-79350000D01*
G37*
G36*
X116595228Y-77680703D02*
G01*
X116750100Y-77744853D01*
X116889481Y-77837985D01*
X117008015Y-77956519D01*
X117101147Y-78095900D01*
X117165297Y-78250772D01*
X117198000Y-78415184D01*
X117198000Y-78582816D01*
X117165297Y-78747228D01*
X117101147Y-78902100D01*
X117008015Y-79041481D01*
X116889481Y-79160015D01*
X116750100Y-79253147D01*
X116595228Y-79317297D01*
X116430816Y-79350000D01*
X116263184Y-79350000D01*
X116098772Y-79317297D01*
X115943900Y-79253147D01*
X115804519Y-79160015D01*
X115685985Y-79041481D01*
X115592853Y-78902100D01*
X115528703Y-78747228D01*
X115496000Y-78582816D01*
X115496000Y-78415184D01*
X115528703Y-78250772D01*
X115592853Y-78095900D01*
X115685985Y-77956519D01*
X115804519Y-77837985D01*
X115943900Y-77744853D01*
X116098772Y-77680703D01*
X116263184Y-77648000D01*
X116430816Y-77648000D01*
X116595228Y-77680703D01*
X116595228Y-77680703D01*
G37*
G36*
X119323000Y-79150000D02*
G01*
X118021000Y-79150000D01*
X118021000Y-77848000D01*
X119323000Y-77848000D01*
X119323000Y-79150000D01*
X119323000Y-79150000D01*
G37*
G36*
X122473000Y-79150000D02*
G01*
X121171000Y-79150000D01*
X121171000Y-77848000D01*
X122473000Y-77848000D01*
X122473000Y-79150000D01*
X122473000Y-79150000D01*
G37*
G36*
X125803564Y-74638389D02*
G01*
X125994833Y-74717615D01*
X125994835Y-74717616D01*
X126035598Y-74744853D01*
X126166973Y-74832635D01*
X126313365Y-74979027D01*
X126428385Y-75151167D01*
X126507611Y-75342436D01*
X126548000Y-75545484D01*
X126548000Y-75752516D01*
X126507611Y-75955564D01*
X126472023Y-76041481D01*
X126428384Y-76146835D01*
X126313365Y-76318973D01*
X126166973Y-76465365D01*
X125994835Y-76580384D01*
X125994834Y-76580385D01*
X125994833Y-76580385D01*
X125803564Y-76659611D01*
X125600516Y-76700000D01*
X125393484Y-76700000D01*
X125190436Y-76659611D01*
X124999167Y-76580385D01*
X124999166Y-76580385D01*
X124999165Y-76580384D01*
X124827027Y-76465365D01*
X124680635Y-76318973D01*
X124565616Y-76146835D01*
X124521977Y-76041481D01*
X124486389Y-75955564D01*
X124446000Y-75752516D01*
X124446000Y-75545484D01*
X124486389Y-75342436D01*
X124565615Y-75151167D01*
X124680635Y-74979027D01*
X124827027Y-74832635D01*
X124958402Y-74744853D01*
X124999165Y-74717616D01*
X124999167Y-74717615D01*
X125190436Y-74638389D01*
X125393484Y-74598000D01*
X125600516Y-74598000D01*
X125803564Y-74638389D01*
X125803564Y-74638389D01*
G37*
G36*
X106423000Y-76350000D02*
G01*
X104721000Y-76350000D01*
X104721000Y-74648000D01*
X106423000Y-74648000D01*
X106423000Y-76350000D01*
X106423000Y-76350000D01*
G37*
G36*
X78395228Y-74680703D02*
G01*
X78550100Y-74744853D01*
X78689481Y-74837985D01*
X78808015Y-74956519D01*
X78901147Y-75095900D01*
X78965297Y-75250772D01*
X78998000Y-75415184D01*
X78998000Y-75582816D01*
X78965297Y-75747228D01*
X78901147Y-75902100D01*
X78808015Y-76041481D01*
X78689481Y-76160015D01*
X78550100Y-76253147D01*
X78395228Y-76317297D01*
X78230816Y-76350000D01*
X78063184Y-76350000D01*
X77898772Y-76317297D01*
X77743900Y-76253147D01*
X77604519Y-76160015D01*
X77485985Y-76041481D01*
X77392853Y-75902100D01*
X77328703Y-75747228D01*
X77296000Y-75582816D01*
X77296000Y-75415184D01*
X77328703Y-75250772D01*
X77392853Y-75095900D01*
X77485985Y-74956519D01*
X77604519Y-74837985D01*
X77743900Y-74744853D01*
X77898772Y-74680703D01*
X78063184Y-74648000D01*
X78230816Y-74648000D01*
X78395228Y-74680703D01*
X78395228Y-74680703D01*
G37*
G36*
X71198000Y-76350000D02*
G01*
X69496000Y-76350000D01*
X69496000Y-74648000D01*
X71198000Y-74648000D01*
X71198000Y-76350000D01*
X71198000Y-76350000D01*
G37*
G36*
X98020228Y-74680703D02*
G01*
X98175100Y-74744853D01*
X98314481Y-74837985D01*
X98433015Y-74956519D01*
X98526147Y-75095900D01*
X98590297Y-75250772D01*
X98623000Y-75415184D01*
X98623000Y-75582816D01*
X98590297Y-75747228D01*
X98526147Y-75902100D01*
X98433015Y-76041481D01*
X98314481Y-76160015D01*
X98175100Y-76253147D01*
X98020228Y-76317297D01*
X97855816Y-76350000D01*
X97688184Y-76350000D01*
X97523772Y-76317297D01*
X97368900Y-76253147D01*
X97229519Y-76160015D01*
X97110985Y-76041481D01*
X97017853Y-75902100D01*
X96953703Y-75747228D01*
X96921000Y-75582816D01*
X96921000Y-75415184D01*
X96953703Y-75250772D01*
X97017853Y-75095900D01*
X97110985Y-74956519D01*
X97229519Y-74837985D01*
X97368900Y-74744853D01*
X97523772Y-74680703D01*
X97688184Y-74648000D01*
X97855816Y-74648000D01*
X98020228Y-74680703D01*
X98020228Y-74680703D01*
G37*
G36*
X103898000Y-76150000D02*
G01*
X102596000Y-76150000D01*
X102596000Y-74848000D01*
X103898000Y-74848000D01*
X103898000Y-76150000D01*
X103898000Y-76150000D01*
G37*
G36*
X73323000Y-76150000D02*
G01*
X72021000Y-76150000D01*
X72021000Y-74848000D01*
X73323000Y-74848000D01*
X73323000Y-76150000D01*
X73323000Y-76150000D01*
G37*
G36*
X76473000Y-76150000D02*
G01*
X75171000Y-76150000D01*
X75171000Y-74848000D01*
X76473000Y-74848000D01*
X76473000Y-76150000D01*
X76473000Y-76150000D01*
G37*
G36*
X100748000Y-76150000D02*
G01*
X99446000Y-76150000D01*
X99446000Y-74848000D01*
X100748000Y-74848000D01*
X100748000Y-76150000D01*
X100748000Y-76150000D01*
G37*
G36*
X130803564Y-72538389D02*
G01*
X130994833Y-72617615D01*
X130994835Y-72617616D01*
X131166973Y-72732635D01*
X131313365Y-72879027D01*
X131428385Y-73051167D01*
X131507611Y-73242436D01*
X131548000Y-73445484D01*
X131548000Y-73652516D01*
X131507611Y-73855564D01*
X131428385Y-74046833D01*
X131428384Y-74046835D01*
X131313365Y-74218973D01*
X131166973Y-74365365D01*
X130994835Y-74480384D01*
X130994834Y-74480385D01*
X130994833Y-74480385D01*
X130803564Y-74559611D01*
X130600516Y-74600000D01*
X130393484Y-74600000D01*
X130190436Y-74559611D01*
X129999167Y-74480385D01*
X129999166Y-74480385D01*
X129999165Y-74480384D01*
X129827027Y-74365365D01*
X129680635Y-74218973D01*
X129565616Y-74046835D01*
X129565615Y-74046833D01*
X129486389Y-73855564D01*
X129446000Y-73652516D01*
X129446000Y-73445484D01*
X129486389Y-73242436D01*
X129565615Y-73051167D01*
X129680635Y-72879027D01*
X129827027Y-72732635D01*
X129999165Y-72617616D01*
X129999167Y-72617615D01*
X130190436Y-72538389D01*
X130393484Y-72498000D01*
X130600516Y-72498000D01*
X130803564Y-72538389D01*
X130803564Y-72538389D01*
G37*
G36*
X107303564Y-71638389D02*
G01*
X107494833Y-71717615D01*
X107494835Y-71717616D01*
X107666973Y-71832635D01*
X107813365Y-71979027D01*
X107928385Y-72151167D01*
X108007611Y-72342436D01*
X108048000Y-72545484D01*
X108048000Y-72752516D01*
X108007611Y-72955564D01*
X107968011Y-73051167D01*
X107928384Y-73146835D01*
X107813365Y-73318973D01*
X107666973Y-73465365D01*
X107494835Y-73580384D01*
X107494834Y-73580385D01*
X107494833Y-73580385D01*
X107303564Y-73659611D01*
X107100516Y-73700000D01*
X106893484Y-73700000D01*
X106690436Y-73659611D01*
X106499167Y-73580385D01*
X106499166Y-73580385D01*
X106499165Y-73580384D01*
X106327027Y-73465365D01*
X106180635Y-73318973D01*
X106065616Y-73146835D01*
X106025989Y-73051167D01*
X105986389Y-72955564D01*
X105946000Y-72752516D01*
X105946000Y-72545484D01*
X105986389Y-72342436D01*
X106065615Y-72151167D01*
X106180635Y-71979027D01*
X106327027Y-71832635D01*
X106499165Y-71717616D01*
X106499167Y-71717615D01*
X106690436Y-71638389D01*
X106893484Y-71598000D01*
X107100516Y-71598000D01*
X107303564Y-71638389D01*
X107303564Y-71638389D01*
G37*
G36*
X70303564Y-71638389D02*
G01*
X70494833Y-71717615D01*
X70494835Y-71717616D01*
X70666973Y-71832635D01*
X70813365Y-71979027D01*
X70928385Y-72151167D01*
X71007611Y-72342436D01*
X71048000Y-72545484D01*
X71048000Y-72752516D01*
X71007611Y-72955564D01*
X70968011Y-73051167D01*
X70928384Y-73146835D01*
X70813365Y-73318973D01*
X70666973Y-73465365D01*
X70494835Y-73580384D01*
X70494834Y-73580385D01*
X70494833Y-73580385D01*
X70303564Y-73659611D01*
X70100516Y-73700000D01*
X69893484Y-73700000D01*
X69690436Y-73659611D01*
X69499167Y-73580385D01*
X69499166Y-73580385D01*
X69499165Y-73580384D01*
X69327027Y-73465365D01*
X69180635Y-73318973D01*
X69065616Y-73146835D01*
X69025989Y-73051167D01*
X68986389Y-72955564D01*
X68946000Y-72752516D01*
X68946000Y-72545484D01*
X68986389Y-72342436D01*
X69065615Y-72151167D01*
X69180635Y-71979027D01*
X69327027Y-71832635D01*
X69499165Y-71717616D01*
X69499167Y-71717615D01*
X69690436Y-71638389D01*
X69893484Y-71598000D01*
X70100516Y-71598000D01*
X70303564Y-71638389D01*
X70303564Y-71638389D01*
G37*
G36*
X75303564Y-69538389D02*
G01*
X75494833Y-69617615D01*
X75494835Y-69617616D01*
X75666973Y-69732635D01*
X75813365Y-69879027D01*
X75865144Y-69956519D01*
X75928385Y-70051167D01*
X76007611Y-70242436D01*
X76048000Y-70445484D01*
X76048000Y-70652516D01*
X76007611Y-70855564D01*
X75988336Y-70902097D01*
X75928384Y-71046835D01*
X75813365Y-71218973D01*
X75666973Y-71365365D01*
X75494835Y-71480384D01*
X75494834Y-71480385D01*
X75494833Y-71480385D01*
X75303564Y-71559611D01*
X75100516Y-71600000D01*
X74893484Y-71600000D01*
X74690436Y-71559611D01*
X74499167Y-71480385D01*
X74499166Y-71480385D01*
X74499165Y-71480384D01*
X74327027Y-71365365D01*
X74180635Y-71218973D01*
X74065616Y-71046835D01*
X74005664Y-70902097D01*
X73986389Y-70855564D01*
X73946000Y-70652516D01*
X73946000Y-70445484D01*
X73986389Y-70242436D01*
X74065615Y-70051167D01*
X74128857Y-69956519D01*
X74180635Y-69879027D01*
X74327027Y-69732635D01*
X74499165Y-69617616D01*
X74499167Y-69617615D01*
X74690436Y-69538389D01*
X74893484Y-69498000D01*
X75100516Y-69498000D01*
X75303564Y-69538389D01*
X75303564Y-69538389D01*
G37*
G36*
X112303564Y-69538389D02*
G01*
X112494833Y-69617615D01*
X112494835Y-69617616D01*
X112666973Y-69732635D01*
X112813365Y-69879027D01*
X112865144Y-69956519D01*
X112928385Y-70051167D01*
X113007611Y-70242436D01*
X113048000Y-70445484D01*
X113048000Y-70652516D01*
X113007611Y-70855564D01*
X112988336Y-70902097D01*
X112928384Y-71046835D01*
X112813365Y-71218973D01*
X112666973Y-71365365D01*
X112494835Y-71480384D01*
X112494834Y-71480385D01*
X112494833Y-71480385D01*
X112303564Y-71559611D01*
X112100516Y-71600000D01*
X111893484Y-71600000D01*
X111690436Y-71559611D01*
X111499167Y-71480385D01*
X111499166Y-71480385D01*
X111499165Y-71480384D01*
X111327027Y-71365365D01*
X111180635Y-71218973D01*
X111065616Y-71046835D01*
X111005664Y-70902097D01*
X110986389Y-70855564D01*
X110946000Y-70652516D01*
X110946000Y-70445484D01*
X110986389Y-70242436D01*
X111065615Y-70051167D01*
X111128857Y-69956519D01*
X111180635Y-69879027D01*
X111327027Y-69732635D01*
X111499165Y-69617616D01*
X111499167Y-69617615D01*
X111690436Y-69538389D01*
X111893484Y-69498000D01*
X112100516Y-69498000D01*
X112303564Y-69538389D01*
X112303564Y-69538389D01*
G37*
G36*
X125894985Y-68042860D02*
G01*
X126007748Y-68065290D01*
X126113490Y-68109090D01*
X126326408Y-68197283D01*
X126613196Y-68388909D01*
X126857091Y-68632804D01*
X127048717Y-68919592D01*
X127180710Y-69238253D01*
X127248000Y-69576540D01*
X127248000Y-69921460D01*
X127222200Y-70051165D01*
X127182496Y-70250771D01*
X127180710Y-70259747D01*
X127048717Y-70578408D01*
X126857091Y-70865196D01*
X126613196Y-71109091D01*
X126326408Y-71300717D01*
X126170333Y-71365365D01*
X126007748Y-71432710D01*
X125894985Y-71455140D01*
X125669460Y-71500000D01*
X125324540Y-71500000D01*
X125099015Y-71455140D01*
X124986252Y-71432710D01*
X124823667Y-71365365D01*
X124667592Y-71300717D01*
X124380804Y-71109091D01*
X124136909Y-70865196D01*
X123945283Y-70578408D01*
X123813290Y-70259747D01*
X123811505Y-70250771D01*
X123771800Y-70051165D01*
X123746000Y-69921460D01*
X123746000Y-69576540D01*
X123813290Y-69238253D01*
X123945283Y-68919592D01*
X124136909Y-68632804D01*
X124380804Y-68388909D01*
X124667592Y-68197283D01*
X124880510Y-68109090D01*
X124986252Y-68065290D01*
X125099015Y-68042860D01*
X125324540Y-67998000D01*
X125669460Y-67998000D01*
X125894985Y-68042860D01*
X125894985Y-68042860D01*
G37*
G36*
X80595228Y-69680703D02*
G01*
X80750100Y-69744853D01*
X80889481Y-69837985D01*
X81008015Y-69956519D01*
X81101147Y-70095900D01*
X81165297Y-70250772D01*
X81198000Y-70415184D01*
X81198000Y-70582816D01*
X81165297Y-70747228D01*
X81101147Y-70902100D01*
X81008015Y-71041481D01*
X80889481Y-71160015D01*
X80750100Y-71253147D01*
X80595228Y-71317297D01*
X80430816Y-71350000D01*
X80263184Y-71350000D01*
X80098772Y-71317297D01*
X79943900Y-71253147D01*
X79804519Y-71160015D01*
X79685985Y-71041481D01*
X79592853Y-70902100D01*
X79528703Y-70747228D01*
X79496000Y-70582816D01*
X79496000Y-70415184D01*
X79528703Y-70250772D01*
X79592853Y-70095900D01*
X79685985Y-69956519D01*
X79804519Y-69837985D01*
X79943900Y-69744853D01*
X80098772Y-69680703D01*
X80263184Y-69648000D01*
X80430816Y-69648000D01*
X80595228Y-69680703D01*
X80595228Y-69680703D01*
G37*
G36*
X88998000Y-71350000D02*
G01*
X87296000Y-71350000D01*
X87296000Y-69648000D01*
X88998000Y-69648000D01*
X88998000Y-71350000D01*
X88998000Y-71350000D01*
G37*
G36*
X83323000Y-71150000D02*
G01*
X82021000Y-71150000D01*
X82021000Y-69848000D01*
X83323000Y-69848000D01*
X83323000Y-71150000D01*
X83323000Y-71150000D01*
G37*
G36*
X86473000Y-71150000D02*
G01*
X85171000Y-71150000D01*
X85171000Y-69848000D01*
X86473000Y-69848000D01*
X86473000Y-71150000D01*
X86473000Y-71150000D01*
G37*
G36*
X131110512Y-68852927D02*
G01*
X131259812Y-68882624D01*
X131423784Y-68950544D01*
X131571354Y-69049147D01*
X131696853Y-69174646D01*
X131795456Y-69322216D01*
X131863376Y-69486188D01*
X131881348Y-69576542D01*
X131898000Y-69660258D01*
X131898000Y-69837742D01*
X131893073Y-69862512D01*
X131863376Y-70011812D01*
X131795456Y-70175784D01*
X131696853Y-70323354D01*
X131571354Y-70448853D01*
X131423784Y-70547456D01*
X131259812Y-70615376D01*
X131110512Y-70645073D01*
X131085742Y-70650000D01*
X130908258Y-70650000D01*
X130883488Y-70645073D01*
X130734188Y-70615376D01*
X130570216Y-70547456D01*
X130422646Y-70448853D01*
X130297147Y-70323354D01*
X130198544Y-70175784D01*
X130130624Y-70011812D01*
X130100927Y-69862512D01*
X130096000Y-69837742D01*
X130096000Y-69660258D01*
X130112652Y-69576542D01*
X130130624Y-69486188D01*
X130198544Y-69322216D01*
X130297147Y-69174646D01*
X130422646Y-69049147D01*
X130570216Y-68950544D01*
X130734188Y-68882624D01*
X130883488Y-68852927D01*
X130908258Y-68848000D01*
X131085742Y-68848000D01*
X131110512Y-68852927D01*
X131110512Y-68852927D01*
G37*
G36*
X120110512Y-68852927D02*
G01*
X120259812Y-68882624D01*
X120423784Y-68950544D01*
X120571354Y-69049147D01*
X120696853Y-69174646D01*
X120795456Y-69322216D01*
X120863376Y-69486188D01*
X120881348Y-69576542D01*
X120898000Y-69660258D01*
X120898000Y-69837742D01*
X120893073Y-69862512D01*
X120863376Y-70011812D01*
X120795456Y-70175784D01*
X120696853Y-70323354D01*
X120571354Y-70448853D01*
X120423784Y-70547456D01*
X120259812Y-70615376D01*
X120110512Y-70645073D01*
X120085742Y-70650000D01*
X119908258Y-70650000D01*
X119883488Y-70645073D01*
X119734188Y-70615376D01*
X119570216Y-70547456D01*
X119422646Y-70448853D01*
X119297147Y-70323354D01*
X119198544Y-70175784D01*
X119130624Y-70011812D01*
X119100927Y-69862512D01*
X119096000Y-69837742D01*
X119096000Y-69660258D01*
X119112652Y-69576542D01*
X119130624Y-69486188D01*
X119198544Y-69322216D01*
X119297147Y-69174646D01*
X119422646Y-69049147D01*
X119570216Y-68950544D01*
X119734188Y-68882624D01*
X119883488Y-68852927D01*
X119908258Y-68848000D01*
X120085742Y-68848000D01*
X120110512Y-68852927D01*
X120110512Y-68852927D01*
G37*
G36*
X88803564Y-66638389D02*
G01*
X88994833Y-66717615D01*
X88994835Y-66717616D01*
X89166973Y-66832635D01*
X89313365Y-66979027D01*
X89428385Y-67151167D01*
X89507611Y-67342436D01*
X89548000Y-67545484D01*
X89548000Y-67752516D01*
X89507611Y-67955564D01*
X89444018Y-68109091D01*
X89428384Y-68146835D01*
X89313365Y-68318973D01*
X89166973Y-68465365D01*
X88994835Y-68580384D01*
X88994834Y-68580385D01*
X88994833Y-68580385D01*
X88803564Y-68659611D01*
X88600516Y-68700000D01*
X88393484Y-68700000D01*
X88190436Y-68659611D01*
X87999167Y-68580385D01*
X87999166Y-68580385D01*
X87999165Y-68580384D01*
X87827027Y-68465365D01*
X87680635Y-68318973D01*
X87565616Y-68146835D01*
X87549982Y-68109091D01*
X87486389Y-67955564D01*
X87446000Y-67752516D01*
X87446000Y-67545484D01*
X87486389Y-67342436D01*
X87565615Y-67151167D01*
X87680635Y-66979027D01*
X87827027Y-66832635D01*
X87999165Y-66717616D01*
X87999167Y-66717615D01*
X88190436Y-66638389D01*
X88393484Y-66598000D01*
X88600516Y-66598000D01*
X88803564Y-66638389D01*
X88803564Y-66638389D01*
G37*
G36*
X70394985Y-65042860D02*
G01*
X70507748Y-65065290D01*
X70639741Y-65119963D01*
X70826408Y-65197283D01*
X71113196Y-65388909D01*
X71357091Y-65632804D01*
X71548717Y-65919592D01*
X71680710Y-66238253D01*
X71748000Y-66576540D01*
X71748000Y-66921460D01*
X71680710Y-67259747D01*
X71548717Y-67578408D01*
X71357091Y-67865196D01*
X71113196Y-68109091D01*
X70826408Y-68300717D01*
X70639741Y-68378037D01*
X70507748Y-68432710D01*
X70394985Y-68455140D01*
X70169460Y-68500000D01*
X69824540Y-68500000D01*
X69599015Y-68455140D01*
X69486252Y-68432710D01*
X69354259Y-68378037D01*
X69167592Y-68300717D01*
X68880804Y-68109091D01*
X68636909Y-67865196D01*
X68445283Y-67578408D01*
X68313290Y-67259747D01*
X68246000Y-66921460D01*
X68246000Y-66576540D01*
X68313290Y-66238253D01*
X68445283Y-65919592D01*
X68636909Y-65632804D01*
X68880804Y-65388909D01*
X69167592Y-65197283D01*
X69354259Y-65119963D01*
X69486252Y-65065290D01*
X69599015Y-65042860D01*
X69824540Y-64998000D01*
X70169460Y-64998000D01*
X70394985Y-65042860D01*
X70394985Y-65042860D01*
G37*
G36*
X107394985Y-65042860D02*
G01*
X107507748Y-65065290D01*
X107639741Y-65119963D01*
X107826408Y-65197283D01*
X108113196Y-65388909D01*
X108357091Y-65632804D01*
X108548717Y-65919592D01*
X108680710Y-66238253D01*
X108748000Y-66576540D01*
X108748000Y-66921460D01*
X108680710Y-67259747D01*
X108548717Y-67578408D01*
X108357091Y-67865196D01*
X108113196Y-68109091D01*
X107826408Y-68300717D01*
X107639741Y-68378037D01*
X107507748Y-68432710D01*
X107394985Y-68455140D01*
X107169460Y-68500000D01*
X106824540Y-68500000D01*
X106599015Y-68455140D01*
X106486252Y-68432710D01*
X106354259Y-68378037D01*
X106167592Y-68300717D01*
X105880804Y-68109091D01*
X105636909Y-67865196D01*
X105445283Y-67578408D01*
X105313290Y-67259747D01*
X105246000Y-66921460D01*
X105246000Y-66576540D01*
X105313290Y-66238253D01*
X105445283Y-65919592D01*
X105636909Y-65632804D01*
X105880804Y-65388909D01*
X106167592Y-65197283D01*
X106354259Y-65119963D01*
X106486252Y-65065290D01*
X106599015Y-65042860D01*
X106824540Y-64998000D01*
X107169460Y-64998000D01*
X107394985Y-65042860D01*
X107394985Y-65042860D01*
G37*
G36*
X75610512Y-65852927D02*
G01*
X75759812Y-65882624D01*
X75923784Y-65950544D01*
X76071354Y-66049147D01*
X76196853Y-66174646D01*
X76295456Y-66322216D01*
X76363376Y-66486188D01*
X76398000Y-66660259D01*
X76398000Y-66837741D01*
X76363376Y-67011812D01*
X76295456Y-67175784D01*
X76196853Y-67323354D01*
X76071354Y-67448853D01*
X75923784Y-67547456D01*
X75759812Y-67615376D01*
X75610512Y-67645073D01*
X75585742Y-67650000D01*
X75408258Y-67650000D01*
X75383488Y-67645073D01*
X75234188Y-67615376D01*
X75070216Y-67547456D01*
X74922646Y-67448853D01*
X74797147Y-67323354D01*
X74698544Y-67175784D01*
X74630624Y-67011812D01*
X74596000Y-66837741D01*
X74596000Y-66660259D01*
X74630624Y-66486188D01*
X74698544Y-66322216D01*
X74797147Y-66174646D01*
X74922646Y-66049147D01*
X75070216Y-65950544D01*
X75234188Y-65882624D01*
X75383488Y-65852927D01*
X75408258Y-65848000D01*
X75585742Y-65848000D01*
X75610512Y-65852927D01*
X75610512Y-65852927D01*
G37*
G36*
X64610512Y-65852927D02*
G01*
X64759812Y-65882624D01*
X64923784Y-65950544D01*
X65071354Y-66049147D01*
X65196853Y-66174646D01*
X65295456Y-66322216D01*
X65363376Y-66486188D01*
X65398000Y-66660259D01*
X65398000Y-66837741D01*
X65363376Y-67011812D01*
X65295456Y-67175784D01*
X65196853Y-67323354D01*
X65071354Y-67448853D01*
X64923784Y-67547456D01*
X64759812Y-67615376D01*
X64610512Y-67645073D01*
X64585742Y-67650000D01*
X64408258Y-67650000D01*
X64383488Y-67645073D01*
X64234188Y-67615376D01*
X64070216Y-67547456D01*
X63922646Y-67448853D01*
X63797147Y-67323354D01*
X63698544Y-67175784D01*
X63630624Y-67011812D01*
X63596000Y-66837741D01*
X63596000Y-66660259D01*
X63630624Y-66486188D01*
X63698544Y-66322216D01*
X63797147Y-66174646D01*
X63922646Y-66049147D01*
X64070216Y-65950544D01*
X64234188Y-65882624D01*
X64383488Y-65852927D01*
X64408258Y-65848000D01*
X64585742Y-65848000D01*
X64610512Y-65852927D01*
X64610512Y-65852927D01*
G37*
G36*
X101610512Y-65852927D02*
G01*
X101759812Y-65882624D01*
X101923784Y-65950544D01*
X102071354Y-66049147D01*
X102196853Y-66174646D01*
X102295456Y-66322216D01*
X102363376Y-66486188D01*
X102398000Y-66660259D01*
X102398000Y-66837741D01*
X102363376Y-67011812D01*
X102295456Y-67175784D01*
X102196853Y-67323354D01*
X102071354Y-67448853D01*
X101923784Y-67547456D01*
X101759812Y-67615376D01*
X101610512Y-67645073D01*
X101585742Y-67650000D01*
X101408258Y-67650000D01*
X101383488Y-67645073D01*
X101234188Y-67615376D01*
X101070216Y-67547456D01*
X100922646Y-67448853D01*
X100797147Y-67323354D01*
X100698544Y-67175784D01*
X100630624Y-67011812D01*
X100596000Y-66837741D01*
X100596000Y-66660259D01*
X100630624Y-66486188D01*
X100698544Y-66322216D01*
X100797147Y-66174646D01*
X100922646Y-66049147D01*
X101070216Y-65950544D01*
X101234188Y-65882624D01*
X101383488Y-65852927D01*
X101408258Y-65848000D01*
X101585742Y-65848000D01*
X101610512Y-65852927D01*
X101610512Y-65852927D01*
G37*
G36*
X112610512Y-65852927D02*
G01*
X112759812Y-65882624D01*
X112923784Y-65950544D01*
X113071354Y-66049147D01*
X113196853Y-66174646D01*
X113295456Y-66322216D01*
X113363376Y-66486188D01*
X113398000Y-66660259D01*
X113398000Y-66837741D01*
X113363376Y-67011812D01*
X113295456Y-67175784D01*
X113196853Y-67323354D01*
X113071354Y-67448853D01*
X112923784Y-67547456D01*
X112759812Y-67615376D01*
X112610512Y-67645073D01*
X112585742Y-67650000D01*
X112408258Y-67650000D01*
X112383488Y-67645073D01*
X112234188Y-67615376D01*
X112070216Y-67547456D01*
X111922646Y-67448853D01*
X111797147Y-67323354D01*
X111698544Y-67175784D01*
X111630624Y-67011812D01*
X111596000Y-66837741D01*
X111596000Y-66660259D01*
X111630624Y-66486188D01*
X111698544Y-66322216D01*
X111797147Y-66174646D01*
X111922646Y-66049147D01*
X112070216Y-65950544D01*
X112234188Y-65882624D01*
X112383488Y-65852927D01*
X112408258Y-65848000D01*
X112585742Y-65848000D01*
X112610512Y-65852927D01*
X112610512Y-65852927D01*
G37*
G36*
X93803564Y-64538389D02*
G01*
X93994833Y-64617615D01*
X93994835Y-64617616D01*
X94166973Y-64732635D01*
X94313365Y-64879027D01*
X94428385Y-65051167D01*
X94507611Y-65242436D01*
X94548000Y-65445484D01*
X94548000Y-65652516D01*
X94507611Y-65855564D01*
X94468269Y-65950544D01*
X94428384Y-66046835D01*
X94313365Y-66218973D01*
X94166973Y-66365365D01*
X93994835Y-66480384D01*
X93994834Y-66480385D01*
X93994833Y-66480385D01*
X93803564Y-66559611D01*
X93600516Y-66600000D01*
X93393484Y-66600000D01*
X93190436Y-66559611D01*
X92999167Y-66480385D01*
X92999166Y-66480385D01*
X92999165Y-66480384D01*
X92827027Y-66365365D01*
X92680635Y-66218973D01*
X92565616Y-66046835D01*
X92525731Y-65950544D01*
X92486389Y-65855564D01*
X92446000Y-65652516D01*
X92446000Y-65445484D01*
X92486389Y-65242436D01*
X92565615Y-65051167D01*
X92680635Y-64879027D01*
X92827027Y-64732635D01*
X92999165Y-64617616D01*
X92999167Y-64617615D01*
X93190436Y-64538389D01*
X93393484Y-64498000D01*
X93600516Y-64498000D01*
X93803564Y-64538389D01*
X93803564Y-64538389D01*
G37*
G36*
X88894985Y-60042860D02*
G01*
X89007748Y-60065290D01*
X89139741Y-60119963D01*
X89326408Y-60197283D01*
X89613196Y-60388909D01*
X89857091Y-60632804D01*
X90048717Y-60919592D01*
X90180710Y-61238253D01*
X90248000Y-61576540D01*
X90248000Y-61921460D01*
X90180710Y-62259747D01*
X90048717Y-62578408D01*
X89857091Y-62865196D01*
X89613196Y-63109091D01*
X89326408Y-63300717D01*
X89139741Y-63378037D01*
X89007748Y-63432710D01*
X88894985Y-63455140D01*
X88669460Y-63500000D01*
X88324540Y-63500000D01*
X88099015Y-63455140D01*
X87986252Y-63432710D01*
X87854259Y-63378037D01*
X87667592Y-63300717D01*
X87380804Y-63109091D01*
X87136909Y-62865196D01*
X86945283Y-62578408D01*
X86813290Y-62259747D01*
X86746000Y-61921460D01*
X86746000Y-61576540D01*
X86813290Y-61238253D01*
X86945283Y-60919592D01*
X87136909Y-60632804D01*
X87380804Y-60388909D01*
X87667592Y-60197283D01*
X87854259Y-60119963D01*
X87986252Y-60065290D01*
X88099015Y-60042860D01*
X88324540Y-59998000D01*
X88669460Y-59998000D01*
X88894985Y-60042860D01*
X88894985Y-60042860D01*
G37*
G36*
X83110512Y-60852927D02*
G01*
X83259812Y-60882624D01*
X83423784Y-60950544D01*
X83571354Y-61049147D01*
X83696853Y-61174646D01*
X83795456Y-61322216D01*
X83863376Y-61486188D01*
X83898000Y-61660259D01*
X83898000Y-61837741D01*
X83863376Y-62011812D01*
X83795456Y-62175784D01*
X83696853Y-62323354D01*
X83571354Y-62448853D01*
X83423784Y-62547456D01*
X83259812Y-62615376D01*
X83110512Y-62645073D01*
X83085742Y-62650000D01*
X82908258Y-62650000D01*
X82883488Y-62645073D01*
X82734188Y-62615376D01*
X82570216Y-62547456D01*
X82422646Y-62448853D01*
X82297147Y-62323354D01*
X82198544Y-62175784D01*
X82130624Y-62011812D01*
X82096000Y-61837741D01*
X82096000Y-61660259D01*
X82130624Y-61486188D01*
X82198544Y-61322216D01*
X82297147Y-61174646D01*
X82422646Y-61049147D01*
X82570216Y-60950544D01*
X82734188Y-60882624D01*
X82883488Y-60852927D01*
X82908258Y-60848000D01*
X83085742Y-60848000D01*
X83110512Y-60852927D01*
X83110512Y-60852927D01*
G37*
G36*
X94110512Y-60852927D02*
G01*
X94259812Y-60882624D01*
X94423784Y-60950544D01*
X94571354Y-61049147D01*
X94696853Y-61174646D01*
X94795456Y-61322216D01*
X94863376Y-61486188D01*
X94898000Y-61660259D01*
X94898000Y-61837741D01*
X94863376Y-62011812D01*
X94795456Y-62175784D01*
X94696853Y-62323354D01*
X94571354Y-62448853D01*
X94423784Y-62547456D01*
X94259812Y-62615376D01*
X94110512Y-62645073D01*
X94085742Y-62650000D01*
X93908258Y-62650000D01*
X93883488Y-62645073D01*
X93734188Y-62615376D01*
X93570216Y-62547456D01*
X93422646Y-62448853D01*
X93297147Y-62323354D01*
X93198544Y-62175784D01*
X93130624Y-62011812D01*
X93096000Y-61837741D01*
X93096000Y-61660259D01*
X93130624Y-61486188D01*
X93198544Y-61322216D01*
X93297147Y-61174646D01*
X93422646Y-61049147D01*
X93570216Y-60950544D01*
X93734188Y-60882624D01*
X93883488Y-60852927D01*
X93908258Y-60848000D01*
X94085742Y-60848000D01*
X94110512Y-60852927D01*
X94110512Y-60852927D01*
G37*
G36*
X119398000Y-60150000D02*
G01*
X117596000Y-60150000D01*
X117596000Y-58348000D01*
X119398000Y-58348000D01*
X119398000Y-60150000D01*
X119398000Y-60150000D01*
G37*
G36*
X123687442Y-58354518D02*
G01*
X123753627Y-58361037D01*
X123923466Y-58412557D01*
X124079991Y-58496222D01*
X124115729Y-58525552D01*
X124217186Y-58608814D01*
X124300448Y-58710271D01*
X124329778Y-58746009D01*
X124413443Y-58902534D01*
X124464963Y-59072373D01*
X124482359Y-59249000D01*
X124464963Y-59425627D01*
X124413443Y-59595466D01*
X124329778Y-59751991D01*
X124300448Y-59787729D01*
X124217186Y-59889186D01*
X124115729Y-59972448D01*
X124079991Y-60001778D01*
X123923466Y-60085443D01*
X123753627Y-60136963D01*
X123687443Y-60143481D01*
X123621260Y-60150000D01*
X123532740Y-60150000D01*
X123466557Y-60143481D01*
X123400373Y-60136963D01*
X123230534Y-60085443D01*
X123074009Y-60001778D01*
X123038271Y-59972448D01*
X122936814Y-59889186D01*
X122853552Y-59787729D01*
X122824222Y-59751991D01*
X122740557Y-59595466D01*
X122689037Y-59425627D01*
X122671641Y-59249000D01*
X122689037Y-59072373D01*
X122740557Y-58902534D01*
X122824222Y-58746009D01*
X122853552Y-58710271D01*
X122936814Y-58608814D01*
X123038271Y-58525552D01*
X123074009Y-58496222D01*
X123230534Y-58412557D01*
X123400373Y-58361037D01*
X123466558Y-58354518D01*
X123532740Y-58348000D01*
X123621260Y-58348000D01*
X123687442Y-58354518D01*
X123687442Y-58354518D01*
G37*
G36*
X121147442Y-58354518D02*
G01*
X121213627Y-58361037D01*
X121383466Y-58412557D01*
X121539991Y-58496222D01*
X121575729Y-58525552D01*
X121677186Y-58608814D01*
X121760448Y-58710271D01*
X121789778Y-58746009D01*
X121873443Y-58902534D01*
X121924963Y-59072373D01*
X121942359Y-59249000D01*
X121924963Y-59425627D01*
X121873443Y-59595466D01*
X121789778Y-59751991D01*
X121760448Y-59787729D01*
X121677186Y-59889186D01*
X121575729Y-59972448D01*
X121539991Y-60001778D01*
X121383466Y-60085443D01*
X121213627Y-60136963D01*
X121147443Y-60143481D01*
X121081260Y-60150000D01*
X120992740Y-60150000D01*
X120926557Y-60143481D01*
X120860373Y-60136963D01*
X120690534Y-60085443D01*
X120534009Y-60001778D01*
X120498271Y-59972448D01*
X120396814Y-59889186D01*
X120313552Y-59787729D01*
X120284222Y-59751991D01*
X120200557Y-59595466D01*
X120149037Y-59425627D01*
X120131641Y-59249000D01*
X120149037Y-59072373D01*
X120200557Y-58902534D01*
X120284222Y-58746009D01*
X120313552Y-58710271D01*
X120396814Y-58608814D01*
X120498271Y-58525552D01*
X120534009Y-58496222D01*
X120690534Y-58412557D01*
X120860373Y-58361037D01*
X120926558Y-58354518D01*
X120992740Y-58348000D01*
X121081260Y-58348000D01*
X121147442Y-58354518D01*
X121147442Y-58354518D01*
G37*
G36*
X126227442Y-58354518D02*
G01*
X126293627Y-58361037D01*
X126463466Y-58412557D01*
X126619991Y-58496222D01*
X126655729Y-58525552D01*
X126757186Y-58608814D01*
X126840448Y-58710271D01*
X126869778Y-58746009D01*
X126953443Y-58902534D01*
X127004963Y-59072373D01*
X127022359Y-59249000D01*
X127004963Y-59425627D01*
X126953443Y-59595466D01*
X126869778Y-59751991D01*
X126840448Y-59787729D01*
X126757186Y-59889186D01*
X126655729Y-59972448D01*
X126619991Y-60001778D01*
X126463466Y-60085443D01*
X126293627Y-60136963D01*
X126227443Y-60143481D01*
X126161260Y-60150000D01*
X126072740Y-60150000D01*
X126006557Y-60143481D01*
X125940373Y-60136963D01*
X125770534Y-60085443D01*
X125614009Y-60001778D01*
X125578271Y-59972448D01*
X125476814Y-59889186D01*
X125393552Y-59787729D01*
X125364222Y-59751991D01*
X125280557Y-59595466D01*
X125229037Y-59425627D01*
X125211641Y-59249000D01*
X125229037Y-59072373D01*
X125280557Y-58902534D01*
X125364222Y-58746009D01*
X125393552Y-58710271D01*
X125476814Y-58608814D01*
X125578271Y-58525552D01*
X125614009Y-58496222D01*
X125770534Y-58412557D01*
X125940373Y-58361037D01*
X126006558Y-58354518D01*
X126072740Y-58348000D01*
X126161260Y-58348000D01*
X126227442Y-58354518D01*
X126227442Y-58354518D01*
G37*
G36*
X121147443Y-55814519D02*
G01*
X121213627Y-55821037D01*
X121383466Y-55872557D01*
X121539991Y-55956222D01*
X121575729Y-55985552D01*
X121677186Y-56068814D01*
X121760448Y-56170271D01*
X121789778Y-56206009D01*
X121873443Y-56362534D01*
X121924963Y-56532373D01*
X121942359Y-56709000D01*
X121924963Y-56885627D01*
X121873443Y-57055466D01*
X121789778Y-57211991D01*
X121760448Y-57247729D01*
X121677186Y-57349186D01*
X121575729Y-57432448D01*
X121539991Y-57461778D01*
X121383466Y-57545443D01*
X121213627Y-57596963D01*
X121147443Y-57603481D01*
X121081260Y-57610000D01*
X120992740Y-57610000D01*
X120926557Y-57603481D01*
X120860373Y-57596963D01*
X120690534Y-57545443D01*
X120534009Y-57461778D01*
X120498271Y-57432448D01*
X120396814Y-57349186D01*
X120313552Y-57247729D01*
X120284222Y-57211991D01*
X120200557Y-57055466D01*
X120149037Y-56885627D01*
X120131641Y-56709000D01*
X120149037Y-56532373D01*
X120200557Y-56362534D01*
X120284222Y-56206009D01*
X120313552Y-56170271D01*
X120396814Y-56068814D01*
X120498271Y-55985552D01*
X120534009Y-55956222D01*
X120690534Y-55872557D01*
X120860373Y-55821037D01*
X120926557Y-55814519D01*
X120992740Y-55808000D01*
X121081260Y-55808000D01*
X121147443Y-55814519D01*
X121147443Y-55814519D01*
G37*
G36*
X118607443Y-55814519D02*
G01*
X118673627Y-55821037D01*
X118843466Y-55872557D01*
X118999991Y-55956222D01*
X119035729Y-55985552D01*
X119137186Y-56068814D01*
X119220448Y-56170271D01*
X119249778Y-56206009D01*
X119333443Y-56362534D01*
X119384963Y-56532373D01*
X119402359Y-56709000D01*
X119384963Y-56885627D01*
X119333443Y-57055466D01*
X119249778Y-57211991D01*
X119220448Y-57247729D01*
X119137186Y-57349186D01*
X119035729Y-57432448D01*
X118999991Y-57461778D01*
X118843466Y-57545443D01*
X118673627Y-57596963D01*
X118607443Y-57603481D01*
X118541260Y-57610000D01*
X118452740Y-57610000D01*
X118386557Y-57603481D01*
X118320373Y-57596963D01*
X118150534Y-57545443D01*
X117994009Y-57461778D01*
X117958271Y-57432448D01*
X117856814Y-57349186D01*
X117773552Y-57247729D01*
X117744222Y-57211991D01*
X117660557Y-57055466D01*
X117609037Y-56885627D01*
X117591641Y-56709000D01*
X117609037Y-56532373D01*
X117660557Y-56362534D01*
X117744222Y-56206009D01*
X117773552Y-56170271D01*
X117856814Y-56068814D01*
X117958271Y-55985552D01*
X117994009Y-55956222D01*
X118150534Y-55872557D01*
X118320373Y-55821037D01*
X118386557Y-55814519D01*
X118452740Y-55808000D01*
X118541260Y-55808000D01*
X118607443Y-55814519D01*
X118607443Y-55814519D01*
G37*
G36*
X123687443Y-55814519D02*
G01*
X123753627Y-55821037D01*
X123923466Y-55872557D01*
X124079991Y-55956222D01*
X124115729Y-55985552D01*
X124217186Y-56068814D01*
X124300448Y-56170271D01*
X124329778Y-56206009D01*
X124413443Y-56362534D01*
X124464963Y-56532373D01*
X124482359Y-56709000D01*
X124464963Y-56885627D01*
X124413443Y-57055466D01*
X124329778Y-57211991D01*
X124300448Y-57247729D01*
X124217186Y-57349186D01*
X124115729Y-57432448D01*
X124079991Y-57461778D01*
X123923466Y-57545443D01*
X123753627Y-57596963D01*
X123687443Y-57603481D01*
X123621260Y-57610000D01*
X123532740Y-57610000D01*
X123466557Y-57603481D01*
X123400373Y-57596963D01*
X123230534Y-57545443D01*
X123074009Y-57461778D01*
X123038271Y-57432448D01*
X122936814Y-57349186D01*
X122853552Y-57247729D01*
X122824222Y-57211991D01*
X122740557Y-57055466D01*
X122689037Y-56885627D01*
X122671641Y-56709000D01*
X122689037Y-56532373D01*
X122740557Y-56362534D01*
X122824222Y-56206009D01*
X122853552Y-56170271D01*
X122936814Y-56068814D01*
X123038271Y-55985552D01*
X123074009Y-55956222D01*
X123230534Y-55872557D01*
X123400373Y-55821037D01*
X123466557Y-55814519D01*
X123532740Y-55808000D01*
X123621260Y-55808000D01*
X123687443Y-55814519D01*
X123687443Y-55814519D01*
G37*
G36*
X126227443Y-55814519D02*
G01*
X126293627Y-55821037D01*
X126463466Y-55872557D01*
X126619991Y-55956222D01*
X126655729Y-55985552D01*
X126757186Y-56068814D01*
X126840448Y-56170271D01*
X126869778Y-56206009D01*
X126953443Y-56362534D01*
X127004963Y-56532373D01*
X127022359Y-56709000D01*
X127004963Y-56885627D01*
X126953443Y-57055466D01*
X126869778Y-57211991D01*
X126840448Y-57247729D01*
X126757186Y-57349186D01*
X126655729Y-57432448D01*
X126619991Y-57461778D01*
X126463466Y-57545443D01*
X126293627Y-57596963D01*
X126227443Y-57603481D01*
X126161260Y-57610000D01*
X126072740Y-57610000D01*
X126006557Y-57603481D01*
X125940373Y-57596963D01*
X125770534Y-57545443D01*
X125614009Y-57461778D01*
X125578271Y-57432448D01*
X125476814Y-57349186D01*
X125393552Y-57247729D01*
X125364222Y-57211991D01*
X125280557Y-57055466D01*
X125229037Y-56885627D01*
X125211641Y-56709000D01*
X125229037Y-56532373D01*
X125280557Y-56362534D01*
X125364222Y-56206009D01*
X125393552Y-56170271D01*
X125476814Y-56068814D01*
X125578271Y-55985552D01*
X125614009Y-55956222D01*
X125770534Y-55872557D01*
X125940373Y-55821037D01*
X126006557Y-55814519D01*
X126072740Y-55808000D01*
X126161260Y-55808000D01*
X126227443Y-55814519D01*
X126227443Y-55814519D01*
G37*
G36*
X77737483Y-53477335D02*
G01*
X77906240Y-53547236D01*
X78058118Y-53648718D01*
X78187282Y-53777882D01*
X78288764Y-53929760D01*
X78358665Y-54098517D01*
X78394300Y-54277668D01*
X78394300Y-54460332D01*
X78358665Y-54639483D01*
X78288764Y-54808240D01*
X78187282Y-54960118D01*
X78058118Y-55089282D01*
X77906240Y-55190764D01*
X77737483Y-55260665D01*
X77558332Y-55296300D01*
X77375668Y-55296300D01*
X77196517Y-55260665D01*
X77027760Y-55190764D01*
X76875882Y-55089282D01*
X76746718Y-54960118D01*
X76645236Y-54808240D01*
X76575335Y-54639483D01*
X76539700Y-54460332D01*
X76539700Y-54277668D01*
X76575335Y-54098517D01*
X76645236Y-53929760D01*
X76746718Y-53777882D01*
X76875882Y-53648718D01*
X77027760Y-53547236D01*
X77196517Y-53477335D01*
X77375668Y-53441700D01*
X77558332Y-53441700D01*
X77737483Y-53477335D01*
X77737483Y-53477335D01*
G37*
G36*
X75197483Y-53477335D02*
G01*
X75366240Y-53547236D01*
X75518118Y-53648718D01*
X75647282Y-53777882D01*
X75748764Y-53929760D01*
X75818665Y-54098517D01*
X75854300Y-54277668D01*
X75854300Y-54460332D01*
X75818665Y-54639483D01*
X75748764Y-54808240D01*
X75647282Y-54960118D01*
X75518118Y-55089282D01*
X75366240Y-55190764D01*
X75197483Y-55260665D01*
X75018332Y-55296300D01*
X74835668Y-55296300D01*
X74656517Y-55260665D01*
X74487760Y-55190764D01*
X74335882Y-55089282D01*
X74206718Y-54960118D01*
X74105236Y-54808240D01*
X74035335Y-54639483D01*
X73999700Y-54460332D01*
X73999700Y-54277668D01*
X74035335Y-54098517D01*
X74105236Y-53929760D01*
X74206718Y-53777882D01*
X74335882Y-53648718D01*
X74487760Y-53547236D01*
X74656517Y-53477335D01*
X74835668Y-53441700D01*
X75018332Y-53441700D01*
X75197483Y-53477335D01*
X75197483Y-53477335D01*
G37*
G36*
X72657483Y-53477335D02*
G01*
X72826240Y-53547236D01*
X72978118Y-53648718D01*
X73107282Y-53777882D01*
X73208764Y-53929760D01*
X73278665Y-54098517D01*
X73314300Y-54277668D01*
X73314300Y-54460332D01*
X73278665Y-54639483D01*
X73208764Y-54808240D01*
X73107282Y-54960118D01*
X72978118Y-55089282D01*
X72826240Y-55190764D01*
X72657483Y-55260665D01*
X72478332Y-55296300D01*
X72295668Y-55296300D01*
X72116517Y-55260665D01*
X71947760Y-55190764D01*
X71795882Y-55089282D01*
X71666718Y-54960118D01*
X71565236Y-54808240D01*
X71495335Y-54639483D01*
X71459700Y-54460332D01*
X71459700Y-54277668D01*
X71495335Y-54098517D01*
X71565236Y-53929760D01*
X71666718Y-53777882D01*
X71795882Y-53648718D01*
X71947760Y-53547236D01*
X72116517Y-53477335D01*
X72295668Y-53441700D01*
X72478332Y-53441700D01*
X72657483Y-53477335D01*
X72657483Y-53477335D01*
G37*
G36*
X70117483Y-53477335D02*
G01*
X70286240Y-53547236D01*
X70438118Y-53648718D01*
X70567282Y-53777882D01*
X70668764Y-53929760D01*
X70738665Y-54098517D01*
X70774300Y-54277668D01*
X70774300Y-54460332D01*
X70738665Y-54639483D01*
X70668764Y-54808240D01*
X70567282Y-54960118D01*
X70438118Y-55089282D01*
X70286240Y-55190764D01*
X70117483Y-55260665D01*
X69938332Y-55296300D01*
X69755668Y-55296300D01*
X69576517Y-55260665D01*
X69407760Y-55190764D01*
X69255882Y-55089282D01*
X69126718Y-54960118D01*
X69025236Y-54808240D01*
X68955335Y-54639483D01*
X68919700Y-54460332D01*
X68919700Y-54277668D01*
X68955335Y-54098517D01*
X69025236Y-53929760D01*
X69126718Y-53777882D01*
X69255882Y-53648718D01*
X69407760Y-53547236D01*
X69576517Y-53477335D01*
X69755668Y-53441700D01*
X69938332Y-53441700D01*
X70117483Y-53477335D01*
X70117483Y-53477335D01*
G37*
G36*
X59957483Y-53477335D02*
G01*
X60126240Y-53547236D01*
X60278118Y-53648718D01*
X60407282Y-53777882D01*
X60508764Y-53929760D01*
X60578665Y-54098517D01*
X60614300Y-54277668D01*
X60614300Y-54460332D01*
X60578665Y-54639483D01*
X60508764Y-54808240D01*
X60407282Y-54960118D01*
X60278118Y-55089282D01*
X60126240Y-55190764D01*
X59957483Y-55260665D01*
X59778332Y-55296300D01*
X59595668Y-55296300D01*
X59416517Y-55260665D01*
X59247760Y-55190764D01*
X59095882Y-55089282D01*
X58966718Y-54960118D01*
X58865236Y-54808240D01*
X58795335Y-54639483D01*
X58759700Y-54460332D01*
X58759700Y-54277668D01*
X58795335Y-54098517D01*
X58865236Y-53929760D01*
X58966718Y-53777882D01*
X59095882Y-53648718D01*
X59247760Y-53547236D01*
X59416517Y-53477335D01*
X59595668Y-53441700D01*
X59778332Y-53441700D01*
X59957483Y-53477335D01*
X59957483Y-53477335D01*
G37*
G36*
X67577483Y-53477335D02*
G01*
X67746240Y-53547236D01*
X67898118Y-53648718D01*
X68027282Y-53777882D01*
X68128764Y-53929760D01*
X68198665Y-54098517D01*
X68234300Y-54277668D01*
X68234300Y-54460332D01*
X68198665Y-54639483D01*
X68128764Y-54808240D01*
X68027282Y-54960118D01*
X67898118Y-55089282D01*
X67746240Y-55190764D01*
X67577483Y-55260665D01*
X67398332Y-55296300D01*
X67215668Y-55296300D01*
X67036517Y-55260665D01*
X66867760Y-55190764D01*
X66715882Y-55089282D01*
X66586718Y-54960118D01*
X66485236Y-54808240D01*
X66415335Y-54639483D01*
X66379700Y-54460332D01*
X66379700Y-54277668D01*
X66415335Y-54098517D01*
X66485236Y-53929760D01*
X66586718Y-53777882D01*
X66715882Y-53648718D01*
X66867760Y-53547236D01*
X67036517Y-53477335D01*
X67215668Y-53441700D01*
X67398332Y-53441700D01*
X67577483Y-53477335D01*
X67577483Y-53477335D01*
G37*
G36*
X62497483Y-53477335D02*
G01*
X62666240Y-53547236D01*
X62818118Y-53648718D01*
X62947282Y-53777882D01*
X63048764Y-53929760D01*
X63118665Y-54098517D01*
X63154300Y-54277668D01*
X63154300Y-54460332D01*
X63118665Y-54639483D01*
X63048764Y-54808240D01*
X62947282Y-54960118D01*
X62818118Y-55089282D01*
X62666240Y-55190764D01*
X62497483Y-55260665D01*
X62318332Y-55296300D01*
X62135668Y-55296300D01*
X61956517Y-55260665D01*
X61787760Y-55190764D01*
X61635882Y-55089282D01*
X61506718Y-54960118D01*
X61405236Y-54808240D01*
X61335335Y-54639483D01*
X61299700Y-54460332D01*
X61299700Y-54277668D01*
X61335335Y-54098517D01*
X61405236Y-53929760D01*
X61506718Y-53777882D01*
X61635882Y-53648718D01*
X61787760Y-53547236D01*
X61956517Y-53477335D01*
X62135668Y-53441700D01*
X62318332Y-53441700D01*
X62497483Y-53477335D01*
X62497483Y-53477335D01*
G37*
G36*
X57417483Y-53477335D02*
G01*
X57586240Y-53547236D01*
X57738118Y-53648718D01*
X57867282Y-53777882D01*
X57968764Y-53929760D01*
X58038665Y-54098517D01*
X58074300Y-54277668D01*
X58074300Y-54460332D01*
X58038665Y-54639483D01*
X57968764Y-54808240D01*
X57867282Y-54960118D01*
X57738118Y-55089282D01*
X57586240Y-55190764D01*
X57417483Y-55260665D01*
X57238332Y-55296300D01*
X57055668Y-55296300D01*
X56876517Y-55260665D01*
X56707760Y-55190764D01*
X56555882Y-55089282D01*
X56426718Y-54960118D01*
X56325236Y-54808240D01*
X56255335Y-54639483D01*
X56219700Y-54460332D01*
X56219700Y-54277668D01*
X56255335Y-54098517D01*
X56325236Y-53929760D01*
X56426718Y-53777882D01*
X56555882Y-53648718D01*
X56707760Y-53547236D01*
X56876517Y-53477335D01*
X57055668Y-53441700D01*
X57238332Y-53441700D01*
X57417483Y-53477335D01*
X57417483Y-53477335D01*
G37*
G36*
X54877483Y-53477335D02*
G01*
X55046240Y-53547236D01*
X55198118Y-53648718D01*
X55327282Y-53777882D01*
X55428764Y-53929760D01*
X55498665Y-54098517D01*
X55534300Y-54277668D01*
X55534300Y-54460332D01*
X55498665Y-54639483D01*
X55428764Y-54808240D01*
X55327282Y-54960118D01*
X55198118Y-55089282D01*
X55046240Y-55190764D01*
X54877483Y-55260665D01*
X54698332Y-55296300D01*
X54515668Y-55296300D01*
X54336517Y-55260665D01*
X54167760Y-55190764D01*
X54015882Y-55089282D01*
X53886718Y-54960118D01*
X53785236Y-54808240D01*
X53715335Y-54639483D01*
X53679700Y-54460332D01*
X53679700Y-54277668D01*
X53715335Y-54098517D01*
X53785236Y-53929760D01*
X53886718Y-53777882D01*
X54015882Y-53648718D01*
X54167760Y-53547236D01*
X54336517Y-53477335D01*
X54515668Y-53441700D01*
X54698332Y-53441700D01*
X54877483Y-53477335D01*
X54877483Y-53477335D01*
G37*
G36*
X52337483Y-53477335D02*
G01*
X52506240Y-53547236D01*
X52658118Y-53648718D01*
X52787282Y-53777882D01*
X52888764Y-53929760D01*
X52958665Y-54098517D01*
X52994300Y-54277668D01*
X52994300Y-54460332D01*
X52958665Y-54639483D01*
X52888764Y-54808240D01*
X52787282Y-54960118D01*
X52658118Y-55089282D01*
X52506240Y-55190764D01*
X52337483Y-55260665D01*
X52158332Y-55296300D01*
X51975668Y-55296300D01*
X51796517Y-55260665D01*
X51627760Y-55190764D01*
X51475882Y-55089282D01*
X51346718Y-54960118D01*
X51245236Y-54808240D01*
X51175335Y-54639483D01*
X51139700Y-54460332D01*
X51139700Y-54277668D01*
X51175335Y-54098517D01*
X51245236Y-53929760D01*
X51346718Y-53777882D01*
X51475882Y-53648718D01*
X51627760Y-53547236D01*
X51796517Y-53477335D01*
X51975668Y-53441700D01*
X52158332Y-53441700D01*
X52337483Y-53477335D01*
X52337483Y-53477335D01*
G37*
G36*
X50454300Y-55296300D02*
G01*
X48599700Y-55296300D01*
X48599700Y-53441700D01*
X50454300Y-53441700D01*
X50454300Y-55296300D01*
X50454300Y-55296300D01*
G37*
G36*
X65037483Y-53477335D02*
G01*
X65206240Y-53547236D01*
X65358118Y-53648718D01*
X65487282Y-53777882D01*
X65588764Y-53929760D01*
X65658665Y-54098517D01*
X65694300Y-54277668D01*
X65694300Y-54460332D01*
X65658665Y-54639483D01*
X65588764Y-54808240D01*
X65487282Y-54960118D01*
X65358118Y-55089282D01*
X65206240Y-55190764D01*
X65037483Y-55260665D01*
X64858332Y-55296300D01*
X64675668Y-55296300D01*
X64496517Y-55260665D01*
X64327760Y-55190764D01*
X64175882Y-55089282D01*
X64046718Y-54960118D01*
X63945236Y-54808240D01*
X63875335Y-54639483D01*
X63839700Y-54460332D01*
X63839700Y-54277668D01*
X63875335Y-54098517D01*
X63945236Y-53929760D01*
X64046718Y-53777882D01*
X64175882Y-53648718D01*
X64327760Y-53547236D01*
X64496517Y-53477335D01*
X64675668Y-53441700D01*
X64858332Y-53441700D01*
X65037483Y-53477335D01*
X65037483Y-53477335D01*
G37*
G36*
X81898000Y-52150000D02*
G01*
X80096000Y-52150000D01*
X80096000Y-50348000D01*
X81898000Y-50348000D01*
X81898000Y-52150000D01*
X81898000Y-52150000D01*
G37*
G36*
X81107442Y-47814518D02*
G01*
X81173627Y-47821037D01*
X81343466Y-47872557D01*
X81499991Y-47956222D01*
X81535729Y-47985552D01*
X81637186Y-48068814D01*
X81720448Y-48170271D01*
X81749778Y-48206009D01*
X81833443Y-48362534D01*
X81884963Y-48532373D01*
X81902359Y-48709000D01*
X81884963Y-48885627D01*
X81833443Y-49055466D01*
X81749778Y-49211991D01*
X81720448Y-49247729D01*
X81637186Y-49349186D01*
X81535729Y-49432448D01*
X81499991Y-49461778D01*
X81343466Y-49545443D01*
X81173627Y-49596963D01*
X81107442Y-49603482D01*
X81041260Y-49610000D01*
X80952740Y-49610000D01*
X80886558Y-49603482D01*
X80820373Y-49596963D01*
X80650534Y-49545443D01*
X80494009Y-49461778D01*
X80458271Y-49432448D01*
X80356814Y-49349186D01*
X80273552Y-49247729D01*
X80244222Y-49211991D01*
X80160557Y-49055466D01*
X80109037Y-48885627D01*
X80091641Y-48709000D01*
X80109037Y-48532373D01*
X80160557Y-48362534D01*
X80244222Y-48206009D01*
X80273552Y-48170271D01*
X80356814Y-48068814D01*
X80458271Y-47985552D01*
X80494009Y-47956222D01*
X80650534Y-47872557D01*
X80820373Y-47821037D01*
X80886557Y-47814519D01*
X80952740Y-47808000D01*
X81041260Y-47808000D01*
X81107442Y-47814518D01*
X81107442Y-47814518D01*
G37*
G36*
X81107443Y-45274519D02*
G01*
X81173627Y-45281037D01*
X81343466Y-45332557D01*
X81499991Y-45416222D01*
X81535729Y-45445552D01*
X81637186Y-45528814D01*
X81720448Y-45630271D01*
X81749778Y-45666009D01*
X81833443Y-45822534D01*
X81884963Y-45992373D01*
X81902359Y-46169000D01*
X81884963Y-46345627D01*
X81833443Y-46515466D01*
X81749778Y-46671991D01*
X81720448Y-46707729D01*
X81637186Y-46809186D01*
X81535729Y-46892448D01*
X81499991Y-46921778D01*
X81343466Y-47005443D01*
X81173627Y-47056963D01*
X81107443Y-47063481D01*
X81041260Y-47070000D01*
X80952740Y-47070000D01*
X80886558Y-47063482D01*
X80820373Y-47056963D01*
X80650534Y-47005443D01*
X80494009Y-46921778D01*
X80458271Y-46892448D01*
X80356814Y-46809186D01*
X80273552Y-46707729D01*
X80244222Y-46671991D01*
X80160557Y-46515466D01*
X80109037Y-46345627D01*
X80091641Y-46169000D01*
X80109037Y-45992373D01*
X80160557Y-45822534D01*
X80244222Y-45666009D01*
X80273552Y-45630271D01*
X80356814Y-45528814D01*
X80458271Y-45445552D01*
X80494009Y-45416222D01*
X80650534Y-45332557D01*
X80820373Y-45281037D01*
X80886557Y-45274519D01*
X80952740Y-45268000D01*
X81041260Y-45268000D01*
X81107443Y-45274519D01*
X81107443Y-45274519D01*
G37*
G36*
X81107442Y-42734518D02*
G01*
X81173627Y-42741037D01*
X81343466Y-42792557D01*
X81499991Y-42876222D01*
X81535729Y-42905552D01*
X81637186Y-42988814D01*
X81720448Y-43090271D01*
X81749778Y-43126009D01*
X81833443Y-43282534D01*
X81884963Y-43452373D01*
X81902359Y-43629000D01*
X81884963Y-43805627D01*
X81833443Y-43975466D01*
X81749778Y-44131991D01*
X81720448Y-44167729D01*
X81637186Y-44269186D01*
X81535729Y-44352448D01*
X81499991Y-44381778D01*
X81343466Y-44465443D01*
X81173627Y-44516963D01*
X81107442Y-44523482D01*
X81041260Y-44530000D01*
X80952740Y-44530000D01*
X80886558Y-44523482D01*
X80820373Y-44516963D01*
X80650534Y-44465443D01*
X80494009Y-44381778D01*
X80458271Y-44352448D01*
X80356814Y-44269186D01*
X80273552Y-44167729D01*
X80244222Y-44131991D01*
X80160557Y-43975466D01*
X80109037Y-43805627D01*
X80091641Y-43629000D01*
X80109037Y-43452373D01*
X80160557Y-43282534D01*
X80244222Y-43126009D01*
X80273552Y-43090271D01*
X80356814Y-42988814D01*
X80458271Y-42905552D01*
X80494009Y-42876222D01*
X80650534Y-42792557D01*
X80820373Y-42741037D01*
X80886558Y-42734518D01*
X80952740Y-42728000D01*
X81041260Y-42728000D01*
X81107442Y-42734518D01*
X81107442Y-42734518D01*
G37*
G36*
X81107443Y-40194519D02*
G01*
X81173627Y-40201037D01*
X81343466Y-40252557D01*
X81499991Y-40336222D01*
X81535729Y-40365552D01*
X81637186Y-40448814D01*
X81720448Y-40550271D01*
X81749778Y-40586009D01*
X81833443Y-40742534D01*
X81884963Y-40912373D01*
X81902359Y-41089000D01*
X81884963Y-41265627D01*
X81833443Y-41435466D01*
X81749778Y-41591991D01*
X81720448Y-41627729D01*
X81637186Y-41729186D01*
X81535729Y-41812448D01*
X81499991Y-41841778D01*
X81343466Y-41925443D01*
X81173627Y-41976963D01*
X81107443Y-41983481D01*
X81041260Y-41990000D01*
X80952740Y-41990000D01*
X80886557Y-41983481D01*
X80820373Y-41976963D01*
X80650534Y-41925443D01*
X80494009Y-41841778D01*
X80458271Y-41812448D01*
X80356814Y-41729186D01*
X80273552Y-41627729D01*
X80244222Y-41591991D01*
X80160557Y-41435466D01*
X80109037Y-41265627D01*
X80091641Y-41089000D01*
X80109037Y-40912373D01*
X80160557Y-40742534D01*
X80244222Y-40586009D01*
X80273552Y-40550271D01*
X80356814Y-40448814D01*
X80458271Y-40365552D01*
X80494009Y-40336222D01*
X80650534Y-40252557D01*
X80820373Y-40201037D01*
X80886557Y-40194519D01*
X80952740Y-40188000D01*
X81041260Y-40188000D01*
X81107443Y-40194519D01*
X81107443Y-40194519D01*
G37*
G36*
X59957483Y-38237335D02*
G01*
X60126240Y-38307236D01*
X60278118Y-38408718D01*
X60407282Y-38537882D01*
X60508764Y-38689760D01*
X60578665Y-38858517D01*
X60614300Y-39037668D01*
X60614300Y-39220332D01*
X60578665Y-39399483D01*
X60508764Y-39568240D01*
X60407282Y-39720118D01*
X60278118Y-39849282D01*
X60126240Y-39950764D01*
X59957483Y-40020665D01*
X59778332Y-40056300D01*
X59595668Y-40056300D01*
X59416517Y-40020665D01*
X59247760Y-39950764D01*
X59095882Y-39849282D01*
X58966718Y-39720118D01*
X58865236Y-39568240D01*
X58795335Y-39399483D01*
X58759700Y-39220332D01*
X58759700Y-39037668D01*
X58795335Y-38858517D01*
X58865236Y-38689760D01*
X58966718Y-38537882D01*
X59095882Y-38408718D01*
X59247760Y-38307236D01*
X59416517Y-38237335D01*
X59595668Y-38201700D01*
X59778332Y-38201700D01*
X59957483Y-38237335D01*
X59957483Y-38237335D01*
G37*
G36*
X49797483Y-38237335D02*
G01*
X49966240Y-38307236D01*
X50118118Y-38408718D01*
X50247282Y-38537882D01*
X50348764Y-38689760D01*
X50418665Y-38858517D01*
X50454300Y-39037668D01*
X50454300Y-39220332D01*
X50418665Y-39399483D01*
X50348764Y-39568240D01*
X50247282Y-39720118D01*
X50118118Y-39849282D01*
X49966240Y-39950764D01*
X49797483Y-40020665D01*
X49618332Y-40056300D01*
X49435668Y-40056300D01*
X49256517Y-40020665D01*
X49087760Y-39950764D01*
X48935882Y-39849282D01*
X48806718Y-39720118D01*
X48705236Y-39568240D01*
X48635335Y-39399483D01*
X48599700Y-39220332D01*
X48599700Y-39037668D01*
X48635335Y-38858517D01*
X48705236Y-38689760D01*
X48806718Y-38537882D01*
X48935882Y-38408718D01*
X49087760Y-38307236D01*
X49256517Y-38237335D01*
X49435668Y-38201700D01*
X49618332Y-38201700D01*
X49797483Y-38237335D01*
X49797483Y-38237335D01*
G37*
G36*
X62497483Y-38237335D02*
G01*
X62666240Y-38307236D01*
X62818118Y-38408718D01*
X62947282Y-38537882D01*
X63048764Y-38689760D01*
X63118665Y-38858517D01*
X63154300Y-39037668D01*
X63154300Y-39220332D01*
X63118665Y-39399483D01*
X63048764Y-39568240D01*
X62947282Y-39720118D01*
X62818118Y-39849282D01*
X62666240Y-39950764D01*
X62497483Y-40020665D01*
X62318332Y-40056300D01*
X62135668Y-40056300D01*
X61956517Y-40020665D01*
X61787760Y-39950764D01*
X61635882Y-39849282D01*
X61506718Y-39720118D01*
X61405236Y-39568240D01*
X61335335Y-39399483D01*
X61299700Y-39220332D01*
X61299700Y-39037668D01*
X61335335Y-38858517D01*
X61405236Y-38689760D01*
X61506718Y-38537882D01*
X61635882Y-38408718D01*
X61787760Y-38307236D01*
X61956517Y-38237335D01*
X62135668Y-38201700D01*
X62318332Y-38201700D01*
X62497483Y-38237335D01*
X62497483Y-38237335D01*
G37*
G36*
X65037483Y-38237335D02*
G01*
X65206240Y-38307236D01*
X65358118Y-38408718D01*
X65487282Y-38537882D01*
X65588764Y-38689760D01*
X65658665Y-38858517D01*
X65694300Y-39037668D01*
X65694300Y-39220332D01*
X65658665Y-39399483D01*
X65588764Y-39568240D01*
X65487282Y-39720118D01*
X65358118Y-39849282D01*
X65206240Y-39950764D01*
X65037483Y-40020665D01*
X64858332Y-40056300D01*
X64675668Y-40056300D01*
X64496517Y-40020665D01*
X64327760Y-39950764D01*
X64175882Y-39849282D01*
X64046718Y-39720118D01*
X63945236Y-39568240D01*
X63875335Y-39399483D01*
X63839700Y-39220332D01*
X63839700Y-39037668D01*
X63875335Y-38858517D01*
X63945236Y-38689760D01*
X64046718Y-38537882D01*
X64175882Y-38408718D01*
X64327760Y-38307236D01*
X64496517Y-38237335D01*
X64675668Y-38201700D01*
X64858332Y-38201700D01*
X65037483Y-38237335D01*
X65037483Y-38237335D01*
G37*
G36*
X67577483Y-38237335D02*
G01*
X67746240Y-38307236D01*
X67898118Y-38408718D01*
X68027282Y-38537882D01*
X68128764Y-38689760D01*
X68198665Y-38858517D01*
X68234300Y-39037668D01*
X68234300Y-39220332D01*
X68198665Y-39399483D01*
X68128764Y-39568240D01*
X68027282Y-39720118D01*
X67898118Y-39849282D01*
X67746240Y-39950764D01*
X67577483Y-40020665D01*
X67398332Y-40056300D01*
X67215668Y-40056300D01*
X67036517Y-40020665D01*
X66867760Y-39950764D01*
X66715882Y-39849282D01*
X66586718Y-39720118D01*
X66485236Y-39568240D01*
X66415335Y-39399483D01*
X66379700Y-39220332D01*
X66379700Y-39037668D01*
X66415335Y-38858517D01*
X66485236Y-38689760D01*
X66586718Y-38537882D01*
X66715882Y-38408718D01*
X66867760Y-38307236D01*
X67036517Y-38237335D01*
X67215668Y-38201700D01*
X67398332Y-38201700D01*
X67577483Y-38237335D01*
X67577483Y-38237335D01*
G37*
G36*
X70117483Y-38237335D02*
G01*
X70286240Y-38307236D01*
X70438118Y-38408718D01*
X70567282Y-38537882D01*
X70668764Y-38689760D01*
X70738665Y-38858517D01*
X70774300Y-39037668D01*
X70774300Y-39220332D01*
X70738665Y-39399483D01*
X70668764Y-39568240D01*
X70567282Y-39720118D01*
X70438118Y-39849282D01*
X70286240Y-39950764D01*
X70117483Y-40020665D01*
X69938332Y-40056300D01*
X69755668Y-40056300D01*
X69576517Y-40020665D01*
X69407760Y-39950764D01*
X69255882Y-39849282D01*
X69126718Y-39720118D01*
X69025236Y-39568240D01*
X68955335Y-39399483D01*
X68919700Y-39220332D01*
X68919700Y-39037668D01*
X68955335Y-38858517D01*
X69025236Y-38689760D01*
X69126718Y-38537882D01*
X69255882Y-38408718D01*
X69407760Y-38307236D01*
X69576517Y-38237335D01*
X69755668Y-38201700D01*
X69938332Y-38201700D01*
X70117483Y-38237335D01*
X70117483Y-38237335D01*
G37*
G36*
X72657483Y-38237335D02*
G01*
X72826240Y-38307236D01*
X72978118Y-38408718D01*
X73107282Y-38537882D01*
X73208764Y-38689760D01*
X73278665Y-38858517D01*
X73314300Y-39037668D01*
X73314300Y-39220332D01*
X73278665Y-39399483D01*
X73208764Y-39568240D01*
X73107282Y-39720118D01*
X72978118Y-39849282D01*
X72826240Y-39950764D01*
X72657483Y-40020665D01*
X72478332Y-40056300D01*
X72295668Y-40056300D01*
X72116517Y-40020665D01*
X71947760Y-39950764D01*
X71795882Y-39849282D01*
X71666718Y-39720118D01*
X71565236Y-39568240D01*
X71495335Y-39399483D01*
X71459700Y-39220332D01*
X71459700Y-39037668D01*
X71495335Y-38858517D01*
X71565236Y-38689760D01*
X71666718Y-38537882D01*
X71795882Y-38408718D01*
X71947760Y-38307236D01*
X72116517Y-38237335D01*
X72295668Y-38201700D01*
X72478332Y-38201700D01*
X72657483Y-38237335D01*
X72657483Y-38237335D01*
G37*
G36*
X75197483Y-38237335D02*
G01*
X75366240Y-38307236D01*
X75518118Y-38408718D01*
X75647282Y-38537882D01*
X75748764Y-38689760D01*
X75818665Y-38858517D01*
X75854300Y-39037668D01*
X75854300Y-39220332D01*
X75818665Y-39399483D01*
X75748764Y-39568240D01*
X75647282Y-39720118D01*
X75518118Y-39849282D01*
X75366240Y-39950764D01*
X75197483Y-40020665D01*
X75018332Y-40056300D01*
X74835668Y-40056300D01*
X74656517Y-40020665D01*
X74487760Y-39950764D01*
X74335882Y-39849282D01*
X74206718Y-39720118D01*
X74105236Y-39568240D01*
X74035335Y-39399483D01*
X73999700Y-39220332D01*
X73999700Y-39037668D01*
X74035335Y-38858517D01*
X74105236Y-38689760D01*
X74206718Y-38537882D01*
X74335882Y-38408718D01*
X74487760Y-38307236D01*
X74656517Y-38237335D01*
X74835668Y-38201700D01*
X75018332Y-38201700D01*
X75197483Y-38237335D01*
X75197483Y-38237335D01*
G37*
G36*
X57417483Y-38237335D02*
G01*
X57586240Y-38307236D01*
X57738118Y-38408718D01*
X57867282Y-38537882D01*
X57968764Y-38689760D01*
X58038665Y-38858517D01*
X58074300Y-39037668D01*
X58074300Y-39220332D01*
X58038665Y-39399483D01*
X57968764Y-39568240D01*
X57867282Y-39720118D01*
X57738118Y-39849282D01*
X57586240Y-39950764D01*
X57417483Y-40020665D01*
X57238332Y-40056300D01*
X57055668Y-40056300D01*
X56876517Y-40020665D01*
X56707760Y-39950764D01*
X56555882Y-39849282D01*
X56426718Y-39720118D01*
X56325236Y-39568240D01*
X56255335Y-39399483D01*
X56219700Y-39220332D01*
X56219700Y-39037668D01*
X56255335Y-38858517D01*
X56325236Y-38689760D01*
X56426718Y-38537882D01*
X56555882Y-38408718D01*
X56707760Y-38307236D01*
X56876517Y-38237335D01*
X57055668Y-38201700D01*
X57238332Y-38201700D01*
X57417483Y-38237335D01*
X57417483Y-38237335D01*
G37*
G36*
X54877483Y-38237335D02*
G01*
X55046240Y-38307236D01*
X55198118Y-38408718D01*
X55327282Y-38537882D01*
X55428764Y-38689760D01*
X55498665Y-38858517D01*
X55534300Y-39037668D01*
X55534300Y-39220332D01*
X55498665Y-39399483D01*
X55428764Y-39568240D01*
X55327282Y-39720118D01*
X55198118Y-39849282D01*
X55046240Y-39950764D01*
X54877483Y-40020665D01*
X54698332Y-40056300D01*
X54515668Y-40056300D01*
X54336517Y-40020665D01*
X54167760Y-39950764D01*
X54015882Y-39849282D01*
X53886718Y-39720118D01*
X53785236Y-39568240D01*
X53715335Y-39399483D01*
X53679700Y-39220332D01*
X53679700Y-39037668D01*
X53715335Y-38858517D01*
X53785236Y-38689760D01*
X53886718Y-38537882D01*
X54015882Y-38408718D01*
X54167760Y-38307236D01*
X54336517Y-38237335D01*
X54515668Y-38201700D01*
X54698332Y-38201700D01*
X54877483Y-38237335D01*
X54877483Y-38237335D01*
G37*
G36*
X52337483Y-38237335D02*
G01*
X52506240Y-38307236D01*
X52658118Y-38408718D01*
X52787282Y-38537882D01*
X52888764Y-38689760D01*
X52958665Y-38858517D01*
X52994300Y-39037668D01*
X52994300Y-39220332D01*
X52958665Y-39399483D01*
X52888764Y-39568240D01*
X52787282Y-39720118D01*
X52658118Y-39849282D01*
X52506240Y-39950764D01*
X52337483Y-40020665D01*
X52158332Y-40056300D01*
X51975668Y-40056300D01*
X51796517Y-40020665D01*
X51627760Y-39950764D01*
X51475882Y-39849282D01*
X51346718Y-39720118D01*
X51245236Y-39568240D01*
X51175335Y-39399483D01*
X51139700Y-39220332D01*
X51139700Y-39037668D01*
X51175335Y-38858517D01*
X51245236Y-38689760D01*
X51346718Y-38537882D01*
X51475882Y-38408718D01*
X51627760Y-38307236D01*
X51796517Y-38237335D01*
X51975668Y-38201700D01*
X52158332Y-38201700D01*
X52337483Y-38237335D01*
X52337483Y-38237335D01*
G37*
G36*
X77737483Y-38237335D02*
G01*
X77906240Y-38307236D01*
X78058118Y-38408718D01*
X78187282Y-38537882D01*
X78288764Y-38689760D01*
X78358665Y-38858517D01*
X78394300Y-39037668D01*
X78394300Y-39220332D01*
X78358665Y-39399483D01*
X78288764Y-39568240D01*
X78187282Y-39720118D01*
X78058118Y-39849282D01*
X77906240Y-39950764D01*
X77737483Y-40020665D01*
X77558332Y-40056300D01*
X77375668Y-40056300D01*
X77196517Y-40020665D01*
X77027760Y-39950764D01*
X76875882Y-39849282D01*
X76746718Y-39720118D01*
X76645236Y-39568240D01*
X76575335Y-39399483D01*
X76539700Y-39220332D01*
X76539700Y-39037668D01*
X76575335Y-38858517D01*
X76645236Y-38689760D01*
X76746718Y-38537882D01*
X76875882Y-38408718D01*
X77027760Y-38307236D01*
X77196517Y-38237335D01*
X77375668Y-38201700D01*
X77558332Y-38201700D01*
X77737483Y-38237335D01*
X77737483Y-38237335D01*
G37*
G36*
X81107442Y-37654518D02*
G01*
X81173627Y-37661037D01*
X81343466Y-37712557D01*
X81499991Y-37796222D01*
X81535729Y-37825552D01*
X81637186Y-37908814D01*
X81720448Y-38010271D01*
X81749778Y-38046009D01*
X81833443Y-38202534D01*
X81884963Y-38372373D01*
X81902359Y-38549000D01*
X81884963Y-38725627D01*
X81833443Y-38895466D01*
X81749778Y-39051991D01*
X81720448Y-39087729D01*
X81637186Y-39189186D01*
X81535729Y-39272448D01*
X81499991Y-39301778D01*
X81343466Y-39385443D01*
X81173627Y-39436963D01*
X81107442Y-39443482D01*
X81041260Y-39450000D01*
X80952740Y-39450000D01*
X80886558Y-39443482D01*
X80820373Y-39436963D01*
X80650534Y-39385443D01*
X80494009Y-39301778D01*
X80458271Y-39272448D01*
X80356814Y-39189186D01*
X80273552Y-39087729D01*
X80244222Y-39051991D01*
X80160557Y-38895466D01*
X80109037Y-38725627D01*
X80091641Y-38549000D01*
X80109037Y-38372373D01*
X80160557Y-38202534D01*
X80244222Y-38046009D01*
X80273552Y-38010271D01*
X80356814Y-37908814D01*
X80458271Y-37825552D01*
X80494009Y-37796222D01*
X80650534Y-37712557D01*
X80820373Y-37661037D01*
X80886558Y-37654518D01*
X80952740Y-37648000D01*
X81041260Y-37648000D01*
X81107442Y-37654518D01*
X81107442Y-37654518D01*
G37*
M02*
