G04 #@! TF.GenerationSoftware,KiCad,Pcbnew,5.1.3-ffb9f22~84~ubuntu19.04.1*
G04 #@! TF.CreationDate,2019-08-05T11:02:01+08:00*
G04 #@! TF.ProjectId,fissure,66697373-7572-4652-9e6b-696361645f70,rev?*
G04 #@! TF.SameCoordinates,Original*
G04 #@! TF.FileFunction,Copper,L2,Bot*
G04 #@! TF.FilePolarity,Positive*
%FSLAX46Y46*%
G04 Gerber Fmt 4.6, Leading zero omitted, Abs format (unit mm)*
G04 Created by KiCad (PCBNEW 5.1.3-ffb9f22~84~ubuntu19.04.1) date 2019-08-05 11:02:01*
%MOMM*%
%LPD*%
G04 APERTURE LIST*
%ADD10C,1.600000*%
%ADD11R,1.600000X1.600000*%
%ADD12R,0.500000X2.500000*%
%ADD13R,1.200000X1.200000*%
%ADD14C,2.000000*%
%ADD15C,1.752600*%
%ADD16R,1.752600X1.752600*%
%ADD17R,2.500000X0.500000*%
%ADD18R,1.200000X2.500000*%
%ADD19C,0.800000*%
%ADD20C,0.508000*%
%ADD21C,1.270000*%
G04 APERTURE END LIST*
D10*
X59309000Y-73316000D03*
D11*
X59309000Y-81116000D03*
D12*
X59309000Y-74516000D03*
D13*
X59309000Y-75641000D03*
X59309000Y-78791000D03*
D12*
X59309000Y-79916000D03*
D14*
X54784000Y-39126000D03*
X49784000Y-37026000D03*
X44784000Y-39126000D03*
X73834000Y-77226000D03*
X68834000Y-75126000D03*
X63834000Y-77226000D03*
X101934000Y-109972000D03*
X106934000Y-112072000D03*
X111934000Y-109972000D03*
X82884000Y-106924000D03*
X87884000Y-109024000D03*
X92884000Y-106924000D03*
D15*
X26924000Y-96266000D03*
X54864000Y-111506000D03*
X29464000Y-96266000D03*
X32004000Y-96266000D03*
X34544000Y-96266000D03*
X37084000Y-96266000D03*
X39624000Y-96266000D03*
X42164000Y-96266000D03*
X44704000Y-96266000D03*
X47244000Y-96266000D03*
X49784000Y-96266000D03*
X52324000Y-96266000D03*
X54864000Y-96266000D03*
X52324000Y-111506000D03*
X49784000Y-111506000D03*
X47244000Y-111506000D03*
X44704000Y-111506000D03*
X42164000Y-111506000D03*
X39624000Y-111506000D03*
X37084000Y-111506000D03*
X34544000Y-111506000D03*
X32004000Y-111506000D03*
X29464000Y-111506000D03*
D16*
X26924000Y-111506000D03*
D14*
X111934000Y-77226000D03*
X106934000Y-75126000D03*
X101934000Y-77226000D03*
X111934000Y-58176000D03*
X106934000Y-56076000D03*
X101934000Y-58176000D03*
X111934000Y-39126000D03*
X106934000Y-37026000D03*
X101934000Y-39126000D03*
X111934000Y-20076000D03*
X106934000Y-17976000D03*
X101934000Y-20076000D03*
X92884000Y-77226000D03*
X87884000Y-75126000D03*
X82884000Y-77226000D03*
X92884000Y-58176000D03*
X87884000Y-56076000D03*
X82884000Y-58176000D03*
X92884000Y-39126000D03*
X87884000Y-37026000D03*
X82884000Y-39126000D03*
X92884000Y-20076000D03*
X87884000Y-17976000D03*
X82884000Y-20076000D03*
X63834000Y-103876000D03*
X68834000Y-105976000D03*
X73834000Y-103876000D03*
X73834000Y-58176000D03*
X68834000Y-56076000D03*
X63834000Y-58176000D03*
X73834000Y-39126000D03*
X68834000Y-37026000D03*
X63834000Y-39126000D03*
X73834000Y-20076000D03*
X68834000Y-17976000D03*
X63834000Y-20076000D03*
X54784000Y-77226000D03*
X49784000Y-75126000D03*
X44784000Y-77226000D03*
X54784000Y-58176000D03*
X49784000Y-56076000D03*
X44784000Y-58176000D03*
X54784000Y-20076000D03*
X49784000Y-17976000D03*
X44784000Y-20076000D03*
X35734000Y-77226000D03*
X30734000Y-75126000D03*
X25734000Y-77226000D03*
X35734000Y-58176000D03*
X30734000Y-56076000D03*
X25734000Y-58176000D03*
X35734000Y-39126000D03*
X30734000Y-37026000D03*
X25734000Y-39126000D03*
X35734000Y-20076000D03*
X30734000Y-17976000D03*
X25734000Y-20076000D03*
D10*
X59309000Y-107786000D03*
D11*
X59309000Y-99986000D03*
D12*
X59309000Y-106586000D03*
D13*
X59309000Y-105461000D03*
X59309000Y-102311000D03*
D12*
X59309000Y-101186000D03*
D10*
X97409000Y-110834000D03*
D11*
X97409000Y-103034000D03*
D12*
X97409000Y-109634000D03*
D13*
X97409000Y-108509000D03*
X97409000Y-105359000D03*
D12*
X97409000Y-104234000D03*
D10*
X96356000Y-93472000D03*
D11*
X88556000Y-93472000D03*
D17*
X95156000Y-93472000D03*
D13*
X94031000Y-93472000D03*
X90881000Y-93472000D03*
D17*
X89756000Y-93472000D03*
D10*
X96356000Y-90424000D03*
D11*
X88556000Y-90424000D03*
D17*
X95156000Y-90424000D03*
D13*
X94031000Y-90424000D03*
X90881000Y-90424000D03*
D17*
X89756000Y-90424000D03*
D10*
X97409000Y-73316000D03*
D11*
X97409000Y-81116000D03*
D12*
X97409000Y-74516000D03*
D13*
X97409000Y-75641000D03*
X97409000Y-78791000D03*
D12*
X97409000Y-79916000D03*
D10*
X97409000Y-54266000D03*
D11*
X97409000Y-62066000D03*
D12*
X97409000Y-55466000D03*
D13*
X97409000Y-56591000D03*
X97409000Y-59741000D03*
D12*
X97409000Y-60866000D03*
X97536000Y-41816000D03*
D13*
X97536000Y-40691000D03*
X97536000Y-37541000D03*
D12*
X97536000Y-36416000D03*
D11*
X97536000Y-43016000D03*
D10*
X97536000Y-35216000D03*
X97409000Y-16166000D03*
D11*
X97409000Y-23966000D03*
D12*
X97409000Y-17366000D03*
D13*
X97409000Y-18491000D03*
X97409000Y-21641000D03*
D12*
X97409000Y-22766000D03*
D10*
X78359000Y-107786000D03*
D11*
X78359000Y-99986000D03*
D12*
X78359000Y-106586000D03*
D13*
X78359000Y-105461000D03*
X78359000Y-102311000D03*
D12*
X78359000Y-101186000D03*
D10*
X78359000Y-73316000D03*
D11*
X78359000Y-81116000D03*
D12*
X78359000Y-74516000D03*
D13*
X78359000Y-75641000D03*
X78359000Y-78791000D03*
D12*
X78359000Y-79916000D03*
D10*
X78359000Y-54266000D03*
D11*
X78359000Y-62066000D03*
D12*
X78359000Y-55466000D03*
D13*
X78359000Y-56591000D03*
X78359000Y-59741000D03*
D12*
X78359000Y-60866000D03*
D10*
X78359000Y-35216000D03*
D11*
X78359000Y-43016000D03*
D12*
X78359000Y-36416000D03*
D13*
X78359000Y-37541000D03*
X78359000Y-40691000D03*
D12*
X78359000Y-41816000D03*
D10*
X78359000Y-16166000D03*
D11*
X78359000Y-23966000D03*
D12*
X78359000Y-17366000D03*
D13*
X78359000Y-18491000D03*
X78359000Y-21641000D03*
D12*
X78359000Y-22766000D03*
D10*
X59309000Y-54266000D03*
D11*
X59309000Y-62066000D03*
D12*
X59309000Y-55466000D03*
D13*
X59309000Y-56591000D03*
X59309000Y-59741000D03*
D12*
X59309000Y-60866000D03*
D10*
X59309000Y-35216000D03*
D11*
X59309000Y-43016000D03*
D12*
X59309000Y-36416000D03*
D13*
X59309000Y-37541000D03*
X59309000Y-40691000D03*
D12*
X59309000Y-41816000D03*
D10*
X59309000Y-16166000D03*
D11*
X59309000Y-23966000D03*
D12*
X59309000Y-17366000D03*
D13*
X59309000Y-18491000D03*
X59309000Y-21641000D03*
D12*
X59309000Y-22766000D03*
D10*
X40259000Y-73316000D03*
D11*
X40259000Y-81116000D03*
D12*
X40259000Y-74516000D03*
D13*
X40259000Y-75641000D03*
X40259000Y-78791000D03*
D12*
X40259000Y-79916000D03*
D10*
X40259000Y-54266000D03*
D11*
X40259000Y-62066000D03*
D12*
X40259000Y-55466000D03*
D13*
X40259000Y-56591000D03*
X40259000Y-59741000D03*
D12*
X40259000Y-60866000D03*
D10*
X40259000Y-35216000D03*
D11*
X40259000Y-43016000D03*
D12*
X40259000Y-36416000D03*
D13*
X40259000Y-37541000D03*
X40259000Y-40691000D03*
D12*
X40259000Y-41816000D03*
D10*
X40259000Y-16166000D03*
D11*
X40259000Y-23966000D03*
D12*
X40259000Y-17366000D03*
D13*
X40259000Y-18491000D03*
X40259000Y-21641000D03*
D12*
X40259000Y-22766000D03*
D10*
X34634000Y-90551000D03*
D11*
X26834000Y-90551000D03*
D17*
X33434000Y-90551000D03*
D13*
X32309000Y-90551000D03*
X29159000Y-90551000D03*
D17*
X28034000Y-90551000D03*
D10*
X34634000Y-71755000D03*
D11*
X26834000Y-71755000D03*
D17*
X33434000Y-71755000D03*
D13*
X32309000Y-71755000D03*
X29159000Y-71755000D03*
D17*
X28034000Y-71755000D03*
D10*
X34634000Y-52451000D03*
D11*
X26834000Y-52451000D03*
D17*
X33434000Y-52451000D03*
D13*
X32309000Y-52451000D03*
X29159000Y-52451000D03*
D17*
X28034000Y-52451000D03*
D10*
X34634000Y-33401000D03*
D11*
X26834000Y-33401000D03*
D17*
X33434000Y-33401000D03*
D13*
X32309000Y-33401000D03*
X29159000Y-33401000D03*
D17*
X28034000Y-33401000D03*
D18*
X107846000Y-90095000D03*
X110846000Y-90095000D03*
X103846000Y-90095000D03*
X102746000Y-96595000D03*
D19*
X107823000Y-93345000D03*
X110871000Y-93345000D03*
X103886000Y-93218000D03*
X101346000Y-93218000D03*
D20*
X111934000Y-20076000D02*
X25734000Y-20076000D01*
X25734000Y-39126000D02*
X111934000Y-39126000D01*
X111934000Y-58176000D02*
X25734000Y-58176000D01*
X25734000Y-77226000D02*
X111934000Y-77226000D01*
X107823000Y-93345000D02*
X107823000Y-90118000D01*
X42418000Y-104775000D02*
X39624000Y-107569000D01*
X51435000Y-104775000D02*
X42418000Y-104775000D01*
X58420000Y-97790000D02*
X51435000Y-104775000D01*
X97790000Y-90424000D02*
X99060000Y-91694000D01*
X99060000Y-91694000D02*
X99060000Y-95885000D01*
X39624000Y-107569000D02*
X39624000Y-111506000D01*
X96356000Y-90424000D02*
X97790000Y-90424000D01*
X99060000Y-95885000D02*
X97155000Y-97790000D01*
X97155000Y-97790000D02*
X58420000Y-97790000D01*
D21*
X110846000Y-93320000D02*
X110871000Y-93345000D01*
X110846000Y-90095000D02*
X110846000Y-93320000D01*
D20*
X103846000Y-93178000D02*
X103886000Y-93218000D01*
X103846000Y-90095000D02*
X103846000Y-93178000D01*
X88482000Y-93599000D02*
X88482000Y-93054000D01*
D21*
X34544000Y-96266000D02*
X34544000Y-94869000D01*
X34544000Y-94869000D02*
X35052000Y-94361000D01*
X87667000Y-94361000D02*
X88556000Y-93472000D01*
X35052000Y-94361000D02*
X87667000Y-94361000D01*
D20*
X37084000Y-111506000D02*
X37084000Y-106680000D01*
X37084000Y-106680000D02*
X39751000Y-104013000D01*
X39751000Y-104013000D02*
X50673000Y-104013000D01*
X50673000Y-104013000D02*
X58293000Y-96393000D01*
X58293000Y-96393000D02*
X94869000Y-96393000D01*
X96356000Y-94906000D02*
X96356000Y-93472000D01*
X94869000Y-96393000D02*
X96356000Y-94906000D01*
D21*
X102746000Y-96595000D02*
X102183000Y-96595000D01*
X101346000Y-95758000D02*
X101346000Y-93218000D01*
X102183000Y-96595000D02*
X101346000Y-95758000D01*
X32004000Y-111506000D02*
X34544000Y-111506000D01*
X32004000Y-111506000D02*
X32004000Y-105156000D01*
X32004000Y-105156000D02*
X29464000Y-102616000D01*
X29464000Y-102616000D02*
X29464000Y-96266000D01*
X29464000Y-96266000D02*
X29464000Y-95123000D01*
X29464000Y-95123000D02*
X31877000Y-92710000D01*
X31877000Y-92710000D02*
X81788000Y-92710000D01*
X81788000Y-92710000D02*
X86233000Y-88265000D01*
X86233000Y-88265000D02*
X99568000Y-88265000D01*
X101346000Y-90043000D02*
X101346000Y-93218000D01*
X99568000Y-88265000D02*
X101346000Y-90043000D01*
M02*
