M48
; DRILL file {KiCad 5.1.4-e60b266~84~ubuntu19.04.1} date Thu 12 Dec 2019 10:12:56 PM CST
; FORMAT={-:-/ absolute / inch / decimal}
; #@! TF.CreationDate,2019-12-12T22:12:56-06:00
; #@! TF.GenerationSoftware,Kicad,Pcbnew,5.1.4-e60b266~84~ubuntu19.04.1
; #@! TF.FileFunction,Plated,1,2,PTH
FMAT,2
INCH
T1C0.0157
T2C0.0276
T3C0.0394
T4C0.0430
T5C0.0472
%
G90
G05
T1
X2.7007Y-2.2893
X2.7164Y-1.9626
X2.7597Y-2.2342
X2.8739Y-1.9035
X2.9448Y-1.9547
X3.1062Y-2.3484
X3.1534Y-2.3051
X3.3621Y-4.9744
X3.3759Y-2.1555
X3.866Y-3.5767
X3.9054Y-2.1633
X3.9487Y-2.1279
X5.1022Y-1.9822
X5.1062Y-2.061
X5.1456Y-1.9586
X5.181Y-1.62
X5.181Y-1.9114
X5.2282Y-1.624
X5.2282Y-1.8759
X5.4684Y-4.1752
X5.4723Y-4.0649
X5.4723Y-4.3248
X5.4723Y-4.3897
T2
X4.6396Y-1.9881
X4.9467Y-1.9881
X1.8404Y-2.4547
X1.8404Y-2.7618
X3.99Y-1.8897
X4.2971Y-1.8897
X3.4467Y-1.6929
X3.7538Y-1.6929
X3.4467Y-1.7913
X3.7538Y-1.7913
X3.4467Y-1.9881
X3.7538Y-1.9881
X4.6396Y-1.7913
X4.9467Y-1.7913
X1.9389Y-2.4547
X1.9389Y-2.7618
X2.1652Y-2.4547
X2.1652Y-2.7618
X2.3621Y-2.4547
X2.3621Y-2.7618
X3.99Y-1.9881
X4.2971Y-1.9881
X4.6396Y-1.6929
X4.9467Y-1.6929
X4.6396Y-1.8897
X4.9467Y-1.8897
X3.99Y-1.6929
X4.2971Y-1.6929
X3.4467Y-1.8897
X3.7538Y-1.8897
X3.99Y-1.7913
X4.2971Y-1.7913
X2.2637Y-2.4547
X2.2637Y-2.7618
X2.0373Y-2.4547
X2.0373Y-2.7618
T3
X2.6219Y-4.6752
X2.6219Y-4.7972
X3.4408Y-4.6752
X3.4408Y-4.7972
X4.6652Y-2.2326
X4.6652Y-2.3326
X4.7652Y-2.2326
X4.7652Y-2.3326
X4.8652Y-2.2326
X4.8652Y-2.3326
X4.9652Y-2.2326
X4.9652Y-2.3326
X2.6219Y-4.6752
X2.6219Y-4.7972
X3.4408Y-4.6752
X3.4408Y-4.7972
X3.2204Y-1.6216
X3.2204Y-1.7216
X3.2204Y-1.8216
X3.2204Y-1.9216
T4
X1.9499Y-1.5405
X1.9499Y-2.1405
X2.0499Y-1.5405
X2.0499Y-2.1405
X2.1499Y-1.5405
X2.1499Y-2.1405
X2.2499Y-1.5405
X2.2499Y-2.1405
X2.3499Y-1.5405
X2.3499Y-2.1405
X2.4499Y-1.5405
X2.4499Y-2.1405
X2.5499Y-1.5405
X2.5499Y-2.1405
X2.6499Y-1.5405
X2.6499Y-2.1405
X2.7499Y-1.5405
X2.7499Y-2.1405
X2.8499Y-1.5405
X2.8499Y-2.1405
X2.9499Y-1.5405
X2.9499Y-2.1405
X3.0499Y-1.5405
X3.0499Y-2.1405
T5
X3.2873Y-2.2815
X3.4841Y-2.1988
X3.681Y-2.2815
X4.0156Y-3.1673
X4.2125Y-3.0846
X4.4093Y-3.1673
X4.744Y-2.5964
X4.9408Y-2.5137
X5.1377Y-2.5964
X4.4487Y-4.6594
X4.6456Y-4.5767
X4.8424Y-4.6594
X4.744Y-3.2854
X4.9408Y-3.2027
X5.1377Y-3.2854
X3.2873Y-3.6594
X3.4841Y-3.5767
X3.681Y-3.6594
X3.7204Y-4.5846
X3.9172Y-4.5019
X4.1141Y-4.5846
X5.177Y-4.8602
X5.3739Y-4.7775
X5.5707Y-4.8602
X4.0156Y-3.8563
X4.2125Y-3.7736
X4.4093Y-3.8563
X2.5589Y-3.8563
X2.7558Y-3.7736
X2.9526Y-3.8563
X1.8306Y-3.246
X2.0274Y-3.1633
X2.2243Y-3.246
X4.744Y-3.9744
X4.9408Y-3.8917
X5.1377Y-3.9744
X3.2873Y-2.9704
X3.4841Y-2.8878
X3.681Y-2.9704
X2.5589Y-3.1673
X2.7558Y-3.0846
X2.9526Y-3.1673
X1.9487Y-4.624
X2.1456Y-4.5413
X2.3424Y-4.624
X4.0156Y-2.4783
X4.2125Y-2.3956
X4.4093Y-2.4783
X1.8306Y-3.935
X2.0274Y-3.8523
X2.2243Y-3.935
X2.5589Y-2.4783
X2.7558Y-2.3956
X2.9526Y-2.4783
T0
M30
