G04 #@! TF.GenerationSoftware,KiCad,Pcbnew,5.1.4-e60b266~84~ubuntu19.04.1*
G04 #@! TF.CreationDate,2019-12-12T22:12:58-06:00*
G04 #@! TF.ProjectId,fissure,66697373-7572-4652-9e6b-696361645f70,rev?*
G04 #@! TF.SameCoordinates,Original*
G04 #@! TF.FileFunction,Copper,L1,Top*
G04 #@! TF.FilePolarity,Positive*
%FSLAX46Y46*%
G04 Gerber Fmt 4.6, Leading zero omitted, Abs format (unit mm)*
G04 Created by KiCad (PCBNEW 5.1.4-e60b266~84~ubuntu19.04.1) date 2019-12-12 22:12:58*
%MOMM*%
%LPD*%
G04 APERTURE LIST*
%ADD10O,1.700000X1.700000*%
%ADD11C,2.000000*%
%ADD12C,1.752600*%
%ADD13R,1.752600X1.752600*%
%ADD14R,0.500000X2.500000*%
%ADD15C,1.600000*%
%ADD16R,1.600000X1.600000*%
%ADD17R,1.200000X1.200000*%
%ADD18R,2.500000X0.500000*%
%ADD19R,2.500000X1.200000*%
%ADD20C,17.800000*%
%ADD21C,2.300000*%
%ADD22R,1.700000X1.700000*%
%ADD23C,0.800000*%
%ADD24C,0.508000*%
%ADD25C,1.270000*%
G04 APERTURE END LIST*
D10*
X81797000Y-41189000D03*
X81797000Y-43729000D03*
X81797000Y-46269000D03*
X81797000Y-48809000D03*
D11*
X130497000Y-65949000D03*
X125497000Y-63849000D03*
X120497000Y-65949000D03*
D12*
X49527000Y-39129000D03*
X77467000Y-54369000D03*
X52067000Y-39129000D03*
X54607000Y-39129000D03*
X57147000Y-39129000D03*
X59687000Y-39129000D03*
X62227000Y-39129000D03*
X64767000Y-39129000D03*
X67307000Y-39129000D03*
X69847000Y-39129000D03*
X72387000Y-39129000D03*
X74927000Y-39129000D03*
X77467000Y-39129000D03*
X74927000Y-54369000D03*
X72387000Y-54369000D03*
X69847000Y-54369000D03*
X67307000Y-54369000D03*
X64767000Y-54369000D03*
X62227000Y-54369000D03*
X59687000Y-54369000D03*
X57147000Y-54369000D03*
X54607000Y-54369000D03*
X52067000Y-54369000D03*
D13*
X49527000Y-54369000D03*
D14*
X46747000Y-63549000D03*
X46747000Y-68949000D03*
D15*
X46747000Y-62349000D03*
D16*
X46747000Y-70149000D03*
D17*
X46747000Y-67824000D03*
X46747000Y-64674000D03*
D11*
X56497000Y-99949000D03*
X51497000Y-97849000D03*
X46497000Y-99949000D03*
X111997000Y-62949000D03*
X106997000Y-60849000D03*
X101997000Y-62949000D03*
X74997000Y-62949000D03*
X69997000Y-60849000D03*
X64997000Y-62949000D03*
X93497000Y-75449000D03*
X88497000Y-73349000D03*
X83497000Y-75449000D03*
X141497000Y-123449000D03*
X136497000Y-121349000D03*
X131497000Y-123449000D03*
X122997000Y-118349000D03*
X117997000Y-116249000D03*
X112997000Y-118349000D03*
X104497000Y-116449000D03*
X99497000Y-114349000D03*
X94497000Y-116449000D03*
X130497000Y-100949000D03*
X125497000Y-98849000D03*
X120497000Y-100949000D03*
X111997000Y-97949000D03*
X106997000Y-95849000D03*
X101997000Y-97949000D03*
X93497000Y-92949000D03*
X88497000Y-90849000D03*
X83497000Y-92949000D03*
X74997000Y-97949000D03*
X69997000Y-95849000D03*
X64997000Y-97949000D03*
X59497000Y-117449000D03*
X54497000Y-115349000D03*
X49497000Y-117449000D03*
X130497000Y-83449000D03*
X125497000Y-81349000D03*
X120497000Y-83449000D03*
X111997000Y-80449000D03*
X106997000Y-78349000D03*
X101997000Y-80449000D03*
X74997000Y-80449000D03*
X69997000Y-78349000D03*
X64997000Y-80449000D03*
X93497000Y-57949000D03*
X88497000Y-55849000D03*
X83497000Y-57949000D03*
X56497000Y-82449000D03*
X51497000Y-80349000D03*
X46497000Y-82449000D03*
D18*
X119047000Y-42999000D03*
X124447000Y-42999000D03*
D15*
X117847000Y-42999000D03*
D16*
X125647000Y-42999000D03*
D17*
X123322000Y-42999000D03*
X120172000Y-42999000D03*
D18*
X102547000Y-42999000D03*
X107947000Y-42999000D03*
D15*
X101347000Y-42999000D03*
D16*
X109147000Y-42999000D03*
D17*
X106822000Y-42999000D03*
X103672000Y-42999000D03*
X89872000Y-42999000D03*
X93022000Y-42999000D03*
D16*
X95347000Y-42999000D03*
D15*
X87547000Y-42999000D03*
D18*
X94147000Y-42999000D03*
X88747000Y-42999000D03*
X119047000Y-45499000D03*
X124447000Y-45499000D03*
D15*
X117847000Y-45499000D03*
D16*
X125647000Y-45499000D03*
D17*
X123322000Y-45499000D03*
X120172000Y-45499000D03*
D18*
X102547000Y-45499000D03*
X107947000Y-45499000D03*
D15*
X101347000Y-45499000D03*
D16*
X109147000Y-45499000D03*
D17*
X106822000Y-45499000D03*
X103672000Y-45499000D03*
X89872000Y-45499000D03*
X93022000Y-45499000D03*
D16*
X95347000Y-45499000D03*
D15*
X87547000Y-45499000D03*
D18*
X94147000Y-45499000D03*
X88747000Y-45499000D03*
D14*
X54997000Y-63549000D03*
X54997000Y-68949000D03*
D15*
X54997000Y-62349000D03*
D16*
X54997000Y-70149000D03*
D17*
X54997000Y-67824000D03*
X54997000Y-64674000D03*
D14*
X51747000Y-63549000D03*
X51747000Y-68949000D03*
D15*
X51747000Y-62349000D03*
D16*
X51747000Y-70149000D03*
D17*
X51747000Y-67824000D03*
X51747000Y-64674000D03*
D18*
X119047000Y-47999000D03*
X124447000Y-47999000D03*
D15*
X117847000Y-47999000D03*
D16*
X125647000Y-47999000D03*
D17*
X123322000Y-47999000D03*
X120172000Y-47999000D03*
D18*
X102547000Y-47999000D03*
X107947000Y-47999000D03*
D15*
X101347000Y-47999000D03*
D16*
X109147000Y-47999000D03*
D17*
X106822000Y-47999000D03*
X103672000Y-47999000D03*
X89872000Y-47999000D03*
X93022000Y-47999000D03*
D16*
X95347000Y-47999000D03*
D15*
X87547000Y-47999000D03*
D18*
X94147000Y-47999000D03*
X88747000Y-47999000D03*
D14*
X57497000Y-63549000D03*
X57497000Y-68949000D03*
D15*
X57497000Y-62349000D03*
D16*
X57497000Y-70149000D03*
D17*
X57497000Y-67824000D03*
X57497000Y-64674000D03*
D14*
X49247000Y-63549000D03*
X49247000Y-68949000D03*
D15*
X49247000Y-62349000D03*
D16*
X49247000Y-70149000D03*
D17*
X49247000Y-67824000D03*
X49247000Y-64674000D03*
D18*
X119047000Y-50499000D03*
X124447000Y-50499000D03*
D15*
X117847000Y-50499000D03*
D16*
X125647000Y-50499000D03*
D17*
X123322000Y-50499000D03*
X120172000Y-50499000D03*
D18*
X102547000Y-50499000D03*
X107947000Y-50499000D03*
D15*
X101347000Y-50499000D03*
D16*
X109147000Y-50499000D03*
D17*
X106822000Y-50499000D03*
X103672000Y-50499000D03*
X89872000Y-50499000D03*
X93022000Y-50499000D03*
D16*
X95347000Y-50499000D03*
D15*
X87547000Y-50499000D03*
D18*
X94147000Y-50499000D03*
X88747000Y-50499000D03*
D14*
X59997000Y-63549000D03*
X59997000Y-68949000D03*
D15*
X59997000Y-62349000D03*
D16*
X59997000Y-70149000D03*
D17*
X59997000Y-67824000D03*
X59997000Y-64674000D03*
D19*
X142247000Y-103074000D03*
X142247000Y-106074000D03*
X142247000Y-110074000D03*
X135747000Y-111174000D03*
D20*
X76997000Y-120249000D03*
D21*
X87397000Y-118749000D03*
X87397000Y-121849000D03*
X66597000Y-121849000D03*
X66597000Y-118749000D03*
X66597000Y-121849000D03*
X66597000Y-118749000D03*
X87397000Y-118749000D03*
X87397000Y-121849000D03*
D10*
X126117000Y-56709000D03*
X126117000Y-59249000D03*
X123577000Y-56709000D03*
X123577000Y-59249000D03*
X121037000Y-56709000D03*
X121037000Y-59249000D03*
X118497000Y-56709000D03*
D22*
X118497000Y-59249000D03*
D23*
X68997000Y-49849000D03*
X72997000Y-48349000D03*
X138997000Y-111499000D03*
X85397000Y-126349000D03*
X74797000Y-49649000D03*
X138997000Y-103249000D03*
X129697000Y-52349000D03*
X85747000Y-54749000D03*
X98197000Y-90849000D03*
X99197000Y-54949000D03*
X100297000Y-54049000D03*
X131597000Y-48549000D03*
X131597000Y-41149000D03*
X130697000Y-49749000D03*
X132797000Y-47649000D03*
X132797000Y-41249000D03*
X129597000Y-50349000D03*
X138997000Y-109849000D03*
X80097000Y-58549000D03*
X70097000Y-56749000D03*
X138897000Y-106049000D03*
X68597000Y-58149000D03*
X78897000Y-59649000D03*
D24*
X46497000Y-70399000D02*
X46747000Y-70149000D01*
X46497000Y-82449000D02*
X46497000Y-70399000D01*
X59997000Y-67949000D02*
X64997000Y-62949000D01*
X59997000Y-68949000D02*
X59997000Y-67949000D01*
X64997000Y-62949000D02*
X74997000Y-62949000D01*
X83497000Y-57949000D02*
X93497000Y-57949000D01*
X93497000Y-50974000D02*
X93022000Y-50499000D01*
X93497000Y-57949000D02*
X93497000Y-50974000D01*
X101997000Y-62949000D02*
X111997000Y-62949000D01*
X111997000Y-53349000D02*
X109147000Y-50499000D01*
X111997000Y-62949000D02*
X111997000Y-53349000D01*
X120497000Y-65949000D02*
X119297000Y-65949000D01*
X119297000Y-65949000D02*
X116297000Y-62949000D01*
X116297000Y-62949000D02*
X116297000Y-53649000D01*
X120172000Y-53649000D02*
X123322000Y-50499000D01*
X116297000Y-53649000D02*
X120172000Y-53649000D01*
X49247000Y-70149000D02*
X49247000Y-98249000D01*
X47547000Y-99949000D02*
X49247000Y-98249000D01*
X46497000Y-99949000D02*
X47547000Y-99949000D01*
X57497000Y-72949000D02*
X64997000Y-80449000D01*
X57497000Y-70149000D02*
X57497000Y-72949000D01*
X74997000Y-80449000D02*
X64997000Y-80449000D01*
X83497000Y-75449000D02*
X93497000Y-75449000D01*
X93497000Y-75449000D02*
X93797000Y-75449000D01*
X95347000Y-47999000D02*
X95447000Y-47999000D01*
X95397000Y-73549000D02*
X93497000Y-75449000D01*
X96797000Y-53249000D02*
X95397000Y-54649000D01*
X95347000Y-47999000D02*
X96797000Y-49449000D01*
X95397000Y-54649000D02*
X95397000Y-73549000D01*
X96797000Y-49449000D02*
X96797000Y-53249000D01*
X109147000Y-47999000D02*
X109997000Y-47999000D01*
X109997000Y-47999000D02*
X113997000Y-51999000D01*
X113997000Y-78449000D02*
X111997000Y-80449000D01*
X113997000Y-51999000D02*
X113997000Y-78449000D01*
X111997000Y-80449000D02*
X101997000Y-80449000D01*
X117097000Y-61349000D02*
X117097000Y-54849000D01*
X120197000Y-64449000D02*
X117097000Y-61349000D01*
X121297000Y-64449000D02*
X120197000Y-64449000D01*
X117097000Y-54849000D02*
X124497000Y-54849000D01*
X122797000Y-65949000D02*
X121297000Y-64449000D01*
X122797000Y-70849000D02*
X122797000Y-65949000D01*
X120497000Y-73149000D02*
X122797000Y-70849000D01*
X120497000Y-83449000D02*
X120497000Y-73149000D01*
X126997000Y-52349000D02*
X126997000Y-49349000D01*
X124497000Y-54849000D02*
X126997000Y-52349000D01*
X126997000Y-49349000D02*
X126647000Y-48999000D01*
X126647000Y-48999000D02*
X125647000Y-47999000D01*
X51747000Y-70149000D02*
X51747000Y-72999000D01*
X51747000Y-72999000D02*
X54247000Y-75499000D01*
X54247000Y-112699000D02*
X49497000Y-117449000D01*
X54247000Y-75499000D02*
X54247000Y-112699000D01*
X49497000Y-117449000D02*
X59497000Y-117449000D01*
X54997000Y-70149000D02*
X54997000Y-73749000D01*
X54997000Y-73749000D02*
X61747000Y-80499000D01*
X61747000Y-94699000D02*
X64997000Y-97949000D01*
X61747000Y-80499000D02*
X61747000Y-94699000D01*
X64997000Y-97949000D02*
X74997000Y-97949000D01*
X93497000Y-92949000D02*
X83497000Y-92949000D01*
X96197000Y-90249000D02*
X93497000Y-92949000D01*
X96197000Y-54949000D02*
X96197000Y-90249000D01*
X97597000Y-53549000D02*
X96197000Y-54949000D01*
X95347000Y-45499000D02*
X97597000Y-47749000D01*
X97597000Y-47749000D02*
X97597000Y-53549000D01*
X101997000Y-97949000D02*
X111997000Y-97949000D01*
X111997000Y-97949000D02*
X112547000Y-97949000D01*
X112547000Y-97949000D02*
X114747000Y-95749000D01*
X114747000Y-51099000D02*
X109147000Y-45499000D01*
X114747000Y-95749000D02*
X114747000Y-51099000D01*
X126847000Y-46699000D02*
X125647000Y-45499000D01*
X127847000Y-47699000D02*
X126847000Y-46699000D01*
X120497000Y-100949000D02*
X120497000Y-92549000D01*
X120497000Y-92549000D02*
X122297000Y-90749000D01*
X122297000Y-76549000D02*
X127847000Y-70999000D01*
X122297000Y-90749000D02*
X122297000Y-76549000D01*
X127847000Y-70999000D02*
X127847000Y-47699000D01*
X104497000Y-116449000D02*
X94497000Y-116449000D01*
X98397000Y-46049000D02*
X95347000Y-42999000D01*
X94497000Y-116449000D02*
X94497000Y-114749000D01*
X96997000Y-55449000D02*
X98397000Y-54049000D01*
X96997000Y-112249000D02*
X96997000Y-55449000D01*
X94497000Y-114749000D02*
X96997000Y-112249000D01*
X98397000Y-54049000D02*
X98397000Y-46049000D01*
X115497000Y-49349000D02*
X109147000Y-42999000D01*
X115497000Y-110499000D02*
X115497000Y-49349000D01*
X122997000Y-118349000D02*
X112997000Y-118349000D01*
X112997000Y-112999000D02*
X115497000Y-110499000D01*
X112997000Y-118349000D02*
X112997000Y-112999000D01*
X141497000Y-123449000D02*
X131497000Y-123449000D01*
X131497000Y-123449000D02*
X131497000Y-122249000D01*
X128097000Y-118849000D02*
X128097000Y-72449000D01*
X131497000Y-122249000D02*
X128097000Y-118849000D01*
X128597000Y-45949000D02*
X127897000Y-45249000D01*
X128597000Y-71949000D02*
X128597000Y-45949000D01*
X128097000Y-72449000D02*
X128597000Y-71949000D01*
X127897000Y-45249000D02*
X125647000Y-42999000D01*
X52067000Y-54369000D02*
X52067000Y-53679000D01*
X52067000Y-53679000D02*
X55897000Y-49849000D01*
X68497000Y-49849000D02*
X68997000Y-49849000D01*
X55897000Y-49849000D02*
X68497000Y-49849000D01*
X49527000Y-52219000D02*
X49527000Y-54369000D01*
X49527000Y-51519000D02*
X49527000Y-52219000D01*
X72997000Y-48349000D02*
X52697000Y-48349000D01*
X52697000Y-48349000D02*
X49527000Y-51519000D01*
D25*
X138672000Y-111174000D02*
X138997000Y-111499000D01*
X135747000Y-111174000D02*
X138672000Y-111174000D01*
X76997000Y-120249000D02*
X79297000Y-120249000D01*
X79297000Y-120249000D02*
X85397000Y-126349000D01*
X74797000Y-49649000D02*
X72997000Y-51449000D01*
X60067000Y-51449000D02*
X57147000Y-54369000D01*
X72997000Y-51449000D02*
X60067000Y-51449000D01*
X139172000Y-103074000D02*
X138997000Y-103249000D01*
X142247000Y-103074000D02*
X139172000Y-103074000D01*
X81797000Y-48809000D02*
X76957000Y-48809000D01*
X76957000Y-48809000D02*
X74897000Y-46749000D01*
X74897000Y-46749000D02*
X59397000Y-46749000D01*
X57147000Y-44499000D02*
X57147000Y-39129000D01*
X59397000Y-46749000D02*
X57147000Y-44499000D01*
X142247000Y-99599000D02*
X142247000Y-103074000D01*
X134397000Y-52349000D02*
X134397000Y-91749000D01*
X134397000Y-91749000D02*
X142247000Y-99599000D01*
X134397000Y-52349000D02*
X129697000Y-52349000D01*
D24*
X46747000Y-62349000D02*
X51747000Y-62349000D01*
X64767000Y-54369000D02*
X64767000Y-54979000D01*
X64767000Y-54979000D02*
X62997000Y-56749000D01*
X62997000Y-56749000D02*
X52747000Y-56749000D01*
X51747000Y-57749000D02*
X51747000Y-62349000D01*
X52747000Y-56749000D02*
X51747000Y-57749000D01*
X54997000Y-62349000D02*
X59997000Y-62349000D01*
X59997000Y-62349000D02*
X59997000Y-59749000D01*
X59997000Y-59749000D02*
X61497000Y-58249000D01*
X63427000Y-58249000D02*
X67307000Y-54369000D01*
X61497000Y-58249000D02*
X63427000Y-58249000D01*
X87547000Y-50499000D02*
X87547000Y-42999000D01*
X69847000Y-54369000D02*
X72727000Y-57249000D01*
X80797000Y-57249000D02*
X87547000Y-50499000D01*
X72727000Y-57249000D02*
X80797000Y-57249000D01*
X101347000Y-42999000D02*
X101347000Y-50499000D01*
X101347000Y-50499000D02*
X101347000Y-51149000D01*
X85247000Y-40749000D02*
X99097000Y-40749000D01*
X84497000Y-41499000D02*
X85247000Y-40749000D01*
X72387000Y-54389000D02*
X74497000Y-56499000D01*
X72387000Y-54369000D02*
X72387000Y-54389000D01*
X99097000Y-40749000D02*
X101347000Y-42999000D01*
X74497000Y-56499000D02*
X80247000Y-56499000D01*
X84497000Y-52249000D02*
X84497000Y-41499000D01*
X80247000Y-56499000D02*
X84497000Y-52249000D01*
X117847000Y-42999000D02*
X117847000Y-50499000D01*
X117847000Y-41599000D02*
X116247000Y-39999000D01*
X117847000Y-42999000D02*
X117847000Y-41599000D01*
X76307000Y-55749000D02*
X74927000Y-54369000D01*
X116247000Y-39999000D02*
X84747000Y-39999000D01*
X83747000Y-40999000D02*
X84747000Y-39999000D01*
X83747000Y-40999000D02*
X83747000Y-51749000D01*
X79747000Y-55749000D02*
X76307000Y-55749000D01*
X83747000Y-51749000D02*
X79747000Y-55749000D01*
X85747000Y-54749000D02*
X84497000Y-54749000D01*
X84497000Y-54749000D02*
X81497000Y-57749000D01*
X81497000Y-66349000D02*
X88497000Y-73349000D01*
X81497000Y-57749000D02*
X81497000Y-66349000D01*
X98197000Y-55449000D02*
X98197000Y-90849000D01*
X98697000Y-54949000D02*
X98197000Y-55449000D01*
X99197000Y-54949000D02*
X98697000Y-54949000D01*
X99497000Y-114349000D02*
X99497000Y-57249000D01*
X100297000Y-56449000D02*
X99497000Y-57249000D01*
X100297000Y-54049000D02*
X100297000Y-56449000D01*
X131597000Y-48549000D02*
X131597000Y-41349000D01*
X131597000Y-41349000D02*
X131597000Y-41149000D01*
X130697000Y-49749000D02*
X130597000Y-49649000D01*
X130597000Y-49649000D02*
X130597000Y-42749000D01*
X130597000Y-42749000D02*
X125497000Y-37649000D01*
X76407000Y-37649000D02*
X74927000Y-39129000D01*
X125497000Y-37649000D02*
X76407000Y-37649000D01*
X132797000Y-47649000D02*
X132797000Y-41249000D01*
X125777000Y-39129000D02*
X77467000Y-39129000D01*
X129597000Y-50349000D02*
X129597000Y-42949000D01*
X129597000Y-42949000D02*
X125777000Y-39129000D01*
X139222000Y-110074000D02*
X142247000Y-110074000D01*
X138997000Y-109849000D02*
X139222000Y-110074000D01*
X70597000Y-56749000D02*
X72397000Y-58549000D01*
X70097000Y-56749000D02*
X70597000Y-56749000D01*
X72397000Y-58549000D02*
X80097000Y-58549000D01*
X138922000Y-106074000D02*
X142247000Y-106074000D01*
X138897000Y-106049000D02*
X138922000Y-106074000D01*
X68597000Y-58149000D02*
X70497000Y-58149000D01*
X70497000Y-58149000D02*
X71997000Y-59649000D01*
X71997000Y-59649000D02*
X78897000Y-59649000D01*
M02*
