G04 #@! TF.GenerationSoftware,KiCad,Pcbnew,5.1.4-e60b266~84~ubuntu19.04.1*
G04 #@! TF.CreationDate,2019-12-12T22:12:58-06:00*
G04 #@! TF.ProjectId,fissure,66697373-7572-4652-9e6b-696361645f70,rev?*
G04 #@! TF.SameCoordinates,Original*
G04 #@! TF.FileFunction,Copper,L2,Bot*
G04 #@! TF.FilePolarity,Positive*
%FSLAX46Y46*%
G04 Gerber Fmt 4.6, Leading zero omitted, Abs format (unit mm)*
G04 Created by KiCad (PCBNEW 5.1.4-e60b266~84~ubuntu19.04.1) date 2019-12-12 22:12:58*
%MOMM*%
%LPD*%
G04 APERTURE LIST*
%ADD10O,1.700000X1.700000*%
%ADD11C,2.000000*%
%ADD12C,1.752600*%
%ADD13R,1.752600X1.752600*%
%ADD14C,1.600000*%
%ADD15R,1.600000X1.600000*%
%ADD16R,0.500000X2.500000*%
%ADD17R,1.200000X1.200000*%
%ADD18R,2.500000X0.500000*%
%ADD19R,2.500000X1.200000*%
%ADD20C,2.300000*%
%ADD21C,17.800000*%
%ADD22R,1.700000X1.700000*%
%ADD23C,0.800000*%
%ADD24C,0.508000*%
%ADD25C,1.270000*%
G04 APERTURE END LIST*
D10*
X81797000Y-41189000D03*
X81797000Y-43729000D03*
X81797000Y-46269000D03*
X81797000Y-48809000D03*
D11*
X130497000Y-65949000D03*
X125497000Y-63849000D03*
X120497000Y-65949000D03*
D12*
X49527000Y-39129000D03*
X77467000Y-54369000D03*
X52067000Y-39129000D03*
X54607000Y-39129000D03*
X57147000Y-39129000D03*
X59687000Y-39129000D03*
X62227000Y-39129000D03*
X64767000Y-39129000D03*
X67307000Y-39129000D03*
X69847000Y-39129000D03*
X72387000Y-39129000D03*
X74927000Y-39129000D03*
X77467000Y-39129000D03*
X74927000Y-54369000D03*
X72387000Y-54369000D03*
X69847000Y-54369000D03*
X67307000Y-54369000D03*
X64767000Y-54369000D03*
X62227000Y-54369000D03*
X59687000Y-54369000D03*
X57147000Y-54369000D03*
X54607000Y-54369000D03*
X52067000Y-54369000D03*
D13*
X49527000Y-54369000D03*
D14*
X46747000Y-62349000D03*
D15*
X46747000Y-70149000D03*
D16*
X46747000Y-63549000D03*
D17*
X46747000Y-64674000D03*
X46747000Y-67824000D03*
D16*
X46747000Y-68949000D03*
D11*
X56497000Y-99949000D03*
X51497000Y-97849000D03*
X46497000Y-99949000D03*
X111997000Y-62949000D03*
X106997000Y-60849000D03*
X101997000Y-62949000D03*
X74997000Y-62949000D03*
X69997000Y-60849000D03*
X64997000Y-62949000D03*
X93497000Y-75449000D03*
X88497000Y-73349000D03*
X83497000Y-75449000D03*
X141497000Y-123449000D03*
X136497000Y-121349000D03*
X131497000Y-123449000D03*
X122997000Y-118349000D03*
X117997000Y-116249000D03*
X112997000Y-118349000D03*
X104497000Y-116449000D03*
X99497000Y-114349000D03*
X94497000Y-116449000D03*
X130497000Y-100949000D03*
X125497000Y-98849000D03*
X120497000Y-100949000D03*
X111997000Y-97949000D03*
X106997000Y-95849000D03*
X101997000Y-97949000D03*
X93497000Y-92949000D03*
X88497000Y-90849000D03*
X83497000Y-92949000D03*
X74997000Y-97949000D03*
X69997000Y-95849000D03*
X64997000Y-97949000D03*
X59497000Y-117449000D03*
X54497000Y-115349000D03*
X49497000Y-117449000D03*
X130497000Y-83449000D03*
X125497000Y-81349000D03*
X120497000Y-83449000D03*
X111997000Y-80449000D03*
X106997000Y-78349000D03*
X101997000Y-80449000D03*
X74997000Y-80449000D03*
X69997000Y-78349000D03*
X64997000Y-80449000D03*
X93497000Y-57949000D03*
X88497000Y-55849000D03*
X83497000Y-57949000D03*
X56497000Y-82449000D03*
X51497000Y-80349000D03*
X46497000Y-82449000D03*
D14*
X117847000Y-42999000D03*
D15*
X125647000Y-42999000D03*
D18*
X119047000Y-42999000D03*
D17*
X120172000Y-42999000D03*
X123322000Y-42999000D03*
D18*
X124447000Y-42999000D03*
D14*
X101347000Y-42999000D03*
D15*
X109147000Y-42999000D03*
D18*
X102547000Y-42999000D03*
D17*
X103672000Y-42999000D03*
X106822000Y-42999000D03*
D18*
X107947000Y-42999000D03*
X94147000Y-42999000D03*
D17*
X93022000Y-42999000D03*
X89872000Y-42999000D03*
D18*
X88747000Y-42999000D03*
D15*
X95347000Y-42999000D03*
D14*
X87547000Y-42999000D03*
X117847000Y-45499000D03*
D15*
X125647000Y-45499000D03*
D18*
X119047000Y-45499000D03*
D17*
X120172000Y-45499000D03*
X123322000Y-45499000D03*
D18*
X124447000Y-45499000D03*
D14*
X101347000Y-45499000D03*
D15*
X109147000Y-45499000D03*
D18*
X102547000Y-45499000D03*
D17*
X103672000Y-45499000D03*
X106822000Y-45499000D03*
D18*
X107947000Y-45499000D03*
X94147000Y-45499000D03*
D17*
X93022000Y-45499000D03*
X89872000Y-45499000D03*
D18*
X88747000Y-45499000D03*
D15*
X95347000Y-45499000D03*
D14*
X87547000Y-45499000D03*
X54997000Y-62349000D03*
D15*
X54997000Y-70149000D03*
D16*
X54997000Y-63549000D03*
D17*
X54997000Y-64674000D03*
X54997000Y-67824000D03*
D16*
X54997000Y-68949000D03*
D14*
X51747000Y-62349000D03*
D15*
X51747000Y-70149000D03*
D16*
X51747000Y-63549000D03*
D17*
X51747000Y-64674000D03*
X51747000Y-67824000D03*
D16*
X51747000Y-68949000D03*
D14*
X117847000Y-47999000D03*
D15*
X125647000Y-47999000D03*
D18*
X119047000Y-47999000D03*
D17*
X120172000Y-47999000D03*
X123322000Y-47999000D03*
D18*
X124447000Y-47999000D03*
D14*
X101347000Y-47999000D03*
D15*
X109147000Y-47999000D03*
D18*
X102547000Y-47999000D03*
D17*
X103672000Y-47999000D03*
X106822000Y-47999000D03*
D18*
X107947000Y-47999000D03*
X94147000Y-47999000D03*
D17*
X93022000Y-47999000D03*
X89872000Y-47999000D03*
D18*
X88747000Y-47999000D03*
D15*
X95347000Y-47999000D03*
D14*
X87547000Y-47999000D03*
X57497000Y-62349000D03*
D15*
X57497000Y-70149000D03*
D16*
X57497000Y-63549000D03*
D17*
X57497000Y-64674000D03*
X57497000Y-67824000D03*
D16*
X57497000Y-68949000D03*
D14*
X49247000Y-62349000D03*
D15*
X49247000Y-70149000D03*
D16*
X49247000Y-63549000D03*
D17*
X49247000Y-64674000D03*
X49247000Y-67824000D03*
D16*
X49247000Y-68949000D03*
D14*
X117847000Y-50499000D03*
D15*
X125647000Y-50499000D03*
D18*
X119047000Y-50499000D03*
D17*
X120172000Y-50499000D03*
X123322000Y-50499000D03*
D18*
X124447000Y-50499000D03*
D14*
X101347000Y-50499000D03*
D15*
X109147000Y-50499000D03*
D18*
X102547000Y-50499000D03*
D17*
X103672000Y-50499000D03*
X106822000Y-50499000D03*
D18*
X107947000Y-50499000D03*
X94147000Y-50499000D03*
D17*
X93022000Y-50499000D03*
X89872000Y-50499000D03*
D18*
X88747000Y-50499000D03*
D15*
X95347000Y-50499000D03*
D14*
X87547000Y-50499000D03*
X59997000Y-62349000D03*
D15*
X59997000Y-70149000D03*
D16*
X59997000Y-63549000D03*
D17*
X59997000Y-64674000D03*
X59997000Y-67824000D03*
D16*
X59997000Y-68949000D03*
D19*
X135747000Y-103074000D03*
X135747000Y-106074000D03*
X135747000Y-110074000D03*
X142247000Y-111174000D03*
D20*
X87397000Y-118749000D03*
X87397000Y-121849000D03*
X66597000Y-121849000D03*
X66597000Y-118749000D03*
X66597000Y-121849000D03*
X66597000Y-118749000D03*
X87397000Y-118749000D03*
X87397000Y-121849000D03*
D21*
X76997000Y-120349000D03*
D10*
X126117000Y-56709000D03*
X126117000Y-59249000D03*
X123577000Y-56709000D03*
X123577000Y-59249000D03*
X121037000Y-56709000D03*
X121037000Y-59249000D03*
X118497000Y-56709000D03*
D22*
X118497000Y-59249000D03*
D23*
X68997000Y-49849000D03*
X72997000Y-48349000D03*
X138997000Y-111499000D03*
X85397000Y-126349000D03*
X74797000Y-49649000D03*
X138997000Y-103249000D03*
X129697000Y-52349000D03*
X85747000Y-54749000D03*
X98197000Y-90849000D03*
X99197000Y-54949000D03*
X100297000Y-54049000D03*
X131597000Y-48549000D03*
X131597000Y-41149000D03*
X130697000Y-49749000D03*
X132797000Y-47649000D03*
X132797000Y-41249000D03*
X129597000Y-50349000D03*
X138997000Y-109849000D03*
X80097000Y-58549000D03*
X70097000Y-56749000D03*
X138897000Y-106049000D03*
X68597000Y-58149000D03*
X78897000Y-59649000D03*
D24*
X56497000Y-82449000D02*
X46497000Y-82449000D01*
X130497000Y-65949000D02*
X120497000Y-65949000D01*
X56497000Y-99949000D02*
X46497000Y-99949000D01*
X120497000Y-83449000D02*
X130497000Y-83449000D01*
X120497000Y-100949000D02*
X130497000Y-100949000D01*
X68997000Y-49849000D02*
X69997000Y-49849000D01*
X69997000Y-49849000D02*
X76897000Y-42949000D01*
X80037000Y-42949000D02*
X81797000Y-41189000D01*
X76897000Y-42949000D02*
X80037000Y-42949000D01*
X77617000Y-43729000D02*
X76297000Y-45049000D01*
X81797000Y-43729000D02*
X77617000Y-43729000D01*
X76297000Y-45049000D02*
X72997000Y-48349000D01*
D25*
X142247000Y-111174000D02*
X139322000Y-111174000D01*
X139322000Y-111174000D02*
X138997000Y-111499000D01*
X79397000Y-120349000D02*
X76997000Y-120349000D01*
X85397000Y-126349000D02*
X79397000Y-120349000D01*
X85397000Y-126349000D02*
X89397000Y-126349000D01*
X89397000Y-126349000D02*
X91497000Y-124249000D01*
X91497000Y-124249000D02*
X91497000Y-111949000D01*
X138547000Y-111949000D02*
X138997000Y-111499000D01*
X91497000Y-111949000D02*
X138547000Y-111949000D01*
X57147000Y-54369000D02*
X54607000Y-54369000D01*
X54607000Y-54369000D02*
X54607000Y-47559000D01*
X52067000Y-45019000D02*
X52067000Y-39129000D01*
X54607000Y-47559000D02*
X52067000Y-45019000D01*
X85497000Y-39649000D02*
X83997000Y-41149000D01*
X83997000Y-45549000D02*
X83277000Y-46269000D01*
X142247000Y-99699000D02*
X134397000Y-91849000D01*
X134397000Y-46449000D02*
X127597000Y-39649000D01*
X83997000Y-41149000D02*
X83997000Y-45549000D01*
X127597000Y-39649000D02*
X85497000Y-39649000D01*
X83277000Y-46269000D02*
X81797000Y-46269000D01*
X142247000Y-111174000D02*
X142247000Y-99699000D01*
X78177000Y-46269000D02*
X76647000Y-47799000D01*
X81797000Y-46269000D02*
X78177000Y-46269000D01*
X76647000Y-47799000D02*
X74797000Y-49649000D01*
X118497000Y-59249000D02*
X118497000Y-61049000D01*
X118497000Y-61049000D02*
X119397000Y-61949000D01*
X119397000Y-61949000D02*
X134297000Y-61949000D01*
X134397000Y-91849000D02*
X134397000Y-61849000D01*
X134397000Y-61849000D02*
X134397000Y-46449000D01*
X66597000Y-121849000D02*
X66597000Y-118749000D01*
X87397000Y-121849000D02*
X87397000Y-118749000D01*
X66597000Y-118749000D02*
X66597000Y-115399000D01*
X66597000Y-115399000D02*
X71747000Y-110249000D01*
X131497000Y-110249000D02*
X133247000Y-108499000D01*
X133247000Y-108499000D02*
X133247000Y-103999000D01*
X134172000Y-103074000D02*
X135747000Y-103074000D01*
X133247000Y-103999000D02*
X134172000Y-103074000D01*
X135747000Y-103074000D02*
X138822000Y-103074000D01*
X138822000Y-103074000D02*
X138997000Y-103249000D01*
X71747000Y-110249000D02*
X87297000Y-110249000D01*
X87397000Y-118749000D02*
X87397000Y-110349000D01*
X87297000Y-110249000D02*
X131497000Y-110249000D01*
X85797000Y-47749000D02*
X85797000Y-41549000D01*
X85797000Y-41549000D02*
X86197000Y-41149000D01*
X84737000Y-48809000D02*
X85797000Y-47749000D01*
X81797000Y-48809000D02*
X84737000Y-48809000D01*
X113297000Y-50949000D02*
X113297000Y-41149000D01*
X86197000Y-41149000D02*
X113297000Y-41149000D01*
X114597000Y-52249000D02*
X113297000Y-50949000D01*
X114697000Y-52349000D02*
X113297000Y-50949000D01*
X118497000Y-56709000D02*
X118497000Y-52349000D01*
X129697000Y-52349000D02*
X118497000Y-52349000D01*
X118497000Y-52349000D02*
X114697000Y-52349000D01*
D24*
X51497000Y-80349000D02*
X58147000Y-80349000D01*
X66997000Y-63849000D02*
X69997000Y-60849000D01*
X66997000Y-71499000D02*
X66997000Y-63849000D01*
X58147000Y-80349000D02*
X66997000Y-71499000D01*
X69997000Y-60849000D02*
X75897000Y-60849000D01*
X80897000Y-55849000D02*
X88497000Y-55849000D01*
X75897000Y-60849000D02*
X80897000Y-55849000D01*
X101997000Y-55849000D02*
X106997000Y-60849000D01*
X88497000Y-55849000D02*
X101997000Y-55849000D01*
X106997000Y-60849000D02*
X115347000Y-60849000D01*
X118347000Y-63849000D02*
X125497000Y-63849000D01*
X115347000Y-60849000D02*
X118347000Y-63849000D01*
X59687000Y-39129000D02*
X59687000Y-45939000D01*
X59687000Y-45939000D02*
X66747000Y-52999000D01*
X78047000Y-52999000D02*
X80897000Y-55849000D01*
X66747000Y-52999000D02*
X78047000Y-52999000D01*
X51497000Y-97849000D02*
X53897000Y-97849000D01*
X53897000Y-97849000D02*
X61247000Y-90499000D01*
X61247000Y-90499000D02*
X61247000Y-80999000D01*
X63897000Y-78349000D02*
X69997000Y-78349000D01*
X61247000Y-80999000D02*
X63897000Y-78349000D01*
X69997000Y-78349000D02*
X73647000Y-78349000D01*
X78647000Y-73349000D02*
X88497000Y-73349000D01*
X73647000Y-78349000D02*
X78647000Y-73349000D01*
X101997000Y-73349000D02*
X106997000Y-78349000D01*
X88497000Y-73349000D02*
X101997000Y-73349000D01*
X122497000Y-78349000D02*
X125497000Y-81349000D01*
X106997000Y-78349000D02*
X122497000Y-78349000D01*
X62227000Y-39129000D02*
X62227000Y-47229000D01*
X62227000Y-47229000D02*
X67247000Y-52249000D01*
X67247000Y-52249000D02*
X77747000Y-52249000D01*
X77747000Y-52249000D02*
X78497000Y-52249000D01*
X78497000Y-52249000D02*
X80997000Y-54749000D01*
X80997000Y-54749000D02*
X85747000Y-54749000D01*
X122497000Y-95849000D02*
X125497000Y-98849000D01*
X106997000Y-95849000D02*
X122497000Y-95849000D01*
X101997000Y-90849000D02*
X106997000Y-95849000D01*
X74997000Y-90849000D02*
X69997000Y-95849000D01*
X88497000Y-90849000D02*
X74997000Y-90849000D01*
X54497000Y-115349000D02*
X56897000Y-115349000D01*
X56897000Y-115349000D02*
X61497000Y-110749000D01*
X61497000Y-110749000D02*
X61497000Y-98499000D01*
X64147000Y-95849000D02*
X69997000Y-95849000D01*
X61497000Y-98499000D02*
X64147000Y-95849000D01*
X98897000Y-90849000D02*
X98597000Y-90849000D01*
X78997000Y-51499000D02*
X67747000Y-51499000D01*
X67747000Y-51499000D02*
X64767000Y-48519000D01*
X64767000Y-48519000D02*
X64767000Y-39129000D01*
X98897000Y-90849000D02*
X101997000Y-90849000D01*
X88497000Y-90849000D02*
X98197000Y-90849000D01*
X98197000Y-90849000D02*
X98897000Y-90849000D01*
X89197000Y-53749000D02*
X90397000Y-54949000D01*
X90397000Y-54949000D02*
X99197000Y-54949000D01*
X78997000Y-51499000D02*
X78997000Y-51549000D01*
X81197000Y-53749000D02*
X89197000Y-53749000D01*
X78997000Y-51549000D02*
X81197000Y-53749000D01*
X131497000Y-116349000D02*
X136497000Y-121349000D01*
X67307000Y-49809000D02*
X67307000Y-39129000D01*
X79497000Y-50749000D02*
X68247000Y-50749000D01*
X68247000Y-50749000D02*
X67307000Y-49809000D01*
X80997000Y-52249000D02*
X79497000Y-50749000D01*
X80997000Y-52249000D02*
X81597000Y-52849000D01*
X81597000Y-52849000D02*
X81697000Y-52949000D01*
X81697000Y-52949000D02*
X89497000Y-52949000D01*
X89497000Y-52949000D02*
X90597000Y-54049000D01*
X90597000Y-54049000D02*
X100297000Y-54049000D01*
X116097000Y-114349000D02*
X117997000Y-116249000D01*
X99497000Y-114349000D02*
X116097000Y-114349000D01*
X131397000Y-116249000D02*
X131497000Y-116349000D01*
X117997000Y-116249000D02*
X131397000Y-116249000D01*
X126117000Y-59249000D02*
X131997000Y-59249000D01*
X131997000Y-59249000D02*
X132497000Y-58749000D01*
X132497000Y-58749000D02*
X132497000Y-49449000D01*
X132497000Y-49449000D02*
X131597000Y-48549000D01*
X128897000Y-38449000D02*
X131597000Y-41149000D01*
X78297000Y-41649000D02*
X81497000Y-38449000D01*
X74907000Y-41649000D02*
X78297000Y-41649000D01*
X72387000Y-39129000D02*
X74907000Y-41649000D01*
X81497000Y-38449000D02*
X128897000Y-38449000D01*
X123577000Y-56709000D02*
X123577000Y-55869000D01*
X123577000Y-55869000D02*
X124097000Y-55349000D01*
X124097000Y-55349000D02*
X130597000Y-55349000D01*
X130597000Y-55349000D02*
X131697000Y-54249000D01*
X131697000Y-54249000D02*
X131697000Y-50749000D01*
X131697000Y-50749000D02*
X130697000Y-49749000D01*
X123577000Y-59249000D02*
X123577000Y-60229000D01*
X123577000Y-60229000D02*
X124197000Y-60849000D01*
X124197000Y-60849000D02*
X133297000Y-60849000D01*
X69847000Y-39129000D02*
X69847000Y-38599000D01*
X69847000Y-38599000D02*
X70997000Y-37449000D01*
X70997000Y-37449000D02*
X129797000Y-37449000D01*
X133297000Y-60849000D02*
X133297000Y-48149000D01*
X133297000Y-48149000D02*
X132797000Y-47649000D01*
X132797000Y-40449000D02*
X129797000Y-37449000D01*
X132797000Y-41249000D02*
X132797000Y-40449000D01*
X121037000Y-56709000D02*
X121037000Y-55709000D01*
X121037000Y-55709000D02*
X122297000Y-54449000D01*
X122297000Y-54449000D02*
X129697000Y-54449000D01*
X129697000Y-54449000D02*
X129997000Y-54449000D01*
X129997000Y-54449000D02*
X130797000Y-53649000D01*
X130797000Y-53649000D02*
X130797000Y-51549000D01*
X130797000Y-51549000D02*
X129597000Y-50349000D01*
X135747000Y-110074000D02*
X138772000Y-110074000D01*
X138772000Y-110074000D02*
X138997000Y-109849000D01*
X62227000Y-54879000D02*
X64097000Y-56749000D01*
X62227000Y-54369000D02*
X62227000Y-54879000D01*
X64097000Y-56749000D02*
X70097000Y-56749000D01*
X80097000Y-68149000D02*
X81197000Y-69249000D01*
X80097000Y-58549000D02*
X80097000Y-68149000D01*
X138997000Y-109849000D02*
X140197000Y-109849000D01*
X140197000Y-109849000D02*
X141097000Y-108949000D01*
X141097000Y-108949000D02*
X141097000Y-100449000D01*
X141097000Y-100449000D02*
X133297000Y-92649000D01*
X133297000Y-92649000D02*
X133297000Y-79949000D01*
X133297000Y-79949000D02*
X129397000Y-76049000D01*
X108397000Y-76049000D02*
X101597000Y-69249000D01*
X129397000Y-76049000D02*
X108397000Y-76049000D01*
X81197000Y-69249000D02*
X101597000Y-69249000D01*
X135747000Y-106074000D02*
X138872000Y-106074000D01*
X138872000Y-106074000D02*
X138897000Y-106049000D01*
X59687000Y-54369000D02*
X59717000Y-54369000D01*
X59717000Y-54369000D02*
X63497000Y-58149000D01*
X63497000Y-58149000D02*
X68597000Y-58149000D01*
X78897000Y-59649000D02*
X78897000Y-68649000D01*
X78897000Y-68649000D02*
X80397000Y-70149000D01*
X138897000Y-106049000D02*
X139197000Y-106049000D01*
X139197000Y-106049000D02*
X140297000Y-104949000D01*
X140297000Y-104949000D02*
X140297000Y-100849000D01*
X140297000Y-100849000D02*
X132497000Y-93049000D01*
X132497000Y-93049000D02*
X132497000Y-80349000D01*
X132497000Y-80349000D02*
X128997000Y-76849000D01*
X128997000Y-76849000D02*
X108097000Y-76849000D01*
X108097000Y-76849000D02*
X101397000Y-70149000D01*
X80397000Y-70149000D02*
X101397000Y-70149000D01*
M02*
