M48
; DRILL file {KiCad 5.1.3-ffb9f22~84~ubuntu19.04.1} date Mon 05 Aug 2019 11:02:06 AM CST
; FORMAT={-:-/ absolute / inch / decimal}
; #@! TF.CreationDate,2019-08-05T11:02:06+08:00
; #@! TF.GenerationSoftware,Kicad,Pcbnew,5.1.3-ffb9f22~84~ubuntu19.04.1
; #@! TF.FileFunction,NonPlated,1,2,NPTH
FMAT,2
INCH
T1C0.0315
T2C0.0669
T3C0.1339
%
G90
G05
T1
X4.1514Y-3.675
X4.427Y-3.675
X4.1514Y-3.675
X4.427Y-3.675
T2
X3.9935Y-2.44
X4.4265Y-2.44
X3.9935Y-4.18
X4.4265Y-4.18
X3.2435Y-2.44
X3.6765Y-2.44
X3.9935Y-0.94
X4.4265Y-0.94
X1.7435Y-2.44
X2.1765Y-2.44
X0.9935Y-2.44
X1.4265Y-2.44
X3.9935Y-1.69
X4.4265Y-1.69
X2.4935Y-1.69
X2.9265Y-1.69
X2.4935Y-0.94
X2.9265Y-0.94
X0.9935Y-0.94
X1.4265Y-0.94
X3.2435Y-0.94
X3.6765Y-0.94
X1.7435Y-1.69
X2.1765Y-1.69
X3.2435Y-3.19
X3.6765Y-3.19
X2.4935Y-3.19
X2.9265Y-3.19
X1.7435Y-3.19
X2.1765Y-3.19
X1.7435Y-0.94
X2.1765Y-0.94
X2.4935Y-3.94
X2.9265Y-3.94
X0.9935Y-3.19
X1.4265Y-3.19
X0.9935Y-1.69
X1.4265Y-1.69
X3.2435Y-4.06
X3.6765Y-4.06
X3.2435Y-1.69
X3.6765Y-1.69
X3.9935Y-3.19
X4.4265Y-3.19
X2.4935Y-2.44
X2.9265Y-2.44
T3
X4.21Y-2.44
X4.21Y-4.18
X3.46Y-2.44
X4.21Y-0.94
X1.96Y-2.44
X1.21Y-2.44
X4.21Y-1.69
X2.71Y-1.69
X2.71Y-0.94
X1.21Y-0.94
X3.46Y-0.94
X1.96Y-1.69
X3.46Y-3.19
X2.71Y-3.19
X1.96Y-3.19
X1.96Y-0.94
X2.71Y-3.94
X1.21Y-3.19
X1.21Y-1.69
X3.46Y-4.06
X3.46Y-1.69
X4.21Y-3.19
X2.71Y-2.44
T0
M30
