G04 #@! TF.GenerationSoftware,KiCad,Pcbnew,5.1.4-e60b266~84~ubuntu19.04.1*
G04 #@! TF.CreationDate,2019-12-12T22:12:58-06:00*
G04 #@! TF.ProjectId,fissure,66697373-7572-4652-9e6b-696361645f70,rev?*
G04 #@! TF.SameCoordinates,Original*
G04 #@! TF.FileFunction,Profile,NP*
%FSLAX46Y46*%
G04 Gerber Fmt 4.6, Leading zero omitted, Abs format (unit mm)*
G04 Created by KiCad (PCBNEW 5.1.4-e60b266~84~ubuntu19.04.1) date 2019-12-12 22:12:58*
%MOMM*%
%LPD*%
G04 APERTURE LIST*
%ADD10C,0.050000*%
G04 APERTURE END LIST*
D10*
X124567673Y-132188609D02*
G75*
G03X120156959Y-129649000I-4410714J-2560391D01*
G01*
X124567000Y-132189000D02*
G75*
G03X128988870Y-134747925I4421870J2541075D01*
G01*
X132985684Y-36747684D02*
G75*
G02X135417000Y-39179000I0J-2431316D01*
G01*
X135417535Y-80467061D02*
X135417000Y-39179000D01*
X139619379Y-87808678D02*
G75*
G02X135417535Y-80467061I4312849J7341617D01*
G01*
X139620160Y-87807349D02*
G75*
G02X143997000Y-95249000I-4137853J-7441651D01*
G01*
X43997000Y-41149000D02*
G75*
G02X48397000Y-36749000I4400000J0D01*
G01*
X49997000Y-129649000D02*
G75*
G02X43997000Y-123649000I0J6000000D01*
G01*
X132985684Y-36747684D02*
X48397000Y-36749000D01*
X65297000Y-129649000D02*
X49997000Y-129649000D01*
X65297000Y-129649000D02*
X120156959Y-129649000D01*
X43997000Y-41149000D02*
X43997000Y-123649000D01*
X143997000Y-134749000D02*
X143997000Y-95249000D01*
X128988870Y-134747925D02*
X143997000Y-134749000D01*
X71663666Y-84249000D02*
G75*
G03X71663666Y-84249000I-1666666J0D01*
G01*
X67497000Y-84249000D02*
X72497000Y-84249000D01*
X69997000Y-81749000D02*
X69997000Y-86749000D01*
X53163666Y-86249000D02*
G75*
G03X53163666Y-86249000I-1666666J0D01*
G01*
X48997000Y-86249000D02*
X53997000Y-86249000D01*
X51497000Y-83749000D02*
X51497000Y-88749000D01*
M02*
