G04 #@! TF.GenerationSoftware,KiCad,Pcbnew,5.1.3-ffb9f22~84~ubuntu19.04.1*
G04 #@! TF.CreationDate,2019-08-05T11:02:01+08:00*
G04 #@! TF.ProjectId,fissure,66697373-7572-4652-9e6b-696361645f70,rev?*
G04 #@! TF.SameCoordinates,Original*
G04 #@! TF.FileFunction,Soldermask,Bot*
G04 #@! TF.FilePolarity,Negative*
%FSLAX46Y46*%
G04 Gerber Fmt 4.6, Leading zero omitted, Abs format (unit mm)*
G04 Created by KiCad (PCBNEW 5.1.3-ffb9f22~84~ubuntu19.04.1) date 2019-08-05 11:02:01*
%MOMM*%
%LPD*%
G04 APERTURE LIST*
%ADD10C,0.100000*%
G04 APERTURE END LIST*
D10*
G36*
X107240564Y-111061389D02*
G01*
X107431833Y-111140615D01*
X107431835Y-111140616D01*
X107603973Y-111255635D01*
X107750365Y-111402027D01*
X107812498Y-111495015D01*
X107865385Y-111574167D01*
X107944611Y-111765436D01*
X107985000Y-111968484D01*
X107985000Y-112175516D01*
X107944611Y-112378564D01*
X107865385Y-112569833D01*
X107865384Y-112569835D01*
X107750365Y-112741973D01*
X107603973Y-112888365D01*
X107431835Y-113003384D01*
X107431834Y-113003385D01*
X107431833Y-113003385D01*
X107240564Y-113082611D01*
X107037516Y-113123000D01*
X106830484Y-113123000D01*
X106627436Y-113082611D01*
X106436167Y-113003385D01*
X106436166Y-113003385D01*
X106436165Y-113003384D01*
X106264027Y-112888365D01*
X106117635Y-112741973D01*
X106002616Y-112569835D01*
X106002615Y-112569833D01*
X105923389Y-112378564D01*
X105883000Y-112175516D01*
X105883000Y-111968484D01*
X105923389Y-111765436D01*
X106002615Y-111574167D01*
X106055503Y-111495015D01*
X106117635Y-111402027D01*
X106264027Y-111255635D01*
X106436165Y-111140616D01*
X106436167Y-111140615D01*
X106627436Y-111061389D01*
X106830484Y-111021000D01*
X107037516Y-111021000D01*
X107240564Y-111061389D01*
X107240564Y-111061389D01*
G37*
G36*
X55134483Y-110614335D02*
G01*
X55303240Y-110684236D01*
X55455118Y-110785718D01*
X55584282Y-110914882D01*
X55685764Y-111066760D01*
X55755665Y-111235517D01*
X55791300Y-111414668D01*
X55791300Y-111597332D01*
X55755665Y-111776483D01*
X55685764Y-111945240D01*
X55584282Y-112097118D01*
X55455118Y-112226282D01*
X55303240Y-112327764D01*
X55134483Y-112397665D01*
X54955332Y-112433300D01*
X54772668Y-112433300D01*
X54593517Y-112397665D01*
X54424760Y-112327764D01*
X54272882Y-112226282D01*
X54143718Y-112097118D01*
X54042236Y-111945240D01*
X53972335Y-111776483D01*
X53936700Y-111597332D01*
X53936700Y-111414668D01*
X53972335Y-111235517D01*
X54042236Y-111066760D01*
X54143718Y-110914882D01*
X54272882Y-110785718D01*
X54424760Y-110684236D01*
X54593517Y-110614335D01*
X54772668Y-110578700D01*
X54955332Y-110578700D01*
X55134483Y-110614335D01*
X55134483Y-110614335D01*
G37*
G36*
X27851300Y-112433300D02*
G01*
X25996700Y-112433300D01*
X25996700Y-110578700D01*
X27851300Y-110578700D01*
X27851300Y-112433300D01*
X27851300Y-112433300D01*
G37*
G36*
X29734483Y-110614335D02*
G01*
X29903240Y-110684236D01*
X30055118Y-110785718D01*
X30184282Y-110914882D01*
X30285764Y-111066760D01*
X30355665Y-111235517D01*
X30391300Y-111414668D01*
X30391300Y-111597332D01*
X30355665Y-111776483D01*
X30285764Y-111945240D01*
X30184282Y-112097118D01*
X30055118Y-112226282D01*
X29903240Y-112327764D01*
X29734483Y-112397665D01*
X29555332Y-112433300D01*
X29372668Y-112433300D01*
X29193517Y-112397665D01*
X29024760Y-112327764D01*
X28872882Y-112226282D01*
X28743718Y-112097118D01*
X28642236Y-111945240D01*
X28572335Y-111776483D01*
X28536700Y-111597332D01*
X28536700Y-111414668D01*
X28572335Y-111235517D01*
X28642236Y-111066760D01*
X28743718Y-110914882D01*
X28872882Y-110785718D01*
X29024760Y-110684236D01*
X29193517Y-110614335D01*
X29372668Y-110578700D01*
X29555332Y-110578700D01*
X29734483Y-110614335D01*
X29734483Y-110614335D01*
G37*
G36*
X32274483Y-110614335D02*
G01*
X32443240Y-110684236D01*
X32595118Y-110785718D01*
X32724282Y-110914882D01*
X32825764Y-111066760D01*
X32895665Y-111235517D01*
X32931300Y-111414668D01*
X32931300Y-111597332D01*
X32895665Y-111776483D01*
X32825764Y-111945240D01*
X32724282Y-112097118D01*
X32595118Y-112226282D01*
X32443240Y-112327764D01*
X32274483Y-112397665D01*
X32095332Y-112433300D01*
X31912668Y-112433300D01*
X31733517Y-112397665D01*
X31564760Y-112327764D01*
X31412882Y-112226282D01*
X31283718Y-112097118D01*
X31182236Y-111945240D01*
X31112335Y-111776483D01*
X31076700Y-111597332D01*
X31076700Y-111414668D01*
X31112335Y-111235517D01*
X31182236Y-111066760D01*
X31283718Y-110914882D01*
X31412882Y-110785718D01*
X31564760Y-110684236D01*
X31733517Y-110614335D01*
X31912668Y-110578700D01*
X32095332Y-110578700D01*
X32274483Y-110614335D01*
X32274483Y-110614335D01*
G37*
G36*
X34814483Y-110614335D02*
G01*
X34983240Y-110684236D01*
X35135118Y-110785718D01*
X35264282Y-110914882D01*
X35365764Y-111066760D01*
X35435665Y-111235517D01*
X35471300Y-111414668D01*
X35471300Y-111597332D01*
X35435665Y-111776483D01*
X35365764Y-111945240D01*
X35264282Y-112097118D01*
X35135118Y-112226282D01*
X34983240Y-112327764D01*
X34814483Y-112397665D01*
X34635332Y-112433300D01*
X34452668Y-112433300D01*
X34273517Y-112397665D01*
X34104760Y-112327764D01*
X33952882Y-112226282D01*
X33823718Y-112097118D01*
X33722236Y-111945240D01*
X33652335Y-111776483D01*
X33616700Y-111597332D01*
X33616700Y-111414668D01*
X33652335Y-111235517D01*
X33722236Y-111066760D01*
X33823718Y-110914882D01*
X33952882Y-110785718D01*
X34104760Y-110684236D01*
X34273517Y-110614335D01*
X34452668Y-110578700D01*
X34635332Y-110578700D01*
X34814483Y-110614335D01*
X34814483Y-110614335D01*
G37*
G36*
X37354483Y-110614335D02*
G01*
X37523240Y-110684236D01*
X37675118Y-110785718D01*
X37804282Y-110914882D01*
X37905764Y-111066760D01*
X37975665Y-111235517D01*
X38011300Y-111414668D01*
X38011300Y-111597332D01*
X37975665Y-111776483D01*
X37905764Y-111945240D01*
X37804282Y-112097118D01*
X37675118Y-112226282D01*
X37523240Y-112327764D01*
X37354483Y-112397665D01*
X37175332Y-112433300D01*
X36992668Y-112433300D01*
X36813517Y-112397665D01*
X36644760Y-112327764D01*
X36492882Y-112226282D01*
X36363718Y-112097118D01*
X36262236Y-111945240D01*
X36192335Y-111776483D01*
X36156700Y-111597332D01*
X36156700Y-111414668D01*
X36192335Y-111235517D01*
X36262236Y-111066760D01*
X36363718Y-110914882D01*
X36492882Y-110785718D01*
X36644760Y-110684236D01*
X36813517Y-110614335D01*
X36992668Y-110578700D01*
X37175332Y-110578700D01*
X37354483Y-110614335D01*
X37354483Y-110614335D01*
G37*
G36*
X42434483Y-110614335D02*
G01*
X42603240Y-110684236D01*
X42755118Y-110785718D01*
X42884282Y-110914882D01*
X42985764Y-111066760D01*
X43055665Y-111235517D01*
X43091300Y-111414668D01*
X43091300Y-111597332D01*
X43055665Y-111776483D01*
X42985764Y-111945240D01*
X42884282Y-112097118D01*
X42755118Y-112226282D01*
X42603240Y-112327764D01*
X42434483Y-112397665D01*
X42255332Y-112433300D01*
X42072668Y-112433300D01*
X41893517Y-112397665D01*
X41724760Y-112327764D01*
X41572882Y-112226282D01*
X41443718Y-112097118D01*
X41342236Y-111945240D01*
X41272335Y-111776483D01*
X41236700Y-111597332D01*
X41236700Y-111414668D01*
X41272335Y-111235517D01*
X41342236Y-111066760D01*
X41443718Y-110914882D01*
X41572882Y-110785718D01*
X41724760Y-110684236D01*
X41893517Y-110614335D01*
X42072668Y-110578700D01*
X42255332Y-110578700D01*
X42434483Y-110614335D01*
X42434483Y-110614335D01*
G37*
G36*
X39894483Y-110614335D02*
G01*
X40063240Y-110684236D01*
X40215118Y-110785718D01*
X40344282Y-110914882D01*
X40445764Y-111066760D01*
X40515665Y-111235517D01*
X40551300Y-111414668D01*
X40551300Y-111597332D01*
X40515665Y-111776483D01*
X40445764Y-111945240D01*
X40344282Y-112097118D01*
X40215118Y-112226282D01*
X40063240Y-112327764D01*
X39894483Y-112397665D01*
X39715332Y-112433300D01*
X39532668Y-112433300D01*
X39353517Y-112397665D01*
X39184760Y-112327764D01*
X39032882Y-112226282D01*
X38903718Y-112097118D01*
X38802236Y-111945240D01*
X38732335Y-111776483D01*
X38696700Y-111597332D01*
X38696700Y-111414668D01*
X38732335Y-111235517D01*
X38802236Y-111066760D01*
X38903718Y-110914882D01*
X39032882Y-110785718D01*
X39184760Y-110684236D01*
X39353517Y-110614335D01*
X39532668Y-110578700D01*
X39715332Y-110578700D01*
X39894483Y-110614335D01*
X39894483Y-110614335D01*
G37*
G36*
X52594483Y-110614335D02*
G01*
X52763240Y-110684236D01*
X52915118Y-110785718D01*
X53044282Y-110914882D01*
X53145764Y-111066760D01*
X53215665Y-111235517D01*
X53251300Y-111414668D01*
X53251300Y-111597332D01*
X53215665Y-111776483D01*
X53145764Y-111945240D01*
X53044282Y-112097118D01*
X52915118Y-112226282D01*
X52763240Y-112327764D01*
X52594483Y-112397665D01*
X52415332Y-112433300D01*
X52232668Y-112433300D01*
X52053517Y-112397665D01*
X51884760Y-112327764D01*
X51732882Y-112226282D01*
X51603718Y-112097118D01*
X51502236Y-111945240D01*
X51432335Y-111776483D01*
X51396700Y-111597332D01*
X51396700Y-111414668D01*
X51432335Y-111235517D01*
X51502236Y-111066760D01*
X51603718Y-110914882D01*
X51732882Y-110785718D01*
X51884760Y-110684236D01*
X52053517Y-110614335D01*
X52232668Y-110578700D01*
X52415332Y-110578700D01*
X52594483Y-110614335D01*
X52594483Y-110614335D01*
G37*
G36*
X50054483Y-110614335D02*
G01*
X50223240Y-110684236D01*
X50375118Y-110785718D01*
X50504282Y-110914882D01*
X50605764Y-111066760D01*
X50675665Y-111235517D01*
X50711300Y-111414668D01*
X50711300Y-111597332D01*
X50675665Y-111776483D01*
X50605764Y-111945240D01*
X50504282Y-112097118D01*
X50375118Y-112226282D01*
X50223240Y-112327764D01*
X50054483Y-112397665D01*
X49875332Y-112433300D01*
X49692668Y-112433300D01*
X49513517Y-112397665D01*
X49344760Y-112327764D01*
X49192882Y-112226282D01*
X49063718Y-112097118D01*
X48962236Y-111945240D01*
X48892335Y-111776483D01*
X48856700Y-111597332D01*
X48856700Y-111414668D01*
X48892335Y-111235517D01*
X48962236Y-111066760D01*
X49063718Y-110914882D01*
X49192882Y-110785718D01*
X49344760Y-110684236D01*
X49513517Y-110614335D01*
X49692668Y-110578700D01*
X49875332Y-110578700D01*
X50054483Y-110614335D01*
X50054483Y-110614335D01*
G37*
G36*
X44974483Y-110614335D02*
G01*
X45143240Y-110684236D01*
X45295118Y-110785718D01*
X45424282Y-110914882D01*
X45525764Y-111066760D01*
X45595665Y-111235517D01*
X45631300Y-111414668D01*
X45631300Y-111597332D01*
X45595665Y-111776483D01*
X45525764Y-111945240D01*
X45424282Y-112097118D01*
X45295118Y-112226282D01*
X45143240Y-112327764D01*
X44974483Y-112397665D01*
X44795332Y-112433300D01*
X44612668Y-112433300D01*
X44433517Y-112397665D01*
X44264760Y-112327764D01*
X44112882Y-112226282D01*
X43983718Y-112097118D01*
X43882236Y-111945240D01*
X43812335Y-111776483D01*
X43776700Y-111597332D01*
X43776700Y-111414668D01*
X43812335Y-111235517D01*
X43882236Y-111066760D01*
X43983718Y-110914882D01*
X44112882Y-110785718D01*
X44264760Y-110684236D01*
X44433517Y-110614335D01*
X44612668Y-110578700D01*
X44795332Y-110578700D01*
X44974483Y-110614335D01*
X44974483Y-110614335D01*
G37*
G36*
X47514483Y-110614335D02*
G01*
X47683240Y-110684236D01*
X47835118Y-110785718D01*
X47964282Y-110914882D01*
X48065764Y-111066760D01*
X48135665Y-111235517D01*
X48171300Y-111414668D01*
X48171300Y-111597332D01*
X48135665Y-111776483D01*
X48065764Y-111945240D01*
X47964282Y-112097118D01*
X47835118Y-112226282D01*
X47683240Y-112327764D01*
X47514483Y-112397665D01*
X47335332Y-112433300D01*
X47152668Y-112433300D01*
X46973517Y-112397665D01*
X46804760Y-112327764D01*
X46652882Y-112226282D01*
X46523718Y-112097118D01*
X46422236Y-111945240D01*
X46352335Y-111776483D01*
X46316700Y-111597332D01*
X46316700Y-111414668D01*
X46352335Y-111235517D01*
X46422236Y-111066760D01*
X46523718Y-110914882D01*
X46652882Y-110785718D01*
X46804760Y-110684236D01*
X46973517Y-110614335D01*
X47152668Y-110578700D01*
X47335332Y-110578700D01*
X47514483Y-110614335D01*
X47514483Y-110614335D01*
G37*
G36*
X97657228Y-110015703D02*
G01*
X97812100Y-110079853D01*
X97951481Y-110172985D01*
X98070015Y-110291519D01*
X98163147Y-110430900D01*
X98227297Y-110585772D01*
X98260000Y-110750184D01*
X98260000Y-110917816D01*
X98227297Y-111082228D01*
X98163147Y-111237100D01*
X98070015Y-111376481D01*
X97951481Y-111495015D01*
X97812100Y-111588147D01*
X97657228Y-111652297D01*
X97492816Y-111685000D01*
X97325184Y-111685000D01*
X97160772Y-111652297D01*
X97005900Y-111588147D01*
X96866519Y-111495015D01*
X96747985Y-111376481D01*
X96654853Y-111237100D01*
X96590703Y-111082228D01*
X96558000Y-110917816D01*
X96558000Y-110750184D01*
X96590703Y-110585772D01*
X96654853Y-110430900D01*
X96747985Y-110291519D01*
X96866519Y-110172985D01*
X97005900Y-110079853D01*
X97160772Y-110015703D01*
X97325184Y-109983000D01*
X97492816Y-109983000D01*
X97657228Y-110015703D01*
X97657228Y-110015703D01*
G37*
G36*
X112240564Y-108961389D02*
G01*
X112431833Y-109040615D01*
X112431835Y-109040616D01*
X112561887Y-109127514D01*
X112603973Y-109155635D01*
X112750365Y-109302027D01*
X112865385Y-109474167D01*
X112944611Y-109665436D01*
X112985000Y-109868484D01*
X112985000Y-110075516D01*
X112944611Y-110278564D01*
X112881510Y-110430903D01*
X112865384Y-110469835D01*
X112750365Y-110641973D01*
X112603973Y-110788365D01*
X112431835Y-110903384D01*
X112431834Y-110903385D01*
X112431833Y-110903385D01*
X112240564Y-110982611D01*
X112037516Y-111023000D01*
X111830484Y-111023000D01*
X111627436Y-110982611D01*
X111436167Y-110903385D01*
X111436166Y-110903385D01*
X111436165Y-110903384D01*
X111264027Y-110788365D01*
X111117635Y-110641973D01*
X111002616Y-110469835D01*
X110986490Y-110430903D01*
X110923389Y-110278564D01*
X110883000Y-110075516D01*
X110883000Y-109868484D01*
X110923389Y-109665436D01*
X111002615Y-109474167D01*
X111117635Y-109302027D01*
X111264027Y-109155635D01*
X111306113Y-109127514D01*
X111436165Y-109040616D01*
X111436167Y-109040615D01*
X111627436Y-108961389D01*
X111830484Y-108921000D01*
X112037516Y-108921000D01*
X112240564Y-108961389D01*
X112240564Y-108961389D01*
G37*
G36*
X102240564Y-108961389D02*
G01*
X102431833Y-109040615D01*
X102431835Y-109040616D01*
X102561887Y-109127514D01*
X102603973Y-109155635D01*
X102750365Y-109302027D01*
X102865385Y-109474167D01*
X102944611Y-109665436D01*
X102985000Y-109868484D01*
X102985000Y-110075516D01*
X102944611Y-110278564D01*
X102881510Y-110430903D01*
X102865384Y-110469835D01*
X102750365Y-110641973D01*
X102603973Y-110788365D01*
X102431835Y-110903384D01*
X102431834Y-110903385D01*
X102431833Y-110903385D01*
X102240564Y-110982611D01*
X102037516Y-111023000D01*
X101830484Y-111023000D01*
X101627436Y-110982611D01*
X101436167Y-110903385D01*
X101436166Y-110903385D01*
X101436165Y-110903384D01*
X101264027Y-110788365D01*
X101117635Y-110641973D01*
X101002616Y-110469835D01*
X100986490Y-110430903D01*
X100923389Y-110278564D01*
X100883000Y-110075516D01*
X100883000Y-109868484D01*
X100923389Y-109665436D01*
X101002615Y-109474167D01*
X101117635Y-109302027D01*
X101264027Y-109155635D01*
X101306113Y-109127514D01*
X101436165Y-109040616D01*
X101436167Y-109040615D01*
X101627436Y-108961389D01*
X101830484Y-108921000D01*
X102037516Y-108921000D01*
X102240564Y-108961389D01*
X102240564Y-108961389D01*
G37*
G36*
X88190564Y-108013389D02*
G01*
X88381833Y-108092615D01*
X88381835Y-108092616D01*
X88553973Y-108207635D01*
X88700365Y-108354027D01*
X88762498Y-108447015D01*
X88815385Y-108526167D01*
X88894611Y-108717436D01*
X88935000Y-108920484D01*
X88935000Y-109127516D01*
X88894611Y-109330564D01*
X88835129Y-109474167D01*
X88815384Y-109521835D01*
X88700365Y-109693973D01*
X88553973Y-109840365D01*
X88381835Y-109955384D01*
X88381834Y-109955385D01*
X88381833Y-109955385D01*
X88190564Y-110034611D01*
X87987516Y-110075000D01*
X87780484Y-110075000D01*
X87577436Y-110034611D01*
X87386167Y-109955385D01*
X87386166Y-109955385D01*
X87386165Y-109955384D01*
X87214027Y-109840365D01*
X87067635Y-109693973D01*
X86952616Y-109521835D01*
X86932871Y-109474167D01*
X86873389Y-109330564D01*
X86833000Y-109127516D01*
X86833000Y-108920484D01*
X86873389Y-108717436D01*
X86952615Y-108526167D01*
X87005503Y-108447015D01*
X87067635Y-108354027D01*
X87214027Y-108207635D01*
X87386165Y-108092616D01*
X87386167Y-108092615D01*
X87577436Y-108013389D01*
X87780484Y-107973000D01*
X87987516Y-107973000D01*
X88190564Y-108013389D01*
X88190564Y-108013389D01*
G37*
G36*
X98060000Y-109160000D02*
G01*
X96758000Y-109160000D01*
X96758000Y-107858000D01*
X98060000Y-107858000D01*
X98060000Y-109160000D01*
X98060000Y-109160000D01*
G37*
G36*
X59557228Y-106967703D02*
G01*
X59712100Y-107031853D01*
X59851481Y-107124985D01*
X59970015Y-107243519D01*
X60063147Y-107382900D01*
X60127297Y-107537772D01*
X60160000Y-107702184D01*
X60160000Y-107869816D01*
X60127297Y-108034228D01*
X60063147Y-108189100D01*
X59970015Y-108328481D01*
X59851481Y-108447015D01*
X59712100Y-108540147D01*
X59557228Y-108604297D01*
X59392816Y-108637000D01*
X59225184Y-108637000D01*
X59060772Y-108604297D01*
X58905900Y-108540147D01*
X58766519Y-108447015D01*
X58647985Y-108328481D01*
X58554853Y-108189100D01*
X58490703Y-108034228D01*
X58458000Y-107869816D01*
X58458000Y-107702184D01*
X58490703Y-107537772D01*
X58554853Y-107382900D01*
X58647985Y-107243519D01*
X58766519Y-107124985D01*
X58905900Y-107031853D01*
X59060772Y-106967703D01*
X59225184Y-106935000D01*
X59392816Y-106935000D01*
X59557228Y-106967703D01*
X59557228Y-106967703D01*
G37*
G36*
X78607228Y-106967703D02*
G01*
X78762100Y-107031853D01*
X78901481Y-107124985D01*
X79020015Y-107243519D01*
X79113147Y-107382900D01*
X79177297Y-107537772D01*
X79210000Y-107702184D01*
X79210000Y-107869816D01*
X79177297Y-108034228D01*
X79113147Y-108189100D01*
X79020015Y-108328481D01*
X78901481Y-108447015D01*
X78762100Y-108540147D01*
X78607228Y-108604297D01*
X78442816Y-108637000D01*
X78275184Y-108637000D01*
X78110772Y-108604297D01*
X77955900Y-108540147D01*
X77816519Y-108447015D01*
X77697985Y-108328481D01*
X77604853Y-108189100D01*
X77540703Y-108034228D01*
X77508000Y-107869816D01*
X77508000Y-107702184D01*
X77540703Y-107537772D01*
X77604853Y-107382900D01*
X77697985Y-107243519D01*
X77816519Y-107124985D01*
X77955900Y-107031853D01*
X78110772Y-106967703D01*
X78275184Y-106935000D01*
X78442816Y-106935000D01*
X78607228Y-106967703D01*
X78607228Y-106967703D01*
G37*
G36*
X93190564Y-105913389D02*
G01*
X93381833Y-105992615D01*
X93381835Y-105992616D01*
X93392197Y-105999540D01*
X93553973Y-106107635D01*
X93700365Y-106254027D01*
X93815385Y-106426167D01*
X93894611Y-106617436D01*
X93935000Y-106820484D01*
X93935000Y-107027516D01*
X93894611Y-107230564D01*
X93831510Y-107382903D01*
X93815384Y-107421835D01*
X93700365Y-107593973D01*
X93553973Y-107740365D01*
X93381835Y-107855384D01*
X93381834Y-107855385D01*
X93381833Y-107855385D01*
X93190564Y-107934611D01*
X92987516Y-107975000D01*
X92780484Y-107975000D01*
X92577436Y-107934611D01*
X92386167Y-107855385D01*
X92386166Y-107855385D01*
X92386165Y-107855384D01*
X92214027Y-107740365D01*
X92067635Y-107593973D01*
X91952616Y-107421835D01*
X91936490Y-107382903D01*
X91873389Y-107230564D01*
X91833000Y-107027516D01*
X91833000Y-106820484D01*
X91873389Y-106617436D01*
X91952615Y-106426167D01*
X92067635Y-106254027D01*
X92214027Y-106107635D01*
X92375803Y-105999540D01*
X92386165Y-105992616D01*
X92386167Y-105992615D01*
X92577436Y-105913389D01*
X92780484Y-105873000D01*
X92987516Y-105873000D01*
X93190564Y-105913389D01*
X93190564Y-105913389D01*
G37*
G36*
X83190564Y-105913389D02*
G01*
X83381833Y-105992615D01*
X83381835Y-105992616D01*
X83392197Y-105999540D01*
X83553973Y-106107635D01*
X83700365Y-106254027D01*
X83815385Y-106426167D01*
X83894611Y-106617436D01*
X83935000Y-106820484D01*
X83935000Y-107027516D01*
X83894611Y-107230564D01*
X83831510Y-107382903D01*
X83815384Y-107421835D01*
X83700365Y-107593973D01*
X83553973Y-107740365D01*
X83381835Y-107855384D01*
X83381834Y-107855385D01*
X83381833Y-107855385D01*
X83190564Y-107934611D01*
X82987516Y-107975000D01*
X82780484Y-107975000D01*
X82577436Y-107934611D01*
X82386167Y-107855385D01*
X82386166Y-107855385D01*
X82386165Y-107855384D01*
X82214027Y-107740365D01*
X82067635Y-107593973D01*
X81952616Y-107421835D01*
X81936490Y-107382903D01*
X81873389Y-107230564D01*
X81833000Y-107027516D01*
X81833000Y-106820484D01*
X81873389Y-106617436D01*
X81952615Y-106426167D01*
X82067635Y-106254027D01*
X82214027Y-106107635D01*
X82375803Y-105999540D01*
X82386165Y-105992616D01*
X82386167Y-105992615D01*
X82577436Y-105913389D01*
X82780484Y-105873000D01*
X82987516Y-105873000D01*
X83190564Y-105913389D01*
X83190564Y-105913389D01*
G37*
G36*
X107331985Y-104465860D02*
G01*
X107444748Y-104488290D01*
X107576741Y-104542963D01*
X107763408Y-104620283D01*
X108050196Y-104811909D01*
X108294091Y-105055804D01*
X108485717Y-105342592D01*
X108617710Y-105661253D01*
X108685000Y-105999540D01*
X108685000Y-106344460D01*
X108640140Y-106569985D01*
X108630702Y-106617435D01*
X108617710Y-106682747D01*
X108485717Y-107001408D01*
X108294091Y-107288196D01*
X108050196Y-107532091D01*
X107763408Y-107723717D01*
X107576741Y-107801037D01*
X107444748Y-107855710D01*
X107373837Y-107869815D01*
X107106460Y-107923000D01*
X106761540Y-107923000D01*
X106494163Y-107869815D01*
X106423252Y-107855710D01*
X106291259Y-107801037D01*
X106104592Y-107723717D01*
X105817804Y-107532091D01*
X105573909Y-107288196D01*
X105382283Y-107001408D01*
X105250290Y-106682747D01*
X105237299Y-106617435D01*
X105227860Y-106569985D01*
X105183000Y-106344460D01*
X105183000Y-105999540D01*
X105250290Y-105661253D01*
X105382283Y-105342592D01*
X105573909Y-105055804D01*
X105817804Y-104811909D01*
X106104592Y-104620283D01*
X106291259Y-104542963D01*
X106423252Y-104488290D01*
X106536015Y-104465860D01*
X106761540Y-104421000D01*
X107106460Y-104421000D01*
X107331985Y-104465860D01*
X107331985Y-104465860D01*
G37*
G36*
X101547512Y-105275927D02*
G01*
X101696812Y-105305624D01*
X101860784Y-105373544D01*
X102008354Y-105472147D01*
X102133853Y-105597646D01*
X102232456Y-105745216D01*
X102300376Y-105909188D01*
X102318348Y-105999542D01*
X102334256Y-106079516D01*
X102335000Y-106083259D01*
X102335000Y-106260741D01*
X102300376Y-106434812D01*
X102232456Y-106598784D01*
X102133853Y-106746354D01*
X102008354Y-106871853D01*
X101860784Y-106970456D01*
X101696812Y-107038376D01*
X101547512Y-107068073D01*
X101522742Y-107073000D01*
X101345258Y-107073000D01*
X101320488Y-107068073D01*
X101171188Y-107038376D01*
X101007216Y-106970456D01*
X100859646Y-106871853D01*
X100734147Y-106746354D01*
X100635544Y-106598784D01*
X100567624Y-106434812D01*
X100533000Y-106260741D01*
X100533000Y-106083259D01*
X100533745Y-106079516D01*
X100549652Y-105999542D01*
X100567624Y-105909188D01*
X100635544Y-105745216D01*
X100734147Y-105597646D01*
X100859646Y-105472147D01*
X101007216Y-105373544D01*
X101171188Y-105305624D01*
X101320488Y-105275927D01*
X101345258Y-105271000D01*
X101522742Y-105271000D01*
X101547512Y-105275927D01*
X101547512Y-105275927D01*
G37*
G36*
X112547512Y-105275927D02*
G01*
X112696812Y-105305624D01*
X112860784Y-105373544D01*
X113008354Y-105472147D01*
X113133853Y-105597646D01*
X113232456Y-105745216D01*
X113300376Y-105909188D01*
X113318348Y-105999542D01*
X113334256Y-106079516D01*
X113335000Y-106083259D01*
X113335000Y-106260741D01*
X113300376Y-106434812D01*
X113232456Y-106598784D01*
X113133853Y-106746354D01*
X113008354Y-106871853D01*
X112860784Y-106970456D01*
X112696812Y-107038376D01*
X112547512Y-107068073D01*
X112522742Y-107073000D01*
X112345258Y-107073000D01*
X112320488Y-107068073D01*
X112171188Y-107038376D01*
X112007216Y-106970456D01*
X111859646Y-106871853D01*
X111734147Y-106746354D01*
X111635544Y-106598784D01*
X111567624Y-106434812D01*
X111533000Y-106260741D01*
X111533000Y-106083259D01*
X111533745Y-106079516D01*
X111549652Y-105999542D01*
X111567624Y-105909188D01*
X111635544Y-105745216D01*
X111734147Y-105597646D01*
X111859646Y-105472147D01*
X112007216Y-105373544D01*
X112171188Y-105305624D01*
X112320488Y-105275927D01*
X112345258Y-105271000D01*
X112522742Y-105271000D01*
X112547512Y-105275927D01*
X112547512Y-105275927D01*
G37*
G36*
X69140564Y-104965389D02*
G01*
X69331833Y-105044615D01*
X69331835Y-105044616D01*
X69503973Y-105159635D01*
X69650365Y-105306027D01*
X69761364Y-105472148D01*
X69765385Y-105478167D01*
X69844611Y-105669436D01*
X69885000Y-105872484D01*
X69885000Y-106079516D01*
X69844611Y-106282564D01*
X69785129Y-106426167D01*
X69765384Y-106473835D01*
X69650365Y-106645973D01*
X69503973Y-106792365D01*
X69331835Y-106907384D01*
X69331834Y-106907385D01*
X69331833Y-106907385D01*
X69140564Y-106986611D01*
X68937516Y-107027000D01*
X68730484Y-107027000D01*
X68527436Y-106986611D01*
X68336167Y-106907385D01*
X68336166Y-106907385D01*
X68336165Y-106907384D01*
X68164027Y-106792365D01*
X68017635Y-106645973D01*
X67902616Y-106473835D01*
X67882871Y-106426167D01*
X67823389Y-106282564D01*
X67783000Y-106079516D01*
X67783000Y-105872484D01*
X67823389Y-105669436D01*
X67902615Y-105478167D01*
X67906637Y-105472148D01*
X68017635Y-105306027D01*
X68164027Y-105159635D01*
X68336165Y-105044616D01*
X68336167Y-105044615D01*
X68527436Y-104965389D01*
X68730484Y-104925000D01*
X68937516Y-104925000D01*
X69140564Y-104965389D01*
X69140564Y-104965389D01*
G37*
G36*
X79010000Y-106112000D02*
G01*
X77708000Y-106112000D01*
X77708000Y-104810000D01*
X79010000Y-104810000D01*
X79010000Y-106112000D01*
X79010000Y-106112000D01*
G37*
G36*
X59960000Y-106112000D02*
G01*
X58658000Y-106112000D01*
X58658000Y-104810000D01*
X59960000Y-104810000D01*
X59960000Y-106112000D01*
X59960000Y-106112000D01*
G37*
G36*
X98060000Y-106010000D02*
G01*
X96758000Y-106010000D01*
X96758000Y-104708000D01*
X98060000Y-104708000D01*
X98060000Y-106010000D01*
X98060000Y-106010000D01*
G37*
G36*
X74140564Y-102865389D02*
G01*
X74331833Y-102944615D01*
X74331835Y-102944616D01*
X74342197Y-102951540D01*
X74503973Y-103059635D01*
X74650365Y-103206027D01*
X74765385Y-103378167D01*
X74844611Y-103569436D01*
X74885000Y-103772484D01*
X74885000Y-103979516D01*
X74844611Y-104182564D01*
X74765385Y-104373833D01*
X74765384Y-104373835D01*
X74650365Y-104545973D01*
X74503973Y-104692365D01*
X74331835Y-104807384D01*
X74331834Y-104807385D01*
X74331833Y-104807385D01*
X74140564Y-104886611D01*
X73937516Y-104927000D01*
X73730484Y-104927000D01*
X73527436Y-104886611D01*
X73336167Y-104807385D01*
X73336166Y-104807385D01*
X73336165Y-104807384D01*
X73164027Y-104692365D01*
X73017635Y-104545973D01*
X72902616Y-104373835D01*
X72902615Y-104373833D01*
X72823389Y-104182564D01*
X72783000Y-103979516D01*
X72783000Y-103772484D01*
X72823389Y-103569436D01*
X72902615Y-103378167D01*
X73017635Y-103206027D01*
X73164027Y-103059635D01*
X73325803Y-102951540D01*
X73336165Y-102944616D01*
X73336167Y-102944615D01*
X73527436Y-102865389D01*
X73730484Y-102825000D01*
X73937516Y-102825000D01*
X74140564Y-102865389D01*
X74140564Y-102865389D01*
G37*
G36*
X64140564Y-102865389D02*
G01*
X64331833Y-102944615D01*
X64331835Y-102944616D01*
X64342197Y-102951540D01*
X64503973Y-103059635D01*
X64650365Y-103206027D01*
X64765385Y-103378167D01*
X64844611Y-103569436D01*
X64885000Y-103772484D01*
X64885000Y-103979516D01*
X64844611Y-104182564D01*
X64765385Y-104373833D01*
X64765384Y-104373835D01*
X64650365Y-104545973D01*
X64503973Y-104692365D01*
X64331835Y-104807384D01*
X64331834Y-104807385D01*
X64331833Y-104807385D01*
X64140564Y-104886611D01*
X63937516Y-104927000D01*
X63730484Y-104927000D01*
X63527436Y-104886611D01*
X63336167Y-104807385D01*
X63336166Y-104807385D01*
X63336165Y-104807384D01*
X63164027Y-104692365D01*
X63017635Y-104545973D01*
X62902616Y-104373835D01*
X62902615Y-104373833D01*
X62823389Y-104182564D01*
X62783000Y-103979516D01*
X62783000Y-103772484D01*
X62823389Y-103569436D01*
X62902615Y-103378167D01*
X63017635Y-103206027D01*
X63164027Y-103059635D01*
X63325803Y-102951540D01*
X63336165Y-102944616D01*
X63336167Y-102944615D01*
X63527436Y-102865389D01*
X63730484Y-102825000D01*
X63937516Y-102825000D01*
X64140564Y-102865389D01*
X64140564Y-102865389D01*
G37*
G36*
X88281985Y-101417860D02*
G01*
X88394748Y-101440290D01*
X88526741Y-101494963D01*
X88713408Y-101572283D01*
X89000196Y-101763909D01*
X89244091Y-102007804D01*
X89435717Y-102294592D01*
X89567710Y-102613253D01*
X89635000Y-102951540D01*
X89635000Y-103296460D01*
X89590140Y-103521985D01*
X89580702Y-103569435D01*
X89567710Y-103634747D01*
X89435717Y-103953408D01*
X89244091Y-104240196D01*
X89000196Y-104484091D01*
X88713408Y-104675717D01*
X88526741Y-104753037D01*
X88394748Y-104807710D01*
X88281985Y-104830140D01*
X88056460Y-104875000D01*
X87711540Y-104875000D01*
X87486015Y-104830140D01*
X87373252Y-104807710D01*
X87241259Y-104753037D01*
X87054592Y-104675717D01*
X86767804Y-104484091D01*
X86523909Y-104240196D01*
X86332283Y-103953408D01*
X86200290Y-103634747D01*
X86187299Y-103569435D01*
X86177860Y-103521985D01*
X86133000Y-103296460D01*
X86133000Y-102951540D01*
X86200290Y-102613253D01*
X86332283Y-102294592D01*
X86523909Y-102007804D01*
X86767804Y-101763909D01*
X87054592Y-101572283D01*
X87241259Y-101494963D01*
X87373252Y-101440290D01*
X87486015Y-101417860D01*
X87711540Y-101373000D01*
X88056460Y-101373000D01*
X88281985Y-101417860D01*
X88281985Y-101417860D01*
G37*
G36*
X93497512Y-102227927D02*
G01*
X93646812Y-102257624D01*
X93810784Y-102325544D01*
X93958354Y-102424147D01*
X94083853Y-102549646D01*
X94182456Y-102697216D01*
X94250376Y-102861188D01*
X94285000Y-103035259D01*
X94285000Y-103212741D01*
X94250376Y-103386812D01*
X94182456Y-103550784D01*
X94083853Y-103698354D01*
X93958354Y-103823853D01*
X93810784Y-103922456D01*
X93646812Y-103990376D01*
X93497512Y-104020073D01*
X93472742Y-104025000D01*
X93295258Y-104025000D01*
X93270488Y-104020073D01*
X93121188Y-103990376D01*
X92957216Y-103922456D01*
X92809646Y-103823853D01*
X92684147Y-103698354D01*
X92585544Y-103550784D01*
X92517624Y-103386812D01*
X92483000Y-103212741D01*
X92483000Y-103035259D01*
X92517624Y-102861188D01*
X92585544Y-102697216D01*
X92684147Y-102549646D01*
X92809646Y-102424147D01*
X92957216Y-102325544D01*
X93121188Y-102257624D01*
X93270488Y-102227927D01*
X93295258Y-102223000D01*
X93472742Y-102223000D01*
X93497512Y-102227927D01*
X93497512Y-102227927D01*
G37*
G36*
X82497512Y-102227927D02*
G01*
X82646812Y-102257624D01*
X82810784Y-102325544D01*
X82958354Y-102424147D01*
X83083853Y-102549646D01*
X83182456Y-102697216D01*
X83250376Y-102861188D01*
X83285000Y-103035259D01*
X83285000Y-103212741D01*
X83250376Y-103386812D01*
X83182456Y-103550784D01*
X83083853Y-103698354D01*
X82958354Y-103823853D01*
X82810784Y-103922456D01*
X82646812Y-103990376D01*
X82497512Y-104020073D01*
X82472742Y-104025000D01*
X82295258Y-104025000D01*
X82270488Y-104020073D01*
X82121188Y-103990376D01*
X81957216Y-103922456D01*
X81809646Y-103823853D01*
X81684147Y-103698354D01*
X81585544Y-103550784D01*
X81517624Y-103386812D01*
X81483000Y-103212741D01*
X81483000Y-103035259D01*
X81517624Y-102861188D01*
X81585544Y-102697216D01*
X81684147Y-102549646D01*
X81809646Y-102424147D01*
X81957216Y-102325544D01*
X82121188Y-102257624D01*
X82270488Y-102227927D01*
X82295258Y-102223000D01*
X82472742Y-102223000D01*
X82497512Y-102227927D01*
X82497512Y-102227927D01*
G37*
G36*
X98260000Y-103885000D02*
G01*
X96558000Y-103885000D01*
X96558000Y-102183000D01*
X98260000Y-102183000D01*
X98260000Y-103885000D01*
X98260000Y-103885000D01*
G37*
G36*
X79010000Y-102962000D02*
G01*
X77708000Y-102962000D01*
X77708000Y-101660000D01*
X79010000Y-101660000D01*
X79010000Y-102962000D01*
X79010000Y-102962000D01*
G37*
G36*
X59960000Y-102962000D02*
G01*
X58658000Y-102962000D01*
X58658000Y-101660000D01*
X59960000Y-101660000D01*
X59960000Y-102962000D01*
X59960000Y-102962000D01*
G37*
G36*
X69231985Y-98369860D02*
G01*
X69344748Y-98392290D01*
X69476741Y-98446963D01*
X69663408Y-98524283D01*
X69950196Y-98715909D01*
X70194091Y-98959804D01*
X70385717Y-99246592D01*
X70517710Y-99565253D01*
X70585000Y-99903540D01*
X70585000Y-100248460D01*
X70517710Y-100586747D01*
X70385717Y-100905408D01*
X70194091Y-101192196D01*
X69950196Y-101436091D01*
X69663408Y-101627717D01*
X69476741Y-101705037D01*
X69344748Y-101759710D01*
X69231985Y-101782140D01*
X69006460Y-101827000D01*
X68661540Y-101827000D01*
X68436015Y-101782140D01*
X68323252Y-101759710D01*
X68191259Y-101705037D01*
X68004592Y-101627717D01*
X67717804Y-101436091D01*
X67473909Y-101192196D01*
X67282283Y-100905408D01*
X67150290Y-100586747D01*
X67083000Y-100248460D01*
X67083000Y-99903540D01*
X67150290Y-99565253D01*
X67282283Y-99246592D01*
X67473909Y-98959804D01*
X67717804Y-98715909D01*
X68004592Y-98524283D01*
X68191259Y-98446963D01*
X68323252Y-98392290D01*
X68436015Y-98369860D01*
X68661540Y-98325000D01*
X69006460Y-98325000D01*
X69231985Y-98369860D01*
X69231985Y-98369860D01*
G37*
G36*
X74447512Y-99179927D02*
G01*
X74596812Y-99209624D01*
X74760784Y-99277544D01*
X74908354Y-99376147D01*
X75033853Y-99501646D01*
X75132456Y-99649216D01*
X75200376Y-99813188D01*
X75235000Y-99987259D01*
X75235000Y-100164741D01*
X75200376Y-100338812D01*
X75132456Y-100502784D01*
X75033853Y-100650354D01*
X74908354Y-100775853D01*
X74760784Y-100874456D01*
X74596812Y-100942376D01*
X74447512Y-100972073D01*
X74422742Y-100977000D01*
X74245258Y-100977000D01*
X74220488Y-100972073D01*
X74071188Y-100942376D01*
X73907216Y-100874456D01*
X73759646Y-100775853D01*
X73634147Y-100650354D01*
X73535544Y-100502784D01*
X73467624Y-100338812D01*
X73433000Y-100164741D01*
X73433000Y-99987259D01*
X73467624Y-99813188D01*
X73535544Y-99649216D01*
X73634147Y-99501646D01*
X73759646Y-99376147D01*
X73907216Y-99277544D01*
X74071188Y-99209624D01*
X74220488Y-99179927D01*
X74245258Y-99175000D01*
X74422742Y-99175000D01*
X74447512Y-99179927D01*
X74447512Y-99179927D01*
G37*
G36*
X63447512Y-99179927D02*
G01*
X63596812Y-99209624D01*
X63760784Y-99277544D01*
X63908354Y-99376147D01*
X64033853Y-99501646D01*
X64132456Y-99649216D01*
X64200376Y-99813188D01*
X64235000Y-99987259D01*
X64235000Y-100164741D01*
X64200376Y-100338812D01*
X64132456Y-100502784D01*
X64033853Y-100650354D01*
X63908354Y-100775853D01*
X63760784Y-100874456D01*
X63596812Y-100942376D01*
X63447512Y-100972073D01*
X63422742Y-100977000D01*
X63245258Y-100977000D01*
X63220488Y-100972073D01*
X63071188Y-100942376D01*
X62907216Y-100874456D01*
X62759646Y-100775853D01*
X62634147Y-100650354D01*
X62535544Y-100502784D01*
X62467624Y-100338812D01*
X62433000Y-100164741D01*
X62433000Y-99987259D01*
X62467624Y-99813188D01*
X62535544Y-99649216D01*
X62634147Y-99501646D01*
X62759646Y-99376147D01*
X62907216Y-99277544D01*
X63071188Y-99209624D01*
X63220488Y-99179927D01*
X63245258Y-99175000D01*
X63422742Y-99175000D01*
X63447512Y-99179927D01*
X63447512Y-99179927D01*
G37*
G36*
X60160000Y-100837000D02*
G01*
X58458000Y-100837000D01*
X58458000Y-99135000D01*
X60160000Y-99135000D01*
X60160000Y-100837000D01*
X60160000Y-100837000D01*
G37*
G36*
X79210000Y-100837000D02*
G01*
X77508000Y-100837000D01*
X77508000Y-99135000D01*
X79210000Y-99135000D01*
X79210000Y-100837000D01*
X79210000Y-100837000D01*
G37*
G36*
X103397000Y-97896000D02*
G01*
X102095000Y-97896000D01*
X102095000Y-95294000D01*
X103397000Y-95294000D01*
X103397000Y-97896000D01*
X103397000Y-97896000D01*
G37*
G36*
X47514483Y-95374335D02*
G01*
X47683240Y-95444236D01*
X47835118Y-95545718D01*
X47964282Y-95674882D01*
X48065764Y-95826760D01*
X48135665Y-95995517D01*
X48171300Y-96174668D01*
X48171300Y-96357332D01*
X48135665Y-96536483D01*
X48065764Y-96705240D01*
X47964282Y-96857118D01*
X47835118Y-96986282D01*
X47683240Y-97087764D01*
X47514483Y-97157665D01*
X47335332Y-97193300D01*
X47152668Y-97193300D01*
X46973517Y-97157665D01*
X46804760Y-97087764D01*
X46652882Y-96986282D01*
X46523718Y-96857118D01*
X46422236Y-96705240D01*
X46352335Y-96536483D01*
X46316700Y-96357332D01*
X46316700Y-96174668D01*
X46352335Y-95995517D01*
X46422236Y-95826760D01*
X46523718Y-95674882D01*
X46652882Y-95545718D01*
X46804760Y-95444236D01*
X46973517Y-95374335D01*
X47152668Y-95338700D01*
X47335332Y-95338700D01*
X47514483Y-95374335D01*
X47514483Y-95374335D01*
G37*
G36*
X50054483Y-95374335D02*
G01*
X50223240Y-95444236D01*
X50375118Y-95545718D01*
X50504282Y-95674882D01*
X50605764Y-95826760D01*
X50675665Y-95995517D01*
X50711300Y-96174668D01*
X50711300Y-96357332D01*
X50675665Y-96536483D01*
X50605764Y-96705240D01*
X50504282Y-96857118D01*
X50375118Y-96986282D01*
X50223240Y-97087764D01*
X50054483Y-97157665D01*
X49875332Y-97193300D01*
X49692668Y-97193300D01*
X49513517Y-97157665D01*
X49344760Y-97087764D01*
X49192882Y-96986282D01*
X49063718Y-96857118D01*
X48962236Y-96705240D01*
X48892335Y-96536483D01*
X48856700Y-96357332D01*
X48856700Y-96174668D01*
X48892335Y-95995517D01*
X48962236Y-95826760D01*
X49063718Y-95674882D01*
X49192882Y-95545718D01*
X49344760Y-95444236D01*
X49513517Y-95374335D01*
X49692668Y-95338700D01*
X49875332Y-95338700D01*
X50054483Y-95374335D01*
X50054483Y-95374335D01*
G37*
G36*
X52594483Y-95374335D02*
G01*
X52763240Y-95444236D01*
X52915118Y-95545718D01*
X53044282Y-95674882D01*
X53145764Y-95826760D01*
X53215665Y-95995517D01*
X53251300Y-96174668D01*
X53251300Y-96357332D01*
X53215665Y-96536483D01*
X53145764Y-96705240D01*
X53044282Y-96857118D01*
X52915118Y-96986282D01*
X52763240Y-97087764D01*
X52594483Y-97157665D01*
X52415332Y-97193300D01*
X52232668Y-97193300D01*
X52053517Y-97157665D01*
X51884760Y-97087764D01*
X51732882Y-96986282D01*
X51603718Y-96857118D01*
X51502236Y-96705240D01*
X51432335Y-96536483D01*
X51396700Y-96357332D01*
X51396700Y-96174668D01*
X51432335Y-95995517D01*
X51502236Y-95826760D01*
X51603718Y-95674882D01*
X51732882Y-95545718D01*
X51884760Y-95444236D01*
X52053517Y-95374335D01*
X52232668Y-95338700D01*
X52415332Y-95338700D01*
X52594483Y-95374335D01*
X52594483Y-95374335D01*
G37*
G36*
X55134483Y-95374335D02*
G01*
X55303240Y-95444236D01*
X55455118Y-95545718D01*
X55584282Y-95674882D01*
X55685764Y-95826760D01*
X55755665Y-95995517D01*
X55791300Y-96174668D01*
X55791300Y-96357332D01*
X55755665Y-96536483D01*
X55685764Y-96705240D01*
X55584282Y-96857118D01*
X55455118Y-96986282D01*
X55303240Y-97087764D01*
X55134483Y-97157665D01*
X54955332Y-97193300D01*
X54772668Y-97193300D01*
X54593517Y-97157665D01*
X54424760Y-97087764D01*
X54272882Y-96986282D01*
X54143718Y-96857118D01*
X54042236Y-96705240D01*
X53972335Y-96536483D01*
X53936700Y-96357332D01*
X53936700Y-96174668D01*
X53972335Y-95995517D01*
X54042236Y-95826760D01*
X54143718Y-95674882D01*
X54272882Y-95545718D01*
X54424760Y-95444236D01*
X54593517Y-95374335D01*
X54772668Y-95338700D01*
X54955332Y-95338700D01*
X55134483Y-95374335D01*
X55134483Y-95374335D01*
G37*
G36*
X29734483Y-95374335D02*
G01*
X29903240Y-95444236D01*
X30055118Y-95545718D01*
X30184282Y-95674882D01*
X30285764Y-95826760D01*
X30355665Y-95995517D01*
X30391300Y-96174668D01*
X30391300Y-96357332D01*
X30355665Y-96536483D01*
X30285764Y-96705240D01*
X30184282Y-96857118D01*
X30055118Y-96986282D01*
X29903240Y-97087764D01*
X29734483Y-97157665D01*
X29555332Y-97193300D01*
X29372668Y-97193300D01*
X29193517Y-97157665D01*
X29024760Y-97087764D01*
X28872882Y-96986282D01*
X28743718Y-96857118D01*
X28642236Y-96705240D01*
X28572335Y-96536483D01*
X28536700Y-96357332D01*
X28536700Y-96174668D01*
X28572335Y-95995517D01*
X28642236Y-95826760D01*
X28743718Y-95674882D01*
X28872882Y-95545718D01*
X29024760Y-95444236D01*
X29193517Y-95374335D01*
X29372668Y-95338700D01*
X29555332Y-95338700D01*
X29734483Y-95374335D01*
X29734483Y-95374335D01*
G37*
G36*
X32274483Y-95374335D02*
G01*
X32443240Y-95444236D01*
X32595118Y-95545718D01*
X32724282Y-95674882D01*
X32825764Y-95826760D01*
X32895665Y-95995517D01*
X32931300Y-96174668D01*
X32931300Y-96357332D01*
X32895665Y-96536483D01*
X32825764Y-96705240D01*
X32724282Y-96857118D01*
X32595118Y-96986282D01*
X32443240Y-97087764D01*
X32274483Y-97157665D01*
X32095332Y-97193300D01*
X31912668Y-97193300D01*
X31733517Y-97157665D01*
X31564760Y-97087764D01*
X31412882Y-96986282D01*
X31283718Y-96857118D01*
X31182236Y-96705240D01*
X31112335Y-96536483D01*
X31076700Y-96357332D01*
X31076700Y-96174668D01*
X31112335Y-95995517D01*
X31182236Y-95826760D01*
X31283718Y-95674882D01*
X31412882Y-95545718D01*
X31564760Y-95444236D01*
X31733517Y-95374335D01*
X31912668Y-95338700D01*
X32095332Y-95338700D01*
X32274483Y-95374335D01*
X32274483Y-95374335D01*
G37*
G36*
X37354483Y-95374335D02*
G01*
X37523240Y-95444236D01*
X37675118Y-95545718D01*
X37804282Y-95674882D01*
X37905764Y-95826760D01*
X37975665Y-95995517D01*
X38011300Y-96174668D01*
X38011300Y-96357332D01*
X37975665Y-96536483D01*
X37905764Y-96705240D01*
X37804282Y-96857118D01*
X37675118Y-96986282D01*
X37523240Y-97087764D01*
X37354483Y-97157665D01*
X37175332Y-97193300D01*
X36992668Y-97193300D01*
X36813517Y-97157665D01*
X36644760Y-97087764D01*
X36492882Y-96986282D01*
X36363718Y-96857118D01*
X36262236Y-96705240D01*
X36192335Y-96536483D01*
X36156700Y-96357332D01*
X36156700Y-96174668D01*
X36192335Y-95995517D01*
X36262236Y-95826760D01*
X36363718Y-95674882D01*
X36492882Y-95545718D01*
X36644760Y-95444236D01*
X36813517Y-95374335D01*
X36992668Y-95338700D01*
X37175332Y-95338700D01*
X37354483Y-95374335D01*
X37354483Y-95374335D01*
G37*
G36*
X39894483Y-95374335D02*
G01*
X40063240Y-95444236D01*
X40215118Y-95545718D01*
X40344282Y-95674882D01*
X40445764Y-95826760D01*
X40515665Y-95995517D01*
X40551300Y-96174668D01*
X40551300Y-96357332D01*
X40515665Y-96536483D01*
X40445764Y-96705240D01*
X40344282Y-96857118D01*
X40215118Y-96986282D01*
X40063240Y-97087764D01*
X39894483Y-97157665D01*
X39715332Y-97193300D01*
X39532668Y-97193300D01*
X39353517Y-97157665D01*
X39184760Y-97087764D01*
X39032882Y-96986282D01*
X38903718Y-96857118D01*
X38802236Y-96705240D01*
X38732335Y-96536483D01*
X38696700Y-96357332D01*
X38696700Y-96174668D01*
X38732335Y-95995517D01*
X38802236Y-95826760D01*
X38903718Y-95674882D01*
X39032882Y-95545718D01*
X39184760Y-95444236D01*
X39353517Y-95374335D01*
X39532668Y-95338700D01*
X39715332Y-95338700D01*
X39894483Y-95374335D01*
X39894483Y-95374335D01*
G37*
G36*
X42434483Y-95374335D02*
G01*
X42603240Y-95444236D01*
X42755118Y-95545718D01*
X42884282Y-95674882D01*
X42985764Y-95826760D01*
X43055665Y-95995517D01*
X43091300Y-96174668D01*
X43091300Y-96357332D01*
X43055665Y-96536483D01*
X42985764Y-96705240D01*
X42884282Y-96857118D01*
X42755118Y-96986282D01*
X42603240Y-97087764D01*
X42434483Y-97157665D01*
X42255332Y-97193300D01*
X42072668Y-97193300D01*
X41893517Y-97157665D01*
X41724760Y-97087764D01*
X41572882Y-96986282D01*
X41443718Y-96857118D01*
X41342236Y-96705240D01*
X41272335Y-96536483D01*
X41236700Y-96357332D01*
X41236700Y-96174668D01*
X41272335Y-95995517D01*
X41342236Y-95826760D01*
X41443718Y-95674882D01*
X41572882Y-95545718D01*
X41724760Y-95444236D01*
X41893517Y-95374335D01*
X42072668Y-95338700D01*
X42255332Y-95338700D01*
X42434483Y-95374335D01*
X42434483Y-95374335D01*
G37*
G36*
X27194483Y-95374335D02*
G01*
X27363240Y-95444236D01*
X27515118Y-95545718D01*
X27644282Y-95674882D01*
X27745764Y-95826760D01*
X27815665Y-95995517D01*
X27851300Y-96174668D01*
X27851300Y-96357332D01*
X27815665Y-96536483D01*
X27745764Y-96705240D01*
X27644282Y-96857118D01*
X27515118Y-96986282D01*
X27363240Y-97087764D01*
X27194483Y-97157665D01*
X27015332Y-97193300D01*
X26832668Y-97193300D01*
X26653517Y-97157665D01*
X26484760Y-97087764D01*
X26332882Y-96986282D01*
X26203718Y-96857118D01*
X26102236Y-96705240D01*
X26032335Y-96536483D01*
X25996700Y-96357332D01*
X25996700Y-96174668D01*
X26032335Y-95995517D01*
X26102236Y-95826760D01*
X26203718Y-95674882D01*
X26332882Y-95545718D01*
X26484760Y-95444236D01*
X26653517Y-95374335D01*
X26832668Y-95338700D01*
X27015332Y-95338700D01*
X27194483Y-95374335D01*
X27194483Y-95374335D01*
G37*
G36*
X44974483Y-95374335D02*
G01*
X45143240Y-95444236D01*
X45295118Y-95545718D01*
X45424282Y-95674882D01*
X45525764Y-95826760D01*
X45595665Y-95995517D01*
X45631300Y-96174668D01*
X45631300Y-96357332D01*
X45595665Y-96536483D01*
X45525764Y-96705240D01*
X45424282Y-96857118D01*
X45295118Y-96986282D01*
X45143240Y-97087764D01*
X44974483Y-97157665D01*
X44795332Y-97193300D01*
X44612668Y-97193300D01*
X44433517Y-97157665D01*
X44264760Y-97087764D01*
X44112882Y-96986282D01*
X43983718Y-96857118D01*
X43882236Y-96705240D01*
X43812335Y-96536483D01*
X43776700Y-96357332D01*
X43776700Y-96174668D01*
X43812335Y-95995517D01*
X43882236Y-95826760D01*
X43983718Y-95674882D01*
X44112882Y-95545718D01*
X44264760Y-95444236D01*
X44433517Y-95374335D01*
X44612668Y-95338700D01*
X44795332Y-95338700D01*
X44974483Y-95374335D01*
X44974483Y-95374335D01*
G37*
G36*
X34814483Y-95374335D02*
G01*
X34983240Y-95444236D01*
X35135118Y-95545718D01*
X35264282Y-95674882D01*
X35365764Y-95826760D01*
X35435665Y-95995517D01*
X35471300Y-96174668D01*
X35471300Y-96357332D01*
X35435665Y-96536483D01*
X35365764Y-96705240D01*
X35264282Y-96857118D01*
X35135118Y-96986282D01*
X34983240Y-97087764D01*
X34814483Y-97157665D01*
X34635332Y-97193300D01*
X34452668Y-97193300D01*
X34273517Y-97157665D01*
X34104760Y-97087764D01*
X33952882Y-96986282D01*
X33823718Y-96857118D01*
X33722236Y-96705240D01*
X33652335Y-96536483D01*
X33616700Y-96357332D01*
X33616700Y-96174668D01*
X33652335Y-95995517D01*
X33722236Y-95826760D01*
X33823718Y-95674882D01*
X33952882Y-95545718D01*
X34104760Y-95444236D01*
X34273517Y-95374335D01*
X34452668Y-95338700D01*
X34635332Y-95338700D01*
X34814483Y-95374335D01*
X34814483Y-95374335D01*
G37*
G36*
X96604228Y-92653703D02*
G01*
X96759100Y-92717853D01*
X96898481Y-92810985D01*
X97017015Y-92929519D01*
X97110147Y-93068900D01*
X97174297Y-93223772D01*
X97207000Y-93388184D01*
X97207000Y-93555816D01*
X97174297Y-93720228D01*
X97110147Y-93875100D01*
X97017015Y-94014481D01*
X96898481Y-94133015D01*
X96759100Y-94226147D01*
X96604228Y-94290297D01*
X96439816Y-94323000D01*
X96272184Y-94323000D01*
X96107772Y-94290297D01*
X95952900Y-94226147D01*
X95813519Y-94133015D01*
X95694985Y-94014481D01*
X95601853Y-93875100D01*
X95537703Y-93720228D01*
X95505000Y-93555816D01*
X95505000Y-93388184D01*
X95537703Y-93223772D01*
X95601853Y-93068900D01*
X95694985Y-92929519D01*
X95813519Y-92810985D01*
X95952900Y-92717853D01*
X96107772Y-92653703D01*
X96272184Y-92621000D01*
X96439816Y-92621000D01*
X96604228Y-92653703D01*
X96604228Y-92653703D01*
G37*
G36*
X89407000Y-94323000D02*
G01*
X87705000Y-94323000D01*
X87705000Y-92621000D01*
X89407000Y-92621000D01*
X89407000Y-94323000D01*
X89407000Y-94323000D01*
G37*
G36*
X91532000Y-94123000D02*
G01*
X90230000Y-94123000D01*
X90230000Y-92821000D01*
X91532000Y-92821000D01*
X91532000Y-94123000D01*
X91532000Y-94123000D01*
G37*
G36*
X94682000Y-94123000D02*
G01*
X93380000Y-94123000D01*
X93380000Y-92821000D01*
X94682000Y-92821000D01*
X94682000Y-94123000D01*
X94682000Y-94123000D01*
G37*
G36*
X112577552Y-92911331D02*
G01*
X112659627Y-92945328D01*
X112659629Y-92945329D01*
X112696813Y-92970175D01*
X112733495Y-92994685D01*
X112796315Y-93057505D01*
X112845672Y-93131373D01*
X112879669Y-93213448D01*
X112897000Y-93300579D01*
X112897000Y-93389421D01*
X112879669Y-93476552D01*
X112846837Y-93555815D01*
X112845671Y-93558629D01*
X112796314Y-93632496D01*
X112733496Y-93695314D01*
X112659629Y-93744671D01*
X112659628Y-93744672D01*
X112659627Y-93744672D01*
X112577552Y-93778669D01*
X112490421Y-93796000D01*
X112401579Y-93796000D01*
X112314448Y-93778669D01*
X112232373Y-93744672D01*
X112232372Y-93744672D01*
X112232371Y-93744671D01*
X112158504Y-93695314D01*
X112095686Y-93632496D01*
X112046329Y-93558629D01*
X112045163Y-93555815D01*
X112012331Y-93476552D01*
X111995000Y-93389421D01*
X111995000Y-93300579D01*
X112012331Y-93213448D01*
X112046328Y-93131373D01*
X112095685Y-93057505D01*
X112158505Y-92994685D01*
X112195187Y-92970175D01*
X112232371Y-92945329D01*
X112232373Y-92945328D01*
X112314448Y-92911331D01*
X112401579Y-92894000D01*
X112490421Y-92894000D01*
X112577552Y-92911331D01*
X112577552Y-92911331D01*
G37*
G36*
X105577552Y-92911331D02*
G01*
X105659627Y-92945328D01*
X105659629Y-92945329D01*
X105696813Y-92970175D01*
X105733495Y-92994685D01*
X105796315Y-93057505D01*
X105845672Y-93131373D01*
X105879669Y-93213448D01*
X105897000Y-93300579D01*
X105897000Y-93389421D01*
X105879669Y-93476552D01*
X105846837Y-93555815D01*
X105845671Y-93558629D01*
X105796314Y-93632496D01*
X105733496Y-93695314D01*
X105659629Y-93744671D01*
X105659628Y-93744672D01*
X105659627Y-93744672D01*
X105577552Y-93778669D01*
X105490421Y-93796000D01*
X105401579Y-93796000D01*
X105314448Y-93778669D01*
X105232373Y-93744672D01*
X105232372Y-93744672D01*
X105232371Y-93744671D01*
X105158504Y-93695314D01*
X105095686Y-93632496D01*
X105046329Y-93558629D01*
X105045163Y-93555815D01*
X105012331Y-93476552D01*
X104995000Y-93389421D01*
X104995000Y-93300579D01*
X105012331Y-93213448D01*
X105046328Y-93131373D01*
X105095685Y-93057505D01*
X105158505Y-92994685D01*
X105195187Y-92970175D01*
X105232371Y-92945329D01*
X105232373Y-92945328D01*
X105314448Y-92911331D01*
X105401579Y-92894000D01*
X105490421Y-92894000D01*
X105577552Y-92911331D01*
X105577552Y-92911331D01*
G37*
G36*
X34882228Y-89732703D02*
G01*
X35037100Y-89796853D01*
X35176481Y-89889985D01*
X35295015Y-90008519D01*
X35388147Y-90147900D01*
X35452297Y-90302772D01*
X35485000Y-90467184D01*
X35485000Y-90634816D01*
X35452297Y-90799228D01*
X35388147Y-90954100D01*
X35295015Y-91093481D01*
X35176481Y-91212015D01*
X35037100Y-91305147D01*
X34882228Y-91369297D01*
X34717816Y-91402000D01*
X34550184Y-91402000D01*
X34385772Y-91369297D01*
X34230900Y-91305147D01*
X34091519Y-91212015D01*
X33972985Y-91093481D01*
X33879853Y-90954100D01*
X33815703Y-90799228D01*
X33783000Y-90634816D01*
X33783000Y-90467184D01*
X33815703Y-90302772D01*
X33879853Y-90147900D01*
X33972985Y-90008519D01*
X34091519Y-89889985D01*
X34230900Y-89796853D01*
X34385772Y-89732703D01*
X34550184Y-89700000D01*
X34717816Y-89700000D01*
X34882228Y-89732703D01*
X34882228Y-89732703D01*
G37*
G36*
X27685000Y-91402000D02*
G01*
X25983000Y-91402000D01*
X25983000Y-89700000D01*
X27685000Y-89700000D01*
X27685000Y-91402000D01*
X27685000Y-91402000D01*
G37*
G36*
X111497000Y-91396000D02*
G01*
X110195000Y-91396000D01*
X110195000Y-88794000D01*
X111497000Y-88794000D01*
X111497000Y-91396000D01*
X111497000Y-91396000D01*
G37*
G36*
X104497000Y-91396000D02*
G01*
X103195000Y-91396000D01*
X103195000Y-88794000D01*
X104497000Y-88794000D01*
X104497000Y-91396000D01*
X104497000Y-91396000D01*
G37*
G36*
X108497000Y-91396000D02*
G01*
X107195000Y-91396000D01*
X107195000Y-88794000D01*
X108497000Y-88794000D01*
X108497000Y-91396000D01*
X108497000Y-91396000D01*
G37*
G36*
X89407000Y-91275000D02*
G01*
X87705000Y-91275000D01*
X87705000Y-89573000D01*
X89407000Y-89573000D01*
X89407000Y-91275000D01*
X89407000Y-91275000D01*
G37*
G36*
X96604228Y-89605703D02*
G01*
X96759100Y-89669853D01*
X96898481Y-89762985D01*
X97017015Y-89881519D01*
X97110147Y-90020900D01*
X97174297Y-90175772D01*
X97207000Y-90340184D01*
X97207000Y-90507816D01*
X97174297Y-90672228D01*
X97110147Y-90827100D01*
X97017015Y-90966481D01*
X96898481Y-91085015D01*
X96759100Y-91178147D01*
X96604228Y-91242297D01*
X96439816Y-91275000D01*
X96272184Y-91275000D01*
X96107772Y-91242297D01*
X95952900Y-91178147D01*
X95813519Y-91085015D01*
X95694985Y-90966481D01*
X95601853Y-90827100D01*
X95537703Y-90672228D01*
X95505000Y-90507816D01*
X95505000Y-90340184D01*
X95537703Y-90175772D01*
X95601853Y-90020900D01*
X95694985Y-89881519D01*
X95813519Y-89762985D01*
X95952900Y-89669853D01*
X96107772Y-89605703D01*
X96272184Y-89573000D01*
X96439816Y-89573000D01*
X96604228Y-89605703D01*
X96604228Y-89605703D01*
G37*
G36*
X32960000Y-91202000D02*
G01*
X31658000Y-91202000D01*
X31658000Y-89900000D01*
X32960000Y-89900000D01*
X32960000Y-91202000D01*
X32960000Y-91202000D01*
G37*
G36*
X29810000Y-91202000D02*
G01*
X28508000Y-91202000D01*
X28508000Y-89900000D01*
X29810000Y-89900000D01*
X29810000Y-91202000D01*
X29810000Y-91202000D01*
G37*
G36*
X91532000Y-91075000D02*
G01*
X90230000Y-91075000D01*
X90230000Y-89773000D01*
X91532000Y-89773000D01*
X91532000Y-91075000D01*
X91532000Y-91075000D01*
G37*
G36*
X94682000Y-91075000D02*
G01*
X93380000Y-91075000D01*
X93380000Y-89773000D01*
X94682000Y-89773000D01*
X94682000Y-91075000D01*
X94682000Y-91075000D01*
G37*
G36*
X107331985Y-79319860D02*
G01*
X107444748Y-79342290D01*
X107576741Y-79396963D01*
X107763408Y-79474283D01*
X108050196Y-79665909D01*
X108294091Y-79909804D01*
X108485717Y-80196592D01*
X108617710Y-80515253D01*
X108685000Y-80853540D01*
X108685000Y-81198460D01*
X108617710Y-81536747D01*
X108485717Y-81855408D01*
X108294091Y-82142196D01*
X108050196Y-82386091D01*
X107763408Y-82577717D01*
X107576741Y-82655037D01*
X107444748Y-82709710D01*
X107331985Y-82732140D01*
X107106460Y-82777000D01*
X106761540Y-82777000D01*
X106536015Y-82732140D01*
X106423252Y-82709710D01*
X106291259Y-82655037D01*
X106104592Y-82577717D01*
X105817804Y-82386091D01*
X105573909Y-82142196D01*
X105382283Y-81855408D01*
X105250290Y-81536747D01*
X105183000Y-81198460D01*
X105183000Y-80853540D01*
X105250290Y-80515253D01*
X105382283Y-80196592D01*
X105573909Y-79909804D01*
X105817804Y-79665909D01*
X106104592Y-79474283D01*
X106291259Y-79396963D01*
X106423252Y-79342290D01*
X106536015Y-79319860D01*
X106761540Y-79275000D01*
X107106460Y-79275000D01*
X107331985Y-79319860D01*
X107331985Y-79319860D01*
G37*
G36*
X88281985Y-79319860D02*
G01*
X88394748Y-79342290D01*
X88526741Y-79396963D01*
X88713408Y-79474283D01*
X89000196Y-79665909D01*
X89244091Y-79909804D01*
X89435717Y-80196592D01*
X89567710Y-80515253D01*
X89635000Y-80853540D01*
X89635000Y-81198460D01*
X89567710Y-81536747D01*
X89435717Y-81855408D01*
X89244091Y-82142196D01*
X89000196Y-82386091D01*
X88713408Y-82577717D01*
X88526741Y-82655037D01*
X88394748Y-82709710D01*
X88281985Y-82732140D01*
X88056460Y-82777000D01*
X87711540Y-82777000D01*
X87486015Y-82732140D01*
X87373252Y-82709710D01*
X87241259Y-82655037D01*
X87054592Y-82577717D01*
X86767804Y-82386091D01*
X86523909Y-82142196D01*
X86332283Y-81855408D01*
X86200290Y-81536747D01*
X86133000Y-81198460D01*
X86133000Y-80853540D01*
X86200290Y-80515253D01*
X86332283Y-80196592D01*
X86523909Y-79909804D01*
X86767804Y-79665909D01*
X87054592Y-79474283D01*
X87241259Y-79396963D01*
X87373252Y-79342290D01*
X87486015Y-79319860D01*
X87711540Y-79275000D01*
X88056460Y-79275000D01*
X88281985Y-79319860D01*
X88281985Y-79319860D01*
G37*
G36*
X69231985Y-79319860D02*
G01*
X69344748Y-79342290D01*
X69476741Y-79396963D01*
X69663408Y-79474283D01*
X69950196Y-79665909D01*
X70194091Y-79909804D01*
X70385717Y-80196592D01*
X70517710Y-80515253D01*
X70585000Y-80853540D01*
X70585000Y-81198460D01*
X70517710Y-81536747D01*
X70385717Y-81855408D01*
X70194091Y-82142196D01*
X69950196Y-82386091D01*
X69663408Y-82577717D01*
X69476741Y-82655037D01*
X69344748Y-82709710D01*
X69231985Y-82732140D01*
X69006460Y-82777000D01*
X68661540Y-82777000D01*
X68436015Y-82732140D01*
X68323252Y-82709710D01*
X68191259Y-82655037D01*
X68004592Y-82577717D01*
X67717804Y-82386091D01*
X67473909Y-82142196D01*
X67282283Y-81855408D01*
X67150290Y-81536747D01*
X67083000Y-81198460D01*
X67083000Y-80853540D01*
X67150290Y-80515253D01*
X67282283Y-80196592D01*
X67473909Y-79909804D01*
X67717804Y-79665909D01*
X68004592Y-79474283D01*
X68191259Y-79396963D01*
X68323252Y-79342290D01*
X68436015Y-79319860D01*
X68661540Y-79275000D01*
X69006460Y-79275000D01*
X69231985Y-79319860D01*
X69231985Y-79319860D01*
G37*
G36*
X50181985Y-79319860D02*
G01*
X50294748Y-79342290D01*
X50426741Y-79396963D01*
X50613408Y-79474283D01*
X50900196Y-79665909D01*
X51144091Y-79909804D01*
X51335717Y-80196592D01*
X51467710Y-80515253D01*
X51535000Y-80853540D01*
X51535000Y-81198460D01*
X51467710Y-81536747D01*
X51335717Y-81855408D01*
X51144091Y-82142196D01*
X50900196Y-82386091D01*
X50613408Y-82577717D01*
X50426741Y-82655037D01*
X50294748Y-82709710D01*
X50181985Y-82732140D01*
X49956460Y-82777000D01*
X49611540Y-82777000D01*
X49386015Y-82732140D01*
X49273252Y-82709710D01*
X49141259Y-82655037D01*
X48954592Y-82577717D01*
X48667804Y-82386091D01*
X48423909Y-82142196D01*
X48232283Y-81855408D01*
X48100290Y-81536747D01*
X48033000Y-81198460D01*
X48033000Y-80853540D01*
X48100290Y-80515253D01*
X48232283Y-80196592D01*
X48423909Y-79909804D01*
X48667804Y-79665909D01*
X48954592Y-79474283D01*
X49141259Y-79396963D01*
X49273252Y-79342290D01*
X49386015Y-79319860D01*
X49611540Y-79275000D01*
X49956460Y-79275000D01*
X50181985Y-79319860D01*
X50181985Y-79319860D01*
G37*
G36*
X31131985Y-79319860D02*
G01*
X31244748Y-79342290D01*
X31376741Y-79396963D01*
X31563408Y-79474283D01*
X31850196Y-79665909D01*
X32094091Y-79909804D01*
X32285717Y-80196592D01*
X32417710Y-80515253D01*
X32485000Y-80853540D01*
X32485000Y-81198460D01*
X32417710Y-81536747D01*
X32285717Y-81855408D01*
X32094091Y-82142196D01*
X31850196Y-82386091D01*
X31563408Y-82577717D01*
X31376741Y-82655037D01*
X31244748Y-82709710D01*
X31131985Y-82732140D01*
X30906460Y-82777000D01*
X30561540Y-82777000D01*
X30336015Y-82732140D01*
X30223252Y-82709710D01*
X30091259Y-82655037D01*
X29904592Y-82577717D01*
X29617804Y-82386091D01*
X29373909Y-82142196D01*
X29182283Y-81855408D01*
X29050290Y-81536747D01*
X28983000Y-81198460D01*
X28983000Y-80853540D01*
X29050290Y-80515253D01*
X29182283Y-80196592D01*
X29373909Y-79909804D01*
X29617804Y-79665909D01*
X29904592Y-79474283D01*
X30091259Y-79396963D01*
X30223252Y-79342290D01*
X30336015Y-79319860D01*
X30561540Y-79275000D01*
X30906460Y-79275000D01*
X31131985Y-79319860D01*
X31131985Y-79319860D01*
G37*
G36*
X41110000Y-81967000D02*
G01*
X39408000Y-81967000D01*
X39408000Y-80265000D01*
X41110000Y-80265000D01*
X41110000Y-81967000D01*
X41110000Y-81967000D01*
G37*
G36*
X60160000Y-81967000D02*
G01*
X58458000Y-81967000D01*
X58458000Y-80265000D01*
X60160000Y-80265000D01*
X60160000Y-81967000D01*
X60160000Y-81967000D01*
G37*
G36*
X98260000Y-81967000D02*
G01*
X96558000Y-81967000D01*
X96558000Y-80265000D01*
X98260000Y-80265000D01*
X98260000Y-81967000D01*
X98260000Y-81967000D01*
G37*
G36*
X79210000Y-81967000D02*
G01*
X77508000Y-81967000D01*
X77508000Y-80265000D01*
X79210000Y-80265000D01*
X79210000Y-81967000D01*
X79210000Y-81967000D01*
G37*
G36*
X25347512Y-80129927D02*
G01*
X25496812Y-80159624D01*
X25660784Y-80227544D01*
X25808354Y-80326147D01*
X25933853Y-80451646D01*
X26032456Y-80599216D01*
X26100376Y-80763188D01*
X26135000Y-80937259D01*
X26135000Y-81114741D01*
X26100376Y-81288812D01*
X26032456Y-81452784D01*
X25933853Y-81600354D01*
X25808354Y-81725853D01*
X25660784Y-81824456D01*
X25496812Y-81892376D01*
X25347512Y-81922073D01*
X25322742Y-81927000D01*
X25145258Y-81927000D01*
X25120488Y-81922073D01*
X24971188Y-81892376D01*
X24807216Y-81824456D01*
X24659646Y-81725853D01*
X24534147Y-81600354D01*
X24435544Y-81452784D01*
X24367624Y-81288812D01*
X24333000Y-81114741D01*
X24333000Y-80937259D01*
X24367624Y-80763188D01*
X24435544Y-80599216D01*
X24534147Y-80451646D01*
X24659646Y-80326147D01*
X24807216Y-80227544D01*
X24971188Y-80159624D01*
X25120488Y-80129927D01*
X25145258Y-80125000D01*
X25322742Y-80125000D01*
X25347512Y-80129927D01*
X25347512Y-80129927D01*
G37*
G36*
X63447512Y-80129927D02*
G01*
X63596812Y-80159624D01*
X63760784Y-80227544D01*
X63908354Y-80326147D01*
X64033853Y-80451646D01*
X64132456Y-80599216D01*
X64200376Y-80763188D01*
X64235000Y-80937259D01*
X64235000Y-81114741D01*
X64200376Y-81288812D01*
X64132456Y-81452784D01*
X64033853Y-81600354D01*
X63908354Y-81725853D01*
X63760784Y-81824456D01*
X63596812Y-81892376D01*
X63447512Y-81922073D01*
X63422742Y-81927000D01*
X63245258Y-81927000D01*
X63220488Y-81922073D01*
X63071188Y-81892376D01*
X62907216Y-81824456D01*
X62759646Y-81725853D01*
X62634147Y-81600354D01*
X62535544Y-81452784D01*
X62467624Y-81288812D01*
X62433000Y-81114741D01*
X62433000Y-80937259D01*
X62467624Y-80763188D01*
X62535544Y-80599216D01*
X62634147Y-80451646D01*
X62759646Y-80326147D01*
X62907216Y-80227544D01*
X63071188Y-80159624D01*
X63220488Y-80129927D01*
X63245258Y-80125000D01*
X63422742Y-80125000D01*
X63447512Y-80129927D01*
X63447512Y-80129927D01*
G37*
G36*
X74447512Y-80129927D02*
G01*
X74596812Y-80159624D01*
X74760784Y-80227544D01*
X74908354Y-80326147D01*
X75033853Y-80451646D01*
X75132456Y-80599216D01*
X75200376Y-80763188D01*
X75235000Y-80937259D01*
X75235000Y-81114741D01*
X75200376Y-81288812D01*
X75132456Y-81452784D01*
X75033853Y-81600354D01*
X74908354Y-81725853D01*
X74760784Y-81824456D01*
X74596812Y-81892376D01*
X74447512Y-81922073D01*
X74422742Y-81927000D01*
X74245258Y-81927000D01*
X74220488Y-81922073D01*
X74071188Y-81892376D01*
X73907216Y-81824456D01*
X73759646Y-81725853D01*
X73634147Y-81600354D01*
X73535544Y-81452784D01*
X73467624Y-81288812D01*
X73433000Y-81114741D01*
X73433000Y-80937259D01*
X73467624Y-80763188D01*
X73535544Y-80599216D01*
X73634147Y-80451646D01*
X73759646Y-80326147D01*
X73907216Y-80227544D01*
X74071188Y-80159624D01*
X74220488Y-80129927D01*
X74245258Y-80125000D01*
X74422742Y-80125000D01*
X74447512Y-80129927D01*
X74447512Y-80129927D01*
G37*
G36*
X82497512Y-80129927D02*
G01*
X82646812Y-80159624D01*
X82810784Y-80227544D01*
X82958354Y-80326147D01*
X83083853Y-80451646D01*
X83182456Y-80599216D01*
X83250376Y-80763188D01*
X83285000Y-80937259D01*
X83285000Y-81114741D01*
X83250376Y-81288812D01*
X83182456Y-81452784D01*
X83083853Y-81600354D01*
X82958354Y-81725853D01*
X82810784Y-81824456D01*
X82646812Y-81892376D01*
X82497512Y-81922073D01*
X82472742Y-81927000D01*
X82295258Y-81927000D01*
X82270488Y-81922073D01*
X82121188Y-81892376D01*
X81957216Y-81824456D01*
X81809646Y-81725853D01*
X81684147Y-81600354D01*
X81585544Y-81452784D01*
X81517624Y-81288812D01*
X81483000Y-81114741D01*
X81483000Y-80937259D01*
X81517624Y-80763188D01*
X81585544Y-80599216D01*
X81684147Y-80451646D01*
X81809646Y-80326147D01*
X81957216Y-80227544D01*
X82121188Y-80159624D01*
X82270488Y-80129927D01*
X82295258Y-80125000D01*
X82472742Y-80125000D01*
X82497512Y-80129927D01*
X82497512Y-80129927D01*
G37*
G36*
X55397512Y-80129927D02*
G01*
X55546812Y-80159624D01*
X55710784Y-80227544D01*
X55858354Y-80326147D01*
X55983853Y-80451646D01*
X56082456Y-80599216D01*
X56150376Y-80763188D01*
X56185000Y-80937259D01*
X56185000Y-81114741D01*
X56150376Y-81288812D01*
X56082456Y-81452784D01*
X55983853Y-81600354D01*
X55858354Y-81725853D01*
X55710784Y-81824456D01*
X55546812Y-81892376D01*
X55397512Y-81922073D01*
X55372742Y-81927000D01*
X55195258Y-81927000D01*
X55170488Y-81922073D01*
X55021188Y-81892376D01*
X54857216Y-81824456D01*
X54709646Y-81725853D01*
X54584147Y-81600354D01*
X54485544Y-81452784D01*
X54417624Y-81288812D01*
X54383000Y-81114741D01*
X54383000Y-80937259D01*
X54417624Y-80763188D01*
X54485544Y-80599216D01*
X54584147Y-80451646D01*
X54709646Y-80326147D01*
X54857216Y-80227544D01*
X55021188Y-80159624D01*
X55170488Y-80129927D01*
X55195258Y-80125000D01*
X55372742Y-80125000D01*
X55397512Y-80129927D01*
X55397512Y-80129927D01*
G37*
G36*
X93497512Y-80129927D02*
G01*
X93646812Y-80159624D01*
X93810784Y-80227544D01*
X93958354Y-80326147D01*
X94083853Y-80451646D01*
X94182456Y-80599216D01*
X94250376Y-80763188D01*
X94285000Y-80937259D01*
X94285000Y-81114741D01*
X94250376Y-81288812D01*
X94182456Y-81452784D01*
X94083853Y-81600354D01*
X93958354Y-81725853D01*
X93810784Y-81824456D01*
X93646812Y-81892376D01*
X93497512Y-81922073D01*
X93472742Y-81927000D01*
X93295258Y-81927000D01*
X93270488Y-81922073D01*
X93121188Y-81892376D01*
X92957216Y-81824456D01*
X92809646Y-81725853D01*
X92684147Y-81600354D01*
X92585544Y-81452784D01*
X92517624Y-81288812D01*
X92483000Y-81114741D01*
X92483000Y-80937259D01*
X92517624Y-80763188D01*
X92585544Y-80599216D01*
X92684147Y-80451646D01*
X92809646Y-80326147D01*
X92957216Y-80227544D01*
X93121188Y-80159624D01*
X93270488Y-80129927D01*
X93295258Y-80125000D01*
X93472742Y-80125000D01*
X93497512Y-80129927D01*
X93497512Y-80129927D01*
G37*
G36*
X101547512Y-80129927D02*
G01*
X101696812Y-80159624D01*
X101860784Y-80227544D01*
X102008354Y-80326147D01*
X102133853Y-80451646D01*
X102232456Y-80599216D01*
X102300376Y-80763188D01*
X102335000Y-80937259D01*
X102335000Y-81114741D01*
X102300376Y-81288812D01*
X102232456Y-81452784D01*
X102133853Y-81600354D01*
X102008354Y-81725853D01*
X101860784Y-81824456D01*
X101696812Y-81892376D01*
X101547512Y-81922073D01*
X101522742Y-81927000D01*
X101345258Y-81927000D01*
X101320488Y-81922073D01*
X101171188Y-81892376D01*
X101007216Y-81824456D01*
X100859646Y-81725853D01*
X100734147Y-81600354D01*
X100635544Y-81452784D01*
X100567624Y-81288812D01*
X100533000Y-81114741D01*
X100533000Y-80937259D01*
X100567624Y-80763188D01*
X100635544Y-80599216D01*
X100734147Y-80451646D01*
X100859646Y-80326147D01*
X101007216Y-80227544D01*
X101171188Y-80159624D01*
X101320488Y-80129927D01*
X101345258Y-80125000D01*
X101522742Y-80125000D01*
X101547512Y-80129927D01*
X101547512Y-80129927D01*
G37*
G36*
X36347512Y-80129927D02*
G01*
X36496812Y-80159624D01*
X36660784Y-80227544D01*
X36808354Y-80326147D01*
X36933853Y-80451646D01*
X37032456Y-80599216D01*
X37100376Y-80763188D01*
X37135000Y-80937259D01*
X37135000Y-81114741D01*
X37100376Y-81288812D01*
X37032456Y-81452784D01*
X36933853Y-81600354D01*
X36808354Y-81725853D01*
X36660784Y-81824456D01*
X36496812Y-81892376D01*
X36347512Y-81922073D01*
X36322742Y-81927000D01*
X36145258Y-81927000D01*
X36120488Y-81922073D01*
X35971188Y-81892376D01*
X35807216Y-81824456D01*
X35659646Y-81725853D01*
X35534147Y-81600354D01*
X35435544Y-81452784D01*
X35367624Y-81288812D01*
X35333000Y-81114741D01*
X35333000Y-80937259D01*
X35367624Y-80763188D01*
X35435544Y-80599216D01*
X35534147Y-80451646D01*
X35659646Y-80326147D01*
X35807216Y-80227544D01*
X35971188Y-80159624D01*
X36120488Y-80129927D01*
X36145258Y-80125000D01*
X36322742Y-80125000D01*
X36347512Y-80129927D01*
X36347512Y-80129927D01*
G37*
G36*
X112547512Y-80129927D02*
G01*
X112696812Y-80159624D01*
X112860784Y-80227544D01*
X113008354Y-80326147D01*
X113133853Y-80451646D01*
X113232456Y-80599216D01*
X113300376Y-80763188D01*
X113335000Y-80937259D01*
X113335000Y-81114741D01*
X113300376Y-81288812D01*
X113232456Y-81452784D01*
X113133853Y-81600354D01*
X113008354Y-81725853D01*
X112860784Y-81824456D01*
X112696812Y-81892376D01*
X112547512Y-81922073D01*
X112522742Y-81927000D01*
X112345258Y-81927000D01*
X112320488Y-81922073D01*
X112171188Y-81892376D01*
X112007216Y-81824456D01*
X111859646Y-81725853D01*
X111734147Y-81600354D01*
X111635544Y-81452784D01*
X111567624Y-81288812D01*
X111533000Y-81114741D01*
X111533000Y-80937259D01*
X111567624Y-80763188D01*
X111635544Y-80599216D01*
X111734147Y-80451646D01*
X111859646Y-80326147D01*
X112007216Y-80227544D01*
X112171188Y-80159624D01*
X112320488Y-80129927D01*
X112345258Y-80125000D01*
X112522742Y-80125000D01*
X112547512Y-80129927D01*
X112547512Y-80129927D01*
G37*
G36*
X44397512Y-80129927D02*
G01*
X44546812Y-80159624D01*
X44710784Y-80227544D01*
X44858354Y-80326147D01*
X44983853Y-80451646D01*
X45082456Y-80599216D01*
X45150376Y-80763188D01*
X45185000Y-80937259D01*
X45185000Y-81114741D01*
X45150376Y-81288812D01*
X45082456Y-81452784D01*
X44983853Y-81600354D01*
X44858354Y-81725853D01*
X44710784Y-81824456D01*
X44546812Y-81892376D01*
X44397512Y-81922073D01*
X44372742Y-81927000D01*
X44195258Y-81927000D01*
X44170488Y-81922073D01*
X44021188Y-81892376D01*
X43857216Y-81824456D01*
X43709646Y-81725853D01*
X43584147Y-81600354D01*
X43485544Y-81452784D01*
X43417624Y-81288812D01*
X43383000Y-81114741D01*
X43383000Y-80937259D01*
X43417624Y-80763188D01*
X43485544Y-80599216D01*
X43584147Y-80451646D01*
X43709646Y-80326147D01*
X43857216Y-80227544D01*
X44021188Y-80159624D01*
X44170488Y-80129927D01*
X44195258Y-80125000D01*
X44372742Y-80125000D01*
X44397512Y-80129927D01*
X44397512Y-80129927D01*
G37*
G36*
X98060000Y-79442000D02*
G01*
X96758000Y-79442000D01*
X96758000Y-78140000D01*
X98060000Y-78140000D01*
X98060000Y-79442000D01*
X98060000Y-79442000D01*
G37*
G36*
X40910000Y-79442000D02*
G01*
X39608000Y-79442000D01*
X39608000Y-78140000D01*
X40910000Y-78140000D01*
X40910000Y-79442000D01*
X40910000Y-79442000D01*
G37*
G36*
X59960000Y-79442000D02*
G01*
X58658000Y-79442000D01*
X58658000Y-78140000D01*
X59960000Y-78140000D01*
X59960000Y-79442000D01*
X59960000Y-79442000D01*
G37*
G36*
X79010000Y-79442000D02*
G01*
X77708000Y-79442000D01*
X77708000Y-78140000D01*
X79010000Y-78140000D01*
X79010000Y-79442000D01*
X79010000Y-79442000D01*
G37*
G36*
X36040564Y-76215389D02*
G01*
X36231833Y-76294615D01*
X36231835Y-76294616D01*
X36403973Y-76409635D01*
X36550365Y-76556027D01*
X36665385Y-76728167D01*
X36744611Y-76919436D01*
X36785000Y-77122484D01*
X36785000Y-77329516D01*
X36744611Y-77532564D01*
X36665385Y-77723833D01*
X36665384Y-77723835D01*
X36550365Y-77895973D01*
X36403973Y-78042365D01*
X36231835Y-78157384D01*
X36231834Y-78157385D01*
X36231833Y-78157385D01*
X36040564Y-78236611D01*
X35837516Y-78277000D01*
X35630484Y-78277000D01*
X35427436Y-78236611D01*
X35236167Y-78157385D01*
X35236166Y-78157385D01*
X35236165Y-78157384D01*
X35064027Y-78042365D01*
X34917635Y-77895973D01*
X34802616Y-77723835D01*
X34802615Y-77723833D01*
X34723389Y-77532564D01*
X34683000Y-77329516D01*
X34683000Y-77122484D01*
X34723389Y-76919436D01*
X34802615Y-76728167D01*
X34917635Y-76556027D01*
X35064027Y-76409635D01*
X35236165Y-76294616D01*
X35236167Y-76294615D01*
X35427436Y-76215389D01*
X35630484Y-76175000D01*
X35837516Y-76175000D01*
X36040564Y-76215389D01*
X36040564Y-76215389D01*
G37*
G36*
X26040564Y-76215389D02*
G01*
X26231833Y-76294615D01*
X26231835Y-76294616D01*
X26403973Y-76409635D01*
X26550365Y-76556027D01*
X26665385Y-76728167D01*
X26744611Y-76919436D01*
X26785000Y-77122484D01*
X26785000Y-77329516D01*
X26744611Y-77532564D01*
X26665385Y-77723833D01*
X26665384Y-77723835D01*
X26550365Y-77895973D01*
X26403973Y-78042365D01*
X26231835Y-78157384D01*
X26231834Y-78157385D01*
X26231833Y-78157385D01*
X26040564Y-78236611D01*
X25837516Y-78277000D01*
X25630484Y-78277000D01*
X25427436Y-78236611D01*
X25236167Y-78157385D01*
X25236166Y-78157385D01*
X25236165Y-78157384D01*
X25064027Y-78042365D01*
X24917635Y-77895973D01*
X24802616Y-77723835D01*
X24802615Y-77723833D01*
X24723389Y-77532564D01*
X24683000Y-77329516D01*
X24683000Y-77122484D01*
X24723389Y-76919436D01*
X24802615Y-76728167D01*
X24917635Y-76556027D01*
X25064027Y-76409635D01*
X25236165Y-76294616D01*
X25236167Y-76294615D01*
X25427436Y-76215389D01*
X25630484Y-76175000D01*
X25837516Y-76175000D01*
X26040564Y-76215389D01*
X26040564Y-76215389D01*
G37*
G36*
X64140564Y-76215389D02*
G01*
X64331833Y-76294615D01*
X64331835Y-76294616D01*
X64503973Y-76409635D01*
X64650365Y-76556027D01*
X64765385Y-76728167D01*
X64844611Y-76919436D01*
X64885000Y-77122484D01*
X64885000Y-77329516D01*
X64844611Y-77532564D01*
X64765385Y-77723833D01*
X64765384Y-77723835D01*
X64650365Y-77895973D01*
X64503973Y-78042365D01*
X64331835Y-78157384D01*
X64331834Y-78157385D01*
X64331833Y-78157385D01*
X64140564Y-78236611D01*
X63937516Y-78277000D01*
X63730484Y-78277000D01*
X63527436Y-78236611D01*
X63336167Y-78157385D01*
X63336166Y-78157385D01*
X63336165Y-78157384D01*
X63164027Y-78042365D01*
X63017635Y-77895973D01*
X62902616Y-77723835D01*
X62902615Y-77723833D01*
X62823389Y-77532564D01*
X62783000Y-77329516D01*
X62783000Y-77122484D01*
X62823389Y-76919436D01*
X62902615Y-76728167D01*
X63017635Y-76556027D01*
X63164027Y-76409635D01*
X63336165Y-76294616D01*
X63336167Y-76294615D01*
X63527436Y-76215389D01*
X63730484Y-76175000D01*
X63937516Y-76175000D01*
X64140564Y-76215389D01*
X64140564Y-76215389D01*
G37*
G36*
X74140564Y-76215389D02*
G01*
X74331833Y-76294615D01*
X74331835Y-76294616D01*
X74503973Y-76409635D01*
X74650365Y-76556027D01*
X74765385Y-76728167D01*
X74844611Y-76919436D01*
X74885000Y-77122484D01*
X74885000Y-77329516D01*
X74844611Y-77532564D01*
X74765385Y-77723833D01*
X74765384Y-77723835D01*
X74650365Y-77895973D01*
X74503973Y-78042365D01*
X74331835Y-78157384D01*
X74331834Y-78157385D01*
X74331833Y-78157385D01*
X74140564Y-78236611D01*
X73937516Y-78277000D01*
X73730484Y-78277000D01*
X73527436Y-78236611D01*
X73336167Y-78157385D01*
X73336166Y-78157385D01*
X73336165Y-78157384D01*
X73164027Y-78042365D01*
X73017635Y-77895973D01*
X72902616Y-77723835D01*
X72902615Y-77723833D01*
X72823389Y-77532564D01*
X72783000Y-77329516D01*
X72783000Y-77122484D01*
X72823389Y-76919436D01*
X72902615Y-76728167D01*
X73017635Y-76556027D01*
X73164027Y-76409635D01*
X73336165Y-76294616D01*
X73336167Y-76294615D01*
X73527436Y-76215389D01*
X73730484Y-76175000D01*
X73937516Y-76175000D01*
X74140564Y-76215389D01*
X74140564Y-76215389D01*
G37*
G36*
X83190564Y-76215389D02*
G01*
X83381833Y-76294615D01*
X83381835Y-76294616D01*
X83553973Y-76409635D01*
X83700365Y-76556027D01*
X83815385Y-76728167D01*
X83894611Y-76919436D01*
X83935000Y-77122484D01*
X83935000Y-77329516D01*
X83894611Y-77532564D01*
X83815385Y-77723833D01*
X83815384Y-77723835D01*
X83700365Y-77895973D01*
X83553973Y-78042365D01*
X83381835Y-78157384D01*
X83381834Y-78157385D01*
X83381833Y-78157385D01*
X83190564Y-78236611D01*
X82987516Y-78277000D01*
X82780484Y-78277000D01*
X82577436Y-78236611D01*
X82386167Y-78157385D01*
X82386166Y-78157385D01*
X82386165Y-78157384D01*
X82214027Y-78042365D01*
X82067635Y-77895973D01*
X81952616Y-77723835D01*
X81952615Y-77723833D01*
X81873389Y-77532564D01*
X81833000Y-77329516D01*
X81833000Y-77122484D01*
X81873389Y-76919436D01*
X81952615Y-76728167D01*
X82067635Y-76556027D01*
X82214027Y-76409635D01*
X82386165Y-76294616D01*
X82386167Y-76294615D01*
X82577436Y-76215389D01*
X82780484Y-76175000D01*
X82987516Y-76175000D01*
X83190564Y-76215389D01*
X83190564Y-76215389D01*
G37*
G36*
X112240564Y-76215389D02*
G01*
X112431833Y-76294615D01*
X112431835Y-76294616D01*
X112603973Y-76409635D01*
X112750365Y-76556027D01*
X112865385Y-76728167D01*
X112944611Y-76919436D01*
X112985000Y-77122484D01*
X112985000Y-77329516D01*
X112944611Y-77532564D01*
X112865385Y-77723833D01*
X112865384Y-77723835D01*
X112750365Y-77895973D01*
X112603973Y-78042365D01*
X112431835Y-78157384D01*
X112431834Y-78157385D01*
X112431833Y-78157385D01*
X112240564Y-78236611D01*
X112037516Y-78277000D01*
X111830484Y-78277000D01*
X111627436Y-78236611D01*
X111436167Y-78157385D01*
X111436166Y-78157385D01*
X111436165Y-78157384D01*
X111264027Y-78042365D01*
X111117635Y-77895973D01*
X111002616Y-77723835D01*
X111002615Y-77723833D01*
X110923389Y-77532564D01*
X110883000Y-77329516D01*
X110883000Y-77122484D01*
X110923389Y-76919436D01*
X111002615Y-76728167D01*
X111117635Y-76556027D01*
X111264027Y-76409635D01*
X111436165Y-76294616D01*
X111436167Y-76294615D01*
X111627436Y-76215389D01*
X111830484Y-76175000D01*
X112037516Y-76175000D01*
X112240564Y-76215389D01*
X112240564Y-76215389D01*
G37*
G36*
X45090564Y-76215389D02*
G01*
X45281833Y-76294615D01*
X45281835Y-76294616D01*
X45453973Y-76409635D01*
X45600365Y-76556027D01*
X45715385Y-76728167D01*
X45794611Y-76919436D01*
X45835000Y-77122484D01*
X45835000Y-77329516D01*
X45794611Y-77532564D01*
X45715385Y-77723833D01*
X45715384Y-77723835D01*
X45600365Y-77895973D01*
X45453973Y-78042365D01*
X45281835Y-78157384D01*
X45281834Y-78157385D01*
X45281833Y-78157385D01*
X45090564Y-78236611D01*
X44887516Y-78277000D01*
X44680484Y-78277000D01*
X44477436Y-78236611D01*
X44286167Y-78157385D01*
X44286166Y-78157385D01*
X44286165Y-78157384D01*
X44114027Y-78042365D01*
X43967635Y-77895973D01*
X43852616Y-77723835D01*
X43852615Y-77723833D01*
X43773389Y-77532564D01*
X43733000Y-77329516D01*
X43733000Y-77122484D01*
X43773389Y-76919436D01*
X43852615Y-76728167D01*
X43967635Y-76556027D01*
X44114027Y-76409635D01*
X44286165Y-76294616D01*
X44286167Y-76294615D01*
X44477436Y-76215389D01*
X44680484Y-76175000D01*
X44887516Y-76175000D01*
X45090564Y-76215389D01*
X45090564Y-76215389D01*
G37*
G36*
X55090564Y-76215389D02*
G01*
X55281833Y-76294615D01*
X55281835Y-76294616D01*
X55453973Y-76409635D01*
X55600365Y-76556027D01*
X55715385Y-76728167D01*
X55794611Y-76919436D01*
X55835000Y-77122484D01*
X55835000Y-77329516D01*
X55794611Y-77532564D01*
X55715385Y-77723833D01*
X55715384Y-77723835D01*
X55600365Y-77895973D01*
X55453973Y-78042365D01*
X55281835Y-78157384D01*
X55281834Y-78157385D01*
X55281833Y-78157385D01*
X55090564Y-78236611D01*
X54887516Y-78277000D01*
X54680484Y-78277000D01*
X54477436Y-78236611D01*
X54286167Y-78157385D01*
X54286166Y-78157385D01*
X54286165Y-78157384D01*
X54114027Y-78042365D01*
X53967635Y-77895973D01*
X53852616Y-77723835D01*
X53852615Y-77723833D01*
X53773389Y-77532564D01*
X53733000Y-77329516D01*
X53733000Y-77122484D01*
X53773389Y-76919436D01*
X53852615Y-76728167D01*
X53967635Y-76556027D01*
X54114027Y-76409635D01*
X54286165Y-76294616D01*
X54286167Y-76294615D01*
X54477436Y-76215389D01*
X54680484Y-76175000D01*
X54887516Y-76175000D01*
X55090564Y-76215389D01*
X55090564Y-76215389D01*
G37*
G36*
X102240564Y-76215389D02*
G01*
X102431833Y-76294615D01*
X102431835Y-76294616D01*
X102603973Y-76409635D01*
X102750365Y-76556027D01*
X102865385Y-76728167D01*
X102944611Y-76919436D01*
X102985000Y-77122484D01*
X102985000Y-77329516D01*
X102944611Y-77532564D01*
X102865385Y-77723833D01*
X102865384Y-77723835D01*
X102750365Y-77895973D01*
X102603973Y-78042365D01*
X102431835Y-78157384D01*
X102431834Y-78157385D01*
X102431833Y-78157385D01*
X102240564Y-78236611D01*
X102037516Y-78277000D01*
X101830484Y-78277000D01*
X101627436Y-78236611D01*
X101436167Y-78157385D01*
X101436166Y-78157385D01*
X101436165Y-78157384D01*
X101264027Y-78042365D01*
X101117635Y-77895973D01*
X101002616Y-77723835D01*
X101002615Y-77723833D01*
X100923389Y-77532564D01*
X100883000Y-77329516D01*
X100883000Y-77122484D01*
X100923389Y-76919436D01*
X101002615Y-76728167D01*
X101117635Y-76556027D01*
X101264027Y-76409635D01*
X101436165Y-76294616D01*
X101436167Y-76294615D01*
X101627436Y-76215389D01*
X101830484Y-76175000D01*
X102037516Y-76175000D01*
X102240564Y-76215389D01*
X102240564Y-76215389D01*
G37*
G36*
X93190564Y-76215389D02*
G01*
X93381833Y-76294615D01*
X93381835Y-76294616D01*
X93553973Y-76409635D01*
X93700365Y-76556027D01*
X93815385Y-76728167D01*
X93894611Y-76919436D01*
X93935000Y-77122484D01*
X93935000Y-77329516D01*
X93894611Y-77532564D01*
X93815385Y-77723833D01*
X93815384Y-77723835D01*
X93700365Y-77895973D01*
X93553973Y-78042365D01*
X93381835Y-78157384D01*
X93381834Y-78157385D01*
X93381833Y-78157385D01*
X93190564Y-78236611D01*
X92987516Y-78277000D01*
X92780484Y-78277000D01*
X92577436Y-78236611D01*
X92386167Y-78157385D01*
X92386166Y-78157385D01*
X92386165Y-78157384D01*
X92214027Y-78042365D01*
X92067635Y-77895973D01*
X91952616Y-77723835D01*
X91952615Y-77723833D01*
X91873389Y-77532564D01*
X91833000Y-77329516D01*
X91833000Y-77122484D01*
X91873389Y-76919436D01*
X91952615Y-76728167D01*
X92067635Y-76556027D01*
X92214027Y-76409635D01*
X92386165Y-76294616D01*
X92386167Y-76294615D01*
X92577436Y-76215389D01*
X92780484Y-76175000D01*
X92987516Y-76175000D01*
X93190564Y-76215389D01*
X93190564Y-76215389D01*
G37*
G36*
X40910000Y-76292000D02*
G01*
X39608000Y-76292000D01*
X39608000Y-74990000D01*
X40910000Y-74990000D01*
X40910000Y-76292000D01*
X40910000Y-76292000D01*
G37*
G36*
X59960000Y-76292000D02*
G01*
X58658000Y-76292000D01*
X58658000Y-74990000D01*
X59960000Y-74990000D01*
X59960000Y-76292000D01*
X59960000Y-76292000D01*
G37*
G36*
X98060000Y-76292000D02*
G01*
X96758000Y-76292000D01*
X96758000Y-74990000D01*
X98060000Y-74990000D01*
X98060000Y-76292000D01*
X98060000Y-76292000D01*
G37*
G36*
X79010000Y-76292000D02*
G01*
X77708000Y-76292000D01*
X77708000Y-74990000D01*
X79010000Y-74990000D01*
X79010000Y-76292000D01*
X79010000Y-76292000D01*
G37*
G36*
X88190564Y-74115389D02*
G01*
X88315164Y-74167000D01*
X88381835Y-74194616D01*
X88553973Y-74309635D01*
X88700365Y-74456027D01*
X88815385Y-74628167D01*
X88894611Y-74819436D01*
X88935000Y-75022484D01*
X88935000Y-75229516D01*
X88894611Y-75432564D01*
X88815385Y-75623833D01*
X88815384Y-75623835D01*
X88700365Y-75795973D01*
X88553973Y-75942365D01*
X88381835Y-76057384D01*
X88381834Y-76057385D01*
X88381833Y-76057385D01*
X88190564Y-76136611D01*
X87987516Y-76177000D01*
X87780484Y-76177000D01*
X87577436Y-76136611D01*
X87386167Y-76057385D01*
X87386166Y-76057385D01*
X87386165Y-76057384D01*
X87214027Y-75942365D01*
X87067635Y-75795973D01*
X86952616Y-75623835D01*
X86952615Y-75623833D01*
X86873389Y-75432564D01*
X86833000Y-75229516D01*
X86833000Y-75022484D01*
X86873389Y-74819436D01*
X86952615Y-74628167D01*
X87067635Y-74456027D01*
X87214027Y-74309635D01*
X87386165Y-74194616D01*
X87452836Y-74167000D01*
X87577436Y-74115389D01*
X87780484Y-74075000D01*
X87987516Y-74075000D01*
X88190564Y-74115389D01*
X88190564Y-74115389D01*
G37*
G36*
X31040564Y-74115389D02*
G01*
X31165164Y-74167000D01*
X31231835Y-74194616D01*
X31403973Y-74309635D01*
X31550365Y-74456027D01*
X31665385Y-74628167D01*
X31744611Y-74819436D01*
X31785000Y-75022484D01*
X31785000Y-75229516D01*
X31744611Y-75432564D01*
X31665385Y-75623833D01*
X31665384Y-75623835D01*
X31550365Y-75795973D01*
X31403973Y-75942365D01*
X31231835Y-76057384D01*
X31231834Y-76057385D01*
X31231833Y-76057385D01*
X31040564Y-76136611D01*
X30837516Y-76177000D01*
X30630484Y-76177000D01*
X30427436Y-76136611D01*
X30236167Y-76057385D01*
X30236166Y-76057385D01*
X30236165Y-76057384D01*
X30064027Y-75942365D01*
X29917635Y-75795973D01*
X29802616Y-75623835D01*
X29802615Y-75623833D01*
X29723389Y-75432564D01*
X29683000Y-75229516D01*
X29683000Y-75022484D01*
X29723389Y-74819436D01*
X29802615Y-74628167D01*
X29917635Y-74456027D01*
X30064027Y-74309635D01*
X30236165Y-74194616D01*
X30302836Y-74167000D01*
X30427436Y-74115389D01*
X30630484Y-74075000D01*
X30837516Y-74075000D01*
X31040564Y-74115389D01*
X31040564Y-74115389D01*
G37*
G36*
X50090564Y-74115389D02*
G01*
X50215164Y-74167000D01*
X50281835Y-74194616D01*
X50453973Y-74309635D01*
X50600365Y-74456027D01*
X50715385Y-74628167D01*
X50794611Y-74819436D01*
X50835000Y-75022484D01*
X50835000Y-75229516D01*
X50794611Y-75432564D01*
X50715385Y-75623833D01*
X50715384Y-75623835D01*
X50600365Y-75795973D01*
X50453973Y-75942365D01*
X50281835Y-76057384D01*
X50281834Y-76057385D01*
X50281833Y-76057385D01*
X50090564Y-76136611D01*
X49887516Y-76177000D01*
X49680484Y-76177000D01*
X49477436Y-76136611D01*
X49286167Y-76057385D01*
X49286166Y-76057385D01*
X49286165Y-76057384D01*
X49114027Y-75942365D01*
X48967635Y-75795973D01*
X48852616Y-75623835D01*
X48852615Y-75623833D01*
X48773389Y-75432564D01*
X48733000Y-75229516D01*
X48733000Y-75022484D01*
X48773389Y-74819436D01*
X48852615Y-74628167D01*
X48967635Y-74456027D01*
X49114027Y-74309635D01*
X49286165Y-74194616D01*
X49352836Y-74167000D01*
X49477436Y-74115389D01*
X49680484Y-74075000D01*
X49887516Y-74075000D01*
X50090564Y-74115389D01*
X50090564Y-74115389D01*
G37*
G36*
X107240564Y-74115389D02*
G01*
X107365164Y-74167000D01*
X107431835Y-74194616D01*
X107603973Y-74309635D01*
X107750365Y-74456027D01*
X107865385Y-74628167D01*
X107944611Y-74819436D01*
X107985000Y-75022484D01*
X107985000Y-75229516D01*
X107944611Y-75432564D01*
X107865385Y-75623833D01*
X107865384Y-75623835D01*
X107750365Y-75795973D01*
X107603973Y-75942365D01*
X107431835Y-76057384D01*
X107431834Y-76057385D01*
X107431833Y-76057385D01*
X107240564Y-76136611D01*
X107037516Y-76177000D01*
X106830484Y-76177000D01*
X106627436Y-76136611D01*
X106436167Y-76057385D01*
X106436166Y-76057385D01*
X106436165Y-76057384D01*
X106264027Y-75942365D01*
X106117635Y-75795973D01*
X106002616Y-75623835D01*
X106002615Y-75623833D01*
X105923389Y-75432564D01*
X105883000Y-75229516D01*
X105883000Y-75022484D01*
X105923389Y-74819436D01*
X106002615Y-74628167D01*
X106117635Y-74456027D01*
X106264027Y-74309635D01*
X106436165Y-74194616D01*
X106502836Y-74167000D01*
X106627436Y-74115389D01*
X106830484Y-74075000D01*
X107037516Y-74075000D01*
X107240564Y-74115389D01*
X107240564Y-74115389D01*
G37*
G36*
X69140564Y-74115389D02*
G01*
X69265164Y-74167000D01*
X69331835Y-74194616D01*
X69503973Y-74309635D01*
X69650365Y-74456027D01*
X69765385Y-74628167D01*
X69844611Y-74819436D01*
X69885000Y-75022484D01*
X69885000Y-75229516D01*
X69844611Y-75432564D01*
X69765385Y-75623833D01*
X69765384Y-75623835D01*
X69650365Y-75795973D01*
X69503973Y-75942365D01*
X69331835Y-76057384D01*
X69331834Y-76057385D01*
X69331833Y-76057385D01*
X69140564Y-76136611D01*
X68937516Y-76177000D01*
X68730484Y-76177000D01*
X68527436Y-76136611D01*
X68336167Y-76057385D01*
X68336166Y-76057385D01*
X68336165Y-76057384D01*
X68164027Y-75942365D01*
X68017635Y-75795973D01*
X67902616Y-75623835D01*
X67902615Y-75623833D01*
X67823389Y-75432564D01*
X67783000Y-75229516D01*
X67783000Y-75022484D01*
X67823389Y-74819436D01*
X67902615Y-74628167D01*
X68017635Y-74456027D01*
X68164027Y-74309635D01*
X68336165Y-74194616D01*
X68402836Y-74167000D01*
X68527436Y-74115389D01*
X68730484Y-74075000D01*
X68937516Y-74075000D01*
X69140564Y-74115389D01*
X69140564Y-74115389D01*
G37*
G36*
X40507228Y-72497703D02*
G01*
X40662100Y-72561853D01*
X40801481Y-72654985D01*
X40920015Y-72773519D01*
X41013147Y-72912900D01*
X41077297Y-73067772D01*
X41110000Y-73232184D01*
X41110000Y-73399816D01*
X41077297Y-73564228D01*
X41013147Y-73719100D01*
X40920015Y-73858481D01*
X40801481Y-73977015D01*
X40662100Y-74070147D01*
X40507228Y-74134297D01*
X40342816Y-74167000D01*
X40175184Y-74167000D01*
X40010772Y-74134297D01*
X39855900Y-74070147D01*
X39716519Y-73977015D01*
X39597985Y-73858481D01*
X39504853Y-73719100D01*
X39440703Y-73564228D01*
X39408000Y-73399816D01*
X39408000Y-73232184D01*
X39440703Y-73067772D01*
X39504853Y-72912900D01*
X39597985Y-72773519D01*
X39716519Y-72654985D01*
X39855900Y-72561853D01*
X40010772Y-72497703D01*
X40175184Y-72465000D01*
X40342816Y-72465000D01*
X40507228Y-72497703D01*
X40507228Y-72497703D01*
G37*
G36*
X59557228Y-72497703D02*
G01*
X59712100Y-72561853D01*
X59851481Y-72654985D01*
X59970015Y-72773519D01*
X60063147Y-72912900D01*
X60127297Y-73067772D01*
X60160000Y-73232184D01*
X60160000Y-73399816D01*
X60127297Y-73564228D01*
X60063147Y-73719100D01*
X59970015Y-73858481D01*
X59851481Y-73977015D01*
X59712100Y-74070147D01*
X59557228Y-74134297D01*
X59392816Y-74167000D01*
X59225184Y-74167000D01*
X59060772Y-74134297D01*
X58905900Y-74070147D01*
X58766519Y-73977015D01*
X58647985Y-73858481D01*
X58554853Y-73719100D01*
X58490703Y-73564228D01*
X58458000Y-73399816D01*
X58458000Y-73232184D01*
X58490703Y-73067772D01*
X58554853Y-72912900D01*
X58647985Y-72773519D01*
X58766519Y-72654985D01*
X58905900Y-72561853D01*
X59060772Y-72497703D01*
X59225184Y-72465000D01*
X59392816Y-72465000D01*
X59557228Y-72497703D01*
X59557228Y-72497703D01*
G37*
G36*
X78607228Y-72497703D02*
G01*
X78762100Y-72561853D01*
X78901481Y-72654985D01*
X79020015Y-72773519D01*
X79113147Y-72912900D01*
X79177297Y-73067772D01*
X79210000Y-73232184D01*
X79210000Y-73399816D01*
X79177297Y-73564228D01*
X79113147Y-73719100D01*
X79020015Y-73858481D01*
X78901481Y-73977015D01*
X78762100Y-74070147D01*
X78607228Y-74134297D01*
X78442816Y-74167000D01*
X78275184Y-74167000D01*
X78110772Y-74134297D01*
X77955900Y-74070147D01*
X77816519Y-73977015D01*
X77697985Y-73858481D01*
X77604853Y-73719100D01*
X77540703Y-73564228D01*
X77508000Y-73399816D01*
X77508000Y-73232184D01*
X77540703Y-73067772D01*
X77604853Y-72912900D01*
X77697985Y-72773519D01*
X77816519Y-72654985D01*
X77955900Y-72561853D01*
X78110772Y-72497703D01*
X78275184Y-72465000D01*
X78442816Y-72465000D01*
X78607228Y-72497703D01*
X78607228Y-72497703D01*
G37*
G36*
X97657228Y-72497703D02*
G01*
X97812100Y-72561853D01*
X97951481Y-72654985D01*
X98070015Y-72773519D01*
X98163147Y-72912900D01*
X98227297Y-73067772D01*
X98260000Y-73232184D01*
X98260000Y-73399816D01*
X98227297Y-73564228D01*
X98163147Y-73719100D01*
X98070015Y-73858481D01*
X97951481Y-73977015D01*
X97812100Y-74070147D01*
X97657228Y-74134297D01*
X97492816Y-74167000D01*
X97325184Y-74167000D01*
X97160772Y-74134297D01*
X97005900Y-74070147D01*
X96866519Y-73977015D01*
X96747985Y-73858481D01*
X96654853Y-73719100D01*
X96590703Y-73564228D01*
X96558000Y-73399816D01*
X96558000Y-73232184D01*
X96590703Y-73067772D01*
X96654853Y-72912900D01*
X96747985Y-72773519D01*
X96866519Y-72654985D01*
X97005900Y-72561853D01*
X97160772Y-72497703D01*
X97325184Y-72465000D01*
X97492816Y-72465000D01*
X97657228Y-72497703D01*
X97657228Y-72497703D01*
G37*
G36*
X34882228Y-70936703D02*
G01*
X35037100Y-71000853D01*
X35176481Y-71093985D01*
X35295015Y-71212519D01*
X35388147Y-71351900D01*
X35452297Y-71506772D01*
X35485000Y-71671184D01*
X35485000Y-71838816D01*
X35452297Y-72003228D01*
X35388147Y-72158100D01*
X35295015Y-72297481D01*
X35176481Y-72416015D01*
X35037100Y-72509147D01*
X34882228Y-72573297D01*
X34717816Y-72606000D01*
X34550184Y-72606000D01*
X34385772Y-72573297D01*
X34230900Y-72509147D01*
X34091519Y-72416015D01*
X33972985Y-72297481D01*
X33879853Y-72158100D01*
X33815703Y-72003228D01*
X33783000Y-71838816D01*
X33783000Y-71671184D01*
X33815703Y-71506772D01*
X33879853Y-71351900D01*
X33972985Y-71212519D01*
X34091519Y-71093985D01*
X34230900Y-71000853D01*
X34385772Y-70936703D01*
X34550184Y-70904000D01*
X34717816Y-70904000D01*
X34882228Y-70936703D01*
X34882228Y-70936703D01*
G37*
G36*
X27685000Y-72606000D02*
G01*
X25983000Y-72606000D01*
X25983000Y-70904000D01*
X27685000Y-70904000D01*
X27685000Y-72606000D01*
X27685000Y-72606000D01*
G37*
G36*
X29810000Y-72406000D02*
G01*
X28508000Y-72406000D01*
X28508000Y-71104000D01*
X29810000Y-71104000D01*
X29810000Y-72406000D01*
X29810000Y-72406000D01*
G37*
G36*
X32960000Y-72406000D02*
G01*
X31658000Y-72406000D01*
X31658000Y-71104000D01*
X32960000Y-71104000D01*
X32960000Y-72406000D01*
X32960000Y-72406000D01*
G37*
G36*
X88281985Y-60269860D02*
G01*
X88394748Y-60292290D01*
X88526741Y-60346963D01*
X88713408Y-60424283D01*
X89000196Y-60615909D01*
X89244091Y-60859804D01*
X89435717Y-61146592D01*
X89567710Y-61465253D01*
X89635000Y-61803540D01*
X89635000Y-62148460D01*
X89567710Y-62486747D01*
X89435717Y-62805408D01*
X89244091Y-63092196D01*
X89000196Y-63336091D01*
X88713408Y-63527717D01*
X88526741Y-63605037D01*
X88394748Y-63659710D01*
X88281985Y-63682140D01*
X88056460Y-63727000D01*
X87711540Y-63727000D01*
X87486015Y-63682140D01*
X87373252Y-63659710D01*
X87241259Y-63605037D01*
X87054592Y-63527717D01*
X86767804Y-63336091D01*
X86523909Y-63092196D01*
X86332283Y-62805408D01*
X86200290Y-62486747D01*
X86133000Y-62148460D01*
X86133000Y-61803540D01*
X86200290Y-61465253D01*
X86332283Y-61146592D01*
X86523909Y-60859804D01*
X86767804Y-60615909D01*
X87054592Y-60424283D01*
X87241259Y-60346963D01*
X87373252Y-60292290D01*
X87486015Y-60269860D01*
X87711540Y-60225000D01*
X88056460Y-60225000D01*
X88281985Y-60269860D01*
X88281985Y-60269860D01*
G37*
G36*
X69231985Y-60269860D02*
G01*
X69344748Y-60292290D01*
X69476741Y-60346963D01*
X69663408Y-60424283D01*
X69950196Y-60615909D01*
X70194091Y-60859804D01*
X70385717Y-61146592D01*
X70517710Y-61465253D01*
X70585000Y-61803540D01*
X70585000Y-62148460D01*
X70517710Y-62486747D01*
X70385717Y-62805408D01*
X70194091Y-63092196D01*
X69950196Y-63336091D01*
X69663408Y-63527717D01*
X69476741Y-63605037D01*
X69344748Y-63659710D01*
X69231985Y-63682140D01*
X69006460Y-63727000D01*
X68661540Y-63727000D01*
X68436015Y-63682140D01*
X68323252Y-63659710D01*
X68191259Y-63605037D01*
X68004592Y-63527717D01*
X67717804Y-63336091D01*
X67473909Y-63092196D01*
X67282283Y-62805408D01*
X67150290Y-62486747D01*
X67083000Y-62148460D01*
X67083000Y-61803540D01*
X67150290Y-61465253D01*
X67282283Y-61146592D01*
X67473909Y-60859804D01*
X67717804Y-60615909D01*
X68004592Y-60424283D01*
X68191259Y-60346963D01*
X68323252Y-60292290D01*
X68436015Y-60269860D01*
X68661540Y-60225000D01*
X69006460Y-60225000D01*
X69231985Y-60269860D01*
X69231985Y-60269860D01*
G37*
G36*
X50181985Y-60269860D02*
G01*
X50294748Y-60292290D01*
X50426741Y-60346963D01*
X50613408Y-60424283D01*
X50900196Y-60615909D01*
X51144091Y-60859804D01*
X51335717Y-61146592D01*
X51467710Y-61465253D01*
X51535000Y-61803540D01*
X51535000Y-62148460D01*
X51467710Y-62486747D01*
X51335717Y-62805408D01*
X51144091Y-63092196D01*
X50900196Y-63336091D01*
X50613408Y-63527717D01*
X50426741Y-63605037D01*
X50294748Y-63659710D01*
X50181985Y-63682140D01*
X49956460Y-63727000D01*
X49611540Y-63727000D01*
X49386015Y-63682140D01*
X49273252Y-63659710D01*
X49141259Y-63605037D01*
X48954592Y-63527717D01*
X48667804Y-63336091D01*
X48423909Y-63092196D01*
X48232283Y-62805408D01*
X48100290Y-62486747D01*
X48033000Y-62148460D01*
X48033000Y-61803540D01*
X48100290Y-61465253D01*
X48232283Y-61146592D01*
X48423909Y-60859804D01*
X48667804Y-60615909D01*
X48954592Y-60424283D01*
X49141259Y-60346963D01*
X49273252Y-60292290D01*
X49386015Y-60269860D01*
X49611540Y-60225000D01*
X49956460Y-60225000D01*
X50181985Y-60269860D01*
X50181985Y-60269860D01*
G37*
G36*
X31131985Y-60269860D02*
G01*
X31244748Y-60292290D01*
X31376741Y-60346963D01*
X31563408Y-60424283D01*
X31850196Y-60615909D01*
X32094091Y-60859804D01*
X32285717Y-61146592D01*
X32417710Y-61465253D01*
X32485000Y-61803540D01*
X32485000Y-62148460D01*
X32417710Y-62486747D01*
X32285717Y-62805408D01*
X32094091Y-63092196D01*
X31850196Y-63336091D01*
X31563408Y-63527717D01*
X31376741Y-63605037D01*
X31244748Y-63659710D01*
X31131985Y-63682140D01*
X30906460Y-63727000D01*
X30561540Y-63727000D01*
X30336015Y-63682140D01*
X30223252Y-63659710D01*
X30091259Y-63605037D01*
X29904592Y-63527717D01*
X29617804Y-63336091D01*
X29373909Y-63092196D01*
X29182283Y-62805408D01*
X29050290Y-62486747D01*
X28983000Y-62148460D01*
X28983000Y-61803540D01*
X29050290Y-61465253D01*
X29182283Y-61146592D01*
X29373909Y-60859804D01*
X29617804Y-60615909D01*
X29904592Y-60424283D01*
X30091259Y-60346963D01*
X30223252Y-60292290D01*
X30336015Y-60269860D01*
X30561540Y-60225000D01*
X30906460Y-60225000D01*
X31131985Y-60269860D01*
X31131985Y-60269860D01*
G37*
G36*
X107331985Y-60269860D02*
G01*
X107444748Y-60292290D01*
X107576741Y-60346963D01*
X107763408Y-60424283D01*
X108050196Y-60615909D01*
X108294091Y-60859804D01*
X108485717Y-61146592D01*
X108617710Y-61465253D01*
X108685000Y-61803540D01*
X108685000Y-62148460D01*
X108617710Y-62486747D01*
X108485717Y-62805408D01*
X108294091Y-63092196D01*
X108050196Y-63336091D01*
X107763408Y-63527717D01*
X107576741Y-63605037D01*
X107444748Y-63659710D01*
X107331985Y-63682140D01*
X107106460Y-63727000D01*
X106761540Y-63727000D01*
X106536015Y-63682140D01*
X106423252Y-63659710D01*
X106291259Y-63605037D01*
X106104592Y-63527717D01*
X105817804Y-63336091D01*
X105573909Y-63092196D01*
X105382283Y-62805408D01*
X105250290Y-62486747D01*
X105183000Y-62148460D01*
X105183000Y-61803540D01*
X105250290Y-61465253D01*
X105382283Y-61146592D01*
X105573909Y-60859804D01*
X105817804Y-60615909D01*
X106104592Y-60424283D01*
X106291259Y-60346963D01*
X106423252Y-60292290D01*
X106536015Y-60269860D01*
X106761540Y-60225000D01*
X107106460Y-60225000D01*
X107331985Y-60269860D01*
X107331985Y-60269860D01*
G37*
G36*
X98260000Y-62917000D02*
G01*
X96558000Y-62917000D01*
X96558000Y-61215000D01*
X98260000Y-61215000D01*
X98260000Y-62917000D01*
X98260000Y-62917000D01*
G37*
G36*
X41110000Y-62917000D02*
G01*
X39408000Y-62917000D01*
X39408000Y-61215000D01*
X41110000Y-61215000D01*
X41110000Y-62917000D01*
X41110000Y-62917000D01*
G37*
G36*
X60160000Y-62917000D02*
G01*
X58458000Y-62917000D01*
X58458000Y-61215000D01*
X60160000Y-61215000D01*
X60160000Y-62917000D01*
X60160000Y-62917000D01*
G37*
G36*
X79210000Y-62917000D02*
G01*
X77508000Y-62917000D01*
X77508000Y-61215000D01*
X79210000Y-61215000D01*
X79210000Y-62917000D01*
X79210000Y-62917000D01*
G37*
G36*
X25347512Y-61079927D02*
G01*
X25496812Y-61109624D01*
X25660784Y-61177544D01*
X25808354Y-61276147D01*
X25933853Y-61401646D01*
X26032456Y-61549216D01*
X26100376Y-61713188D01*
X26135000Y-61887259D01*
X26135000Y-62064741D01*
X26100376Y-62238812D01*
X26032456Y-62402784D01*
X25933853Y-62550354D01*
X25808354Y-62675853D01*
X25660784Y-62774456D01*
X25496812Y-62842376D01*
X25347512Y-62872073D01*
X25322742Y-62877000D01*
X25145258Y-62877000D01*
X25120488Y-62872073D01*
X24971188Y-62842376D01*
X24807216Y-62774456D01*
X24659646Y-62675853D01*
X24534147Y-62550354D01*
X24435544Y-62402784D01*
X24367624Y-62238812D01*
X24333000Y-62064741D01*
X24333000Y-61887259D01*
X24367624Y-61713188D01*
X24435544Y-61549216D01*
X24534147Y-61401646D01*
X24659646Y-61276147D01*
X24807216Y-61177544D01*
X24971188Y-61109624D01*
X25120488Y-61079927D01*
X25145258Y-61075000D01*
X25322742Y-61075000D01*
X25347512Y-61079927D01*
X25347512Y-61079927D01*
G37*
G36*
X36347512Y-61079927D02*
G01*
X36496812Y-61109624D01*
X36660784Y-61177544D01*
X36808354Y-61276147D01*
X36933853Y-61401646D01*
X37032456Y-61549216D01*
X37100376Y-61713188D01*
X37135000Y-61887259D01*
X37135000Y-62064741D01*
X37100376Y-62238812D01*
X37032456Y-62402784D01*
X36933853Y-62550354D01*
X36808354Y-62675853D01*
X36660784Y-62774456D01*
X36496812Y-62842376D01*
X36347512Y-62872073D01*
X36322742Y-62877000D01*
X36145258Y-62877000D01*
X36120488Y-62872073D01*
X35971188Y-62842376D01*
X35807216Y-62774456D01*
X35659646Y-62675853D01*
X35534147Y-62550354D01*
X35435544Y-62402784D01*
X35367624Y-62238812D01*
X35333000Y-62064741D01*
X35333000Y-61887259D01*
X35367624Y-61713188D01*
X35435544Y-61549216D01*
X35534147Y-61401646D01*
X35659646Y-61276147D01*
X35807216Y-61177544D01*
X35971188Y-61109624D01*
X36120488Y-61079927D01*
X36145258Y-61075000D01*
X36322742Y-61075000D01*
X36347512Y-61079927D01*
X36347512Y-61079927D01*
G37*
G36*
X55397512Y-61079927D02*
G01*
X55546812Y-61109624D01*
X55710784Y-61177544D01*
X55858354Y-61276147D01*
X55983853Y-61401646D01*
X56082456Y-61549216D01*
X56150376Y-61713188D01*
X56185000Y-61887259D01*
X56185000Y-62064741D01*
X56150376Y-62238812D01*
X56082456Y-62402784D01*
X55983853Y-62550354D01*
X55858354Y-62675853D01*
X55710784Y-62774456D01*
X55546812Y-62842376D01*
X55397512Y-62872073D01*
X55372742Y-62877000D01*
X55195258Y-62877000D01*
X55170488Y-62872073D01*
X55021188Y-62842376D01*
X54857216Y-62774456D01*
X54709646Y-62675853D01*
X54584147Y-62550354D01*
X54485544Y-62402784D01*
X54417624Y-62238812D01*
X54383000Y-62064741D01*
X54383000Y-61887259D01*
X54417624Y-61713188D01*
X54485544Y-61549216D01*
X54584147Y-61401646D01*
X54709646Y-61276147D01*
X54857216Y-61177544D01*
X55021188Y-61109624D01*
X55170488Y-61079927D01*
X55195258Y-61075000D01*
X55372742Y-61075000D01*
X55397512Y-61079927D01*
X55397512Y-61079927D01*
G37*
G36*
X82497512Y-61079927D02*
G01*
X82646812Y-61109624D01*
X82810784Y-61177544D01*
X82958354Y-61276147D01*
X83083853Y-61401646D01*
X83182456Y-61549216D01*
X83250376Y-61713188D01*
X83285000Y-61887259D01*
X83285000Y-62064741D01*
X83250376Y-62238812D01*
X83182456Y-62402784D01*
X83083853Y-62550354D01*
X82958354Y-62675853D01*
X82810784Y-62774456D01*
X82646812Y-62842376D01*
X82497512Y-62872073D01*
X82472742Y-62877000D01*
X82295258Y-62877000D01*
X82270488Y-62872073D01*
X82121188Y-62842376D01*
X81957216Y-62774456D01*
X81809646Y-62675853D01*
X81684147Y-62550354D01*
X81585544Y-62402784D01*
X81517624Y-62238812D01*
X81483000Y-62064741D01*
X81483000Y-61887259D01*
X81517624Y-61713188D01*
X81585544Y-61549216D01*
X81684147Y-61401646D01*
X81809646Y-61276147D01*
X81957216Y-61177544D01*
X82121188Y-61109624D01*
X82270488Y-61079927D01*
X82295258Y-61075000D01*
X82472742Y-61075000D01*
X82497512Y-61079927D01*
X82497512Y-61079927D01*
G37*
G36*
X101547512Y-61079927D02*
G01*
X101696812Y-61109624D01*
X101860784Y-61177544D01*
X102008354Y-61276147D01*
X102133853Y-61401646D01*
X102232456Y-61549216D01*
X102300376Y-61713188D01*
X102335000Y-61887259D01*
X102335000Y-62064741D01*
X102300376Y-62238812D01*
X102232456Y-62402784D01*
X102133853Y-62550354D01*
X102008354Y-62675853D01*
X101860784Y-62774456D01*
X101696812Y-62842376D01*
X101547512Y-62872073D01*
X101522742Y-62877000D01*
X101345258Y-62877000D01*
X101320488Y-62872073D01*
X101171188Y-62842376D01*
X101007216Y-62774456D01*
X100859646Y-62675853D01*
X100734147Y-62550354D01*
X100635544Y-62402784D01*
X100567624Y-62238812D01*
X100533000Y-62064741D01*
X100533000Y-61887259D01*
X100567624Y-61713188D01*
X100635544Y-61549216D01*
X100734147Y-61401646D01*
X100859646Y-61276147D01*
X101007216Y-61177544D01*
X101171188Y-61109624D01*
X101320488Y-61079927D01*
X101345258Y-61075000D01*
X101522742Y-61075000D01*
X101547512Y-61079927D01*
X101547512Y-61079927D01*
G37*
G36*
X44397512Y-61079927D02*
G01*
X44546812Y-61109624D01*
X44710784Y-61177544D01*
X44858354Y-61276147D01*
X44983853Y-61401646D01*
X45082456Y-61549216D01*
X45150376Y-61713188D01*
X45185000Y-61887259D01*
X45185000Y-62064741D01*
X45150376Y-62238812D01*
X45082456Y-62402784D01*
X44983853Y-62550354D01*
X44858354Y-62675853D01*
X44710784Y-62774456D01*
X44546812Y-62842376D01*
X44397512Y-62872073D01*
X44372742Y-62877000D01*
X44195258Y-62877000D01*
X44170488Y-62872073D01*
X44021188Y-62842376D01*
X43857216Y-62774456D01*
X43709646Y-62675853D01*
X43584147Y-62550354D01*
X43485544Y-62402784D01*
X43417624Y-62238812D01*
X43383000Y-62064741D01*
X43383000Y-61887259D01*
X43417624Y-61713188D01*
X43485544Y-61549216D01*
X43584147Y-61401646D01*
X43709646Y-61276147D01*
X43857216Y-61177544D01*
X44021188Y-61109624D01*
X44170488Y-61079927D01*
X44195258Y-61075000D01*
X44372742Y-61075000D01*
X44397512Y-61079927D01*
X44397512Y-61079927D01*
G37*
G36*
X112547512Y-61079927D02*
G01*
X112696812Y-61109624D01*
X112860784Y-61177544D01*
X113008354Y-61276147D01*
X113133853Y-61401646D01*
X113232456Y-61549216D01*
X113300376Y-61713188D01*
X113335000Y-61887259D01*
X113335000Y-62064741D01*
X113300376Y-62238812D01*
X113232456Y-62402784D01*
X113133853Y-62550354D01*
X113008354Y-62675853D01*
X112860784Y-62774456D01*
X112696812Y-62842376D01*
X112547512Y-62872073D01*
X112522742Y-62877000D01*
X112345258Y-62877000D01*
X112320488Y-62872073D01*
X112171188Y-62842376D01*
X112007216Y-62774456D01*
X111859646Y-62675853D01*
X111734147Y-62550354D01*
X111635544Y-62402784D01*
X111567624Y-62238812D01*
X111533000Y-62064741D01*
X111533000Y-61887259D01*
X111567624Y-61713188D01*
X111635544Y-61549216D01*
X111734147Y-61401646D01*
X111859646Y-61276147D01*
X112007216Y-61177544D01*
X112171188Y-61109624D01*
X112320488Y-61079927D01*
X112345258Y-61075000D01*
X112522742Y-61075000D01*
X112547512Y-61079927D01*
X112547512Y-61079927D01*
G37*
G36*
X93497512Y-61079927D02*
G01*
X93646812Y-61109624D01*
X93810784Y-61177544D01*
X93958354Y-61276147D01*
X94083853Y-61401646D01*
X94182456Y-61549216D01*
X94250376Y-61713188D01*
X94285000Y-61887259D01*
X94285000Y-62064741D01*
X94250376Y-62238812D01*
X94182456Y-62402784D01*
X94083853Y-62550354D01*
X93958354Y-62675853D01*
X93810784Y-62774456D01*
X93646812Y-62842376D01*
X93497512Y-62872073D01*
X93472742Y-62877000D01*
X93295258Y-62877000D01*
X93270488Y-62872073D01*
X93121188Y-62842376D01*
X92957216Y-62774456D01*
X92809646Y-62675853D01*
X92684147Y-62550354D01*
X92585544Y-62402784D01*
X92517624Y-62238812D01*
X92483000Y-62064741D01*
X92483000Y-61887259D01*
X92517624Y-61713188D01*
X92585544Y-61549216D01*
X92684147Y-61401646D01*
X92809646Y-61276147D01*
X92957216Y-61177544D01*
X93121188Y-61109624D01*
X93270488Y-61079927D01*
X93295258Y-61075000D01*
X93472742Y-61075000D01*
X93497512Y-61079927D01*
X93497512Y-61079927D01*
G37*
G36*
X63447512Y-61079927D02*
G01*
X63596812Y-61109624D01*
X63760784Y-61177544D01*
X63908354Y-61276147D01*
X64033853Y-61401646D01*
X64132456Y-61549216D01*
X64200376Y-61713188D01*
X64235000Y-61887259D01*
X64235000Y-62064741D01*
X64200376Y-62238812D01*
X64132456Y-62402784D01*
X64033853Y-62550354D01*
X63908354Y-62675853D01*
X63760784Y-62774456D01*
X63596812Y-62842376D01*
X63447512Y-62872073D01*
X63422742Y-62877000D01*
X63245258Y-62877000D01*
X63220488Y-62872073D01*
X63071188Y-62842376D01*
X62907216Y-62774456D01*
X62759646Y-62675853D01*
X62634147Y-62550354D01*
X62535544Y-62402784D01*
X62467624Y-62238812D01*
X62433000Y-62064741D01*
X62433000Y-61887259D01*
X62467624Y-61713188D01*
X62535544Y-61549216D01*
X62634147Y-61401646D01*
X62759646Y-61276147D01*
X62907216Y-61177544D01*
X63071188Y-61109624D01*
X63220488Y-61079927D01*
X63245258Y-61075000D01*
X63422742Y-61075000D01*
X63447512Y-61079927D01*
X63447512Y-61079927D01*
G37*
G36*
X74447512Y-61079927D02*
G01*
X74596812Y-61109624D01*
X74760784Y-61177544D01*
X74908354Y-61276147D01*
X75033853Y-61401646D01*
X75132456Y-61549216D01*
X75200376Y-61713188D01*
X75235000Y-61887259D01*
X75235000Y-62064741D01*
X75200376Y-62238812D01*
X75132456Y-62402784D01*
X75033853Y-62550354D01*
X74908354Y-62675853D01*
X74760784Y-62774456D01*
X74596812Y-62842376D01*
X74447512Y-62872073D01*
X74422742Y-62877000D01*
X74245258Y-62877000D01*
X74220488Y-62872073D01*
X74071188Y-62842376D01*
X73907216Y-62774456D01*
X73759646Y-62675853D01*
X73634147Y-62550354D01*
X73535544Y-62402784D01*
X73467624Y-62238812D01*
X73433000Y-62064741D01*
X73433000Y-61887259D01*
X73467624Y-61713188D01*
X73535544Y-61549216D01*
X73634147Y-61401646D01*
X73759646Y-61276147D01*
X73907216Y-61177544D01*
X74071188Y-61109624D01*
X74220488Y-61079927D01*
X74245258Y-61075000D01*
X74422742Y-61075000D01*
X74447512Y-61079927D01*
X74447512Y-61079927D01*
G37*
G36*
X59960000Y-60392000D02*
G01*
X58658000Y-60392000D01*
X58658000Y-59090000D01*
X59960000Y-59090000D01*
X59960000Y-60392000D01*
X59960000Y-60392000D01*
G37*
G36*
X98060000Y-60392000D02*
G01*
X96758000Y-60392000D01*
X96758000Y-59090000D01*
X98060000Y-59090000D01*
X98060000Y-60392000D01*
X98060000Y-60392000D01*
G37*
G36*
X79010000Y-60392000D02*
G01*
X77708000Y-60392000D01*
X77708000Y-59090000D01*
X79010000Y-59090000D01*
X79010000Y-60392000D01*
X79010000Y-60392000D01*
G37*
G36*
X40910000Y-60392000D02*
G01*
X39608000Y-60392000D01*
X39608000Y-59090000D01*
X40910000Y-59090000D01*
X40910000Y-60392000D01*
X40910000Y-60392000D01*
G37*
G36*
X112240564Y-57165389D02*
G01*
X112431833Y-57244615D01*
X112431835Y-57244616D01*
X112603973Y-57359635D01*
X112750365Y-57506027D01*
X112865385Y-57678167D01*
X112944611Y-57869436D01*
X112985000Y-58072484D01*
X112985000Y-58279516D01*
X112944611Y-58482564D01*
X112865385Y-58673833D01*
X112865384Y-58673835D01*
X112750365Y-58845973D01*
X112603973Y-58992365D01*
X112431835Y-59107384D01*
X112431834Y-59107385D01*
X112431833Y-59107385D01*
X112240564Y-59186611D01*
X112037516Y-59227000D01*
X111830484Y-59227000D01*
X111627436Y-59186611D01*
X111436167Y-59107385D01*
X111436166Y-59107385D01*
X111436165Y-59107384D01*
X111264027Y-58992365D01*
X111117635Y-58845973D01*
X111002616Y-58673835D01*
X111002615Y-58673833D01*
X110923389Y-58482564D01*
X110883000Y-58279516D01*
X110883000Y-58072484D01*
X110923389Y-57869436D01*
X111002615Y-57678167D01*
X111117635Y-57506027D01*
X111264027Y-57359635D01*
X111436165Y-57244616D01*
X111436167Y-57244615D01*
X111627436Y-57165389D01*
X111830484Y-57125000D01*
X112037516Y-57125000D01*
X112240564Y-57165389D01*
X112240564Y-57165389D01*
G37*
G36*
X102240564Y-57165389D02*
G01*
X102431833Y-57244615D01*
X102431835Y-57244616D01*
X102603973Y-57359635D01*
X102750365Y-57506027D01*
X102865385Y-57678167D01*
X102944611Y-57869436D01*
X102985000Y-58072484D01*
X102985000Y-58279516D01*
X102944611Y-58482564D01*
X102865385Y-58673833D01*
X102865384Y-58673835D01*
X102750365Y-58845973D01*
X102603973Y-58992365D01*
X102431835Y-59107384D01*
X102431834Y-59107385D01*
X102431833Y-59107385D01*
X102240564Y-59186611D01*
X102037516Y-59227000D01*
X101830484Y-59227000D01*
X101627436Y-59186611D01*
X101436167Y-59107385D01*
X101436166Y-59107385D01*
X101436165Y-59107384D01*
X101264027Y-58992365D01*
X101117635Y-58845973D01*
X101002616Y-58673835D01*
X101002615Y-58673833D01*
X100923389Y-58482564D01*
X100883000Y-58279516D01*
X100883000Y-58072484D01*
X100923389Y-57869436D01*
X101002615Y-57678167D01*
X101117635Y-57506027D01*
X101264027Y-57359635D01*
X101436165Y-57244616D01*
X101436167Y-57244615D01*
X101627436Y-57165389D01*
X101830484Y-57125000D01*
X102037516Y-57125000D01*
X102240564Y-57165389D01*
X102240564Y-57165389D01*
G37*
G36*
X26040564Y-57165389D02*
G01*
X26231833Y-57244615D01*
X26231835Y-57244616D01*
X26403973Y-57359635D01*
X26550365Y-57506027D01*
X26665385Y-57678167D01*
X26744611Y-57869436D01*
X26785000Y-58072484D01*
X26785000Y-58279516D01*
X26744611Y-58482564D01*
X26665385Y-58673833D01*
X26665384Y-58673835D01*
X26550365Y-58845973D01*
X26403973Y-58992365D01*
X26231835Y-59107384D01*
X26231834Y-59107385D01*
X26231833Y-59107385D01*
X26040564Y-59186611D01*
X25837516Y-59227000D01*
X25630484Y-59227000D01*
X25427436Y-59186611D01*
X25236167Y-59107385D01*
X25236166Y-59107385D01*
X25236165Y-59107384D01*
X25064027Y-58992365D01*
X24917635Y-58845973D01*
X24802616Y-58673835D01*
X24802615Y-58673833D01*
X24723389Y-58482564D01*
X24683000Y-58279516D01*
X24683000Y-58072484D01*
X24723389Y-57869436D01*
X24802615Y-57678167D01*
X24917635Y-57506027D01*
X25064027Y-57359635D01*
X25236165Y-57244616D01*
X25236167Y-57244615D01*
X25427436Y-57165389D01*
X25630484Y-57125000D01*
X25837516Y-57125000D01*
X26040564Y-57165389D01*
X26040564Y-57165389D01*
G37*
G36*
X36040564Y-57165389D02*
G01*
X36231833Y-57244615D01*
X36231835Y-57244616D01*
X36403973Y-57359635D01*
X36550365Y-57506027D01*
X36665385Y-57678167D01*
X36744611Y-57869436D01*
X36785000Y-58072484D01*
X36785000Y-58279516D01*
X36744611Y-58482564D01*
X36665385Y-58673833D01*
X36665384Y-58673835D01*
X36550365Y-58845973D01*
X36403973Y-58992365D01*
X36231835Y-59107384D01*
X36231834Y-59107385D01*
X36231833Y-59107385D01*
X36040564Y-59186611D01*
X35837516Y-59227000D01*
X35630484Y-59227000D01*
X35427436Y-59186611D01*
X35236167Y-59107385D01*
X35236166Y-59107385D01*
X35236165Y-59107384D01*
X35064027Y-58992365D01*
X34917635Y-58845973D01*
X34802616Y-58673835D01*
X34802615Y-58673833D01*
X34723389Y-58482564D01*
X34683000Y-58279516D01*
X34683000Y-58072484D01*
X34723389Y-57869436D01*
X34802615Y-57678167D01*
X34917635Y-57506027D01*
X35064027Y-57359635D01*
X35236165Y-57244616D01*
X35236167Y-57244615D01*
X35427436Y-57165389D01*
X35630484Y-57125000D01*
X35837516Y-57125000D01*
X36040564Y-57165389D01*
X36040564Y-57165389D01*
G37*
G36*
X45090564Y-57165389D02*
G01*
X45281833Y-57244615D01*
X45281835Y-57244616D01*
X45453973Y-57359635D01*
X45600365Y-57506027D01*
X45715385Y-57678167D01*
X45794611Y-57869436D01*
X45835000Y-58072484D01*
X45835000Y-58279516D01*
X45794611Y-58482564D01*
X45715385Y-58673833D01*
X45715384Y-58673835D01*
X45600365Y-58845973D01*
X45453973Y-58992365D01*
X45281835Y-59107384D01*
X45281834Y-59107385D01*
X45281833Y-59107385D01*
X45090564Y-59186611D01*
X44887516Y-59227000D01*
X44680484Y-59227000D01*
X44477436Y-59186611D01*
X44286167Y-59107385D01*
X44286166Y-59107385D01*
X44286165Y-59107384D01*
X44114027Y-58992365D01*
X43967635Y-58845973D01*
X43852616Y-58673835D01*
X43852615Y-58673833D01*
X43773389Y-58482564D01*
X43733000Y-58279516D01*
X43733000Y-58072484D01*
X43773389Y-57869436D01*
X43852615Y-57678167D01*
X43967635Y-57506027D01*
X44114027Y-57359635D01*
X44286165Y-57244616D01*
X44286167Y-57244615D01*
X44477436Y-57165389D01*
X44680484Y-57125000D01*
X44887516Y-57125000D01*
X45090564Y-57165389D01*
X45090564Y-57165389D01*
G37*
G36*
X64140564Y-57165389D02*
G01*
X64331833Y-57244615D01*
X64331835Y-57244616D01*
X64503973Y-57359635D01*
X64650365Y-57506027D01*
X64765385Y-57678167D01*
X64844611Y-57869436D01*
X64885000Y-58072484D01*
X64885000Y-58279516D01*
X64844611Y-58482564D01*
X64765385Y-58673833D01*
X64765384Y-58673835D01*
X64650365Y-58845973D01*
X64503973Y-58992365D01*
X64331835Y-59107384D01*
X64331834Y-59107385D01*
X64331833Y-59107385D01*
X64140564Y-59186611D01*
X63937516Y-59227000D01*
X63730484Y-59227000D01*
X63527436Y-59186611D01*
X63336167Y-59107385D01*
X63336166Y-59107385D01*
X63336165Y-59107384D01*
X63164027Y-58992365D01*
X63017635Y-58845973D01*
X62902616Y-58673835D01*
X62902615Y-58673833D01*
X62823389Y-58482564D01*
X62783000Y-58279516D01*
X62783000Y-58072484D01*
X62823389Y-57869436D01*
X62902615Y-57678167D01*
X63017635Y-57506027D01*
X63164027Y-57359635D01*
X63336165Y-57244616D01*
X63336167Y-57244615D01*
X63527436Y-57165389D01*
X63730484Y-57125000D01*
X63937516Y-57125000D01*
X64140564Y-57165389D01*
X64140564Y-57165389D01*
G37*
G36*
X74140564Y-57165389D02*
G01*
X74331833Y-57244615D01*
X74331835Y-57244616D01*
X74503973Y-57359635D01*
X74650365Y-57506027D01*
X74765385Y-57678167D01*
X74844611Y-57869436D01*
X74885000Y-58072484D01*
X74885000Y-58279516D01*
X74844611Y-58482564D01*
X74765385Y-58673833D01*
X74765384Y-58673835D01*
X74650365Y-58845973D01*
X74503973Y-58992365D01*
X74331835Y-59107384D01*
X74331834Y-59107385D01*
X74331833Y-59107385D01*
X74140564Y-59186611D01*
X73937516Y-59227000D01*
X73730484Y-59227000D01*
X73527436Y-59186611D01*
X73336167Y-59107385D01*
X73336166Y-59107385D01*
X73336165Y-59107384D01*
X73164027Y-58992365D01*
X73017635Y-58845973D01*
X72902616Y-58673835D01*
X72902615Y-58673833D01*
X72823389Y-58482564D01*
X72783000Y-58279516D01*
X72783000Y-58072484D01*
X72823389Y-57869436D01*
X72902615Y-57678167D01*
X73017635Y-57506027D01*
X73164027Y-57359635D01*
X73336165Y-57244616D01*
X73336167Y-57244615D01*
X73527436Y-57165389D01*
X73730484Y-57125000D01*
X73937516Y-57125000D01*
X74140564Y-57165389D01*
X74140564Y-57165389D01*
G37*
G36*
X93190564Y-57165389D02*
G01*
X93381833Y-57244615D01*
X93381835Y-57244616D01*
X93553973Y-57359635D01*
X93700365Y-57506027D01*
X93815385Y-57678167D01*
X93894611Y-57869436D01*
X93935000Y-58072484D01*
X93935000Y-58279516D01*
X93894611Y-58482564D01*
X93815385Y-58673833D01*
X93815384Y-58673835D01*
X93700365Y-58845973D01*
X93553973Y-58992365D01*
X93381835Y-59107384D01*
X93381834Y-59107385D01*
X93381833Y-59107385D01*
X93190564Y-59186611D01*
X92987516Y-59227000D01*
X92780484Y-59227000D01*
X92577436Y-59186611D01*
X92386167Y-59107385D01*
X92386166Y-59107385D01*
X92386165Y-59107384D01*
X92214027Y-58992365D01*
X92067635Y-58845973D01*
X91952616Y-58673835D01*
X91952615Y-58673833D01*
X91873389Y-58482564D01*
X91833000Y-58279516D01*
X91833000Y-58072484D01*
X91873389Y-57869436D01*
X91952615Y-57678167D01*
X92067635Y-57506027D01*
X92214027Y-57359635D01*
X92386165Y-57244616D01*
X92386167Y-57244615D01*
X92577436Y-57165389D01*
X92780484Y-57125000D01*
X92987516Y-57125000D01*
X93190564Y-57165389D01*
X93190564Y-57165389D01*
G37*
G36*
X83190564Y-57165389D02*
G01*
X83381833Y-57244615D01*
X83381835Y-57244616D01*
X83553973Y-57359635D01*
X83700365Y-57506027D01*
X83815385Y-57678167D01*
X83894611Y-57869436D01*
X83935000Y-58072484D01*
X83935000Y-58279516D01*
X83894611Y-58482564D01*
X83815385Y-58673833D01*
X83815384Y-58673835D01*
X83700365Y-58845973D01*
X83553973Y-58992365D01*
X83381835Y-59107384D01*
X83381834Y-59107385D01*
X83381833Y-59107385D01*
X83190564Y-59186611D01*
X82987516Y-59227000D01*
X82780484Y-59227000D01*
X82577436Y-59186611D01*
X82386167Y-59107385D01*
X82386166Y-59107385D01*
X82386165Y-59107384D01*
X82214027Y-58992365D01*
X82067635Y-58845973D01*
X81952616Y-58673835D01*
X81952615Y-58673833D01*
X81873389Y-58482564D01*
X81833000Y-58279516D01*
X81833000Y-58072484D01*
X81873389Y-57869436D01*
X81952615Y-57678167D01*
X82067635Y-57506027D01*
X82214027Y-57359635D01*
X82386165Y-57244616D01*
X82386167Y-57244615D01*
X82577436Y-57165389D01*
X82780484Y-57125000D01*
X82987516Y-57125000D01*
X83190564Y-57165389D01*
X83190564Y-57165389D01*
G37*
G36*
X55090564Y-57165389D02*
G01*
X55281833Y-57244615D01*
X55281835Y-57244616D01*
X55453973Y-57359635D01*
X55600365Y-57506027D01*
X55715385Y-57678167D01*
X55794611Y-57869436D01*
X55835000Y-58072484D01*
X55835000Y-58279516D01*
X55794611Y-58482564D01*
X55715385Y-58673833D01*
X55715384Y-58673835D01*
X55600365Y-58845973D01*
X55453973Y-58992365D01*
X55281835Y-59107384D01*
X55281834Y-59107385D01*
X55281833Y-59107385D01*
X55090564Y-59186611D01*
X54887516Y-59227000D01*
X54680484Y-59227000D01*
X54477436Y-59186611D01*
X54286167Y-59107385D01*
X54286166Y-59107385D01*
X54286165Y-59107384D01*
X54114027Y-58992365D01*
X53967635Y-58845973D01*
X53852616Y-58673835D01*
X53852615Y-58673833D01*
X53773389Y-58482564D01*
X53733000Y-58279516D01*
X53733000Y-58072484D01*
X53773389Y-57869436D01*
X53852615Y-57678167D01*
X53967635Y-57506027D01*
X54114027Y-57359635D01*
X54286165Y-57244616D01*
X54286167Y-57244615D01*
X54477436Y-57165389D01*
X54680484Y-57125000D01*
X54887516Y-57125000D01*
X55090564Y-57165389D01*
X55090564Y-57165389D01*
G37*
G36*
X79010000Y-57242000D02*
G01*
X77708000Y-57242000D01*
X77708000Y-55940000D01*
X79010000Y-55940000D01*
X79010000Y-57242000D01*
X79010000Y-57242000D01*
G37*
G36*
X98060000Y-57242000D02*
G01*
X96758000Y-57242000D01*
X96758000Y-55940000D01*
X98060000Y-55940000D01*
X98060000Y-57242000D01*
X98060000Y-57242000D01*
G37*
G36*
X59960000Y-57242000D02*
G01*
X58658000Y-57242000D01*
X58658000Y-55940000D01*
X59960000Y-55940000D01*
X59960000Y-57242000D01*
X59960000Y-57242000D01*
G37*
G36*
X40910000Y-57242000D02*
G01*
X39608000Y-57242000D01*
X39608000Y-55940000D01*
X40910000Y-55940000D01*
X40910000Y-57242000D01*
X40910000Y-57242000D01*
G37*
G36*
X69140564Y-55065389D02*
G01*
X69265164Y-55117000D01*
X69331835Y-55144616D01*
X69503973Y-55259635D01*
X69650365Y-55406027D01*
X69765385Y-55578167D01*
X69844611Y-55769436D01*
X69885000Y-55972484D01*
X69885000Y-56179516D01*
X69844611Y-56382564D01*
X69765385Y-56573833D01*
X69765384Y-56573835D01*
X69650365Y-56745973D01*
X69503973Y-56892365D01*
X69331835Y-57007384D01*
X69331834Y-57007385D01*
X69331833Y-57007385D01*
X69140564Y-57086611D01*
X68937516Y-57127000D01*
X68730484Y-57127000D01*
X68527436Y-57086611D01*
X68336167Y-57007385D01*
X68336166Y-57007385D01*
X68336165Y-57007384D01*
X68164027Y-56892365D01*
X68017635Y-56745973D01*
X67902616Y-56573835D01*
X67902615Y-56573833D01*
X67823389Y-56382564D01*
X67783000Y-56179516D01*
X67783000Y-55972484D01*
X67823389Y-55769436D01*
X67902615Y-55578167D01*
X68017635Y-55406027D01*
X68164027Y-55259635D01*
X68336165Y-55144616D01*
X68402836Y-55117000D01*
X68527436Y-55065389D01*
X68730484Y-55025000D01*
X68937516Y-55025000D01*
X69140564Y-55065389D01*
X69140564Y-55065389D01*
G37*
G36*
X107240564Y-55065389D02*
G01*
X107365164Y-55117000D01*
X107431835Y-55144616D01*
X107603973Y-55259635D01*
X107750365Y-55406027D01*
X107865385Y-55578167D01*
X107944611Y-55769436D01*
X107985000Y-55972484D01*
X107985000Y-56179516D01*
X107944611Y-56382564D01*
X107865385Y-56573833D01*
X107865384Y-56573835D01*
X107750365Y-56745973D01*
X107603973Y-56892365D01*
X107431835Y-57007384D01*
X107431834Y-57007385D01*
X107431833Y-57007385D01*
X107240564Y-57086611D01*
X107037516Y-57127000D01*
X106830484Y-57127000D01*
X106627436Y-57086611D01*
X106436167Y-57007385D01*
X106436166Y-57007385D01*
X106436165Y-57007384D01*
X106264027Y-56892365D01*
X106117635Y-56745973D01*
X106002616Y-56573835D01*
X106002615Y-56573833D01*
X105923389Y-56382564D01*
X105883000Y-56179516D01*
X105883000Y-55972484D01*
X105923389Y-55769436D01*
X106002615Y-55578167D01*
X106117635Y-55406027D01*
X106264027Y-55259635D01*
X106436165Y-55144616D01*
X106502836Y-55117000D01*
X106627436Y-55065389D01*
X106830484Y-55025000D01*
X107037516Y-55025000D01*
X107240564Y-55065389D01*
X107240564Y-55065389D01*
G37*
G36*
X88190564Y-55065389D02*
G01*
X88315164Y-55117000D01*
X88381835Y-55144616D01*
X88553973Y-55259635D01*
X88700365Y-55406027D01*
X88815385Y-55578167D01*
X88894611Y-55769436D01*
X88935000Y-55972484D01*
X88935000Y-56179516D01*
X88894611Y-56382564D01*
X88815385Y-56573833D01*
X88815384Y-56573835D01*
X88700365Y-56745973D01*
X88553973Y-56892365D01*
X88381835Y-57007384D01*
X88381834Y-57007385D01*
X88381833Y-57007385D01*
X88190564Y-57086611D01*
X87987516Y-57127000D01*
X87780484Y-57127000D01*
X87577436Y-57086611D01*
X87386167Y-57007385D01*
X87386166Y-57007385D01*
X87386165Y-57007384D01*
X87214027Y-56892365D01*
X87067635Y-56745973D01*
X86952616Y-56573835D01*
X86952615Y-56573833D01*
X86873389Y-56382564D01*
X86833000Y-56179516D01*
X86833000Y-55972484D01*
X86873389Y-55769436D01*
X86952615Y-55578167D01*
X87067635Y-55406027D01*
X87214027Y-55259635D01*
X87386165Y-55144616D01*
X87452836Y-55117000D01*
X87577436Y-55065389D01*
X87780484Y-55025000D01*
X87987516Y-55025000D01*
X88190564Y-55065389D01*
X88190564Y-55065389D01*
G37*
G36*
X31040564Y-55065389D02*
G01*
X31165164Y-55117000D01*
X31231835Y-55144616D01*
X31403973Y-55259635D01*
X31550365Y-55406027D01*
X31665385Y-55578167D01*
X31744611Y-55769436D01*
X31785000Y-55972484D01*
X31785000Y-56179516D01*
X31744611Y-56382564D01*
X31665385Y-56573833D01*
X31665384Y-56573835D01*
X31550365Y-56745973D01*
X31403973Y-56892365D01*
X31231835Y-57007384D01*
X31231834Y-57007385D01*
X31231833Y-57007385D01*
X31040564Y-57086611D01*
X30837516Y-57127000D01*
X30630484Y-57127000D01*
X30427436Y-57086611D01*
X30236167Y-57007385D01*
X30236166Y-57007385D01*
X30236165Y-57007384D01*
X30064027Y-56892365D01*
X29917635Y-56745973D01*
X29802616Y-56573835D01*
X29802615Y-56573833D01*
X29723389Y-56382564D01*
X29683000Y-56179516D01*
X29683000Y-55972484D01*
X29723389Y-55769436D01*
X29802615Y-55578167D01*
X29917635Y-55406027D01*
X30064027Y-55259635D01*
X30236165Y-55144616D01*
X30302836Y-55117000D01*
X30427436Y-55065389D01*
X30630484Y-55025000D01*
X30837516Y-55025000D01*
X31040564Y-55065389D01*
X31040564Y-55065389D01*
G37*
G36*
X50090564Y-55065389D02*
G01*
X50215164Y-55117000D01*
X50281835Y-55144616D01*
X50453973Y-55259635D01*
X50600365Y-55406027D01*
X50715385Y-55578167D01*
X50794611Y-55769436D01*
X50835000Y-55972484D01*
X50835000Y-56179516D01*
X50794611Y-56382564D01*
X50715385Y-56573833D01*
X50715384Y-56573835D01*
X50600365Y-56745973D01*
X50453973Y-56892365D01*
X50281835Y-57007384D01*
X50281834Y-57007385D01*
X50281833Y-57007385D01*
X50090564Y-57086611D01*
X49887516Y-57127000D01*
X49680484Y-57127000D01*
X49477436Y-57086611D01*
X49286167Y-57007385D01*
X49286166Y-57007385D01*
X49286165Y-57007384D01*
X49114027Y-56892365D01*
X48967635Y-56745973D01*
X48852616Y-56573835D01*
X48852615Y-56573833D01*
X48773389Y-56382564D01*
X48733000Y-56179516D01*
X48733000Y-55972484D01*
X48773389Y-55769436D01*
X48852615Y-55578167D01*
X48967635Y-55406027D01*
X49114027Y-55259635D01*
X49286165Y-55144616D01*
X49352836Y-55117000D01*
X49477436Y-55065389D01*
X49680484Y-55025000D01*
X49887516Y-55025000D01*
X50090564Y-55065389D01*
X50090564Y-55065389D01*
G37*
G36*
X78607228Y-53447703D02*
G01*
X78762100Y-53511853D01*
X78901481Y-53604985D01*
X79020015Y-53723519D01*
X79113147Y-53862900D01*
X79177297Y-54017772D01*
X79210000Y-54182184D01*
X79210000Y-54349816D01*
X79177297Y-54514228D01*
X79113147Y-54669100D01*
X79020015Y-54808481D01*
X78901481Y-54927015D01*
X78762100Y-55020147D01*
X78607228Y-55084297D01*
X78442816Y-55117000D01*
X78275184Y-55117000D01*
X78110772Y-55084297D01*
X77955900Y-55020147D01*
X77816519Y-54927015D01*
X77697985Y-54808481D01*
X77604853Y-54669100D01*
X77540703Y-54514228D01*
X77508000Y-54349816D01*
X77508000Y-54182184D01*
X77540703Y-54017772D01*
X77604853Y-53862900D01*
X77697985Y-53723519D01*
X77816519Y-53604985D01*
X77955900Y-53511853D01*
X78110772Y-53447703D01*
X78275184Y-53415000D01*
X78442816Y-53415000D01*
X78607228Y-53447703D01*
X78607228Y-53447703D01*
G37*
G36*
X97657228Y-53447703D02*
G01*
X97812100Y-53511853D01*
X97951481Y-53604985D01*
X98070015Y-53723519D01*
X98163147Y-53862900D01*
X98227297Y-54017772D01*
X98260000Y-54182184D01*
X98260000Y-54349816D01*
X98227297Y-54514228D01*
X98163147Y-54669100D01*
X98070015Y-54808481D01*
X97951481Y-54927015D01*
X97812100Y-55020147D01*
X97657228Y-55084297D01*
X97492816Y-55117000D01*
X97325184Y-55117000D01*
X97160772Y-55084297D01*
X97005900Y-55020147D01*
X96866519Y-54927015D01*
X96747985Y-54808481D01*
X96654853Y-54669100D01*
X96590703Y-54514228D01*
X96558000Y-54349816D01*
X96558000Y-54182184D01*
X96590703Y-54017772D01*
X96654853Y-53862900D01*
X96747985Y-53723519D01*
X96866519Y-53604985D01*
X97005900Y-53511853D01*
X97160772Y-53447703D01*
X97325184Y-53415000D01*
X97492816Y-53415000D01*
X97657228Y-53447703D01*
X97657228Y-53447703D01*
G37*
G36*
X59557228Y-53447703D02*
G01*
X59712100Y-53511853D01*
X59851481Y-53604985D01*
X59970015Y-53723519D01*
X60063147Y-53862900D01*
X60127297Y-54017772D01*
X60160000Y-54182184D01*
X60160000Y-54349816D01*
X60127297Y-54514228D01*
X60063147Y-54669100D01*
X59970015Y-54808481D01*
X59851481Y-54927015D01*
X59712100Y-55020147D01*
X59557228Y-55084297D01*
X59392816Y-55117000D01*
X59225184Y-55117000D01*
X59060772Y-55084297D01*
X58905900Y-55020147D01*
X58766519Y-54927015D01*
X58647985Y-54808481D01*
X58554853Y-54669100D01*
X58490703Y-54514228D01*
X58458000Y-54349816D01*
X58458000Y-54182184D01*
X58490703Y-54017772D01*
X58554853Y-53862900D01*
X58647985Y-53723519D01*
X58766519Y-53604985D01*
X58905900Y-53511853D01*
X59060772Y-53447703D01*
X59225184Y-53415000D01*
X59392816Y-53415000D01*
X59557228Y-53447703D01*
X59557228Y-53447703D01*
G37*
G36*
X40507228Y-53447703D02*
G01*
X40662100Y-53511853D01*
X40801481Y-53604985D01*
X40920015Y-53723519D01*
X41013147Y-53862900D01*
X41077297Y-54017772D01*
X41110000Y-54182184D01*
X41110000Y-54349816D01*
X41077297Y-54514228D01*
X41013147Y-54669100D01*
X40920015Y-54808481D01*
X40801481Y-54927015D01*
X40662100Y-55020147D01*
X40507228Y-55084297D01*
X40342816Y-55117000D01*
X40175184Y-55117000D01*
X40010772Y-55084297D01*
X39855900Y-55020147D01*
X39716519Y-54927015D01*
X39597985Y-54808481D01*
X39504853Y-54669100D01*
X39440703Y-54514228D01*
X39408000Y-54349816D01*
X39408000Y-54182184D01*
X39440703Y-54017772D01*
X39504853Y-53862900D01*
X39597985Y-53723519D01*
X39716519Y-53604985D01*
X39855900Y-53511853D01*
X40010772Y-53447703D01*
X40175184Y-53415000D01*
X40342816Y-53415000D01*
X40507228Y-53447703D01*
X40507228Y-53447703D01*
G37*
G36*
X34882228Y-51632703D02*
G01*
X35037100Y-51696853D01*
X35176481Y-51789985D01*
X35295015Y-51908519D01*
X35388147Y-52047900D01*
X35452297Y-52202772D01*
X35485000Y-52367184D01*
X35485000Y-52534816D01*
X35452297Y-52699228D01*
X35388147Y-52854100D01*
X35295015Y-52993481D01*
X35176481Y-53112015D01*
X35037100Y-53205147D01*
X34882228Y-53269297D01*
X34717816Y-53302000D01*
X34550184Y-53302000D01*
X34385772Y-53269297D01*
X34230900Y-53205147D01*
X34091519Y-53112015D01*
X33972985Y-52993481D01*
X33879853Y-52854100D01*
X33815703Y-52699228D01*
X33783000Y-52534816D01*
X33783000Y-52367184D01*
X33815703Y-52202772D01*
X33879853Y-52047900D01*
X33972985Y-51908519D01*
X34091519Y-51789985D01*
X34230900Y-51696853D01*
X34385772Y-51632703D01*
X34550184Y-51600000D01*
X34717816Y-51600000D01*
X34882228Y-51632703D01*
X34882228Y-51632703D01*
G37*
G36*
X27685000Y-53302000D02*
G01*
X25983000Y-53302000D01*
X25983000Y-51600000D01*
X27685000Y-51600000D01*
X27685000Y-53302000D01*
X27685000Y-53302000D01*
G37*
G36*
X29810000Y-53102000D02*
G01*
X28508000Y-53102000D01*
X28508000Y-51800000D01*
X29810000Y-51800000D01*
X29810000Y-53102000D01*
X29810000Y-53102000D01*
G37*
G36*
X32960000Y-53102000D02*
G01*
X31658000Y-53102000D01*
X31658000Y-51800000D01*
X32960000Y-51800000D01*
X32960000Y-53102000D01*
X32960000Y-53102000D01*
G37*
G36*
X88281985Y-41219860D02*
G01*
X88394748Y-41242290D01*
X88526741Y-41296963D01*
X88713408Y-41374283D01*
X89000196Y-41565909D01*
X89244091Y-41809804D01*
X89435717Y-42096592D01*
X89567710Y-42415253D01*
X89635000Y-42753540D01*
X89635000Y-43098460D01*
X89567710Y-43436747D01*
X89435717Y-43755408D01*
X89244091Y-44042196D01*
X89000196Y-44286091D01*
X88713408Y-44477717D01*
X88526741Y-44555037D01*
X88394748Y-44609710D01*
X88281985Y-44632140D01*
X88056460Y-44677000D01*
X87711540Y-44677000D01*
X87486015Y-44632140D01*
X87373252Y-44609710D01*
X87241259Y-44555037D01*
X87054592Y-44477717D01*
X86767804Y-44286091D01*
X86523909Y-44042196D01*
X86332283Y-43755408D01*
X86200290Y-43436747D01*
X86133000Y-43098460D01*
X86133000Y-42753540D01*
X86200290Y-42415253D01*
X86332283Y-42096592D01*
X86523909Y-41809804D01*
X86767804Y-41565909D01*
X87054592Y-41374283D01*
X87241259Y-41296963D01*
X87373252Y-41242290D01*
X87486015Y-41219860D01*
X87711540Y-41175000D01*
X88056460Y-41175000D01*
X88281985Y-41219860D01*
X88281985Y-41219860D01*
G37*
G36*
X50181985Y-41219860D02*
G01*
X50294748Y-41242290D01*
X50426741Y-41296963D01*
X50613408Y-41374283D01*
X50900196Y-41565909D01*
X51144091Y-41809804D01*
X51335717Y-42096592D01*
X51467710Y-42415253D01*
X51535000Y-42753540D01*
X51535000Y-43098460D01*
X51467710Y-43436747D01*
X51335717Y-43755408D01*
X51144091Y-44042196D01*
X50900196Y-44286091D01*
X50613408Y-44477717D01*
X50426741Y-44555037D01*
X50294748Y-44609710D01*
X50181985Y-44632140D01*
X49956460Y-44677000D01*
X49611540Y-44677000D01*
X49386015Y-44632140D01*
X49273252Y-44609710D01*
X49141259Y-44555037D01*
X48954592Y-44477717D01*
X48667804Y-44286091D01*
X48423909Y-44042196D01*
X48232283Y-43755408D01*
X48100290Y-43436747D01*
X48033000Y-43098460D01*
X48033000Y-42753540D01*
X48100290Y-42415253D01*
X48232283Y-42096592D01*
X48423909Y-41809804D01*
X48667804Y-41565909D01*
X48954592Y-41374283D01*
X49141259Y-41296963D01*
X49273252Y-41242290D01*
X49386015Y-41219860D01*
X49611540Y-41175000D01*
X49956460Y-41175000D01*
X50181985Y-41219860D01*
X50181985Y-41219860D01*
G37*
G36*
X69231985Y-41219860D02*
G01*
X69344748Y-41242290D01*
X69476741Y-41296963D01*
X69663408Y-41374283D01*
X69950196Y-41565909D01*
X70194091Y-41809804D01*
X70385717Y-42096592D01*
X70517710Y-42415253D01*
X70585000Y-42753540D01*
X70585000Y-43098460D01*
X70517710Y-43436747D01*
X70385717Y-43755408D01*
X70194091Y-44042196D01*
X69950196Y-44286091D01*
X69663408Y-44477717D01*
X69476741Y-44555037D01*
X69344748Y-44609710D01*
X69231985Y-44632140D01*
X69006460Y-44677000D01*
X68661540Y-44677000D01*
X68436015Y-44632140D01*
X68323252Y-44609710D01*
X68191259Y-44555037D01*
X68004592Y-44477717D01*
X67717804Y-44286091D01*
X67473909Y-44042196D01*
X67282283Y-43755408D01*
X67150290Y-43436747D01*
X67083000Y-43098460D01*
X67083000Y-42753540D01*
X67150290Y-42415253D01*
X67282283Y-42096592D01*
X67473909Y-41809804D01*
X67717804Y-41565909D01*
X68004592Y-41374283D01*
X68191259Y-41296963D01*
X68323252Y-41242290D01*
X68436015Y-41219860D01*
X68661540Y-41175000D01*
X69006460Y-41175000D01*
X69231985Y-41219860D01*
X69231985Y-41219860D01*
G37*
G36*
X31131985Y-41219860D02*
G01*
X31244748Y-41242290D01*
X31376741Y-41296963D01*
X31563408Y-41374283D01*
X31850196Y-41565909D01*
X32094091Y-41809804D01*
X32285717Y-42096592D01*
X32417710Y-42415253D01*
X32485000Y-42753540D01*
X32485000Y-43098460D01*
X32417710Y-43436747D01*
X32285717Y-43755408D01*
X32094091Y-44042196D01*
X31850196Y-44286091D01*
X31563408Y-44477717D01*
X31376741Y-44555037D01*
X31244748Y-44609710D01*
X31131985Y-44632140D01*
X30906460Y-44677000D01*
X30561540Y-44677000D01*
X30336015Y-44632140D01*
X30223252Y-44609710D01*
X30091259Y-44555037D01*
X29904592Y-44477717D01*
X29617804Y-44286091D01*
X29373909Y-44042196D01*
X29182283Y-43755408D01*
X29050290Y-43436747D01*
X28983000Y-43098460D01*
X28983000Y-42753540D01*
X29050290Y-42415253D01*
X29182283Y-42096592D01*
X29373909Y-41809804D01*
X29617804Y-41565909D01*
X29904592Y-41374283D01*
X30091259Y-41296963D01*
X30223252Y-41242290D01*
X30336015Y-41219860D01*
X30561540Y-41175000D01*
X30906460Y-41175000D01*
X31131985Y-41219860D01*
X31131985Y-41219860D01*
G37*
G36*
X107331985Y-41219860D02*
G01*
X107444748Y-41242290D01*
X107576741Y-41296963D01*
X107763408Y-41374283D01*
X108050196Y-41565909D01*
X108294091Y-41809804D01*
X108485717Y-42096592D01*
X108617710Y-42415253D01*
X108685000Y-42753540D01*
X108685000Y-43098460D01*
X108617710Y-43436747D01*
X108485717Y-43755408D01*
X108294091Y-44042196D01*
X108050196Y-44286091D01*
X107763408Y-44477717D01*
X107576741Y-44555037D01*
X107444748Y-44609710D01*
X107331985Y-44632140D01*
X107106460Y-44677000D01*
X106761540Y-44677000D01*
X106536015Y-44632140D01*
X106423252Y-44609710D01*
X106291259Y-44555037D01*
X106104592Y-44477717D01*
X105817804Y-44286091D01*
X105573909Y-44042196D01*
X105382283Y-43755408D01*
X105250290Y-43436747D01*
X105183000Y-43098460D01*
X105183000Y-42753540D01*
X105250290Y-42415253D01*
X105382283Y-42096592D01*
X105573909Y-41809804D01*
X105817804Y-41565909D01*
X106104592Y-41374283D01*
X106291259Y-41296963D01*
X106423252Y-41242290D01*
X106536015Y-41219860D01*
X106761540Y-41175000D01*
X107106460Y-41175000D01*
X107331985Y-41219860D01*
X107331985Y-41219860D01*
G37*
G36*
X41110000Y-43867000D02*
G01*
X39408000Y-43867000D01*
X39408000Y-42165000D01*
X41110000Y-42165000D01*
X41110000Y-43867000D01*
X41110000Y-43867000D01*
G37*
G36*
X98387000Y-43867000D02*
G01*
X96685000Y-43867000D01*
X96685000Y-42165000D01*
X98387000Y-42165000D01*
X98387000Y-43867000D01*
X98387000Y-43867000D01*
G37*
G36*
X79210000Y-43867000D02*
G01*
X77508000Y-43867000D01*
X77508000Y-42165000D01*
X79210000Y-42165000D01*
X79210000Y-43867000D01*
X79210000Y-43867000D01*
G37*
G36*
X60160000Y-43867000D02*
G01*
X58458000Y-43867000D01*
X58458000Y-42165000D01*
X60160000Y-42165000D01*
X60160000Y-43867000D01*
X60160000Y-43867000D01*
G37*
G36*
X112547512Y-42029927D02*
G01*
X112696812Y-42059624D01*
X112860784Y-42127544D01*
X113008354Y-42226147D01*
X113133853Y-42351646D01*
X113232456Y-42499216D01*
X113300376Y-42663188D01*
X113335000Y-42837259D01*
X113335000Y-43014741D01*
X113300376Y-43188812D01*
X113232456Y-43352784D01*
X113133853Y-43500354D01*
X113008354Y-43625853D01*
X112860784Y-43724456D01*
X112696812Y-43792376D01*
X112547512Y-43822073D01*
X112522742Y-43827000D01*
X112345258Y-43827000D01*
X112320488Y-43822073D01*
X112171188Y-43792376D01*
X112007216Y-43724456D01*
X111859646Y-43625853D01*
X111734147Y-43500354D01*
X111635544Y-43352784D01*
X111567624Y-43188812D01*
X111533000Y-43014741D01*
X111533000Y-42837259D01*
X111567624Y-42663188D01*
X111635544Y-42499216D01*
X111734147Y-42351646D01*
X111859646Y-42226147D01*
X112007216Y-42127544D01*
X112171188Y-42059624D01*
X112320488Y-42029927D01*
X112345258Y-42025000D01*
X112522742Y-42025000D01*
X112547512Y-42029927D01*
X112547512Y-42029927D01*
G37*
G36*
X101547512Y-42029927D02*
G01*
X101696812Y-42059624D01*
X101860784Y-42127544D01*
X102008354Y-42226147D01*
X102133853Y-42351646D01*
X102232456Y-42499216D01*
X102300376Y-42663188D01*
X102335000Y-42837259D01*
X102335000Y-43014741D01*
X102300376Y-43188812D01*
X102232456Y-43352784D01*
X102133853Y-43500354D01*
X102008354Y-43625853D01*
X101860784Y-43724456D01*
X101696812Y-43792376D01*
X101547512Y-43822073D01*
X101522742Y-43827000D01*
X101345258Y-43827000D01*
X101320488Y-43822073D01*
X101171188Y-43792376D01*
X101007216Y-43724456D01*
X100859646Y-43625853D01*
X100734147Y-43500354D01*
X100635544Y-43352784D01*
X100567624Y-43188812D01*
X100533000Y-43014741D01*
X100533000Y-42837259D01*
X100567624Y-42663188D01*
X100635544Y-42499216D01*
X100734147Y-42351646D01*
X100859646Y-42226147D01*
X101007216Y-42127544D01*
X101171188Y-42059624D01*
X101320488Y-42029927D01*
X101345258Y-42025000D01*
X101522742Y-42025000D01*
X101547512Y-42029927D01*
X101547512Y-42029927D01*
G37*
G36*
X93497512Y-42029927D02*
G01*
X93646812Y-42059624D01*
X93810784Y-42127544D01*
X93958354Y-42226147D01*
X94083853Y-42351646D01*
X94182456Y-42499216D01*
X94250376Y-42663188D01*
X94285000Y-42837259D01*
X94285000Y-43014741D01*
X94250376Y-43188812D01*
X94182456Y-43352784D01*
X94083853Y-43500354D01*
X93958354Y-43625853D01*
X93810784Y-43724456D01*
X93646812Y-43792376D01*
X93497512Y-43822073D01*
X93472742Y-43827000D01*
X93295258Y-43827000D01*
X93270488Y-43822073D01*
X93121188Y-43792376D01*
X92957216Y-43724456D01*
X92809646Y-43625853D01*
X92684147Y-43500354D01*
X92585544Y-43352784D01*
X92517624Y-43188812D01*
X92483000Y-43014741D01*
X92483000Y-42837259D01*
X92517624Y-42663188D01*
X92585544Y-42499216D01*
X92684147Y-42351646D01*
X92809646Y-42226147D01*
X92957216Y-42127544D01*
X93121188Y-42059624D01*
X93270488Y-42029927D01*
X93295258Y-42025000D01*
X93472742Y-42025000D01*
X93497512Y-42029927D01*
X93497512Y-42029927D01*
G37*
G36*
X55397512Y-42029927D02*
G01*
X55546812Y-42059624D01*
X55710784Y-42127544D01*
X55858354Y-42226147D01*
X55983853Y-42351646D01*
X56082456Y-42499216D01*
X56150376Y-42663188D01*
X56185000Y-42837259D01*
X56185000Y-43014741D01*
X56150376Y-43188812D01*
X56082456Y-43352784D01*
X55983853Y-43500354D01*
X55858354Y-43625853D01*
X55710784Y-43724456D01*
X55546812Y-43792376D01*
X55397512Y-43822073D01*
X55372742Y-43827000D01*
X55195258Y-43827000D01*
X55170488Y-43822073D01*
X55021188Y-43792376D01*
X54857216Y-43724456D01*
X54709646Y-43625853D01*
X54584147Y-43500354D01*
X54485544Y-43352784D01*
X54417624Y-43188812D01*
X54383000Y-43014741D01*
X54383000Y-42837259D01*
X54417624Y-42663188D01*
X54485544Y-42499216D01*
X54584147Y-42351646D01*
X54709646Y-42226147D01*
X54857216Y-42127544D01*
X55021188Y-42059624D01*
X55170488Y-42029927D01*
X55195258Y-42025000D01*
X55372742Y-42025000D01*
X55397512Y-42029927D01*
X55397512Y-42029927D01*
G37*
G36*
X82497512Y-42029927D02*
G01*
X82646812Y-42059624D01*
X82810784Y-42127544D01*
X82958354Y-42226147D01*
X83083853Y-42351646D01*
X83182456Y-42499216D01*
X83250376Y-42663188D01*
X83285000Y-42837259D01*
X83285000Y-43014741D01*
X83250376Y-43188812D01*
X83182456Y-43352784D01*
X83083853Y-43500354D01*
X82958354Y-43625853D01*
X82810784Y-43724456D01*
X82646812Y-43792376D01*
X82497512Y-43822073D01*
X82472742Y-43827000D01*
X82295258Y-43827000D01*
X82270488Y-43822073D01*
X82121188Y-43792376D01*
X81957216Y-43724456D01*
X81809646Y-43625853D01*
X81684147Y-43500354D01*
X81585544Y-43352784D01*
X81517624Y-43188812D01*
X81483000Y-43014741D01*
X81483000Y-42837259D01*
X81517624Y-42663188D01*
X81585544Y-42499216D01*
X81684147Y-42351646D01*
X81809646Y-42226147D01*
X81957216Y-42127544D01*
X82121188Y-42059624D01*
X82270488Y-42029927D01*
X82295258Y-42025000D01*
X82472742Y-42025000D01*
X82497512Y-42029927D01*
X82497512Y-42029927D01*
G37*
G36*
X36347512Y-42029927D02*
G01*
X36496812Y-42059624D01*
X36660784Y-42127544D01*
X36808354Y-42226147D01*
X36933853Y-42351646D01*
X37032456Y-42499216D01*
X37100376Y-42663188D01*
X37135000Y-42837259D01*
X37135000Y-43014741D01*
X37100376Y-43188812D01*
X37032456Y-43352784D01*
X36933853Y-43500354D01*
X36808354Y-43625853D01*
X36660784Y-43724456D01*
X36496812Y-43792376D01*
X36347512Y-43822073D01*
X36322742Y-43827000D01*
X36145258Y-43827000D01*
X36120488Y-43822073D01*
X35971188Y-43792376D01*
X35807216Y-43724456D01*
X35659646Y-43625853D01*
X35534147Y-43500354D01*
X35435544Y-43352784D01*
X35367624Y-43188812D01*
X35333000Y-43014741D01*
X35333000Y-42837259D01*
X35367624Y-42663188D01*
X35435544Y-42499216D01*
X35534147Y-42351646D01*
X35659646Y-42226147D01*
X35807216Y-42127544D01*
X35971188Y-42059624D01*
X36120488Y-42029927D01*
X36145258Y-42025000D01*
X36322742Y-42025000D01*
X36347512Y-42029927D01*
X36347512Y-42029927D01*
G37*
G36*
X44397512Y-42029927D02*
G01*
X44546812Y-42059624D01*
X44710784Y-42127544D01*
X44858354Y-42226147D01*
X44983853Y-42351646D01*
X45082456Y-42499216D01*
X45150376Y-42663188D01*
X45185000Y-42837259D01*
X45185000Y-43014741D01*
X45150376Y-43188812D01*
X45082456Y-43352784D01*
X44983853Y-43500354D01*
X44858354Y-43625853D01*
X44710784Y-43724456D01*
X44546812Y-43792376D01*
X44397512Y-43822073D01*
X44372742Y-43827000D01*
X44195258Y-43827000D01*
X44170488Y-43822073D01*
X44021188Y-43792376D01*
X43857216Y-43724456D01*
X43709646Y-43625853D01*
X43584147Y-43500354D01*
X43485544Y-43352784D01*
X43417624Y-43188812D01*
X43383000Y-43014741D01*
X43383000Y-42837259D01*
X43417624Y-42663188D01*
X43485544Y-42499216D01*
X43584147Y-42351646D01*
X43709646Y-42226147D01*
X43857216Y-42127544D01*
X44021188Y-42059624D01*
X44170488Y-42029927D01*
X44195258Y-42025000D01*
X44372742Y-42025000D01*
X44397512Y-42029927D01*
X44397512Y-42029927D01*
G37*
G36*
X63447512Y-42029927D02*
G01*
X63596812Y-42059624D01*
X63760784Y-42127544D01*
X63908354Y-42226147D01*
X64033853Y-42351646D01*
X64132456Y-42499216D01*
X64200376Y-42663188D01*
X64235000Y-42837259D01*
X64235000Y-43014741D01*
X64200376Y-43188812D01*
X64132456Y-43352784D01*
X64033853Y-43500354D01*
X63908354Y-43625853D01*
X63760784Y-43724456D01*
X63596812Y-43792376D01*
X63447512Y-43822073D01*
X63422742Y-43827000D01*
X63245258Y-43827000D01*
X63220488Y-43822073D01*
X63071188Y-43792376D01*
X62907216Y-43724456D01*
X62759646Y-43625853D01*
X62634147Y-43500354D01*
X62535544Y-43352784D01*
X62467624Y-43188812D01*
X62433000Y-43014741D01*
X62433000Y-42837259D01*
X62467624Y-42663188D01*
X62535544Y-42499216D01*
X62634147Y-42351646D01*
X62759646Y-42226147D01*
X62907216Y-42127544D01*
X63071188Y-42059624D01*
X63220488Y-42029927D01*
X63245258Y-42025000D01*
X63422742Y-42025000D01*
X63447512Y-42029927D01*
X63447512Y-42029927D01*
G37*
G36*
X25347512Y-42029927D02*
G01*
X25496812Y-42059624D01*
X25660784Y-42127544D01*
X25808354Y-42226147D01*
X25933853Y-42351646D01*
X26032456Y-42499216D01*
X26100376Y-42663188D01*
X26135000Y-42837259D01*
X26135000Y-43014741D01*
X26100376Y-43188812D01*
X26032456Y-43352784D01*
X25933853Y-43500354D01*
X25808354Y-43625853D01*
X25660784Y-43724456D01*
X25496812Y-43792376D01*
X25347512Y-43822073D01*
X25322742Y-43827000D01*
X25145258Y-43827000D01*
X25120488Y-43822073D01*
X24971188Y-43792376D01*
X24807216Y-43724456D01*
X24659646Y-43625853D01*
X24534147Y-43500354D01*
X24435544Y-43352784D01*
X24367624Y-43188812D01*
X24333000Y-43014741D01*
X24333000Y-42837259D01*
X24367624Y-42663188D01*
X24435544Y-42499216D01*
X24534147Y-42351646D01*
X24659646Y-42226147D01*
X24807216Y-42127544D01*
X24971188Y-42059624D01*
X25120488Y-42029927D01*
X25145258Y-42025000D01*
X25322742Y-42025000D01*
X25347512Y-42029927D01*
X25347512Y-42029927D01*
G37*
G36*
X74447512Y-42029927D02*
G01*
X74596812Y-42059624D01*
X74760784Y-42127544D01*
X74908354Y-42226147D01*
X75033853Y-42351646D01*
X75132456Y-42499216D01*
X75200376Y-42663188D01*
X75235000Y-42837259D01*
X75235000Y-43014741D01*
X75200376Y-43188812D01*
X75132456Y-43352784D01*
X75033853Y-43500354D01*
X74908354Y-43625853D01*
X74760784Y-43724456D01*
X74596812Y-43792376D01*
X74447512Y-43822073D01*
X74422742Y-43827000D01*
X74245258Y-43827000D01*
X74220488Y-43822073D01*
X74071188Y-43792376D01*
X73907216Y-43724456D01*
X73759646Y-43625853D01*
X73634147Y-43500354D01*
X73535544Y-43352784D01*
X73467624Y-43188812D01*
X73433000Y-43014741D01*
X73433000Y-42837259D01*
X73467624Y-42663188D01*
X73535544Y-42499216D01*
X73634147Y-42351646D01*
X73759646Y-42226147D01*
X73907216Y-42127544D01*
X74071188Y-42059624D01*
X74220488Y-42029927D01*
X74245258Y-42025000D01*
X74422742Y-42025000D01*
X74447512Y-42029927D01*
X74447512Y-42029927D01*
G37*
G36*
X59960000Y-41342000D02*
G01*
X58658000Y-41342000D01*
X58658000Y-40040000D01*
X59960000Y-40040000D01*
X59960000Y-41342000D01*
X59960000Y-41342000D01*
G37*
G36*
X40910000Y-41342000D02*
G01*
X39608000Y-41342000D01*
X39608000Y-40040000D01*
X40910000Y-40040000D01*
X40910000Y-41342000D01*
X40910000Y-41342000D01*
G37*
G36*
X79010000Y-41342000D02*
G01*
X77708000Y-41342000D01*
X77708000Y-40040000D01*
X79010000Y-40040000D01*
X79010000Y-41342000D01*
X79010000Y-41342000D01*
G37*
G36*
X98187000Y-41342000D02*
G01*
X96885000Y-41342000D01*
X96885000Y-40040000D01*
X98187000Y-40040000D01*
X98187000Y-41342000D01*
X98187000Y-41342000D01*
G37*
G36*
X112240564Y-38115389D02*
G01*
X112431833Y-38194615D01*
X112431835Y-38194616D01*
X112603973Y-38309635D01*
X112750365Y-38456027D01*
X112865385Y-38628167D01*
X112944611Y-38819436D01*
X112985000Y-39022484D01*
X112985000Y-39229516D01*
X112944611Y-39432564D01*
X112865385Y-39623833D01*
X112865384Y-39623835D01*
X112750365Y-39795973D01*
X112603973Y-39942365D01*
X112431835Y-40057384D01*
X112431834Y-40057385D01*
X112431833Y-40057385D01*
X112240564Y-40136611D01*
X112037516Y-40177000D01*
X111830484Y-40177000D01*
X111627436Y-40136611D01*
X111436167Y-40057385D01*
X111436166Y-40057385D01*
X111436165Y-40057384D01*
X111264027Y-39942365D01*
X111117635Y-39795973D01*
X111002616Y-39623835D01*
X111002615Y-39623833D01*
X110923389Y-39432564D01*
X110883000Y-39229516D01*
X110883000Y-39022484D01*
X110923389Y-38819436D01*
X111002615Y-38628167D01*
X111117635Y-38456027D01*
X111264027Y-38309635D01*
X111436165Y-38194616D01*
X111436167Y-38194615D01*
X111627436Y-38115389D01*
X111830484Y-38075000D01*
X112037516Y-38075000D01*
X112240564Y-38115389D01*
X112240564Y-38115389D01*
G37*
G36*
X102240564Y-38115389D02*
G01*
X102431833Y-38194615D01*
X102431835Y-38194616D01*
X102603973Y-38309635D01*
X102750365Y-38456027D01*
X102865385Y-38628167D01*
X102944611Y-38819436D01*
X102985000Y-39022484D01*
X102985000Y-39229516D01*
X102944611Y-39432564D01*
X102865385Y-39623833D01*
X102865384Y-39623835D01*
X102750365Y-39795973D01*
X102603973Y-39942365D01*
X102431835Y-40057384D01*
X102431834Y-40057385D01*
X102431833Y-40057385D01*
X102240564Y-40136611D01*
X102037516Y-40177000D01*
X101830484Y-40177000D01*
X101627436Y-40136611D01*
X101436167Y-40057385D01*
X101436166Y-40057385D01*
X101436165Y-40057384D01*
X101264027Y-39942365D01*
X101117635Y-39795973D01*
X101002616Y-39623835D01*
X101002615Y-39623833D01*
X100923389Y-39432564D01*
X100883000Y-39229516D01*
X100883000Y-39022484D01*
X100923389Y-38819436D01*
X101002615Y-38628167D01*
X101117635Y-38456027D01*
X101264027Y-38309635D01*
X101436165Y-38194616D01*
X101436167Y-38194615D01*
X101627436Y-38115389D01*
X101830484Y-38075000D01*
X102037516Y-38075000D01*
X102240564Y-38115389D01*
X102240564Y-38115389D01*
G37*
G36*
X83190564Y-38115389D02*
G01*
X83381833Y-38194615D01*
X83381835Y-38194616D01*
X83553973Y-38309635D01*
X83700365Y-38456027D01*
X83815385Y-38628167D01*
X83894611Y-38819436D01*
X83935000Y-39022484D01*
X83935000Y-39229516D01*
X83894611Y-39432564D01*
X83815385Y-39623833D01*
X83815384Y-39623835D01*
X83700365Y-39795973D01*
X83553973Y-39942365D01*
X83381835Y-40057384D01*
X83381834Y-40057385D01*
X83381833Y-40057385D01*
X83190564Y-40136611D01*
X82987516Y-40177000D01*
X82780484Y-40177000D01*
X82577436Y-40136611D01*
X82386167Y-40057385D01*
X82386166Y-40057385D01*
X82386165Y-40057384D01*
X82214027Y-39942365D01*
X82067635Y-39795973D01*
X81952616Y-39623835D01*
X81952615Y-39623833D01*
X81873389Y-39432564D01*
X81833000Y-39229516D01*
X81833000Y-39022484D01*
X81873389Y-38819436D01*
X81952615Y-38628167D01*
X82067635Y-38456027D01*
X82214027Y-38309635D01*
X82386165Y-38194616D01*
X82386167Y-38194615D01*
X82577436Y-38115389D01*
X82780484Y-38075000D01*
X82987516Y-38075000D01*
X83190564Y-38115389D01*
X83190564Y-38115389D01*
G37*
G36*
X74140564Y-38115389D02*
G01*
X74331833Y-38194615D01*
X74331835Y-38194616D01*
X74503973Y-38309635D01*
X74650365Y-38456027D01*
X74765385Y-38628167D01*
X74844611Y-38819436D01*
X74885000Y-39022484D01*
X74885000Y-39229516D01*
X74844611Y-39432564D01*
X74765385Y-39623833D01*
X74765384Y-39623835D01*
X74650365Y-39795973D01*
X74503973Y-39942365D01*
X74331835Y-40057384D01*
X74331834Y-40057385D01*
X74331833Y-40057385D01*
X74140564Y-40136611D01*
X73937516Y-40177000D01*
X73730484Y-40177000D01*
X73527436Y-40136611D01*
X73336167Y-40057385D01*
X73336166Y-40057385D01*
X73336165Y-40057384D01*
X73164027Y-39942365D01*
X73017635Y-39795973D01*
X72902616Y-39623835D01*
X72902615Y-39623833D01*
X72823389Y-39432564D01*
X72783000Y-39229516D01*
X72783000Y-39022484D01*
X72823389Y-38819436D01*
X72902615Y-38628167D01*
X73017635Y-38456027D01*
X73164027Y-38309635D01*
X73336165Y-38194616D01*
X73336167Y-38194615D01*
X73527436Y-38115389D01*
X73730484Y-38075000D01*
X73937516Y-38075000D01*
X74140564Y-38115389D01*
X74140564Y-38115389D01*
G37*
G36*
X64140564Y-38115389D02*
G01*
X64331833Y-38194615D01*
X64331835Y-38194616D01*
X64503973Y-38309635D01*
X64650365Y-38456027D01*
X64765385Y-38628167D01*
X64844611Y-38819436D01*
X64885000Y-39022484D01*
X64885000Y-39229516D01*
X64844611Y-39432564D01*
X64765385Y-39623833D01*
X64765384Y-39623835D01*
X64650365Y-39795973D01*
X64503973Y-39942365D01*
X64331835Y-40057384D01*
X64331834Y-40057385D01*
X64331833Y-40057385D01*
X64140564Y-40136611D01*
X63937516Y-40177000D01*
X63730484Y-40177000D01*
X63527436Y-40136611D01*
X63336167Y-40057385D01*
X63336166Y-40057385D01*
X63336165Y-40057384D01*
X63164027Y-39942365D01*
X63017635Y-39795973D01*
X62902616Y-39623835D01*
X62902615Y-39623833D01*
X62823389Y-39432564D01*
X62783000Y-39229516D01*
X62783000Y-39022484D01*
X62823389Y-38819436D01*
X62902615Y-38628167D01*
X63017635Y-38456027D01*
X63164027Y-38309635D01*
X63336165Y-38194616D01*
X63336167Y-38194615D01*
X63527436Y-38115389D01*
X63730484Y-38075000D01*
X63937516Y-38075000D01*
X64140564Y-38115389D01*
X64140564Y-38115389D01*
G37*
G36*
X45090564Y-38115389D02*
G01*
X45281833Y-38194615D01*
X45281835Y-38194616D01*
X45453973Y-38309635D01*
X45600365Y-38456027D01*
X45715385Y-38628167D01*
X45794611Y-38819436D01*
X45835000Y-39022484D01*
X45835000Y-39229516D01*
X45794611Y-39432564D01*
X45715385Y-39623833D01*
X45715384Y-39623835D01*
X45600365Y-39795973D01*
X45453973Y-39942365D01*
X45281835Y-40057384D01*
X45281834Y-40057385D01*
X45281833Y-40057385D01*
X45090564Y-40136611D01*
X44887516Y-40177000D01*
X44680484Y-40177000D01*
X44477436Y-40136611D01*
X44286167Y-40057385D01*
X44286166Y-40057385D01*
X44286165Y-40057384D01*
X44114027Y-39942365D01*
X43967635Y-39795973D01*
X43852616Y-39623835D01*
X43852615Y-39623833D01*
X43773389Y-39432564D01*
X43733000Y-39229516D01*
X43733000Y-39022484D01*
X43773389Y-38819436D01*
X43852615Y-38628167D01*
X43967635Y-38456027D01*
X44114027Y-38309635D01*
X44286165Y-38194616D01*
X44286167Y-38194615D01*
X44477436Y-38115389D01*
X44680484Y-38075000D01*
X44887516Y-38075000D01*
X45090564Y-38115389D01*
X45090564Y-38115389D01*
G37*
G36*
X55090564Y-38115389D02*
G01*
X55281833Y-38194615D01*
X55281835Y-38194616D01*
X55453973Y-38309635D01*
X55600365Y-38456027D01*
X55715385Y-38628167D01*
X55794611Y-38819436D01*
X55835000Y-39022484D01*
X55835000Y-39229516D01*
X55794611Y-39432564D01*
X55715385Y-39623833D01*
X55715384Y-39623835D01*
X55600365Y-39795973D01*
X55453973Y-39942365D01*
X55281835Y-40057384D01*
X55281834Y-40057385D01*
X55281833Y-40057385D01*
X55090564Y-40136611D01*
X54887516Y-40177000D01*
X54680484Y-40177000D01*
X54477436Y-40136611D01*
X54286167Y-40057385D01*
X54286166Y-40057385D01*
X54286165Y-40057384D01*
X54114027Y-39942365D01*
X53967635Y-39795973D01*
X53852616Y-39623835D01*
X53852615Y-39623833D01*
X53773389Y-39432564D01*
X53733000Y-39229516D01*
X53733000Y-39022484D01*
X53773389Y-38819436D01*
X53852615Y-38628167D01*
X53967635Y-38456027D01*
X54114027Y-38309635D01*
X54286165Y-38194616D01*
X54286167Y-38194615D01*
X54477436Y-38115389D01*
X54680484Y-38075000D01*
X54887516Y-38075000D01*
X55090564Y-38115389D01*
X55090564Y-38115389D01*
G37*
G36*
X93190564Y-38115389D02*
G01*
X93381833Y-38194615D01*
X93381835Y-38194616D01*
X93553973Y-38309635D01*
X93700365Y-38456027D01*
X93815385Y-38628167D01*
X93894611Y-38819436D01*
X93935000Y-39022484D01*
X93935000Y-39229516D01*
X93894611Y-39432564D01*
X93815385Y-39623833D01*
X93815384Y-39623835D01*
X93700365Y-39795973D01*
X93553973Y-39942365D01*
X93381835Y-40057384D01*
X93381834Y-40057385D01*
X93381833Y-40057385D01*
X93190564Y-40136611D01*
X92987516Y-40177000D01*
X92780484Y-40177000D01*
X92577436Y-40136611D01*
X92386167Y-40057385D01*
X92386166Y-40057385D01*
X92386165Y-40057384D01*
X92214027Y-39942365D01*
X92067635Y-39795973D01*
X91952616Y-39623835D01*
X91952615Y-39623833D01*
X91873389Y-39432564D01*
X91833000Y-39229516D01*
X91833000Y-39022484D01*
X91873389Y-38819436D01*
X91952615Y-38628167D01*
X92067635Y-38456027D01*
X92214027Y-38309635D01*
X92386165Y-38194616D01*
X92386167Y-38194615D01*
X92577436Y-38115389D01*
X92780484Y-38075000D01*
X92987516Y-38075000D01*
X93190564Y-38115389D01*
X93190564Y-38115389D01*
G37*
G36*
X26040564Y-38115389D02*
G01*
X26231833Y-38194615D01*
X26231835Y-38194616D01*
X26403973Y-38309635D01*
X26550365Y-38456027D01*
X26665385Y-38628167D01*
X26744611Y-38819436D01*
X26785000Y-39022484D01*
X26785000Y-39229516D01*
X26744611Y-39432564D01*
X26665385Y-39623833D01*
X26665384Y-39623835D01*
X26550365Y-39795973D01*
X26403973Y-39942365D01*
X26231835Y-40057384D01*
X26231834Y-40057385D01*
X26231833Y-40057385D01*
X26040564Y-40136611D01*
X25837516Y-40177000D01*
X25630484Y-40177000D01*
X25427436Y-40136611D01*
X25236167Y-40057385D01*
X25236166Y-40057385D01*
X25236165Y-40057384D01*
X25064027Y-39942365D01*
X24917635Y-39795973D01*
X24802616Y-39623835D01*
X24802615Y-39623833D01*
X24723389Y-39432564D01*
X24683000Y-39229516D01*
X24683000Y-39022484D01*
X24723389Y-38819436D01*
X24802615Y-38628167D01*
X24917635Y-38456027D01*
X25064027Y-38309635D01*
X25236165Y-38194616D01*
X25236167Y-38194615D01*
X25427436Y-38115389D01*
X25630484Y-38075000D01*
X25837516Y-38075000D01*
X26040564Y-38115389D01*
X26040564Y-38115389D01*
G37*
G36*
X36040564Y-38115389D02*
G01*
X36231833Y-38194615D01*
X36231835Y-38194616D01*
X36403973Y-38309635D01*
X36550365Y-38456027D01*
X36665385Y-38628167D01*
X36744611Y-38819436D01*
X36785000Y-39022484D01*
X36785000Y-39229516D01*
X36744611Y-39432564D01*
X36665385Y-39623833D01*
X36665384Y-39623835D01*
X36550365Y-39795973D01*
X36403973Y-39942365D01*
X36231835Y-40057384D01*
X36231834Y-40057385D01*
X36231833Y-40057385D01*
X36040564Y-40136611D01*
X35837516Y-40177000D01*
X35630484Y-40177000D01*
X35427436Y-40136611D01*
X35236167Y-40057385D01*
X35236166Y-40057385D01*
X35236165Y-40057384D01*
X35064027Y-39942365D01*
X34917635Y-39795973D01*
X34802616Y-39623835D01*
X34802615Y-39623833D01*
X34723389Y-39432564D01*
X34683000Y-39229516D01*
X34683000Y-39022484D01*
X34723389Y-38819436D01*
X34802615Y-38628167D01*
X34917635Y-38456027D01*
X35064027Y-38309635D01*
X35236165Y-38194616D01*
X35236167Y-38194615D01*
X35427436Y-38115389D01*
X35630484Y-38075000D01*
X35837516Y-38075000D01*
X36040564Y-38115389D01*
X36040564Y-38115389D01*
G37*
G36*
X98187000Y-38192000D02*
G01*
X96885000Y-38192000D01*
X96885000Y-36890000D01*
X98187000Y-36890000D01*
X98187000Y-38192000D01*
X98187000Y-38192000D01*
G37*
G36*
X40910000Y-38192000D02*
G01*
X39608000Y-38192000D01*
X39608000Y-36890000D01*
X40910000Y-36890000D01*
X40910000Y-38192000D01*
X40910000Y-38192000D01*
G37*
G36*
X79010000Y-38192000D02*
G01*
X77708000Y-38192000D01*
X77708000Y-36890000D01*
X79010000Y-36890000D01*
X79010000Y-38192000D01*
X79010000Y-38192000D01*
G37*
G36*
X59960000Y-38192000D02*
G01*
X58658000Y-38192000D01*
X58658000Y-36890000D01*
X59960000Y-36890000D01*
X59960000Y-38192000D01*
X59960000Y-38192000D01*
G37*
G36*
X50090564Y-36015389D02*
G01*
X50215164Y-36067000D01*
X50281835Y-36094616D01*
X50453973Y-36209635D01*
X50600365Y-36356027D01*
X50715385Y-36528167D01*
X50794611Y-36719436D01*
X50835000Y-36922484D01*
X50835000Y-37129516D01*
X50794611Y-37332564D01*
X50715385Y-37523833D01*
X50715384Y-37523835D01*
X50600365Y-37695973D01*
X50453973Y-37842365D01*
X50281835Y-37957384D01*
X50281834Y-37957385D01*
X50281833Y-37957385D01*
X50090564Y-38036611D01*
X49887516Y-38077000D01*
X49680484Y-38077000D01*
X49477436Y-38036611D01*
X49286167Y-37957385D01*
X49286166Y-37957385D01*
X49286165Y-37957384D01*
X49114027Y-37842365D01*
X48967635Y-37695973D01*
X48852616Y-37523835D01*
X48852615Y-37523833D01*
X48773389Y-37332564D01*
X48733000Y-37129516D01*
X48733000Y-36922484D01*
X48773389Y-36719436D01*
X48852615Y-36528167D01*
X48967635Y-36356027D01*
X49114027Y-36209635D01*
X49286165Y-36094616D01*
X49352836Y-36067000D01*
X49477436Y-36015389D01*
X49680484Y-35975000D01*
X49887516Y-35975000D01*
X50090564Y-36015389D01*
X50090564Y-36015389D01*
G37*
G36*
X88190564Y-36015389D02*
G01*
X88315164Y-36067000D01*
X88381835Y-36094616D01*
X88553973Y-36209635D01*
X88700365Y-36356027D01*
X88815385Y-36528167D01*
X88894611Y-36719436D01*
X88935000Y-36922484D01*
X88935000Y-37129516D01*
X88894611Y-37332564D01*
X88815385Y-37523833D01*
X88815384Y-37523835D01*
X88700365Y-37695973D01*
X88553973Y-37842365D01*
X88381835Y-37957384D01*
X88381834Y-37957385D01*
X88381833Y-37957385D01*
X88190564Y-38036611D01*
X87987516Y-38077000D01*
X87780484Y-38077000D01*
X87577436Y-38036611D01*
X87386167Y-37957385D01*
X87386166Y-37957385D01*
X87386165Y-37957384D01*
X87214027Y-37842365D01*
X87067635Y-37695973D01*
X86952616Y-37523835D01*
X86952615Y-37523833D01*
X86873389Y-37332564D01*
X86833000Y-37129516D01*
X86833000Y-36922484D01*
X86873389Y-36719436D01*
X86952615Y-36528167D01*
X87067635Y-36356027D01*
X87214027Y-36209635D01*
X87386165Y-36094616D01*
X87452836Y-36067000D01*
X87577436Y-36015389D01*
X87780484Y-35975000D01*
X87987516Y-35975000D01*
X88190564Y-36015389D01*
X88190564Y-36015389D01*
G37*
G36*
X107240564Y-36015389D02*
G01*
X107365164Y-36067000D01*
X107431835Y-36094616D01*
X107603973Y-36209635D01*
X107750365Y-36356027D01*
X107865385Y-36528167D01*
X107944611Y-36719436D01*
X107985000Y-36922484D01*
X107985000Y-37129516D01*
X107944611Y-37332564D01*
X107865385Y-37523833D01*
X107865384Y-37523835D01*
X107750365Y-37695973D01*
X107603973Y-37842365D01*
X107431835Y-37957384D01*
X107431834Y-37957385D01*
X107431833Y-37957385D01*
X107240564Y-38036611D01*
X107037516Y-38077000D01*
X106830484Y-38077000D01*
X106627436Y-38036611D01*
X106436167Y-37957385D01*
X106436166Y-37957385D01*
X106436165Y-37957384D01*
X106264027Y-37842365D01*
X106117635Y-37695973D01*
X106002616Y-37523835D01*
X106002615Y-37523833D01*
X105923389Y-37332564D01*
X105883000Y-37129516D01*
X105883000Y-36922484D01*
X105923389Y-36719436D01*
X106002615Y-36528167D01*
X106117635Y-36356027D01*
X106264027Y-36209635D01*
X106436165Y-36094616D01*
X106502836Y-36067000D01*
X106627436Y-36015389D01*
X106830484Y-35975000D01*
X107037516Y-35975000D01*
X107240564Y-36015389D01*
X107240564Y-36015389D01*
G37*
G36*
X31040564Y-36015389D02*
G01*
X31165164Y-36067000D01*
X31231835Y-36094616D01*
X31403973Y-36209635D01*
X31550365Y-36356027D01*
X31665385Y-36528167D01*
X31744611Y-36719436D01*
X31785000Y-36922484D01*
X31785000Y-37129516D01*
X31744611Y-37332564D01*
X31665385Y-37523833D01*
X31665384Y-37523835D01*
X31550365Y-37695973D01*
X31403973Y-37842365D01*
X31231835Y-37957384D01*
X31231834Y-37957385D01*
X31231833Y-37957385D01*
X31040564Y-38036611D01*
X30837516Y-38077000D01*
X30630484Y-38077000D01*
X30427436Y-38036611D01*
X30236167Y-37957385D01*
X30236166Y-37957385D01*
X30236165Y-37957384D01*
X30064027Y-37842365D01*
X29917635Y-37695973D01*
X29802616Y-37523835D01*
X29802615Y-37523833D01*
X29723389Y-37332564D01*
X29683000Y-37129516D01*
X29683000Y-36922484D01*
X29723389Y-36719436D01*
X29802615Y-36528167D01*
X29917635Y-36356027D01*
X30064027Y-36209635D01*
X30236165Y-36094616D01*
X30302836Y-36067000D01*
X30427436Y-36015389D01*
X30630484Y-35975000D01*
X30837516Y-35975000D01*
X31040564Y-36015389D01*
X31040564Y-36015389D01*
G37*
G36*
X69140564Y-36015389D02*
G01*
X69265164Y-36067000D01*
X69331835Y-36094616D01*
X69503973Y-36209635D01*
X69650365Y-36356027D01*
X69765385Y-36528167D01*
X69844611Y-36719436D01*
X69885000Y-36922484D01*
X69885000Y-37129516D01*
X69844611Y-37332564D01*
X69765385Y-37523833D01*
X69765384Y-37523835D01*
X69650365Y-37695973D01*
X69503973Y-37842365D01*
X69331835Y-37957384D01*
X69331834Y-37957385D01*
X69331833Y-37957385D01*
X69140564Y-38036611D01*
X68937516Y-38077000D01*
X68730484Y-38077000D01*
X68527436Y-38036611D01*
X68336167Y-37957385D01*
X68336166Y-37957385D01*
X68336165Y-37957384D01*
X68164027Y-37842365D01*
X68017635Y-37695973D01*
X67902616Y-37523835D01*
X67902615Y-37523833D01*
X67823389Y-37332564D01*
X67783000Y-37129516D01*
X67783000Y-36922484D01*
X67823389Y-36719436D01*
X67902615Y-36528167D01*
X68017635Y-36356027D01*
X68164027Y-36209635D01*
X68336165Y-36094616D01*
X68402836Y-36067000D01*
X68527436Y-36015389D01*
X68730484Y-35975000D01*
X68937516Y-35975000D01*
X69140564Y-36015389D01*
X69140564Y-36015389D01*
G37*
G36*
X59557228Y-34397703D02*
G01*
X59712100Y-34461853D01*
X59851481Y-34554985D01*
X59970015Y-34673519D01*
X60063147Y-34812900D01*
X60127297Y-34967772D01*
X60160000Y-35132184D01*
X60160000Y-35299816D01*
X60127297Y-35464228D01*
X60063147Y-35619100D01*
X59970015Y-35758481D01*
X59851481Y-35877015D01*
X59712100Y-35970147D01*
X59557228Y-36034297D01*
X59392816Y-36067000D01*
X59225184Y-36067000D01*
X59060772Y-36034297D01*
X58905900Y-35970147D01*
X58766519Y-35877015D01*
X58647985Y-35758481D01*
X58554853Y-35619100D01*
X58490703Y-35464228D01*
X58458000Y-35299816D01*
X58458000Y-35132184D01*
X58490703Y-34967772D01*
X58554853Y-34812900D01*
X58647985Y-34673519D01*
X58766519Y-34554985D01*
X58905900Y-34461853D01*
X59060772Y-34397703D01*
X59225184Y-34365000D01*
X59392816Y-34365000D01*
X59557228Y-34397703D01*
X59557228Y-34397703D01*
G37*
G36*
X40507228Y-34397703D02*
G01*
X40662100Y-34461853D01*
X40801481Y-34554985D01*
X40920015Y-34673519D01*
X41013147Y-34812900D01*
X41077297Y-34967772D01*
X41110000Y-35132184D01*
X41110000Y-35299816D01*
X41077297Y-35464228D01*
X41013147Y-35619100D01*
X40920015Y-35758481D01*
X40801481Y-35877015D01*
X40662100Y-35970147D01*
X40507228Y-36034297D01*
X40342816Y-36067000D01*
X40175184Y-36067000D01*
X40010772Y-36034297D01*
X39855900Y-35970147D01*
X39716519Y-35877015D01*
X39597985Y-35758481D01*
X39504853Y-35619100D01*
X39440703Y-35464228D01*
X39408000Y-35299816D01*
X39408000Y-35132184D01*
X39440703Y-34967772D01*
X39504853Y-34812900D01*
X39597985Y-34673519D01*
X39716519Y-34554985D01*
X39855900Y-34461853D01*
X40010772Y-34397703D01*
X40175184Y-34365000D01*
X40342816Y-34365000D01*
X40507228Y-34397703D01*
X40507228Y-34397703D01*
G37*
G36*
X97784228Y-34397703D02*
G01*
X97939100Y-34461853D01*
X98078481Y-34554985D01*
X98197015Y-34673519D01*
X98290147Y-34812900D01*
X98354297Y-34967772D01*
X98387000Y-35132184D01*
X98387000Y-35299816D01*
X98354297Y-35464228D01*
X98290147Y-35619100D01*
X98197015Y-35758481D01*
X98078481Y-35877015D01*
X97939100Y-35970147D01*
X97784228Y-36034297D01*
X97619816Y-36067000D01*
X97452184Y-36067000D01*
X97287772Y-36034297D01*
X97132900Y-35970147D01*
X96993519Y-35877015D01*
X96874985Y-35758481D01*
X96781853Y-35619100D01*
X96717703Y-35464228D01*
X96685000Y-35299816D01*
X96685000Y-35132184D01*
X96717703Y-34967772D01*
X96781853Y-34812900D01*
X96874985Y-34673519D01*
X96993519Y-34554985D01*
X97132900Y-34461853D01*
X97287772Y-34397703D01*
X97452184Y-34365000D01*
X97619816Y-34365000D01*
X97784228Y-34397703D01*
X97784228Y-34397703D01*
G37*
G36*
X78607228Y-34397703D02*
G01*
X78762100Y-34461853D01*
X78901481Y-34554985D01*
X79020015Y-34673519D01*
X79113147Y-34812900D01*
X79177297Y-34967772D01*
X79210000Y-35132184D01*
X79210000Y-35299816D01*
X79177297Y-35464228D01*
X79113147Y-35619100D01*
X79020015Y-35758481D01*
X78901481Y-35877015D01*
X78762100Y-35970147D01*
X78607228Y-36034297D01*
X78442816Y-36067000D01*
X78275184Y-36067000D01*
X78110772Y-36034297D01*
X77955900Y-35970147D01*
X77816519Y-35877015D01*
X77697985Y-35758481D01*
X77604853Y-35619100D01*
X77540703Y-35464228D01*
X77508000Y-35299816D01*
X77508000Y-35132184D01*
X77540703Y-34967772D01*
X77604853Y-34812900D01*
X77697985Y-34673519D01*
X77816519Y-34554985D01*
X77955900Y-34461853D01*
X78110772Y-34397703D01*
X78275184Y-34365000D01*
X78442816Y-34365000D01*
X78607228Y-34397703D01*
X78607228Y-34397703D01*
G37*
G36*
X27685000Y-34252000D02*
G01*
X25983000Y-34252000D01*
X25983000Y-32550000D01*
X27685000Y-32550000D01*
X27685000Y-34252000D01*
X27685000Y-34252000D01*
G37*
G36*
X34882228Y-32582703D02*
G01*
X35037100Y-32646853D01*
X35176481Y-32739985D01*
X35295015Y-32858519D01*
X35388147Y-32997900D01*
X35452297Y-33152772D01*
X35485000Y-33317184D01*
X35485000Y-33484816D01*
X35452297Y-33649228D01*
X35388147Y-33804100D01*
X35295015Y-33943481D01*
X35176481Y-34062015D01*
X35037100Y-34155147D01*
X34882228Y-34219297D01*
X34717816Y-34252000D01*
X34550184Y-34252000D01*
X34385772Y-34219297D01*
X34230900Y-34155147D01*
X34091519Y-34062015D01*
X33972985Y-33943481D01*
X33879853Y-33804100D01*
X33815703Y-33649228D01*
X33783000Y-33484816D01*
X33783000Y-33317184D01*
X33815703Y-33152772D01*
X33879853Y-32997900D01*
X33972985Y-32858519D01*
X34091519Y-32739985D01*
X34230900Y-32646853D01*
X34385772Y-32582703D01*
X34550184Y-32550000D01*
X34717816Y-32550000D01*
X34882228Y-32582703D01*
X34882228Y-32582703D01*
G37*
G36*
X32960000Y-34052000D02*
G01*
X31658000Y-34052000D01*
X31658000Y-32750000D01*
X32960000Y-32750000D01*
X32960000Y-34052000D01*
X32960000Y-34052000D01*
G37*
G36*
X29810000Y-34052000D02*
G01*
X28508000Y-34052000D01*
X28508000Y-32750000D01*
X29810000Y-32750000D01*
X29810000Y-34052000D01*
X29810000Y-34052000D01*
G37*
G36*
X88281985Y-22169860D02*
G01*
X88394748Y-22192290D01*
X88526741Y-22246963D01*
X88713408Y-22324283D01*
X89000196Y-22515909D01*
X89244091Y-22759804D01*
X89435717Y-23046592D01*
X89567710Y-23365253D01*
X89635000Y-23703540D01*
X89635000Y-24048460D01*
X89567710Y-24386747D01*
X89435717Y-24705408D01*
X89244091Y-24992196D01*
X89000196Y-25236091D01*
X88713408Y-25427717D01*
X88526741Y-25505037D01*
X88394748Y-25559710D01*
X88281985Y-25582140D01*
X88056460Y-25627000D01*
X87711540Y-25627000D01*
X87486015Y-25582140D01*
X87373252Y-25559710D01*
X87241259Y-25505037D01*
X87054592Y-25427717D01*
X86767804Y-25236091D01*
X86523909Y-24992196D01*
X86332283Y-24705408D01*
X86200290Y-24386747D01*
X86133000Y-24048460D01*
X86133000Y-23703540D01*
X86200290Y-23365253D01*
X86332283Y-23046592D01*
X86523909Y-22759804D01*
X86767804Y-22515909D01*
X87054592Y-22324283D01*
X87241259Y-22246963D01*
X87373252Y-22192290D01*
X87486015Y-22169860D01*
X87711540Y-22125000D01*
X88056460Y-22125000D01*
X88281985Y-22169860D01*
X88281985Y-22169860D01*
G37*
G36*
X69231985Y-22169860D02*
G01*
X69344748Y-22192290D01*
X69476741Y-22246963D01*
X69663408Y-22324283D01*
X69950196Y-22515909D01*
X70194091Y-22759804D01*
X70385717Y-23046592D01*
X70517710Y-23365253D01*
X70585000Y-23703540D01*
X70585000Y-24048460D01*
X70517710Y-24386747D01*
X70385717Y-24705408D01*
X70194091Y-24992196D01*
X69950196Y-25236091D01*
X69663408Y-25427717D01*
X69476741Y-25505037D01*
X69344748Y-25559710D01*
X69231985Y-25582140D01*
X69006460Y-25627000D01*
X68661540Y-25627000D01*
X68436015Y-25582140D01*
X68323252Y-25559710D01*
X68191259Y-25505037D01*
X68004592Y-25427717D01*
X67717804Y-25236091D01*
X67473909Y-24992196D01*
X67282283Y-24705408D01*
X67150290Y-24386747D01*
X67083000Y-24048460D01*
X67083000Y-23703540D01*
X67150290Y-23365253D01*
X67282283Y-23046592D01*
X67473909Y-22759804D01*
X67717804Y-22515909D01*
X68004592Y-22324283D01*
X68191259Y-22246963D01*
X68323252Y-22192290D01*
X68436015Y-22169860D01*
X68661540Y-22125000D01*
X69006460Y-22125000D01*
X69231985Y-22169860D01*
X69231985Y-22169860D01*
G37*
G36*
X50181985Y-22169860D02*
G01*
X50294748Y-22192290D01*
X50426741Y-22246963D01*
X50613408Y-22324283D01*
X50900196Y-22515909D01*
X51144091Y-22759804D01*
X51335717Y-23046592D01*
X51467710Y-23365253D01*
X51535000Y-23703540D01*
X51535000Y-24048460D01*
X51467710Y-24386747D01*
X51335717Y-24705408D01*
X51144091Y-24992196D01*
X50900196Y-25236091D01*
X50613408Y-25427717D01*
X50426741Y-25505037D01*
X50294748Y-25559710D01*
X50181985Y-25582140D01*
X49956460Y-25627000D01*
X49611540Y-25627000D01*
X49386015Y-25582140D01*
X49273252Y-25559710D01*
X49141259Y-25505037D01*
X48954592Y-25427717D01*
X48667804Y-25236091D01*
X48423909Y-24992196D01*
X48232283Y-24705408D01*
X48100290Y-24386747D01*
X48033000Y-24048460D01*
X48033000Y-23703540D01*
X48100290Y-23365253D01*
X48232283Y-23046592D01*
X48423909Y-22759804D01*
X48667804Y-22515909D01*
X48954592Y-22324283D01*
X49141259Y-22246963D01*
X49273252Y-22192290D01*
X49386015Y-22169860D01*
X49611540Y-22125000D01*
X49956460Y-22125000D01*
X50181985Y-22169860D01*
X50181985Y-22169860D01*
G37*
G36*
X107331985Y-22169860D02*
G01*
X107444748Y-22192290D01*
X107576741Y-22246963D01*
X107763408Y-22324283D01*
X108050196Y-22515909D01*
X108294091Y-22759804D01*
X108485717Y-23046592D01*
X108617710Y-23365253D01*
X108685000Y-23703540D01*
X108685000Y-24048460D01*
X108617710Y-24386747D01*
X108485717Y-24705408D01*
X108294091Y-24992196D01*
X108050196Y-25236091D01*
X107763408Y-25427717D01*
X107576741Y-25505037D01*
X107444748Y-25559710D01*
X107331985Y-25582140D01*
X107106460Y-25627000D01*
X106761540Y-25627000D01*
X106536015Y-25582140D01*
X106423252Y-25559710D01*
X106291259Y-25505037D01*
X106104592Y-25427717D01*
X105817804Y-25236091D01*
X105573909Y-24992196D01*
X105382283Y-24705408D01*
X105250290Y-24386747D01*
X105183000Y-24048460D01*
X105183000Y-23703540D01*
X105250290Y-23365253D01*
X105382283Y-23046592D01*
X105573909Y-22759804D01*
X105817804Y-22515909D01*
X106104592Y-22324283D01*
X106291259Y-22246963D01*
X106423252Y-22192290D01*
X106536015Y-22169860D01*
X106761540Y-22125000D01*
X107106460Y-22125000D01*
X107331985Y-22169860D01*
X107331985Y-22169860D01*
G37*
G36*
X31131985Y-22169860D02*
G01*
X31244748Y-22192290D01*
X31376741Y-22246963D01*
X31563408Y-22324283D01*
X31850196Y-22515909D01*
X32094091Y-22759804D01*
X32285717Y-23046592D01*
X32417710Y-23365253D01*
X32485000Y-23703540D01*
X32485000Y-24048460D01*
X32417710Y-24386747D01*
X32285717Y-24705408D01*
X32094091Y-24992196D01*
X31850196Y-25236091D01*
X31563408Y-25427717D01*
X31376741Y-25505037D01*
X31244748Y-25559710D01*
X31131985Y-25582140D01*
X30906460Y-25627000D01*
X30561540Y-25627000D01*
X30336015Y-25582140D01*
X30223252Y-25559710D01*
X30091259Y-25505037D01*
X29904592Y-25427717D01*
X29617804Y-25236091D01*
X29373909Y-24992196D01*
X29182283Y-24705408D01*
X29050290Y-24386747D01*
X28983000Y-24048460D01*
X28983000Y-23703540D01*
X29050290Y-23365253D01*
X29182283Y-23046592D01*
X29373909Y-22759804D01*
X29617804Y-22515909D01*
X29904592Y-22324283D01*
X30091259Y-22246963D01*
X30223252Y-22192290D01*
X30336015Y-22169860D01*
X30561540Y-22125000D01*
X30906460Y-22125000D01*
X31131985Y-22169860D01*
X31131985Y-22169860D01*
G37*
G36*
X79210000Y-24817000D02*
G01*
X77508000Y-24817000D01*
X77508000Y-23115000D01*
X79210000Y-23115000D01*
X79210000Y-24817000D01*
X79210000Y-24817000D01*
G37*
G36*
X41110000Y-24817000D02*
G01*
X39408000Y-24817000D01*
X39408000Y-23115000D01*
X41110000Y-23115000D01*
X41110000Y-24817000D01*
X41110000Y-24817000D01*
G37*
G36*
X98260000Y-24817000D02*
G01*
X96558000Y-24817000D01*
X96558000Y-23115000D01*
X98260000Y-23115000D01*
X98260000Y-24817000D01*
X98260000Y-24817000D01*
G37*
G36*
X60160000Y-24817000D02*
G01*
X58458000Y-24817000D01*
X58458000Y-23115000D01*
X60160000Y-23115000D01*
X60160000Y-24817000D01*
X60160000Y-24817000D01*
G37*
G36*
X112547512Y-22979927D02*
G01*
X112696812Y-23009624D01*
X112860784Y-23077544D01*
X113008354Y-23176147D01*
X113133853Y-23301646D01*
X113232456Y-23449216D01*
X113300376Y-23613188D01*
X113335000Y-23787259D01*
X113335000Y-23964741D01*
X113300376Y-24138812D01*
X113232456Y-24302784D01*
X113133853Y-24450354D01*
X113008354Y-24575853D01*
X112860784Y-24674456D01*
X112696812Y-24742376D01*
X112547512Y-24772073D01*
X112522742Y-24777000D01*
X112345258Y-24777000D01*
X112320488Y-24772073D01*
X112171188Y-24742376D01*
X112007216Y-24674456D01*
X111859646Y-24575853D01*
X111734147Y-24450354D01*
X111635544Y-24302784D01*
X111567624Y-24138812D01*
X111533000Y-23964741D01*
X111533000Y-23787259D01*
X111567624Y-23613188D01*
X111635544Y-23449216D01*
X111734147Y-23301646D01*
X111859646Y-23176147D01*
X112007216Y-23077544D01*
X112171188Y-23009624D01*
X112320488Y-22979927D01*
X112345258Y-22975000D01*
X112522742Y-22975000D01*
X112547512Y-22979927D01*
X112547512Y-22979927D01*
G37*
G36*
X101547512Y-22979927D02*
G01*
X101696812Y-23009624D01*
X101860784Y-23077544D01*
X102008354Y-23176147D01*
X102133853Y-23301646D01*
X102232456Y-23449216D01*
X102300376Y-23613188D01*
X102335000Y-23787259D01*
X102335000Y-23964741D01*
X102300376Y-24138812D01*
X102232456Y-24302784D01*
X102133853Y-24450354D01*
X102008354Y-24575853D01*
X101860784Y-24674456D01*
X101696812Y-24742376D01*
X101547512Y-24772073D01*
X101522742Y-24777000D01*
X101345258Y-24777000D01*
X101320488Y-24772073D01*
X101171188Y-24742376D01*
X101007216Y-24674456D01*
X100859646Y-24575853D01*
X100734147Y-24450354D01*
X100635544Y-24302784D01*
X100567624Y-24138812D01*
X100533000Y-23964741D01*
X100533000Y-23787259D01*
X100567624Y-23613188D01*
X100635544Y-23449216D01*
X100734147Y-23301646D01*
X100859646Y-23176147D01*
X101007216Y-23077544D01*
X101171188Y-23009624D01*
X101320488Y-22979927D01*
X101345258Y-22975000D01*
X101522742Y-22975000D01*
X101547512Y-22979927D01*
X101547512Y-22979927D01*
G37*
G36*
X93497512Y-22979927D02*
G01*
X93646812Y-23009624D01*
X93810784Y-23077544D01*
X93958354Y-23176147D01*
X94083853Y-23301646D01*
X94182456Y-23449216D01*
X94250376Y-23613188D01*
X94285000Y-23787259D01*
X94285000Y-23964741D01*
X94250376Y-24138812D01*
X94182456Y-24302784D01*
X94083853Y-24450354D01*
X93958354Y-24575853D01*
X93810784Y-24674456D01*
X93646812Y-24742376D01*
X93497512Y-24772073D01*
X93472742Y-24777000D01*
X93295258Y-24777000D01*
X93270488Y-24772073D01*
X93121188Y-24742376D01*
X92957216Y-24674456D01*
X92809646Y-24575853D01*
X92684147Y-24450354D01*
X92585544Y-24302784D01*
X92517624Y-24138812D01*
X92483000Y-23964741D01*
X92483000Y-23787259D01*
X92517624Y-23613188D01*
X92585544Y-23449216D01*
X92684147Y-23301646D01*
X92809646Y-23176147D01*
X92957216Y-23077544D01*
X93121188Y-23009624D01*
X93270488Y-22979927D01*
X93295258Y-22975000D01*
X93472742Y-22975000D01*
X93497512Y-22979927D01*
X93497512Y-22979927D01*
G37*
G36*
X36347512Y-22979927D02*
G01*
X36496812Y-23009624D01*
X36660784Y-23077544D01*
X36808354Y-23176147D01*
X36933853Y-23301646D01*
X37032456Y-23449216D01*
X37100376Y-23613188D01*
X37135000Y-23787259D01*
X37135000Y-23964741D01*
X37100376Y-24138812D01*
X37032456Y-24302784D01*
X36933853Y-24450354D01*
X36808354Y-24575853D01*
X36660784Y-24674456D01*
X36496812Y-24742376D01*
X36347512Y-24772073D01*
X36322742Y-24777000D01*
X36145258Y-24777000D01*
X36120488Y-24772073D01*
X35971188Y-24742376D01*
X35807216Y-24674456D01*
X35659646Y-24575853D01*
X35534147Y-24450354D01*
X35435544Y-24302784D01*
X35367624Y-24138812D01*
X35333000Y-23964741D01*
X35333000Y-23787259D01*
X35367624Y-23613188D01*
X35435544Y-23449216D01*
X35534147Y-23301646D01*
X35659646Y-23176147D01*
X35807216Y-23077544D01*
X35971188Y-23009624D01*
X36120488Y-22979927D01*
X36145258Y-22975000D01*
X36322742Y-22975000D01*
X36347512Y-22979927D01*
X36347512Y-22979927D01*
G37*
G36*
X82497512Y-22979927D02*
G01*
X82646812Y-23009624D01*
X82810784Y-23077544D01*
X82958354Y-23176147D01*
X83083853Y-23301646D01*
X83182456Y-23449216D01*
X83250376Y-23613188D01*
X83285000Y-23787259D01*
X83285000Y-23964741D01*
X83250376Y-24138812D01*
X83182456Y-24302784D01*
X83083853Y-24450354D01*
X82958354Y-24575853D01*
X82810784Y-24674456D01*
X82646812Y-24742376D01*
X82497512Y-24772073D01*
X82472742Y-24777000D01*
X82295258Y-24777000D01*
X82270488Y-24772073D01*
X82121188Y-24742376D01*
X81957216Y-24674456D01*
X81809646Y-24575853D01*
X81684147Y-24450354D01*
X81585544Y-24302784D01*
X81517624Y-24138812D01*
X81483000Y-23964741D01*
X81483000Y-23787259D01*
X81517624Y-23613188D01*
X81585544Y-23449216D01*
X81684147Y-23301646D01*
X81809646Y-23176147D01*
X81957216Y-23077544D01*
X82121188Y-23009624D01*
X82270488Y-22979927D01*
X82295258Y-22975000D01*
X82472742Y-22975000D01*
X82497512Y-22979927D01*
X82497512Y-22979927D01*
G37*
G36*
X44397512Y-22979927D02*
G01*
X44546812Y-23009624D01*
X44710784Y-23077544D01*
X44858354Y-23176147D01*
X44983853Y-23301646D01*
X45082456Y-23449216D01*
X45150376Y-23613188D01*
X45185000Y-23787259D01*
X45185000Y-23964741D01*
X45150376Y-24138812D01*
X45082456Y-24302784D01*
X44983853Y-24450354D01*
X44858354Y-24575853D01*
X44710784Y-24674456D01*
X44546812Y-24742376D01*
X44397512Y-24772073D01*
X44372742Y-24777000D01*
X44195258Y-24777000D01*
X44170488Y-24772073D01*
X44021188Y-24742376D01*
X43857216Y-24674456D01*
X43709646Y-24575853D01*
X43584147Y-24450354D01*
X43485544Y-24302784D01*
X43417624Y-24138812D01*
X43383000Y-23964741D01*
X43383000Y-23787259D01*
X43417624Y-23613188D01*
X43485544Y-23449216D01*
X43584147Y-23301646D01*
X43709646Y-23176147D01*
X43857216Y-23077544D01*
X44021188Y-23009624D01*
X44170488Y-22979927D01*
X44195258Y-22975000D01*
X44372742Y-22975000D01*
X44397512Y-22979927D01*
X44397512Y-22979927D01*
G37*
G36*
X55397512Y-22979927D02*
G01*
X55546812Y-23009624D01*
X55710784Y-23077544D01*
X55858354Y-23176147D01*
X55983853Y-23301646D01*
X56082456Y-23449216D01*
X56150376Y-23613188D01*
X56185000Y-23787259D01*
X56185000Y-23964741D01*
X56150376Y-24138812D01*
X56082456Y-24302784D01*
X55983853Y-24450354D01*
X55858354Y-24575853D01*
X55710784Y-24674456D01*
X55546812Y-24742376D01*
X55397512Y-24772073D01*
X55372742Y-24777000D01*
X55195258Y-24777000D01*
X55170488Y-24772073D01*
X55021188Y-24742376D01*
X54857216Y-24674456D01*
X54709646Y-24575853D01*
X54584147Y-24450354D01*
X54485544Y-24302784D01*
X54417624Y-24138812D01*
X54383000Y-23964741D01*
X54383000Y-23787259D01*
X54417624Y-23613188D01*
X54485544Y-23449216D01*
X54584147Y-23301646D01*
X54709646Y-23176147D01*
X54857216Y-23077544D01*
X55021188Y-23009624D01*
X55170488Y-22979927D01*
X55195258Y-22975000D01*
X55372742Y-22975000D01*
X55397512Y-22979927D01*
X55397512Y-22979927D01*
G37*
G36*
X63447512Y-22979927D02*
G01*
X63596812Y-23009624D01*
X63760784Y-23077544D01*
X63908354Y-23176147D01*
X64033853Y-23301646D01*
X64132456Y-23449216D01*
X64200376Y-23613188D01*
X64235000Y-23787259D01*
X64235000Y-23964741D01*
X64200376Y-24138812D01*
X64132456Y-24302784D01*
X64033853Y-24450354D01*
X63908354Y-24575853D01*
X63760784Y-24674456D01*
X63596812Y-24742376D01*
X63447512Y-24772073D01*
X63422742Y-24777000D01*
X63245258Y-24777000D01*
X63220488Y-24772073D01*
X63071188Y-24742376D01*
X62907216Y-24674456D01*
X62759646Y-24575853D01*
X62634147Y-24450354D01*
X62535544Y-24302784D01*
X62467624Y-24138812D01*
X62433000Y-23964741D01*
X62433000Y-23787259D01*
X62467624Y-23613188D01*
X62535544Y-23449216D01*
X62634147Y-23301646D01*
X62759646Y-23176147D01*
X62907216Y-23077544D01*
X63071188Y-23009624D01*
X63220488Y-22979927D01*
X63245258Y-22975000D01*
X63422742Y-22975000D01*
X63447512Y-22979927D01*
X63447512Y-22979927D01*
G37*
G36*
X25347512Y-22979927D02*
G01*
X25496812Y-23009624D01*
X25660784Y-23077544D01*
X25808354Y-23176147D01*
X25933853Y-23301646D01*
X26032456Y-23449216D01*
X26100376Y-23613188D01*
X26135000Y-23787259D01*
X26135000Y-23964741D01*
X26100376Y-24138812D01*
X26032456Y-24302784D01*
X25933853Y-24450354D01*
X25808354Y-24575853D01*
X25660784Y-24674456D01*
X25496812Y-24742376D01*
X25347512Y-24772073D01*
X25322742Y-24777000D01*
X25145258Y-24777000D01*
X25120488Y-24772073D01*
X24971188Y-24742376D01*
X24807216Y-24674456D01*
X24659646Y-24575853D01*
X24534147Y-24450354D01*
X24435544Y-24302784D01*
X24367624Y-24138812D01*
X24333000Y-23964741D01*
X24333000Y-23787259D01*
X24367624Y-23613188D01*
X24435544Y-23449216D01*
X24534147Y-23301646D01*
X24659646Y-23176147D01*
X24807216Y-23077544D01*
X24971188Y-23009624D01*
X25120488Y-22979927D01*
X25145258Y-22975000D01*
X25322742Y-22975000D01*
X25347512Y-22979927D01*
X25347512Y-22979927D01*
G37*
G36*
X74447512Y-22979927D02*
G01*
X74596812Y-23009624D01*
X74760784Y-23077544D01*
X74908354Y-23176147D01*
X75033853Y-23301646D01*
X75132456Y-23449216D01*
X75200376Y-23613188D01*
X75235000Y-23787259D01*
X75235000Y-23964741D01*
X75200376Y-24138812D01*
X75132456Y-24302784D01*
X75033853Y-24450354D01*
X74908354Y-24575853D01*
X74760784Y-24674456D01*
X74596812Y-24742376D01*
X74447512Y-24772073D01*
X74422742Y-24777000D01*
X74245258Y-24777000D01*
X74220488Y-24772073D01*
X74071188Y-24742376D01*
X73907216Y-24674456D01*
X73759646Y-24575853D01*
X73634147Y-24450354D01*
X73535544Y-24302784D01*
X73467624Y-24138812D01*
X73433000Y-23964741D01*
X73433000Y-23787259D01*
X73467624Y-23613188D01*
X73535544Y-23449216D01*
X73634147Y-23301646D01*
X73759646Y-23176147D01*
X73907216Y-23077544D01*
X74071188Y-23009624D01*
X74220488Y-22979927D01*
X74245258Y-22975000D01*
X74422742Y-22975000D01*
X74447512Y-22979927D01*
X74447512Y-22979927D01*
G37*
G36*
X59960000Y-22292000D02*
G01*
X58658000Y-22292000D01*
X58658000Y-20990000D01*
X59960000Y-20990000D01*
X59960000Y-22292000D01*
X59960000Y-22292000D01*
G37*
G36*
X98060000Y-22292000D02*
G01*
X96758000Y-22292000D01*
X96758000Y-20990000D01*
X98060000Y-20990000D01*
X98060000Y-22292000D01*
X98060000Y-22292000D01*
G37*
G36*
X40910000Y-22292000D02*
G01*
X39608000Y-22292000D01*
X39608000Y-20990000D01*
X40910000Y-20990000D01*
X40910000Y-22292000D01*
X40910000Y-22292000D01*
G37*
G36*
X79010000Y-22292000D02*
G01*
X77708000Y-22292000D01*
X77708000Y-20990000D01*
X79010000Y-20990000D01*
X79010000Y-22292000D01*
X79010000Y-22292000D01*
G37*
G36*
X102240564Y-19065389D02*
G01*
X102431833Y-19144615D01*
X102431835Y-19144616D01*
X102603973Y-19259635D01*
X102750365Y-19406027D01*
X102865385Y-19578167D01*
X102944611Y-19769436D01*
X102985000Y-19972484D01*
X102985000Y-20179516D01*
X102944611Y-20382564D01*
X102865385Y-20573833D01*
X102865384Y-20573835D01*
X102750365Y-20745973D01*
X102603973Y-20892365D01*
X102431835Y-21007384D01*
X102431834Y-21007385D01*
X102431833Y-21007385D01*
X102240564Y-21086611D01*
X102037516Y-21127000D01*
X101830484Y-21127000D01*
X101627436Y-21086611D01*
X101436167Y-21007385D01*
X101436166Y-21007385D01*
X101436165Y-21007384D01*
X101264027Y-20892365D01*
X101117635Y-20745973D01*
X101002616Y-20573835D01*
X101002615Y-20573833D01*
X100923389Y-20382564D01*
X100883000Y-20179516D01*
X100883000Y-19972484D01*
X100923389Y-19769436D01*
X101002615Y-19578167D01*
X101117635Y-19406027D01*
X101264027Y-19259635D01*
X101436165Y-19144616D01*
X101436167Y-19144615D01*
X101627436Y-19065389D01*
X101830484Y-19025000D01*
X102037516Y-19025000D01*
X102240564Y-19065389D01*
X102240564Y-19065389D01*
G37*
G36*
X93190564Y-19065389D02*
G01*
X93381833Y-19144615D01*
X93381835Y-19144616D01*
X93553973Y-19259635D01*
X93700365Y-19406027D01*
X93815385Y-19578167D01*
X93894611Y-19769436D01*
X93935000Y-19972484D01*
X93935000Y-20179516D01*
X93894611Y-20382564D01*
X93815385Y-20573833D01*
X93815384Y-20573835D01*
X93700365Y-20745973D01*
X93553973Y-20892365D01*
X93381835Y-21007384D01*
X93381834Y-21007385D01*
X93381833Y-21007385D01*
X93190564Y-21086611D01*
X92987516Y-21127000D01*
X92780484Y-21127000D01*
X92577436Y-21086611D01*
X92386167Y-21007385D01*
X92386166Y-21007385D01*
X92386165Y-21007384D01*
X92214027Y-20892365D01*
X92067635Y-20745973D01*
X91952616Y-20573835D01*
X91952615Y-20573833D01*
X91873389Y-20382564D01*
X91833000Y-20179516D01*
X91833000Y-19972484D01*
X91873389Y-19769436D01*
X91952615Y-19578167D01*
X92067635Y-19406027D01*
X92214027Y-19259635D01*
X92386165Y-19144616D01*
X92386167Y-19144615D01*
X92577436Y-19065389D01*
X92780484Y-19025000D01*
X92987516Y-19025000D01*
X93190564Y-19065389D01*
X93190564Y-19065389D01*
G37*
G36*
X112240564Y-19065389D02*
G01*
X112431833Y-19144615D01*
X112431835Y-19144616D01*
X112603973Y-19259635D01*
X112750365Y-19406027D01*
X112865385Y-19578167D01*
X112944611Y-19769436D01*
X112985000Y-19972484D01*
X112985000Y-20179516D01*
X112944611Y-20382564D01*
X112865385Y-20573833D01*
X112865384Y-20573835D01*
X112750365Y-20745973D01*
X112603973Y-20892365D01*
X112431835Y-21007384D01*
X112431834Y-21007385D01*
X112431833Y-21007385D01*
X112240564Y-21086611D01*
X112037516Y-21127000D01*
X111830484Y-21127000D01*
X111627436Y-21086611D01*
X111436167Y-21007385D01*
X111436166Y-21007385D01*
X111436165Y-21007384D01*
X111264027Y-20892365D01*
X111117635Y-20745973D01*
X111002616Y-20573835D01*
X111002615Y-20573833D01*
X110923389Y-20382564D01*
X110883000Y-20179516D01*
X110883000Y-19972484D01*
X110923389Y-19769436D01*
X111002615Y-19578167D01*
X111117635Y-19406027D01*
X111264027Y-19259635D01*
X111436165Y-19144616D01*
X111436167Y-19144615D01*
X111627436Y-19065389D01*
X111830484Y-19025000D01*
X112037516Y-19025000D01*
X112240564Y-19065389D01*
X112240564Y-19065389D01*
G37*
G36*
X83190564Y-19065389D02*
G01*
X83381833Y-19144615D01*
X83381835Y-19144616D01*
X83553973Y-19259635D01*
X83700365Y-19406027D01*
X83815385Y-19578167D01*
X83894611Y-19769436D01*
X83935000Y-19972484D01*
X83935000Y-20179516D01*
X83894611Y-20382564D01*
X83815385Y-20573833D01*
X83815384Y-20573835D01*
X83700365Y-20745973D01*
X83553973Y-20892365D01*
X83381835Y-21007384D01*
X83381834Y-21007385D01*
X83381833Y-21007385D01*
X83190564Y-21086611D01*
X82987516Y-21127000D01*
X82780484Y-21127000D01*
X82577436Y-21086611D01*
X82386167Y-21007385D01*
X82386166Y-21007385D01*
X82386165Y-21007384D01*
X82214027Y-20892365D01*
X82067635Y-20745973D01*
X81952616Y-20573835D01*
X81952615Y-20573833D01*
X81873389Y-20382564D01*
X81833000Y-20179516D01*
X81833000Y-19972484D01*
X81873389Y-19769436D01*
X81952615Y-19578167D01*
X82067635Y-19406027D01*
X82214027Y-19259635D01*
X82386165Y-19144616D01*
X82386167Y-19144615D01*
X82577436Y-19065389D01*
X82780484Y-19025000D01*
X82987516Y-19025000D01*
X83190564Y-19065389D01*
X83190564Y-19065389D01*
G37*
G36*
X74140564Y-19065389D02*
G01*
X74331833Y-19144615D01*
X74331835Y-19144616D01*
X74503973Y-19259635D01*
X74650365Y-19406027D01*
X74765385Y-19578167D01*
X74844611Y-19769436D01*
X74885000Y-19972484D01*
X74885000Y-20179516D01*
X74844611Y-20382564D01*
X74765385Y-20573833D01*
X74765384Y-20573835D01*
X74650365Y-20745973D01*
X74503973Y-20892365D01*
X74331835Y-21007384D01*
X74331834Y-21007385D01*
X74331833Y-21007385D01*
X74140564Y-21086611D01*
X73937516Y-21127000D01*
X73730484Y-21127000D01*
X73527436Y-21086611D01*
X73336167Y-21007385D01*
X73336166Y-21007385D01*
X73336165Y-21007384D01*
X73164027Y-20892365D01*
X73017635Y-20745973D01*
X72902616Y-20573835D01*
X72902615Y-20573833D01*
X72823389Y-20382564D01*
X72783000Y-20179516D01*
X72783000Y-19972484D01*
X72823389Y-19769436D01*
X72902615Y-19578167D01*
X73017635Y-19406027D01*
X73164027Y-19259635D01*
X73336165Y-19144616D01*
X73336167Y-19144615D01*
X73527436Y-19065389D01*
X73730484Y-19025000D01*
X73937516Y-19025000D01*
X74140564Y-19065389D01*
X74140564Y-19065389D01*
G37*
G36*
X26040564Y-19065389D02*
G01*
X26231833Y-19144615D01*
X26231835Y-19144616D01*
X26403973Y-19259635D01*
X26550365Y-19406027D01*
X26665385Y-19578167D01*
X26744611Y-19769436D01*
X26785000Y-19972484D01*
X26785000Y-20179516D01*
X26744611Y-20382564D01*
X26665385Y-20573833D01*
X26665384Y-20573835D01*
X26550365Y-20745973D01*
X26403973Y-20892365D01*
X26231835Y-21007384D01*
X26231834Y-21007385D01*
X26231833Y-21007385D01*
X26040564Y-21086611D01*
X25837516Y-21127000D01*
X25630484Y-21127000D01*
X25427436Y-21086611D01*
X25236167Y-21007385D01*
X25236166Y-21007385D01*
X25236165Y-21007384D01*
X25064027Y-20892365D01*
X24917635Y-20745973D01*
X24802616Y-20573835D01*
X24802615Y-20573833D01*
X24723389Y-20382564D01*
X24683000Y-20179516D01*
X24683000Y-19972484D01*
X24723389Y-19769436D01*
X24802615Y-19578167D01*
X24917635Y-19406027D01*
X25064027Y-19259635D01*
X25236165Y-19144616D01*
X25236167Y-19144615D01*
X25427436Y-19065389D01*
X25630484Y-19025000D01*
X25837516Y-19025000D01*
X26040564Y-19065389D01*
X26040564Y-19065389D01*
G37*
G36*
X45090564Y-19065389D02*
G01*
X45281833Y-19144615D01*
X45281835Y-19144616D01*
X45453973Y-19259635D01*
X45600365Y-19406027D01*
X45715385Y-19578167D01*
X45794611Y-19769436D01*
X45835000Y-19972484D01*
X45835000Y-20179516D01*
X45794611Y-20382564D01*
X45715385Y-20573833D01*
X45715384Y-20573835D01*
X45600365Y-20745973D01*
X45453973Y-20892365D01*
X45281835Y-21007384D01*
X45281834Y-21007385D01*
X45281833Y-21007385D01*
X45090564Y-21086611D01*
X44887516Y-21127000D01*
X44680484Y-21127000D01*
X44477436Y-21086611D01*
X44286167Y-21007385D01*
X44286166Y-21007385D01*
X44286165Y-21007384D01*
X44114027Y-20892365D01*
X43967635Y-20745973D01*
X43852616Y-20573835D01*
X43852615Y-20573833D01*
X43773389Y-20382564D01*
X43733000Y-20179516D01*
X43733000Y-19972484D01*
X43773389Y-19769436D01*
X43852615Y-19578167D01*
X43967635Y-19406027D01*
X44114027Y-19259635D01*
X44286165Y-19144616D01*
X44286167Y-19144615D01*
X44477436Y-19065389D01*
X44680484Y-19025000D01*
X44887516Y-19025000D01*
X45090564Y-19065389D01*
X45090564Y-19065389D01*
G37*
G36*
X36040564Y-19065389D02*
G01*
X36231833Y-19144615D01*
X36231835Y-19144616D01*
X36403973Y-19259635D01*
X36550365Y-19406027D01*
X36665385Y-19578167D01*
X36744611Y-19769436D01*
X36785000Y-19972484D01*
X36785000Y-20179516D01*
X36744611Y-20382564D01*
X36665385Y-20573833D01*
X36665384Y-20573835D01*
X36550365Y-20745973D01*
X36403973Y-20892365D01*
X36231835Y-21007384D01*
X36231834Y-21007385D01*
X36231833Y-21007385D01*
X36040564Y-21086611D01*
X35837516Y-21127000D01*
X35630484Y-21127000D01*
X35427436Y-21086611D01*
X35236167Y-21007385D01*
X35236166Y-21007385D01*
X35236165Y-21007384D01*
X35064027Y-20892365D01*
X34917635Y-20745973D01*
X34802616Y-20573835D01*
X34802615Y-20573833D01*
X34723389Y-20382564D01*
X34683000Y-20179516D01*
X34683000Y-19972484D01*
X34723389Y-19769436D01*
X34802615Y-19578167D01*
X34917635Y-19406027D01*
X35064027Y-19259635D01*
X35236165Y-19144616D01*
X35236167Y-19144615D01*
X35427436Y-19065389D01*
X35630484Y-19025000D01*
X35837516Y-19025000D01*
X36040564Y-19065389D01*
X36040564Y-19065389D01*
G37*
G36*
X55090564Y-19065389D02*
G01*
X55281833Y-19144615D01*
X55281835Y-19144616D01*
X55453973Y-19259635D01*
X55600365Y-19406027D01*
X55715385Y-19578167D01*
X55794611Y-19769436D01*
X55835000Y-19972484D01*
X55835000Y-20179516D01*
X55794611Y-20382564D01*
X55715385Y-20573833D01*
X55715384Y-20573835D01*
X55600365Y-20745973D01*
X55453973Y-20892365D01*
X55281835Y-21007384D01*
X55281834Y-21007385D01*
X55281833Y-21007385D01*
X55090564Y-21086611D01*
X54887516Y-21127000D01*
X54680484Y-21127000D01*
X54477436Y-21086611D01*
X54286167Y-21007385D01*
X54286166Y-21007385D01*
X54286165Y-21007384D01*
X54114027Y-20892365D01*
X53967635Y-20745973D01*
X53852616Y-20573835D01*
X53852615Y-20573833D01*
X53773389Y-20382564D01*
X53733000Y-20179516D01*
X53733000Y-19972484D01*
X53773389Y-19769436D01*
X53852615Y-19578167D01*
X53967635Y-19406027D01*
X54114027Y-19259635D01*
X54286165Y-19144616D01*
X54286167Y-19144615D01*
X54477436Y-19065389D01*
X54680484Y-19025000D01*
X54887516Y-19025000D01*
X55090564Y-19065389D01*
X55090564Y-19065389D01*
G37*
G36*
X64140564Y-19065389D02*
G01*
X64331833Y-19144615D01*
X64331835Y-19144616D01*
X64503973Y-19259635D01*
X64650365Y-19406027D01*
X64765385Y-19578167D01*
X64844611Y-19769436D01*
X64885000Y-19972484D01*
X64885000Y-20179516D01*
X64844611Y-20382564D01*
X64765385Y-20573833D01*
X64765384Y-20573835D01*
X64650365Y-20745973D01*
X64503973Y-20892365D01*
X64331835Y-21007384D01*
X64331834Y-21007385D01*
X64331833Y-21007385D01*
X64140564Y-21086611D01*
X63937516Y-21127000D01*
X63730484Y-21127000D01*
X63527436Y-21086611D01*
X63336167Y-21007385D01*
X63336166Y-21007385D01*
X63336165Y-21007384D01*
X63164027Y-20892365D01*
X63017635Y-20745973D01*
X62902616Y-20573835D01*
X62902615Y-20573833D01*
X62823389Y-20382564D01*
X62783000Y-20179516D01*
X62783000Y-19972484D01*
X62823389Y-19769436D01*
X62902615Y-19578167D01*
X63017635Y-19406027D01*
X63164027Y-19259635D01*
X63336165Y-19144616D01*
X63336167Y-19144615D01*
X63527436Y-19065389D01*
X63730484Y-19025000D01*
X63937516Y-19025000D01*
X64140564Y-19065389D01*
X64140564Y-19065389D01*
G37*
G36*
X40910000Y-19142000D02*
G01*
X39608000Y-19142000D01*
X39608000Y-17840000D01*
X40910000Y-17840000D01*
X40910000Y-19142000D01*
X40910000Y-19142000D01*
G37*
G36*
X59960000Y-19142000D02*
G01*
X58658000Y-19142000D01*
X58658000Y-17840000D01*
X59960000Y-17840000D01*
X59960000Y-19142000D01*
X59960000Y-19142000D01*
G37*
G36*
X98060000Y-19142000D02*
G01*
X96758000Y-19142000D01*
X96758000Y-17840000D01*
X98060000Y-17840000D01*
X98060000Y-19142000D01*
X98060000Y-19142000D01*
G37*
G36*
X79010000Y-19142000D02*
G01*
X77708000Y-19142000D01*
X77708000Y-17840000D01*
X79010000Y-17840000D01*
X79010000Y-19142000D01*
X79010000Y-19142000D01*
G37*
G36*
X50090564Y-16965389D02*
G01*
X50215164Y-17017000D01*
X50281835Y-17044616D01*
X50453973Y-17159635D01*
X50600365Y-17306027D01*
X50715385Y-17478167D01*
X50794611Y-17669436D01*
X50835000Y-17872484D01*
X50835000Y-18079516D01*
X50794611Y-18282564D01*
X50715385Y-18473833D01*
X50715384Y-18473835D01*
X50600365Y-18645973D01*
X50453973Y-18792365D01*
X50281835Y-18907384D01*
X50281834Y-18907385D01*
X50281833Y-18907385D01*
X50090564Y-18986611D01*
X49887516Y-19027000D01*
X49680484Y-19027000D01*
X49477436Y-18986611D01*
X49286167Y-18907385D01*
X49286166Y-18907385D01*
X49286165Y-18907384D01*
X49114027Y-18792365D01*
X48967635Y-18645973D01*
X48852616Y-18473835D01*
X48852615Y-18473833D01*
X48773389Y-18282564D01*
X48733000Y-18079516D01*
X48733000Y-17872484D01*
X48773389Y-17669436D01*
X48852615Y-17478167D01*
X48967635Y-17306027D01*
X49114027Y-17159635D01*
X49286165Y-17044616D01*
X49352836Y-17017000D01*
X49477436Y-16965389D01*
X49680484Y-16925000D01*
X49887516Y-16925000D01*
X50090564Y-16965389D01*
X50090564Y-16965389D01*
G37*
G36*
X107240564Y-16965389D02*
G01*
X107365164Y-17017000D01*
X107431835Y-17044616D01*
X107603973Y-17159635D01*
X107750365Y-17306027D01*
X107865385Y-17478167D01*
X107944611Y-17669436D01*
X107985000Y-17872484D01*
X107985000Y-18079516D01*
X107944611Y-18282564D01*
X107865385Y-18473833D01*
X107865384Y-18473835D01*
X107750365Y-18645973D01*
X107603973Y-18792365D01*
X107431835Y-18907384D01*
X107431834Y-18907385D01*
X107431833Y-18907385D01*
X107240564Y-18986611D01*
X107037516Y-19027000D01*
X106830484Y-19027000D01*
X106627436Y-18986611D01*
X106436167Y-18907385D01*
X106436166Y-18907385D01*
X106436165Y-18907384D01*
X106264027Y-18792365D01*
X106117635Y-18645973D01*
X106002616Y-18473835D01*
X106002615Y-18473833D01*
X105923389Y-18282564D01*
X105883000Y-18079516D01*
X105883000Y-17872484D01*
X105923389Y-17669436D01*
X106002615Y-17478167D01*
X106117635Y-17306027D01*
X106264027Y-17159635D01*
X106436165Y-17044616D01*
X106502836Y-17017000D01*
X106627436Y-16965389D01*
X106830484Y-16925000D01*
X107037516Y-16925000D01*
X107240564Y-16965389D01*
X107240564Y-16965389D01*
G37*
G36*
X69140564Y-16965389D02*
G01*
X69265164Y-17017000D01*
X69331835Y-17044616D01*
X69503973Y-17159635D01*
X69650365Y-17306027D01*
X69765385Y-17478167D01*
X69844611Y-17669436D01*
X69885000Y-17872484D01*
X69885000Y-18079516D01*
X69844611Y-18282564D01*
X69765385Y-18473833D01*
X69765384Y-18473835D01*
X69650365Y-18645973D01*
X69503973Y-18792365D01*
X69331835Y-18907384D01*
X69331834Y-18907385D01*
X69331833Y-18907385D01*
X69140564Y-18986611D01*
X68937516Y-19027000D01*
X68730484Y-19027000D01*
X68527436Y-18986611D01*
X68336167Y-18907385D01*
X68336166Y-18907385D01*
X68336165Y-18907384D01*
X68164027Y-18792365D01*
X68017635Y-18645973D01*
X67902616Y-18473835D01*
X67902615Y-18473833D01*
X67823389Y-18282564D01*
X67783000Y-18079516D01*
X67783000Y-17872484D01*
X67823389Y-17669436D01*
X67902615Y-17478167D01*
X68017635Y-17306027D01*
X68164027Y-17159635D01*
X68336165Y-17044616D01*
X68402836Y-17017000D01*
X68527436Y-16965389D01*
X68730484Y-16925000D01*
X68937516Y-16925000D01*
X69140564Y-16965389D01*
X69140564Y-16965389D01*
G37*
G36*
X88190564Y-16965389D02*
G01*
X88315164Y-17017000D01*
X88381835Y-17044616D01*
X88553973Y-17159635D01*
X88700365Y-17306027D01*
X88815385Y-17478167D01*
X88894611Y-17669436D01*
X88935000Y-17872484D01*
X88935000Y-18079516D01*
X88894611Y-18282564D01*
X88815385Y-18473833D01*
X88815384Y-18473835D01*
X88700365Y-18645973D01*
X88553973Y-18792365D01*
X88381835Y-18907384D01*
X88381834Y-18907385D01*
X88381833Y-18907385D01*
X88190564Y-18986611D01*
X87987516Y-19027000D01*
X87780484Y-19027000D01*
X87577436Y-18986611D01*
X87386167Y-18907385D01*
X87386166Y-18907385D01*
X87386165Y-18907384D01*
X87214027Y-18792365D01*
X87067635Y-18645973D01*
X86952616Y-18473835D01*
X86952615Y-18473833D01*
X86873389Y-18282564D01*
X86833000Y-18079516D01*
X86833000Y-17872484D01*
X86873389Y-17669436D01*
X86952615Y-17478167D01*
X87067635Y-17306027D01*
X87214027Y-17159635D01*
X87386165Y-17044616D01*
X87452836Y-17017000D01*
X87577436Y-16965389D01*
X87780484Y-16925000D01*
X87987516Y-16925000D01*
X88190564Y-16965389D01*
X88190564Y-16965389D01*
G37*
G36*
X31040564Y-16965389D02*
G01*
X31165164Y-17017000D01*
X31231835Y-17044616D01*
X31403973Y-17159635D01*
X31550365Y-17306027D01*
X31665385Y-17478167D01*
X31744611Y-17669436D01*
X31785000Y-17872484D01*
X31785000Y-18079516D01*
X31744611Y-18282564D01*
X31665385Y-18473833D01*
X31665384Y-18473835D01*
X31550365Y-18645973D01*
X31403973Y-18792365D01*
X31231835Y-18907384D01*
X31231834Y-18907385D01*
X31231833Y-18907385D01*
X31040564Y-18986611D01*
X30837516Y-19027000D01*
X30630484Y-19027000D01*
X30427436Y-18986611D01*
X30236167Y-18907385D01*
X30236166Y-18907385D01*
X30236165Y-18907384D01*
X30064027Y-18792365D01*
X29917635Y-18645973D01*
X29802616Y-18473835D01*
X29802615Y-18473833D01*
X29723389Y-18282564D01*
X29683000Y-18079516D01*
X29683000Y-17872484D01*
X29723389Y-17669436D01*
X29802615Y-17478167D01*
X29917635Y-17306027D01*
X30064027Y-17159635D01*
X30236165Y-17044616D01*
X30302836Y-17017000D01*
X30427436Y-16965389D01*
X30630484Y-16925000D01*
X30837516Y-16925000D01*
X31040564Y-16965389D01*
X31040564Y-16965389D01*
G37*
G36*
X97657228Y-15347703D02*
G01*
X97812100Y-15411853D01*
X97951481Y-15504985D01*
X98070015Y-15623519D01*
X98163147Y-15762900D01*
X98227297Y-15917772D01*
X98260000Y-16082184D01*
X98260000Y-16249816D01*
X98227297Y-16414228D01*
X98163147Y-16569100D01*
X98070015Y-16708481D01*
X97951481Y-16827015D01*
X97812100Y-16920147D01*
X97657228Y-16984297D01*
X97492816Y-17017000D01*
X97325184Y-17017000D01*
X97160772Y-16984297D01*
X97005900Y-16920147D01*
X96866519Y-16827015D01*
X96747985Y-16708481D01*
X96654853Y-16569100D01*
X96590703Y-16414228D01*
X96558000Y-16249816D01*
X96558000Y-16082184D01*
X96590703Y-15917772D01*
X96654853Y-15762900D01*
X96747985Y-15623519D01*
X96866519Y-15504985D01*
X97005900Y-15411853D01*
X97160772Y-15347703D01*
X97325184Y-15315000D01*
X97492816Y-15315000D01*
X97657228Y-15347703D01*
X97657228Y-15347703D01*
G37*
G36*
X59557228Y-15347703D02*
G01*
X59712100Y-15411853D01*
X59851481Y-15504985D01*
X59970015Y-15623519D01*
X60063147Y-15762900D01*
X60127297Y-15917772D01*
X60160000Y-16082184D01*
X60160000Y-16249816D01*
X60127297Y-16414228D01*
X60063147Y-16569100D01*
X59970015Y-16708481D01*
X59851481Y-16827015D01*
X59712100Y-16920147D01*
X59557228Y-16984297D01*
X59392816Y-17017000D01*
X59225184Y-17017000D01*
X59060772Y-16984297D01*
X58905900Y-16920147D01*
X58766519Y-16827015D01*
X58647985Y-16708481D01*
X58554853Y-16569100D01*
X58490703Y-16414228D01*
X58458000Y-16249816D01*
X58458000Y-16082184D01*
X58490703Y-15917772D01*
X58554853Y-15762900D01*
X58647985Y-15623519D01*
X58766519Y-15504985D01*
X58905900Y-15411853D01*
X59060772Y-15347703D01*
X59225184Y-15315000D01*
X59392816Y-15315000D01*
X59557228Y-15347703D01*
X59557228Y-15347703D01*
G37*
G36*
X78607228Y-15347703D02*
G01*
X78762100Y-15411853D01*
X78901481Y-15504985D01*
X79020015Y-15623519D01*
X79113147Y-15762900D01*
X79177297Y-15917772D01*
X79210000Y-16082184D01*
X79210000Y-16249816D01*
X79177297Y-16414228D01*
X79113147Y-16569100D01*
X79020015Y-16708481D01*
X78901481Y-16827015D01*
X78762100Y-16920147D01*
X78607228Y-16984297D01*
X78442816Y-17017000D01*
X78275184Y-17017000D01*
X78110772Y-16984297D01*
X77955900Y-16920147D01*
X77816519Y-16827015D01*
X77697985Y-16708481D01*
X77604853Y-16569100D01*
X77540703Y-16414228D01*
X77508000Y-16249816D01*
X77508000Y-16082184D01*
X77540703Y-15917772D01*
X77604853Y-15762900D01*
X77697985Y-15623519D01*
X77816519Y-15504985D01*
X77955900Y-15411853D01*
X78110772Y-15347703D01*
X78275184Y-15315000D01*
X78442816Y-15315000D01*
X78607228Y-15347703D01*
X78607228Y-15347703D01*
G37*
G36*
X40507228Y-15347703D02*
G01*
X40662100Y-15411853D01*
X40801481Y-15504985D01*
X40920015Y-15623519D01*
X41013147Y-15762900D01*
X41077297Y-15917772D01*
X41110000Y-16082184D01*
X41110000Y-16249816D01*
X41077297Y-16414228D01*
X41013147Y-16569100D01*
X40920015Y-16708481D01*
X40801481Y-16827015D01*
X40662100Y-16920147D01*
X40507228Y-16984297D01*
X40342816Y-17017000D01*
X40175184Y-17017000D01*
X40010772Y-16984297D01*
X39855900Y-16920147D01*
X39716519Y-16827015D01*
X39597985Y-16708481D01*
X39504853Y-16569100D01*
X39440703Y-16414228D01*
X39408000Y-16249816D01*
X39408000Y-16082184D01*
X39440703Y-15917772D01*
X39504853Y-15762900D01*
X39597985Y-15623519D01*
X39716519Y-15504985D01*
X39855900Y-15411853D01*
X40010772Y-15347703D01*
X40175184Y-15315000D01*
X40342816Y-15315000D01*
X40507228Y-15347703D01*
X40507228Y-15347703D01*
G37*
M02*
