G04 #@! TF.GenerationSoftware,KiCad,Pcbnew,5.1.4-e60b266~84~ubuntu19.04.1*
G04 #@! TF.CreationDate,2019-12-12T22:12:58-06:00*
G04 #@! TF.ProjectId,fissure,66697373-7572-4652-9e6b-696361645f70,rev?*
G04 #@! TF.SameCoordinates,Original*
G04 #@! TF.FileFunction,Legend,Bot*
G04 #@! TF.FilePolarity,Positive*
%FSLAX46Y46*%
G04 Gerber Fmt 4.6, Leading zero omitted, Abs format (unit mm)*
G04 Created by KiCad (PCBNEW 5.1.4-e60b266~84~ubuntu19.04.1) date 2019-12-12 22:12:58*
%MOMM*%
%LPD*%
G04 APERTURE LIST*
%ADD10C,0.150000*%
%ADD11C,0.381000*%
%ADD12C,0.200000*%
%ADD13C,0.120000*%
%ADD14C,0.100000*%
%ADD15C,0.254000*%
G04 APERTURE END LIST*
D10*
X74216166Y-43527571D02*
X74549499Y-43527571D01*
X74549499Y-44051380D02*
X74549499Y-43051380D01*
X74073309Y-43051380D01*
X73692356Y-44051380D02*
X73692356Y-43384714D01*
X73692356Y-43051380D02*
X73739975Y-43099000D01*
X73692356Y-43146619D01*
X73644737Y-43099000D01*
X73692356Y-43051380D01*
X73692356Y-43146619D01*
X73263785Y-44003761D02*
X73168547Y-44051380D01*
X72978071Y-44051380D01*
X72882833Y-44003761D01*
X72835214Y-43908523D01*
X72835214Y-43860904D01*
X72882833Y-43765666D01*
X72978071Y-43718047D01*
X73120928Y-43718047D01*
X73216166Y-43670428D01*
X73263785Y-43575190D01*
X73263785Y-43527571D01*
X73216166Y-43432333D01*
X73120928Y-43384714D01*
X72978071Y-43384714D01*
X72882833Y-43432333D01*
X72454261Y-44003761D02*
X72359023Y-44051380D01*
X72168547Y-44051380D01*
X72073309Y-44003761D01*
X72025690Y-43908523D01*
X72025690Y-43860904D01*
X72073309Y-43765666D01*
X72168547Y-43718047D01*
X72311404Y-43718047D01*
X72406642Y-43670428D01*
X72454261Y-43575190D01*
X72454261Y-43527571D01*
X72406642Y-43432333D01*
X72311404Y-43384714D01*
X72168547Y-43384714D01*
X72073309Y-43432333D01*
X71168547Y-43384714D02*
X71168547Y-44051380D01*
X71597118Y-43384714D02*
X71597118Y-43908523D01*
X71549499Y-44003761D01*
X71454261Y-44051380D01*
X71311404Y-44051380D01*
X71216166Y-44003761D01*
X71168547Y-43956142D01*
X70692356Y-44051380D02*
X70692356Y-43384714D01*
X70692356Y-43575190D02*
X70644737Y-43479952D01*
X70597118Y-43432333D01*
X70501880Y-43384714D01*
X70406642Y-43384714D01*
X69692356Y-44003761D02*
X69787595Y-44051380D01*
X69978071Y-44051380D01*
X70073309Y-44003761D01*
X70120928Y-43908523D01*
X70120928Y-43527571D01*
X70073309Y-43432333D01*
X69978071Y-43384714D01*
X69787595Y-43384714D01*
X69692356Y-43432333D01*
X69644737Y-43527571D01*
X69644737Y-43622809D01*
X70120928Y-43718047D01*
X68549499Y-43384714D02*
X68311404Y-44051380D01*
X68073309Y-43384714D01*
X67739975Y-43146619D02*
X67692356Y-43099000D01*
X67597118Y-43051380D01*
X67359023Y-43051380D01*
X67263785Y-43099000D01*
X67216166Y-43146619D01*
X67168547Y-43241857D01*
X67168547Y-43337095D01*
X67216166Y-43479952D01*
X67787595Y-44051380D01*
X67168547Y-44051380D01*
X74120928Y-45034714D02*
X74120928Y-45701380D01*
X74549499Y-45034714D02*
X74549499Y-45558523D01*
X74501880Y-45653761D01*
X74406642Y-45701380D01*
X74263785Y-45701380D01*
X74168547Y-45653761D01*
X74120928Y-45606142D01*
X72930452Y-44653761D02*
X73787595Y-45939476D01*
X72644737Y-45653761D02*
X72549499Y-45701380D01*
X72359023Y-45701380D01*
X72263785Y-45653761D01*
X72216166Y-45558523D01*
X72216166Y-45510904D01*
X72263785Y-45415666D01*
X72359023Y-45368047D01*
X72501880Y-45368047D01*
X72597118Y-45320428D01*
X72644737Y-45225190D01*
X72644737Y-45177571D01*
X72597118Y-45082333D01*
X72501880Y-45034714D01*
X72359023Y-45034714D01*
X72263785Y-45082333D01*
X71930452Y-45034714D02*
X71549499Y-45034714D01*
X71787595Y-44701380D02*
X71787595Y-45558523D01*
X71739975Y-45653761D01*
X71644737Y-45701380D01*
X71549499Y-45701380D01*
X70835214Y-45653761D02*
X70930452Y-45701380D01*
X71120928Y-45701380D01*
X71216166Y-45653761D01*
X71263785Y-45558523D01*
X71263785Y-45177571D01*
X71216166Y-45082333D01*
X71120928Y-45034714D01*
X70930452Y-45034714D01*
X70835214Y-45082333D01*
X70787595Y-45177571D01*
X70787595Y-45272809D01*
X71263785Y-45368047D01*
X70454261Y-45034714D02*
X70216166Y-45701380D01*
X69978071Y-45034714D01*
X69216166Y-45653761D02*
X69311404Y-45701380D01*
X69501880Y-45701380D01*
X69597118Y-45653761D01*
X69644737Y-45558523D01*
X69644737Y-45177571D01*
X69597118Y-45082333D01*
X69501880Y-45034714D01*
X69311404Y-45034714D01*
X69216166Y-45082333D01*
X69168547Y-45177571D01*
X69168547Y-45272809D01*
X69644737Y-45368047D01*
X68739975Y-45034714D02*
X68739975Y-45701380D01*
X68739975Y-45129952D02*
X68692356Y-45082333D01*
X68597118Y-45034714D01*
X68454261Y-45034714D01*
X68359023Y-45082333D01*
X68311404Y-45177571D01*
X68311404Y-45701380D01*
X67406642Y-45034714D02*
X67406642Y-45701380D01*
X67644737Y-44653761D02*
X67882833Y-45368047D01*
X67263785Y-45368047D01*
X66692356Y-44701380D02*
X66597118Y-44701380D01*
X66501880Y-44749000D01*
X66454261Y-44796619D01*
X66406642Y-44891857D01*
X66359023Y-45082333D01*
X66359023Y-45320428D01*
X66406642Y-45510904D01*
X66454261Y-45606142D01*
X66501880Y-45653761D01*
X66597118Y-45701380D01*
X66692356Y-45701380D01*
X66787595Y-45653761D01*
X66835214Y-45606142D01*
X66882833Y-45510904D01*
X66930452Y-45320428D01*
X66930452Y-45082333D01*
X66882833Y-44891857D01*
X66835214Y-44796619D01*
X66787595Y-44749000D01*
X66692356Y-44701380D01*
X65406642Y-45701380D02*
X65978071Y-45701380D01*
X65692356Y-45701380D02*
X65692356Y-44701380D01*
X65787595Y-44844238D01*
X65882833Y-44939476D01*
X65978071Y-44987095D01*
X65025690Y-44796619D02*
X64978071Y-44749000D01*
X64882833Y-44701380D01*
X64644737Y-44701380D01*
X64549499Y-44749000D01*
X64501880Y-44796619D01*
X64454261Y-44891857D01*
X64454261Y-44987095D01*
X64501880Y-45129952D01*
X65073309Y-45701380D01*
X64454261Y-45701380D01*
X74549499Y-47351380D02*
X74549499Y-46351380D01*
X74120928Y-47351380D02*
X74120928Y-46827571D01*
X74168547Y-46732333D01*
X74263785Y-46684714D01*
X74406642Y-46684714D01*
X74501880Y-46732333D01*
X74549499Y-46779952D01*
X73787595Y-46684714D02*
X73406642Y-46684714D01*
X73644737Y-46351380D02*
X73644737Y-47208523D01*
X73597118Y-47303761D01*
X73501880Y-47351380D01*
X73406642Y-47351380D01*
X73216166Y-46684714D02*
X72835214Y-46684714D01*
X73073309Y-46351380D02*
X73073309Y-47208523D01*
X73025690Y-47303761D01*
X72930452Y-47351380D01*
X72835214Y-47351380D01*
X72501880Y-46684714D02*
X72501880Y-47684714D01*
X72501880Y-46732333D02*
X72406642Y-46684714D01*
X72216166Y-46684714D01*
X72120928Y-46732333D01*
X72073309Y-46779952D01*
X72025690Y-46875190D01*
X72025690Y-47160904D01*
X72073309Y-47256142D01*
X72120928Y-47303761D01*
X72216166Y-47351380D01*
X72406642Y-47351380D01*
X72501880Y-47303761D01*
X71644737Y-47303761D02*
X71549499Y-47351380D01*
X71359023Y-47351380D01*
X71263785Y-47303761D01*
X71216166Y-47208523D01*
X71216166Y-47160904D01*
X71263785Y-47065666D01*
X71359023Y-47018047D01*
X71501880Y-47018047D01*
X71597118Y-46970428D01*
X71644737Y-46875190D01*
X71644737Y-46827571D01*
X71597118Y-46732333D01*
X71501880Y-46684714D01*
X71359023Y-46684714D01*
X71263785Y-46732333D01*
X70787595Y-47256142D02*
X70739975Y-47303761D01*
X70787595Y-47351380D01*
X70835214Y-47303761D01*
X70787595Y-47256142D01*
X70787595Y-47351380D01*
X70787595Y-46732333D02*
X70739975Y-46779952D01*
X70787595Y-46827571D01*
X70835214Y-46779952D01*
X70787595Y-46732333D01*
X70787595Y-46827571D01*
X69597118Y-46303761D02*
X70454261Y-47589476D01*
X68549499Y-46303761D02*
X69406642Y-47589476D01*
X67787595Y-46684714D02*
X67787595Y-47494238D01*
X67835214Y-47589476D01*
X67882833Y-47637095D01*
X67978071Y-47684714D01*
X68120928Y-47684714D01*
X68216166Y-47637095D01*
X67787595Y-47303761D02*
X67882833Y-47351380D01*
X68073309Y-47351380D01*
X68168547Y-47303761D01*
X68216166Y-47256142D01*
X68263785Y-47160904D01*
X68263785Y-46875190D01*
X68216166Y-46779952D01*
X68168547Y-46732333D01*
X68073309Y-46684714D01*
X67882833Y-46684714D01*
X67787595Y-46732333D01*
X67311404Y-47351380D02*
X67311404Y-46684714D01*
X67311404Y-46351380D02*
X67359023Y-46399000D01*
X67311404Y-46446619D01*
X67263785Y-46399000D01*
X67311404Y-46351380D01*
X67311404Y-46446619D01*
X66978071Y-46684714D02*
X66597118Y-46684714D01*
X66835214Y-46351380D02*
X66835214Y-47208523D01*
X66787595Y-47303761D01*
X66692356Y-47351380D01*
X66597118Y-47351380D01*
X66263785Y-47351380D02*
X66263785Y-46351380D01*
X65835214Y-47351380D02*
X65835214Y-46827571D01*
X65882833Y-46732333D01*
X65978071Y-46684714D01*
X66120928Y-46684714D01*
X66216166Y-46732333D01*
X66263785Y-46779952D01*
X64930452Y-46684714D02*
X64930452Y-47351380D01*
X65359023Y-46684714D02*
X65359023Y-47208523D01*
X65311404Y-47303761D01*
X65216166Y-47351380D01*
X65073309Y-47351380D01*
X64978071Y-47303761D01*
X64930452Y-47256142D01*
X64454261Y-47351380D02*
X64454261Y-46351380D01*
X64454261Y-46732333D02*
X64359023Y-46684714D01*
X64168547Y-46684714D01*
X64073309Y-46732333D01*
X64025690Y-46779952D01*
X63978071Y-46875190D01*
X63978071Y-47160904D01*
X64025690Y-47256142D01*
X64073309Y-47303761D01*
X64168547Y-47351380D01*
X64359023Y-47351380D01*
X64454261Y-47303761D01*
X63549499Y-47256142D02*
X63501880Y-47303761D01*
X63549499Y-47351380D01*
X63597118Y-47303761D01*
X63549499Y-47256142D01*
X63549499Y-47351380D01*
X62644737Y-47303761D02*
X62739975Y-47351380D01*
X62930452Y-47351380D01*
X63025690Y-47303761D01*
X63073309Y-47256142D01*
X63120928Y-47160904D01*
X63120928Y-46875190D01*
X63073309Y-46779952D01*
X63025690Y-46732333D01*
X62930452Y-46684714D01*
X62739975Y-46684714D01*
X62644737Y-46732333D01*
X62073309Y-47351380D02*
X62168547Y-47303761D01*
X62216166Y-47256142D01*
X62263785Y-47160904D01*
X62263785Y-46875190D01*
X62216166Y-46779952D01*
X62168547Y-46732333D01*
X62073309Y-46684714D01*
X61930452Y-46684714D01*
X61835214Y-46732333D01*
X61787595Y-46779952D01*
X61739975Y-46875190D01*
X61739975Y-47160904D01*
X61787595Y-47256142D01*
X61835214Y-47303761D01*
X61930452Y-47351380D01*
X62073309Y-47351380D01*
X61311404Y-47351380D02*
X61311404Y-46684714D01*
X61311404Y-46779952D02*
X61263785Y-46732333D01*
X61168547Y-46684714D01*
X61025690Y-46684714D01*
X60930452Y-46732333D01*
X60882833Y-46827571D01*
X60882833Y-47351380D01*
X60882833Y-46827571D02*
X60835214Y-46732333D01*
X60739975Y-46684714D01*
X60597118Y-46684714D01*
X60501880Y-46732333D01*
X60454261Y-46827571D01*
X60454261Y-47351380D01*
X59263785Y-46303761D02*
X60120928Y-47589476D01*
X58501880Y-47303761D02*
X58597118Y-47351380D01*
X58787595Y-47351380D01*
X58882833Y-47303761D01*
X58930452Y-47256142D01*
X58978071Y-47160904D01*
X58978071Y-46875190D01*
X58930452Y-46779952D01*
X58882833Y-46732333D01*
X58787595Y-46684714D01*
X58597118Y-46684714D01*
X58501880Y-46732333D01*
X58073309Y-47351380D02*
X58073309Y-46684714D01*
X58073309Y-46875190D02*
X58025690Y-46779952D01*
X57978071Y-46732333D01*
X57882833Y-46684714D01*
X57787595Y-46684714D01*
X57454261Y-47351380D02*
X57454261Y-46684714D01*
X57454261Y-46351380D02*
X57501880Y-46399000D01*
X57454261Y-46446619D01*
X57406642Y-46399000D01*
X57454261Y-46351380D01*
X57454261Y-46446619D01*
X56549499Y-47351380D02*
X56549499Y-46351380D01*
X56549499Y-47303761D02*
X56644737Y-47351380D01*
X56835214Y-47351380D01*
X56930452Y-47303761D01*
X56978071Y-47256142D01*
X57025690Y-47160904D01*
X57025690Y-46875190D01*
X56978071Y-46779952D01*
X56930452Y-46732333D01*
X56835214Y-46684714D01*
X56644737Y-46684714D01*
X56549499Y-46732333D01*
X55692356Y-47303761D02*
X55787595Y-47351380D01*
X55978071Y-47351380D01*
X56073309Y-47303761D01*
X56120928Y-47208523D01*
X56120928Y-46827571D01*
X56073309Y-46732333D01*
X55978071Y-46684714D01*
X55787595Y-46684714D01*
X55692356Y-46732333D01*
X55644737Y-46827571D01*
X55644737Y-46922809D01*
X56120928Y-47018047D01*
X55263785Y-47303761D02*
X55168547Y-47351380D01*
X54978071Y-47351380D01*
X54882833Y-47303761D01*
X54835214Y-47208523D01*
X54835214Y-47160904D01*
X54882833Y-47065666D01*
X54978071Y-47018047D01*
X55120928Y-47018047D01*
X55216166Y-46970428D01*
X55263785Y-46875190D01*
X55263785Y-46827571D01*
X55216166Y-46732333D01*
X55120928Y-46684714D01*
X54978071Y-46684714D01*
X54882833Y-46732333D01*
X53692356Y-46303761D02*
X54549499Y-47589476D01*
X53501880Y-46684714D02*
X53120928Y-46684714D01*
X53359023Y-47351380D02*
X53359023Y-46494238D01*
X53311404Y-46399000D01*
X53216166Y-46351380D01*
X53120928Y-46351380D01*
X52787595Y-47351380D02*
X52787595Y-46684714D01*
X52787595Y-46351380D02*
X52835214Y-46399000D01*
X52787595Y-46446619D01*
X52739975Y-46399000D01*
X52787595Y-46351380D01*
X52787595Y-46446619D01*
X52359023Y-47303761D02*
X52263785Y-47351380D01*
X52073309Y-47351380D01*
X51978071Y-47303761D01*
X51930452Y-47208523D01*
X51930452Y-47160904D01*
X51978071Y-47065666D01*
X52073309Y-47018047D01*
X52216166Y-47018047D01*
X52311404Y-46970428D01*
X52359023Y-46875190D01*
X52359023Y-46827571D01*
X52311404Y-46732333D01*
X52216166Y-46684714D01*
X52073309Y-46684714D01*
X51978071Y-46732333D01*
X51549499Y-47303761D02*
X51454261Y-47351380D01*
X51263785Y-47351380D01*
X51168547Y-47303761D01*
X51120928Y-47208523D01*
X51120928Y-47160904D01*
X51168547Y-47065666D01*
X51263785Y-47018047D01*
X51406642Y-47018047D01*
X51501880Y-46970428D01*
X51549499Y-46875190D01*
X51549499Y-46827571D01*
X51501880Y-46732333D01*
X51406642Y-46684714D01*
X51263785Y-46684714D01*
X51168547Y-46732333D01*
X50263785Y-46684714D02*
X50263785Y-47351380D01*
X50692356Y-46684714D02*
X50692356Y-47208523D01*
X50644737Y-47303761D01*
X50549499Y-47351380D01*
X50406642Y-47351380D01*
X50311404Y-47303761D01*
X50263785Y-47256142D01*
X49787595Y-47351380D02*
X49787595Y-46684714D01*
X49787595Y-46875190D02*
X49739975Y-46779952D01*
X49692356Y-46732333D01*
X49597118Y-46684714D01*
X49501880Y-46684714D01*
X48787595Y-47303761D02*
X48882833Y-47351380D01*
X49073309Y-47351380D01*
X49168547Y-47303761D01*
X49216166Y-47208523D01*
X49216166Y-46827571D01*
X49168547Y-46732333D01*
X49073309Y-46684714D01*
X48882833Y-46684714D01*
X48787595Y-46732333D01*
X48739975Y-46827571D01*
X48739975Y-46922809D01*
X49216166Y-47018047D01*
D11*
X48257000Y-53099000D02*
X48257000Y-55639000D01*
X45717000Y-37859000D02*
X45717000Y-55639000D01*
X45717000Y-55639000D02*
X78737000Y-55639000D01*
X78737000Y-55639000D02*
X78737000Y-37859000D01*
X78737000Y-37859000D02*
X45717000Y-37859000D01*
D10*
G36*
X54146030Y-40904365D02*
G01*
X54246030Y-40904365D01*
X54246030Y-40404365D01*
X54146030Y-40404365D01*
X54146030Y-40904365D01*
G37*
X54146030Y-40904365D02*
X54246030Y-40904365D01*
X54246030Y-40404365D01*
X54146030Y-40404365D01*
X54146030Y-40904365D01*
G36*
X54146030Y-40904365D02*
G01*
X54446030Y-40904365D01*
X54446030Y-40804365D01*
X54146030Y-40804365D01*
X54146030Y-40904365D01*
G37*
X54146030Y-40904365D02*
X54446030Y-40904365D01*
X54446030Y-40804365D01*
X54146030Y-40804365D01*
X54146030Y-40904365D01*
G36*
X54746030Y-40904365D02*
G01*
X54946030Y-40904365D01*
X54946030Y-40804365D01*
X54746030Y-40804365D01*
X54746030Y-40904365D01*
G37*
X54746030Y-40904365D02*
X54946030Y-40904365D01*
X54946030Y-40804365D01*
X54746030Y-40804365D01*
X54746030Y-40904365D01*
G36*
X54146030Y-40504365D02*
G01*
X54946030Y-40504365D01*
X54946030Y-40404365D01*
X54146030Y-40404365D01*
X54146030Y-40504365D01*
G37*
X54146030Y-40504365D02*
X54946030Y-40504365D01*
X54946030Y-40404365D01*
X54146030Y-40404365D01*
X54146030Y-40504365D01*
G36*
X54546030Y-40704365D02*
G01*
X54646030Y-40704365D01*
X54646030Y-40604365D01*
X54546030Y-40604365D01*
X54546030Y-40704365D01*
G37*
X54546030Y-40704365D02*
X54646030Y-40704365D01*
X54646030Y-40604365D01*
X54546030Y-40604365D01*
X54546030Y-40704365D01*
D11*
X48257000Y-53099000D02*
X50797000Y-53099000D01*
X50797000Y-53099000D02*
X50797000Y-55639000D01*
D12*
X45547000Y-68524000D02*
X47947000Y-68524000D01*
X45547000Y-68699000D02*
X47947000Y-68699000D01*
X45547000Y-68874000D02*
X47947000Y-68874000D01*
X47947000Y-69274000D02*
X45547000Y-69274000D01*
X45547000Y-69049000D02*
X47947000Y-69049000D01*
X45547000Y-69174000D02*
X47947000Y-69174000D01*
X45547000Y-69249000D02*
X45547000Y-63449000D01*
X45547000Y-63449000D02*
X47947000Y-63449000D01*
X47947000Y-63449000D02*
X47947000Y-69249000D01*
X124022000Y-44199000D02*
X124022000Y-41799000D01*
X124197000Y-44199000D02*
X124197000Y-41799000D01*
X124372000Y-44199000D02*
X124372000Y-41799000D01*
X124772000Y-41799000D02*
X124772000Y-44199000D01*
X124547000Y-44199000D02*
X124547000Y-41799000D01*
X124672000Y-44199000D02*
X124672000Y-41799000D01*
X124747000Y-44199000D02*
X118947000Y-44199000D01*
X118947000Y-44199000D02*
X118947000Y-41799000D01*
X118947000Y-41799000D02*
X124747000Y-41799000D01*
X107522000Y-44199000D02*
X107522000Y-41799000D01*
X107697000Y-44199000D02*
X107697000Y-41799000D01*
X107872000Y-44199000D02*
X107872000Y-41799000D01*
X108272000Y-41799000D02*
X108272000Y-44199000D01*
X108047000Y-44199000D02*
X108047000Y-41799000D01*
X108172000Y-44199000D02*
X108172000Y-41799000D01*
X108247000Y-44199000D02*
X102447000Y-44199000D01*
X102447000Y-44199000D02*
X102447000Y-41799000D01*
X102447000Y-41799000D02*
X108247000Y-41799000D01*
X88647000Y-41799000D02*
X94447000Y-41799000D01*
X88647000Y-44199000D02*
X88647000Y-41799000D01*
X94447000Y-44199000D02*
X88647000Y-44199000D01*
X94372000Y-44199000D02*
X94372000Y-41799000D01*
X94247000Y-44199000D02*
X94247000Y-41799000D01*
X94472000Y-41799000D02*
X94472000Y-44199000D01*
X94072000Y-44199000D02*
X94072000Y-41799000D01*
X93897000Y-44199000D02*
X93897000Y-41799000D01*
X93722000Y-44199000D02*
X93722000Y-41799000D01*
X124022000Y-46699000D02*
X124022000Y-44299000D01*
X124197000Y-46699000D02*
X124197000Y-44299000D01*
X124372000Y-46699000D02*
X124372000Y-44299000D01*
X124772000Y-44299000D02*
X124772000Y-46699000D01*
X124547000Y-46699000D02*
X124547000Y-44299000D01*
X124672000Y-46699000D02*
X124672000Y-44299000D01*
X124747000Y-46699000D02*
X118947000Y-46699000D01*
X118947000Y-46699000D02*
X118947000Y-44299000D01*
X118947000Y-44299000D02*
X124747000Y-44299000D01*
X107522000Y-46699000D02*
X107522000Y-44299000D01*
X107697000Y-46699000D02*
X107697000Y-44299000D01*
X107872000Y-46699000D02*
X107872000Y-44299000D01*
X108272000Y-44299000D02*
X108272000Y-46699000D01*
X108047000Y-46699000D02*
X108047000Y-44299000D01*
X108172000Y-46699000D02*
X108172000Y-44299000D01*
X108247000Y-46699000D02*
X102447000Y-46699000D01*
X102447000Y-46699000D02*
X102447000Y-44299000D01*
X102447000Y-44299000D02*
X108247000Y-44299000D01*
X88647000Y-44299000D02*
X94447000Y-44299000D01*
X88647000Y-46699000D02*
X88647000Y-44299000D01*
X94447000Y-46699000D02*
X88647000Y-46699000D01*
X94372000Y-46699000D02*
X94372000Y-44299000D01*
X94247000Y-46699000D02*
X94247000Y-44299000D01*
X94472000Y-44299000D02*
X94472000Y-46699000D01*
X94072000Y-46699000D02*
X94072000Y-44299000D01*
X93897000Y-46699000D02*
X93897000Y-44299000D01*
X93722000Y-46699000D02*
X93722000Y-44299000D01*
X53797000Y-68524000D02*
X56197000Y-68524000D01*
X53797000Y-68699000D02*
X56197000Y-68699000D01*
X53797000Y-68874000D02*
X56197000Y-68874000D01*
X56197000Y-69274000D02*
X53797000Y-69274000D01*
X53797000Y-69049000D02*
X56197000Y-69049000D01*
X53797000Y-69174000D02*
X56197000Y-69174000D01*
X53797000Y-69249000D02*
X53797000Y-63449000D01*
X53797000Y-63449000D02*
X56197000Y-63449000D01*
X56197000Y-63449000D02*
X56197000Y-69249000D01*
X50547000Y-68524000D02*
X52947000Y-68524000D01*
X50547000Y-68699000D02*
X52947000Y-68699000D01*
X50547000Y-68874000D02*
X52947000Y-68874000D01*
X52947000Y-69274000D02*
X50547000Y-69274000D01*
X50547000Y-69049000D02*
X52947000Y-69049000D01*
X50547000Y-69174000D02*
X52947000Y-69174000D01*
X50547000Y-69249000D02*
X50547000Y-63449000D01*
X50547000Y-63449000D02*
X52947000Y-63449000D01*
X52947000Y-63449000D02*
X52947000Y-69249000D01*
X124022000Y-49199000D02*
X124022000Y-46799000D01*
X124197000Y-49199000D02*
X124197000Y-46799000D01*
X124372000Y-49199000D02*
X124372000Y-46799000D01*
X124772000Y-46799000D02*
X124772000Y-49199000D01*
X124547000Y-49199000D02*
X124547000Y-46799000D01*
X124672000Y-49199000D02*
X124672000Y-46799000D01*
X124747000Y-49199000D02*
X118947000Y-49199000D01*
X118947000Y-49199000D02*
X118947000Y-46799000D01*
X118947000Y-46799000D02*
X124747000Y-46799000D01*
X107522000Y-49199000D02*
X107522000Y-46799000D01*
X107697000Y-49199000D02*
X107697000Y-46799000D01*
X107872000Y-49199000D02*
X107872000Y-46799000D01*
X108272000Y-46799000D02*
X108272000Y-49199000D01*
X108047000Y-49199000D02*
X108047000Y-46799000D01*
X108172000Y-49199000D02*
X108172000Y-46799000D01*
X108247000Y-49199000D02*
X102447000Y-49199000D01*
X102447000Y-49199000D02*
X102447000Y-46799000D01*
X102447000Y-46799000D02*
X108247000Y-46799000D01*
X88647000Y-46799000D02*
X94447000Y-46799000D01*
X88647000Y-49199000D02*
X88647000Y-46799000D01*
X94447000Y-49199000D02*
X88647000Y-49199000D01*
X94372000Y-49199000D02*
X94372000Y-46799000D01*
X94247000Y-49199000D02*
X94247000Y-46799000D01*
X94472000Y-46799000D02*
X94472000Y-49199000D01*
X94072000Y-49199000D02*
X94072000Y-46799000D01*
X93897000Y-49199000D02*
X93897000Y-46799000D01*
X93722000Y-49199000D02*
X93722000Y-46799000D01*
X56297000Y-68524000D02*
X58697000Y-68524000D01*
X56297000Y-68699000D02*
X58697000Y-68699000D01*
X56297000Y-68874000D02*
X58697000Y-68874000D01*
X58697000Y-69274000D02*
X56297000Y-69274000D01*
X56297000Y-69049000D02*
X58697000Y-69049000D01*
X56297000Y-69174000D02*
X58697000Y-69174000D01*
X56297000Y-69249000D02*
X56297000Y-63449000D01*
X56297000Y-63449000D02*
X58697000Y-63449000D01*
X58697000Y-63449000D02*
X58697000Y-69249000D01*
X48047000Y-68524000D02*
X50447000Y-68524000D01*
X48047000Y-68699000D02*
X50447000Y-68699000D01*
X48047000Y-68874000D02*
X50447000Y-68874000D01*
X50447000Y-69274000D02*
X48047000Y-69274000D01*
X48047000Y-69049000D02*
X50447000Y-69049000D01*
X48047000Y-69174000D02*
X50447000Y-69174000D01*
X48047000Y-69249000D02*
X48047000Y-63449000D01*
X48047000Y-63449000D02*
X50447000Y-63449000D01*
X50447000Y-63449000D02*
X50447000Y-69249000D01*
X124022000Y-51699000D02*
X124022000Y-49299000D01*
X124197000Y-51699000D02*
X124197000Y-49299000D01*
X124372000Y-51699000D02*
X124372000Y-49299000D01*
X124772000Y-49299000D02*
X124772000Y-51699000D01*
X124547000Y-51699000D02*
X124547000Y-49299000D01*
X124672000Y-51699000D02*
X124672000Y-49299000D01*
X124747000Y-51699000D02*
X118947000Y-51699000D01*
X118947000Y-51699000D02*
X118947000Y-49299000D01*
X118947000Y-49299000D02*
X124747000Y-49299000D01*
X107522000Y-51699000D02*
X107522000Y-49299000D01*
X107697000Y-51699000D02*
X107697000Y-49299000D01*
X107872000Y-51699000D02*
X107872000Y-49299000D01*
X108272000Y-49299000D02*
X108272000Y-51699000D01*
X108047000Y-51699000D02*
X108047000Y-49299000D01*
X108172000Y-51699000D02*
X108172000Y-49299000D01*
X108247000Y-51699000D02*
X102447000Y-51699000D01*
X102447000Y-51699000D02*
X102447000Y-49299000D01*
X102447000Y-49299000D02*
X108247000Y-49299000D01*
X88647000Y-49299000D02*
X94447000Y-49299000D01*
X88647000Y-51699000D02*
X88647000Y-49299000D01*
X94447000Y-51699000D02*
X88647000Y-51699000D01*
X94372000Y-51699000D02*
X94372000Y-49299000D01*
X94247000Y-51699000D02*
X94247000Y-49299000D01*
X94472000Y-49299000D02*
X94472000Y-51699000D01*
X94072000Y-51699000D02*
X94072000Y-49299000D01*
X93897000Y-51699000D02*
X93897000Y-49299000D01*
X93722000Y-51699000D02*
X93722000Y-49299000D01*
X58797000Y-68524000D02*
X61197000Y-68524000D01*
X58797000Y-68699000D02*
X61197000Y-68699000D01*
X58797000Y-68874000D02*
X61197000Y-68874000D01*
X61197000Y-69274000D02*
X58797000Y-69274000D01*
X58797000Y-69049000D02*
X61197000Y-69049000D01*
X58797000Y-69174000D02*
X61197000Y-69174000D01*
X58797000Y-69249000D02*
X58797000Y-63449000D01*
X58797000Y-63449000D02*
X61197000Y-63449000D01*
X61197000Y-63449000D02*
X61197000Y-69249000D01*
D13*
X141497000Y-99874000D02*
X141497000Y-97874000D01*
X136497000Y-99874000D02*
X136497000Y-97874000D01*
X136497000Y-97874000D02*
X141497000Y-97874000D01*
X141497000Y-99874000D02*
X142097000Y-99874000D01*
X135897000Y-99874000D02*
X136497000Y-99874000D01*
X142097000Y-111974000D02*
X135897000Y-111974000D01*
X135897000Y-99874000D02*
X135897000Y-102249000D01*
X135897000Y-103899000D02*
X135897000Y-105249000D01*
X135897000Y-106899000D02*
X135897000Y-109299000D01*
X135897000Y-110849000D02*
X135897000Y-111974000D01*
X142097000Y-110399000D02*
X142097000Y-99874000D01*
X135897000Y-110849000D02*
X134497000Y-110849000D01*
X135897000Y-109299000D02*
X134497000Y-109299000D01*
D14*
X81997000Y-128099000D02*
X87502000Y-128099000D01*
X87502000Y-128099000D02*
X87547000Y-123849000D01*
X87547000Y-116849000D02*
X87547000Y-112599000D01*
X87547000Y-112599000D02*
X82497000Y-112599000D01*
X71997000Y-128099000D02*
X66447000Y-128099000D01*
X66447000Y-128099000D02*
X66447000Y-123849000D01*
X66447000Y-116849000D02*
X66447000Y-112599000D01*
X66447000Y-112599000D02*
X71497000Y-112599000D01*
D10*
X54910809Y-41175666D02*
X54948904Y-41289952D01*
X54948904Y-41480428D01*
X54910809Y-41556619D01*
X54872714Y-41594714D01*
X54796523Y-41632809D01*
X54720333Y-41632809D01*
X54644142Y-41594714D01*
X54606047Y-41556619D01*
X54567952Y-41480428D01*
X54529857Y-41328047D01*
X54491761Y-41251857D01*
X54453666Y-41213761D01*
X54377476Y-41175666D01*
X54301285Y-41175666D01*
X54225095Y-41213761D01*
X54187000Y-41251857D01*
X54148904Y-41328047D01*
X54148904Y-41518523D01*
X54187000Y-41632809D01*
X54148904Y-41861380D02*
X54148904Y-42318523D01*
X54948904Y-42089952D02*
X54148904Y-42089952D01*
X49088904Y-48130395D02*
X49088904Y-48587538D01*
X49888904Y-48358967D02*
X49088904Y-48358967D01*
X49088904Y-48778014D02*
X49888904Y-49311348D01*
X49088904Y-49311348D02*
X49888904Y-48778014D01*
X49088904Y-49768491D02*
X49088904Y-49844681D01*
X49127000Y-49920872D01*
X49165095Y-49958967D01*
X49241285Y-49997062D01*
X49393666Y-50035157D01*
X49584142Y-50035157D01*
X49736523Y-49997062D01*
X49812714Y-49958967D01*
X49850809Y-49920872D01*
X49888904Y-49844681D01*
X49888904Y-49768491D01*
X49850809Y-49692300D01*
X49812714Y-49654205D01*
X49736523Y-49616110D01*
X49584142Y-49578014D01*
X49393666Y-49578014D01*
X49241285Y-49616110D01*
X49165095Y-49654205D01*
X49127000Y-49692300D01*
X49088904Y-49768491D01*
X49050809Y-50949443D02*
X50079380Y-50263729D01*
X49888904Y-51216110D02*
X49088904Y-51216110D01*
X49088904Y-51406586D01*
X49127000Y-51520872D01*
X49203190Y-51597062D01*
X49279380Y-51635157D01*
X49431761Y-51673252D01*
X49546047Y-51673252D01*
X49698428Y-51635157D01*
X49774619Y-51597062D01*
X49850809Y-51520872D01*
X49888904Y-51406586D01*
X49888904Y-51216110D01*
X49088904Y-51939919D02*
X49088904Y-52435157D01*
X49393666Y-52168491D01*
X49393666Y-52282776D01*
X49431761Y-52358967D01*
X49469857Y-52397062D01*
X49546047Y-52435157D01*
X49736523Y-52435157D01*
X49812714Y-52397062D01*
X49850809Y-52358967D01*
X49888904Y-52282776D01*
X49888904Y-52054205D01*
X49850809Y-51978014D01*
X49812714Y-51939919D01*
X74869857Y-40964190D02*
X74907952Y-41078476D01*
X74946047Y-41116571D01*
X75022238Y-41154666D01*
X75136523Y-41154666D01*
X75212714Y-41116571D01*
X75250809Y-41078476D01*
X75288904Y-41002285D01*
X75288904Y-40697523D01*
X74488904Y-40697523D01*
X74488904Y-40964190D01*
X74527000Y-41040380D01*
X74565095Y-41078476D01*
X74641285Y-41116571D01*
X74717476Y-41116571D01*
X74793666Y-41078476D01*
X74831761Y-41040380D01*
X74869857Y-40964190D01*
X74869857Y-40697523D01*
X74565095Y-41459428D02*
X74527000Y-41497523D01*
X74488904Y-41573714D01*
X74488904Y-41764190D01*
X74527000Y-41840380D01*
X74565095Y-41878476D01*
X74641285Y-41916571D01*
X74717476Y-41916571D01*
X74831761Y-41878476D01*
X75288904Y-41421333D01*
X75288904Y-41916571D01*
X67249857Y-41021333D02*
X67249857Y-40754666D01*
X67668904Y-40754666D02*
X66868904Y-40754666D01*
X66868904Y-41135619D01*
X66868904Y-41364190D02*
X66868904Y-41897523D01*
X67668904Y-41554666D01*
X64709857Y-41021333D02*
X64709857Y-40754666D01*
X65128904Y-40754666D02*
X64328904Y-40754666D01*
X64328904Y-41135619D01*
X64328904Y-41783238D02*
X64328904Y-41630857D01*
X64367000Y-41554666D01*
X64405095Y-41516571D01*
X64519380Y-41440380D01*
X64671761Y-41402285D01*
X64976523Y-41402285D01*
X65052714Y-41440380D01*
X65090809Y-41478476D01*
X65128904Y-41554666D01*
X65128904Y-41707047D01*
X65090809Y-41783238D01*
X65052714Y-41821333D01*
X64976523Y-41859428D01*
X64786047Y-41859428D01*
X64709857Y-41821333D01*
X64671761Y-41783238D01*
X64633666Y-41707047D01*
X64633666Y-41554666D01*
X64671761Y-41478476D01*
X64709857Y-41440380D01*
X64786047Y-41402285D01*
X62169857Y-41021333D02*
X62169857Y-40754666D01*
X62588904Y-40754666D02*
X61788904Y-40754666D01*
X61788904Y-41135619D01*
X61788904Y-41821333D02*
X61788904Y-41440380D01*
X62169857Y-41402285D01*
X62131761Y-41440380D01*
X62093666Y-41516571D01*
X62093666Y-41707047D01*
X62131761Y-41783238D01*
X62169857Y-41821333D01*
X62246047Y-41859428D01*
X62436523Y-41859428D01*
X62512714Y-41821333D01*
X62550809Y-41783238D01*
X62588904Y-41707047D01*
X62588904Y-41516571D01*
X62550809Y-41440380D01*
X62512714Y-41402285D01*
X49888904Y-40735619D02*
X49507952Y-40468952D01*
X49888904Y-40278476D02*
X49088904Y-40278476D01*
X49088904Y-40583238D01*
X49127000Y-40659428D01*
X49165095Y-40697523D01*
X49241285Y-40735619D01*
X49355571Y-40735619D01*
X49431761Y-40697523D01*
X49469857Y-40659428D01*
X49507952Y-40583238D01*
X49507952Y-40278476D01*
X49660333Y-41040380D02*
X49660333Y-41421333D01*
X49888904Y-40964190D02*
X49088904Y-41230857D01*
X49888904Y-41497523D01*
X49088904Y-41688000D02*
X49888904Y-41878476D01*
X49317476Y-42030857D01*
X49888904Y-42183238D01*
X49088904Y-42373714D01*
X51667000Y-40678476D02*
X51628904Y-40602285D01*
X51628904Y-40488000D01*
X51667000Y-40373714D01*
X51743190Y-40297523D01*
X51819380Y-40259428D01*
X51971761Y-40221333D01*
X52086047Y-40221333D01*
X52238428Y-40259428D01*
X52314619Y-40297523D01*
X52390809Y-40373714D01*
X52428904Y-40488000D01*
X52428904Y-40564190D01*
X52390809Y-40678476D01*
X52352714Y-40716571D01*
X52086047Y-40716571D01*
X52086047Y-40564190D01*
X52428904Y-41059428D02*
X51628904Y-41059428D01*
X52428904Y-41516571D01*
X51628904Y-41516571D01*
X52428904Y-41897523D02*
X51628904Y-41897523D01*
X51628904Y-42088000D01*
X51667000Y-42202285D01*
X51743190Y-42278476D01*
X51819380Y-42316571D01*
X51971761Y-42354666D01*
X52086047Y-42354666D01*
X52238428Y-42316571D01*
X52314619Y-42278476D01*
X52390809Y-42202285D01*
X52428904Y-42088000D01*
X52428904Y-41897523D01*
X56708904Y-40221333D02*
X57508904Y-40488000D01*
X56708904Y-40754666D01*
X57432714Y-41478476D02*
X57470809Y-41440380D01*
X57508904Y-41326095D01*
X57508904Y-41249904D01*
X57470809Y-41135619D01*
X57394619Y-41059428D01*
X57318428Y-41021333D01*
X57166047Y-40983238D01*
X57051761Y-40983238D01*
X56899380Y-41021333D01*
X56823190Y-41059428D01*
X56747000Y-41135619D01*
X56708904Y-41249904D01*
X56708904Y-41326095D01*
X56747000Y-41440380D01*
X56785095Y-41478476D01*
X57432714Y-42278476D02*
X57470809Y-42240380D01*
X57508904Y-42126095D01*
X57508904Y-42049904D01*
X57470809Y-41935619D01*
X57394619Y-41859428D01*
X57318428Y-41821333D01*
X57166047Y-41783238D01*
X57051761Y-41783238D01*
X56899380Y-41821333D01*
X56823190Y-41859428D01*
X56747000Y-41935619D01*
X56708904Y-42049904D01*
X56708904Y-42126095D01*
X56747000Y-42240380D01*
X56785095Y-42278476D01*
X59629857Y-41021333D02*
X59629857Y-40754666D01*
X60048904Y-40754666D02*
X59248904Y-40754666D01*
X59248904Y-41135619D01*
X59515571Y-41783238D02*
X60048904Y-41783238D01*
X59210809Y-41592761D02*
X59782238Y-41402285D01*
X59782238Y-41897523D01*
X69789857Y-40964190D02*
X69827952Y-41078476D01*
X69866047Y-41116571D01*
X69942238Y-41154666D01*
X70056523Y-41154666D01*
X70132714Y-41116571D01*
X70170809Y-41078476D01*
X70208904Y-41002285D01*
X70208904Y-40697523D01*
X69408904Y-40697523D01*
X69408904Y-40964190D01*
X69447000Y-41040380D01*
X69485095Y-41078476D01*
X69561285Y-41116571D01*
X69637476Y-41116571D01*
X69713666Y-41078476D01*
X69751761Y-41040380D01*
X69789857Y-40964190D01*
X69789857Y-40697523D01*
X70208904Y-41916571D02*
X70208904Y-41459428D01*
X70208904Y-41688000D02*
X69408904Y-41688000D01*
X69523190Y-41611809D01*
X69599380Y-41535619D01*
X69637476Y-41459428D01*
X72329857Y-40964190D02*
X72367952Y-41078476D01*
X72406047Y-41116571D01*
X72482238Y-41154666D01*
X72596523Y-41154666D01*
X72672714Y-41116571D01*
X72710809Y-41078476D01*
X72748904Y-41002285D01*
X72748904Y-40697523D01*
X71948904Y-40697523D01*
X71948904Y-40964190D01*
X71987000Y-41040380D01*
X72025095Y-41078476D01*
X72101285Y-41116571D01*
X72177476Y-41116571D01*
X72253666Y-41078476D01*
X72291761Y-41040380D01*
X72329857Y-40964190D01*
X72329857Y-40697523D01*
X71948904Y-41421333D02*
X71948904Y-41916571D01*
X72253666Y-41649904D01*
X72253666Y-41764190D01*
X72291761Y-41840380D01*
X72329857Y-41878476D01*
X72406047Y-41916571D01*
X72596523Y-41916571D01*
X72672714Y-41878476D01*
X72710809Y-41840380D01*
X72748904Y-41764190D01*
X72748904Y-41535619D01*
X72710809Y-41459428D01*
X72672714Y-41421333D01*
X77409857Y-40964190D02*
X77447952Y-41078476D01*
X77486047Y-41116571D01*
X77562238Y-41154666D01*
X77676523Y-41154666D01*
X77752714Y-41116571D01*
X77790809Y-41078476D01*
X77828904Y-41002285D01*
X77828904Y-40697523D01*
X77028904Y-40697523D01*
X77028904Y-40964190D01*
X77067000Y-41040380D01*
X77105095Y-41078476D01*
X77181285Y-41116571D01*
X77257476Y-41116571D01*
X77333666Y-41078476D01*
X77371761Y-41040380D01*
X77409857Y-40964190D01*
X77409857Y-40697523D01*
X77028904Y-41840380D02*
X77028904Y-41688000D01*
X77067000Y-41611809D01*
X77105095Y-41573714D01*
X77219380Y-41497523D01*
X77371761Y-41459428D01*
X77676523Y-41459428D01*
X77752714Y-41497523D01*
X77790809Y-41535619D01*
X77828904Y-41611809D01*
X77828904Y-41764190D01*
X77790809Y-41840380D01*
X77752714Y-41878476D01*
X77676523Y-41916571D01*
X77486047Y-41916571D01*
X77409857Y-41878476D01*
X77371761Y-41840380D01*
X77333666Y-41764190D01*
X77333666Y-41611809D01*
X77371761Y-41535619D01*
X77409857Y-41497523D01*
X77486047Y-41459428D01*
X77409857Y-51886190D02*
X77447952Y-52000476D01*
X77486047Y-52038571D01*
X77562238Y-52076666D01*
X77676523Y-52076666D01*
X77752714Y-52038571D01*
X77790809Y-52000476D01*
X77828904Y-51924285D01*
X77828904Y-51619523D01*
X77028904Y-51619523D01*
X77028904Y-51886190D01*
X77067000Y-51962380D01*
X77105095Y-52000476D01*
X77181285Y-52038571D01*
X77257476Y-52038571D01*
X77333666Y-52000476D01*
X77371761Y-51962380D01*
X77409857Y-51886190D01*
X77409857Y-51619523D01*
X77028904Y-52800476D02*
X77028904Y-52419523D01*
X77409857Y-52381428D01*
X77371761Y-52419523D01*
X77333666Y-52495714D01*
X77333666Y-52686190D01*
X77371761Y-52762380D01*
X77409857Y-52800476D01*
X77486047Y-52838571D01*
X77676523Y-52838571D01*
X77752714Y-52800476D01*
X77790809Y-52762380D01*
X77828904Y-52686190D01*
X77828904Y-52495714D01*
X77790809Y-52419523D01*
X77752714Y-52381428D01*
X74869857Y-51886190D02*
X74907952Y-52000476D01*
X74946047Y-52038571D01*
X75022238Y-52076666D01*
X75136523Y-52076666D01*
X75212714Y-52038571D01*
X75250809Y-52000476D01*
X75288904Y-51924285D01*
X75288904Y-51619523D01*
X74488904Y-51619523D01*
X74488904Y-51886190D01*
X74527000Y-51962380D01*
X74565095Y-52000476D01*
X74641285Y-52038571D01*
X74717476Y-52038571D01*
X74793666Y-52000476D01*
X74831761Y-51962380D01*
X74869857Y-51886190D01*
X74869857Y-51619523D01*
X74755571Y-52762380D02*
X75288904Y-52762380D01*
X74450809Y-52571904D02*
X75022238Y-52381428D01*
X75022238Y-52876666D01*
X72329857Y-51657619D02*
X72329857Y-51924285D01*
X72748904Y-52038571D02*
X72748904Y-51657619D01*
X71948904Y-51657619D01*
X71948904Y-52038571D01*
X71948904Y-52724285D02*
X71948904Y-52571904D01*
X71987000Y-52495714D01*
X72025095Y-52457619D01*
X72139380Y-52381428D01*
X72291761Y-52343333D01*
X72596523Y-52343333D01*
X72672714Y-52381428D01*
X72710809Y-52419523D01*
X72748904Y-52495714D01*
X72748904Y-52648095D01*
X72710809Y-52724285D01*
X72672714Y-52762380D01*
X72596523Y-52800476D01*
X72406047Y-52800476D01*
X72329857Y-52762380D01*
X72291761Y-52724285D01*
X72253666Y-52648095D01*
X72253666Y-52495714D01*
X72291761Y-52419523D01*
X72329857Y-52381428D01*
X72406047Y-52343333D01*
X70208904Y-51619523D02*
X69408904Y-51619523D01*
X69408904Y-51810000D01*
X69447000Y-51924285D01*
X69523190Y-52000476D01*
X69599380Y-52038571D01*
X69751761Y-52076666D01*
X69866047Y-52076666D01*
X70018428Y-52038571D01*
X70094619Y-52000476D01*
X70170809Y-51924285D01*
X70208904Y-51810000D01*
X70208904Y-51619523D01*
X69408904Y-52343333D02*
X69408904Y-52876666D01*
X70208904Y-52533809D01*
X67592714Y-52076666D02*
X67630809Y-52038571D01*
X67668904Y-51924285D01*
X67668904Y-51848095D01*
X67630809Y-51733809D01*
X67554619Y-51657619D01*
X67478428Y-51619523D01*
X67326047Y-51581428D01*
X67211761Y-51581428D01*
X67059380Y-51619523D01*
X66983190Y-51657619D01*
X66907000Y-51733809D01*
X66868904Y-51848095D01*
X66868904Y-51924285D01*
X66907000Y-52038571D01*
X66945095Y-52076666D01*
X66868904Y-52762380D02*
X66868904Y-52610000D01*
X66907000Y-52533809D01*
X66945095Y-52495714D01*
X67059380Y-52419523D01*
X67211761Y-52381428D01*
X67516523Y-52381428D01*
X67592714Y-52419523D01*
X67630809Y-52457619D01*
X67668904Y-52533809D01*
X67668904Y-52686190D01*
X67630809Y-52762380D01*
X67592714Y-52800476D01*
X67516523Y-52838571D01*
X67326047Y-52838571D01*
X67249857Y-52800476D01*
X67211761Y-52762380D01*
X67173666Y-52686190D01*
X67173666Y-52533809D01*
X67211761Y-52457619D01*
X67249857Y-52419523D01*
X67326047Y-52381428D01*
X65128904Y-51619523D02*
X64328904Y-51619523D01*
X64328904Y-51810000D01*
X64367000Y-51924285D01*
X64443190Y-52000476D01*
X64519380Y-52038571D01*
X64671761Y-52076666D01*
X64786047Y-52076666D01*
X64938428Y-52038571D01*
X65014619Y-52000476D01*
X65090809Y-51924285D01*
X65128904Y-51810000D01*
X65128904Y-51619523D01*
X64595571Y-52762380D02*
X65128904Y-52762380D01*
X64290809Y-52571904D02*
X64862238Y-52381428D01*
X64862238Y-52876666D01*
X54207000Y-51600476D02*
X54168904Y-51524285D01*
X54168904Y-51410000D01*
X54207000Y-51295714D01*
X54283190Y-51219523D01*
X54359380Y-51181428D01*
X54511761Y-51143333D01*
X54626047Y-51143333D01*
X54778428Y-51181428D01*
X54854619Y-51219523D01*
X54930809Y-51295714D01*
X54968904Y-51410000D01*
X54968904Y-51486190D01*
X54930809Y-51600476D01*
X54892714Y-51638571D01*
X54626047Y-51638571D01*
X54626047Y-51486190D01*
X54968904Y-51981428D02*
X54168904Y-51981428D01*
X54968904Y-52438571D01*
X54168904Y-52438571D01*
X54968904Y-52819523D02*
X54168904Y-52819523D01*
X54168904Y-53010000D01*
X54207000Y-53124285D01*
X54283190Y-53200476D01*
X54359380Y-53238571D01*
X54511761Y-53276666D01*
X54626047Y-53276666D01*
X54778428Y-53238571D01*
X54854619Y-53200476D01*
X54930809Y-53124285D01*
X54968904Y-53010000D01*
X54968904Y-52819523D01*
X56747000Y-51600476D02*
X56708904Y-51524285D01*
X56708904Y-51410000D01*
X56747000Y-51295714D01*
X56823190Y-51219523D01*
X56899380Y-51181428D01*
X57051761Y-51143333D01*
X57166047Y-51143333D01*
X57318428Y-51181428D01*
X57394619Y-51219523D01*
X57470809Y-51295714D01*
X57508904Y-51410000D01*
X57508904Y-51486190D01*
X57470809Y-51600476D01*
X57432714Y-51638571D01*
X57166047Y-51638571D01*
X57166047Y-51486190D01*
X57508904Y-51981428D02*
X56708904Y-51981428D01*
X57508904Y-52438571D01*
X56708904Y-52438571D01*
X57508904Y-52819523D02*
X56708904Y-52819523D01*
X56708904Y-53010000D01*
X56747000Y-53124285D01*
X56823190Y-53200476D01*
X56899380Y-53238571D01*
X57051761Y-53276666D01*
X57166047Y-53276666D01*
X57318428Y-53238571D01*
X57394619Y-53200476D01*
X57470809Y-53124285D01*
X57508904Y-53010000D01*
X57508904Y-52819523D01*
X60048904Y-51619523D02*
X59248904Y-51619523D01*
X59248904Y-51810000D01*
X59287000Y-51924285D01*
X59363190Y-52000476D01*
X59439380Y-52038571D01*
X59591761Y-52076666D01*
X59706047Y-52076666D01*
X59858428Y-52038571D01*
X59934619Y-52000476D01*
X60010809Y-51924285D01*
X60048904Y-51810000D01*
X60048904Y-51619523D01*
X60048904Y-52838571D02*
X60048904Y-52381428D01*
X60048904Y-52610000D02*
X59248904Y-52610000D01*
X59363190Y-52533809D01*
X59439380Y-52457619D01*
X59477476Y-52381428D01*
X62588904Y-51619523D02*
X61788904Y-51619523D01*
X61788904Y-51810000D01*
X61827000Y-51924285D01*
X61903190Y-52000476D01*
X61979380Y-52038571D01*
X62131761Y-52076666D01*
X62246047Y-52076666D01*
X62398428Y-52038571D01*
X62474619Y-52000476D01*
X62550809Y-51924285D01*
X62588904Y-51810000D01*
X62588904Y-51619523D01*
X61788904Y-52571904D02*
X61788904Y-52648095D01*
X61827000Y-52724285D01*
X61865095Y-52762380D01*
X61941285Y-52800476D01*
X62093666Y-52838571D01*
X62284142Y-52838571D01*
X62436523Y-52800476D01*
X62512714Y-52762380D01*
X62550809Y-52724285D01*
X62588904Y-52648095D01*
X62588904Y-52571904D01*
X62550809Y-52495714D01*
X62512714Y-52457619D01*
X62436523Y-52419523D01*
X62284142Y-52381428D01*
X62093666Y-52381428D01*
X61941285Y-52419523D01*
X61865095Y-52457619D01*
X61827000Y-52495714D01*
X61788904Y-52571904D01*
X52428904Y-51619523D02*
X51628904Y-51619523D01*
X51628904Y-51810000D01*
X51667000Y-51924285D01*
X51743190Y-52000476D01*
X51819380Y-52038571D01*
X51971761Y-52076666D01*
X52086047Y-52076666D01*
X52238428Y-52038571D01*
X52314619Y-52000476D01*
X52390809Y-51924285D01*
X52428904Y-51810000D01*
X52428904Y-51619523D01*
X51705095Y-52381428D02*
X51667000Y-52419523D01*
X51628904Y-52495714D01*
X51628904Y-52686190D01*
X51667000Y-52762380D01*
X51705095Y-52800476D01*
X51781285Y-52838571D01*
X51857476Y-52838571D01*
X51971761Y-52800476D01*
X52428904Y-52343333D01*
X52428904Y-52838571D01*
X133099380Y-105965666D02*
X133813666Y-105965666D01*
X133956523Y-105918047D01*
X134051761Y-105822809D01*
X134099380Y-105679952D01*
X134099380Y-105584714D01*
X133194619Y-106394238D02*
X133147000Y-106441857D01*
X133099380Y-106537095D01*
X133099380Y-106775190D01*
X133147000Y-106870428D01*
X133194619Y-106918047D01*
X133289857Y-106965666D01*
X133385095Y-106965666D01*
X133527952Y-106918047D01*
X134099380Y-106346619D01*
X134099380Y-106965666D01*
D15*
X77964619Y-119653523D02*
X77964619Y-120681619D01*
X77904142Y-120802571D01*
X77843666Y-120863047D01*
X77722714Y-120923523D01*
X77480809Y-120923523D01*
X77359857Y-120863047D01*
X77299380Y-120802571D01*
X77238904Y-120681619D01*
X77238904Y-119653523D01*
X76694619Y-119774476D02*
X76634142Y-119714000D01*
X76513190Y-119653523D01*
X76210809Y-119653523D01*
X76089857Y-119714000D01*
X76029380Y-119774476D01*
X75968904Y-119895428D01*
X75968904Y-120016380D01*
X76029380Y-120197809D01*
X76755095Y-120923523D01*
X75968904Y-120923523D01*
M02*
