G04 #@! TF.GenerationSoftware,KiCad,Pcbnew,5.1.4-e60b266~84~ubuntu19.04.1*
G04 #@! TF.CreationDate,2019-12-12T04:58:34-06:00*
G04 #@! TF.ProjectId,fissure,66697373-7572-4652-9e6b-696361645f70,rev?*
G04 #@! TF.SameCoordinates,Original*
G04 #@! TF.FileFunction,Legend,Top*
G04 #@! TF.FilePolarity,Positive*
%FSLAX46Y46*%
G04 Gerber Fmt 4.6, Leading zero omitted, Abs format (unit mm)*
G04 Created by KiCad (PCBNEW 5.1.4-e60b266~84~ubuntu19.04.1) date 2019-12-12 04:58:34*
%MOMM*%
%LPD*%
G04 APERTURE LIST*
%ADD10C,0.150000*%
%ADD11C,0.200000*%
%ADD12C,0.381000*%
%ADD13C,0.120000*%
%ADD14C,0.100000*%
%ADD15C,0.254000*%
G04 APERTURE END LIST*
D10*
X94495928Y-44457571D02*
X94162595Y-44457571D01*
X94162595Y-44981380D02*
X94162595Y-43981380D01*
X94638785Y-43981380D01*
X95019738Y-44981380D02*
X95019738Y-44314714D01*
X95019738Y-43981380D02*
X94972119Y-44029000D01*
X95019738Y-44076619D01*
X95067357Y-44029000D01*
X95019738Y-43981380D01*
X95019738Y-44076619D01*
X95448309Y-44933761D02*
X95543547Y-44981380D01*
X95734023Y-44981380D01*
X95829261Y-44933761D01*
X95876880Y-44838523D01*
X95876880Y-44790904D01*
X95829261Y-44695666D01*
X95734023Y-44648047D01*
X95591166Y-44648047D01*
X95495928Y-44600428D01*
X95448309Y-44505190D01*
X95448309Y-44457571D01*
X95495928Y-44362333D01*
X95591166Y-44314714D01*
X95734023Y-44314714D01*
X95829261Y-44362333D01*
X96257833Y-44933761D02*
X96353071Y-44981380D01*
X96543547Y-44981380D01*
X96638785Y-44933761D01*
X96686404Y-44838523D01*
X96686404Y-44790904D01*
X96638785Y-44695666D01*
X96543547Y-44648047D01*
X96400690Y-44648047D01*
X96305452Y-44600428D01*
X96257833Y-44505190D01*
X96257833Y-44457571D01*
X96305452Y-44362333D01*
X96400690Y-44314714D01*
X96543547Y-44314714D01*
X96638785Y-44362333D01*
X97543547Y-44314714D02*
X97543547Y-44981380D01*
X97114976Y-44314714D02*
X97114976Y-44838523D01*
X97162595Y-44933761D01*
X97257833Y-44981380D01*
X97400690Y-44981380D01*
X97495928Y-44933761D01*
X97543547Y-44886142D01*
X98019738Y-44981380D02*
X98019738Y-44314714D01*
X98019738Y-44505190D02*
X98067357Y-44409952D01*
X98114976Y-44362333D01*
X98210214Y-44314714D01*
X98305452Y-44314714D01*
X99019738Y-44933761D02*
X98924500Y-44981380D01*
X98734023Y-44981380D01*
X98638785Y-44933761D01*
X98591166Y-44838523D01*
X98591166Y-44457571D01*
X98638785Y-44362333D01*
X98734023Y-44314714D01*
X98924500Y-44314714D01*
X99019738Y-44362333D01*
X99067357Y-44457571D01*
X99067357Y-44552809D01*
X98591166Y-44648047D01*
X100162595Y-44314714D02*
X100400690Y-44981380D01*
X100638785Y-44314714D01*
X100972119Y-44076619D02*
X101019738Y-44029000D01*
X101114976Y-43981380D01*
X101353071Y-43981380D01*
X101448309Y-44029000D01*
X101495928Y-44076619D01*
X101543547Y-44171857D01*
X101543547Y-44267095D01*
X101495928Y-44409952D01*
X100924500Y-44981380D01*
X101543547Y-44981380D01*
X94591166Y-45964714D02*
X94591166Y-46631380D01*
X94162595Y-45964714D02*
X94162595Y-46488523D01*
X94210214Y-46583761D01*
X94305452Y-46631380D01*
X94448309Y-46631380D01*
X94543547Y-46583761D01*
X94591166Y-46536142D01*
X95781642Y-45583761D02*
X94924500Y-46869476D01*
X96067357Y-46583761D02*
X96162595Y-46631380D01*
X96353071Y-46631380D01*
X96448309Y-46583761D01*
X96495928Y-46488523D01*
X96495928Y-46440904D01*
X96448309Y-46345666D01*
X96353071Y-46298047D01*
X96210214Y-46298047D01*
X96114976Y-46250428D01*
X96067357Y-46155190D01*
X96067357Y-46107571D01*
X96114976Y-46012333D01*
X96210214Y-45964714D01*
X96353071Y-45964714D01*
X96448309Y-46012333D01*
X96781642Y-45964714D02*
X97162595Y-45964714D01*
X96924500Y-45631380D02*
X96924500Y-46488523D01*
X96972119Y-46583761D01*
X97067357Y-46631380D01*
X97162595Y-46631380D01*
X97876880Y-46583761D02*
X97781642Y-46631380D01*
X97591166Y-46631380D01*
X97495928Y-46583761D01*
X97448309Y-46488523D01*
X97448309Y-46107571D01*
X97495928Y-46012333D01*
X97591166Y-45964714D01*
X97781642Y-45964714D01*
X97876880Y-46012333D01*
X97924500Y-46107571D01*
X97924500Y-46202809D01*
X97448309Y-46298047D01*
X98257833Y-45964714D02*
X98495928Y-46631380D01*
X98734023Y-45964714D01*
X99495928Y-46583761D02*
X99400690Y-46631380D01*
X99210214Y-46631380D01*
X99114976Y-46583761D01*
X99067357Y-46488523D01*
X99067357Y-46107571D01*
X99114976Y-46012333D01*
X99210214Y-45964714D01*
X99400690Y-45964714D01*
X99495928Y-46012333D01*
X99543547Y-46107571D01*
X99543547Y-46202809D01*
X99067357Y-46298047D01*
X99972119Y-45964714D02*
X99972119Y-46631380D01*
X99972119Y-46059952D02*
X100019738Y-46012333D01*
X100114976Y-45964714D01*
X100257833Y-45964714D01*
X100353071Y-46012333D01*
X100400690Y-46107571D01*
X100400690Y-46631380D01*
X101305452Y-45964714D02*
X101305452Y-46631380D01*
X101067357Y-45583761D02*
X100829261Y-46298047D01*
X101448309Y-46298047D01*
X102019738Y-45631380D02*
X102114976Y-45631380D01*
X102210214Y-45679000D01*
X102257833Y-45726619D01*
X102305452Y-45821857D01*
X102353071Y-46012333D01*
X102353071Y-46250428D01*
X102305452Y-46440904D01*
X102257833Y-46536142D01*
X102210214Y-46583761D01*
X102114976Y-46631380D01*
X102019738Y-46631380D01*
X101924500Y-46583761D01*
X101876880Y-46536142D01*
X101829261Y-46440904D01*
X101781642Y-46250428D01*
X101781642Y-46012333D01*
X101829261Y-45821857D01*
X101876880Y-45726619D01*
X101924500Y-45679000D01*
X102019738Y-45631380D01*
X103305452Y-46631380D02*
X102734023Y-46631380D01*
X103019738Y-46631380D02*
X103019738Y-45631380D01*
X102924500Y-45774238D01*
X102829261Y-45869476D01*
X102734023Y-45917095D01*
X103686404Y-45726619D02*
X103734023Y-45679000D01*
X103829261Y-45631380D01*
X104067357Y-45631380D01*
X104162595Y-45679000D01*
X104210214Y-45726619D01*
X104257833Y-45821857D01*
X104257833Y-45917095D01*
X104210214Y-46059952D01*
X103638785Y-46631380D01*
X104257833Y-46631380D01*
X94162595Y-48281380D02*
X94162595Y-47281380D01*
X94591166Y-48281380D02*
X94591166Y-47757571D01*
X94543547Y-47662333D01*
X94448309Y-47614714D01*
X94305452Y-47614714D01*
X94210214Y-47662333D01*
X94162595Y-47709952D01*
X94924500Y-47614714D02*
X95305452Y-47614714D01*
X95067357Y-47281380D02*
X95067357Y-48138523D01*
X95114976Y-48233761D01*
X95210214Y-48281380D01*
X95305452Y-48281380D01*
X95495928Y-47614714D02*
X95876880Y-47614714D01*
X95638785Y-47281380D02*
X95638785Y-48138523D01*
X95686404Y-48233761D01*
X95781642Y-48281380D01*
X95876880Y-48281380D01*
X96210214Y-47614714D02*
X96210214Y-48614714D01*
X96210214Y-47662333D02*
X96305452Y-47614714D01*
X96495928Y-47614714D01*
X96591166Y-47662333D01*
X96638785Y-47709952D01*
X96686404Y-47805190D01*
X96686404Y-48090904D01*
X96638785Y-48186142D01*
X96591166Y-48233761D01*
X96495928Y-48281380D01*
X96305452Y-48281380D01*
X96210214Y-48233761D01*
X97067357Y-48233761D02*
X97162595Y-48281380D01*
X97353071Y-48281380D01*
X97448309Y-48233761D01*
X97495928Y-48138523D01*
X97495928Y-48090904D01*
X97448309Y-47995666D01*
X97353071Y-47948047D01*
X97210214Y-47948047D01*
X97114976Y-47900428D01*
X97067357Y-47805190D01*
X97067357Y-47757571D01*
X97114976Y-47662333D01*
X97210214Y-47614714D01*
X97353071Y-47614714D01*
X97448309Y-47662333D01*
X97924500Y-48186142D02*
X97972119Y-48233761D01*
X97924500Y-48281380D01*
X97876880Y-48233761D01*
X97924500Y-48186142D01*
X97924500Y-48281380D01*
X97924500Y-47662333D02*
X97972119Y-47709952D01*
X97924500Y-47757571D01*
X97876880Y-47709952D01*
X97924500Y-47662333D01*
X97924500Y-47757571D01*
X99114976Y-47233761D02*
X98257833Y-48519476D01*
X100162595Y-47233761D02*
X99305452Y-48519476D01*
X100924500Y-47614714D02*
X100924500Y-48424238D01*
X100876880Y-48519476D01*
X100829261Y-48567095D01*
X100734023Y-48614714D01*
X100591166Y-48614714D01*
X100495928Y-48567095D01*
X100924500Y-48233761D02*
X100829261Y-48281380D01*
X100638785Y-48281380D01*
X100543547Y-48233761D01*
X100495928Y-48186142D01*
X100448309Y-48090904D01*
X100448309Y-47805190D01*
X100495928Y-47709952D01*
X100543547Y-47662333D01*
X100638785Y-47614714D01*
X100829261Y-47614714D01*
X100924500Y-47662333D01*
X101400690Y-48281380D02*
X101400690Y-47614714D01*
X101400690Y-47281380D02*
X101353071Y-47329000D01*
X101400690Y-47376619D01*
X101448309Y-47329000D01*
X101400690Y-47281380D01*
X101400690Y-47376619D01*
X101734023Y-47614714D02*
X102114976Y-47614714D01*
X101876880Y-47281380D02*
X101876880Y-48138523D01*
X101924500Y-48233761D01*
X102019738Y-48281380D01*
X102114976Y-48281380D01*
X102448309Y-48281380D02*
X102448309Y-47281380D01*
X102876880Y-48281380D02*
X102876880Y-47757571D01*
X102829261Y-47662333D01*
X102734023Y-47614714D01*
X102591166Y-47614714D01*
X102495928Y-47662333D01*
X102448309Y-47709952D01*
X103781642Y-47614714D02*
X103781642Y-48281380D01*
X103353071Y-47614714D02*
X103353071Y-48138523D01*
X103400690Y-48233761D01*
X103495928Y-48281380D01*
X103638785Y-48281380D01*
X103734023Y-48233761D01*
X103781642Y-48186142D01*
X104257833Y-48281380D02*
X104257833Y-47281380D01*
X104257833Y-47662333D02*
X104353071Y-47614714D01*
X104543547Y-47614714D01*
X104638785Y-47662333D01*
X104686404Y-47709952D01*
X104734023Y-47805190D01*
X104734023Y-48090904D01*
X104686404Y-48186142D01*
X104638785Y-48233761D01*
X104543547Y-48281380D01*
X104353071Y-48281380D01*
X104257833Y-48233761D01*
X105162595Y-48186142D02*
X105210214Y-48233761D01*
X105162595Y-48281380D01*
X105114976Y-48233761D01*
X105162595Y-48186142D01*
X105162595Y-48281380D01*
X106067357Y-48233761D02*
X105972119Y-48281380D01*
X105781642Y-48281380D01*
X105686404Y-48233761D01*
X105638785Y-48186142D01*
X105591166Y-48090904D01*
X105591166Y-47805190D01*
X105638785Y-47709952D01*
X105686404Y-47662333D01*
X105781642Y-47614714D01*
X105972119Y-47614714D01*
X106067357Y-47662333D01*
X106638785Y-48281380D02*
X106543547Y-48233761D01*
X106495928Y-48186142D01*
X106448309Y-48090904D01*
X106448309Y-47805190D01*
X106495928Y-47709952D01*
X106543547Y-47662333D01*
X106638785Y-47614714D01*
X106781642Y-47614714D01*
X106876880Y-47662333D01*
X106924500Y-47709952D01*
X106972119Y-47805190D01*
X106972119Y-48090904D01*
X106924500Y-48186142D01*
X106876880Y-48233761D01*
X106781642Y-48281380D01*
X106638785Y-48281380D01*
X107400690Y-48281380D02*
X107400690Y-47614714D01*
X107400690Y-47709952D02*
X107448309Y-47662333D01*
X107543547Y-47614714D01*
X107686404Y-47614714D01*
X107781642Y-47662333D01*
X107829261Y-47757571D01*
X107829261Y-48281380D01*
X107829261Y-47757571D02*
X107876880Y-47662333D01*
X107972119Y-47614714D01*
X108114976Y-47614714D01*
X108210214Y-47662333D01*
X108257833Y-47757571D01*
X108257833Y-48281380D01*
X109448309Y-47233761D02*
X108591166Y-48519476D01*
X110210214Y-48233761D02*
X110114976Y-48281380D01*
X109924500Y-48281380D01*
X109829261Y-48233761D01*
X109781642Y-48186142D01*
X109734023Y-48090904D01*
X109734023Y-47805190D01*
X109781642Y-47709952D01*
X109829261Y-47662333D01*
X109924500Y-47614714D01*
X110114976Y-47614714D01*
X110210214Y-47662333D01*
X110638785Y-48281380D02*
X110638785Y-47614714D01*
X110638785Y-47805190D02*
X110686404Y-47709952D01*
X110734023Y-47662333D01*
X110829261Y-47614714D01*
X110924500Y-47614714D01*
X111257833Y-48281380D02*
X111257833Y-47614714D01*
X111257833Y-47281380D02*
X111210214Y-47329000D01*
X111257833Y-47376619D01*
X111305452Y-47329000D01*
X111257833Y-47281380D01*
X111257833Y-47376619D01*
X112162595Y-48281380D02*
X112162595Y-47281380D01*
X112162595Y-48233761D02*
X112067357Y-48281380D01*
X111876880Y-48281380D01*
X111781642Y-48233761D01*
X111734023Y-48186142D01*
X111686404Y-48090904D01*
X111686404Y-47805190D01*
X111734023Y-47709952D01*
X111781642Y-47662333D01*
X111876880Y-47614714D01*
X112067357Y-47614714D01*
X112162595Y-47662333D01*
X113019738Y-48233761D02*
X112924500Y-48281380D01*
X112734023Y-48281380D01*
X112638785Y-48233761D01*
X112591166Y-48138523D01*
X112591166Y-47757571D01*
X112638785Y-47662333D01*
X112734023Y-47614714D01*
X112924500Y-47614714D01*
X113019738Y-47662333D01*
X113067357Y-47757571D01*
X113067357Y-47852809D01*
X112591166Y-47948047D01*
X113448309Y-48233761D02*
X113543547Y-48281380D01*
X113734023Y-48281380D01*
X113829261Y-48233761D01*
X113876880Y-48138523D01*
X113876880Y-48090904D01*
X113829261Y-47995666D01*
X113734023Y-47948047D01*
X113591166Y-47948047D01*
X113495928Y-47900428D01*
X113448309Y-47805190D01*
X113448309Y-47757571D01*
X113495928Y-47662333D01*
X113591166Y-47614714D01*
X113734023Y-47614714D01*
X113829261Y-47662333D01*
X115019738Y-47233761D02*
X114162595Y-48519476D01*
X115210214Y-47614714D02*
X115591166Y-47614714D01*
X115353071Y-48281380D02*
X115353071Y-47424238D01*
X115400690Y-47329000D01*
X115495928Y-47281380D01*
X115591166Y-47281380D01*
X115924500Y-48281380D02*
X115924500Y-47614714D01*
X115924500Y-47281380D02*
X115876880Y-47329000D01*
X115924500Y-47376619D01*
X115972119Y-47329000D01*
X115924500Y-47281380D01*
X115924500Y-47376619D01*
X116353071Y-48233761D02*
X116448309Y-48281380D01*
X116638785Y-48281380D01*
X116734023Y-48233761D01*
X116781642Y-48138523D01*
X116781642Y-48090904D01*
X116734023Y-47995666D01*
X116638785Y-47948047D01*
X116495928Y-47948047D01*
X116400690Y-47900428D01*
X116353071Y-47805190D01*
X116353071Y-47757571D01*
X116400690Y-47662333D01*
X116495928Y-47614714D01*
X116638785Y-47614714D01*
X116734023Y-47662333D01*
X117162595Y-48233761D02*
X117257833Y-48281380D01*
X117448309Y-48281380D01*
X117543547Y-48233761D01*
X117591166Y-48138523D01*
X117591166Y-48090904D01*
X117543547Y-47995666D01*
X117448309Y-47948047D01*
X117305452Y-47948047D01*
X117210214Y-47900428D01*
X117162595Y-47805190D01*
X117162595Y-47757571D01*
X117210214Y-47662333D01*
X117305452Y-47614714D01*
X117448309Y-47614714D01*
X117543547Y-47662333D01*
X118448309Y-47614714D02*
X118448309Y-48281380D01*
X118019738Y-47614714D02*
X118019738Y-48138523D01*
X118067357Y-48233761D01*
X118162595Y-48281380D01*
X118305452Y-48281380D01*
X118400690Y-48233761D01*
X118448309Y-48186142D01*
X118924500Y-48281380D02*
X118924500Y-47614714D01*
X118924500Y-47805190D02*
X118972119Y-47709952D01*
X119019738Y-47662333D01*
X119114976Y-47614714D01*
X119210214Y-47614714D01*
X119924500Y-48233761D02*
X119829261Y-48281380D01*
X119638785Y-48281380D01*
X119543547Y-48233761D01*
X119495928Y-48138523D01*
X119495928Y-47757571D01*
X119543547Y-47662333D01*
X119638785Y-47614714D01*
X119829261Y-47614714D01*
X119924500Y-47662333D01*
X119972119Y-47757571D01*
X119972119Y-47852809D01*
X119495928Y-47948047D01*
D11*
X128447000Y-119199000D02*
X128447000Y-124999000D01*
X126047000Y-119199000D02*
X128447000Y-119199000D01*
X126047000Y-124999000D02*
X126047000Y-119199000D01*
X126047000Y-124924000D02*
X128447000Y-124924000D01*
X126047000Y-124799000D02*
X128447000Y-124799000D01*
X128447000Y-125024000D02*
X126047000Y-125024000D01*
X126047000Y-124624000D02*
X128447000Y-124624000D01*
X126047000Y-124449000D02*
X128447000Y-124449000D01*
X126047000Y-124274000D02*
X128447000Y-124274000D01*
X109947000Y-117449000D02*
X109947000Y-123249000D01*
X107547000Y-117449000D02*
X109947000Y-117449000D01*
X107547000Y-123249000D02*
X107547000Y-117449000D01*
X107547000Y-123174000D02*
X109947000Y-123174000D01*
X107547000Y-123049000D02*
X109947000Y-123049000D01*
X109947000Y-123274000D02*
X107547000Y-123274000D01*
X107547000Y-122874000D02*
X109947000Y-122874000D01*
X107547000Y-122699000D02*
X109947000Y-122699000D01*
X107547000Y-122524000D02*
X109947000Y-122524000D01*
X91947000Y-117199000D02*
X91947000Y-122999000D01*
X89547000Y-117199000D02*
X91947000Y-117199000D01*
X89547000Y-122999000D02*
X89547000Y-117199000D01*
X89547000Y-122924000D02*
X91947000Y-122924000D01*
X89547000Y-122799000D02*
X91947000Y-122799000D01*
X91947000Y-123024000D02*
X89547000Y-123024000D01*
X89547000Y-122624000D02*
X91947000Y-122624000D01*
X89547000Y-122449000D02*
X91947000Y-122449000D01*
X89547000Y-122274000D02*
X91947000Y-122274000D01*
X117447000Y-101199000D02*
X117447000Y-106999000D01*
X115047000Y-101199000D02*
X117447000Y-101199000D01*
X115047000Y-106999000D02*
X115047000Y-101199000D01*
X115047000Y-106924000D02*
X117447000Y-106924000D01*
X115047000Y-106799000D02*
X117447000Y-106799000D01*
X117447000Y-107024000D02*
X115047000Y-107024000D01*
X115047000Y-106624000D02*
X117447000Y-106624000D01*
X115047000Y-106449000D02*
X117447000Y-106449000D01*
X115047000Y-106274000D02*
X117447000Y-106274000D01*
X98947000Y-98949000D02*
X98947000Y-104749000D01*
X96547000Y-98949000D02*
X98947000Y-98949000D01*
X96547000Y-104749000D02*
X96547000Y-98949000D01*
X96547000Y-104674000D02*
X98947000Y-104674000D01*
X96547000Y-104549000D02*
X98947000Y-104549000D01*
X98947000Y-104774000D02*
X96547000Y-104774000D01*
X96547000Y-104374000D02*
X98947000Y-104374000D01*
X96547000Y-104199000D02*
X98947000Y-104199000D01*
X96547000Y-104024000D02*
X98947000Y-104024000D01*
X82447000Y-104299000D02*
X88247000Y-104299000D01*
X82447000Y-106699000D02*
X82447000Y-104299000D01*
X88247000Y-106699000D02*
X82447000Y-106699000D01*
X88172000Y-106699000D02*
X88172000Y-104299000D01*
X88047000Y-106699000D02*
X88047000Y-104299000D01*
X88272000Y-104299000D02*
X88272000Y-106699000D01*
X87872000Y-106699000D02*
X87872000Y-104299000D01*
X87697000Y-106699000D02*
X87697000Y-104299000D01*
X87522000Y-106699000D02*
X87522000Y-104299000D01*
X79947000Y-99199000D02*
X79947000Y-104999000D01*
X77547000Y-99199000D02*
X79947000Y-99199000D01*
X77547000Y-104999000D02*
X77547000Y-99199000D01*
X77547000Y-104924000D02*
X79947000Y-104924000D01*
X77547000Y-104799000D02*
X79947000Y-104799000D01*
X79947000Y-105024000D02*
X77547000Y-105024000D01*
X77547000Y-104624000D02*
X79947000Y-104624000D01*
X77547000Y-104449000D02*
X79947000Y-104449000D01*
X77547000Y-104274000D02*
X79947000Y-104274000D01*
X64447000Y-120949000D02*
X64447000Y-126749000D01*
X62047000Y-120949000D02*
X64447000Y-120949000D01*
X62047000Y-126749000D02*
X62047000Y-120949000D01*
X62047000Y-126674000D02*
X64447000Y-126674000D01*
X62047000Y-126549000D02*
X64447000Y-126549000D01*
X64447000Y-126774000D02*
X62047000Y-126774000D01*
X62047000Y-126374000D02*
X64447000Y-126374000D01*
X62047000Y-126199000D02*
X64447000Y-126199000D01*
X62047000Y-126024000D02*
X64447000Y-126024000D01*
X117447000Y-94799000D02*
X123247000Y-94799000D01*
X117447000Y-97199000D02*
X117447000Y-94799000D01*
X123247000Y-97199000D02*
X117447000Y-97199000D01*
X123172000Y-97199000D02*
X123172000Y-94799000D01*
X123047000Y-97199000D02*
X123047000Y-94799000D01*
X123272000Y-94799000D02*
X123272000Y-97199000D01*
X122872000Y-97199000D02*
X122872000Y-94799000D01*
X122697000Y-97199000D02*
X122697000Y-94799000D01*
X122522000Y-97199000D02*
X122522000Y-94799000D01*
X98947000Y-91549000D02*
X104747000Y-91549000D01*
X98947000Y-93949000D02*
X98947000Y-91549000D01*
X104747000Y-93949000D02*
X98947000Y-93949000D01*
X104672000Y-93949000D02*
X104672000Y-91549000D01*
X104547000Y-93949000D02*
X104547000Y-91549000D01*
X104772000Y-91549000D02*
X104772000Y-93949000D01*
X104372000Y-93949000D02*
X104372000Y-91549000D01*
X104197000Y-93949000D02*
X104197000Y-91549000D01*
X104022000Y-93949000D02*
X104022000Y-91549000D01*
X81447000Y-86799000D02*
X87247000Y-86799000D01*
X81447000Y-89199000D02*
X81447000Y-86799000D01*
X87247000Y-89199000D02*
X81447000Y-89199000D01*
X87172000Y-89199000D02*
X87172000Y-86799000D01*
X87047000Y-89199000D02*
X87047000Y-86799000D01*
X87272000Y-86799000D02*
X87272000Y-89199000D01*
X86872000Y-89199000D02*
X86872000Y-86799000D01*
X86697000Y-89199000D02*
X86697000Y-86799000D01*
X86522000Y-89199000D02*
X86522000Y-86799000D01*
X77047000Y-94199000D02*
X71247000Y-94199000D01*
X77047000Y-91799000D02*
X77047000Y-94199000D01*
X71247000Y-91799000D02*
X77047000Y-91799000D01*
X71322000Y-91799000D02*
X71322000Y-94199000D01*
X71447000Y-91799000D02*
X71447000Y-94199000D01*
X71222000Y-94199000D02*
X71222000Y-91799000D01*
X71622000Y-91799000D02*
X71622000Y-94199000D01*
X71797000Y-91799000D02*
X71797000Y-94199000D01*
X71972000Y-91799000D02*
X71972000Y-94199000D01*
X59547000Y-113699000D02*
X53747000Y-113699000D01*
X59547000Y-111299000D02*
X59547000Y-113699000D01*
X53747000Y-111299000D02*
X59547000Y-111299000D01*
X53822000Y-111299000D02*
X53822000Y-113699000D01*
X53947000Y-111299000D02*
X53947000Y-113699000D01*
X53722000Y-113699000D02*
X53722000Y-111299000D01*
X54122000Y-111299000D02*
X54122000Y-113699000D01*
X54297000Y-111299000D02*
X54297000Y-113699000D01*
X54472000Y-111299000D02*
X54472000Y-113699000D01*
X117447000Y-77299000D02*
X123247000Y-77299000D01*
X117447000Y-79699000D02*
X117447000Y-77299000D01*
X123247000Y-79699000D02*
X117447000Y-79699000D01*
X123172000Y-79699000D02*
X123172000Y-77299000D01*
X123047000Y-79699000D02*
X123047000Y-77299000D01*
X123272000Y-77299000D02*
X123272000Y-79699000D01*
X122872000Y-79699000D02*
X122872000Y-77299000D01*
X122697000Y-79699000D02*
X122697000Y-77299000D01*
X122522000Y-79699000D02*
X122522000Y-77299000D01*
X98872000Y-74299000D02*
X104672000Y-74299000D01*
X98872000Y-76699000D02*
X98872000Y-74299000D01*
X104672000Y-76699000D02*
X98872000Y-76699000D01*
X104597000Y-76699000D02*
X104597000Y-74299000D01*
X104472000Y-76699000D02*
X104472000Y-74299000D01*
X104697000Y-74299000D02*
X104697000Y-76699000D01*
X104297000Y-76699000D02*
X104297000Y-74299000D01*
X104122000Y-76699000D02*
X104122000Y-74299000D01*
X103947000Y-76699000D02*
X103947000Y-74299000D01*
X81447000Y-69299000D02*
X87247000Y-69299000D01*
X81447000Y-71699000D02*
X81447000Y-69299000D01*
X87247000Y-71699000D02*
X81447000Y-71699000D01*
X87172000Y-71699000D02*
X87172000Y-69299000D01*
X87047000Y-71699000D02*
X87047000Y-69299000D01*
X87272000Y-69299000D02*
X87272000Y-71699000D01*
X86872000Y-71699000D02*
X86872000Y-69299000D01*
X86697000Y-71699000D02*
X86697000Y-69299000D01*
X86522000Y-71699000D02*
X86522000Y-69299000D01*
X77047000Y-76699000D02*
X71247000Y-76699000D01*
X77047000Y-74299000D02*
X77047000Y-76699000D01*
X71247000Y-74299000D02*
X77047000Y-74299000D01*
X71322000Y-74299000D02*
X71322000Y-76699000D01*
X71447000Y-74299000D02*
X71447000Y-76699000D01*
X71222000Y-76699000D02*
X71222000Y-74299000D01*
X71622000Y-74299000D02*
X71622000Y-76699000D01*
X71797000Y-74299000D02*
X71797000Y-76699000D01*
X71972000Y-74299000D02*
X71972000Y-76699000D01*
X59547000Y-96199000D02*
X53747000Y-96199000D01*
X59547000Y-93799000D02*
X59547000Y-96199000D01*
X53747000Y-93799000D02*
X59547000Y-93799000D01*
X53822000Y-93799000D02*
X53822000Y-96199000D01*
X53947000Y-93799000D02*
X53947000Y-96199000D01*
X53722000Y-96199000D02*
X53722000Y-93799000D01*
X54122000Y-93799000D02*
X54122000Y-96199000D01*
X54297000Y-93799000D02*
X54297000Y-96199000D01*
X54472000Y-93799000D02*
X54472000Y-96199000D01*
D12*
X48257000Y-53099000D02*
X48257000Y-55639000D01*
X45717000Y-55639000D02*
X48257000Y-55639000D01*
X45717000Y-37859000D02*
X45717000Y-55639000D01*
X48257000Y-37859000D02*
X45717000Y-37859000D01*
D10*
G36*
X54736360Y-41817432D02*
G01*
X54936360Y-41817432D01*
X54936360Y-41917432D01*
X54736360Y-41917432D01*
X54736360Y-41817432D01*
G37*
X54736360Y-41817432D02*
X54936360Y-41817432D01*
X54936360Y-41917432D01*
X54736360Y-41917432D01*
X54736360Y-41817432D01*
G36*
X54136360Y-42217432D02*
G01*
X54936360Y-42217432D01*
X54936360Y-42317432D01*
X54136360Y-42317432D01*
X54136360Y-42217432D01*
G37*
X54136360Y-42217432D02*
X54936360Y-42217432D01*
X54936360Y-42317432D01*
X54136360Y-42317432D01*
X54136360Y-42217432D01*
G36*
X54136360Y-41817432D02*
G01*
X54236360Y-41817432D01*
X54236360Y-42317432D01*
X54136360Y-42317432D01*
X54136360Y-41817432D01*
G37*
X54136360Y-41817432D02*
X54236360Y-41817432D01*
X54236360Y-42317432D01*
X54136360Y-42317432D01*
X54136360Y-41817432D01*
G36*
X54536360Y-42017432D02*
G01*
X54636360Y-42017432D01*
X54636360Y-42117432D01*
X54536360Y-42117432D01*
X54536360Y-42017432D01*
G37*
X54536360Y-42017432D02*
X54636360Y-42017432D01*
X54636360Y-42117432D01*
X54536360Y-42117432D01*
X54536360Y-42017432D01*
G36*
X54136360Y-41817432D02*
G01*
X54436360Y-41817432D01*
X54436360Y-41917432D01*
X54136360Y-41917432D01*
X54136360Y-41817432D01*
G37*
X54136360Y-41817432D02*
X54436360Y-41817432D01*
X54436360Y-41917432D01*
X54136360Y-41917432D01*
X54136360Y-41817432D01*
D12*
X50797000Y-53099000D02*
X50797000Y-55639000D01*
X48257000Y-53099000D02*
X50797000Y-53099000D01*
X78737000Y-37859000D02*
X48257000Y-37859000D01*
X78737000Y-55639000D02*
X78737000Y-37859000D01*
X48257000Y-55639000D02*
X78737000Y-55639000D01*
D13*
X82327000Y-52579000D02*
X80997000Y-52579000D01*
X82327000Y-51249000D02*
X82327000Y-52579000D01*
X82327000Y-49979000D02*
X79667000Y-49979000D01*
X79667000Y-49979000D02*
X79667000Y-37219000D01*
X82327000Y-49979000D02*
X82327000Y-37219000D01*
X82327000Y-37219000D02*
X79667000Y-37219000D01*
X136497000Y-99874000D02*
X136497000Y-97874000D01*
X141497000Y-99874000D02*
X141497000Y-97874000D01*
X141497000Y-97874000D02*
X136497000Y-97874000D01*
X136497000Y-99874000D02*
X135897000Y-99874000D01*
X142097000Y-99874000D02*
X141497000Y-99874000D01*
X135897000Y-111974000D02*
X142097000Y-111974000D01*
X142097000Y-99874000D02*
X142097000Y-102249000D01*
X142097000Y-103899000D02*
X142097000Y-105249000D01*
X142097000Y-106899000D02*
X142097000Y-109299000D01*
X142097000Y-110849000D02*
X142097000Y-111974000D01*
X135897000Y-110399000D02*
X135897000Y-99874000D01*
X142097000Y-110849000D02*
X143497000Y-110849000D01*
X142097000Y-109299000D02*
X143497000Y-109299000D01*
D14*
X66447000Y-127999000D02*
X71497000Y-127999000D01*
X66447000Y-123749000D02*
X66447000Y-127999000D01*
X66447000Y-112499000D02*
X66447000Y-116749000D01*
X71997000Y-112499000D02*
X66447000Y-112499000D01*
X87547000Y-127999000D02*
X82497000Y-127999000D01*
X87547000Y-123749000D02*
X87547000Y-127999000D01*
X87502000Y-112499000D02*
X87547000Y-116749000D01*
X81997000Y-112499000D02*
X87502000Y-112499000D01*
D13*
X117167000Y-60579000D02*
X117167000Y-59249000D01*
X118497000Y-60579000D02*
X117167000Y-60579000D01*
X117167000Y-57979000D02*
X117167000Y-55379000D01*
X119767000Y-57979000D02*
X117167000Y-57979000D01*
X119767000Y-60579000D02*
X119767000Y-57979000D01*
X117167000Y-55379000D02*
X127447000Y-55379000D01*
X119767000Y-60579000D02*
X127447000Y-60579000D01*
X127447000Y-60579000D02*
X127447000Y-55379000D01*
D10*
X129533904Y-122970428D02*
X128733904Y-122970428D01*
X128733904Y-122779952D01*
X128772000Y-122665666D01*
X128848190Y-122589476D01*
X128924380Y-122551380D01*
X129076761Y-122513285D01*
X129191047Y-122513285D01*
X129343428Y-122551380D01*
X129419619Y-122589476D01*
X129495809Y-122665666D01*
X129533904Y-122779952D01*
X129533904Y-122970428D01*
X129533904Y-121751380D02*
X129533904Y-122208523D01*
X129533904Y-121979952D02*
X128733904Y-121979952D01*
X128848190Y-122056142D01*
X128924380Y-122132333D01*
X128962476Y-122208523D01*
X129076761Y-121294238D02*
X129038666Y-121370428D01*
X129000571Y-121408523D01*
X128924380Y-121446619D01*
X128886285Y-121446619D01*
X128810095Y-121408523D01*
X128772000Y-121370428D01*
X128733904Y-121294238D01*
X128733904Y-121141857D01*
X128772000Y-121065666D01*
X128810095Y-121027571D01*
X128886285Y-120989476D01*
X128924380Y-120989476D01*
X129000571Y-121027571D01*
X129038666Y-121065666D01*
X129076761Y-121141857D01*
X129076761Y-121294238D01*
X129114857Y-121370428D01*
X129152952Y-121408523D01*
X129229142Y-121446619D01*
X129381523Y-121446619D01*
X129457714Y-121408523D01*
X129495809Y-121370428D01*
X129533904Y-121294238D01*
X129533904Y-121141857D01*
X129495809Y-121065666D01*
X129457714Y-121027571D01*
X129381523Y-120989476D01*
X129229142Y-120989476D01*
X129152952Y-121027571D01*
X129114857Y-121065666D01*
X129076761Y-121141857D01*
X111033904Y-121220428D02*
X110233904Y-121220428D01*
X110233904Y-121029952D01*
X110272000Y-120915666D01*
X110348190Y-120839476D01*
X110424380Y-120801380D01*
X110576761Y-120763285D01*
X110691047Y-120763285D01*
X110843428Y-120801380D01*
X110919619Y-120839476D01*
X110995809Y-120915666D01*
X111033904Y-121029952D01*
X111033904Y-121220428D01*
X111033904Y-120001380D02*
X111033904Y-120458523D01*
X111033904Y-120229952D02*
X110233904Y-120229952D01*
X110348190Y-120306142D01*
X110424380Y-120382333D01*
X110462476Y-120458523D01*
X110233904Y-119734714D02*
X110233904Y-119201380D01*
X111033904Y-119544238D01*
X93033904Y-120970428D02*
X92233904Y-120970428D01*
X92233904Y-120779952D01*
X92272000Y-120665666D01*
X92348190Y-120589476D01*
X92424380Y-120551380D01*
X92576761Y-120513285D01*
X92691047Y-120513285D01*
X92843428Y-120551380D01*
X92919619Y-120589476D01*
X92995809Y-120665666D01*
X93033904Y-120779952D01*
X93033904Y-120970428D01*
X93033904Y-119751380D02*
X93033904Y-120208523D01*
X93033904Y-119979952D02*
X92233904Y-119979952D01*
X92348190Y-120056142D01*
X92424380Y-120132333D01*
X92462476Y-120208523D01*
X92233904Y-119065666D02*
X92233904Y-119218047D01*
X92272000Y-119294238D01*
X92310095Y-119332333D01*
X92424380Y-119408523D01*
X92576761Y-119446619D01*
X92881523Y-119446619D01*
X92957714Y-119408523D01*
X92995809Y-119370428D01*
X93033904Y-119294238D01*
X93033904Y-119141857D01*
X92995809Y-119065666D01*
X92957714Y-119027571D01*
X92881523Y-118989476D01*
X92691047Y-118989476D01*
X92614857Y-119027571D01*
X92576761Y-119065666D01*
X92538666Y-119141857D01*
X92538666Y-119294238D01*
X92576761Y-119370428D01*
X92614857Y-119408523D01*
X92691047Y-119446619D01*
X118533904Y-104970428D02*
X117733904Y-104970428D01*
X117733904Y-104779952D01*
X117772000Y-104665666D01*
X117848190Y-104589476D01*
X117924380Y-104551380D01*
X118076761Y-104513285D01*
X118191047Y-104513285D01*
X118343428Y-104551380D01*
X118419619Y-104589476D01*
X118495809Y-104665666D01*
X118533904Y-104779952D01*
X118533904Y-104970428D01*
X118533904Y-103751380D02*
X118533904Y-104208523D01*
X118533904Y-103979952D02*
X117733904Y-103979952D01*
X117848190Y-104056142D01*
X117924380Y-104132333D01*
X117962476Y-104208523D01*
X117733904Y-103027571D02*
X117733904Y-103408523D01*
X118114857Y-103446619D01*
X118076761Y-103408523D01*
X118038666Y-103332333D01*
X118038666Y-103141857D01*
X118076761Y-103065666D01*
X118114857Y-103027571D01*
X118191047Y-102989476D01*
X118381523Y-102989476D01*
X118457714Y-103027571D01*
X118495809Y-103065666D01*
X118533904Y-103141857D01*
X118533904Y-103332333D01*
X118495809Y-103408523D01*
X118457714Y-103446619D01*
X100033904Y-102720428D02*
X99233904Y-102720428D01*
X99233904Y-102529952D01*
X99272000Y-102415666D01*
X99348190Y-102339476D01*
X99424380Y-102301380D01*
X99576761Y-102263285D01*
X99691047Y-102263285D01*
X99843428Y-102301380D01*
X99919619Y-102339476D01*
X99995809Y-102415666D01*
X100033904Y-102529952D01*
X100033904Y-102720428D01*
X100033904Y-101501380D02*
X100033904Y-101958523D01*
X100033904Y-101729952D02*
X99233904Y-101729952D01*
X99348190Y-101806142D01*
X99424380Y-101882333D01*
X99462476Y-101958523D01*
X99500571Y-100815666D02*
X100033904Y-100815666D01*
X99195809Y-101006142D02*
X99767238Y-101196619D01*
X99767238Y-100701380D01*
X84275571Y-103935904D02*
X84275571Y-103135904D01*
X84466047Y-103135904D01*
X84580333Y-103174000D01*
X84656523Y-103250190D01*
X84694619Y-103326380D01*
X84732714Y-103478761D01*
X84732714Y-103593047D01*
X84694619Y-103745428D01*
X84656523Y-103821619D01*
X84580333Y-103897809D01*
X84466047Y-103935904D01*
X84275571Y-103935904D01*
X85494619Y-103935904D02*
X85037476Y-103935904D01*
X85266047Y-103935904D02*
X85266047Y-103135904D01*
X85189857Y-103250190D01*
X85113666Y-103326380D01*
X85037476Y-103364476D01*
X85761285Y-103135904D02*
X86256523Y-103135904D01*
X85989857Y-103440666D01*
X86104142Y-103440666D01*
X86180333Y-103478761D01*
X86218428Y-103516857D01*
X86256523Y-103593047D01*
X86256523Y-103783523D01*
X86218428Y-103859714D01*
X86180333Y-103897809D01*
X86104142Y-103935904D01*
X85875571Y-103935904D01*
X85799380Y-103897809D01*
X85761285Y-103859714D01*
X81033904Y-102970428D02*
X80233904Y-102970428D01*
X80233904Y-102779952D01*
X80272000Y-102665666D01*
X80348190Y-102589476D01*
X80424380Y-102551380D01*
X80576761Y-102513285D01*
X80691047Y-102513285D01*
X80843428Y-102551380D01*
X80919619Y-102589476D01*
X80995809Y-102665666D01*
X81033904Y-102779952D01*
X81033904Y-102970428D01*
X81033904Y-101751380D02*
X81033904Y-102208523D01*
X81033904Y-101979952D02*
X80233904Y-101979952D01*
X80348190Y-102056142D01*
X80424380Y-102132333D01*
X80462476Y-102208523D01*
X80310095Y-101446619D02*
X80272000Y-101408523D01*
X80233904Y-101332333D01*
X80233904Y-101141857D01*
X80272000Y-101065666D01*
X80310095Y-101027571D01*
X80386285Y-100989476D01*
X80462476Y-100989476D01*
X80576761Y-101027571D01*
X81033904Y-101484714D01*
X81033904Y-100989476D01*
X65533904Y-124720428D02*
X64733904Y-124720428D01*
X64733904Y-124529952D01*
X64772000Y-124415666D01*
X64848190Y-124339476D01*
X64924380Y-124301380D01*
X65076761Y-124263285D01*
X65191047Y-124263285D01*
X65343428Y-124301380D01*
X65419619Y-124339476D01*
X65495809Y-124415666D01*
X65533904Y-124529952D01*
X65533904Y-124720428D01*
X65533904Y-123501380D02*
X65533904Y-123958523D01*
X65533904Y-123729952D02*
X64733904Y-123729952D01*
X64848190Y-123806142D01*
X64924380Y-123882333D01*
X64962476Y-123958523D01*
X65533904Y-122739476D02*
X65533904Y-123196619D01*
X65533904Y-122968047D02*
X64733904Y-122968047D01*
X64848190Y-123044238D01*
X64924380Y-123120428D01*
X64962476Y-123196619D01*
X119275571Y-94435904D02*
X119275571Y-93635904D01*
X119466047Y-93635904D01*
X119580333Y-93674000D01*
X119656523Y-93750190D01*
X119694619Y-93826380D01*
X119732714Y-93978761D01*
X119732714Y-94093047D01*
X119694619Y-94245428D01*
X119656523Y-94321619D01*
X119580333Y-94397809D01*
X119466047Y-94435904D01*
X119275571Y-94435904D01*
X120494619Y-94435904D02*
X120037476Y-94435904D01*
X120266047Y-94435904D02*
X120266047Y-93635904D01*
X120189857Y-93750190D01*
X120113666Y-93826380D01*
X120037476Y-93864476D01*
X120989857Y-93635904D02*
X121066047Y-93635904D01*
X121142238Y-93674000D01*
X121180333Y-93712095D01*
X121218428Y-93788285D01*
X121256523Y-93940666D01*
X121256523Y-94131142D01*
X121218428Y-94283523D01*
X121180333Y-94359714D01*
X121142238Y-94397809D01*
X121066047Y-94435904D01*
X120989857Y-94435904D01*
X120913666Y-94397809D01*
X120875571Y-94359714D01*
X120837476Y-94283523D01*
X120799380Y-94131142D01*
X120799380Y-93940666D01*
X120837476Y-93788285D01*
X120875571Y-93712095D01*
X120913666Y-93674000D01*
X120989857Y-93635904D01*
X101156523Y-91185904D02*
X101156523Y-90385904D01*
X101347000Y-90385904D01*
X101461285Y-90424000D01*
X101537476Y-90500190D01*
X101575571Y-90576380D01*
X101613666Y-90728761D01*
X101613666Y-90843047D01*
X101575571Y-90995428D01*
X101537476Y-91071619D01*
X101461285Y-91147809D01*
X101347000Y-91185904D01*
X101156523Y-91185904D01*
X101994619Y-91185904D02*
X102147000Y-91185904D01*
X102223190Y-91147809D01*
X102261285Y-91109714D01*
X102337476Y-90995428D01*
X102375571Y-90843047D01*
X102375571Y-90538285D01*
X102337476Y-90462095D01*
X102299380Y-90424000D01*
X102223190Y-90385904D01*
X102070809Y-90385904D01*
X101994619Y-90424000D01*
X101956523Y-90462095D01*
X101918428Y-90538285D01*
X101918428Y-90728761D01*
X101956523Y-90804952D01*
X101994619Y-90843047D01*
X102070809Y-90881142D01*
X102223190Y-90881142D01*
X102299380Y-90843047D01*
X102337476Y-90804952D01*
X102375571Y-90728761D01*
X83656523Y-86435904D02*
X83656523Y-85635904D01*
X83847000Y-85635904D01*
X83961285Y-85674000D01*
X84037476Y-85750190D01*
X84075571Y-85826380D01*
X84113666Y-85978761D01*
X84113666Y-86093047D01*
X84075571Y-86245428D01*
X84037476Y-86321619D01*
X83961285Y-86397809D01*
X83847000Y-86435904D01*
X83656523Y-86435904D01*
X84570809Y-85978761D02*
X84494619Y-85940666D01*
X84456523Y-85902571D01*
X84418428Y-85826380D01*
X84418428Y-85788285D01*
X84456523Y-85712095D01*
X84494619Y-85674000D01*
X84570809Y-85635904D01*
X84723190Y-85635904D01*
X84799380Y-85674000D01*
X84837476Y-85712095D01*
X84875571Y-85788285D01*
X84875571Y-85826380D01*
X84837476Y-85902571D01*
X84799380Y-85940666D01*
X84723190Y-85978761D01*
X84570809Y-85978761D01*
X84494619Y-86016857D01*
X84456523Y-86054952D01*
X84418428Y-86131142D01*
X84418428Y-86283523D01*
X84456523Y-86359714D01*
X84494619Y-86397809D01*
X84570809Y-86435904D01*
X84723190Y-86435904D01*
X84799380Y-86397809D01*
X84837476Y-86359714D01*
X84875571Y-86283523D01*
X84875571Y-86131142D01*
X84837476Y-86054952D01*
X84799380Y-86016857D01*
X84723190Y-85978761D01*
X73656523Y-95285904D02*
X73656523Y-94485904D01*
X73847000Y-94485904D01*
X73961285Y-94524000D01*
X74037476Y-94600190D01*
X74075571Y-94676380D01*
X74113666Y-94828761D01*
X74113666Y-94943047D01*
X74075571Y-95095428D01*
X74037476Y-95171619D01*
X73961285Y-95247809D01*
X73847000Y-95285904D01*
X73656523Y-95285904D01*
X74380333Y-94485904D02*
X74913666Y-94485904D01*
X74570809Y-95285904D01*
X56156523Y-114785904D02*
X56156523Y-113985904D01*
X56347000Y-113985904D01*
X56461285Y-114024000D01*
X56537476Y-114100190D01*
X56575571Y-114176380D01*
X56613666Y-114328761D01*
X56613666Y-114443047D01*
X56575571Y-114595428D01*
X56537476Y-114671619D01*
X56461285Y-114747809D01*
X56347000Y-114785904D01*
X56156523Y-114785904D01*
X57299380Y-113985904D02*
X57147000Y-113985904D01*
X57070809Y-114024000D01*
X57032714Y-114062095D01*
X56956523Y-114176380D01*
X56918428Y-114328761D01*
X56918428Y-114633523D01*
X56956523Y-114709714D01*
X56994619Y-114747809D01*
X57070809Y-114785904D01*
X57223190Y-114785904D01*
X57299380Y-114747809D01*
X57337476Y-114709714D01*
X57375571Y-114633523D01*
X57375571Y-114443047D01*
X57337476Y-114366857D01*
X57299380Y-114328761D01*
X57223190Y-114290666D01*
X57070809Y-114290666D01*
X56994619Y-114328761D01*
X56956523Y-114366857D01*
X56918428Y-114443047D01*
X119656523Y-76935904D02*
X119656523Y-76135904D01*
X119847000Y-76135904D01*
X119961285Y-76174000D01*
X120037476Y-76250190D01*
X120075571Y-76326380D01*
X120113666Y-76478761D01*
X120113666Y-76593047D01*
X120075571Y-76745428D01*
X120037476Y-76821619D01*
X119961285Y-76897809D01*
X119847000Y-76935904D01*
X119656523Y-76935904D01*
X120837476Y-76135904D02*
X120456523Y-76135904D01*
X120418428Y-76516857D01*
X120456523Y-76478761D01*
X120532714Y-76440666D01*
X120723190Y-76440666D01*
X120799380Y-76478761D01*
X120837476Y-76516857D01*
X120875571Y-76593047D01*
X120875571Y-76783523D01*
X120837476Y-76859714D01*
X120799380Y-76897809D01*
X120723190Y-76935904D01*
X120532714Y-76935904D01*
X120456523Y-76897809D01*
X120418428Y-76859714D01*
X101081523Y-73935904D02*
X101081523Y-73135904D01*
X101272000Y-73135904D01*
X101386285Y-73174000D01*
X101462476Y-73250190D01*
X101500571Y-73326380D01*
X101538666Y-73478761D01*
X101538666Y-73593047D01*
X101500571Y-73745428D01*
X101462476Y-73821619D01*
X101386285Y-73897809D01*
X101272000Y-73935904D01*
X101081523Y-73935904D01*
X102224380Y-73402571D02*
X102224380Y-73935904D01*
X102033904Y-73097809D02*
X101843428Y-73669238D01*
X102338666Y-73669238D01*
X83656523Y-68935904D02*
X83656523Y-68135904D01*
X83847000Y-68135904D01*
X83961285Y-68174000D01*
X84037476Y-68250190D01*
X84075571Y-68326380D01*
X84113666Y-68478761D01*
X84113666Y-68593047D01*
X84075571Y-68745428D01*
X84037476Y-68821619D01*
X83961285Y-68897809D01*
X83847000Y-68935904D01*
X83656523Y-68935904D01*
X84380333Y-68135904D02*
X84875571Y-68135904D01*
X84608904Y-68440666D01*
X84723190Y-68440666D01*
X84799380Y-68478761D01*
X84837476Y-68516857D01*
X84875571Y-68593047D01*
X84875571Y-68783523D01*
X84837476Y-68859714D01*
X84799380Y-68897809D01*
X84723190Y-68935904D01*
X84494619Y-68935904D01*
X84418428Y-68897809D01*
X84380333Y-68859714D01*
X73656523Y-77785904D02*
X73656523Y-76985904D01*
X73847000Y-76985904D01*
X73961285Y-77024000D01*
X74037476Y-77100190D01*
X74075571Y-77176380D01*
X74113666Y-77328761D01*
X74113666Y-77443047D01*
X74075571Y-77595428D01*
X74037476Y-77671619D01*
X73961285Y-77747809D01*
X73847000Y-77785904D01*
X73656523Y-77785904D01*
X74418428Y-77062095D02*
X74456523Y-77024000D01*
X74532714Y-76985904D01*
X74723190Y-76985904D01*
X74799380Y-77024000D01*
X74837476Y-77062095D01*
X74875571Y-77138285D01*
X74875571Y-77214476D01*
X74837476Y-77328761D01*
X74380333Y-77785904D01*
X74875571Y-77785904D01*
X56156523Y-97285904D02*
X56156523Y-96485904D01*
X56347000Y-96485904D01*
X56461285Y-96524000D01*
X56537476Y-96600190D01*
X56575571Y-96676380D01*
X56613666Y-96828761D01*
X56613666Y-96943047D01*
X56575571Y-97095428D01*
X56537476Y-97171619D01*
X56461285Y-97247809D01*
X56347000Y-97285904D01*
X56156523Y-97285904D01*
X57375571Y-97285904D02*
X56918428Y-97285904D01*
X57147000Y-97285904D02*
X57147000Y-96485904D01*
X57070809Y-96600190D01*
X56994619Y-96676380D01*
X56918428Y-96714476D01*
X49088904Y-52511348D02*
X49088904Y-52054205D01*
X49888904Y-52282776D02*
X49088904Y-52282776D01*
X49088904Y-51863729D02*
X49888904Y-51330395D01*
X49088904Y-51330395D02*
X49888904Y-51863729D01*
X49088904Y-50873252D02*
X49088904Y-50797062D01*
X49127000Y-50720872D01*
X49165095Y-50682776D01*
X49241285Y-50644681D01*
X49393666Y-50606586D01*
X49584142Y-50606586D01*
X49736523Y-50644681D01*
X49812714Y-50682776D01*
X49850809Y-50720872D01*
X49888904Y-50797062D01*
X49888904Y-50873252D01*
X49850809Y-50949443D01*
X49812714Y-50987538D01*
X49736523Y-51025633D01*
X49584142Y-51063729D01*
X49393666Y-51063729D01*
X49241285Y-51025633D01*
X49165095Y-50987538D01*
X49127000Y-50949443D01*
X49088904Y-50873252D01*
X49050809Y-49692300D02*
X50079380Y-50378014D01*
X49888904Y-49425633D02*
X49088904Y-49425633D01*
X49088904Y-49235157D01*
X49127000Y-49120872D01*
X49203190Y-49044681D01*
X49279380Y-49006586D01*
X49431761Y-48968491D01*
X49546047Y-48968491D01*
X49698428Y-49006586D01*
X49774619Y-49044681D01*
X49850809Y-49120872D01*
X49888904Y-49235157D01*
X49888904Y-49425633D01*
X49088904Y-48701824D02*
X49088904Y-48206586D01*
X49393666Y-48473252D01*
X49393666Y-48358967D01*
X49431761Y-48282776D01*
X49469857Y-48244681D01*
X49546047Y-48206586D01*
X49736523Y-48206586D01*
X49812714Y-48244681D01*
X49850809Y-48282776D01*
X49888904Y-48358967D01*
X49888904Y-48587538D01*
X49850809Y-48663729D01*
X49812714Y-48701824D01*
X52428904Y-52800476D02*
X51628904Y-52800476D01*
X51628904Y-52610000D01*
X51667000Y-52495714D01*
X51743190Y-52419523D01*
X51819380Y-52381428D01*
X51971761Y-52343333D01*
X52086047Y-52343333D01*
X52238428Y-52381428D01*
X52314619Y-52419523D01*
X52390809Y-52495714D01*
X52428904Y-52610000D01*
X52428904Y-52800476D01*
X51705095Y-52038571D02*
X51667000Y-52000476D01*
X51628904Y-51924285D01*
X51628904Y-51733809D01*
X51667000Y-51657619D01*
X51705095Y-51619523D01*
X51781285Y-51581428D01*
X51857476Y-51581428D01*
X51971761Y-51619523D01*
X52428904Y-52076666D01*
X52428904Y-51581428D01*
X62588904Y-52800476D02*
X61788904Y-52800476D01*
X61788904Y-52610000D01*
X61827000Y-52495714D01*
X61903190Y-52419523D01*
X61979380Y-52381428D01*
X62131761Y-52343333D01*
X62246047Y-52343333D01*
X62398428Y-52381428D01*
X62474619Y-52419523D01*
X62550809Y-52495714D01*
X62588904Y-52610000D01*
X62588904Y-52800476D01*
X61788904Y-51848095D02*
X61788904Y-51771904D01*
X61827000Y-51695714D01*
X61865095Y-51657619D01*
X61941285Y-51619523D01*
X62093666Y-51581428D01*
X62284142Y-51581428D01*
X62436523Y-51619523D01*
X62512714Y-51657619D01*
X62550809Y-51695714D01*
X62588904Y-51771904D01*
X62588904Y-51848095D01*
X62550809Y-51924285D01*
X62512714Y-51962380D01*
X62436523Y-52000476D01*
X62284142Y-52038571D01*
X62093666Y-52038571D01*
X61941285Y-52000476D01*
X61865095Y-51962380D01*
X61827000Y-51924285D01*
X61788904Y-51848095D01*
X60048904Y-52800476D02*
X59248904Y-52800476D01*
X59248904Y-52610000D01*
X59287000Y-52495714D01*
X59363190Y-52419523D01*
X59439380Y-52381428D01*
X59591761Y-52343333D01*
X59706047Y-52343333D01*
X59858428Y-52381428D01*
X59934619Y-52419523D01*
X60010809Y-52495714D01*
X60048904Y-52610000D01*
X60048904Y-52800476D01*
X60048904Y-51581428D02*
X60048904Y-52038571D01*
X60048904Y-51810000D02*
X59248904Y-51810000D01*
X59363190Y-51886190D01*
X59439380Y-51962380D01*
X59477476Y-52038571D01*
X56747000Y-52819523D02*
X56708904Y-52895714D01*
X56708904Y-53010000D01*
X56747000Y-53124285D01*
X56823190Y-53200476D01*
X56899380Y-53238571D01*
X57051761Y-53276666D01*
X57166047Y-53276666D01*
X57318428Y-53238571D01*
X57394619Y-53200476D01*
X57470809Y-53124285D01*
X57508904Y-53010000D01*
X57508904Y-52933809D01*
X57470809Y-52819523D01*
X57432714Y-52781428D01*
X57166047Y-52781428D01*
X57166047Y-52933809D01*
X57508904Y-52438571D02*
X56708904Y-52438571D01*
X57508904Y-51981428D01*
X56708904Y-51981428D01*
X57508904Y-51600476D02*
X56708904Y-51600476D01*
X56708904Y-51410000D01*
X56747000Y-51295714D01*
X56823190Y-51219523D01*
X56899380Y-51181428D01*
X57051761Y-51143333D01*
X57166047Y-51143333D01*
X57318428Y-51181428D01*
X57394619Y-51219523D01*
X57470809Y-51295714D01*
X57508904Y-51410000D01*
X57508904Y-51600476D01*
X54207000Y-52819523D02*
X54168904Y-52895714D01*
X54168904Y-53010000D01*
X54207000Y-53124285D01*
X54283190Y-53200476D01*
X54359380Y-53238571D01*
X54511761Y-53276666D01*
X54626047Y-53276666D01*
X54778428Y-53238571D01*
X54854619Y-53200476D01*
X54930809Y-53124285D01*
X54968904Y-53010000D01*
X54968904Y-52933809D01*
X54930809Y-52819523D01*
X54892714Y-52781428D01*
X54626047Y-52781428D01*
X54626047Y-52933809D01*
X54968904Y-52438571D02*
X54168904Y-52438571D01*
X54968904Y-51981428D01*
X54168904Y-51981428D01*
X54968904Y-51600476D02*
X54168904Y-51600476D01*
X54168904Y-51410000D01*
X54207000Y-51295714D01*
X54283190Y-51219523D01*
X54359380Y-51181428D01*
X54511761Y-51143333D01*
X54626047Y-51143333D01*
X54778428Y-51181428D01*
X54854619Y-51219523D01*
X54930809Y-51295714D01*
X54968904Y-51410000D01*
X54968904Y-51600476D01*
X65128904Y-52800476D02*
X64328904Y-52800476D01*
X64328904Y-52610000D01*
X64367000Y-52495714D01*
X64443190Y-52419523D01*
X64519380Y-52381428D01*
X64671761Y-52343333D01*
X64786047Y-52343333D01*
X64938428Y-52381428D01*
X65014619Y-52419523D01*
X65090809Y-52495714D01*
X65128904Y-52610000D01*
X65128904Y-52800476D01*
X64595571Y-51657619D02*
X65128904Y-51657619D01*
X64290809Y-51848095D02*
X64862238Y-52038571D01*
X64862238Y-51543333D01*
X67592714Y-52343333D02*
X67630809Y-52381428D01*
X67668904Y-52495714D01*
X67668904Y-52571904D01*
X67630809Y-52686190D01*
X67554619Y-52762380D01*
X67478428Y-52800476D01*
X67326047Y-52838571D01*
X67211761Y-52838571D01*
X67059380Y-52800476D01*
X66983190Y-52762380D01*
X66907000Y-52686190D01*
X66868904Y-52571904D01*
X66868904Y-52495714D01*
X66907000Y-52381428D01*
X66945095Y-52343333D01*
X66868904Y-51657619D02*
X66868904Y-51810000D01*
X66907000Y-51886190D01*
X66945095Y-51924285D01*
X67059380Y-52000476D01*
X67211761Y-52038571D01*
X67516523Y-52038571D01*
X67592714Y-52000476D01*
X67630809Y-51962380D01*
X67668904Y-51886190D01*
X67668904Y-51733809D01*
X67630809Y-51657619D01*
X67592714Y-51619523D01*
X67516523Y-51581428D01*
X67326047Y-51581428D01*
X67249857Y-51619523D01*
X67211761Y-51657619D01*
X67173666Y-51733809D01*
X67173666Y-51886190D01*
X67211761Y-51962380D01*
X67249857Y-52000476D01*
X67326047Y-52038571D01*
X70208904Y-52800476D02*
X69408904Y-52800476D01*
X69408904Y-52610000D01*
X69447000Y-52495714D01*
X69523190Y-52419523D01*
X69599380Y-52381428D01*
X69751761Y-52343333D01*
X69866047Y-52343333D01*
X70018428Y-52381428D01*
X70094619Y-52419523D01*
X70170809Y-52495714D01*
X70208904Y-52610000D01*
X70208904Y-52800476D01*
X69408904Y-52076666D02*
X69408904Y-51543333D01*
X70208904Y-51886190D01*
X72329857Y-52762380D02*
X72329857Y-52495714D01*
X72748904Y-52381428D02*
X72748904Y-52762380D01*
X71948904Y-52762380D01*
X71948904Y-52381428D01*
X71948904Y-51695714D02*
X71948904Y-51848095D01*
X71987000Y-51924285D01*
X72025095Y-51962380D01*
X72139380Y-52038571D01*
X72291761Y-52076666D01*
X72596523Y-52076666D01*
X72672714Y-52038571D01*
X72710809Y-52000476D01*
X72748904Y-51924285D01*
X72748904Y-51771904D01*
X72710809Y-51695714D01*
X72672714Y-51657619D01*
X72596523Y-51619523D01*
X72406047Y-51619523D01*
X72329857Y-51657619D01*
X72291761Y-51695714D01*
X72253666Y-51771904D01*
X72253666Y-51924285D01*
X72291761Y-52000476D01*
X72329857Y-52038571D01*
X72406047Y-52076666D01*
X74869857Y-52533809D02*
X74907952Y-52419523D01*
X74946047Y-52381428D01*
X75022238Y-52343333D01*
X75136523Y-52343333D01*
X75212714Y-52381428D01*
X75250809Y-52419523D01*
X75288904Y-52495714D01*
X75288904Y-52800476D01*
X74488904Y-52800476D01*
X74488904Y-52533809D01*
X74527000Y-52457619D01*
X74565095Y-52419523D01*
X74641285Y-52381428D01*
X74717476Y-52381428D01*
X74793666Y-52419523D01*
X74831761Y-52457619D01*
X74869857Y-52533809D01*
X74869857Y-52800476D01*
X74755571Y-51657619D02*
X75288904Y-51657619D01*
X74450809Y-51848095D02*
X75022238Y-52038571D01*
X75022238Y-51543333D01*
X77409857Y-52533809D02*
X77447952Y-52419523D01*
X77486047Y-52381428D01*
X77562238Y-52343333D01*
X77676523Y-52343333D01*
X77752714Y-52381428D01*
X77790809Y-52419523D01*
X77828904Y-52495714D01*
X77828904Y-52800476D01*
X77028904Y-52800476D01*
X77028904Y-52533809D01*
X77067000Y-52457619D01*
X77105095Y-52419523D01*
X77181285Y-52381428D01*
X77257476Y-52381428D01*
X77333666Y-52419523D01*
X77371761Y-52457619D01*
X77409857Y-52533809D01*
X77409857Y-52800476D01*
X77028904Y-51619523D02*
X77028904Y-52000476D01*
X77409857Y-52038571D01*
X77371761Y-52000476D01*
X77333666Y-51924285D01*
X77333666Y-51733809D01*
X77371761Y-51657619D01*
X77409857Y-51619523D01*
X77486047Y-51581428D01*
X77676523Y-51581428D01*
X77752714Y-51619523D01*
X77790809Y-51657619D01*
X77828904Y-51733809D01*
X77828904Y-51924285D01*
X77790809Y-52000476D01*
X77752714Y-52038571D01*
X77409857Y-41611809D02*
X77447952Y-41497523D01*
X77486047Y-41459428D01*
X77562238Y-41421333D01*
X77676523Y-41421333D01*
X77752714Y-41459428D01*
X77790809Y-41497523D01*
X77828904Y-41573714D01*
X77828904Y-41878476D01*
X77028904Y-41878476D01*
X77028904Y-41611809D01*
X77067000Y-41535619D01*
X77105095Y-41497523D01*
X77181285Y-41459428D01*
X77257476Y-41459428D01*
X77333666Y-41497523D01*
X77371761Y-41535619D01*
X77409857Y-41611809D01*
X77409857Y-41878476D01*
X77028904Y-40735619D02*
X77028904Y-40888000D01*
X77067000Y-40964190D01*
X77105095Y-41002285D01*
X77219380Y-41078476D01*
X77371761Y-41116571D01*
X77676523Y-41116571D01*
X77752714Y-41078476D01*
X77790809Y-41040380D01*
X77828904Y-40964190D01*
X77828904Y-40811809D01*
X77790809Y-40735619D01*
X77752714Y-40697523D01*
X77676523Y-40659428D01*
X77486047Y-40659428D01*
X77409857Y-40697523D01*
X77371761Y-40735619D01*
X77333666Y-40811809D01*
X77333666Y-40964190D01*
X77371761Y-41040380D01*
X77409857Y-41078476D01*
X77486047Y-41116571D01*
X72329857Y-41611809D02*
X72367952Y-41497523D01*
X72406047Y-41459428D01*
X72482238Y-41421333D01*
X72596523Y-41421333D01*
X72672714Y-41459428D01*
X72710809Y-41497523D01*
X72748904Y-41573714D01*
X72748904Y-41878476D01*
X71948904Y-41878476D01*
X71948904Y-41611809D01*
X71987000Y-41535619D01*
X72025095Y-41497523D01*
X72101285Y-41459428D01*
X72177476Y-41459428D01*
X72253666Y-41497523D01*
X72291761Y-41535619D01*
X72329857Y-41611809D01*
X72329857Y-41878476D01*
X71948904Y-41154666D02*
X71948904Y-40659428D01*
X72253666Y-40926095D01*
X72253666Y-40811809D01*
X72291761Y-40735619D01*
X72329857Y-40697523D01*
X72406047Y-40659428D01*
X72596523Y-40659428D01*
X72672714Y-40697523D01*
X72710809Y-40735619D01*
X72748904Y-40811809D01*
X72748904Y-41040380D01*
X72710809Y-41116571D01*
X72672714Y-41154666D01*
X69789857Y-41611809D02*
X69827952Y-41497523D01*
X69866047Y-41459428D01*
X69942238Y-41421333D01*
X70056523Y-41421333D01*
X70132714Y-41459428D01*
X70170809Y-41497523D01*
X70208904Y-41573714D01*
X70208904Y-41878476D01*
X69408904Y-41878476D01*
X69408904Y-41611809D01*
X69447000Y-41535619D01*
X69485095Y-41497523D01*
X69561285Y-41459428D01*
X69637476Y-41459428D01*
X69713666Y-41497523D01*
X69751761Y-41535619D01*
X69789857Y-41611809D01*
X69789857Y-41878476D01*
X70208904Y-40659428D02*
X70208904Y-41116571D01*
X70208904Y-40888000D02*
X69408904Y-40888000D01*
X69523190Y-40964190D01*
X69599380Y-41040380D01*
X69637476Y-41116571D01*
X59629857Y-41554666D02*
X59629857Y-41821333D01*
X60048904Y-41821333D02*
X59248904Y-41821333D01*
X59248904Y-41440380D01*
X59515571Y-40792761D02*
X60048904Y-40792761D01*
X59210809Y-40983238D02*
X59782238Y-41173714D01*
X59782238Y-40678476D01*
X56708904Y-42354666D02*
X57508904Y-42088000D01*
X56708904Y-41821333D01*
X57432714Y-41097523D02*
X57470809Y-41135619D01*
X57508904Y-41249904D01*
X57508904Y-41326095D01*
X57470809Y-41440380D01*
X57394619Y-41516571D01*
X57318428Y-41554666D01*
X57166047Y-41592761D01*
X57051761Y-41592761D01*
X56899380Y-41554666D01*
X56823190Y-41516571D01*
X56747000Y-41440380D01*
X56708904Y-41326095D01*
X56708904Y-41249904D01*
X56747000Y-41135619D01*
X56785095Y-41097523D01*
X57432714Y-40297523D02*
X57470809Y-40335619D01*
X57508904Y-40449904D01*
X57508904Y-40526095D01*
X57470809Y-40640380D01*
X57394619Y-40716571D01*
X57318428Y-40754666D01*
X57166047Y-40792761D01*
X57051761Y-40792761D01*
X56899380Y-40754666D01*
X56823190Y-40716571D01*
X56747000Y-40640380D01*
X56708904Y-40526095D01*
X56708904Y-40449904D01*
X56747000Y-40335619D01*
X56785095Y-40297523D01*
X54900809Y-41549213D02*
X54938904Y-41434927D01*
X54938904Y-41244451D01*
X54900809Y-41168260D01*
X54862714Y-41130165D01*
X54786523Y-41092070D01*
X54710333Y-41092070D01*
X54634142Y-41130165D01*
X54596047Y-41168260D01*
X54557952Y-41244451D01*
X54519857Y-41396832D01*
X54481761Y-41473022D01*
X54443666Y-41511118D01*
X54367476Y-41549213D01*
X54291285Y-41549213D01*
X54215095Y-41511118D01*
X54177000Y-41473022D01*
X54138904Y-41396832D01*
X54138904Y-41206356D01*
X54177000Y-41092070D01*
X54138904Y-40863499D02*
X54138904Y-40406356D01*
X54938904Y-40634927D02*
X54138904Y-40634927D01*
X51667000Y-41897523D02*
X51628904Y-41973714D01*
X51628904Y-42088000D01*
X51667000Y-42202285D01*
X51743190Y-42278476D01*
X51819380Y-42316571D01*
X51971761Y-42354666D01*
X52086047Y-42354666D01*
X52238428Y-42316571D01*
X52314619Y-42278476D01*
X52390809Y-42202285D01*
X52428904Y-42088000D01*
X52428904Y-42011809D01*
X52390809Y-41897523D01*
X52352714Y-41859428D01*
X52086047Y-41859428D01*
X52086047Y-42011809D01*
X52428904Y-41516571D02*
X51628904Y-41516571D01*
X52428904Y-41059428D01*
X51628904Y-41059428D01*
X52428904Y-40678476D02*
X51628904Y-40678476D01*
X51628904Y-40488000D01*
X51667000Y-40373714D01*
X51743190Y-40297523D01*
X51819380Y-40259428D01*
X51971761Y-40221333D01*
X52086047Y-40221333D01*
X52238428Y-40259428D01*
X52314619Y-40297523D01*
X52390809Y-40373714D01*
X52428904Y-40488000D01*
X52428904Y-40678476D01*
X49888904Y-41840380D02*
X49507952Y-42107047D01*
X49888904Y-42297523D02*
X49088904Y-42297523D01*
X49088904Y-41992761D01*
X49127000Y-41916571D01*
X49165095Y-41878476D01*
X49241285Y-41840380D01*
X49355571Y-41840380D01*
X49431761Y-41878476D01*
X49469857Y-41916571D01*
X49507952Y-41992761D01*
X49507952Y-42297523D01*
X49660333Y-41535619D02*
X49660333Y-41154666D01*
X49888904Y-41611809D02*
X49088904Y-41345142D01*
X49888904Y-41078476D01*
X49088904Y-40888000D02*
X49888904Y-40697523D01*
X49317476Y-40545142D01*
X49888904Y-40392761D01*
X49088904Y-40202285D01*
X62169857Y-41554666D02*
X62169857Y-41821333D01*
X62588904Y-41821333D02*
X61788904Y-41821333D01*
X61788904Y-41440380D01*
X61788904Y-40754666D02*
X61788904Y-41135619D01*
X62169857Y-41173714D01*
X62131761Y-41135619D01*
X62093666Y-41059428D01*
X62093666Y-40868952D01*
X62131761Y-40792761D01*
X62169857Y-40754666D01*
X62246047Y-40716571D01*
X62436523Y-40716571D01*
X62512714Y-40754666D01*
X62550809Y-40792761D01*
X62588904Y-40868952D01*
X62588904Y-41059428D01*
X62550809Y-41135619D01*
X62512714Y-41173714D01*
X64709857Y-41554666D02*
X64709857Y-41821333D01*
X65128904Y-41821333D02*
X64328904Y-41821333D01*
X64328904Y-41440380D01*
X64328904Y-40792761D02*
X64328904Y-40945142D01*
X64367000Y-41021333D01*
X64405095Y-41059428D01*
X64519380Y-41135619D01*
X64671761Y-41173714D01*
X64976523Y-41173714D01*
X65052714Y-41135619D01*
X65090809Y-41097523D01*
X65128904Y-41021333D01*
X65128904Y-40868952D01*
X65090809Y-40792761D01*
X65052714Y-40754666D01*
X64976523Y-40716571D01*
X64786047Y-40716571D01*
X64709857Y-40754666D01*
X64671761Y-40792761D01*
X64633666Y-40868952D01*
X64633666Y-41021333D01*
X64671761Y-41097523D01*
X64709857Y-41135619D01*
X64786047Y-41173714D01*
X67249857Y-41554666D02*
X67249857Y-41821333D01*
X67668904Y-41821333D02*
X66868904Y-41821333D01*
X66868904Y-41440380D01*
X66868904Y-41211809D02*
X66868904Y-40678476D01*
X67668904Y-41021333D01*
X74869857Y-41611809D02*
X74907952Y-41497523D01*
X74946047Y-41459428D01*
X75022238Y-41421333D01*
X75136523Y-41421333D01*
X75212714Y-41459428D01*
X75250809Y-41497523D01*
X75288904Y-41573714D01*
X75288904Y-41878476D01*
X74488904Y-41878476D01*
X74488904Y-41611809D01*
X74527000Y-41535619D01*
X74565095Y-41497523D01*
X74641285Y-41459428D01*
X74717476Y-41459428D01*
X74793666Y-41497523D01*
X74831761Y-41535619D01*
X74869857Y-41611809D01*
X74869857Y-41878476D01*
X74565095Y-41116571D02*
X74527000Y-41078476D01*
X74488904Y-41002285D01*
X74488904Y-40811809D01*
X74527000Y-40735619D01*
X74565095Y-40697523D01*
X74641285Y-40659428D01*
X74717476Y-40659428D01*
X74831761Y-40697523D01*
X75288904Y-41154666D01*
X75288904Y-40659428D01*
X83711285Y-52177571D02*
X83854142Y-52225190D01*
X83901761Y-52272809D01*
X83949380Y-52368047D01*
X83949380Y-52510904D01*
X83901761Y-52606142D01*
X83854142Y-52653761D01*
X83758904Y-52701380D01*
X83377952Y-52701380D01*
X83377952Y-51701380D01*
X83711285Y-51701380D01*
X83806523Y-51749000D01*
X83854142Y-51796619D01*
X83901761Y-51891857D01*
X83901761Y-51987095D01*
X83854142Y-52082333D01*
X83806523Y-52129952D01*
X83711285Y-52177571D01*
X83377952Y-52177571D01*
X84854142Y-52701380D02*
X84377952Y-52701380D01*
X84377952Y-51701380D01*
X85187476Y-51701380D02*
X85187476Y-52510904D01*
X85235095Y-52606142D01*
X85282714Y-52653761D01*
X85377952Y-52701380D01*
X85568428Y-52701380D01*
X85663666Y-52653761D01*
X85711285Y-52606142D01*
X85758904Y-52510904D01*
X85758904Y-51701380D01*
X86235095Y-52177571D02*
X86568428Y-52177571D01*
X86711285Y-52701380D02*
X86235095Y-52701380D01*
X86235095Y-51701380D01*
X86711285Y-51701380D01*
X87663666Y-52701380D02*
X87092238Y-52701380D01*
X87377952Y-52701380D02*
X87377952Y-51701380D01*
X87282714Y-51844238D01*
X87187476Y-51939476D01*
X87092238Y-51987095D01*
D15*
X76029380Y-119553523D02*
X76029380Y-120581619D01*
X76089857Y-120702571D01*
X76150333Y-120763047D01*
X76271285Y-120823523D01*
X76513190Y-120823523D01*
X76634142Y-120763047D01*
X76694619Y-120702571D01*
X76755095Y-120581619D01*
X76755095Y-119553523D01*
X77904142Y-119976857D02*
X77904142Y-120823523D01*
X77601761Y-119493047D02*
X77299380Y-120400190D01*
X78085571Y-120400190D01*
M02*
