G04 #@! TF.GenerationSoftware,KiCad,Pcbnew,5.1.4-e60b266~84~ubuntu19.04.1*
G04 #@! TF.CreationDate,2019-12-12T04:42:41-06:00*
G04 #@! TF.ProjectId,fissure,66697373-7572-4652-9e6b-696361645f70,rev?*
G04 #@! TF.SameCoordinates,Original*
G04 #@! TF.FileFunction,Copper,L1,Top*
G04 #@! TF.FilePolarity,Positive*
%FSLAX46Y46*%
G04 Gerber Fmt 4.6, Leading zero omitted, Abs format (unit mm)*
G04 Created by KiCad (PCBNEW 5.1.4-e60b266~84~ubuntu19.04.1) date 2019-12-12 04:42:41*
%MOMM*%
%LPD*%
G04 APERTURE LIST*
%ADD10R,0.500000X2.500000*%
%ADD11C,1.600000*%
%ADD12R,1.600000X1.600000*%
%ADD13R,1.200000X1.200000*%
%ADD14R,2.500000X0.500000*%
%ADD15C,1.752600*%
%ADD16R,1.752600X1.752600*%
%ADD17O,1.700000X1.700000*%
%ADD18R,1.700000X1.700000*%
%ADD19R,2.500000X1.200000*%
%ADD20C,17.800000*%
%ADD21C,2.300000*%
%ADD22C,2.000000*%
%ADD23C,0.800000*%
%ADD24C,0.508000*%
%ADD25C,1.270000*%
%ADD26C,0.254000*%
G04 APERTURE END LIST*
D10*
X127247000Y-119299000D03*
X127247000Y-124699000D03*
D11*
X127247000Y-118099000D03*
D12*
X127247000Y-125899000D03*
D13*
X127247000Y-123574000D03*
X127247000Y-120424000D03*
D10*
X108747000Y-117549000D03*
X108747000Y-122949000D03*
D11*
X108747000Y-116349000D03*
D12*
X108747000Y-124149000D03*
D13*
X108747000Y-121824000D03*
X108747000Y-118674000D03*
D10*
X90747000Y-117299000D03*
X90747000Y-122699000D03*
D11*
X90747000Y-116099000D03*
D12*
X90747000Y-123899000D03*
D13*
X90747000Y-121574000D03*
X90747000Y-118424000D03*
D10*
X116247000Y-101299000D03*
X116247000Y-106699000D03*
D11*
X116247000Y-100099000D03*
D12*
X116247000Y-107899000D03*
D13*
X116247000Y-105574000D03*
X116247000Y-102424000D03*
D10*
X97747000Y-99049000D03*
X97747000Y-104449000D03*
D11*
X97747000Y-97849000D03*
D12*
X97747000Y-105649000D03*
D13*
X97747000Y-103324000D03*
X97747000Y-100174000D03*
D14*
X82547000Y-105499000D03*
X87947000Y-105499000D03*
D11*
X81347000Y-105499000D03*
D12*
X89147000Y-105499000D03*
D13*
X86822000Y-105499000D03*
X83672000Y-105499000D03*
D10*
X78747000Y-99299000D03*
X78747000Y-104699000D03*
D11*
X78747000Y-98099000D03*
D12*
X78747000Y-105899000D03*
D13*
X78747000Y-103574000D03*
X78747000Y-100424000D03*
D10*
X63247000Y-121049000D03*
X63247000Y-126449000D03*
D11*
X63247000Y-119849000D03*
D12*
X63247000Y-127649000D03*
D13*
X63247000Y-125324000D03*
X63247000Y-122174000D03*
D14*
X117547000Y-95999000D03*
X122947000Y-95999000D03*
D11*
X116347000Y-95999000D03*
D12*
X124147000Y-95999000D03*
D13*
X121822000Y-95999000D03*
X118672000Y-95999000D03*
D14*
X99047000Y-92749000D03*
X104447000Y-92749000D03*
D11*
X97847000Y-92749000D03*
D12*
X105647000Y-92749000D03*
D13*
X103322000Y-92749000D03*
X100172000Y-92749000D03*
D14*
X81547000Y-87999000D03*
X86947000Y-87999000D03*
D11*
X80347000Y-87999000D03*
D12*
X88147000Y-87999000D03*
D13*
X85822000Y-87999000D03*
X82672000Y-87999000D03*
D14*
X76947000Y-92999000D03*
X71547000Y-92999000D03*
D11*
X78147000Y-92999000D03*
D12*
X70347000Y-92999000D03*
D13*
X72672000Y-92999000D03*
X75822000Y-92999000D03*
D14*
X59447000Y-112499000D03*
X54047000Y-112499000D03*
D11*
X60647000Y-112499000D03*
D12*
X52847000Y-112499000D03*
D13*
X55172000Y-112499000D03*
X58322000Y-112499000D03*
D14*
X117547000Y-78499000D03*
X122947000Y-78499000D03*
D11*
X116347000Y-78499000D03*
D12*
X124147000Y-78499000D03*
D13*
X121822000Y-78499000D03*
X118672000Y-78499000D03*
D14*
X98972000Y-75499000D03*
X104372000Y-75499000D03*
D11*
X97772000Y-75499000D03*
D12*
X105572000Y-75499000D03*
D13*
X103247000Y-75499000D03*
X100097000Y-75499000D03*
D14*
X81547000Y-70499000D03*
X86947000Y-70499000D03*
D11*
X80347000Y-70499000D03*
D12*
X88147000Y-70499000D03*
D13*
X85822000Y-70499000D03*
X82672000Y-70499000D03*
D14*
X76947000Y-75499000D03*
X71547000Y-75499000D03*
D11*
X78147000Y-75499000D03*
D12*
X70347000Y-75499000D03*
D13*
X72672000Y-75499000D03*
X75822000Y-75499000D03*
D14*
X59447000Y-94999000D03*
X54047000Y-94999000D03*
D11*
X60647000Y-94999000D03*
D12*
X52847000Y-94999000D03*
D13*
X55172000Y-94999000D03*
X58322000Y-94999000D03*
D15*
X49527000Y-39129000D03*
X77467000Y-54369000D03*
X52067000Y-39129000D03*
X54607000Y-39129000D03*
X57147000Y-39129000D03*
X59687000Y-39129000D03*
X62227000Y-39129000D03*
X64767000Y-39129000D03*
X67307000Y-39129000D03*
X69847000Y-39129000D03*
X72387000Y-39129000D03*
X74927000Y-39129000D03*
X77467000Y-39129000D03*
X74927000Y-54369000D03*
X72387000Y-54369000D03*
X69847000Y-54369000D03*
X67307000Y-54369000D03*
X64767000Y-54369000D03*
X62227000Y-54369000D03*
X59687000Y-54369000D03*
X57147000Y-54369000D03*
X54607000Y-54369000D03*
X52067000Y-54369000D03*
D16*
X49527000Y-54369000D03*
D17*
X80997000Y-38549000D03*
X80997000Y-41089000D03*
X80997000Y-43629000D03*
X80997000Y-46169000D03*
X80997000Y-48709000D03*
D18*
X80997000Y-51249000D03*
D19*
X142247000Y-103074000D03*
X142247000Y-106074000D03*
X142247000Y-110074000D03*
X135747000Y-111174000D03*
D20*
X76997000Y-120249000D03*
D21*
X87397000Y-118749000D03*
X87397000Y-121849000D03*
X66597000Y-121849000D03*
X66597000Y-118749000D03*
X66597000Y-121849000D03*
X66597000Y-118749000D03*
X87397000Y-118749000D03*
X87397000Y-121849000D03*
D17*
X126117000Y-56709000D03*
X126117000Y-59249000D03*
X123577000Y-56709000D03*
X123577000Y-59249000D03*
X121037000Y-56709000D03*
X121037000Y-59249000D03*
X118497000Y-56709000D03*
D18*
X118497000Y-59249000D03*
D22*
X141497000Y-123449000D03*
X136497000Y-121349000D03*
X131497000Y-123449000D03*
X122997000Y-118449000D03*
X117997000Y-116349000D03*
X112997000Y-118449000D03*
X104497000Y-116449000D03*
X99497000Y-114349000D03*
X94497000Y-116449000D03*
X120497000Y-108549000D03*
X125497000Y-110649000D03*
X130497000Y-108549000D03*
X101997000Y-105549000D03*
X106997000Y-107649000D03*
X111997000Y-105549000D03*
X83497000Y-100549000D03*
X88497000Y-102649000D03*
X93497000Y-100549000D03*
X64997000Y-105549000D03*
X69997000Y-107649000D03*
X74997000Y-105549000D03*
X59497000Y-117449000D03*
X54497000Y-115349000D03*
X49497000Y-117449000D03*
X120497000Y-91049000D03*
X125497000Y-93149000D03*
X130497000Y-91049000D03*
X101997000Y-88049000D03*
X106997000Y-90149000D03*
X111997000Y-88049000D03*
X83497000Y-83049000D03*
X88497000Y-85149000D03*
X93497000Y-83049000D03*
X64997000Y-88049000D03*
X69997000Y-90149000D03*
X74997000Y-88049000D03*
X46497000Y-107549000D03*
X51497000Y-109649000D03*
X56497000Y-107549000D03*
X120497000Y-73549000D03*
X125497000Y-75649000D03*
X130497000Y-73549000D03*
X101997000Y-70549000D03*
X106997000Y-72649000D03*
X111997000Y-70549000D03*
X83497000Y-65549000D03*
X88497000Y-67649000D03*
X93497000Y-65549000D03*
X64997000Y-70549000D03*
X69997000Y-72649000D03*
X74997000Y-70549000D03*
X46497000Y-90049000D03*
X51497000Y-92149000D03*
X56497000Y-90049000D03*
D23*
X75597000Y-44749000D03*
X138997000Y-112249000D03*
X81247000Y-111749000D03*
X138997000Y-103249000D03*
X88747000Y-109749000D03*
X44837000Y-60339000D03*
X51197000Y-68549000D03*
X48377000Y-109649000D03*
X62247000Y-70769000D03*
X84497000Y-113249000D03*
X84197000Y-42369000D03*
X87497000Y-44999000D03*
X83897000Y-39809000D03*
X86497000Y-42249000D03*
X128497000Y-53249000D03*
X138997000Y-110249000D03*
X138997000Y-105999000D03*
D24*
X46497000Y-90049000D02*
X56497000Y-90049000D01*
X56497000Y-93674000D02*
X55172000Y-94999000D01*
X56497000Y-90049000D02*
X56497000Y-93674000D01*
X69947000Y-75499000D02*
X64997000Y-70549000D01*
X70347000Y-75499000D02*
X69947000Y-75499000D01*
X64997000Y-70549000D02*
X74997000Y-70549000D01*
X93497000Y-65549000D02*
X83497000Y-65549000D01*
X83497000Y-68174000D02*
X85822000Y-70499000D01*
X83497000Y-65549000D02*
X83497000Y-68174000D01*
X111997000Y-70549000D02*
X101997000Y-70549000D01*
X101997000Y-74249000D02*
X103247000Y-75499000D01*
X101997000Y-70549000D02*
X101997000Y-74249000D01*
X130497000Y-73549000D02*
X120497000Y-73549000D01*
X120497000Y-77174000D02*
X121822000Y-78499000D01*
X120497000Y-73549000D02*
X120497000Y-77174000D01*
X46497000Y-107549000D02*
X56497000Y-107549000D01*
X56497000Y-111174000D02*
X55172000Y-112499000D01*
X56497000Y-107549000D02*
X56497000Y-111174000D01*
X64997000Y-88049000D02*
X74997000Y-88049000D01*
X69947000Y-92999000D02*
X64997000Y-88049000D01*
X70347000Y-92999000D02*
X69947000Y-92999000D01*
X83497000Y-83049000D02*
X93497000Y-83049000D01*
X83497000Y-85674000D02*
X85822000Y-87999000D01*
X83497000Y-83049000D02*
X83497000Y-85674000D01*
X111997000Y-88049000D02*
X101997000Y-88049000D01*
X101997000Y-91424000D02*
X103322000Y-92749000D01*
X101997000Y-88049000D02*
X101997000Y-91424000D01*
X130497000Y-91049000D02*
X120497000Y-91049000D01*
X120497000Y-94674000D02*
X121822000Y-95999000D01*
X120497000Y-91049000D02*
X120497000Y-94674000D01*
X62972000Y-125049000D02*
X63247000Y-125324000D01*
X49497000Y-117449000D02*
X59497000Y-117449000D01*
X59497000Y-117449000D02*
X59947000Y-117449000D01*
X59947000Y-117449000D02*
X61497000Y-118999000D01*
X61497000Y-123574000D02*
X63247000Y-125324000D01*
X61497000Y-118999000D02*
X61497000Y-123574000D01*
X78397000Y-105549000D02*
X78747000Y-105899000D01*
X64997000Y-105549000D02*
X78397000Y-105549000D01*
X93497000Y-100549000D02*
X93497000Y-102749000D01*
X90747000Y-105499000D02*
X89147000Y-105499000D01*
X93497000Y-102749000D02*
X90747000Y-105499000D01*
X83497000Y-100549000D02*
X93497000Y-100549000D01*
X97847000Y-105549000D02*
X97747000Y-105649000D01*
X111997000Y-105549000D02*
X97847000Y-105549000D01*
X116897000Y-108549000D02*
X116247000Y-107899000D01*
X130497000Y-108549000D02*
X116897000Y-108549000D01*
X91022000Y-124049000D02*
X90747000Y-124324000D01*
X104497000Y-116449000D02*
X94497000Y-116449000D01*
X94497000Y-116449000D02*
X93547000Y-116449000D01*
X93547000Y-116449000D02*
X92247000Y-117749000D01*
X92247000Y-120074000D02*
X90747000Y-121574000D01*
X92247000Y-117749000D02*
X92247000Y-120074000D01*
X112122000Y-118449000D02*
X108747000Y-121824000D01*
X122997000Y-118449000D02*
X112122000Y-118449000D01*
X141497000Y-123449000D02*
X131497000Y-123449000D01*
X127372000Y-123449000D02*
X127247000Y-123574000D01*
X131497000Y-123449000D02*
X127372000Y-123449000D01*
X78687000Y-43399000D02*
X80997000Y-41089000D01*
X77337000Y-44749000D02*
X78687000Y-43399000D01*
X75597000Y-44749000D02*
X77337000Y-44749000D01*
D25*
X136822000Y-112249000D02*
X135747000Y-111174000D01*
X138997000Y-112249000D02*
X136822000Y-112249000D01*
X52067000Y-51829000D02*
X54607000Y-54369000D01*
X52067000Y-39129000D02*
X52067000Y-51829000D01*
X54607000Y-54369000D02*
X57147000Y-54369000D01*
X118497000Y-64379000D02*
X118497000Y-59249000D01*
X119467000Y-65349000D02*
X118497000Y-64379000D01*
X135747000Y-111174000D02*
X134882000Y-111174000D01*
X132877000Y-109169000D02*
X132877000Y-67469000D01*
X134882000Y-111174000D02*
X132877000Y-109169000D01*
X130757000Y-65349000D02*
X119467000Y-65349000D01*
X132877000Y-67469000D02*
X130757000Y-65349000D01*
X118497000Y-59249000D02*
X97897000Y-59249000D01*
X84817000Y-46169000D02*
X80997000Y-46169000D01*
X97897000Y-59249000D02*
X84817000Y-46169000D01*
X76997000Y-115999000D02*
X76997000Y-120249000D01*
X81247000Y-111749000D02*
X76997000Y-115999000D01*
X139172000Y-103074000D02*
X142247000Y-103074000D01*
X138997000Y-103249000D02*
X139172000Y-103074000D01*
X66597000Y-121749000D02*
X66597000Y-118649000D01*
X87397000Y-121749000D02*
X87397000Y-118749000D01*
X66727000Y-48709000D02*
X57147000Y-39129000D01*
X80997000Y-48709000D02*
X66727000Y-48709000D01*
X118497000Y-56709000D02*
X118497000Y-55179000D01*
X118497000Y-55179000D02*
X119107000Y-54569000D01*
X136167000Y-103249000D02*
X138997000Y-103249000D01*
X134527000Y-101609000D02*
X136167000Y-103249000D01*
X119107000Y-54569000D02*
X127117000Y-54569000D01*
X127117000Y-54569000D02*
X128797000Y-56249000D01*
X128797000Y-56249000D02*
X128797000Y-61149000D01*
X134527000Y-66879000D02*
X134527000Y-101609000D01*
X128797000Y-61149000D02*
X134527000Y-66879000D01*
X87397000Y-118749000D02*
X87397000Y-111099000D01*
X87397000Y-111099000D02*
X88747000Y-109749000D01*
D24*
X63247000Y-115099000D02*
X60647000Y-112499000D01*
X63247000Y-119849000D02*
X63247000Y-115099000D01*
X60647000Y-112499000D02*
X60647000Y-94999000D01*
X60647000Y-94999000D02*
X60647000Y-68349000D01*
X64767000Y-64229000D02*
X64767000Y-54369000D01*
X60647000Y-68349000D02*
X64767000Y-64229000D01*
X78147000Y-75499000D02*
X78147000Y-92999000D01*
X78147000Y-75499000D02*
X78147000Y-67149000D01*
X78147000Y-67149000D02*
X75247000Y-64249000D01*
X75247000Y-64249000D02*
X69247000Y-64249000D01*
X67307000Y-62309000D02*
X67307000Y-54369000D01*
X69247000Y-64249000D02*
X67307000Y-62309000D01*
X78747000Y-93599000D02*
X78147000Y-92999000D01*
X78747000Y-99299000D02*
X78747000Y-93599000D01*
X81347000Y-88999000D02*
X80347000Y-87999000D01*
X81347000Y-105499000D02*
X81347000Y-88999000D01*
X80347000Y-87999000D02*
X80347000Y-70499000D01*
X80347000Y-70499000D02*
X80347000Y-68099000D01*
X80347000Y-68099000D02*
X75247000Y-62999000D01*
X75247000Y-62999000D02*
X70247000Y-62999000D01*
X69847000Y-62599000D02*
X69847000Y-54369000D01*
X70247000Y-62999000D02*
X69847000Y-62599000D01*
X85672000Y-107499000D02*
X83672000Y-105499000D01*
X89497000Y-107499000D02*
X85672000Y-107499000D01*
X90747000Y-108749000D02*
X89497000Y-107499000D01*
X90747000Y-108749000D02*
X90747000Y-116099000D01*
X108747000Y-116849000D02*
X108747000Y-111999000D01*
X108747000Y-111999000D02*
X106497000Y-109749000D01*
X106497000Y-109749000D02*
X97747000Y-109749000D01*
X97747000Y-109749000D02*
X95997000Y-107999000D01*
X95997000Y-101924000D02*
X97747000Y-100174000D01*
X95997000Y-107999000D02*
X95997000Y-101924000D01*
X97747000Y-92849000D02*
X97847000Y-92749000D01*
X97747000Y-97849000D02*
X97747000Y-92849000D01*
X97847000Y-75574000D02*
X97772000Y-75499000D01*
X97847000Y-92749000D02*
X97847000Y-75574000D01*
X72387000Y-59389000D02*
X72387000Y-54369000D01*
X72497000Y-59499000D02*
X72387000Y-59389000D01*
X94247000Y-59499000D02*
X72497000Y-59499000D01*
X97772000Y-75499000D02*
X97772000Y-63024000D01*
X97772000Y-63024000D02*
X94247000Y-59499000D01*
X127247000Y-118799000D02*
X127247000Y-114999000D01*
X127247000Y-114999000D02*
X125497000Y-113249000D01*
X125497000Y-113249000D02*
X117747000Y-113249000D01*
X117747000Y-113249000D02*
X114497000Y-109999000D01*
X114497000Y-104174000D02*
X116247000Y-102424000D01*
X114497000Y-109999000D02*
X114497000Y-104174000D01*
X116247000Y-96099000D02*
X116347000Y-95999000D01*
X116247000Y-100099000D02*
X116247000Y-96099000D01*
X116347000Y-95999000D02*
X116347000Y-78499000D01*
X75747000Y-58249000D02*
X74927000Y-57429000D01*
X116347000Y-67599000D02*
X112747000Y-63999000D01*
X116347000Y-78499000D02*
X116347000Y-67599000D01*
X94997000Y-58249000D02*
X75747000Y-58249000D01*
X74927000Y-57429000D02*
X74927000Y-54369000D01*
X112747000Y-63999000D02*
X100747000Y-63999000D01*
X100747000Y-63999000D02*
X94997000Y-58249000D01*
X44837000Y-62189000D02*
X44837000Y-60339000D01*
X51197000Y-68549000D02*
X44837000Y-62189000D01*
X48377000Y-109649000D02*
X51497000Y-109649000D01*
X62247000Y-70769000D02*
X62427000Y-70949000D01*
X62247000Y-107499000D02*
X62247000Y-70769000D01*
X64497000Y-109749000D02*
X62247000Y-107499000D01*
X80997000Y-109749000D02*
X64497000Y-109749000D01*
X84497000Y-113249000D02*
X80997000Y-109749000D01*
D26*
X84277000Y-42449000D02*
X84197000Y-42369000D01*
D24*
X84867000Y-42369000D02*
X84197000Y-42369000D01*
X87497000Y-44999000D02*
X84867000Y-42369000D01*
X86337000Y-42249000D02*
X83897000Y-39809000D01*
X86497000Y-42249000D02*
X86337000Y-42249000D01*
D26*
X79427000Y-45649000D02*
X80097000Y-44979000D01*
X69847000Y-42899000D02*
X72597000Y-45649000D01*
X69847000Y-39129000D02*
X69847000Y-42899000D01*
X72597000Y-45649000D02*
X79427000Y-45649000D01*
D24*
X128497000Y-53249000D02*
X93747000Y-53249000D01*
X93747000Y-53249000D02*
X85497000Y-44999000D01*
X85497000Y-44999000D02*
X82497000Y-44999000D01*
D25*
X139172000Y-110074000D02*
X142247000Y-110074000D01*
X138997000Y-110249000D02*
X139172000Y-110074000D01*
X142247000Y-106074000D02*
X139072000Y-106074000D01*
X139072000Y-106074000D02*
X138997000Y-105999000D01*
M02*
