M48
; DRILL file {KiCad 5.1.4-e60b266~84~ubuntu19.04.1} date Thu 12 Dec 2019 10:12:56 PM CST
; FORMAT={-:-/ absolute / inch / decimal}
; #@! TF.CreationDate,2019-12-12T22:12:56-06:00
; #@! TF.GenerationSoftware,Kicad,Pcbnew,5.1.4-e60b266~84~ubuntu19.04.1
; #@! TF.FileFunction,NonPlated,1,2,NPTH
FMAT,2
INCH
T1C0.0591
T2C0.0669
T3C0.1339
%
G90
G05
T1
X5.4723Y-3.995
X5.4723Y-4.2706
X5.4723Y-3.995
X5.4723Y-4.2706
T2
X1.929Y-4.7736
X2.3621Y-4.7736
X3.9959Y-2.6279
X4.429Y-2.6279
X1.8109Y-4.0846
X2.244Y-4.0846
X2.5393Y-2.6279
X2.9723Y-2.6279
X3.2676Y-2.4311
X3.7007Y-2.4311
X3.9959Y-3.3169
X4.429Y-3.3169
X4.7243Y-2.746
X5.1574Y-2.746
X4.429Y-4.809
X4.8621Y-4.809
X4.7243Y-3.435
X5.1574Y-3.435
X3.2676Y-3.809
X3.7007Y-3.809
X3.7007Y-4.7342
X4.1337Y-4.7342
X5.1574Y-5.0098
X5.5904Y-5.0098
X3.9959Y-4.0059
X4.429Y-4.0059
X2.5393Y-4.0059
X2.9723Y-4.0059
X1.8109Y-3.3956
X2.244Y-3.3956
X4.7243Y-4.124
X5.1574Y-4.124
X3.2676Y-3.12
X3.7007Y-3.12
X2.5393Y-3.3169
X2.9723Y-3.3169
T3
X4.9408Y-3.435
X3.4841Y-3.809
X3.9172Y-4.7342
X5.3739Y-5.0098
X4.2125Y-4.0059
X2.7558Y-4.0059
X2.0274Y-3.3956
X4.9408Y-4.124
X3.4841Y-3.12
X2.7558Y-3.3169
X2.1456Y-4.7736
X4.2125Y-2.6279
X2.0274Y-4.0846
X2.7558Y-2.6279
X3.4841Y-2.4311
X4.2125Y-3.3169
X4.9408Y-2.746
X4.6456Y-4.809
T0
M30
