G04 #@! TF.GenerationSoftware,KiCad,Pcbnew,5.1.8*
G04 #@! TF.CreationDate,2021-03-14T21:51:01-05:00*
G04 #@! TF.ProjectId,fissure,66697373-7572-4652-9e6b-696361645f70,rev?*
G04 #@! TF.SameCoordinates,Original*
G04 #@! TF.FileFunction,Profile,NP*
%FSLAX46Y46*%
G04 Gerber Fmt 4.6, Leading zero omitted, Abs format (unit mm)*
G04 Created by KiCad (PCBNEW 5.1.8) date 2021-03-14 21:51:01*
%MOMM*%
%LPD*%
G01*
G04 APERTURE LIST*
G04 #@! TA.AperFunction,Profile*
%ADD10C,0.050000*%
G04 #@! TD*
G04 APERTURE END LIST*
D10*
X131750000Y-55250000D02*
G75*
G02*
X135000000Y-58500000I0J-3250000D01*
G01*
X26000000Y-112000000D02*
X26000000Y-58750000D01*
X47000000Y-128750000D02*
X62000000Y-128750000D01*
X77000000Y-108750000D02*
X75834487Y-108807373D01*
X75834487Y-108807373D02*
X74771606Y-108974609D01*
X74771606Y-108974609D02*
X73805587Y-109244384D01*
X73805587Y-109244384D02*
X72930664Y-109609375D01*
X72930664Y-109609375D02*
X72141067Y-110062255D01*
X72141067Y-110062255D02*
X71431030Y-110595703D01*
X71431030Y-110595703D02*
X70794784Y-111202392D01*
X70794784Y-111202392D02*
X70226562Y-111875000D01*
X70226562Y-111875000D02*
X69720596Y-112606201D01*
X69720596Y-112606201D02*
X69271118Y-113388671D01*
X69271118Y-113388671D02*
X68872360Y-114215087D01*
X68872360Y-114215087D02*
X68518554Y-115078125D01*
X68518554Y-115078125D02*
X68203933Y-115970458D01*
X68203933Y-115970458D02*
X67922729Y-116884765D01*
X67922729Y-116884765D02*
X67669174Y-117813720D01*
X67669174Y-117813720D02*
X67437500Y-118750000D01*
X67437500Y-118750000D02*
X67221939Y-119686279D01*
X67221939Y-119686279D02*
X67016723Y-120615234D01*
X67016723Y-120615234D02*
X66816085Y-121529541D01*
X66816085Y-121529541D02*
X66614257Y-122421875D01*
X66614257Y-122421875D02*
X66405471Y-123284912D01*
X66405471Y-123284912D02*
X66183959Y-124111328D01*
X66183959Y-124111328D02*
X65943954Y-124893798D01*
X65943954Y-124893798D02*
X65679687Y-125625000D01*
X65679687Y-125625000D02*
X65385391Y-126297607D01*
X65385391Y-126297607D02*
X65055297Y-126904296D01*
X65055297Y-126904296D02*
X64683639Y-127437744D01*
X64683639Y-127437744D02*
X64264648Y-127890625D01*
X64264648Y-127890625D02*
X63792556Y-128255615D01*
X63792556Y-128255615D02*
X63261596Y-128525390D01*
X63261596Y-128525390D02*
X62666000Y-128692626D01*
X62666000Y-128692626D02*
X62000000Y-128750000D01*
X135000000Y-106750000D02*
G75*
G02*
X131000000Y-110750000I-4000000J0D01*
G01*
X29500000Y-55250000D02*
X131750000Y-55250000D01*
X116600000Y-110750000D02*
X113000000Y-108750000D01*
X131000000Y-110750000D02*
X116600000Y-110750000D01*
X135000000Y-106750000D02*
X135000000Y-102500000D01*
X26000000Y-58750000D02*
G75*
G02*
X29500000Y-55250000I3500000J0D01*
G01*
X77000000Y-108750000D02*
X113000000Y-108750000D01*
X26000000Y-112000000D02*
X26009155Y-113059135D01*
X26009155Y-113059135D02*
X26038085Y-114080505D01*
X26038085Y-114080505D02*
X26088989Y-115064430D01*
X26088989Y-115064430D02*
X26164062Y-116011230D01*
X26164062Y-116011230D02*
X26265502Y-116921226D01*
X26265502Y-116921226D02*
X26395507Y-117794738D01*
X26395507Y-117794738D02*
X26556274Y-118632087D01*
X26556274Y-118632087D02*
X26750000Y-119433593D01*
X26750000Y-119433593D02*
X26978881Y-120199577D01*
X26978881Y-120199577D02*
X27245117Y-120930358D01*
X27245117Y-120930358D02*
X27550903Y-121626258D01*
X27550903Y-121626258D02*
X27898437Y-122287597D01*
X27898437Y-122287597D02*
X28289916Y-122914695D01*
X28289916Y-122914695D02*
X28727539Y-123507873D01*
X28727539Y-123507873D02*
X29213500Y-124067451D01*
X29213500Y-124067451D02*
X29750000Y-124593750D01*
X29750000Y-124593750D02*
X30339233Y-125087089D01*
X30339233Y-125087089D02*
X30983398Y-125547790D01*
X30983398Y-125547790D02*
X31684692Y-125976173D01*
X31684692Y-125976173D02*
X32445312Y-126372558D01*
X32445312Y-126372558D02*
X33267456Y-126737266D01*
X33267456Y-126737266D02*
X34153320Y-127070617D01*
X34153320Y-127070617D02*
X35105102Y-127372932D01*
X35105102Y-127372932D02*
X36125000Y-127644531D01*
X36125000Y-127644531D02*
X37215209Y-127885734D01*
X37215209Y-127885734D02*
X38377929Y-128096862D01*
X38377929Y-128096862D02*
X39615356Y-128278236D01*
X39615356Y-128278236D02*
X40929687Y-128430175D01*
X40929687Y-128430175D02*
X42323120Y-128553001D01*
X42323120Y-128553001D02*
X43797851Y-128647033D01*
X43797851Y-128647033D02*
X45356079Y-128712593D01*
X45356079Y-128712593D02*
X47000000Y-128750000D01*
X135000000Y-102500000D02*
X135000000Y-58500000D01*
M02*
