M48
; DRILL file {KiCad 5.1.6} date Mon Aug 24 11:01:28 2020
; FORMAT={-:-/ absolute / inch / decimal}
; #@! TF.CreationDate,2020-08-24T11:01:28-05:00
; #@! TF.GenerationSoftware,Kicad,Pcbnew,5.1.6
; #@! TF.FileFunction,Plated,1,2,PTH
FMAT,2
INCH
T1C0.0157
T2C0.0300
T3C0.0315
T4C0.0430
T5C0.0433
T6C0.0472
T7C0.0630
%
G90
G05
T1
X1.2539Y-3.622
X1.2539Y-4.2913
X1.3839Y-3.622
X1.3839Y-4.2913
X1.9626Y-3.622
X1.9626Y-4.2913
X2.0807Y-4.9606
X2.0866Y-4.0354
X2.0925Y-3.622
X2.0925Y-4.2913
X2.2106Y-4.9606
X2.6713Y-2.8346
X2.6713Y-3.5039
X2.6713Y-4.1732
X2.8012Y-2.8346
X2.8012Y-3.5039
X2.8012Y-4.1732
X3.3799Y-2.6378
X3.3799Y-3.3071
X3.3799Y-3.9764
X3.5098Y-2.6378
X3.5098Y-3.3071
X3.5098Y-3.9764
X4.0886Y-2.8346
X4.0886Y-3.5039
X4.0886Y-4.1732
X4.2126Y-4.8563
X4.2126Y-4.9862
X4.2185Y-2.8346
X4.2185Y-3.5039
X4.2185Y-4.1732
X4.7835Y-4.2323
X4.7972Y-2.9724
X4.7972Y-3.6417
X4.7972Y-4.311
X4.8819Y-4.935
X4.8819Y-5.065
X4.9272Y-2.9724
X4.9272Y-3.6417
X4.9272Y-4.311
X5.1378Y-2.8937
X5.1772Y-3.0315
X5.309Y-4.2186
X5.4724Y-3.7598
X5.4724Y-3.8976
X5.4724Y-4.0354
X5.4724Y-4.1339
X5.4921Y-4.2323
X5.5512Y-5.1319
X5.5512Y-5.2618
T2
X6.1924Y-2.4479
X6.2266Y-2.6617
X6.2608Y-2.8755
X6.2982Y-3.1087
X6.3325Y-3.3226
X6.3667Y-3.5364
X5.8268Y-2.4409
X5.8268Y-2.6575
X5.8268Y-2.874
X5.8268Y-3.1102
X5.8268Y-3.3268
X5.8268Y-3.5433
X5.8268Y-3.8976
X5.8268Y-4.1142
X5.8268Y-4.3307
T3
X4.3504Y-1.8307
X4.3504Y-2.1307
X4.4685Y-1.8307
X4.4685Y-2.1307
T4
X3.9579Y-1.6291
X3.9579Y-2.2291
X4.0579Y-1.6291
X4.0579Y-2.2291
X4.1579Y-1.6291
X4.1579Y-2.2291
X4.2579Y-1.6291
X4.2579Y-2.2291
X4.3579Y-1.6291
X4.3579Y-2.2291
X4.4579Y-1.6291
X4.4579Y-2.2291
X4.5579Y-1.6291
X4.5579Y-2.2291
X4.6579Y-1.6291
X4.6579Y-2.2291
X4.7579Y-1.6291
X4.7579Y-2.2291
X4.8579Y-1.6291
X4.8579Y-2.2291
X4.9579Y-1.6291
X4.9579Y-2.2291
X5.0579Y-1.6291
X5.0579Y-2.2291
T5
X5.1575Y-1.8701
X5.1575Y-2.0472
X5.4134Y-1.8701
X5.4134Y-2.0472
T6
X3.248Y-2.9803
X3.4449Y-2.8976
X3.6417Y-2.9803
X1.8307Y-3.9646
X2.0276Y-3.8819
X2.2244Y-3.9646
X1.122Y-3.2953
X1.3189Y-3.2126
X1.5157Y-3.2953
X1.122Y-3.9646
X1.3189Y-3.8819
X1.5157Y-3.9646
X4.4724Y-5.0
X4.5551Y-4.8031
X4.5551Y-5.1969
X5.1417Y-5.1969
X5.2244Y-5.0
X5.2244Y-5.3937
X3.9567Y-2.5079
X4.1535Y-2.4252
X4.3504Y-2.5079
X2.5394Y-3.1772
X2.7362Y-3.0945
X2.9331Y-3.1772
X4.6654Y-2.6457
X4.8622Y-2.563
X5.0591Y-2.6457
X2.5394Y-3.8465
X2.7362Y-3.7638
X2.9331Y-3.8465
X3.248Y-3.6496
X3.4449Y-3.5669
X3.6417Y-3.6496
X1.9488Y-4.6339
X2.1457Y-4.5512
X2.3425Y-4.6339
X2.5394Y-2.5079
X2.7362Y-2.4252
X2.9331Y-2.5079
X3.8031Y-4.9213
X3.8858Y-4.7244
X3.8858Y-5.1181
X3.248Y-2.311
X3.4449Y-2.2283
X3.6417Y-2.311
X3.9567Y-3.1772
X4.1535Y-3.0945
X4.3504Y-3.1772
X1.8307Y-3.2953
X2.0276Y-3.2126
X2.2244Y-3.2953
X4.6654Y-3.315
X4.8622Y-3.2323
X5.0591Y-3.315
X3.9567Y-3.8465
X4.1535Y-3.7638
X4.3504Y-3.8465
X4.6654Y-3.9843
X4.8622Y-3.9016
X5.0591Y-3.9843
T7
G00X5.6102Y-2.2972
M15
G01X5.6102Y-2.2303
M16
G05
G00X5.6102Y-2.5138
M15
G01X5.6102Y-2.4469
M16
G05
G00X5.6102Y-2.7303
M15
G01X5.6102Y-2.6634
M16
G05
G00X4.435Y-4.5866
M15
G01X4.502Y-4.5866
M16
G05
G00X4.6516Y-4.5866
M15
G01X4.7185Y-4.5866
M16
G05
G00X4.8681Y-4.5866
M15
G01X4.935Y-4.5866
M16
G05
G00X5.1043Y-4.5866
M15
G01X5.1713Y-4.5866
M16
G05
G00X5.3209Y-4.5866
M15
G01X5.3878Y-4.5866
M16
G05
G00X5.5374Y-4.5866
M15
G01X5.6043Y-4.5866
M16
G05
G00X4.435Y-4.4094
M15
G01X4.502Y-4.4094
M16
G05
G00X4.6516Y-4.4094
M15
G01X4.7185Y-4.4094
M16
G05
G00X4.8681Y-4.4094
M15
G01X4.935Y-4.4094
M16
G05
G00X5.1043Y-4.4094
M15
G01X5.1713Y-4.4094
M16
G05
G00X5.3209Y-4.4094
M15
G01X5.3878Y-4.4094
M16
G05
G00X5.5374Y-4.4094
M15
G01X5.6043Y-4.4094
M16
G05
T0
M30
