M48
; DRILL file {KiCad 5.1.8} date Sun Mar 14 21:51:04 2021
; FORMAT={-:-/ absolute / inch / decimal}
; #@! TF.CreationDate,2021-03-14T21:51:04-05:00
; #@! TF.GenerationSoftware,Kicad,Pcbnew,5.1.8
; #@! TF.FileFunction,Plated,1,2,PTH
FMAT,2
INCH
T1C0.0157
T2C0.0236
T3C0.0394
T4C0.0454
T5C0.0472
%
G90
G05
T1
X1.1614Y-3.1142
X1.1929Y-2.4252
X1.6063Y-2.3858
X1.7402Y-3.0709
X1.748Y-2.5276
X1.7969Y-2.9314
X1.8031Y-2.2441
X1.8031Y-2.3031
X1.8465Y-2.7087
X1.8465Y-2.8819
X1.8465Y-2.7953
X1.8465Y-2.8386
X1.8466Y-2.752
X1.8583Y-3.1811
X1.8819Y-3.0118
X1.9134Y-2.6299
X1.9173Y-2.4764
X1.9409Y-2.4409
X1.9764Y-2.4055
X2.0709Y-2.8071
X2.0727Y-2.5294
X2.0787Y-3.1142
X2.1339Y-2.5539
X2.1496Y-3.063
X2.1535Y-2.7402
X2.1969Y-3.0157
X2.2323Y-2.8701
X2.248Y-2.5984
X2.3228Y-2.5551
X2.3976Y-2.5433
X2.4646Y-2.7598
X2.5079Y-2.9488
X2.874Y-3.3858
X3.2913Y-3.311
X3.6614Y-2.6614
X4.5118Y-3.2047
X4.6929Y-2.9961
X4.7402Y-2.7992
X5.2047Y-2.7126
X5.2047Y-2.7835
X5.2047Y-2.8937
X5.2244Y-2.562
X5.2362Y-3.4055
X5.2382Y-3.2854
X5.1378Y-2.2539
X5.1378Y-2.4311
X5.1378Y-3.0413
X5.1378Y-3.6122
X5.1378Y-3.7894
X5.1378Y-4.252
T2
X1.248Y-2.628
X1.248Y-2.9626
X1.2913Y-2.628
X1.2913Y-2.9626
X1.3346Y-2.628
X1.3346Y-2.9626
X1.378Y-2.628
X1.378Y-2.9626
X1.4213Y-2.628
X1.4213Y-2.9626
X1.4646Y-2.628
X1.4646Y-2.9626
X1.5079Y-2.628
X1.5079Y-2.9626
X1.5512Y-2.628
X1.5512Y-2.9626
X1.5945Y-2.628
X1.5945Y-2.9626
T3
X1.1862Y-2.2323
X1.2862Y-2.2323
X1.3862Y-2.2323
X1.4862Y-2.2323
X2.378Y-2.7008
X2.378Y-2.8008
X2.378Y-2.9008
X2.378Y-3.0008
X2.311Y-2.763
X2.311Y-2.863
X2.311Y-2.963
X2.311Y-3.063
T4
X1.0787Y-4.3504
X4.9843Y-4.1575
X1.0866Y-2.2795
T5
X1.9488Y-4.624
X2.1457Y-4.5413
X2.3425Y-4.624
X2.5394Y-2.5177
X2.7362Y-2.435
X2.9331Y-2.5177
X4.6654Y-2.6358
X4.8622Y-2.5531
X5.0591Y-2.6358
X3.9567Y-3.1772
X4.1535Y-3.0945
X4.3504Y-3.1772
X1.122Y-3.9646
X1.3189Y-3.8819
X1.5157Y-3.9646
X1.8307Y-3.3051
X2.0276Y-3.2224
X2.2244Y-3.3051
X3.9567Y-3.8366
X4.1535Y-3.7539
X4.3504Y-3.8366
X4.6654Y-3.9547
X4.8622Y-3.872
X5.0591Y-3.9547
X3.9567Y-2.5177
X4.1535Y-2.435
X4.3504Y-2.5177
X1.8307Y-3.9646
X2.0276Y-3.8819
X2.2244Y-3.9646
X3.248Y-2.3209
X3.4449Y-2.2382
X3.6417Y-2.3209
X2.5394Y-3.1772
X2.7362Y-3.0945
X2.9331Y-3.1772
X1.122Y-3.3051
X1.3189Y-3.2224
X1.5157Y-3.3051
X4.6654Y-3.2953
X4.8622Y-3.2126
X5.0591Y-3.2953
X2.5394Y-3.8366
X2.7362Y-3.7539
X2.9331Y-3.8366
X3.248Y-2.9803
X3.4449Y-2.8976
X3.6417Y-2.9803
X3.248Y-3.6398
X3.4449Y-3.5571
X3.6417Y-3.6398
T2
G00X2.0583Y-2.3091
M15
G01X2.0583Y-2.2854
M16
G05
G00X2.0583Y-2.4835
M15
G01X2.0583Y-2.4402
M16
G05
G00X2.3984Y-2.3091
M15
G01X2.3984Y-2.2854
M16
G05
G00X2.3984Y-2.4835
M15
G01X2.3984Y-2.4402
M16
G05
T0
M30
