M48
; DRILL file {KiCad 5.1.5} date Mon 16 Mar 2020 03:53:08 PM CDT
; FORMAT={-:-/ absolute / inch / decimal}
; #@! TF.CreationDate,2020-03-16T15:53:08-05:00
; #@! TF.GenerationSoftware,Kicad,Pcbnew,5.1.5
; #@! TF.FileFunction,Plated,1,2,PTH
FMAT,2
INCH
T1C0.0157
T2C0.0295
T3C0.0315
T4C0.0354
T5C0.0394
T6C0.0430
T7C0.0433
T8C0.0472
%
G90
G05
T1
X2.6731Y-1.7185
X3.2912Y-1.7775
X4.0393Y-4.4468
X5.2715Y-4.5295
X5.4684Y-4.561
T2
X4.2243Y-1.9263
X4.2243Y-2.2263
X4.5668Y-1.9263
X4.5668Y-2.2263
X2.3621Y-2.4582
X2.3621Y-2.7582
X4.307Y-1.9263
X4.307Y-2.2263
X2.2637Y-2.4582
X2.2637Y-2.7582
X3.618Y-1.7102
X3.618Y-2.0102
X4.6495Y-1.9263
X4.6495Y-2.2263
X3.4526Y-1.7102
X3.4526Y-2.0102
X4.1416Y-1.9263
X4.1416Y-2.2263
X3.37Y-1.7102
X3.37Y-2.0102
X2.0373Y-2.4582
X2.0373Y-2.7582
X2.1652Y-2.4582
X2.1652Y-2.7582
X1.9389Y-2.4582
X1.9389Y-2.7582
X1.8404Y-2.4582
X1.8404Y-2.7582
X4.7322Y-1.9263
X4.7322Y-2.2263
X4.0589Y-1.9263
X4.0589Y-2.2263
X4.4841Y-1.9263
X4.4841Y-2.2263
X3.5353Y-1.7102
X3.5353Y-2.0102
T3
X3.3377Y-4.3208
X3.6377Y-4.3208
X3.3377Y-4.2027
X3.6377Y-4.2027
T5
X4.894Y-2.2419
X4.894Y-2.3419
X4.994Y-2.2419
X4.994Y-2.3419
X5.094Y-2.2419
X5.094Y-2.3419
X5.194Y-2.2419
X5.194Y-2.3419
T6
X1.9499Y-1.6169
X1.9499Y-2.2169
X2.0499Y-1.6169
X2.0499Y-2.2169
X2.1499Y-1.6169
X2.1499Y-2.2169
X2.2499Y-1.6169
X2.2499Y-2.2169
X2.3499Y-1.6169
X2.3499Y-2.2169
X2.4499Y-1.6169
X2.4499Y-2.2169
X2.5499Y-1.6169
X2.5499Y-2.2169
X2.6499Y-1.6169
X2.6499Y-2.2169
X2.7499Y-1.6169
X2.7499Y-2.2169
X2.8499Y-1.6169
X2.8499Y-2.2169
X2.9499Y-1.6169
X2.9499Y-2.2169
X3.0499Y-1.6169
X3.0499Y-2.2169
T7
X4.0749Y-1.6397
X4.0749Y-1.8169
X4.3308Y-1.6397
X4.3308Y-1.8169
T8
X1.9487Y-4.5256
X2.1456Y-4.4429
X2.3424Y-4.5256
X1.8306Y-3.187
X2.0274Y-3.1043
X2.2243Y-3.187
X3.74Y-4.5846
X3.9369Y-4.5019
X4.1337Y-4.5846
X2.5589Y-3.8366
X2.7558Y-3.7539
X2.9526Y-3.8366
X3.2873Y-2.6004
X3.4841Y-2.683
X3.681Y-2.6004
X4.744Y-3.2854
X4.9408Y-3.2027
X5.1377Y-3.2854
X4.744Y-2.9153
X4.9408Y-2.998
X5.1377Y-2.9153
X4.0156Y-2.7972
X4.2125Y-2.8799
X4.4093Y-2.7972
X1.8306Y-3.8563
X2.0274Y-3.7736
X2.2243Y-3.8563
X4.4487Y-4.6594
X4.6456Y-4.5767
X4.8424Y-4.6594
X5.1574Y-4.8602
X5.3542Y-4.7775
X5.5511Y-4.8602
X4.0156Y-3.8366
X4.2125Y-3.7539
X4.4093Y-3.8366
X2.5589Y-3.1673
X2.7558Y-3.0846
X2.9526Y-3.1673
X4.744Y-3.9547
X4.9408Y-3.872
X5.1377Y-3.9547
X3.2873Y-2.9704
X3.4841Y-2.8878
X3.681Y-2.9704
X2.5589Y-2.7972
X2.7558Y-2.8799
X2.9526Y-2.7972
X4.0156Y-3.1673
X4.2125Y-3.0846
X4.4093Y-3.1673
X3.2873Y-3.6397
X3.4841Y-3.557
X3.681Y-3.6397
T4
G00X5.4291Y-4.4016
M15
G01X5.4291Y-4.4173
M16
G05
G00X5.6102Y-4.0827
M15
G01X5.6102Y-4.0984
M16
G05
G00X5.6102Y-4.2008
M15
G01X5.6102Y-4.2165
M16
G05
G00X5.6102Y-4.3583
M15
G01X5.6102Y-4.374
M16
G05
G00X5.3268Y-4.0984
M15
G01X5.3268Y-4.0827
M16
G05
G00X5.3268Y-4.2165
M15
G01X5.3268Y-4.2008
M16
G05
G00X5.3268Y-4.374
M15
G01X5.3268Y-4.3583
M16
G05
G00X5.5079Y-4.4173
M15
G01X5.5079Y-4.4016
M16
G05
T0
M30
