M48
; DRILL file {KiCad 5.1.6} date Sun Sep 27 23:11:52 2020
; FORMAT={-:-/ absolute / inch / decimal}
; #@! TF.CreationDate,2020-09-27T23:11:52-05:00
; #@! TF.GenerationSoftware,Kicad,Pcbnew,5.1.6
; #@! TF.FileFunction,Plated,1,2,PTH
FMAT,2
INCH
T1C0.0157
T2C0.0300
T3C0.0315
T4C0.0394
T5C0.0430
T6C0.0472
T7C0.0591
%
G90
G05
T1
X1.2539Y-3.622
X1.2539Y-4.2913
X1.3839Y-3.622
X1.3839Y-4.2913
X1.4764Y-3.7795
X1.7126Y-4.2913
X1.7126Y-4.3701
X1.827Y-3.1065
X1.9094Y-2.8937
X1.9488Y-3.0807
X1.9626Y-3.622
X1.9626Y-4.2913
X1.9882Y-3.116
X1.998Y-3.0512
X2.0374Y-1.9657
X2.0472Y-2.9724
X2.0472Y-3.0512
X2.0807Y-4.9606
X2.0925Y-3.622
X2.0925Y-4.2913
X2.1063Y-2.9429
X2.1457Y-1.9882
X2.185Y-3.5433
X2.2106Y-4.9606
X2.3819Y-3.6614
X2.5276Y-1.8417
X2.5276Y-1.8984
X2.6693Y-1.8417
X2.6693Y-1.8984
X2.6713Y-2.8346
X2.6713Y-3.5039
X2.6713Y-4.1732
X2.8012Y-2.8346
X2.8012Y-3.5039
X2.8012Y-4.1732
X2.815Y-4.9154
X2.815Y-5.0453
X3.3799Y-2.6378
X3.3799Y-3.3071
X3.3799Y-3.9764
X3.5098Y-2.6378
X3.5098Y-3.3071
X3.5098Y-3.9764
X3.8386Y-4.9941
X3.8386Y-5.124
X4.0886Y-2.8346
X4.0886Y-3.5039
X4.0886Y-4.1732
X4.2185Y-2.8346
X4.2185Y-3.5039
X4.2185Y-4.1732
X4.5079Y-5.1909
X4.5079Y-5.3209
X4.7244Y-2.0866
X4.7972Y-2.9724
X4.7972Y-3.6417
X4.7972Y-4.311
X4.8228Y-2.0866
X4.9272Y-2.9724
X4.9272Y-3.6417
X4.9606Y-2.0866
X5.0984Y-2.0866
X5.1378Y-2.8396
X5.2018Y-2.6772
X5.2362Y-2.8346
T2
X5.2362Y-4.626
X5.2362Y-4.8228
X5.2362Y-5.1378
X5.2362Y-5.3346
X1.1811Y-5.1181
X1.4173Y-5.1181
X1.6535Y-5.1181
X1.1811Y-4.5472
X1.4173Y-4.5472
X1.6535Y-4.5472
X4.6792Y-4.6317
X4.7103Y-4.826
X4.7602Y-5.137
X4.7913Y-5.3314
T3
X1.8654Y-2.3819
X2.1654Y-2.3819
X1.8654Y-2.2638
X2.1654Y-2.2638
T4
X3.874Y-1.9173
X3.874Y-2.0173
X3.874Y-2.1173
X3.874Y-2.2173
T5
X1.7079Y-1.8303
X1.7079Y-1.9303
X1.7079Y-2.0303
X1.7079Y-2.1303
X1.7079Y-2.2303
X1.7079Y-2.3303
X1.7079Y-2.4303
X1.7079Y-2.5303
X1.7079Y-2.6303
X1.7079Y-2.7303
X1.7079Y-2.8303
X1.7079Y-2.9303
X1.7079Y-3.0303
X1.8079Y-2.8303
X1.9079Y-2.8303
X2.0079Y-2.8303
X2.3079Y-1.8303
X2.3079Y-1.9303
X2.3079Y-2.0303
X2.3079Y-2.1303
X2.3079Y-2.2303
X2.3079Y-2.3303
X2.3079Y-2.4303
X2.3079Y-2.5303
X2.3079Y-2.6303
X2.3079Y-2.7303
X2.3079Y-2.8303
X2.3079Y-2.9303
X2.3079Y-3.0303
T6
X2.5394Y-3.8465
X2.7362Y-3.7638
X2.9331Y-3.8465
X1.122Y-3.2953
X1.3189Y-3.2126
X1.5157Y-3.2953
X1.8307Y-3.2953
X2.0276Y-3.2126
X2.2244Y-3.2953
X2.5394Y-3.1772
X2.7362Y-3.0945
X2.9331Y-3.1772
X3.248Y-2.9803
X3.4449Y-2.8976
X3.6417Y-2.9803
X1.122Y-3.9646
X1.3189Y-3.8819
X1.5157Y-3.9646
X3.9567Y-3.8465
X4.1535Y-3.7638
X4.3504Y-3.8465
X3.9567Y-2.5079
X4.1535Y-2.4252
X4.3504Y-2.5079
X4.6654Y-3.315
X4.8622Y-3.2323
X5.0591Y-3.315
X2.5394Y-2.5079
X2.7362Y-2.4252
X2.9331Y-2.5079
X1.8307Y-3.9646
X2.0276Y-3.8819
X2.2244Y-3.9646
X3.9567Y-3.1772
X4.1535Y-3.0945
X4.3504Y-3.1772
X3.248Y-2.311
X3.4449Y-2.2283
X3.6417Y-2.311
X3.1417Y-4.7835
X3.1417Y-5.1772
X3.2244Y-4.9803
X4.6654Y-3.9843
X4.8622Y-3.9016
X5.0591Y-3.9843
X4.0984Y-5.2559
X4.1811Y-5.0591
X4.1811Y-5.4528
X4.6654Y-2.6457
X4.8622Y-2.563
X5.0591Y-2.6457
X3.4291Y-5.0591
X3.5118Y-4.8622
X3.5118Y-5.2559
X1.9488Y-4.6339
X2.1457Y-4.5512
X2.3425Y-4.6339
X3.248Y-3.6496
X3.4449Y-3.5669
X3.6417Y-3.6496
T7
G00X5.1969Y-1.939
M15
G01X5.1969Y-1.998
M16
G05
G00X5.1969Y-2.1752
M15
G01X5.1969Y-2.2343
M16
G05
G00X5.1969Y-2.4114
M15
G01X5.1969Y-2.4705
M16
G05
G00X3.4154Y-4.4685
M15
G01X3.4744Y-4.4685
M16
G05
G00X3.6122Y-4.4685
M15
G01X3.6713Y-4.4685
M16
G05
G00X3.9272Y-4.4685
M15
G01X3.9862Y-4.4685
M16
G05
G00X4.124Y-4.4685
M15
G01X4.1831Y-4.4685
M16
G05
G00X4.4587Y-4.2323
M15
G01X4.5177Y-4.2323
M16
G05
G00X4.6555Y-4.2323
M15
G01X4.7146Y-4.2323
M16
G05
G00X4.9705Y-4.2323
M15
G01X5.0295Y-4.2323
M16
G05
G00X5.1673Y-4.2323
M15
G01X5.2264Y-4.2323
M16
G05
G00X1.939Y-5.3346
M15
G01X1.8799Y-5.3346
M16
G05
G00X2.1752Y-5.3346
M15
G01X2.1161Y-5.3346
M16
G05
G00X2.4114Y-5.3346
M15
G01X2.3524Y-5.3346
M16
G05
T0
M30
