G04 #@! TF.GenerationSoftware,KiCad,Pcbnew,5.1.6*
G04 #@! TF.CreationDate,2020-08-24T19:04:15-05:00*
G04 #@! TF.ProjectId,fissure,66697373-7572-4652-9e6b-696361645f70,rev?*
G04 #@! TF.SameCoordinates,Original*
G04 #@! TF.FileFunction,Copper,L1,Top*
G04 #@! TF.FilePolarity,Positive*
%FSLAX46Y46*%
G04 Gerber Fmt 4.6, Leading zero omitted, Abs format (unit mm)*
G04 Created by KiCad (PCBNEW 5.1.6) date 2020-08-24 19:04:15*
%MOMM*%
%LPD*%
G01*
G04 APERTURE LIST*
G04 #@! TA.AperFunction,ComponentPad*
%ADD10C,1.752600*%
G04 #@! TD*
G04 #@! TA.AperFunction,ComponentPad*
%ADD11R,1.752600X1.752600*%
G04 #@! TD*
G04 #@! TA.AperFunction,ComponentPad*
%ADD12C,1.524000*%
G04 #@! TD*
G04 #@! TA.AperFunction,SMDPad,CuDef*
%ADD13C,0.100000*%
G04 #@! TD*
G04 #@! TA.AperFunction,SMDPad,CuDef*
%ADD14R,1.500000X3.000000*%
G04 #@! TD*
G04 #@! TA.AperFunction,ComponentPad*
%ADD15R,3.700000X2.000000*%
G04 #@! TD*
G04 #@! TA.AperFunction,ComponentPad*
%ADD16O,1.600000X1.600000*%
G04 #@! TD*
G04 #@! TA.AperFunction,ComponentPad*
%ADD17C,1.600000*%
G04 #@! TD*
G04 #@! TA.AperFunction,ComponentPad*
%ADD18O,1.700000X1.700000*%
G04 #@! TD*
G04 #@! TA.AperFunction,ComponentPad*
%ADD19R,1.700000X1.700000*%
G04 #@! TD*
G04 #@! TA.AperFunction,ComponentPad*
%ADD20R,2.000000X3.700000*%
G04 #@! TD*
G04 #@! TA.AperFunction,ComponentPad*
%ADD21C,2.000000*%
G04 #@! TD*
G04 #@! TA.AperFunction,SMDPad,CuDef*
%ADD22R,0.900000X1.200000*%
G04 #@! TD*
G04 #@! TA.AperFunction,SMDPad,CuDef*
%ADD23R,0.850000X1.600000*%
G04 #@! TD*
G04 #@! TA.AperFunction,SMDPad,CuDef*
%ADD24R,1.200000X0.900000*%
G04 #@! TD*
G04 #@! TA.AperFunction,SMDPad,CuDef*
%ADD25R,1.200000X2.500000*%
G04 #@! TD*
G04 #@! TA.AperFunction,ViaPad*
%ADD26C,0.800000*%
G04 #@! TD*
G04 #@! TA.AperFunction,Conductor*
%ADD27C,0.508000*%
G04 #@! TD*
G04 #@! TA.AperFunction,Conductor*
%ADD28C,0.254000*%
G04 #@! TD*
G04 #@! TA.AperFunction,Conductor*
%ADD29C,0.250000*%
G04 #@! TD*
G04 APERTURE END LIST*
D10*
X58620000Y-49030000D03*
X43380000Y-76970000D03*
X58620000Y-51570000D03*
X58620000Y-54110000D03*
X58620000Y-56650000D03*
X58620000Y-59190000D03*
X58620000Y-61730000D03*
X58620000Y-64270000D03*
X58620000Y-66810000D03*
X58620000Y-69350000D03*
X58620000Y-71890000D03*
X58620000Y-74430000D03*
X58620000Y-76970000D03*
X43380000Y-74430000D03*
X43380000Y-71890000D03*
X43380000Y-69350000D03*
X43380000Y-66810000D03*
X43380000Y-64270000D03*
X43380000Y-61730000D03*
X43380000Y-59190000D03*
X43380000Y-56650000D03*
X43380000Y-54110000D03*
X43380000Y-51570000D03*
D11*
X43380000Y-49030000D03*
D12*
X150944344Y-86393017D03*
X149995395Y-80468535D03*
X149125526Y-75037759D03*
X148255656Y-69606983D03*
G04 #@! TA.AperFunction,SMDPad,CuDef*
D13*
G36*
X149966547Y-85030515D02*
G01*
X151447667Y-84793278D01*
X151922141Y-87755519D01*
X150441021Y-87992756D01*
X149966547Y-85030515D01*
G37*
G04 #@! TD.AperFunction*
G04 #@! TA.AperFunction,SMDPad,CuDef*
G36*
X149017598Y-79106033D02*
G01*
X150498718Y-78868796D01*
X150973192Y-81831037D01*
X149492072Y-82068274D01*
X149017598Y-79106033D01*
G37*
G04 #@! TD.AperFunction*
G04 #@! TA.AperFunction,SMDPad,CuDef*
G36*
X148147729Y-73675257D02*
G01*
X149628849Y-73438020D01*
X150103323Y-76400261D01*
X148622203Y-76637498D01*
X148147729Y-73675257D01*
G37*
G04 #@! TD.AperFunction*
G04 #@! TA.AperFunction,SMDPad,CuDef*
G36*
X147277859Y-68244481D02*
G01*
X148758979Y-68007244D01*
X149233453Y-70969485D01*
X147752333Y-71206722D01*
X147277859Y-68244481D01*
G37*
G04 #@! TD.AperFunction*
D12*
X139000000Y-86500000D03*
X139000000Y-80500000D03*
X139000000Y-75000000D03*
X139000000Y-69500000D03*
D14*
X139000000Y-86500000D03*
X139000000Y-80500000D03*
X139000000Y-75000000D03*
X139000000Y-69500000D03*
D15*
X130500000Y-116500000D03*
X124500000Y-116500000D03*
X119000000Y-116500000D03*
X113500000Y-116500000D03*
X130500000Y-112500000D03*
X124500000Y-112500000D03*
X119000000Y-112500000D03*
X113500000Y-112500000D03*
D16*
X85500000Y-46380000D03*
D17*
X85500000Y-54000000D03*
G04 #@! TA.AperFunction,SMDPad,CuDef*
G36*
G01*
X53800000Y-73245000D02*
X53800000Y-72945000D01*
G75*
G02*
X53950000Y-72795000I150000J0D01*
G01*
X55250000Y-72795000D01*
G75*
G02*
X55400000Y-72945000I0J-150000D01*
G01*
X55400000Y-73245000D01*
G75*
G02*
X55250000Y-73395000I-150000J0D01*
G01*
X53950000Y-73395000D01*
G75*
G02*
X53800000Y-73245000I0J150000D01*
G01*
G37*
G04 #@! TD.AperFunction*
G04 #@! TA.AperFunction,SMDPad,CuDef*
G36*
G01*
X53800000Y-74515000D02*
X53800000Y-74215000D01*
G75*
G02*
X53950000Y-74065000I150000J0D01*
G01*
X55250000Y-74065000D01*
G75*
G02*
X55400000Y-74215000I0J-150000D01*
G01*
X55400000Y-74515000D01*
G75*
G02*
X55250000Y-74665000I-150000J0D01*
G01*
X53950000Y-74665000D01*
G75*
G02*
X53800000Y-74515000I0J150000D01*
G01*
G37*
G04 #@! TD.AperFunction*
G04 #@! TA.AperFunction,SMDPad,CuDef*
G36*
G01*
X53800000Y-75785000D02*
X53800000Y-75485000D01*
G75*
G02*
X53950000Y-75335000I150000J0D01*
G01*
X55250000Y-75335000D01*
G75*
G02*
X55400000Y-75485000I0J-150000D01*
G01*
X55400000Y-75785000D01*
G75*
G02*
X55250000Y-75935000I-150000J0D01*
G01*
X53950000Y-75935000D01*
G75*
G02*
X53800000Y-75785000I0J150000D01*
G01*
G37*
G04 #@! TD.AperFunction*
G04 #@! TA.AperFunction,SMDPad,CuDef*
G36*
G01*
X53800000Y-77055000D02*
X53800000Y-76755000D01*
G75*
G02*
X53950000Y-76605000I150000J0D01*
G01*
X55250000Y-76605000D01*
G75*
G02*
X55400000Y-76755000I0J-150000D01*
G01*
X55400000Y-77055000D01*
G75*
G02*
X55250000Y-77205000I-150000J0D01*
G01*
X53950000Y-77205000D01*
G75*
G02*
X53800000Y-77055000I0J150000D01*
G01*
G37*
G04 #@! TD.AperFunction*
G04 #@! TA.AperFunction,SMDPad,CuDef*
G36*
G01*
X46600000Y-77055000D02*
X46600000Y-76755000D01*
G75*
G02*
X46750000Y-76605000I150000J0D01*
G01*
X48050000Y-76605000D01*
G75*
G02*
X48200000Y-76755000I0J-150000D01*
G01*
X48200000Y-77055000D01*
G75*
G02*
X48050000Y-77205000I-150000J0D01*
G01*
X46750000Y-77205000D01*
G75*
G02*
X46600000Y-77055000I0J150000D01*
G01*
G37*
G04 #@! TD.AperFunction*
G04 #@! TA.AperFunction,SMDPad,CuDef*
G36*
G01*
X46600000Y-75785000D02*
X46600000Y-75485000D01*
G75*
G02*
X46750000Y-75335000I150000J0D01*
G01*
X48050000Y-75335000D01*
G75*
G02*
X48200000Y-75485000I0J-150000D01*
G01*
X48200000Y-75785000D01*
G75*
G02*
X48050000Y-75935000I-150000J0D01*
G01*
X46750000Y-75935000D01*
G75*
G02*
X46600000Y-75785000I0J150000D01*
G01*
G37*
G04 #@! TD.AperFunction*
G04 #@! TA.AperFunction,SMDPad,CuDef*
G36*
G01*
X46600000Y-74515000D02*
X46600000Y-74215000D01*
G75*
G02*
X46750000Y-74065000I150000J0D01*
G01*
X48050000Y-74065000D01*
G75*
G02*
X48200000Y-74215000I0J-150000D01*
G01*
X48200000Y-74515000D01*
G75*
G02*
X48050000Y-74665000I-150000J0D01*
G01*
X46750000Y-74665000D01*
G75*
G02*
X46600000Y-74515000I0J150000D01*
G01*
G37*
G04 #@! TD.AperFunction*
G04 #@! TA.AperFunction,SMDPad,CuDef*
G36*
G01*
X46600000Y-73245000D02*
X46600000Y-72945000D01*
G75*
G02*
X46750000Y-72795000I150000J0D01*
G01*
X48050000Y-72795000D01*
G75*
G02*
X48200000Y-72945000I0J-150000D01*
G01*
X48200000Y-73245000D01*
G75*
G02*
X48050000Y-73395000I-150000J0D01*
G01*
X46750000Y-73395000D01*
G75*
G02*
X46600000Y-73245000I0J150000D01*
G01*
G37*
G04 #@! TD.AperFunction*
D18*
X98400000Y-51240000D03*
X98400000Y-53780000D03*
X98400000Y-56320000D03*
D19*
X98400000Y-48700000D03*
D12*
X150000000Y-105500000D03*
X150000000Y-100000000D03*
X150000000Y-94500000D03*
D14*
X150000000Y-94500000D03*
X150000000Y-100000000D03*
X150000000Y-105500000D03*
D20*
X133500000Y-49500000D03*
X133500000Y-55000000D03*
X133500000Y-60500000D03*
D21*
X38500000Y-83700000D03*
X33500000Y-81600000D03*
X28500000Y-83700000D03*
X38500000Y-100700000D03*
X33500000Y-98600000D03*
X28500000Y-100700000D03*
D22*
X35150000Y-92000000D03*
X31850000Y-92000000D03*
X35150000Y-109000000D03*
X31850000Y-109000000D03*
D23*
X132125000Y-73750000D03*
X133875000Y-73750000D03*
X132125000Y-70250000D03*
X133875000Y-70250000D03*
D21*
X98700000Y-119500000D03*
X96600000Y-124500000D03*
X98700000Y-129500000D03*
X56500000Y-83700000D03*
X51500000Y-81600000D03*
X46500000Y-83700000D03*
X128500000Y-67200000D03*
X123500000Y-65100000D03*
X118500000Y-67200000D03*
X69500000Y-49000000D03*
X69500000Y-53500000D03*
X63000000Y-49000000D03*
X63000000Y-53500000D03*
X74500000Y-63700000D03*
X69500000Y-61600000D03*
X64500000Y-63700000D03*
X59500000Y-117700000D03*
X54500000Y-115600000D03*
X49500000Y-117700000D03*
X92500000Y-58700000D03*
X87500000Y-56600000D03*
X82500000Y-58700000D03*
X115700000Y-121500000D03*
X113600000Y-126500000D03*
X115700000Y-131500000D03*
X128500000Y-84200000D03*
X123500000Y-82100000D03*
X118500000Y-84200000D03*
X74500000Y-97700000D03*
X69500000Y-95600000D03*
X64500000Y-97700000D03*
X110500000Y-97700000D03*
X105500000Y-95600000D03*
X100500000Y-97700000D03*
X132700000Y-126500000D03*
X130600000Y-131500000D03*
X132700000Y-136500000D03*
X92500000Y-75700000D03*
X87500000Y-73600000D03*
X82500000Y-75700000D03*
X110500000Y-63700000D03*
X105500000Y-61600000D03*
X100500000Y-63700000D03*
X128500000Y-101200000D03*
X123500000Y-99100000D03*
X118500000Y-101200000D03*
X92500000Y-92700000D03*
X87500000Y-90600000D03*
X82500000Y-92700000D03*
X56500000Y-100700000D03*
X51500000Y-98600000D03*
X46500000Y-100700000D03*
X110500000Y-80700000D03*
X105500000Y-78600000D03*
X100500000Y-80700000D03*
X74500000Y-80700000D03*
X69500000Y-78600000D03*
X64500000Y-80700000D03*
D24*
X141000000Y-129850000D03*
X141000000Y-133150000D03*
X124000000Y-124850000D03*
X124000000Y-128150000D03*
X107000000Y-122850000D03*
X107000000Y-126150000D03*
D22*
X56150000Y-126000000D03*
X52850000Y-126000000D03*
X125150000Y-109500000D03*
X121850000Y-109500000D03*
X107150000Y-106000000D03*
X103850000Y-106000000D03*
X89150000Y-101000000D03*
X85850000Y-101000000D03*
X71150000Y-106000000D03*
X67850000Y-106000000D03*
X53150000Y-109000000D03*
X49850000Y-109000000D03*
X125150000Y-92500000D03*
X121850000Y-92500000D03*
X107150000Y-89000000D03*
X103850000Y-89000000D03*
X89150000Y-84000000D03*
X85850000Y-84000000D03*
X71150000Y-89000000D03*
X67850000Y-89000000D03*
X53150000Y-92000000D03*
X49850000Y-92000000D03*
X125150000Y-75500000D03*
X121850000Y-75500000D03*
X107150000Y-72000000D03*
X103850000Y-72000000D03*
X89150000Y-67000000D03*
X85850000Y-67000000D03*
X71150000Y-72000000D03*
X67850000Y-72000000D03*
D25*
X126800000Y-56250000D03*
X129800000Y-56250000D03*
X122800000Y-56250000D03*
X121700000Y-49750000D03*
D16*
X82500000Y-46380000D03*
D17*
X82500000Y-54000000D03*
D26*
X49850000Y-92000000D03*
X67850000Y-72000000D03*
X85850000Y-67000000D03*
X103850000Y-72000000D03*
X49850000Y-109000000D03*
X67850000Y-89000000D03*
X85850000Y-84000000D03*
X103850000Y-89000000D03*
X120500000Y-53000000D03*
X130500000Y-72125000D03*
X45500000Y-77000000D03*
X130000000Y-53000000D03*
X132125000Y-68000000D03*
X54600000Y-71200002D03*
X53150000Y-92000000D03*
X35150000Y-109000000D03*
X53150000Y-109000000D03*
X56150000Y-126000000D03*
X71150000Y-106000000D03*
X71150000Y-89000000D03*
X71150000Y-72000000D03*
X35150000Y-92000000D03*
X89150000Y-101000000D03*
X89150000Y-84000000D03*
X89150000Y-67000000D03*
X107150000Y-106000000D03*
X107150000Y-89000000D03*
X107150000Y-72000000D03*
X121850000Y-75500000D03*
X125150000Y-75500000D03*
X51500000Y-78773000D03*
X69500000Y-87000000D03*
X53000000Y-102500000D03*
X123000000Y-53000000D03*
X126500000Y-53000000D03*
X133000000Y-72000000D03*
X88500000Y-70500000D03*
X125150000Y-92500000D03*
X125150000Y-109500000D03*
X121850000Y-92500000D03*
X52850000Y-126000000D03*
X67850000Y-106000000D03*
X85850000Y-101000000D03*
X103850000Y-106000000D03*
X121850000Y-109500000D03*
X31850000Y-109000000D03*
X31850000Y-92000000D03*
X107000000Y-126150000D03*
X124000000Y-128150000D03*
X141000000Y-133150000D03*
X107000000Y-122850000D03*
X124000000Y-124850000D03*
X141000000Y-129850000D03*
X51000000Y-74999938D03*
X49500000Y-75092000D03*
X56586183Y-75787820D03*
X51112018Y-72312018D03*
X52405000Y-76905000D03*
X49094999Y-73094999D03*
X49000000Y-76000012D03*
D27*
X121700000Y-49750000D02*
X121700000Y-51800000D01*
X121700000Y-51800000D02*
X120500000Y-53000000D01*
X133875000Y-73750000D02*
X133875000Y-75125000D01*
X133875000Y-75125000D02*
X133000000Y-76000000D01*
X133000000Y-76000000D02*
X132000000Y-76000000D01*
X130500000Y-74500000D02*
X130500000Y-72125000D01*
X132000000Y-76000000D02*
X130500000Y-74500000D01*
X45595000Y-76905000D02*
X45500000Y-77000000D01*
X47400000Y-76905000D02*
X45595000Y-76905000D01*
X129800000Y-53200000D02*
X130000000Y-53000000D01*
X129800000Y-56250000D02*
X129800000Y-53200000D01*
X132125000Y-70250000D02*
X132125000Y-68375002D01*
X132125000Y-68375002D02*
X132125000Y-68000000D01*
X129800000Y-65675000D02*
X132125000Y-68000000D01*
X98400000Y-53780000D02*
X114280000Y-53780000D01*
X119800000Y-59300000D02*
X129800000Y-59300000D01*
X114280000Y-53780000D02*
X119800000Y-59300000D01*
X129800000Y-59300000D02*
X129800000Y-65675000D01*
X129800000Y-56250000D02*
X129800000Y-59300000D01*
X79850000Y-56650000D02*
X82500000Y-54000000D01*
X58620000Y-56650000D02*
X79850000Y-56650000D01*
X82500000Y-54000000D02*
X85500000Y-54000000D01*
X98180000Y-54000000D02*
X98400000Y-53780000D01*
X85500000Y-54000000D02*
X98180000Y-54000000D01*
X54600000Y-60670000D02*
X54600000Y-71200002D01*
X54600000Y-73095000D02*
X54600000Y-71200002D01*
X58620000Y-56650000D02*
X54600000Y-60670000D01*
D28*
X54500000Y-109000000D02*
X53150000Y-109000000D01*
X54500000Y-92000000D02*
X54500000Y-109000000D01*
X54500000Y-92000000D02*
X53150000Y-92000000D01*
D29*
X35150000Y-109000000D02*
X35150000Y-109000000D01*
D28*
X53150000Y-109000000D02*
X53150000Y-109000000D01*
D29*
X57000000Y-125150000D02*
X56150000Y-126000000D01*
X57000000Y-120780501D02*
X57000000Y-125150000D01*
X52500000Y-116280501D02*
X57000000Y-120780501D01*
X52500000Y-109650000D02*
X52500000Y-116280501D01*
X53150000Y-109000000D02*
X52500000Y-109650000D01*
D28*
X40000000Y-52410000D02*
X43380000Y-49030000D01*
X40000000Y-85500000D02*
X40000000Y-52410000D01*
X44954011Y-90454011D02*
X40000000Y-85500000D01*
X51604011Y-90454011D02*
X44954011Y-90454011D01*
X53150000Y-92000000D02*
X51604011Y-90454011D01*
X72500000Y-104650000D02*
X71150000Y-106000000D01*
X72500000Y-89000000D02*
X71150000Y-89000000D01*
X72500000Y-89000000D02*
X72500000Y-104650000D01*
X72500000Y-72000000D02*
X71150000Y-72000000D01*
X72500000Y-89000000D02*
X72500000Y-72000000D01*
X45142068Y-90000000D02*
X70150000Y-90000000D01*
X40500000Y-85357932D02*
X45142068Y-90000000D01*
X40500000Y-54450000D02*
X40500000Y-85357932D01*
X70150000Y-90000000D02*
X71150000Y-89000000D01*
X43380000Y-51570000D02*
X40500000Y-54450000D01*
X90500000Y-84000000D02*
X89150000Y-84000000D01*
X90500000Y-101000000D02*
X89150000Y-101000000D01*
X90500000Y-84000000D02*
X90500000Y-101000000D01*
X90500000Y-67000000D02*
X89150000Y-67000000D01*
X90500000Y-67000000D02*
X90500000Y-84000000D01*
X102000000Y-112500000D02*
X113500000Y-112500000D01*
X90500000Y-101000000D02*
X102000000Y-112500000D01*
X86150000Y-70000000D02*
X89150000Y-67000000D01*
X64350000Y-70000000D02*
X86150000Y-70000000D01*
X58620000Y-64270000D02*
X64350000Y-70000000D01*
X108500000Y-89000000D02*
X107150000Y-89000000D01*
X108500000Y-106000000D02*
X107150000Y-106000000D01*
X108500000Y-89000000D02*
X108500000Y-106000000D01*
X108500000Y-72000000D02*
X107150000Y-72000000D01*
X108500000Y-89000000D02*
X108500000Y-72000000D01*
X112500000Y-106000000D02*
X119000000Y-112500000D01*
X108500000Y-106000000D02*
X112500000Y-106000000D01*
X107150000Y-72000000D02*
X107150000Y-72000000D01*
X105650000Y-70500000D02*
X107150000Y-72000000D01*
X95445998Y-70500000D02*
X105650000Y-70500000D01*
X90445998Y-65500000D02*
X95445998Y-70500000D01*
X70468019Y-65500000D02*
X90445998Y-65500000D01*
X66698019Y-61730000D02*
X70468019Y-65500000D01*
X58620000Y-61730000D02*
X66698019Y-61730000D01*
X121925000Y-109575000D02*
X121850000Y-109500000D01*
X121954019Y-109575000D02*
X121925000Y-109575000D01*
X121850000Y-75500000D02*
X121850000Y-75500000D01*
X43380000Y-71890000D02*
X42000000Y-73270000D01*
X42000000Y-73270000D02*
X42000000Y-78215868D01*
X42000000Y-78215868D02*
X42784132Y-79000000D01*
X51273000Y-79000000D02*
X51500000Y-78773000D01*
X42784132Y-79000000D02*
X51273000Y-79000000D01*
X63400000Y-78600000D02*
X69500000Y-78600000D01*
X42642066Y-79500000D02*
X62500000Y-79500000D01*
X41500000Y-78357934D02*
X42642066Y-79500000D01*
X41500000Y-71230000D02*
X41500000Y-78357934D01*
X62500000Y-79500000D02*
X63400000Y-78600000D01*
X43380000Y-69350000D02*
X41500000Y-71230000D01*
D29*
X54500000Y-115600000D02*
X61000000Y-109100000D01*
X61000000Y-109100000D02*
X61000000Y-98000000D01*
X63400000Y-95600000D02*
X69500000Y-95600000D01*
X61000000Y-98000000D02*
X63400000Y-95600000D01*
D28*
X42500000Y-80000000D02*
X56500000Y-80000000D01*
X63500000Y-87000000D02*
X69500000Y-87000000D01*
X41000000Y-78500000D02*
X42500000Y-80000000D01*
X43380000Y-66810000D02*
X41000000Y-69190000D01*
X41000000Y-69190000D02*
X41000000Y-78500000D01*
X56500000Y-80000000D02*
X63500000Y-87000000D01*
D29*
X36500000Y-98600000D02*
X33500000Y-98600000D01*
X36500000Y-84600000D02*
X36500000Y-98600000D01*
X33500000Y-81600000D02*
X36500000Y-84600000D01*
X49100000Y-98600000D02*
X53000000Y-102500000D01*
X36500000Y-98600000D02*
X49100000Y-98600000D01*
D28*
X122800000Y-56250000D02*
X122800000Y-53200000D01*
X122800000Y-53200000D02*
X123000000Y-53000000D01*
X46977932Y-46380000D02*
X45500000Y-47857932D01*
X45500000Y-47857932D02*
X45500000Y-57070000D01*
X82500000Y-46380000D02*
X46977932Y-46380000D01*
X45500000Y-57070000D02*
X43380000Y-59190000D01*
X126800000Y-53300000D02*
X126500000Y-53000000D01*
X126800000Y-56250000D02*
X126800000Y-53300000D01*
X79500000Y-47000000D02*
X81000000Y-48500000D01*
X47000000Y-47000000D02*
X79500000Y-47000000D01*
X46000000Y-59110000D02*
X46000000Y-48000000D01*
X43380000Y-61730000D02*
X46000000Y-59110000D01*
X83380000Y-48500000D02*
X85500000Y-46380000D01*
X81000000Y-48500000D02*
X83380000Y-48500000D01*
X46000000Y-48000000D02*
X47000000Y-47000000D01*
X133875000Y-71125000D02*
X133000000Y-72000000D01*
X133875000Y-70250000D02*
X133875000Y-71125000D01*
X58620000Y-66810000D02*
X62310000Y-70500000D01*
X62310000Y-70500000D02*
X88500000Y-70500000D01*
D29*
X124500000Y-110150000D02*
X125150000Y-109500000D01*
X124500000Y-112500000D02*
X124500000Y-110150000D01*
D28*
X114000000Y-70000000D02*
X119500000Y-75500000D01*
X96000000Y-70000000D02*
X114000000Y-70000000D01*
X91000000Y-65000000D02*
X96000000Y-70000000D01*
X79000000Y-65000000D02*
X91000000Y-65000000D01*
X73190000Y-59190000D02*
X79000000Y-65000000D01*
X58620000Y-59190000D02*
X73190000Y-59190000D01*
D29*
X121000000Y-77000000D02*
X119500000Y-75500000D01*
X123650000Y-77000000D02*
X121000000Y-77000000D01*
X125150000Y-75500000D02*
X123650000Y-77000000D01*
X126000000Y-75500000D02*
X125150000Y-75500000D01*
X126000000Y-92500000D02*
X126000000Y-75500000D01*
X125150000Y-92500000D02*
X126000000Y-92500000D01*
X126000000Y-108650000D02*
X126000000Y-92500000D01*
X125150000Y-109500000D02*
X126000000Y-108650000D01*
X105650000Y-127500000D02*
X107000000Y-126150000D01*
X98700000Y-127500000D02*
X105650000Y-127500000D01*
D28*
X98700000Y-129500000D02*
X98700000Y-127500000D01*
X98700000Y-127500000D02*
X98700000Y-119500000D01*
D29*
X122650000Y-129500000D02*
X124000000Y-128150000D01*
X115700000Y-129500000D02*
X122650000Y-129500000D01*
D28*
X115700000Y-131500000D02*
X115700000Y-129500000D01*
X115700000Y-129500000D02*
X115700000Y-121500000D01*
D29*
X139650000Y-134500000D02*
X141000000Y-133150000D01*
X132700000Y-134500000D02*
X139650000Y-134500000D01*
X132700000Y-136500000D02*
X132700000Y-134500000D01*
X132700000Y-134500000D02*
X132700000Y-126500000D01*
D27*
X150936715Y-86500000D02*
X150974474Y-86462241D01*
X139000000Y-86500000D02*
X150936715Y-86500000D01*
X149987767Y-80500000D02*
X150025526Y-80537759D01*
X139000000Y-80500000D02*
X149987767Y-80500000D01*
X139106983Y-75106983D02*
X139000000Y-75000000D01*
X149155656Y-75106983D02*
X139106983Y-75106983D01*
X148109580Y-69500000D02*
X148285787Y-69676207D01*
X139000000Y-69500000D02*
X148109580Y-69500000D01*
D28*
X107150000Y-122850000D02*
X113500000Y-116500000D01*
X107000000Y-122850000D02*
X107150000Y-122850000D01*
X107000000Y-122850000D02*
X107000000Y-122850000D01*
X124000000Y-121500000D02*
X119000000Y-116500000D01*
X124000000Y-124850000D02*
X124000000Y-121500000D01*
X125000000Y-116500000D02*
X124500000Y-116500000D01*
X138350000Y-129850000D02*
X125000000Y-116500000D01*
X141000000Y-129850000D02*
X138350000Y-129850000D01*
X54600000Y-74365000D02*
X51634938Y-74365000D01*
X51634938Y-74365000D02*
X51000000Y-74999938D01*
X51000000Y-75565623D02*
X51000000Y-74999938D01*
X43380000Y-76970000D02*
X44410000Y-78000000D01*
X44410000Y-78000000D02*
X48565623Y-78000000D01*
X48565623Y-78000000D02*
X51000000Y-75565623D01*
X56000000Y-71970000D02*
X58620000Y-69350000D01*
X56000000Y-73169596D02*
X56000000Y-71970000D01*
X50854010Y-73737990D02*
X55431606Y-73737990D01*
X55431606Y-73737990D02*
X56000000Y-73169596D01*
X49500000Y-75092000D02*
X50854010Y-73737990D01*
X56000000Y-75000000D02*
X56000000Y-73169596D01*
X55365000Y-75635000D02*
X56000000Y-75000000D01*
X54600000Y-75635000D02*
X55365000Y-75635000D01*
X56586183Y-73923817D02*
X58620000Y-71890000D01*
X56586183Y-75787820D02*
X56586183Y-73923817D01*
X49059036Y-74365000D02*
X51112018Y-72312018D01*
X47400000Y-74365000D02*
X49059036Y-74365000D01*
X54600000Y-76905000D02*
X52405000Y-76905000D01*
X56620000Y-76905000D02*
X54600000Y-76905000D01*
X58620000Y-74905000D02*
X56620000Y-76905000D01*
X58620000Y-74430000D02*
X58620000Y-74905000D01*
X47400000Y-73095000D02*
X48529314Y-73094999D01*
X48529314Y-73094999D02*
X49094999Y-73094999D01*
X44585000Y-75635000D02*
X43380000Y-74430000D01*
X47400000Y-75635000D02*
X44585000Y-75635000D01*
X48634988Y-75635000D02*
X49000000Y-76000012D01*
X47400000Y-75635000D02*
X48634988Y-75635000D01*
M02*
