M48
; DRILL file {KiCad 5.1.6} date Wed Jul  1 23:18:01 2020
; FORMAT={-:-/ absolute / inch / decimal}
; #@! TF.CreationDate,2020-07-01T23:18:01-05:00
; #@! TF.GenerationSoftware,Kicad,Pcbnew,5.1.6
; #@! TF.FileFunction,NonPlated,1,2,NPTH
FMAT,2
INCH
T1C0.0300
T2C0.0315
T3C0.0669
T4C0.1339
%
G90
G05
T1
X3.7991Y-4.9704
X4.2715Y-4.498
X3.7991Y-4.9704
X4.2715Y-4.498
T2
X5.4723Y-4.0295
X5.4723Y-4.3051
X5.4723Y-4.0295
X5.4723Y-4.3051
T3
X3.9369Y-3.3169
X4.37Y-3.3169
X4.6456Y-4.124
X5.0786Y-4.124
X4.6456Y-2.7854
X5.0786Y-2.7854
X5.3739Y-4.7933
X5.3739Y-5.2263
X3.2282Y-2.4507
X3.6613Y-2.4507
X1.8109Y-3.435
X2.244Y-3.435
X2.5196Y-3.3169
X2.9526Y-3.3169
X3.2282Y-3.7893
X3.6613Y-3.7893
X3.9369Y-2.6476
X4.37Y-2.6476
X4.7046Y-4.5964
X4.7046Y-5.0295
X2.5196Y-3.9862
X2.9526Y-3.9862
X2.5196Y-2.6476
X2.9526Y-2.6476
X3.9369Y-3.9862
X4.37Y-3.9862
X1.8109Y-4.1043
X2.244Y-4.1043
X4.6456Y-3.4547
X5.0786Y-3.4547
X3.2282Y-3.12
X3.6613Y-3.12
X4.0353Y-4.5177
X4.0353Y-4.9507
X1.929Y-4.7736
X2.3621Y-4.7736
T4
X4.1534Y-3.3169
X4.8621Y-4.124
X4.8621Y-2.7854
X5.3739Y-5.0098
X3.4448Y-2.4507
X2.0274Y-3.435
X2.7361Y-3.3169
X3.4448Y-3.7893
X4.1534Y-2.6476
X4.7046Y-4.813
X2.7361Y-3.9862
X2.7361Y-2.6476
X4.1534Y-3.9862
X2.0274Y-4.1043
X4.8621Y-3.4547
X3.4448Y-3.12
X4.0353Y-4.7342
X2.1456Y-4.7736
T0
M30
