G04 #@! TF.GenerationSoftware,KiCad,Pcbnew,5.1.6*
G04 #@! TF.CreationDate,2020-08-24T11:01:31-05:00*
G04 #@! TF.ProjectId,fissure,66697373-7572-4652-9e6b-696361645f70,rev?*
G04 #@! TF.SameCoordinates,Original*
G04 #@! TF.FileFunction,Copper,L1,Top*
G04 #@! TF.FilePolarity,Positive*
%FSLAX46Y46*%
G04 Gerber Fmt 4.6, Leading zero omitted, Abs format (unit mm)*
G04 Created by KiCad (PCBNEW 5.1.6) date 2020-08-24 11:01:31*
%MOMM*%
%LPD*%
G01*
G04 APERTURE LIST*
G04 #@! TA.AperFunction,ComponentPad*
%ADD10C,1.524000*%
G04 #@! TD*
G04 #@! TA.AperFunction,SMDPad,CuDef*
%ADD11R,1.500000X3.000000*%
G04 #@! TD*
G04 #@! TA.AperFunction,SMDPad,CuDef*
%ADD12C,0.100000*%
G04 #@! TD*
G04 #@! TA.AperFunction,ComponentPad*
%ADD13R,2.000000X3.700000*%
G04 #@! TD*
G04 #@! TA.AperFunction,ComponentPad*
%ADD14R,3.700000X2.000000*%
G04 #@! TD*
G04 #@! TA.AperFunction,ComponentPad*
%ADD15C,2.000000*%
G04 #@! TD*
G04 #@! TA.AperFunction,SMDPad,CuDef*
%ADD16R,0.900000X1.200000*%
G04 #@! TD*
G04 #@! TA.AperFunction,SMDPad,CuDef*
%ADD17R,1.600000X0.850000*%
G04 #@! TD*
G04 #@! TA.AperFunction,ComponentPad*
%ADD18C,1.752600*%
G04 #@! TD*
G04 #@! TA.AperFunction,ComponentPad*
%ADD19R,1.752600X1.752600*%
G04 #@! TD*
G04 #@! TA.AperFunction,SMDPad,CuDef*
%ADD20R,1.200000X0.900000*%
G04 #@! TD*
G04 #@! TA.AperFunction,SMDPad,CuDef*
%ADD21R,2.500000X1.200000*%
G04 #@! TD*
G04 #@! TA.AperFunction,ComponentPad*
%ADD22O,1.600000X1.600000*%
G04 #@! TD*
G04 #@! TA.AperFunction,ComponentPad*
%ADD23C,1.600000*%
G04 #@! TD*
G04 #@! TA.AperFunction,ViaPad*
%ADD24C,0.800000*%
G04 #@! TD*
G04 #@! TA.AperFunction,Conductor*
%ADD25C,0.254000*%
G04 #@! TD*
G04 #@! TA.AperFunction,Conductor*
%ADD26C,0.508000*%
G04 #@! TD*
G04 #@! TA.AperFunction,Conductor*
%ADD27C,0.250000*%
G04 #@! TD*
G04 APERTURE END LIST*
D10*
X148000000Y-99000000D03*
X148000000Y-104500000D03*
X148000000Y-110000000D03*
D11*
X148000000Y-110000000D03*
X148000000Y-104500000D03*
X148000000Y-99000000D03*
D10*
X161714213Y-89823793D03*
X160844344Y-84393017D03*
X159974474Y-78962241D03*
X159025526Y-73037759D03*
X158155656Y-67606983D03*
X157285787Y-62176207D03*
G04 #@! TA.AperFunction,SMDPad,CuDef*
D12*
G36*
X160736416Y-88461291D02*
G01*
X162217536Y-88224054D01*
X162692010Y-91186295D01*
X161210890Y-91423532D01*
X160736416Y-88461291D01*
G37*
G04 #@! TD.AperFunction*
G04 #@! TA.AperFunction,SMDPad,CuDef*
G36*
X159866547Y-83030515D02*
G01*
X161347667Y-82793278D01*
X161822141Y-85755519D01*
X160341021Y-85992756D01*
X159866547Y-83030515D01*
G37*
G04 #@! TD.AperFunction*
G04 #@! TA.AperFunction,SMDPad,CuDef*
G36*
X158996677Y-77599739D02*
G01*
X160477797Y-77362502D01*
X160952271Y-80324743D01*
X159471151Y-80561980D01*
X158996677Y-77599739D01*
G37*
G04 #@! TD.AperFunction*
G04 #@! TA.AperFunction,SMDPad,CuDef*
G36*
X158047729Y-71675257D02*
G01*
X159528849Y-71438020D01*
X160003323Y-74400261D01*
X158522203Y-74637498D01*
X158047729Y-71675257D01*
G37*
G04 #@! TD.AperFunction*
G04 #@! TA.AperFunction,SMDPad,CuDef*
G36*
X157177859Y-66244481D02*
G01*
X158658979Y-66007244D01*
X159133453Y-68969485D01*
X157652333Y-69206722D01*
X157177859Y-66244481D01*
G37*
G04 #@! TD.AperFunction*
G04 #@! TA.AperFunction,SMDPad,CuDef*
G36*
X156307990Y-60813705D02*
G01*
X157789110Y-60576468D01*
X158263584Y-63538709D01*
X156782464Y-63775946D01*
X156307990Y-60813705D01*
G37*
G04 #@! TD.AperFunction*
D10*
X148000000Y-90000000D03*
X148000000Y-84500000D03*
X148000000Y-79000000D03*
X148000000Y-73000000D03*
X148000000Y-67500000D03*
X148000000Y-62000000D03*
D11*
X148000000Y-90000000D03*
X148000000Y-84500000D03*
X148000000Y-79000000D03*
X148000000Y-73000000D03*
X148000000Y-67500000D03*
X148000000Y-62000000D03*
D13*
X142500000Y-57500000D03*
X142500000Y-63000000D03*
X142500000Y-68500000D03*
D14*
X141500000Y-116500000D03*
X136000000Y-116500000D03*
X130500000Y-116500000D03*
X124500000Y-116500000D03*
X119000000Y-116500000D03*
X113500000Y-116500000D03*
X141500000Y-112000000D03*
X136000000Y-112000000D03*
X130500000Y-112000000D03*
X124500000Y-112000000D03*
X119000000Y-112000000D03*
X113500000Y-112000000D03*
D15*
X38500000Y-83700000D03*
X33500000Y-81600000D03*
X28500000Y-83700000D03*
X38500000Y-100700000D03*
X33500000Y-98600000D03*
X28500000Y-100700000D03*
D16*
X35150000Y-92000000D03*
X31850000Y-92000000D03*
X35150000Y-109000000D03*
X31850000Y-109000000D03*
D17*
X141150000Y-108475000D03*
X141150000Y-106725000D03*
X137650000Y-108475000D03*
X137650000Y-106725000D03*
D15*
X98700000Y-120000000D03*
X96600000Y-125000000D03*
X98700000Y-130000000D03*
X56500000Y-83700000D03*
X51500000Y-81600000D03*
X46500000Y-83700000D03*
D18*
X100530000Y-41380000D03*
X128470000Y-56620000D03*
X103070000Y-41380000D03*
X105610000Y-41380000D03*
X108150000Y-41380000D03*
X110690000Y-41380000D03*
X113230000Y-41380000D03*
X115770000Y-41380000D03*
X118310000Y-41380000D03*
X120850000Y-41380000D03*
X123390000Y-41380000D03*
X125930000Y-41380000D03*
X128470000Y-41380000D03*
X125930000Y-56620000D03*
X123390000Y-56620000D03*
X120850000Y-56620000D03*
X118310000Y-56620000D03*
X115770000Y-56620000D03*
X113230000Y-56620000D03*
X110690000Y-56620000D03*
X108150000Y-56620000D03*
X105610000Y-56620000D03*
X103070000Y-56620000D03*
D19*
X100530000Y-56620000D03*
D15*
X128500000Y-67200000D03*
X123500000Y-65100000D03*
X118500000Y-67200000D03*
X131000000Y-52000000D03*
X131000000Y-47500000D03*
X137500000Y-52000000D03*
X137500000Y-47500000D03*
X74500000Y-63700000D03*
X69500000Y-61600000D03*
X64500000Y-63700000D03*
X59500000Y-117700000D03*
X54500000Y-115600000D03*
X49500000Y-117700000D03*
X92500000Y-58700000D03*
X87500000Y-56600000D03*
X82500000Y-58700000D03*
X115700000Y-122000000D03*
X113600000Y-127000000D03*
X115700000Y-132000000D03*
X128500000Y-84200000D03*
X123500000Y-82100000D03*
X118500000Y-84200000D03*
X74500000Y-97700000D03*
X69500000Y-95600000D03*
X64500000Y-97700000D03*
X110500000Y-97700000D03*
X105500000Y-95600000D03*
X100500000Y-97700000D03*
X132700000Y-127000000D03*
X130600000Y-132000000D03*
X132700000Y-137000000D03*
X92500000Y-75700000D03*
X87500000Y-73600000D03*
X82500000Y-75700000D03*
X110500000Y-63700000D03*
X105500000Y-61600000D03*
X100500000Y-63700000D03*
X128500000Y-101200000D03*
X123500000Y-99100000D03*
X118500000Y-101200000D03*
X92500000Y-92700000D03*
X87500000Y-90600000D03*
X82500000Y-92700000D03*
X56500000Y-100700000D03*
X51500000Y-98600000D03*
X46500000Y-100700000D03*
X110500000Y-80700000D03*
X105500000Y-78600000D03*
X100500000Y-80700000D03*
X74500000Y-80700000D03*
X69500000Y-78600000D03*
X64500000Y-80700000D03*
D20*
X141000000Y-130350000D03*
X141000000Y-133650000D03*
X124000000Y-125350000D03*
X124000000Y-128650000D03*
X107000000Y-123350000D03*
X107000000Y-126650000D03*
D16*
X56150000Y-126000000D03*
X52850000Y-126000000D03*
X121850000Y-109500000D03*
X125150000Y-109500000D03*
X107150000Y-106000000D03*
X103850000Y-106000000D03*
X89150000Y-101000000D03*
X85850000Y-101000000D03*
X71150000Y-106000000D03*
X67850000Y-106000000D03*
X53150000Y-109000000D03*
X49850000Y-109000000D03*
X121850000Y-92500000D03*
X125150000Y-92500000D03*
X107150000Y-89000000D03*
X103850000Y-89000000D03*
X89150000Y-84000000D03*
X85850000Y-84000000D03*
X71150000Y-89000000D03*
X67850000Y-89000000D03*
X53150000Y-92000000D03*
X49850000Y-92000000D03*
X121850000Y-75500000D03*
X125150000Y-75500000D03*
X107150000Y-72000000D03*
X103850000Y-72000000D03*
X89150000Y-67000000D03*
X85850000Y-67000000D03*
X71150000Y-72000000D03*
X67850000Y-72000000D03*
D21*
X142250000Y-98700000D03*
X142250000Y-95700000D03*
X142250000Y-102700000D03*
X135750000Y-103800000D03*
D22*
X113500000Y-54120000D03*
D23*
X113500000Y-46500000D03*
D22*
X110500000Y-54120000D03*
D23*
X110500000Y-46500000D03*
D24*
X49850000Y-92000000D03*
X67850000Y-72000000D03*
X85850000Y-67000000D03*
X103850000Y-72000000D03*
X125150000Y-75500000D03*
X49850000Y-109000000D03*
X67850000Y-89000000D03*
X85850000Y-84000000D03*
X103850000Y-89000000D03*
X139000000Y-105000000D03*
X139000000Y-95500000D03*
X134848500Y-107151500D03*
X53150000Y-92000000D03*
X35150000Y-109000000D03*
X53150000Y-109000000D03*
X56150000Y-126000000D03*
X71150000Y-106000000D03*
X71150000Y-89000000D03*
X71150000Y-72000000D03*
X35150000Y-92000000D03*
X89150000Y-101000000D03*
X89150000Y-67000000D03*
X89150000Y-84000000D03*
X107150000Y-106000000D03*
X107150000Y-89000000D03*
X107150000Y-72000000D03*
X130500000Y-73500000D03*
X121850000Y-109500000D03*
X121850000Y-92500000D03*
X131500000Y-77000000D03*
X121850000Y-75500000D03*
X121500000Y-107500000D03*
X53000000Y-102500000D03*
X139000000Y-102500000D03*
X139000000Y-99000000D03*
X139500000Y-107500000D03*
X125150000Y-92500000D03*
X52850000Y-126000000D03*
X67850000Y-106000000D03*
X85850000Y-101000000D03*
X103850000Y-106000000D03*
X125150000Y-109500000D03*
X31850000Y-109000000D03*
X31850000Y-92000000D03*
X107000000Y-126650000D03*
X124000000Y-128650000D03*
X141000000Y-133650000D03*
X107000000Y-123350000D03*
X124000000Y-125350000D03*
X141000000Y-130350000D03*
D25*
X124500000Y-75500000D02*
X125150000Y-75500000D01*
X118500000Y-67200000D02*
X118500000Y-69500000D01*
X118500000Y-69500000D02*
X124500000Y-75500000D01*
D26*
X141150000Y-106725000D02*
X139425000Y-105000000D01*
X139425000Y-105000000D02*
X139000000Y-105000000D01*
X135750000Y-103800000D02*
X137800000Y-103800000D01*
X137800000Y-103800000D02*
X139000000Y-105000000D01*
X137500000Y-103500000D02*
X137800000Y-103800000D01*
X137500000Y-52000000D02*
X137500000Y-103500000D01*
X139200000Y-95700000D02*
X139000000Y-95500000D01*
X142250000Y-95700000D02*
X139200000Y-95700000D01*
X136172000Y-108475000D02*
X134848500Y-107151500D01*
X137650000Y-108475000D02*
X136172000Y-108475000D01*
D25*
X54500000Y-109000000D02*
X53150000Y-109000000D01*
X54500000Y-92000000D02*
X54500000Y-109000000D01*
X90500000Y-43000000D02*
X109070000Y-43000000D01*
X109070000Y-43000000D02*
X110690000Y-41380000D01*
X54500000Y-79000000D02*
X90500000Y-43000000D01*
X54500000Y-92000000D02*
X53150000Y-92000000D01*
X54500000Y-92000000D02*
X54500000Y-79000000D01*
D27*
X35150000Y-109000000D02*
X35150000Y-109000000D01*
D25*
X53150000Y-109000000D02*
X53150000Y-109000000D01*
D27*
X57000000Y-125150000D02*
X56150000Y-126000000D01*
X57000000Y-120780501D02*
X57000000Y-125150000D01*
X52500000Y-116280501D02*
X57000000Y-120780501D01*
X52500000Y-109650000D02*
X52500000Y-116280501D01*
X53150000Y-109000000D02*
X52500000Y-109650000D01*
D25*
X72500000Y-104650000D02*
X71150000Y-106000000D01*
X72500000Y-89000000D02*
X71150000Y-89000000D01*
X72500000Y-89000000D02*
X72500000Y-104650000D01*
X72500000Y-72000000D02*
X71150000Y-72000000D01*
X72500000Y-89000000D02*
X72500000Y-72000000D01*
X111110000Y-43500000D02*
X113230000Y-41380000D01*
X91500000Y-43500000D02*
X111110000Y-43500000D01*
X72500000Y-62500000D02*
X91500000Y-43500000D01*
X72500000Y-72000000D02*
X72500000Y-62500000D01*
X90500000Y-84000000D02*
X89150000Y-84000000D01*
X90500000Y-101000000D02*
X89150000Y-101000000D01*
X90500000Y-84000000D02*
X90500000Y-101000000D01*
X90500000Y-67000000D02*
X89150000Y-67000000D01*
X90500000Y-67000000D02*
X90500000Y-84000000D01*
X97500000Y-44000000D02*
X113150000Y-44000000D01*
X90500000Y-51000000D02*
X97500000Y-44000000D01*
X113150000Y-44000000D02*
X115770000Y-41380000D01*
X90500000Y-67000000D02*
X90500000Y-51000000D01*
X102000000Y-112500000D02*
X113500000Y-112500000D01*
X90500000Y-101000000D02*
X102000000Y-112500000D01*
X108500000Y-89000000D02*
X107150000Y-89000000D01*
X108500000Y-106000000D02*
X107150000Y-106000000D01*
X108500000Y-89000000D02*
X108500000Y-106000000D01*
X108500000Y-72000000D02*
X107150000Y-72000000D01*
X108500000Y-89000000D02*
X108500000Y-72000000D01*
X130500000Y-55500000D02*
X130500000Y-73500000D01*
X118310000Y-43310000D02*
X130500000Y-55500000D01*
X118310000Y-41380000D02*
X118310000Y-43310000D01*
X112500000Y-106000000D02*
X119000000Y-112500000D01*
X108500000Y-106000000D02*
X112500000Y-106000000D01*
X121925000Y-109575000D02*
X121850000Y-109500000D01*
X121954019Y-109575000D02*
X121925000Y-109575000D01*
X120500000Y-92500000D02*
X121850000Y-92500000D01*
X120500000Y-108150000D02*
X120500000Y-92500000D01*
X121850000Y-109500000D02*
X120500000Y-108150000D01*
X120850000Y-44850000D02*
X120850000Y-41380000D01*
X131500000Y-55500000D02*
X120850000Y-44850000D01*
X131500000Y-77000000D02*
X131500000Y-55500000D01*
X124500000Y-112150000D02*
X121850000Y-109500000D01*
X124500000Y-112500000D02*
X124500000Y-112150000D01*
X120500000Y-92500000D02*
X120500000Y-75500000D01*
X120500000Y-75500000D02*
X121850000Y-75500000D01*
X115770000Y-57370000D02*
X115770000Y-56620000D01*
X123500000Y-65100000D02*
X115770000Y-57370000D01*
X126000000Y-64310000D02*
X118310000Y-56620000D01*
X123500000Y-82100000D02*
X126500000Y-79100000D01*
X126500000Y-79100000D02*
X126500000Y-74000000D01*
X126500000Y-74000000D02*
X126000000Y-73500000D01*
X126000000Y-73500000D02*
X126000000Y-64310000D01*
X127000000Y-95600000D02*
X123500000Y-99100000D01*
X126500000Y-73000000D02*
X127000000Y-73500000D01*
X127000000Y-73500000D02*
X127000000Y-95600000D01*
X126500000Y-62270000D02*
X126500000Y-73000000D01*
X120850000Y-56620000D02*
X126500000Y-62270000D01*
D27*
X54500000Y-115600000D02*
X61000000Y-109100000D01*
X61000000Y-109100000D02*
X61000000Y-98000000D01*
X63400000Y-95600000D02*
X69500000Y-95600000D01*
X61000000Y-98000000D02*
X63400000Y-95600000D01*
D25*
X127000000Y-72000000D02*
X130500000Y-75500000D01*
X127000000Y-60230000D02*
X127000000Y-72000000D01*
X123390000Y-56620000D02*
X127000000Y-60230000D01*
D27*
X130500000Y-107500000D02*
X121500000Y-107500000D01*
D25*
X130500000Y-112500000D02*
X130500000Y-107500000D01*
X130500000Y-107500000D02*
X130500000Y-75500000D01*
D27*
X36500000Y-98600000D02*
X33500000Y-98600000D01*
X36500000Y-84600000D02*
X36500000Y-98600000D01*
X33500000Y-81600000D02*
X36500000Y-84600000D01*
X49100000Y-98600000D02*
X53000000Y-102500000D01*
X36500000Y-98600000D02*
X49100000Y-98600000D01*
D25*
X142250000Y-102700000D02*
X139200000Y-102700000D01*
X139200000Y-102700000D02*
X139000000Y-102500000D01*
X110500000Y-56430000D02*
X110690000Y-56620000D01*
X110500000Y-54120000D02*
X110500000Y-56430000D01*
X139300000Y-98700000D02*
X139000000Y-99000000D01*
X142250000Y-98700000D02*
X139300000Y-98700000D01*
X113500000Y-56350000D02*
X113230000Y-56620000D01*
X113500000Y-54120000D02*
X113500000Y-56350000D01*
X138725000Y-106725000D02*
X139500000Y-107500000D01*
X137650000Y-106725000D02*
X138725000Y-106725000D01*
X133000000Y-45910000D02*
X128470000Y-41380000D01*
X133000000Y-108000000D02*
X133000000Y-45910000D01*
X135000000Y-110000000D02*
X133000000Y-108000000D01*
X139000000Y-110000000D02*
X135000000Y-110000000D01*
X139500000Y-109500000D02*
X139000000Y-110000000D01*
X139500000Y-107500000D02*
X139500000Y-109500000D01*
D27*
X105650000Y-128000000D02*
X107000000Y-126650000D01*
X98700000Y-128000000D02*
X105650000Y-128000000D01*
D25*
X98700000Y-130000000D02*
X98700000Y-128000000D01*
X98700000Y-128000000D02*
X98700000Y-120000000D01*
D27*
X122650000Y-130000000D02*
X124000000Y-128650000D01*
X115700000Y-130000000D02*
X122650000Y-130000000D01*
D25*
X115700000Y-132000000D02*
X115700000Y-130000000D01*
X115700000Y-130000000D02*
X115700000Y-122000000D01*
D27*
X139650000Y-135000000D02*
X141000000Y-133650000D01*
X132700000Y-135000000D02*
X139650000Y-135000000D01*
X132700000Y-137000000D02*
X132700000Y-135000000D01*
X132700000Y-135000000D02*
X132700000Y-127000000D01*
D26*
X161538006Y-90000000D02*
X161714213Y-89823793D01*
X148000000Y-90000000D02*
X161538006Y-90000000D01*
X160737361Y-84500000D02*
X160844344Y-84393017D01*
X148000000Y-84500000D02*
X160737361Y-84500000D01*
X159936715Y-79000000D02*
X159974474Y-78962241D01*
X148000000Y-79000000D02*
X159936715Y-79000000D01*
X158987767Y-73000000D02*
X159025526Y-73037759D01*
X148000000Y-73000000D02*
X158987767Y-73000000D01*
X148106983Y-67606983D02*
X148000000Y-67500000D01*
X158155656Y-67606983D02*
X148106983Y-67606983D01*
X157109580Y-62000000D02*
X157285787Y-62176207D01*
X148000000Y-62000000D02*
X157109580Y-62000000D01*
D25*
X107150000Y-123350000D02*
X113500000Y-117000000D01*
X107000000Y-123350000D02*
X107150000Y-123350000D01*
X107000000Y-123350000D02*
X107000000Y-123350000D01*
X124000000Y-122000000D02*
X119000000Y-117000000D01*
X124000000Y-125350000D02*
X124000000Y-122000000D01*
X125000000Y-117000000D02*
X124500000Y-117000000D01*
X138350000Y-130350000D02*
X125000000Y-117000000D01*
X141000000Y-130350000D02*
X138350000Y-130350000D01*
M02*
