M48
; DRILL file {KiCad 5.1.8} date Mon Dec 21 15:28:52 2020
; FORMAT={-:-/ absolute / inch / decimal}
; #@! TF.CreationDate,2020-12-21T15:28:52-06:00
; #@! TF.GenerationSoftware,Kicad,Pcbnew,5.1.8
; #@! TF.FileFunction,NonPlated,1,2,NPTH
FMAT,2
INCH
T1C0.0310
T2C0.0315
T3C0.0669
T4C0.1339
%
G90
G05
T1
X5.325Y-2.6559
X5.325Y-2.7059
X5.325Y-2.7559
X5.325Y-2.8059
X5.325Y-2.8559
X5.4034Y-3.5614
X5.4034Y-3.6114
X5.4034Y-3.6614
X5.4034Y-3.7114
X5.4034Y-3.7614
X5.325Y-3.5614
X5.325Y-3.6114
X5.325Y-3.6614
X5.325Y-3.7114
X5.325Y-3.7614
X3.9354Y-4.2915
X3.9854Y-4.2915
X4.0354Y-4.2915
X4.0854Y-4.2915
X4.1354Y-4.2915
X3.2858Y-4.3994
X3.3358Y-4.3994
X3.3858Y-4.3994
X3.4358Y-4.3994
X3.4858Y-4.3994
X3.2858Y-4.2915
X3.3358Y-4.2915
X3.3858Y-4.2915
X3.4358Y-4.2915
X3.4858Y-4.2915
X5.4034Y-2.6559
X5.4034Y-2.7059
X5.4034Y-2.7559
X5.4034Y-2.8059
X5.4034Y-2.8559
X3.9354Y-4.3994
X3.9854Y-4.3994
X4.0354Y-4.3994
X4.0854Y-4.3994
X4.1354Y-4.3994
T2
X2.937Y-4.7441
X3.2126Y-4.7441
X2.937Y-4.7441
X3.2126Y-4.7441
T3
X6.6831Y-4.5669
X6.6831Y-5.0
X4.6457Y-4.1043
X5.0787Y-4.1043
X4.6457Y-2.7854
X5.0787Y-2.7854
X5.3642Y-4.8425
X5.3642Y-5.2756
X2.5197Y-2.6673
X2.9528Y-2.6673
X3.937Y-3.9862
X4.3701Y-3.9862
X3.2283Y-3.1299
X3.6614Y-3.1299
X3.937Y-2.6673
X4.3701Y-2.6673
X1.811Y-3.4547
X2.2441Y-3.4547
X2.5197Y-3.3268
X2.9528Y-3.3268
X2.5197Y-3.9862
X2.9528Y-3.9862
X1.1024Y-4.1142
X1.5354Y-4.1142
X1.1024Y-3.4547
X1.5354Y-3.4547
X4.6457Y-3.4449
X5.0787Y-3.4449
X3.2283Y-3.7894
X3.6614Y-3.7894
X1.811Y-4.1142
X2.2441Y-4.1142
X6.0236Y-4.6457
X6.0236Y-5.0787
X3.2283Y-2.4705
X3.6614Y-2.4705
X3.937Y-3.3268
X4.3701Y-3.3268
X1.9291Y-4.7736
X2.3622Y-4.7736
T4
X4.1535Y-3.3268
X2.1457Y-4.7736
X6.6831Y-4.7835
X4.8622Y-4.1043
X4.8622Y-2.7854
X5.3642Y-5.0591
X2.7362Y-2.6673
X4.1535Y-3.9862
X3.4449Y-3.1299
X4.1535Y-2.6673
X2.0276Y-3.4547
X2.7362Y-3.3268
X2.7362Y-3.9862
X1.3189Y-4.1142
X1.3189Y-3.4547
X4.8622Y-3.4449
X3.4449Y-3.7894
X2.0276Y-4.1142
X6.0236Y-4.8622
X3.4449Y-2.4705
T0
M30
