M48
; DRILL file {KiCad 5.1.6} date Mon Aug 24 19:04:18 2020
; FORMAT={-:-/ absolute / inch / decimal}
; #@! TF.CreationDate,2020-08-24T19:04:18-05:00
; #@! TF.GenerationSoftware,Kicad,Pcbnew,5.1.6
; #@! TF.FileFunction,NonPlated,1,2,NPTH
FMAT,2
INCH
T1C0.0155
T2C0.0315
T3C0.0669
T4C0.1339
%
G90
G05
T1
X5.325Y-3.4252
X5.1969Y-4.5176
X5.325Y-3.4055
X5.325Y-2.7362
X5.6693Y-3.612
X5.1772Y-4.5176
X5.364Y-3.4055
X5.325Y-3.8583
X5.689Y-3.612
X5.0787Y-4.5176
X4.0157Y-4.4785
X5.364Y-3.9567
X4.0157Y-4.5176
X5.364Y-3.3858
X4.0748Y-4.5176
X5.364Y-2.7165
X5.7087Y-3.573
X5.325Y-3.8976
X5.325Y-2.7165
X5.364Y-2.7362
X5.364Y-3.9173
X5.6102Y-3.612
X5.689Y-3.573
X5.6299Y-3.573
X5.364Y-3.8976
X5.0984Y-4.5176
X5.6496Y-3.573
X5.325Y-3.3858
X5.6693Y-3.573
X4.0551Y-4.5176
X5.7087Y-3.612
X4.0354Y-4.4785
X5.5906Y-3.612
X4.0945Y-4.5176
X5.325Y-3.937
X4.0748Y-4.4785
X5.1772Y-4.4785
X5.1969Y-4.4785
X5.0787Y-4.4785
X3.9961Y-4.5176
X4.0551Y-4.4785
X5.364Y-2.7559
X5.6102Y-3.573
X5.6496Y-3.612
X5.1378Y-4.5176
X5.1378Y-4.4785
X5.325Y-3.9764
X5.6299Y-3.612
X5.364Y-3.937
X5.5906Y-3.573
X4.0354Y-4.5176
X5.0984Y-4.4785
X5.325Y-3.878
X3.9961Y-4.4785
X4.0945Y-4.4785
X5.364Y-3.4252
X4.1142Y-4.5176
X5.364Y-3.8583
X5.1575Y-4.4785
X5.1575Y-4.5176
X5.1181Y-4.5176
X5.1181Y-4.4785
X4.1142Y-4.4785
X5.364Y-3.9764
X5.325Y-3.9567
X5.325Y-3.9173
X5.364Y-3.878
X5.325Y-2.7559
T2
X4.8976Y-2.0866
X5.1732Y-2.0866
X4.8976Y-2.0866
X5.1732Y-2.0866
T3
X1.1024Y-4.1142
X1.5354Y-4.1142
X3.2283Y-3.1299
X3.6614Y-3.1299
X3.937Y-2.6575
X4.3701Y-2.6575
X4.6457Y-2.7953
X5.0787Y-2.7953
X5.374Y-4.9606
X5.374Y-5.3937
X4.6457Y-3.4646
X5.0787Y-3.4646
X4.7047Y-4.7638
X4.7047Y-5.1969
X2.5197Y-3.9961
X2.9528Y-3.9961
X3.2283Y-2.4606
X3.6614Y-2.4606
X3.937Y-3.3268
X4.3701Y-3.3268
X3.937Y-3.9961
X4.3701Y-3.9961
X1.1024Y-3.4449
X1.5354Y-3.4449
X1.811Y-3.4449
X2.2441Y-3.4449
X2.5197Y-2.6575
X2.9528Y-2.6575
X3.2283Y-3.7992
X3.6614Y-3.7992
X1.811Y-4.1142
X2.2441Y-4.1142
X1.9291Y-4.7835
X2.3622Y-4.7835
X2.5197Y-3.3268
X2.9528Y-3.3268
X4.6457Y-4.1339
X5.0787Y-4.1339
X4.0354Y-4.685
X4.0354Y-5.1181
T4
X2.7362Y-3.3268
X4.8622Y-4.1339
X4.0354Y-4.9016
X1.3189Y-4.1142
X3.4449Y-3.1299
X4.1535Y-2.6575
X4.8622Y-2.7953
X5.374Y-5.1772
X4.8622Y-3.4646
X4.7047Y-4.9803
X2.7362Y-3.9961
X3.4449Y-2.4606
X4.1535Y-3.3268
X4.1535Y-3.9961
X1.3189Y-3.4449
X2.0276Y-3.4449
X2.7362Y-2.6575
X3.4449Y-3.7992
X2.0276Y-4.1142
X2.1457Y-4.7835
T0
M30
