M48
; DRILL file {KiCad 5.1.6} date Wed Jul  1 23:18:01 2020
; FORMAT={-:-/ absolute / inch / decimal}
; #@! TF.CreationDate,2020-07-01T23:18:01-05:00
; #@! TF.GenerationSoftware,Kicad,Pcbnew,5.1.6
; #@! TF.FileFunction,Plated,1,2,PTH
FMAT,2
INCH
T1C0.0157
T2C0.0295
T3C0.0300
T4C0.0315
T5C0.0430
T6C0.0433
T7C0.0472
%
G90
G05
T1
X3.2085Y-4.1633
X3.2085Y-4.2421
X5.2656Y-4.0157
X5.2921Y-4.5266
X5.4723Y-4.0846
X5.4723Y-4.2224
X5.4723Y-4.3602
X5.4723Y-4.4586
X5.492Y-4.557
T2
X4.0353Y-1.7964
X4.0353Y-2.0964
X2.3424Y-2.3673
X2.3424Y-2.6673
X3.3267Y-1.7964
X3.3267Y-2.0964
X3.9566Y-1.7964
X3.9566Y-2.0964
X3.4841Y-1.7964
X3.4841Y-2.0964
X3.7991Y-1.7964
X3.7991Y-2.0964
X3.5629Y-1.7964
X3.5629Y-2.0964
X3.4054Y-1.7964
X3.4054Y-2.0964
X3.8778Y-1.7964
X3.8778Y-2.0964
X2.0274Y-2.3673
X2.0274Y-2.6673
X2.2637Y-2.3673
X2.2637Y-2.6673
X1.9487Y-2.3673
X1.9487Y-2.6673
X2.1062Y-2.3673
X2.1062Y-2.6673
X3.2479Y-1.7964
X3.2479Y-2.0964
X3.6416Y-1.7964
X3.6416Y-2.0964
X3.7204Y-1.7964
X3.7204Y-2.0964
X2.1849Y-2.3673
X2.1849Y-2.6673
X3.1692Y-1.7964
X3.1692Y-2.0964
T3
X3.681Y-4.6555
X3.681Y-4.7342
X3.681Y-4.813
X3.9566Y-4.3799
X4.0353Y-4.3799
X4.1141Y-4.3799
X3.681Y-4.6555
X3.681Y-4.7342
X3.681Y-4.813
X3.9566Y-4.3799
X4.0353Y-4.3799
X4.1141Y-4.3799
T4
X2.4605Y-1.7618
X2.4605Y-2.0618
X2.3424Y-1.7618
X2.3424Y-2.0618
T5
X1.9499Y-1.6169
X1.9499Y-2.2169
X2.0499Y-1.6169
X2.0499Y-2.2169
X2.1499Y-1.6169
X2.1499Y-2.2169
X2.2499Y-1.6169
X2.2499Y-2.2169
X2.3499Y-1.6169
X2.3499Y-2.2169
X2.4499Y-1.6169
X2.4499Y-2.2169
X2.5499Y-1.6169
X2.5499Y-2.2169
X2.6499Y-1.6169
X2.6499Y-2.2169
X2.7499Y-1.6169
X2.7499Y-2.2169
X2.8499Y-1.6169
X2.8499Y-2.2169
X2.9499Y-1.6169
X2.9499Y-2.2169
X3.0499Y-1.6169
X3.0499Y-2.2169
T6
X4.1928Y-1.9586
X4.1928Y-2.1358
X4.4487Y-1.9586
X4.4487Y-2.1358
T7
X1.8306Y-3.9547
X2.0274Y-3.872
X2.2243Y-3.9547
X4.6652Y-3.3051
X4.8621Y-3.2224
X5.0589Y-3.3051
X3.2479Y-2.9704
X3.4448Y-2.8878
X3.6416Y-2.9704
X3.803Y-4.7342
X3.8857Y-4.5374
X3.8857Y-4.9311
X1.9487Y-4.624
X2.1456Y-4.5413
X2.3424Y-4.624
X3.9566Y-3.1673
X4.1534Y-3.0846
X4.3503Y-3.1673
X4.6652Y-3.9744
X4.8621Y-3.8917
X5.0589Y-3.9744
X4.6652Y-2.6358
X4.8621Y-2.5531
X5.0589Y-2.6358
X5.1416Y-5.0098
X5.2243Y-4.813
X5.2243Y-5.2067
X3.2479Y-2.3011
X3.4448Y-2.2185
X3.6416Y-2.3011
X1.8306Y-3.2854
X2.0274Y-3.2027
X2.2243Y-3.2854
X2.5393Y-3.1673
X2.7361Y-3.0846
X2.933Y-3.1673
X3.2479Y-3.6397
X3.4448Y-3.557
X3.6416Y-3.6397
X3.9566Y-2.498
X4.1534Y-2.4153
X4.3503Y-2.498
X4.4723Y-4.813
X4.555Y-4.6161
X4.555Y-5.0098
X2.5393Y-3.8366
X2.7361Y-3.7539
X2.933Y-3.8366
X2.5393Y-2.498
X2.7361Y-2.4153
X2.933Y-2.498
X3.9566Y-3.8366
X4.1534Y-3.7539
X4.3503Y-3.8366
T0
M30
