M48
; DRILL file {KiCad 5.1.8} date Mon Dec 21 15:28:52 2020
; FORMAT={-:-/ absolute / inch / decimal}
; #@! TF.CreationDate,2020-12-21T15:28:52-06:00
; #@! TF.GenerationSoftware,Kicad,Pcbnew,5.1.8
; #@! TF.FileFunction,Plated,1,2,PTH
FMAT,2
INCH
T1C0.0157
T2C0.0394
T3C0.0430
T4C0.0472
%
G90
G05
T1
X1.2539Y-3.6319
X1.2539Y-4.2913
X1.3839Y-3.6319
X1.3839Y-4.2913
X1.9626Y-3.6319
X1.9626Y-4.2913
X2.0807Y-4.9508
X2.0925Y-3.6319
X2.0925Y-4.2913
X2.2106Y-4.9508
X2.6378Y-3.2559
X2.6713Y-2.8445
X2.6713Y-3.5039
X2.6713Y-4.1634
X2.8012Y-2.8445
X2.8012Y-3.5039
X2.8012Y-4.1634
X2.8758Y-3.3911
X2.9134Y-3.5472
X3.0118Y-4.7441
X3.0236Y-3.685
X3.1102Y-3.1693
X3.1299Y-3.7756
X3.1299Y-4.7441
X3.2677Y-4.7441
X3.3268Y-4.7441
X3.3799Y-2.6476
X3.3799Y-3.3071
X3.3799Y-3.9665
X3.4606Y-4.874
X3.5098Y-2.6476
X3.5098Y-3.3071
X3.5098Y-3.9665
X3.7362Y-5.0315
X4.0886Y-2.8445
X4.0886Y-3.5039
X4.0886Y-4.1634
X4.2185Y-2.8445
X4.2185Y-3.5039
X4.2185Y-4.1634
X4.7598Y-2.2283
X4.7598Y-2.3858
X4.7972Y-2.9626
X4.7972Y-3.622
X4.7972Y-4.2815
X4.9272Y-2.9626
X4.9272Y-3.622
X4.9272Y-4.2815
X5.1378Y-3.4252
X5.187Y-4.9941
X5.187Y-5.124
X5.2362Y-3.4055
X5.2756Y-3.248
X5.8465Y-4.7972
X5.8465Y-4.9272
X6.8602Y-4.7185
X6.8602Y-4.8484
X5.1378Y-2.2441
X5.1378Y-2.3819
X5.1378Y-2.5197
X5.1378Y-2.9724
X5.1378Y-3.1496
X5.1378Y-3.622
X5.1378Y-3.7992
X5.1378Y-4.2717
X5.5906Y-2.2835
X5.5906Y-2.4213
X5.5906Y-2.5591
X5.5906Y-3.0118
X5.5906Y-3.189
X5.5906Y-3.6614
X5.5906Y-3.8386
X5.5906Y-4.311
X2.8937Y-5.1575
X3.0315Y-5.1575
X3.1693Y-5.1575
X3.622Y-5.1575
X3.7992Y-5.1575
X4.2717Y-5.1575
X4.4488Y-5.1575
X4.9213Y-5.1575
X2.8937Y-4.4488
X3.0315Y-4.4488
X3.1693Y-4.4488
X3.622Y-4.4488
X3.7992Y-4.4488
X4.2717Y-4.4488
X4.4488Y-4.4488
X4.9213Y-4.4488
T2
X4.9173Y-4.6142
X4.9173Y-4.7142
X4.9173Y-4.8142
X4.9173Y-4.9142
T3
X2.4362Y-2.3819
X2.4362Y-2.4819
X2.4362Y-2.5819
X2.4362Y-2.6819
X2.4362Y-2.7819
X2.4362Y-2.8819
X2.4362Y-2.9819
X2.4362Y-3.0819
X2.4362Y-3.1819
X2.4362Y-3.2819
X2.4362Y-3.3819
X2.4362Y-3.4819
X3.0362Y-2.3819
X3.0362Y-2.4819
X3.0362Y-2.5819
X3.0362Y-2.6819
X3.0362Y-2.7819
X3.0362Y-2.8819
X3.0362Y-2.9819
X3.0362Y-3.0819
X3.0362Y-3.1819
X3.0362Y-3.2819
X3.0362Y-3.3819
X3.0362Y-3.4819
T4
X2.5394Y-3.8366
X2.7362Y-3.7539
X2.9331Y-3.8366
X1.122Y-3.9646
X1.3189Y-3.8819
X1.5157Y-3.9646
X1.122Y-3.3051
X1.3189Y-3.2224
X1.5157Y-3.3051
X4.6654Y-3.2953
X4.8622Y-3.2126
X5.0591Y-3.2953
X3.248Y-3.6398
X3.4449Y-3.5571
X3.6417Y-3.6398
X1.8307Y-3.9646
X2.0276Y-3.8819
X2.2244Y-3.9646
X6.1732Y-4.6654
X6.1732Y-5.0591
X6.2559Y-4.8622
X3.248Y-2.3209
X3.4449Y-2.2382
X3.6417Y-2.3209
X3.9567Y-3.1772
X4.1535Y-3.0945
X4.3504Y-3.1772
X1.9488Y-4.624
X2.1457Y-4.5413
X2.3425Y-4.624
X6.4508Y-4.7835
X6.5335Y-4.5866
X6.5335Y-4.9803
X4.6654Y-3.9547
X4.8622Y-3.872
X5.0591Y-3.9547
X4.6654Y-2.6358
X4.8622Y-2.5531
X5.0591Y-2.6358
X5.5138Y-4.8622
X5.5138Y-5.2559
X5.5965Y-5.0591
X2.5394Y-2.5177
X2.7362Y-2.435
X2.9331Y-2.5177
X3.9567Y-3.8366
X4.1535Y-3.7539
X4.3504Y-3.8366
X3.248Y-2.9803
X3.4449Y-2.8976
X3.6417Y-2.9803
X3.9567Y-2.5177
X4.1535Y-2.435
X4.3504Y-2.5177
X1.8307Y-3.3051
X2.0276Y-3.2224
X2.2244Y-3.3051
X2.5394Y-3.1772
X2.7362Y-3.0945
X2.9331Y-3.1772
T0
M30
