G04 #@! TF.GenerationSoftware,KiCad,Pcbnew,5.1.5*
G04 #@! TF.CreationDate,2020-03-19T02:29:29-05:00*
G04 #@! TF.ProjectId,fissure,66697373-7572-4652-9e6b-696361645f70,rev?*
G04 #@! TF.SameCoordinates,Original*
G04 #@! TF.FileFunction,Legend,Top*
G04 #@! TF.FilePolarity,Positive*
%FSLAX46Y46*%
G04 Gerber Fmt 4.6, Leading zero omitted, Abs format (unit mm)*
G04 Created by KiCad (PCBNEW 5.1.5) date 2020-03-19 02:29:29*
%MOMM*%
%LPD*%
G04 APERTURE LIST*
%ADD10C,0.150000*%
%ADD11C,0.120000*%
%ADD12C,0.381000*%
G04 APERTURE END LIST*
D10*
X125418428Y-54572809D02*
X125532714Y-54610904D01*
X125723190Y-54610904D01*
X125799380Y-54572809D01*
X125837476Y-54534714D01*
X125875571Y-54458523D01*
X125875571Y-54382333D01*
X125837476Y-54306142D01*
X125799380Y-54268047D01*
X125723190Y-54229952D01*
X125570809Y-54191857D01*
X125494619Y-54153761D01*
X125456523Y-54115666D01*
X125418428Y-54039476D01*
X125418428Y-53963285D01*
X125456523Y-53887095D01*
X125494619Y-53849000D01*
X125570809Y-53810904D01*
X125761285Y-53810904D01*
X125875571Y-53849000D01*
X126675571Y-54534714D02*
X126637476Y-54572809D01*
X126523190Y-54610904D01*
X126447000Y-54610904D01*
X126332714Y-54572809D01*
X126256523Y-54496619D01*
X126218428Y-54420428D01*
X126180333Y-54268047D01*
X126180333Y-54153761D01*
X126218428Y-54001380D01*
X126256523Y-53925190D01*
X126332714Y-53849000D01*
X126447000Y-53810904D01*
X126523190Y-53810904D01*
X126637476Y-53849000D01*
X126675571Y-53887095D01*
X127018428Y-54610904D02*
X127018428Y-53810904D01*
X127475571Y-54610904D02*
X127132714Y-54153761D01*
X127475571Y-53810904D02*
X127018428Y-54268047D01*
X129082714Y-54534714D02*
X129044619Y-54572809D01*
X128930333Y-54610904D01*
X128854142Y-54610904D01*
X128739857Y-54572809D01*
X128663666Y-54496619D01*
X128625571Y-54420428D01*
X128587476Y-54268047D01*
X128587476Y-54153761D01*
X128625571Y-54001380D01*
X128663666Y-53925190D01*
X128739857Y-53849000D01*
X128854142Y-53810904D01*
X128930333Y-53810904D01*
X129044619Y-53849000D01*
X129082714Y-53887095D01*
X129425571Y-54191857D02*
X129692238Y-54191857D01*
X129806523Y-54610904D02*
X129425571Y-54610904D01*
X129425571Y-53810904D01*
X129806523Y-53810904D01*
X130630333Y-51810904D02*
X130897000Y-52610904D01*
X131163666Y-51810904D01*
X131887476Y-52534714D02*
X131849380Y-52572809D01*
X131735095Y-52610904D01*
X131658904Y-52610904D01*
X131544619Y-52572809D01*
X131468428Y-52496619D01*
X131430333Y-52420428D01*
X131392238Y-52268047D01*
X131392238Y-52153761D01*
X131430333Y-52001380D01*
X131468428Y-51925190D01*
X131544619Y-51849000D01*
X131658904Y-51810904D01*
X131735095Y-51810904D01*
X131849380Y-51849000D01*
X131887476Y-51887095D01*
X132687476Y-52534714D02*
X132649380Y-52572809D01*
X132535095Y-52610904D01*
X132458904Y-52610904D01*
X132344619Y-52572809D01*
X132268428Y-52496619D01*
X132230333Y-52420428D01*
X132192238Y-52268047D01*
X132192238Y-52153761D01*
X132230333Y-52001380D01*
X132268428Y-51925190D01*
X132344619Y-51849000D01*
X132458904Y-51810904D01*
X132535095Y-51810904D01*
X132649380Y-51849000D01*
X132687476Y-51887095D01*
X123377952Y-52610904D02*
X123377952Y-51810904D01*
X124216047Y-52610904D02*
X123949380Y-52229952D01*
X123758904Y-52610904D02*
X123758904Y-51810904D01*
X124063666Y-51810904D01*
X124139857Y-51849000D01*
X124177952Y-51887095D01*
X124216047Y-51963285D01*
X124216047Y-52077571D01*
X124177952Y-52153761D01*
X124139857Y-52191857D01*
X124063666Y-52229952D01*
X123758904Y-52229952D01*
X125092238Y-52687095D02*
X125016047Y-52649000D01*
X124939857Y-52572809D01*
X124825571Y-52458523D01*
X124749380Y-52420428D01*
X124673190Y-52420428D01*
X124711285Y-52610904D02*
X124635095Y-52572809D01*
X124558904Y-52496619D01*
X124520809Y-52344238D01*
X124520809Y-52077571D01*
X124558904Y-51925190D01*
X124635095Y-51849000D01*
X124711285Y-51810904D01*
X124863666Y-51810904D01*
X124939857Y-51849000D01*
X125016047Y-51925190D01*
X125054142Y-52077571D01*
X125054142Y-52344238D01*
X125016047Y-52496619D01*
X124939857Y-52572809D01*
X124863666Y-52610904D01*
X124711285Y-52610904D01*
X131087476Y-53849000D02*
X131011285Y-53810904D01*
X130897000Y-53810904D01*
X130782714Y-53849000D01*
X130706523Y-53925190D01*
X130668428Y-54001380D01*
X130630333Y-54153761D01*
X130630333Y-54268047D01*
X130668428Y-54420428D01*
X130706523Y-54496619D01*
X130782714Y-54572809D01*
X130897000Y-54610904D01*
X130973190Y-54610904D01*
X131087476Y-54572809D01*
X131125571Y-54534714D01*
X131125571Y-54268047D01*
X130973190Y-54268047D01*
X131468428Y-54610904D02*
X131468428Y-53810904D01*
X131925571Y-54610904D01*
X131925571Y-53810904D01*
X132306523Y-54610904D02*
X132306523Y-53810904D01*
X132497000Y-53810904D01*
X132611285Y-53849000D01*
X132687476Y-53925190D01*
X132725571Y-54001380D01*
X132763666Y-54153761D01*
X132763666Y-54268047D01*
X132725571Y-54420428D01*
X132687476Y-54496619D01*
X132611285Y-54572809D01*
X132497000Y-54610904D01*
X132306523Y-54610904D01*
X129063666Y-52534714D02*
X129025571Y-52572809D01*
X128911285Y-52610904D01*
X128835095Y-52610904D01*
X128720809Y-52572809D01*
X128644619Y-52496619D01*
X128606523Y-52420428D01*
X128568428Y-52268047D01*
X128568428Y-52153761D01*
X128606523Y-52001380D01*
X128644619Y-51925190D01*
X128720809Y-51849000D01*
X128835095Y-51810904D01*
X128911285Y-51810904D01*
X129025571Y-51849000D01*
X129063666Y-51887095D01*
X129368428Y-52572809D02*
X129482714Y-52610904D01*
X129673190Y-52610904D01*
X129749380Y-52572809D01*
X129787476Y-52534714D01*
X129825571Y-52458523D01*
X129825571Y-52382333D01*
X129787476Y-52306142D01*
X129749380Y-52268047D01*
X129673190Y-52229952D01*
X129520809Y-52191857D01*
X129444619Y-52153761D01*
X129406523Y-52115666D01*
X129368428Y-52039476D01*
X129368428Y-51963285D01*
X129406523Y-51887095D01*
X129444619Y-51849000D01*
X129520809Y-51810904D01*
X129711285Y-51810904D01*
X129825571Y-51849000D01*
X126011285Y-52610904D02*
X126011285Y-51810904D01*
X126277952Y-52382333D01*
X126544619Y-51810904D01*
X126544619Y-52610904D01*
X127077952Y-51810904D02*
X127230333Y-51810904D01*
X127306523Y-51849000D01*
X127382714Y-51925190D01*
X127420809Y-52077571D01*
X127420809Y-52344238D01*
X127382714Y-52496619D01*
X127306523Y-52572809D01*
X127230333Y-52610904D01*
X127077952Y-52610904D01*
X127001761Y-52572809D01*
X126925571Y-52496619D01*
X126887476Y-52344238D01*
X126887476Y-52077571D01*
X126925571Y-51925190D01*
X127001761Y-51849000D01*
X127077952Y-51810904D01*
X123489857Y-54610904D02*
X123489857Y-53810904D01*
X123756523Y-54382333D01*
X124023190Y-53810904D01*
X124023190Y-54610904D01*
X124404142Y-54610904D02*
X124404142Y-53810904D01*
D11*
X48177000Y-67423000D02*
X50017000Y-67423000D01*
X48177000Y-67183000D02*
X50017000Y-67183000D01*
X48177000Y-67303000D02*
X50017000Y-67303000D01*
X49097000Y-63419000D02*
X49097000Y-64599000D01*
X49097000Y-69059000D02*
X49097000Y-67879000D01*
X48177000Y-64599000D02*
X48177000Y-67879000D01*
X50017000Y-64599000D02*
X48177000Y-64599000D01*
X50017000Y-67879000D02*
X50017000Y-64599000D01*
X48177000Y-67879000D02*
X50017000Y-67879000D01*
X112247000Y-48149000D02*
X112247000Y-49649000D01*
X113497000Y-52149000D02*
X117997000Y-52149000D01*
X119247000Y-49649000D02*
X119247000Y-48149000D01*
X117997000Y-45649000D02*
X113497000Y-45649000D01*
D10*
X143250000Y-100700000D02*
X137150000Y-100700000D01*
X143250000Y-112800000D02*
X137150000Y-112800000D01*
X143250000Y-100700000D02*
X143250000Y-112800000D01*
X137150000Y-100700000D02*
X137150000Y-112800000D01*
X143000000Y-100700000D02*
X143000000Y-98700000D01*
X137400000Y-100700000D02*
X137400000Y-98700000D01*
X143000000Y-98700000D02*
X137400000Y-98700000D01*
D11*
X58677000Y-67423000D02*
X60517000Y-67423000D01*
X58677000Y-67183000D02*
X60517000Y-67183000D01*
X58677000Y-67303000D02*
X60517000Y-67303000D01*
X59597000Y-63419000D02*
X59597000Y-64599000D01*
X59597000Y-69059000D02*
X59597000Y-67879000D01*
X58677000Y-64599000D02*
X58677000Y-67879000D01*
X60517000Y-64599000D02*
X58677000Y-64599000D01*
X60517000Y-67879000D02*
X60517000Y-64599000D01*
X58677000Y-67879000D02*
X60517000Y-67879000D01*
X84277000Y-50123000D02*
X86117000Y-50123000D01*
X84277000Y-49883000D02*
X86117000Y-49883000D01*
X84277000Y-50003000D02*
X86117000Y-50003000D01*
X85197000Y-46119000D02*
X85197000Y-47299000D01*
X85197000Y-51759000D02*
X85197000Y-50579000D01*
X84277000Y-47299000D02*
X84277000Y-50579000D01*
X86117000Y-47299000D02*
X84277000Y-47299000D01*
X86117000Y-50579000D02*
X86117000Y-47299000D01*
X84277000Y-50579000D02*
X86117000Y-50579000D01*
X92677000Y-50123000D02*
X94517000Y-50123000D01*
X92677000Y-49883000D02*
X94517000Y-49883000D01*
X92677000Y-50003000D02*
X94517000Y-50003000D01*
X93597000Y-46119000D02*
X93597000Y-47299000D01*
X93597000Y-51759000D02*
X93597000Y-50579000D01*
X92677000Y-47299000D02*
X92677000Y-50579000D01*
X94517000Y-47299000D02*
X92677000Y-47299000D01*
X94517000Y-50579000D02*
X94517000Y-47299000D01*
X92677000Y-50579000D02*
X94517000Y-50579000D01*
X101077000Y-50123000D02*
X102917000Y-50123000D01*
X101077000Y-49883000D02*
X102917000Y-49883000D01*
X101077000Y-50003000D02*
X102917000Y-50003000D01*
X101997000Y-46119000D02*
X101997000Y-47299000D01*
X101997000Y-51759000D02*
X101997000Y-50579000D01*
X101077000Y-47299000D02*
X101077000Y-50579000D01*
X102917000Y-47299000D02*
X101077000Y-47299000D01*
X102917000Y-50579000D02*
X102917000Y-47299000D01*
X101077000Y-50579000D02*
X102917000Y-50579000D01*
X50277000Y-67423000D02*
X52117000Y-67423000D01*
X50277000Y-67183000D02*
X52117000Y-67183000D01*
X50277000Y-67303000D02*
X52117000Y-67303000D01*
X51197000Y-63419000D02*
X51197000Y-64599000D01*
X51197000Y-69059000D02*
X51197000Y-67879000D01*
X50277000Y-64599000D02*
X50277000Y-67879000D01*
X52117000Y-64599000D02*
X50277000Y-64599000D01*
X52117000Y-67879000D02*
X52117000Y-64599000D01*
X50277000Y-67879000D02*
X52117000Y-67879000D01*
X56577000Y-67423000D02*
X58417000Y-67423000D01*
X56577000Y-67183000D02*
X58417000Y-67183000D01*
X56577000Y-67303000D02*
X58417000Y-67303000D01*
X57497000Y-63419000D02*
X57497000Y-64599000D01*
X57497000Y-69059000D02*
X57497000Y-67879000D01*
X56577000Y-64599000D02*
X56577000Y-67879000D01*
X58417000Y-64599000D02*
X56577000Y-64599000D01*
X58417000Y-67879000D02*
X58417000Y-64599000D01*
X56577000Y-67879000D02*
X58417000Y-67879000D01*
X86377000Y-50123000D02*
X88217000Y-50123000D01*
X86377000Y-49883000D02*
X88217000Y-49883000D01*
X86377000Y-50003000D02*
X88217000Y-50003000D01*
X87297000Y-46119000D02*
X87297000Y-47299000D01*
X87297000Y-51759000D02*
X87297000Y-50579000D01*
X86377000Y-47299000D02*
X86377000Y-50579000D01*
X88217000Y-47299000D02*
X86377000Y-47299000D01*
X88217000Y-50579000D02*
X88217000Y-47299000D01*
X86377000Y-50579000D02*
X88217000Y-50579000D01*
X94777000Y-50123000D02*
X96617000Y-50123000D01*
X94777000Y-49883000D02*
X96617000Y-49883000D01*
X94777000Y-50003000D02*
X96617000Y-50003000D01*
X95697000Y-46119000D02*
X95697000Y-47299000D01*
X95697000Y-51759000D02*
X95697000Y-50579000D01*
X94777000Y-47299000D02*
X94777000Y-50579000D01*
X96617000Y-47299000D02*
X94777000Y-47299000D01*
X96617000Y-50579000D02*
X96617000Y-47299000D01*
X94777000Y-50579000D02*
X96617000Y-50579000D01*
X103177000Y-50123000D02*
X105017000Y-50123000D01*
X103177000Y-49883000D02*
X105017000Y-49883000D01*
X103177000Y-50003000D02*
X105017000Y-50003000D01*
X104097000Y-46119000D02*
X104097000Y-47299000D01*
X104097000Y-51759000D02*
X104097000Y-50579000D01*
X103177000Y-47299000D02*
X103177000Y-50579000D01*
X105017000Y-47299000D02*
X103177000Y-47299000D01*
X105017000Y-50579000D02*
X105017000Y-47299000D01*
X103177000Y-50579000D02*
X105017000Y-50579000D01*
X52377000Y-67423000D02*
X54217000Y-67423000D01*
X52377000Y-67183000D02*
X54217000Y-67183000D01*
X52377000Y-67303000D02*
X54217000Y-67303000D01*
X53297000Y-63419000D02*
X53297000Y-64599000D01*
X53297000Y-69059000D02*
X53297000Y-67879000D01*
X52377000Y-64599000D02*
X52377000Y-67879000D01*
X54217000Y-64599000D02*
X52377000Y-64599000D01*
X54217000Y-67879000D02*
X54217000Y-64599000D01*
X52377000Y-67879000D02*
X54217000Y-67879000D01*
X54477400Y-67423000D02*
X56317400Y-67423000D01*
X54477400Y-67183000D02*
X56317400Y-67183000D01*
X54477400Y-67303000D02*
X56317400Y-67303000D01*
X55397400Y-63419000D02*
X55397400Y-64599000D01*
X55397400Y-69059000D02*
X55397400Y-67879000D01*
X54477400Y-64599000D02*
X54477400Y-67879000D01*
X56317400Y-64599000D02*
X54477400Y-64599000D01*
X56317400Y-67879000D02*
X56317400Y-64599000D01*
X54477400Y-67879000D02*
X56317400Y-67879000D01*
X88477000Y-50123000D02*
X90317000Y-50123000D01*
X88477000Y-49883000D02*
X90317000Y-49883000D01*
X88477000Y-50003000D02*
X90317000Y-50003000D01*
X89397000Y-46119000D02*
X89397000Y-47299000D01*
X89397000Y-51759000D02*
X89397000Y-50579000D01*
X88477000Y-47299000D02*
X88477000Y-50579000D01*
X90317000Y-47299000D02*
X88477000Y-47299000D01*
X90317000Y-50579000D02*
X90317000Y-47299000D01*
X88477000Y-50579000D02*
X90317000Y-50579000D01*
X96877000Y-50123000D02*
X98717000Y-50123000D01*
X96877000Y-49883000D02*
X98717000Y-49883000D01*
X96877000Y-50003000D02*
X98717000Y-50003000D01*
X97797000Y-46119000D02*
X97797000Y-47299000D01*
X97797000Y-51759000D02*
X97797000Y-50579000D01*
X96877000Y-47299000D02*
X96877000Y-50579000D01*
X98717000Y-47299000D02*
X96877000Y-47299000D01*
X98717000Y-50579000D02*
X98717000Y-47299000D01*
X96877000Y-50579000D02*
X98717000Y-50579000D01*
X105277000Y-50123000D02*
X107117000Y-50123000D01*
X105277000Y-49883000D02*
X107117000Y-49883000D01*
X105277000Y-50003000D02*
X107117000Y-50003000D01*
X106197000Y-46119000D02*
X106197000Y-47299000D01*
X106197000Y-51759000D02*
X106197000Y-50579000D01*
X105277000Y-47299000D02*
X105277000Y-50579000D01*
X107117000Y-47299000D02*
X105277000Y-47299000D01*
X107117000Y-50579000D02*
X107117000Y-47299000D01*
X105277000Y-50579000D02*
X107117000Y-50579000D01*
X90577000Y-50123000D02*
X92417000Y-50123000D01*
X90577000Y-49883000D02*
X92417000Y-49883000D01*
X90577000Y-50003000D02*
X92417000Y-50003000D01*
X91497000Y-46119000D02*
X91497000Y-47299000D01*
X91497000Y-51759000D02*
X91497000Y-50579000D01*
X90577000Y-47299000D02*
X90577000Y-50579000D01*
X92417000Y-47299000D02*
X90577000Y-47299000D01*
X92417000Y-50579000D02*
X92417000Y-47299000D01*
X90577000Y-50579000D02*
X92417000Y-50579000D01*
X98977000Y-50123000D02*
X100817000Y-50123000D01*
X98977000Y-49883000D02*
X100817000Y-49883000D01*
X98977000Y-50003000D02*
X100817000Y-50003000D01*
X99897000Y-46119000D02*
X99897000Y-47299000D01*
X99897000Y-51759000D02*
X99897000Y-50579000D01*
X98977000Y-47299000D02*
X98977000Y-50579000D01*
X100817000Y-47299000D02*
X98977000Y-47299000D01*
X100817000Y-50579000D02*
X100817000Y-47299000D01*
X98977000Y-50579000D02*
X100817000Y-50579000D01*
X107377000Y-50123000D02*
X109217000Y-50123000D01*
X107377000Y-49883000D02*
X109217000Y-49883000D01*
X107377000Y-50003000D02*
X109217000Y-50003000D01*
X108297000Y-46119000D02*
X108297000Y-47299000D01*
X108297000Y-51759000D02*
X108297000Y-50579000D01*
X107377000Y-47299000D02*
X107377000Y-50579000D01*
X109217000Y-47299000D02*
X107377000Y-47299000D01*
X109217000Y-50579000D02*
X109217000Y-47299000D01*
X107377000Y-50579000D02*
X109217000Y-50579000D01*
X85317000Y-105379000D02*
X85317000Y-105709000D01*
X91857000Y-105379000D02*
X85317000Y-105379000D01*
X91857000Y-105709000D02*
X91857000Y-105379000D01*
X85317000Y-108119000D02*
X85317000Y-107789000D01*
X91857000Y-108119000D02*
X85317000Y-108119000D01*
X91857000Y-107789000D02*
X91857000Y-108119000D01*
X85317000Y-108379000D02*
X85317000Y-108709000D01*
X91857000Y-108379000D02*
X85317000Y-108379000D01*
X91857000Y-108709000D02*
X91857000Y-108379000D01*
X85317000Y-111119000D02*
X85317000Y-110789000D01*
X91857000Y-111119000D02*
X85317000Y-111119000D01*
X91857000Y-110789000D02*
X91857000Y-111119000D01*
X135947000Y-113899000D02*
X135947000Y-114974000D01*
X141847000Y-113899000D02*
X135947000Y-113899000D01*
X141847000Y-117799000D02*
X135947000Y-117799000D01*
D12*
X48257000Y-55039000D02*
X48257000Y-57579000D01*
X45717000Y-57579000D02*
X48257000Y-57579000D01*
X45717000Y-39799000D02*
X45717000Y-57579000D01*
X48257000Y-39799000D02*
X45717000Y-39799000D01*
D10*
G36*
X54736360Y-43757432D02*
G01*
X54936360Y-43757432D01*
X54936360Y-43857432D01*
X54736360Y-43857432D01*
X54736360Y-43757432D01*
G37*
X54736360Y-43757432D02*
X54936360Y-43757432D01*
X54936360Y-43857432D01*
X54736360Y-43857432D01*
X54736360Y-43757432D01*
G36*
X54136360Y-44157432D02*
G01*
X54936360Y-44157432D01*
X54936360Y-44257432D01*
X54136360Y-44257432D01*
X54136360Y-44157432D01*
G37*
X54136360Y-44157432D02*
X54936360Y-44157432D01*
X54936360Y-44257432D01*
X54136360Y-44257432D01*
X54136360Y-44157432D01*
G36*
X54136360Y-43757432D02*
G01*
X54236360Y-43757432D01*
X54236360Y-44257432D01*
X54136360Y-44257432D01*
X54136360Y-43757432D01*
G37*
X54136360Y-43757432D02*
X54236360Y-43757432D01*
X54236360Y-44257432D01*
X54136360Y-44257432D01*
X54136360Y-43757432D01*
G36*
X54536360Y-43957432D02*
G01*
X54636360Y-43957432D01*
X54636360Y-44057432D01*
X54536360Y-44057432D01*
X54536360Y-43957432D01*
G37*
X54536360Y-43957432D02*
X54636360Y-43957432D01*
X54636360Y-44057432D01*
X54536360Y-44057432D01*
X54536360Y-43957432D01*
G36*
X54136360Y-43757432D02*
G01*
X54436360Y-43757432D01*
X54436360Y-43857432D01*
X54136360Y-43857432D01*
X54136360Y-43757432D01*
G37*
X54136360Y-43757432D02*
X54436360Y-43757432D01*
X54436360Y-43857432D01*
X54136360Y-43857432D01*
X54136360Y-43757432D01*
D12*
X50797000Y-55039000D02*
X50797000Y-57579000D01*
X48257000Y-55039000D02*
X50797000Y-55039000D01*
X78737000Y-39799000D02*
X48257000Y-39799000D01*
X78737000Y-57579000D02*
X78737000Y-39799000D01*
X48257000Y-57579000D02*
X78737000Y-57579000D01*
D10*
X88420333Y-109571380D02*
X88087000Y-109095190D01*
X87848904Y-109571380D02*
X87848904Y-108571380D01*
X88229857Y-108571380D01*
X88325095Y-108619000D01*
X88372714Y-108666619D01*
X88420333Y-108761857D01*
X88420333Y-108904714D01*
X88372714Y-108999952D01*
X88325095Y-109047571D01*
X88229857Y-109095190D01*
X87848904Y-109095190D01*
X89372714Y-109571380D02*
X88801285Y-109571380D01*
X89087000Y-109571380D02*
X89087000Y-108571380D01*
X88991761Y-108714238D01*
X88896523Y-108809476D01*
X88801285Y-108857095D01*
X88420333Y-112571380D02*
X88087000Y-112095190D01*
X87848904Y-112571380D02*
X87848904Y-111571380D01*
X88229857Y-111571380D01*
X88325095Y-111619000D01*
X88372714Y-111666619D01*
X88420333Y-111761857D01*
X88420333Y-111904714D01*
X88372714Y-111999952D01*
X88325095Y-112047571D01*
X88229857Y-112095190D01*
X87848904Y-112095190D01*
X88801285Y-111666619D02*
X88848904Y-111619000D01*
X88944142Y-111571380D01*
X89182238Y-111571380D01*
X89277476Y-111619000D01*
X89325095Y-111666619D01*
X89372714Y-111761857D01*
X89372714Y-111857095D01*
X89325095Y-111999952D01*
X88753666Y-112571380D01*
X89372714Y-112571380D01*
X142682714Y-117176380D02*
X142111285Y-117176380D01*
X142397000Y-117176380D02*
X142397000Y-116176380D01*
X142301761Y-116319238D01*
X142206523Y-116414476D01*
X142111285Y-116462095D01*
X49088904Y-54451348D02*
X49088904Y-53994205D01*
X49888904Y-54222776D02*
X49088904Y-54222776D01*
X49088904Y-53803729D02*
X49888904Y-53270395D01*
X49088904Y-53270395D02*
X49888904Y-53803729D01*
X49088904Y-52813252D02*
X49088904Y-52737062D01*
X49127000Y-52660872D01*
X49165095Y-52622776D01*
X49241285Y-52584681D01*
X49393666Y-52546586D01*
X49584142Y-52546586D01*
X49736523Y-52584681D01*
X49812714Y-52622776D01*
X49850809Y-52660872D01*
X49888904Y-52737062D01*
X49888904Y-52813252D01*
X49850809Y-52889443D01*
X49812714Y-52927538D01*
X49736523Y-52965633D01*
X49584142Y-53003729D01*
X49393666Y-53003729D01*
X49241285Y-52965633D01*
X49165095Y-52927538D01*
X49127000Y-52889443D01*
X49088904Y-52813252D01*
X49050809Y-51632300D02*
X50079380Y-52318014D01*
X49888904Y-51365633D02*
X49088904Y-51365633D01*
X49088904Y-51175157D01*
X49127000Y-51060872D01*
X49203190Y-50984681D01*
X49279380Y-50946586D01*
X49431761Y-50908491D01*
X49546047Y-50908491D01*
X49698428Y-50946586D01*
X49774619Y-50984681D01*
X49850809Y-51060872D01*
X49888904Y-51175157D01*
X49888904Y-51365633D01*
X49088904Y-50641824D02*
X49088904Y-50146586D01*
X49393666Y-50413252D01*
X49393666Y-50298967D01*
X49431761Y-50222776D01*
X49469857Y-50184681D01*
X49546047Y-50146586D01*
X49736523Y-50146586D01*
X49812714Y-50184681D01*
X49850809Y-50222776D01*
X49888904Y-50298967D01*
X49888904Y-50527538D01*
X49850809Y-50603729D01*
X49812714Y-50641824D01*
X52428904Y-54740476D02*
X51628904Y-54740476D01*
X51628904Y-54550000D01*
X51667000Y-54435714D01*
X51743190Y-54359523D01*
X51819380Y-54321428D01*
X51971761Y-54283333D01*
X52086047Y-54283333D01*
X52238428Y-54321428D01*
X52314619Y-54359523D01*
X52390809Y-54435714D01*
X52428904Y-54550000D01*
X52428904Y-54740476D01*
X51705095Y-53978571D02*
X51667000Y-53940476D01*
X51628904Y-53864285D01*
X51628904Y-53673809D01*
X51667000Y-53597619D01*
X51705095Y-53559523D01*
X51781285Y-53521428D01*
X51857476Y-53521428D01*
X51971761Y-53559523D01*
X52428904Y-54016666D01*
X52428904Y-53521428D01*
X62588904Y-54740476D02*
X61788904Y-54740476D01*
X61788904Y-54550000D01*
X61827000Y-54435714D01*
X61903190Y-54359523D01*
X61979380Y-54321428D01*
X62131761Y-54283333D01*
X62246047Y-54283333D01*
X62398428Y-54321428D01*
X62474619Y-54359523D01*
X62550809Y-54435714D01*
X62588904Y-54550000D01*
X62588904Y-54740476D01*
X61788904Y-53788095D02*
X61788904Y-53711904D01*
X61827000Y-53635714D01*
X61865095Y-53597619D01*
X61941285Y-53559523D01*
X62093666Y-53521428D01*
X62284142Y-53521428D01*
X62436523Y-53559523D01*
X62512714Y-53597619D01*
X62550809Y-53635714D01*
X62588904Y-53711904D01*
X62588904Y-53788095D01*
X62550809Y-53864285D01*
X62512714Y-53902380D01*
X62436523Y-53940476D01*
X62284142Y-53978571D01*
X62093666Y-53978571D01*
X61941285Y-53940476D01*
X61865095Y-53902380D01*
X61827000Y-53864285D01*
X61788904Y-53788095D01*
X60048904Y-54740476D02*
X59248904Y-54740476D01*
X59248904Y-54550000D01*
X59287000Y-54435714D01*
X59363190Y-54359523D01*
X59439380Y-54321428D01*
X59591761Y-54283333D01*
X59706047Y-54283333D01*
X59858428Y-54321428D01*
X59934619Y-54359523D01*
X60010809Y-54435714D01*
X60048904Y-54550000D01*
X60048904Y-54740476D01*
X60048904Y-53521428D02*
X60048904Y-53978571D01*
X60048904Y-53750000D02*
X59248904Y-53750000D01*
X59363190Y-53826190D01*
X59439380Y-53902380D01*
X59477476Y-53978571D01*
X56747000Y-54759523D02*
X56708904Y-54835714D01*
X56708904Y-54950000D01*
X56747000Y-55064285D01*
X56823190Y-55140476D01*
X56899380Y-55178571D01*
X57051761Y-55216666D01*
X57166047Y-55216666D01*
X57318428Y-55178571D01*
X57394619Y-55140476D01*
X57470809Y-55064285D01*
X57508904Y-54950000D01*
X57508904Y-54873809D01*
X57470809Y-54759523D01*
X57432714Y-54721428D01*
X57166047Y-54721428D01*
X57166047Y-54873809D01*
X57508904Y-54378571D02*
X56708904Y-54378571D01*
X57508904Y-53921428D01*
X56708904Y-53921428D01*
X57508904Y-53540476D02*
X56708904Y-53540476D01*
X56708904Y-53350000D01*
X56747000Y-53235714D01*
X56823190Y-53159523D01*
X56899380Y-53121428D01*
X57051761Y-53083333D01*
X57166047Y-53083333D01*
X57318428Y-53121428D01*
X57394619Y-53159523D01*
X57470809Y-53235714D01*
X57508904Y-53350000D01*
X57508904Y-53540476D01*
X54207000Y-54759523D02*
X54168904Y-54835714D01*
X54168904Y-54950000D01*
X54207000Y-55064285D01*
X54283190Y-55140476D01*
X54359380Y-55178571D01*
X54511761Y-55216666D01*
X54626047Y-55216666D01*
X54778428Y-55178571D01*
X54854619Y-55140476D01*
X54930809Y-55064285D01*
X54968904Y-54950000D01*
X54968904Y-54873809D01*
X54930809Y-54759523D01*
X54892714Y-54721428D01*
X54626047Y-54721428D01*
X54626047Y-54873809D01*
X54968904Y-54378571D02*
X54168904Y-54378571D01*
X54968904Y-53921428D01*
X54168904Y-53921428D01*
X54968904Y-53540476D02*
X54168904Y-53540476D01*
X54168904Y-53350000D01*
X54207000Y-53235714D01*
X54283190Y-53159523D01*
X54359380Y-53121428D01*
X54511761Y-53083333D01*
X54626047Y-53083333D01*
X54778428Y-53121428D01*
X54854619Y-53159523D01*
X54930809Y-53235714D01*
X54968904Y-53350000D01*
X54968904Y-53540476D01*
X65128904Y-54740476D02*
X64328904Y-54740476D01*
X64328904Y-54550000D01*
X64367000Y-54435714D01*
X64443190Y-54359523D01*
X64519380Y-54321428D01*
X64671761Y-54283333D01*
X64786047Y-54283333D01*
X64938428Y-54321428D01*
X65014619Y-54359523D01*
X65090809Y-54435714D01*
X65128904Y-54550000D01*
X65128904Y-54740476D01*
X64595571Y-53597619D02*
X65128904Y-53597619D01*
X64290809Y-53788095D02*
X64862238Y-53978571D01*
X64862238Y-53483333D01*
X67592714Y-54283333D02*
X67630809Y-54321428D01*
X67668904Y-54435714D01*
X67668904Y-54511904D01*
X67630809Y-54626190D01*
X67554619Y-54702380D01*
X67478428Y-54740476D01*
X67326047Y-54778571D01*
X67211761Y-54778571D01*
X67059380Y-54740476D01*
X66983190Y-54702380D01*
X66907000Y-54626190D01*
X66868904Y-54511904D01*
X66868904Y-54435714D01*
X66907000Y-54321428D01*
X66945095Y-54283333D01*
X66868904Y-53597619D02*
X66868904Y-53750000D01*
X66907000Y-53826190D01*
X66945095Y-53864285D01*
X67059380Y-53940476D01*
X67211761Y-53978571D01*
X67516523Y-53978571D01*
X67592714Y-53940476D01*
X67630809Y-53902380D01*
X67668904Y-53826190D01*
X67668904Y-53673809D01*
X67630809Y-53597619D01*
X67592714Y-53559523D01*
X67516523Y-53521428D01*
X67326047Y-53521428D01*
X67249857Y-53559523D01*
X67211761Y-53597619D01*
X67173666Y-53673809D01*
X67173666Y-53826190D01*
X67211761Y-53902380D01*
X67249857Y-53940476D01*
X67326047Y-53978571D01*
X70208904Y-54740476D02*
X69408904Y-54740476D01*
X69408904Y-54550000D01*
X69447000Y-54435714D01*
X69523190Y-54359523D01*
X69599380Y-54321428D01*
X69751761Y-54283333D01*
X69866047Y-54283333D01*
X70018428Y-54321428D01*
X70094619Y-54359523D01*
X70170809Y-54435714D01*
X70208904Y-54550000D01*
X70208904Y-54740476D01*
X69408904Y-54016666D02*
X69408904Y-53483333D01*
X70208904Y-53826190D01*
X72329857Y-54702380D02*
X72329857Y-54435714D01*
X72748904Y-54321428D02*
X72748904Y-54702380D01*
X71948904Y-54702380D01*
X71948904Y-54321428D01*
X71948904Y-53635714D02*
X71948904Y-53788095D01*
X71987000Y-53864285D01*
X72025095Y-53902380D01*
X72139380Y-53978571D01*
X72291761Y-54016666D01*
X72596523Y-54016666D01*
X72672714Y-53978571D01*
X72710809Y-53940476D01*
X72748904Y-53864285D01*
X72748904Y-53711904D01*
X72710809Y-53635714D01*
X72672714Y-53597619D01*
X72596523Y-53559523D01*
X72406047Y-53559523D01*
X72329857Y-53597619D01*
X72291761Y-53635714D01*
X72253666Y-53711904D01*
X72253666Y-53864285D01*
X72291761Y-53940476D01*
X72329857Y-53978571D01*
X72406047Y-54016666D01*
X74869857Y-54473809D02*
X74907952Y-54359523D01*
X74946047Y-54321428D01*
X75022238Y-54283333D01*
X75136523Y-54283333D01*
X75212714Y-54321428D01*
X75250809Y-54359523D01*
X75288904Y-54435714D01*
X75288904Y-54740476D01*
X74488904Y-54740476D01*
X74488904Y-54473809D01*
X74527000Y-54397619D01*
X74565095Y-54359523D01*
X74641285Y-54321428D01*
X74717476Y-54321428D01*
X74793666Y-54359523D01*
X74831761Y-54397619D01*
X74869857Y-54473809D01*
X74869857Y-54740476D01*
X74755571Y-53597619D02*
X75288904Y-53597619D01*
X74450809Y-53788095D02*
X75022238Y-53978571D01*
X75022238Y-53483333D01*
X77409857Y-54473809D02*
X77447952Y-54359523D01*
X77486047Y-54321428D01*
X77562238Y-54283333D01*
X77676523Y-54283333D01*
X77752714Y-54321428D01*
X77790809Y-54359523D01*
X77828904Y-54435714D01*
X77828904Y-54740476D01*
X77028904Y-54740476D01*
X77028904Y-54473809D01*
X77067000Y-54397619D01*
X77105095Y-54359523D01*
X77181285Y-54321428D01*
X77257476Y-54321428D01*
X77333666Y-54359523D01*
X77371761Y-54397619D01*
X77409857Y-54473809D01*
X77409857Y-54740476D01*
X77028904Y-53559523D02*
X77028904Y-53940476D01*
X77409857Y-53978571D01*
X77371761Y-53940476D01*
X77333666Y-53864285D01*
X77333666Y-53673809D01*
X77371761Y-53597619D01*
X77409857Y-53559523D01*
X77486047Y-53521428D01*
X77676523Y-53521428D01*
X77752714Y-53559523D01*
X77790809Y-53597619D01*
X77828904Y-53673809D01*
X77828904Y-53864285D01*
X77790809Y-53940476D01*
X77752714Y-53978571D01*
X77409857Y-43551809D02*
X77447952Y-43437523D01*
X77486047Y-43399428D01*
X77562238Y-43361333D01*
X77676523Y-43361333D01*
X77752714Y-43399428D01*
X77790809Y-43437523D01*
X77828904Y-43513714D01*
X77828904Y-43818476D01*
X77028904Y-43818476D01*
X77028904Y-43551809D01*
X77067000Y-43475619D01*
X77105095Y-43437523D01*
X77181285Y-43399428D01*
X77257476Y-43399428D01*
X77333666Y-43437523D01*
X77371761Y-43475619D01*
X77409857Y-43551809D01*
X77409857Y-43818476D01*
X77028904Y-42675619D02*
X77028904Y-42828000D01*
X77067000Y-42904190D01*
X77105095Y-42942285D01*
X77219380Y-43018476D01*
X77371761Y-43056571D01*
X77676523Y-43056571D01*
X77752714Y-43018476D01*
X77790809Y-42980380D01*
X77828904Y-42904190D01*
X77828904Y-42751809D01*
X77790809Y-42675619D01*
X77752714Y-42637523D01*
X77676523Y-42599428D01*
X77486047Y-42599428D01*
X77409857Y-42637523D01*
X77371761Y-42675619D01*
X77333666Y-42751809D01*
X77333666Y-42904190D01*
X77371761Y-42980380D01*
X77409857Y-43018476D01*
X77486047Y-43056571D01*
X72329857Y-43551809D02*
X72367952Y-43437523D01*
X72406047Y-43399428D01*
X72482238Y-43361333D01*
X72596523Y-43361333D01*
X72672714Y-43399428D01*
X72710809Y-43437523D01*
X72748904Y-43513714D01*
X72748904Y-43818476D01*
X71948904Y-43818476D01*
X71948904Y-43551809D01*
X71987000Y-43475619D01*
X72025095Y-43437523D01*
X72101285Y-43399428D01*
X72177476Y-43399428D01*
X72253666Y-43437523D01*
X72291761Y-43475619D01*
X72329857Y-43551809D01*
X72329857Y-43818476D01*
X71948904Y-43094666D02*
X71948904Y-42599428D01*
X72253666Y-42866095D01*
X72253666Y-42751809D01*
X72291761Y-42675619D01*
X72329857Y-42637523D01*
X72406047Y-42599428D01*
X72596523Y-42599428D01*
X72672714Y-42637523D01*
X72710809Y-42675619D01*
X72748904Y-42751809D01*
X72748904Y-42980380D01*
X72710809Y-43056571D01*
X72672714Y-43094666D01*
X69789857Y-43551809D02*
X69827952Y-43437523D01*
X69866047Y-43399428D01*
X69942238Y-43361333D01*
X70056523Y-43361333D01*
X70132714Y-43399428D01*
X70170809Y-43437523D01*
X70208904Y-43513714D01*
X70208904Y-43818476D01*
X69408904Y-43818476D01*
X69408904Y-43551809D01*
X69447000Y-43475619D01*
X69485095Y-43437523D01*
X69561285Y-43399428D01*
X69637476Y-43399428D01*
X69713666Y-43437523D01*
X69751761Y-43475619D01*
X69789857Y-43551809D01*
X69789857Y-43818476D01*
X70208904Y-42599428D02*
X70208904Y-43056571D01*
X70208904Y-42828000D02*
X69408904Y-42828000D01*
X69523190Y-42904190D01*
X69599380Y-42980380D01*
X69637476Y-43056571D01*
X59629857Y-43494666D02*
X59629857Y-43761333D01*
X60048904Y-43761333D02*
X59248904Y-43761333D01*
X59248904Y-43380380D01*
X59515571Y-42732761D02*
X60048904Y-42732761D01*
X59210809Y-42923238D02*
X59782238Y-43113714D01*
X59782238Y-42618476D01*
X56708904Y-44294666D02*
X57508904Y-44028000D01*
X56708904Y-43761333D01*
X57432714Y-43037523D02*
X57470809Y-43075619D01*
X57508904Y-43189904D01*
X57508904Y-43266095D01*
X57470809Y-43380380D01*
X57394619Y-43456571D01*
X57318428Y-43494666D01*
X57166047Y-43532761D01*
X57051761Y-43532761D01*
X56899380Y-43494666D01*
X56823190Y-43456571D01*
X56747000Y-43380380D01*
X56708904Y-43266095D01*
X56708904Y-43189904D01*
X56747000Y-43075619D01*
X56785095Y-43037523D01*
X57432714Y-42237523D02*
X57470809Y-42275619D01*
X57508904Y-42389904D01*
X57508904Y-42466095D01*
X57470809Y-42580380D01*
X57394619Y-42656571D01*
X57318428Y-42694666D01*
X57166047Y-42732761D01*
X57051761Y-42732761D01*
X56899380Y-42694666D01*
X56823190Y-42656571D01*
X56747000Y-42580380D01*
X56708904Y-42466095D01*
X56708904Y-42389904D01*
X56747000Y-42275619D01*
X56785095Y-42237523D01*
X54900809Y-43489213D02*
X54938904Y-43374927D01*
X54938904Y-43184451D01*
X54900809Y-43108260D01*
X54862714Y-43070165D01*
X54786523Y-43032070D01*
X54710333Y-43032070D01*
X54634142Y-43070165D01*
X54596047Y-43108260D01*
X54557952Y-43184451D01*
X54519857Y-43336832D01*
X54481761Y-43413022D01*
X54443666Y-43451118D01*
X54367476Y-43489213D01*
X54291285Y-43489213D01*
X54215095Y-43451118D01*
X54177000Y-43413022D01*
X54138904Y-43336832D01*
X54138904Y-43146356D01*
X54177000Y-43032070D01*
X54138904Y-42803499D02*
X54138904Y-42346356D01*
X54938904Y-42574927D02*
X54138904Y-42574927D01*
X51667000Y-43837523D02*
X51628904Y-43913714D01*
X51628904Y-44028000D01*
X51667000Y-44142285D01*
X51743190Y-44218476D01*
X51819380Y-44256571D01*
X51971761Y-44294666D01*
X52086047Y-44294666D01*
X52238428Y-44256571D01*
X52314619Y-44218476D01*
X52390809Y-44142285D01*
X52428904Y-44028000D01*
X52428904Y-43951809D01*
X52390809Y-43837523D01*
X52352714Y-43799428D01*
X52086047Y-43799428D01*
X52086047Y-43951809D01*
X52428904Y-43456571D02*
X51628904Y-43456571D01*
X52428904Y-42999428D01*
X51628904Y-42999428D01*
X52428904Y-42618476D02*
X51628904Y-42618476D01*
X51628904Y-42428000D01*
X51667000Y-42313714D01*
X51743190Y-42237523D01*
X51819380Y-42199428D01*
X51971761Y-42161333D01*
X52086047Y-42161333D01*
X52238428Y-42199428D01*
X52314619Y-42237523D01*
X52390809Y-42313714D01*
X52428904Y-42428000D01*
X52428904Y-42618476D01*
X49888904Y-43780380D02*
X49507952Y-44047047D01*
X49888904Y-44237523D02*
X49088904Y-44237523D01*
X49088904Y-43932761D01*
X49127000Y-43856571D01*
X49165095Y-43818476D01*
X49241285Y-43780380D01*
X49355571Y-43780380D01*
X49431761Y-43818476D01*
X49469857Y-43856571D01*
X49507952Y-43932761D01*
X49507952Y-44237523D01*
X49660333Y-43475619D02*
X49660333Y-43094666D01*
X49888904Y-43551809D02*
X49088904Y-43285142D01*
X49888904Y-43018476D01*
X49088904Y-42828000D02*
X49888904Y-42637523D01*
X49317476Y-42485142D01*
X49888904Y-42332761D01*
X49088904Y-42142285D01*
X62169857Y-43494666D02*
X62169857Y-43761333D01*
X62588904Y-43761333D02*
X61788904Y-43761333D01*
X61788904Y-43380380D01*
X61788904Y-42694666D02*
X61788904Y-43075619D01*
X62169857Y-43113714D01*
X62131761Y-43075619D01*
X62093666Y-42999428D01*
X62093666Y-42808952D01*
X62131761Y-42732761D01*
X62169857Y-42694666D01*
X62246047Y-42656571D01*
X62436523Y-42656571D01*
X62512714Y-42694666D01*
X62550809Y-42732761D01*
X62588904Y-42808952D01*
X62588904Y-42999428D01*
X62550809Y-43075619D01*
X62512714Y-43113714D01*
X64709857Y-43494666D02*
X64709857Y-43761333D01*
X65128904Y-43761333D02*
X64328904Y-43761333D01*
X64328904Y-43380380D01*
X64328904Y-42732761D02*
X64328904Y-42885142D01*
X64367000Y-42961333D01*
X64405095Y-42999428D01*
X64519380Y-43075619D01*
X64671761Y-43113714D01*
X64976523Y-43113714D01*
X65052714Y-43075619D01*
X65090809Y-43037523D01*
X65128904Y-42961333D01*
X65128904Y-42808952D01*
X65090809Y-42732761D01*
X65052714Y-42694666D01*
X64976523Y-42656571D01*
X64786047Y-42656571D01*
X64709857Y-42694666D01*
X64671761Y-42732761D01*
X64633666Y-42808952D01*
X64633666Y-42961333D01*
X64671761Y-43037523D01*
X64709857Y-43075619D01*
X64786047Y-43113714D01*
X67249857Y-43494666D02*
X67249857Y-43761333D01*
X67668904Y-43761333D02*
X66868904Y-43761333D01*
X66868904Y-43380380D01*
X66868904Y-43151809D02*
X66868904Y-42618476D01*
X67668904Y-42961333D01*
X74869857Y-43551809D02*
X74907952Y-43437523D01*
X74946047Y-43399428D01*
X75022238Y-43361333D01*
X75136523Y-43361333D01*
X75212714Y-43399428D01*
X75250809Y-43437523D01*
X75288904Y-43513714D01*
X75288904Y-43818476D01*
X74488904Y-43818476D01*
X74488904Y-43551809D01*
X74527000Y-43475619D01*
X74565095Y-43437523D01*
X74641285Y-43399428D01*
X74717476Y-43399428D01*
X74793666Y-43437523D01*
X74831761Y-43475619D01*
X74869857Y-43551809D01*
X74869857Y-43818476D01*
X74565095Y-43056571D02*
X74527000Y-43018476D01*
X74488904Y-42942285D01*
X74488904Y-42751809D01*
X74527000Y-42675619D01*
X74565095Y-42637523D01*
X74641285Y-42599428D01*
X74717476Y-42599428D01*
X74831761Y-42637523D01*
X75288904Y-43094666D01*
X75288904Y-42599428D01*
M02*
