G04 #@! TF.GenerationSoftware,KiCad,Pcbnew,5.1.5*
G04 #@! TF.CreationDate,2020-03-16T15:52:58-05:00*
G04 #@! TF.ProjectId,fissure,66697373-7572-4652-9e6b-696361645f70,rev?*
G04 #@! TF.SameCoordinates,Original*
G04 #@! TF.FileFunction,Copper,L2,Bot*
G04 #@! TF.FilePolarity,Positive*
%FSLAX46Y46*%
G04 Gerber Fmt 4.6, Leading zero omitted, Abs format (unit mm)*
G04 Created by KiCad (PCBNEW 5.1.5) date 2020-03-16 15:52:58*
%MOMM*%
%LPD*%
G04 APERTURE LIST*
%ADD10O,1.600000X2.000000*%
%ADD11O,1.500000X1.500000*%
%ADD12R,1.500000X1.500000*%
%ADD13O,1.600000X1.600000*%
%ADD14C,1.600000*%
%ADD15C,2.000000*%
%ADD16R,1.600000X0.850000*%
%ADD17C,1.752600*%
%ADD18R,1.752600X1.752600*%
%ADD19O,1.700000X1.700000*%
%ADD20R,1.700000X1.700000*%
%ADD21C,0.800000*%
%ADD22C,0.508000*%
%ADD23C,1.270000*%
G04 APERTURE END LIST*
D10*
X142500000Y-106900000D03*
X142500000Y-103900000D03*
X142500000Y-110900000D03*
X137900000Y-112000000D03*
X135300000Y-106900000D03*
X135300000Y-103900000D03*
X135300000Y-110900000D03*
X139900000Y-112000000D03*
D11*
X46747000Y-62439000D03*
D12*
X46747000Y-70059000D03*
D11*
X59997000Y-62439000D03*
D12*
X59997000Y-70059000D03*
D11*
X85597000Y-43439000D03*
D12*
X85597000Y-51059000D03*
D11*
X103097000Y-48929000D03*
D12*
X103097000Y-56549000D03*
D11*
X113897000Y-48929000D03*
D12*
X113897000Y-56549000D03*
D11*
X49247000Y-62439000D03*
D12*
X49247000Y-70059000D03*
D11*
X57497000Y-62439000D03*
D12*
X57497000Y-70059000D03*
D11*
X87697000Y-43439000D03*
D12*
X87697000Y-51059000D03*
D11*
X105197000Y-48929000D03*
D12*
X105197000Y-56549000D03*
D11*
X115997000Y-48929000D03*
D12*
X115997000Y-56549000D03*
D11*
X51747000Y-62439000D03*
D12*
X51747000Y-70059000D03*
D11*
X54997000Y-62439000D03*
D12*
X54997000Y-70059000D03*
D11*
X89797000Y-43439000D03*
D12*
X89797000Y-51059000D03*
D11*
X107297000Y-48929000D03*
D12*
X107297000Y-56549000D03*
D11*
X118097000Y-48929000D03*
D12*
X118097000Y-56549000D03*
D11*
X91897000Y-43439000D03*
D12*
X91897000Y-51059000D03*
D11*
X109397000Y-48929000D03*
D12*
X109397000Y-56549000D03*
D11*
X120197000Y-48929000D03*
D12*
X120197000Y-56549000D03*
D13*
X84777000Y-106749000D03*
D14*
X92397000Y-106749000D03*
D13*
X84777000Y-109749000D03*
D14*
X92397000Y-109749000D03*
D15*
X93497000Y-75449000D03*
X88497000Y-73349000D03*
X83497000Y-75449000D03*
D16*
X140647000Y-114974000D03*
X140647000Y-116724000D03*
X137147000Y-114974000D03*
X137147000Y-116724000D03*
D15*
X103502000Y-46149000D03*
X103502000Y-41649000D03*
X110002000Y-46149000D03*
X110002000Y-41649000D03*
X56497000Y-80949000D03*
X51497000Y-78849000D03*
X46497000Y-80949000D03*
X120497000Y-74049000D03*
X125497000Y-76149000D03*
X130497000Y-74049000D03*
X64997000Y-71049000D03*
X69997000Y-73149000D03*
X74997000Y-71049000D03*
D17*
X49527000Y-41069000D03*
X77467000Y-56309000D03*
X52067000Y-41069000D03*
X54607000Y-41069000D03*
X57147000Y-41069000D03*
X59687000Y-41069000D03*
X62227000Y-41069000D03*
X64767000Y-41069000D03*
X67307000Y-41069000D03*
X69847000Y-41069000D03*
X72387000Y-41069000D03*
X74927000Y-41069000D03*
X77467000Y-41069000D03*
X74927000Y-56309000D03*
X72387000Y-56309000D03*
X69847000Y-56309000D03*
X67307000Y-56309000D03*
X64767000Y-56309000D03*
X62227000Y-56309000D03*
X59687000Y-56309000D03*
X57147000Y-56309000D03*
X54607000Y-56309000D03*
X52067000Y-56309000D03*
D18*
X49527000Y-56309000D03*
D15*
X56497000Y-97949000D03*
X51497000Y-95849000D03*
X46497000Y-97949000D03*
X101997000Y-71049000D03*
X106997000Y-73149000D03*
X111997000Y-71049000D03*
X140997000Y-123449000D03*
X135997000Y-121349000D03*
X130997000Y-123449000D03*
X122997000Y-118349000D03*
X117997000Y-116249000D03*
X112997000Y-118349000D03*
X104997000Y-116449000D03*
X99997000Y-114349000D03*
X94997000Y-116449000D03*
X130497000Y-100449000D03*
X125497000Y-98349000D03*
X120497000Y-100449000D03*
X111997000Y-97449000D03*
X106997000Y-95349000D03*
X101997000Y-97449000D03*
X93497000Y-92449000D03*
X88497000Y-90349000D03*
X83497000Y-92449000D03*
X74997000Y-97449000D03*
X69997000Y-95349000D03*
X64997000Y-97449000D03*
X59497000Y-114949000D03*
X54497000Y-112849000D03*
X49497000Y-114949000D03*
X130497000Y-83449000D03*
X125497000Y-81349000D03*
X120497000Y-83449000D03*
X111997000Y-80449000D03*
X106997000Y-78349000D03*
X101997000Y-80449000D03*
X74997000Y-80449000D03*
X69997000Y-78349000D03*
X64997000Y-80449000D03*
X83497000Y-66049000D03*
X88497000Y-68149000D03*
X93497000Y-66049000D03*
D19*
X124307000Y-56944000D03*
X124307000Y-59484000D03*
X126847000Y-56944000D03*
X126847000Y-59484000D03*
X129387000Y-56944000D03*
X129387000Y-59484000D03*
X131927000Y-56944000D03*
D20*
X131927000Y-59484000D03*
D21*
X133897000Y-115049000D03*
X83597000Y-45149000D03*
X67897000Y-43649000D03*
X138897000Y-115849000D03*
X102597000Y-112949000D03*
D22*
X46497000Y-70399000D02*
X46747000Y-70149000D01*
X46497000Y-80449000D02*
X46497000Y-70399000D01*
X73582787Y-71049000D02*
X64997000Y-71049000D01*
X74997000Y-71049000D02*
X73582787Y-71049000D01*
X60987000Y-71049000D02*
X59997000Y-70059000D01*
X64997000Y-71049000D02*
X60987000Y-71049000D01*
X92082787Y-66049000D02*
X83497000Y-66049000D01*
X93497000Y-66049000D02*
X92082787Y-66049000D01*
X111997000Y-71049000D02*
X101997000Y-71049000D01*
X121911213Y-74049000D02*
X130497000Y-74049000D01*
X120497000Y-74049000D02*
X121911213Y-74049000D01*
X56497000Y-97949000D02*
X46497000Y-97949000D01*
X46497000Y-97949000D02*
X46497000Y-88549000D01*
X46497000Y-88549000D02*
X48797000Y-86249000D01*
X48797000Y-70599000D02*
X49247000Y-70149000D01*
X48797000Y-86249000D02*
X48797000Y-70599000D01*
X64997000Y-80449000D02*
X74997000Y-80449000D01*
X101997000Y-80449000D02*
X111997000Y-80449000D01*
X120497000Y-83449000D02*
X130497000Y-83449000D01*
X66411213Y-97449000D02*
X74997000Y-97449000D01*
X64997000Y-97449000D02*
X66411213Y-97449000D01*
X93497000Y-92449000D02*
X83497000Y-92449000D01*
X111997000Y-97449000D02*
X101997000Y-97449000D01*
X129082787Y-100449000D02*
X120497000Y-100449000D01*
X130497000Y-100449000D02*
X129082787Y-100449000D01*
D23*
X131927000Y-59484000D02*
X133932000Y-59484000D01*
X104916213Y-46149000D02*
X103502000Y-46149000D01*
X123625802Y-46149000D02*
X104916213Y-46149000D01*
X133932000Y-56455198D02*
X123625802Y-46149000D01*
X133932000Y-59484000D02*
X133932000Y-56455198D01*
X52067000Y-42308275D02*
X52067000Y-41069000D01*
X54607000Y-56309000D02*
X57147000Y-56309000D01*
X102087787Y-46149000D02*
X103502000Y-46149000D01*
X57251000Y-47749000D02*
X100487787Y-47749000D01*
X57147000Y-56309000D02*
X57147000Y-47853000D01*
X100487787Y-47749000D02*
X102087787Y-46149000D01*
X57147000Y-47853000D02*
X57251000Y-47749000D01*
D22*
X140647000Y-116724000D02*
X141976000Y-116724000D01*
X141976000Y-116724000D02*
X142700000Y-116000000D01*
X142700000Y-113392000D02*
X141308000Y-112000000D01*
X142700000Y-116000000D02*
X142700000Y-113392000D01*
D23*
X133932000Y-96804198D02*
X133932000Y-59484000D01*
X138900000Y-112000000D02*
X138900000Y-101772198D01*
X138900000Y-101772198D02*
X133932000Y-96804198D01*
X138900000Y-112000000D02*
X139900000Y-112000000D01*
X137900000Y-112000000D02*
X138900000Y-112000000D01*
D22*
X141308000Y-112000000D02*
X139900000Y-112000000D01*
D23*
X57147000Y-47388275D02*
X52067000Y-42308275D01*
X57147000Y-47853000D02*
X57147000Y-47388275D01*
D22*
X137147000Y-114974000D02*
X133972000Y-114974000D01*
X133972000Y-114974000D02*
X133897000Y-115049000D01*
X92397000Y-106749000D02*
X92397000Y-109749000D01*
D23*
X57147000Y-41069000D02*
X57147000Y-42599000D01*
X57147000Y-42599000D02*
X57147000Y-43099000D01*
X57147000Y-43099000D02*
X59197000Y-45149000D01*
X59197000Y-45149000D02*
X82197000Y-45149000D01*
X82197000Y-45149000D02*
X83597000Y-45149000D01*
D22*
X135300000Y-104100000D02*
X135300000Y-103900000D01*
X129651000Y-109749000D02*
X135300000Y-104100000D01*
X92397000Y-109749000D02*
X129651000Y-109749000D01*
X51747000Y-62349000D02*
X51747000Y-61224000D01*
X51747000Y-61224000D02*
X52852000Y-60119000D01*
X60957000Y-60119000D02*
X64767000Y-56309000D01*
X52852000Y-60119000D02*
X60957000Y-60119000D01*
X61267000Y-62349000D02*
X67307000Y-56309000D01*
X59997000Y-62349000D02*
X61267000Y-62349000D01*
X68107000Y-43439000D02*
X67897000Y-43649000D01*
X91897000Y-43439000D02*
X68107000Y-43439000D01*
X103097000Y-48929000D02*
X109397000Y-48929000D01*
X72387000Y-56309000D02*
X75796000Y-52900000D01*
X99126000Y-52900000D02*
X103097000Y-48929000D01*
X75796000Y-52900000D02*
X99126000Y-52900000D01*
X113897000Y-48929000D02*
X120197000Y-48929000D01*
X74927000Y-56309000D02*
X77236000Y-54000000D01*
X108826000Y-54000000D02*
X113897000Y-48929000D01*
X77236000Y-54000000D02*
X108826000Y-54000000D01*
X57197000Y-73149000D02*
X69997000Y-73149000D01*
X51497000Y-78849000D02*
X57197000Y-73149000D01*
X69997000Y-73149000D02*
X77597000Y-73149000D01*
X82597000Y-68149000D02*
X88497000Y-68149000D01*
X77597000Y-73149000D02*
X82597000Y-68149000D01*
X106997000Y-73149000D02*
X99897000Y-73149000D01*
X94897000Y-68149000D02*
X88497000Y-68149000D01*
X99897000Y-73149000D02*
X94897000Y-68149000D01*
X125497000Y-76149000D02*
X116897000Y-76149000D01*
X113897000Y-73149000D02*
X106997000Y-73149000D01*
X116897000Y-76149000D02*
X113897000Y-73149000D01*
X63897000Y-78349000D02*
X69997000Y-78349000D01*
X61247000Y-80999000D02*
X63897000Y-78349000D01*
X69997000Y-78349000D02*
X78310000Y-78349000D01*
X83310000Y-73349000D02*
X88497000Y-73349000D01*
X78310000Y-78349000D02*
X83310000Y-73349000D01*
X88497000Y-73349000D02*
X94149000Y-73349000D01*
X99149000Y-78349000D02*
X106997000Y-78349000D01*
X94149000Y-73349000D02*
X99149000Y-78349000D01*
X106997000Y-78349000D02*
X112611000Y-78349000D01*
X115611000Y-81349000D02*
X125497000Y-81349000D01*
X112611000Y-78349000D02*
X115611000Y-81349000D01*
X61247000Y-86099000D02*
X51497000Y-95849000D01*
X61247000Y-80999000D02*
X61247000Y-86099000D01*
X54497000Y-112849000D02*
X59997000Y-107349000D01*
X59997000Y-107349000D02*
X59997000Y-97249000D01*
X61897000Y-95349000D02*
X69997000Y-95349000D01*
X59997000Y-97249000D02*
X61897000Y-95349000D01*
X74997000Y-90349000D02*
X88497000Y-90349000D01*
X69997000Y-95349000D02*
X74997000Y-90349000D01*
X101997000Y-90349000D02*
X106997000Y-95349000D01*
X88497000Y-90349000D02*
X101997000Y-90349000D01*
X122497000Y-95349000D02*
X125497000Y-98349000D01*
X106997000Y-95349000D02*
X122497000Y-95349000D01*
X130897000Y-116249000D02*
X117997000Y-116249000D01*
X135997000Y-121349000D02*
X130897000Y-116249000D01*
X116097000Y-114349000D02*
X99997000Y-114349000D01*
X117997000Y-116249000D02*
X116097000Y-114349000D01*
X124607000Y-59484000D02*
X124607000Y-59865000D01*
X127147000Y-59484000D02*
X127147000Y-59738000D01*
X134105001Y-112094999D02*
X135300000Y-110900000D01*
X87122999Y-112094999D02*
X134105001Y-112094999D01*
X84777000Y-109749000D02*
X87122999Y-112094999D01*
X89031001Y-111003001D02*
X133004999Y-111003001D01*
X84777000Y-106749000D02*
X89031001Y-111003001D01*
X135300000Y-108708000D02*
X135300000Y-106900000D01*
X133004999Y-111003001D02*
X135300000Y-108708000D01*
X103502000Y-41649000D02*
X96097000Y-41649000D01*
X54607000Y-42308275D02*
X54607000Y-41069000D01*
X58536734Y-46238009D02*
X54607000Y-42308275D01*
X91507990Y-46238010D02*
X58536734Y-46238009D01*
X96097000Y-41649000D02*
X91507990Y-46238010D01*
X137147000Y-116724000D02*
X138022000Y-116724000D01*
X138022000Y-116724000D02*
X138897000Y-115849000D01*
X129098276Y-112949000D02*
X102597000Y-112949000D01*
X137147000Y-116724000D02*
X132873276Y-116724000D01*
X132873276Y-116724000D02*
X129098276Y-112949000D01*
M02*
