G04 #@! TF.GenerationSoftware,KiCad,Pcbnew,5.1.5*
G04 #@! TF.CreationDate,2020-03-19T02:10:20-05:00*
G04 #@! TF.ProjectId,fissure,66697373-7572-4652-9e6b-696361645f70,rev?*
G04 #@! TF.SameCoordinates,Original*
G04 #@! TF.FileFunction,Soldermask,Bot*
G04 #@! TF.FilePolarity,Negative*
%FSLAX46Y46*%
G04 Gerber Fmt 4.6, Leading zero omitted, Abs format (unit mm)*
G04 Created by KiCad (PCBNEW 5.1.5) date 2020-03-19 02:10:20*
%MOMM*%
%LPD*%
G04 APERTURE LIST*
%ADD10C,0.100000*%
G04 APERTURE END LIST*
D10*
G36*
X136394985Y-125542860D02*
G01*
X136507748Y-125565290D01*
X136639741Y-125619963D01*
X136826408Y-125697283D01*
X137113196Y-125888909D01*
X137357091Y-126132804D01*
X137548717Y-126419592D01*
X137680710Y-126738253D01*
X137748000Y-127076540D01*
X137748000Y-127421460D01*
X137680710Y-127759747D01*
X137548717Y-128078408D01*
X137357091Y-128365196D01*
X137113196Y-128609091D01*
X136826408Y-128800717D01*
X136639741Y-128878037D01*
X136507748Y-128932710D01*
X136394985Y-128955140D01*
X136169460Y-129000000D01*
X135824540Y-129000000D01*
X135599015Y-128955140D01*
X135486252Y-128932710D01*
X135354259Y-128878037D01*
X135167592Y-128800717D01*
X134880804Y-128609091D01*
X134636909Y-128365196D01*
X134445283Y-128078408D01*
X134313290Y-127759747D01*
X134246000Y-127421460D01*
X134246000Y-127076540D01*
X134313290Y-126738253D01*
X134445283Y-126419592D01*
X134636909Y-126132804D01*
X134880804Y-125888909D01*
X135167592Y-125697283D01*
X135354259Y-125619963D01*
X135486252Y-125565290D01*
X135599015Y-125542860D01*
X135824540Y-125498000D01*
X136169460Y-125498000D01*
X136394985Y-125542860D01*
G37*
G36*
X141610512Y-126352927D02*
G01*
X141759812Y-126382624D01*
X141923784Y-126450544D01*
X142071354Y-126549147D01*
X142196853Y-126674646D01*
X142295456Y-126822216D01*
X142363376Y-126986188D01*
X142398000Y-127160259D01*
X142398000Y-127337741D01*
X142363376Y-127511812D01*
X142295456Y-127675784D01*
X142196853Y-127823354D01*
X142071354Y-127948853D01*
X141923784Y-128047456D01*
X141759812Y-128115376D01*
X141610512Y-128145073D01*
X141585742Y-128150000D01*
X141408258Y-128150000D01*
X141383488Y-128145073D01*
X141234188Y-128115376D01*
X141070216Y-128047456D01*
X140922646Y-127948853D01*
X140797147Y-127823354D01*
X140698544Y-127675784D01*
X140630624Y-127511812D01*
X140596000Y-127337741D01*
X140596000Y-127160259D01*
X140630624Y-126986188D01*
X140698544Y-126822216D01*
X140797147Y-126674646D01*
X140922646Y-126549147D01*
X141070216Y-126450544D01*
X141234188Y-126382624D01*
X141383488Y-126352927D01*
X141408258Y-126348000D01*
X141585742Y-126348000D01*
X141610512Y-126352927D01*
G37*
G36*
X130610512Y-126352927D02*
G01*
X130759812Y-126382624D01*
X130923784Y-126450544D01*
X131071354Y-126549147D01*
X131196853Y-126674646D01*
X131295456Y-126822216D01*
X131363376Y-126986188D01*
X131398000Y-127160259D01*
X131398000Y-127337741D01*
X131363376Y-127511812D01*
X131295456Y-127675784D01*
X131196853Y-127823354D01*
X131071354Y-127948853D01*
X130923784Y-128047456D01*
X130759812Y-128115376D01*
X130610512Y-128145073D01*
X130585742Y-128150000D01*
X130408258Y-128150000D01*
X130383488Y-128145073D01*
X130234188Y-128115376D01*
X130070216Y-128047456D01*
X129922646Y-127948853D01*
X129797147Y-127823354D01*
X129698544Y-127675784D01*
X129630624Y-127511812D01*
X129596000Y-127337741D01*
X129596000Y-127160259D01*
X129630624Y-126986188D01*
X129698544Y-126822216D01*
X129797147Y-126674646D01*
X129922646Y-126549147D01*
X130070216Y-126450544D01*
X130234188Y-126382624D01*
X130383488Y-126352927D01*
X130408258Y-126348000D01*
X130585742Y-126348000D01*
X130610512Y-126352927D01*
G37*
G36*
X131303564Y-122438389D02*
G01*
X131494833Y-122517615D01*
X131494835Y-122517616D01*
X131666973Y-122632635D01*
X131813365Y-122779027D01*
X131925906Y-122947456D01*
X131928385Y-122951167D01*
X132007611Y-123142436D01*
X132048000Y-123345484D01*
X132048000Y-123552516D01*
X132007611Y-123755564D01*
X131975656Y-123832710D01*
X131928384Y-123946835D01*
X131813365Y-124118973D01*
X131666973Y-124265365D01*
X131494835Y-124380384D01*
X131494834Y-124380385D01*
X131494833Y-124380385D01*
X131303564Y-124459611D01*
X131100516Y-124500000D01*
X130893484Y-124500000D01*
X130690436Y-124459611D01*
X130499167Y-124380385D01*
X130499166Y-124380385D01*
X130499165Y-124380384D01*
X130327027Y-124265365D01*
X130180635Y-124118973D01*
X130065616Y-123946835D01*
X130018344Y-123832710D01*
X129986389Y-123755564D01*
X129946000Y-123552516D01*
X129946000Y-123345484D01*
X129986389Y-123142436D01*
X130065615Y-122951167D01*
X130068095Y-122947456D01*
X130180635Y-122779027D01*
X130327027Y-122632635D01*
X130499165Y-122517616D01*
X130499167Y-122517615D01*
X130690436Y-122438389D01*
X130893484Y-122398000D01*
X131100516Y-122398000D01*
X131303564Y-122438389D01*
G37*
G36*
X141303564Y-122438389D02*
G01*
X141494833Y-122517615D01*
X141494835Y-122517616D01*
X141666973Y-122632635D01*
X141813365Y-122779027D01*
X141925906Y-122947456D01*
X141928385Y-122951167D01*
X142007611Y-123142436D01*
X142048000Y-123345484D01*
X142048000Y-123552516D01*
X142007611Y-123755564D01*
X141975656Y-123832710D01*
X141928384Y-123946835D01*
X141813365Y-124118973D01*
X141666973Y-124265365D01*
X141494835Y-124380384D01*
X141494834Y-124380385D01*
X141494833Y-124380385D01*
X141303564Y-124459611D01*
X141100516Y-124500000D01*
X140893484Y-124500000D01*
X140690436Y-124459611D01*
X140499167Y-124380385D01*
X140499166Y-124380385D01*
X140499165Y-124380384D01*
X140327027Y-124265365D01*
X140180635Y-124118973D01*
X140065616Y-123946835D01*
X140018344Y-123832710D01*
X139986389Y-123755564D01*
X139946000Y-123552516D01*
X139946000Y-123345484D01*
X139986389Y-123142436D01*
X140065615Y-122951167D01*
X140068095Y-122947456D01*
X140180635Y-122779027D01*
X140327027Y-122632635D01*
X140499165Y-122517616D01*
X140499167Y-122517615D01*
X140690436Y-122438389D01*
X140893484Y-122398000D01*
X141100516Y-122398000D01*
X141303564Y-122438389D01*
G37*
G36*
X118394985Y-120442860D02*
G01*
X118507748Y-120465290D01*
X118591545Y-120500000D01*
X118826408Y-120597283D01*
X119113196Y-120788909D01*
X119357091Y-121032804D01*
X119548717Y-121319592D01*
X119626037Y-121506259D01*
X119680710Y-121638252D01*
X119684154Y-121655565D01*
X119748000Y-121976540D01*
X119748000Y-122321460D01*
X119680710Y-122659747D01*
X119548717Y-122978408D01*
X119357091Y-123265196D01*
X119113196Y-123509091D01*
X118826408Y-123700717D01*
X118639741Y-123778037D01*
X118507748Y-123832710D01*
X118394985Y-123855140D01*
X118169460Y-123900000D01*
X117824540Y-123900000D01*
X117599015Y-123855140D01*
X117486252Y-123832710D01*
X117354259Y-123778037D01*
X117167592Y-123700717D01*
X116880804Y-123509091D01*
X116636909Y-123265196D01*
X116445283Y-122978408D01*
X116313290Y-122659747D01*
X116246000Y-122321460D01*
X116246000Y-121976540D01*
X116309846Y-121655565D01*
X116313290Y-121638252D01*
X116367963Y-121506259D01*
X116445283Y-121319592D01*
X116636909Y-121032804D01*
X116880804Y-120788909D01*
X117167592Y-120597283D01*
X117402455Y-120500000D01*
X117486252Y-120465290D01*
X117599015Y-120442860D01*
X117824540Y-120398000D01*
X118169460Y-120398000D01*
X118394985Y-120442860D01*
G37*
G36*
X112610512Y-121252927D02*
G01*
X112759812Y-121282624D01*
X112923784Y-121350544D01*
X113071354Y-121449147D01*
X113196853Y-121574646D01*
X113295456Y-121722216D01*
X113363376Y-121886188D01*
X113398000Y-122060259D01*
X113398000Y-122237741D01*
X113363376Y-122411812D01*
X113295456Y-122575784D01*
X113196853Y-122723354D01*
X113071354Y-122848853D01*
X112923784Y-122947456D01*
X112759812Y-123015376D01*
X112610512Y-123045073D01*
X112585742Y-123050000D01*
X112408258Y-123050000D01*
X112383488Y-123045073D01*
X112234188Y-123015376D01*
X112070216Y-122947456D01*
X111922646Y-122848853D01*
X111797147Y-122723354D01*
X111698544Y-122575784D01*
X111630624Y-122411812D01*
X111596000Y-122237741D01*
X111596000Y-122060259D01*
X111630624Y-121886188D01*
X111698544Y-121722216D01*
X111797147Y-121574646D01*
X111922646Y-121449147D01*
X112070216Y-121350544D01*
X112234188Y-121282624D01*
X112383488Y-121252927D01*
X112408258Y-121248000D01*
X112585742Y-121248000D01*
X112610512Y-121252927D01*
G37*
G36*
X123610512Y-121252927D02*
G01*
X123759812Y-121282624D01*
X123923784Y-121350544D01*
X124071354Y-121449147D01*
X124196853Y-121574646D01*
X124295456Y-121722216D01*
X124363376Y-121886188D01*
X124398000Y-122060259D01*
X124398000Y-122237741D01*
X124363376Y-122411812D01*
X124295456Y-122575784D01*
X124196853Y-122723354D01*
X124071354Y-122848853D01*
X123923784Y-122947456D01*
X123759812Y-123015376D01*
X123610512Y-123045073D01*
X123585742Y-123050000D01*
X123408258Y-123050000D01*
X123383488Y-123045073D01*
X123234188Y-123015376D01*
X123070216Y-122947456D01*
X122922646Y-122848853D01*
X122797147Y-122723354D01*
X122698544Y-122575784D01*
X122630624Y-122411812D01*
X122596000Y-122237741D01*
X122596000Y-122060259D01*
X122630624Y-121886188D01*
X122698544Y-121722216D01*
X122797147Y-121574646D01*
X122922646Y-121449147D01*
X123070216Y-121350544D01*
X123234188Y-121282624D01*
X123383488Y-121252927D01*
X123408258Y-121248000D01*
X123585742Y-121248000D01*
X123610512Y-121252927D01*
G37*
G36*
X136303564Y-120338389D02*
G01*
X136494833Y-120417615D01*
X136494835Y-120417616D01*
X136666973Y-120532635D01*
X136813365Y-120679027D01*
X136909801Y-120823353D01*
X136928385Y-120851167D01*
X137007611Y-121042436D01*
X137048000Y-121245484D01*
X137048000Y-121452516D01*
X137007611Y-121655564D01*
X136980002Y-121722218D01*
X136928384Y-121846835D01*
X136813365Y-122018973D01*
X136666973Y-122165365D01*
X136494835Y-122280384D01*
X136494834Y-122280385D01*
X136494833Y-122280385D01*
X136303564Y-122359611D01*
X136100516Y-122400000D01*
X135893484Y-122400000D01*
X135690436Y-122359611D01*
X135499167Y-122280385D01*
X135499166Y-122280385D01*
X135499165Y-122280384D01*
X135327027Y-122165365D01*
X135180635Y-122018973D01*
X135065616Y-121846835D01*
X135013998Y-121722218D01*
X134986389Y-121655564D01*
X134946000Y-121452516D01*
X134946000Y-121245484D01*
X134986389Y-121042436D01*
X135065615Y-120851167D01*
X135084200Y-120823353D01*
X135180635Y-120679027D01*
X135327027Y-120532635D01*
X135499165Y-120417616D01*
X135499167Y-120417615D01*
X135690436Y-120338389D01*
X135893484Y-120298000D01*
X136100516Y-120298000D01*
X136303564Y-120338389D01*
G37*
G36*
X100394985Y-118542860D02*
G01*
X100507748Y-118565290D01*
X100639741Y-118619963D01*
X100826408Y-118697283D01*
X101113196Y-118888909D01*
X101357091Y-119132804D01*
X101548717Y-119419592D01*
X101680710Y-119738253D01*
X101748000Y-120076540D01*
X101748000Y-120421460D01*
X101725886Y-120532635D01*
X101680710Y-120759748D01*
X101654364Y-120823353D01*
X101548717Y-121078408D01*
X101357091Y-121365196D01*
X101113196Y-121609091D01*
X100826408Y-121800717D01*
X100639741Y-121878037D01*
X100507748Y-121932710D01*
X100394985Y-121955140D01*
X100169460Y-122000000D01*
X99824540Y-122000000D01*
X99599015Y-121955140D01*
X99486252Y-121932710D01*
X99354259Y-121878037D01*
X99167592Y-121800717D01*
X98880804Y-121609091D01*
X98636909Y-121365196D01*
X98445283Y-121078408D01*
X98339636Y-120823353D01*
X98313290Y-120759748D01*
X98268114Y-120532635D01*
X98246000Y-120421460D01*
X98246000Y-120076540D01*
X98313290Y-119738253D01*
X98445283Y-119419592D01*
X98636909Y-119132804D01*
X98880804Y-118888909D01*
X99167592Y-118697283D01*
X99354259Y-118619963D01*
X99486252Y-118565290D01*
X99599015Y-118542860D01*
X99824540Y-118498000D01*
X100169460Y-118498000D01*
X100394985Y-118542860D01*
G37*
G36*
X105610512Y-119352927D02*
G01*
X105759812Y-119382624D01*
X105923784Y-119450544D01*
X106071354Y-119549147D01*
X106196853Y-119674646D01*
X106295456Y-119822216D01*
X106363376Y-119986188D01*
X106398000Y-120160259D01*
X106398000Y-120337741D01*
X106363376Y-120511812D01*
X106295456Y-120675784D01*
X106196853Y-120823354D01*
X106071354Y-120948853D01*
X105923784Y-121047456D01*
X105759812Y-121115376D01*
X105610512Y-121145073D01*
X105585742Y-121150000D01*
X105408258Y-121150000D01*
X105383488Y-121145073D01*
X105234188Y-121115376D01*
X105070216Y-121047456D01*
X104922646Y-120948853D01*
X104797147Y-120823354D01*
X104698544Y-120675784D01*
X104630624Y-120511812D01*
X104596000Y-120337741D01*
X104596000Y-120160259D01*
X104630624Y-119986188D01*
X104698544Y-119822216D01*
X104797147Y-119674646D01*
X104922646Y-119549147D01*
X105070216Y-119450544D01*
X105234188Y-119382624D01*
X105383488Y-119352927D01*
X105408258Y-119348000D01*
X105585742Y-119348000D01*
X105610512Y-119352927D01*
G37*
G36*
X94610512Y-119352927D02*
G01*
X94759812Y-119382624D01*
X94923784Y-119450544D01*
X95071354Y-119549147D01*
X95196853Y-119674646D01*
X95295456Y-119822216D01*
X95363376Y-119986188D01*
X95398000Y-120160259D01*
X95398000Y-120337741D01*
X95363376Y-120511812D01*
X95295456Y-120675784D01*
X95196853Y-120823354D01*
X95071354Y-120948853D01*
X94923784Y-121047456D01*
X94759812Y-121115376D01*
X94610512Y-121145073D01*
X94585742Y-121150000D01*
X94408258Y-121150000D01*
X94383488Y-121145073D01*
X94234188Y-121115376D01*
X94070216Y-121047456D01*
X93922646Y-120948853D01*
X93797147Y-120823354D01*
X93698544Y-120675784D01*
X93630624Y-120511812D01*
X93596000Y-120337741D01*
X93596000Y-120160259D01*
X93630624Y-119986188D01*
X93698544Y-119822216D01*
X93797147Y-119674646D01*
X93922646Y-119549147D01*
X94070216Y-119450544D01*
X94234188Y-119382624D01*
X94383488Y-119352927D01*
X94408258Y-119348000D01*
X94585742Y-119348000D01*
X94610512Y-119352927D01*
G37*
G36*
X54894985Y-117042860D02*
G01*
X55007748Y-117065290D01*
X55137350Y-117118973D01*
X55326408Y-117197283D01*
X55613196Y-117388909D01*
X55857091Y-117632804D01*
X56048717Y-117919592D01*
X56126037Y-118106259D01*
X56180710Y-118238252D01*
X56182149Y-118245486D01*
X56248000Y-118576540D01*
X56248000Y-118921460D01*
X56180710Y-119259747D01*
X56048717Y-119578408D01*
X55857091Y-119865196D01*
X55613196Y-120109091D01*
X55326408Y-120300717D01*
X55139741Y-120378037D01*
X55007748Y-120432710D01*
X54894985Y-120455140D01*
X54669460Y-120500000D01*
X54324540Y-120500000D01*
X54099015Y-120455140D01*
X53986252Y-120432710D01*
X53854259Y-120378037D01*
X53667592Y-120300717D01*
X53380804Y-120109091D01*
X53136909Y-119865196D01*
X52945283Y-119578408D01*
X52813290Y-119259747D01*
X52746000Y-118921460D01*
X52746000Y-118576540D01*
X52811851Y-118245486D01*
X52813290Y-118238252D01*
X52867963Y-118106259D01*
X52945283Y-117919592D01*
X53136909Y-117632804D01*
X53380804Y-117388909D01*
X53667592Y-117197283D01*
X53856650Y-117118973D01*
X53986252Y-117065290D01*
X54099015Y-117042860D01*
X54324540Y-116998000D01*
X54669460Y-116998000D01*
X54894985Y-117042860D01*
G37*
G36*
X49101653Y-117851165D02*
G01*
X49259812Y-117882624D01*
X49423784Y-117950544D01*
X49571354Y-118049147D01*
X49696853Y-118174646D01*
X49795456Y-118322216D01*
X49863376Y-118486188D01*
X49898000Y-118660259D01*
X49898000Y-118837741D01*
X49863376Y-119011812D01*
X49795456Y-119175784D01*
X49696853Y-119323354D01*
X49571354Y-119448853D01*
X49423784Y-119547456D01*
X49259812Y-119615376D01*
X49110512Y-119645073D01*
X49085742Y-119650000D01*
X48908258Y-119650000D01*
X48883488Y-119645073D01*
X48734188Y-119615376D01*
X48570216Y-119547456D01*
X48422646Y-119448853D01*
X48297147Y-119323354D01*
X48198544Y-119175784D01*
X48130624Y-119011812D01*
X48096000Y-118837741D01*
X48096000Y-118660259D01*
X48130624Y-118486188D01*
X48198544Y-118322216D01*
X48297147Y-118174646D01*
X48422646Y-118049147D01*
X48570216Y-117950544D01*
X48734188Y-117882624D01*
X48892347Y-117851165D01*
X48908258Y-117848000D01*
X49085742Y-117848000D01*
X49101653Y-117851165D01*
G37*
G36*
X60101653Y-117851165D02*
G01*
X60259812Y-117882624D01*
X60423784Y-117950544D01*
X60571354Y-118049147D01*
X60696853Y-118174646D01*
X60795456Y-118322216D01*
X60863376Y-118486188D01*
X60898000Y-118660259D01*
X60898000Y-118837741D01*
X60863376Y-119011812D01*
X60795456Y-119175784D01*
X60696853Y-119323354D01*
X60571354Y-119448853D01*
X60423784Y-119547456D01*
X60259812Y-119615376D01*
X60110512Y-119645073D01*
X60085742Y-119650000D01*
X59908258Y-119650000D01*
X59883488Y-119645073D01*
X59734188Y-119615376D01*
X59570216Y-119547456D01*
X59422646Y-119448853D01*
X59297147Y-119323354D01*
X59198544Y-119175784D01*
X59130624Y-119011812D01*
X59096000Y-118837741D01*
X59096000Y-118660259D01*
X59130624Y-118486188D01*
X59198544Y-118322216D01*
X59297147Y-118174646D01*
X59422646Y-118049147D01*
X59570216Y-117950544D01*
X59734188Y-117882624D01*
X59892347Y-117851165D01*
X59908258Y-117848000D01*
X60085742Y-117848000D01*
X60101653Y-117851165D01*
G37*
G36*
X123303564Y-117338389D02*
G01*
X123494833Y-117417615D01*
X123494835Y-117417616D01*
X123557683Y-117459610D01*
X123666973Y-117532635D01*
X123813365Y-117679027D01*
X123928385Y-117851167D01*
X124007611Y-118042436D01*
X124048000Y-118245484D01*
X124048000Y-118452516D01*
X124007611Y-118655564D01*
X123928385Y-118846833D01*
X123928384Y-118846835D01*
X123813365Y-119018973D01*
X123666973Y-119165365D01*
X123494835Y-119280384D01*
X123494834Y-119280385D01*
X123494833Y-119280385D01*
X123303564Y-119359611D01*
X123100516Y-119400000D01*
X122893484Y-119400000D01*
X122690436Y-119359611D01*
X122499167Y-119280385D01*
X122499166Y-119280385D01*
X122499165Y-119280384D01*
X122327027Y-119165365D01*
X122180635Y-119018973D01*
X122065616Y-118846835D01*
X122065615Y-118846833D01*
X121986389Y-118655564D01*
X121946000Y-118452516D01*
X121946000Y-118245484D01*
X121986389Y-118042436D01*
X122065615Y-117851167D01*
X122180635Y-117679027D01*
X122327027Y-117532635D01*
X122436317Y-117459610D01*
X122499165Y-117417616D01*
X122499167Y-117417615D01*
X122690436Y-117338389D01*
X122893484Y-117298000D01*
X123100516Y-117298000D01*
X123303564Y-117338389D01*
G37*
G36*
X113303564Y-117338389D02*
G01*
X113494833Y-117417615D01*
X113494835Y-117417616D01*
X113557683Y-117459610D01*
X113666973Y-117532635D01*
X113813365Y-117679027D01*
X113928385Y-117851167D01*
X114007611Y-118042436D01*
X114048000Y-118245484D01*
X114048000Y-118452516D01*
X114007611Y-118655564D01*
X113928385Y-118846833D01*
X113928384Y-118846835D01*
X113813365Y-119018973D01*
X113666973Y-119165365D01*
X113494835Y-119280384D01*
X113494834Y-119280385D01*
X113494833Y-119280385D01*
X113303564Y-119359611D01*
X113100516Y-119400000D01*
X112893484Y-119400000D01*
X112690436Y-119359611D01*
X112499167Y-119280385D01*
X112499166Y-119280385D01*
X112499165Y-119280384D01*
X112327027Y-119165365D01*
X112180635Y-119018973D01*
X112065616Y-118846835D01*
X112065615Y-118846833D01*
X111986389Y-118655564D01*
X111946000Y-118452516D01*
X111946000Y-118245484D01*
X111986389Y-118042436D01*
X112065615Y-117851167D01*
X112180635Y-117679027D01*
X112327027Y-117532635D01*
X112436317Y-117459610D01*
X112499165Y-117417616D01*
X112499167Y-117417615D01*
X112690436Y-117338389D01*
X112893484Y-117298000D01*
X113100516Y-117298000D01*
X113303564Y-117338389D01*
G37*
G36*
X105303564Y-115438389D02*
G01*
X105494833Y-115517615D01*
X105494835Y-115517616D01*
X105666973Y-115632635D01*
X105813365Y-115779027D01*
X105922551Y-115942435D01*
X105928385Y-115951167D01*
X106007611Y-116142436D01*
X106048000Y-116345484D01*
X106048000Y-116552516D01*
X106007611Y-116755564D01*
X105939925Y-116918973D01*
X105928384Y-116946835D01*
X105813365Y-117118973D01*
X105666973Y-117265365D01*
X105494835Y-117380384D01*
X105494834Y-117380385D01*
X105494833Y-117380385D01*
X105303564Y-117459611D01*
X105100516Y-117500000D01*
X104893484Y-117500000D01*
X104690436Y-117459611D01*
X104499167Y-117380385D01*
X104499166Y-117380385D01*
X104499165Y-117380384D01*
X104327027Y-117265365D01*
X104180635Y-117118973D01*
X104065616Y-116946835D01*
X104054075Y-116918973D01*
X103986389Y-116755564D01*
X103946000Y-116552516D01*
X103946000Y-116345484D01*
X103986389Y-116142436D01*
X104065615Y-115951167D01*
X104071450Y-115942435D01*
X104180635Y-115779027D01*
X104327027Y-115632635D01*
X104499165Y-115517616D01*
X104499167Y-115517615D01*
X104690436Y-115438389D01*
X104893484Y-115398000D01*
X105100516Y-115398000D01*
X105303564Y-115438389D01*
G37*
G36*
X95303564Y-115438389D02*
G01*
X95494833Y-115517615D01*
X95494835Y-115517616D01*
X95666973Y-115632635D01*
X95813365Y-115779027D01*
X95922551Y-115942435D01*
X95928385Y-115951167D01*
X96007611Y-116142436D01*
X96048000Y-116345484D01*
X96048000Y-116552516D01*
X96007611Y-116755564D01*
X95939925Y-116918973D01*
X95928384Y-116946835D01*
X95813365Y-117118973D01*
X95666973Y-117265365D01*
X95494835Y-117380384D01*
X95494834Y-117380385D01*
X95494833Y-117380385D01*
X95303564Y-117459611D01*
X95100516Y-117500000D01*
X94893484Y-117500000D01*
X94690436Y-117459611D01*
X94499167Y-117380385D01*
X94499166Y-117380385D01*
X94499165Y-117380384D01*
X94327027Y-117265365D01*
X94180635Y-117118973D01*
X94065616Y-116946835D01*
X94054075Y-116918973D01*
X93986389Y-116755564D01*
X93946000Y-116552516D01*
X93946000Y-116345484D01*
X93986389Y-116142436D01*
X94065615Y-115951167D01*
X94071450Y-115942435D01*
X94180635Y-115779027D01*
X94327027Y-115632635D01*
X94499165Y-115517616D01*
X94499167Y-115517615D01*
X94690436Y-115438389D01*
X94893484Y-115398000D01*
X95100516Y-115398000D01*
X95303564Y-115438389D01*
G37*
G36*
X118303564Y-115238389D02*
G01*
X118494833Y-115317615D01*
X118494835Y-115317616D01*
X118557683Y-115359610D01*
X118666973Y-115432635D01*
X118813365Y-115579027D01*
X118928385Y-115751167D01*
X119007611Y-115942436D01*
X119048000Y-116145484D01*
X119048000Y-116352516D01*
X119007611Y-116555564D01*
X118928385Y-116746833D01*
X118928384Y-116746835D01*
X118813365Y-116918973D01*
X118666973Y-117065365D01*
X118494835Y-117180384D01*
X118494834Y-117180385D01*
X118494833Y-117180385D01*
X118303564Y-117259611D01*
X118100516Y-117300000D01*
X117893484Y-117300000D01*
X117690436Y-117259611D01*
X117499167Y-117180385D01*
X117499166Y-117180385D01*
X117499165Y-117180384D01*
X117327027Y-117065365D01*
X117180635Y-116918973D01*
X117065616Y-116746835D01*
X117065615Y-116746833D01*
X116986389Y-116555564D01*
X116946000Y-116352516D01*
X116946000Y-116145484D01*
X116986389Y-115942436D01*
X117065615Y-115751167D01*
X117180635Y-115579027D01*
X117327027Y-115432635D01*
X117436317Y-115359610D01*
X117499165Y-115317616D01*
X117499167Y-115317615D01*
X117690436Y-115238389D01*
X117893484Y-115198000D01*
X118100516Y-115198000D01*
X118303564Y-115238389D01*
G37*
G36*
X141498000Y-117200000D02*
G01*
X139796000Y-117200000D01*
X139796000Y-116248000D01*
X141498000Y-116248000D01*
X141498000Y-117200000D01*
G37*
G36*
X137998000Y-117200000D02*
G01*
X136296000Y-117200000D01*
X136296000Y-116248000D01*
X137998000Y-116248000D01*
X137998000Y-117200000D01*
G37*
G36*
X59803564Y-113938389D02*
G01*
X59994833Y-114017615D01*
X59994835Y-114017616D01*
X60166973Y-114132635D01*
X60313365Y-114279027D01*
X60428385Y-114451167D01*
X60507611Y-114642436D01*
X60548000Y-114845484D01*
X60548000Y-115052516D01*
X60507611Y-115255564D01*
X60431882Y-115438390D01*
X60428384Y-115446835D01*
X60313365Y-115618973D01*
X60166973Y-115765365D01*
X59994835Y-115880384D01*
X59994834Y-115880385D01*
X59994833Y-115880385D01*
X59803564Y-115959611D01*
X59600516Y-116000000D01*
X59393484Y-116000000D01*
X59190436Y-115959611D01*
X58999167Y-115880385D01*
X58999166Y-115880385D01*
X58999165Y-115880384D01*
X58827027Y-115765365D01*
X58680635Y-115618973D01*
X58565616Y-115446835D01*
X58562118Y-115438390D01*
X58486389Y-115255564D01*
X58446000Y-115052516D01*
X58446000Y-114845484D01*
X58486389Y-114642436D01*
X58565615Y-114451167D01*
X58680635Y-114279027D01*
X58827027Y-114132635D01*
X58999165Y-114017616D01*
X58999167Y-114017615D01*
X59190436Y-113938389D01*
X59393484Y-113898000D01*
X59600516Y-113898000D01*
X59803564Y-113938389D01*
G37*
G36*
X49803564Y-113938389D02*
G01*
X49994833Y-114017615D01*
X49994835Y-114017616D01*
X50166973Y-114132635D01*
X50313365Y-114279027D01*
X50428385Y-114451167D01*
X50507611Y-114642436D01*
X50548000Y-114845484D01*
X50548000Y-115052516D01*
X50507611Y-115255564D01*
X50431882Y-115438390D01*
X50428384Y-115446835D01*
X50313365Y-115618973D01*
X50166973Y-115765365D01*
X49994835Y-115880384D01*
X49994834Y-115880385D01*
X49994833Y-115880385D01*
X49803564Y-115959611D01*
X49600516Y-116000000D01*
X49393484Y-116000000D01*
X49190436Y-115959611D01*
X48999167Y-115880385D01*
X48999166Y-115880385D01*
X48999165Y-115880384D01*
X48827027Y-115765365D01*
X48680635Y-115618973D01*
X48565616Y-115446835D01*
X48562118Y-115438390D01*
X48486389Y-115255564D01*
X48446000Y-115052516D01*
X48446000Y-114845484D01*
X48486389Y-114642436D01*
X48565615Y-114451167D01*
X48680635Y-114279027D01*
X48827027Y-114132635D01*
X48999165Y-114017616D01*
X48999167Y-114017615D01*
X49190436Y-113938389D01*
X49393484Y-113898000D01*
X49600516Y-113898000D01*
X49803564Y-113938389D01*
G37*
G36*
X141498000Y-115450000D02*
G01*
X139796000Y-115450000D01*
X139796000Y-114498000D01*
X141498000Y-114498000D01*
X141498000Y-115450000D01*
G37*
G36*
X137998000Y-115450000D02*
G01*
X136296000Y-115450000D01*
X136296000Y-114498000D01*
X137998000Y-114498000D01*
X137998000Y-115450000D01*
G37*
G36*
X100303564Y-113338389D02*
G01*
X100494833Y-113417615D01*
X100494835Y-113417616D01*
X100666973Y-113532635D01*
X100813365Y-113679027D01*
X100881090Y-113780384D01*
X100928385Y-113851167D01*
X101007611Y-114042436D01*
X101048000Y-114245484D01*
X101048000Y-114452516D01*
X101007611Y-114655564D01*
X100928944Y-114845484D01*
X100928384Y-114846835D01*
X100813365Y-115018973D01*
X100666973Y-115165365D01*
X100494835Y-115280384D01*
X100494834Y-115280385D01*
X100494833Y-115280385D01*
X100303564Y-115359611D01*
X100100516Y-115400000D01*
X99893484Y-115400000D01*
X99690436Y-115359611D01*
X99499167Y-115280385D01*
X99499166Y-115280385D01*
X99499165Y-115280384D01*
X99327027Y-115165365D01*
X99180635Y-115018973D01*
X99065616Y-114846835D01*
X99065056Y-114845484D01*
X98986389Y-114655564D01*
X98946000Y-114452516D01*
X98946000Y-114245484D01*
X98986389Y-114042436D01*
X99065615Y-113851167D01*
X99112911Y-113780384D01*
X99180635Y-113679027D01*
X99327027Y-113532635D01*
X99499165Y-113417616D01*
X99499167Y-113417615D01*
X99690436Y-113338389D01*
X99893484Y-113298000D01*
X100100516Y-113298000D01*
X100303564Y-113338389D01*
G37*
G36*
X54803564Y-111838389D02*
G01*
X54994833Y-111917615D01*
X54994835Y-111917616D01*
X55166973Y-112032635D01*
X55313365Y-112179027D01*
X55355311Y-112241803D01*
X55428385Y-112351167D01*
X55507611Y-112542436D01*
X55548000Y-112745484D01*
X55548000Y-112952516D01*
X55507611Y-113155564D01*
X55431882Y-113338390D01*
X55428384Y-113346835D01*
X55313365Y-113518973D01*
X55166973Y-113665365D01*
X54994835Y-113780384D01*
X54994834Y-113780385D01*
X54994833Y-113780385D01*
X54803564Y-113859611D01*
X54600516Y-113900000D01*
X54393484Y-113900000D01*
X54190436Y-113859611D01*
X53999167Y-113780385D01*
X53999166Y-113780385D01*
X53999165Y-113780384D01*
X53827027Y-113665365D01*
X53680635Y-113518973D01*
X53565616Y-113346835D01*
X53562118Y-113338390D01*
X53486389Y-113155564D01*
X53446000Y-112952516D01*
X53446000Y-112745484D01*
X53486389Y-112542436D01*
X53565615Y-112351167D01*
X53638690Y-112241803D01*
X53680635Y-112179027D01*
X53827027Y-112032635D01*
X53999165Y-111917616D01*
X53999167Y-111917615D01*
X54190436Y-111838389D01*
X54393484Y-111798000D01*
X54600516Y-111798000D01*
X54803564Y-111838389D01*
G37*
G36*
X140066823Y-110961313D02*
G01*
X140227242Y-111009976D01*
X140359906Y-111080886D01*
X140375078Y-111088996D01*
X140504659Y-111195341D01*
X140611004Y-111324922D01*
X140611005Y-111324924D01*
X140690024Y-111472758D01*
X140738687Y-111633178D01*
X140751000Y-111758197D01*
X140751000Y-112241804D01*
X140738687Y-112366823D01*
X140690024Y-112527242D01*
X140619114Y-112659906D01*
X140611004Y-112675078D01*
X140553223Y-112745484D01*
X140504659Y-112804659D01*
X140375077Y-112911005D01*
X140227241Y-112990024D01*
X140066822Y-113038687D01*
X139900000Y-113055117D01*
X139733177Y-113038687D01*
X139572758Y-112990024D01*
X139424924Y-112911005D01*
X139424922Y-112911004D01*
X139295341Y-112804659D01*
X139246777Y-112745484D01*
X139188995Y-112675077D01*
X139109976Y-112527241D01*
X139061313Y-112366822D01*
X139049000Y-112241803D01*
X139049000Y-111758196D01*
X139061313Y-111633177D01*
X139109976Y-111472758D01*
X139188995Y-111324924D01*
X139188996Y-111324922D01*
X139295342Y-111195341D01*
X139424923Y-111088996D01*
X139440095Y-111080886D01*
X139572759Y-111009976D01*
X139733178Y-110961313D01*
X139900000Y-110944883D01*
X140066823Y-110961313D01*
G37*
G36*
X138066822Y-110961313D02*
G01*
X138227241Y-111009976D01*
X138375077Y-111088995D01*
X138439423Y-111141803D01*
X138504659Y-111195341D01*
X138611004Y-111324922D01*
X138611005Y-111324924D01*
X138690024Y-111472758D01*
X138738687Y-111633177D01*
X138751000Y-111758196D01*
X138751000Y-112241803D01*
X138738687Y-112366822D01*
X138690024Y-112527242D01*
X138619114Y-112659906D01*
X138611004Y-112675078D01*
X138504659Y-112804659D01*
X138375078Y-112911004D01*
X138375076Y-112911005D01*
X138227242Y-112990024D01*
X138066823Y-113038687D01*
X137900000Y-113055117D01*
X137733178Y-113038687D01*
X137572759Y-112990024D01*
X137424925Y-112911005D01*
X137424923Y-112911004D01*
X137295342Y-112804659D01*
X137188996Y-112675078D01*
X137180886Y-112659906D01*
X137109976Y-112527242D01*
X137061313Y-112366823D01*
X137049000Y-112241804D01*
X137049000Y-111758197D01*
X137061313Y-111633178D01*
X137109976Y-111472759D01*
X137188995Y-111324923D01*
X137295341Y-111195341D01*
X137360582Y-111141799D01*
X137424922Y-111088996D01*
X137440094Y-111080886D01*
X137572758Y-111009976D01*
X137733177Y-110961313D01*
X137900000Y-110944883D01*
X138066822Y-110961313D01*
G37*
G36*
X135466823Y-109861313D02*
G01*
X135627242Y-109909976D01*
X135759906Y-109980886D01*
X135775078Y-109988996D01*
X135904659Y-110095341D01*
X136011004Y-110224922D01*
X136011005Y-110224924D01*
X136090024Y-110372758D01*
X136138687Y-110533178D01*
X136151000Y-110658197D01*
X136151000Y-111141804D01*
X136138687Y-111266823D01*
X136090024Y-111427242D01*
X136065693Y-111472762D01*
X136011004Y-111575078D01*
X135963324Y-111633176D01*
X135904659Y-111704659D01*
X135775077Y-111811005D01*
X135627241Y-111890024D01*
X135466822Y-111938687D01*
X135300000Y-111955117D01*
X135133177Y-111938687D01*
X134972758Y-111890024D01*
X134824924Y-111811005D01*
X134824922Y-111811004D01*
X134695341Y-111704659D01*
X134636677Y-111633177D01*
X134588995Y-111575077D01*
X134509976Y-111427241D01*
X134461313Y-111266822D01*
X134449000Y-111141803D01*
X134449000Y-110658196D01*
X134461313Y-110533177D01*
X134509976Y-110372758D01*
X134588995Y-110224924D01*
X134588996Y-110224922D01*
X134695342Y-110095341D01*
X134824923Y-109988996D01*
X134840095Y-109980886D01*
X134972759Y-109909976D01*
X135133178Y-109861313D01*
X135300000Y-109844883D01*
X135466823Y-109861313D01*
G37*
G36*
X142666822Y-109861313D02*
G01*
X142827241Y-109909976D01*
X142975077Y-109988995D01*
X143104659Y-110095341D01*
X143211004Y-110224922D01*
X143211005Y-110224924D01*
X143290024Y-110372758D01*
X143338687Y-110533177D01*
X143351000Y-110658196D01*
X143351000Y-111141803D01*
X143338687Y-111266822D01*
X143290024Y-111427242D01*
X143265693Y-111472762D01*
X143211004Y-111575078D01*
X143104659Y-111704659D01*
X142975078Y-111811004D01*
X142975076Y-111811005D01*
X142827242Y-111890024D01*
X142666823Y-111938687D01*
X142500000Y-111955117D01*
X142333178Y-111938687D01*
X142172759Y-111890024D01*
X142024925Y-111811005D01*
X142024923Y-111811004D01*
X141895342Y-111704659D01*
X141788996Y-111575078D01*
X141734307Y-111472762D01*
X141709976Y-111427242D01*
X141661313Y-111266823D01*
X141649000Y-111141804D01*
X141649000Y-110658197D01*
X141661313Y-110533178D01*
X141709976Y-110372759D01*
X141788995Y-110224923D01*
X141895341Y-110095341D01*
X142024922Y-109988996D01*
X142040094Y-109980886D01*
X142172758Y-109909976D01*
X142333177Y-109861313D01*
X142500000Y-109844883D01*
X142666822Y-109861313D01*
G37*
G36*
X92645228Y-108930703D02*
G01*
X92800100Y-108994853D01*
X92939481Y-109087985D01*
X93058015Y-109206519D01*
X93151147Y-109345900D01*
X93215297Y-109500772D01*
X93248000Y-109665184D01*
X93248000Y-109832816D01*
X93215297Y-109997228D01*
X93151147Y-110152100D01*
X93058015Y-110291481D01*
X92939481Y-110410015D01*
X92800100Y-110503147D01*
X92645228Y-110567297D01*
X92480816Y-110600000D01*
X92313184Y-110600000D01*
X92148772Y-110567297D01*
X91993900Y-110503147D01*
X91854519Y-110410015D01*
X91735985Y-110291481D01*
X91642853Y-110152100D01*
X91578703Y-109997228D01*
X91546000Y-109832816D01*
X91546000Y-109665184D01*
X91578703Y-109500772D01*
X91642853Y-109345900D01*
X91735985Y-109206519D01*
X91854519Y-109087985D01*
X91993900Y-108994853D01*
X92148772Y-108930703D01*
X92313184Y-108898000D01*
X92480816Y-108898000D01*
X92645228Y-108930703D01*
G37*
G36*
X85025228Y-108930703D02*
G01*
X85180100Y-108994853D01*
X85319481Y-109087985D01*
X85438015Y-109206519D01*
X85531147Y-109345900D01*
X85595297Y-109500772D01*
X85628000Y-109665184D01*
X85628000Y-109832816D01*
X85595297Y-109997228D01*
X85531147Y-110152100D01*
X85438015Y-110291481D01*
X85319481Y-110410015D01*
X85180100Y-110503147D01*
X85025228Y-110567297D01*
X84860816Y-110600000D01*
X84693184Y-110600000D01*
X84528772Y-110567297D01*
X84373900Y-110503147D01*
X84234519Y-110410015D01*
X84115985Y-110291481D01*
X84022853Y-110152100D01*
X83958703Y-109997228D01*
X83926000Y-109832816D01*
X83926000Y-109665184D01*
X83958703Y-109500772D01*
X84022853Y-109345900D01*
X84115985Y-109206519D01*
X84234519Y-109087985D01*
X84373900Y-108994853D01*
X84528772Y-108930703D01*
X84693184Y-108898000D01*
X84860816Y-108898000D01*
X85025228Y-108930703D01*
G37*
G36*
X140331552Y-108866331D02*
G01*
X140413627Y-108900328D01*
X140413629Y-108900329D01*
X140450813Y-108925175D01*
X140487495Y-108949685D01*
X140550315Y-109012505D01*
X140599672Y-109086373D01*
X140633669Y-109168448D01*
X140651000Y-109255579D01*
X140651000Y-109344421D01*
X140633669Y-109431552D01*
X140599672Y-109513627D01*
X140599671Y-109513629D01*
X140550314Y-109587496D01*
X140487496Y-109650314D01*
X140413629Y-109699671D01*
X140413628Y-109699672D01*
X140413627Y-109699672D01*
X140331552Y-109733669D01*
X140244421Y-109751000D01*
X140155579Y-109751000D01*
X140068448Y-109733669D01*
X139986373Y-109699672D01*
X139986372Y-109699672D01*
X139986371Y-109699671D01*
X139912504Y-109650314D01*
X139849686Y-109587496D01*
X139800329Y-109513629D01*
X139800328Y-109513627D01*
X139766331Y-109431552D01*
X139749000Y-109344421D01*
X139749000Y-109255579D01*
X139766331Y-109168448D01*
X139800328Y-109086373D01*
X139849685Y-109012505D01*
X139912505Y-108949685D01*
X139949187Y-108925175D01*
X139986371Y-108900329D01*
X139986373Y-108900328D01*
X140068448Y-108866331D01*
X140155579Y-108849000D01*
X140244421Y-108849000D01*
X140331552Y-108866331D01*
G37*
G36*
X137731552Y-108866331D02*
G01*
X137813627Y-108900328D01*
X137813629Y-108900329D01*
X137850813Y-108925175D01*
X137887495Y-108949685D01*
X137950315Y-109012505D01*
X137999672Y-109086373D01*
X138033669Y-109168448D01*
X138051000Y-109255579D01*
X138051000Y-109344421D01*
X138033669Y-109431552D01*
X137999672Y-109513627D01*
X137999671Y-109513629D01*
X137950314Y-109587496D01*
X137887496Y-109650314D01*
X137813629Y-109699671D01*
X137813628Y-109699672D01*
X137813627Y-109699672D01*
X137731552Y-109733669D01*
X137644421Y-109751000D01*
X137555579Y-109751000D01*
X137468448Y-109733669D01*
X137386373Y-109699672D01*
X137386372Y-109699672D01*
X137386371Y-109699671D01*
X137312504Y-109650314D01*
X137249686Y-109587496D01*
X137200329Y-109513629D01*
X137200328Y-109513627D01*
X137166331Y-109431552D01*
X137149000Y-109344421D01*
X137149000Y-109255579D01*
X137166331Y-109168448D01*
X137200328Y-109086373D01*
X137249685Y-109012505D01*
X137312505Y-108949685D01*
X137349187Y-108925175D01*
X137386371Y-108900329D01*
X137386373Y-108900328D01*
X137468448Y-108866331D01*
X137555579Y-108849000D01*
X137644421Y-108849000D01*
X137731552Y-108866331D01*
G37*
G36*
X135466823Y-105861313D02*
G01*
X135627242Y-105909976D01*
X135669774Y-105932710D01*
X135775078Y-105988996D01*
X135904659Y-106095341D01*
X136011004Y-106224922D01*
X136011005Y-106224924D01*
X136090024Y-106372758D01*
X136138687Y-106533178D01*
X136151000Y-106658197D01*
X136151000Y-107141804D01*
X136138687Y-107266823D01*
X136090024Y-107427242D01*
X136049452Y-107503147D01*
X136011004Y-107575078D01*
X135904659Y-107704659D01*
X135775077Y-107811005D01*
X135627241Y-107890024D01*
X135466822Y-107938687D01*
X135300000Y-107955117D01*
X135133177Y-107938687D01*
X134972758Y-107890024D01*
X134824924Y-107811005D01*
X134824922Y-107811004D01*
X134695341Y-107704659D01*
X134588995Y-107575077D01*
X134509976Y-107427241D01*
X134504751Y-107410015D01*
X134500917Y-107397379D01*
X134461313Y-107266822D01*
X134449000Y-107141803D01*
X134449000Y-106658196D01*
X134461313Y-106533177D01*
X134509976Y-106372758D01*
X134588995Y-106224924D01*
X134588996Y-106224922D01*
X134695342Y-106095341D01*
X134824923Y-105988996D01*
X134930227Y-105932710D01*
X134972759Y-105909976D01*
X135133178Y-105861313D01*
X135300000Y-105844883D01*
X135466823Y-105861313D01*
G37*
G36*
X142666822Y-105861313D02*
G01*
X142827241Y-105909976D01*
X142975077Y-105988995D01*
X143095696Y-106087985D01*
X143104659Y-106095341D01*
X143211004Y-106224922D01*
X143211005Y-106224924D01*
X143290024Y-106372758D01*
X143338687Y-106533177D01*
X143351000Y-106658196D01*
X143351000Y-107141803D01*
X143338687Y-107266822D01*
X143290024Y-107427242D01*
X143249452Y-107503147D01*
X143211004Y-107575078D01*
X143104659Y-107704659D01*
X142975078Y-107811004D01*
X142975076Y-107811005D01*
X142827242Y-107890024D01*
X142666823Y-107938687D01*
X142500000Y-107955117D01*
X142333178Y-107938687D01*
X142172759Y-107890024D01*
X142024925Y-107811005D01*
X142024923Y-107811004D01*
X141895342Y-107704659D01*
X141788996Y-107575078D01*
X141750548Y-107503147D01*
X141709976Y-107427242D01*
X141661313Y-107266823D01*
X141649000Y-107141804D01*
X141649000Y-106658197D01*
X141661313Y-106533178D01*
X141709976Y-106372759D01*
X141788995Y-106224923D01*
X141895341Y-106095341D01*
X142011514Y-106000000D01*
X142024922Y-105988996D01*
X142130226Y-105932710D01*
X142172758Y-105909976D01*
X142333177Y-105861313D01*
X142500000Y-105844883D01*
X142666822Y-105861313D01*
G37*
G36*
X85025228Y-105930703D02*
G01*
X85180100Y-105994853D01*
X85319481Y-106087985D01*
X85438015Y-106206519D01*
X85531147Y-106345900D01*
X85595297Y-106500772D01*
X85628000Y-106665184D01*
X85628000Y-106832816D01*
X85595297Y-106997228D01*
X85531147Y-107152100D01*
X85438015Y-107291481D01*
X85319481Y-107410015D01*
X85180100Y-107503147D01*
X85025228Y-107567297D01*
X84860816Y-107600000D01*
X84693184Y-107600000D01*
X84528772Y-107567297D01*
X84373900Y-107503147D01*
X84234519Y-107410015D01*
X84115985Y-107291481D01*
X84022853Y-107152100D01*
X83958703Y-106997228D01*
X83926000Y-106832816D01*
X83926000Y-106665184D01*
X83958703Y-106500772D01*
X84022853Y-106345900D01*
X84115985Y-106206519D01*
X84234519Y-106087985D01*
X84373900Y-105994853D01*
X84528772Y-105930703D01*
X84693184Y-105898000D01*
X84860816Y-105898000D01*
X85025228Y-105930703D01*
G37*
G36*
X92645228Y-105930703D02*
G01*
X92800100Y-105994853D01*
X92939481Y-106087985D01*
X93058015Y-106206519D01*
X93151147Y-106345900D01*
X93215297Y-106500772D01*
X93248000Y-106665184D01*
X93248000Y-106832816D01*
X93215297Y-106997228D01*
X93151147Y-107152100D01*
X93058015Y-107291481D01*
X92939481Y-107410015D01*
X92800100Y-107503147D01*
X92645228Y-107567297D01*
X92480816Y-107600000D01*
X92313184Y-107600000D01*
X92148772Y-107567297D01*
X91993900Y-107503147D01*
X91854519Y-107410015D01*
X91735985Y-107291481D01*
X91642853Y-107152100D01*
X91578703Y-106997228D01*
X91546000Y-106832816D01*
X91546000Y-106665184D01*
X91578703Y-106500772D01*
X91642853Y-106345900D01*
X91735985Y-106206519D01*
X91854519Y-106087985D01*
X91993900Y-105994853D01*
X92148772Y-105930703D01*
X92313184Y-105898000D01*
X92480816Y-105898000D01*
X92645228Y-105930703D01*
G37*
G36*
X125894985Y-102542860D02*
G01*
X126007748Y-102565290D01*
X126113490Y-102609090D01*
X126326408Y-102697283D01*
X126613196Y-102888909D01*
X126857091Y-103132804D01*
X127048717Y-103419592D01*
X127126037Y-103606259D01*
X127147550Y-103658196D01*
X127180710Y-103738253D01*
X127248000Y-104076540D01*
X127248000Y-104421460D01*
X127217444Y-104575076D01*
X127180710Y-104759748D01*
X127154364Y-104823353D01*
X127048717Y-105078408D01*
X126857091Y-105365196D01*
X126613196Y-105609091D01*
X126326408Y-105800717D01*
X126180113Y-105861314D01*
X126007748Y-105932710D01*
X125894985Y-105955140D01*
X125669460Y-106000000D01*
X125324540Y-106000000D01*
X125099015Y-105955140D01*
X124986252Y-105932710D01*
X124813887Y-105861314D01*
X124667592Y-105800717D01*
X124380804Y-105609091D01*
X124136909Y-105365196D01*
X123945283Y-105078408D01*
X123839636Y-104823353D01*
X123813290Y-104759748D01*
X123776556Y-104575076D01*
X123746000Y-104421460D01*
X123746000Y-104076540D01*
X123813290Y-103738253D01*
X123846451Y-103658196D01*
X123867963Y-103606259D01*
X123945283Y-103419592D01*
X124136909Y-103132804D01*
X124380804Y-102888909D01*
X124667592Y-102697283D01*
X124880510Y-102609090D01*
X124986252Y-102565290D01*
X125099015Y-102542860D01*
X125324540Y-102498000D01*
X125669460Y-102498000D01*
X125894985Y-102542860D01*
G37*
G36*
X120110512Y-103352927D02*
G01*
X120259812Y-103382624D01*
X120423784Y-103450544D01*
X120571354Y-103549147D01*
X120696853Y-103674646D01*
X120795456Y-103822216D01*
X120863376Y-103986188D01*
X120898000Y-104160259D01*
X120898000Y-104337741D01*
X120863376Y-104511812D01*
X120795456Y-104675784D01*
X120696853Y-104823354D01*
X120571354Y-104948853D01*
X120423784Y-105047456D01*
X120259812Y-105115376D01*
X120110512Y-105145073D01*
X120085742Y-105150000D01*
X119908258Y-105150000D01*
X119883488Y-105145073D01*
X119734188Y-105115376D01*
X119570216Y-105047456D01*
X119422646Y-104948853D01*
X119297147Y-104823354D01*
X119198544Y-104675784D01*
X119130624Y-104511812D01*
X119096000Y-104337741D01*
X119096000Y-104160259D01*
X119130624Y-103986188D01*
X119198544Y-103822216D01*
X119297147Y-103674646D01*
X119422646Y-103549147D01*
X119570216Y-103450544D01*
X119734188Y-103382624D01*
X119883488Y-103352927D01*
X119908258Y-103348000D01*
X120085742Y-103348000D01*
X120110512Y-103352927D01*
G37*
G36*
X131110512Y-103352927D02*
G01*
X131259812Y-103382624D01*
X131423784Y-103450544D01*
X131571354Y-103549147D01*
X131696853Y-103674646D01*
X131795456Y-103822216D01*
X131863376Y-103986188D01*
X131898000Y-104160259D01*
X131898000Y-104337741D01*
X131863376Y-104511812D01*
X131795456Y-104675784D01*
X131696853Y-104823354D01*
X131571354Y-104948853D01*
X131423784Y-105047456D01*
X131259812Y-105115376D01*
X131110512Y-105145073D01*
X131085742Y-105150000D01*
X130908258Y-105150000D01*
X130883488Y-105145073D01*
X130734188Y-105115376D01*
X130570216Y-105047456D01*
X130422646Y-104948853D01*
X130297147Y-104823354D01*
X130198544Y-104675784D01*
X130130624Y-104511812D01*
X130096000Y-104337741D01*
X130096000Y-104160259D01*
X130130624Y-103986188D01*
X130198544Y-103822216D01*
X130297147Y-103674646D01*
X130422646Y-103549147D01*
X130570216Y-103450544D01*
X130734188Y-103382624D01*
X130883488Y-103352927D01*
X130908258Y-103348000D01*
X131085742Y-103348000D01*
X131110512Y-103352927D01*
G37*
G36*
X135466823Y-102861313D02*
G01*
X135627242Y-102909976D01*
X135669774Y-102932710D01*
X135775078Y-102988996D01*
X135904659Y-103095341D01*
X136011004Y-103224922D01*
X136011005Y-103224924D01*
X136090024Y-103372758D01*
X136138687Y-103533178D01*
X136151000Y-103658197D01*
X136151000Y-104141804D01*
X136138687Y-104266823D01*
X136090024Y-104427242D01*
X136044821Y-104511811D01*
X136011004Y-104575078D01*
X135928358Y-104675782D01*
X135904659Y-104704659D01*
X135775077Y-104811005D01*
X135627241Y-104890024D01*
X135466822Y-104938687D01*
X135300000Y-104955117D01*
X135133177Y-104938687D01*
X134972758Y-104890024D01*
X134824924Y-104811005D01*
X134824922Y-104811004D01*
X134695341Y-104704659D01*
X134671642Y-104675782D01*
X134588995Y-104575077D01*
X134509976Y-104427241D01*
X134461313Y-104266822D01*
X134449000Y-104141803D01*
X134449000Y-103658196D01*
X134461313Y-103533177D01*
X134509976Y-103372758D01*
X134588995Y-103224924D01*
X134588996Y-103224922D01*
X134695342Y-103095341D01*
X134824923Y-102988996D01*
X134930227Y-102932710D01*
X134972759Y-102909976D01*
X135133178Y-102861313D01*
X135300000Y-102844883D01*
X135466823Y-102861313D01*
G37*
G36*
X142666822Y-102861313D02*
G01*
X142827241Y-102909976D01*
X142975077Y-102988995D01*
X143104659Y-103095341D01*
X143211004Y-103224922D01*
X143211005Y-103224924D01*
X143290024Y-103372758D01*
X143338687Y-103533177D01*
X143351000Y-103658196D01*
X143351000Y-104141803D01*
X143338687Y-104266822D01*
X143290024Y-104427242D01*
X143244821Y-104511811D01*
X143211004Y-104575078D01*
X143104659Y-104704659D01*
X142975078Y-104811004D01*
X142975076Y-104811005D01*
X142827242Y-104890024D01*
X142666823Y-104938687D01*
X142500000Y-104955117D01*
X142333178Y-104938687D01*
X142172759Y-104890024D01*
X142024925Y-104811005D01*
X142024923Y-104811004D01*
X141895342Y-104704659D01*
X141788996Y-104575078D01*
X141755179Y-104511811D01*
X141709976Y-104427242D01*
X141661313Y-104266823D01*
X141649000Y-104141804D01*
X141649000Y-103658197D01*
X141661313Y-103533178D01*
X141709976Y-103372759D01*
X141788995Y-103224923D01*
X141895341Y-103095341D01*
X142011514Y-103000000D01*
X142024922Y-102988996D01*
X142130226Y-102932710D01*
X142172758Y-102909976D01*
X142333177Y-102861313D01*
X142500000Y-102844883D01*
X142666822Y-102861313D01*
G37*
G36*
X51894985Y-100042860D02*
G01*
X52007748Y-100065290D01*
X52139741Y-100119963D01*
X52326408Y-100197283D01*
X52613196Y-100388909D01*
X52857091Y-100632804D01*
X53048717Y-100919592D01*
X53180710Y-101238253D01*
X53248000Y-101576540D01*
X53248000Y-101921460D01*
X53209428Y-102115375D01*
X53180710Y-102259748D01*
X53145637Y-102344421D01*
X53048717Y-102578408D01*
X52857091Y-102865196D01*
X52613196Y-103109091D01*
X52326408Y-103300717D01*
X52212256Y-103348000D01*
X52007748Y-103432710D01*
X51918090Y-103450544D01*
X51669460Y-103500000D01*
X51324540Y-103500000D01*
X51075910Y-103450544D01*
X50986252Y-103432710D01*
X50781744Y-103348000D01*
X50667592Y-103300717D01*
X50380804Y-103109091D01*
X50136909Y-102865196D01*
X49945283Y-102578408D01*
X49848363Y-102344421D01*
X49813290Y-102259748D01*
X49784572Y-102115375D01*
X49746000Y-101921460D01*
X49746000Y-101576540D01*
X49813290Y-101238253D01*
X49945283Y-100919592D01*
X50136909Y-100632804D01*
X50380804Y-100388909D01*
X50667592Y-100197283D01*
X50854259Y-100119963D01*
X50986252Y-100065290D01*
X51099015Y-100042860D01*
X51324540Y-99998000D01*
X51669460Y-99998000D01*
X51894985Y-100042860D01*
G37*
G36*
X107394985Y-99542860D02*
G01*
X107507748Y-99565290D01*
X107639741Y-99619963D01*
X107826408Y-99697283D01*
X108113196Y-99888909D01*
X108357091Y-100132804D01*
X108548717Y-100419592D01*
X108626037Y-100606259D01*
X108680710Y-100738252D01*
X108684154Y-100755565D01*
X108748000Y-101076540D01*
X108748000Y-101421460D01*
X108717152Y-101576540D01*
X108680710Y-101759748D01*
X108636562Y-101866331D01*
X108548717Y-102078408D01*
X108357091Y-102365196D01*
X108113196Y-102609091D01*
X107826408Y-102800717D01*
X107639741Y-102878037D01*
X107507748Y-102932710D01*
X107394985Y-102955140D01*
X107169460Y-103000000D01*
X106824540Y-103000000D01*
X106599015Y-102955140D01*
X106486252Y-102932710D01*
X106354259Y-102878037D01*
X106167592Y-102800717D01*
X105880804Y-102609091D01*
X105636909Y-102365196D01*
X105445283Y-102078408D01*
X105357438Y-101866331D01*
X105313290Y-101759748D01*
X105276848Y-101576540D01*
X105246000Y-101421460D01*
X105246000Y-101076540D01*
X105309846Y-100755565D01*
X105313290Y-100738252D01*
X105367963Y-100606259D01*
X105445283Y-100419592D01*
X105636909Y-100132804D01*
X105880804Y-99888909D01*
X106167592Y-99697283D01*
X106354259Y-99619963D01*
X106486252Y-99565290D01*
X106599015Y-99542860D01*
X106824540Y-99498000D01*
X107169460Y-99498000D01*
X107394985Y-99542860D01*
G37*
G36*
X70394985Y-99542860D02*
G01*
X70507748Y-99565290D01*
X70639741Y-99619963D01*
X70826408Y-99697283D01*
X71113196Y-99888909D01*
X71357091Y-100132804D01*
X71548717Y-100419592D01*
X71626037Y-100606259D01*
X71680710Y-100738252D01*
X71684154Y-100755565D01*
X71748000Y-101076540D01*
X71748000Y-101421460D01*
X71717152Y-101576540D01*
X71680710Y-101759748D01*
X71636562Y-101866331D01*
X71548717Y-102078408D01*
X71357091Y-102365196D01*
X71113196Y-102609091D01*
X70826408Y-102800717D01*
X70639741Y-102878037D01*
X70507748Y-102932710D01*
X70394985Y-102955140D01*
X70169460Y-103000000D01*
X69824540Y-103000000D01*
X69599015Y-102955140D01*
X69486252Y-102932710D01*
X69354259Y-102878037D01*
X69167592Y-102800717D01*
X68880804Y-102609091D01*
X68636909Y-102365196D01*
X68445283Y-102078408D01*
X68357438Y-101866331D01*
X68313290Y-101759748D01*
X68276848Y-101576540D01*
X68246000Y-101421460D01*
X68246000Y-101076540D01*
X68309846Y-100755565D01*
X68313290Y-100738252D01*
X68367963Y-100606259D01*
X68445283Y-100419592D01*
X68636909Y-100132804D01*
X68880804Y-99888909D01*
X69167592Y-99697283D01*
X69354259Y-99619963D01*
X69486252Y-99565290D01*
X69599015Y-99542860D01*
X69824540Y-99498000D01*
X70169460Y-99498000D01*
X70394985Y-99542860D01*
G37*
G36*
X137731552Y-101866331D02*
G01*
X137813627Y-101900328D01*
X137813629Y-101900329D01*
X137845250Y-101921458D01*
X137887495Y-101949685D01*
X137950315Y-102012505D01*
X137999672Y-102086373D01*
X138033669Y-102168448D01*
X138051000Y-102255579D01*
X138051000Y-102344421D01*
X138033669Y-102431552D01*
X137999672Y-102513627D01*
X137956387Y-102578408D01*
X137950314Y-102587496D01*
X137887496Y-102650314D01*
X137813629Y-102699671D01*
X137813628Y-102699672D01*
X137813627Y-102699672D01*
X137731552Y-102733669D01*
X137644421Y-102751000D01*
X137555579Y-102751000D01*
X137468448Y-102733669D01*
X137386373Y-102699672D01*
X137386372Y-102699672D01*
X137386371Y-102699671D01*
X137312504Y-102650314D01*
X137249686Y-102587496D01*
X137243614Y-102578408D01*
X137200328Y-102513627D01*
X137166331Y-102431552D01*
X137149000Y-102344421D01*
X137149000Y-102255579D01*
X137166331Y-102168448D01*
X137200328Y-102086373D01*
X137249685Y-102012505D01*
X137312505Y-101949685D01*
X137354750Y-101921458D01*
X137386371Y-101900329D01*
X137386373Y-101900328D01*
X137468448Y-101866331D01*
X137555579Y-101849000D01*
X137644421Y-101849000D01*
X137731552Y-101866331D01*
G37*
G36*
X140331552Y-101866331D02*
G01*
X140413627Y-101900328D01*
X140413629Y-101900329D01*
X140445250Y-101921458D01*
X140487495Y-101949685D01*
X140550315Y-102012505D01*
X140599672Y-102086373D01*
X140633669Y-102168448D01*
X140651000Y-102255579D01*
X140651000Y-102344421D01*
X140633669Y-102431552D01*
X140599672Y-102513627D01*
X140556387Y-102578408D01*
X140550314Y-102587496D01*
X140487496Y-102650314D01*
X140413629Y-102699671D01*
X140413628Y-102699672D01*
X140413627Y-102699672D01*
X140331552Y-102733669D01*
X140244421Y-102751000D01*
X140155579Y-102751000D01*
X140068448Y-102733669D01*
X139986373Y-102699672D01*
X139986372Y-102699672D01*
X139986371Y-102699671D01*
X139912504Y-102650314D01*
X139849686Y-102587496D01*
X139843614Y-102578408D01*
X139800328Y-102513627D01*
X139766331Y-102431552D01*
X139749000Y-102344421D01*
X139749000Y-102255579D01*
X139766331Y-102168448D01*
X139800328Y-102086373D01*
X139849685Y-102012505D01*
X139912505Y-101949685D01*
X139954750Y-101921458D01*
X139986371Y-101900329D01*
X139986373Y-101900328D01*
X140068448Y-101866331D01*
X140155579Y-101849000D01*
X140244421Y-101849000D01*
X140331552Y-101866331D01*
G37*
G36*
X46110512Y-100852927D02*
G01*
X46259812Y-100882624D01*
X46423784Y-100950544D01*
X46571354Y-101049147D01*
X46696853Y-101174646D01*
X46795456Y-101322216D01*
X46863376Y-101486188D01*
X46898000Y-101660259D01*
X46898000Y-101837741D01*
X46863376Y-102011812D01*
X46795456Y-102175784D01*
X46696853Y-102323354D01*
X46571354Y-102448853D01*
X46423784Y-102547456D01*
X46259812Y-102615376D01*
X46110512Y-102645073D01*
X46085742Y-102650000D01*
X45908258Y-102650000D01*
X45883488Y-102645073D01*
X45734188Y-102615376D01*
X45570216Y-102547456D01*
X45422646Y-102448853D01*
X45297147Y-102323354D01*
X45198544Y-102175784D01*
X45130624Y-102011812D01*
X45096000Y-101837741D01*
X45096000Y-101660259D01*
X45130624Y-101486188D01*
X45198544Y-101322216D01*
X45297147Y-101174646D01*
X45422646Y-101049147D01*
X45570216Y-100950544D01*
X45734188Y-100882624D01*
X45883488Y-100852927D01*
X45908258Y-100848000D01*
X46085742Y-100848000D01*
X46110512Y-100852927D01*
G37*
G36*
X57110512Y-100852927D02*
G01*
X57259812Y-100882624D01*
X57423784Y-100950544D01*
X57571354Y-101049147D01*
X57696853Y-101174646D01*
X57795456Y-101322216D01*
X57863376Y-101486188D01*
X57898000Y-101660259D01*
X57898000Y-101837741D01*
X57863376Y-102011812D01*
X57795456Y-102175784D01*
X57696853Y-102323354D01*
X57571354Y-102448853D01*
X57423784Y-102547456D01*
X57259812Y-102615376D01*
X57110512Y-102645073D01*
X57085742Y-102650000D01*
X56908258Y-102650000D01*
X56883488Y-102645073D01*
X56734188Y-102615376D01*
X56570216Y-102547456D01*
X56422646Y-102448853D01*
X56297147Y-102323354D01*
X56198544Y-102175784D01*
X56130624Y-102011812D01*
X56096000Y-101837741D01*
X56096000Y-101660259D01*
X56130624Y-101486188D01*
X56198544Y-101322216D01*
X56297147Y-101174646D01*
X56422646Y-101049147D01*
X56570216Y-100950544D01*
X56734188Y-100882624D01*
X56883488Y-100852927D01*
X56908258Y-100848000D01*
X57085742Y-100848000D01*
X57110512Y-100852927D01*
G37*
G36*
X112610512Y-100352927D02*
G01*
X112759812Y-100382624D01*
X112923784Y-100450544D01*
X113071354Y-100549147D01*
X113196853Y-100674646D01*
X113295456Y-100822216D01*
X113363376Y-100986188D01*
X113398000Y-101160259D01*
X113398000Y-101337741D01*
X113363376Y-101511812D01*
X113295456Y-101675784D01*
X113196853Y-101823354D01*
X113071354Y-101948853D01*
X112923784Y-102047456D01*
X112759812Y-102115376D01*
X112610512Y-102145073D01*
X112585742Y-102150000D01*
X112408258Y-102150000D01*
X112383488Y-102145073D01*
X112234188Y-102115376D01*
X112070216Y-102047456D01*
X111922646Y-101948853D01*
X111797147Y-101823354D01*
X111698544Y-101675784D01*
X111630624Y-101511812D01*
X111596000Y-101337741D01*
X111596000Y-101160259D01*
X111630624Y-100986188D01*
X111698544Y-100822216D01*
X111797147Y-100674646D01*
X111922646Y-100549147D01*
X112070216Y-100450544D01*
X112234188Y-100382624D01*
X112383488Y-100352927D01*
X112408258Y-100348000D01*
X112585742Y-100348000D01*
X112610512Y-100352927D01*
G37*
G36*
X64610512Y-100352927D02*
G01*
X64759812Y-100382624D01*
X64923784Y-100450544D01*
X65071354Y-100549147D01*
X65196853Y-100674646D01*
X65295456Y-100822216D01*
X65363376Y-100986188D01*
X65398000Y-101160259D01*
X65398000Y-101337741D01*
X65363376Y-101511812D01*
X65295456Y-101675784D01*
X65196853Y-101823354D01*
X65071354Y-101948853D01*
X64923784Y-102047456D01*
X64759812Y-102115376D01*
X64610512Y-102145073D01*
X64585742Y-102150000D01*
X64408258Y-102150000D01*
X64383488Y-102145073D01*
X64234188Y-102115376D01*
X64070216Y-102047456D01*
X63922646Y-101948853D01*
X63797147Y-101823354D01*
X63698544Y-101675784D01*
X63630624Y-101511812D01*
X63596000Y-101337741D01*
X63596000Y-101160259D01*
X63630624Y-100986188D01*
X63698544Y-100822216D01*
X63797147Y-100674646D01*
X63922646Y-100549147D01*
X64070216Y-100450544D01*
X64234188Y-100382624D01*
X64383488Y-100352927D01*
X64408258Y-100348000D01*
X64585742Y-100348000D01*
X64610512Y-100352927D01*
G37*
G36*
X101610512Y-100352927D02*
G01*
X101759812Y-100382624D01*
X101923784Y-100450544D01*
X102071354Y-100549147D01*
X102196853Y-100674646D01*
X102295456Y-100822216D01*
X102363376Y-100986188D01*
X102398000Y-101160259D01*
X102398000Y-101337741D01*
X102363376Y-101511812D01*
X102295456Y-101675784D01*
X102196853Y-101823354D01*
X102071354Y-101948853D01*
X101923784Y-102047456D01*
X101759812Y-102115376D01*
X101610512Y-102145073D01*
X101585742Y-102150000D01*
X101408258Y-102150000D01*
X101383488Y-102145073D01*
X101234188Y-102115376D01*
X101070216Y-102047456D01*
X100922646Y-101948853D01*
X100797147Y-101823354D01*
X100698544Y-101675784D01*
X100630624Y-101511812D01*
X100596000Y-101337741D01*
X100596000Y-101160259D01*
X100630624Y-100986188D01*
X100698544Y-100822216D01*
X100797147Y-100674646D01*
X100922646Y-100549147D01*
X101070216Y-100450544D01*
X101234188Y-100382624D01*
X101383488Y-100352927D01*
X101408258Y-100348000D01*
X101585742Y-100348000D01*
X101610512Y-100352927D01*
G37*
G36*
X75610512Y-100352927D02*
G01*
X75759812Y-100382624D01*
X75923784Y-100450544D01*
X76071354Y-100549147D01*
X76196853Y-100674646D01*
X76295456Y-100822216D01*
X76363376Y-100986188D01*
X76398000Y-101160259D01*
X76398000Y-101337741D01*
X76363376Y-101511812D01*
X76295456Y-101675784D01*
X76196853Y-101823354D01*
X76071354Y-101948853D01*
X75923784Y-102047456D01*
X75759812Y-102115376D01*
X75610512Y-102145073D01*
X75585742Y-102150000D01*
X75408258Y-102150000D01*
X75383488Y-102145073D01*
X75234188Y-102115376D01*
X75070216Y-102047456D01*
X74922646Y-101948853D01*
X74797147Y-101823354D01*
X74698544Y-101675784D01*
X74630624Y-101511812D01*
X74596000Y-101337741D01*
X74596000Y-101160259D01*
X74630624Y-100986188D01*
X74698544Y-100822216D01*
X74797147Y-100674646D01*
X74922646Y-100549147D01*
X75070216Y-100450544D01*
X75234188Y-100382624D01*
X75383488Y-100352927D01*
X75408258Y-100348000D01*
X75585742Y-100348000D01*
X75610512Y-100352927D01*
G37*
G36*
X130803564Y-99438389D02*
G01*
X130994833Y-99517615D01*
X130994835Y-99517616D01*
X131166973Y-99632635D01*
X131313365Y-99779027D01*
X131386787Y-99888910D01*
X131428385Y-99951167D01*
X131507611Y-100142436D01*
X131548000Y-100345484D01*
X131548000Y-100552516D01*
X131507611Y-100755564D01*
X131428385Y-100946833D01*
X131428384Y-100946835D01*
X131313365Y-101118973D01*
X131166973Y-101265365D01*
X130994835Y-101380384D01*
X130994834Y-101380385D01*
X130994833Y-101380385D01*
X130803564Y-101459611D01*
X130600516Y-101500000D01*
X130393484Y-101500000D01*
X130190436Y-101459611D01*
X129999167Y-101380385D01*
X129999166Y-101380385D01*
X129999165Y-101380384D01*
X129827027Y-101265365D01*
X129680635Y-101118973D01*
X129565616Y-100946835D01*
X129565615Y-100946833D01*
X129486389Y-100755564D01*
X129446000Y-100552516D01*
X129446000Y-100345484D01*
X129486389Y-100142436D01*
X129565615Y-99951167D01*
X129607214Y-99888910D01*
X129680635Y-99779027D01*
X129827027Y-99632635D01*
X129999165Y-99517616D01*
X129999167Y-99517615D01*
X130190436Y-99438389D01*
X130393484Y-99398000D01*
X130600516Y-99398000D01*
X130803564Y-99438389D01*
G37*
G36*
X120803564Y-99438389D02*
G01*
X120994833Y-99517615D01*
X120994835Y-99517616D01*
X121166973Y-99632635D01*
X121313365Y-99779027D01*
X121386787Y-99888910D01*
X121428385Y-99951167D01*
X121507611Y-100142436D01*
X121548000Y-100345484D01*
X121548000Y-100552516D01*
X121507611Y-100755564D01*
X121428385Y-100946833D01*
X121428384Y-100946835D01*
X121313365Y-101118973D01*
X121166973Y-101265365D01*
X120994835Y-101380384D01*
X120994834Y-101380385D01*
X120994833Y-101380385D01*
X120803564Y-101459611D01*
X120600516Y-101500000D01*
X120393484Y-101500000D01*
X120190436Y-101459611D01*
X119999167Y-101380385D01*
X119999166Y-101380385D01*
X119999165Y-101380384D01*
X119827027Y-101265365D01*
X119680635Y-101118973D01*
X119565616Y-100946835D01*
X119565615Y-100946833D01*
X119486389Y-100755564D01*
X119446000Y-100552516D01*
X119446000Y-100345484D01*
X119486389Y-100142436D01*
X119565615Y-99951167D01*
X119607214Y-99888910D01*
X119680635Y-99779027D01*
X119827027Y-99632635D01*
X119999165Y-99517616D01*
X119999167Y-99517615D01*
X120190436Y-99438389D01*
X120393484Y-99398000D01*
X120600516Y-99398000D01*
X120803564Y-99438389D01*
G37*
G36*
X125803564Y-97338389D02*
G01*
X125994833Y-97417615D01*
X125994835Y-97417616D01*
X126166973Y-97532635D01*
X126313365Y-97679027D01*
X126394676Y-97800717D01*
X126428385Y-97851167D01*
X126507611Y-98042436D01*
X126548000Y-98245484D01*
X126548000Y-98452516D01*
X126507611Y-98655564D01*
X126462130Y-98765365D01*
X126428384Y-98846835D01*
X126313365Y-99018973D01*
X126166973Y-99165365D01*
X125994835Y-99280384D01*
X125994834Y-99280385D01*
X125994833Y-99280385D01*
X125803564Y-99359611D01*
X125600516Y-99400000D01*
X125393484Y-99400000D01*
X125190436Y-99359611D01*
X124999167Y-99280385D01*
X124999166Y-99280385D01*
X124999165Y-99280384D01*
X124827027Y-99165365D01*
X124680635Y-99018973D01*
X124565616Y-98846835D01*
X124531870Y-98765365D01*
X124486389Y-98655564D01*
X124446000Y-98452516D01*
X124446000Y-98245484D01*
X124486389Y-98042436D01*
X124565615Y-97851167D01*
X124599325Y-97800717D01*
X124680635Y-97679027D01*
X124827027Y-97532635D01*
X124999165Y-97417616D01*
X124999167Y-97417615D01*
X125190436Y-97338389D01*
X125393484Y-97298000D01*
X125600516Y-97298000D01*
X125803564Y-97338389D01*
G37*
G36*
X56803564Y-96938389D02*
G01*
X56994833Y-97017615D01*
X56994835Y-97017616D01*
X57166973Y-97132635D01*
X57313365Y-97279027D01*
X57405967Y-97417615D01*
X57428385Y-97451167D01*
X57507611Y-97642436D01*
X57548000Y-97845484D01*
X57548000Y-98052516D01*
X57507611Y-98255564D01*
X57428385Y-98446833D01*
X57428384Y-98446835D01*
X57313365Y-98618973D01*
X57166973Y-98765365D01*
X56994835Y-98880384D01*
X56994834Y-98880385D01*
X56994833Y-98880385D01*
X56803564Y-98959611D01*
X56600516Y-99000000D01*
X56393484Y-99000000D01*
X56190436Y-98959611D01*
X55999167Y-98880385D01*
X55999166Y-98880385D01*
X55999165Y-98880384D01*
X55827027Y-98765365D01*
X55680635Y-98618973D01*
X55565616Y-98446835D01*
X55565615Y-98446833D01*
X55486389Y-98255564D01*
X55446000Y-98052516D01*
X55446000Y-97845484D01*
X55486389Y-97642436D01*
X55565615Y-97451167D01*
X55588034Y-97417615D01*
X55680635Y-97279027D01*
X55827027Y-97132635D01*
X55999165Y-97017616D01*
X55999167Y-97017615D01*
X56190436Y-96938389D01*
X56393484Y-96898000D01*
X56600516Y-96898000D01*
X56803564Y-96938389D01*
G37*
G36*
X46803564Y-96938389D02*
G01*
X46994833Y-97017615D01*
X46994835Y-97017616D01*
X47166973Y-97132635D01*
X47313365Y-97279027D01*
X47405967Y-97417615D01*
X47428385Y-97451167D01*
X47507611Y-97642436D01*
X47548000Y-97845484D01*
X47548000Y-98052516D01*
X47507611Y-98255564D01*
X47428385Y-98446833D01*
X47428384Y-98446835D01*
X47313365Y-98618973D01*
X47166973Y-98765365D01*
X46994835Y-98880384D01*
X46994834Y-98880385D01*
X46994833Y-98880385D01*
X46803564Y-98959611D01*
X46600516Y-99000000D01*
X46393484Y-99000000D01*
X46190436Y-98959611D01*
X45999167Y-98880385D01*
X45999166Y-98880385D01*
X45999165Y-98880384D01*
X45827027Y-98765365D01*
X45680635Y-98618973D01*
X45565616Y-98446835D01*
X45565615Y-98446833D01*
X45486389Y-98255564D01*
X45446000Y-98052516D01*
X45446000Y-97845484D01*
X45486389Y-97642436D01*
X45565615Y-97451167D01*
X45588034Y-97417615D01*
X45680635Y-97279027D01*
X45827027Y-97132635D01*
X45999165Y-97017616D01*
X45999167Y-97017615D01*
X46190436Y-96938389D01*
X46393484Y-96898000D01*
X46600516Y-96898000D01*
X46803564Y-96938389D01*
G37*
G36*
X102303564Y-96438389D02*
G01*
X102480823Y-96511812D01*
X102494835Y-96517616D01*
X102666973Y-96632635D01*
X102813365Y-96779027D01*
X102926839Y-96948852D01*
X102928385Y-96951167D01*
X103007611Y-97142436D01*
X103048000Y-97345484D01*
X103048000Y-97552516D01*
X103007611Y-97755564D01*
X102968011Y-97851167D01*
X102928384Y-97946835D01*
X102813365Y-98118973D01*
X102666973Y-98265365D01*
X102494835Y-98380384D01*
X102494834Y-98380385D01*
X102494833Y-98380385D01*
X102303564Y-98459611D01*
X102100516Y-98500000D01*
X101893484Y-98500000D01*
X101690436Y-98459611D01*
X101499167Y-98380385D01*
X101499166Y-98380385D01*
X101499165Y-98380384D01*
X101327027Y-98265365D01*
X101180635Y-98118973D01*
X101065616Y-97946835D01*
X101025989Y-97851167D01*
X100986389Y-97755564D01*
X100946000Y-97552516D01*
X100946000Y-97345484D01*
X100986389Y-97142436D01*
X101065615Y-96951167D01*
X101067162Y-96948852D01*
X101180635Y-96779027D01*
X101327027Y-96632635D01*
X101499165Y-96517616D01*
X101513177Y-96511812D01*
X101690436Y-96438389D01*
X101893484Y-96398000D01*
X102100516Y-96398000D01*
X102303564Y-96438389D01*
G37*
G36*
X112303564Y-96438389D02*
G01*
X112480823Y-96511812D01*
X112494835Y-96517616D01*
X112666973Y-96632635D01*
X112813365Y-96779027D01*
X112926839Y-96948852D01*
X112928385Y-96951167D01*
X113007611Y-97142436D01*
X113048000Y-97345484D01*
X113048000Y-97552516D01*
X113007611Y-97755564D01*
X112968011Y-97851167D01*
X112928384Y-97946835D01*
X112813365Y-98118973D01*
X112666973Y-98265365D01*
X112494835Y-98380384D01*
X112494834Y-98380385D01*
X112494833Y-98380385D01*
X112303564Y-98459611D01*
X112100516Y-98500000D01*
X111893484Y-98500000D01*
X111690436Y-98459611D01*
X111499167Y-98380385D01*
X111499166Y-98380385D01*
X111499165Y-98380384D01*
X111327027Y-98265365D01*
X111180635Y-98118973D01*
X111065616Y-97946835D01*
X111025989Y-97851167D01*
X110986389Y-97755564D01*
X110946000Y-97552516D01*
X110946000Y-97345484D01*
X110986389Y-97142436D01*
X111065615Y-96951167D01*
X111067162Y-96948852D01*
X111180635Y-96779027D01*
X111327027Y-96632635D01*
X111499165Y-96517616D01*
X111513177Y-96511812D01*
X111690436Y-96438389D01*
X111893484Y-96398000D01*
X112100516Y-96398000D01*
X112303564Y-96438389D01*
G37*
G36*
X75303564Y-96438389D02*
G01*
X75480823Y-96511812D01*
X75494835Y-96517616D01*
X75666973Y-96632635D01*
X75813365Y-96779027D01*
X75926839Y-96948852D01*
X75928385Y-96951167D01*
X76007611Y-97142436D01*
X76048000Y-97345484D01*
X76048000Y-97552516D01*
X76007611Y-97755564D01*
X75968011Y-97851167D01*
X75928384Y-97946835D01*
X75813365Y-98118973D01*
X75666973Y-98265365D01*
X75494835Y-98380384D01*
X75494834Y-98380385D01*
X75494833Y-98380385D01*
X75303564Y-98459611D01*
X75100516Y-98500000D01*
X74893484Y-98500000D01*
X74690436Y-98459611D01*
X74499167Y-98380385D01*
X74499166Y-98380385D01*
X74499165Y-98380384D01*
X74327027Y-98265365D01*
X74180635Y-98118973D01*
X74065616Y-97946835D01*
X74025989Y-97851167D01*
X73986389Y-97755564D01*
X73946000Y-97552516D01*
X73946000Y-97345484D01*
X73986389Y-97142436D01*
X74065615Y-96951167D01*
X74067162Y-96948852D01*
X74180635Y-96779027D01*
X74327027Y-96632635D01*
X74499165Y-96517616D01*
X74513177Y-96511812D01*
X74690436Y-96438389D01*
X74893484Y-96398000D01*
X75100516Y-96398000D01*
X75303564Y-96438389D01*
G37*
G36*
X65303564Y-96438389D02*
G01*
X65480823Y-96511812D01*
X65494835Y-96517616D01*
X65666973Y-96632635D01*
X65813365Y-96779027D01*
X65926839Y-96948852D01*
X65928385Y-96951167D01*
X66007611Y-97142436D01*
X66048000Y-97345484D01*
X66048000Y-97552516D01*
X66007611Y-97755564D01*
X65968011Y-97851167D01*
X65928384Y-97946835D01*
X65813365Y-98118973D01*
X65666973Y-98265365D01*
X65494835Y-98380384D01*
X65494834Y-98380385D01*
X65494833Y-98380385D01*
X65303564Y-98459611D01*
X65100516Y-98500000D01*
X64893484Y-98500000D01*
X64690436Y-98459611D01*
X64499167Y-98380385D01*
X64499166Y-98380385D01*
X64499165Y-98380384D01*
X64327027Y-98265365D01*
X64180635Y-98118973D01*
X64065616Y-97946835D01*
X64025989Y-97851167D01*
X63986389Y-97755564D01*
X63946000Y-97552516D01*
X63946000Y-97345484D01*
X63986389Y-97142436D01*
X64065615Y-96951167D01*
X64067162Y-96948852D01*
X64180635Y-96779027D01*
X64327027Y-96632635D01*
X64499165Y-96517616D01*
X64513177Y-96511812D01*
X64690436Y-96438389D01*
X64893484Y-96398000D01*
X65100516Y-96398000D01*
X65303564Y-96438389D01*
G37*
G36*
X88894985Y-94542860D02*
G01*
X89007748Y-94565290D01*
X89139741Y-94619963D01*
X89326408Y-94697283D01*
X89613196Y-94888909D01*
X89857091Y-95132804D01*
X90048717Y-95419592D01*
X90126037Y-95606259D01*
X90180710Y-95738252D01*
X90182149Y-95745486D01*
X90248000Y-96076540D01*
X90248000Y-96421460D01*
X90180710Y-96759747D01*
X90048717Y-97078408D01*
X89857091Y-97365196D01*
X89613196Y-97609091D01*
X89326408Y-97800717D01*
X89218330Y-97845484D01*
X89007748Y-97932710D01*
X88894985Y-97955140D01*
X88669460Y-98000000D01*
X88324540Y-98000000D01*
X88099015Y-97955140D01*
X87986252Y-97932710D01*
X87775670Y-97845484D01*
X87667592Y-97800717D01*
X87380804Y-97609091D01*
X87136909Y-97365196D01*
X86945283Y-97078408D01*
X86813290Y-96759747D01*
X86746000Y-96421460D01*
X86746000Y-96076540D01*
X86811851Y-95745486D01*
X86813290Y-95738252D01*
X86867963Y-95606259D01*
X86945283Y-95419592D01*
X87136909Y-95132804D01*
X87380804Y-94888909D01*
X87667592Y-94697283D01*
X87854259Y-94619963D01*
X87986252Y-94565290D01*
X88099015Y-94542860D01*
X88324540Y-94498000D01*
X88669460Y-94498000D01*
X88894985Y-94542860D01*
G37*
G36*
X94101653Y-95351165D02*
G01*
X94259812Y-95382624D01*
X94423784Y-95450544D01*
X94571354Y-95549147D01*
X94696853Y-95674646D01*
X94795456Y-95822216D01*
X94863376Y-95986188D01*
X94898000Y-96160259D01*
X94898000Y-96337741D01*
X94863376Y-96511812D01*
X94795456Y-96675784D01*
X94696853Y-96823354D01*
X94571354Y-96948853D01*
X94423784Y-97047456D01*
X94259812Y-97115376D01*
X94110512Y-97145073D01*
X94085742Y-97150000D01*
X93908258Y-97150000D01*
X93883488Y-97145073D01*
X93734188Y-97115376D01*
X93570216Y-97047456D01*
X93422646Y-96948853D01*
X93297147Y-96823354D01*
X93198544Y-96675784D01*
X93130624Y-96511812D01*
X93096000Y-96337741D01*
X93096000Y-96160259D01*
X93130624Y-95986188D01*
X93198544Y-95822216D01*
X93297147Y-95674646D01*
X93422646Y-95549147D01*
X93570216Y-95450544D01*
X93734188Y-95382624D01*
X93892347Y-95351165D01*
X93908258Y-95348000D01*
X94085742Y-95348000D01*
X94101653Y-95351165D01*
G37*
G36*
X83101653Y-95351165D02*
G01*
X83259812Y-95382624D01*
X83423784Y-95450544D01*
X83571354Y-95549147D01*
X83696853Y-95674646D01*
X83795456Y-95822216D01*
X83863376Y-95986188D01*
X83898000Y-96160259D01*
X83898000Y-96337741D01*
X83863376Y-96511812D01*
X83795456Y-96675784D01*
X83696853Y-96823354D01*
X83571354Y-96948853D01*
X83423784Y-97047456D01*
X83259812Y-97115376D01*
X83110512Y-97145073D01*
X83085742Y-97150000D01*
X82908258Y-97150000D01*
X82883488Y-97145073D01*
X82734188Y-97115376D01*
X82570216Y-97047456D01*
X82422646Y-96948853D01*
X82297147Y-96823354D01*
X82198544Y-96675784D01*
X82130624Y-96511812D01*
X82096000Y-96337741D01*
X82096000Y-96160259D01*
X82130624Y-95986188D01*
X82198544Y-95822216D01*
X82297147Y-95674646D01*
X82422646Y-95549147D01*
X82570216Y-95450544D01*
X82734188Y-95382624D01*
X82892347Y-95351165D01*
X82908258Y-95348000D01*
X83085742Y-95348000D01*
X83101653Y-95351165D01*
G37*
G36*
X51803564Y-94838389D02*
G01*
X51994833Y-94917615D01*
X51994835Y-94917616D01*
X52166973Y-95032635D01*
X52313365Y-95179027D01*
X52357772Y-95245486D01*
X52428385Y-95351167D01*
X52507611Y-95542436D01*
X52548000Y-95745484D01*
X52548000Y-95952516D01*
X52507611Y-96155564D01*
X52428385Y-96346833D01*
X52428384Y-96346835D01*
X52313365Y-96518973D01*
X52166973Y-96665365D01*
X51994835Y-96780384D01*
X51994834Y-96780385D01*
X51994833Y-96780385D01*
X51803564Y-96859611D01*
X51600516Y-96900000D01*
X51393484Y-96900000D01*
X51190436Y-96859611D01*
X50999167Y-96780385D01*
X50999166Y-96780385D01*
X50999165Y-96780384D01*
X50827027Y-96665365D01*
X50680635Y-96518973D01*
X50565616Y-96346835D01*
X50565615Y-96346833D01*
X50486389Y-96155564D01*
X50446000Y-95952516D01*
X50446000Y-95745484D01*
X50486389Y-95542436D01*
X50565615Y-95351167D01*
X50636229Y-95245486D01*
X50680635Y-95179027D01*
X50827027Y-95032635D01*
X50999165Y-94917616D01*
X50999167Y-94917615D01*
X51190436Y-94838389D01*
X51393484Y-94798000D01*
X51600516Y-94798000D01*
X51803564Y-94838389D01*
G37*
G36*
X107303564Y-94338389D02*
G01*
X107494833Y-94417615D01*
X107494835Y-94417616D01*
X107615138Y-94498000D01*
X107666973Y-94532635D01*
X107813365Y-94679027D01*
X107928385Y-94851167D01*
X108007611Y-95042436D01*
X108048000Y-95245484D01*
X108048000Y-95452516D01*
X108007611Y-95655564D01*
X107938581Y-95822218D01*
X107928384Y-95846835D01*
X107813365Y-96018973D01*
X107666973Y-96165365D01*
X107494835Y-96280384D01*
X107494834Y-96280385D01*
X107494833Y-96280385D01*
X107303564Y-96359611D01*
X107100516Y-96400000D01*
X106893484Y-96400000D01*
X106690436Y-96359611D01*
X106499167Y-96280385D01*
X106499166Y-96280385D01*
X106499165Y-96280384D01*
X106327027Y-96165365D01*
X106180635Y-96018973D01*
X106065616Y-95846835D01*
X106055419Y-95822218D01*
X105986389Y-95655564D01*
X105946000Y-95452516D01*
X105946000Y-95245484D01*
X105986389Y-95042436D01*
X106065615Y-94851167D01*
X106180635Y-94679027D01*
X106327027Y-94532635D01*
X106378862Y-94498000D01*
X106499165Y-94417616D01*
X106499167Y-94417615D01*
X106690436Y-94338389D01*
X106893484Y-94298000D01*
X107100516Y-94298000D01*
X107303564Y-94338389D01*
G37*
G36*
X70303564Y-94338389D02*
G01*
X70494833Y-94417615D01*
X70494835Y-94417616D01*
X70615138Y-94498000D01*
X70666973Y-94532635D01*
X70813365Y-94679027D01*
X70928385Y-94851167D01*
X71007611Y-95042436D01*
X71048000Y-95245484D01*
X71048000Y-95452516D01*
X71007611Y-95655564D01*
X70938581Y-95822218D01*
X70928384Y-95846835D01*
X70813365Y-96018973D01*
X70666973Y-96165365D01*
X70494835Y-96280384D01*
X70494834Y-96280385D01*
X70494833Y-96280385D01*
X70303564Y-96359611D01*
X70100516Y-96400000D01*
X69893484Y-96400000D01*
X69690436Y-96359611D01*
X69499167Y-96280385D01*
X69499166Y-96280385D01*
X69499165Y-96280384D01*
X69327027Y-96165365D01*
X69180635Y-96018973D01*
X69065616Y-95846835D01*
X69055419Y-95822218D01*
X68986389Y-95655564D01*
X68946000Y-95452516D01*
X68946000Y-95245484D01*
X68986389Y-95042436D01*
X69065615Y-94851167D01*
X69180635Y-94679027D01*
X69327027Y-94532635D01*
X69378862Y-94498000D01*
X69499165Y-94417616D01*
X69499167Y-94417615D01*
X69690436Y-94338389D01*
X69893484Y-94298000D01*
X70100516Y-94298000D01*
X70303564Y-94338389D01*
G37*
G36*
X83803564Y-91438389D02*
G01*
X83994833Y-91517615D01*
X83994835Y-91517616D01*
X84166973Y-91632635D01*
X84313365Y-91779027D01*
X84428385Y-91951167D01*
X84507611Y-92142436D01*
X84548000Y-92345484D01*
X84548000Y-92552516D01*
X84507611Y-92755564D01*
X84428385Y-92946833D01*
X84428384Y-92946835D01*
X84313365Y-93118973D01*
X84166973Y-93265365D01*
X83994835Y-93380384D01*
X83994834Y-93380385D01*
X83994833Y-93380385D01*
X83803564Y-93459611D01*
X83600516Y-93500000D01*
X83393484Y-93500000D01*
X83190436Y-93459611D01*
X82999167Y-93380385D01*
X82999166Y-93380385D01*
X82999165Y-93380384D01*
X82827027Y-93265365D01*
X82680635Y-93118973D01*
X82565616Y-92946835D01*
X82565615Y-92946833D01*
X82486389Y-92755564D01*
X82446000Y-92552516D01*
X82446000Y-92345484D01*
X82486389Y-92142436D01*
X82565615Y-91951167D01*
X82680635Y-91779027D01*
X82827027Y-91632635D01*
X82999165Y-91517616D01*
X82999167Y-91517615D01*
X83190436Y-91438389D01*
X83393484Y-91398000D01*
X83600516Y-91398000D01*
X83803564Y-91438389D01*
G37*
G36*
X93803564Y-91438389D02*
G01*
X93994833Y-91517615D01*
X93994835Y-91517616D01*
X94166973Y-91632635D01*
X94313365Y-91779027D01*
X94428385Y-91951167D01*
X94507611Y-92142436D01*
X94548000Y-92345484D01*
X94548000Y-92552516D01*
X94507611Y-92755564D01*
X94428385Y-92946833D01*
X94428384Y-92946835D01*
X94313365Y-93118973D01*
X94166973Y-93265365D01*
X93994835Y-93380384D01*
X93994834Y-93380385D01*
X93994833Y-93380385D01*
X93803564Y-93459611D01*
X93600516Y-93500000D01*
X93393484Y-93500000D01*
X93190436Y-93459611D01*
X92999167Y-93380385D01*
X92999166Y-93380385D01*
X92999165Y-93380384D01*
X92827027Y-93265365D01*
X92680635Y-93118973D01*
X92565616Y-92946835D01*
X92565615Y-92946833D01*
X92486389Y-92755564D01*
X92446000Y-92552516D01*
X92446000Y-92345484D01*
X92486389Y-92142436D01*
X92565615Y-91951167D01*
X92680635Y-91779027D01*
X92827027Y-91632635D01*
X92999165Y-91517616D01*
X92999167Y-91517615D01*
X93190436Y-91438389D01*
X93393484Y-91398000D01*
X93600516Y-91398000D01*
X93803564Y-91438389D01*
G37*
G36*
X88803564Y-89338389D02*
G01*
X88994833Y-89417615D01*
X88994835Y-89417616D01*
X89166973Y-89532635D01*
X89313365Y-89679027D01*
X89428385Y-89851167D01*
X89507611Y-90042436D01*
X89548000Y-90245484D01*
X89548000Y-90452516D01*
X89507611Y-90655564D01*
X89428385Y-90846833D01*
X89428384Y-90846835D01*
X89313365Y-91018973D01*
X89166973Y-91165365D01*
X88994835Y-91280384D01*
X88994834Y-91280385D01*
X88994833Y-91280385D01*
X88803564Y-91359611D01*
X88600516Y-91400000D01*
X88393484Y-91400000D01*
X88190436Y-91359611D01*
X87999167Y-91280385D01*
X87999166Y-91280385D01*
X87999165Y-91280384D01*
X87827027Y-91165365D01*
X87680635Y-91018973D01*
X87565616Y-90846835D01*
X87565615Y-90846833D01*
X87486389Y-90655564D01*
X87446000Y-90452516D01*
X87446000Y-90245484D01*
X87486389Y-90042436D01*
X87565615Y-89851167D01*
X87680635Y-89679027D01*
X87827027Y-89532635D01*
X87999165Y-89417616D01*
X87999167Y-89417615D01*
X88190436Y-89338389D01*
X88393484Y-89298000D01*
X88600516Y-89298000D01*
X88803564Y-89338389D01*
G37*
G36*
X125894985Y-85542860D02*
G01*
X126007748Y-85565290D01*
X126113490Y-85609090D01*
X126326408Y-85697283D01*
X126613196Y-85888909D01*
X126857091Y-86132804D01*
X127048717Y-86419592D01*
X127180710Y-86738253D01*
X127248000Y-87076540D01*
X127248000Y-87421460D01*
X127180710Y-87759747D01*
X127048717Y-88078408D01*
X126857091Y-88365196D01*
X126613196Y-88609091D01*
X126326408Y-88800717D01*
X126139741Y-88878037D01*
X126007748Y-88932710D01*
X125894985Y-88955140D01*
X125669460Y-89000000D01*
X125324540Y-89000000D01*
X125099015Y-88955140D01*
X124986252Y-88932710D01*
X124854259Y-88878037D01*
X124667592Y-88800717D01*
X124380804Y-88609091D01*
X124136909Y-88365196D01*
X123945283Y-88078408D01*
X123813290Y-87759747D01*
X123746000Y-87421460D01*
X123746000Y-87076540D01*
X123813290Y-86738253D01*
X123945283Y-86419592D01*
X124136909Y-86132804D01*
X124380804Y-85888909D01*
X124667592Y-85697283D01*
X124880510Y-85609090D01*
X124986252Y-85565290D01*
X125099015Y-85542860D01*
X125324540Y-85498000D01*
X125669460Y-85498000D01*
X125894985Y-85542860D01*
G37*
G36*
X131110512Y-86352927D02*
G01*
X131259812Y-86382624D01*
X131423784Y-86450544D01*
X131571354Y-86549147D01*
X131696853Y-86674646D01*
X131795456Y-86822216D01*
X131863376Y-86986188D01*
X131898000Y-87160259D01*
X131898000Y-87337741D01*
X131863376Y-87511812D01*
X131795456Y-87675784D01*
X131696853Y-87823354D01*
X131571354Y-87948853D01*
X131423784Y-88047456D01*
X131259812Y-88115376D01*
X131110512Y-88145073D01*
X131085742Y-88150000D01*
X130908258Y-88150000D01*
X130883488Y-88145073D01*
X130734188Y-88115376D01*
X130570216Y-88047456D01*
X130422646Y-87948853D01*
X130297147Y-87823354D01*
X130198544Y-87675784D01*
X130130624Y-87511812D01*
X130096000Y-87337741D01*
X130096000Y-87160259D01*
X130130624Y-86986188D01*
X130198544Y-86822216D01*
X130297147Y-86674646D01*
X130422646Y-86549147D01*
X130570216Y-86450544D01*
X130734188Y-86382624D01*
X130883488Y-86352927D01*
X130908258Y-86348000D01*
X131085742Y-86348000D01*
X131110512Y-86352927D01*
G37*
G36*
X120110512Y-86352927D02*
G01*
X120259812Y-86382624D01*
X120423784Y-86450544D01*
X120571354Y-86549147D01*
X120696853Y-86674646D01*
X120795456Y-86822216D01*
X120863376Y-86986188D01*
X120898000Y-87160259D01*
X120898000Y-87337741D01*
X120863376Y-87511812D01*
X120795456Y-87675784D01*
X120696853Y-87823354D01*
X120571354Y-87948853D01*
X120423784Y-88047456D01*
X120259812Y-88115376D01*
X120110512Y-88145073D01*
X120085742Y-88150000D01*
X119908258Y-88150000D01*
X119883488Y-88145073D01*
X119734188Y-88115376D01*
X119570216Y-88047456D01*
X119422646Y-87948853D01*
X119297147Y-87823354D01*
X119198544Y-87675784D01*
X119130624Y-87511812D01*
X119096000Y-87337741D01*
X119096000Y-87160259D01*
X119130624Y-86986188D01*
X119198544Y-86822216D01*
X119297147Y-86674646D01*
X119422646Y-86549147D01*
X119570216Y-86450544D01*
X119734188Y-86382624D01*
X119883488Y-86352927D01*
X119908258Y-86348000D01*
X120085742Y-86348000D01*
X120110512Y-86352927D01*
G37*
G36*
X51894985Y-83042860D02*
G01*
X52007748Y-83065290D01*
X52139741Y-83119963D01*
X52326408Y-83197283D01*
X52613196Y-83388909D01*
X52857091Y-83632804D01*
X53048717Y-83919592D01*
X53180710Y-84238253D01*
X53248000Y-84576540D01*
X53248000Y-84921460D01*
X53180710Y-85259747D01*
X53048717Y-85578408D01*
X52857091Y-85865196D01*
X52613196Y-86109091D01*
X52326408Y-86300717D01*
X52212256Y-86348000D01*
X52007748Y-86432710D01*
X51918090Y-86450544D01*
X51669460Y-86500000D01*
X51324540Y-86500000D01*
X51075910Y-86450544D01*
X50986252Y-86432710D01*
X50781744Y-86348000D01*
X50667592Y-86300717D01*
X50380804Y-86109091D01*
X50136909Y-85865196D01*
X49945283Y-85578408D01*
X49813290Y-85259747D01*
X49746000Y-84921460D01*
X49746000Y-84576540D01*
X49813290Y-84238253D01*
X49945283Y-83919592D01*
X50136909Y-83632804D01*
X50380804Y-83388909D01*
X50667592Y-83197283D01*
X50854259Y-83119963D01*
X50986252Y-83065290D01*
X51099015Y-83042860D01*
X51324540Y-82998000D01*
X51669460Y-82998000D01*
X51894985Y-83042860D01*
G37*
G36*
X70394985Y-82542860D02*
G01*
X70507748Y-82565290D01*
X70639741Y-82619963D01*
X70826408Y-82697283D01*
X71113196Y-82888909D01*
X71357091Y-83132804D01*
X71548717Y-83419592D01*
X71626037Y-83606259D01*
X71680710Y-83738252D01*
X71684154Y-83755565D01*
X71748000Y-84076540D01*
X71748000Y-84421460D01*
X71680710Y-84759747D01*
X71548717Y-85078408D01*
X71357091Y-85365196D01*
X71113196Y-85609091D01*
X70826408Y-85800717D01*
X70639741Y-85878037D01*
X70507748Y-85932710D01*
X70394985Y-85955140D01*
X70169460Y-86000000D01*
X69824540Y-86000000D01*
X69599015Y-85955140D01*
X69486252Y-85932710D01*
X69354259Y-85878037D01*
X69167592Y-85800717D01*
X68880804Y-85609091D01*
X68636909Y-85365196D01*
X68445283Y-85078408D01*
X68313290Y-84759747D01*
X68246000Y-84421460D01*
X68246000Y-84076540D01*
X68309846Y-83755565D01*
X68313290Y-83738252D01*
X68367963Y-83606259D01*
X68445283Y-83419592D01*
X68636909Y-83132804D01*
X68880804Y-82888909D01*
X69167592Y-82697283D01*
X69354259Y-82619963D01*
X69486252Y-82565290D01*
X69599015Y-82542860D01*
X69824540Y-82498000D01*
X70169460Y-82498000D01*
X70394985Y-82542860D01*
G37*
G36*
X107394985Y-82542860D02*
G01*
X107507748Y-82565290D01*
X107639741Y-82619963D01*
X107826408Y-82697283D01*
X108113196Y-82888909D01*
X108357091Y-83132804D01*
X108548717Y-83419592D01*
X108626037Y-83606259D01*
X108680710Y-83738252D01*
X108684154Y-83755565D01*
X108748000Y-84076540D01*
X108748000Y-84421460D01*
X108680710Y-84759747D01*
X108548717Y-85078408D01*
X108357091Y-85365196D01*
X108113196Y-85609091D01*
X107826408Y-85800717D01*
X107639741Y-85878037D01*
X107507748Y-85932710D01*
X107394985Y-85955140D01*
X107169460Y-86000000D01*
X106824540Y-86000000D01*
X106599015Y-85955140D01*
X106486252Y-85932710D01*
X106354259Y-85878037D01*
X106167592Y-85800717D01*
X105880804Y-85609091D01*
X105636909Y-85365196D01*
X105445283Y-85078408D01*
X105313290Y-84759747D01*
X105246000Y-84421460D01*
X105246000Y-84076540D01*
X105309846Y-83755565D01*
X105313290Y-83738252D01*
X105367963Y-83606259D01*
X105445283Y-83419592D01*
X105636909Y-83132804D01*
X105880804Y-82888909D01*
X106167592Y-82697283D01*
X106354259Y-82619963D01*
X106486252Y-82565290D01*
X106599015Y-82542860D01*
X106824540Y-82498000D01*
X107169460Y-82498000D01*
X107394985Y-82542860D01*
G37*
G36*
X57110512Y-83852927D02*
G01*
X57259812Y-83882624D01*
X57423784Y-83950544D01*
X57571354Y-84049147D01*
X57696853Y-84174646D01*
X57795456Y-84322216D01*
X57863376Y-84486188D01*
X57898000Y-84660259D01*
X57898000Y-84837741D01*
X57863376Y-85011812D01*
X57795456Y-85175784D01*
X57696853Y-85323354D01*
X57571354Y-85448853D01*
X57423784Y-85547456D01*
X57259812Y-85615376D01*
X57110512Y-85645073D01*
X57085742Y-85650000D01*
X56908258Y-85650000D01*
X56883488Y-85645073D01*
X56734188Y-85615376D01*
X56570216Y-85547456D01*
X56422646Y-85448853D01*
X56297147Y-85323354D01*
X56198544Y-85175784D01*
X56130624Y-85011812D01*
X56096000Y-84837741D01*
X56096000Y-84660259D01*
X56130624Y-84486188D01*
X56198544Y-84322216D01*
X56297147Y-84174646D01*
X56422646Y-84049147D01*
X56570216Y-83950544D01*
X56734188Y-83882624D01*
X56883488Y-83852927D01*
X56908258Y-83848000D01*
X57085742Y-83848000D01*
X57110512Y-83852927D01*
G37*
G36*
X46110512Y-83852927D02*
G01*
X46259812Y-83882624D01*
X46423784Y-83950544D01*
X46571354Y-84049147D01*
X46696853Y-84174646D01*
X46795456Y-84322216D01*
X46863376Y-84486188D01*
X46898000Y-84660259D01*
X46898000Y-84837741D01*
X46863376Y-85011812D01*
X46795456Y-85175784D01*
X46696853Y-85323354D01*
X46571354Y-85448853D01*
X46423784Y-85547456D01*
X46259812Y-85615376D01*
X46110512Y-85645073D01*
X46085742Y-85650000D01*
X45908258Y-85650000D01*
X45883488Y-85645073D01*
X45734188Y-85615376D01*
X45570216Y-85547456D01*
X45422646Y-85448853D01*
X45297147Y-85323354D01*
X45198544Y-85175784D01*
X45130624Y-85011812D01*
X45096000Y-84837741D01*
X45096000Y-84660259D01*
X45130624Y-84486188D01*
X45198544Y-84322216D01*
X45297147Y-84174646D01*
X45422646Y-84049147D01*
X45570216Y-83950544D01*
X45734188Y-83882624D01*
X45883488Y-83852927D01*
X45908258Y-83848000D01*
X46085742Y-83848000D01*
X46110512Y-83852927D01*
G37*
G36*
X64610512Y-83352927D02*
G01*
X64759812Y-83382624D01*
X64923784Y-83450544D01*
X65071354Y-83549147D01*
X65196853Y-83674646D01*
X65295456Y-83822216D01*
X65363376Y-83986188D01*
X65398000Y-84160259D01*
X65398000Y-84337741D01*
X65363376Y-84511812D01*
X65295456Y-84675784D01*
X65196853Y-84823354D01*
X65071354Y-84948853D01*
X64923784Y-85047456D01*
X64759812Y-85115376D01*
X64610512Y-85145073D01*
X64585742Y-85150000D01*
X64408258Y-85150000D01*
X64383488Y-85145073D01*
X64234188Y-85115376D01*
X64070216Y-85047456D01*
X63922646Y-84948853D01*
X63797147Y-84823354D01*
X63698544Y-84675784D01*
X63630624Y-84511812D01*
X63596000Y-84337741D01*
X63596000Y-84160259D01*
X63630624Y-83986188D01*
X63698544Y-83822216D01*
X63797147Y-83674646D01*
X63922646Y-83549147D01*
X64070216Y-83450544D01*
X64234188Y-83382624D01*
X64383488Y-83352927D01*
X64408258Y-83348000D01*
X64585742Y-83348000D01*
X64610512Y-83352927D01*
G37*
G36*
X101610512Y-83352927D02*
G01*
X101759812Y-83382624D01*
X101923784Y-83450544D01*
X102071354Y-83549147D01*
X102196853Y-83674646D01*
X102295456Y-83822216D01*
X102363376Y-83986188D01*
X102398000Y-84160259D01*
X102398000Y-84337741D01*
X102363376Y-84511812D01*
X102295456Y-84675784D01*
X102196853Y-84823354D01*
X102071354Y-84948853D01*
X101923784Y-85047456D01*
X101759812Y-85115376D01*
X101610512Y-85145073D01*
X101585742Y-85150000D01*
X101408258Y-85150000D01*
X101383488Y-85145073D01*
X101234188Y-85115376D01*
X101070216Y-85047456D01*
X100922646Y-84948853D01*
X100797147Y-84823354D01*
X100698544Y-84675784D01*
X100630624Y-84511812D01*
X100596000Y-84337741D01*
X100596000Y-84160259D01*
X100630624Y-83986188D01*
X100698544Y-83822216D01*
X100797147Y-83674646D01*
X100922646Y-83549147D01*
X101070216Y-83450544D01*
X101234188Y-83382624D01*
X101383488Y-83352927D01*
X101408258Y-83348000D01*
X101585742Y-83348000D01*
X101610512Y-83352927D01*
G37*
G36*
X112610512Y-83352927D02*
G01*
X112759812Y-83382624D01*
X112923784Y-83450544D01*
X113071354Y-83549147D01*
X113196853Y-83674646D01*
X113295456Y-83822216D01*
X113363376Y-83986188D01*
X113398000Y-84160259D01*
X113398000Y-84337741D01*
X113363376Y-84511812D01*
X113295456Y-84675784D01*
X113196853Y-84823354D01*
X113071354Y-84948853D01*
X112923784Y-85047456D01*
X112759812Y-85115376D01*
X112610512Y-85145073D01*
X112585742Y-85150000D01*
X112408258Y-85150000D01*
X112383488Y-85145073D01*
X112234188Y-85115376D01*
X112070216Y-85047456D01*
X111922646Y-84948853D01*
X111797147Y-84823354D01*
X111698544Y-84675784D01*
X111630624Y-84511812D01*
X111596000Y-84337741D01*
X111596000Y-84160259D01*
X111630624Y-83986188D01*
X111698544Y-83822216D01*
X111797147Y-83674646D01*
X111922646Y-83549147D01*
X112070216Y-83450544D01*
X112234188Y-83382624D01*
X112383488Y-83352927D01*
X112408258Y-83348000D01*
X112585742Y-83348000D01*
X112610512Y-83352927D01*
G37*
G36*
X75610512Y-83352927D02*
G01*
X75759812Y-83382624D01*
X75923784Y-83450544D01*
X76071354Y-83549147D01*
X76196853Y-83674646D01*
X76295456Y-83822216D01*
X76363376Y-83986188D01*
X76398000Y-84160259D01*
X76398000Y-84337741D01*
X76363376Y-84511812D01*
X76295456Y-84675784D01*
X76196853Y-84823354D01*
X76071354Y-84948853D01*
X75923784Y-85047456D01*
X75759812Y-85115376D01*
X75610512Y-85145073D01*
X75585742Y-85150000D01*
X75408258Y-85150000D01*
X75383488Y-85145073D01*
X75234188Y-85115376D01*
X75070216Y-85047456D01*
X74922646Y-84948853D01*
X74797147Y-84823354D01*
X74698544Y-84675784D01*
X74630624Y-84511812D01*
X74596000Y-84337741D01*
X74596000Y-84160259D01*
X74630624Y-83986188D01*
X74698544Y-83822216D01*
X74797147Y-83674646D01*
X74922646Y-83549147D01*
X75070216Y-83450544D01*
X75234188Y-83382624D01*
X75383488Y-83352927D01*
X75408258Y-83348000D01*
X75585742Y-83348000D01*
X75610512Y-83352927D01*
G37*
G36*
X120803564Y-82438389D02*
G01*
X120994833Y-82517615D01*
X120994835Y-82517616D01*
X121166973Y-82632635D01*
X121313365Y-82779027D01*
X121386787Y-82888910D01*
X121428385Y-82951167D01*
X121507611Y-83142436D01*
X121548000Y-83345484D01*
X121548000Y-83552516D01*
X121507611Y-83755564D01*
X121428385Y-83946833D01*
X121428384Y-83946835D01*
X121313365Y-84118973D01*
X121166973Y-84265365D01*
X120994835Y-84380384D01*
X120994834Y-84380385D01*
X120994833Y-84380385D01*
X120803564Y-84459611D01*
X120600516Y-84500000D01*
X120393484Y-84500000D01*
X120190436Y-84459611D01*
X119999167Y-84380385D01*
X119999166Y-84380385D01*
X119999165Y-84380384D01*
X119827027Y-84265365D01*
X119680635Y-84118973D01*
X119565616Y-83946835D01*
X119565615Y-83946833D01*
X119486389Y-83755564D01*
X119446000Y-83552516D01*
X119446000Y-83345484D01*
X119486389Y-83142436D01*
X119565615Y-82951167D01*
X119607214Y-82888910D01*
X119680635Y-82779027D01*
X119827027Y-82632635D01*
X119999165Y-82517616D01*
X119999167Y-82517615D01*
X120190436Y-82438389D01*
X120393484Y-82398000D01*
X120600516Y-82398000D01*
X120803564Y-82438389D01*
G37*
G36*
X130803564Y-82438389D02*
G01*
X130994833Y-82517615D01*
X130994835Y-82517616D01*
X131166973Y-82632635D01*
X131313365Y-82779027D01*
X131386787Y-82888910D01*
X131428385Y-82951167D01*
X131507611Y-83142436D01*
X131548000Y-83345484D01*
X131548000Y-83552516D01*
X131507611Y-83755564D01*
X131428385Y-83946833D01*
X131428384Y-83946835D01*
X131313365Y-84118973D01*
X131166973Y-84265365D01*
X130994835Y-84380384D01*
X130994834Y-84380385D01*
X130994833Y-84380385D01*
X130803564Y-84459611D01*
X130600516Y-84500000D01*
X130393484Y-84500000D01*
X130190436Y-84459611D01*
X129999167Y-84380385D01*
X129999166Y-84380385D01*
X129999165Y-84380384D01*
X129827027Y-84265365D01*
X129680635Y-84118973D01*
X129565616Y-83946835D01*
X129565615Y-83946833D01*
X129486389Y-83755564D01*
X129446000Y-83552516D01*
X129446000Y-83345484D01*
X129486389Y-83142436D01*
X129565615Y-82951167D01*
X129607214Y-82888910D01*
X129680635Y-82779027D01*
X129827027Y-82632635D01*
X129999165Y-82517616D01*
X129999167Y-82517615D01*
X130190436Y-82438389D01*
X130393484Y-82398000D01*
X130600516Y-82398000D01*
X130803564Y-82438389D01*
G37*
G36*
X125803564Y-80338389D02*
G01*
X125994833Y-80417615D01*
X125994835Y-80417616D01*
X126166973Y-80532635D01*
X126313365Y-80679027D01*
X126394676Y-80800717D01*
X126428385Y-80851167D01*
X126507611Y-81042436D01*
X126548000Y-81245484D01*
X126548000Y-81452516D01*
X126507611Y-81655564D01*
X126462130Y-81765365D01*
X126428384Y-81846835D01*
X126313365Y-82018973D01*
X126166973Y-82165365D01*
X125994835Y-82280384D01*
X125994834Y-82280385D01*
X125994833Y-82280385D01*
X125803564Y-82359611D01*
X125600516Y-82400000D01*
X125393484Y-82400000D01*
X125190436Y-82359611D01*
X124999167Y-82280385D01*
X124999166Y-82280385D01*
X124999165Y-82280384D01*
X124827027Y-82165365D01*
X124680635Y-82018973D01*
X124565616Y-81846835D01*
X124531870Y-81765365D01*
X124486389Y-81655564D01*
X124446000Y-81452516D01*
X124446000Y-81245484D01*
X124486389Y-81042436D01*
X124565615Y-80851167D01*
X124599325Y-80800717D01*
X124680635Y-80679027D01*
X124827027Y-80532635D01*
X124999165Y-80417616D01*
X124999167Y-80417615D01*
X125190436Y-80338389D01*
X125393484Y-80298000D01*
X125600516Y-80298000D01*
X125803564Y-80338389D01*
G37*
G36*
X56803564Y-79938389D02*
G01*
X56994833Y-80017615D01*
X56994835Y-80017616D01*
X57166973Y-80132635D01*
X57313365Y-80279027D01*
X57405967Y-80417615D01*
X57428385Y-80451167D01*
X57507611Y-80642436D01*
X57548000Y-80845484D01*
X57548000Y-81052516D01*
X57507611Y-81255564D01*
X57428385Y-81446833D01*
X57428384Y-81446835D01*
X57313365Y-81618973D01*
X57166973Y-81765365D01*
X56994835Y-81880384D01*
X56994834Y-81880385D01*
X56994833Y-81880385D01*
X56803564Y-81959611D01*
X56600516Y-82000000D01*
X56393484Y-82000000D01*
X56190436Y-81959611D01*
X55999167Y-81880385D01*
X55999166Y-81880385D01*
X55999165Y-81880384D01*
X55827027Y-81765365D01*
X55680635Y-81618973D01*
X55565616Y-81446835D01*
X55565615Y-81446833D01*
X55486389Y-81255564D01*
X55446000Y-81052516D01*
X55446000Y-80845484D01*
X55486389Y-80642436D01*
X55565615Y-80451167D01*
X55588034Y-80417615D01*
X55680635Y-80279027D01*
X55827027Y-80132635D01*
X55999165Y-80017616D01*
X55999167Y-80017615D01*
X56190436Y-79938389D01*
X56393484Y-79898000D01*
X56600516Y-79898000D01*
X56803564Y-79938389D01*
G37*
G36*
X46803564Y-79938389D02*
G01*
X46994833Y-80017615D01*
X46994835Y-80017616D01*
X47166973Y-80132635D01*
X47313365Y-80279027D01*
X47405967Y-80417615D01*
X47428385Y-80451167D01*
X47507611Y-80642436D01*
X47548000Y-80845484D01*
X47548000Y-81052516D01*
X47507611Y-81255564D01*
X47428385Y-81446833D01*
X47428384Y-81446835D01*
X47313365Y-81618973D01*
X47166973Y-81765365D01*
X46994835Y-81880384D01*
X46994834Y-81880385D01*
X46994833Y-81880385D01*
X46803564Y-81959611D01*
X46600516Y-82000000D01*
X46393484Y-82000000D01*
X46190436Y-81959611D01*
X45999167Y-81880385D01*
X45999166Y-81880385D01*
X45999165Y-81880384D01*
X45827027Y-81765365D01*
X45680635Y-81618973D01*
X45565616Y-81446835D01*
X45565615Y-81446833D01*
X45486389Y-81255564D01*
X45446000Y-81052516D01*
X45446000Y-80845484D01*
X45486389Y-80642436D01*
X45565615Y-80451167D01*
X45588034Y-80417615D01*
X45680635Y-80279027D01*
X45827027Y-80132635D01*
X45999165Y-80017616D01*
X45999167Y-80017615D01*
X46190436Y-79938389D01*
X46393484Y-79898000D01*
X46600516Y-79898000D01*
X46803564Y-79938389D01*
G37*
G36*
X112303564Y-79438389D02*
G01*
X112480823Y-79511812D01*
X112494835Y-79517616D01*
X112666973Y-79632635D01*
X112813365Y-79779027D01*
X112926839Y-79948852D01*
X112928385Y-79951167D01*
X113007611Y-80142436D01*
X113048000Y-80345484D01*
X113048000Y-80552516D01*
X113007611Y-80755564D01*
X112968011Y-80851167D01*
X112928384Y-80946835D01*
X112813365Y-81118973D01*
X112666973Y-81265365D01*
X112494835Y-81380384D01*
X112494834Y-81380385D01*
X112494833Y-81380385D01*
X112303564Y-81459611D01*
X112100516Y-81500000D01*
X111893484Y-81500000D01*
X111690436Y-81459611D01*
X111499167Y-81380385D01*
X111499166Y-81380385D01*
X111499165Y-81380384D01*
X111327027Y-81265365D01*
X111180635Y-81118973D01*
X111065616Y-80946835D01*
X111025989Y-80851167D01*
X110986389Y-80755564D01*
X110946000Y-80552516D01*
X110946000Y-80345484D01*
X110986389Y-80142436D01*
X111065615Y-79951167D01*
X111067162Y-79948852D01*
X111180635Y-79779027D01*
X111327027Y-79632635D01*
X111499165Y-79517616D01*
X111513177Y-79511812D01*
X111690436Y-79438389D01*
X111893484Y-79398000D01*
X112100516Y-79398000D01*
X112303564Y-79438389D01*
G37*
G36*
X102303564Y-79438389D02*
G01*
X102480823Y-79511812D01*
X102494835Y-79517616D01*
X102666973Y-79632635D01*
X102813365Y-79779027D01*
X102926839Y-79948852D01*
X102928385Y-79951167D01*
X103007611Y-80142436D01*
X103048000Y-80345484D01*
X103048000Y-80552516D01*
X103007611Y-80755564D01*
X102968011Y-80851167D01*
X102928384Y-80946835D01*
X102813365Y-81118973D01*
X102666973Y-81265365D01*
X102494835Y-81380384D01*
X102494834Y-81380385D01*
X102494833Y-81380385D01*
X102303564Y-81459611D01*
X102100516Y-81500000D01*
X101893484Y-81500000D01*
X101690436Y-81459611D01*
X101499167Y-81380385D01*
X101499166Y-81380385D01*
X101499165Y-81380384D01*
X101327027Y-81265365D01*
X101180635Y-81118973D01*
X101065616Y-80946835D01*
X101025989Y-80851167D01*
X100986389Y-80755564D01*
X100946000Y-80552516D01*
X100946000Y-80345484D01*
X100986389Y-80142436D01*
X101065615Y-79951167D01*
X101067162Y-79948852D01*
X101180635Y-79779027D01*
X101327027Y-79632635D01*
X101499165Y-79517616D01*
X101513177Y-79511812D01*
X101690436Y-79438389D01*
X101893484Y-79398000D01*
X102100516Y-79398000D01*
X102303564Y-79438389D01*
G37*
G36*
X75303564Y-79438389D02*
G01*
X75480823Y-79511812D01*
X75494835Y-79517616D01*
X75666973Y-79632635D01*
X75813365Y-79779027D01*
X75926839Y-79948852D01*
X75928385Y-79951167D01*
X76007611Y-80142436D01*
X76048000Y-80345484D01*
X76048000Y-80552516D01*
X76007611Y-80755564D01*
X75968011Y-80851167D01*
X75928384Y-80946835D01*
X75813365Y-81118973D01*
X75666973Y-81265365D01*
X75494835Y-81380384D01*
X75494834Y-81380385D01*
X75494833Y-81380385D01*
X75303564Y-81459611D01*
X75100516Y-81500000D01*
X74893484Y-81500000D01*
X74690436Y-81459611D01*
X74499167Y-81380385D01*
X74499166Y-81380385D01*
X74499165Y-81380384D01*
X74327027Y-81265365D01*
X74180635Y-81118973D01*
X74065616Y-80946835D01*
X74025989Y-80851167D01*
X73986389Y-80755564D01*
X73946000Y-80552516D01*
X73946000Y-80345484D01*
X73986389Y-80142436D01*
X74065615Y-79951167D01*
X74067162Y-79948852D01*
X74180635Y-79779027D01*
X74327027Y-79632635D01*
X74499165Y-79517616D01*
X74513177Y-79511812D01*
X74690436Y-79438389D01*
X74893484Y-79398000D01*
X75100516Y-79398000D01*
X75303564Y-79438389D01*
G37*
G36*
X65303564Y-79438389D02*
G01*
X65480823Y-79511812D01*
X65494835Y-79517616D01*
X65666973Y-79632635D01*
X65813365Y-79779027D01*
X65926839Y-79948852D01*
X65928385Y-79951167D01*
X66007611Y-80142436D01*
X66048000Y-80345484D01*
X66048000Y-80552516D01*
X66007611Y-80755564D01*
X65968011Y-80851167D01*
X65928384Y-80946835D01*
X65813365Y-81118973D01*
X65666973Y-81265365D01*
X65494835Y-81380384D01*
X65494834Y-81380385D01*
X65494833Y-81380385D01*
X65303564Y-81459611D01*
X65100516Y-81500000D01*
X64893484Y-81500000D01*
X64690436Y-81459611D01*
X64499167Y-81380385D01*
X64499166Y-81380385D01*
X64499165Y-81380384D01*
X64327027Y-81265365D01*
X64180635Y-81118973D01*
X64065616Y-80946835D01*
X64025989Y-80851167D01*
X63986389Y-80755564D01*
X63946000Y-80552516D01*
X63946000Y-80345484D01*
X63986389Y-80142436D01*
X64065615Y-79951167D01*
X64067162Y-79948852D01*
X64180635Y-79779027D01*
X64327027Y-79632635D01*
X64499165Y-79517616D01*
X64513177Y-79511812D01*
X64690436Y-79438389D01*
X64893484Y-79398000D01*
X65100516Y-79398000D01*
X65303564Y-79438389D01*
G37*
G36*
X88894985Y-77542860D02*
G01*
X89007748Y-77565290D01*
X89139741Y-77619963D01*
X89326408Y-77697283D01*
X89613196Y-77888909D01*
X89857091Y-78132804D01*
X90048717Y-78419592D01*
X90126037Y-78606259D01*
X90180710Y-78738252D01*
X90182149Y-78745486D01*
X90248000Y-79076540D01*
X90248000Y-79421460D01*
X90180710Y-79759747D01*
X90048717Y-80078408D01*
X89857091Y-80365196D01*
X89613196Y-80609091D01*
X89326408Y-80800717D01*
X89218330Y-80845484D01*
X89007748Y-80932710D01*
X88894985Y-80955140D01*
X88669460Y-81000000D01*
X88324540Y-81000000D01*
X88099015Y-80955140D01*
X87986252Y-80932710D01*
X87775670Y-80845484D01*
X87667592Y-80800717D01*
X87380804Y-80609091D01*
X87136909Y-80365196D01*
X86945283Y-80078408D01*
X86813290Y-79759747D01*
X86746000Y-79421460D01*
X86746000Y-79076540D01*
X86811851Y-78745486D01*
X86813290Y-78738252D01*
X86867963Y-78606259D01*
X86945283Y-78419592D01*
X87136909Y-78132804D01*
X87380804Y-77888909D01*
X87667592Y-77697283D01*
X87854259Y-77619963D01*
X87986252Y-77565290D01*
X88099015Y-77542860D01*
X88324540Y-77498000D01*
X88669460Y-77498000D01*
X88894985Y-77542860D01*
G37*
G36*
X94101653Y-78351165D02*
G01*
X94259812Y-78382624D01*
X94423784Y-78450544D01*
X94571354Y-78549147D01*
X94696853Y-78674646D01*
X94795456Y-78822216D01*
X94863376Y-78986188D01*
X94898000Y-79160259D01*
X94898000Y-79337741D01*
X94863376Y-79511812D01*
X94795456Y-79675784D01*
X94696853Y-79823354D01*
X94571354Y-79948853D01*
X94423784Y-80047456D01*
X94259812Y-80115376D01*
X94110512Y-80145073D01*
X94085742Y-80150000D01*
X93908258Y-80150000D01*
X93883488Y-80145073D01*
X93734188Y-80115376D01*
X93570216Y-80047456D01*
X93422646Y-79948853D01*
X93297147Y-79823354D01*
X93198544Y-79675784D01*
X93130624Y-79511812D01*
X93096000Y-79337741D01*
X93096000Y-79160259D01*
X93130624Y-78986188D01*
X93198544Y-78822216D01*
X93297147Y-78674646D01*
X93422646Y-78549147D01*
X93570216Y-78450544D01*
X93734188Y-78382624D01*
X93892347Y-78351165D01*
X93908258Y-78348000D01*
X94085742Y-78348000D01*
X94101653Y-78351165D01*
G37*
G36*
X83101653Y-78351165D02*
G01*
X83259812Y-78382624D01*
X83423784Y-78450544D01*
X83571354Y-78549147D01*
X83696853Y-78674646D01*
X83795456Y-78822216D01*
X83863376Y-78986188D01*
X83898000Y-79160259D01*
X83898000Y-79337741D01*
X83863376Y-79511812D01*
X83795456Y-79675784D01*
X83696853Y-79823354D01*
X83571354Y-79948853D01*
X83423784Y-80047456D01*
X83259812Y-80115376D01*
X83110512Y-80145073D01*
X83085742Y-80150000D01*
X82908258Y-80150000D01*
X82883488Y-80145073D01*
X82734188Y-80115376D01*
X82570216Y-80047456D01*
X82422646Y-79948853D01*
X82297147Y-79823354D01*
X82198544Y-79675784D01*
X82130624Y-79511812D01*
X82096000Y-79337741D01*
X82096000Y-79160259D01*
X82130624Y-78986188D01*
X82198544Y-78822216D01*
X82297147Y-78674646D01*
X82422646Y-78549147D01*
X82570216Y-78450544D01*
X82734188Y-78382624D01*
X82892347Y-78351165D01*
X82908258Y-78348000D01*
X83085742Y-78348000D01*
X83101653Y-78351165D01*
G37*
G36*
X51803564Y-77838389D02*
G01*
X51994833Y-77917615D01*
X51994835Y-77917616D01*
X52166973Y-78032635D01*
X52313365Y-78179027D01*
X52357772Y-78245486D01*
X52428385Y-78351167D01*
X52507611Y-78542436D01*
X52548000Y-78745484D01*
X52548000Y-78952516D01*
X52507611Y-79155564D01*
X52428385Y-79346833D01*
X52428384Y-79346835D01*
X52313365Y-79518973D01*
X52166973Y-79665365D01*
X51994835Y-79780384D01*
X51994834Y-79780385D01*
X51994833Y-79780385D01*
X51803564Y-79859611D01*
X51600516Y-79900000D01*
X51393484Y-79900000D01*
X51190436Y-79859611D01*
X50999167Y-79780385D01*
X50999166Y-79780385D01*
X50999165Y-79780384D01*
X50827027Y-79665365D01*
X50680635Y-79518973D01*
X50565616Y-79346835D01*
X50565615Y-79346833D01*
X50486389Y-79155564D01*
X50446000Y-78952516D01*
X50446000Y-78745484D01*
X50486389Y-78542436D01*
X50565615Y-78351167D01*
X50636229Y-78245486D01*
X50680635Y-78179027D01*
X50827027Y-78032635D01*
X50999165Y-77917616D01*
X50999167Y-77917615D01*
X51190436Y-77838389D01*
X51393484Y-77798000D01*
X51600516Y-77798000D01*
X51803564Y-77838389D01*
G37*
G36*
X70303564Y-77338389D02*
G01*
X70494833Y-77417615D01*
X70494835Y-77417616D01*
X70615138Y-77498000D01*
X70666973Y-77532635D01*
X70813365Y-77679027D01*
X70928385Y-77851167D01*
X71007611Y-78042436D01*
X71048000Y-78245484D01*
X71048000Y-78452516D01*
X71007611Y-78655564D01*
X70938581Y-78822218D01*
X70928384Y-78846835D01*
X70813365Y-79018973D01*
X70666973Y-79165365D01*
X70494835Y-79280384D01*
X70494834Y-79280385D01*
X70494833Y-79280385D01*
X70303564Y-79359611D01*
X70100516Y-79400000D01*
X69893484Y-79400000D01*
X69690436Y-79359611D01*
X69499167Y-79280385D01*
X69499166Y-79280385D01*
X69499165Y-79280384D01*
X69327027Y-79165365D01*
X69180635Y-79018973D01*
X69065616Y-78846835D01*
X69055419Y-78822218D01*
X68986389Y-78655564D01*
X68946000Y-78452516D01*
X68946000Y-78245484D01*
X68986389Y-78042436D01*
X69065615Y-77851167D01*
X69180635Y-77679027D01*
X69327027Y-77532635D01*
X69378862Y-77498000D01*
X69499165Y-77417616D01*
X69499167Y-77417615D01*
X69690436Y-77338389D01*
X69893484Y-77298000D01*
X70100516Y-77298000D01*
X70303564Y-77338389D01*
G37*
G36*
X107303564Y-77338389D02*
G01*
X107494833Y-77417615D01*
X107494835Y-77417616D01*
X107615138Y-77498000D01*
X107666973Y-77532635D01*
X107813365Y-77679027D01*
X107928385Y-77851167D01*
X108007611Y-78042436D01*
X108048000Y-78245484D01*
X108048000Y-78452516D01*
X108007611Y-78655564D01*
X107938581Y-78822218D01*
X107928384Y-78846835D01*
X107813365Y-79018973D01*
X107666973Y-79165365D01*
X107494835Y-79280384D01*
X107494834Y-79280385D01*
X107494833Y-79280385D01*
X107303564Y-79359611D01*
X107100516Y-79400000D01*
X106893484Y-79400000D01*
X106690436Y-79359611D01*
X106499167Y-79280385D01*
X106499166Y-79280385D01*
X106499165Y-79280384D01*
X106327027Y-79165365D01*
X106180635Y-79018973D01*
X106065616Y-78846835D01*
X106055419Y-78822218D01*
X105986389Y-78655564D01*
X105946000Y-78452516D01*
X105946000Y-78245484D01*
X105986389Y-78042436D01*
X106065615Y-77851167D01*
X106180635Y-77679027D01*
X106327027Y-77532635D01*
X106378862Y-77498000D01*
X106499165Y-77417616D01*
X106499167Y-77417615D01*
X106690436Y-77338389D01*
X106893484Y-77298000D01*
X107100516Y-77298000D01*
X107303564Y-77338389D01*
G37*
G36*
X125803564Y-75138389D02*
G01*
X125994833Y-75217615D01*
X125994835Y-75217616D01*
X126166973Y-75332635D01*
X126313365Y-75479027D01*
X126428385Y-75651167D01*
X126507611Y-75842436D01*
X126548000Y-76045484D01*
X126548000Y-76252516D01*
X126507611Y-76455564D01*
X126489205Y-76500000D01*
X126428384Y-76646835D01*
X126313365Y-76818973D01*
X126166973Y-76965365D01*
X125994835Y-77080384D01*
X125994834Y-77080385D01*
X125994833Y-77080385D01*
X125803564Y-77159611D01*
X125600516Y-77200000D01*
X125393484Y-77200000D01*
X125190436Y-77159611D01*
X124999167Y-77080385D01*
X124999166Y-77080385D01*
X124999165Y-77080384D01*
X124827027Y-76965365D01*
X124680635Y-76818973D01*
X124565616Y-76646835D01*
X124504795Y-76500000D01*
X124486389Y-76455564D01*
X124446000Y-76252516D01*
X124446000Y-76045484D01*
X124486389Y-75842436D01*
X124565615Y-75651167D01*
X124680635Y-75479027D01*
X124827027Y-75332635D01*
X124999165Y-75217616D01*
X124999167Y-75217615D01*
X125190436Y-75138389D01*
X125393484Y-75098000D01*
X125600516Y-75098000D01*
X125803564Y-75138389D01*
G37*
G36*
X83803564Y-74438389D02*
G01*
X83994833Y-74517615D01*
X83994835Y-74517616D01*
X84038561Y-74546833D01*
X84166973Y-74632635D01*
X84313365Y-74779027D01*
X84428385Y-74951167D01*
X84507611Y-75142436D01*
X84548000Y-75345484D01*
X84548000Y-75552516D01*
X84507611Y-75755564D01*
X84428385Y-75946833D01*
X84428384Y-75946835D01*
X84313365Y-76118973D01*
X84166973Y-76265365D01*
X83994835Y-76380384D01*
X83994834Y-76380385D01*
X83994833Y-76380385D01*
X83803564Y-76459611D01*
X83600516Y-76500000D01*
X83393484Y-76500000D01*
X83190436Y-76459611D01*
X82999167Y-76380385D01*
X82999166Y-76380385D01*
X82999165Y-76380384D01*
X82827027Y-76265365D01*
X82680635Y-76118973D01*
X82565616Y-75946835D01*
X82565615Y-75946833D01*
X82486389Y-75755564D01*
X82446000Y-75552516D01*
X82446000Y-75345484D01*
X82486389Y-75142436D01*
X82565615Y-74951167D01*
X82680635Y-74779027D01*
X82827027Y-74632635D01*
X82955439Y-74546833D01*
X82999165Y-74517616D01*
X82999167Y-74517615D01*
X83190436Y-74438389D01*
X83393484Y-74398000D01*
X83600516Y-74398000D01*
X83803564Y-74438389D01*
G37*
G36*
X93803564Y-74438389D02*
G01*
X93994833Y-74517615D01*
X93994835Y-74517616D01*
X94038561Y-74546833D01*
X94166973Y-74632635D01*
X94313365Y-74779027D01*
X94428385Y-74951167D01*
X94507611Y-75142436D01*
X94548000Y-75345484D01*
X94548000Y-75552516D01*
X94507611Y-75755564D01*
X94428385Y-75946833D01*
X94428384Y-75946835D01*
X94313365Y-76118973D01*
X94166973Y-76265365D01*
X93994835Y-76380384D01*
X93994834Y-76380385D01*
X93994833Y-76380385D01*
X93803564Y-76459611D01*
X93600516Y-76500000D01*
X93393484Y-76500000D01*
X93190436Y-76459611D01*
X92999167Y-76380385D01*
X92999166Y-76380385D01*
X92999165Y-76380384D01*
X92827027Y-76265365D01*
X92680635Y-76118973D01*
X92565616Y-75946835D01*
X92565615Y-75946833D01*
X92486389Y-75755564D01*
X92446000Y-75552516D01*
X92446000Y-75345484D01*
X92486389Y-75142436D01*
X92565615Y-74951167D01*
X92680635Y-74779027D01*
X92827027Y-74632635D01*
X92955439Y-74546833D01*
X92999165Y-74517616D01*
X92999167Y-74517615D01*
X93190436Y-74438389D01*
X93393484Y-74398000D01*
X93600516Y-74398000D01*
X93803564Y-74438389D01*
G37*
G36*
X130803564Y-73038389D02*
G01*
X130994833Y-73117615D01*
X130994835Y-73117616D01*
X131166973Y-73232635D01*
X131313365Y-73379027D01*
X131428385Y-73551167D01*
X131507611Y-73742436D01*
X131548000Y-73945484D01*
X131548000Y-74152516D01*
X131507611Y-74355564D01*
X131473303Y-74438390D01*
X131428384Y-74546835D01*
X131313365Y-74718973D01*
X131166973Y-74865365D01*
X130994835Y-74980384D01*
X130994834Y-74980385D01*
X130994833Y-74980385D01*
X130803564Y-75059611D01*
X130600516Y-75100000D01*
X130393484Y-75100000D01*
X130190436Y-75059611D01*
X129999167Y-74980385D01*
X129999166Y-74980385D01*
X129999165Y-74980384D01*
X129827027Y-74865365D01*
X129680635Y-74718973D01*
X129565616Y-74546835D01*
X129520697Y-74438390D01*
X129486389Y-74355564D01*
X129446000Y-74152516D01*
X129446000Y-73945484D01*
X129486389Y-73742436D01*
X129565615Y-73551167D01*
X129680635Y-73379027D01*
X129827027Y-73232635D01*
X129999165Y-73117616D01*
X129999167Y-73117615D01*
X130190436Y-73038389D01*
X130393484Y-72998000D01*
X130600516Y-72998000D01*
X130803564Y-73038389D01*
G37*
G36*
X120803564Y-73038389D02*
G01*
X120994833Y-73117615D01*
X120994835Y-73117616D01*
X121166973Y-73232635D01*
X121313365Y-73379027D01*
X121428385Y-73551167D01*
X121507611Y-73742436D01*
X121548000Y-73945484D01*
X121548000Y-74152516D01*
X121507611Y-74355564D01*
X121473303Y-74438390D01*
X121428384Y-74546835D01*
X121313365Y-74718973D01*
X121166973Y-74865365D01*
X120994835Y-74980384D01*
X120994834Y-74980385D01*
X120994833Y-74980385D01*
X120803564Y-75059611D01*
X120600516Y-75100000D01*
X120393484Y-75100000D01*
X120190436Y-75059611D01*
X119999167Y-74980385D01*
X119999166Y-74980385D01*
X119999165Y-74980384D01*
X119827027Y-74865365D01*
X119680635Y-74718973D01*
X119565616Y-74546835D01*
X119520697Y-74438390D01*
X119486389Y-74355564D01*
X119446000Y-74152516D01*
X119446000Y-73945484D01*
X119486389Y-73742436D01*
X119565615Y-73551167D01*
X119680635Y-73379027D01*
X119827027Y-73232635D01*
X119999165Y-73117616D01*
X119999167Y-73117615D01*
X120190436Y-73038389D01*
X120393484Y-72998000D01*
X120600516Y-72998000D01*
X120803564Y-73038389D01*
G37*
G36*
X88803564Y-72338389D02*
G01*
X88994833Y-72417615D01*
X88994835Y-72417616D01*
X89166973Y-72532635D01*
X89313365Y-72679027D01*
X89422551Y-72842435D01*
X89428385Y-72851167D01*
X89507611Y-73042436D01*
X89548000Y-73245484D01*
X89548000Y-73452516D01*
X89507611Y-73655564D01*
X89439925Y-73818973D01*
X89428384Y-73846835D01*
X89313365Y-74018973D01*
X89166973Y-74165365D01*
X88994835Y-74280384D01*
X88994834Y-74280385D01*
X88994833Y-74280385D01*
X88803564Y-74359611D01*
X88600516Y-74400000D01*
X88393484Y-74400000D01*
X88190436Y-74359611D01*
X87999167Y-74280385D01*
X87999166Y-74280385D01*
X87999165Y-74280384D01*
X87827027Y-74165365D01*
X87680635Y-74018973D01*
X87565616Y-73846835D01*
X87554075Y-73818973D01*
X87486389Y-73655564D01*
X87446000Y-73452516D01*
X87446000Y-73245484D01*
X87486389Y-73042436D01*
X87565615Y-72851167D01*
X87571450Y-72842435D01*
X87680635Y-72679027D01*
X87827027Y-72532635D01*
X87999165Y-72417616D01*
X87999167Y-72417615D01*
X88190436Y-72338389D01*
X88393484Y-72298000D01*
X88600516Y-72298000D01*
X88803564Y-72338389D01*
G37*
G36*
X107303564Y-72138389D02*
G01*
X107494833Y-72217615D01*
X107494835Y-72217616D01*
X107615138Y-72298000D01*
X107666973Y-72332635D01*
X107813365Y-72479027D01*
X107928385Y-72651167D01*
X108007611Y-72842436D01*
X108048000Y-73045484D01*
X108048000Y-73252516D01*
X108007611Y-73455564D01*
X107968011Y-73551167D01*
X107928384Y-73646835D01*
X107813365Y-73818973D01*
X107666973Y-73965365D01*
X107494835Y-74080384D01*
X107494834Y-74080385D01*
X107494833Y-74080385D01*
X107303564Y-74159611D01*
X107100516Y-74200000D01*
X106893484Y-74200000D01*
X106690436Y-74159611D01*
X106499167Y-74080385D01*
X106499166Y-74080385D01*
X106499165Y-74080384D01*
X106327027Y-73965365D01*
X106180635Y-73818973D01*
X106065616Y-73646835D01*
X106025989Y-73551167D01*
X105986389Y-73455564D01*
X105946000Y-73252516D01*
X105946000Y-73045484D01*
X105986389Y-72842436D01*
X106065615Y-72651167D01*
X106180635Y-72479027D01*
X106327027Y-72332635D01*
X106378862Y-72298000D01*
X106499165Y-72217616D01*
X106499167Y-72217615D01*
X106690436Y-72138389D01*
X106893484Y-72098000D01*
X107100516Y-72098000D01*
X107303564Y-72138389D01*
G37*
G36*
X70303564Y-72138389D02*
G01*
X70494833Y-72217615D01*
X70494835Y-72217616D01*
X70615138Y-72298000D01*
X70666973Y-72332635D01*
X70813365Y-72479027D01*
X70928385Y-72651167D01*
X71007611Y-72842436D01*
X71048000Y-73045484D01*
X71048000Y-73252516D01*
X71007611Y-73455564D01*
X70968011Y-73551167D01*
X70928384Y-73646835D01*
X70813365Y-73818973D01*
X70666973Y-73965365D01*
X70494835Y-74080384D01*
X70494834Y-74080385D01*
X70494833Y-74080385D01*
X70303564Y-74159611D01*
X70100516Y-74200000D01*
X69893484Y-74200000D01*
X69690436Y-74159611D01*
X69499167Y-74080385D01*
X69499166Y-74080385D01*
X69499165Y-74080384D01*
X69327027Y-73965365D01*
X69180635Y-73818973D01*
X69065616Y-73646835D01*
X69025989Y-73551167D01*
X68986389Y-73455564D01*
X68946000Y-73252516D01*
X68946000Y-73045484D01*
X68986389Y-72842436D01*
X69065615Y-72651167D01*
X69180635Y-72479027D01*
X69327027Y-72332635D01*
X69378862Y-72298000D01*
X69499165Y-72217616D01*
X69499167Y-72217615D01*
X69690436Y-72138389D01*
X69893484Y-72098000D01*
X70100516Y-72098000D01*
X70303564Y-72138389D01*
G37*
G36*
X112303564Y-70038389D02*
G01*
X112494833Y-70117615D01*
X112494835Y-70117616D01*
X112666973Y-70232635D01*
X112813365Y-70379027D01*
X112841717Y-70421458D01*
X112928385Y-70551167D01*
X113007611Y-70742436D01*
X113048000Y-70945484D01*
X113048000Y-71152516D01*
X113007611Y-71355564D01*
X112928385Y-71546833D01*
X112928384Y-71546835D01*
X112813365Y-71718973D01*
X112666973Y-71865365D01*
X112494835Y-71980384D01*
X112494834Y-71980385D01*
X112494833Y-71980385D01*
X112303564Y-72059611D01*
X112100516Y-72100000D01*
X111893484Y-72100000D01*
X111690436Y-72059611D01*
X111499167Y-71980385D01*
X111499166Y-71980385D01*
X111499165Y-71980384D01*
X111327027Y-71865365D01*
X111180635Y-71718973D01*
X111065616Y-71546835D01*
X111065615Y-71546833D01*
X110986389Y-71355564D01*
X110946000Y-71152516D01*
X110946000Y-70945484D01*
X110986389Y-70742436D01*
X111065615Y-70551167D01*
X111152284Y-70421458D01*
X111180635Y-70379027D01*
X111327027Y-70232635D01*
X111499165Y-70117616D01*
X111499167Y-70117615D01*
X111690436Y-70038389D01*
X111893484Y-69998000D01*
X112100516Y-69998000D01*
X112303564Y-70038389D01*
G37*
G36*
X102303564Y-70038389D02*
G01*
X102494833Y-70117615D01*
X102494835Y-70117616D01*
X102666973Y-70232635D01*
X102813365Y-70379027D01*
X102841717Y-70421458D01*
X102928385Y-70551167D01*
X103007611Y-70742436D01*
X103048000Y-70945484D01*
X103048000Y-71152516D01*
X103007611Y-71355564D01*
X102928385Y-71546833D01*
X102928384Y-71546835D01*
X102813365Y-71718973D01*
X102666973Y-71865365D01*
X102494835Y-71980384D01*
X102494834Y-71980385D01*
X102494833Y-71980385D01*
X102303564Y-72059611D01*
X102100516Y-72100000D01*
X101893484Y-72100000D01*
X101690436Y-72059611D01*
X101499167Y-71980385D01*
X101499166Y-71980385D01*
X101499165Y-71980384D01*
X101327027Y-71865365D01*
X101180635Y-71718973D01*
X101065616Y-71546835D01*
X101065615Y-71546833D01*
X100986389Y-71355564D01*
X100946000Y-71152516D01*
X100946000Y-70945484D01*
X100986389Y-70742436D01*
X101065615Y-70551167D01*
X101152284Y-70421458D01*
X101180635Y-70379027D01*
X101327027Y-70232635D01*
X101499165Y-70117616D01*
X101499167Y-70117615D01*
X101690436Y-70038389D01*
X101893484Y-69998000D01*
X102100516Y-69998000D01*
X102303564Y-70038389D01*
G37*
G36*
X65303564Y-70038389D02*
G01*
X65494833Y-70117615D01*
X65494835Y-70117616D01*
X65666973Y-70232635D01*
X65813365Y-70379027D01*
X65841717Y-70421458D01*
X65928385Y-70551167D01*
X66007611Y-70742436D01*
X66048000Y-70945484D01*
X66048000Y-71152516D01*
X66007611Y-71355564D01*
X65928385Y-71546833D01*
X65928384Y-71546835D01*
X65813365Y-71718973D01*
X65666973Y-71865365D01*
X65494835Y-71980384D01*
X65494834Y-71980385D01*
X65494833Y-71980385D01*
X65303564Y-72059611D01*
X65100516Y-72100000D01*
X64893484Y-72100000D01*
X64690436Y-72059611D01*
X64499167Y-71980385D01*
X64499166Y-71980385D01*
X64499165Y-71980384D01*
X64327027Y-71865365D01*
X64180635Y-71718973D01*
X64065616Y-71546835D01*
X64065615Y-71546833D01*
X63986389Y-71355564D01*
X63946000Y-71152516D01*
X63946000Y-70945484D01*
X63986389Y-70742436D01*
X64065615Y-70551167D01*
X64152284Y-70421458D01*
X64180635Y-70379027D01*
X64327027Y-70232635D01*
X64499165Y-70117616D01*
X64499167Y-70117615D01*
X64690436Y-70038389D01*
X64893484Y-69998000D01*
X65100516Y-69998000D01*
X65303564Y-70038389D01*
G37*
G36*
X75303564Y-70038389D02*
G01*
X75494833Y-70117615D01*
X75494835Y-70117616D01*
X75666973Y-70232635D01*
X75813365Y-70379027D01*
X75841717Y-70421458D01*
X75928385Y-70551167D01*
X76007611Y-70742436D01*
X76048000Y-70945484D01*
X76048000Y-71152516D01*
X76007611Y-71355564D01*
X75928385Y-71546833D01*
X75928384Y-71546835D01*
X75813365Y-71718973D01*
X75666973Y-71865365D01*
X75494835Y-71980384D01*
X75494834Y-71980385D01*
X75494833Y-71980385D01*
X75303564Y-72059611D01*
X75100516Y-72100000D01*
X74893484Y-72100000D01*
X74690436Y-72059611D01*
X74499167Y-71980385D01*
X74499166Y-71980385D01*
X74499165Y-71980384D01*
X74327027Y-71865365D01*
X74180635Y-71718973D01*
X74065616Y-71546835D01*
X74065615Y-71546833D01*
X73986389Y-71355564D01*
X73946000Y-71152516D01*
X73946000Y-70945484D01*
X73986389Y-70742436D01*
X74065615Y-70551167D01*
X74152284Y-70421458D01*
X74180635Y-70379027D01*
X74327027Y-70232635D01*
X74499165Y-70117616D01*
X74499167Y-70117615D01*
X74690436Y-70038389D01*
X74893484Y-69998000D01*
X75100516Y-69998000D01*
X75303564Y-70038389D01*
G37*
G36*
X125894985Y-68542860D02*
G01*
X126007748Y-68565290D01*
X126113490Y-68609090D01*
X126326408Y-68697283D01*
X126613196Y-68888909D01*
X126857091Y-69132804D01*
X127048717Y-69419592D01*
X127180710Y-69738253D01*
X127248000Y-70076540D01*
X127248000Y-70421460D01*
X127222200Y-70551165D01*
X127184154Y-70742436D01*
X127180710Y-70759747D01*
X127048717Y-71078408D01*
X126857091Y-71365196D01*
X126613196Y-71609091D01*
X126326408Y-71800717D01*
X126170333Y-71865365D01*
X126007748Y-71932710D01*
X125894985Y-71955140D01*
X125669460Y-72000000D01*
X125324540Y-72000000D01*
X125099015Y-71955140D01*
X124986252Y-71932710D01*
X124823667Y-71865365D01*
X124667592Y-71800717D01*
X124380804Y-71609091D01*
X124136909Y-71365196D01*
X123945283Y-71078408D01*
X123813290Y-70759747D01*
X123809847Y-70742436D01*
X123771800Y-70551165D01*
X123746000Y-70421460D01*
X123746000Y-70076540D01*
X123813290Y-69738253D01*
X123945283Y-69419592D01*
X124136909Y-69132804D01*
X124380804Y-68888909D01*
X124667592Y-68697283D01*
X124880510Y-68609090D01*
X124986252Y-68565290D01*
X125099015Y-68542860D01*
X125324540Y-68498000D01*
X125669460Y-68498000D01*
X125894985Y-68542860D01*
G37*
G36*
X131110512Y-69352927D02*
G01*
X131259812Y-69382624D01*
X131423784Y-69450544D01*
X131571354Y-69549147D01*
X131696853Y-69674646D01*
X131795456Y-69822216D01*
X131863376Y-69986188D01*
X131898000Y-70160259D01*
X131898000Y-70337741D01*
X131863376Y-70511812D01*
X131795456Y-70675784D01*
X131696853Y-70823354D01*
X131571354Y-70948853D01*
X131423784Y-71047456D01*
X131259812Y-71115376D01*
X131110512Y-71145073D01*
X131085742Y-71150000D01*
X130908258Y-71150000D01*
X130883488Y-71145073D01*
X130734188Y-71115376D01*
X130570216Y-71047456D01*
X130422646Y-70948853D01*
X130297147Y-70823354D01*
X130198544Y-70675784D01*
X130130624Y-70511812D01*
X130096000Y-70337741D01*
X130096000Y-70160259D01*
X130130624Y-69986188D01*
X130198544Y-69822216D01*
X130297147Y-69674646D01*
X130422646Y-69549147D01*
X130570216Y-69450544D01*
X130734188Y-69382624D01*
X130883488Y-69352927D01*
X130908258Y-69348000D01*
X131085742Y-69348000D01*
X131110512Y-69352927D01*
G37*
G36*
X120110512Y-69352927D02*
G01*
X120259812Y-69382624D01*
X120423784Y-69450544D01*
X120571354Y-69549147D01*
X120696853Y-69674646D01*
X120795456Y-69822216D01*
X120863376Y-69986188D01*
X120898000Y-70160259D01*
X120898000Y-70337741D01*
X120863376Y-70511812D01*
X120795456Y-70675784D01*
X120696853Y-70823354D01*
X120571354Y-70948853D01*
X120423784Y-71047456D01*
X120259812Y-71115376D01*
X120110512Y-71145073D01*
X120085742Y-71150000D01*
X119908258Y-71150000D01*
X119883488Y-71145073D01*
X119734188Y-71115376D01*
X119570216Y-71047456D01*
X119422646Y-70948853D01*
X119297147Y-70823354D01*
X119198544Y-70675784D01*
X119130624Y-70511812D01*
X119096000Y-70337741D01*
X119096000Y-70160259D01*
X119130624Y-69986188D01*
X119198544Y-69822216D01*
X119297147Y-69674646D01*
X119422646Y-69549147D01*
X119570216Y-69450544D01*
X119734188Y-69382624D01*
X119883488Y-69352927D01*
X119908258Y-69348000D01*
X120085742Y-69348000D01*
X120110512Y-69352927D01*
G37*
G36*
X56198400Y-70850000D02*
G01*
X54596400Y-70850000D01*
X54596400Y-69248000D01*
X56198400Y-69248000D01*
X56198400Y-70850000D01*
G37*
G36*
X54098000Y-70850000D02*
G01*
X52496000Y-70850000D01*
X52496000Y-69248000D01*
X54098000Y-69248000D01*
X54098000Y-70850000D01*
G37*
G36*
X58298000Y-70850000D02*
G01*
X56696000Y-70850000D01*
X56696000Y-69248000D01*
X58298000Y-69248000D01*
X58298000Y-70850000D01*
G37*
G36*
X60398000Y-70850000D02*
G01*
X58796000Y-70850000D01*
X58796000Y-69248000D01*
X60398000Y-69248000D01*
X60398000Y-70850000D01*
G37*
G36*
X51998000Y-70850000D02*
G01*
X50396000Y-70850000D01*
X50396000Y-69248000D01*
X51998000Y-69248000D01*
X51998000Y-70850000D01*
G37*
G36*
X49898000Y-70850000D02*
G01*
X48296000Y-70850000D01*
X48296000Y-69248000D01*
X49898000Y-69248000D01*
X49898000Y-70850000D01*
G37*
G36*
X88803564Y-67138389D02*
G01*
X88994833Y-67217615D01*
X88994835Y-67217616D01*
X89166973Y-67332635D01*
X89313365Y-67479027D01*
X89428385Y-67651167D01*
X89507611Y-67842436D01*
X89548000Y-68045484D01*
X89548000Y-68252516D01*
X89507611Y-68455564D01*
X89444018Y-68609091D01*
X89428384Y-68646835D01*
X89313365Y-68818973D01*
X89166973Y-68965365D01*
X88994835Y-69080384D01*
X88994834Y-69080385D01*
X88994833Y-69080385D01*
X88803564Y-69159611D01*
X88600516Y-69200000D01*
X88393484Y-69200000D01*
X88190436Y-69159611D01*
X87999167Y-69080385D01*
X87999166Y-69080385D01*
X87999165Y-69080384D01*
X87827027Y-68965365D01*
X87680635Y-68818973D01*
X87565616Y-68646835D01*
X87549982Y-68609091D01*
X87486389Y-68455564D01*
X87446000Y-68252516D01*
X87446000Y-68045484D01*
X87486389Y-67842436D01*
X87565615Y-67651167D01*
X87680635Y-67479027D01*
X87827027Y-67332635D01*
X87999165Y-67217616D01*
X87999167Y-67217615D01*
X88190436Y-67138389D01*
X88393484Y-67098000D01*
X88600516Y-67098000D01*
X88803564Y-67138389D01*
G37*
G36*
X107394985Y-65542860D02*
G01*
X107507748Y-65565290D01*
X107639741Y-65619963D01*
X107826408Y-65697283D01*
X108113196Y-65888909D01*
X108357091Y-66132804D01*
X108548717Y-66419592D01*
X108680710Y-66738253D01*
X108748000Y-67076540D01*
X108748000Y-67421460D01*
X108680710Y-67759747D01*
X108548717Y-68078408D01*
X108357091Y-68365196D01*
X108113196Y-68609091D01*
X107826408Y-68800717D01*
X107639741Y-68878037D01*
X107507748Y-68932710D01*
X107394985Y-68955140D01*
X107169460Y-69000000D01*
X106824540Y-69000000D01*
X106599015Y-68955140D01*
X106486252Y-68932710D01*
X106354259Y-68878037D01*
X106167592Y-68800717D01*
X105880804Y-68609091D01*
X105636909Y-68365196D01*
X105445283Y-68078408D01*
X105313290Y-67759747D01*
X105246000Y-67421460D01*
X105246000Y-67076540D01*
X105313290Y-66738253D01*
X105445283Y-66419592D01*
X105636909Y-66132804D01*
X105880804Y-65888909D01*
X106167592Y-65697283D01*
X106354259Y-65619963D01*
X106486252Y-65565290D01*
X106599015Y-65542860D01*
X106824540Y-65498000D01*
X107169460Y-65498000D01*
X107394985Y-65542860D01*
G37*
G36*
X70394985Y-65542860D02*
G01*
X70507748Y-65565290D01*
X70639741Y-65619963D01*
X70826408Y-65697283D01*
X71113196Y-65888909D01*
X71357091Y-66132804D01*
X71548717Y-66419592D01*
X71680710Y-66738253D01*
X71748000Y-67076540D01*
X71748000Y-67421460D01*
X71680710Y-67759747D01*
X71548717Y-68078408D01*
X71357091Y-68365196D01*
X71113196Y-68609091D01*
X70826408Y-68800717D01*
X70639741Y-68878037D01*
X70507748Y-68932710D01*
X70394985Y-68955140D01*
X70169460Y-69000000D01*
X69824540Y-69000000D01*
X69599015Y-68955140D01*
X69486252Y-68932710D01*
X69354259Y-68878037D01*
X69167592Y-68800717D01*
X68880804Y-68609091D01*
X68636909Y-68365196D01*
X68445283Y-68078408D01*
X68313290Y-67759747D01*
X68246000Y-67421460D01*
X68246000Y-67076540D01*
X68313290Y-66738253D01*
X68445283Y-66419592D01*
X68636909Y-66132804D01*
X68880804Y-65888909D01*
X69167592Y-65697283D01*
X69354259Y-65619963D01*
X69486252Y-65565290D01*
X69599015Y-65542860D01*
X69824540Y-65498000D01*
X70169460Y-65498000D01*
X70394985Y-65542860D01*
G37*
G36*
X75610512Y-66352927D02*
G01*
X75759812Y-66382624D01*
X75923784Y-66450544D01*
X76071354Y-66549147D01*
X76196853Y-66674646D01*
X76295456Y-66822216D01*
X76363376Y-66986188D01*
X76398000Y-67160259D01*
X76398000Y-67337741D01*
X76363376Y-67511812D01*
X76295456Y-67675784D01*
X76196853Y-67823354D01*
X76071354Y-67948853D01*
X75923784Y-68047456D01*
X75759812Y-68115376D01*
X75610512Y-68145073D01*
X75585742Y-68150000D01*
X75408258Y-68150000D01*
X75383488Y-68145073D01*
X75234188Y-68115376D01*
X75070216Y-68047456D01*
X74922646Y-67948853D01*
X74797147Y-67823354D01*
X74698544Y-67675784D01*
X74630624Y-67511812D01*
X74596000Y-67337741D01*
X74596000Y-67160259D01*
X74630624Y-66986188D01*
X74698544Y-66822216D01*
X74797147Y-66674646D01*
X74922646Y-66549147D01*
X75070216Y-66450544D01*
X75234188Y-66382624D01*
X75383488Y-66352927D01*
X75408258Y-66348000D01*
X75585742Y-66348000D01*
X75610512Y-66352927D01*
G37*
G36*
X64610512Y-66352927D02*
G01*
X64759812Y-66382624D01*
X64923784Y-66450544D01*
X65071354Y-66549147D01*
X65196853Y-66674646D01*
X65295456Y-66822216D01*
X65363376Y-66986188D01*
X65398000Y-67160259D01*
X65398000Y-67337741D01*
X65363376Y-67511812D01*
X65295456Y-67675784D01*
X65196853Y-67823354D01*
X65071354Y-67948853D01*
X64923784Y-68047456D01*
X64759812Y-68115376D01*
X64610512Y-68145073D01*
X64585742Y-68150000D01*
X64408258Y-68150000D01*
X64383488Y-68145073D01*
X64234188Y-68115376D01*
X64070216Y-68047456D01*
X63922646Y-67948853D01*
X63797147Y-67823354D01*
X63698544Y-67675784D01*
X63630624Y-67511812D01*
X63596000Y-67337741D01*
X63596000Y-67160259D01*
X63630624Y-66986188D01*
X63698544Y-66822216D01*
X63797147Y-66674646D01*
X63922646Y-66549147D01*
X64070216Y-66450544D01*
X64234188Y-66382624D01*
X64383488Y-66352927D01*
X64408258Y-66348000D01*
X64585742Y-66348000D01*
X64610512Y-66352927D01*
G37*
G36*
X112610512Y-66352927D02*
G01*
X112759812Y-66382624D01*
X112923784Y-66450544D01*
X113071354Y-66549147D01*
X113196853Y-66674646D01*
X113295456Y-66822216D01*
X113363376Y-66986188D01*
X113398000Y-67160259D01*
X113398000Y-67337741D01*
X113363376Y-67511812D01*
X113295456Y-67675784D01*
X113196853Y-67823354D01*
X113071354Y-67948853D01*
X112923784Y-68047456D01*
X112759812Y-68115376D01*
X112610512Y-68145073D01*
X112585742Y-68150000D01*
X112408258Y-68150000D01*
X112383488Y-68145073D01*
X112234188Y-68115376D01*
X112070216Y-68047456D01*
X111922646Y-67948853D01*
X111797147Y-67823354D01*
X111698544Y-67675784D01*
X111630624Y-67511812D01*
X111596000Y-67337741D01*
X111596000Y-67160259D01*
X111630624Y-66986188D01*
X111698544Y-66822216D01*
X111797147Y-66674646D01*
X111922646Y-66549147D01*
X112070216Y-66450544D01*
X112234188Y-66382624D01*
X112383488Y-66352927D01*
X112408258Y-66348000D01*
X112585742Y-66348000D01*
X112610512Y-66352927D01*
G37*
G36*
X101610512Y-66352927D02*
G01*
X101759812Y-66382624D01*
X101923784Y-66450544D01*
X102071354Y-66549147D01*
X102196853Y-66674646D01*
X102295456Y-66822216D01*
X102363376Y-66986188D01*
X102398000Y-67160259D01*
X102398000Y-67337741D01*
X102363376Y-67511812D01*
X102295456Y-67675784D01*
X102196853Y-67823354D01*
X102071354Y-67948853D01*
X101923784Y-68047456D01*
X101759812Y-68115376D01*
X101610512Y-68145073D01*
X101585742Y-68150000D01*
X101408258Y-68150000D01*
X101383488Y-68145073D01*
X101234188Y-68115376D01*
X101070216Y-68047456D01*
X100922646Y-67948853D01*
X100797147Y-67823354D01*
X100698544Y-67675784D01*
X100630624Y-67511812D01*
X100596000Y-67337741D01*
X100596000Y-67160259D01*
X100630624Y-66986188D01*
X100698544Y-66822216D01*
X100797147Y-66674646D01*
X100922646Y-66549147D01*
X101070216Y-66450544D01*
X101234188Y-66382624D01*
X101383488Y-66352927D01*
X101408258Y-66348000D01*
X101585742Y-66348000D01*
X101610512Y-66352927D01*
G37*
G36*
X93803564Y-65038389D02*
G01*
X93994833Y-65117615D01*
X93994835Y-65117616D01*
X94166973Y-65232635D01*
X94313365Y-65379027D01*
X94428385Y-65551167D01*
X94507611Y-65742436D01*
X94548000Y-65945484D01*
X94548000Y-66152516D01*
X94507611Y-66355564D01*
X94468269Y-66450544D01*
X94428384Y-66546835D01*
X94313365Y-66718973D01*
X94166973Y-66865365D01*
X93994835Y-66980384D01*
X93994834Y-66980385D01*
X93994833Y-66980385D01*
X93803564Y-67059611D01*
X93600516Y-67100000D01*
X93393484Y-67100000D01*
X93190436Y-67059611D01*
X92999167Y-66980385D01*
X92999166Y-66980385D01*
X92999165Y-66980384D01*
X92827027Y-66865365D01*
X92680635Y-66718973D01*
X92565616Y-66546835D01*
X92525731Y-66450544D01*
X92486389Y-66355564D01*
X92446000Y-66152516D01*
X92446000Y-65945484D01*
X92486389Y-65742436D01*
X92565615Y-65551167D01*
X92680635Y-65379027D01*
X92827027Y-65232635D01*
X92999165Y-65117616D01*
X92999167Y-65117615D01*
X93190436Y-65038389D01*
X93393484Y-64998000D01*
X93600516Y-64998000D01*
X93803564Y-65038389D01*
G37*
G36*
X83803564Y-65038389D02*
G01*
X83994833Y-65117615D01*
X83994835Y-65117616D01*
X84166973Y-65232635D01*
X84313365Y-65379027D01*
X84428385Y-65551167D01*
X84507611Y-65742436D01*
X84548000Y-65945484D01*
X84548000Y-66152516D01*
X84507611Y-66355564D01*
X84468269Y-66450544D01*
X84428384Y-66546835D01*
X84313365Y-66718973D01*
X84166973Y-66865365D01*
X83994835Y-66980384D01*
X83994834Y-66980385D01*
X83994833Y-66980385D01*
X83803564Y-67059611D01*
X83600516Y-67100000D01*
X83393484Y-67100000D01*
X83190436Y-67059611D01*
X82999167Y-66980385D01*
X82999166Y-66980385D01*
X82999165Y-66980384D01*
X82827027Y-66865365D01*
X82680635Y-66718973D01*
X82565616Y-66546835D01*
X82525731Y-66450544D01*
X82486389Y-66355564D01*
X82446000Y-66152516D01*
X82446000Y-65945484D01*
X82486389Y-65742436D01*
X82565615Y-65551167D01*
X82680635Y-65379027D01*
X82827027Y-65232635D01*
X82999165Y-65117616D01*
X82999167Y-65117615D01*
X83190436Y-65038389D01*
X83393484Y-64998000D01*
X83600516Y-64998000D01*
X83803564Y-65038389D01*
G37*
G36*
X88894985Y-60542860D02*
G01*
X89007748Y-60565290D01*
X89139741Y-60619963D01*
X89326408Y-60697283D01*
X89613196Y-60888909D01*
X89857091Y-61132804D01*
X90048717Y-61419592D01*
X90126037Y-61606259D01*
X90172803Y-61719162D01*
X90180710Y-61738253D01*
X90248000Y-62076540D01*
X90248000Y-62421460D01*
X90180710Y-62759747D01*
X90048717Y-63078408D01*
X89857091Y-63365196D01*
X89613196Y-63609091D01*
X89326408Y-63800717D01*
X89139741Y-63878037D01*
X89007748Y-63932710D01*
X88894985Y-63955140D01*
X88669460Y-64000000D01*
X88324540Y-64000000D01*
X88099015Y-63955140D01*
X87986252Y-63932710D01*
X87854259Y-63878037D01*
X87667592Y-63800717D01*
X87380804Y-63609091D01*
X87136909Y-63365196D01*
X86945283Y-63078408D01*
X86813290Y-62759747D01*
X86746000Y-62421460D01*
X86746000Y-62076540D01*
X86813290Y-61738253D01*
X86821198Y-61719162D01*
X86867963Y-61606259D01*
X86945283Y-61419592D01*
X87136909Y-61132804D01*
X87380804Y-60888909D01*
X87667592Y-60697283D01*
X87854259Y-60619963D01*
X87986252Y-60565290D01*
X88099015Y-60542860D01*
X88324540Y-60498000D01*
X88669460Y-60498000D01*
X88894985Y-60542860D01*
G37*
G36*
X49330642Y-61658781D02*
G01*
X49476414Y-61719162D01*
X49476416Y-61719163D01*
X49607608Y-61806822D01*
X49719178Y-61918392D01*
X49764477Y-61986188D01*
X49806838Y-62049586D01*
X49867219Y-62195358D01*
X49898000Y-62350107D01*
X49898000Y-62507893D01*
X49867219Y-62662642D01*
X49826996Y-62759748D01*
X49806837Y-62808416D01*
X49719178Y-62939608D01*
X49607608Y-63051178D01*
X49476416Y-63138837D01*
X49476415Y-63138838D01*
X49476414Y-63138838D01*
X49330642Y-63199219D01*
X49175893Y-63230000D01*
X49018107Y-63230000D01*
X48863358Y-63199219D01*
X48717586Y-63138838D01*
X48717585Y-63138838D01*
X48717584Y-63138837D01*
X48586392Y-63051178D01*
X48474822Y-62939608D01*
X48387163Y-62808416D01*
X48367004Y-62759748D01*
X48326781Y-62662642D01*
X48296000Y-62507893D01*
X48296000Y-62350107D01*
X48326781Y-62195358D01*
X48387162Y-62049586D01*
X48429523Y-61986188D01*
X48474822Y-61918392D01*
X48586392Y-61806822D01*
X48717584Y-61719163D01*
X48717586Y-61719162D01*
X48863358Y-61658781D01*
X49018107Y-61628000D01*
X49175893Y-61628000D01*
X49330642Y-61658781D01*
G37*
G36*
X59830642Y-61658781D02*
G01*
X59976414Y-61719162D01*
X59976416Y-61719163D01*
X60107608Y-61806822D01*
X60219178Y-61918392D01*
X60264477Y-61986188D01*
X60306838Y-62049586D01*
X60367219Y-62195358D01*
X60398000Y-62350107D01*
X60398000Y-62507893D01*
X60367219Y-62662642D01*
X60326996Y-62759748D01*
X60306837Y-62808416D01*
X60219178Y-62939608D01*
X60107608Y-63051178D01*
X59976416Y-63138837D01*
X59976415Y-63138838D01*
X59976414Y-63138838D01*
X59830642Y-63199219D01*
X59675893Y-63230000D01*
X59518107Y-63230000D01*
X59363358Y-63199219D01*
X59217586Y-63138838D01*
X59217585Y-63138838D01*
X59217584Y-63138837D01*
X59086392Y-63051178D01*
X58974822Y-62939608D01*
X58887163Y-62808416D01*
X58867004Y-62759748D01*
X58826781Y-62662642D01*
X58796000Y-62507893D01*
X58796000Y-62350107D01*
X58826781Y-62195358D01*
X58887162Y-62049586D01*
X58929523Y-61986188D01*
X58974822Y-61918392D01*
X59086392Y-61806822D01*
X59217584Y-61719163D01*
X59217586Y-61719162D01*
X59363358Y-61658781D01*
X59518107Y-61628000D01*
X59675893Y-61628000D01*
X59830642Y-61658781D01*
G37*
G36*
X57730642Y-61658781D02*
G01*
X57876414Y-61719162D01*
X57876416Y-61719163D01*
X58007608Y-61806822D01*
X58119178Y-61918392D01*
X58164477Y-61986188D01*
X58206838Y-62049586D01*
X58267219Y-62195358D01*
X58298000Y-62350107D01*
X58298000Y-62507893D01*
X58267219Y-62662642D01*
X58226996Y-62759748D01*
X58206837Y-62808416D01*
X58119178Y-62939608D01*
X58007608Y-63051178D01*
X57876416Y-63138837D01*
X57876415Y-63138838D01*
X57876414Y-63138838D01*
X57730642Y-63199219D01*
X57575893Y-63230000D01*
X57418107Y-63230000D01*
X57263358Y-63199219D01*
X57117586Y-63138838D01*
X57117585Y-63138838D01*
X57117584Y-63138837D01*
X56986392Y-63051178D01*
X56874822Y-62939608D01*
X56787163Y-62808416D01*
X56767004Y-62759748D01*
X56726781Y-62662642D01*
X56696000Y-62507893D01*
X56696000Y-62350107D01*
X56726781Y-62195358D01*
X56787162Y-62049586D01*
X56829523Y-61986188D01*
X56874822Y-61918392D01*
X56986392Y-61806822D01*
X57117584Y-61719163D01*
X57117586Y-61719162D01*
X57263358Y-61658781D01*
X57418107Y-61628000D01*
X57575893Y-61628000D01*
X57730642Y-61658781D01*
G37*
G36*
X55631042Y-61658781D02*
G01*
X55776814Y-61719162D01*
X55776816Y-61719163D01*
X55908008Y-61806822D01*
X56019578Y-61918392D01*
X56064877Y-61986188D01*
X56107238Y-62049586D01*
X56167619Y-62195358D01*
X56198400Y-62350107D01*
X56198400Y-62507893D01*
X56167619Y-62662642D01*
X56127396Y-62759748D01*
X56107237Y-62808416D01*
X56019578Y-62939608D01*
X55908008Y-63051178D01*
X55776816Y-63138837D01*
X55776815Y-63138838D01*
X55776814Y-63138838D01*
X55631042Y-63199219D01*
X55476293Y-63230000D01*
X55318507Y-63230000D01*
X55163758Y-63199219D01*
X55017986Y-63138838D01*
X55017985Y-63138838D01*
X55017984Y-63138837D01*
X54886792Y-63051178D01*
X54775222Y-62939608D01*
X54687563Y-62808416D01*
X54667404Y-62759748D01*
X54627181Y-62662642D01*
X54596400Y-62507893D01*
X54596400Y-62350107D01*
X54627181Y-62195358D01*
X54687562Y-62049586D01*
X54729923Y-61986188D01*
X54775222Y-61918392D01*
X54886792Y-61806822D01*
X55017984Y-61719163D01*
X55017986Y-61719162D01*
X55163758Y-61658781D01*
X55318507Y-61628000D01*
X55476293Y-61628000D01*
X55631042Y-61658781D01*
G37*
G36*
X53530642Y-61658781D02*
G01*
X53676414Y-61719162D01*
X53676416Y-61719163D01*
X53807608Y-61806822D01*
X53919178Y-61918392D01*
X53964477Y-61986188D01*
X54006838Y-62049586D01*
X54067219Y-62195358D01*
X54098000Y-62350107D01*
X54098000Y-62507893D01*
X54067219Y-62662642D01*
X54026996Y-62759748D01*
X54006837Y-62808416D01*
X53919178Y-62939608D01*
X53807608Y-63051178D01*
X53676416Y-63138837D01*
X53676415Y-63138838D01*
X53676414Y-63138838D01*
X53530642Y-63199219D01*
X53375893Y-63230000D01*
X53218107Y-63230000D01*
X53063358Y-63199219D01*
X52917586Y-63138838D01*
X52917585Y-63138838D01*
X52917584Y-63138837D01*
X52786392Y-63051178D01*
X52674822Y-62939608D01*
X52587163Y-62808416D01*
X52567004Y-62759748D01*
X52526781Y-62662642D01*
X52496000Y-62507893D01*
X52496000Y-62350107D01*
X52526781Y-62195358D01*
X52587162Y-62049586D01*
X52629523Y-61986188D01*
X52674822Y-61918392D01*
X52786392Y-61806822D01*
X52917584Y-61719163D01*
X52917586Y-61719162D01*
X53063358Y-61658781D01*
X53218107Y-61628000D01*
X53375893Y-61628000D01*
X53530642Y-61658781D01*
G37*
G36*
X51430642Y-61658781D02*
G01*
X51576414Y-61719162D01*
X51576416Y-61719163D01*
X51707608Y-61806822D01*
X51819178Y-61918392D01*
X51864477Y-61986188D01*
X51906838Y-62049586D01*
X51967219Y-62195358D01*
X51998000Y-62350107D01*
X51998000Y-62507893D01*
X51967219Y-62662642D01*
X51926996Y-62759748D01*
X51906837Y-62808416D01*
X51819178Y-62939608D01*
X51707608Y-63051178D01*
X51576416Y-63138837D01*
X51576415Y-63138838D01*
X51576414Y-63138838D01*
X51430642Y-63199219D01*
X51275893Y-63230000D01*
X51118107Y-63230000D01*
X50963358Y-63199219D01*
X50817586Y-63138838D01*
X50817585Y-63138838D01*
X50817584Y-63138837D01*
X50686392Y-63051178D01*
X50574822Y-62939608D01*
X50487163Y-62808416D01*
X50467004Y-62759748D01*
X50426781Y-62662642D01*
X50396000Y-62507893D01*
X50396000Y-62350107D01*
X50426781Y-62195358D01*
X50487162Y-62049586D01*
X50529523Y-61986188D01*
X50574822Y-61918392D01*
X50686392Y-61806822D01*
X50817584Y-61719163D01*
X50817586Y-61719162D01*
X50963358Y-61658781D01*
X51118107Y-61628000D01*
X51275893Y-61628000D01*
X51430642Y-61658781D01*
G37*
G36*
X94110512Y-61352927D02*
G01*
X94259812Y-61382624D01*
X94423784Y-61450544D01*
X94571354Y-61549147D01*
X94696853Y-61674646D01*
X94795456Y-61822216D01*
X94863376Y-61986188D01*
X94898000Y-62160259D01*
X94898000Y-62337741D01*
X94863376Y-62511812D01*
X94795456Y-62675784D01*
X94696853Y-62823354D01*
X94571354Y-62948853D01*
X94423784Y-63047456D01*
X94259812Y-63115376D01*
X94110512Y-63145073D01*
X94085742Y-63150000D01*
X93908258Y-63150000D01*
X93883488Y-63145073D01*
X93734188Y-63115376D01*
X93570216Y-63047456D01*
X93422646Y-62948853D01*
X93297147Y-62823354D01*
X93198544Y-62675784D01*
X93130624Y-62511812D01*
X93096000Y-62337741D01*
X93096000Y-62160259D01*
X93130624Y-61986188D01*
X93198544Y-61822216D01*
X93297147Y-61674646D01*
X93422646Y-61549147D01*
X93570216Y-61450544D01*
X93734188Y-61382624D01*
X93883488Y-61352927D01*
X93908258Y-61348000D01*
X94085742Y-61348000D01*
X94110512Y-61352927D01*
G37*
G36*
X83110512Y-61352927D02*
G01*
X83259812Y-61382624D01*
X83423784Y-61450544D01*
X83571354Y-61549147D01*
X83696853Y-61674646D01*
X83795456Y-61822216D01*
X83863376Y-61986188D01*
X83898000Y-62160259D01*
X83898000Y-62337741D01*
X83863376Y-62511812D01*
X83795456Y-62675784D01*
X83696853Y-62823354D01*
X83571354Y-62948853D01*
X83423784Y-63047456D01*
X83259812Y-63115376D01*
X83110512Y-63145073D01*
X83085742Y-63150000D01*
X82908258Y-63150000D01*
X82883488Y-63145073D01*
X82734188Y-63115376D01*
X82570216Y-63047456D01*
X82422646Y-62948853D01*
X82297147Y-62823354D01*
X82198544Y-62675784D01*
X82130624Y-62511812D01*
X82096000Y-62337741D01*
X82096000Y-62160259D01*
X82130624Y-61986188D01*
X82198544Y-61822216D01*
X82297147Y-61674646D01*
X82422646Y-61549147D01*
X82570216Y-61450544D01*
X82734188Y-61382624D01*
X82883488Y-61352927D01*
X82908258Y-61348000D01*
X83085742Y-61348000D01*
X83110512Y-61352927D01*
G37*
G36*
X129500512Y-58587927D02*
G01*
X129649812Y-58617624D01*
X129813784Y-58685544D01*
X129961354Y-58784147D01*
X130086853Y-58909646D01*
X130185456Y-59057216D01*
X130253376Y-59221188D01*
X130288000Y-59395259D01*
X130288000Y-59572741D01*
X130253376Y-59746812D01*
X130185456Y-59910784D01*
X130086853Y-60058354D01*
X129961354Y-60183853D01*
X129813784Y-60282456D01*
X129649812Y-60350376D01*
X129500512Y-60380073D01*
X129475742Y-60385000D01*
X129298258Y-60385000D01*
X129273488Y-60380073D01*
X129124188Y-60350376D01*
X128960216Y-60282456D01*
X128812646Y-60183853D01*
X128687147Y-60058354D01*
X128588544Y-59910784D01*
X128520624Y-59746812D01*
X128486000Y-59572741D01*
X128486000Y-59395259D01*
X128520624Y-59221188D01*
X128588544Y-59057216D01*
X128687147Y-58909646D01*
X128812646Y-58784147D01*
X128960216Y-58685544D01*
X129124188Y-58617624D01*
X129273488Y-58587927D01*
X129298258Y-58583000D01*
X129475742Y-58583000D01*
X129500512Y-58587927D01*
G37*
G36*
X126960512Y-58587927D02*
G01*
X127109812Y-58617624D01*
X127273784Y-58685544D01*
X127421354Y-58784147D01*
X127546853Y-58909646D01*
X127645456Y-59057216D01*
X127713376Y-59221188D01*
X127748000Y-59395259D01*
X127748000Y-59572741D01*
X127713376Y-59746812D01*
X127645456Y-59910784D01*
X127546853Y-60058354D01*
X127421354Y-60183853D01*
X127273784Y-60282456D01*
X127109812Y-60350376D01*
X126960512Y-60380073D01*
X126935742Y-60385000D01*
X126758258Y-60385000D01*
X126733488Y-60380073D01*
X126584188Y-60350376D01*
X126420216Y-60282456D01*
X126272646Y-60183853D01*
X126147147Y-60058354D01*
X126048544Y-59910784D01*
X125980624Y-59746812D01*
X125946000Y-59572741D01*
X125946000Y-59395259D01*
X125980624Y-59221188D01*
X126048544Y-59057216D01*
X126147147Y-58909646D01*
X126272646Y-58784147D01*
X126420216Y-58685544D01*
X126584188Y-58617624D01*
X126733488Y-58587927D01*
X126758258Y-58583000D01*
X126935742Y-58583000D01*
X126960512Y-58587927D01*
G37*
G36*
X124420512Y-58587927D02*
G01*
X124569812Y-58617624D01*
X124733784Y-58685544D01*
X124881354Y-58784147D01*
X125006853Y-58909646D01*
X125105456Y-59057216D01*
X125173376Y-59221188D01*
X125208000Y-59395259D01*
X125208000Y-59572741D01*
X125173376Y-59746812D01*
X125105456Y-59910784D01*
X125006853Y-60058354D01*
X124881354Y-60183853D01*
X124733784Y-60282456D01*
X124569812Y-60350376D01*
X124420512Y-60380073D01*
X124395742Y-60385000D01*
X124218258Y-60385000D01*
X124193488Y-60380073D01*
X124044188Y-60350376D01*
X123880216Y-60282456D01*
X123732646Y-60183853D01*
X123607147Y-60058354D01*
X123508544Y-59910784D01*
X123440624Y-59746812D01*
X123406000Y-59572741D01*
X123406000Y-59395259D01*
X123440624Y-59221188D01*
X123508544Y-59057216D01*
X123607147Y-58909646D01*
X123732646Y-58784147D01*
X123880216Y-58685544D01*
X124044188Y-58617624D01*
X124193488Y-58587927D01*
X124218258Y-58583000D01*
X124395742Y-58583000D01*
X124420512Y-58587927D01*
G37*
G36*
X132828000Y-60385000D02*
G01*
X131026000Y-60385000D01*
X131026000Y-58583000D01*
X132828000Y-58583000D01*
X132828000Y-60385000D01*
G37*
G36*
X129500512Y-56047927D02*
G01*
X129649812Y-56077624D01*
X129813784Y-56145544D01*
X129961354Y-56244147D01*
X130086853Y-56369646D01*
X130185456Y-56517216D01*
X130253376Y-56681188D01*
X130288000Y-56855259D01*
X130288000Y-57032741D01*
X130253376Y-57206812D01*
X130185456Y-57370784D01*
X130086853Y-57518354D01*
X129961354Y-57643853D01*
X129813784Y-57742456D01*
X129649812Y-57810376D01*
X129500512Y-57840073D01*
X129475742Y-57845000D01*
X129298258Y-57845000D01*
X129273488Y-57840073D01*
X129124188Y-57810376D01*
X128960216Y-57742456D01*
X128812646Y-57643853D01*
X128687147Y-57518354D01*
X128588544Y-57370784D01*
X128520624Y-57206812D01*
X128486000Y-57032741D01*
X128486000Y-56855259D01*
X128520624Y-56681188D01*
X128588544Y-56517216D01*
X128687147Y-56369646D01*
X128812646Y-56244147D01*
X128960216Y-56145544D01*
X129124188Y-56077624D01*
X129273488Y-56047927D01*
X129298258Y-56043000D01*
X129475742Y-56043000D01*
X129500512Y-56047927D01*
G37*
G36*
X132040512Y-56047927D02*
G01*
X132189812Y-56077624D01*
X132353784Y-56145544D01*
X132501354Y-56244147D01*
X132626853Y-56369646D01*
X132725456Y-56517216D01*
X132793376Y-56681188D01*
X132828000Y-56855259D01*
X132828000Y-57032741D01*
X132793376Y-57206812D01*
X132725456Y-57370784D01*
X132626853Y-57518354D01*
X132501354Y-57643853D01*
X132353784Y-57742456D01*
X132189812Y-57810376D01*
X132040512Y-57840073D01*
X132015742Y-57845000D01*
X131838258Y-57845000D01*
X131813488Y-57840073D01*
X131664188Y-57810376D01*
X131500216Y-57742456D01*
X131352646Y-57643853D01*
X131227147Y-57518354D01*
X131128544Y-57370784D01*
X131060624Y-57206812D01*
X131026000Y-57032741D01*
X131026000Y-56855259D01*
X131060624Y-56681188D01*
X131128544Y-56517216D01*
X131227147Y-56369646D01*
X131352646Y-56244147D01*
X131500216Y-56145544D01*
X131664188Y-56077624D01*
X131813488Y-56047927D01*
X131838258Y-56043000D01*
X132015742Y-56043000D01*
X132040512Y-56047927D01*
G37*
G36*
X124420512Y-56047927D02*
G01*
X124569812Y-56077624D01*
X124733784Y-56145544D01*
X124881354Y-56244147D01*
X125006853Y-56369646D01*
X125105456Y-56517216D01*
X125173376Y-56681188D01*
X125208000Y-56855259D01*
X125208000Y-57032741D01*
X125173376Y-57206812D01*
X125105456Y-57370784D01*
X125006853Y-57518354D01*
X124881354Y-57643853D01*
X124733784Y-57742456D01*
X124569812Y-57810376D01*
X124420512Y-57840073D01*
X124395742Y-57845000D01*
X124218258Y-57845000D01*
X124193488Y-57840073D01*
X124044188Y-57810376D01*
X123880216Y-57742456D01*
X123732646Y-57643853D01*
X123607147Y-57518354D01*
X123508544Y-57370784D01*
X123440624Y-57206812D01*
X123406000Y-57032741D01*
X123406000Y-56855259D01*
X123440624Y-56681188D01*
X123508544Y-56517216D01*
X123607147Y-56369646D01*
X123732646Y-56244147D01*
X123880216Y-56145544D01*
X124044188Y-56077624D01*
X124193488Y-56047927D01*
X124218258Y-56043000D01*
X124395742Y-56043000D01*
X124420512Y-56047927D01*
G37*
G36*
X126960512Y-56047927D02*
G01*
X127109812Y-56077624D01*
X127273784Y-56145544D01*
X127421354Y-56244147D01*
X127546853Y-56369646D01*
X127645456Y-56517216D01*
X127713376Y-56681188D01*
X127748000Y-56855259D01*
X127748000Y-57032741D01*
X127713376Y-57206812D01*
X127645456Y-57370784D01*
X127546853Y-57518354D01*
X127421354Y-57643853D01*
X127273784Y-57742456D01*
X127109812Y-57810376D01*
X126960512Y-57840073D01*
X126935742Y-57845000D01*
X126758258Y-57845000D01*
X126733488Y-57840073D01*
X126584188Y-57810376D01*
X126420216Y-57742456D01*
X126272646Y-57643853D01*
X126147147Y-57518354D01*
X126048544Y-57370784D01*
X125980624Y-57206812D01*
X125946000Y-57032741D01*
X125946000Y-56855259D01*
X125980624Y-56681188D01*
X126048544Y-56517216D01*
X126147147Y-56369646D01*
X126272646Y-56244147D01*
X126420216Y-56145544D01*
X126584188Y-56077624D01*
X126733488Y-56047927D01*
X126758258Y-56043000D01*
X126935742Y-56043000D01*
X126960512Y-56047927D01*
G37*
G36*
X77737483Y-55417335D02*
G01*
X77906240Y-55487236D01*
X78058118Y-55588718D01*
X78187282Y-55717882D01*
X78288764Y-55869760D01*
X78358665Y-56038517D01*
X78394300Y-56217668D01*
X78394300Y-56400332D01*
X78358665Y-56579483D01*
X78288764Y-56748240D01*
X78187282Y-56900118D01*
X78058118Y-57029282D01*
X77906240Y-57130764D01*
X77737483Y-57200665D01*
X77558332Y-57236300D01*
X77375668Y-57236300D01*
X77196517Y-57200665D01*
X77027760Y-57130764D01*
X76875882Y-57029282D01*
X76746718Y-56900118D01*
X76645236Y-56748240D01*
X76575335Y-56579483D01*
X76539700Y-56400332D01*
X76539700Y-56217668D01*
X76575335Y-56038517D01*
X76645236Y-55869760D01*
X76746718Y-55717882D01*
X76875882Y-55588718D01*
X77027760Y-55487236D01*
X77196517Y-55417335D01*
X77375668Y-55381700D01*
X77558332Y-55381700D01*
X77737483Y-55417335D01*
G37*
G36*
X75197483Y-55417335D02*
G01*
X75366240Y-55487236D01*
X75518118Y-55588718D01*
X75647282Y-55717882D01*
X75748764Y-55869760D01*
X75818665Y-56038517D01*
X75854300Y-56217668D01*
X75854300Y-56400332D01*
X75818665Y-56579483D01*
X75748764Y-56748240D01*
X75647282Y-56900118D01*
X75518118Y-57029282D01*
X75366240Y-57130764D01*
X75197483Y-57200665D01*
X75018332Y-57236300D01*
X74835668Y-57236300D01*
X74656517Y-57200665D01*
X74487760Y-57130764D01*
X74335882Y-57029282D01*
X74206718Y-56900118D01*
X74105236Y-56748240D01*
X74035335Y-56579483D01*
X73999700Y-56400332D01*
X73999700Y-56217668D01*
X74035335Y-56038517D01*
X74105236Y-55869760D01*
X74206718Y-55717882D01*
X74335882Y-55588718D01*
X74487760Y-55487236D01*
X74656517Y-55417335D01*
X74835668Y-55381700D01*
X75018332Y-55381700D01*
X75197483Y-55417335D01*
G37*
G36*
X67577483Y-55417335D02*
G01*
X67746240Y-55487236D01*
X67898118Y-55588718D01*
X68027282Y-55717882D01*
X68128764Y-55869760D01*
X68198665Y-56038517D01*
X68234300Y-56217668D01*
X68234300Y-56400332D01*
X68198665Y-56579483D01*
X68128764Y-56748240D01*
X68027282Y-56900118D01*
X67898118Y-57029282D01*
X67746240Y-57130764D01*
X67577483Y-57200665D01*
X67398332Y-57236300D01*
X67215668Y-57236300D01*
X67036517Y-57200665D01*
X66867760Y-57130764D01*
X66715882Y-57029282D01*
X66586718Y-56900118D01*
X66485236Y-56748240D01*
X66415335Y-56579483D01*
X66379700Y-56400332D01*
X66379700Y-56217668D01*
X66415335Y-56038517D01*
X66485236Y-55869760D01*
X66586718Y-55717882D01*
X66715882Y-55588718D01*
X66867760Y-55487236D01*
X67036517Y-55417335D01*
X67215668Y-55381700D01*
X67398332Y-55381700D01*
X67577483Y-55417335D01*
G37*
G36*
X70117483Y-55417335D02*
G01*
X70286240Y-55487236D01*
X70438118Y-55588718D01*
X70567282Y-55717882D01*
X70668764Y-55869760D01*
X70738665Y-56038517D01*
X70774300Y-56217668D01*
X70774300Y-56400332D01*
X70738665Y-56579483D01*
X70668764Y-56748240D01*
X70567282Y-56900118D01*
X70438118Y-57029282D01*
X70286240Y-57130764D01*
X70117483Y-57200665D01*
X69938332Y-57236300D01*
X69755668Y-57236300D01*
X69576517Y-57200665D01*
X69407760Y-57130764D01*
X69255882Y-57029282D01*
X69126718Y-56900118D01*
X69025236Y-56748240D01*
X68955335Y-56579483D01*
X68919700Y-56400332D01*
X68919700Y-56217668D01*
X68955335Y-56038517D01*
X69025236Y-55869760D01*
X69126718Y-55717882D01*
X69255882Y-55588718D01*
X69407760Y-55487236D01*
X69576517Y-55417335D01*
X69755668Y-55381700D01*
X69938332Y-55381700D01*
X70117483Y-55417335D01*
G37*
G36*
X59957483Y-55417335D02*
G01*
X60126240Y-55487236D01*
X60278118Y-55588718D01*
X60407282Y-55717882D01*
X60508764Y-55869760D01*
X60578665Y-56038517D01*
X60614300Y-56217668D01*
X60614300Y-56400332D01*
X60578665Y-56579483D01*
X60508764Y-56748240D01*
X60407282Y-56900118D01*
X60278118Y-57029282D01*
X60126240Y-57130764D01*
X59957483Y-57200665D01*
X59778332Y-57236300D01*
X59595668Y-57236300D01*
X59416517Y-57200665D01*
X59247760Y-57130764D01*
X59095882Y-57029282D01*
X58966718Y-56900118D01*
X58865236Y-56748240D01*
X58795335Y-56579483D01*
X58759700Y-56400332D01*
X58759700Y-56217668D01*
X58795335Y-56038517D01*
X58865236Y-55869760D01*
X58966718Y-55717882D01*
X59095882Y-55588718D01*
X59247760Y-55487236D01*
X59416517Y-55417335D01*
X59595668Y-55381700D01*
X59778332Y-55381700D01*
X59957483Y-55417335D01*
G37*
G36*
X57417483Y-55417335D02*
G01*
X57586240Y-55487236D01*
X57738118Y-55588718D01*
X57867282Y-55717882D01*
X57968764Y-55869760D01*
X58038665Y-56038517D01*
X58074300Y-56217668D01*
X58074300Y-56400332D01*
X58038665Y-56579483D01*
X57968764Y-56748240D01*
X57867282Y-56900118D01*
X57738118Y-57029282D01*
X57586240Y-57130764D01*
X57417483Y-57200665D01*
X57238332Y-57236300D01*
X57055668Y-57236300D01*
X56876517Y-57200665D01*
X56707760Y-57130764D01*
X56555882Y-57029282D01*
X56426718Y-56900118D01*
X56325236Y-56748240D01*
X56255335Y-56579483D01*
X56219700Y-56400332D01*
X56219700Y-56217668D01*
X56255335Y-56038517D01*
X56325236Y-55869760D01*
X56426718Y-55717882D01*
X56555882Y-55588718D01*
X56707760Y-55487236D01*
X56876517Y-55417335D01*
X57055668Y-55381700D01*
X57238332Y-55381700D01*
X57417483Y-55417335D01*
G37*
G36*
X52337483Y-55417335D02*
G01*
X52506240Y-55487236D01*
X52658118Y-55588718D01*
X52787282Y-55717882D01*
X52888764Y-55869760D01*
X52958665Y-56038517D01*
X52994300Y-56217668D01*
X52994300Y-56400332D01*
X52958665Y-56579483D01*
X52888764Y-56748240D01*
X52787282Y-56900118D01*
X52658118Y-57029282D01*
X52506240Y-57130764D01*
X52337483Y-57200665D01*
X52158332Y-57236300D01*
X51975668Y-57236300D01*
X51796517Y-57200665D01*
X51627760Y-57130764D01*
X51475882Y-57029282D01*
X51346718Y-56900118D01*
X51245236Y-56748240D01*
X51175335Y-56579483D01*
X51139700Y-56400332D01*
X51139700Y-56217668D01*
X51175335Y-56038517D01*
X51245236Y-55869760D01*
X51346718Y-55717882D01*
X51475882Y-55588718D01*
X51627760Y-55487236D01*
X51796517Y-55417335D01*
X51975668Y-55381700D01*
X52158332Y-55381700D01*
X52337483Y-55417335D01*
G37*
G36*
X72657483Y-55417335D02*
G01*
X72826240Y-55487236D01*
X72978118Y-55588718D01*
X73107282Y-55717882D01*
X73208764Y-55869760D01*
X73278665Y-56038517D01*
X73314300Y-56217668D01*
X73314300Y-56400332D01*
X73278665Y-56579483D01*
X73208764Y-56748240D01*
X73107282Y-56900118D01*
X72978118Y-57029282D01*
X72826240Y-57130764D01*
X72657483Y-57200665D01*
X72478332Y-57236300D01*
X72295668Y-57236300D01*
X72116517Y-57200665D01*
X71947760Y-57130764D01*
X71795882Y-57029282D01*
X71666718Y-56900118D01*
X71565236Y-56748240D01*
X71495335Y-56579483D01*
X71459700Y-56400332D01*
X71459700Y-56217668D01*
X71495335Y-56038517D01*
X71565236Y-55869760D01*
X71666718Y-55717882D01*
X71795882Y-55588718D01*
X71947760Y-55487236D01*
X72116517Y-55417335D01*
X72295668Y-55381700D01*
X72478332Y-55381700D01*
X72657483Y-55417335D01*
G37*
G36*
X50454300Y-57236300D02*
G01*
X48599700Y-57236300D01*
X48599700Y-55381700D01*
X50454300Y-55381700D01*
X50454300Y-57236300D01*
G37*
G36*
X65037483Y-55417335D02*
G01*
X65206240Y-55487236D01*
X65358118Y-55588718D01*
X65487282Y-55717882D01*
X65588764Y-55869760D01*
X65658665Y-56038517D01*
X65694300Y-56217668D01*
X65694300Y-56400332D01*
X65658665Y-56579483D01*
X65588764Y-56748240D01*
X65487282Y-56900118D01*
X65358118Y-57029282D01*
X65206240Y-57130764D01*
X65037483Y-57200665D01*
X64858332Y-57236300D01*
X64675668Y-57236300D01*
X64496517Y-57200665D01*
X64327760Y-57130764D01*
X64175882Y-57029282D01*
X64046718Y-56900118D01*
X63945236Y-56748240D01*
X63875335Y-56579483D01*
X63839700Y-56400332D01*
X63839700Y-56217668D01*
X63875335Y-56038517D01*
X63945236Y-55869760D01*
X64046718Y-55717882D01*
X64175882Y-55588718D01*
X64327760Y-55487236D01*
X64496517Y-55417335D01*
X64675668Y-55381700D01*
X64858332Y-55381700D01*
X65037483Y-55417335D01*
G37*
G36*
X62497483Y-55417335D02*
G01*
X62666240Y-55487236D01*
X62818118Y-55588718D01*
X62947282Y-55717882D01*
X63048764Y-55869760D01*
X63118665Y-56038517D01*
X63154300Y-56217668D01*
X63154300Y-56400332D01*
X63118665Y-56579483D01*
X63048764Y-56748240D01*
X62947282Y-56900118D01*
X62818118Y-57029282D01*
X62666240Y-57130764D01*
X62497483Y-57200665D01*
X62318332Y-57236300D01*
X62135668Y-57236300D01*
X61956517Y-57200665D01*
X61787760Y-57130764D01*
X61635882Y-57029282D01*
X61506718Y-56900118D01*
X61405236Y-56748240D01*
X61335335Y-56579483D01*
X61299700Y-56400332D01*
X61299700Y-56217668D01*
X61335335Y-56038517D01*
X61405236Y-55869760D01*
X61506718Y-55717882D01*
X61635882Y-55588718D01*
X61787760Y-55487236D01*
X61956517Y-55417335D01*
X62135668Y-55381700D01*
X62318332Y-55381700D01*
X62497483Y-55417335D01*
G37*
G36*
X54877483Y-55417335D02*
G01*
X55046240Y-55487236D01*
X55198118Y-55588718D01*
X55327282Y-55717882D01*
X55428764Y-55869760D01*
X55498665Y-56038517D01*
X55534300Y-56217668D01*
X55534300Y-56400332D01*
X55498665Y-56579483D01*
X55428764Y-56748240D01*
X55327282Y-56900118D01*
X55198118Y-57029282D01*
X55046240Y-57130764D01*
X54877483Y-57200665D01*
X54698332Y-57236300D01*
X54515668Y-57236300D01*
X54336517Y-57200665D01*
X54167760Y-57130764D01*
X54015882Y-57029282D01*
X53886718Y-56900118D01*
X53785236Y-56748240D01*
X53715335Y-56579483D01*
X53679700Y-56400332D01*
X53679700Y-56217668D01*
X53715335Y-56038517D01*
X53785236Y-55869760D01*
X53886718Y-55717882D01*
X54015882Y-55588718D01*
X54167760Y-55487236D01*
X54336517Y-55417335D01*
X54515668Y-55381700D01*
X54698332Y-55381700D01*
X54877483Y-55417335D01*
G37*
G36*
X104898000Y-53550000D02*
G01*
X103296000Y-53550000D01*
X103296000Y-51948000D01*
X104898000Y-51948000D01*
X104898000Y-53550000D01*
G37*
G36*
X106998000Y-53550000D02*
G01*
X105396000Y-53550000D01*
X105396000Y-51948000D01*
X106998000Y-51948000D01*
X106998000Y-53550000D01*
G37*
G36*
X109098000Y-53550000D02*
G01*
X107496000Y-53550000D01*
X107496000Y-51948000D01*
X109098000Y-51948000D01*
X109098000Y-53550000D01*
G37*
G36*
X90198000Y-53550000D02*
G01*
X88596000Y-53550000D01*
X88596000Y-51948000D01*
X90198000Y-51948000D01*
X90198000Y-53550000D01*
G37*
G36*
X102798000Y-53550000D02*
G01*
X101196000Y-53550000D01*
X101196000Y-51948000D01*
X102798000Y-51948000D01*
X102798000Y-53550000D01*
G37*
G36*
X100698000Y-53550000D02*
G01*
X99096000Y-53550000D01*
X99096000Y-51948000D01*
X100698000Y-51948000D01*
X100698000Y-53550000D01*
G37*
G36*
X98598000Y-53550000D02*
G01*
X96996000Y-53550000D01*
X96996000Y-51948000D01*
X98598000Y-51948000D01*
X98598000Y-53550000D01*
G37*
G36*
X96498000Y-53550000D02*
G01*
X94896000Y-53550000D01*
X94896000Y-51948000D01*
X96498000Y-51948000D01*
X96498000Y-53550000D01*
G37*
G36*
X94398000Y-53550000D02*
G01*
X92796000Y-53550000D01*
X92796000Y-51948000D01*
X94398000Y-51948000D01*
X94398000Y-53550000D01*
G37*
G36*
X88098000Y-53550000D02*
G01*
X86496000Y-53550000D01*
X86496000Y-51948000D01*
X88098000Y-51948000D01*
X88098000Y-53550000D01*
G37*
G36*
X92298000Y-53550000D02*
G01*
X90696000Y-53550000D01*
X90696000Y-51948000D01*
X92298000Y-51948000D01*
X92298000Y-53550000D01*
G37*
G36*
X85998000Y-53550000D02*
G01*
X84396000Y-53550000D01*
X84396000Y-51948000D01*
X85998000Y-51948000D01*
X85998000Y-53550000D01*
G37*
G36*
X112803564Y-50138389D02*
G01*
X112994833Y-50217615D01*
X112994835Y-50217616D01*
X113166973Y-50332635D01*
X113313365Y-50479027D01*
X113428385Y-50651167D01*
X113507611Y-50842436D01*
X113548000Y-51045484D01*
X113548000Y-51252516D01*
X113507611Y-51455564D01*
X113428385Y-51646833D01*
X113428384Y-51646835D01*
X113313365Y-51818973D01*
X113166973Y-51965365D01*
X112994835Y-52080384D01*
X112994834Y-52080385D01*
X112994833Y-52080385D01*
X112803564Y-52159611D01*
X112600516Y-52200000D01*
X112393484Y-52200000D01*
X112190436Y-52159611D01*
X111999167Y-52080385D01*
X111999166Y-52080385D01*
X111999165Y-52080384D01*
X111827027Y-51965365D01*
X111680635Y-51818973D01*
X111565616Y-51646835D01*
X111565615Y-51646833D01*
X111486389Y-51455564D01*
X111446000Y-51252516D01*
X111446000Y-51045484D01*
X111486389Y-50842436D01*
X111565615Y-50651167D01*
X111680635Y-50479027D01*
X111827027Y-50332635D01*
X111999165Y-50217616D01*
X111999167Y-50217615D01*
X112190436Y-50138389D01*
X112393484Y-50098000D01*
X112600516Y-50098000D01*
X112803564Y-50138389D01*
G37*
G36*
X119303564Y-50138389D02*
G01*
X119494833Y-50217615D01*
X119494835Y-50217616D01*
X119666973Y-50332635D01*
X119813365Y-50479027D01*
X119928385Y-50651167D01*
X120007611Y-50842436D01*
X120048000Y-51045484D01*
X120048000Y-51252516D01*
X120007611Y-51455564D01*
X119928385Y-51646833D01*
X119928384Y-51646835D01*
X119813365Y-51818973D01*
X119666973Y-51965365D01*
X119494835Y-52080384D01*
X119494834Y-52080385D01*
X119494833Y-52080385D01*
X119303564Y-52159611D01*
X119100516Y-52200000D01*
X118893484Y-52200000D01*
X118690436Y-52159611D01*
X118499167Y-52080385D01*
X118499166Y-52080385D01*
X118499165Y-52080384D01*
X118327027Y-51965365D01*
X118180635Y-51818973D01*
X118065616Y-51646835D01*
X118065615Y-51646833D01*
X117986389Y-51455564D01*
X117946000Y-51252516D01*
X117946000Y-51045484D01*
X117986389Y-50842436D01*
X118065615Y-50651167D01*
X118180635Y-50479027D01*
X118327027Y-50332635D01*
X118499165Y-50217616D01*
X118499167Y-50217615D01*
X118690436Y-50138389D01*
X118893484Y-50098000D01*
X119100516Y-50098000D01*
X119303564Y-50138389D01*
G37*
G36*
X112803564Y-45638389D02*
G01*
X112994833Y-45717615D01*
X112994835Y-45717616D01*
X113045064Y-45751178D01*
X113166973Y-45832635D01*
X113313365Y-45979027D01*
X113428385Y-46151167D01*
X113507611Y-46342436D01*
X113548000Y-46545484D01*
X113548000Y-46752516D01*
X113507611Y-46955564D01*
X113428385Y-47146833D01*
X113428384Y-47146835D01*
X113313365Y-47318973D01*
X113166973Y-47465365D01*
X112994835Y-47580384D01*
X112994834Y-47580385D01*
X112994833Y-47580385D01*
X112803564Y-47659611D01*
X112600516Y-47700000D01*
X112393484Y-47700000D01*
X112190436Y-47659611D01*
X111999167Y-47580385D01*
X111999166Y-47580385D01*
X111999165Y-47580384D01*
X111827027Y-47465365D01*
X111680635Y-47318973D01*
X111565616Y-47146835D01*
X111565615Y-47146833D01*
X111486389Y-46955564D01*
X111446000Y-46752516D01*
X111446000Y-46545484D01*
X111486389Y-46342436D01*
X111565615Y-46151167D01*
X111680635Y-45979027D01*
X111827027Y-45832635D01*
X111948936Y-45751178D01*
X111999165Y-45717616D01*
X111999167Y-45717615D01*
X112190436Y-45638389D01*
X112393484Y-45598000D01*
X112600516Y-45598000D01*
X112803564Y-45638389D01*
G37*
G36*
X119303564Y-45638389D02*
G01*
X119494833Y-45717615D01*
X119494835Y-45717616D01*
X119545064Y-45751178D01*
X119666973Y-45832635D01*
X119813365Y-45979027D01*
X119928385Y-46151167D01*
X120007611Y-46342436D01*
X120048000Y-46545484D01*
X120048000Y-46752516D01*
X120007611Y-46955564D01*
X119928385Y-47146833D01*
X119928384Y-47146835D01*
X119813365Y-47318973D01*
X119666973Y-47465365D01*
X119494835Y-47580384D01*
X119494834Y-47580385D01*
X119494833Y-47580385D01*
X119303564Y-47659611D01*
X119100516Y-47700000D01*
X118893484Y-47700000D01*
X118690436Y-47659611D01*
X118499167Y-47580385D01*
X118499166Y-47580385D01*
X118499165Y-47580384D01*
X118327027Y-47465365D01*
X118180635Y-47318973D01*
X118065616Y-47146835D01*
X118065615Y-47146833D01*
X117986389Y-46955564D01*
X117946000Y-46752516D01*
X117946000Y-46545484D01*
X117986389Y-46342436D01*
X118065615Y-46151167D01*
X118180635Y-45979027D01*
X118327027Y-45832635D01*
X118448936Y-45751178D01*
X118499165Y-45717616D01*
X118499167Y-45717615D01*
X118690436Y-45638389D01*
X118893484Y-45598000D01*
X119100516Y-45598000D01*
X119303564Y-45638389D01*
G37*
G36*
X106430642Y-44358781D02*
G01*
X106576414Y-44419162D01*
X106576416Y-44419163D01*
X106707608Y-44506822D01*
X106819178Y-44618392D01*
X106906837Y-44749584D01*
X106906838Y-44749586D01*
X106967219Y-44895358D01*
X106998000Y-45050107D01*
X106998000Y-45207893D01*
X106967219Y-45362642D01*
X106906838Y-45508414D01*
X106906837Y-45508416D01*
X106819178Y-45639608D01*
X106707608Y-45751178D01*
X106576416Y-45838837D01*
X106576415Y-45838838D01*
X106576414Y-45838838D01*
X106430642Y-45899219D01*
X106275893Y-45930000D01*
X106118107Y-45930000D01*
X105963358Y-45899219D01*
X105817586Y-45838838D01*
X105817585Y-45838838D01*
X105817584Y-45838837D01*
X105686392Y-45751178D01*
X105574822Y-45639608D01*
X105487163Y-45508416D01*
X105487162Y-45508414D01*
X105426781Y-45362642D01*
X105396000Y-45207893D01*
X105396000Y-45050107D01*
X105426781Y-44895358D01*
X105487162Y-44749586D01*
X105487163Y-44749584D01*
X105574822Y-44618392D01*
X105686392Y-44506822D01*
X105817584Y-44419163D01*
X105817586Y-44419162D01*
X105963358Y-44358781D01*
X106118107Y-44328000D01*
X106275893Y-44328000D01*
X106430642Y-44358781D01*
G37*
G36*
X85430642Y-44358781D02*
G01*
X85576414Y-44419162D01*
X85576416Y-44419163D01*
X85707608Y-44506822D01*
X85819178Y-44618392D01*
X85906837Y-44749584D01*
X85906838Y-44749586D01*
X85967219Y-44895358D01*
X85998000Y-45050107D01*
X85998000Y-45207893D01*
X85967219Y-45362642D01*
X85906838Y-45508414D01*
X85906837Y-45508416D01*
X85819178Y-45639608D01*
X85707608Y-45751178D01*
X85576416Y-45838837D01*
X85576415Y-45838838D01*
X85576414Y-45838838D01*
X85430642Y-45899219D01*
X85275893Y-45930000D01*
X85118107Y-45930000D01*
X84963358Y-45899219D01*
X84817586Y-45838838D01*
X84817585Y-45838838D01*
X84817584Y-45838837D01*
X84686392Y-45751178D01*
X84574822Y-45639608D01*
X84487163Y-45508416D01*
X84487162Y-45508414D01*
X84426781Y-45362642D01*
X84396000Y-45207893D01*
X84396000Y-45050107D01*
X84426781Y-44895358D01*
X84487162Y-44749586D01*
X84487163Y-44749584D01*
X84574822Y-44618392D01*
X84686392Y-44506822D01*
X84817584Y-44419163D01*
X84817586Y-44419162D01*
X84963358Y-44358781D01*
X85118107Y-44328000D01*
X85275893Y-44328000D01*
X85430642Y-44358781D01*
G37*
G36*
X93830642Y-44358781D02*
G01*
X93976414Y-44419162D01*
X93976416Y-44419163D01*
X94107608Y-44506822D01*
X94219178Y-44618392D01*
X94306837Y-44749584D01*
X94306838Y-44749586D01*
X94367219Y-44895358D01*
X94398000Y-45050107D01*
X94398000Y-45207893D01*
X94367219Y-45362642D01*
X94306838Y-45508414D01*
X94306837Y-45508416D01*
X94219178Y-45639608D01*
X94107608Y-45751178D01*
X93976416Y-45838837D01*
X93976415Y-45838838D01*
X93976414Y-45838838D01*
X93830642Y-45899219D01*
X93675893Y-45930000D01*
X93518107Y-45930000D01*
X93363358Y-45899219D01*
X93217586Y-45838838D01*
X93217585Y-45838838D01*
X93217584Y-45838837D01*
X93086392Y-45751178D01*
X92974822Y-45639608D01*
X92887163Y-45508416D01*
X92887162Y-45508414D01*
X92826781Y-45362642D01*
X92796000Y-45207893D01*
X92796000Y-45050107D01*
X92826781Y-44895358D01*
X92887162Y-44749586D01*
X92887163Y-44749584D01*
X92974822Y-44618392D01*
X93086392Y-44506822D01*
X93217584Y-44419163D01*
X93217586Y-44419162D01*
X93363358Y-44358781D01*
X93518107Y-44328000D01*
X93675893Y-44328000D01*
X93830642Y-44358781D01*
G37*
G36*
X102230642Y-44358781D02*
G01*
X102376414Y-44419162D01*
X102376416Y-44419163D01*
X102507608Y-44506822D01*
X102619178Y-44618392D01*
X102706837Y-44749584D01*
X102706838Y-44749586D01*
X102767219Y-44895358D01*
X102798000Y-45050107D01*
X102798000Y-45207893D01*
X102767219Y-45362642D01*
X102706838Y-45508414D01*
X102706837Y-45508416D01*
X102619178Y-45639608D01*
X102507608Y-45751178D01*
X102376416Y-45838837D01*
X102376415Y-45838838D01*
X102376414Y-45838838D01*
X102230642Y-45899219D01*
X102075893Y-45930000D01*
X101918107Y-45930000D01*
X101763358Y-45899219D01*
X101617586Y-45838838D01*
X101617585Y-45838838D01*
X101617584Y-45838837D01*
X101486392Y-45751178D01*
X101374822Y-45639608D01*
X101287163Y-45508416D01*
X101287162Y-45508414D01*
X101226781Y-45362642D01*
X101196000Y-45207893D01*
X101196000Y-45050107D01*
X101226781Y-44895358D01*
X101287162Y-44749586D01*
X101287163Y-44749584D01*
X101374822Y-44618392D01*
X101486392Y-44506822D01*
X101617584Y-44419163D01*
X101617586Y-44419162D01*
X101763358Y-44358781D01*
X101918107Y-44328000D01*
X102075893Y-44328000D01*
X102230642Y-44358781D01*
G37*
G36*
X87530642Y-44358781D02*
G01*
X87676414Y-44419162D01*
X87676416Y-44419163D01*
X87807608Y-44506822D01*
X87919178Y-44618392D01*
X88006837Y-44749584D01*
X88006838Y-44749586D01*
X88067219Y-44895358D01*
X88098000Y-45050107D01*
X88098000Y-45207893D01*
X88067219Y-45362642D01*
X88006838Y-45508414D01*
X88006837Y-45508416D01*
X87919178Y-45639608D01*
X87807608Y-45751178D01*
X87676416Y-45838837D01*
X87676415Y-45838838D01*
X87676414Y-45838838D01*
X87530642Y-45899219D01*
X87375893Y-45930000D01*
X87218107Y-45930000D01*
X87063358Y-45899219D01*
X86917586Y-45838838D01*
X86917585Y-45838838D01*
X86917584Y-45838837D01*
X86786392Y-45751178D01*
X86674822Y-45639608D01*
X86587163Y-45508416D01*
X86587162Y-45508414D01*
X86526781Y-45362642D01*
X86496000Y-45207893D01*
X86496000Y-45050107D01*
X86526781Y-44895358D01*
X86587162Y-44749586D01*
X86587163Y-44749584D01*
X86674822Y-44618392D01*
X86786392Y-44506822D01*
X86917584Y-44419163D01*
X86917586Y-44419162D01*
X87063358Y-44358781D01*
X87218107Y-44328000D01*
X87375893Y-44328000D01*
X87530642Y-44358781D01*
G37*
G36*
X95930642Y-44358781D02*
G01*
X96076414Y-44419162D01*
X96076416Y-44419163D01*
X96207608Y-44506822D01*
X96319178Y-44618392D01*
X96406837Y-44749584D01*
X96406838Y-44749586D01*
X96467219Y-44895358D01*
X96498000Y-45050107D01*
X96498000Y-45207893D01*
X96467219Y-45362642D01*
X96406838Y-45508414D01*
X96406837Y-45508416D01*
X96319178Y-45639608D01*
X96207608Y-45751178D01*
X96076416Y-45838837D01*
X96076415Y-45838838D01*
X96076414Y-45838838D01*
X95930642Y-45899219D01*
X95775893Y-45930000D01*
X95618107Y-45930000D01*
X95463358Y-45899219D01*
X95317586Y-45838838D01*
X95317585Y-45838838D01*
X95317584Y-45838837D01*
X95186392Y-45751178D01*
X95074822Y-45639608D01*
X94987163Y-45508416D01*
X94987162Y-45508414D01*
X94926781Y-45362642D01*
X94896000Y-45207893D01*
X94896000Y-45050107D01*
X94926781Y-44895358D01*
X94987162Y-44749586D01*
X94987163Y-44749584D01*
X95074822Y-44618392D01*
X95186392Y-44506822D01*
X95317584Y-44419163D01*
X95317586Y-44419162D01*
X95463358Y-44358781D01*
X95618107Y-44328000D01*
X95775893Y-44328000D01*
X95930642Y-44358781D01*
G37*
G36*
X89630642Y-44358781D02*
G01*
X89776414Y-44419162D01*
X89776416Y-44419163D01*
X89907608Y-44506822D01*
X90019178Y-44618392D01*
X90106837Y-44749584D01*
X90106838Y-44749586D01*
X90167219Y-44895358D01*
X90198000Y-45050107D01*
X90198000Y-45207893D01*
X90167219Y-45362642D01*
X90106838Y-45508414D01*
X90106837Y-45508416D01*
X90019178Y-45639608D01*
X89907608Y-45751178D01*
X89776416Y-45838837D01*
X89776415Y-45838838D01*
X89776414Y-45838838D01*
X89630642Y-45899219D01*
X89475893Y-45930000D01*
X89318107Y-45930000D01*
X89163358Y-45899219D01*
X89017586Y-45838838D01*
X89017585Y-45838838D01*
X89017584Y-45838837D01*
X88886392Y-45751178D01*
X88774822Y-45639608D01*
X88687163Y-45508416D01*
X88687162Y-45508414D01*
X88626781Y-45362642D01*
X88596000Y-45207893D01*
X88596000Y-45050107D01*
X88626781Y-44895358D01*
X88687162Y-44749586D01*
X88687163Y-44749584D01*
X88774822Y-44618392D01*
X88886392Y-44506822D01*
X89017584Y-44419163D01*
X89017586Y-44419162D01*
X89163358Y-44358781D01*
X89318107Y-44328000D01*
X89475893Y-44328000D01*
X89630642Y-44358781D01*
G37*
G36*
X98030642Y-44358781D02*
G01*
X98176414Y-44419162D01*
X98176416Y-44419163D01*
X98307608Y-44506822D01*
X98419178Y-44618392D01*
X98506837Y-44749584D01*
X98506838Y-44749586D01*
X98567219Y-44895358D01*
X98598000Y-45050107D01*
X98598000Y-45207893D01*
X98567219Y-45362642D01*
X98506838Y-45508414D01*
X98506837Y-45508416D01*
X98419178Y-45639608D01*
X98307608Y-45751178D01*
X98176416Y-45838837D01*
X98176415Y-45838838D01*
X98176414Y-45838838D01*
X98030642Y-45899219D01*
X97875893Y-45930000D01*
X97718107Y-45930000D01*
X97563358Y-45899219D01*
X97417586Y-45838838D01*
X97417585Y-45838838D01*
X97417584Y-45838837D01*
X97286392Y-45751178D01*
X97174822Y-45639608D01*
X97087163Y-45508416D01*
X97087162Y-45508414D01*
X97026781Y-45362642D01*
X96996000Y-45207893D01*
X96996000Y-45050107D01*
X97026781Y-44895358D01*
X97087162Y-44749586D01*
X97087163Y-44749584D01*
X97174822Y-44618392D01*
X97286392Y-44506822D01*
X97417584Y-44419163D01*
X97417586Y-44419162D01*
X97563358Y-44358781D01*
X97718107Y-44328000D01*
X97875893Y-44328000D01*
X98030642Y-44358781D01*
G37*
G36*
X91730642Y-44358781D02*
G01*
X91876414Y-44419162D01*
X91876416Y-44419163D01*
X92007608Y-44506822D01*
X92119178Y-44618392D01*
X92206837Y-44749584D01*
X92206838Y-44749586D01*
X92267219Y-44895358D01*
X92298000Y-45050107D01*
X92298000Y-45207893D01*
X92267219Y-45362642D01*
X92206838Y-45508414D01*
X92206837Y-45508416D01*
X92119178Y-45639608D01*
X92007608Y-45751178D01*
X91876416Y-45838837D01*
X91876415Y-45838838D01*
X91876414Y-45838838D01*
X91730642Y-45899219D01*
X91575893Y-45930000D01*
X91418107Y-45930000D01*
X91263358Y-45899219D01*
X91117586Y-45838838D01*
X91117585Y-45838838D01*
X91117584Y-45838837D01*
X90986392Y-45751178D01*
X90874822Y-45639608D01*
X90787163Y-45508416D01*
X90787162Y-45508414D01*
X90726781Y-45362642D01*
X90696000Y-45207893D01*
X90696000Y-45050107D01*
X90726781Y-44895358D01*
X90787162Y-44749586D01*
X90787163Y-44749584D01*
X90874822Y-44618392D01*
X90986392Y-44506822D01*
X91117584Y-44419163D01*
X91117586Y-44419162D01*
X91263358Y-44358781D01*
X91418107Y-44328000D01*
X91575893Y-44328000D01*
X91730642Y-44358781D01*
G37*
G36*
X100130642Y-44358781D02*
G01*
X100276414Y-44419162D01*
X100276416Y-44419163D01*
X100407608Y-44506822D01*
X100519178Y-44618392D01*
X100606837Y-44749584D01*
X100606838Y-44749586D01*
X100667219Y-44895358D01*
X100698000Y-45050107D01*
X100698000Y-45207893D01*
X100667219Y-45362642D01*
X100606838Y-45508414D01*
X100606837Y-45508416D01*
X100519178Y-45639608D01*
X100407608Y-45751178D01*
X100276416Y-45838837D01*
X100276415Y-45838838D01*
X100276414Y-45838838D01*
X100130642Y-45899219D01*
X99975893Y-45930000D01*
X99818107Y-45930000D01*
X99663358Y-45899219D01*
X99517586Y-45838838D01*
X99517585Y-45838838D01*
X99517584Y-45838837D01*
X99386392Y-45751178D01*
X99274822Y-45639608D01*
X99187163Y-45508416D01*
X99187162Y-45508414D01*
X99126781Y-45362642D01*
X99096000Y-45207893D01*
X99096000Y-45050107D01*
X99126781Y-44895358D01*
X99187162Y-44749586D01*
X99187163Y-44749584D01*
X99274822Y-44618392D01*
X99386392Y-44506822D01*
X99517584Y-44419163D01*
X99517586Y-44419162D01*
X99663358Y-44358781D01*
X99818107Y-44328000D01*
X99975893Y-44328000D01*
X100130642Y-44358781D01*
G37*
G36*
X108530642Y-44358781D02*
G01*
X108676414Y-44419162D01*
X108676416Y-44419163D01*
X108807608Y-44506822D01*
X108919178Y-44618392D01*
X109006837Y-44749584D01*
X109006838Y-44749586D01*
X109067219Y-44895358D01*
X109098000Y-45050107D01*
X109098000Y-45207893D01*
X109067219Y-45362642D01*
X109006838Y-45508414D01*
X109006837Y-45508416D01*
X108919178Y-45639608D01*
X108807608Y-45751178D01*
X108676416Y-45838837D01*
X108676415Y-45838838D01*
X108676414Y-45838838D01*
X108530642Y-45899219D01*
X108375893Y-45930000D01*
X108218107Y-45930000D01*
X108063358Y-45899219D01*
X107917586Y-45838838D01*
X107917585Y-45838838D01*
X107917584Y-45838837D01*
X107786392Y-45751178D01*
X107674822Y-45639608D01*
X107587163Y-45508416D01*
X107587162Y-45508414D01*
X107526781Y-45362642D01*
X107496000Y-45207893D01*
X107496000Y-45050107D01*
X107526781Y-44895358D01*
X107587162Y-44749586D01*
X107587163Y-44749584D01*
X107674822Y-44618392D01*
X107786392Y-44506822D01*
X107917584Y-44419163D01*
X107917586Y-44419162D01*
X108063358Y-44358781D01*
X108218107Y-44328000D01*
X108375893Y-44328000D01*
X108530642Y-44358781D01*
G37*
G36*
X104330642Y-44358781D02*
G01*
X104476414Y-44419162D01*
X104476416Y-44419163D01*
X104607608Y-44506822D01*
X104719178Y-44618392D01*
X104806837Y-44749584D01*
X104806838Y-44749586D01*
X104867219Y-44895358D01*
X104898000Y-45050107D01*
X104898000Y-45207893D01*
X104867219Y-45362642D01*
X104806838Y-45508414D01*
X104806837Y-45508416D01*
X104719178Y-45639608D01*
X104607608Y-45751178D01*
X104476416Y-45838837D01*
X104476415Y-45838838D01*
X104476414Y-45838838D01*
X104330642Y-45899219D01*
X104175893Y-45930000D01*
X104018107Y-45930000D01*
X103863358Y-45899219D01*
X103717586Y-45838838D01*
X103717585Y-45838838D01*
X103717584Y-45838837D01*
X103586392Y-45751178D01*
X103474822Y-45639608D01*
X103387163Y-45508416D01*
X103387162Y-45508414D01*
X103326781Y-45362642D01*
X103296000Y-45207893D01*
X103296000Y-45050107D01*
X103326781Y-44895358D01*
X103387162Y-44749586D01*
X103387163Y-44749584D01*
X103474822Y-44618392D01*
X103586392Y-44506822D01*
X103717584Y-44419163D01*
X103717586Y-44419162D01*
X103863358Y-44358781D01*
X104018107Y-44328000D01*
X104175893Y-44328000D01*
X104330642Y-44358781D01*
G37*
G36*
X77737483Y-40177335D02*
G01*
X77906240Y-40247236D01*
X78058118Y-40348718D01*
X78187282Y-40477882D01*
X78288764Y-40629760D01*
X78358665Y-40798517D01*
X78394300Y-40977668D01*
X78394300Y-41160332D01*
X78358665Y-41339483D01*
X78288764Y-41508240D01*
X78187282Y-41660118D01*
X78058118Y-41789282D01*
X77906240Y-41890764D01*
X77737483Y-41960665D01*
X77558332Y-41996300D01*
X77375668Y-41996300D01*
X77196517Y-41960665D01*
X77027760Y-41890764D01*
X76875882Y-41789282D01*
X76746718Y-41660118D01*
X76645236Y-41508240D01*
X76575335Y-41339483D01*
X76539700Y-41160332D01*
X76539700Y-40977668D01*
X76575335Y-40798517D01*
X76645236Y-40629760D01*
X76746718Y-40477882D01*
X76875882Y-40348718D01*
X77027760Y-40247236D01*
X77196517Y-40177335D01*
X77375668Y-40141700D01*
X77558332Y-40141700D01*
X77737483Y-40177335D01*
G37*
G36*
X72657483Y-40177335D02*
G01*
X72826240Y-40247236D01*
X72978118Y-40348718D01*
X73107282Y-40477882D01*
X73208764Y-40629760D01*
X73278665Y-40798517D01*
X73314300Y-40977668D01*
X73314300Y-41160332D01*
X73278665Y-41339483D01*
X73208764Y-41508240D01*
X73107282Y-41660118D01*
X72978118Y-41789282D01*
X72826240Y-41890764D01*
X72657483Y-41960665D01*
X72478332Y-41996300D01*
X72295668Y-41996300D01*
X72116517Y-41960665D01*
X71947760Y-41890764D01*
X71795882Y-41789282D01*
X71666718Y-41660118D01*
X71565236Y-41508240D01*
X71495335Y-41339483D01*
X71459700Y-41160332D01*
X71459700Y-40977668D01*
X71495335Y-40798517D01*
X71565236Y-40629760D01*
X71666718Y-40477882D01*
X71795882Y-40348718D01*
X71947760Y-40247236D01*
X72116517Y-40177335D01*
X72295668Y-40141700D01*
X72478332Y-40141700D01*
X72657483Y-40177335D01*
G37*
G36*
X70117483Y-40177335D02*
G01*
X70286240Y-40247236D01*
X70438118Y-40348718D01*
X70567282Y-40477882D01*
X70668764Y-40629760D01*
X70738665Y-40798517D01*
X70774300Y-40977668D01*
X70774300Y-41160332D01*
X70738665Y-41339483D01*
X70668764Y-41508240D01*
X70567282Y-41660118D01*
X70438118Y-41789282D01*
X70286240Y-41890764D01*
X70117483Y-41960665D01*
X69938332Y-41996300D01*
X69755668Y-41996300D01*
X69576517Y-41960665D01*
X69407760Y-41890764D01*
X69255882Y-41789282D01*
X69126718Y-41660118D01*
X69025236Y-41508240D01*
X68955335Y-41339483D01*
X68919700Y-41160332D01*
X68919700Y-40977668D01*
X68955335Y-40798517D01*
X69025236Y-40629760D01*
X69126718Y-40477882D01*
X69255882Y-40348718D01*
X69407760Y-40247236D01*
X69576517Y-40177335D01*
X69755668Y-40141700D01*
X69938332Y-40141700D01*
X70117483Y-40177335D01*
G37*
G36*
X49797483Y-40177335D02*
G01*
X49966240Y-40247236D01*
X50118118Y-40348718D01*
X50247282Y-40477882D01*
X50348764Y-40629760D01*
X50418665Y-40798517D01*
X50454300Y-40977668D01*
X50454300Y-41160332D01*
X50418665Y-41339483D01*
X50348764Y-41508240D01*
X50247282Y-41660118D01*
X50118118Y-41789282D01*
X49966240Y-41890764D01*
X49797483Y-41960665D01*
X49618332Y-41996300D01*
X49435668Y-41996300D01*
X49256517Y-41960665D01*
X49087760Y-41890764D01*
X48935882Y-41789282D01*
X48806718Y-41660118D01*
X48705236Y-41508240D01*
X48635335Y-41339483D01*
X48599700Y-41160332D01*
X48599700Y-40977668D01*
X48635335Y-40798517D01*
X48705236Y-40629760D01*
X48806718Y-40477882D01*
X48935882Y-40348718D01*
X49087760Y-40247236D01*
X49256517Y-40177335D01*
X49435668Y-40141700D01*
X49618332Y-40141700D01*
X49797483Y-40177335D01*
G37*
G36*
X52337483Y-40177335D02*
G01*
X52506240Y-40247236D01*
X52658118Y-40348718D01*
X52787282Y-40477882D01*
X52888764Y-40629760D01*
X52958665Y-40798517D01*
X52994300Y-40977668D01*
X52994300Y-41160332D01*
X52958665Y-41339483D01*
X52888764Y-41508240D01*
X52787282Y-41660118D01*
X52658118Y-41789282D01*
X52506240Y-41890764D01*
X52337483Y-41960665D01*
X52158332Y-41996300D01*
X51975668Y-41996300D01*
X51796517Y-41960665D01*
X51627760Y-41890764D01*
X51475882Y-41789282D01*
X51346718Y-41660118D01*
X51245236Y-41508240D01*
X51175335Y-41339483D01*
X51139700Y-41160332D01*
X51139700Y-40977668D01*
X51175335Y-40798517D01*
X51245236Y-40629760D01*
X51346718Y-40477882D01*
X51475882Y-40348718D01*
X51627760Y-40247236D01*
X51796517Y-40177335D01*
X51975668Y-40141700D01*
X52158332Y-40141700D01*
X52337483Y-40177335D01*
G37*
G36*
X54877483Y-40177335D02*
G01*
X55046240Y-40247236D01*
X55198118Y-40348718D01*
X55327282Y-40477882D01*
X55428764Y-40629760D01*
X55498665Y-40798517D01*
X55534300Y-40977668D01*
X55534300Y-41160332D01*
X55498665Y-41339483D01*
X55428764Y-41508240D01*
X55327282Y-41660118D01*
X55198118Y-41789282D01*
X55046240Y-41890764D01*
X54877483Y-41960665D01*
X54698332Y-41996300D01*
X54515668Y-41996300D01*
X54336517Y-41960665D01*
X54167760Y-41890764D01*
X54015882Y-41789282D01*
X53886718Y-41660118D01*
X53785236Y-41508240D01*
X53715335Y-41339483D01*
X53679700Y-41160332D01*
X53679700Y-40977668D01*
X53715335Y-40798517D01*
X53785236Y-40629760D01*
X53886718Y-40477882D01*
X54015882Y-40348718D01*
X54167760Y-40247236D01*
X54336517Y-40177335D01*
X54515668Y-40141700D01*
X54698332Y-40141700D01*
X54877483Y-40177335D01*
G37*
G36*
X57417483Y-40177335D02*
G01*
X57586240Y-40247236D01*
X57738118Y-40348718D01*
X57867282Y-40477882D01*
X57968764Y-40629760D01*
X58038665Y-40798517D01*
X58074300Y-40977668D01*
X58074300Y-41160332D01*
X58038665Y-41339483D01*
X57968764Y-41508240D01*
X57867282Y-41660118D01*
X57738118Y-41789282D01*
X57586240Y-41890764D01*
X57417483Y-41960665D01*
X57238332Y-41996300D01*
X57055668Y-41996300D01*
X56876517Y-41960665D01*
X56707760Y-41890764D01*
X56555882Y-41789282D01*
X56426718Y-41660118D01*
X56325236Y-41508240D01*
X56255335Y-41339483D01*
X56219700Y-41160332D01*
X56219700Y-40977668D01*
X56255335Y-40798517D01*
X56325236Y-40629760D01*
X56426718Y-40477882D01*
X56555882Y-40348718D01*
X56707760Y-40247236D01*
X56876517Y-40177335D01*
X57055668Y-40141700D01*
X57238332Y-40141700D01*
X57417483Y-40177335D01*
G37*
G36*
X59957483Y-40177335D02*
G01*
X60126240Y-40247236D01*
X60278118Y-40348718D01*
X60407282Y-40477882D01*
X60508764Y-40629760D01*
X60578665Y-40798517D01*
X60614300Y-40977668D01*
X60614300Y-41160332D01*
X60578665Y-41339483D01*
X60508764Y-41508240D01*
X60407282Y-41660118D01*
X60278118Y-41789282D01*
X60126240Y-41890764D01*
X59957483Y-41960665D01*
X59778332Y-41996300D01*
X59595668Y-41996300D01*
X59416517Y-41960665D01*
X59247760Y-41890764D01*
X59095882Y-41789282D01*
X58966718Y-41660118D01*
X58865236Y-41508240D01*
X58795335Y-41339483D01*
X58759700Y-41160332D01*
X58759700Y-40977668D01*
X58795335Y-40798517D01*
X58865236Y-40629760D01*
X58966718Y-40477882D01*
X59095882Y-40348718D01*
X59247760Y-40247236D01*
X59416517Y-40177335D01*
X59595668Y-40141700D01*
X59778332Y-40141700D01*
X59957483Y-40177335D01*
G37*
G36*
X62497483Y-40177335D02*
G01*
X62666240Y-40247236D01*
X62818118Y-40348718D01*
X62947282Y-40477882D01*
X63048764Y-40629760D01*
X63118665Y-40798517D01*
X63154300Y-40977668D01*
X63154300Y-41160332D01*
X63118665Y-41339483D01*
X63048764Y-41508240D01*
X62947282Y-41660118D01*
X62818118Y-41789282D01*
X62666240Y-41890764D01*
X62497483Y-41960665D01*
X62318332Y-41996300D01*
X62135668Y-41996300D01*
X61956517Y-41960665D01*
X61787760Y-41890764D01*
X61635882Y-41789282D01*
X61506718Y-41660118D01*
X61405236Y-41508240D01*
X61335335Y-41339483D01*
X61299700Y-41160332D01*
X61299700Y-40977668D01*
X61335335Y-40798517D01*
X61405236Y-40629760D01*
X61506718Y-40477882D01*
X61635882Y-40348718D01*
X61787760Y-40247236D01*
X61956517Y-40177335D01*
X62135668Y-40141700D01*
X62318332Y-40141700D01*
X62497483Y-40177335D01*
G37*
G36*
X65037483Y-40177335D02*
G01*
X65206240Y-40247236D01*
X65358118Y-40348718D01*
X65487282Y-40477882D01*
X65588764Y-40629760D01*
X65658665Y-40798517D01*
X65694300Y-40977668D01*
X65694300Y-41160332D01*
X65658665Y-41339483D01*
X65588764Y-41508240D01*
X65487282Y-41660118D01*
X65358118Y-41789282D01*
X65206240Y-41890764D01*
X65037483Y-41960665D01*
X64858332Y-41996300D01*
X64675668Y-41996300D01*
X64496517Y-41960665D01*
X64327760Y-41890764D01*
X64175882Y-41789282D01*
X64046718Y-41660118D01*
X63945236Y-41508240D01*
X63875335Y-41339483D01*
X63839700Y-41160332D01*
X63839700Y-40977668D01*
X63875335Y-40798517D01*
X63945236Y-40629760D01*
X64046718Y-40477882D01*
X64175882Y-40348718D01*
X64327760Y-40247236D01*
X64496517Y-40177335D01*
X64675668Y-40141700D01*
X64858332Y-40141700D01*
X65037483Y-40177335D01*
G37*
G36*
X75197483Y-40177335D02*
G01*
X75366240Y-40247236D01*
X75518118Y-40348718D01*
X75647282Y-40477882D01*
X75748764Y-40629760D01*
X75818665Y-40798517D01*
X75854300Y-40977668D01*
X75854300Y-41160332D01*
X75818665Y-41339483D01*
X75748764Y-41508240D01*
X75647282Y-41660118D01*
X75518118Y-41789282D01*
X75366240Y-41890764D01*
X75197483Y-41960665D01*
X75018332Y-41996300D01*
X74835668Y-41996300D01*
X74656517Y-41960665D01*
X74487760Y-41890764D01*
X74335882Y-41789282D01*
X74206718Y-41660118D01*
X74105236Y-41508240D01*
X74035335Y-41339483D01*
X73999700Y-41160332D01*
X73999700Y-40977668D01*
X74035335Y-40798517D01*
X74105236Y-40629760D01*
X74206718Y-40477882D01*
X74335882Y-40348718D01*
X74487760Y-40247236D01*
X74656517Y-40177335D01*
X74835668Y-40141700D01*
X75018332Y-40141700D01*
X75197483Y-40177335D01*
G37*
G36*
X67577483Y-40177335D02*
G01*
X67746240Y-40247236D01*
X67898118Y-40348718D01*
X68027282Y-40477882D01*
X68128764Y-40629760D01*
X68198665Y-40798517D01*
X68234300Y-40977668D01*
X68234300Y-41160332D01*
X68198665Y-41339483D01*
X68128764Y-41508240D01*
X68027282Y-41660118D01*
X67898118Y-41789282D01*
X67746240Y-41890764D01*
X67577483Y-41960665D01*
X67398332Y-41996300D01*
X67215668Y-41996300D01*
X67036517Y-41960665D01*
X66867760Y-41890764D01*
X66715882Y-41789282D01*
X66586718Y-41660118D01*
X66485236Y-41508240D01*
X66415335Y-41339483D01*
X66379700Y-41160332D01*
X66379700Y-40977668D01*
X66415335Y-40798517D01*
X66485236Y-40629760D01*
X66586718Y-40477882D01*
X66715882Y-40348718D01*
X66867760Y-40247236D01*
X67036517Y-40177335D01*
X67215668Y-40141700D01*
X67398332Y-40141700D01*
X67577483Y-40177335D01*
G37*
M02*
