G04 #@! TF.GenerationSoftware,KiCad,Pcbnew,5.1.6*
G04 #@! TF.CreationDate,2020-08-24T11:01:31-05:00*
G04 #@! TF.ProjectId,fissure,66697373-7572-4652-9e6b-696361645f70,rev?*
G04 #@! TF.SameCoordinates,Original*
G04 #@! TF.FileFunction,Soldermask,Top*
G04 #@! TF.FilePolarity,Negative*
%FSLAX46Y46*%
G04 Gerber Fmt 4.6, Leading zero omitted, Abs format (unit mm)*
G04 Created by KiCad (PCBNEW 5.1.6) date 2020-08-24 11:01:31*
%MOMM*%
%LPD*%
G01*
G04 APERTURE LIST*
%ADD10C,0.100000*%
G04 APERTURE END LIST*
D10*
G36*
X136613512Y-136603927D02*
G01*
X136762812Y-136633624D01*
X136926784Y-136701544D01*
X137074354Y-136800147D01*
X137199853Y-136925646D01*
X137298456Y-137073216D01*
X137366376Y-137237188D01*
X137401000Y-137411259D01*
X137401000Y-137588741D01*
X137366376Y-137762812D01*
X137298456Y-137926784D01*
X137199853Y-138074354D01*
X137074354Y-138199853D01*
X136926784Y-138298456D01*
X136762812Y-138366376D01*
X136613512Y-138396073D01*
X136588742Y-138401000D01*
X136411258Y-138401000D01*
X136386488Y-138396073D01*
X136237188Y-138366376D01*
X136073216Y-138298456D01*
X135925646Y-138199853D01*
X135800147Y-138074354D01*
X135701544Y-137926784D01*
X135633624Y-137762812D01*
X135599000Y-137588741D01*
X135599000Y-137411259D01*
X135633624Y-137237188D01*
X135701544Y-137073216D01*
X135800147Y-136925646D01*
X135925646Y-136800147D01*
X136073216Y-136701544D01*
X136237188Y-136633624D01*
X136386488Y-136603927D01*
X136411258Y-136599000D01*
X136588742Y-136599000D01*
X136613512Y-136603927D01*
G37*
G36*
X133006564Y-135989389D02*
G01*
X133197833Y-136068615D01*
X133197835Y-136068616D01*
X133369973Y-136183635D01*
X133516365Y-136330027D01*
X133631385Y-136502167D01*
X133710611Y-136693436D01*
X133751000Y-136896484D01*
X133751000Y-137103516D01*
X133710611Y-137306564D01*
X133667245Y-137411258D01*
X133631384Y-137497835D01*
X133516365Y-137669973D01*
X133369973Y-137816365D01*
X133197835Y-137931384D01*
X133197834Y-137931385D01*
X133197833Y-137931385D01*
X133006564Y-138010611D01*
X132803516Y-138051000D01*
X132596484Y-138051000D01*
X132393436Y-138010611D01*
X132202167Y-137931385D01*
X132202166Y-137931385D01*
X132202165Y-137931384D01*
X132030027Y-137816365D01*
X131883635Y-137669973D01*
X131768616Y-137497835D01*
X131732755Y-137411258D01*
X131689389Y-137306564D01*
X131649000Y-137103516D01*
X131649000Y-136896484D01*
X131689389Y-136693436D01*
X131768615Y-136502167D01*
X131883635Y-136330027D01*
X132030027Y-136183635D01*
X132202165Y-136068616D01*
X132202167Y-136068615D01*
X132393436Y-135989389D01*
X132596484Y-135949000D01*
X132803516Y-135949000D01*
X133006564Y-135989389D01*
G37*
G36*
X141651000Y-134151000D02*
G01*
X140349000Y-134151000D01*
X140349000Y-133149000D01*
X141651000Y-133149000D01*
X141651000Y-134151000D01*
G37*
G36*
X136897985Y-130293860D02*
G01*
X137010748Y-130316290D01*
X137142741Y-130370963D01*
X137329408Y-130448283D01*
X137616196Y-130639909D01*
X137860091Y-130883804D01*
X138051717Y-131170592D01*
X138063837Y-131199853D01*
X138183710Y-131489252D01*
X138186279Y-131502167D01*
X138251000Y-131827540D01*
X138251000Y-132172460D01*
X138206140Y-132397985D01*
X138186279Y-132497835D01*
X138183710Y-132510747D01*
X138051717Y-132829408D01*
X137860091Y-133116196D01*
X137616196Y-133360091D01*
X137329408Y-133551717D01*
X137142741Y-133629037D01*
X137010748Y-133683710D01*
X136897985Y-133706140D01*
X136672460Y-133751000D01*
X136327540Y-133751000D01*
X136102015Y-133706140D01*
X135989252Y-133683710D01*
X135857259Y-133629037D01*
X135670592Y-133551717D01*
X135383804Y-133360091D01*
X135139909Y-133116196D01*
X134948283Y-132829408D01*
X134816290Y-132510747D01*
X134813722Y-132497835D01*
X134793860Y-132397985D01*
X134749000Y-132172460D01*
X134749000Y-131827540D01*
X134813721Y-131502167D01*
X134816290Y-131489252D01*
X134936163Y-131199853D01*
X134948283Y-131170592D01*
X135139909Y-130883804D01*
X135383804Y-130639909D01*
X135670592Y-130448283D01*
X135857259Y-130370963D01*
X135989252Y-130316290D01*
X136102015Y-130293860D01*
X136327540Y-130249000D01*
X136672460Y-130249000D01*
X136897985Y-130293860D01*
G37*
G36*
X119613512Y-131603927D02*
G01*
X119762812Y-131633624D01*
X119926784Y-131701544D01*
X120074354Y-131800147D01*
X120199853Y-131925646D01*
X120298456Y-132073216D01*
X120366376Y-132237188D01*
X120401000Y-132411259D01*
X120401000Y-132588741D01*
X120366376Y-132762812D01*
X120298456Y-132926784D01*
X120199853Y-133074354D01*
X120074354Y-133199853D01*
X119926784Y-133298456D01*
X119762812Y-133366376D01*
X119613512Y-133396073D01*
X119588742Y-133401000D01*
X119411258Y-133401000D01*
X119386488Y-133396073D01*
X119237188Y-133366376D01*
X119073216Y-133298456D01*
X118925646Y-133199853D01*
X118800147Y-133074354D01*
X118701544Y-132926784D01*
X118633624Y-132762812D01*
X118599000Y-132588741D01*
X118599000Y-132411259D01*
X118633624Y-132237188D01*
X118701544Y-132073216D01*
X118800147Y-131925646D01*
X118925646Y-131800147D01*
X119073216Y-131701544D01*
X119237188Y-131633624D01*
X119386488Y-131603927D01*
X119411258Y-131599000D01*
X119588742Y-131599000D01*
X119613512Y-131603927D01*
G37*
G36*
X130906564Y-130989389D02*
G01*
X131097833Y-131068615D01*
X131097835Y-131068616D01*
X131269973Y-131183635D01*
X131416365Y-131330027D01*
X131522756Y-131489252D01*
X131531385Y-131502167D01*
X131610611Y-131693436D01*
X131651000Y-131896484D01*
X131651000Y-132103516D01*
X131610611Y-132306564D01*
X131567245Y-132411258D01*
X131531384Y-132497835D01*
X131416365Y-132669973D01*
X131269973Y-132816365D01*
X131097835Y-132931384D01*
X131097834Y-132931385D01*
X131097833Y-132931385D01*
X130906564Y-133010611D01*
X130703516Y-133051000D01*
X130496484Y-133051000D01*
X130293436Y-133010611D01*
X130102167Y-132931385D01*
X130102166Y-132931385D01*
X130102165Y-132931384D01*
X129930027Y-132816365D01*
X129783635Y-132669973D01*
X129668616Y-132497835D01*
X129632755Y-132411258D01*
X129589389Y-132306564D01*
X129549000Y-132103516D01*
X129549000Y-131896484D01*
X129589389Y-131693436D01*
X129668615Y-131502167D01*
X129677245Y-131489252D01*
X129783635Y-131330027D01*
X129930027Y-131183635D01*
X130102165Y-131068616D01*
X130102167Y-131068615D01*
X130293436Y-130989389D01*
X130496484Y-130949000D01*
X130703516Y-130949000D01*
X130906564Y-130989389D01*
G37*
G36*
X116006564Y-130989389D02*
G01*
X116197833Y-131068615D01*
X116197835Y-131068616D01*
X116369973Y-131183635D01*
X116516365Y-131330027D01*
X116622756Y-131489252D01*
X116631385Y-131502167D01*
X116710611Y-131693436D01*
X116751000Y-131896484D01*
X116751000Y-132103516D01*
X116710611Y-132306564D01*
X116667245Y-132411258D01*
X116631384Y-132497835D01*
X116516365Y-132669973D01*
X116369973Y-132816365D01*
X116197835Y-132931384D01*
X116197834Y-132931385D01*
X116197833Y-132931385D01*
X116006564Y-133010611D01*
X115803516Y-133051000D01*
X115596484Y-133051000D01*
X115393436Y-133010611D01*
X115202167Y-132931385D01*
X115202166Y-132931385D01*
X115202165Y-132931384D01*
X115030027Y-132816365D01*
X114883635Y-132669973D01*
X114768616Y-132497835D01*
X114732755Y-132411258D01*
X114689389Y-132306564D01*
X114649000Y-132103516D01*
X114649000Y-131896484D01*
X114689389Y-131693436D01*
X114768615Y-131502167D01*
X114777245Y-131489252D01*
X114883635Y-131330027D01*
X115030027Y-131183635D01*
X115202165Y-131068616D01*
X115202167Y-131068615D01*
X115393436Y-130989389D01*
X115596484Y-130949000D01*
X115803516Y-130949000D01*
X116006564Y-130989389D01*
G37*
G36*
X102613512Y-129603927D02*
G01*
X102762812Y-129633624D01*
X102926784Y-129701544D01*
X103074354Y-129800147D01*
X103199853Y-129925646D01*
X103298456Y-130073216D01*
X103366376Y-130237188D01*
X103401000Y-130411259D01*
X103401000Y-130588741D01*
X103366376Y-130762812D01*
X103298456Y-130926784D01*
X103199853Y-131074354D01*
X103074354Y-131199853D01*
X102926784Y-131298456D01*
X102762812Y-131366376D01*
X102613512Y-131396073D01*
X102588742Y-131401000D01*
X102411258Y-131401000D01*
X102386488Y-131396073D01*
X102237188Y-131366376D01*
X102073216Y-131298456D01*
X101925646Y-131199853D01*
X101800147Y-131074354D01*
X101701544Y-130926784D01*
X101633624Y-130762812D01*
X101599000Y-130588741D01*
X101599000Y-130411259D01*
X101633624Y-130237188D01*
X101701544Y-130073216D01*
X101800147Y-129925646D01*
X101925646Y-129800147D01*
X102073216Y-129701544D01*
X102237188Y-129633624D01*
X102386488Y-129603927D01*
X102411258Y-129599000D01*
X102588742Y-129599000D01*
X102613512Y-129603927D01*
G37*
G36*
X99006564Y-128989389D02*
G01*
X99197833Y-129068615D01*
X99197835Y-129068616D01*
X99321131Y-129151000D01*
X99369973Y-129183635D01*
X99516365Y-129330027D01*
X99631385Y-129502167D01*
X99710611Y-129693436D01*
X99751000Y-129896484D01*
X99751000Y-130103516D01*
X99710611Y-130306564D01*
X99706582Y-130316290D01*
X99631384Y-130497835D01*
X99516365Y-130669973D01*
X99369973Y-130816365D01*
X99197835Y-130931384D01*
X99197834Y-130931385D01*
X99197833Y-130931385D01*
X99006564Y-131010611D01*
X98803516Y-131051000D01*
X98596484Y-131051000D01*
X98393436Y-131010611D01*
X98202167Y-130931385D01*
X98202166Y-130931385D01*
X98202165Y-130931384D01*
X98030027Y-130816365D01*
X97883635Y-130669973D01*
X97768616Y-130497835D01*
X97693418Y-130316290D01*
X97689389Y-130306564D01*
X97649000Y-130103516D01*
X97649000Y-129896484D01*
X97689389Y-129693436D01*
X97768615Y-129502167D01*
X97883635Y-129330027D01*
X98030027Y-129183635D01*
X98078869Y-129151000D01*
X98202165Y-129068616D01*
X98202167Y-129068615D01*
X98393436Y-128989389D01*
X98596484Y-128949000D01*
X98803516Y-128949000D01*
X99006564Y-128989389D01*
G37*
G36*
X141651000Y-130851000D02*
G01*
X140349000Y-130851000D01*
X140349000Y-129849000D01*
X141651000Y-129849000D01*
X141651000Y-130851000D01*
G37*
G36*
X124651000Y-129151000D02*
G01*
X123349000Y-129151000D01*
X123349000Y-128149000D01*
X124651000Y-128149000D01*
X124651000Y-129151000D01*
G37*
G36*
X119897985Y-125293860D02*
G01*
X120010748Y-125316290D01*
X120142741Y-125370963D01*
X120329408Y-125448283D01*
X120616196Y-125639909D01*
X120860091Y-125883804D01*
X121051717Y-126170592D01*
X121079302Y-126237189D01*
X121183710Y-126489252D01*
X121186279Y-126502167D01*
X121251000Y-126827540D01*
X121251000Y-127172460D01*
X121212428Y-127366375D01*
X121186279Y-127497835D01*
X121183710Y-127510747D01*
X121051717Y-127829408D01*
X120860091Y-128116196D01*
X120616196Y-128360091D01*
X120329408Y-128551717D01*
X120142741Y-128629037D01*
X120010748Y-128683710D01*
X119897985Y-128706140D01*
X119672460Y-128751000D01*
X119327540Y-128751000D01*
X119102015Y-128706140D01*
X118989252Y-128683710D01*
X118857259Y-128629037D01*
X118670592Y-128551717D01*
X118383804Y-128360091D01*
X118139909Y-128116196D01*
X117948283Y-127829408D01*
X117816290Y-127510747D01*
X117813722Y-127497835D01*
X117787572Y-127366375D01*
X117749000Y-127172460D01*
X117749000Y-126827540D01*
X117813721Y-126502167D01*
X117816290Y-126489252D01*
X117920698Y-126237189D01*
X117948283Y-126170592D01*
X118139909Y-125883804D01*
X118383804Y-125639909D01*
X118670592Y-125448283D01*
X118857259Y-125370963D01*
X118989252Y-125316290D01*
X119102015Y-125293860D01*
X119327540Y-125249000D01*
X119672460Y-125249000D01*
X119897985Y-125293860D01*
G37*
G36*
X113906564Y-125989389D02*
G01*
X114097833Y-126068615D01*
X114097835Y-126068616D01*
X114269973Y-126183635D01*
X114416365Y-126330027D01*
X114522756Y-126489252D01*
X114531385Y-126502167D01*
X114610611Y-126693436D01*
X114651000Y-126896484D01*
X114651000Y-127103516D01*
X114610611Y-127306564D01*
X114585836Y-127366376D01*
X114531384Y-127497835D01*
X114416365Y-127669973D01*
X114269973Y-127816365D01*
X114097835Y-127931384D01*
X114097834Y-127931385D01*
X114097833Y-127931385D01*
X113906564Y-128010611D01*
X113703516Y-128051000D01*
X113496484Y-128051000D01*
X113293436Y-128010611D01*
X113102167Y-127931385D01*
X113102166Y-127931385D01*
X113102165Y-127931384D01*
X112930027Y-127816365D01*
X112783635Y-127669973D01*
X112668616Y-127497835D01*
X112614164Y-127366376D01*
X112589389Y-127306564D01*
X112549000Y-127103516D01*
X112549000Y-126896484D01*
X112589389Y-126693436D01*
X112668615Y-126502167D01*
X112677245Y-126489252D01*
X112783635Y-126330027D01*
X112930027Y-126183635D01*
X113102165Y-126068616D01*
X113102167Y-126068615D01*
X113293436Y-125989389D01*
X113496484Y-125949000D01*
X113703516Y-125949000D01*
X113906564Y-125989389D01*
G37*
G36*
X136613512Y-125603927D02*
G01*
X136762812Y-125633624D01*
X136926784Y-125701544D01*
X137074354Y-125800147D01*
X137199853Y-125925646D01*
X137298456Y-126073216D01*
X137366376Y-126237188D01*
X137401000Y-126411259D01*
X137401000Y-126588741D01*
X137366376Y-126762812D01*
X137298456Y-126926784D01*
X137199853Y-127074354D01*
X137074354Y-127199853D01*
X136926784Y-127298456D01*
X136762812Y-127366376D01*
X136613512Y-127396073D01*
X136588742Y-127401000D01*
X136411258Y-127401000D01*
X136386488Y-127396073D01*
X136237188Y-127366376D01*
X136073216Y-127298456D01*
X135925646Y-127199853D01*
X135800147Y-127074354D01*
X135701544Y-126926784D01*
X135633624Y-126762812D01*
X135599000Y-126588741D01*
X135599000Y-126411259D01*
X135633624Y-126237188D01*
X135701544Y-126073216D01*
X135800147Y-125925646D01*
X135925646Y-125800147D01*
X136073216Y-125701544D01*
X136237188Y-125633624D01*
X136386488Y-125603927D01*
X136411258Y-125599000D01*
X136588742Y-125599000D01*
X136613512Y-125603927D01*
G37*
G36*
X107651000Y-127151000D02*
G01*
X106349000Y-127151000D01*
X106349000Y-126149000D01*
X107651000Y-126149000D01*
X107651000Y-127151000D01*
G37*
G36*
X102897985Y-123293860D02*
G01*
X103010748Y-123316290D01*
X103142741Y-123370963D01*
X103329408Y-123448283D01*
X103616196Y-123639909D01*
X103860091Y-123883804D01*
X104051717Y-124170592D01*
X104117757Y-124330027D01*
X104183710Y-124489252D01*
X104186279Y-124502167D01*
X104251000Y-124827540D01*
X104251000Y-125172460D01*
X104222390Y-125316290D01*
X104186279Y-125497835D01*
X104183710Y-125510747D01*
X104051717Y-125829408D01*
X103860091Y-126116196D01*
X103616196Y-126360091D01*
X103329408Y-126551717D01*
X103240021Y-126588742D01*
X103010748Y-126683710D01*
X102897985Y-126706140D01*
X102672460Y-126751000D01*
X102327540Y-126751000D01*
X102102015Y-126706140D01*
X101989252Y-126683710D01*
X101759979Y-126588742D01*
X101670592Y-126551717D01*
X101383804Y-126360091D01*
X101139909Y-126116196D01*
X100948283Y-125829408D01*
X100816290Y-125510747D01*
X100813722Y-125497835D01*
X100777610Y-125316290D01*
X100749000Y-125172460D01*
X100749000Y-124827540D01*
X100813721Y-124502167D01*
X100816290Y-124489252D01*
X100882243Y-124330027D01*
X100948283Y-124170592D01*
X101139909Y-123883804D01*
X101383804Y-123639909D01*
X101670592Y-123448283D01*
X101857259Y-123370963D01*
X101989252Y-123316290D01*
X102102015Y-123293860D01*
X102327540Y-123249000D01*
X102672460Y-123249000D01*
X102897985Y-123293860D01*
G37*
G36*
X53351000Y-126651000D02*
G01*
X52349000Y-126651000D01*
X52349000Y-125349000D01*
X53351000Y-125349000D01*
X53351000Y-126651000D01*
G37*
G36*
X56651000Y-126651000D02*
G01*
X55649000Y-126651000D01*
X55649000Y-125349000D01*
X56651000Y-125349000D01*
X56651000Y-126651000D01*
G37*
G36*
X96906564Y-123989389D02*
G01*
X97097833Y-124068615D01*
X97097835Y-124068616D01*
X97269973Y-124183635D01*
X97416365Y-124330027D01*
X97522756Y-124489252D01*
X97531385Y-124502167D01*
X97610611Y-124693436D01*
X97651000Y-124896484D01*
X97651000Y-125103516D01*
X97610611Y-125306564D01*
X97606582Y-125316290D01*
X97531384Y-125497835D01*
X97416365Y-125669973D01*
X97269973Y-125816365D01*
X97097835Y-125931384D01*
X97097834Y-125931385D01*
X97097833Y-125931385D01*
X96906564Y-126010611D01*
X96703516Y-126051000D01*
X96496484Y-126051000D01*
X96293436Y-126010611D01*
X96102167Y-125931385D01*
X96102166Y-125931385D01*
X96102165Y-125931384D01*
X95930027Y-125816365D01*
X95783635Y-125669973D01*
X95668616Y-125497835D01*
X95593418Y-125316290D01*
X95589389Y-125306564D01*
X95549000Y-125103516D01*
X95549000Y-124896484D01*
X95589389Y-124693436D01*
X95668615Y-124502167D01*
X95677245Y-124489252D01*
X95783635Y-124330027D01*
X95930027Y-124183635D01*
X96102165Y-124068616D01*
X96102167Y-124068615D01*
X96293436Y-123989389D01*
X96496484Y-123949000D01*
X96703516Y-123949000D01*
X96906564Y-123989389D01*
G37*
G36*
X124651000Y-125851000D02*
G01*
X123349000Y-125851000D01*
X123349000Y-124849000D01*
X124651000Y-124849000D01*
X124651000Y-125851000D01*
G37*
G36*
X107651000Y-123851000D02*
G01*
X106349000Y-123851000D01*
X106349000Y-122849000D01*
X107651000Y-122849000D01*
X107651000Y-123851000D01*
G37*
G36*
X54897985Y-119793860D02*
G01*
X55010748Y-119816290D01*
X55142741Y-119870963D01*
X55329408Y-119948283D01*
X55616196Y-120139909D01*
X55860091Y-120383804D01*
X56051717Y-120670592D01*
X56183710Y-120989253D01*
X56251000Y-121327540D01*
X56251000Y-121672460D01*
X56183710Y-122010747D01*
X56051717Y-122329408D01*
X55860091Y-122616196D01*
X55616196Y-122860091D01*
X55329408Y-123051717D01*
X55142741Y-123129037D01*
X55010748Y-123183710D01*
X54897985Y-123206140D01*
X54672460Y-123251000D01*
X54327540Y-123251000D01*
X54102015Y-123206140D01*
X53989252Y-123183710D01*
X53857259Y-123129037D01*
X53670592Y-123051717D01*
X53383804Y-122860091D01*
X53139909Y-122616196D01*
X52948283Y-122329408D01*
X52816290Y-122010747D01*
X52749000Y-121672460D01*
X52749000Y-121327540D01*
X52816290Y-120989253D01*
X52948283Y-120670592D01*
X53139909Y-120383804D01*
X53383804Y-120139909D01*
X53670592Y-119948283D01*
X53857259Y-119870963D01*
X53989252Y-119816290D01*
X54102015Y-119793860D01*
X54327540Y-119749000D01*
X54672460Y-119749000D01*
X54897985Y-119793860D01*
G37*
G36*
X119613512Y-120603927D02*
G01*
X119762812Y-120633624D01*
X119926784Y-120701544D01*
X120074354Y-120800147D01*
X120199853Y-120925646D01*
X120298456Y-121073216D01*
X120366376Y-121237188D01*
X120401000Y-121411259D01*
X120401000Y-121588741D01*
X120366376Y-121762812D01*
X120298456Y-121926784D01*
X120199853Y-122074354D01*
X120074354Y-122199853D01*
X119926784Y-122298456D01*
X119762812Y-122366376D01*
X119613512Y-122396073D01*
X119588742Y-122401000D01*
X119411258Y-122401000D01*
X119386488Y-122396073D01*
X119237188Y-122366376D01*
X119073216Y-122298456D01*
X118925646Y-122199853D01*
X118800147Y-122074354D01*
X118701544Y-121926784D01*
X118633624Y-121762812D01*
X118599000Y-121588741D01*
X118599000Y-121411259D01*
X118633624Y-121237188D01*
X118701544Y-121073216D01*
X118800147Y-120925646D01*
X118925646Y-120800147D01*
X119073216Y-120701544D01*
X119237188Y-120633624D01*
X119386488Y-120603927D01*
X119411258Y-120599000D01*
X119588742Y-120599000D01*
X119613512Y-120603927D01*
G37*
G36*
X49113512Y-120603927D02*
G01*
X49262812Y-120633624D01*
X49426784Y-120701544D01*
X49574354Y-120800147D01*
X49699853Y-120925646D01*
X49798456Y-121073216D01*
X49866376Y-121237188D01*
X49901000Y-121411259D01*
X49901000Y-121588741D01*
X49866376Y-121762812D01*
X49798456Y-121926784D01*
X49699853Y-122074354D01*
X49574354Y-122199853D01*
X49426784Y-122298456D01*
X49262812Y-122366376D01*
X49113512Y-122396073D01*
X49088742Y-122401000D01*
X48911258Y-122401000D01*
X48886488Y-122396073D01*
X48737188Y-122366376D01*
X48573216Y-122298456D01*
X48425646Y-122199853D01*
X48300147Y-122074354D01*
X48201544Y-121926784D01*
X48133624Y-121762812D01*
X48099000Y-121588741D01*
X48099000Y-121411259D01*
X48133624Y-121237188D01*
X48201544Y-121073216D01*
X48300147Y-120925646D01*
X48425646Y-120800147D01*
X48573216Y-120701544D01*
X48737188Y-120633624D01*
X48886488Y-120603927D01*
X48911258Y-120599000D01*
X49088742Y-120599000D01*
X49113512Y-120603927D01*
G37*
G36*
X60113512Y-120603927D02*
G01*
X60262812Y-120633624D01*
X60426784Y-120701544D01*
X60574354Y-120800147D01*
X60699853Y-120925646D01*
X60798456Y-121073216D01*
X60866376Y-121237188D01*
X60901000Y-121411259D01*
X60901000Y-121588741D01*
X60866376Y-121762812D01*
X60798456Y-121926784D01*
X60699853Y-122074354D01*
X60574354Y-122199853D01*
X60426784Y-122298456D01*
X60262812Y-122366376D01*
X60113512Y-122396073D01*
X60088742Y-122401000D01*
X59911258Y-122401000D01*
X59886488Y-122396073D01*
X59737188Y-122366376D01*
X59573216Y-122298456D01*
X59425646Y-122199853D01*
X59300147Y-122074354D01*
X59201544Y-121926784D01*
X59133624Y-121762812D01*
X59099000Y-121588741D01*
X59099000Y-121411259D01*
X59133624Y-121237188D01*
X59201544Y-121073216D01*
X59300147Y-120925646D01*
X59425646Y-120800147D01*
X59573216Y-120701544D01*
X59737188Y-120633624D01*
X59886488Y-120603927D01*
X59911258Y-120599000D01*
X60088742Y-120599000D01*
X60113512Y-120603927D01*
G37*
G36*
X102613512Y-118603927D02*
G01*
X102762812Y-118633624D01*
X102926784Y-118701544D01*
X103074354Y-118800147D01*
X103199853Y-118925646D01*
X103298456Y-119073216D01*
X103366376Y-119237188D01*
X103401000Y-119411259D01*
X103401000Y-119588741D01*
X103366376Y-119762812D01*
X103298456Y-119926784D01*
X103199853Y-120074354D01*
X103074354Y-120199853D01*
X102926784Y-120298456D01*
X102762812Y-120366376D01*
X102613512Y-120396073D01*
X102588742Y-120401000D01*
X102411258Y-120401000D01*
X102386488Y-120396073D01*
X102237188Y-120366376D01*
X102073216Y-120298456D01*
X101925646Y-120199853D01*
X101800147Y-120074354D01*
X101701544Y-119926784D01*
X101633624Y-119762812D01*
X101599000Y-119588741D01*
X101599000Y-119411259D01*
X101633624Y-119237188D01*
X101701544Y-119073216D01*
X101800147Y-118925646D01*
X101925646Y-118800147D01*
X102073216Y-118701544D01*
X102237188Y-118633624D01*
X102386488Y-118603927D01*
X102411258Y-118599000D01*
X102588742Y-118599000D01*
X102613512Y-118603927D01*
G37*
G36*
X49806564Y-116689389D02*
G01*
X49997833Y-116768615D01*
X49997835Y-116768616D01*
X50169973Y-116883635D01*
X50316365Y-117030027D01*
X50431385Y-117202167D01*
X50510611Y-117393436D01*
X50551000Y-117596484D01*
X50551000Y-117803516D01*
X50510611Y-118006564D01*
X50431385Y-118197833D01*
X50431384Y-118197835D01*
X50316365Y-118369973D01*
X50169973Y-118516365D01*
X49997835Y-118631384D01*
X49997834Y-118631385D01*
X49997833Y-118631385D01*
X49806564Y-118710611D01*
X49603516Y-118751000D01*
X49396484Y-118751000D01*
X49193436Y-118710611D01*
X49002167Y-118631385D01*
X49002166Y-118631385D01*
X49002165Y-118631384D01*
X48830027Y-118516365D01*
X48683635Y-118369973D01*
X48568616Y-118197835D01*
X48568615Y-118197833D01*
X48489389Y-118006564D01*
X48449000Y-117803516D01*
X48449000Y-117596484D01*
X48489389Y-117393436D01*
X48568615Y-117202167D01*
X48683635Y-117030027D01*
X48830027Y-116883635D01*
X49002165Y-116768616D01*
X49002167Y-116768615D01*
X49193436Y-116689389D01*
X49396484Y-116649000D01*
X49603516Y-116649000D01*
X49806564Y-116689389D01*
G37*
G36*
X115401000Y-117551000D02*
G01*
X111599000Y-117551000D01*
X111599000Y-115449000D01*
X115401000Y-115449000D01*
X115401000Y-117551000D01*
G37*
G36*
X143401000Y-117551000D02*
G01*
X139599000Y-117551000D01*
X139599000Y-115449000D01*
X143401000Y-115449000D01*
X143401000Y-117551000D01*
G37*
G36*
X120901000Y-117551000D02*
G01*
X117099000Y-117551000D01*
X117099000Y-115449000D01*
X120901000Y-115449000D01*
X120901000Y-117551000D01*
G37*
G36*
X126401000Y-117551000D02*
G01*
X122599000Y-117551000D01*
X122599000Y-115449000D01*
X126401000Y-115449000D01*
X126401000Y-117551000D01*
G37*
G36*
X132401000Y-117551000D02*
G01*
X128599000Y-117551000D01*
X128599000Y-115449000D01*
X132401000Y-115449000D01*
X132401000Y-117551000D01*
G37*
G36*
X137901000Y-117551000D02*
G01*
X134099000Y-117551000D01*
X134099000Y-115449000D01*
X137901000Y-115449000D01*
X137901000Y-117551000D01*
G37*
G36*
X54806564Y-114589389D02*
G01*
X54997833Y-114668615D01*
X54997835Y-114668616D01*
X55150182Y-114770411D01*
X55169973Y-114783635D01*
X55316365Y-114930027D01*
X55431385Y-115102167D01*
X55510611Y-115293436D01*
X55551000Y-115496484D01*
X55551000Y-115703516D01*
X55510611Y-115906564D01*
X55431385Y-116097833D01*
X55431384Y-116097835D01*
X55316365Y-116269973D01*
X55169973Y-116416365D01*
X54997835Y-116531384D01*
X54997834Y-116531385D01*
X54997833Y-116531385D01*
X54806564Y-116610611D01*
X54603516Y-116651000D01*
X54396484Y-116651000D01*
X54193436Y-116610611D01*
X54002167Y-116531385D01*
X54002166Y-116531385D01*
X54002165Y-116531384D01*
X53830027Y-116416365D01*
X53683635Y-116269973D01*
X53568616Y-116097835D01*
X53568615Y-116097833D01*
X53489389Y-115906564D01*
X53449000Y-115703516D01*
X53449000Y-115496484D01*
X53489389Y-115293436D01*
X53568615Y-115102167D01*
X53683635Y-114930027D01*
X53830027Y-114783635D01*
X53849818Y-114770411D01*
X54002165Y-114668616D01*
X54002167Y-114668615D01*
X54193436Y-114589389D01*
X54396484Y-114549000D01*
X54603516Y-114549000D01*
X54806564Y-114589389D01*
G37*
G36*
X141072296Y-114507674D02*
G01*
X141117400Y-114526357D01*
X141157992Y-114553480D01*
X141161612Y-114557100D01*
X141180554Y-114572645D01*
X141202165Y-114584196D01*
X141225614Y-114591309D01*
X141250000Y-114593711D01*
X141274386Y-114591309D01*
X141297835Y-114584196D01*
X141319446Y-114572645D01*
X141338388Y-114557100D01*
X141342008Y-114553480D01*
X141382600Y-114526357D01*
X141427704Y-114507674D01*
X141475587Y-114498150D01*
X141524413Y-114498150D01*
X141572296Y-114507674D01*
X141617400Y-114526357D01*
X141657992Y-114553480D01*
X141661612Y-114557100D01*
X141680554Y-114572645D01*
X141702165Y-114584196D01*
X141725614Y-114591309D01*
X141750000Y-114593711D01*
X141774386Y-114591309D01*
X141797835Y-114584196D01*
X141819446Y-114572645D01*
X141838388Y-114557100D01*
X141842008Y-114553480D01*
X141882600Y-114526357D01*
X141927704Y-114507674D01*
X141975587Y-114498150D01*
X142024413Y-114498150D01*
X142072296Y-114507674D01*
X142117400Y-114526357D01*
X142157992Y-114553480D01*
X142192520Y-114588008D01*
X142219643Y-114628600D01*
X142238326Y-114673704D01*
X142247850Y-114721587D01*
X142247850Y-114770413D01*
X142238326Y-114818296D01*
X142219643Y-114863400D01*
X142192520Y-114903992D01*
X142157992Y-114938520D01*
X142117400Y-114965643D01*
X142072296Y-114984326D01*
X142024413Y-114993850D01*
X141975587Y-114993850D01*
X141927704Y-114984326D01*
X141882600Y-114965643D01*
X141842008Y-114938520D01*
X141838388Y-114934900D01*
X141819446Y-114919355D01*
X141797835Y-114907804D01*
X141774386Y-114900691D01*
X141750000Y-114898289D01*
X141725614Y-114900691D01*
X141702165Y-114907804D01*
X141680554Y-114919355D01*
X141661612Y-114934900D01*
X141657992Y-114938520D01*
X141617400Y-114965643D01*
X141572296Y-114984326D01*
X141524413Y-114993850D01*
X141475587Y-114993850D01*
X141427704Y-114984326D01*
X141382600Y-114965643D01*
X141342008Y-114938520D01*
X141338388Y-114934900D01*
X141319446Y-114919355D01*
X141297835Y-114907804D01*
X141274386Y-114900691D01*
X141250000Y-114898289D01*
X141225614Y-114900691D01*
X141202165Y-114907804D01*
X141180554Y-114919355D01*
X141161612Y-114934900D01*
X141157992Y-114938520D01*
X141117400Y-114965643D01*
X141072296Y-114984326D01*
X141024413Y-114993850D01*
X140975587Y-114993850D01*
X140927704Y-114984326D01*
X140882600Y-114965643D01*
X140842008Y-114938520D01*
X140807480Y-114903992D01*
X140780357Y-114863400D01*
X140761674Y-114818296D01*
X140752150Y-114770413D01*
X140752150Y-114721587D01*
X140761674Y-114673704D01*
X140780357Y-114628600D01*
X140807480Y-114588008D01*
X140842008Y-114553480D01*
X140882600Y-114526357D01*
X140927704Y-114507674D01*
X140975587Y-114498150D01*
X141024413Y-114498150D01*
X141072296Y-114507674D01*
G37*
G36*
X102572296Y-114507674D02*
G01*
X102617400Y-114526357D01*
X102657992Y-114553480D01*
X102661612Y-114557100D01*
X102680554Y-114572645D01*
X102702165Y-114584196D01*
X102725614Y-114591309D01*
X102750000Y-114593711D01*
X102774386Y-114591309D01*
X102797835Y-114584196D01*
X102819446Y-114572645D01*
X102838388Y-114557100D01*
X102842008Y-114553480D01*
X102882600Y-114526357D01*
X102927704Y-114507674D01*
X102975587Y-114498150D01*
X103024413Y-114498150D01*
X103072296Y-114507674D01*
X103117400Y-114526357D01*
X103157992Y-114553480D01*
X103161612Y-114557100D01*
X103180554Y-114572645D01*
X103202165Y-114584196D01*
X103225614Y-114591309D01*
X103250000Y-114593711D01*
X103274386Y-114591309D01*
X103297835Y-114584196D01*
X103319446Y-114572645D01*
X103338388Y-114557100D01*
X103342008Y-114553480D01*
X103382600Y-114526357D01*
X103427704Y-114507674D01*
X103475587Y-114498150D01*
X103524413Y-114498150D01*
X103572296Y-114507674D01*
X103617400Y-114526357D01*
X103657992Y-114553480D01*
X103692520Y-114588008D01*
X103719643Y-114628600D01*
X103738326Y-114673704D01*
X103747850Y-114721587D01*
X103747850Y-114770413D01*
X103738326Y-114818296D01*
X103719643Y-114863400D01*
X103692520Y-114903992D01*
X103657992Y-114938520D01*
X103617400Y-114965643D01*
X103572296Y-114984326D01*
X103524413Y-114993850D01*
X103475587Y-114993850D01*
X103427704Y-114984326D01*
X103382600Y-114965643D01*
X103342008Y-114938520D01*
X103338388Y-114934900D01*
X103319446Y-114919355D01*
X103297835Y-114907804D01*
X103274386Y-114900691D01*
X103250000Y-114898289D01*
X103225614Y-114900691D01*
X103202165Y-114907804D01*
X103180554Y-114919355D01*
X103161612Y-114934900D01*
X103157992Y-114938520D01*
X103117400Y-114965643D01*
X103072296Y-114984326D01*
X103024413Y-114993850D01*
X102975587Y-114993850D01*
X102927704Y-114984326D01*
X102882600Y-114965643D01*
X102842008Y-114938520D01*
X102838388Y-114934900D01*
X102819446Y-114919355D01*
X102797835Y-114907804D01*
X102774386Y-114900691D01*
X102750000Y-114898289D01*
X102725614Y-114900691D01*
X102702165Y-114907804D01*
X102680554Y-114919355D01*
X102661612Y-114934900D01*
X102657992Y-114938520D01*
X102617400Y-114965643D01*
X102572296Y-114984326D01*
X102524413Y-114993850D01*
X102475587Y-114993850D01*
X102427704Y-114984326D01*
X102382600Y-114965643D01*
X102342008Y-114938520D01*
X102307480Y-114903992D01*
X102280357Y-114863400D01*
X102261674Y-114818296D01*
X102252150Y-114770413D01*
X102252150Y-114721587D01*
X102261674Y-114673704D01*
X102280357Y-114628600D01*
X102307480Y-114588008D01*
X102342008Y-114553480D01*
X102382600Y-114526357D01*
X102427704Y-114507674D01*
X102475587Y-114498150D01*
X102524413Y-114498150D01*
X102572296Y-114507674D01*
G37*
G36*
X102572296Y-113515674D02*
G01*
X102617400Y-113534357D01*
X102657992Y-113561480D01*
X102661612Y-113565100D01*
X102680554Y-113580645D01*
X102702165Y-113592196D01*
X102725614Y-113599309D01*
X102750000Y-113601711D01*
X102774386Y-113599309D01*
X102797835Y-113592196D01*
X102819446Y-113580645D01*
X102838388Y-113565100D01*
X102842008Y-113561480D01*
X102882600Y-113534357D01*
X102927704Y-113515674D01*
X102975587Y-113506150D01*
X103024413Y-113506150D01*
X103072296Y-113515674D01*
X103117400Y-113534357D01*
X103157992Y-113561480D01*
X103161612Y-113565100D01*
X103180554Y-113580645D01*
X103202165Y-113592196D01*
X103225614Y-113599309D01*
X103250000Y-113601711D01*
X103274386Y-113599309D01*
X103297835Y-113592196D01*
X103319446Y-113580645D01*
X103338388Y-113565100D01*
X103342008Y-113561480D01*
X103382600Y-113534357D01*
X103427704Y-113515674D01*
X103475587Y-113506150D01*
X103524413Y-113506150D01*
X103572296Y-113515674D01*
X103617400Y-113534357D01*
X103657992Y-113561480D01*
X103692520Y-113596008D01*
X103719643Y-113636600D01*
X103738326Y-113681704D01*
X103747850Y-113729587D01*
X103747850Y-113778413D01*
X103738326Y-113826296D01*
X103719643Y-113871400D01*
X103692520Y-113911992D01*
X103657992Y-113946520D01*
X103617400Y-113973643D01*
X103572296Y-113992326D01*
X103524413Y-114001850D01*
X103475587Y-114001850D01*
X103427704Y-113992326D01*
X103382600Y-113973643D01*
X103342008Y-113946520D01*
X103338388Y-113942900D01*
X103319446Y-113927355D01*
X103297835Y-113915804D01*
X103274386Y-113908691D01*
X103250000Y-113906289D01*
X103225614Y-113908691D01*
X103202165Y-113915804D01*
X103180554Y-113927355D01*
X103161612Y-113942900D01*
X103157992Y-113946520D01*
X103117400Y-113973643D01*
X103072296Y-113992326D01*
X103024413Y-114001850D01*
X102975587Y-114001850D01*
X102927704Y-113992326D01*
X102882600Y-113973643D01*
X102842008Y-113946520D01*
X102838388Y-113942900D01*
X102819446Y-113927355D01*
X102797835Y-113915804D01*
X102774386Y-113908691D01*
X102750000Y-113906289D01*
X102725614Y-113908691D01*
X102702165Y-113915804D01*
X102680554Y-113927355D01*
X102661612Y-113942900D01*
X102657992Y-113946520D01*
X102617400Y-113973643D01*
X102572296Y-113992326D01*
X102524413Y-114001850D01*
X102475587Y-114001850D01*
X102427704Y-113992326D01*
X102382600Y-113973643D01*
X102342008Y-113946520D01*
X102307480Y-113911992D01*
X102280357Y-113871400D01*
X102261674Y-113826296D01*
X102252150Y-113778413D01*
X102252150Y-113729587D01*
X102261674Y-113681704D01*
X102280357Y-113636600D01*
X102307480Y-113596008D01*
X102342008Y-113561480D01*
X102382600Y-113534357D01*
X102427704Y-113515674D01*
X102475587Y-113506150D01*
X102524413Y-113506150D01*
X102572296Y-113515674D01*
G37*
G36*
X141072296Y-113515674D02*
G01*
X141117400Y-113534357D01*
X141157992Y-113561480D01*
X141161612Y-113565100D01*
X141180554Y-113580645D01*
X141202165Y-113592196D01*
X141225614Y-113599309D01*
X141250000Y-113601711D01*
X141274386Y-113599309D01*
X141297835Y-113592196D01*
X141319446Y-113580645D01*
X141338388Y-113565100D01*
X141342008Y-113561480D01*
X141382600Y-113534357D01*
X141427704Y-113515674D01*
X141475587Y-113506150D01*
X141524413Y-113506150D01*
X141572296Y-113515674D01*
X141617400Y-113534357D01*
X141657992Y-113561480D01*
X141661612Y-113565100D01*
X141680554Y-113580645D01*
X141702165Y-113592196D01*
X141725614Y-113599309D01*
X141750000Y-113601711D01*
X141774386Y-113599309D01*
X141797835Y-113592196D01*
X141819446Y-113580645D01*
X141838388Y-113565100D01*
X141842008Y-113561480D01*
X141882600Y-113534357D01*
X141927704Y-113515674D01*
X141975587Y-113506150D01*
X142024413Y-113506150D01*
X142072296Y-113515674D01*
X142117400Y-113534357D01*
X142157992Y-113561480D01*
X142192520Y-113596008D01*
X142219643Y-113636600D01*
X142238326Y-113681704D01*
X142247850Y-113729587D01*
X142247850Y-113778413D01*
X142238326Y-113826296D01*
X142219643Y-113871400D01*
X142192520Y-113911992D01*
X142157992Y-113946520D01*
X142117400Y-113973643D01*
X142072296Y-113992326D01*
X142024413Y-114001850D01*
X141975587Y-114001850D01*
X141927704Y-113992326D01*
X141882600Y-113973643D01*
X141842008Y-113946520D01*
X141838388Y-113942900D01*
X141819446Y-113927355D01*
X141797835Y-113915804D01*
X141774386Y-113908691D01*
X141750000Y-113906289D01*
X141725614Y-113908691D01*
X141702165Y-113915804D01*
X141680554Y-113927355D01*
X141661612Y-113942900D01*
X141657992Y-113946520D01*
X141617400Y-113973643D01*
X141572296Y-113992326D01*
X141524413Y-114001850D01*
X141475587Y-114001850D01*
X141427704Y-113992326D01*
X141382600Y-113973643D01*
X141342008Y-113946520D01*
X141338388Y-113942900D01*
X141319446Y-113927355D01*
X141297835Y-113915804D01*
X141274386Y-113908691D01*
X141250000Y-113906289D01*
X141225614Y-113908691D01*
X141202165Y-113915804D01*
X141180554Y-113927355D01*
X141161612Y-113942900D01*
X141157992Y-113946520D01*
X141117400Y-113973643D01*
X141072296Y-113992326D01*
X141024413Y-114001850D01*
X140975587Y-114001850D01*
X140927704Y-113992326D01*
X140882600Y-113973643D01*
X140842008Y-113946520D01*
X140807480Y-113911992D01*
X140780357Y-113871400D01*
X140761674Y-113826296D01*
X140752150Y-113778413D01*
X140752150Y-113729587D01*
X140761674Y-113681704D01*
X140780357Y-113636600D01*
X140807480Y-113596008D01*
X140842008Y-113561480D01*
X140882600Y-113534357D01*
X140927704Y-113515674D01*
X140975587Y-113506150D01*
X141024413Y-113506150D01*
X141072296Y-113515674D01*
G37*
G36*
X120901000Y-113051000D02*
G01*
X117099000Y-113051000D01*
X117099000Y-110949000D01*
X120901000Y-110949000D01*
X120901000Y-113051000D01*
G37*
G36*
X143401000Y-113051000D02*
G01*
X139599000Y-113051000D01*
X139599000Y-110949000D01*
X143401000Y-110949000D01*
X143401000Y-113051000D01*
G37*
G36*
X137901000Y-113051000D02*
G01*
X134099000Y-113051000D01*
X134099000Y-110949000D01*
X137901000Y-110949000D01*
X137901000Y-113051000D01*
G37*
G36*
X132401000Y-113051000D02*
G01*
X128599000Y-113051000D01*
X128599000Y-110949000D01*
X132401000Y-110949000D01*
X132401000Y-113051000D01*
G37*
G36*
X126401000Y-113051000D02*
G01*
X122599000Y-113051000D01*
X122599000Y-110949000D01*
X126401000Y-110949000D01*
X126401000Y-113051000D01*
G37*
G36*
X115401000Y-113051000D02*
G01*
X111599000Y-113051000D01*
X111599000Y-110949000D01*
X115401000Y-110949000D01*
X115401000Y-113051000D01*
G37*
G36*
X148801000Y-109847286D02*
G01*
X148803402Y-109871672D01*
X148813000Y-109919925D01*
X148813000Y-110080075D01*
X148803402Y-110128328D01*
X148801000Y-110152714D01*
X148801000Y-111551000D01*
X147199000Y-111551000D01*
X147199000Y-110152714D01*
X147196598Y-110128328D01*
X147187000Y-110080075D01*
X147187000Y-109919925D01*
X147196598Y-109871672D01*
X147199000Y-109847286D01*
X147199000Y-108449000D01*
X148801000Y-108449000D01*
X148801000Y-109847286D01*
G37*
G36*
X144326296Y-109261674D02*
G01*
X144371400Y-109280357D01*
X144411992Y-109307480D01*
X144446520Y-109342008D01*
X144473643Y-109382600D01*
X144492326Y-109427704D01*
X144501850Y-109475587D01*
X144501850Y-109524413D01*
X144492326Y-109572296D01*
X144473643Y-109617400D01*
X144446520Y-109657992D01*
X144442900Y-109661612D01*
X144427355Y-109680554D01*
X144415804Y-109702165D01*
X144408691Y-109725614D01*
X144406289Y-109750000D01*
X144408691Y-109774386D01*
X144415804Y-109797835D01*
X144427355Y-109819446D01*
X144442900Y-109838388D01*
X144446520Y-109842008D01*
X144473643Y-109882600D01*
X144492326Y-109927704D01*
X144501850Y-109975587D01*
X144501850Y-110024413D01*
X144492326Y-110072296D01*
X144473643Y-110117400D01*
X144446520Y-110157992D01*
X144442900Y-110161612D01*
X144427355Y-110180554D01*
X144415804Y-110202165D01*
X144408691Y-110225614D01*
X144406289Y-110250000D01*
X144408691Y-110274386D01*
X144415804Y-110297835D01*
X144427355Y-110319446D01*
X144442900Y-110338388D01*
X144446520Y-110342008D01*
X144473643Y-110382600D01*
X144492326Y-110427704D01*
X144501850Y-110475587D01*
X144501850Y-110524413D01*
X144492326Y-110572296D01*
X144473643Y-110617400D01*
X144446520Y-110657992D01*
X144411992Y-110692520D01*
X144371400Y-110719643D01*
X144326296Y-110738326D01*
X144278413Y-110747850D01*
X144229587Y-110747850D01*
X144181704Y-110738326D01*
X144136600Y-110719643D01*
X144096008Y-110692520D01*
X144061480Y-110657992D01*
X144034357Y-110617400D01*
X144015674Y-110572296D01*
X144006150Y-110524413D01*
X144006150Y-110475587D01*
X144015674Y-110427704D01*
X144034357Y-110382600D01*
X144061480Y-110342008D01*
X144065100Y-110338388D01*
X144080645Y-110319446D01*
X144092196Y-110297835D01*
X144099309Y-110274386D01*
X144101711Y-110250000D01*
X144099309Y-110225614D01*
X144092196Y-110202165D01*
X144080645Y-110180554D01*
X144065100Y-110161612D01*
X144061480Y-110157992D01*
X144034357Y-110117400D01*
X144015674Y-110072296D01*
X144006150Y-110024413D01*
X144006150Y-109975587D01*
X144015674Y-109927704D01*
X144034357Y-109882600D01*
X144061480Y-109842008D01*
X144065100Y-109838388D01*
X144080645Y-109819446D01*
X144092196Y-109797835D01*
X144099309Y-109774386D01*
X144101711Y-109750000D01*
X144099309Y-109725614D01*
X144092196Y-109702165D01*
X144080645Y-109680554D01*
X144065100Y-109661612D01*
X144061480Y-109657992D01*
X144034357Y-109617400D01*
X144015674Y-109572296D01*
X144006150Y-109524413D01*
X144006150Y-109475587D01*
X144015674Y-109427704D01*
X144034357Y-109382600D01*
X144061480Y-109342008D01*
X144096008Y-109307480D01*
X144136600Y-109280357D01*
X144181704Y-109261674D01*
X144229587Y-109252150D01*
X144278413Y-109252150D01*
X144326296Y-109261674D01*
G37*
G36*
X145318296Y-109261674D02*
G01*
X145363400Y-109280357D01*
X145403992Y-109307480D01*
X145438520Y-109342008D01*
X145465643Y-109382600D01*
X145484326Y-109427704D01*
X145493850Y-109475587D01*
X145493850Y-109524413D01*
X145484326Y-109572296D01*
X145465643Y-109617400D01*
X145438520Y-109657992D01*
X145434900Y-109661612D01*
X145419355Y-109680554D01*
X145407804Y-109702165D01*
X145400691Y-109725614D01*
X145398289Y-109750000D01*
X145400691Y-109774386D01*
X145407804Y-109797835D01*
X145419355Y-109819446D01*
X145434900Y-109838388D01*
X145438520Y-109842008D01*
X145465643Y-109882600D01*
X145484326Y-109927704D01*
X145493850Y-109975587D01*
X145493850Y-110024413D01*
X145484326Y-110072296D01*
X145465643Y-110117400D01*
X145438520Y-110157992D01*
X145434900Y-110161612D01*
X145419355Y-110180554D01*
X145407804Y-110202165D01*
X145400691Y-110225614D01*
X145398289Y-110250000D01*
X145400691Y-110274386D01*
X145407804Y-110297835D01*
X145419355Y-110319446D01*
X145434900Y-110338388D01*
X145438520Y-110342008D01*
X145465643Y-110382600D01*
X145484326Y-110427704D01*
X145493850Y-110475587D01*
X145493850Y-110524413D01*
X145484326Y-110572296D01*
X145465643Y-110617400D01*
X145438520Y-110657992D01*
X145403992Y-110692520D01*
X145363400Y-110719643D01*
X145318296Y-110738326D01*
X145270413Y-110747850D01*
X145221587Y-110747850D01*
X145173704Y-110738326D01*
X145128600Y-110719643D01*
X145088008Y-110692520D01*
X145053480Y-110657992D01*
X145026357Y-110617400D01*
X145007674Y-110572296D01*
X144998150Y-110524413D01*
X144998150Y-110475587D01*
X145007674Y-110427704D01*
X145026357Y-110382600D01*
X145053480Y-110342008D01*
X145057100Y-110338388D01*
X145072645Y-110319446D01*
X145084196Y-110297835D01*
X145091309Y-110274386D01*
X145093711Y-110250000D01*
X145091309Y-110225614D01*
X145084196Y-110202165D01*
X145072645Y-110180554D01*
X145057100Y-110161612D01*
X145053480Y-110157992D01*
X145026357Y-110117400D01*
X145007674Y-110072296D01*
X144998150Y-110024413D01*
X144998150Y-109975587D01*
X145007674Y-109927704D01*
X145026357Y-109882600D01*
X145053480Y-109842008D01*
X145057100Y-109838388D01*
X145072645Y-109819446D01*
X145084196Y-109797835D01*
X145091309Y-109774386D01*
X145093711Y-109750000D01*
X145091309Y-109725614D01*
X145084196Y-109702165D01*
X145072645Y-109680554D01*
X145057100Y-109661612D01*
X145053480Y-109657992D01*
X145026357Y-109617400D01*
X145007674Y-109572296D01*
X144998150Y-109524413D01*
X144998150Y-109475587D01*
X145007674Y-109427704D01*
X145026357Y-109382600D01*
X145053480Y-109342008D01*
X145088008Y-109307480D01*
X145128600Y-109280357D01*
X145173704Y-109261674D01*
X145221587Y-109252150D01*
X145270413Y-109252150D01*
X145318296Y-109261674D01*
G37*
G36*
X125651000Y-110151000D02*
G01*
X124649000Y-110151000D01*
X124649000Y-108849000D01*
X125651000Y-108849000D01*
X125651000Y-110151000D01*
G37*
G36*
X122351000Y-110151000D02*
G01*
X121349000Y-110151000D01*
X121349000Y-108849000D01*
X122351000Y-108849000D01*
X122351000Y-110151000D01*
G37*
G36*
X53651000Y-109651000D02*
G01*
X52649000Y-109651000D01*
X52649000Y-108349000D01*
X53651000Y-108349000D01*
X53651000Y-109651000D01*
G37*
G36*
X50351000Y-109651000D02*
G01*
X49349000Y-109651000D01*
X49349000Y-108349000D01*
X50351000Y-108349000D01*
X50351000Y-109651000D01*
G37*
G36*
X32351000Y-109651000D02*
G01*
X31349000Y-109651000D01*
X31349000Y-108349000D01*
X32351000Y-108349000D01*
X32351000Y-109651000D01*
G37*
G36*
X35651000Y-109651000D02*
G01*
X34649000Y-109651000D01*
X34649000Y-108349000D01*
X35651000Y-108349000D01*
X35651000Y-109651000D01*
G37*
G36*
X138501000Y-108951000D02*
G01*
X136799000Y-108951000D01*
X136799000Y-107999000D01*
X138501000Y-107999000D01*
X138501000Y-108951000D01*
G37*
G36*
X142001000Y-108951000D02*
G01*
X140299000Y-108951000D01*
X140299000Y-107999000D01*
X142001000Y-107999000D01*
X142001000Y-108951000D01*
G37*
G36*
X142001000Y-107201000D02*
G01*
X140299000Y-107201000D01*
X140299000Y-106249000D01*
X142001000Y-106249000D01*
X142001000Y-107201000D01*
G37*
G36*
X138501000Y-107201000D02*
G01*
X136799000Y-107201000D01*
X136799000Y-106249000D01*
X138501000Y-106249000D01*
X138501000Y-107201000D01*
G37*
G36*
X123897985Y-103293860D02*
G01*
X124010748Y-103316290D01*
X124094545Y-103351000D01*
X124329408Y-103448283D01*
X124616196Y-103639909D01*
X124860091Y-103883804D01*
X125051717Y-104170592D01*
X125183710Y-104489253D01*
X125251000Y-104827540D01*
X125251000Y-105172460D01*
X125183710Y-105510747D01*
X125051717Y-105829408D01*
X124860091Y-106116196D01*
X124616196Y-106360091D01*
X124329408Y-106551717D01*
X124142741Y-106629037D01*
X124010748Y-106683710D01*
X123897985Y-106706140D01*
X123672460Y-106751000D01*
X123327540Y-106751000D01*
X123102015Y-106706140D01*
X122989252Y-106683710D01*
X122857259Y-106629037D01*
X122670592Y-106551717D01*
X122383804Y-106360091D01*
X122139909Y-106116196D01*
X121948283Y-105829408D01*
X121816290Y-105510747D01*
X121749000Y-105172460D01*
X121749000Y-104827540D01*
X121816290Y-104489253D01*
X121948283Y-104170592D01*
X122139909Y-103883804D01*
X122383804Y-103639909D01*
X122670592Y-103448283D01*
X122905455Y-103351000D01*
X122989252Y-103316290D01*
X123102015Y-103293860D01*
X123327540Y-103249000D01*
X123672460Y-103249000D01*
X123897985Y-103293860D01*
G37*
G36*
X68351000Y-106651000D02*
G01*
X67349000Y-106651000D01*
X67349000Y-105349000D01*
X68351000Y-105349000D01*
X68351000Y-106651000D01*
G37*
G36*
X71651000Y-106651000D02*
G01*
X70649000Y-106651000D01*
X70649000Y-105349000D01*
X71651000Y-105349000D01*
X71651000Y-106651000D01*
G37*
G36*
X107651000Y-106651000D02*
G01*
X106649000Y-106651000D01*
X106649000Y-105349000D01*
X107651000Y-105349000D01*
X107651000Y-106651000D01*
G37*
G36*
X104351000Y-106651000D02*
G01*
X103349000Y-106651000D01*
X103349000Y-105349000D01*
X104351000Y-105349000D01*
X104351000Y-106651000D01*
G37*
G36*
X33897985Y-102793860D02*
G01*
X34010748Y-102816290D01*
X34116490Y-102860090D01*
X34329408Y-102948283D01*
X34616196Y-103139909D01*
X34860091Y-103383804D01*
X35051717Y-103670592D01*
X35129037Y-103857259D01*
X35180600Y-103981743D01*
X35183710Y-103989253D01*
X35251000Y-104327540D01*
X35251000Y-104672460D01*
X35220152Y-104827540D01*
X35183710Y-105010748D01*
X35157364Y-105074353D01*
X35051717Y-105329408D01*
X34860091Y-105616196D01*
X34616196Y-105860091D01*
X34329408Y-106051717D01*
X34142741Y-106129037D01*
X34010748Y-106183710D01*
X33897985Y-106206140D01*
X33672460Y-106251000D01*
X33327540Y-106251000D01*
X33102015Y-106206140D01*
X32989252Y-106183710D01*
X32857259Y-106129037D01*
X32670592Y-106051717D01*
X32383804Y-105860091D01*
X32139909Y-105616196D01*
X31948283Y-105329408D01*
X31842636Y-105074353D01*
X31816290Y-105010748D01*
X31779848Y-104827540D01*
X31749000Y-104672460D01*
X31749000Y-104327540D01*
X31816290Y-103989253D01*
X31819401Y-103981743D01*
X31870963Y-103857259D01*
X31948283Y-103670592D01*
X32139909Y-103383804D01*
X32383804Y-103139909D01*
X32670592Y-102948283D01*
X32883510Y-102860090D01*
X32989252Y-102816290D01*
X33102015Y-102793860D01*
X33327540Y-102749000D01*
X33672460Y-102749000D01*
X33897985Y-102793860D01*
G37*
G36*
X51897985Y-102793860D02*
G01*
X52010748Y-102816290D01*
X52116490Y-102860090D01*
X52329408Y-102948283D01*
X52616196Y-103139909D01*
X52860091Y-103383804D01*
X53051717Y-103670592D01*
X53129037Y-103857259D01*
X53180600Y-103981743D01*
X53183710Y-103989253D01*
X53251000Y-104327540D01*
X53251000Y-104672460D01*
X53220152Y-104827540D01*
X53183710Y-105010748D01*
X53157364Y-105074353D01*
X53051717Y-105329408D01*
X52860091Y-105616196D01*
X52616196Y-105860091D01*
X52329408Y-106051717D01*
X52142741Y-106129037D01*
X52010748Y-106183710D01*
X51897985Y-106206140D01*
X51672460Y-106251000D01*
X51327540Y-106251000D01*
X51102015Y-106206140D01*
X50989252Y-106183710D01*
X50857259Y-106129037D01*
X50670592Y-106051717D01*
X50383804Y-105860091D01*
X50139909Y-105616196D01*
X49948283Y-105329408D01*
X49842636Y-105074353D01*
X49816290Y-105010748D01*
X49779848Y-104827540D01*
X49749000Y-104672460D01*
X49749000Y-104327540D01*
X49816290Y-103989253D01*
X49819401Y-103981743D01*
X49870963Y-103857259D01*
X49948283Y-103670592D01*
X50139909Y-103383804D01*
X50383804Y-103139909D01*
X50670592Y-102948283D01*
X50883510Y-102860090D01*
X50989252Y-102816290D01*
X51102015Y-102793860D01*
X51327540Y-102749000D01*
X51672460Y-102749000D01*
X51897985Y-102793860D01*
G37*
G36*
X148801000Y-104347286D02*
G01*
X148803402Y-104371672D01*
X148813000Y-104419925D01*
X148813000Y-104580075D01*
X148803402Y-104628328D01*
X148801000Y-104652714D01*
X148801000Y-106051000D01*
X147199000Y-106051000D01*
X147199000Y-104652714D01*
X147196598Y-104628328D01*
X147187000Y-104580075D01*
X147187000Y-104419925D01*
X147196598Y-104371672D01*
X147199000Y-104347286D01*
X147199000Y-102949000D01*
X148801000Y-102949000D01*
X148801000Y-104347286D01*
G37*
G36*
X118113512Y-104103927D02*
G01*
X118262812Y-104133624D01*
X118426784Y-104201544D01*
X118574354Y-104300147D01*
X118699853Y-104425646D01*
X118798456Y-104573216D01*
X118866376Y-104737188D01*
X118901000Y-104911259D01*
X118901000Y-105088741D01*
X118866376Y-105262812D01*
X118798456Y-105426784D01*
X118699853Y-105574354D01*
X118574354Y-105699853D01*
X118426784Y-105798456D01*
X118262812Y-105866376D01*
X118113512Y-105896073D01*
X118088742Y-105901000D01*
X117911258Y-105901000D01*
X117886488Y-105896073D01*
X117737188Y-105866376D01*
X117573216Y-105798456D01*
X117425646Y-105699853D01*
X117300147Y-105574354D01*
X117201544Y-105426784D01*
X117133624Y-105262812D01*
X117099000Y-105088741D01*
X117099000Y-104911259D01*
X117133624Y-104737188D01*
X117201544Y-104573216D01*
X117300147Y-104425646D01*
X117425646Y-104300147D01*
X117573216Y-104201544D01*
X117737188Y-104133624D01*
X117886488Y-104103927D01*
X117911258Y-104099000D01*
X118088742Y-104099000D01*
X118113512Y-104103927D01*
G37*
G36*
X129113512Y-104103927D02*
G01*
X129262812Y-104133624D01*
X129426784Y-104201544D01*
X129574354Y-104300147D01*
X129699853Y-104425646D01*
X129798456Y-104573216D01*
X129866376Y-104737188D01*
X129901000Y-104911259D01*
X129901000Y-105088741D01*
X129866376Y-105262812D01*
X129798456Y-105426784D01*
X129699853Y-105574354D01*
X129574354Y-105699853D01*
X129426784Y-105798456D01*
X129262812Y-105866376D01*
X129113512Y-105896073D01*
X129088742Y-105901000D01*
X128911258Y-105901000D01*
X128886488Y-105896073D01*
X128737188Y-105866376D01*
X128573216Y-105798456D01*
X128425646Y-105699853D01*
X128300147Y-105574354D01*
X128201544Y-105426784D01*
X128133624Y-105262812D01*
X128099000Y-105088741D01*
X128099000Y-104911259D01*
X128133624Y-104737188D01*
X128201544Y-104573216D01*
X128300147Y-104425646D01*
X128425646Y-104300147D01*
X128573216Y-104201544D01*
X128737188Y-104133624D01*
X128886488Y-104103927D01*
X128911258Y-104099000D01*
X129088742Y-104099000D01*
X129113512Y-104103927D01*
G37*
G36*
X46113512Y-103603927D02*
G01*
X46262812Y-103633624D01*
X46426784Y-103701544D01*
X46574354Y-103800147D01*
X46699853Y-103925646D01*
X46798456Y-104073216D01*
X46866376Y-104237188D01*
X46901000Y-104411259D01*
X46901000Y-104588741D01*
X46866376Y-104762812D01*
X46798456Y-104926784D01*
X46699853Y-105074354D01*
X46574354Y-105199853D01*
X46426784Y-105298456D01*
X46262812Y-105366376D01*
X46113512Y-105396073D01*
X46088742Y-105401000D01*
X45911258Y-105401000D01*
X45886488Y-105396073D01*
X45737188Y-105366376D01*
X45573216Y-105298456D01*
X45425646Y-105199853D01*
X45300147Y-105074354D01*
X45201544Y-104926784D01*
X45133624Y-104762812D01*
X45099000Y-104588741D01*
X45099000Y-104411259D01*
X45133624Y-104237188D01*
X45201544Y-104073216D01*
X45300147Y-103925646D01*
X45425646Y-103800147D01*
X45573216Y-103701544D01*
X45737188Y-103633624D01*
X45886488Y-103603927D01*
X45911258Y-103599000D01*
X46088742Y-103599000D01*
X46113512Y-103603927D01*
G37*
G36*
X57113512Y-103603927D02*
G01*
X57262812Y-103633624D01*
X57426784Y-103701544D01*
X57574354Y-103800147D01*
X57699853Y-103925646D01*
X57798456Y-104073216D01*
X57866376Y-104237188D01*
X57901000Y-104411259D01*
X57901000Y-104588741D01*
X57866376Y-104762812D01*
X57798456Y-104926784D01*
X57699853Y-105074354D01*
X57574354Y-105199853D01*
X57426784Y-105298456D01*
X57262812Y-105366376D01*
X57113512Y-105396073D01*
X57088742Y-105401000D01*
X56911258Y-105401000D01*
X56886488Y-105396073D01*
X56737188Y-105366376D01*
X56573216Y-105298456D01*
X56425646Y-105199853D01*
X56300147Y-105074354D01*
X56201544Y-104926784D01*
X56133624Y-104762812D01*
X56099000Y-104588741D01*
X56099000Y-104411259D01*
X56133624Y-104237188D01*
X56201544Y-104073216D01*
X56300147Y-103925646D01*
X56425646Y-103800147D01*
X56573216Y-103701544D01*
X56737188Y-103633624D01*
X56886488Y-103603927D01*
X56911258Y-103599000D01*
X57088742Y-103599000D01*
X57113512Y-103603927D01*
G37*
G36*
X39113512Y-103603927D02*
G01*
X39262812Y-103633624D01*
X39426784Y-103701544D01*
X39574354Y-103800147D01*
X39699853Y-103925646D01*
X39798456Y-104073216D01*
X39866376Y-104237188D01*
X39901000Y-104411259D01*
X39901000Y-104588741D01*
X39866376Y-104762812D01*
X39798456Y-104926784D01*
X39699853Y-105074354D01*
X39574354Y-105199853D01*
X39426784Y-105298456D01*
X39262812Y-105366376D01*
X39113512Y-105396073D01*
X39088742Y-105401000D01*
X38911258Y-105401000D01*
X38886488Y-105396073D01*
X38737188Y-105366376D01*
X38573216Y-105298456D01*
X38425646Y-105199853D01*
X38300147Y-105074354D01*
X38201544Y-104926784D01*
X38133624Y-104762812D01*
X38099000Y-104588741D01*
X38099000Y-104411259D01*
X38133624Y-104237188D01*
X38201544Y-104073216D01*
X38300147Y-103925646D01*
X38425646Y-103800147D01*
X38573216Y-103701544D01*
X38737188Y-103633624D01*
X38886488Y-103603927D01*
X38911258Y-103599000D01*
X39088742Y-103599000D01*
X39113512Y-103603927D01*
G37*
G36*
X28113512Y-103603927D02*
G01*
X28262812Y-103633624D01*
X28426784Y-103701544D01*
X28574354Y-103800147D01*
X28699853Y-103925646D01*
X28798456Y-104073216D01*
X28866376Y-104237188D01*
X28901000Y-104411259D01*
X28901000Y-104588741D01*
X28866376Y-104762812D01*
X28798456Y-104926784D01*
X28699853Y-105074354D01*
X28574354Y-105199853D01*
X28426784Y-105298456D01*
X28262812Y-105366376D01*
X28113512Y-105396073D01*
X28088742Y-105401000D01*
X27911258Y-105401000D01*
X27886488Y-105396073D01*
X27737188Y-105366376D01*
X27573216Y-105298456D01*
X27425646Y-105199853D01*
X27300147Y-105074354D01*
X27201544Y-104926784D01*
X27133624Y-104762812D01*
X27099000Y-104588741D01*
X27099000Y-104411259D01*
X27133624Y-104237188D01*
X27201544Y-104073216D01*
X27300147Y-103925646D01*
X27425646Y-103800147D01*
X27573216Y-103701544D01*
X27737188Y-103633624D01*
X27886488Y-103603927D01*
X27911258Y-103599000D01*
X28088742Y-103599000D01*
X28113512Y-103603927D01*
G37*
G36*
X137051000Y-104451000D02*
G01*
X134449000Y-104451000D01*
X134449000Y-103149000D01*
X137051000Y-103149000D01*
X137051000Y-104451000D01*
G37*
G36*
X143551000Y-103351000D02*
G01*
X140949000Y-103351000D01*
X140949000Y-102049000D01*
X143551000Y-102049000D01*
X143551000Y-103351000D01*
G37*
G36*
X69837139Y-99781757D02*
G01*
X70010748Y-99816290D01*
X70142741Y-99870963D01*
X70329408Y-99948283D01*
X70616196Y-100139909D01*
X70860091Y-100383804D01*
X71051717Y-100670592D01*
X71110499Y-100812505D01*
X71183710Y-100989252D01*
X71187154Y-101006565D01*
X71251000Y-101327540D01*
X71251000Y-101672460D01*
X71183710Y-102010747D01*
X71051717Y-102329408D01*
X70860091Y-102616196D01*
X70616196Y-102860091D01*
X70329408Y-103051717D01*
X70142741Y-103129037D01*
X70010748Y-103183710D01*
X69897985Y-103206140D01*
X69672460Y-103251000D01*
X69327540Y-103251000D01*
X69102015Y-103206140D01*
X68989252Y-103183710D01*
X68857259Y-103129037D01*
X68670592Y-103051717D01*
X68383804Y-102860091D01*
X68139909Y-102616196D01*
X67948283Y-102329408D01*
X67816290Y-102010747D01*
X67749000Y-101672460D01*
X67749000Y-101327540D01*
X67812846Y-101006565D01*
X67816290Y-100989252D01*
X67889501Y-100812505D01*
X67948283Y-100670592D01*
X68139909Y-100383804D01*
X68383804Y-100139909D01*
X68670592Y-99948283D01*
X68857259Y-99870963D01*
X68989252Y-99816290D01*
X69162861Y-99781757D01*
X69327540Y-99749000D01*
X69672460Y-99749000D01*
X69837139Y-99781757D01*
G37*
G36*
X105837139Y-99781757D02*
G01*
X106010748Y-99816290D01*
X106142741Y-99870963D01*
X106329408Y-99948283D01*
X106616196Y-100139909D01*
X106860091Y-100383804D01*
X107051717Y-100670592D01*
X107110499Y-100812505D01*
X107183710Y-100989252D01*
X107187154Y-101006565D01*
X107251000Y-101327540D01*
X107251000Y-101672460D01*
X107183710Y-102010747D01*
X107051717Y-102329408D01*
X106860091Y-102616196D01*
X106616196Y-102860091D01*
X106329408Y-103051717D01*
X106142741Y-103129037D01*
X106010748Y-103183710D01*
X105897985Y-103206140D01*
X105672460Y-103251000D01*
X105327540Y-103251000D01*
X105102015Y-103206140D01*
X104989252Y-103183710D01*
X104857259Y-103129037D01*
X104670592Y-103051717D01*
X104383804Y-102860091D01*
X104139909Y-102616196D01*
X103948283Y-102329408D01*
X103816290Y-102010747D01*
X103749000Y-101672460D01*
X103749000Y-101327540D01*
X103812846Y-101006565D01*
X103816290Y-100989252D01*
X103889501Y-100812505D01*
X103948283Y-100670592D01*
X104139909Y-100383804D01*
X104383804Y-100139909D01*
X104670592Y-99948283D01*
X104857259Y-99870963D01*
X104989252Y-99816290D01*
X105162861Y-99781757D01*
X105327540Y-99749000D01*
X105672460Y-99749000D01*
X105837139Y-99781757D01*
G37*
G36*
X64113512Y-100603927D02*
G01*
X64262812Y-100633624D01*
X64426784Y-100701544D01*
X64574354Y-100800147D01*
X64699853Y-100925646D01*
X64798456Y-101073216D01*
X64866376Y-101237188D01*
X64901000Y-101411259D01*
X64901000Y-101588741D01*
X64866376Y-101762812D01*
X64798456Y-101926784D01*
X64699853Y-102074354D01*
X64574354Y-102199853D01*
X64426784Y-102298456D01*
X64262812Y-102366376D01*
X64113512Y-102396073D01*
X64088742Y-102401000D01*
X63911258Y-102401000D01*
X63886488Y-102396073D01*
X63737188Y-102366376D01*
X63573216Y-102298456D01*
X63425646Y-102199853D01*
X63300147Y-102074354D01*
X63201544Y-101926784D01*
X63133624Y-101762812D01*
X63099000Y-101588741D01*
X63099000Y-101411259D01*
X63133624Y-101237188D01*
X63201544Y-101073216D01*
X63300147Y-100925646D01*
X63425646Y-100800147D01*
X63573216Y-100701544D01*
X63737188Y-100633624D01*
X63886488Y-100603927D01*
X63911258Y-100599000D01*
X64088742Y-100599000D01*
X64113512Y-100603927D01*
G37*
G36*
X100113512Y-100603927D02*
G01*
X100262812Y-100633624D01*
X100426784Y-100701544D01*
X100574354Y-100800147D01*
X100699853Y-100925646D01*
X100798456Y-101073216D01*
X100866376Y-101237188D01*
X100901000Y-101411259D01*
X100901000Y-101588741D01*
X100866376Y-101762812D01*
X100798456Y-101926784D01*
X100699853Y-102074354D01*
X100574354Y-102199853D01*
X100426784Y-102298456D01*
X100262812Y-102366376D01*
X100113512Y-102396073D01*
X100088742Y-102401000D01*
X99911258Y-102401000D01*
X99886488Y-102396073D01*
X99737188Y-102366376D01*
X99573216Y-102298456D01*
X99425646Y-102199853D01*
X99300147Y-102074354D01*
X99201544Y-101926784D01*
X99133624Y-101762812D01*
X99099000Y-101588741D01*
X99099000Y-101411259D01*
X99133624Y-101237188D01*
X99201544Y-101073216D01*
X99300147Y-100925646D01*
X99425646Y-100800147D01*
X99573216Y-100701544D01*
X99737188Y-100633624D01*
X99886488Y-100603927D01*
X99911258Y-100599000D01*
X100088742Y-100599000D01*
X100113512Y-100603927D01*
G37*
G36*
X111113512Y-100603927D02*
G01*
X111262812Y-100633624D01*
X111426784Y-100701544D01*
X111574354Y-100800147D01*
X111699853Y-100925646D01*
X111798456Y-101073216D01*
X111866376Y-101237188D01*
X111901000Y-101411259D01*
X111901000Y-101588741D01*
X111866376Y-101762812D01*
X111798456Y-101926784D01*
X111699853Y-102074354D01*
X111574354Y-102199853D01*
X111426784Y-102298456D01*
X111262812Y-102366376D01*
X111113512Y-102396073D01*
X111088742Y-102401000D01*
X110911258Y-102401000D01*
X110886488Y-102396073D01*
X110737188Y-102366376D01*
X110573216Y-102298456D01*
X110425646Y-102199853D01*
X110300147Y-102074354D01*
X110201544Y-101926784D01*
X110133624Y-101762812D01*
X110099000Y-101588741D01*
X110099000Y-101411259D01*
X110133624Y-101237188D01*
X110201544Y-101073216D01*
X110300147Y-100925646D01*
X110425646Y-100800147D01*
X110573216Y-100701544D01*
X110737188Y-100633624D01*
X110886488Y-100603927D01*
X110911258Y-100599000D01*
X111088742Y-100599000D01*
X111113512Y-100603927D01*
G37*
G36*
X75113512Y-100603927D02*
G01*
X75262812Y-100633624D01*
X75426784Y-100701544D01*
X75574354Y-100800147D01*
X75699853Y-100925646D01*
X75798456Y-101073216D01*
X75866376Y-101237188D01*
X75901000Y-101411259D01*
X75901000Y-101588741D01*
X75866376Y-101762812D01*
X75798456Y-101926784D01*
X75699853Y-102074354D01*
X75574354Y-102199853D01*
X75426784Y-102298456D01*
X75262812Y-102366376D01*
X75113512Y-102396073D01*
X75088742Y-102401000D01*
X74911258Y-102401000D01*
X74886488Y-102396073D01*
X74737188Y-102366376D01*
X74573216Y-102298456D01*
X74425646Y-102199853D01*
X74300147Y-102074354D01*
X74201544Y-101926784D01*
X74133624Y-101762812D01*
X74099000Y-101588741D01*
X74099000Y-101411259D01*
X74133624Y-101237188D01*
X74201544Y-101073216D01*
X74300147Y-100925646D01*
X74425646Y-100800147D01*
X74573216Y-100701544D01*
X74737188Y-100633624D01*
X74886488Y-100603927D01*
X74911258Y-100599000D01*
X75088742Y-100599000D01*
X75113512Y-100603927D01*
G37*
G36*
X118806564Y-100189389D02*
G01*
X118997833Y-100268615D01*
X118997835Y-100268616D01*
X119169973Y-100383635D01*
X119316365Y-100530027D01*
X119430157Y-100700328D01*
X119431385Y-100702167D01*
X119510611Y-100893436D01*
X119551000Y-101096484D01*
X119551000Y-101303516D01*
X119510611Y-101506564D01*
X119441895Y-101672460D01*
X119431384Y-101697835D01*
X119316365Y-101869973D01*
X119169973Y-102016365D01*
X118997835Y-102131384D01*
X118997834Y-102131385D01*
X118997833Y-102131385D01*
X118806564Y-102210611D01*
X118603516Y-102251000D01*
X118396484Y-102251000D01*
X118193436Y-102210611D01*
X118002167Y-102131385D01*
X118002166Y-102131385D01*
X118002165Y-102131384D01*
X117830027Y-102016365D01*
X117683635Y-101869973D01*
X117568616Y-101697835D01*
X117558105Y-101672460D01*
X117489389Y-101506564D01*
X117449000Y-101303516D01*
X117449000Y-101096484D01*
X117489389Y-100893436D01*
X117568615Y-100702167D01*
X117569844Y-100700328D01*
X117683635Y-100530027D01*
X117830027Y-100383635D01*
X118002165Y-100268616D01*
X118002167Y-100268615D01*
X118193436Y-100189389D01*
X118396484Y-100149000D01*
X118603516Y-100149000D01*
X118806564Y-100189389D01*
G37*
G36*
X28806564Y-99689389D02*
G01*
X28997833Y-99768615D01*
X28997835Y-99768616D01*
X29169973Y-99883635D01*
X29316365Y-100030027D01*
X29397197Y-100151000D01*
X29431385Y-100202167D01*
X29510611Y-100393436D01*
X29551000Y-100596484D01*
X29551000Y-100803516D01*
X29510611Y-101006564D01*
X29483002Y-101073218D01*
X29431384Y-101197835D01*
X29316365Y-101369973D01*
X29169973Y-101516365D01*
X28997835Y-101631384D01*
X28997834Y-101631385D01*
X28997833Y-101631385D01*
X28806564Y-101710611D01*
X28603516Y-101751000D01*
X28396484Y-101751000D01*
X28193436Y-101710611D01*
X28002167Y-101631385D01*
X28002166Y-101631385D01*
X28002165Y-101631384D01*
X27830027Y-101516365D01*
X27683635Y-101369973D01*
X27568616Y-101197835D01*
X27516998Y-101073218D01*
X27489389Y-101006564D01*
X27449000Y-100803516D01*
X27449000Y-100596484D01*
X27489389Y-100393436D01*
X27568615Y-100202167D01*
X27602804Y-100151000D01*
X27683635Y-100030027D01*
X27830027Y-99883635D01*
X28002165Y-99768616D01*
X28002167Y-99768615D01*
X28193436Y-99689389D01*
X28396484Y-99649000D01*
X28603516Y-99649000D01*
X28806564Y-99689389D01*
G37*
G36*
X46806564Y-99689389D02*
G01*
X46997833Y-99768615D01*
X46997835Y-99768616D01*
X47169973Y-99883635D01*
X47316365Y-100030027D01*
X47397197Y-100151000D01*
X47431385Y-100202167D01*
X47510611Y-100393436D01*
X47551000Y-100596484D01*
X47551000Y-100803516D01*
X47510611Y-101006564D01*
X47483002Y-101073218D01*
X47431384Y-101197835D01*
X47316365Y-101369973D01*
X47169973Y-101516365D01*
X46997835Y-101631384D01*
X46997834Y-101631385D01*
X46997833Y-101631385D01*
X46806564Y-101710611D01*
X46603516Y-101751000D01*
X46396484Y-101751000D01*
X46193436Y-101710611D01*
X46002167Y-101631385D01*
X46002166Y-101631385D01*
X46002165Y-101631384D01*
X45830027Y-101516365D01*
X45683635Y-101369973D01*
X45568616Y-101197835D01*
X45516998Y-101073218D01*
X45489389Y-101006564D01*
X45449000Y-100803516D01*
X45449000Y-100596484D01*
X45489389Y-100393436D01*
X45568615Y-100202167D01*
X45602804Y-100151000D01*
X45683635Y-100030027D01*
X45830027Y-99883635D01*
X46002165Y-99768616D01*
X46002167Y-99768615D01*
X46193436Y-99689389D01*
X46396484Y-99649000D01*
X46603516Y-99649000D01*
X46806564Y-99689389D01*
G37*
G36*
X86351000Y-101651000D02*
G01*
X85349000Y-101651000D01*
X85349000Y-100349000D01*
X86351000Y-100349000D01*
X86351000Y-101651000D01*
G37*
G36*
X89651000Y-101651000D02*
G01*
X88649000Y-101651000D01*
X88649000Y-100349000D01*
X89651000Y-100349000D01*
X89651000Y-101651000D01*
G37*
G36*
X139131552Y-100666331D02*
G01*
X139213627Y-100700328D01*
X139213629Y-100700329D01*
X139250813Y-100725175D01*
X139287495Y-100749685D01*
X139350315Y-100812505D01*
X139399672Y-100886373D01*
X139433669Y-100968448D01*
X139451000Y-101055579D01*
X139451000Y-101144421D01*
X139433669Y-101231552D01*
X139403861Y-101303514D01*
X139399671Y-101313629D01*
X139350314Y-101387496D01*
X139287496Y-101450314D01*
X139213629Y-101499671D01*
X139213628Y-101499672D01*
X139213627Y-101499672D01*
X139131552Y-101533669D01*
X139044421Y-101551000D01*
X138955579Y-101551000D01*
X138868448Y-101533669D01*
X138786373Y-101499672D01*
X138786372Y-101499672D01*
X138786371Y-101499671D01*
X138712504Y-101450314D01*
X138649686Y-101387496D01*
X138600329Y-101313629D01*
X138596139Y-101303514D01*
X138566331Y-101231552D01*
X138549000Y-101144421D01*
X138549000Y-101055579D01*
X138566331Y-100968448D01*
X138600328Y-100886373D01*
X138649685Y-100812505D01*
X138712505Y-100749685D01*
X138749187Y-100725175D01*
X138786371Y-100700329D01*
X138786373Y-100700328D01*
X138868448Y-100666331D01*
X138955579Y-100649000D01*
X139044421Y-100649000D01*
X139131552Y-100666331D01*
G37*
G36*
X148801000Y-98847286D02*
G01*
X148803402Y-98871672D01*
X148813000Y-98919925D01*
X148813000Y-99080075D01*
X148803402Y-99128328D01*
X148801000Y-99152714D01*
X148801000Y-100551000D01*
X147199000Y-100551000D01*
X147199000Y-99152714D01*
X147196598Y-99128328D01*
X147187000Y-99080075D01*
X147187000Y-98919925D01*
X147196598Y-98871672D01*
X147199000Y-98847286D01*
X147199000Y-97449000D01*
X148801000Y-97449000D01*
X148801000Y-98847286D01*
G37*
G36*
X123806564Y-98089389D02*
G01*
X123997833Y-98168615D01*
X123997835Y-98168616D01*
X124169973Y-98283635D01*
X124316365Y-98430027D01*
X124360772Y-98496486D01*
X124431385Y-98602167D01*
X124510611Y-98793436D01*
X124551000Y-98996484D01*
X124551000Y-99203516D01*
X124510611Y-99406564D01*
X124441963Y-99572295D01*
X124431384Y-99597835D01*
X124316365Y-99769973D01*
X124169973Y-99916365D01*
X123997835Y-100031384D01*
X123997834Y-100031385D01*
X123997833Y-100031385D01*
X123806564Y-100110611D01*
X123603516Y-100151000D01*
X123396484Y-100151000D01*
X123193436Y-100110611D01*
X123002167Y-100031385D01*
X123002166Y-100031385D01*
X123002165Y-100031384D01*
X122830027Y-99916365D01*
X122683635Y-99769973D01*
X122568616Y-99597835D01*
X122558037Y-99572295D01*
X122489389Y-99406564D01*
X122449000Y-99203516D01*
X122449000Y-98996484D01*
X122489389Y-98793436D01*
X122568615Y-98602167D01*
X122639229Y-98496486D01*
X122683635Y-98430027D01*
X122830027Y-98283635D01*
X123002165Y-98168616D01*
X123002167Y-98168615D01*
X123193436Y-98089389D01*
X123396484Y-98049000D01*
X123603516Y-98049000D01*
X123806564Y-98089389D01*
G37*
G36*
X144326296Y-98261674D02*
G01*
X144371400Y-98280357D01*
X144411992Y-98307480D01*
X144446520Y-98342008D01*
X144473643Y-98382600D01*
X144492326Y-98427704D01*
X144501850Y-98475587D01*
X144501850Y-98524413D01*
X144492326Y-98572296D01*
X144473643Y-98617400D01*
X144446520Y-98657992D01*
X144442900Y-98661612D01*
X144427355Y-98680554D01*
X144415804Y-98702165D01*
X144408691Y-98725614D01*
X144406289Y-98750000D01*
X144408691Y-98774386D01*
X144415804Y-98797835D01*
X144427355Y-98819446D01*
X144442900Y-98838388D01*
X144446520Y-98842008D01*
X144473643Y-98882600D01*
X144492326Y-98927704D01*
X144501850Y-98975587D01*
X144501850Y-99024413D01*
X144492326Y-99072296D01*
X144473643Y-99117400D01*
X144446520Y-99157992D01*
X144442900Y-99161612D01*
X144427355Y-99180554D01*
X144415804Y-99202165D01*
X144408691Y-99225614D01*
X144406289Y-99250000D01*
X144408691Y-99274386D01*
X144415804Y-99297835D01*
X144427355Y-99319446D01*
X144442900Y-99338388D01*
X144446520Y-99342008D01*
X144473643Y-99382600D01*
X144492326Y-99427704D01*
X144501850Y-99475587D01*
X144501850Y-99524413D01*
X144492326Y-99572296D01*
X144473643Y-99617400D01*
X144446520Y-99657992D01*
X144411992Y-99692520D01*
X144371400Y-99719643D01*
X144326296Y-99738326D01*
X144278413Y-99747850D01*
X144229587Y-99747850D01*
X144181704Y-99738326D01*
X144136600Y-99719643D01*
X144096008Y-99692520D01*
X144061480Y-99657992D01*
X144034357Y-99617400D01*
X144015674Y-99572296D01*
X144006150Y-99524413D01*
X144006150Y-99475587D01*
X144015674Y-99427704D01*
X144034357Y-99382600D01*
X144061480Y-99342008D01*
X144065100Y-99338388D01*
X144080645Y-99319446D01*
X144092196Y-99297835D01*
X144099309Y-99274386D01*
X144101711Y-99250000D01*
X144099309Y-99225614D01*
X144092196Y-99202165D01*
X144080645Y-99180554D01*
X144065100Y-99161612D01*
X144061480Y-99157992D01*
X144034357Y-99117400D01*
X144015674Y-99072296D01*
X144006150Y-99024413D01*
X144006150Y-98975587D01*
X144015674Y-98927704D01*
X144034357Y-98882600D01*
X144061480Y-98842008D01*
X144065100Y-98838388D01*
X144080645Y-98819446D01*
X144092196Y-98797835D01*
X144099309Y-98774386D01*
X144101711Y-98750000D01*
X144099309Y-98725614D01*
X144092196Y-98702165D01*
X144080645Y-98680554D01*
X144065100Y-98661612D01*
X144061480Y-98657992D01*
X144034357Y-98617400D01*
X144015674Y-98572296D01*
X144006150Y-98524413D01*
X144006150Y-98475587D01*
X144015674Y-98427704D01*
X144034357Y-98382600D01*
X144061480Y-98342008D01*
X144096008Y-98307480D01*
X144136600Y-98280357D01*
X144181704Y-98261674D01*
X144229587Y-98252150D01*
X144278413Y-98252150D01*
X144326296Y-98261674D01*
G37*
G36*
X145318296Y-98261674D02*
G01*
X145363400Y-98280357D01*
X145403992Y-98307480D01*
X145438520Y-98342008D01*
X145465643Y-98382600D01*
X145484326Y-98427704D01*
X145493850Y-98475587D01*
X145493850Y-98524413D01*
X145484326Y-98572296D01*
X145465643Y-98617400D01*
X145438520Y-98657992D01*
X145434900Y-98661612D01*
X145419355Y-98680554D01*
X145407804Y-98702165D01*
X145400691Y-98725614D01*
X145398289Y-98750000D01*
X145400691Y-98774386D01*
X145407804Y-98797835D01*
X145419355Y-98819446D01*
X145434900Y-98838388D01*
X145438520Y-98842008D01*
X145465643Y-98882600D01*
X145484326Y-98927704D01*
X145493850Y-98975587D01*
X145493850Y-99024413D01*
X145484326Y-99072296D01*
X145465643Y-99117400D01*
X145438520Y-99157992D01*
X145434900Y-99161612D01*
X145419355Y-99180554D01*
X145407804Y-99202165D01*
X145400691Y-99225614D01*
X145398289Y-99250000D01*
X145400691Y-99274386D01*
X145407804Y-99297835D01*
X145419355Y-99319446D01*
X145434900Y-99338388D01*
X145438520Y-99342008D01*
X145465643Y-99382600D01*
X145484326Y-99427704D01*
X145493850Y-99475587D01*
X145493850Y-99524413D01*
X145484326Y-99572296D01*
X145465643Y-99617400D01*
X145438520Y-99657992D01*
X145403992Y-99692520D01*
X145363400Y-99719643D01*
X145318296Y-99738326D01*
X145270413Y-99747850D01*
X145221587Y-99747850D01*
X145173704Y-99738326D01*
X145128600Y-99719643D01*
X145088008Y-99692520D01*
X145053480Y-99657992D01*
X145026357Y-99617400D01*
X145007674Y-99572296D01*
X144998150Y-99524413D01*
X144998150Y-99475587D01*
X145007674Y-99427704D01*
X145026357Y-99382600D01*
X145053480Y-99342008D01*
X145057100Y-99338388D01*
X145072645Y-99319446D01*
X145084196Y-99297835D01*
X145091309Y-99274386D01*
X145093711Y-99250000D01*
X145091309Y-99225614D01*
X145084196Y-99202165D01*
X145072645Y-99180554D01*
X145057100Y-99161612D01*
X145053480Y-99157992D01*
X145026357Y-99117400D01*
X145007674Y-99072296D01*
X144998150Y-99024413D01*
X144998150Y-98975587D01*
X145007674Y-98927704D01*
X145026357Y-98882600D01*
X145053480Y-98842008D01*
X145057100Y-98838388D01*
X145072645Y-98819446D01*
X145084196Y-98797835D01*
X145091309Y-98774386D01*
X145093711Y-98750000D01*
X145091309Y-98725614D01*
X145084196Y-98702165D01*
X145072645Y-98680554D01*
X145057100Y-98661612D01*
X145053480Y-98657992D01*
X145026357Y-98617400D01*
X145007674Y-98572296D01*
X144998150Y-98524413D01*
X144998150Y-98475587D01*
X145007674Y-98427704D01*
X145026357Y-98382600D01*
X145053480Y-98342008D01*
X145088008Y-98307480D01*
X145128600Y-98280357D01*
X145173704Y-98261674D01*
X145221587Y-98252150D01*
X145270413Y-98252150D01*
X145318296Y-98261674D01*
G37*
G36*
X33806564Y-97589389D02*
G01*
X33997833Y-97668615D01*
X33997835Y-97668616D01*
X34169973Y-97783635D01*
X34316365Y-97930027D01*
X34397676Y-98051717D01*
X34431385Y-98102167D01*
X34510611Y-98293436D01*
X34551000Y-98496484D01*
X34551000Y-98703516D01*
X34510611Y-98906564D01*
X34431385Y-99097833D01*
X34431384Y-99097835D01*
X34316365Y-99269973D01*
X34169973Y-99416365D01*
X33997835Y-99531384D01*
X33997834Y-99531385D01*
X33997833Y-99531385D01*
X33806564Y-99610611D01*
X33603516Y-99651000D01*
X33396484Y-99651000D01*
X33193436Y-99610611D01*
X33002167Y-99531385D01*
X33002166Y-99531385D01*
X33002165Y-99531384D01*
X32830027Y-99416365D01*
X32683635Y-99269973D01*
X32568616Y-99097835D01*
X32568615Y-99097833D01*
X32489389Y-98906564D01*
X32449000Y-98703516D01*
X32449000Y-98496484D01*
X32489389Y-98293436D01*
X32568615Y-98102167D01*
X32602325Y-98051717D01*
X32683635Y-97930027D01*
X32830027Y-97783635D01*
X33002165Y-97668616D01*
X33002167Y-97668615D01*
X33193436Y-97589389D01*
X33396484Y-97549000D01*
X33603516Y-97549000D01*
X33806564Y-97589389D01*
G37*
G36*
X51806564Y-97589389D02*
G01*
X51997833Y-97668615D01*
X51997835Y-97668616D01*
X52169973Y-97783635D01*
X52316365Y-97930027D01*
X52397676Y-98051717D01*
X52431385Y-98102167D01*
X52510611Y-98293436D01*
X52551000Y-98496484D01*
X52551000Y-98703516D01*
X52510611Y-98906564D01*
X52431385Y-99097833D01*
X52431384Y-99097835D01*
X52316365Y-99269973D01*
X52169973Y-99416365D01*
X51997835Y-99531384D01*
X51997834Y-99531385D01*
X51997833Y-99531385D01*
X51806564Y-99610611D01*
X51603516Y-99651000D01*
X51396484Y-99651000D01*
X51193436Y-99610611D01*
X51002167Y-99531385D01*
X51002166Y-99531385D01*
X51002165Y-99531384D01*
X50830027Y-99416365D01*
X50683635Y-99269973D01*
X50568616Y-99097835D01*
X50568615Y-99097833D01*
X50489389Y-98906564D01*
X50449000Y-98703516D01*
X50449000Y-98496484D01*
X50489389Y-98293436D01*
X50568615Y-98102167D01*
X50602325Y-98051717D01*
X50683635Y-97930027D01*
X50830027Y-97783635D01*
X51002165Y-97668616D01*
X51002167Y-97668615D01*
X51193436Y-97589389D01*
X51396484Y-97549000D01*
X51603516Y-97549000D01*
X51806564Y-97589389D01*
G37*
G36*
X143551000Y-99351000D02*
G01*
X140949000Y-99351000D01*
X140949000Y-98049000D01*
X143551000Y-98049000D01*
X143551000Y-99351000D01*
G37*
G36*
X100806564Y-96689389D02*
G01*
X100983823Y-96762812D01*
X100997835Y-96768616D01*
X101169973Y-96883635D01*
X101316365Y-97030027D01*
X101429839Y-97199852D01*
X101431385Y-97202167D01*
X101510611Y-97393436D01*
X101551000Y-97596484D01*
X101551000Y-97803516D01*
X101510611Y-98006564D01*
X101471011Y-98102167D01*
X101431384Y-98197835D01*
X101316365Y-98369973D01*
X101169973Y-98516365D01*
X100997835Y-98631384D01*
X100997834Y-98631385D01*
X100997833Y-98631385D01*
X100806564Y-98710611D01*
X100603516Y-98751000D01*
X100396484Y-98751000D01*
X100193436Y-98710611D01*
X100002167Y-98631385D01*
X100002166Y-98631385D01*
X100002165Y-98631384D01*
X99830027Y-98516365D01*
X99683635Y-98369973D01*
X99568616Y-98197835D01*
X99528989Y-98102167D01*
X99489389Y-98006564D01*
X99449000Y-97803516D01*
X99449000Y-97596484D01*
X99489389Y-97393436D01*
X99568615Y-97202167D01*
X99570162Y-97199852D01*
X99683635Y-97030027D01*
X99830027Y-96883635D01*
X100002165Y-96768616D01*
X100016177Y-96762812D01*
X100193436Y-96689389D01*
X100396484Y-96649000D01*
X100603516Y-96649000D01*
X100806564Y-96689389D01*
G37*
G36*
X64806564Y-96689389D02*
G01*
X64983823Y-96762812D01*
X64997835Y-96768616D01*
X65169973Y-96883635D01*
X65316365Y-97030027D01*
X65429839Y-97199852D01*
X65431385Y-97202167D01*
X65510611Y-97393436D01*
X65551000Y-97596484D01*
X65551000Y-97803516D01*
X65510611Y-98006564D01*
X65471011Y-98102167D01*
X65431384Y-98197835D01*
X65316365Y-98369973D01*
X65169973Y-98516365D01*
X64997835Y-98631384D01*
X64997834Y-98631385D01*
X64997833Y-98631385D01*
X64806564Y-98710611D01*
X64603516Y-98751000D01*
X64396484Y-98751000D01*
X64193436Y-98710611D01*
X64002167Y-98631385D01*
X64002166Y-98631385D01*
X64002165Y-98631384D01*
X63830027Y-98516365D01*
X63683635Y-98369973D01*
X63568616Y-98197835D01*
X63528989Y-98102167D01*
X63489389Y-98006564D01*
X63449000Y-97803516D01*
X63449000Y-97596484D01*
X63489389Y-97393436D01*
X63568615Y-97202167D01*
X63570162Y-97199852D01*
X63683635Y-97030027D01*
X63830027Y-96883635D01*
X64002165Y-96768616D01*
X64016177Y-96762812D01*
X64193436Y-96689389D01*
X64396484Y-96649000D01*
X64603516Y-96649000D01*
X64806564Y-96689389D01*
G37*
G36*
X87897985Y-94793860D02*
G01*
X88010748Y-94816290D01*
X88142741Y-94870963D01*
X88329408Y-94948283D01*
X88616196Y-95139909D01*
X88860091Y-95383804D01*
X89051717Y-95670592D01*
X89183710Y-95989253D01*
X89251000Y-96327540D01*
X89251000Y-96672460D01*
X89183710Y-97010747D01*
X89051717Y-97329408D01*
X88860091Y-97616196D01*
X88616196Y-97860091D01*
X88329408Y-98051717D01*
X88207615Y-98102165D01*
X88010748Y-98183710D01*
X87897985Y-98206140D01*
X87672460Y-98251000D01*
X87327540Y-98251000D01*
X87102015Y-98206140D01*
X86989252Y-98183710D01*
X86792385Y-98102165D01*
X86670592Y-98051717D01*
X86383804Y-97860091D01*
X86139909Y-97616196D01*
X85948283Y-97329408D01*
X85816290Y-97010747D01*
X85749000Y-96672460D01*
X85749000Y-96327540D01*
X85816290Y-95989253D01*
X85948283Y-95670592D01*
X86139909Y-95383804D01*
X86383804Y-95139909D01*
X86670592Y-94948283D01*
X86857259Y-94870963D01*
X86989252Y-94816290D01*
X87102015Y-94793860D01*
X87327540Y-94749000D01*
X87672460Y-94749000D01*
X87897985Y-94793860D01*
G37*
G36*
X82113512Y-95603927D02*
G01*
X82262812Y-95633624D01*
X82426784Y-95701544D01*
X82574354Y-95800147D01*
X82699853Y-95925646D01*
X82798456Y-96073216D01*
X82866376Y-96237188D01*
X82901000Y-96411259D01*
X82901000Y-96588741D01*
X82866376Y-96762812D01*
X82798456Y-96926784D01*
X82699853Y-97074354D01*
X82574354Y-97199853D01*
X82426784Y-97298456D01*
X82262812Y-97366376D01*
X82113512Y-97396073D01*
X82088742Y-97401000D01*
X81911258Y-97401000D01*
X81886488Y-97396073D01*
X81737188Y-97366376D01*
X81573216Y-97298456D01*
X81425646Y-97199853D01*
X81300147Y-97074354D01*
X81201544Y-96926784D01*
X81133624Y-96762812D01*
X81099000Y-96588741D01*
X81099000Y-96411259D01*
X81133624Y-96237188D01*
X81201544Y-96073216D01*
X81300147Y-95925646D01*
X81425646Y-95800147D01*
X81573216Y-95701544D01*
X81737188Y-95633624D01*
X81886488Y-95603927D01*
X81911258Y-95599000D01*
X82088742Y-95599000D01*
X82113512Y-95603927D01*
G37*
G36*
X93113512Y-95603927D02*
G01*
X93262812Y-95633624D01*
X93426784Y-95701544D01*
X93574354Y-95800147D01*
X93699853Y-95925646D01*
X93798456Y-96073216D01*
X93866376Y-96237188D01*
X93901000Y-96411259D01*
X93901000Y-96588741D01*
X93866376Y-96762812D01*
X93798456Y-96926784D01*
X93699853Y-97074354D01*
X93574354Y-97199853D01*
X93426784Y-97298456D01*
X93262812Y-97366376D01*
X93113512Y-97396073D01*
X93088742Y-97401000D01*
X92911258Y-97401000D01*
X92886488Y-97396073D01*
X92737188Y-97366376D01*
X92573216Y-97298456D01*
X92425646Y-97199853D01*
X92300147Y-97074354D01*
X92201544Y-96926784D01*
X92133624Y-96762812D01*
X92099000Y-96588741D01*
X92099000Y-96411259D01*
X92133624Y-96237188D01*
X92201544Y-96073216D01*
X92300147Y-95925646D01*
X92425646Y-95800147D01*
X92573216Y-95701544D01*
X92737188Y-95633624D01*
X92886488Y-95603927D01*
X92911258Y-95599000D01*
X93088742Y-95599000D01*
X93113512Y-95603927D01*
G37*
G36*
X105806564Y-94589389D02*
G01*
X105997833Y-94668615D01*
X105997835Y-94668616D01*
X106118138Y-94749000D01*
X106169973Y-94783635D01*
X106316365Y-94930027D01*
X106431385Y-95102167D01*
X106510611Y-95293436D01*
X106551000Y-95496484D01*
X106551000Y-95703516D01*
X106510611Y-95906564D01*
X106441581Y-96073218D01*
X106431384Y-96097835D01*
X106316365Y-96269973D01*
X106169973Y-96416365D01*
X105997835Y-96531384D01*
X105997834Y-96531385D01*
X105997833Y-96531385D01*
X105806564Y-96610611D01*
X105603516Y-96651000D01*
X105396484Y-96651000D01*
X105193436Y-96610611D01*
X105002167Y-96531385D01*
X105002166Y-96531385D01*
X105002165Y-96531384D01*
X104830027Y-96416365D01*
X104683635Y-96269973D01*
X104568616Y-96097835D01*
X104558419Y-96073218D01*
X104489389Y-95906564D01*
X104449000Y-95703516D01*
X104449000Y-95496484D01*
X104489389Y-95293436D01*
X104568615Y-95102167D01*
X104683635Y-94930027D01*
X104830027Y-94783635D01*
X104881862Y-94749000D01*
X105002165Y-94668616D01*
X105002167Y-94668615D01*
X105193436Y-94589389D01*
X105396484Y-94549000D01*
X105603516Y-94549000D01*
X105806564Y-94589389D01*
G37*
G36*
X69806564Y-94589389D02*
G01*
X69997833Y-94668615D01*
X69997835Y-94668616D01*
X70118138Y-94749000D01*
X70169973Y-94783635D01*
X70316365Y-94930027D01*
X70431385Y-95102167D01*
X70510611Y-95293436D01*
X70551000Y-95496484D01*
X70551000Y-95703516D01*
X70510611Y-95906564D01*
X70441581Y-96073218D01*
X70431384Y-96097835D01*
X70316365Y-96269973D01*
X70169973Y-96416365D01*
X69997835Y-96531384D01*
X69997834Y-96531385D01*
X69997833Y-96531385D01*
X69806564Y-96610611D01*
X69603516Y-96651000D01*
X69396484Y-96651000D01*
X69193436Y-96610611D01*
X69002167Y-96531385D01*
X69002166Y-96531385D01*
X69002165Y-96531384D01*
X68830027Y-96416365D01*
X68683635Y-96269973D01*
X68568616Y-96097835D01*
X68558419Y-96073218D01*
X68489389Y-95906564D01*
X68449000Y-95703516D01*
X68449000Y-95496484D01*
X68489389Y-95293436D01*
X68568615Y-95102167D01*
X68683635Y-94930027D01*
X68830027Y-94783635D01*
X68881862Y-94749000D01*
X69002165Y-94668616D01*
X69002167Y-94668615D01*
X69193436Y-94589389D01*
X69396484Y-94549000D01*
X69603516Y-94549000D01*
X69806564Y-94589389D01*
G37*
G36*
X143551000Y-96351000D02*
G01*
X140949000Y-96351000D01*
X140949000Y-95049000D01*
X143551000Y-95049000D01*
X143551000Y-96351000D01*
G37*
G36*
X139131552Y-93666331D02*
G01*
X139213627Y-93700328D01*
X139213629Y-93700329D01*
X139229015Y-93710610D01*
X139287495Y-93749685D01*
X139350315Y-93812505D01*
X139399672Y-93886373D01*
X139433669Y-93968448D01*
X139451000Y-94055579D01*
X139451000Y-94144421D01*
X139433669Y-94231552D01*
X139399672Y-94313627D01*
X139399671Y-94313629D01*
X139350314Y-94387496D01*
X139287496Y-94450314D01*
X139213629Y-94499671D01*
X139213628Y-94499672D01*
X139213627Y-94499672D01*
X139131552Y-94533669D01*
X139044421Y-94551000D01*
X138955579Y-94551000D01*
X138868448Y-94533669D01*
X138786373Y-94499672D01*
X138786372Y-94499672D01*
X138786371Y-94499671D01*
X138712504Y-94450314D01*
X138649686Y-94387496D01*
X138600329Y-94313629D01*
X138600328Y-94313627D01*
X138566331Y-94231552D01*
X138549000Y-94144421D01*
X138549000Y-94055579D01*
X138566331Y-93968448D01*
X138600328Y-93886373D01*
X138649685Y-93812505D01*
X138712505Y-93749685D01*
X138770985Y-93710610D01*
X138786371Y-93700329D01*
X138786373Y-93700328D01*
X138868448Y-93666331D01*
X138955579Y-93649000D01*
X139044421Y-93649000D01*
X139131552Y-93666331D01*
G37*
G36*
X82806564Y-91689389D02*
G01*
X82997833Y-91768615D01*
X82997835Y-91768616D01*
X83118138Y-91849000D01*
X83169973Y-91883635D01*
X83316365Y-92030027D01*
X83431385Y-92202167D01*
X83510611Y-92393436D01*
X83551000Y-92596484D01*
X83551000Y-92803516D01*
X83510611Y-93006564D01*
X83450784Y-93151000D01*
X83431384Y-93197835D01*
X83316365Y-93369973D01*
X83169973Y-93516365D01*
X82997835Y-93631384D01*
X82997834Y-93631385D01*
X82997833Y-93631385D01*
X82806564Y-93710611D01*
X82603516Y-93751000D01*
X82396484Y-93751000D01*
X82193436Y-93710611D01*
X82002167Y-93631385D01*
X82002166Y-93631385D01*
X82002165Y-93631384D01*
X81830027Y-93516365D01*
X81683635Y-93369973D01*
X81568616Y-93197835D01*
X81549216Y-93151000D01*
X81489389Y-93006564D01*
X81449000Y-92803516D01*
X81449000Y-92596484D01*
X81489389Y-92393436D01*
X81568615Y-92202167D01*
X81683635Y-92030027D01*
X81830027Y-91883635D01*
X81881862Y-91849000D01*
X82002165Y-91768616D01*
X82002167Y-91768615D01*
X82193436Y-91689389D01*
X82396484Y-91649000D01*
X82603516Y-91649000D01*
X82806564Y-91689389D01*
G37*
G36*
X122351000Y-93151000D02*
G01*
X121349000Y-93151000D01*
X121349000Y-91849000D01*
X122351000Y-91849000D01*
X122351000Y-93151000D01*
G37*
G36*
X125651000Y-93151000D02*
G01*
X124649000Y-93151000D01*
X124649000Y-91849000D01*
X125651000Y-91849000D01*
X125651000Y-93151000D01*
G37*
G36*
X32351000Y-92651000D02*
G01*
X31349000Y-92651000D01*
X31349000Y-91349000D01*
X32351000Y-91349000D01*
X32351000Y-92651000D01*
G37*
G36*
X53651000Y-92651000D02*
G01*
X52649000Y-92651000D01*
X52649000Y-91349000D01*
X53651000Y-91349000D01*
X53651000Y-92651000D01*
G37*
G36*
X35651000Y-92651000D02*
G01*
X34649000Y-92651000D01*
X34649000Y-91349000D01*
X35651000Y-91349000D01*
X35651000Y-92651000D01*
G37*
G36*
X50351000Y-92651000D02*
G01*
X49349000Y-92651000D01*
X49349000Y-91349000D01*
X50351000Y-91349000D01*
X50351000Y-92651000D01*
G37*
G36*
X87806564Y-89589389D02*
G01*
X87980926Y-89661612D01*
X87997835Y-89668616D01*
X88169973Y-89783635D01*
X88316365Y-89930027D01*
X88417213Y-90080956D01*
X88431385Y-90102167D01*
X88510611Y-90293436D01*
X88551000Y-90496484D01*
X88551000Y-90703516D01*
X88510611Y-90906564D01*
X88431385Y-91097833D01*
X88431384Y-91097835D01*
X88316365Y-91269973D01*
X88169973Y-91416365D01*
X87997835Y-91531384D01*
X87997834Y-91531385D01*
X87997833Y-91531385D01*
X87806564Y-91610611D01*
X87603516Y-91651000D01*
X87396484Y-91651000D01*
X87193436Y-91610611D01*
X87002167Y-91531385D01*
X87002166Y-91531385D01*
X87002165Y-91531384D01*
X86830027Y-91416365D01*
X86683635Y-91269973D01*
X86568616Y-91097835D01*
X86568615Y-91097833D01*
X86489389Y-90906564D01*
X86449000Y-90703516D01*
X86449000Y-90496484D01*
X86489389Y-90293436D01*
X86568615Y-90102167D01*
X86582788Y-90080956D01*
X86683635Y-89930027D01*
X86830027Y-89783635D01*
X87002165Y-89668616D01*
X87019074Y-89661612D01*
X87193436Y-89589389D01*
X87396484Y-89549000D01*
X87603516Y-89549000D01*
X87806564Y-89589389D01*
G37*
G36*
X148801000Y-89847286D02*
G01*
X148803402Y-89871672D01*
X148813000Y-89919925D01*
X148813000Y-90080075D01*
X148803402Y-90128328D01*
X148801000Y-90152714D01*
X148801000Y-91551000D01*
X147199000Y-91551000D01*
X147199000Y-90152714D01*
X147196598Y-90128328D01*
X147187000Y-90080075D01*
X147187000Y-89919925D01*
X147196598Y-89871672D01*
X147199000Y-89847286D01*
X147199000Y-88449000D01*
X148801000Y-88449000D01*
X148801000Y-89847286D01*
G37*
G36*
X162448254Y-89342008D02*
G01*
X162479737Y-89538566D01*
X162487678Y-89566630D01*
X162495971Y-89586652D01*
X162527213Y-89743718D01*
X162527213Y-89825021D01*
X162528786Y-89844786D01*
X162750435Y-91228587D01*
X161168598Y-91481956D01*
X160978228Y-90293436D01*
X160948689Y-90109019D01*
X160940748Y-90080956D01*
X160932455Y-90060934D01*
X160901213Y-89903868D01*
X160901213Y-89822565D01*
X160899640Y-89802795D01*
X160677991Y-88418999D01*
X162259828Y-88165630D01*
X162448254Y-89342008D01*
G37*
G36*
X145318296Y-89261674D02*
G01*
X145363400Y-89280357D01*
X145403992Y-89307480D01*
X145438520Y-89342008D01*
X145465643Y-89382600D01*
X145484326Y-89427704D01*
X145493850Y-89475587D01*
X145493850Y-89524413D01*
X145484326Y-89572296D01*
X145465643Y-89617400D01*
X145438520Y-89657992D01*
X145434900Y-89661612D01*
X145419355Y-89680554D01*
X145407804Y-89702165D01*
X145400691Y-89725614D01*
X145398289Y-89750000D01*
X145400691Y-89774386D01*
X145407804Y-89797835D01*
X145419355Y-89819446D01*
X145434900Y-89838388D01*
X145438520Y-89842008D01*
X145465643Y-89882600D01*
X145484326Y-89927704D01*
X145493850Y-89975587D01*
X145493850Y-90024413D01*
X145484326Y-90072296D01*
X145465643Y-90117400D01*
X145438520Y-90157992D01*
X145434900Y-90161612D01*
X145419355Y-90180554D01*
X145407804Y-90202165D01*
X145400691Y-90225614D01*
X145398289Y-90250000D01*
X145400691Y-90274386D01*
X145407804Y-90297835D01*
X145419355Y-90319446D01*
X145434900Y-90338388D01*
X145438520Y-90342008D01*
X145465643Y-90382600D01*
X145484326Y-90427704D01*
X145493850Y-90475587D01*
X145493850Y-90524413D01*
X145484326Y-90572296D01*
X145465643Y-90617400D01*
X145438520Y-90657992D01*
X145403992Y-90692520D01*
X145363400Y-90719643D01*
X145318296Y-90738326D01*
X145270413Y-90747850D01*
X145221587Y-90747850D01*
X145173704Y-90738326D01*
X145128600Y-90719643D01*
X145088008Y-90692520D01*
X145053480Y-90657992D01*
X145026357Y-90617400D01*
X145007674Y-90572296D01*
X144998150Y-90524413D01*
X144998150Y-90475587D01*
X145007674Y-90427704D01*
X145026357Y-90382600D01*
X145053480Y-90342008D01*
X145057100Y-90338388D01*
X145072645Y-90319446D01*
X145084196Y-90297835D01*
X145091309Y-90274386D01*
X145093711Y-90250000D01*
X145091309Y-90225614D01*
X145084196Y-90202165D01*
X145072645Y-90180554D01*
X145057100Y-90161612D01*
X145053480Y-90157992D01*
X145026357Y-90117400D01*
X145007674Y-90072296D01*
X144998150Y-90024413D01*
X144998150Y-89975587D01*
X145007674Y-89927704D01*
X145026357Y-89882600D01*
X145053480Y-89842008D01*
X145057100Y-89838388D01*
X145072645Y-89819446D01*
X145084196Y-89797835D01*
X145091309Y-89774386D01*
X145093711Y-89750000D01*
X145091309Y-89725614D01*
X145084196Y-89702165D01*
X145072645Y-89680554D01*
X145057100Y-89661612D01*
X145053480Y-89657992D01*
X145026357Y-89617400D01*
X145007674Y-89572296D01*
X144998150Y-89524413D01*
X144998150Y-89475587D01*
X145007674Y-89427704D01*
X145026357Y-89382600D01*
X145053480Y-89342008D01*
X145088008Y-89307480D01*
X145128600Y-89280357D01*
X145173704Y-89261674D01*
X145221587Y-89252150D01*
X145270413Y-89252150D01*
X145318296Y-89261674D01*
G37*
G36*
X144326296Y-89261674D02*
G01*
X144371400Y-89280357D01*
X144411992Y-89307480D01*
X144446520Y-89342008D01*
X144473643Y-89382600D01*
X144492326Y-89427704D01*
X144501850Y-89475587D01*
X144501850Y-89524413D01*
X144492326Y-89572296D01*
X144473643Y-89617400D01*
X144446520Y-89657992D01*
X144442900Y-89661612D01*
X144427355Y-89680554D01*
X144415804Y-89702165D01*
X144408691Y-89725614D01*
X144406289Y-89750000D01*
X144408691Y-89774386D01*
X144415804Y-89797835D01*
X144427355Y-89819446D01*
X144442900Y-89838388D01*
X144446520Y-89842008D01*
X144473643Y-89882600D01*
X144492326Y-89927704D01*
X144501850Y-89975587D01*
X144501850Y-90024413D01*
X144492326Y-90072296D01*
X144473643Y-90117400D01*
X144446520Y-90157992D01*
X144442900Y-90161612D01*
X144427355Y-90180554D01*
X144415804Y-90202165D01*
X144408691Y-90225614D01*
X144406289Y-90250000D01*
X144408691Y-90274386D01*
X144415804Y-90297835D01*
X144427355Y-90319446D01*
X144442900Y-90338388D01*
X144446520Y-90342008D01*
X144473643Y-90382600D01*
X144492326Y-90427704D01*
X144501850Y-90475587D01*
X144501850Y-90524413D01*
X144492326Y-90572296D01*
X144473643Y-90617400D01*
X144446520Y-90657992D01*
X144411992Y-90692520D01*
X144371400Y-90719643D01*
X144326296Y-90738326D01*
X144278413Y-90747850D01*
X144229587Y-90747850D01*
X144181704Y-90738326D01*
X144136600Y-90719643D01*
X144096008Y-90692520D01*
X144061480Y-90657992D01*
X144034357Y-90617400D01*
X144015674Y-90572296D01*
X144006150Y-90524413D01*
X144006150Y-90475587D01*
X144015674Y-90427704D01*
X144034357Y-90382600D01*
X144061480Y-90342008D01*
X144065100Y-90338388D01*
X144080645Y-90319446D01*
X144092196Y-90297835D01*
X144099309Y-90274386D01*
X144101711Y-90250000D01*
X144099309Y-90225614D01*
X144092196Y-90202165D01*
X144080645Y-90180554D01*
X144065100Y-90161612D01*
X144061480Y-90157992D01*
X144034357Y-90117400D01*
X144015674Y-90072296D01*
X144006150Y-90024413D01*
X144006150Y-89975587D01*
X144015674Y-89927704D01*
X144034357Y-89882600D01*
X144061480Y-89842008D01*
X144065100Y-89838388D01*
X144080645Y-89819446D01*
X144092196Y-89797835D01*
X144099309Y-89774386D01*
X144101711Y-89750000D01*
X144099309Y-89725614D01*
X144092196Y-89702165D01*
X144080645Y-89680554D01*
X144065100Y-89661612D01*
X144061480Y-89657992D01*
X144034357Y-89617400D01*
X144015674Y-89572296D01*
X144006150Y-89524413D01*
X144006150Y-89475587D01*
X144015674Y-89427704D01*
X144034357Y-89382600D01*
X144061480Y-89342008D01*
X144096008Y-89307480D01*
X144136600Y-89280357D01*
X144181704Y-89261674D01*
X144229587Y-89252150D01*
X144278413Y-89252150D01*
X144326296Y-89261674D01*
G37*
G36*
X123897985Y-86293860D02*
G01*
X124010748Y-86316290D01*
X124142741Y-86370963D01*
X124329408Y-86448283D01*
X124616196Y-86639909D01*
X124860091Y-86883804D01*
X125051717Y-87170592D01*
X125183710Y-87489253D01*
X125251000Y-87827540D01*
X125251000Y-88172460D01*
X125183710Y-88510747D01*
X125051717Y-88829408D01*
X124860091Y-89116196D01*
X124616196Y-89360091D01*
X124329408Y-89551717D01*
X124176870Y-89614900D01*
X124010748Y-89683710D01*
X123966472Y-89692517D01*
X123672460Y-89751000D01*
X123327540Y-89751000D01*
X123033528Y-89692517D01*
X122989252Y-89683710D01*
X122823130Y-89614900D01*
X122670592Y-89551717D01*
X122383804Y-89360091D01*
X122139909Y-89116196D01*
X121948283Y-88829408D01*
X121816290Y-88510747D01*
X121749000Y-88172460D01*
X121749000Y-87827540D01*
X121816290Y-87489253D01*
X121948283Y-87170592D01*
X122139909Y-86883804D01*
X122383804Y-86639909D01*
X122670592Y-86448283D01*
X122857259Y-86370963D01*
X122989252Y-86316290D01*
X123102015Y-86293860D01*
X123327540Y-86249000D01*
X123672460Y-86249000D01*
X123897985Y-86293860D01*
G37*
G36*
X104351000Y-89651000D02*
G01*
X103349000Y-89651000D01*
X103349000Y-88349000D01*
X104351000Y-88349000D01*
X104351000Y-89651000D01*
G37*
G36*
X107651000Y-89651000D02*
G01*
X106649000Y-89651000D01*
X106649000Y-88349000D01*
X107651000Y-88349000D01*
X107651000Y-89651000D01*
G37*
G36*
X68351000Y-89651000D02*
G01*
X67349000Y-89651000D01*
X67349000Y-88349000D01*
X68351000Y-88349000D01*
X68351000Y-89651000D01*
G37*
G36*
X71651000Y-89651000D02*
G01*
X70649000Y-89651000D01*
X70649000Y-88349000D01*
X71651000Y-88349000D01*
X71651000Y-89651000D01*
G37*
G36*
X51897985Y-85793860D02*
G01*
X52010748Y-85816290D01*
X52116490Y-85860090D01*
X52329408Y-85948283D01*
X52616196Y-86139909D01*
X52860091Y-86383804D01*
X53051717Y-86670592D01*
X53183710Y-86989253D01*
X53251000Y-87327540D01*
X53251000Y-87672460D01*
X53183710Y-88010747D01*
X53051717Y-88329408D01*
X52860091Y-88616196D01*
X52616196Y-88860091D01*
X52329408Y-89051717D01*
X52142741Y-89129037D01*
X52010748Y-89183710D01*
X51967593Y-89192294D01*
X51672460Y-89251000D01*
X51327540Y-89251000D01*
X51032407Y-89192294D01*
X50989252Y-89183710D01*
X50857259Y-89129037D01*
X50670592Y-89051717D01*
X50383804Y-88860091D01*
X50139909Y-88616196D01*
X49948283Y-88329408D01*
X49816290Y-88010747D01*
X49749000Y-87672460D01*
X49749000Y-87327540D01*
X49816290Y-86989253D01*
X49948283Y-86670592D01*
X50139909Y-86383804D01*
X50383804Y-86139909D01*
X50670592Y-85948283D01*
X50883510Y-85860090D01*
X50989252Y-85816290D01*
X51102015Y-85793860D01*
X51327540Y-85749000D01*
X51672460Y-85749000D01*
X51897985Y-85793860D01*
G37*
G36*
X33897985Y-85793860D02*
G01*
X34010748Y-85816290D01*
X34116490Y-85860090D01*
X34329408Y-85948283D01*
X34616196Y-86139909D01*
X34860091Y-86383804D01*
X35051717Y-86670592D01*
X35183710Y-86989253D01*
X35251000Y-87327540D01*
X35251000Y-87672460D01*
X35183710Y-88010747D01*
X35051717Y-88329408D01*
X34860091Y-88616196D01*
X34616196Y-88860091D01*
X34329408Y-89051717D01*
X34142741Y-89129037D01*
X34010748Y-89183710D01*
X33967593Y-89192294D01*
X33672460Y-89251000D01*
X33327540Y-89251000D01*
X33032407Y-89192294D01*
X32989252Y-89183710D01*
X32857259Y-89129037D01*
X32670592Y-89051717D01*
X32383804Y-88860091D01*
X32139909Y-88616196D01*
X31948283Y-88329408D01*
X31816290Y-88010747D01*
X31749000Y-87672460D01*
X31749000Y-87327540D01*
X31816290Y-86989253D01*
X31948283Y-86670592D01*
X32139909Y-86383804D01*
X32383804Y-86139909D01*
X32670592Y-85948283D01*
X32883510Y-85860090D01*
X32989252Y-85816290D01*
X33102015Y-85793860D01*
X33327540Y-85749000D01*
X33672460Y-85749000D01*
X33897985Y-85793860D01*
G37*
G36*
X118113512Y-87103927D02*
G01*
X118262812Y-87133624D01*
X118426784Y-87201544D01*
X118574354Y-87300147D01*
X118699853Y-87425646D01*
X118798456Y-87573216D01*
X118866376Y-87737188D01*
X118901000Y-87911259D01*
X118901000Y-88088741D01*
X118866376Y-88262812D01*
X118798456Y-88426784D01*
X118699853Y-88574354D01*
X118574354Y-88699853D01*
X118426784Y-88798456D01*
X118262812Y-88866376D01*
X118113512Y-88896073D01*
X118088742Y-88901000D01*
X117911258Y-88901000D01*
X117886488Y-88896073D01*
X117737188Y-88866376D01*
X117573216Y-88798456D01*
X117425646Y-88699853D01*
X117300147Y-88574354D01*
X117201544Y-88426784D01*
X117133624Y-88262812D01*
X117099000Y-88088741D01*
X117099000Y-87911259D01*
X117133624Y-87737188D01*
X117201544Y-87573216D01*
X117300147Y-87425646D01*
X117425646Y-87300147D01*
X117573216Y-87201544D01*
X117737188Y-87133624D01*
X117886488Y-87103927D01*
X117911258Y-87099000D01*
X118088742Y-87099000D01*
X118113512Y-87103927D01*
G37*
G36*
X129113512Y-87103927D02*
G01*
X129262812Y-87133624D01*
X129426784Y-87201544D01*
X129574354Y-87300147D01*
X129699853Y-87425646D01*
X129798456Y-87573216D01*
X129866376Y-87737188D01*
X129901000Y-87911259D01*
X129901000Y-88088741D01*
X129866376Y-88262812D01*
X129798456Y-88426784D01*
X129699853Y-88574354D01*
X129574354Y-88699853D01*
X129426784Y-88798456D01*
X129262812Y-88866376D01*
X129113512Y-88896073D01*
X129088742Y-88901000D01*
X128911258Y-88901000D01*
X128886488Y-88896073D01*
X128737188Y-88866376D01*
X128573216Y-88798456D01*
X128425646Y-88699853D01*
X128300147Y-88574354D01*
X128201544Y-88426784D01*
X128133624Y-88262812D01*
X128099000Y-88088741D01*
X128099000Y-87911259D01*
X128133624Y-87737188D01*
X128201544Y-87573216D01*
X128300147Y-87425646D01*
X128425646Y-87300147D01*
X128573216Y-87201544D01*
X128737188Y-87133624D01*
X128886488Y-87103927D01*
X128911258Y-87099000D01*
X129088742Y-87099000D01*
X129113512Y-87103927D01*
G37*
G36*
X46113512Y-86603927D02*
G01*
X46262812Y-86633624D01*
X46426784Y-86701544D01*
X46574354Y-86800147D01*
X46699853Y-86925646D01*
X46798456Y-87073216D01*
X46866376Y-87237188D01*
X46901000Y-87411259D01*
X46901000Y-87588741D01*
X46866376Y-87762812D01*
X46798456Y-87926784D01*
X46699853Y-88074354D01*
X46574354Y-88199853D01*
X46426784Y-88298456D01*
X46262812Y-88366376D01*
X46113512Y-88396073D01*
X46088742Y-88401000D01*
X45911258Y-88401000D01*
X45886488Y-88396073D01*
X45737188Y-88366376D01*
X45573216Y-88298456D01*
X45425646Y-88199853D01*
X45300147Y-88074354D01*
X45201544Y-87926784D01*
X45133624Y-87762812D01*
X45099000Y-87588741D01*
X45099000Y-87411259D01*
X45133624Y-87237188D01*
X45201544Y-87073216D01*
X45300147Y-86925646D01*
X45425646Y-86800147D01*
X45573216Y-86701544D01*
X45737188Y-86633624D01*
X45886488Y-86603927D01*
X45911258Y-86599000D01*
X46088742Y-86599000D01*
X46113512Y-86603927D01*
G37*
G36*
X57113512Y-86603927D02*
G01*
X57262812Y-86633624D01*
X57426784Y-86701544D01*
X57574354Y-86800147D01*
X57699853Y-86925646D01*
X57798456Y-87073216D01*
X57866376Y-87237188D01*
X57901000Y-87411259D01*
X57901000Y-87588741D01*
X57866376Y-87762812D01*
X57798456Y-87926784D01*
X57699853Y-88074354D01*
X57574354Y-88199853D01*
X57426784Y-88298456D01*
X57262812Y-88366376D01*
X57113512Y-88396073D01*
X57088742Y-88401000D01*
X56911258Y-88401000D01*
X56886488Y-88396073D01*
X56737188Y-88366376D01*
X56573216Y-88298456D01*
X56425646Y-88199853D01*
X56300147Y-88074354D01*
X56201544Y-87926784D01*
X56133624Y-87762812D01*
X56099000Y-87588741D01*
X56099000Y-87411259D01*
X56133624Y-87237188D01*
X56201544Y-87073216D01*
X56300147Y-86925646D01*
X56425646Y-86800147D01*
X56573216Y-86701544D01*
X56737188Y-86633624D01*
X56886488Y-86603927D01*
X56911258Y-86599000D01*
X57088742Y-86599000D01*
X57113512Y-86603927D01*
G37*
G36*
X28113512Y-86603927D02*
G01*
X28262812Y-86633624D01*
X28426784Y-86701544D01*
X28574354Y-86800147D01*
X28699853Y-86925646D01*
X28798456Y-87073216D01*
X28866376Y-87237188D01*
X28901000Y-87411259D01*
X28901000Y-87588741D01*
X28866376Y-87762812D01*
X28798456Y-87926784D01*
X28699853Y-88074354D01*
X28574354Y-88199853D01*
X28426784Y-88298456D01*
X28262812Y-88366376D01*
X28113512Y-88396073D01*
X28088742Y-88401000D01*
X27911258Y-88401000D01*
X27886488Y-88396073D01*
X27737188Y-88366376D01*
X27573216Y-88298456D01*
X27425646Y-88199853D01*
X27300147Y-88074354D01*
X27201544Y-87926784D01*
X27133624Y-87762812D01*
X27099000Y-87588741D01*
X27099000Y-87411259D01*
X27133624Y-87237188D01*
X27201544Y-87073216D01*
X27300147Y-86925646D01*
X27425646Y-86800147D01*
X27573216Y-86701544D01*
X27737188Y-86633624D01*
X27886488Y-86603927D01*
X27911258Y-86599000D01*
X28088742Y-86599000D01*
X28113512Y-86603927D01*
G37*
G36*
X39113512Y-86603927D02*
G01*
X39262812Y-86633624D01*
X39426784Y-86701544D01*
X39574354Y-86800147D01*
X39699853Y-86925646D01*
X39798456Y-87073216D01*
X39866376Y-87237188D01*
X39901000Y-87411259D01*
X39901000Y-87588741D01*
X39866376Y-87762812D01*
X39798456Y-87926784D01*
X39699853Y-88074354D01*
X39574354Y-88199853D01*
X39426784Y-88298456D01*
X39262812Y-88366376D01*
X39113512Y-88396073D01*
X39088742Y-88401000D01*
X38911258Y-88401000D01*
X38886488Y-88396073D01*
X38737188Y-88366376D01*
X38573216Y-88298456D01*
X38425646Y-88199853D01*
X38300147Y-88074354D01*
X38201544Y-87926784D01*
X38133624Y-87762812D01*
X38099000Y-87588741D01*
X38099000Y-87411259D01*
X38133624Y-87237188D01*
X38201544Y-87073216D01*
X38300147Y-86925646D01*
X38425646Y-86800147D01*
X38573216Y-86701544D01*
X38737188Y-86633624D01*
X38886488Y-86603927D01*
X38911258Y-86599000D01*
X39088742Y-86599000D01*
X39113512Y-86603927D01*
G37*
G36*
X69897985Y-82793860D02*
G01*
X70010748Y-82816290D01*
X70142741Y-82870963D01*
X70329408Y-82948283D01*
X70616196Y-83139909D01*
X70860091Y-83383804D01*
X71051717Y-83670592D01*
X71129037Y-83857259D01*
X71183710Y-83989252D01*
X71187154Y-84006565D01*
X71251000Y-84327540D01*
X71251000Y-84672460D01*
X71229983Y-84778117D01*
X71183710Y-85010748D01*
X71178007Y-85024516D01*
X71051717Y-85329408D01*
X70860091Y-85616196D01*
X70616196Y-85860091D01*
X70329408Y-86051717D01*
X70142741Y-86129037D01*
X70010748Y-86183710D01*
X69897985Y-86206140D01*
X69672460Y-86251000D01*
X69327540Y-86251000D01*
X69102015Y-86206140D01*
X68989252Y-86183710D01*
X68857259Y-86129037D01*
X68670592Y-86051717D01*
X68383804Y-85860091D01*
X68139909Y-85616196D01*
X67948283Y-85329408D01*
X67821993Y-85024516D01*
X67816290Y-85010748D01*
X67770017Y-84778117D01*
X67749000Y-84672460D01*
X67749000Y-84327540D01*
X67812846Y-84006565D01*
X67816290Y-83989252D01*
X67870963Y-83857259D01*
X67948283Y-83670592D01*
X68139909Y-83383804D01*
X68383804Y-83139909D01*
X68670592Y-82948283D01*
X68857259Y-82870963D01*
X68989252Y-82816290D01*
X69102015Y-82793860D01*
X69327540Y-82749000D01*
X69672460Y-82749000D01*
X69897985Y-82793860D01*
G37*
G36*
X105897985Y-82793860D02*
G01*
X106010748Y-82816290D01*
X106142741Y-82870963D01*
X106329408Y-82948283D01*
X106616196Y-83139909D01*
X106860091Y-83383804D01*
X107051717Y-83670592D01*
X107129037Y-83857259D01*
X107183710Y-83989252D01*
X107187154Y-84006565D01*
X107251000Y-84327540D01*
X107251000Y-84672460D01*
X107229983Y-84778117D01*
X107183710Y-85010748D01*
X107178007Y-85024516D01*
X107051717Y-85329408D01*
X106860091Y-85616196D01*
X106616196Y-85860091D01*
X106329408Y-86051717D01*
X106142741Y-86129037D01*
X106010748Y-86183710D01*
X105897985Y-86206140D01*
X105672460Y-86251000D01*
X105327540Y-86251000D01*
X105102015Y-86206140D01*
X104989252Y-86183710D01*
X104857259Y-86129037D01*
X104670592Y-86051717D01*
X104383804Y-85860091D01*
X104139909Y-85616196D01*
X103948283Y-85329408D01*
X103821993Y-85024516D01*
X103816290Y-85010748D01*
X103770017Y-84778117D01*
X103749000Y-84672460D01*
X103749000Y-84327540D01*
X103812846Y-84006565D01*
X103816290Y-83989252D01*
X103870963Y-83857259D01*
X103948283Y-83670592D01*
X104139909Y-83383804D01*
X104383804Y-83139909D01*
X104670592Y-82948283D01*
X104857259Y-82870963D01*
X104989252Y-82816290D01*
X105102015Y-82793860D01*
X105327540Y-82749000D01*
X105672460Y-82749000D01*
X105897985Y-82793860D01*
G37*
G36*
X161604331Y-84073218D02*
G01*
X161609868Y-84107790D01*
X161617809Y-84135854D01*
X161626102Y-84155876D01*
X161657344Y-84312942D01*
X161657344Y-84394245D01*
X161658917Y-84414010D01*
X161880566Y-85797811D01*
X160298729Y-86051180D01*
X160078820Y-84678243D01*
X160070879Y-84650180D01*
X160062586Y-84630158D01*
X160031344Y-84473092D01*
X160031344Y-84391789D01*
X160029771Y-84372019D01*
X160025809Y-84347286D01*
X159808122Y-82988223D01*
X161389959Y-82734854D01*
X161604331Y-84073218D01*
G37*
G36*
X148801000Y-84347286D02*
G01*
X148803402Y-84371672D01*
X148813000Y-84419925D01*
X148813000Y-84580075D01*
X148803402Y-84628328D01*
X148801000Y-84652714D01*
X148801000Y-86051000D01*
X147199000Y-86051000D01*
X147199000Y-84652714D01*
X147196598Y-84628328D01*
X147187000Y-84580075D01*
X147187000Y-84419925D01*
X147196598Y-84371672D01*
X147199000Y-84347286D01*
X147199000Y-82949000D01*
X148801000Y-82949000D01*
X148801000Y-84347286D01*
G37*
G36*
X111113512Y-83603927D02*
G01*
X111262812Y-83633624D01*
X111426784Y-83701544D01*
X111574354Y-83800147D01*
X111699853Y-83925646D01*
X111798456Y-84073216D01*
X111866376Y-84237188D01*
X111901000Y-84411259D01*
X111901000Y-84588741D01*
X111866376Y-84762812D01*
X111798456Y-84926784D01*
X111699853Y-85074354D01*
X111574354Y-85199853D01*
X111426784Y-85298456D01*
X111262812Y-85366376D01*
X111113512Y-85396073D01*
X111088742Y-85401000D01*
X110911258Y-85401000D01*
X110886488Y-85396073D01*
X110737188Y-85366376D01*
X110573216Y-85298456D01*
X110425646Y-85199853D01*
X110300147Y-85074354D01*
X110201544Y-84926784D01*
X110133624Y-84762812D01*
X110099000Y-84588741D01*
X110099000Y-84411259D01*
X110133624Y-84237188D01*
X110201544Y-84073216D01*
X110300147Y-83925646D01*
X110425646Y-83800147D01*
X110573216Y-83701544D01*
X110737188Y-83633624D01*
X110886488Y-83603927D01*
X110911258Y-83599000D01*
X111088742Y-83599000D01*
X111113512Y-83603927D01*
G37*
G36*
X100113512Y-83603927D02*
G01*
X100262812Y-83633624D01*
X100426784Y-83701544D01*
X100574354Y-83800147D01*
X100699853Y-83925646D01*
X100798456Y-84073216D01*
X100866376Y-84237188D01*
X100901000Y-84411259D01*
X100901000Y-84588741D01*
X100866376Y-84762812D01*
X100798456Y-84926784D01*
X100699853Y-85074354D01*
X100574354Y-85199853D01*
X100426784Y-85298456D01*
X100262812Y-85366376D01*
X100113512Y-85396073D01*
X100088742Y-85401000D01*
X99911258Y-85401000D01*
X99886488Y-85396073D01*
X99737188Y-85366376D01*
X99573216Y-85298456D01*
X99425646Y-85199853D01*
X99300147Y-85074354D01*
X99201544Y-84926784D01*
X99133624Y-84762812D01*
X99099000Y-84588741D01*
X99099000Y-84411259D01*
X99133624Y-84237188D01*
X99201544Y-84073216D01*
X99300147Y-83925646D01*
X99425646Y-83800147D01*
X99573216Y-83701544D01*
X99737188Y-83633624D01*
X99886488Y-83603927D01*
X99911258Y-83599000D01*
X100088742Y-83599000D01*
X100113512Y-83603927D01*
G37*
G36*
X75113512Y-83603927D02*
G01*
X75262812Y-83633624D01*
X75426784Y-83701544D01*
X75574354Y-83800147D01*
X75699853Y-83925646D01*
X75798456Y-84073216D01*
X75866376Y-84237188D01*
X75901000Y-84411259D01*
X75901000Y-84588741D01*
X75866376Y-84762812D01*
X75798456Y-84926784D01*
X75699853Y-85074354D01*
X75574354Y-85199853D01*
X75426784Y-85298456D01*
X75262812Y-85366376D01*
X75113512Y-85396073D01*
X75088742Y-85401000D01*
X74911258Y-85401000D01*
X74886488Y-85396073D01*
X74737188Y-85366376D01*
X74573216Y-85298456D01*
X74425646Y-85199853D01*
X74300147Y-85074354D01*
X74201544Y-84926784D01*
X74133624Y-84762812D01*
X74099000Y-84588741D01*
X74099000Y-84411259D01*
X74133624Y-84237188D01*
X74201544Y-84073216D01*
X74300147Y-83925646D01*
X74425646Y-83800147D01*
X74573216Y-83701544D01*
X74737188Y-83633624D01*
X74886488Y-83603927D01*
X74911258Y-83599000D01*
X75088742Y-83599000D01*
X75113512Y-83603927D01*
G37*
G36*
X64113512Y-83603927D02*
G01*
X64262812Y-83633624D01*
X64426784Y-83701544D01*
X64574354Y-83800147D01*
X64699853Y-83925646D01*
X64798456Y-84073216D01*
X64866376Y-84237188D01*
X64901000Y-84411259D01*
X64901000Y-84588741D01*
X64866376Y-84762812D01*
X64798456Y-84926784D01*
X64699853Y-85074354D01*
X64574354Y-85199853D01*
X64426784Y-85298456D01*
X64262812Y-85366376D01*
X64113512Y-85396073D01*
X64088742Y-85401000D01*
X63911258Y-85401000D01*
X63886488Y-85396073D01*
X63737188Y-85366376D01*
X63573216Y-85298456D01*
X63425646Y-85199853D01*
X63300147Y-85074354D01*
X63201544Y-84926784D01*
X63133624Y-84762812D01*
X63099000Y-84588741D01*
X63099000Y-84411259D01*
X63133624Y-84237188D01*
X63201544Y-84073216D01*
X63300147Y-83925646D01*
X63425646Y-83800147D01*
X63573216Y-83701544D01*
X63737188Y-83633624D01*
X63886488Y-83603927D01*
X63911258Y-83599000D01*
X64088742Y-83599000D01*
X64113512Y-83603927D01*
G37*
G36*
X118806564Y-83189389D02*
G01*
X118997833Y-83268615D01*
X118997835Y-83268616D01*
X119169973Y-83383635D01*
X119316365Y-83530027D01*
X119410288Y-83670592D01*
X119431385Y-83702167D01*
X119510611Y-83893436D01*
X119551000Y-84096484D01*
X119551000Y-84303516D01*
X119510611Y-84506564D01*
X119441895Y-84672460D01*
X119431384Y-84697835D01*
X119316365Y-84869973D01*
X119169973Y-85016365D01*
X118997835Y-85131384D01*
X118997834Y-85131385D01*
X118997833Y-85131385D01*
X118806564Y-85210611D01*
X118603516Y-85251000D01*
X118396484Y-85251000D01*
X118193436Y-85210611D01*
X118002167Y-85131385D01*
X118002166Y-85131385D01*
X118002165Y-85131384D01*
X117830027Y-85016365D01*
X117683635Y-84869973D01*
X117568616Y-84697835D01*
X117558105Y-84672460D01*
X117489389Y-84506564D01*
X117449000Y-84303516D01*
X117449000Y-84096484D01*
X117489389Y-83893436D01*
X117568615Y-83702167D01*
X117589713Y-83670592D01*
X117683635Y-83530027D01*
X117830027Y-83383635D01*
X118002165Y-83268616D01*
X118002167Y-83268615D01*
X118193436Y-83189389D01*
X118396484Y-83149000D01*
X118603516Y-83149000D01*
X118806564Y-83189389D01*
G37*
G36*
X46806564Y-82689389D02*
G01*
X46997833Y-82768615D01*
X46997835Y-82768616D01*
X47169973Y-82883635D01*
X47316365Y-83030027D01*
X47397197Y-83151000D01*
X47431385Y-83202167D01*
X47510611Y-83393436D01*
X47551000Y-83596484D01*
X47551000Y-83803516D01*
X47510611Y-84006564D01*
X47483002Y-84073218D01*
X47431384Y-84197835D01*
X47316365Y-84369973D01*
X47169973Y-84516365D01*
X46997835Y-84631384D01*
X46997834Y-84631385D01*
X46997833Y-84631385D01*
X46806564Y-84710611D01*
X46603516Y-84751000D01*
X46396484Y-84751000D01*
X46193436Y-84710611D01*
X46002167Y-84631385D01*
X46002166Y-84631385D01*
X46002165Y-84631384D01*
X45830027Y-84516365D01*
X45683635Y-84369973D01*
X45568616Y-84197835D01*
X45516998Y-84073218D01*
X45489389Y-84006564D01*
X45449000Y-83803516D01*
X45449000Y-83596484D01*
X45489389Y-83393436D01*
X45568615Y-83202167D01*
X45602804Y-83151000D01*
X45683635Y-83030027D01*
X45830027Y-82883635D01*
X46002165Y-82768616D01*
X46002167Y-82768615D01*
X46193436Y-82689389D01*
X46396484Y-82649000D01*
X46603516Y-82649000D01*
X46806564Y-82689389D01*
G37*
G36*
X28806564Y-82689389D02*
G01*
X28997833Y-82768615D01*
X28997835Y-82768616D01*
X29169973Y-82883635D01*
X29316365Y-83030027D01*
X29397197Y-83151000D01*
X29431385Y-83202167D01*
X29510611Y-83393436D01*
X29551000Y-83596484D01*
X29551000Y-83803516D01*
X29510611Y-84006564D01*
X29483002Y-84073218D01*
X29431384Y-84197835D01*
X29316365Y-84369973D01*
X29169973Y-84516365D01*
X28997835Y-84631384D01*
X28997834Y-84631385D01*
X28997833Y-84631385D01*
X28806564Y-84710611D01*
X28603516Y-84751000D01*
X28396484Y-84751000D01*
X28193436Y-84710611D01*
X28002167Y-84631385D01*
X28002166Y-84631385D01*
X28002165Y-84631384D01*
X27830027Y-84516365D01*
X27683635Y-84369973D01*
X27568616Y-84197835D01*
X27516998Y-84073218D01*
X27489389Y-84006564D01*
X27449000Y-83803516D01*
X27449000Y-83596484D01*
X27489389Y-83393436D01*
X27568615Y-83202167D01*
X27602804Y-83151000D01*
X27683635Y-83030027D01*
X27830027Y-82883635D01*
X28002165Y-82768616D01*
X28002167Y-82768615D01*
X28193436Y-82689389D01*
X28396484Y-82649000D01*
X28603516Y-82649000D01*
X28806564Y-82689389D01*
G37*
G36*
X86351000Y-84651000D02*
G01*
X85349000Y-84651000D01*
X85349000Y-83349000D01*
X86351000Y-83349000D01*
X86351000Y-84651000D01*
G37*
G36*
X89651000Y-84651000D02*
G01*
X88649000Y-84651000D01*
X88649000Y-83349000D01*
X89651000Y-83349000D01*
X89651000Y-84651000D01*
G37*
G36*
X123806564Y-81089389D02*
G01*
X123997833Y-81168615D01*
X123997835Y-81168616D01*
X124169973Y-81283635D01*
X124316365Y-81430027D01*
X124360772Y-81496486D01*
X124431385Y-81602167D01*
X124510611Y-81793436D01*
X124551000Y-81996484D01*
X124551000Y-82203516D01*
X124510611Y-82406564D01*
X124431385Y-82597833D01*
X124431384Y-82597835D01*
X124316365Y-82769973D01*
X124169973Y-82916365D01*
X123997835Y-83031384D01*
X123997834Y-83031385D01*
X123997833Y-83031385D01*
X123806564Y-83110611D01*
X123603516Y-83151000D01*
X123396484Y-83151000D01*
X123193436Y-83110611D01*
X123002167Y-83031385D01*
X123002166Y-83031385D01*
X123002165Y-83031384D01*
X122830027Y-82916365D01*
X122683635Y-82769973D01*
X122568616Y-82597835D01*
X122568615Y-82597833D01*
X122489389Y-82406564D01*
X122449000Y-82203516D01*
X122449000Y-81996484D01*
X122489389Y-81793436D01*
X122568615Y-81602167D01*
X122639229Y-81496486D01*
X122683635Y-81430027D01*
X122830027Y-81283635D01*
X123002165Y-81168616D01*
X123002167Y-81168615D01*
X123193436Y-81089389D01*
X123396484Y-81049000D01*
X123603516Y-81049000D01*
X123806564Y-81089389D01*
G37*
G36*
X51806564Y-80589389D02*
G01*
X51997833Y-80668615D01*
X51997835Y-80668616D01*
X52169973Y-80783635D01*
X52316365Y-80930027D01*
X52397676Y-81051717D01*
X52431385Y-81102167D01*
X52510611Y-81293436D01*
X52551000Y-81496484D01*
X52551000Y-81703516D01*
X52510611Y-81906564D01*
X52473365Y-81996484D01*
X52431384Y-82097835D01*
X52316365Y-82269973D01*
X52169973Y-82416365D01*
X51997835Y-82531384D01*
X51997834Y-82531385D01*
X51997833Y-82531385D01*
X51806564Y-82610611D01*
X51603516Y-82651000D01*
X51396484Y-82651000D01*
X51193436Y-82610611D01*
X51002167Y-82531385D01*
X51002166Y-82531385D01*
X51002165Y-82531384D01*
X50830027Y-82416365D01*
X50683635Y-82269973D01*
X50568616Y-82097835D01*
X50526635Y-81996484D01*
X50489389Y-81906564D01*
X50449000Y-81703516D01*
X50449000Y-81496484D01*
X50489389Y-81293436D01*
X50568615Y-81102167D01*
X50602325Y-81051717D01*
X50683635Y-80930027D01*
X50830027Y-80783635D01*
X51002165Y-80668616D01*
X51002167Y-80668615D01*
X51193436Y-80589389D01*
X51396484Y-80549000D01*
X51603516Y-80549000D01*
X51806564Y-80589389D01*
G37*
G36*
X33806564Y-80589389D02*
G01*
X33997833Y-80668615D01*
X33997835Y-80668616D01*
X34169973Y-80783635D01*
X34316365Y-80930027D01*
X34397676Y-81051717D01*
X34431385Y-81102167D01*
X34510611Y-81293436D01*
X34551000Y-81496484D01*
X34551000Y-81703516D01*
X34510611Y-81906564D01*
X34473365Y-81996484D01*
X34431384Y-82097835D01*
X34316365Y-82269973D01*
X34169973Y-82416365D01*
X33997835Y-82531384D01*
X33997834Y-82531385D01*
X33997833Y-82531385D01*
X33806564Y-82610611D01*
X33603516Y-82651000D01*
X33396484Y-82651000D01*
X33193436Y-82610611D01*
X33002167Y-82531385D01*
X33002166Y-82531385D01*
X33002165Y-82531384D01*
X32830027Y-82416365D01*
X32683635Y-82269973D01*
X32568616Y-82097835D01*
X32526635Y-81996484D01*
X32489389Y-81906564D01*
X32449000Y-81703516D01*
X32449000Y-81496484D01*
X32489389Y-81293436D01*
X32568615Y-81102167D01*
X32602325Y-81051717D01*
X32683635Y-80930027D01*
X32830027Y-80783635D01*
X33002165Y-80668616D01*
X33002167Y-80668615D01*
X33193436Y-80589389D01*
X33396484Y-80549000D01*
X33603516Y-80549000D01*
X33806564Y-80589389D01*
G37*
G36*
X100806564Y-79689389D02*
G01*
X100983823Y-79762812D01*
X100997835Y-79768616D01*
X101169973Y-79883635D01*
X101316365Y-80030027D01*
X101429839Y-80199852D01*
X101431385Y-80202167D01*
X101510611Y-80393436D01*
X101551000Y-80596484D01*
X101551000Y-80803516D01*
X101510611Y-81006564D01*
X101471011Y-81102167D01*
X101431384Y-81197835D01*
X101316365Y-81369973D01*
X101169973Y-81516365D01*
X100997835Y-81631384D01*
X100997834Y-81631385D01*
X100997833Y-81631385D01*
X100806564Y-81710611D01*
X100603516Y-81751000D01*
X100396484Y-81751000D01*
X100193436Y-81710611D01*
X100002167Y-81631385D01*
X100002166Y-81631385D01*
X100002165Y-81631384D01*
X99830027Y-81516365D01*
X99683635Y-81369973D01*
X99568616Y-81197835D01*
X99528989Y-81102167D01*
X99489389Y-81006564D01*
X99449000Y-80803516D01*
X99449000Y-80596484D01*
X99489389Y-80393436D01*
X99568615Y-80202167D01*
X99570162Y-80199852D01*
X99683635Y-80030027D01*
X99830027Y-79883635D01*
X100002165Y-79768616D01*
X100016177Y-79762812D01*
X100193436Y-79689389D01*
X100396484Y-79649000D01*
X100603516Y-79649000D01*
X100806564Y-79689389D01*
G37*
G36*
X64806564Y-79689389D02*
G01*
X64983823Y-79762812D01*
X64997835Y-79768616D01*
X65169973Y-79883635D01*
X65316365Y-80030027D01*
X65429839Y-80199852D01*
X65431385Y-80202167D01*
X65510611Y-80393436D01*
X65551000Y-80596484D01*
X65551000Y-80803516D01*
X65510611Y-81006564D01*
X65471011Y-81102167D01*
X65431384Y-81197835D01*
X65316365Y-81369973D01*
X65169973Y-81516365D01*
X64997835Y-81631384D01*
X64997834Y-81631385D01*
X64997833Y-81631385D01*
X64806564Y-81710611D01*
X64603516Y-81751000D01*
X64396484Y-81751000D01*
X64193436Y-81710611D01*
X64002167Y-81631385D01*
X64002166Y-81631385D01*
X64002165Y-81631384D01*
X63830027Y-81516365D01*
X63683635Y-81369973D01*
X63568616Y-81197835D01*
X63528989Y-81102167D01*
X63489389Y-81006564D01*
X63449000Y-80803516D01*
X63449000Y-80596484D01*
X63489389Y-80393436D01*
X63568615Y-80202167D01*
X63570162Y-80199852D01*
X63683635Y-80030027D01*
X63830027Y-79883635D01*
X64002165Y-79768616D01*
X64016177Y-79762812D01*
X64193436Y-79689389D01*
X64396484Y-79649000D01*
X64603516Y-79649000D01*
X64806564Y-79689389D01*
G37*
G36*
X87897985Y-77793860D02*
G01*
X88010748Y-77816290D01*
X88142741Y-77870963D01*
X88329408Y-77948283D01*
X88616196Y-78139909D01*
X88860091Y-78383804D01*
X89051717Y-78670592D01*
X89183710Y-78989253D01*
X89251000Y-79327540D01*
X89251000Y-79672460D01*
X89183710Y-80010747D01*
X89051717Y-80329408D01*
X88860091Y-80616196D01*
X88616196Y-80860091D01*
X88329408Y-81051717D01*
X88207615Y-81102165D01*
X88010748Y-81183710D01*
X87897985Y-81206140D01*
X87672460Y-81251000D01*
X87327540Y-81251000D01*
X87102015Y-81206140D01*
X86989252Y-81183710D01*
X86792385Y-81102165D01*
X86670592Y-81051717D01*
X86383804Y-80860091D01*
X86139909Y-80616196D01*
X85948283Y-80329408D01*
X85816290Y-80010747D01*
X85749000Y-79672460D01*
X85749000Y-79327540D01*
X85816290Y-78989253D01*
X85948283Y-78670592D01*
X86139909Y-78383804D01*
X86383804Y-78139909D01*
X86670592Y-77948283D01*
X86857259Y-77870963D01*
X86989252Y-77816290D01*
X87102015Y-77793860D01*
X87327540Y-77749000D01*
X87672460Y-77749000D01*
X87897985Y-77793860D01*
G37*
G36*
X160739998Y-78677014D02*
G01*
X160747939Y-78705078D01*
X160756232Y-78725100D01*
X160787474Y-78882166D01*
X160787474Y-78963469D01*
X160789047Y-78983234D01*
X161010696Y-80367035D01*
X159428859Y-80620404D01*
X159208950Y-79247467D01*
X159201009Y-79219404D01*
X159192716Y-79199382D01*
X159161474Y-79042316D01*
X159161474Y-78961013D01*
X159159901Y-78941243D01*
X158938252Y-77557447D01*
X160520089Y-77304078D01*
X160739998Y-78677014D01*
G37*
G36*
X148801000Y-78847286D02*
G01*
X148803402Y-78871672D01*
X148813000Y-78919925D01*
X148813000Y-79080075D01*
X148803402Y-79128328D01*
X148801000Y-79152714D01*
X148801000Y-80551000D01*
X147199000Y-80551000D01*
X147199000Y-79152714D01*
X147196598Y-79128328D01*
X147187000Y-79080075D01*
X147187000Y-78919925D01*
X147196598Y-78871672D01*
X147199000Y-78847286D01*
X147199000Y-77449000D01*
X148801000Y-77449000D01*
X148801000Y-78847286D01*
G37*
G36*
X82113512Y-78603927D02*
G01*
X82262812Y-78633624D01*
X82426784Y-78701544D01*
X82574354Y-78800147D01*
X82699853Y-78925646D01*
X82798456Y-79073216D01*
X82866376Y-79237188D01*
X82901000Y-79411259D01*
X82901000Y-79588741D01*
X82866376Y-79762812D01*
X82798456Y-79926784D01*
X82699853Y-80074354D01*
X82574354Y-80199853D01*
X82426784Y-80298456D01*
X82262812Y-80366376D01*
X82113512Y-80396073D01*
X82088742Y-80401000D01*
X81911258Y-80401000D01*
X81886488Y-80396073D01*
X81737188Y-80366376D01*
X81573216Y-80298456D01*
X81425646Y-80199853D01*
X81300147Y-80074354D01*
X81201544Y-79926784D01*
X81133624Y-79762812D01*
X81099000Y-79588741D01*
X81099000Y-79411259D01*
X81133624Y-79237188D01*
X81201544Y-79073216D01*
X81300147Y-78925646D01*
X81425646Y-78800147D01*
X81573216Y-78701544D01*
X81737188Y-78633624D01*
X81886488Y-78603927D01*
X81911258Y-78599000D01*
X82088742Y-78599000D01*
X82113512Y-78603927D01*
G37*
G36*
X93113512Y-78603927D02*
G01*
X93262812Y-78633624D01*
X93426784Y-78701544D01*
X93574354Y-78800147D01*
X93699853Y-78925646D01*
X93798456Y-79073216D01*
X93866376Y-79237188D01*
X93901000Y-79411259D01*
X93901000Y-79588741D01*
X93866376Y-79762812D01*
X93798456Y-79926784D01*
X93699853Y-80074354D01*
X93574354Y-80199853D01*
X93426784Y-80298456D01*
X93262812Y-80366376D01*
X93113512Y-80396073D01*
X93088742Y-80401000D01*
X92911258Y-80401000D01*
X92886488Y-80396073D01*
X92737188Y-80366376D01*
X92573216Y-80298456D01*
X92425646Y-80199853D01*
X92300147Y-80074354D01*
X92201544Y-79926784D01*
X92133624Y-79762812D01*
X92099000Y-79588741D01*
X92099000Y-79411259D01*
X92133624Y-79237188D01*
X92201544Y-79073216D01*
X92300147Y-78925646D01*
X92425646Y-78800147D01*
X92573216Y-78701544D01*
X92737188Y-78633624D01*
X92886488Y-78603927D01*
X92911258Y-78599000D01*
X93088742Y-78599000D01*
X93113512Y-78603927D01*
G37*
G36*
X105806564Y-77589389D02*
G01*
X105997833Y-77668615D01*
X105997835Y-77668616D01*
X106118138Y-77749000D01*
X106169973Y-77783635D01*
X106316365Y-77930027D01*
X106431385Y-78102167D01*
X106510611Y-78293436D01*
X106551000Y-78496484D01*
X106551000Y-78703516D01*
X106510611Y-78906564D01*
X106431385Y-79097833D01*
X106431384Y-79097835D01*
X106316365Y-79269973D01*
X106169973Y-79416365D01*
X105997835Y-79531384D01*
X105997834Y-79531385D01*
X105997833Y-79531385D01*
X105806564Y-79610611D01*
X105603516Y-79651000D01*
X105396484Y-79651000D01*
X105193436Y-79610611D01*
X105002167Y-79531385D01*
X105002166Y-79531385D01*
X105002165Y-79531384D01*
X104830027Y-79416365D01*
X104683635Y-79269973D01*
X104568616Y-79097835D01*
X104568615Y-79097833D01*
X104489389Y-78906564D01*
X104449000Y-78703516D01*
X104449000Y-78496484D01*
X104489389Y-78293436D01*
X104568615Y-78102167D01*
X104683635Y-77930027D01*
X104830027Y-77783635D01*
X104881862Y-77749000D01*
X105002165Y-77668616D01*
X105002167Y-77668615D01*
X105193436Y-77589389D01*
X105396484Y-77549000D01*
X105603516Y-77549000D01*
X105806564Y-77589389D01*
G37*
G36*
X69806564Y-77589389D02*
G01*
X69997833Y-77668615D01*
X69997835Y-77668616D01*
X70118138Y-77749000D01*
X70169973Y-77783635D01*
X70316365Y-77930027D01*
X70431385Y-78102167D01*
X70510611Y-78293436D01*
X70551000Y-78496484D01*
X70551000Y-78703516D01*
X70510611Y-78906564D01*
X70431385Y-79097833D01*
X70431384Y-79097835D01*
X70316365Y-79269973D01*
X70169973Y-79416365D01*
X69997835Y-79531384D01*
X69997834Y-79531385D01*
X69997833Y-79531385D01*
X69806564Y-79610611D01*
X69603516Y-79651000D01*
X69396484Y-79651000D01*
X69193436Y-79610611D01*
X69002167Y-79531385D01*
X69002166Y-79531385D01*
X69002165Y-79531384D01*
X68830027Y-79416365D01*
X68683635Y-79269973D01*
X68568616Y-79097835D01*
X68568615Y-79097833D01*
X68489389Y-78906564D01*
X68449000Y-78703516D01*
X68449000Y-78496484D01*
X68489389Y-78293436D01*
X68568615Y-78102167D01*
X68683635Y-77930027D01*
X68830027Y-77783635D01*
X68881862Y-77749000D01*
X69002165Y-77668616D01*
X69002167Y-77668615D01*
X69193436Y-77589389D01*
X69396484Y-77549000D01*
X69603516Y-77549000D01*
X69806564Y-77589389D01*
G37*
G36*
X82806564Y-74689389D02*
G01*
X82997833Y-74768615D01*
X82997835Y-74768616D01*
X83118138Y-74849000D01*
X83169973Y-74883635D01*
X83316365Y-75030027D01*
X83431385Y-75202167D01*
X83510611Y-75393436D01*
X83551000Y-75596484D01*
X83551000Y-75803516D01*
X83510611Y-76006564D01*
X83450784Y-76151000D01*
X83431384Y-76197835D01*
X83316365Y-76369973D01*
X83169973Y-76516365D01*
X82997835Y-76631384D01*
X82997834Y-76631385D01*
X82997833Y-76631385D01*
X82806564Y-76710611D01*
X82603516Y-76751000D01*
X82396484Y-76751000D01*
X82193436Y-76710611D01*
X82002167Y-76631385D01*
X82002166Y-76631385D01*
X82002165Y-76631384D01*
X81830027Y-76516365D01*
X81683635Y-76369973D01*
X81568616Y-76197835D01*
X81549216Y-76151000D01*
X81489389Y-76006564D01*
X81449000Y-75803516D01*
X81449000Y-75596484D01*
X81489389Y-75393436D01*
X81568615Y-75202167D01*
X81683635Y-75030027D01*
X81830027Y-74883635D01*
X81881862Y-74849000D01*
X82002165Y-74768616D01*
X82002167Y-74768615D01*
X82193436Y-74689389D01*
X82396484Y-74649000D01*
X82603516Y-74649000D01*
X82806564Y-74689389D01*
G37*
G36*
X125651000Y-76151000D02*
G01*
X124649000Y-76151000D01*
X124649000Y-74849000D01*
X125651000Y-74849000D01*
X125651000Y-76151000D01*
G37*
G36*
X122351000Y-76151000D02*
G01*
X121349000Y-76151000D01*
X121349000Y-74849000D01*
X122351000Y-74849000D01*
X122351000Y-76151000D01*
G37*
G36*
X159790645Y-72750000D02*
G01*
X159791050Y-72752532D01*
X159798991Y-72780596D01*
X159807284Y-72800618D01*
X159838526Y-72957684D01*
X159838526Y-73038987D01*
X159840099Y-73058752D01*
X160061748Y-74442553D01*
X158479911Y-74695922D01*
X158260002Y-73322985D01*
X158252061Y-73294922D01*
X158243768Y-73274900D01*
X158212526Y-73117834D01*
X158212526Y-73036531D01*
X158210953Y-73016761D01*
X158204358Y-72975587D01*
X157989304Y-71632965D01*
X159571141Y-71379596D01*
X159790645Y-72750000D01*
G37*
G36*
X87806564Y-72589389D02*
G01*
X87980926Y-72661612D01*
X87997835Y-72668616D01*
X88169973Y-72783635D01*
X88316365Y-72930027D01*
X88402380Y-73058757D01*
X88431385Y-73102167D01*
X88510611Y-73293436D01*
X88551000Y-73496484D01*
X88551000Y-73703516D01*
X88510611Y-73906564D01*
X88431385Y-74097833D01*
X88431384Y-74097835D01*
X88316365Y-74269973D01*
X88169973Y-74416365D01*
X87997835Y-74531384D01*
X87997834Y-74531385D01*
X87997833Y-74531385D01*
X87806564Y-74610611D01*
X87603516Y-74651000D01*
X87396484Y-74651000D01*
X87193436Y-74610611D01*
X87002167Y-74531385D01*
X87002166Y-74531385D01*
X87002165Y-74531384D01*
X86830027Y-74416365D01*
X86683635Y-74269973D01*
X86568616Y-74097835D01*
X86568615Y-74097833D01*
X86489389Y-73906564D01*
X86449000Y-73703516D01*
X86449000Y-73496484D01*
X86489389Y-73293436D01*
X86568615Y-73102167D01*
X86597621Y-73058757D01*
X86683635Y-72930027D01*
X86830027Y-72783635D01*
X87002165Y-72668616D01*
X87019074Y-72661612D01*
X87193436Y-72589389D01*
X87396484Y-72549000D01*
X87603516Y-72549000D01*
X87806564Y-72589389D01*
G37*
G36*
X148801000Y-72847286D02*
G01*
X148803402Y-72871672D01*
X148813000Y-72919925D01*
X148813000Y-73080075D01*
X148803402Y-73128328D01*
X148801000Y-73152714D01*
X148801000Y-74551000D01*
X147199000Y-74551000D01*
X147199000Y-73152714D01*
X147196598Y-73128328D01*
X147187000Y-73080075D01*
X147187000Y-72919925D01*
X147196598Y-72871672D01*
X147199000Y-72847286D01*
X147199000Y-71449000D01*
X148801000Y-71449000D01*
X148801000Y-72847286D01*
G37*
G36*
X144326296Y-72261674D02*
G01*
X144371400Y-72280357D01*
X144411992Y-72307480D01*
X144446520Y-72342008D01*
X144473643Y-72382600D01*
X144492326Y-72427704D01*
X144501850Y-72475587D01*
X144501850Y-72524413D01*
X144492326Y-72572296D01*
X144473643Y-72617400D01*
X144446520Y-72657992D01*
X144442900Y-72661612D01*
X144427355Y-72680554D01*
X144415804Y-72702165D01*
X144408691Y-72725614D01*
X144406289Y-72750000D01*
X144408691Y-72774386D01*
X144415804Y-72797835D01*
X144427355Y-72819446D01*
X144442900Y-72838388D01*
X144446520Y-72842008D01*
X144473643Y-72882600D01*
X144492326Y-72927704D01*
X144501850Y-72975587D01*
X144501850Y-73024413D01*
X144492326Y-73072296D01*
X144473643Y-73117400D01*
X144446520Y-73157992D01*
X144442900Y-73161612D01*
X144427355Y-73180554D01*
X144415804Y-73202165D01*
X144408691Y-73225614D01*
X144406289Y-73250000D01*
X144408691Y-73274386D01*
X144415804Y-73297835D01*
X144427355Y-73319446D01*
X144442900Y-73338388D01*
X144446520Y-73342008D01*
X144473643Y-73382600D01*
X144492326Y-73427704D01*
X144501850Y-73475587D01*
X144501850Y-73524413D01*
X144492326Y-73572296D01*
X144473643Y-73617400D01*
X144446520Y-73657992D01*
X144411992Y-73692520D01*
X144371400Y-73719643D01*
X144326296Y-73738326D01*
X144278413Y-73747850D01*
X144229587Y-73747850D01*
X144181704Y-73738326D01*
X144136600Y-73719643D01*
X144096008Y-73692520D01*
X144061480Y-73657992D01*
X144034357Y-73617400D01*
X144015674Y-73572296D01*
X144006150Y-73524413D01*
X144006150Y-73475587D01*
X144015674Y-73427704D01*
X144034357Y-73382600D01*
X144061480Y-73342008D01*
X144065100Y-73338388D01*
X144080645Y-73319446D01*
X144092196Y-73297835D01*
X144099309Y-73274386D01*
X144101711Y-73250000D01*
X144099309Y-73225614D01*
X144092196Y-73202165D01*
X144080645Y-73180554D01*
X144065100Y-73161612D01*
X144061480Y-73157992D01*
X144034357Y-73117400D01*
X144015674Y-73072296D01*
X144006150Y-73024413D01*
X144006150Y-72975587D01*
X144015674Y-72927704D01*
X144034357Y-72882600D01*
X144061480Y-72842008D01*
X144065100Y-72838388D01*
X144080645Y-72819446D01*
X144092196Y-72797835D01*
X144099309Y-72774386D01*
X144101711Y-72750000D01*
X144099309Y-72725614D01*
X144092196Y-72702165D01*
X144080645Y-72680554D01*
X144065100Y-72661612D01*
X144061480Y-72657992D01*
X144034357Y-72617400D01*
X144015674Y-72572296D01*
X144006150Y-72524413D01*
X144006150Y-72475587D01*
X144015674Y-72427704D01*
X144034357Y-72382600D01*
X144061480Y-72342008D01*
X144096008Y-72307480D01*
X144136600Y-72280357D01*
X144181704Y-72261674D01*
X144229587Y-72252150D01*
X144278413Y-72252150D01*
X144326296Y-72261674D01*
G37*
G36*
X145318296Y-72261674D02*
G01*
X145363400Y-72280357D01*
X145403992Y-72307480D01*
X145438520Y-72342008D01*
X145465643Y-72382600D01*
X145484326Y-72427704D01*
X145493850Y-72475587D01*
X145493850Y-72524413D01*
X145484326Y-72572296D01*
X145465643Y-72617400D01*
X145438520Y-72657992D01*
X145434900Y-72661612D01*
X145419355Y-72680554D01*
X145407804Y-72702165D01*
X145400691Y-72725614D01*
X145398289Y-72750000D01*
X145400691Y-72774386D01*
X145407804Y-72797835D01*
X145419355Y-72819446D01*
X145434900Y-72838388D01*
X145438520Y-72842008D01*
X145465643Y-72882600D01*
X145484326Y-72927704D01*
X145493850Y-72975587D01*
X145493850Y-73024413D01*
X145484326Y-73072296D01*
X145465643Y-73117400D01*
X145438520Y-73157992D01*
X145434900Y-73161612D01*
X145419355Y-73180554D01*
X145407804Y-73202165D01*
X145400691Y-73225614D01*
X145398289Y-73250000D01*
X145400691Y-73274386D01*
X145407804Y-73297835D01*
X145419355Y-73319446D01*
X145434900Y-73338388D01*
X145438520Y-73342008D01*
X145465643Y-73382600D01*
X145484326Y-73427704D01*
X145493850Y-73475587D01*
X145493850Y-73524413D01*
X145484326Y-73572296D01*
X145465643Y-73617400D01*
X145438520Y-73657992D01*
X145403992Y-73692520D01*
X145363400Y-73719643D01*
X145318296Y-73738326D01*
X145270413Y-73747850D01*
X145221587Y-73747850D01*
X145173704Y-73738326D01*
X145128600Y-73719643D01*
X145088008Y-73692520D01*
X145053480Y-73657992D01*
X145026357Y-73617400D01*
X145007674Y-73572296D01*
X144998150Y-73524413D01*
X144998150Y-73475587D01*
X145007674Y-73427704D01*
X145026357Y-73382600D01*
X145053480Y-73342008D01*
X145057100Y-73338388D01*
X145072645Y-73319446D01*
X145084196Y-73297835D01*
X145091309Y-73274386D01*
X145093711Y-73250000D01*
X145091309Y-73225614D01*
X145084196Y-73202165D01*
X145072645Y-73180554D01*
X145057100Y-73161612D01*
X145053480Y-73157992D01*
X145026357Y-73117400D01*
X145007674Y-73072296D01*
X144998150Y-73024413D01*
X144998150Y-72975587D01*
X145007674Y-72927704D01*
X145026357Y-72882600D01*
X145053480Y-72842008D01*
X145057100Y-72838388D01*
X145072645Y-72819446D01*
X145084196Y-72797835D01*
X145091309Y-72774386D01*
X145093711Y-72750000D01*
X145091309Y-72725614D01*
X145084196Y-72702165D01*
X145072645Y-72680554D01*
X145057100Y-72661612D01*
X145053480Y-72657992D01*
X145026357Y-72617400D01*
X145007674Y-72572296D01*
X144998150Y-72524413D01*
X144998150Y-72475587D01*
X145007674Y-72427704D01*
X145026357Y-72382600D01*
X145053480Y-72342008D01*
X145088008Y-72307480D01*
X145128600Y-72280357D01*
X145173704Y-72261674D01*
X145221587Y-72252150D01*
X145270413Y-72252150D01*
X145318296Y-72261674D01*
G37*
G36*
X123897985Y-69293860D02*
G01*
X124010748Y-69316290D01*
X124142741Y-69370963D01*
X124329408Y-69448283D01*
X124616196Y-69639909D01*
X124860091Y-69883804D01*
X125051717Y-70170592D01*
X125183710Y-70489253D01*
X125251000Y-70827540D01*
X125251000Y-71172460D01*
X125183710Y-71510747D01*
X125051717Y-71829408D01*
X124860091Y-72116196D01*
X124616196Y-72360091D01*
X124329408Y-72551717D01*
X124176870Y-72614900D01*
X124010748Y-72683710D01*
X123966472Y-72692517D01*
X123672460Y-72751000D01*
X123327540Y-72751000D01*
X123033528Y-72692517D01*
X122989252Y-72683710D01*
X122823130Y-72614900D01*
X122670592Y-72551717D01*
X122383804Y-72360091D01*
X122139909Y-72116196D01*
X121948283Y-71829408D01*
X121816290Y-71510747D01*
X121749000Y-71172460D01*
X121749000Y-70827540D01*
X121816290Y-70489253D01*
X121948283Y-70170592D01*
X122139909Y-69883804D01*
X122383804Y-69639909D01*
X122670592Y-69448283D01*
X122857259Y-69370963D01*
X122989252Y-69316290D01*
X123102015Y-69293860D01*
X123327540Y-69249000D01*
X123672460Y-69249000D01*
X123897985Y-69293860D01*
G37*
G36*
X104351000Y-72651000D02*
G01*
X103349000Y-72651000D01*
X103349000Y-71349000D01*
X104351000Y-71349000D01*
X104351000Y-72651000D01*
G37*
G36*
X68351000Y-72651000D02*
G01*
X67349000Y-72651000D01*
X67349000Y-71349000D01*
X68351000Y-71349000D01*
X68351000Y-72651000D01*
G37*
G36*
X71651000Y-72651000D02*
G01*
X70649000Y-72651000D01*
X70649000Y-71349000D01*
X71651000Y-71349000D01*
X71651000Y-72651000D01*
G37*
G36*
X107651000Y-72651000D02*
G01*
X106649000Y-72651000D01*
X106649000Y-71349000D01*
X107651000Y-71349000D01*
X107651000Y-72651000D01*
G37*
G36*
X118113512Y-70103927D02*
G01*
X118262812Y-70133624D01*
X118426784Y-70201544D01*
X118574354Y-70300147D01*
X118699853Y-70425646D01*
X118798456Y-70573216D01*
X118866376Y-70737188D01*
X118901000Y-70911259D01*
X118901000Y-71088741D01*
X118866376Y-71262812D01*
X118798456Y-71426784D01*
X118699853Y-71574354D01*
X118574354Y-71699853D01*
X118426784Y-71798456D01*
X118262812Y-71866376D01*
X118113512Y-71896073D01*
X118088742Y-71901000D01*
X117911258Y-71901000D01*
X117886488Y-71896073D01*
X117737188Y-71866376D01*
X117573216Y-71798456D01*
X117425646Y-71699853D01*
X117300147Y-71574354D01*
X117201544Y-71426784D01*
X117133624Y-71262812D01*
X117099000Y-71088741D01*
X117099000Y-70911259D01*
X117133624Y-70737188D01*
X117201544Y-70573216D01*
X117300147Y-70425646D01*
X117425646Y-70300147D01*
X117573216Y-70201544D01*
X117737188Y-70133624D01*
X117886488Y-70103927D01*
X117911258Y-70099000D01*
X118088742Y-70099000D01*
X118113512Y-70103927D01*
G37*
G36*
X129113512Y-70103927D02*
G01*
X129262812Y-70133624D01*
X129426784Y-70201544D01*
X129574354Y-70300147D01*
X129699853Y-70425646D01*
X129798456Y-70573216D01*
X129866376Y-70737188D01*
X129901000Y-70911259D01*
X129901000Y-71088741D01*
X129866376Y-71262812D01*
X129798456Y-71426784D01*
X129699853Y-71574354D01*
X129574354Y-71699853D01*
X129426784Y-71798456D01*
X129262812Y-71866376D01*
X129113512Y-71896073D01*
X129088742Y-71901000D01*
X128911258Y-71901000D01*
X128886488Y-71896073D01*
X128737188Y-71866376D01*
X128573216Y-71798456D01*
X128425646Y-71699853D01*
X128300147Y-71574354D01*
X128201544Y-71426784D01*
X128133624Y-71262812D01*
X128099000Y-71088741D01*
X128099000Y-70911259D01*
X128133624Y-70737188D01*
X128201544Y-70573216D01*
X128300147Y-70425646D01*
X128425646Y-70300147D01*
X128573216Y-70201544D01*
X128737188Y-70133624D01*
X128886488Y-70103927D01*
X128911258Y-70099000D01*
X129088742Y-70099000D01*
X129113512Y-70103927D01*
G37*
G36*
X143551000Y-70401000D02*
G01*
X141449000Y-70401000D01*
X141449000Y-66599000D01*
X143551000Y-66599000D01*
X143551000Y-70401000D01*
G37*
G36*
X158821938Y-66702165D02*
G01*
X158921180Y-67321756D01*
X158929121Y-67349820D01*
X158937414Y-67369842D01*
X158968656Y-67526908D01*
X158968656Y-67608211D01*
X158970229Y-67627976D01*
X159191878Y-69011777D01*
X157610041Y-69265146D01*
X157390132Y-67892209D01*
X157382191Y-67864146D01*
X157373898Y-67844124D01*
X157342656Y-67687058D01*
X157342656Y-67605755D01*
X157341083Y-67585985D01*
X157340136Y-67580074D01*
X157119434Y-66202189D01*
X158701271Y-65948820D01*
X158821938Y-66702165D01*
G37*
G36*
X69897985Y-65793860D02*
G01*
X70010748Y-65816290D01*
X70142741Y-65870963D01*
X70329408Y-65948283D01*
X70616196Y-66139909D01*
X70860091Y-66383804D01*
X71051717Y-66670592D01*
X71115768Y-66825226D01*
X71180600Y-66981743D01*
X71183710Y-66989253D01*
X71251000Y-67327540D01*
X71251000Y-67672460D01*
X71216854Y-67844124D01*
X71183710Y-68010748D01*
X71157364Y-68074353D01*
X71051717Y-68329408D01*
X70860091Y-68616196D01*
X70616196Y-68860091D01*
X70329408Y-69051717D01*
X70142741Y-69129037D01*
X70010748Y-69183710D01*
X69897985Y-69206140D01*
X69672460Y-69251000D01*
X69327540Y-69251000D01*
X69102015Y-69206140D01*
X68989252Y-69183710D01*
X68857259Y-69129037D01*
X68670592Y-69051717D01*
X68383804Y-68860091D01*
X68139909Y-68616196D01*
X67948283Y-68329408D01*
X67842636Y-68074353D01*
X67816290Y-68010748D01*
X67783146Y-67844124D01*
X67749000Y-67672460D01*
X67749000Y-67327540D01*
X67816290Y-66989253D01*
X67819401Y-66981743D01*
X67884232Y-66825226D01*
X67948283Y-66670592D01*
X68139909Y-66383804D01*
X68383804Y-66139909D01*
X68670592Y-65948283D01*
X68857259Y-65870963D01*
X68989252Y-65816290D01*
X69102015Y-65793860D01*
X69327540Y-65749000D01*
X69672460Y-65749000D01*
X69897985Y-65793860D01*
G37*
G36*
X105897985Y-65793860D02*
G01*
X106010748Y-65816290D01*
X106142741Y-65870963D01*
X106329408Y-65948283D01*
X106616196Y-66139909D01*
X106860091Y-66383804D01*
X107051717Y-66670592D01*
X107115768Y-66825226D01*
X107180600Y-66981743D01*
X107183710Y-66989253D01*
X107251000Y-67327540D01*
X107251000Y-67672460D01*
X107216854Y-67844124D01*
X107183710Y-68010748D01*
X107157364Y-68074353D01*
X107051717Y-68329408D01*
X106860091Y-68616196D01*
X106616196Y-68860091D01*
X106329408Y-69051717D01*
X106142741Y-69129037D01*
X106010748Y-69183710D01*
X105897985Y-69206140D01*
X105672460Y-69251000D01*
X105327540Y-69251000D01*
X105102015Y-69206140D01*
X104989252Y-69183710D01*
X104857259Y-69129037D01*
X104670592Y-69051717D01*
X104383804Y-68860091D01*
X104139909Y-68616196D01*
X103948283Y-68329408D01*
X103842636Y-68074353D01*
X103816290Y-68010748D01*
X103783146Y-67844124D01*
X103749000Y-67672460D01*
X103749000Y-67327540D01*
X103816290Y-66989253D01*
X103819401Y-66981743D01*
X103884232Y-66825226D01*
X103948283Y-66670592D01*
X104139909Y-66383804D01*
X104383804Y-66139909D01*
X104670592Y-65948283D01*
X104857259Y-65870963D01*
X104989252Y-65816290D01*
X105102015Y-65793860D01*
X105327540Y-65749000D01*
X105672460Y-65749000D01*
X105897985Y-65793860D01*
G37*
G36*
X148801000Y-67347286D02*
G01*
X148803402Y-67371672D01*
X148813000Y-67419925D01*
X148813000Y-67580075D01*
X148803402Y-67628328D01*
X148801000Y-67652714D01*
X148801000Y-69051000D01*
X147199000Y-69051000D01*
X147199000Y-67652714D01*
X147196598Y-67628328D01*
X147187000Y-67580075D01*
X147187000Y-67419925D01*
X147196598Y-67371672D01*
X147199000Y-67347286D01*
X147199000Y-65949000D01*
X148801000Y-65949000D01*
X148801000Y-67347286D01*
G37*
G36*
X64113512Y-66603927D02*
G01*
X64262812Y-66633624D01*
X64426784Y-66701544D01*
X64574354Y-66800147D01*
X64699853Y-66925646D01*
X64798456Y-67073216D01*
X64866376Y-67237188D01*
X64901000Y-67411259D01*
X64901000Y-67588741D01*
X64866376Y-67762812D01*
X64798456Y-67926784D01*
X64699853Y-68074354D01*
X64574354Y-68199853D01*
X64426784Y-68298456D01*
X64262812Y-68366376D01*
X64113512Y-68396073D01*
X64088742Y-68401000D01*
X63911258Y-68401000D01*
X63886488Y-68396073D01*
X63737188Y-68366376D01*
X63573216Y-68298456D01*
X63425646Y-68199853D01*
X63300147Y-68074354D01*
X63201544Y-67926784D01*
X63133624Y-67762812D01*
X63099000Y-67588741D01*
X63099000Y-67411259D01*
X63133624Y-67237188D01*
X63201544Y-67073216D01*
X63300147Y-66925646D01*
X63425646Y-66800147D01*
X63573216Y-66701544D01*
X63737188Y-66633624D01*
X63886488Y-66603927D01*
X63911258Y-66599000D01*
X64088742Y-66599000D01*
X64113512Y-66603927D01*
G37*
G36*
X111113512Y-66603927D02*
G01*
X111262812Y-66633624D01*
X111426784Y-66701544D01*
X111574354Y-66800147D01*
X111699853Y-66925646D01*
X111798456Y-67073216D01*
X111866376Y-67237188D01*
X111901000Y-67411259D01*
X111901000Y-67588741D01*
X111866376Y-67762812D01*
X111798456Y-67926784D01*
X111699853Y-68074354D01*
X111574354Y-68199853D01*
X111426784Y-68298456D01*
X111262812Y-68366376D01*
X111113512Y-68396073D01*
X111088742Y-68401000D01*
X110911258Y-68401000D01*
X110886488Y-68396073D01*
X110737188Y-68366376D01*
X110573216Y-68298456D01*
X110425646Y-68199853D01*
X110300147Y-68074354D01*
X110201544Y-67926784D01*
X110133624Y-67762812D01*
X110099000Y-67588741D01*
X110099000Y-67411259D01*
X110133624Y-67237188D01*
X110201544Y-67073216D01*
X110300147Y-66925646D01*
X110425646Y-66800147D01*
X110573216Y-66701544D01*
X110737188Y-66633624D01*
X110886488Y-66603927D01*
X110911258Y-66599000D01*
X111088742Y-66599000D01*
X111113512Y-66603927D01*
G37*
G36*
X100113512Y-66603927D02*
G01*
X100262812Y-66633624D01*
X100426784Y-66701544D01*
X100574354Y-66800147D01*
X100699853Y-66925646D01*
X100798456Y-67073216D01*
X100866376Y-67237188D01*
X100901000Y-67411259D01*
X100901000Y-67588741D01*
X100866376Y-67762812D01*
X100798456Y-67926784D01*
X100699853Y-68074354D01*
X100574354Y-68199853D01*
X100426784Y-68298456D01*
X100262812Y-68366376D01*
X100113512Y-68396073D01*
X100088742Y-68401000D01*
X99911258Y-68401000D01*
X99886488Y-68396073D01*
X99737188Y-68366376D01*
X99573216Y-68298456D01*
X99425646Y-68199853D01*
X99300147Y-68074354D01*
X99201544Y-67926784D01*
X99133624Y-67762812D01*
X99099000Y-67588741D01*
X99099000Y-67411259D01*
X99133624Y-67237188D01*
X99201544Y-67073216D01*
X99300147Y-66925646D01*
X99425646Y-66800147D01*
X99573216Y-66701544D01*
X99737188Y-66633624D01*
X99886488Y-66603927D01*
X99911258Y-66599000D01*
X100088742Y-66599000D01*
X100113512Y-66603927D01*
G37*
G36*
X75113512Y-66603927D02*
G01*
X75262812Y-66633624D01*
X75426784Y-66701544D01*
X75574354Y-66800147D01*
X75699853Y-66925646D01*
X75798456Y-67073216D01*
X75866376Y-67237188D01*
X75901000Y-67411259D01*
X75901000Y-67588741D01*
X75866376Y-67762812D01*
X75798456Y-67926784D01*
X75699853Y-68074354D01*
X75574354Y-68199853D01*
X75426784Y-68298456D01*
X75262812Y-68366376D01*
X75113512Y-68396073D01*
X75088742Y-68401000D01*
X74911258Y-68401000D01*
X74886488Y-68396073D01*
X74737188Y-68366376D01*
X74573216Y-68298456D01*
X74425646Y-68199853D01*
X74300147Y-68074354D01*
X74201544Y-67926784D01*
X74133624Y-67762812D01*
X74099000Y-67588741D01*
X74099000Y-67411259D01*
X74133624Y-67237188D01*
X74201544Y-67073216D01*
X74300147Y-66925646D01*
X74425646Y-66800147D01*
X74573216Y-66701544D01*
X74737188Y-66633624D01*
X74886488Y-66603927D01*
X74911258Y-66599000D01*
X75088742Y-66599000D01*
X75113512Y-66603927D01*
G37*
G36*
X118806564Y-66189389D02*
G01*
X118997833Y-66268615D01*
X118997835Y-66268616D01*
X119169973Y-66383635D01*
X119316365Y-66530027D01*
X119410288Y-66670592D01*
X119431385Y-66702167D01*
X119510611Y-66893436D01*
X119551000Y-67096484D01*
X119551000Y-67303516D01*
X119510611Y-67506564D01*
X119435848Y-67687058D01*
X119431384Y-67697835D01*
X119316365Y-67869973D01*
X119169973Y-68016365D01*
X118997835Y-68131384D01*
X118997834Y-68131385D01*
X118997833Y-68131385D01*
X118806564Y-68210611D01*
X118603516Y-68251000D01*
X118396484Y-68251000D01*
X118193436Y-68210611D01*
X118002167Y-68131385D01*
X118002166Y-68131385D01*
X118002165Y-68131384D01*
X117830027Y-68016365D01*
X117683635Y-67869973D01*
X117568616Y-67697835D01*
X117564152Y-67687058D01*
X117489389Y-67506564D01*
X117449000Y-67303516D01*
X117449000Y-67096484D01*
X117489389Y-66893436D01*
X117568615Y-66702167D01*
X117589713Y-66670592D01*
X117683635Y-66530027D01*
X117830027Y-66383635D01*
X118002165Y-66268616D01*
X118002167Y-66268615D01*
X118193436Y-66189389D01*
X118396484Y-66149000D01*
X118603516Y-66149000D01*
X118806564Y-66189389D01*
G37*
G36*
X86351000Y-67651000D02*
G01*
X85349000Y-67651000D01*
X85349000Y-66349000D01*
X86351000Y-66349000D01*
X86351000Y-67651000D01*
G37*
G36*
X89651000Y-67651000D02*
G01*
X88649000Y-67651000D01*
X88649000Y-66349000D01*
X89651000Y-66349000D01*
X89651000Y-67651000D01*
G37*
G36*
X123806564Y-64089389D02*
G01*
X123997833Y-64168615D01*
X123997835Y-64168616D01*
X124041561Y-64197833D01*
X124169973Y-64283635D01*
X124316365Y-64430027D01*
X124431385Y-64602167D01*
X124510611Y-64793436D01*
X124551000Y-64996484D01*
X124551000Y-65203516D01*
X124510611Y-65406564D01*
X124431385Y-65597833D01*
X124431384Y-65597835D01*
X124316365Y-65769973D01*
X124169973Y-65916365D01*
X123997835Y-66031384D01*
X123997834Y-66031385D01*
X123997833Y-66031385D01*
X123806564Y-66110611D01*
X123603516Y-66151000D01*
X123396484Y-66151000D01*
X123193436Y-66110611D01*
X123002167Y-66031385D01*
X123002166Y-66031385D01*
X123002165Y-66031384D01*
X122830027Y-65916365D01*
X122683635Y-65769973D01*
X122568616Y-65597835D01*
X122568615Y-65597833D01*
X122489389Y-65406564D01*
X122449000Y-65203516D01*
X122449000Y-64996484D01*
X122489389Y-64793436D01*
X122568615Y-64602167D01*
X122683635Y-64430027D01*
X122830027Y-64283635D01*
X122958439Y-64197833D01*
X123002165Y-64168616D01*
X123002167Y-64168615D01*
X123193436Y-64089389D01*
X123396484Y-64049000D01*
X123603516Y-64049000D01*
X123806564Y-64089389D01*
G37*
G36*
X143551000Y-64901000D02*
G01*
X141449000Y-64901000D01*
X141449000Y-61099000D01*
X143551000Y-61099000D01*
X143551000Y-64901000D01*
G37*
G36*
X64806564Y-62689389D02*
G01*
X64983823Y-62762812D01*
X64997835Y-62768616D01*
X65169973Y-62883635D01*
X65316365Y-63030027D01*
X65429839Y-63199852D01*
X65431385Y-63202167D01*
X65510611Y-63393436D01*
X65551000Y-63596484D01*
X65551000Y-63803516D01*
X65510611Y-64006564D01*
X65476303Y-64089390D01*
X65431384Y-64197835D01*
X65316365Y-64369973D01*
X65169973Y-64516365D01*
X64997835Y-64631384D01*
X64997834Y-64631385D01*
X64997833Y-64631385D01*
X64806564Y-64710611D01*
X64603516Y-64751000D01*
X64396484Y-64751000D01*
X64193436Y-64710611D01*
X64002167Y-64631385D01*
X64002166Y-64631385D01*
X64002165Y-64631384D01*
X63830027Y-64516365D01*
X63683635Y-64369973D01*
X63568616Y-64197835D01*
X63523697Y-64089390D01*
X63489389Y-64006564D01*
X63449000Y-63803516D01*
X63449000Y-63596484D01*
X63489389Y-63393436D01*
X63568615Y-63202167D01*
X63570162Y-63199852D01*
X63683635Y-63030027D01*
X63830027Y-62883635D01*
X64002165Y-62768616D01*
X64016177Y-62762812D01*
X64193436Y-62689389D01*
X64396484Y-62649000D01*
X64603516Y-62649000D01*
X64806564Y-62689389D01*
G37*
G36*
X100806564Y-62689389D02*
G01*
X100983823Y-62762812D01*
X100997835Y-62768616D01*
X101169973Y-62883635D01*
X101316365Y-63030027D01*
X101429839Y-63199852D01*
X101431385Y-63202167D01*
X101510611Y-63393436D01*
X101551000Y-63596484D01*
X101551000Y-63803516D01*
X101510611Y-64006564D01*
X101476303Y-64089390D01*
X101431384Y-64197835D01*
X101316365Y-64369973D01*
X101169973Y-64516365D01*
X100997835Y-64631384D01*
X100997834Y-64631385D01*
X100997833Y-64631385D01*
X100806564Y-64710611D01*
X100603516Y-64751000D01*
X100396484Y-64751000D01*
X100193436Y-64710611D01*
X100002167Y-64631385D01*
X100002166Y-64631385D01*
X100002165Y-64631384D01*
X99830027Y-64516365D01*
X99683635Y-64369973D01*
X99568616Y-64197835D01*
X99523697Y-64089390D01*
X99489389Y-64006564D01*
X99449000Y-63803516D01*
X99449000Y-63596484D01*
X99489389Y-63393436D01*
X99568615Y-63202167D01*
X99570162Y-63199852D01*
X99683635Y-63030027D01*
X99830027Y-62883635D01*
X100002165Y-62768616D01*
X100016177Y-62762812D01*
X100193436Y-62689389D01*
X100396484Y-62649000D01*
X100603516Y-62649000D01*
X100806564Y-62689389D01*
G37*
G36*
X87897985Y-60793860D02*
G01*
X88010748Y-60816290D01*
X88142741Y-60870963D01*
X88329408Y-60948283D01*
X88616196Y-61139909D01*
X88860091Y-61383804D01*
X89051717Y-61670592D01*
X89108419Y-61807483D01*
X89183710Y-61989252D01*
X89190704Y-62024413D01*
X89251000Y-62327540D01*
X89251000Y-62672460D01*
X89183710Y-63010747D01*
X89051717Y-63329408D01*
X88860091Y-63616196D01*
X88616196Y-63860091D01*
X88329408Y-64051717D01*
X88142741Y-64129037D01*
X88010748Y-64183710D01*
X87897985Y-64206140D01*
X87672460Y-64251000D01*
X87327540Y-64251000D01*
X87102015Y-64206140D01*
X86989252Y-64183710D01*
X86857259Y-64129037D01*
X86670592Y-64051717D01*
X86383804Y-63860091D01*
X86139909Y-63616196D01*
X85948283Y-63329408D01*
X85816290Y-63010747D01*
X85749000Y-62672460D01*
X85749000Y-62327540D01*
X85809296Y-62024413D01*
X85816290Y-61989252D01*
X85891581Y-61807483D01*
X85948283Y-61670592D01*
X86139909Y-61383804D01*
X86383804Y-61139909D01*
X86670592Y-60948283D01*
X86857259Y-60870963D01*
X86989252Y-60816290D01*
X87102015Y-60793860D01*
X87327540Y-60749000D01*
X87672460Y-60749000D01*
X87897985Y-60793860D01*
G37*
G36*
X158043467Y-61842005D02*
G01*
X158051311Y-61890980D01*
X158059252Y-61919044D01*
X158067545Y-61939066D01*
X158098787Y-62096132D01*
X158098787Y-62177435D01*
X158100360Y-62197200D01*
X158322009Y-63581001D01*
X156740172Y-63834370D01*
X156557277Y-62692520D01*
X156520263Y-62461433D01*
X156512322Y-62433370D01*
X156504029Y-62413348D01*
X156472787Y-62256282D01*
X156472787Y-62174979D01*
X156471214Y-62155209D01*
X156462024Y-62097835D01*
X156249565Y-60771413D01*
X157831402Y-60518044D01*
X158043467Y-61842005D01*
G37*
G36*
X148801000Y-61847286D02*
G01*
X148803402Y-61871672D01*
X148813000Y-61919925D01*
X148813000Y-62080075D01*
X148803402Y-62128328D01*
X148801000Y-62152714D01*
X148801000Y-63551000D01*
X147199000Y-63551000D01*
X147199000Y-62152714D01*
X147196598Y-62128328D01*
X147187000Y-62080075D01*
X147187000Y-61919925D01*
X147196598Y-61871672D01*
X147199000Y-61847286D01*
X147199000Y-60449000D01*
X148801000Y-60449000D01*
X148801000Y-61847286D01*
G37*
G36*
X82113512Y-61603927D02*
G01*
X82262812Y-61633624D01*
X82426784Y-61701544D01*
X82574354Y-61800147D01*
X82699853Y-61925646D01*
X82798456Y-62073216D01*
X82866376Y-62237188D01*
X82901000Y-62411259D01*
X82901000Y-62588741D01*
X82866376Y-62762812D01*
X82798456Y-62926784D01*
X82699853Y-63074354D01*
X82574354Y-63199853D01*
X82426784Y-63298456D01*
X82262812Y-63366376D01*
X82113512Y-63396073D01*
X82088742Y-63401000D01*
X81911258Y-63401000D01*
X81886488Y-63396073D01*
X81737188Y-63366376D01*
X81573216Y-63298456D01*
X81425646Y-63199853D01*
X81300147Y-63074354D01*
X81201544Y-62926784D01*
X81133624Y-62762812D01*
X81099000Y-62588741D01*
X81099000Y-62411259D01*
X81133624Y-62237188D01*
X81201544Y-62073216D01*
X81300147Y-61925646D01*
X81425646Y-61800147D01*
X81573216Y-61701544D01*
X81737188Y-61633624D01*
X81886488Y-61603927D01*
X81911258Y-61599000D01*
X82088742Y-61599000D01*
X82113512Y-61603927D01*
G37*
G36*
X93113512Y-61603927D02*
G01*
X93262812Y-61633624D01*
X93426784Y-61701544D01*
X93574354Y-61800147D01*
X93699853Y-61925646D01*
X93798456Y-62073216D01*
X93866376Y-62237188D01*
X93901000Y-62411259D01*
X93901000Y-62588741D01*
X93866376Y-62762812D01*
X93798456Y-62926784D01*
X93699853Y-63074354D01*
X93574354Y-63199853D01*
X93426784Y-63298456D01*
X93262812Y-63366376D01*
X93113512Y-63396073D01*
X93088742Y-63401000D01*
X92911258Y-63401000D01*
X92886488Y-63396073D01*
X92737188Y-63366376D01*
X92573216Y-63298456D01*
X92425646Y-63199853D01*
X92300147Y-63074354D01*
X92201544Y-62926784D01*
X92133624Y-62762812D01*
X92099000Y-62588741D01*
X92099000Y-62411259D01*
X92133624Y-62237188D01*
X92201544Y-62073216D01*
X92300147Y-61925646D01*
X92425646Y-61800147D01*
X92573216Y-61701544D01*
X92737188Y-61633624D01*
X92886488Y-61603927D01*
X92911258Y-61599000D01*
X93088742Y-61599000D01*
X93113512Y-61603927D01*
G37*
G36*
X145318296Y-61261674D02*
G01*
X145363400Y-61280357D01*
X145403992Y-61307480D01*
X145438520Y-61342008D01*
X145465643Y-61382600D01*
X145484326Y-61427704D01*
X145493850Y-61475587D01*
X145493850Y-61524413D01*
X145484326Y-61572296D01*
X145465643Y-61617400D01*
X145438520Y-61657992D01*
X145434900Y-61661612D01*
X145419355Y-61680554D01*
X145407804Y-61702165D01*
X145400691Y-61725614D01*
X145398289Y-61750000D01*
X145400691Y-61774386D01*
X145407804Y-61797835D01*
X145419355Y-61819446D01*
X145434900Y-61838388D01*
X145438520Y-61842008D01*
X145465643Y-61882600D01*
X145484326Y-61927704D01*
X145493850Y-61975587D01*
X145493850Y-62024413D01*
X145484326Y-62072296D01*
X145465643Y-62117400D01*
X145438520Y-62157992D01*
X145434900Y-62161612D01*
X145419355Y-62180554D01*
X145407804Y-62202165D01*
X145400691Y-62225614D01*
X145398289Y-62250000D01*
X145400691Y-62274386D01*
X145407804Y-62297835D01*
X145419355Y-62319446D01*
X145434900Y-62338388D01*
X145438520Y-62342008D01*
X145465643Y-62382600D01*
X145484326Y-62427704D01*
X145493850Y-62475587D01*
X145493850Y-62524413D01*
X145484326Y-62572296D01*
X145465643Y-62617400D01*
X145438520Y-62657992D01*
X145403992Y-62692520D01*
X145363400Y-62719643D01*
X145318296Y-62738326D01*
X145270413Y-62747850D01*
X145221587Y-62747850D01*
X145173704Y-62738326D01*
X145128600Y-62719643D01*
X145088008Y-62692520D01*
X145053480Y-62657992D01*
X145026357Y-62617400D01*
X145007674Y-62572296D01*
X144998150Y-62524413D01*
X144998150Y-62475587D01*
X145007674Y-62427704D01*
X145026357Y-62382600D01*
X145053480Y-62342008D01*
X145057100Y-62338388D01*
X145072645Y-62319446D01*
X145084196Y-62297835D01*
X145091309Y-62274386D01*
X145093711Y-62250000D01*
X145091309Y-62225614D01*
X145084196Y-62202165D01*
X145072645Y-62180554D01*
X145057100Y-62161612D01*
X145053480Y-62157992D01*
X145026357Y-62117400D01*
X145007674Y-62072296D01*
X144998150Y-62024413D01*
X144998150Y-61975587D01*
X145007674Y-61927704D01*
X145026357Y-61882600D01*
X145053480Y-61842008D01*
X145057100Y-61838388D01*
X145072645Y-61819446D01*
X145084196Y-61797835D01*
X145091309Y-61774386D01*
X145093711Y-61750000D01*
X145091309Y-61725614D01*
X145084196Y-61702165D01*
X145072645Y-61680554D01*
X145057100Y-61661612D01*
X145053480Y-61657992D01*
X145026357Y-61617400D01*
X145007674Y-61572296D01*
X144998150Y-61524413D01*
X144998150Y-61475587D01*
X145007674Y-61427704D01*
X145026357Y-61382600D01*
X145053480Y-61342008D01*
X145088008Y-61307480D01*
X145128600Y-61280357D01*
X145173704Y-61261674D01*
X145221587Y-61252150D01*
X145270413Y-61252150D01*
X145318296Y-61261674D01*
G37*
G36*
X144326296Y-61261674D02*
G01*
X144371400Y-61280357D01*
X144411992Y-61307480D01*
X144446520Y-61342008D01*
X144473643Y-61382600D01*
X144492326Y-61427704D01*
X144501850Y-61475587D01*
X144501850Y-61524413D01*
X144492326Y-61572296D01*
X144473643Y-61617400D01*
X144446520Y-61657992D01*
X144442900Y-61661612D01*
X144427355Y-61680554D01*
X144415804Y-61702165D01*
X144408691Y-61725614D01*
X144406289Y-61750000D01*
X144408691Y-61774386D01*
X144415804Y-61797835D01*
X144427355Y-61819446D01*
X144442900Y-61838388D01*
X144446520Y-61842008D01*
X144473643Y-61882600D01*
X144492326Y-61927704D01*
X144501850Y-61975587D01*
X144501850Y-62024413D01*
X144492326Y-62072296D01*
X144473643Y-62117400D01*
X144446520Y-62157992D01*
X144442900Y-62161612D01*
X144427355Y-62180554D01*
X144415804Y-62202165D01*
X144408691Y-62225614D01*
X144406289Y-62250000D01*
X144408691Y-62274386D01*
X144415804Y-62297835D01*
X144427355Y-62319446D01*
X144442900Y-62338388D01*
X144446520Y-62342008D01*
X144473643Y-62382600D01*
X144492326Y-62427704D01*
X144501850Y-62475587D01*
X144501850Y-62524413D01*
X144492326Y-62572296D01*
X144473643Y-62617400D01*
X144446520Y-62657992D01*
X144411992Y-62692520D01*
X144371400Y-62719643D01*
X144326296Y-62738326D01*
X144278413Y-62747850D01*
X144229587Y-62747850D01*
X144181704Y-62738326D01*
X144136600Y-62719643D01*
X144096008Y-62692520D01*
X144061480Y-62657992D01*
X144034357Y-62617400D01*
X144015674Y-62572296D01*
X144006150Y-62524413D01*
X144006150Y-62475587D01*
X144015674Y-62427704D01*
X144034357Y-62382600D01*
X144061480Y-62342008D01*
X144065100Y-62338388D01*
X144080645Y-62319446D01*
X144092196Y-62297835D01*
X144099309Y-62274386D01*
X144101711Y-62250000D01*
X144099309Y-62225614D01*
X144092196Y-62202165D01*
X144080645Y-62180554D01*
X144065100Y-62161612D01*
X144061480Y-62157992D01*
X144034357Y-62117400D01*
X144015674Y-62072296D01*
X144006150Y-62024413D01*
X144006150Y-61975587D01*
X144015674Y-61927704D01*
X144034357Y-61882600D01*
X144061480Y-61842008D01*
X144065100Y-61838388D01*
X144080645Y-61819446D01*
X144092196Y-61797835D01*
X144099309Y-61774386D01*
X144101711Y-61750000D01*
X144099309Y-61725614D01*
X144092196Y-61702165D01*
X144080645Y-61680554D01*
X144065100Y-61661612D01*
X144061480Y-61657992D01*
X144034357Y-61617400D01*
X144015674Y-61572296D01*
X144006150Y-61524413D01*
X144006150Y-61475587D01*
X144015674Y-61427704D01*
X144034357Y-61382600D01*
X144061480Y-61342008D01*
X144096008Y-61307480D01*
X144136600Y-61280357D01*
X144181704Y-61261674D01*
X144229587Y-61252150D01*
X144278413Y-61252150D01*
X144326296Y-61261674D01*
G37*
G36*
X69806564Y-60589389D02*
G01*
X69997833Y-60668615D01*
X69997835Y-60668616D01*
X70118138Y-60749000D01*
X70169973Y-60783635D01*
X70316365Y-60930027D01*
X70431385Y-61102167D01*
X70510611Y-61293436D01*
X70551000Y-61496484D01*
X70551000Y-61703516D01*
X70510611Y-61906564D01*
X70432089Y-62096133D01*
X70431384Y-62097835D01*
X70316365Y-62269973D01*
X70169973Y-62416365D01*
X69997835Y-62531384D01*
X69997834Y-62531385D01*
X69997833Y-62531385D01*
X69806564Y-62610611D01*
X69603516Y-62651000D01*
X69396484Y-62651000D01*
X69193436Y-62610611D01*
X69002167Y-62531385D01*
X69002166Y-62531385D01*
X69002165Y-62531384D01*
X68830027Y-62416365D01*
X68683635Y-62269973D01*
X68568616Y-62097835D01*
X68567911Y-62096133D01*
X68489389Y-61906564D01*
X68449000Y-61703516D01*
X68449000Y-61496484D01*
X68489389Y-61293436D01*
X68568615Y-61102167D01*
X68683635Y-60930027D01*
X68830027Y-60783635D01*
X68881862Y-60749000D01*
X69002165Y-60668616D01*
X69002167Y-60668615D01*
X69193436Y-60589389D01*
X69396484Y-60549000D01*
X69603516Y-60549000D01*
X69806564Y-60589389D01*
G37*
G36*
X105806564Y-60589389D02*
G01*
X105997833Y-60668615D01*
X105997835Y-60668616D01*
X106118138Y-60749000D01*
X106169973Y-60783635D01*
X106316365Y-60930027D01*
X106431385Y-61102167D01*
X106510611Y-61293436D01*
X106551000Y-61496484D01*
X106551000Y-61703516D01*
X106510611Y-61906564D01*
X106432089Y-62096133D01*
X106431384Y-62097835D01*
X106316365Y-62269973D01*
X106169973Y-62416365D01*
X105997835Y-62531384D01*
X105997834Y-62531385D01*
X105997833Y-62531385D01*
X105806564Y-62610611D01*
X105603516Y-62651000D01*
X105396484Y-62651000D01*
X105193436Y-62610611D01*
X105002167Y-62531385D01*
X105002166Y-62531385D01*
X105002165Y-62531384D01*
X104830027Y-62416365D01*
X104683635Y-62269973D01*
X104568616Y-62097835D01*
X104567911Y-62096133D01*
X104489389Y-61906564D01*
X104449000Y-61703516D01*
X104449000Y-61496484D01*
X104489389Y-61293436D01*
X104568615Y-61102167D01*
X104683635Y-60930027D01*
X104830027Y-60783635D01*
X104881862Y-60749000D01*
X105002165Y-60668616D01*
X105002167Y-60668615D01*
X105193436Y-60589389D01*
X105396484Y-60549000D01*
X105603516Y-60549000D01*
X105806564Y-60589389D01*
G37*
G36*
X82806564Y-57689389D02*
G01*
X82997833Y-57768615D01*
X82997835Y-57768616D01*
X83169973Y-57883635D01*
X83316365Y-58030027D01*
X83431385Y-58202167D01*
X83510611Y-58393436D01*
X83551000Y-58596484D01*
X83551000Y-58803516D01*
X83510611Y-59006564D01*
X83431385Y-59197833D01*
X83431384Y-59197835D01*
X83316365Y-59369973D01*
X83169973Y-59516365D01*
X82997835Y-59631384D01*
X82997834Y-59631385D01*
X82997833Y-59631385D01*
X82806564Y-59710611D01*
X82603516Y-59751000D01*
X82396484Y-59751000D01*
X82193436Y-59710611D01*
X82002167Y-59631385D01*
X82002166Y-59631385D01*
X82002165Y-59631384D01*
X81830027Y-59516365D01*
X81683635Y-59369973D01*
X81568616Y-59197835D01*
X81568615Y-59197833D01*
X81489389Y-59006564D01*
X81449000Y-58803516D01*
X81449000Y-58596484D01*
X81489389Y-58393436D01*
X81568615Y-58202167D01*
X81683635Y-58030027D01*
X81830027Y-57883635D01*
X82002165Y-57768616D01*
X82002167Y-57768615D01*
X82193436Y-57689389D01*
X82396484Y-57649000D01*
X82603516Y-57649000D01*
X82806564Y-57689389D01*
G37*
G36*
X143551000Y-59401000D02*
G01*
X141449000Y-59401000D01*
X141449000Y-55599000D01*
X143551000Y-55599000D01*
X143551000Y-59401000D01*
G37*
G36*
X87806564Y-55589389D02*
G01*
X87997833Y-55668615D01*
X87997835Y-55668616D01*
X88033879Y-55692700D01*
X88169973Y-55783635D01*
X88316365Y-55930027D01*
X88431385Y-56102167D01*
X88510611Y-56293436D01*
X88551000Y-56496484D01*
X88551000Y-56703516D01*
X88510611Y-56906564D01*
X88447370Y-57059241D01*
X88431384Y-57097835D01*
X88316365Y-57269973D01*
X88169973Y-57416365D01*
X87997835Y-57531384D01*
X87997834Y-57531385D01*
X87997833Y-57531385D01*
X87806564Y-57610611D01*
X87603516Y-57651000D01*
X87396484Y-57651000D01*
X87193436Y-57610611D01*
X87002167Y-57531385D01*
X87002166Y-57531385D01*
X87002165Y-57531384D01*
X86830027Y-57416365D01*
X86683635Y-57269973D01*
X86568616Y-57097835D01*
X86552630Y-57059241D01*
X86489389Y-56906564D01*
X86449000Y-56703516D01*
X86449000Y-56496484D01*
X86489389Y-56293436D01*
X86568615Y-56102167D01*
X86683635Y-55930027D01*
X86830027Y-55783635D01*
X86966121Y-55692700D01*
X87002165Y-55668616D01*
X87002167Y-55668615D01*
X87193436Y-55589389D01*
X87396484Y-55549000D01*
X87603516Y-55549000D01*
X87806564Y-55589389D01*
G37*
G36*
X113500483Y-55728335D02*
G01*
X113669240Y-55798236D01*
X113821118Y-55899718D01*
X113950282Y-56028882D01*
X114051764Y-56180760D01*
X114121665Y-56349517D01*
X114157300Y-56528668D01*
X114157300Y-56711332D01*
X114121665Y-56890483D01*
X114051764Y-57059240D01*
X113950282Y-57211118D01*
X113821118Y-57340282D01*
X113669240Y-57441764D01*
X113500483Y-57511665D01*
X113321332Y-57547300D01*
X113138668Y-57547300D01*
X112959517Y-57511665D01*
X112790760Y-57441764D01*
X112638882Y-57340282D01*
X112509718Y-57211118D01*
X112408236Y-57059240D01*
X112338335Y-56890483D01*
X112302700Y-56711332D01*
X112302700Y-56528668D01*
X112338335Y-56349517D01*
X112408236Y-56180760D01*
X112509718Y-56028882D01*
X112638882Y-55899718D01*
X112790760Y-55798236D01*
X112959517Y-55728335D01*
X113138668Y-55692700D01*
X113321332Y-55692700D01*
X113500483Y-55728335D01*
G37*
G36*
X110960483Y-55728335D02*
G01*
X111129240Y-55798236D01*
X111281118Y-55899718D01*
X111410282Y-56028882D01*
X111511764Y-56180760D01*
X111581665Y-56349517D01*
X111617300Y-56528668D01*
X111617300Y-56711332D01*
X111581665Y-56890483D01*
X111511764Y-57059240D01*
X111410282Y-57211118D01*
X111281118Y-57340282D01*
X111129240Y-57441764D01*
X110960483Y-57511665D01*
X110781332Y-57547300D01*
X110598668Y-57547300D01*
X110419517Y-57511665D01*
X110250760Y-57441764D01*
X110098882Y-57340282D01*
X109969718Y-57211118D01*
X109868236Y-57059240D01*
X109798335Y-56890483D01*
X109762700Y-56711332D01*
X109762700Y-56528668D01*
X109798335Y-56349517D01*
X109868236Y-56180760D01*
X109969718Y-56028882D01*
X110098882Y-55899718D01*
X110250760Y-55798236D01*
X110419517Y-55728335D01*
X110598668Y-55692700D01*
X110781332Y-55692700D01*
X110960483Y-55728335D01*
G37*
G36*
X126200483Y-55728335D02*
G01*
X126369240Y-55798236D01*
X126521118Y-55899718D01*
X126650282Y-56028882D01*
X126751764Y-56180760D01*
X126821665Y-56349517D01*
X126857300Y-56528668D01*
X126857300Y-56711332D01*
X126821665Y-56890483D01*
X126751764Y-57059240D01*
X126650282Y-57211118D01*
X126521118Y-57340282D01*
X126369240Y-57441764D01*
X126200483Y-57511665D01*
X126021332Y-57547300D01*
X125838668Y-57547300D01*
X125659517Y-57511665D01*
X125490760Y-57441764D01*
X125338882Y-57340282D01*
X125209718Y-57211118D01*
X125108236Y-57059240D01*
X125038335Y-56890483D01*
X125002700Y-56711332D01*
X125002700Y-56528668D01*
X125038335Y-56349517D01*
X125108236Y-56180760D01*
X125209718Y-56028882D01*
X125338882Y-55899718D01*
X125490760Y-55798236D01*
X125659517Y-55728335D01*
X125838668Y-55692700D01*
X126021332Y-55692700D01*
X126200483Y-55728335D01*
G37*
G36*
X108420483Y-55728335D02*
G01*
X108589240Y-55798236D01*
X108741118Y-55899718D01*
X108870282Y-56028882D01*
X108971764Y-56180760D01*
X109041665Y-56349517D01*
X109077300Y-56528668D01*
X109077300Y-56711332D01*
X109041665Y-56890483D01*
X108971764Y-57059240D01*
X108870282Y-57211118D01*
X108741118Y-57340282D01*
X108589240Y-57441764D01*
X108420483Y-57511665D01*
X108241332Y-57547300D01*
X108058668Y-57547300D01*
X107879517Y-57511665D01*
X107710760Y-57441764D01*
X107558882Y-57340282D01*
X107429718Y-57211118D01*
X107328236Y-57059240D01*
X107258335Y-56890483D01*
X107222700Y-56711332D01*
X107222700Y-56528668D01*
X107258335Y-56349517D01*
X107328236Y-56180760D01*
X107429718Y-56028882D01*
X107558882Y-55899718D01*
X107710760Y-55798236D01*
X107879517Y-55728335D01*
X108058668Y-55692700D01*
X108241332Y-55692700D01*
X108420483Y-55728335D01*
G37*
G36*
X105880483Y-55728335D02*
G01*
X106049240Y-55798236D01*
X106201118Y-55899718D01*
X106330282Y-56028882D01*
X106431764Y-56180760D01*
X106501665Y-56349517D01*
X106537300Y-56528668D01*
X106537300Y-56711332D01*
X106501665Y-56890483D01*
X106431764Y-57059240D01*
X106330282Y-57211118D01*
X106201118Y-57340282D01*
X106049240Y-57441764D01*
X105880483Y-57511665D01*
X105701332Y-57547300D01*
X105518668Y-57547300D01*
X105339517Y-57511665D01*
X105170760Y-57441764D01*
X105018882Y-57340282D01*
X104889718Y-57211118D01*
X104788236Y-57059240D01*
X104718335Y-56890483D01*
X104682700Y-56711332D01*
X104682700Y-56528668D01*
X104718335Y-56349517D01*
X104788236Y-56180760D01*
X104889718Y-56028882D01*
X105018882Y-55899718D01*
X105170760Y-55798236D01*
X105339517Y-55728335D01*
X105518668Y-55692700D01*
X105701332Y-55692700D01*
X105880483Y-55728335D01*
G37*
G36*
X103340483Y-55728335D02*
G01*
X103509240Y-55798236D01*
X103661118Y-55899718D01*
X103790282Y-56028882D01*
X103891764Y-56180760D01*
X103961665Y-56349517D01*
X103997300Y-56528668D01*
X103997300Y-56711332D01*
X103961665Y-56890483D01*
X103891764Y-57059240D01*
X103790282Y-57211118D01*
X103661118Y-57340282D01*
X103509240Y-57441764D01*
X103340483Y-57511665D01*
X103161332Y-57547300D01*
X102978668Y-57547300D01*
X102799517Y-57511665D01*
X102630760Y-57441764D01*
X102478882Y-57340282D01*
X102349718Y-57211118D01*
X102248236Y-57059240D01*
X102178335Y-56890483D01*
X102142700Y-56711332D01*
X102142700Y-56528668D01*
X102178335Y-56349517D01*
X102248236Y-56180760D01*
X102349718Y-56028882D01*
X102478882Y-55899718D01*
X102630760Y-55798236D01*
X102799517Y-55728335D01*
X102978668Y-55692700D01*
X103161332Y-55692700D01*
X103340483Y-55728335D01*
G37*
G36*
X118580483Y-55728335D02*
G01*
X118749240Y-55798236D01*
X118901118Y-55899718D01*
X119030282Y-56028882D01*
X119131764Y-56180760D01*
X119201665Y-56349517D01*
X119237300Y-56528668D01*
X119237300Y-56711332D01*
X119201665Y-56890483D01*
X119131764Y-57059240D01*
X119030282Y-57211118D01*
X118901118Y-57340282D01*
X118749240Y-57441764D01*
X118580483Y-57511665D01*
X118401332Y-57547300D01*
X118218668Y-57547300D01*
X118039517Y-57511665D01*
X117870760Y-57441764D01*
X117718882Y-57340282D01*
X117589718Y-57211118D01*
X117488236Y-57059240D01*
X117418335Y-56890483D01*
X117382700Y-56711332D01*
X117382700Y-56528668D01*
X117418335Y-56349517D01*
X117488236Y-56180760D01*
X117589718Y-56028882D01*
X117718882Y-55899718D01*
X117870760Y-55798236D01*
X118039517Y-55728335D01*
X118218668Y-55692700D01*
X118401332Y-55692700D01*
X118580483Y-55728335D01*
G37*
G36*
X121120483Y-55728335D02*
G01*
X121289240Y-55798236D01*
X121441118Y-55899718D01*
X121570282Y-56028882D01*
X121671764Y-56180760D01*
X121741665Y-56349517D01*
X121777300Y-56528668D01*
X121777300Y-56711332D01*
X121741665Y-56890483D01*
X121671764Y-57059240D01*
X121570282Y-57211118D01*
X121441118Y-57340282D01*
X121289240Y-57441764D01*
X121120483Y-57511665D01*
X120941332Y-57547300D01*
X120758668Y-57547300D01*
X120579517Y-57511665D01*
X120410760Y-57441764D01*
X120258882Y-57340282D01*
X120129718Y-57211118D01*
X120028236Y-57059240D01*
X119958335Y-56890483D01*
X119922700Y-56711332D01*
X119922700Y-56528668D01*
X119958335Y-56349517D01*
X120028236Y-56180760D01*
X120129718Y-56028882D01*
X120258882Y-55899718D01*
X120410760Y-55798236D01*
X120579517Y-55728335D01*
X120758668Y-55692700D01*
X120941332Y-55692700D01*
X121120483Y-55728335D01*
G37*
G36*
X123660483Y-55728335D02*
G01*
X123829240Y-55798236D01*
X123981118Y-55899718D01*
X124110282Y-56028882D01*
X124211764Y-56180760D01*
X124281665Y-56349517D01*
X124317300Y-56528668D01*
X124317300Y-56711332D01*
X124281665Y-56890483D01*
X124211764Y-57059240D01*
X124110282Y-57211118D01*
X123981118Y-57340282D01*
X123829240Y-57441764D01*
X123660483Y-57511665D01*
X123481332Y-57547300D01*
X123298668Y-57547300D01*
X123119517Y-57511665D01*
X122950760Y-57441764D01*
X122798882Y-57340282D01*
X122669718Y-57211118D01*
X122568236Y-57059240D01*
X122498335Y-56890483D01*
X122462700Y-56711332D01*
X122462700Y-56528668D01*
X122498335Y-56349517D01*
X122568236Y-56180760D01*
X122669718Y-56028882D01*
X122798882Y-55899718D01*
X122950760Y-55798236D01*
X123119517Y-55728335D01*
X123298668Y-55692700D01*
X123481332Y-55692700D01*
X123660483Y-55728335D01*
G37*
G36*
X128740483Y-55728335D02*
G01*
X128909240Y-55798236D01*
X129061118Y-55899718D01*
X129190282Y-56028882D01*
X129291764Y-56180760D01*
X129361665Y-56349517D01*
X129397300Y-56528668D01*
X129397300Y-56711332D01*
X129361665Y-56890483D01*
X129291764Y-57059240D01*
X129190282Y-57211118D01*
X129061118Y-57340282D01*
X128909240Y-57441764D01*
X128740483Y-57511665D01*
X128561332Y-57547300D01*
X128378668Y-57547300D01*
X128199517Y-57511665D01*
X128030760Y-57441764D01*
X127878882Y-57340282D01*
X127749718Y-57211118D01*
X127648236Y-57059240D01*
X127578335Y-56890483D01*
X127542700Y-56711332D01*
X127542700Y-56528668D01*
X127578335Y-56349517D01*
X127648236Y-56180760D01*
X127749718Y-56028882D01*
X127878882Y-55899718D01*
X128030760Y-55798236D01*
X128199517Y-55728335D01*
X128378668Y-55692700D01*
X128561332Y-55692700D01*
X128740483Y-55728335D01*
G37*
G36*
X116040483Y-55728335D02*
G01*
X116209240Y-55798236D01*
X116361118Y-55899718D01*
X116490282Y-56028882D01*
X116591764Y-56180760D01*
X116661665Y-56349517D01*
X116697300Y-56528668D01*
X116697300Y-56711332D01*
X116661665Y-56890483D01*
X116591764Y-57059240D01*
X116490282Y-57211118D01*
X116361118Y-57340282D01*
X116209240Y-57441764D01*
X116040483Y-57511665D01*
X115861332Y-57547300D01*
X115678668Y-57547300D01*
X115499517Y-57511665D01*
X115330760Y-57441764D01*
X115178882Y-57340282D01*
X115049718Y-57211118D01*
X114948236Y-57059240D01*
X114878335Y-56890483D01*
X114842700Y-56711332D01*
X114842700Y-56528668D01*
X114878335Y-56349517D01*
X114948236Y-56180760D01*
X115049718Y-56028882D01*
X115178882Y-55899718D01*
X115330760Y-55798236D01*
X115499517Y-55728335D01*
X115678668Y-55692700D01*
X115861332Y-55692700D01*
X116040483Y-55728335D01*
G37*
G36*
X101457300Y-57547300D02*
G01*
X99602700Y-57547300D01*
X99602700Y-55692700D01*
X101457300Y-55692700D01*
X101457300Y-57547300D01*
G37*
G36*
X113748228Y-53301703D02*
G01*
X113903100Y-53365853D01*
X114042481Y-53458985D01*
X114161015Y-53577519D01*
X114254147Y-53716900D01*
X114318297Y-53871772D01*
X114351000Y-54036184D01*
X114351000Y-54203816D01*
X114318297Y-54368228D01*
X114254147Y-54523100D01*
X114161015Y-54662481D01*
X114042481Y-54781015D01*
X113903100Y-54874147D01*
X113748228Y-54938297D01*
X113583816Y-54971000D01*
X113416184Y-54971000D01*
X113251772Y-54938297D01*
X113096900Y-54874147D01*
X112957519Y-54781015D01*
X112838985Y-54662481D01*
X112745853Y-54523100D01*
X112681703Y-54368228D01*
X112649000Y-54203816D01*
X112649000Y-54036184D01*
X112681703Y-53871772D01*
X112745853Y-53716900D01*
X112838985Y-53577519D01*
X112957519Y-53458985D01*
X113096900Y-53365853D01*
X113251772Y-53301703D01*
X113416184Y-53269000D01*
X113583816Y-53269000D01*
X113748228Y-53301703D01*
G37*
G36*
X110748228Y-53301703D02*
G01*
X110903100Y-53365853D01*
X111042481Y-53458985D01*
X111161015Y-53577519D01*
X111254147Y-53716900D01*
X111318297Y-53871772D01*
X111351000Y-54036184D01*
X111351000Y-54203816D01*
X111318297Y-54368228D01*
X111254147Y-54523100D01*
X111161015Y-54662481D01*
X111042481Y-54781015D01*
X110903100Y-54874147D01*
X110748228Y-54938297D01*
X110583816Y-54971000D01*
X110416184Y-54971000D01*
X110251772Y-54938297D01*
X110096900Y-54874147D01*
X109957519Y-54781015D01*
X109838985Y-54662481D01*
X109745853Y-54523100D01*
X109681703Y-54368228D01*
X109649000Y-54203816D01*
X109649000Y-54036184D01*
X109681703Y-53871772D01*
X109745853Y-53716900D01*
X109838985Y-53577519D01*
X109957519Y-53458985D01*
X110096900Y-53365853D01*
X110251772Y-53301703D01*
X110416184Y-53269000D01*
X110583816Y-53269000D01*
X110748228Y-53301703D01*
G37*
G36*
X131306564Y-50989389D02*
G01*
X131497833Y-51068615D01*
X131497835Y-51068616D01*
X131669973Y-51183635D01*
X131816365Y-51330027D01*
X131931385Y-51502167D01*
X132010611Y-51693436D01*
X132051000Y-51896484D01*
X132051000Y-52103516D01*
X132010611Y-52306564D01*
X131931385Y-52497833D01*
X131931384Y-52497835D01*
X131816365Y-52669973D01*
X131669973Y-52816365D01*
X131497835Y-52931384D01*
X131497834Y-52931385D01*
X131497833Y-52931385D01*
X131306564Y-53010611D01*
X131103516Y-53051000D01*
X130896484Y-53051000D01*
X130693436Y-53010611D01*
X130502167Y-52931385D01*
X130502166Y-52931385D01*
X130502165Y-52931384D01*
X130330027Y-52816365D01*
X130183635Y-52669973D01*
X130068616Y-52497835D01*
X130068615Y-52497833D01*
X129989389Y-52306564D01*
X129949000Y-52103516D01*
X129949000Y-51896484D01*
X129989389Y-51693436D01*
X130068615Y-51502167D01*
X130183635Y-51330027D01*
X130330027Y-51183635D01*
X130502165Y-51068616D01*
X130502167Y-51068615D01*
X130693436Y-50989389D01*
X130896484Y-50949000D01*
X131103516Y-50949000D01*
X131306564Y-50989389D01*
G37*
G36*
X137806564Y-50989389D02*
G01*
X137997833Y-51068615D01*
X137997835Y-51068616D01*
X138169973Y-51183635D01*
X138316365Y-51330027D01*
X138431385Y-51502167D01*
X138510611Y-51693436D01*
X138551000Y-51896484D01*
X138551000Y-52103516D01*
X138510611Y-52306564D01*
X138431385Y-52497833D01*
X138431384Y-52497835D01*
X138316365Y-52669973D01*
X138169973Y-52816365D01*
X137997835Y-52931384D01*
X137997834Y-52931385D01*
X137997833Y-52931385D01*
X137806564Y-53010611D01*
X137603516Y-53051000D01*
X137396484Y-53051000D01*
X137193436Y-53010611D01*
X137002167Y-52931385D01*
X137002166Y-52931385D01*
X137002165Y-52931384D01*
X136830027Y-52816365D01*
X136683635Y-52669973D01*
X136568616Y-52497835D01*
X136568615Y-52497833D01*
X136489389Y-52306564D01*
X136449000Y-52103516D01*
X136449000Y-51896484D01*
X136489389Y-51693436D01*
X136568615Y-51502167D01*
X136683635Y-51330027D01*
X136830027Y-51183635D01*
X137002165Y-51068616D01*
X137002167Y-51068615D01*
X137193436Y-50989389D01*
X137396484Y-50949000D01*
X137603516Y-50949000D01*
X137806564Y-50989389D01*
G37*
G36*
X137806564Y-46489389D02*
G01*
X137997833Y-46568615D01*
X137997835Y-46568616D01*
X138020583Y-46583816D01*
X138169973Y-46683635D01*
X138316365Y-46830027D01*
X138431385Y-47002167D01*
X138510611Y-47193436D01*
X138551000Y-47396484D01*
X138551000Y-47603516D01*
X138510611Y-47806564D01*
X138431385Y-47997833D01*
X138431384Y-47997835D01*
X138316365Y-48169973D01*
X138169973Y-48316365D01*
X137997835Y-48431384D01*
X137997834Y-48431385D01*
X137997833Y-48431385D01*
X137806564Y-48510611D01*
X137603516Y-48551000D01*
X137396484Y-48551000D01*
X137193436Y-48510611D01*
X137002167Y-48431385D01*
X137002166Y-48431385D01*
X137002165Y-48431384D01*
X136830027Y-48316365D01*
X136683635Y-48169973D01*
X136568616Y-47997835D01*
X136568615Y-47997833D01*
X136489389Y-47806564D01*
X136449000Y-47603516D01*
X136449000Y-47396484D01*
X136489389Y-47193436D01*
X136568615Y-47002167D01*
X136683635Y-46830027D01*
X136830027Y-46683635D01*
X136979417Y-46583816D01*
X137002165Y-46568616D01*
X137002167Y-46568615D01*
X137193436Y-46489389D01*
X137396484Y-46449000D01*
X137603516Y-46449000D01*
X137806564Y-46489389D01*
G37*
G36*
X131306564Y-46489389D02*
G01*
X131497833Y-46568615D01*
X131497835Y-46568616D01*
X131520583Y-46583816D01*
X131669973Y-46683635D01*
X131816365Y-46830027D01*
X131931385Y-47002167D01*
X132010611Y-47193436D01*
X132051000Y-47396484D01*
X132051000Y-47603516D01*
X132010611Y-47806564D01*
X131931385Y-47997833D01*
X131931384Y-47997835D01*
X131816365Y-48169973D01*
X131669973Y-48316365D01*
X131497835Y-48431384D01*
X131497834Y-48431385D01*
X131497833Y-48431385D01*
X131306564Y-48510611D01*
X131103516Y-48551000D01*
X130896484Y-48551000D01*
X130693436Y-48510611D01*
X130502167Y-48431385D01*
X130502166Y-48431385D01*
X130502165Y-48431384D01*
X130330027Y-48316365D01*
X130183635Y-48169973D01*
X130068616Y-47997835D01*
X130068615Y-47997833D01*
X129989389Y-47806564D01*
X129949000Y-47603516D01*
X129949000Y-47396484D01*
X129989389Y-47193436D01*
X130068615Y-47002167D01*
X130183635Y-46830027D01*
X130330027Y-46683635D01*
X130479417Y-46583816D01*
X130502165Y-46568616D01*
X130502167Y-46568615D01*
X130693436Y-46489389D01*
X130896484Y-46449000D01*
X131103516Y-46449000D01*
X131306564Y-46489389D01*
G37*
G36*
X110748228Y-45681703D02*
G01*
X110903100Y-45745853D01*
X111042481Y-45838985D01*
X111161015Y-45957519D01*
X111254147Y-46096900D01*
X111318297Y-46251772D01*
X111351000Y-46416184D01*
X111351000Y-46583816D01*
X111318297Y-46748228D01*
X111254147Y-46903100D01*
X111161015Y-47042481D01*
X111042481Y-47161015D01*
X110903100Y-47254147D01*
X110748228Y-47318297D01*
X110583816Y-47351000D01*
X110416184Y-47351000D01*
X110251772Y-47318297D01*
X110096900Y-47254147D01*
X109957519Y-47161015D01*
X109838985Y-47042481D01*
X109745853Y-46903100D01*
X109681703Y-46748228D01*
X109649000Y-46583816D01*
X109649000Y-46416184D01*
X109681703Y-46251772D01*
X109745853Y-46096900D01*
X109838985Y-45957519D01*
X109957519Y-45838985D01*
X110096900Y-45745853D01*
X110251772Y-45681703D01*
X110416184Y-45649000D01*
X110583816Y-45649000D01*
X110748228Y-45681703D01*
G37*
G36*
X113748228Y-45681703D02*
G01*
X113903100Y-45745853D01*
X114042481Y-45838985D01*
X114161015Y-45957519D01*
X114254147Y-46096900D01*
X114318297Y-46251772D01*
X114351000Y-46416184D01*
X114351000Y-46583816D01*
X114318297Y-46748228D01*
X114254147Y-46903100D01*
X114161015Y-47042481D01*
X114042481Y-47161015D01*
X113903100Y-47254147D01*
X113748228Y-47318297D01*
X113583816Y-47351000D01*
X113416184Y-47351000D01*
X113251772Y-47318297D01*
X113096900Y-47254147D01*
X112957519Y-47161015D01*
X112838985Y-47042481D01*
X112745853Y-46903100D01*
X112681703Y-46748228D01*
X112649000Y-46583816D01*
X112649000Y-46416184D01*
X112681703Y-46251772D01*
X112745853Y-46096900D01*
X112838985Y-45957519D01*
X112957519Y-45838985D01*
X113096900Y-45745853D01*
X113251772Y-45681703D01*
X113416184Y-45649000D01*
X113583816Y-45649000D01*
X113748228Y-45681703D01*
G37*
G36*
X103340483Y-40488335D02*
G01*
X103509240Y-40558236D01*
X103661118Y-40659718D01*
X103790282Y-40788882D01*
X103891764Y-40940760D01*
X103961665Y-41109517D01*
X103997300Y-41288668D01*
X103997300Y-41471332D01*
X103961665Y-41650483D01*
X103891764Y-41819240D01*
X103790282Y-41971118D01*
X103661118Y-42100282D01*
X103509240Y-42201764D01*
X103340483Y-42271665D01*
X103161332Y-42307300D01*
X102978668Y-42307300D01*
X102799517Y-42271665D01*
X102630760Y-42201764D01*
X102478882Y-42100282D01*
X102349718Y-41971118D01*
X102248236Y-41819240D01*
X102178335Y-41650483D01*
X102142700Y-41471332D01*
X102142700Y-41288668D01*
X102178335Y-41109517D01*
X102248236Y-40940760D01*
X102349718Y-40788882D01*
X102478882Y-40659718D01*
X102630760Y-40558236D01*
X102799517Y-40488335D01*
X102978668Y-40452700D01*
X103161332Y-40452700D01*
X103340483Y-40488335D01*
G37*
G36*
X128740483Y-40488335D02*
G01*
X128909240Y-40558236D01*
X129061118Y-40659718D01*
X129190282Y-40788882D01*
X129291764Y-40940760D01*
X129361665Y-41109517D01*
X129397300Y-41288668D01*
X129397300Y-41471332D01*
X129361665Y-41650483D01*
X129291764Y-41819240D01*
X129190282Y-41971118D01*
X129061118Y-42100282D01*
X128909240Y-42201764D01*
X128740483Y-42271665D01*
X128561332Y-42307300D01*
X128378668Y-42307300D01*
X128199517Y-42271665D01*
X128030760Y-42201764D01*
X127878882Y-42100282D01*
X127749718Y-41971118D01*
X127648236Y-41819240D01*
X127578335Y-41650483D01*
X127542700Y-41471332D01*
X127542700Y-41288668D01*
X127578335Y-41109517D01*
X127648236Y-40940760D01*
X127749718Y-40788882D01*
X127878882Y-40659718D01*
X128030760Y-40558236D01*
X128199517Y-40488335D01*
X128378668Y-40452700D01*
X128561332Y-40452700D01*
X128740483Y-40488335D01*
G37*
G36*
X126200483Y-40488335D02*
G01*
X126369240Y-40558236D01*
X126521118Y-40659718D01*
X126650282Y-40788882D01*
X126751764Y-40940760D01*
X126821665Y-41109517D01*
X126857300Y-41288668D01*
X126857300Y-41471332D01*
X126821665Y-41650483D01*
X126751764Y-41819240D01*
X126650282Y-41971118D01*
X126521118Y-42100282D01*
X126369240Y-42201764D01*
X126200483Y-42271665D01*
X126021332Y-42307300D01*
X125838668Y-42307300D01*
X125659517Y-42271665D01*
X125490760Y-42201764D01*
X125338882Y-42100282D01*
X125209718Y-41971118D01*
X125108236Y-41819240D01*
X125038335Y-41650483D01*
X125002700Y-41471332D01*
X125002700Y-41288668D01*
X125038335Y-41109517D01*
X125108236Y-40940760D01*
X125209718Y-40788882D01*
X125338882Y-40659718D01*
X125490760Y-40558236D01*
X125659517Y-40488335D01*
X125838668Y-40452700D01*
X126021332Y-40452700D01*
X126200483Y-40488335D01*
G37*
G36*
X123660483Y-40488335D02*
G01*
X123829240Y-40558236D01*
X123981118Y-40659718D01*
X124110282Y-40788882D01*
X124211764Y-40940760D01*
X124281665Y-41109517D01*
X124317300Y-41288668D01*
X124317300Y-41471332D01*
X124281665Y-41650483D01*
X124211764Y-41819240D01*
X124110282Y-41971118D01*
X123981118Y-42100282D01*
X123829240Y-42201764D01*
X123660483Y-42271665D01*
X123481332Y-42307300D01*
X123298668Y-42307300D01*
X123119517Y-42271665D01*
X122950760Y-42201764D01*
X122798882Y-42100282D01*
X122669718Y-41971118D01*
X122568236Y-41819240D01*
X122498335Y-41650483D01*
X122462700Y-41471332D01*
X122462700Y-41288668D01*
X122498335Y-41109517D01*
X122568236Y-40940760D01*
X122669718Y-40788882D01*
X122798882Y-40659718D01*
X122950760Y-40558236D01*
X123119517Y-40488335D01*
X123298668Y-40452700D01*
X123481332Y-40452700D01*
X123660483Y-40488335D01*
G37*
G36*
X121120483Y-40488335D02*
G01*
X121289240Y-40558236D01*
X121441118Y-40659718D01*
X121570282Y-40788882D01*
X121671764Y-40940760D01*
X121741665Y-41109517D01*
X121777300Y-41288668D01*
X121777300Y-41471332D01*
X121741665Y-41650483D01*
X121671764Y-41819240D01*
X121570282Y-41971118D01*
X121441118Y-42100282D01*
X121289240Y-42201764D01*
X121120483Y-42271665D01*
X120941332Y-42307300D01*
X120758668Y-42307300D01*
X120579517Y-42271665D01*
X120410760Y-42201764D01*
X120258882Y-42100282D01*
X120129718Y-41971118D01*
X120028236Y-41819240D01*
X119958335Y-41650483D01*
X119922700Y-41471332D01*
X119922700Y-41288668D01*
X119958335Y-41109517D01*
X120028236Y-40940760D01*
X120129718Y-40788882D01*
X120258882Y-40659718D01*
X120410760Y-40558236D01*
X120579517Y-40488335D01*
X120758668Y-40452700D01*
X120941332Y-40452700D01*
X121120483Y-40488335D01*
G37*
G36*
X118580483Y-40488335D02*
G01*
X118749240Y-40558236D01*
X118901118Y-40659718D01*
X119030282Y-40788882D01*
X119131764Y-40940760D01*
X119201665Y-41109517D01*
X119237300Y-41288668D01*
X119237300Y-41471332D01*
X119201665Y-41650483D01*
X119131764Y-41819240D01*
X119030282Y-41971118D01*
X118901118Y-42100282D01*
X118749240Y-42201764D01*
X118580483Y-42271665D01*
X118401332Y-42307300D01*
X118218668Y-42307300D01*
X118039517Y-42271665D01*
X117870760Y-42201764D01*
X117718882Y-42100282D01*
X117589718Y-41971118D01*
X117488236Y-41819240D01*
X117418335Y-41650483D01*
X117382700Y-41471332D01*
X117382700Y-41288668D01*
X117418335Y-41109517D01*
X117488236Y-40940760D01*
X117589718Y-40788882D01*
X117718882Y-40659718D01*
X117870760Y-40558236D01*
X118039517Y-40488335D01*
X118218668Y-40452700D01*
X118401332Y-40452700D01*
X118580483Y-40488335D01*
G37*
G36*
X116040483Y-40488335D02*
G01*
X116209240Y-40558236D01*
X116361118Y-40659718D01*
X116490282Y-40788882D01*
X116591764Y-40940760D01*
X116661665Y-41109517D01*
X116697300Y-41288668D01*
X116697300Y-41471332D01*
X116661665Y-41650483D01*
X116591764Y-41819240D01*
X116490282Y-41971118D01*
X116361118Y-42100282D01*
X116209240Y-42201764D01*
X116040483Y-42271665D01*
X115861332Y-42307300D01*
X115678668Y-42307300D01*
X115499517Y-42271665D01*
X115330760Y-42201764D01*
X115178882Y-42100282D01*
X115049718Y-41971118D01*
X114948236Y-41819240D01*
X114878335Y-41650483D01*
X114842700Y-41471332D01*
X114842700Y-41288668D01*
X114878335Y-41109517D01*
X114948236Y-40940760D01*
X115049718Y-40788882D01*
X115178882Y-40659718D01*
X115330760Y-40558236D01*
X115499517Y-40488335D01*
X115678668Y-40452700D01*
X115861332Y-40452700D01*
X116040483Y-40488335D01*
G37*
G36*
X113500483Y-40488335D02*
G01*
X113669240Y-40558236D01*
X113821118Y-40659718D01*
X113950282Y-40788882D01*
X114051764Y-40940760D01*
X114121665Y-41109517D01*
X114157300Y-41288668D01*
X114157300Y-41471332D01*
X114121665Y-41650483D01*
X114051764Y-41819240D01*
X113950282Y-41971118D01*
X113821118Y-42100282D01*
X113669240Y-42201764D01*
X113500483Y-42271665D01*
X113321332Y-42307300D01*
X113138668Y-42307300D01*
X112959517Y-42271665D01*
X112790760Y-42201764D01*
X112638882Y-42100282D01*
X112509718Y-41971118D01*
X112408236Y-41819240D01*
X112338335Y-41650483D01*
X112302700Y-41471332D01*
X112302700Y-41288668D01*
X112338335Y-41109517D01*
X112408236Y-40940760D01*
X112509718Y-40788882D01*
X112638882Y-40659718D01*
X112790760Y-40558236D01*
X112959517Y-40488335D01*
X113138668Y-40452700D01*
X113321332Y-40452700D01*
X113500483Y-40488335D01*
G37*
G36*
X110960483Y-40488335D02*
G01*
X111129240Y-40558236D01*
X111281118Y-40659718D01*
X111410282Y-40788882D01*
X111511764Y-40940760D01*
X111581665Y-41109517D01*
X111617300Y-41288668D01*
X111617300Y-41471332D01*
X111581665Y-41650483D01*
X111511764Y-41819240D01*
X111410282Y-41971118D01*
X111281118Y-42100282D01*
X111129240Y-42201764D01*
X110960483Y-42271665D01*
X110781332Y-42307300D01*
X110598668Y-42307300D01*
X110419517Y-42271665D01*
X110250760Y-42201764D01*
X110098882Y-42100282D01*
X109969718Y-41971118D01*
X109868236Y-41819240D01*
X109798335Y-41650483D01*
X109762700Y-41471332D01*
X109762700Y-41288668D01*
X109798335Y-41109517D01*
X109868236Y-40940760D01*
X109969718Y-40788882D01*
X110098882Y-40659718D01*
X110250760Y-40558236D01*
X110419517Y-40488335D01*
X110598668Y-40452700D01*
X110781332Y-40452700D01*
X110960483Y-40488335D01*
G37*
G36*
X108420483Y-40488335D02*
G01*
X108589240Y-40558236D01*
X108741118Y-40659718D01*
X108870282Y-40788882D01*
X108971764Y-40940760D01*
X109041665Y-41109517D01*
X109077300Y-41288668D01*
X109077300Y-41471332D01*
X109041665Y-41650483D01*
X108971764Y-41819240D01*
X108870282Y-41971118D01*
X108741118Y-42100282D01*
X108589240Y-42201764D01*
X108420483Y-42271665D01*
X108241332Y-42307300D01*
X108058668Y-42307300D01*
X107879517Y-42271665D01*
X107710760Y-42201764D01*
X107558882Y-42100282D01*
X107429718Y-41971118D01*
X107328236Y-41819240D01*
X107258335Y-41650483D01*
X107222700Y-41471332D01*
X107222700Y-41288668D01*
X107258335Y-41109517D01*
X107328236Y-40940760D01*
X107429718Y-40788882D01*
X107558882Y-40659718D01*
X107710760Y-40558236D01*
X107879517Y-40488335D01*
X108058668Y-40452700D01*
X108241332Y-40452700D01*
X108420483Y-40488335D01*
G37*
G36*
X105880483Y-40488335D02*
G01*
X106049240Y-40558236D01*
X106201118Y-40659718D01*
X106330282Y-40788882D01*
X106431764Y-40940760D01*
X106501665Y-41109517D01*
X106537300Y-41288668D01*
X106537300Y-41471332D01*
X106501665Y-41650483D01*
X106431764Y-41819240D01*
X106330282Y-41971118D01*
X106201118Y-42100282D01*
X106049240Y-42201764D01*
X105880483Y-42271665D01*
X105701332Y-42307300D01*
X105518668Y-42307300D01*
X105339517Y-42271665D01*
X105170760Y-42201764D01*
X105018882Y-42100282D01*
X104889718Y-41971118D01*
X104788236Y-41819240D01*
X104718335Y-41650483D01*
X104682700Y-41471332D01*
X104682700Y-41288668D01*
X104718335Y-41109517D01*
X104788236Y-40940760D01*
X104889718Y-40788882D01*
X105018882Y-40659718D01*
X105170760Y-40558236D01*
X105339517Y-40488335D01*
X105518668Y-40452700D01*
X105701332Y-40452700D01*
X105880483Y-40488335D01*
G37*
G36*
X100800483Y-40488335D02*
G01*
X100969240Y-40558236D01*
X101121118Y-40659718D01*
X101250282Y-40788882D01*
X101351764Y-40940760D01*
X101421665Y-41109517D01*
X101457300Y-41288668D01*
X101457300Y-41471332D01*
X101421665Y-41650483D01*
X101351764Y-41819240D01*
X101250282Y-41971118D01*
X101121118Y-42100282D01*
X100969240Y-42201764D01*
X100800483Y-42271665D01*
X100621332Y-42307300D01*
X100438668Y-42307300D01*
X100259517Y-42271665D01*
X100090760Y-42201764D01*
X99938882Y-42100282D01*
X99809718Y-41971118D01*
X99708236Y-41819240D01*
X99638335Y-41650483D01*
X99602700Y-41471332D01*
X99602700Y-41288668D01*
X99638335Y-41109517D01*
X99708236Y-40940760D01*
X99809718Y-40788882D01*
X99938882Y-40659718D01*
X100090760Y-40558236D01*
X100259517Y-40488335D01*
X100438668Y-40452700D01*
X100621332Y-40452700D01*
X100800483Y-40488335D01*
G37*
M02*
