M48
; DRILL file {KiCad 5.1.6} date Mon Aug 24 19:04:18 2020
; FORMAT={-:-/ absolute / inch / decimal}
; #@! TF.CreationDate,2020-08-24T19:04:18-05:00
; #@! TF.GenerationSoftware,Kicad,Pcbnew,5.1.6
; #@! TF.FileFunction,Plated,1,2,PTH
FMAT,2
INCH
T1C0.0157
T2C0.0300
T3C0.0315
T4C0.0394
T5C0.0430
T6C0.0433
T7C0.0472
T8C0.0630
%
G90
G05
T1
X1.2539Y-3.622
X1.2539Y-4.2913
X1.3839Y-3.622
X1.3839Y-4.2913
X1.7913Y-3.0315
X1.9291Y-2.9921
X1.9329Y-2.8778
X1.9488Y-2.9564
X1.9626Y-3.622
X1.9626Y-4.2913
X2.0079Y-2.9528
X2.0123Y-2.8469
X2.0276Y-3.1013
X2.0632Y-3.0278
X2.0807Y-4.9606
X2.0866Y-4.0354
X2.0925Y-3.622
X2.0925Y-4.2913
X2.1496Y-2.8031
X2.2106Y-4.9606
X2.2278Y-2.9838
X2.6713Y-2.8346
X2.6713Y-3.5039
X2.6713Y-4.1732
X2.7362Y-3.4252
X2.8012Y-2.8346
X2.8012Y-3.5039
X2.8012Y-4.1732
X3.3799Y-2.6378
X3.3799Y-3.3071
X3.3799Y-3.9764
X3.4843Y-2.7756
X3.5098Y-2.6378
X3.5098Y-3.3071
X3.5098Y-3.9764
X4.0886Y-2.8346
X4.0886Y-3.5039
X4.0886Y-4.1732
X4.2126Y-4.8366
X4.2126Y-4.9665
X4.2185Y-2.8346
X4.2185Y-3.5039
X4.2185Y-4.1732
X4.7441Y-2.0866
X4.7972Y-2.9724
X4.7972Y-3.6417
X4.7972Y-4.311
X4.8425Y-2.0866
X4.8819Y-4.9154
X4.8819Y-5.0453
X4.9272Y-2.9724
X4.9272Y-3.6417
X4.9272Y-4.311
X4.9803Y-2.0866
X5.1181Y-2.0866
X5.1378Y-2.8396
X5.2018Y-2.6772
X5.2362Y-2.8346
X5.5512Y-5.1122
X5.5512Y-5.2421
T2
X5.4724Y-2.7362
X5.4724Y-2.9528
X5.4724Y-3.1693
X5.4724Y-3.4055
X5.9055Y-3.7205
X5.9055Y-3.937
X5.9055Y-4.1535
X5.8368Y-2.7404
X5.8711Y-2.9542
X5.9053Y-3.1681
X5.9427Y-3.4013
T3
X3.3661Y-1.826
X3.3661Y-2.126
X3.248Y-1.826
X3.248Y-2.126
T4
X3.874Y-1.9173
X3.874Y-2.0173
X3.874Y-2.1173
X3.874Y-2.2173
T5
X1.7079Y-1.9303
X1.7079Y-2.0303
X1.7079Y-2.1303
X1.7079Y-2.2303
X1.7079Y-2.3303
X1.7079Y-2.4303
X1.7079Y-2.5303
X1.7079Y-2.6303
X1.7079Y-2.7303
X1.7079Y-2.8303
X1.7079Y-2.9303
X1.7079Y-3.0303
X2.3079Y-1.9303
X2.3079Y-2.0303
X2.3079Y-2.1303
X2.3079Y-2.2303
X2.3079Y-2.3303
X2.3079Y-2.4303
X2.3079Y-2.5303
X2.3079Y-2.6303
X2.3079Y-2.7303
X2.3079Y-2.8303
X2.3079Y-2.9303
X2.3079Y-3.0303
T6
X2.4803Y-1.9291
X2.4803Y-2.1063
X2.7362Y-1.9291
X2.7362Y-2.1063
T7
X4.4724Y-4.9803
X4.5551Y-4.7835
X4.5551Y-5.1772
X2.5394Y-3.8465
X2.7362Y-3.7638
X2.9331Y-3.8465
X3.248Y-2.311
X3.4449Y-2.2283
X3.6417Y-2.311
X3.9567Y-3.1772
X4.1535Y-3.0945
X4.3504Y-3.1772
X3.9567Y-3.8465
X4.1535Y-3.7638
X4.3504Y-3.8465
X1.122Y-3.2953
X1.3189Y-3.2126
X1.5157Y-3.2953
X1.8307Y-3.2953
X2.0276Y-3.2126
X2.2244Y-3.2953
X2.5394Y-2.5079
X2.7362Y-2.4252
X2.9331Y-2.5079
X3.248Y-3.6496
X3.4449Y-3.5669
X3.6417Y-3.6496
X1.8307Y-3.9646
X2.0276Y-3.8819
X2.2244Y-3.9646
X1.9488Y-4.6339
X2.1457Y-4.5512
X2.3425Y-4.6339
X2.5394Y-3.1772
X2.7362Y-3.0945
X2.9331Y-3.1772
X4.6654Y-3.9843
X4.8622Y-3.9016
X5.0591Y-3.9843
X3.8031Y-4.9016
X3.8858Y-4.7047
X3.8858Y-5.0984
X1.122Y-3.9646
X1.3189Y-3.8819
X1.5157Y-3.9646
X3.248Y-2.9803
X3.4449Y-2.8976
X3.6417Y-2.9803
X3.9567Y-2.5079
X4.1535Y-2.4252
X4.3504Y-2.5079
X4.6654Y-2.6457
X4.8622Y-2.563
X5.0591Y-2.6457
X5.1417Y-5.1772
X5.2244Y-4.9803
X5.2244Y-5.374
X4.6654Y-3.315
X4.8622Y-3.2323
X5.0591Y-3.315
T8
G00X5.2559Y-1.9823
M15
G01X5.2559Y-1.9154
M16
G05
G00X5.2559Y-2.1988
M15
G01X5.2559Y-2.1319
M16
G05
G00X5.2559Y-2.4154
M15
G01X5.2559Y-2.3484
M16
G05
G00X4.435Y-4.4291
M15
G01X4.502Y-4.4291
M16
G05
G00X4.6516Y-4.4291
M15
G01X4.7185Y-4.4291
M16
G05
G00X4.8681Y-4.4291
M15
G01X4.935Y-4.4291
M16
G05
G00X5.1043Y-4.4291
M15
G01X5.1713Y-4.4291
M16
G05
G00X4.435Y-4.5866
M15
G01X4.502Y-4.5866
M16
G05
G00X4.6516Y-4.5866
M15
G01X4.7185Y-4.5866
M16
G05
G00X4.8681Y-4.5866
M15
G01X4.935Y-4.5866
M16
G05
G00X5.1043Y-4.5866
M15
G01X5.1713Y-4.5866
M16
G05
T0
M30
