G04 #@! TF.GenerationSoftware,KiCad,Pcbnew,5.1.6*
G04 #@! TF.CreationDate,2020-07-01T23:17:58-05:00*
G04 #@! TF.ProjectId,fissure,66697373-7572-4652-9e6b-696361645f70,rev?*
G04 #@! TF.SameCoordinates,Original*
G04 #@! TF.FileFunction,Soldermask,Top*
G04 #@! TF.FilePolarity,Negative*
%FSLAX46Y46*%
G04 Gerber Fmt 4.6, Leading zero omitted, Abs format (unit mm)*
G04 Created by KiCad (PCBNEW 5.1.6) date 2020-07-01 23:17:58*
%MOMM*%
%LPD*%
G01*
G04 APERTURE LIST*
%ADD10C,0.100000*%
G04 APERTURE END LIST*
D10*
G36*
X136610512Y-131852927D02*
G01*
X136759812Y-131882624D01*
X136923784Y-131950544D01*
X137071354Y-132049147D01*
X137196853Y-132174646D01*
X137295456Y-132322216D01*
X137363376Y-132486188D01*
X137398000Y-132660259D01*
X137398000Y-132837741D01*
X137363376Y-133011812D01*
X137295456Y-133175784D01*
X137196853Y-133323354D01*
X137071354Y-133448853D01*
X136923784Y-133547456D01*
X136759812Y-133615376D01*
X136610512Y-133645073D01*
X136585742Y-133650000D01*
X136408258Y-133650000D01*
X136383488Y-133645073D01*
X136234188Y-133615376D01*
X136070216Y-133547456D01*
X135922646Y-133448853D01*
X135797147Y-133323354D01*
X135698544Y-133175784D01*
X135630624Y-133011812D01*
X135596000Y-132837741D01*
X135596000Y-132660259D01*
X135630624Y-132486188D01*
X135698544Y-132322216D01*
X135797147Y-132174646D01*
X135922646Y-132049147D01*
X136070216Y-131950544D01*
X136234188Y-131882624D01*
X136383488Y-131852927D01*
X136408258Y-131848000D01*
X136585742Y-131848000D01*
X136610512Y-131852927D01*
G37*
G36*
X133003564Y-131238389D02*
G01*
X133194833Y-131317615D01*
X133194835Y-131317616D01*
X133366973Y-131432635D01*
X133513365Y-131579027D01*
X133628385Y-131751167D01*
X133707611Y-131942436D01*
X133748000Y-132145484D01*
X133748000Y-132352516D01*
X133707611Y-132555564D01*
X133664245Y-132660258D01*
X133628384Y-132746835D01*
X133513365Y-132918973D01*
X133366973Y-133065365D01*
X133194835Y-133180384D01*
X133194834Y-133180385D01*
X133194833Y-133180385D01*
X133003564Y-133259611D01*
X132800516Y-133300000D01*
X132593484Y-133300000D01*
X132390436Y-133259611D01*
X132199167Y-133180385D01*
X132199166Y-133180385D01*
X132199165Y-133180384D01*
X132027027Y-133065365D01*
X131880635Y-132918973D01*
X131765616Y-132746835D01*
X131729755Y-132660258D01*
X131686389Y-132555564D01*
X131646000Y-132352516D01*
X131646000Y-132145484D01*
X131686389Y-131942436D01*
X131765615Y-131751167D01*
X131880635Y-131579027D01*
X132027027Y-131432635D01*
X132199165Y-131317616D01*
X132199167Y-131317615D01*
X132390436Y-131238389D01*
X132593484Y-131198000D01*
X132800516Y-131198000D01*
X133003564Y-131238389D01*
G37*
G36*
X136822938Y-125528529D02*
G01*
X137007748Y-125565290D01*
X137133791Y-125617499D01*
X137326408Y-125697283D01*
X137613196Y-125888909D01*
X137857091Y-126132804D01*
X138048717Y-126419592D01*
X138076283Y-126486143D01*
X138180710Y-126738252D01*
X138183279Y-126751167D01*
X138248000Y-127076540D01*
X138248000Y-127421460D01*
X138203140Y-127646985D01*
X138183279Y-127746835D01*
X138180710Y-127759747D01*
X138048717Y-128078408D01*
X137857091Y-128365196D01*
X137613196Y-128609091D01*
X137326408Y-128800717D01*
X137139741Y-128878037D01*
X137007748Y-128932710D01*
X136894985Y-128955140D01*
X136669460Y-129000000D01*
X136324540Y-129000000D01*
X136099015Y-128955140D01*
X135986252Y-128932710D01*
X135854259Y-128878037D01*
X135667592Y-128800717D01*
X135380804Y-128609091D01*
X135136909Y-128365196D01*
X134945283Y-128078408D01*
X134813290Y-127759747D01*
X134810722Y-127746835D01*
X134790860Y-127646985D01*
X134746000Y-127421460D01*
X134746000Y-127076540D01*
X134810721Y-126751167D01*
X134813290Y-126738252D01*
X134917717Y-126486143D01*
X134945283Y-126419592D01*
X135136909Y-126132804D01*
X135380804Y-125888909D01*
X135667592Y-125697283D01*
X135860209Y-125617499D01*
X135986252Y-125565290D01*
X136171062Y-125528529D01*
X136324540Y-125498000D01*
X136669460Y-125498000D01*
X136822938Y-125528529D01*
G37*
G36*
X119610512Y-126852927D02*
G01*
X119759812Y-126882624D01*
X119923784Y-126950544D01*
X120071354Y-127049147D01*
X120196853Y-127174646D01*
X120295456Y-127322216D01*
X120363376Y-127486188D01*
X120398000Y-127660259D01*
X120398000Y-127837741D01*
X120363376Y-128011812D01*
X120295456Y-128175784D01*
X120196853Y-128323354D01*
X120071354Y-128448853D01*
X119923784Y-128547456D01*
X119759812Y-128615376D01*
X119610512Y-128645073D01*
X119585742Y-128650000D01*
X119408258Y-128650000D01*
X119383488Y-128645073D01*
X119234188Y-128615376D01*
X119070216Y-128547456D01*
X118922646Y-128448853D01*
X118797147Y-128323354D01*
X118698544Y-128175784D01*
X118630624Y-128011812D01*
X118596000Y-127837741D01*
X118596000Y-127660259D01*
X118630624Y-127486188D01*
X118698544Y-127322216D01*
X118797147Y-127174646D01*
X118922646Y-127049147D01*
X119070216Y-126950544D01*
X119234188Y-126882624D01*
X119383488Y-126852927D01*
X119408258Y-126848000D01*
X119585742Y-126848000D01*
X119610512Y-126852927D01*
G37*
G36*
X130903564Y-126238389D02*
G01*
X131094833Y-126317615D01*
X131094835Y-126317616D01*
X131266973Y-126432635D01*
X131413365Y-126579027D01*
X131519756Y-126738252D01*
X131528385Y-126751167D01*
X131607611Y-126942436D01*
X131648000Y-127145484D01*
X131648000Y-127352516D01*
X131607611Y-127555564D01*
X131564245Y-127660258D01*
X131528384Y-127746835D01*
X131413365Y-127918973D01*
X131266973Y-128065365D01*
X131094835Y-128180384D01*
X131094834Y-128180385D01*
X131094833Y-128180385D01*
X130903564Y-128259611D01*
X130700516Y-128300000D01*
X130493484Y-128300000D01*
X130290436Y-128259611D01*
X130099167Y-128180385D01*
X130099166Y-128180385D01*
X130099165Y-128180384D01*
X129927027Y-128065365D01*
X129780635Y-127918973D01*
X129665616Y-127746835D01*
X129629755Y-127660258D01*
X129586389Y-127555564D01*
X129546000Y-127352516D01*
X129546000Y-127145484D01*
X129586389Y-126942436D01*
X129665615Y-126751167D01*
X129674245Y-126738252D01*
X129780635Y-126579027D01*
X129927027Y-126432635D01*
X130099165Y-126317616D01*
X130099167Y-126317615D01*
X130290436Y-126238389D01*
X130493484Y-126198000D01*
X130700516Y-126198000D01*
X130903564Y-126238389D01*
G37*
G36*
X116003564Y-126238389D02*
G01*
X116194833Y-126317615D01*
X116194835Y-126317616D01*
X116366973Y-126432635D01*
X116513365Y-126579027D01*
X116619756Y-126738252D01*
X116628385Y-126751167D01*
X116707611Y-126942436D01*
X116748000Y-127145484D01*
X116748000Y-127352516D01*
X116707611Y-127555564D01*
X116664245Y-127660258D01*
X116628384Y-127746835D01*
X116513365Y-127918973D01*
X116366973Y-128065365D01*
X116194835Y-128180384D01*
X116194834Y-128180385D01*
X116194833Y-128180385D01*
X116003564Y-128259611D01*
X115800516Y-128300000D01*
X115593484Y-128300000D01*
X115390436Y-128259611D01*
X115199167Y-128180385D01*
X115199166Y-128180385D01*
X115199165Y-128180384D01*
X115027027Y-128065365D01*
X114880635Y-127918973D01*
X114765616Y-127746835D01*
X114729755Y-127660258D01*
X114686389Y-127555564D01*
X114646000Y-127352516D01*
X114646000Y-127145484D01*
X114686389Y-126942436D01*
X114765615Y-126751167D01*
X114774245Y-126738252D01*
X114880635Y-126579027D01*
X115027027Y-126432635D01*
X115199165Y-126317616D01*
X115199167Y-126317615D01*
X115390436Y-126238389D01*
X115593484Y-126198000D01*
X115800516Y-126198000D01*
X116003564Y-126238389D01*
G37*
G36*
X96734142Y-125467242D02*
G01*
X96882101Y-125528529D01*
X97015255Y-125617499D01*
X97128501Y-125730745D01*
X97217471Y-125863899D01*
X97278758Y-126011858D01*
X97310000Y-126168925D01*
X97310000Y-126329075D01*
X97278758Y-126486142D01*
X97217471Y-126634101D01*
X97128501Y-126767255D01*
X97015255Y-126880501D01*
X96882101Y-126969471D01*
X96734142Y-127030758D01*
X96577075Y-127062000D01*
X96416925Y-127062000D01*
X96259858Y-127030758D01*
X96111899Y-126969471D01*
X95978745Y-126880501D01*
X95865499Y-126767255D01*
X95776529Y-126634101D01*
X95715242Y-126486142D01*
X95684000Y-126329075D01*
X95684000Y-126168925D01*
X95715242Y-126011858D01*
X95776529Y-125863899D01*
X95865499Y-125730745D01*
X95978745Y-125617499D01*
X96111899Y-125528529D01*
X96259858Y-125467242D01*
X96416925Y-125436000D01*
X96577075Y-125436000D01*
X96734142Y-125467242D01*
G37*
G36*
X102610512Y-124852927D02*
G01*
X102759812Y-124882624D01*
X102923784Y-124950544D01*
X103071354Y-125049147D01*
X103196853Y-125174646D01*
X103295456Y-125322216D01*
X103363376Y-125486188D01*
X103398000Y-125660259D01*
X103398000Y-125837741D01*
X103363376Y-126011812D01*
X103295456Y-126175784D01*
X103196853Y-126323354D01*
X103071354Y-126448853D01*
X102923784Y-126547456D01*
X102759812Y-126615376D01*
X102610512Y-126645073D01*
X102585742Y-126650000D01*
X102408258Y-126650000D01*
X102383488Y-126645073D01*
X102234188Y-126615376D01*
X102070216Y-126547456D01*
X101922646Y-126448853D01*
X101797147Y-126323354D01*
X101698544Y-126175784D01*
X101630624Y-126011812D01*
X101596000Y-125837741D01*
X101596000Y-125660259D01*
X101630624Y-125486188D01*
X101698544Y-125322216D01*
X101797147Y-125174646D01*
X101922646Y-125049147D01*
X102070216Y-124950544D01*
X102234188Y-124882624D01*
X102383488Y-124852927D01*
X102408258Y-124848000D01*
X102585742Y-124848000D01*
X102610512Y-124852927D01*
G37*
G36*
X99003564Y-124238389D02*
G01*
X99194833Y-124317615D01*
X99194835Y-124317616D01*
X99366973Y-124432635D01*
X99513365Y-124579027D01*
X99628385Y-124751167D01*
X99707611Y-124942436D01*
X99748000Y-125145484D01*
X99748000Y-125352516D01*
X99707611Y-125555564D01*
X99635049Y-125730745D01*
X99628384Y-125746835D01*
X99513365Y-125918973D01*
X99366973Y-126065365D01*
X99194835Y-126180384D01*
X99194834Y-126180385D01*
X99194833Y-126180385D01*
X99003564Y-126259611D01*
X98800516Y-126300000D01*
X98593484Y-126300000D01*
X98390436Y-126259611D01*
X98199167Y-126180385D01*
X98199166Y-126180385D01*
X98199165Y-126180384D01*
X98027027Y-126065365D01*
X97880635Y-125918973D01*
X97765616Y-125746835D01*
X97758951Y-125730745D01*
X97686389Y-125555564D01*
X97646000Y-125352516D01*
X97646000Y-125145484D01*
X97686389Y-124942436D01*
X97765615Y-124751167D01*
X97880635Y-124579027D01*
X98027027Y-124432635D01*
X98199165Y-124317616D01*
X98199167Y-124317615D01*
X98390436Y-124238389D01*
X98593484Y-124198000D01*
X98800516Y-124198000D01*
X99003564Y-124238389D01*
G37*
G36*
X119894985Y-120542860D02*
G01*
X120007748Y-120565290D01*
X120139741Y-120619963D01*
X120326408Y-120697283D01*
X120613196Y-120888909D01*
X120857091Y-121132804D01*
X121048717Y-121419592D01*
X121093840Y-121528529D01*
X121180710Y-121738252D01*
X121184986Y-121759748D01*
X121248000Y-122076540D01*
X121248000Y-122421460D01*
X121210678Y-122609090D01*
X121180710Y-122759748D01*
X121163740Y-122800716D01*
X121048717Y-123078408D01*
X120857091Y-123365196D01*
X120613196Y-123609091D01*
X120326408Y-123800717D01*
X120139741Y-123878037D01*
X120007748Y-123932710D01*
X119894985Y-123955140D01*
X119669460Y-124000000D01*
X119324540Y-124000000D01*
X119099015Y-123955140D01*
X118986252Y-123932710D01*
X118854259Y-123878037D01*
X118667592Y-123800717D01*
X118380804Y-123609091D01*
X118136909Y-123365196D01*
X117945283Y-123078408D01*
X117830260Y-122800716D01*
X117813290Y-122759748D01*
X117783322Y-122609090D01*
X117746000Y-122421460D01*
X117746000Y-122076540D01*
X117809014Y-121759748D01*
X117813290Y-121738252D01*
X117900160Y-121528529D01*
X117945283Y-121419592D01*
X118136909Y-121132804D01*
X118380804Y-120888909D01*
X118667592Y-120697283D01*
X118854259Y-120619963D01*
X118986252Y-120565290D01*
X119099015Y-120542860D01*
X119324540Y-120498000D01*
X119669460Y-120498000D01*
X119894985Y-120542860D01*
G37*
G36*
X113903564Y-121238389D02*
G01*
X114094833Y-121317615D01*
X114094835Y-121317616D01*
X114266973Y-121432635D01*
X114413365Y-121579027D01*
X114519756Y-121738252D01*
X114528385Y-121751167D01*
X114607611Y-121942436D01*
X114648000Y-122145484D01*
X114648000Y-122352516D01*
X114607611Y-122555564D01*
X114582836Y-122615376D01*
X114528384Y-122746835D01*
X114413365Y-122918973D01*
X114266973Y-123065365D01*
X114094835Y-123180384D01*
X114094834Y-123180385D01*
X114094833Y-123180385D01*
X113903564Y-123259611D01*
X113700516Y-123300000D01*
X113493484Y-123300000D01*
X113290436Y-123259611D01*
X113099167Y-123180385D01*
X113099166Y-123180385D01*
X113099165Y-123180384D01*
X112927027Y-123065365D01*
X112780635Y-122918973D01*
X112665616Y-122746835D01*
X112611164Y-122615376D01*
X112586389Y-122555564D01*
X112546000Y-122352516D01*
X112546000Y-122145484D01*
X112586389Y-121942436D01*
X112665615Y-121751167D01*
X112674245Y-121738252D01*
X112780635Y-121579027D01*
X112927027Y-121432635D01*
X113099165Y-121317616D01*
X113099167Y-121317615D01*
X113290436Y-121238389D01*
X113493484Y-121198000D01*
X113700516Y-121198000D01*
X113903564Y-121238389D01*
G37*
G36*
X133003564Y-121238389D02*
G01*
X133194833Y-121317615D01*
X133194835Y-121317616D01*
X133366973Y-121432635D01*
X133513365Y-121579027D01*
X133619756Y-121738252D01*
X133628385Y-121751167D01*
X133707611Y-121942436D01*
X133748000Y-122145484D01*
X133748000Y-122352516D01*
X133707611Y-122555564D01*
X133682836Y-122615376D01*
X133628384Y-122746835D01*
X133513365Y-122918973D01*
X133366973Y-123065365D01*
X133194835Y-123180384D01*
X133194834Y-123180385D01*
X133194833Y-123180385D01*
X133003564Y-123259611D01*
X132800516Y-123300000D01*
X132593484Y-123300000D01*
X132390436Y-123259611D01*
X132199167Y-123180385D01*
X132199166Y-123180385D01*
X132199165Y-123180384D01*
X132027027Y-123065365D01*
X131880635Y-122918973D01*
X131765616Y-122746835D01*
X131711164Y-122615376D01*
X131686389Y-122555564D01*
X131646000Y-122352516D01*
X131646000Y-122145484D01*
X131686389Y-121942436D01*
X131765615Y-121751167D01*
X131774245Y-121738252D01*
X131880635Y-121579027D01*
X132027027Y-121432635D01*
X132199165Y-121317616D01*
X132199167Y-121317615D01*
X132390436Y-121238389D01*
X132593484Y-121198000D01*
X132800516Y-121198000D01*
X133003564Y-121238389D01*
G37*
G36*
X93734142Y-121467242D02*
G01*
X93882101Y-121528529D01*
X94015255Y-121617499D01*
X94128501Y-121730745D01*
X94217471Y-121863899D01*
X94278758Y-122011858D01*
X94310000Y-122168925D01*
X94310000Y-122329075D01*
X94278758Y-122486142D01*
X94217471Y-122634101D01*
X94128501Y-122767255D01*
X94015255Y-122880501D01*
X93882101Y-122969471D01*
X93734142Y-123030758D01*
X93577075Y-123062000D01*
X93416925Y-123062000D01*
X93259858Y-123030758D01*
X93111899Y-122969471D01*
X92978745Y-122880501D01*
X92865499Y-122767255D01*
X92776529Y-122634101D01*
X92715242Y-122486142D01*
X92684000Y-122329075D01*
X92684000Y-122168925D01*
X92715242Y-122011858D01*
X92776529Y-121863899D01*
X92865499Y-121730745D01*
X92978745Y-121617499D01*
X93111899Y-121528529D01*
X93259858Y-121467242D01*
X93416925Y-121436000D01*
X93577075Y-121436000D01*
X93734142Y-121467242D01*
G37*
G36*
X54822938Y-119528529D02*
G01*
X55007748Y-119565290D01*
X55133791Y-119617499D01*
X55326408Y-119697283D01*
X55613196Y-119888909D01*
X55857091Y-120132804D01*
X56048717Y-120419592D01*
X56109067Y-120565290D01*
X56180710Y-120738252D01*
X56184986Y-120759748D01*
X56248000Y-121076540D01*
X56248000Y-121421460D01*
X56226702Y-121528529D01*
X56184986Y-121738253D01*
X56180710Y-121759747D01*
X56048717Y-122078408D01*
X55857091Y-122365196D01*
X55613196Y-122609091D01*
X55326408Y-122800717D01*
X55139741Y-122878037D01*
X55007748Y-122932710D01*
X54894985Y-122955140D01*
X54669460Y-123000000D01*
X54324540Y-123000000D01*
X54099015Y-122955140D01*
X53986252Y-122932710D01*
X53854259Y-122878037D01*
X53667592Y-122800717D01*
X53380804Y-122609091D01*
X53136909Y-122365196D01*
X52945283Y-122078408D01*
X52813290Y-121759747D01*
X52809015Y-121738253D01*
X52767298Y-121528529D01*
X52746000Y-121421460D01*
X52746000Y-121076540D01*
X52809014Y-120759748D01*
X52813290Y-120738252D01*
X52884933Y-120565290D01*
X52945283Y-120419592D01*
X53136909Y-120132804D01*
X53380804Y-119888909D01*
X53667592Y-119697283D01*
X53860209Y-119617499D01*
X53986252Y-119565290D01*
X54171062Y-119528529D01*
X54324540Y-119498000D01*
X54669460Y-119498000D01*
X54822938Y-119528529D01*
G37*
G36*
X136610512Y-120852927D02*
G01*
X136759812Y-120882624D01*
X136923784Y-120950544D01*
X137071354Y-121049147D01*
X137196853Y-121174646D01*
X137295456Y-121322216D01*
X137363376Y-121486188D01*
X137398000Y-121660259D01*
X137398000Y-121837741D01*
X137363376Y-122011812D01*
X137295456Y-122175784D01*
X137196853Y-122323354D01*
X137071354Y-122448853D01*
X136923784Y-122547456D01*
X136759812Y-122615376D01*
X136610512Y-122645073D01*
X136585742Y-122650000D01*
X136408258Y-122650000D01*
X136383488Y-122645073D01*
X136234188Y-122615376D01*
X136070216Y-122547456D01*
X135922646Y-122448853D01*
X135797147Y-122323354D01*
X135698544Y-122175784D01*
X135630624Y-122011812D01*
X135596000Y-121837741D01*
X135596000Y-121660259D01*
X135630624Y-121486188D01*
X135698544Y-121322216D01*
X135797147Y-121174646D01*
X135922646Y-121049147D01*
X136070216Y-120950544D01*
X136234188Y-120882624D01*
X136383488Y-120852927D01*
X136408258Y-120848000D01*
X136585742Y-120848000D01*
X136610512Y-120852927D01*
G37*
G36*
X60108435Y-120352514D02*
G01*
X60259812Y-120382624D01*
X60423784Y-120450544D01*
X60571354Y-120549147D01*
X60696853Y-120674646D01*
X60795456Y-120822216D01*
X60863376Y-120986188D01*
X60898000Y-121160259D01*
X60898000Y-121337741D01*
X60863376Y-121511812D01*
X60795456Y-121675784D01*
X60696853Y-121823354D01*
X60571354Y-121948853D01*
X60423784Y-122047456D01*
X60259812Y-122115376D01*
X60110512Y-122145073D01*
X60085742Y-122150000D01*
X59908258Y-122150000D01*
X59883488Y-122145073D01*
X59734188Y-122115376D01*
X59570216Y-122047456D01*
X59422646Y-121948853D01*
X59297147Y-121823354D01*
X59198544Y-121675784D01*
X59130624Y-121511812D01*
X59096000Y-121337741D01*
X59096000Y-121160259D01*
X59130624Y-120986188D01*
X59198544Y-120822216D01*
X59297147Y-120674646D01*
X59422646Y-120549147D01*
X59570216Y-120450544D01*
X59734188Y-120382624D01*
X59885565Y-120352514D01*
X59908258Y-120348000D01*
X60085742Y-120348000D01*
X60108435Y-120352514D01*
G37*
G36*
X49108435Y-120352514D02*
G01*
X49259812Y-120382624D01*
X49423784Y-120450544D01*
X49571354Y-120549147D01*
X49696853Y-120674646D01*
X49795456Y-120822216D01*
X49863376Y-120986188D01*
X49898000Y-121160259D01*
X49898000Y-121337741D01*
X49863376Y-121511812D01*
X49795456Y-121675784D01*
X49696853Y-121823354D01*
X49571354Y-121948853D01*
X49423784Y-122047456D01*
X49259812Y-122115376D01*
X49110512Y-122145073D01*
X49085742Y-122150000D01*
X48908258Y-122150000D01*
X48883488Y-122145073D01*
X48734188Y-122115376D01*
X48570216Y-122047456D01*
X48422646Y-121948853D01*
X48297147Y-121823354D01*
X48198544Y-121675784D01*
X48130624Y-121511812D01*
X48096000Y-121337741D01*
X48096000Y-121160259D01*
X48130624Y-120986188D01*
X48198544Y-120822216D01*
X48297147Y-120674646D01*
X48422646Y-120549147D01*
X48570216Y-120450544D01*
X48734188Y-120382624D01*
X48885565Y-120352514D01*
X48908258Y-120348000D01*
X49085742Y-120348000D01*
X49108435Y-120352514D01*
G37*
G36*
X102894985Y-118542860D02*
G01*
X103007748Y-118565290D01*
X103139741Y-118619963D01*
X103326408Y-118697283D01*
X103613196Y-118888909D01*
X103857091Y-119132804D01*
X104048717Y-119419592D01*
X104081194Y-119498000D01*
X104180710Y-119738252D01*
X104183279Y-119751167D01*
X104248000Y-120076540D01*
X104248000Y-120421460D01*
X104219390Y-120565290D01*
X104180710Y-120759748D01*
X104154835Y-120822216D01*
X104048717Y-121078408D01*
X103857091Y-121365196D01*
X103613196Y-121609091D01*
X103326408Y-121800717D01*
X103237021Y-121837742D01*
X103007748Y-121932710D01*
X102894985Y-121955140D01*
X102669460Y-122000000D01*
X102324540Y-122000000D01*
X102099015Y-121955140D01*
X101986252Y-121932710D01*
X101756979Y-121837742D01*
X101667592Y-121800717D01*
X101380804Y-121609091D01*
X101136909Y-121365196D01*
X100945283Y-121078408D01*
X100839165Y-120822216D01*
X100813290Y-120759748D01*
X100774610Y-120565290D01*
X100746000Y-120421460D01*
X100746000Y-120076540D01*
X100810721Y-119751167D01*
X100813290Y-119738252D01*
X100912806Y-119498000D01*
X100945283Y-119419592D01*
X101136909Y-119132804D01*
X101380804Y-118888909D01*
X101667592Y-118697283D01*
X101854259Y-118619963D01*
X101986252Y-118565290D01*
X102099015Y-118542860D01*
X102324540Y-118498000D01*
X102669460Y-118498000D01*
X102894985Y-118542860D01*
G37*
G36*
X96903564Y-119238389D02*
G01*
X97094833Y-119317615D01*
X97094835Y-119317616D01*
X97266973Y-119432635D01*
X97413365Y-119579027D01*
X97519756Y-119738252D01*
X97528385Y-119751167D01*
X97607611Y-119942436D01*
X97648000Y-120145484D01*
X97648000Y-120352516D01*
X97607611Y-120555564D01*
X97558285Y-120674647D01*
X97528384Y-120746835D01*
X97413365Y-120918973D01*
X97266973Y-121065365D01*
X97094835Y-121180384D01*
X97094834Y-121180385D01*
X97094833Y-121180385D01*
X96903564Y-121259611D01*
X96700516Y-121300000D01*
X96493484Y-121300000D01*
X96290436Y-121259611D01*
X96099167Y-121180385D01*
X96099166Y-121180385D01*
X96099165Y-121180384D01*
X95927027Y-121065365D01*
X95780635Y-120918973D01*
X95665616Y-120746835D01*
X95635715Y-120674647D01*
X95586389Y-120555564D01*
X95546000Y-120352516D01*
X95546000Y-120145484D01*
X95586389Y-119942436D01*
X95665615Y-119751167D01*
X95674245Y-119738252D01*
X95780635Y-119579027D01*
X95927027Y-119432635D01*
X96099165Y-119317616D01*
X96099167Y-119317615D01*
X96290436Y-119238389D01*
X96493484Y-119198000D01*
X96700516Y-119198000D01*
X96903564Y-119238389D01*
G37*
G36*
X93734142Y-119467242D02*
G01*
X93882101Y-119528529D01*
X94015255Y-119617499D01*
X94128501Y-119730745D01*
X94217471Y-119863899D01*
X94278758Y-120011858D01*
X94310000Y-120168925D01*
X94310000Y-120329075D01*
X94278758Y-120486142D01*
X94217471Y-120634101D01*
X94128501Y-120767255D01*
X94015255Y-120880501D01*
X93882101Y-120969471D01*
X93734142Y-121030758D01*
X93577075Y-121062000D01*
X93416925Y-121062000D01*
X93259858Y-121030758D01*
X93111899Y-120969471D01*
X92978745Y-120880501D01*
X92865499Y-120767255D01*
X92776529Y-120634101D01*
X92715242Y-120486142D01*
X92684000Y-120329075D01*
X92684000Y-120168925D01*
X92715242Y-120011858D01*
X92776529Y-119863899D01*
X92865499Y-119730745D01*
X92978745Y-119617499D01*
X93111899Y-119528529D01*
X93259858Y-119467242D01*
X93416925Y-119436000D01*
X93577075Y-119436000D01*
X93734142Y-119467242D01*
G37*
G36*
X93734142Y-117467242D02*
G01*
X93882101Y-117528529D01*
X94015255Y-117617499D01*
X94128501Y-117730745D01*
X94217471Y-117863899D01*
X94278758Y-118011858D01*
X94310000Y-118168925D01*
X94310000Y-118329075D01*
X94278758Y-118486142D01*
X94217471Y-118634101D01*
X94128501Y-118767255D01*
X94015255Y-118880501D01*
X93882101Y-118969471D01*
X93734142Y-119030758D01*
X93577075Y-119062000D01*
X93416925Y-119062000D01*
X93259858Y-119030758D01*
X93111899Y-118969471D01*
X92978745Y-118880501D01*
X92865499Y-118767255D01*
X92776529Y-118634101D01*
X92715242Y-118486142D01*
X92684000Y-118329075D01*
X92684000Y-118168925D01*
X92715242Y-118011858D01*
X92776529Y-117863899D01*
X92865499Y-117730745D01*
X92978745Y-117617499D01*
X93111899Y-117528529D01*
X93259858Y-117467242D01*
X93416925Y-117436000D01*
X93577075Y-117436000D01*
X93734142Y-117467242D01*
G37*
G36*
X59803564Y-116438389D02*
G01*
X59994833Y-116517615D01*
X59994835Y-116517616D01*
X60166973Y-116632635D01*
X60313365Y-116779027D01*
X60422551Y-116942435D01*
X60428385Y-116951167D01*
X60507611Y-117142436D01*
X60548000Y-117345484D01*
X60548000Y-117552516D01*
X60507611Y-117755564D01*
X60462737Y-117863899D01*
X60428384Y-117946835D01*
X60313365Y-118118973D01*
X60166973Y-118265365D01*
X59994835Y-118380384D01*
X59994834Y-118380385D01*
X59994833Y-118380385D01*
X59803564Y-118459611D01*
X59600516Y-118500000D01*
X59393484Y-118500000D01*
X59190436Y-118459611D01*
X58999167Y-118380385D01*
X58999166Y-118380385D01*
X58999165Y-118380384D01*
X58827027Y-118265365D01*
X58680635Y-118118973D01*
X58565616Y-117946835D01*
X58531263Y-117863899D01*
X58486389Y-117755564D01*
X58446000Y-117552516D01*
X58446000Y-117345484D01*
X58486389Y-117142436D01*
X58565615Y-116951167D01*
X58571450Y-116942435D01*
X58680635Y-116779027D01*
X58827027Y-116632635D01*
X58999165Y-116517616D01*
X58999167Y-116517615D01*
X59190436Y-116438389D01*
X59393484Y-116398000D01*
X59600516Y-116398000D01*
X59803564Y-116438389D01*
G37*
G36*
X49803564Y-116438389D02*
G01*
X49994833Y-116517615D01*
X49994835Y-116517616D01*
X50166973Y-116632635D01*
X50313365Y-116779027D01*
X50422551Y-116942435D01*
X50428385Y-116951167D01*
X50507611Y-117142436D01*
X50548000Y-117345484D01*
X50548000Y-117552516D01*
X50507611Y-117755564D01*
X50462737Y-117863899D01*
X50428384Y-117946835D01*
X50313365Y-118118973D01*
X50166973Y-118265365D01*
X49994835Y-118380384D01*
X49994834Y-118380385D01*
X49994833Y-118380385D01*
X49803564Y-118459611D01*
X49600516Y-118500000D01*
X49393484Y-118500000D01*
X49190436Y-118459611D01*
X48999167Y-118380385D01*
X48999166Y-118380385D01*
X48999165Y-118380384D01*
X48827027Y-118265365D01*
X48680635Y-118118973D01*
X48565616Y-117946835D01*
X48531263Y-117863899D01*
X48486389Y-117755564D01*
X48446000Y-117552516D01*
X48446000Y-117345484D01*
X48486389Y-117142436D01*
X48565615Y-116951167D01*
X48571450Y-116942435D01*
X48680635Y-116779027D01*
X48827027Y-116632635D01*
X48999165Y-116517616D01*
X48999167Y-116517615D01*
X49190436Y-116438389D01*
X49393484Y-116398000D01*
X49600516Y-116398000D01*
X49803564Y-116438389D01*
G37*
G36*
X116003564Y-116238389D02*
G01*
X116194833Y-116317615D01*
X116194835Y-116317616D01*
X116366973Y-116432635D01*
X116513365Y-116579027D01*
X116567643Y-116660259D01*
X116628385Y-116751167D01*
X116707611Y-116942436D01*
X116748000Y-117145484D01*
X116748000Y-117352516D01*
X116707611Y-117555564D01*
X116635049Y-117730745D01*
X116628384Y-117746835D01*
X116513365Y-117918973D01*
X116366973Y-118065365D01*
X116194835Y-118180384D01*
X116194834Y-118180385D01*
X116194833Y-118180385D01*
X116003564Y-118259611D01*
X115800516Y-118300000D01*
X115593484Y-118300000D01*
X115390436Y-118259611D01*
X115199167Y-118180385D01*
X115199166Y-118180385D01*
X115199165Y-118180384D01*
X115027027Y-118065365D01*
X114880635Y-117918973D01*
X114765616Y-117746835D01*
X114758951Y-117730745D01*
X114686389Y-117555564D01*
X114646000Y-117352516D01*
X114646000Y-117145484D01*
X114686389Y-116942436D01*
X114765615Y-116751167D01*
X114826358Y-116660259D01*
X114880635Y-116579027D01*
X115027027Y-116432635D01*
X115199165Y-116317616D01*
X115199167Y-116317615D01*
X115390436Y-116238389D01*
X115593484Y-116198000D01*
X115800516Y-116198000D01*
X116003564Y-116238389D01*
G37*
G36*
X119610512Y-115852927D02*
G01*
X119759812Y-115882624D01*
X119923784Y-115950544D01*
X120071354Y-116049147D01*
X120196853Y-116174646D01*
X120295456Y-116322216D01*
X120363376Y-116486188D01*
X120398000Y-116660259D01*
X120398000Y-116837741D01*
X120363376Y-117011812D01*
X120295456Y-117175784D01*
X120196853Y-117323354D01*
X120071354Y-117448853D01*
X119923784Y-117547456D01*
X119759812Y-117615376D01*
X119610512Y-117645073D01*
X119585742Y-117650000D01*
X119408258Y-117650000D01*
X119383488Y-117645073D01*
X119234188Y-117615376D01*
X119070216Y-117547456D01*
X118922646Y-117448853D01*
X118797147Y-117323354D01*
X118698544Y-117175784D01*
X118630624Y-117011812D01*
X118596000Y-116837741D01*
X118596000Y-116660259D01*
X118630624Y-116486188D01*
X118698544Y-116322216D01*
X118797147Y-116174646D01*
X118922646Y-116049147D01*
X119070216Y-115950544D01*
X119234188Y-115882624D01*
X119383488Y-115852927D01*
X119408258Y-115848000D01*
X119585742Y-115848000D01*
X119610512Y-115852927D01*
G37*
G36*
X138498000Y-117200000D02*
G01*
X136796000Y-117200000D01*
X136796000Y-116248000D01*
X138498000Y-116248000D01*
X138498000Y-117200000D01*
G37*
G36*
X141998000Y-117200000D02*
G01*
X140296000Y-117200000D01*
X140296000Y-116248000D01*
X141998000Y-116248000D01*
X141998000Y-117200000D01*
G37*
G36*
X54803564Y-114338389D02*
G01*
X54994833Y-114417615D01*
X54994835Y-114417616D01*
X55115138Y-114498000D01*
X55166973Y-114532635D01*
X55313365Y-114679027D01*
X55428385Y-114851167D01*
X55507611Y-115042436D01*
X55548000Y-115245484D01*
X55548000Y-115452516D01*
X55507611Y-115655564D01*
X55469806Y-115746833D01*
X55428384Y-115846835D01*
X55313365Y-116018973D01*
X55166973Y-116165365D01*
X54994835Y-116280384D01*
X54994834Y-116280385D01*
X54994833Y-116280385D01*
X54803564Y-116359611D01*
X54600516Y-116400000D01*
X54393484Y-116400000D01*
X54190436Y-116359611D01*
X53999167Y-116280385D01*
X53999166Y-116280385D01*
X53999165Y-116280384D01*
X53827027Y-116165365D01*
X53680635Y-116018973D01*
X53565616Y-115846835D01*
X53524194Y-115746833D01*
X53486389Y-115655564D01*
X53446000Y-115452516D01*
X53446000Y-115245484D01*
X53486389Y-115042436D01*
X53565615Y-114851167D01*
X53680635Y-114679027D01*
X53827027Y-114532635D01*
X53878862Y-114498000D01*
X53999165Y-114417616D01*
X53999167Y-114417615D01*
X54190436Y-114338389D01*
X54393484Y-114298000D01*
X54600516Y-114298000D01*
X54803564Y-114338389D01*
G37*
G36*
X99003564Y-114238389D02*
G01*
X99194833Y-114317615D01*
X99194835Y-114317616D01*
X99366973Y-114432635D01*
X99513365Y-114579027D01*
X99567643Y-114660259D01*
X99628385Y-114751167D01*
X99707611Y-114942436D01*
X99748000Y-115145484D01*
X99748000Y-115352516D01*
X99707611Y-115555564D01*
X99666189Y-115655565D01*
X99628384Y-115746835D01*
X99513365Y-115918973D01*
X99366973Y-116065365D01*
X99194835Y-116180384D01*
X99194834Y-116180385D01*
X99194833Y-116180385D01*
X99003564Y-116259611D01*
X98800516Y-116300000D01*
X98593484Y-116300000D01*
X98390436Y-116259611D01*
X98199167Y-116180385D01*
X98199166Y-116180385D01*
X98199165Y-116180384D01*
X98027027Y-116065365D01*
X97880635Y-115918973D01*
X97765616Y-115746835D01*
X97727811Y-115655565D01*
X97686389Y-115555564D01*
X97646000Y-115352516D01*
X97646000Y-115145484D01*
X97686389Y-114942436D01*
X97765615Y-114751167D01*
X97826358Y-114660259D01*
X97880635Y-114579027D01*
X98027027Y-114432635D01*
X98199165Y-114317616D01*
X98199167Y-114317615D01*
X98390436Y-114238389D01*
X98593484Y-114198000D01*
X98800516Y-114198000D01*
X99003564Y-114238389D01*
G37*
G36*
X102610512Y-113852927D02*
G01*
X102759812Y-113882624D01*
X102923784Y-113950544D01*
X103071354Y-114049147D01*
X103196853Y-114174646D01*
X103295456Y-114322216D01*
X103363376Y-114486188D01*
X103381842Y-114579027D01*
X103398000Y-114660258D01*
X103398000Y-114837742D01*
X103393073Y-114862512D01*
X103363376Y-115011812D01*
X103295456Y-115175784D01*
X103196853Y-115323354D01*
X103071354Y-115448853D01*
X102923784Y-115547456D01*
X102759812Y-115615376D01*
X102610512Y-115645073D01*
X102585742Y-115650000D01*
X102408258Y-115650000D01*
X102383488Y-115645073D01*
X102234188Y-115615376D01*
X102070216Y-115547456D01*
X101922646Y-115448853D01*
X101797147Y-115323354D01*
X101698544Y-115175784D01*
X101630624Y-115011812D01*
X101600927Y-114862512D01*
X101596000Y-114837742D01*
X101596000Y-114660258D01*
X101612158Y-114579027D01*
X101630624Y-114486188D01*
X101698544Y-114322216D01*
X101797147Y-114174646D01*
X101922646Y-114049147D01*
X102070216Y-113950544D01*
X102234188Y-113882624D01*
X102383488Y-113852927D01*
X102408258Y-113848000D01*
X102585742Y-113848000D01*
X102610512Y-113852927D01*
G37*
G36*
X138498000Y-115450000D02*
G01*
X136796000Y-115450000D01*
X136796000Y-114498000D01*
X138498000Y-114498000D01*
X138498000Y-115450000D01*
G37*
G36*
X141998000Y-115450000D02*
G01*
X140296000Y-115450000D01*
X140296000Y-114498000D01*
X141998000Y-114498000D01*
X141998000Y-115450000D01*
G37*
G36*
X108734142Y-113467242D02*
G01*
X108882101Y-113528529D01*
X109015255Y-113617499D01*
X109128501Y-113730745D01*
X109217471Y-113863899D01*
X109278758Y-114011858D01*
X109310000Y-114168925D01*
X109310000Y-114329075D01*
X109278758Y-114486142D01*
X109217471Y-114634101D01*
X109128501Y-114767255D01*
X109015255Y-114880501D01*
X108882101Y-114969471D01*
X108734142Y-115030758D01*
X108577075Y-115062000D01*
X108416925Y-115062000D01*
X108259858Y-115030758D01*
X108111899Y-114969471D01*
X107978745Y-114880501D01*
X107865499Y-114767255D01*
X107776529Y-114634101D01*
X107715242Y-114486142D01*
X107684000Y-114329075D01*
X107684000Y-114168925D01*
X107715242Y-114011858D01*
X107776529Y-113863899D01*
X107865499Y-113730745D01*
X107978745Y-113617499D01*
X108111899Y-113528529D01*
X108259858Y-113467242D01*
X108416925Y-113436000D01*
X108577075Y-113436000D01*
X108734142Y-113467242D01*
G37*
G36*
X137048000Y-112700000D02*
G01*
X134446000Y-112700000D01*
X134446000Y-111398000D01*
X137048000Y-111398000D01*
X137048000Y-112700000D01*
G37*
G36*
X102734142Y-110467242D02*
G01*
X102882101Y-110528529D01*
X103015255Y-110617499D01*
X103128501Y-110730745D01*
X103217471Y-110863899D01*
X103278758Y-111011858D01*
X103310000Y-111168925D01*
X103310000Y-111329075D01*
X103278758Y-111486142D01*
X103217471Y-111634101D01*
X103128501Y-111767255D01*
X103015255Y-111880501D01*
X102882101Y-111969471D01*
X102734142Y-112030758D01*
X102577075Y-112062000D01*
X102416925Y-112062000D01*
X102259858Y-112030758D01*
X102111899Y-111969471D01*
X101978745Y-111880501D01*
X101865499Y-111767255D01*
X101776529Y-111634101D01*
X101715242Y-111486142D01*
X101684000Y-111329075D01*
X101684000Y-111168925D01*
X101715242Y-111011858D01*
X101776529Y-110863899D01*
X101865499Y-110730745D01*
X101978745Y-110617499D01*
X102111899Y-110528529D01*
X102259858Y-110467242D01*
X102416925Y-110436000D01*
X102577075Y-110436000D01*
X102734142Y-110467242D01*
G37*
G36*
X100734142Y-110467242D02*
G01*
X100882101Y-110528529D01*
X101015255Y-110617499D01*
X101128501Y-110730745D01*
X101217471Y-110863899D01*
X101278758Y-111011858D01*
X101310000Y-111168925D01*
X101310000Y-111329075D01*
X101278758Y-111486142D01*
X101217471Y-111634101D01*
X101128501Y-111767255D01*
X101015255Y-111880501D01*
X100882101Y-111969471D01*
X100734142Y-112030758D01*
X100577075Y-112062000D01*
X100416925Y-112062000D01*
X100259858Y-112030758D01*
X100111899Y-111969471D01*
X99978745Y-111880501D01*
X99865499Y-111767255D01*
X99776529Y-111634101D01*
X99715242Y-111486142D01*
X99684000Y-111329075D01*
X99684000Y-111168925D01*
X99715242Y-111011858D01*
X99776529Y-110863899D01*
X99865499Y-110730745D01*
X99978745Y-110617499D01*
X100111899Y-110528529D01*
X100259858Y-110467242D01*
X100416925Y-110436000D01*
X100577075Y-110436000D01*
X100734142Y-110467242D01*
G37*
G36*
X104734142Y-110467242D02*
G01*
X104882101Y-110528529D01*
X105015255Y-110617499D01*
X105128501Y-110730745D01*
X105217471Y-110863899D01*
X105278758Y-111011858D01*
X105310000Y-111168925D01*
X105310000Y-111329075D01*
X105278758Y-111486142D01*
X105217471Y-111634101D01*
X105128501Y-111767255D01*
X105015255Y-111880501D01*
X104882101Y-111969471D01*
X104734142Y-112030758D01*
X104577075Y-112062000D01*
X104416925Y-112062000D01*
X104259858Y-112030758D01*
X104111899Y-111969471D01*
X103978745Y-111880501D01*
X103865499Y-111767255D01*
X103776529Y-111634101D01*
X103715242Y-111486142D01*
X103684000Y-111329075D01*
X103684000Y-111168925D01*
X103715242Y-111011858D01*
X103776529Y-110863899D01*
X103865499Y-110730745D01*
X103978745Y-110617499D01*
X104111899Y-110528529D01*
X104259858Y-110467242D01*
X104416925Y-110436000D01*
X104577075Y-110436000D01*
X104734142Y-110467242D01*
G37*
G36*
X143548000Y-111600000D02*
G01*
X140946000Y-111600000D01*
X140946000Y-110298000D01*
X143548000Y-110298000D01*
X143548000Y-111600000D01*
G37*
G36*
X139128552Y-108915331D02*
G01*
X139210627Y-108949328D01*
X139210629Y-108949329D01*
X139247813Y-108974175D01*
X139284495Y-108998685D01*
X139347315Y-109061505D01*
X139396672Y-109135373D01*
X139430669Y-109217448D01*
X139448000Y-109304579D01*
X139448000Y-109393421D01*
X139430669Y-109480552D01*
X139396672Y-109562627D01*
X139396671Y-109562629D01*
X139347314Y-109636496D01*
X139284496Y-109699314D01*
X139210629Y-109748671D01*
X139210628Y-109748672D01*
X139210627Y-109748672D01*
X139128552Y-109782669D01*
X139041421Y-109800000D01*
X138952579Y-109800000D01*
X138865448Y-109782669D01*
X138783373Y-109748672D01*
X138783372Y-109748672D01*
X138783371Y-109748671D01*
X138709504Y-109699314D01*
X138646686Y-109636496D01*
X138597329Y-109562629D01*
X138597328Y-109562627D01*
X138563331Y-109480552D01*
X138546000Y-109393421D01*
X138546000Y-109304579D01*
X138563331Y-109217448D01*
X138597328Y-109135373D01*
X138646685Y-109061505D01*
X138709505Y-108998685D01*
X138746187Y-108974175D01*
X138783371Y-108949329D01*
X138783373Y-108949328D01*
X138865448Y-108915331D01*
X138952579Y-108898000D01*
X139041421Y-108898000D01*
X139128552Y-108915331D01*
G37*
G36*
X143548000Y-107600000D02*
G01*
X140946000Y-107600000D01*
X140946000Y-106298000D01*
X143548000Y-106298000D01*
X143548000Y-107600000D01*
G37*
G36*
X123894985Y-103042860D02*
G01*
X124007748Y-103065290D01*
X124139741Y-103119963D01*
X124326408Y-103197283D01*
X124613196Y-103388909D01*
X124857091Y-103632804D01*
X125048717Y-103919592D01*
X125180710Y-104238253D01*
X125248000Y-104576540D01*
X125248000Y-104921460D01*
X125180710Y-105259747D01*
X125048717Y-105578408D01*
X124857091Y-105865196D01*
X124613196Y-106109091D01*
X124326408Y-106300717D01*
X124139741Y-106378037D01*
X124007748Y-106432710D01*
X123894985Y-106455140D01*
X123669460Y-106500000D01*
X123324540Y-106500000D01*
X123099015Y-106455140D01*
X122986252Y-106432710D01*
X122854259Y-106378037D01*
X122667592Y-106300717D01*
X122380804Y-106109091D01*
X122136909Y-105865196D01*
X121945283Y-105578408D01*
X121813290Y-105259747D01*
X121746000Y-104921460D01*
X121746000Y-104576540D01*
X121813290Y-104238253D01*
X121945283Y-103919592D01*
X122136909Y-103632804D01*
X122380804Y-103388909D01*
X122667592Y-103197283D01*
X122854259Y-103119963D01*
X122986252Y-103065290D01*
X123099015Y-103042860D01*
X123324540Y-102998000D01*
X123669460Y-102998000D01*
X123894985Y-103042860D01*
G37*
G36*
X51894985Y-102542860D02*
G01*
X52007748Y-102565290D01*
X52113490Y-102609090D01*
X52326408Y-102697283D01*
X52613196Y-102888909D01*
X52857091Y-103132804D01*
X53048717Y-103419592D01*
X53180710Y-103738253D01*
X53248000Y-104076540D01*
X53248000Y-104421460D01*
X53180710Y-104759747D01*
X53048717Y-105078408D01*
X52857091Y-105365196D01*
X52613196Y-105609091D01*
X52326408Y-105800717D01*
X52139741Y-105878037D01*
X52007748Y-105932710D01*
X51894985Y-105955140D01*
X51669460Y-106000000D01*
X51324540Y-106000000D01*
X51099015Y-105955140D01*
X50986252Y-105932710D01*
X50854259Y-105878037D01*
X50667592Y-105800717D01*
X50380804Y-105609091D01*
X50136909Y-105365196D01*
X49945283Y-105078408D01*
X49813290Y-104759747D01*
X49746000Y-104421460D01*
X49746000Y-104076540D01*
X49813290Y-103738253D01*
X49945283Y-103419592D01*
X50136909Y-103132804D01*
X50380804Y-102888909D01*
X50667592Y-102697283D01*
X50880510Y-102609090D01*
X50986252Y-102565290D01*
X51099015Y-102542860D01*
X51324540Y-102498000D01*
X51669460Y-102498000D01*
X51894985Y-102542860D01*
G37*
G36*
X129110512Y-103852927D02*
G01*
X129259812Y-103882624D01*
X129423784Y-103950544D01*
X129571354Y-104049147D01*
X129696853Y-104174646D01*
X129795456Y-104322216D01*
X129863376Y-104486188D01*
X129898000Y-104660259D01*
X129898000Y-104837741D01*
X129863376Y-105011812D01*
X129795456Y-105175784D01*
X129696853Y-105323354D01*
X129571354Y-105448853D01*
X129423784Y-105547456D01*
X129259812Y-105615376D01*
X129110512Y-105645073D01*
X129085742Y-105650000D01*
X128908258Y-105650000D01*
X128883488Y-105645073D01*
X128734188Y-105615376D01*
X128570216Y-105547456D01*
X128422646Y-105448853D01*
X128297147Y-105323354D01*
X128198544Y-105175784D01*
X128130624Y-105011812D01*
X128096000Y-104837741D01*
X128096000Y-104660259D01*
X128130624Y-104486188D01*
X128198544Y-104322216D01*
X128297147Y-104174646D01*
X128422646Y-104049147D01*
X128570216Y-103950544D01*
X128734188Y-103882624D01*
X128883488Y-103852927D01*
X128908258Y-103848000D01*
X129085742Y-103848000D01*
X129110512Y-103852927D01*
G37*
G36*
X118110512Y-103852927D02*
G01*
X118259812Y-103882624D01*
X118423784Y-103950544D01*
X118571354Y-104049147D01*
X118696853Y-104174646D01*
X118795456Y-104322216D01*
X118863376Y-104486188D01*
X118898000Y-104660259D01*
X118898000Y-104837741D01*
X118863376Y-105011812D01*
X118795456Y-105175784D01*
X118696853Y-105323354D01*
X118571354Y-105448853D01*
X118423784Y-105547456D01*
X118259812Y-105615376D01*
X118110512Y-105645073D01*
X118085742Y-105650000D01*
X117908258Y-105650000D01*
X117883488Y-105645073D01*
X117734188Y-105615376D01*
X117570216Y-105547456D01*
X117422646Y-105448853D01*
X117297147Y-105323354D01*
X117198544Y-105175784D01*
X117130624Y-105011812D01*
X117096000Y-104837741D01*
X117096000Y-104660259D01*
X117130624Y-104486188D01*
X117198544Y-104322216D01*
X117297147Y-104174646D01*
X117422646Y-104049147D01*
X117570216Y-103950544D01*
X117734188Y-103882624D01*
X117883488Y-103852927D01*
X117908258Y-103848000D01*
X118085742Y-103848000D01*
X118110512Y-103852927D01*
G37*
G36*
X57110512Y-103352927D02*
G01*
X57259812Y-103382624D01*
X57423784Y-103450544D01*
X57571354Y-103549147D01*
X57696853Y-103674646D01*
X57795456Y-103822216D01*
X57863376Y-103986188D01*
X57898000Y-104160259D01*
X57898000Y-104337741D01*
X57863376Y-104511812D01*
X57795456Y-104675784D01*
X57696853Y-104823354D01*
X57571354Y-104948853D01*
X57423784Y-105047456D01*
X57259812Y-105115376D01*
X57110512Y-105145073D01*
X57085742Y-105150000D01*
X56908258Y-105150000D01*
X56883488Y-105145073D01*
X56734188Y-105115376D01*
X56570216Y-105047456D01*
X56422646Y-104948853D01*
X56297147Y-104823354D01*
X56198544Y-104675784D01*
X56130624Y-104511812D01*
X56096000Y-104337741D01*
X56096000Y-104160259D01*
X56130624Y-103986188D01*
X56198544Y-103822216D01*
X56297147Y-103674646D01*
X56422646Y-103549147D01*
X56570216Y-103450544D01*
X56734188Y-103382624D01*
X56883488Y-103352927D01*
X56908258Y-103348000D01*
X57085742Y-103348000D01*
X57110512Y-103352927D01*
G37*
G36*
X46110512Y-103352927D02*
G01*
X46259812Y-103382624D01*
X46423784Y-103450544D01*
X46571354Y-103549147D01*
X46696853Y-103674646D01*
X46795456Y-103822216D01*
X46863376Y-103986188D01*
X46898000Y-104160259D01*
X46898000Y-104337741D01*
X46863376Y-104511812D01*
X46795456Y-104675784D01*
X46696853Y-104823354D01*
X46571354Y-104948853D01*
X46423784Y-105047456D01*
X46259812Y-105115376D01*
X46110512Y-105145073D01*
X46085742Y-105150000D01*
X45908258Y-105150000D01*
X45883488Y-105145073D01*
X45734188Y-105115376D01*
X45570216Y-105047456D01*
X45422646Y-104948853D01*
X45297147Y-104823354D01*
X45198544Y-104675784D01*
X45130624Y-104511812D01*
X45096000Y-104337741D01*
X45096000Y-104160259D01*
X45130624Y-103986188D01*
X45198544Y-103822216D01*
X45297147Y-103674646D01*
X45422646Y-103549147D01*
X45570216Y-103450544D01*
X45734188Y-103382624D01*
X45883488Y-103352927D01*
X45908258Y-103348000D01*
X46085742Y-103348000D01*
X46110512Y-103352927D01*
G37*
G36*
X143548000Y-104600000D02*
G01*
X140946000Y-104600000D01*
X140946000Y-103298000D01*
X143548000Y-103298000D01*
X143548000Y-104600000D01*
G37*
G36*
X105894985Y-99542860D02*
G01*
X106007748Y-99565290D01*
X106139741Y-99619963D01*
X106326408Y-99697283D01*
X106613196Y-99888909D01*
X106857091Y-100132804D01*
X107048717Y-100419592D01*
X107126037Y-100606259D01*
X107180710Y-100738252D01*
X107184154Y-100755565D01*
X107248000Y-101076540D01*
X107248000Y-101421460D01*
X107180710Y-101759747D01*
X107048717Y-102078408D01*
X106857091Y-102365196D01*
X106613196Y-102609091D01*
X106326408Y-102800717D01*
X106139741Y-102878037D01*
X106007748Y-102932710D01*
X105894985Y-102955140D01*
X105669460Y-103000000D01*
X105324540Y-103000000D01*
X105099015Y-102955140D01*
X104986252Y-102932710D01*
X104854259Y-102878037D01*
X104667592Y-102800717D01*
X104380804Y-102609091D01*
X104136909Y-102365196D01*
X103945283Y-102078408D01*
X103813290Y-101759747D01*
X103746000Y-101421460D01*
X103746000Y-101076540D01*
X103809846Y-100755565D01*
X103813290Y-100738252D01*
X103867963Y-100606259D01*
X103945283Y-100419592D01*
X104136909Y-100132804D01*
X104380804Y-99888909D01*
X104667592Y-99697283D01*
X104854259Y-99619963D01*
X104986252Y-99565290D01*
X105099015Y-99542860D01*
X105324540Y-99498000D01*
X105669460Y-99498000D01*
X105894985Y-99542860D01*
G37*
G36*
X69894985Y-99542860D02*
G01*
X70007748Y-99565290D01*
X70139741Y-99619963D01*
X70326408Y-99697283D01*
X70613196Y-99888909D01*
X70857091Y-100132804D01*
X71048717Y-100419592D01*
X71126037Y-100606259D01*
X71180710Y-100738252D01*
X71184154Y-100755565D01*
X71248000Y-101076540D01*
X71248000Y-101421460D01*
X71180710Y-101759747D01*
X71048717Y-102078408D01*
X70857091Y-102365196D01*
X70613196Y-102609091D01*
X70326408Y-102800717D01*
X70139741Y-102878037D01*
X70007748Y-102932710D01*
X69894985Y-102955140D01*
X69669460Y-103000000D01*
X69324540Y-103000000D01*
X69099015Y-102955140D01*
X68986252Y-102932710D01*
X68854259Y-102878037D01*
X68667592Y-102800717D01*
X68380804Y-102609091D01*
X68136909Y-102365196D01*
X67945283Y-102078408D01*
X67813290Y-101759747D01*
X67746000Y-101421460D01*
X67746000Y-101076540D01*
X67809846Y-100755565D01*
X67813290Y-100738252D01*
X67867963Y-100606259D01*
X67945283Y-100419592D01*
X68136909Y-100132804D01*
X68380804Y-99888909D01*
X68667592Y-99697283D01*
X68854259Y-99619963D01*
X68986252Y-99565290D01*
X69099015Y-99542860D01*
X69324540Y-99498000D01*
X69669460Y-99498000D01*
X69894985Y-99542860D01*
G37*
G36*
X139128552Y-101915331D02*
G01*
X139209480Y-101948853D01*
X139210629Y-101949329D01*
X139284496Y-101998686D01*
X139347314Y-102061504D01*
X139383311Y-102115376D01*
X139396672Y-102135373D01*
X139430669Y-102217448D01*
X139448000Y-102304579D01*
X139448000Y-102393421D01*
X139430669Y-102480552D01*
X139396672Y-102562627D01*
X139396671Y-102562629D01*
X139347314Y-102636496D01*
X139284496Y-102699314D01*
X139210629Y-102748671D01*
X139210628Y-102748672D01*
X139210627Y-102748672D01*
X139128552Y-102782669D01*
X139041421Y-102800000D01*
X138952579Y-102800000D01*
X138865448Y-102782669D01*
X138783373Y-102748672D01*
X138783372Y-102748672D01*
X138783371Y-102748671D01*
X138709504Y-102699314D01*
X138646686Y-102636496D01*
X138597329Y-102562629D01*
X138597328Y-102562627D01*
X138563331Y-102480552D01*
X138546000Y-102393421D01*
X138546000Y-102304579D01*
X138563331Y-102217448D01*
X138597328Y-102135373D01*
X138610690Y-102115376D01*
X138646686Y-102061504D01*
X138709504Y-101998686D01*
X138783371Y-101949329D01*
X138784520Y-101948853D01*
X138865448Y-101915331D01*
X138952579Y-101898000D01*
X139041421Y-101898000D01*
X139128552Y-101915331D01*
G37*
G36*
X100110512Y-100352927D02*
G01*
X100259812Y-100382624D01*
X100423784Y-100450544D01*
X100571354Y-100549147D01*
X100696853Y-100674646D01*
X100795456Y-100822216D01*
X100863376Y-100986188D01*
X100898000Y-101160259D01*
X100898000Y-101337741D01*
X100863376Y-101511812D01*
X100795456Y-101675784D01*
X100696853Y-101823354D01*
X100571354Y-101948853D01*
X100423784Y-102047456D01*
X100259812Y-102115376D01*
X100110512Y-102145073D01*
X100085742Y-102150000D01*
X99908258Y-102150000D01*
X99883488Y-102145073D01*
X99734188Y-102115376D01*
X99570216Y-102047456D01*
X99422646Y-101948853D01*
X99297147Y-101823354D01*
X99198544Y-101675784D01*
X99130624Y-101511812D01*
X99096000Y-101337741D01*
X99096000Y-101160259D01*
X99130624Y-100986188D01*
X99198544Y-100822216D01*
X99297147Y-100674646D01*
X99422646Y-100549147D01*
X99570216Y-100450544D01*
X99734188Y-100382624D01*
X99883488Y-100352927D01*
X99908258Y-100348000D01*
X100085742Y-100348000D01*
X100110512Y-100352927D01*
G37*
G36*
X111110512Y-100352927D02*
G01*
X111259812Y-100382624D01*
X111423784Y-100450544D01*
X111571354Y-100549147D01*
X111696853Y-100674646D01*
X111795456Y-100822216D01*
X111863376Y-100986188D01*
X111898000Y-101160259D01*
X111898000Y-101337741D01*
X111863376Y-101511812D01*
X111795456Y-101675784D01*
X111696853Y-101823354D01*
X111571354Y-101948853D01*
X111423784Y-102047456D01*
X111259812Y-102115376D01*
X111110512Y-102145073D01*
X111085742Y-102150000D01*
X110908258Y-102150000D01*
X110883488Y-102145073D01*
X110734188Y-102115376D01*
X110570216Y-102047456D01*
X110422646Y-101948853D01*
X110297147Y-101823354D01*
X110198544Y-101675784D01*
X110130624Y-101511812D01*
X110096000Y-101337741D01*
X110096000Y-101160259D01*
X110130624Y-100986188D01*
X110198544Y-100822216D01*
X110297147Y-100674646D01*
X110422646Y-100549147D01*
X110570216Y-100450544D01*
X110734188Y-100382624D01*
X110883488Y-100352927D01*
X110908258Y-100348000D01*
X111085742Y-100348000D01*
X111110512Y-100352927D01*
G37*
G36*
X75110512Y-100352927D02*
G01*
X75259812Y-100382624D01*
X75423784Y-100450544D01*
X75571354Y-100549147D01*
X75696853Y-100674646D01*
X75795456Y-100822216D01*
X75863376Y-100986188D01*
X75898000Y-101160259D01*
X75898000Y-101337741D01*
X75863376Y-101511812D01*
X75795456Y-101675784D01*
X75696853Y-101823354D01*
X75571354Y-101948853D01*
X75423784Y-102047456D01*
X75259812Y-102115376D01*
X75110512Y-102145073D01*
X75085742Y-102150000D01*
X74908258Y-102150000D01*
X74883488Y-102145073D01*
X74734188Y-102115376D01*
X74570216Y-102047456D01*
X74422646Y-101948853D01*
X74297147Y-101823354D01*
X74198544Y-101675784D01*
X74130624Y-101511812D01*
X74096000Y-101337741D01*
X74096000Y-101160259D01*
X74130624Y-100986188D01*
X74198544Y-100822216D01*
X74297147Y-100674646D01*
X74422646Y-100549147D01*
X74570216Y-100450544D01*
X74734188Y-100382624D01*
X74883488Y-100352927D01*
X74908258Y-100348000D01*
X75085742Y-100348000D01*
X75110512Y-100352927D01*
G37*
G36*
X64110512Y-100352927D02*
G01*
X64259812Y-100382624D01*
X64423784Y-100450544D01*
X64571354Y-100549147D01*
X64696853Y-100674646D01*
X64795456Y-100822216D01*
X64863376Y-100986188D01*
X64898000Y-101160259D01*
X64898000Y-101337741D01*
X64863376Y-101511812D01*
X64795456Y-101675784D01*
X64696853Y-101823354D01*
X64571354Y-101948853D01*
X64423784Y-102047456D01*
X64259812Y-102115376D01*
X64110512Y-102145073D01*
X64085742Y-102150000D01*
X63908258Y-102150000D01*
X63883488Y-102145073D01*
X63734188Y-102115376D01*
X63570216Y-102047456D01*
X63422646Y-101948853D01*
X63297147Y-101823354D01*
X63198544Y-101675784D01*
X63130624Y-101511812D01*
X63096000Y-101337741D01*
X63096000Y-101160259D01*
X63130624Y-100986188D01*
X63198544Y-100822216D01*
X63297147Y-100674646D01*
X63422646Y-100549147D01*
X63570216Y-100450544D01*
X63734188Y-100382624D01*
X63883488Y-100352927D01*
X63908258Y-100348000D01*
X64085742Y-100348000D01*
X64110512Y-100352927D01*
G37*
G36*
X118803564Y-99938389D02*
G01*
X118994833Y-100017615D01*
X118994835Y-100017616D01*
X119166973Y-100132635D01*
X119313365Y-100279027D01*
X119407288Y-100419592D01*
X119428385Y-100451167D01*
X119507611Y-100642436D01*
X119548000Y-100845484D01*
X119548000Y-101052516D01*
X119507611Y-101255564D01*
X119438895Y-101421460D01*
X119428384Y-101446835D01*
X119313365Y-101618973D01*
X119166973Y-101765365D01*
X118994835Y-101880384D01*
X118994834Y-101880385D01*
X118994833Y-101880385D01*
X118803564Y-101959611D01*
X118600516Y-102000000D01*
X118393484Y-102000000D01*
X118190436Y-101959611D01*
X117999167Y-101880385D01*
X117999166Y-101880385D01*
X117999165Y-101880384D01*
X117827027Y-101765365D01*
X117680635Y-101618973D01*
X117565616Y-101446835D01*
X117555105Y-101421460D01*
X117486389Y-101255564D01*
X117446000Y-101052516D01*
X117446000Y-100845484D01*
X117486389Y-100642436D01*
X117565615Y-100451167D01*
X117586713Y-100419592D01*
X117680635Y-100279027D01*
X117827027Y-100132635D01*
X117999165Y-100017616D01*
X117999167Y-100017615D01*
X118190436Y-99938389D01*
X118393484Y-99898000D01*
X118600516Y-99898000D01*
X118803564Y-99938389D01*
G37*
G36*
X128803564Y-99938389D02*
G01*
X128994833Y-100017615D01*
X128994835Y-100017616D01*
X129166973Y-100132635D01*
X129313365Y-100279027D01*
X129407288Y-100419592D01*
X129428385Y-100451167D01*
X129507611Y-100642436D01*
X129548000Y-100845484D01*
X129548000Y-101052516D01*
X129507611Y-101255564D01*
X129438895Y-101421460D01*
X129428384Y-101446835D01*
X129313365Y-101618973D01*
X129166973Y-101765365D01*
X128994835Y-101880384D01*
X128994834Y-101880385D01*
X128994833Y-101880385D01*
X128803564Y-101959611D01*
X128600516Y-102000000D01*
X128393484Y-102000000D01*
X128190436Y-101959611D01*
X127999167Y-101880385D01*
X127999166Y-101880385D01*
X127999165Y-101880384D01*
X127827027Y-101765365D01*
X127680635Y-101618973D01*
X127565616Y-101446835D01*
X127555105Y-101421460D01*
X127486389Y-101255564D01*
X127446000Y-101052516D01*
X127446000Y-100845484D01*
X127486389Y-100642436D01*
X127565615Y-100451167D01*
X127586713Y-100419592D01*
X127680635Y-100279027D01*
X127827027Y-100132635D01*
X127999165Y-100017616D01*
X127999167Y-100017615D01*
X128190436Y-99938389D01*
X128393484Y-99898000D01*
X128600516Y-99898000D01*
X128803564Y-99938389D01*
G37*
G36*
X56803564Y-99438389D02*
G01*
X56994833Y-99517615D01*
X56994835Y-99517616D01*
X57166973Y-99632635D01*
X57313365Y-99779027D01*
X57394197Y-99900000D01*
X57428385Y-99951167D01*
X57507611Y-100142436D01*
X57548000Y-100345484D01*
X57548000Y-100552516D01*
X57507611Y-100755564D01*
X57480002Y-100822218D01*
X57428384Y-100946835D01*
X57313365Y-101118973D01*
X57166973Y-101265365D01*
X56994835Y-101380384D01*
X56994834Y-101380385D01*
X56994833Y-101380385D01*
X56803564Y-101459611D01*
X56600516Y-101500000D01*
X56393484Y-101500000D01*
X56190436Y-101459611D01*
X55999167Y-101380385D01*
X55999166Y-101380385D01*
X55999165Y-101380384D01*
X55827027Y-101265365D01*
X55680635Y-101118973D01*
X55565616Y-100946835D01*
X55513998Y-100822218D01*
X55486389Y-100755564D01*
X55446000Y-100552516D01*
X55446000Y-100345484D01*
X55486389Y-100142436D01*
X55565615Y-99951167D01*
X55599804Y-99900000D01*
X55680635Y-99779027D01*
X55827027Y-99632635D01*
X55999165Y-99517616D01*
X55999167Y-99517615D01*
X56190436Y-99438389D01*
X56393484Y-99398000D01*
X56600516Y-99398000D01*
X56803564Y-99438389D01*
G37*
G36*
X46803564Y-99438389D02*
G01*
X46994833Y-99517615D01*
X46994835Y-99517616D01*
X47166973Y-99632635D01*
X47313365Y-99779027D01*
X47394197Y-99900000D01*
X47428385Y-99951167D01*
X47507611Y-100142436D01*
X47548000Y-100345484D01*
X47548000Y-100552516D01*
X47507611Y-100755564D01*
X47480002Y-100822218D01*
X47428384Y-100946835D01*
X47313365Y-101118973D01*
X47166973Y-101265365D01*
X46994835Y-101380384D01*
X46994834Y-101380385D01*
X46994833Y-101380385D01*
X46803564Y-101459611D01*
X46600516Y-101500000D01*
X46393484Y-101500000D01*
X46190436Y-101459611D01*
X45999167Y-101380385D01*
X45999166Y-101380385D01*
X45999165Y-101380384D01*
X45827027Y-101265365D01*
X45680635Y-101118973D01*
X45565616Y-100946835D01*
X45513998Y-100822218D01*
X45486389Y-100755564D01*
X45446000Y-100552516D01*
X45446000Y-100345484D01*
X45486389Y-100142436D01*
X45565615Y-99951167D01*
X45599804Y-99900000D01*
X45680635Y-99779027D01*
X45827027Y-99632635D01*
X45999165Y-99517616D01*
X45999167Y-99517615D01*
X46190436Y-99438389D01*
X46393484Y-99398000D01*
X46600516Y-99398000D01*
X46803564Y-99438389D01*
G37*
G36*
X123803564Y-97838389D02*
G01*
X123994833Y-97917615D01*
X123994835Y-97917616D01*
X124166973Y-98032635D01*
X124313365Y-98179027D01*
X124357772Y-98245486D01*
X124428385Y-98351167D01*
X124507611Y-98542436D01*
X124548000Y-98745484D01*
X124548000Y-98952516D01*
X124507611Y-99155564D01*
X124428385Y-99346833D01*
X124428384Y-99346835D01*
X124313365Y-99518973D01*
X124166973Y-99665365D01*
X123994835Y-99780384D01*
X123994834Y-99780385D01*
X123994833Y-99780385D01*
X123803564Y-99859611D01*
X123600516Y-99900000D01*
X123393484Y-99900000D01*
X123190436Y-99859611D01*
X122999167Y-99780385D01*
X122999166Y-99780385D01*
X122999165Y-99780384D01*
X122827027Y-99665365D01*
X122680635Y-99518973D01*
X122565616Y-99346835D01*
X122565615Y-99346833D01*
X122486389Y-99155564D01*
X122446000Y-98952516D01*
X122446000Y-98745484D01*
X122486389Y-98542436D01*
X122565615Y-98351167D01*
X122636229Y-98245486D01*
X122680635Y-98179027D01*
X122827027Y-98032635D01*
X122999165Y-97917616D01*
X122999167Y-97917615D01*
X123190436Y-97838389D01*
X123393484Y-97798000D01*
X123600516Y-97798000D01*
X123803564Y-97838389D01*
G37*
G36*
X51803564Y-97338389D02*
G01*
X51994833Y-97417615D01*
X51994835Y-97417616D01*
X52166973Y-97532635D01*
X52313365Y-97679027D01*
X52394676Y-97800717D01*
X52428385Y-97851167D01*
X52507611Y-98042436D01*
X52548000Y-98245484D01*
X52548000Y-98452516D01*
X52507611Y-98655564D01*
X52470365Y-98745484D01*
X52428384Y-98846835D01*
X52313365Y-99018973D01*
X52166973Y-99165365D01*
X51994835Y-99280384D01*
X51994834Y-99280385D01*
X51994833Y-99280385D01*
X51803564Y-99359611D01*
X51600516Y-99400000D01*
X51393484Y-99400000D01*
X51190436Y-99359611D01*
X50999167Y-99280385D01*
X50999166Y-99280385D01*
X50999165Y-99280384D01*
X50827027Y-99165365D01*
X50680635Y-99018973D01*
X50565616Y-98846835D01*
X50523635Y-98745484D01*
X50486389Y-98655564D01*
X50446000Y-98452516D01*
X50446000Y-98245484D01*
X50486389Y-98042436D01*
X50565615Y-97851167D01*
X50599325Y-97800717D01*
X50680635Y-97679027D01*
X50827027Y-97532635D01*
X50999165Y-97417616D01*
X50999167Y-97417615D01*
X51190436Y-97338389D01*
X51393484Y-97298000D01*
X51600516Y-97298000D01*
X51803564Y-97338389D01*
G37*
G36*
X100803564Y-96438389D02*
G01*
X100980823Y-96511812D01*
X100994835Y-96517616D01*
X101166973Y-96632635D01*
X101313365Y-96779027D01*
X101426839Y-96948852D01*
X101428385Y-96951167D01*
X101507611Y-97142436D01*
X101548000Y-97345484D01*
X101548000Y-97552516D01*
X101507611Y-97755564D01*
X101468011Y-97851167D01*
X101428384Y-97946835D01*
X101313365Y-98118973D01*
X101166973Y-98265365D01*
X100994835Y-98380384D01*
X100994834Y-98380385D01*
X100994833Y-98380385D01*
X100803564Y-98459611D01*
X100600516Y-98500000D01*
X100393484Y-98500000D01*
X100190436Y-98459611D01*
X99999167Y-98380385D01*
X99999166Y-98380385D01*
X99999165Y-98380384D01*
X99827027Y-98265365D01*
X99680635Y-98118973D01*
X99565616Y-97946835D01*
X99525989Y-97851167D01*
X99486389Y-97755564D01*
X99446000Y-97552516D01*
X99446000Y-97345484D01*
X99486389Y-97142436D01*
X99565615Y-96951167D01*
X99567162Y-96948852D01*
X99680635Y-96779027D01*
X99827027Y-96632635D01*
X99999165Y-96517616D01*
X100013177Y-96511812D01*
X100190436Y-96438389D01*
X100393484Y-96398000D01*
X100600516Y-96398000D01*
X100803564Y-96438389D01*
G37*
G36*
X74803564Y-96438389D02*
G01*
X74980823Y-96511812D01*
X74994835Y-96517616D01*
X75166973Y-96632635D01*
X75313365Y-96779027D01*
X75426839Y-96948852D01*
X75428385Y-96951167D01*
X75507611Y-97142436D01*
X75548000Y-97345484D01*
X75548000Y-97552516D01*
X75507611Y-97755564D01*
X75468011Y-97851167D01*
X75428384Y-97946835D01*
X75313365Y-98118973D01*
X75166973Y-98265365D01*
X74994835Y-98380384D01*
X74994834Y-98380385D01*
X74994833Y-98380385D01*
X74803564Y-98459611D01*
X74600516Y-98500000D01*
X74393484Y-98500000D01*
X74190436Y-98459611D01*
X73999167Y-98380385D01*
X73999166Y-98380385D01*
X73999165Y-98380384D01*
X73827027Y-98265365D01*
X73680635Y-98118973D01*
X73565616Y-97946835D01*
X73525989Y-97851167D01*
X73486389Y-97755564D01*
X73446000Y-97552516D01*
X73446000Y-97345484D01*
X73486389Y-97142436D01*
X73565615Y-96951167D01*
X73567162Y-96948852D01*
X73680635Y-96779027D01*
X73827027Y-96632635D01*
X73999165Y-96517616D01*
X74013177Y-96511812D01*
X74190436Y-96438389D01*
X74393484Y-96398000D01*
X74600516Y-96398000D01*
X74803564Y-96438389D01*
G37*
G36*
X64803564Y-96438389D02*
G01*
X64980823Y-96511812D01*
X64994835Y-96517616D01*
X65166973Y-96632635D01*
X65313365Y-96779027D01*
X65426839Y-96948852D01*
X65428385Y-96951167D01*
X65507611Y-97142436D01*
X65548000Y-97345484D01*
X65548000Y-97552516D01*
X65507611Y-97755564D01*
X65468011Y-97851167D01*
X65428384Y-97946835D01*
X65313365Y-98118973D01*
X65166973Y-98265365D01*
X64994835Y-98380384D01*
X64994834Y-98380385D01*
X64994833Y-98380385D01*
X64803564Y-98459611D01*
X64600516Y-98500000D01*
X64393484Y-98500000D01*
X64190436Y-98459611D01*
X63999167Y-98380385D01*
X63999166Y-98380385D01*
X63999165Y-98380384D01*
X63827027Y-98265365D01*
X63680635Y-98118973D01*
X63565616Y-97946835D01*
X63525989Y-97851167D01*
X63486389Y-97755564D01*
X63446000Y-97552516D01*
X63446000Y-97345484D01*
X63486389Y-97142436D01*
X63565615Y-96951167D01*
X63567162Y-96948852D01*
X63680635Y-96779027D01*
X63827027Y-96632635D01*
X63999165Y-96517616D01*
X64013177Y-96511812D01*
X64190436Y-96438389D01*
X64393484Y-96398000D01*
X64600516Y-96398000D01*
X64803564Y-96438389D01*
G37*
G36*
X110803564Y-96438389D02*
G01*
X110980823Y-96511812D01*
X110994835Y-96517616D01*
X111166973Y-96632635D01*
X111313365Y-96779027D01*
X111426839Y-96948852D01*
X111428385Y-96951167D01*
X111507611Y-97142436D01*
X111548000Y-97345484D01*
X111548000Y-97552516D01*
X111507611Y-97755564D01*
X111468011Y-97851167D01*
X111428384Y-97946835D01*
X111313365Y-98118973D01*
X111166973Y-98265365D01*
X110994835Y-98380384D01*
X110994834Y-98380385D01*
X110994833Y-98380385D01*
X110803564Y-98459611D01*
X110600516Y-98500000D01*
X110393484Y-98500000D01*
X110190436Y-98459611D01*
X109999167Y-98380385D01*
X109999166Y-98380385D01*
X109999165Y-98380384D01*
X109827027Y-98265365D01*
X109680635Y-98118973D01*
X109565616Y-97946835D01*
X109525989Y-97851167D01*
X109486389Y-97755564D01*
X109446000Y-97552516D01*
X109446000Y-97345484D01*
X109486389Y-97142436D01*
X109565615Y-96951167D01*
X109567162Y-96948852D01*
X109680635Y-96779027D01*
X109827027Y-96632635D01*
X109999165Y-96517616D01*
X110013177Y-96511812D01*
X110190436Y-96438389D01*
X110393484Y-96398000D01*
X110600516Y-96398000D01*
X110803564Y-96438389D01*
G37*
G36*
X87894985Y-94542860D02*
G01*
X88007748Y-94565290D01*
X88139741Y-94619963D01*
X88326408Y-94697283D01*
X88613196Y-94888909D01*
X88857091Y-95132804D01*
X89048717Y-95419592D01*
X89180710Y-95738253D01*
X89248000Y-96076540D01*
X89248000Y-96421460D01*
X89180710Y-96759747D01*
X89048717Y-97078408D01*
X88857091Y-97365196D01*
X88613196Y-97609091D01*
X88326408Y-97800717D01*
X88204615Y-97851165D01*
X88007748Y-97932710D01*
X87894985Y-97955140D01*
X87669460Y-98000000D01*
X87324540Y-98000000D01*
X87099015Y-97955140D01*
X86986252Y-97932710D01*
X86789385Y-97851165D01*
X86667592Y-97800717D01*
X86380804Y-97609091D01*
X86136909Y-97365196D01*
X85945283Y-97078408D01*
X85813290Y-96759747D01*
X85746000Y-96421460D01*
X85746000Y-96076540D01*
X85813290Y-95738253D01*
X85945283Y-95419592D01*
X86136909Y-95132804D01*
X86380804Y-94888909D01*
X86667592Y-94697283D01*
X86854259Y-94619963D01*
X86986252Y-94565290D01*
X87099015Y-94542860D01*
X87324540Y-94498000D01*
X87669460Y-94498000D01*
X87894985Y-94542860D01*
G37*
G36*
X93110512Y-95352927D02*
G01*
X93259812Y-95382624D01*
X93423784Y-95450544D01*
X93571354Y-95549147D01*
X93696853Y-95674646D01*
X93795456Y-95822216D01*
X93863376Y-95986188D01*
X93898000Y-96160259D01*
X93898000Y-96337741D01*
X93863376Y-96511812D01*
X93795456Y-96675784D01*
X93696853Y-96823354D01*
X93571354Y-96948853D01*
X93423784Y-97047456D01*
X93259812Y-97115376D01*
X93110512Y-97145073D01*
X93085742Y-97150000D01*
X92908258Y-97150000D01*
X92883488Y-97145073D01*
X92734188Y-97115376D01*
X92570216Y-97047456D01*
X92422646Y-96948853D01*
X92297147Y-96823354D01*
X92198544Y-96675784D01*
X92130624Y-96511812D01*
X92096000Y-96337741D01*
X92096000Y-96160259D01*
X92130624Y-95986188D01*
X92198544Y-95822216D01*
X92297147Y-95674646D01*
X92422646Y-95549147D01*
X92570216Y-95450544D01*
X92734188Y-95382624D01*
X92883488Y-95352927D01*
X92908258Y-95348000D01*
X93085742Y-95348000D01*
X93110512Y-95352927D01*
G37*
G36*
X82110512Y-95352927D02*
G01*
X82259812Y-95382624D01*
X82423784Y-95450544D01*
X82571354Y-95549147D01*
X82696853Y-95674646D01*
X82795456Y-95822216D01*
X82863376Y-95986188D01*
X82898000Y-96160259D01*
X82898000Y-96337741D01*
X82863376Y-96511812D01*
X82795456Y-96675784D01*
X82696853Y-96823354D01*
X82571354Y-96948853D01*
X82423784Y-97047456D01*
X82259812Y-97115376D01*
X82110512Y-97145073D01*
X82085742Y-97150000D01*
X81908258Y-97150000D01*
X81883488Y-97145073D01*
X81734188Y-97115376D01*
X81570216Y-97047456D01*
X81422646Y-96948853D01*
X81297147Y-96823354D01*
X81198544Y-96675784D01*
X81130624Y-96511812D01*
X81096000Y-96337741D01*
X81096000Y-96160259D01*
X81130624Y-95986188D01*
X81198544Y-95822216D01*
X81297147Y-95674646D01*
X81422646Y-95549147D01*
X81570216Y-95450544D01*
X81734188Y-95382624D01*
X81883488Y-95352927D01*
X81908258Y-95348000D01*
X82085742Y-95348000D01*
X82110512Y-95352927D01*
G37*
G36*
X105803564Y-94338389D02*
G01*
X105994833Y-94417615D01*
X105994835Y-94417616D01*
X106115138Y-94498000D01*
X106166973Y-94532635D01*
X106313365Y-94679027D01*
X106428385Y-94851167D01*
X106507611Y-95042436D01*
X106548000Y-95245484D01*
X106548000Y-95452516D01*
X106507611Y-95655564D01*
X106438581Y-95822218D01*
X106428384Y-95846835D01*
X106313365Y-96018973D01*
X106166973Y-96165365D01*
X105994835Y-96280384D01*
X105994834Y-96280385D01*
X105994833Y-96280385D01*
X105803564Y-96359611D01*
X105600516Y-96400000D01*
X105393484Y-96400000D01*
X105190436Y-96359611D01*
X104999167Y-96280385D01*
X104999166Y-96280385D01*
X104999165Y-96280384D01*
X104827027Y-96165365D01*
X104680635Y-96018973D01*
X104565616Y-95846835D01*
X104555419Y-95822218D01*
X104486389Y-95655564D01*
X104446000Y-95452516D01*
X104446000Y-95245484D01*
X104486389Y-95042436D01*
X104565615Y-94851167D01*
X104680635Y-94679027D01*
X104827027Y-94532635D01*
X104878862Y-94498000D01*
X104999165Y-94417616D01*
X104999167Y-94417615D01*
X105190436Y-94338389D01*
X105393484Y-94298000D01*
X105600516Y-94298000D01*
X105803564Y-94338389D01*
G37*
G36*
X69803564Y-94338389D02*
G01*
X69994833Y-94417615D01*
X69994835Y-94417616D01*
X70115138Y-94498000D01*
X70166973Y-94532635D01*
X70313365Y-94679027D01*
X70428385Y-94851167D01*
X70507611Y-95042436D01*
X70548000Y-95245484D01*
X70548000Y-95452516D01*
X70507611Y-95655564D01*
X70438581Y-95822218D01*
X70428384Y-95846835D01*
X70313365Y-96018973D01*
X70166973Y-96165365D01*
X69994835Y-96280384D01*
X69994834Y-96280385D01*
X69994833Y-96280385D01*
X69803564Y-96359611D01*
X69600516Y-96400000D01*
X69393484Y-96400000D01*
X69190436Y-96359611D01*
X68999167Y-96280385D01*
X68999166Y-96280385D01*
X68999165Y-96280384D01*
X68827027Y-96165365D01*
X68680635Y-96018973D01*
X68565616Y-95846835D01*
X68555419Y-95822218D01*
X68486389Y-95655564D01*
X68446000Y-95452516D01*
X68446000Y-95245484D01*
X68486389Y-95042436D01*
X68565615Y-94851167D01*
X68680635Y-94679027D01*
X68827027Y-94532635D01*
X68878862Y-94498000D01*
X68999165Y-94417616D01*
X68999167Y-94417615D01*
X69190436Y-94338389D01*
X69393484Y-94298000D01*
X69600516Y-94298000D01*
X69803564Y-94338389D01*
G37*
G36*
X82803564Y-91438389D02*
G01*
X82994833Y-91517615D01*
X82994835Y-91517616D01*
X83166973Y-91632635D01*
X83313365Y-91779027D01*
X83428385Y-91951167D01*
X83507611Y-92142436D01*
X83548000Y-92345484D01*
X83548000Y-92552516D01*
X83507611Y-92755564D01*
X83428385Y-92946833D01*
X83428384Y-92946835D01*
X83313365Y-93118973D01*
X83166973Y-93265365D01*
X82994835Y-93380384D01*
X82994834Y-93380385D01*
X82994833Y-93380385D01*
X82803564Y-93459611D01*
X82600516Y-93500000D01*
X82393484Y-93500000D01*
X82190436Y-93459611D01*
X81999167Y-93380385D01*
X81999166Y-93380385D01*
X81999165Y-93380384D01*
X81827027Y-93265365D01*
X81680635Y-93118973D01*
X81565616Y-92946835D01*
X81565615Y-92946833D01*
X81486389Y-92755564D01*
X81446000Y-92552516D01*
X81446000Y-92345484D01*
X81486389Y-92142436D01*
X81565615Y-91951167D01*
X81680635Y-91779027D01*
X81827027Y-91632635D01*
X81999165Y-91517616D01*
X81999167Y-91517615D01*
X82190436Y-91438389D01*
X82393484Y-91398000D01*
X82600516Y-91398000D01*
X82803564Y-91438389D01*
G37*
G36*
X92803564Y-91438389D02*
G01*
X92994833Y-91517615D01*
X92994835Y-91517616D01*
X93166973Y-91632635D01*
X93313365Y-91779027D01*
X93428385Y-91951167D01*
X93507611Y-92142436D01*
X93548000Y-92345484D01*
X93548000Y-92552516D01*
X93507611Y-92755564D01*
X93428385Y-92946833D01*
X93428384Y-92946835D01*
X93313365Y-93118973D01*
X93166973Y-93265365D01*
X92994835Y-93380384D01*
X92994834Y-93380385D01*
X92994833Y-93380385D01*
X92803564Y-93459611D01*
X92600516Y-93500000D01*
X92393484Y-93500000D01*
X92190436Y-93459611D01*
X91999167Y-93380385D01*
X91999166Y-93380385D01*
X91999165Y-93380384D01*
X91827027Y-93265365D01*
X91680635Y-93118973D01*
X91565616Y-92946835D01*
X91565615Y-92946833D01*
X91486389Y-92755564D01*
X91446000Y-92552516D01*
X91446000Y-92345484D01*
X91486389Y-92142436D01*
X91565615Y-91951167D01*
X91680635Y-91779027D01*
X91827027Y-91632635D01*
X91999165Y-91517616D01*
X91999167Y-91517615D01*
X92190436Y-91438389D01*
X92393484Y-91398000D01*
X92600516Y-91398000D01*
X92803564Y-91438389D01*
G37*
G36*
X87803564Y-89338389D02*
G01*
X87994833Y-89417615D01*
X87994835Y-89417616D01*
X88118131Y-89500000D01*
X88166973Y-89532635D01*
X88313365Y-89679027D01*
X88428385Y-89851167D01*
X88507611Y-90042436D01*
X88548000Y-90245484D01*
X88548000Y-90452516D01*
X88507611Y-90655564D01*
X88428385Y-90846833D01*
X88428384Y-90846835D01*
X88313365Y-91018973D01*
X88166973Y-91165365D01*
X87994835Y-91280384D01*
X87994834Y-91280385D01*
X87994833Y-91280385D01*
X87803564Y-91359611D01*
X87600516Y-91400000D01*
X87393484Y-91400000D01*
X87190436Y-91359611D01*
X86999167Y-91280385D01*
X86999166Y-91280385D01*
X86999165Y-91280384D01*
X86827027Y-91165365D01*
X86680635Y-91018973D01*
X86565616Y-90846835D01*
X86565615Y-90846833D01*
X86486389Y-90655564D01*
X86446000Y-90452516D01*
X86446000Y-90245484D01*
X86486389Y-90042436D01*
X86565615Y-89851167D01*
X86680635Y-89679027D01*
X86827027Y-89532635D01*
X86875869Y-89500000D01*
X86999165Y-89417616D01*
X86999167Y-89417615D01*
X87190436Y-89338389D01*
X87393484Y-89298000D01*
X87600516Y-89298000D01*
X87803564Y-89338389D01*
G37*
G36*
X123894985Y-86042860D02*
G01*
X124007748Y-86065290D01*
X124139741Y-86119963D01*
X124326408Y-86197283D01*
X124613196Y-86388909D01*
X124857091Y-86632804D01*
X125048717Y-86919592D01*
X125180710Y-87238253D01*
X125248000Y-87576540D01*
X125248000Y-87921460D01*
X125180710Y-88259747D01*
X125048717Y-88578408D01*
X124857091Y-88865196D01*
X124613196Y-89109091D01*
X124326408Y-89300717D01*
X124139741Y-89378037D01*
X124007748Y-89432710D01*
X123894985Y-89455140D01*
X123669460Y-89500000D01*
X123324540Y-89500000D01*
X123099015Y-89455140D01*
X122986252Y-89432710D01*
X122854259Y-89378037D01*
X122667592Y-89300717D01*
X122380804Y-89109091D01*
X122136909Y-88865196D01*
X121945283Y-88578408D01*
X121813290Y-88259747D01*
X121746000Y-87921460D01*
X121746000Y-87576540D01*
X121813290Y-87238253D01*
X121945283Y-86919592D01*
X122136909Y-86632804D01*
X122380804Y-86388909D01*
X122667592Y-86197283D01*
X122854259Y-86119963D01*
X122986252Y-86065290D01*
X123099015Y-86042860D01*
X123324540Y-85998000D01*
X123669460Y-85998000D01*
X123894985Y-86042860D01*
G37*
G36*
X51894985Y-85542860D02*
G01*
X52007748Y-85565290D01*
X52113490Y-85609090D01*
X52326408Y-85697283D01*
X52613196Y-85888909D01*
X52857091Y-86132804D01*
X53048717Y-86419592D01*
X53180710Y-86738253D01*
X53248000Y-87076540D01*
X53248000Y-87421460D01*
X53180710Y-87759747D01*
X53048717Y-88078408D01*
X52857091Y-88365196D01*
X52613196Y-88609091D01*
X52326408Y-88800717D01*
X52139741Y-88878037D01*
X52007748Y-88932710D01*
X51894985Y-88955140D01*
X51669460Y-89000000D01*
X51324540Y-89000000D01*
X51099015Y-88955140D01*
X50986252Y-88932710D01*
X50854259Y-88878037D01*
X50667592Y-88800717D01*
X50380804Y-88609091D01*
X50136909Y-88365196D01*
X49945283Y-88078408D01*
X49813290Y-87759747D01*
X49746000Y-87421460D01*
X49746000Y-87076540D01*
X49813290Y-86738253D01*
X49945283Y-86419592D01*
X50136909Y-86132804D01*
X50380804Y-85888909D01*
X50667592Y-85697283D01*
X50880510Y-85609090D01*
X50986252Y-85565290D01*
X51099015Y-85542860D01*
X51324540Y-85498000D01*
X51669460Y-85498000D01*
X51894985Y-85542860D01*
G37*
G36*
X129110512Y-86852927D02*
G01*
X129259812Y-86882624D01*
X129423784Y-86950544D01*
X129571354Y-87049147D01*
X129696853Y-87174646D01*
X129795456Y-87322216D01*
X129863376Y-87486188D01*
X129898000Y-87660259D01*
X129898000Y-87837741D01*
X129863376Y-88011812D01*
X129795456Y-88175784D01*
X129696853Y-88323354D01*
X129571354Y-88448853D01*
X129423784Y-88547456D01*
X129259812Y-88615376D01*
X129110512Y-88645073D01*
X129085742Y-88650000D01*
X128908258Y-88650000D01*
X128883488Y-88645073D01*
X128734188Y-88615376D01*
X128570216Y-88547456D01*
X128422646Y-88448853D01*
X128297147Y-88323354D01*
X128198544Y-88175784D01*
X128130624Y-88011812D01*
X128096000Y-87837741D01*
X128096000Y-87660259D01*
X128130624Y-87486188D01*
X128198544Y-87322216D01*
X128297147Y-87174646D01*
X128422646Y-87049147D01*
X128570216Y-86950544D01*
X128734188Y-86882624D01*
X128883488Y-86852927D01*
X128908258Y-86848000D01*
X129085742Y-86848000D01*
X129110512Y-86852927D01*
G37*
G36*
X118110512Y-86852927D02*
G01*
X118259812Y-86882624D01*
X118423784Y-86950544D01*
X118571354Y-87049147D01*
X118696853Y-87174646D01*
X118795456Y-87322216D01*
X118863376Y-87486188D01*
X118898000Y-87660259D01*
X118898000Y-87837741D01*
X118863376Y-88011812D01*
X118795456Y-88175784D01*
X118696853Y-88323354D01*
X118571354Y-88448853D01*
X118423784Y-88547456D01*
X118259812Y-88615376D01*
X118110512Y-88645073D01*
X118085742Y-88650000D01*
X117908258Y-88650000D01*
X117883488Y-88645073D01*
X117734188Y-88615376D01*
X117570216Y-88547456D01*
X117422646Y-88448853D01*
X117297147Y-88323354D01*
X117198544Y-88175784D01*
X117130624Y-88011812D01*
X117096000Y-87837741D01*
X117096000Y-87660259D01*
X117130624Y-87486188D01*
X117198544Y-87322216D01*
X117297147Y-87174646D01*
X117422646Y-87049147D01*
X117570216Y-86950544D01*
X117734188Y-86882624D01*
X117883488Y-86852927D01*
X117908258Y-86848000D01*
X118085742Y-86848000D01*
X118110512Y-86852927D01*
G37*
G36*
X57110512Y-86352927D02*
G01*
X57259812Y-86382624D01*
X57423784Y-86450544D01*
X57571354Y-86549147D01*
X57696853Y-86674646D01*
X57795456Y-86822216D01*
X57863376Y-86986188D01*
X57898000Y-87160259D01*
X57898000Y-87337741D01*
X57863376Y-87511812D01*
X57795456Y-87675784D01*
X57696853Y-87823354D01*
X57571354Y-87948853D01*
X57423784Y-88047456D01*
X57259812Y-88115376D01*
X57110512Y-88145073D01*
X57085742Y-88150000D01*
X56908258Y-88150000D01*
X56883488Y-88145073D01*
X56734188Y-88115376D01*
X56570216Y-88047456D01*
X56422646Y-87948853D01*
X56297147Y-87823354D01*
X56198544Y-87675784D01*
X56130624Y-87511812D01*
X56096000Y-87337741D01*
X56096000Y-87160259D01*
X56130624Y-86986188D01*
X56198544Y-86822216D01*
X56297147Y-86674646D01*
X56422646Y-86549147D01*
X56570216Y-86450544D01*
X56734188Y-86382624D01*
X56883488Y-86352927D01*
X56908258Y-86348000D01*
X57085742Y-86348000D01*
X57110512Y-86352927D01*
G37*
G36*
X46110512Y-86352927D02*
G01*
X46259812Y-86382624D01*
X46423784Y-86450544D01*
X46571354Y-86549147D01*
X46696853Y-86674646D01*
X46795456Y-86822216D01*
X46863376Y-86986188D01*
X46898000Y-87160259D01*
X46898000Y-87337741D01*
X46863376Y-87511812D01*
X46795456Y-87675784D01*
X46696853Y-87823354D01*
X46571354Y-87948853D01*
X46423784Y-88047456D01*
X46259812Y-88115376D01*
X46110512Y-88145073D01*
X46085742Y-88150000D01*
X45908258Y-88150000D01*
X45883488Y-88145073D01*
X45734188Y-88115376D01*
X45570216Y-88047456D01*
X45422646Y-87948853D01*
X45297147Y-87823354D01*
X45198544Y-87675784D01*
X45130624Y-87511812D01*
X45096000Y-87337741D01*
X45096000Y-87160259D01*
X45130624Y-86986188D01*
X45198544Y-86822216D01*
X45297147Y-86674646D01*
X45422646Y-86549147D01*
X45570216Y-86450544D01*
X45734188Y-86382624D01*
X45883488Y-86352927D01*
X45908258Y-86348000D01*
X46085742Y-86348000D01*
X46110512Y-86352927D01*
G37*
G36*
X105894985Y-82542860D02*
G01*
X106007748Y-82565290D01*
X106139741Y-82619963D01*
X106326408Y-82697283D01*
X106613196Y-82888909D01*
X106857091Y-83132804D01*
X107048717Y-83419592D01*
X107126037Y-83606259D01*
X107180710Y-83738252D01*
X107184154Y-83755565D01*
X107248000Y-84076540D01*
X107248000Y-84421460D01*
X107180710Y-84759747D01*
X107048717Y-85078408D01*
X106857091Y-85365196D01*
X106613196Y-85609091D01*
X106326408Y-85800717D01*
X106139741Y-85878037D01*
X106007748Y-85932710D01*
X105894985Y-85955140D01*
X105669460Y-86000000D01*
X105324540Y-86000000D01*
X105099015Y-85955140D01*
X104986252Y-85932710D01*
X104854259Y-85878037D01*
X104667592Y-85800717D01*
X104380804Y-85609091D01*
X104136909Y-85365196D01*
X103945283Y-85078408D01*
X103813290Y-84759747D01*
X103746000Y-84421460D01*
X103746000Y-84076540D01*
X103809846Y-83755565D01*
X103813290Y-83738252D01*
X103867963Y-83606259D01*
X103945283Y-83419592D01*
X104136909Y-83132804D01*
X104380804Y-82888909D01*
X104667592Y-82697283D01*
X104854259Y-82619963D01*
X104986252Y-82565290D01*
X105099015Y-82542860D01*
X105324540Y-82498000D01*
X105669460Y-82498000D01*
X105894985Y-82542860D01*
G37*
G36*
X69894985Y-82542860D02*
G01*
X70007748Y-82565290D01*
X70139741Y-82619963D01*
X70326408Y-82697283D01*
X70613196Y-82888909D01*
X70857091Y-83132804D01*
X71048717Y-83419592D01*
X71126037Y-83606259D01*
X71180710Y-83738252D01*
X71184154Y-83755565D01*
X71248000Y-84076540D01*
X71248000Y-84421460D01*
X71180710Y-84759747D01*
X71048717Y-85078408D01*
X70857091Y-85365196D01*
X70613196Y-85609091D01*
X70326408Y-85800717D01*
X70139741Y-85878037D01*
X70007748Y-85932710D01*
X69894985Y-85955140D01*
X69669460Y-86000000D01*
X69324540Y-86000000D01*
X69099015Y-85955140D01*
X68986252Y-85932710D01*
X68854259Y-85878037D01*
X68667592Y-85800717D01*
X68380804Y-85609091D01*
X68136909Y-85365196D01*
X67945283Y-85078408D01*
X67813290Y-84759747D01*
X67746000Y-84421460D01*
X67746000Y-84076540D01*
X67809846Y-83755565D01*
X67813290Y-83738252D01*
X67867963Y-83606259D01*
X67945283Y-83419592D01*
X68136909Y-83132804D01*
X68380804Y-82888909D01*
X68667592Y-82697283D01*
X68854259Y-82619963D01*
X68986252Y-82565290D01*
X69099015Y-82542860D01*
X69324540Y-82498000D01*
X69669460Y-82498000D01*
X69894985Y-82542860D01*
G37*
G36*
X100110512Y-83352927D02*
G01*
X100259812Y-83382624D01*
X100423784Y-83450544D01*
X100571354Y-83549147D01*
X100696853Y-83674646D01*
X100795456Y-83822216D01*
X100863376Y-83986188D01*
X100898000Y-84160259D01*
X100898000Y-84337741D01*
X100863376Y-84511812D01*
X100795456Y-84675784D01*
X100696853Y-84823354D01*
X100571354Y-84948853D01*
X100423784Y-85047456D01*
X100259812Y-85115376D01*
X100110512Y-85145073D01*
X100085742Y-85150000D01*
X99908258Y-85150000D01*
X99883488Y-85145073D01*
X99734188Y-85115376D01*
X99570216Y-85047456D01*
X99422646Y-84948853D01*
X99297147Y-84823354D01*
X99198544Y-84675784D01*
X99130624Y-84511812D01*
X99096000Y-84337741D01*
X99096000Y-84160259D01*
X99130624Y-83986188D01*
X99198544Y-83822216D01*
X99297147Y-83674646D01*
X99422646Y-83549147D01*
X99570216Y-83450544D01*
X99734188Y-83382624D01*
X99883488Y-83352927D01*
X99908258Y-83348000D01*
X100085742Y-83348000D01*
X100110512Y-83352927D01*
G37*
G36*
X111110512Y-83352927D02*
G01*
X111259812Y-83382624D01*
X111423784Y-83450544D01*
X111571354Y-83549147D01*
X111696853Y-83674646D01*
X111795456Y-83822216D01*
X111863376Y-83986188D01*
X111898000Y-84160259D01*
X111898000Y-84337741D01*
X111863376Y-84511812D01*
X111795456Y-84675784D01*
X111696853Y-84823354D01*
X111571354Y-84948853D01*
X111423784Y-85047456D01*
X111259812Y-85115376D01*
X111110512Y-85145073D01*
X111085742Y-85150000D01*
X110908258Y-85150000D01*
X110883488Y-85145073D01*
X110734188Y-85115376D01*
X110570216Y-85047456D01*
X110422646Y-84948853D01*
X110297147Y-84823354D01*
X110198544Y-84675784D01*
X110130624Y-84511812D01*
X110096000Y-84337741D01*
X110096000Y-84160259D01*
X110130624Y-83986188D01*
X110198544Y-83822216D01*
X110297147Y-83674646D01*
X110422646Y-83549147D01*
X110570216Y-83450544D01*
X110734188Y-83382624D01*
X110883488Y-83352927D01*
X110908258Y-83348000D01*
X111085742Y-83348000D01*
X111110512Y-83352927D01*
G37*
G36*
X64110512Y-83352927D02*
G01*
X64259812Y-83382624D01*
X64423784Y-83450544D01*
X64571354Y-83549147D01*
X64696853Y-83674646D01*
X64795456Y-83822216D01*
X64863376Y-83986188D01*
X64898000Y-84160259D01*
X64898000Y-84337741D01*
X64863376Y-84511812D01*
X64795456Y-84675784D01*
X64696853Y-84823354D01*
X64571354Y-84948853D01*
X64423784Y-85047456D01*
X64259812Y-85115376D01*
X64110512Y-85145073D01*
X64085742Y-85150000D01*
X63908258Y-85150000D01*
X63883488Y-85145073D01*
X63734188Y-85115376D01*
X63570216Y-85047456D01*
X63422646Y-84948853D01*
X63297147Y-84823354D01*
X63198544Y-84675784D01*
X63130624Y-84511812D01*
X63096000Y-84337741D01*
X63096000Y-84160259D01*
X63130624Y-83986188D01*
X63198544Y-83822216D01*
X63297147Y-83674646D01*
X63422646Y-83549147D01*
X63570216Y-83450544D01*
X63734188Y-83382624D01*
X63883488Y-83352927D01*
X63908258Y-83348000D01*
X64085742Y-83348000D01*
X64110512Y-83352927D01*
G37*
G36*
X75110512Y-83352927D02*
G01*
X75259812Y-83382624D01*
X75423784Y-83450544D01*
X75571354Y-83549147D01*
X75696853Y-83674646D01*
X75795456Y-83822216D01*
X75863376Y-83986188D01*
X75898000Y-84160259D01*
X75898000Y-84337741D01*
X75863376Y-84511812D01*
X75795456Y-84675784D01*
X75696853Y-84823354D01*
X75571354Y-84948853D01*
X75423784Y-85047456D01*
X75259812Y-85115376D01*
X75110512Y-85145073D01*
X75085742Y-85150000D01*
X74908258Y-85150000D01*
X74883488Y-85145073D01*
X74734188Y-85115376D01*
X74570216Y-85047456D01*
X74422646Y-84948853D01*
X74297147Y-84823354D01*
X74198544Y-84675784D01*
X74130624Y-84511812D01*
X74096000Y-84337741D01*
X74096000Y-84160259D01*
X74130624Y-83986188D01*
X74198544Y-83822216D01*
X74297147Y-83674646D01*
X74422646Y-83549147D01*
X74570216Y-83450544D01*
X74734188Y-83382624D01*
X74883488Y-83352927D01*
X74908258Y-83348000D01*
X75085742Y-83348000D01*
X75110512Y-83352927D01*
G37*
G36*
X118803564Y-82938389D02*
G01*
X118994833Y-83017615D01*
X118994835Y-83017616D01*
X119166973Y-83132635D01*
X119313365Y-83279027D01*
X119407288Y-83419592D01*
X119428385Y-83451167D01*
X119507611Y-83642436D01*
X119548000Y-83845484D01*
X119548000Y-84052516D01*
X119507611Y-84255564D01*
X119438895Y-84421460D01*
X119428384Y-84446835D01*
X119313365Y-84618973D01*
X119166973Y-84765365D01*
X118994835Y-84880384D01*
X118994834Y-84880385D01*
X118994833Y-84880385D01*
X118803564Y-84959611D01*
X118600516Y-85000000D01*
X118393484Y-85000000D01*
X118190436Y-84959611D01*
X117999167Y-84880385D01*
X117999166Y-84880385D01*
X117999165Y-84880384D01*
X117827027Y-84765365D01*
X117680635Y-84618973D01*
X117565616Y-84446835D01*
X117555105Y-84421460D01*
X117486389Y-84255564D01*
X117446000Y-84052516D01*
X117446000Y-83845484D01*
X117486389Y-83642436D01*
X117565615Y-83451167D01*
X117586713Y-83419592D01*
X117680635Y-83279027D01*
X117827027Y-83132635D01*
X117999165Y-83017616D01*
X117999167Y-83017615D01*
X118190436Y-82938389D01*
X118393484Y-82898000D01*
X118600516Y-82898000D01*
X118803564Y-82938389D01*
G37*
G36*
X128803564Y-82938389D02*
G01*
X128994833Y-83017615D01*
X128994835Y-83017616D01*
X129166973Y-83132635D01*
X129313365Y-83279027D01*
X129407288Y-83419592D01*
X129428385Y-83451167D01*
X129507611Y-83642436D01*
X129548000Y-83845484D01*
X129548000Y-84052516D01*
X129507611Y-84255564D01*
X129438895Y-84421460D01*
X129428384Y-84446835D01*
X129313365Y-84618973D01*
X129166973Y-84765365D01*
X128994835Y-84880384D01*
X128994834Y-84880385D01*
X128994833Y-84880385D01*
X128803564Y-84959611D01*
X128600516Y-85000000D01*
X128393484Y-85000000D01*
X128190436Y-84959611D01*
X127999167Y-84880385D01*
X127999166Y-84880385D01*
X127999165Y-84880384D01*
X127827027Y-84765365D01*
X127680635Y-84618973D01*
X127565616Y-84446835D01*
X127555105Y-84421460D01*
X127486389Y-84255564D01*
X127446000Y-84052516D01*
X127446000Y-83845484D01*
X127486389Y-83642436D01*
X127565615Y-83451167D01*
X127586713Y-83419592D01*
X127680635Y-83279027D01*
X127827027Y-83132635D01*
X127999165Y-83017616D01*
X127999167Y-83017615D01*
X128190436Y-82938389D01*
X128393484Y-82898000D01*
X128600516Y-82898000D01*
X128803564Y-82938389D01*
G37*
G36*
X46803564Y-82438389D02*
G01*
X46994833Y-82517615D01*
X46994835Y-82517616D01*
X47166973Y-82632635D01*
X47313365Y-82779027D01*
X47394197Y-82900000D01*
X47428385Y-82951167D01*
X47507611Y-83142436D01*
X47548000Y-83345484D01*
X47548000Y-83552516D01*
X47507611Y-83755564D01*
X47480002Y-83822218D01*
X47428384Y-83946835D01*
X47313365Y-84118973D01*
X47166973Y-84265365D01*
X46994835Y-84380384D01*
X46994834Y-84380385D01*
X46994833Y-84380385D01*
X46803564Y-84459611D01*
X46600516Y-84500000D01*
X46393484Y-84500000D01*
X46190436Y-84459611D01*
X45999167Y-84380385D01*
X45999166Y-84380385D01*
X45999165Y-84380384D01*
X45827027Y-84265365D01*
X45680635Y-84118973D01*
X45565616Y-83946835D01*
X45513998Y-83822218D01*
X45486389Y-83755564D01*
X45446000Y-83552516D01*
X45446000Y-83345484D01*
X45486389Y-83142436D01*
X45565615Y-82951167D01*
X45599804Y-82900000D01*
X45680635Y-82779027D01*
X45827027Y-82632635D01*
X45999165Y-82517616D01*
X45999167Y-82517615D01*
X46190436Y-82438389D01*
X46393484Y-82398000D01*
X46600516Y-82398000D01*
X46803564Y-82438389D01*
G37*
G36*
X56803564Y-82438389D02*
G01*
X56994833Y-82517615D01*
X56994835Y-82517616D01*
X57166973Y-82632635D01*
X57313365Y-82779027D01*
X57394197Y-82900000D01*
X57428385Y-82951167D01*
X57507611Y-83142436D01*
X57548000Y-83345484D01*
X57548000Y-83552516D01*
X57507611Y-83755564D01*
X57480002Y-83822218D01*
X57428384Y-83946835D01*
X57313365Y-84118973D01*
X57166973Y-84265365D01*
X56994835Y-84380384D01*
X56994834Y-84380385D01*
X56994833Y-84380385D01*
X56803564Y-84459611D01*
X56600516Y-84500000D01*
X56393484Y-84500000D01*
X56190436Y-84459611D01*
X55999167Y-84380385D01*
X55999166Y-84380385D01*
X55999165Y-84380384D01*
X55827027Y-84265365D01*
X55680635Y-84118973D01*
X55565616Y-83946835D01*
X55513998Y-83822218D01*
X55486389Y-83755564D01*
X55446000Y-83552516D01*
X55446000Y-83345484D01*
X55486389Y-83142436D01*
X55565615Y-82951167D01*
X55599804Y-82900000D01*
X55680635Y-82779027D01*
X55827027Y-82632635D01*
X55999165Y-82517616D01*
X55999167Y-82517615D01*
X56190436Y-82438389D01*
X56393484Y-82398000D01*
X56600516Y-82398000D01*
X56803564Y-82438389D01*
G37*
G36*
X123803564Y-80838389D02*
G01*
X123994833Y-80917615D01*
X123994835Y-80917616D01*
X124166973Y-81032635D01*
X124313365Y-81179027D01*
X124357772Y-81245486D01*
X124428385Y-81351167D01*
X124507611Y-81542436D01*
X124548000Y-81745484D01*
X124548000Y-81952516D01*
X124507611Y-82155564D01*
X124428385Y-82346833D01*
X124428384Y-82346835D01*
X124313365Y-82518973D01*
X124166973Y-82665365D01*
X123994835Y-82780384D01*
X123994834Y-82780385D01*
X123994833Y-82780385D01*
X123803564Y-82859611D01*
X123600516Y-82900000D01*
X123393484Y-82900000D01*
X123190436Y-82859611D01*
X122999167Y-82780385D01*
X122999166Y-82780385D01*
X122999165Y-82780384D01*
X122827027Y-82665365D01*
X122680635Y-82518973D01*
X122565616Y-82346835D01*
X122565615Y-82346833D01*
X122486389Y-82155564D01*
X122446000Y-81952516D01*
X122446000Y-81745484D01*
X122486389Y-81542436D01*
X122565615Y-81351167D01*
X122636229Y-81245486D01*
X122680635Y-81179027D01*
X122827027Y-81032635D01*
X122999165Y-80917616D01*
X122999167Y-80917615D01*
X123190436Y-80838389D01*
X123393484Y-80798000D01*
X123600516Y-80798000D01*
X123803564Y-80838389D01*
G37*
G36*
X51803564Y-80338389D02*
G01*
X51994833Y-80417615D01*
X51994835Y-80417616D01*
X52166973Y-80532635D01*
X52313365Y-80679027D01*
X52394676Y-80800717D01*
X52428385Y-80851167D01*
X52507611Y-81042436D01*
X52548000Y-81245484D01*
X52548000Y-81452516D01*
X52507611Y-81655564D01*
X52470365Y-81745484D01*
X52428384Y-81846835D01*
X52313365Y-82018973D01*
X52166973Y-82165365D01*
X51994835Y-82280384D01*
X51994834Y-82280385D01*
X51994833Y-82280385D01*
X51803564Y-82359611D01*
X51600516Y-82400000D01*
X51393484Y-82400000D01*
X51190436Y-82359611D01*
X50999167Y-82280385D01*
X50999166Y-82280385D01*
X50999165Y-82280384D01*
X50827027Y-82165365D01*
X50680635Y-82018973D01*
X50565616Y-81846835D01*
X50523635Y-81745484D01*
X50486389Y-81655564D01*
X50446000Y-81452516D01*
X50446000Y-81245484D01*
X50486389Y-81042436D01*
X50565615Y-80851167D01*
X50599325Y-80800717D01*
X50680635Y-80679027D01*
X50827027Y-80532635D01*
X50999165Y-80417616D01*
X50999167Y-80417615D01*
X51190436Y-80338389D01*
X51393484Y-80298000D01*
X51600516Y-80298000D01*
X51803564Y-80338389D01*
G37*
G36*
X100803564Y-79438389D02*
G01*
X100980823Y-79511812D01*
X100994835Y-79517616D01*
X101166973Y-79632635D01*
X101313365Y-79779027D01*
X101426839Y-79948852D01*
X101428385Y-79951167D01*
X101507611Y-80142436D01*
X101548000Y-80345484D01*
X101548000Y-80552516D01*
X101507611Y-80755564D01*
X101468011Y-80851167D01*
X101428384Y-80946835D01*
X101313365Y-81118973D01*
X101166973Y-81265365D01*
X100994835Y-81380384D01*
X100994834Y-81380385D01*
X100994833Y-81380385D01*
X100803564Y-81459611D01*
X100600516Y-81500000D01*
X100393484Y-81500000D01*
X100190436Y-81459611D01*
X99999167Y-81380385D01*
X99999166Y-81380385D01*
X99999165Y-81380384D01*
X99827027Y-81265365D01*
X99680635Y-81118973D01*
X99565616Y-80946835D01*
X99525989Y-80851167D01*
X99486389Y-80755564D01*
X99446000Y-80552516D01*
X99446000Y-80345484D01*
X99486389Y-80142436D01*
X99565615Y-79951167D01*
X99567162Y-79948852D01*
X99680635Y-79779027D01*
X99827027Y-79632635D01*
X99999165Y-79517616D01*
X100013177Y-79511812D01*
X100190436Y-79438389D01*
X100393484Y-79398000D01*
X100600516Y-79398000D01*
X100803564Y-79438389D01*
G37*
G36*
X64803564Y-79438389D02*
G01*
X64980823Y-79511812D01*
X64994835Y-79517616D01*
X65166973Y-79632635D01*
X65313365Y-79779027D01*
X65426839Y-79948852D01*
X65428385Y-79951167D01*
X65507611Y-80142436D01*
X65548000Y-80345484D01*
X65548000Y-80552516D01*
X65507611Y-80755564D01*
X65468011Y-80851167D01*
X65428384Y-80946835D01*
X65313365Y-81118973D01*
X65166973Y-81265365D01*
X64994835Y-81380384D01*
X64994834Y-81380385D01*
X64994833Y-81380385D01*
X64803564Y-81459611D01*
X64600516Y-81500000D01*
X64393484Y-81500000D01*
X64190436Y-81459611D01*
X63999167Y-81380385D01*
X63999166Y-81380385D01*
X63999165Y-81380384D01*
X63827027Y-81265365D01*
X63680635Y-81118973D01*
X63565616Y-80946835D01*
X63525989Y-80851167D01*
X63486389Y-80755564D01*
X63446000Y-80552516D01*
X63446000Y-80345484D01*
X63486389Y-80142436D01*
X63565615Y-79951167D01*
X63567162Y-79948852D01*
X63680635Y-79779027D01*
X63827027Y-79632635D01*
X63999165Y-79517616D01*
X64013177Y-79511812D01*
X64190436Y-79438389D01*
X64393484Y-79398000D01*
X64600516Y-79398000D01*
X64803564Y-79438389D01*
G37*
G36*
X74803564Y-79438389D02*
G01*
X74980823Y-79511812D01*
X74994835Y-79517616D01*
X75166973Y-79632635D01*
X75313365Y-79779027D01*
X75426839Y-79948852D01*
X75428385Y-79951167D01*
X75507611Y-80142436D01*
X75548000Y-80345484D01*
X75548000Y-80552516D01*
X75507611Y-80755564D01*
X75468011Y-80851167D01*
X75428384Y-80946835D01*
X75313365Y-81118973D01*
X75166973Y-81265365D01*
X74994835Y-81380384D01*
X74994834Y-81380385D01*
X74994833Y-81380385D01*
X74803564Y-81459611D01*
X74600516Y-81500000D01*
X74393484Y-81500000D01*
X74190436Y-81459611D01*
X73999167Y-81380385D01*
X73999166Y-81380385D01*
X73999165Y-81380384D01*
X73827027Y-81265365D01*
X73680635Y-81118973D01*
X73565616Y-80946835D01*
X73525989Y-80851167D01*
X73486389Y-80755564D01*
X73446000Y-80552516D01*
X73446000Y-80345484D01*
X73486389Y-80142436D01*
X73565615Y-79951167D01*
X73567162Y-79948852D01*
X73680635Y-79779027D01*
X73827027Y-79632635D01*
X73999165Y-79517616D01*
X74013177Y-79511812D01*
X74190436Y-79438389D01*
X74393484Y-79398000D01*
X74600516Y-79398000D01*
X74803564Y-79438389D01*
G37*
G36*
X110803564Y-79438389D02*
G01*
X110980823Y-79511812D01*
X110994835Y-79517616D01*
X111166973Y-79632635D01*
X111313365Y-79779027D01*
X111426839Y-79948852D01*
X111428385Y-79951167D01*
X111507611Y-80142436D01*
X111548000Y-80345484D01*
X111548000Y-80552516D01*
X111507611Y-80755564D01*
X111468011Y-80851167D01*
X111428384Y-80946835D01*
X111313365Y-81118973D01*
X111166973Y-81265365D01*
X110994835Y-81380384D01*
X110994834Y-81380385D01*
X110994833Y-81380385D01*
X110803564Y-81459611D01*
X110600516Y-81500000D01*
X110393484Y-81500000D01*
X110190436Y-81459611D01*
X109999167Y-81380385D01*
X109999166Y-81380385D01*
X109999165Y-81380384D01*
X109827027Y-81265365D01*
X109680635Y-81118973D01*
X109565616Y-80946835D01*
X109525989Y-80851167D01*
X109486389Y-80755564D01*
X109446000Y-80552516D01*
X109446000Y-80345484D01*
X109486389Y-80142436D01*
X109565615Y-79951167D01*
X109567162Y-79948852D01*
X109680635Y-79779027D01*
X109827027Y-79632635D01*
X109999165Y-79517616D01*
X110013177Y-79511812D01*
X110190436Y-79438389D01*
X110393484Y-79398000D01*
X110600516Y-79398000D01*
X110803564Y-79438389D01*
G37*
G36*
X87894985Y-77542860D02*
G01*
X88007748Y-77565290D01*
X88139741Y-77619963D01*
X88326408Y-77697283D01*
X88613196Y-77888909D01*
X88857091Y-78132804D01*
X89048717Y-78419592D01*
X89180710Y-78738253D01*
X89248000Y-79076540D01*
X89248000Y-79421460D01*
X89180710Y-79759747D01*
X89048717Y-80078408D01*
X88857091Y-80365196D01*
X88613196Y-80609091D01*
X88326408Y-80800717D01*
X88204615Y-80851165D01*
X88007748Y-80932710D01*
X87894985Y-80955140D01*
X87669460Y-81000000D01*
X87324540Y-81000000D01*
X87099015Y-80955140D01*
X86986252Y-80932710D01*
X86789385Y-80851165D01*
X86667592Y-80800717D01*
X86380804Y-80609091D01*
X86136909Y-80365196D01*
X85945283Y-80078408D01*
X85813290Y-79759747D01*
X85746000Y-79421460D01*
X85746000Y-79076540D01*
X85813290Y-78738253D01*
X85945283Y-78419592D01*
X86136909Y-78132804D01*
X86380804Y-77888909D01*
X86667592Y-77697283D01*
X86854259Y-77619963D01*
X86986252Y-77565290D01*
X87099015Y-77542860D01*
X87324540Y-77498000D01*
X87669460Y-77498000D01*
X87894985Y-77542860D01*
G37*
G36*
X93110512Y-78352927D02*
G01*
X93259812Y-78382624D01*
X93423784Y-78450544D01*
X93571354Y-78549147D01*
X93696853Y-78674646D01*
X93795456Y-78822216D01*
X93863376Y-78986188D01*
X93898000Y-79160259D01*
X93898000Y-79337741D01*
X93863376Y-79511812D01*
X93795456Y-79675784D01*
X93696853Y-79823354D01*
X93571354Y-79948853D01*
X93423784Y-80047456D01*
X93259812Y-80115376D01*
X93110512Y-80145073D01*
X93085742Y-80150000D01*
X92908258Y-80150000D01*
X92883488Y-80145073D01*
X92734188Y-80115376D01*
X92570216Y-80047456D01*
X92422646Y-79948853D01*
X92297147Y-79823354D01*
X92198544Y-79675784D01*
X92130624Y-79511812D01*
X92096000Y-79337741D01*
X92096000Y-79160259D01*
X92130624Y-78986188D01*
X92198544Y-78822216D01*
X92297147Y-78674646D01*
X92422646Y-78549147D01*
X92570216Y-78450544D01*
X92734188Y-78382624D01*
X92883488Y-78352927D01*
X92908258Y-78348000D01*
X93085742Y-78348000D01*
X93110512Y-78352927D01*
G37*
G36*
X82110512Y-78352927D02*
G01*
X82259812Y-78382624D01*
X82423784Y-78450544D01*
X82571354Y-78549147D01*
X82696853Y-78674646D01*
X82795456Y-78822216D01*
X82863376Y-78986188D01*
X82898000Y-79160259D01*
X82898000Y-79337741D01*
X82863376Y-79511812D01*
X82795456Y-79675784D01*
X82696853Y-79823354D01*
X82571354Y-79948853D01*
X82423784Y-80047456D01*
X82259812Y-80115376D01*
X82110512Y-80145073D01*
X82085742Y-80150000D01*
X81908258Y-80150000D01*
X81883488Y-80145073D01*
X81734188Y-80115376D01*
X81570216Y-80047456D01*
X81422646Y-79948853D01*
X81297147Y-79823354D01*
X81198544Y-79675784D01*
X81130624Y-79511812D01*
X81096000Y-79337741D01*
X81096000Y-79160259D01*
X81130624Y-78986188D01*
X81198544Y-78822216D01*
X81297147Y-78674646D01*
X81422646Y-78549147D01*
X81570216Y-78450544D01*
X81734188Y-78382624D01*
X81883488Y-78352927D01*
X81908258Y-78348000D01*
X82085742Y-78348000D01*
X82110512Y-78352927D01*
G37*
G36*
X105803564Y-77338389D02*
G01*
X105994833Y-77417615D01*
X105994835Y-77417616D01*
X106115138Y-77498000D01*
X106166973Y-77532635D01*
X106313365Y-77679027D01*
X106428385Y-77851167D01*
X106507611Y-78042436D01*
X106548000Y-78245484D01*
X106548000Y-78452516D01*
X106507611Y-78655564D01*
X106438581Y-78822218D01*
X106428384Y-78846835D01*
X106313365Y-79018973D01*
X106166973Y-79165365D01*
X105994835Y-79280384D01*
X105994834Y-79280385D01*
X105994833Y-79280385D01*
X105803564Y-79359611D01*
X105600516Y-79400000D01*
X105393484Y-79400000D01*
X105190436Y-79359611D01*
X104999167Y-79280385D01*
X104999166Y-79280385D01*
X104999165Y-79280384D01*
X104827027Y-79165365D01*
X104680635Y-79018973D01*
X104565616Y-78846835D01*
X104555419Y-78822218D01*
X104486389Y-78655564D01*
X104446000Y-78452516D01*
X104446000Y-78245484D01*
X104486389Y-78042436D01*
X104565615Y-77851167D01*
X104680635Y-77679027D01*
X104827027Y-77532635D01*
X104878862Y-77498000D01*
X104999165Y-77417616D01*
X104999167Y-77417615D01*
X105190436Y-77338389D01*
X105393484Y-77298000D01*
X105600516Y-77298000D01*
X105803564Y-77338389D01*
G37*
G36*
X69803564Y-77338389D02*
G01*
X69994833Y-77417615D01*
X69994835Y-77417616D01*
X70115138Y-77498000D01*
X70166973Y-77532635D01*
X70313365Y-77679027D01*
X70428385Y-77851167D01*
X70507611Y-78042436D01*
X70548000Y-78245484D01*
X70548000Y-78452516D01*
X70507611Y-78655564D01*
X70438581Y-78822218D01*
X70428384Y-78846835D01*
X70313365Y-79018973D01*
X70166973Y-79165365D01*
X69994835Y-79280384D01*
X69994834Y-79280385D01*
X69994833Y-79280385D01*
X69803564Y-79359611D01*
X69600516Y-79400000D01*
X69393484Y-79400000D01*
X69190436Y-79359611D01*
X68999167Y-79280385D01*
X68999166Y-79280385D01*
X68999165Y-79280384D01*
X68827027Y-79165365D01*
X68680635Y-79018973D01*
X68565616Y-78846835D01*
X68555419Y-78822218D01*
X68486389Y-78655564D01*
X68446000Y-78452516D01*
X68446000Y-78245484D01*
X68486389Y-78042436D01*
X68565615Y-77851167D01*
X68680635Y-77679027D01*
X68827027Y-77532635D01*
X68878862Y-77498000D01*
X68999165Y-77417616D01*
X68999167Y-77417615D01*
X69190436Y-77338389D01*
X69393484Y-77298000D01*
X69600516Y-77298000D01*
X69803564Y-77338389D01*
G37*
G36*
X92803564Y-74438389D02*
G01*
X92994833Y-74517615D01*
X92994835Y-74517616D01*
X93166973Y-74632635D01*
X93313365Y-74779027D01*
X93428385Y-74951167D01*
X93507611Y-75142436D01*
X93548000Y-75345484D01*
X93548000Y-75552516D01*
X93507611Y-75755564D01*
X93428385Y-75946833D01*
X93428384Y-75946835D01*
X93313365Y-76118973D01*
X93166973Y-76265365D01*
X92994835Y-76380384D01*
X92994834Y-76380385D01*
X92994833Y-76380385D01*
X92803564Y-76459611D01*
X92600516Y-76500000D01*
X92393484Y-76500000D01*
X92190436Y-76459611D01*
X91999167Y-76380385D01*
X91999166Y-76380385D01*
X91999165Y-76380384D01*
X91827027Y-76265365D01*
X91680635Y-76118973D01*
X91565616Y-75946835D01*
X91565615Y-75946833D01*
X91486389Y-75755564D01*
X91446000Y-75552516D01*
X91446000Y-75345484D01*
X91486389Y-75142436D01*
X91565615Y-74951167D01*
X91680635Y-74779027D01*
X91827027Y-74632635D01*
X91999165Y-74517616D01*
X91999167Y-74517615D01*
X92190436Y-74438389D01*
X92393484Y-74398000D01*
X92600516Y-74398000D01*
X92803564Y-74438389D01*
G37*
G36*
X82803564Y-74438389D02*
G01*
X82994833Y-74517615D01*
X82994835Y-74517616D01*
X83166973Y-74632635D01*
X83313365Y-74779027D01*
X83428385Y-74951167D01*
X83507611Y-75142436D01*
X83548000Y-75345484D01*
X83548000Y-75552516D01*
X83507611Y-75755564D01*
X83428385Y-75946833D01*
X83428384Y-75946835D01*
X83313365Y-76118973D01*
X83166973Y-76265365D01*
X82994835Y-76380384D01*
X82994834Y-76380385D01*
X82994833Y-76380385D01*
X82803564Y-76459611D01*
X82600516Y-76500000D01*
X82393484Y-76500000D01*
X82190436Y-76459611D01*
X81999167Y-76380385D01*
X81999166Y-76380385D01*
X81999165Y-76380384D01*
X81827027Y-76265365D01*
X81680635Y-76118973D01*
X81565616Y-75946835D01*
X81565615Y-75946833D01*
X81486389Y-75755564D01*
X81446000Y-75552516D01*
X81446000Y-75345484D01*
X81486389Y-75142436D01*
X81565615Y-74951167D01*
X81680635Y-74779027D01*
X81827027Y-74632635D01*
X81999165Y-74517616D01*
X81999167Y-74517615D01*
X82190436Y-74438389D01*
X82393484Y-74398000D01*
X82600516Y-74398000D01*
X82803564Y-74438389D01*
G37*
G36*
X87803564Y-72338389D02*
G01*
X87994833Y-72417615D01*
X87994835Y-72417616D01*
X88118131Y-72500000D01*
X88166973Y-72532635D01*
X88313365Y-72679027D01*
X88428385Y-72851167D01*
X88507611Y-73042436D01*
X88548000Y-73245484D01*
X88548000Y-73452516D01*
X88507611Y-73655564D01*
X88428385Y-73846833D01*
X88428384Y-73846835D01*
X88313365Y-74018973D01*
X88166973Y-74165365D01*
X87994835Y-74280384D01*
X87994834Y-74280385D01*
X87994833Y-74280385D01*
X87803564Y-74359611D01*
X87600516Y-74400000D01*
X87393484Y-74400000D01*
X87190436Y-74359611D01*
X86999167Y-74280385D01*
X86999166Y-74280385D01*
X86999165Y-74280384D01*
X86827027Y-74165365D01*
X86680635Y-74018973D01*
X86565616Y-73846835D01*
X86565615Y-73846833D01*
X86486389Y-73655564D01*
X86446000Y-73452516D01*
X86446000Y-73245484D01*
X86486389Y-73042436D01*
X86565615Y-72851167D01*
X86680635Y-72679027D01*
X86827027Y-72532635D01*
X86875869Y-72500000D01*
X86999165Y-72417616D01*
X86999167Y-72417615D01*
X87190436Y-72338389D01*
X87393484Y-72298000D01*
X87600516Y-72298000D01*
X87803564Y-72338389D01*
G37*
G36*
X123894985Y-69042860D02*
G01*
X124007748Y-69065290D01*
X124139741Y-69119963D01*
X124326408Y-69197283D01*
X124613196Y-69388909D01*
X124857091Y-69632804D01*
X125048717Y-69919592D01*
X125180710Y-70238253D01*
X125248000Y-70576540D01*
X125248000Y-70921460D01*
X125180710Y-71259747D01*
X125048717Y-71578408D01*
X124857091Y-71865196D01*
X124613196Y-72109091D01*
X124326408Y-72300717D01*
X124139741Y-72378037D01*
X124007748Y-72432710D01*
X123894985Y-72455140D01*
X123669460Y-72500000D01*
X123324540Y-72500000D01*
X123099015Y-72455140D01*
X122986252Y-72432710D01*
X122854259Y-72378037D01*
X122667592Y-72300717D01*
X122380804Y-72109091D01*
X122136909Y-71865196D01*
X121945283Y-71578408D01*
X121813290Y-71259747D01*
X121746000Y-70921460D01*
X121746000Y-70576540D01*
X121813290Y-70238253D01*
X121945283Y-69919592D01*
X122136909Y-69632804D01*
X122380804Y-69388909D01*
X122667592Y-69197283D01*
X122854259Y-69119963D01*
X122986252Y-69065290D01*
X123099015Y-69042860D01*
X123324540Y-68998000D01*
X123669460Y-68998000D01*
X123894985Y-69042860D01*
G37*
G36*
X118110512Y-69852927D02*
G01*
X118259812Y-69882624D01*
X118423784Y-69950544D01*
X118571354Y-70049147D01*
X118696853Y-70174646D01*
X118795456Y-70322216D01*
X118863376Y-70486188D01*
X118898000Y-70660259D01*
X118898000Y-70837741D01*
X118863376Y-71011812D01*
X118795456Y-71175784D01*
X118696853Y-71323354D01*
X118571354Y-71448853D01*
X118423784Y-71547456D01*
X118259812Y-71615376D01*
X118110512Y-71645073D01*
X118085742Y-71650000D01*
X117908258Y-71650000D01*
X117883488Y-71645073D01*
X117734188Y-71615376D01*
X117570216Y-71547456D01*
X117422646Y-71448853D01*
X117297147Y-71323354D01*
X117198544Y-71175784D01*
X117130624Y-71011812D01*
X117096000Y-70837741D01*
X117096000Y-70660259D01*
X117130624Y-70486188D01*
X117198544Y-70322216D01*
X117297147Y-70174646D01*
X117422646Y-70049147D01*
X117570216Y-69950544D01*
X117734188Y-69882624D01*
X117883488Y-69852927D01*
X117908258Y-69848000D01*
X118085742Y-69848000D01*
X118110512Y-69852927D01*
G37*
G36*
X129110512Y-69852927D02*
G01*
X129259812Y-69882624D01*
X129423784Y-69950544D01*
X129571354Y-70049147D01*
X129696853Y-70174646D01*
X129795456Y-70322216D01*
X129863376Y-70486188D01*
X129898000Y-70660259D01*
X129898000Y-70837741D01*
X129863376Y-71011812D01*
X129795456Y-71175784D01*
X129696853Y-71323354D01*
X129571354Y-71448853D01*
X129423784Y-71547456D01*
X129259812Y-71615376D01*
X129110512Y-71645073D01*
X129085742Y-71650000D01*
X128908258Y-71650000D01*
X128883488Y-71645073D01*
X128734188Y-71615376D01*
X128570216Y-71547456D01*
X128422646Y-71448853D01*
X128297147Y-71323354D01*
X128198544Y-71175784D01*
X128130624Y-71011812D01*
X128096000Y-70837741D01*
X128096000Y-70660259D01*
X128130624Y-70486188D01*
X128198544Y-70322216D01*
X128297147Y-70174646D01*
X128422646Y-70049147D01*
X128570216Y-69950544D01*
X128734188Y-69882624D01*
X128883488Y-69852927D01*
X128908258Y-69848000D01*
X129085742Y-69848000D01*
X129110512Y-69852927D01*
G37*
G36*
X105894985Y-65542860D02*
G01*
X106007748Y-65565290D01*
X106139741Y-65619963D01*
X106326408Y-65697283D01*
X106613196Y-65888909D01*
X106857091Y-66132804D01*
X107048717Y-66419592D01*
X107180710Y-66738253D01*
X107248000Y-67076540D01*
X107248000Y-67421460D01*
X107180710Y-67759747D01*
X107048717Y-68078408D01*
X106857091Y-68365196D01*
X106613196Y-68609091D01*
X106326408Y-68800717D01*
X106139741Y-68878037D01*
X106007748Y-68932710D01*
X105894985Y-68955140D01*
X105669460Y-69000000D01*
X105324540Y-69000000D01*
X105099015Y-68955140D01*
X104986252Y-68932710D01*
X104854259Y-68878037D01*
X104667592Y-68800717D01*
X104380804Y-68609091D01*
X104136909Y-68365196D01*
X103945283Y-68078408D01*
X103813290Y-67759747D01*
X103746000Y-67421460D01*
X103746000Y-67076540D01*
X103813290Y-66738253D01*
X103945283Y-66419592D01*
X104136909Y-66132804D01*
X104380804Y-65888909D01*
X104667592Y-65697283D01*
X104854259Y-65619963D01*
X104986252Y-65565290D01*
X105099015Y-65542860D01*
X105324540Y-65498000D01*
X105669460Y-65498000D01*
X105894985Y-65542860D01*
G37*
G36*
X69894985Y-65542860D02*
G01*
X70007748Y-65565290D01*
X70139741Y-65619963D01*
X70326408Y-65697283D01*
X70613196Y-65888909D01*
X70857091Y-66132804D01*
X71048717Y-66419592D01*
X71180710Y-66738253D01*
X71248000Y-67076540D01*
X71248000Y-67421460D01*
X71180710Y-67759747D01*
X71048717Y-68078408D01*
X70857091Y-68365196D01*
X70613196Y-68609091D01*
X70326408Y-68800717D01*
X70139741Y-68878037D01*
X70007748Y-68932710D01*
X69894985Y-68955140D01*
X69669460Y-69000000D01*
X69324540Y-69000000D01*
X69099015Y-68955140D01*
X68986252Y-68932710D01*
X68854259Y-68878037D01*
X68667592Y-68800717D01*
X68380804Y-68609091D01*
X68136909Y-68365196D01*
X67945283Y-68078408D01*
X67813290Y-67759747D01*
X67746000Y-67421460D01*
X67746000Y-67076540D01*
X67813290Y-66738253D01*
X67945283Y-66419592D01*
X68136909Y-66132804D01*
X68380804Y-65888909D01*
X68667592Y-65697283D01*
X68854259Y-65619963D01*
X68986252Y-65565290D01*
X69099015Y-65542860D01*
X69324540Y-65498000D01*
X69669460Y-65498000D01*
X69894985Y-65542860D01*
G37*
G36*
X50298000Y-68550000D02*
G01*
X48696000Y-68550000D01*
X48696000Y-66948000D01*
X50298000Y-66948000D01*
X50298000Y-68550000D01*
G37*
G36*
X60298000Y-68550000D02*
G01*
X58696000Y-68550000D01*
X58696000Y-66948000D01*
X60298000Y-66948000D01*
X60298000Y-68550000D01*
G37*
G36*
X58298000Y-68550000D02*
G01*
X56696000Y-68550000D01*
X56696000Y-66948000D01*
X58298000Y-66948000D01*
X58298000Y-68550000D01*
G37*
G36*
X54298000Y-68550000D02*
G01*
X52696000Y-68550000D01*
X52696000Y-66948000D01*
X54298000Y-66948000D01*
X54298000Y-68550000D01*
G37*
G36*
X52298000Y-68550000D02*
G01*
X50696000Y-68550000D01*
X50696000Y-66948000D01*
X52298000Y-66948000D01*
X52298000Y-68550000D01*
G37*
G36*
X56298000Y-68550000D02*
G01*
X54696000Y-68550000D01*
X54696000Y-66948000D01*
X56298000Y-66948000D01*
X56298000Y-68550000D01*
G37*
G36*
X100110512Y-66352927D02*
G01*
X100259812Y-66382624D01*
X100423784Y-66450544D01*
X100571354Y-66549147D01*
X100696853Y-66674646D01*
X100795456Y-66822216D01*
X100863376Y-66986188D01*
X100898000Y-67160259D01*
X100898000Y-67337741D01*
X100863376Y-67511812D01*
X100795456Y-67675784D01*
X100696853Y-67823354D01*
X100571354Y-67948853D01*
X100423784Y-68047456D01*
X100259812Y-68115376D01*
X100110512Y-68145073D01*
X100085742Y-68150000D01*
X99908258Y-68150000D01*
X99883488Y-68145073D01*
X99734188Y-68115376D01*
X99570216Y-68047456D01*
X99422646Y-67948853D01*
X99297147Y-67823354D01*
X99198544Y-67675784D01*
X99130624Y-67511812D01*
X99096000Y-67337741D01*
X99096000Y-67160259D01*
X99130624Y-66986188D01*
X99198544Y-66822216D01*
X99297147Y-66674646D01*
X99422646Y-66549147D01*
X99570216Y-66450544D01*
X99734188Y-66382624D01*
X99883488Y-66352927D01*
X99908258Y-66348000D01*
X100085742Y-66348000D01*
X100110512Y-66352927D01*
G37*
G36*
X64110512Y-66352927D02*
G01*
X64259812Y-66382624D01*
X64423784Y-66450544D01*
X64571354Y-66549147D01*
X64696853Y-66674646D01*
X64795456Y-66822216D01*
X64863376Y-66986188D01*
X64898000Y-67160259D01*
X64898000Y-67337741D01*
X64863376Y-67511812D01*
X64795456Y-67675784D01*
X64696853Y-67823354D01*
X64571354Y-67948853D01*
X64423784Y-68047456D01*
X64259812Y-68115376D01*
X64110512Y-68145073D01*
X64085742Y-68150000D01*
X63908258Y-68150000D01*
X63883488Y-68145073D01*
X63734188Y-68115376D01*
X63570216Y-68047456D01*
X63422646Y-67948853D01*
X63297147Y-67823354D01*
X63198544Y-67675784D01*
X63130624Y-67511812D01*
X63096000Y-67337741D01*
X63096000Y-67160259D01*
X63130624Y-66986188D01*
X63198544Y-66822216D01*
X63297147Y-66674646D01*
X63422646Y-66549147D01*
X63570216Y-66450544D01*
X63734188Y-66382624D01*
X63883488Y-66352927D01*
X63908258Y-66348000D01*
X64085742Y-66348000D01*
X64110512Y-66352927D01*
G37*
G36*
X75110512Y-66352927D02*
G01*
X75259812Y-66382624D01*
X75423784Y-66450544D01*
X75571354Y-66549147D01*
X75696853Y-66674646D01*
X75795456Y-66822216D01*
X75863376Y-66986188D01*
X75898000Y-67160259D01*
X75898000Y-67337741D01*
X75863376Y-67511812D01*
X75795456Y-67675784D01*
X75696853Y-67823354D01*
X75571354Y-67948853D01*
X75423784Y-68047456D01*
X75259812Y-68115376D01*
X75110512Y-68145073D01*
X75085742Y-68150000D01*
X74908258Y-68150000D01*
X74883488Y-68145073D01*
X74734188Y-68115376D01*
X74570216Y-68047456D01*
X74422646Y-67948853D01*
X74297147Y-67823354D01*
X74198544Y-67675784D01*
X74130624Y-67511812D01*
X74096000Y-67337741D01*
X74096000Y-67160259D01*
X74130624Y-66986188D01*
X74198544Y-66822216D01*
X74297147Y-66674646D01*
X74422646Y-66549147D01*
X74570216Y-66450544D01*
X74734188Y-66382624D01*
X74883488Y-66352927D01*
X74908258Y-66348000D01*
X75085742Y-66348000D01*
X75110512Y-66352927D01*
G37*
G36*
X111110512Y-66352927D02*
G01*
X111259812Y-66382624D01*
X111423784Y-66450544D01*
X111571354Y-66549147D01*
X111696853Y-66674646D01*
X111795456Y-66822216D01*
X111863376Y-66986188D01*
X111898000Y-67160259D01*
X111898000Y-67337741D01*
X111863376Y-67511812D01*
X111795456Y-67675784D01*
X111696853Y-67823354D01*
X111571354Y-67948853D01*
X111423784Y-68047456D01*
X111259812Y-68115376D01*
X111110512Y-68145073D01*
X111085742Y-68150000D01*
X110908258Y-68150000D01*
X110883488Y-68145073D01*
X110734188Y-68115376D01*
X110570216Y-68047456D01*
X110422646Y-67948853D01*
X110297147Y-67823354D01*
X110198544Y-67675784D01*
X110130624Y-67511812D01*
X110096000Y-67337741D01*
X110096000Y-67160259D01*
X110130624Y-66986188D01*
X110198544Y-66822216D01*
X110297147Y-66674646D01*
X110422646Y-66549147D01*
X110570216Y-66450544D01*
X110734188Y-66382624D01*
X110883488Y-66352927D01*
X110908258Y-66348000D01*
X111085742Y-66348000D01*
X111110512Y-66352927D01*
G37*
G36*
X118803564Y-65938389D02*
G01*
X118994833Y-66017615D01*
X118994835Y-66017616D01*
X119166973Y-66132635D01*
X119313365Y-66279027D01*
X119407288Y-66419592D01*
X119428385Y-66451167D01*
X119507611Y-66642436D01*
X119548000Y-66845484D01*
X119548000Y-67052516D01*
X119507611Y-67255564D01*
X119438895Y-67421460D01*
X119428384Y-67446835D01*
X119313365Y-67618973D01*
X119166973Y-67765365D01*
X118994835Y-67880384D01*
X118994834Y-67880385D01*
X118994833Y-67880385D01*
X118803564Y-67959611D01*
X118600516Y-68000000D01*
X118393484Y-68000000D01*
X118190436Y-67959611D01*
X117999167Y-67880385D01*
X117999166Y-67880385D01*
X117999165Y-67880384D01*
X117827027Y-67765365D01*
X117680635Y-67618973D01*
X117565616Y-67446835D01*
X117555105Y-67421460D01*
X117486389Y-67255564D01*
X117446000Y-67052516D01*
X117446000Y-66845484D01*
X117486389Y-66642436D01*
X117565615Y-66451167D01*
X117586713Y-66419592D01*
X117680635Y-66279027D01*
X117827027Y-66132635D01*
X117999165Y-66017616D01*
X117999167Y-66017615D01*
X118190436Y-65938389D01*
X118393484Y-65898000D01*
X118600516Y-65898000D01*
X118803564Y-65938389D01*
G37*
G36*
X128803564Y-65938389D02*
G01*
X128994833Y-66017615D01*
X128994835Y-66017616D01*
X129166973Y-66132635D01*
X129313365Y-66279027D01*
X129407288Y-66419592D01*
X129428385Y-66451167D01*
X129507611Y-66642436D01*
X129548000Y-66845484D01*
X129548000Y-67052516D01*
X129507611Y-67255564D01*
X129438895Y-67421460D01*
X129428384Y-67446835D01*
X129313365Y-67618973D01*
X129166973Y-67765365D01*
X128994835Y-67880384D01*
X128994834Y-67880385D01*
X128994833Y-67880385D01*
X128803564Y-67959611D01*
X128600516Y-68000000D01*
X128393484Y-68000000D01*
X128190436Y-67959611D01*
X127999167Y-67880385D01*
X127999166Y-67880385D01*
X127999165Y-67880384D01*
X127827027Y-67765365D01*
X127680635Y-67618973D01*
X127565616Y-67446835D01*
X127555105Y-67421460D01*
X127486389Y-67255564D01*
X127446000Y-67052516D01*
X127446000Y-66845484D01*
X127486389Y-66642436D01*
X127565615Y-66451167D01*
X127586713Y-66419592D01*
X127680635Y-66279027D01*
X127827027Y-66132635D01*
X127999165Y-66017616D01*
X127999167Y-66017615D01*
X128190436Y-65938389D01*
X128393484Y-65898000D01*
X128600516Y-65898000D01*
X128803564Y-65938389D01*
G37*
G36*
X123803564Y-63838389D02*
G01*
X123994833Y-63917615D01*
X123994835Y-63917616D01*
X124038561Y-63946833D01*
X124166973Y-64032635D01*
X124313365Y-64179027D01*
X124428385Y-64351167D01*
X124507611Y-64542436D01*
X124548000Y-64745484D01*
X124548000Y-64952516D01*
X124507611Y-65155564D01*
X124428385Y-65346833D01*
X124428384Y-65346835D01*
X124313365Y-65518973D01*
X124166973Y-65665365D01*
X123994835Y-65780384D01*
X123994834Y-65780385D01*
X123994833Y-65780385D01*
X123803564Y-65859611D01*
X123600516Y-65900000D01*
X123393484Y-65900000D01*
X123190436Y-65859611D01*
X122999167Y-65780385D01*
X122999166Y-65780385D01*
X122999165Y-65780384D01*
X122827027Y-65665365D01*
X122680635Y-65518973D01*
X122565616Y-65346835D01*
X122565615Y-65346833D01*
X122486389Y-65155564D01*
X122446000Y-64952516D01*
X122446000Y-64745484D01*
X122486389Y-64542436D01*
X122565615Y-64351167D01*
X122680635Y-64179027D01*
X122827027Y-64032635D01*
X122955439Y-63946833D01*
X122999165Y-63917616D01*
X122999167Y-63917615D01*
X123190436Y-63838389D01*
X123393484Y-63798000D01*
X123600516Y-63798000D01*
X123803564Y-63838389D01*
G37*
G36*
X110803564Y-62438389D02*
G01*
X110980823Y-62511812D01*
X110994835Y-62517616D01*
X111166973Y-62632635D01*
X111313365Y-62779027D01*
X111426839Y-62948852D01*
X111428385Y-62951167D01*
X111507611Y-63142436D01*
X111548000Y-63345484D01*
X111548000Y-63552516D01*
X111507611Y-63755564D01*
X111473303Y-63838390D01*
X111428384Y-63946835D01*
X111313365Y-64118973D01*
X111166973Y-64265365D01*
X110994835Y-64380384D01*
X110994834Y-64380385D01*
X110994833Y-64380385D01*
X110803564Y-64459611D01*
X110600516Y-64500000D01*
X110393484Y-64500000D01*
X110190436Y-64459611D01*
X109999167Y-64380385D01*
X109999166Y-64380385D01*
X109999165Y-64380384D01*
X109827027Y-64265365D01*
X109680635Y-64118973D01*
X109565616Y-63946835D01*
X109520697Y-63838390D01*
X109486389Y-63755564D01*
X109446000Y-63552516D01*
X109446000Y-63345484D01*
X109486389Y-63142436D01*
X109565615Y-62951167D01*
X109567162Y-62948852D01*
X109680635Y-62779027D01*
X109827027Y-62632635D01*
X109999165Y-62517616D01*
X110013177Y-62511812D01*
X110190436Y-62438389D01*
X110393484Y-62398000D01*
X110600516Y-62398000D01*
X110803564Y-62438389D01*
G37*
G36*
X64803564Y-62438389D02*
G01*
X64980823Y-62511812D01*
X64994835Y-62517616D01*
X65166973Y-62632635D01*
X65313365Y-62779027D01*
X65426839Y-62948852D01*
X65428385Y-62951167D01*
X65507611Y-63142436D01*
X65548000Y-63345484D01*
X65548000Y-63552516D01*
X65507611Y-63755564D01*
X65473303Y-63838390D01*
X65428384Y-63946835D01*
X65313365Y-64118973D01*
X65166973Y-64265365D01*
X64994835Y-64380384D01*
X64994834Y-64380385D01*
X64994833Y-64380385D01*
X64803564Y-64459611D01*
X64600516Y-64500000D01*
X64393484Y-64500000D01*
X64190436Y-64459611D01*
X63999167Y-64380385D01*
X63999166Y-64380385D01*
X63999165Y-64380384D01*
X63827027Y-64265365D01*
X63680635Y-64118973D01*
X63565616Y-63946835D01*
X63520697Y-63838390D01*
X63486389Y-63755564D01*
X63446000Y-63552516D01*
X63446000Y-63345484D01*
X63486389Y-63142436D01*
X63565615Y-62951167D01*
X63567162Y-62948852D01*
X63680635Y-62779027D01*
X63827027Y-62632635D01*
X63999165Y-62517616D01*
X64013177Y-62511812D01*
X64190436Y-62438389D01*
X64393484Y-62398000D01*
X64600516Y-62398000D01*
X64803564Y-62438389D01*
G37*
G36*
X74803564Y-62438389D02*
G01*
X74980823Y-62511812D01*
X74994835Y-62517616D01*
X75166973Y-62632635D01*
X75313365Y-62779027D01*
X75426839Y-62948852D01*
X75428385Y-62951167D01*
X75507611Y-63142436D01*
X75548000Y-63345484D01*
X75548000Y-63552516D01*
X75507611Y-63755564D01*
X75473303Y-63838390D01*
X75428384Y-63946835D01*
X75313365Y-64118973D01*
X75166973Y-64265365D01*
X74994835Y-64380384D01*
X74994834Y-64380385D01*
X74994833Y-64380385D01*
X74803564Y-64459611D01*
X74600516Y-64500000D01*
X74393484Y-64500000D01*
X74190436Y-64459611D01*
X73999167Y-64380385D01*
X73999166Y-64380385D01*
X73999165Y-64380384D01*
X73827027Y-64265365D01*
X73680635Y-64118973D01*
X73565616Y-63946835D01*
X73520697Y-63838390D01*
X73486389Y-63755564D01*
X73446000Y-63552516D01*
X73446000Y-63345484D01*
X73486389Y-63142436D01*
X73565615Y-62951167D01*
X73567162Y-62948852D01*
X73680635Y-62779027D01*
X73827027Y-62632635D01*
X73999165Y-62517616D01*
X74013177Y-62511812D01*
X74190436Y-62438389D01*
X74393484Y-62398000D01*
X74600516Y-62398000D01*
X74803564Y-62438389D01*
G37*
G36*
X100803564Y-62438389D02*
G01*
X100980823Y-62511812D01*
X100994835Y-62517616D01*
X101166973Y-62632635D01*
X101313365Y-62779027D01*
X101426839Y-62948852D01*
X101428385Y-62951167D01*
X101507611Y-63142436D01*
X101548000Y-63345484D01*
X101548000Y-63552516D01*
X101507611Y-63755564D01*
X101473303Y-63838390D01*
X101428384Y-63946835D01*
X101313365Y-64118973D01*
X101166973Y-64265365D01*
X100994835Y-64380384D01*
X100994834Y-64380385D01*
X100994833Y-64380385D01*
X100803564Y-64459611D01*
X100600516Y-64500000D01*
X100393484Y-64500000D01*
X100190436Y-64459611D01*
X99999167Y-64380385D01*
X99999166Y-64380385D01*
X99999165Y-64380384D01*
X99827027Y-64265365D01*
X99680635Y-64118973D01*
X99565616Y-63946835D01*
X99520697Y-63838390D01*
X99486389Y-63755564D01*
X99446000Y-63552516D01*
X99446000Y-63345484D01*
X99486389Y-63142436D01*
X99565615Y-62951167D01*
X99567162Y-62948852D01*
X99680635Y-62779027D01*
X99827027Y-62632635D01*
X99999165Y-62517616D01*
X100013177Y-62511812D01*
X100190436Y-62438389D01*
X100393484Y-62398000D01*
X100600516Y-62398000D01*
X100803564Y-62438389D01*
G37*
G36*
X87894985Y-60542860D02*
G01*
X88007748Y-60565290D01*
X88139741Y-60619963D01*
X88326408Y-60697283D01*
X88613196Y-60888909D01*
X88857091Y-61132804D01*
X89048717Y-61419592D01*
X89180710Y-61738253D01*
X89248000Y-62076540D01*
X89248000Y-62421460D01*
X89180710Y-62759747D01*
X89048717Y-63078408D01*
X88857091Y-63365196D01*
X88613196Y-63609091D01*
X88326408Y-63800717D01*
X88139741Y-63878037D01*
X88007748Y-63932710D01*
X87894985Y-63955140D01*
X87669460Y-64000000D01*
X87324540Y-64000000D01*
X87099015Y-63955140D01*
X86986252Y-63932710D01*
X86854259Y-63878037D01*
X86667592Y-63800717D01*
X86380804Y-63609091D01*
X86136909Y-63365196D01*
X85945283Y-63078408D01*
X85813290Y-62759747D01*
X85746000Y-62421460D01*
X85746000Y-62076540D01*
X85813290Y-61738253D01*
X85945283Y-61419592D01*
X86136909Y-61132804D01*
X86380804Y-60888909D01*
X86667592Y-60697283D01*
X86854259Y-60619963D01*
X86986252Y-60565290D01*
X87099015Y-60542860D01*
X87324540Y-60498000D01*
X87669460Y-60498000D01*
X87894985Y-60542860D01*
G37*
G36*
X93110512Y-61352927D02*
G01*
X93259812Y-61382624D01*
X93423784Y-61450544D01*
X93571354Y-61549147D01*
X93696853Y-61674646D01*
X93795456Y-61822216D01*
X93863376Y-61986188D01*
X93898000Y-62160259D01*
X93898000Y-62337741D01*
X93863376Y-62511812D01*
X93795456Y-62675784D01*
X93696853Y-62823354D01*
X93571354Y-62948853D01*
X93423784Y-63047456D01*
X93259812Y-63115376D01*
X93110512Y-63145073D01*
X93085742Y-63150000D01*
X92908258Y-63150000D01*
X92883488Y-63145073D01*
X92734188Y-63115376D01*
X92570216Y-63047456D01*
X92422646Y-62948853D01*
X92297147Y-62823354D01*
X92198544Y-62675784D01*
X92130624Y-62511812D01*
X92096000Y-62337741D01*
X92096000Y-62160259D01*
X92130624Y-61986188D01*
X92198544Y-61822216D01*
X92297147Y-61674646D01*
X92422646Y-61549147D01*
X92570216Y-61450544D01*
X92734188Y-61382624D01*
X92883488Y-61352927D01*
X92908258Y-61348000D01*
X93085742Y-61348000D01*
X93110512Y-61352927D01*
G37*
G36*
X82110512Y-61352927D02*
G01*
X82259812Y-61382624D01*
X82423784Y-61450544D01*
X82571354Y-61549147D01*
X82696853Y-61674646D01*
X82795456Y-61822216D01*
X82863376Y-61986188D01*
X82898000Y-62160259D01*
X82898000Y-62337741D01*
X82863376Y-62511812D01*
X82795456Y-62675784D01*
X82696853Y-62823354D01*
X82571354Y-62948853D01*
X82423784Y-63047456D01*
X82259812Y-63115376D01*
X82110512Y-63145073D01*
X82085742Y-63150000D01*
X81908258Y-63150000D01*
X81883488Y-63145073D01*
X81734188Y-63115376D01*
X81570216Y-63047456D01*
X81422646Y-62948853D01*
X81297147Y-62823354D01*
X81198544Y-62675784D01*
X81130624Y-62511812D01*
X81096000Y-62337741D01*
X81096000Y-62160259D01*
X81130624Y-61986188D01*
X81198544Y-61822216D01*
X81297147Y-61674646D01*
X81422646Y-61549147D01*
X81570216Y-61450544D01*
X81734188Y-61382624D01*
X81883488Y-61352927D01*
X81908258Y-61348000D01*
X82085742Y-61348000D01*
X82110512Y-61352927D01*
G37*
G36*
X105803564Y-60338389D02*
G01*
X105994833Y-60417615D01*
X105994835Y-60417616D01*
X106166973Y-60532635D01*
X106313365Y-60679027D01*
X106420147Y-60838837D01*
X106428385Y-60851167D01*
X106507611Y-61042436D01*
X106548000Y-61245484D01*
X106548000Y-61452516D01*
X106507611Y-61655564D01*
X106438581Y-61822218D01*
X106428384Y-61846835D01*
X106313365Y-62018973D01*
X106166973Y-62165365D01*
X105994835Y-62280384D01*
X105994834Y-62280385D01*
X105994833Y-62280385D01*
X105803564Y-62359611D01*
X105600516Y-62400000D01*
X105393484Y-62400000D01*
X105190436Y-62359611D01*
X104999167Y-62280385D01*
X104999166Y-62280385D01*
X104999165Y-62280384D01*
X104827027Y-62165365D01*
X104680635Y-62018973D01*
X104565616Y-61846835D01*
X104555419Y-61822218D01*
X104486389Y-61655564D01*
X104446000Y-61452516D01*
X104446000Y-61245484D01*
X104486389Y-61042436D01*
X104565615Y-60851167D01*
X104573854Y-60838837D01*
X104680635Y-60679027D01*
X104827027Y-60532635D01*
X104999165Y-60417616D01*
X104999167Y-60417615D01*
X105190436Y-60338389D01*
X105393484Y-60298000D01*
X105600516Y-60298000D01*
X105803564Y-60338389D01*
G37*
G36*
X69803564Y-60338389D02*
G01*
X69994833Y-60417615D01*
X69994835Y-60417616D01*
X70166973Y-60532635D01*
X70313365Y-60679027D01*
X70420147Y-60838837D01*
X70428385Y-60851167D01*
X70507611Y-61042436D01*
X70548000Y-61245484D01*
X70548000Y-61452516D01*
X70507611Y-61655564D01*
X70438581Y-61822218D01*
X70428384Y-61846835D01*
X70313365Y-62018973D01*
X70166973Y-62165365D01*
X69994835Y-62280384D01*
X69994834Y-62280385D01*
X69994833Y-62280385D01*
X69803564Y-62359611D01*
X69600516Y-62400000D01*
X69393484Y-62400000D01*
X69190436Y-62359611D01*
X68999167Y-62280385D01*
X68999166Y-62280385D01*
X68999165Y-62280384D01*
X68827027Y-62165365D01*
X68680635Y-62018973D01*
X68565616Y-61846835D01*
X68555419Y-61822218D01*
X68486389Y-61655564D01*
X68446000Y-61452516D01*
X68446000Y-61245484D01*
X68486389Y-61042436D01*
X68565615Y-60851167D01*
X68573854Y-60838837D01*
X68680635Y-60679027D01*
X68827027Y-60532635D01*
X68999165Y-60417616D01*
X68999167Y-60417615D01*
X69190436Y-60338389D01*
X69393484Y-60298000D01*
X69600516Y-60298000D01*
X69803564Y-60338389D01*
G37*
G36*
X49730642Y-59358781D02*
G01*
X49876414Y-59419162D01*
X49876416Y-59419163D01*
X50007608Y-59506822D01*
X50119178Y-59618392D01*
X50206837Y-59749584D01*
X50206838Y-59749586D01*
X50267219Y-59895358D01*
X50298000Y-60050107D01*
X50298000Y-60207893D01*
X50267219Y-60362642D01*
X50206838Y-60508414D01*
X50206837Y-60508416D01*
X50119178Y-60639608D01*
X50007608Y-60751178D01*
X49876416Y-60838837D01*
X49876415Y-60838838D01*
X49876414Y-60838838D01*
X49730642Y-60899219D01*
X49575893Y-60930000D01*
X49418107Y-60930000D01*
X49263358Y-60899219D01*
X49117586Y-60838838D01*
X49117585Y-60838838D01*
X49117584Y-60838837D01*
X48986392Y-60751178D01*
X48874822Y-60639608D01*
X48787163Y-60508416D01*
X48787162Y-60508414D01*
X48726781Y-60362642D01*
X48696000Y-60207893D01*
X48696000Y-60050107D01*
X48726781Y-59895358D01*
X48787162Y-59749586D01*
X48787163Y-59749584D01*
X48874822Y-59618392D01*
X48986392Y-59506822D01*
X49117584Y-59419163D01*
X49117586Y-59419162D01*
X49263358Y-59358781D01*
X49418107Y-59328000D01*
X49575893Y-59328000D01*
X49730642Y-59358781D01*
G37*
G36*
X55730642Y-59358781D02*
G01*
X55876414Y-59419162D01*
X55876416Y-59419163D01*
X56007608Y-59506822D01*
X56119178Y-59618392D01*
X56206837Y-59749584D01*
X56206838Y-59749586D01*
X56267219Y-59895358D01*
X56298000Y-60050107D01*
X56298000Y-60207893D01*
X56267219Y-60362642D01*
X56206838Y-60508414D01*
X56206837Y-60508416D01*
X56119178Y-60639608D01*
X56007608Y-60751178D01*
X55876416Y-60838837D01*
X55876415Y-60838838D01*
X55876414Y-60838838D01*
X55730642Y-60899219D01*
X55575893Y-60930000D01*
X55418107Y-60930000D01*
X55263358Y-60899219D01*
X55117586Y-60838838D01*
X55117585Y-60838838D01*
X55117584Y-60838837D01*
X54986392Y-60751178D01*
X54874822Y-60639608D01*
X54787163Y-60508416D01*
X54787162Y-60508414D01*
X54726781Y-60362642D01*
X54696000Y-60207893D01*
X54696000Y-60050107D01*
X54726781Y-59895358D01*
X54787162Y-59749586D01*
X54787163Y-59749584D01*
X54874822Y-59618392D01*
X54986392Y-59506822D01*
X55117584Y-59419163D01*
X55117586Y-59419162D01*
X55263358Y-59358781D01*
X55418107Y-59328000D01*
X55575893Y-59328000D01*
X55730642Y-59358781D01*
G37*
G36*
X59730642Y-59358781D02*
G01*
X59876414Y-59419162D01*
X59876416Y-59419163D01*
X60007608Y-59506822D01*
X60119178Y-59618392D01*
X60206837Y-59749584D01*
X60206838Y-59749586D01*
X60267219Y-59895358D01*
X60298000Y-60050107D01*
X60298000Y-60207893D01*
X60267219Y-60362642D01*
X60206838Y-60508414D01*
X60206837Y-60508416D01*
X60119178Y-60639608D01*
X60007608Y-60751178D01*
X59876416Y-60838837D01*
X59876415Y-60838838D01*
X59876414Y-60838838D01*
X59730642Y-60899219D01*
X59575893Y-60930000D01*
X59418107Y-60930000D01*
X59263358Y-60899219D01*
X59117586Y-60838838D01*
X59117585Y-60838838D01*
X59117584Y-60838837D01*
X58986392Y-60751178D01*
X58874822Y-60639608D01*
X58787163Y-60508416D01*
X58787162Y-60508414D01*
X58726781Y-60362642D01*
X58696000Y-60207893D01*
X58696000Y-60050107D01*
X58726781Y-59895358D01*
X58787162Y-59749586D01*
X58787163Y-59749584D01*
X58874822Y-59618392D01*
X58986392Y-59506822D01*
X59117584Y-59419163D01*
X59117586Y-59419162D01*
X59263358Y-59358781D01*
X59418107Y-59328000D01*
X59575893Y-59328000D01*
X59730642Y-59358781D01*
G37*
G36*
X57730642Y-59358781D02*
G01*
X57876414Y-59419162D01*
X57876416Y-59419163D01*
X58007608Y-59506822D01*
X58119178Y-59618392D01*
X58206837Y-59749584D01*
X58206838Y-59749586D01*
X58267219Y-59895358D01*
X58298000Y-60050107D01*
X58298000Y-60207893D01*
X58267219Y-60362642D01*
X58206838Y-60508414D01*
X58206837Y-60508416D01*
X58119178Y-60639608D01*
X58007608Y-60751178D01*
X57876416Y-60838837D01*
X57876415Y-60838838D01*
X57876414Y-60838838D01*
X57730642Y-60899219D01*
X57575893Y-60930000D01*
X57418107Y-60930000D01*
X57263358Y-60899219D01*
X57117586Y-60838838D01*
X57117585Y-60838838D01*
X57117584Y-60838837D01*
X56986392Y-60751178D01*
X56874822Y-60639608D01*
X56787163Y-60508416D01*
X56787162Y-60508414D01*
X56726781Y-60362642D01*
X56696000Y-60207893D01*
X56696000Y-60050107D01*
X56726781Y-59895358D01*
X56787162Y-59749586D01*
X56787163Y-59749584D01*
X56874822Y-59618392D01*
X56986392Y-59506822D01*
X57117584Y-59419163D01*
X57117586Y-59419162D01*
X57263358Y-59358781D01*
X57418107Y-59328000D01*
X57575893Y-59328000D01*
X57730642Y-59358781D01*
G37*
G36*
X53730642Y-59358781D02*
G01*
X53876414Y-59419162D01*
X53876416Y-59419163D01*
X54007608Y-59506822D01*
X54119178Y-59618392D01*
X54206837Y-59749584D01*
X54206838Y-59749586D01*
X54267219Y-59895358D01*
X54298000Y-60050107D01*
X54298000Y-60207893D01*
X54267219Y-60362642D01*
X54206838Y-60508414D01*
X54206837Y-60508416D01*
X54119178Y-60639608D01*
X54007608Y-60751178D01*
X53876416Y-60838837D01*
X53876415Y-60838838D01*
X53876414Y-60838838D01*
X53730642Y-60899219D01*
X53575893Y-60930000D01*
X53418107Y-60930000D01*
X53263358Y-60899219D01*
X53117586Y-60838838D01*
X53117585Y-60838838D01*
X53117584Y-60838837D01*
X52986392Y-60751178D01*
X52874822Y-60639608D01*
X52787163Y-60508416D01*
X52787162Y-60508414D01*
X52726781Y-60362642D01*
X52696000Y-60207893D01*
X52696000Y-60050107D01*
X52726781Y-59895358D01*
X52787162Y-59749586D01*
X52787163Y-59749584D01*
X52874822Y-59618392D01*
X52986392Y-59506822D01*
X53117584Y-59419163D01*
X53117586Y-59419162D01*
X53263358Y-59358781D01*
X53418107Y-59328000D01*
X53575893Y-59328000D01*
X53730642Y-59358781D01*
G37*
G36*
X51730642Y-59358781D02*
G01*
X51876414Y-59419162D01*
X51876416Y-59419163D01*
X52007608Y-59506822D01*
X52119178Y-59618392D01*
X52206837Y-59749584D01*
X52206838Y-59749586D01*
X52267219Y-59895358D01*
X52298000Y-60050107D01*
X52298000Y-60207893D01*
X52267219Y-60362642D01*
X52206838Y-60508414D01*
X52206837Y-60508416D01*
X52119178Y-60639608D01*
X52007608Y-60751178D01*
X51876416Y-60838837D01*
X51876415Y-60838838D01*
X51876414Y-60838838D01*
X51730642Y-60899219D01*
X51575893Y-60930000D01*
X51418107Y-60930000D01*
X51263358Y-60899219D01*
X51117586Y-60838838D01*
X51117585Y-60838838D01*
X51117584Y-60838837D01*
X50986392Y-60751178D01*
X50874822Y-60639608D01*
X50787163Y-60508416D01*
X50787162Y-60508414D01*
X50726781Y-60362642D01*
X50696000Y-60207893D01*
X50696000Y-60050107D01*
X50726781Y-59895358D01*
X50787162Y-59749586D01*
X50787163Y-59749584D01*
X50874822Y-59618392D01*
X50986392Y-59506822D01*
X51117584Y-59419163D01*
X51117586Y-59419162D01*
X51263358Y-59358781D01*
X51418107Y-59328000D01*
X51575893Y-59328000D01*
X51730642Y-59358781D01*
G37*
G36*
X92803564Y-57438389D02*
G01*
X92994833Y-57517615D01*
X92994835Y-57517616D01*
X93166973Y-57632635D01*
X93313365Y-57779027D01*
X93428385Y-57951167D01*
X93507611Y-58142436D01*
X93548000Y-58345484D01*
X93548000Y-58552516D01*
X93507611Y-58755564D01*
X93428385Y-58946833D01*
X93428384Y-58946835D01*
X93313365Y-59118973D01*
X93166973Y-59265365D01*
X92994835Y-59380384D01*
X92994834Y-59380385D01*
X92994833Y-59380385D01*
X92803564Y-59459611D01*
X92600516Y-59500000D01*
X92393484Y-59500000D01*
X92190436Y-59459611D01*
X91999167Y-59380385D01*
X91999166Y-59380385D01*
X91999165Y-59380384D01*
X91827027Y-59265365D01*
X91680635Y-59118973D01*
X91565616Y-58946835D01*
X91565615Y-58946833D01*
X91486389Y-58755564D01*
X91446000Y-58552516D01*
X91446000Y-58345484D01*
X91486389Y-58142436D01*
X91565615Y-57951167D01*
X91680635Y-57779027D01*
X91827027Y-57632635D01*
X91999165Y-57517616D01*
X91999167Y-57517615D01*
X92190436Y-57438389D01*
X92393484Y-57398000D01*
X92600516Y-57398000D01*
X92803564Y-57438389D01*
G37*
G36*
X82803564Y-57438389D02*
G01*
X82994833Y-57517615D01*
X82994835Y-57517616D01*
X83166973Y-57632635D01*
X83313365Y-57779027D01*
X83428385Y-57951167D01*
X83507611Y-58142436D01*
X83548000Y-58345484D01*
X83548000Y-58552516D01*
X83507611Y-58755564D01*
X83428385Y-58946833D01*
X83428384Y-58946835D01*
X83313365Y-59118973D01*
X83166973Y-59265365D01*
X82994835Y-59380384D01*
X82994834Y-59380385D01*
X82994833Y-59380385D01*
X82803564Y-59459611D01*
X82600516Y-59500000D01*
X82393484Y-59500000D01*
X82190436Y-59459611D01*
X81999167Y-59380385D01*
X81999166Y-59380385D01*
X81999165Y-59380384D01*
X81827027Y-59265365D01*
X81680635Y-59118973D01*
X81565616Y-58946835D01*
X81565615Y-58946833D01*
X81486389Y-58755564D01*
X81446000Y-58552516D01*
X81446000Y-58345484D01*
X81486389Y-58142436D01*
X81565615Y-57951167D01*
X81680635Y-57779027D01*
X81827027Y-57632635D01*
X81999165Y-57517616D01*
X81999167Y-57517615D01*
X82190436Y-57438389D01*
X82393484Y-57398000D01*
X82600516Y-57398000D01*
X82803564Y-57438389D01*
G37*
G36*
X87803564Y-55338389D02*
G01*
X87994157Y-55417335D01*
X87994835Y-55417616D01*
X88099030Y-55487237D01*
X88166973Y-55532635D01*
X88313365Y-55679027D01*
X88428385Y-55851167D01*
X88507611Y-56042436D01*
X88548000Y-56245484D01*
X88548000Y-56452516D01*
X88507611Y-56655564D01*
X88469223Y-56748240D01*
X88428384Y-56846835D01*
X88313365Y-57018973D01*
X88166973Y-57165365D01*
X87994835Y-57280384D01*
X87994834Y-57280385D01*
X87994833Y-57280385D01*
X87803564Y-57359611D01*
X87600516Y-57400000D01*
X87393484Y-57400000D01*
X87190436Y-57359611D01*
X86999167Y-57280385D01*
X86999166Y-57280385D01*
X86999165Y-57280384D01*
X86827027Y-57165365D01*
X86680635Y-57018973D01*
X86565616Y-56846835D01*
X86524777Y-56748240D01*
X86486389Y-56655564D01*
X86446000Y-56452516D01*
X86446000Y-56245484D01*
X86486389Y-56042436D01*
X86565615Y-55851167D01*
X86680635Y-55679027D01*
X86827027Y-55532635D01*
X86894970Y-55487237D01*
X86999165Y-55417616D01*
X86999843Y-55417335D01*
X87190436Y-55338389D01*
X87393484Y-55298000D01*
X87600516Y-55298000D01*
X87803564Y-55338389D01*
G37*
G36*
X65037483Y-55417335D02*
G01*
X65206240Y-55487236D01*
X65358118Y-55588718D01*
X65487282Y-55717882D01*
X65588764Y-55869760D01*
X65658665Y-56038517D01*
X65694300Y-56217668D01*
X65694300Y-56400332D01*
X65658665Y-56579483D01*
X65588764Y-56748240D01*
X65487282Y-56900118D01*
X65358118Y-57029282D01*
X65206240Y-57130764D01*
X65037483Y-57200665D01*
X64858332Y-57236300D01*
X64675668Y-57236300D01*
X64496517Y-57200665D01*
X64327760Y-57130764D01*
X64175882Y-57029282D01*
X64046718Y-56900118D01*
X63945236Y-56748240D01*
X63875335Y-56579483D01*
X63839700Y-56400332D01*
X63839700Y-56217668D01*
X63875335Y-56038517D01*
X63945236Y-55869760D01*
X64046718Y-55717882D01*
X64175882Y-55588718D01*
X64327760Y-55487236D01*
X64496517Y-55417335D01*
X64675668Y-55381700D01*
X64858332Y-55381700D01*
X65037483Y-55417335D01*
G37*
G36*
X50454300Y-57236300D02*
G01*
X48599700Y-57236300D01*
X48599700Y-55381700D01*
X50454300Y-55381700D01*
X50454300Y-57236300D01*
G37*
G36*
X77737483Y-55417335D02*
G01*
X77906240Y-55487236D01*
X78058118Y-55588718D01*
X78187282Y-55717882D01*
X78288764Y-55869760D01*
X78358665Y-56038517D01*
X78394300Y-56217668D01*
X78394300Y-56400332D01*
X78358665Y-56579483D01*
X78288764Y-56748240D01*
X78187282Y-56900118D01*
X78058118Y-57029282D01*
X77906240Y-57130764D01*
X77737483Y-57200665D01*
X77558332Y-57236300D01*
X77375668Y-57236300D01*
X77196517Y-57200665D01*
X77027760Y-57130764D01*
X76875882Y-57029282D01*
X76746718Y-56900118D01*
X76645236Y-56748240D01*
X76575335Y-56579483D01*
X76539700Y-56400332D01*
X76539700Y-56217668D01*
X76575335Y-56038517D01*
X76645236Y-55869760D01*
X76746718Y-55717882D01*
X76875882Y-55588718D01*
X77027760Y-55487236D01*
X77196517Y-55417335D01*
X77375668Y-55381700D01*
X77558332Y-55381700D01*
X77737483Y-55417335D01*
G37*
G36*
X72657483Y-55417335D02*
G01*
X72826240Y-55487236D01*
X72978118Y-55588718D01*
X73107282Y-55717882D01*
X73208764Y-55869760D01*
X73278665Y-56038517D01*
X73314300Y-56217668D01*
X73314300Y-56400332D01*
X73278665Y-56579483D01*
X73208764Y-56748240D01*
X73107282Y-56900118D01*
X72978118Y-57029282D01*
X72826240Y-57130764D01*
X72657483Y-57200665D01*
X72478332Y-57236300D01*
X72295668Y-57236300D01*
X72116517Y-57200665D01*
X71947760Y-57130764D01*
X71795882Y-57029282D01*
X71666718Y-56900118D01*
X71565236Y-56748240D01*
X71495335Y-56579483D01*
X71459700Y-56400332D01*
X71459700Y-56217668D01*
X71495335Y-56038517D01*
X71565236Y-55869760D01*
X71666718Y-55717882D01*
X71795882Y-55588718D01*
X71947760Y-55487236D01*
X72116517Y-55417335D01*
X72295668Y-55381700D01*
X72478332Y-55381700D01*
X72657483Y-55417335D01*
G37*
G36*
X75197483Y-55417335D02*
G01*
X75366240Y-55487236D01*
X75518118Y-55588718D01*
X75647282Y-55717882D01*
X75748764Y-55869760D01*
X75818665Y-56038517D01*
X75854300Y-56217668D01*
X75854300Y-56400332D01*
X75818665Y-56579483D01*
X75748764Y-56748240D01*
X75647282Y-56900118D01*
X75518118Y-57029282D01*
X75366240Y-57130764D01*
X75197483Y-57200665D01*
X75018332Y-57236300D01*
X74835668Y-57236300D01*
X74656517Y-57200665D01*
X74487760Y-57130764D01*
X74335882Y-57029282D01*
X74206718Y-56900118D01*
X74105236Y-56748240D01*
X74035335Y-56579483D01*
X73999700Y-56400332D01*
X73999700Y-56217668D01*
X74035335Y-56038517D01*
X74105236Y-55869760D01*
X74206718Y-55717882D01*
X74335882Y-55588718D01*
X74487760Y-55487236D01*
X74656517Y-55417335D01*
X74835668Y-55381700D01*
X75018332Y-55381700D01*
X75197483Y-55417335D01*
G37*
G36*
X67577483Y-55417335D02*
G01*
X67746240Y-55487236D01*
X67898118Y-55588718D01*
X68027282Y-55717882D01*
X68128764Y-55869760D01*
X68198665Y-56038517D01*
X68234300Y-56217668D01*
X68234300Y-56400332D01*
X68198665Y-56579483D01*
X68128764Y-56748240D01*
X68027282Y-56900118D01*
X67898118Y-57029282D01*
X67746240Y-57130764D01*
X67577483Y-57200665D01*
X67398332Y-57236300D01*
X67215668Y-57236300D01*
X67036517Y-57200665D01*
X66867760Y-57130764D01*
X66715882Y-57029282D01*
X66586718Y-56900118D01*
X66485236Y-56748240D01*
X66415335Y-56579483D01*
X66379700Y-56400332D01*
X66379700Y-56217668D01*
X66415335Y-56038517D01*
X66485236Y-55869760D01*
X66586718Y-55717882D01*
X66715882Y-55588718D01*
X66867760Y-55487236D01*
X67036517Y-55417335D01*
X67215668Y-55381700D01*
X67398332Y-55381700D01*
X67577483Y-55417335D01*
G37*
G36*
X57417483Y-55417335D02*
G01*
X57586240Y-55487236D01*
X57738118Y-55588718D01*
X57867282Y-55717882D01*
X57968764Y-55869760D01*
X58038665Y-56038517D01*
X58074300Y-56217668D01*
X58074300Y-56400332D01*
X58038665Y-56579483D01*
X57968764Y-56748240D01*
X57867282Y-56900118D01*
X57738118Y-57029282D01*
X57586240Y-57130764D01*
X57417483Y-57200665D01*
X57238332Y-57236300D01*
X57055668Y-57236300D01*
X56876517Y-57200665D01*
X56707760Y-57130764D01*
X56555882Y-57029282D01*
X56426718Y-56900118D01*
X56325236Y-56748240D01*
X56255335Y-56579483D01*
X56219700Y-56400332D01*
X56219700Y-56217668D01*
X56255335Y-56038517D01*
X56325236Y-55869760D01*
X56426718Y-55717882D01*
X56555882Y-55588718D01*
X56707760Y-55487236D01*
X56876517Y-55417335D01*
X57055668Y-55381700D01*
X57238332Y-55381700D01*
X57417483Y-55417335D01*
G37*
G36*
X54877483Y-55417335D02*
G01*
X55046240Y-55487236D01*
X55198118Y-55588718D01*
X55327282Y-55717882D01*
X55428764Y-55869760D01*
X55498665Y-56038517D01*
X55534300Y-56217668D01*
X55534300Y-56400332D01*
X55498665Y-56579483D01*
X55428764Y-56748240D01*
X55327282Y-56900118D01*
X55198118Y-57029282D01*
X55046240Y-57130764D01*
X54877483Y-57200665D01*
X54698332Y-57236300D01*
X54515668Y-57236300D01*
X54336517Y-57200665D01*
X54167760Y-57130764D01*
X54015882Y-57029282D01*
X53886718Y-56900118D01*
X53785236Y-56748240D01*
X53715335Y-56579483D01*
X53679700Y-56400332D01*
X53679700Y-56217668D01*
X53715335Y-56038517D01*
X53785236Y-55869760D01*
X53886718Y-55717882D01*
X54015882Y-55588718D01*
X54167760Y-55487236D01*
X54336517Y-55417335D01*
X54515668Y-55381700D01*
X54698332Y-55381700D01*
X54877483Y-55417335D01*
G37*
G36*
X59957483Y-55417335D02*
G01*
X60126240Y-55487236D01*
X60278118Y-55588718D01*
X60407282Y-55717882D01*
X60508764Y-55869760D01*
X60578665Y-56038517D01*
X60614300Y-56217668D01*
X60614300Y-56400332D01*
X60578665Y-56579483D01*
X60508764Y-56748240D01*
X60407282Y-56900118D01*
X60278118Y-57029282D01*
X60126240Y-57130764D01*
X59957483Y-57200665D01*
X59778332Y-57236300D01*
X59595668Y-57236300D01*
X59416517Y-57200665D01*
X59247760Y-57130764D01*
X59095882Y-57029282D01*
X58966718Y-56900118D01*
X58865236Y-56748240D01*
X58795335Y-56579483D01*
X58759700Y-56400332D01*
X58759700Y-56217668D01*
X58795335Y-56038517D01*
X58865236Y-55869760D01*
X58966718Y-55717882D01*
X59095882Y-55588718D01*
X59247760Y-55487236D01*
X59416517Y-55417335D01*
X59595668Y-55381700D01*
X59778332Y-55381700D01*
X59957483Y-55417335D01*
G37*
G36*
X70117483Y-55417335D02*
G01*
X70286240Y-55487236D01*
X70438118Y-55588718D01*
X70567282Y-55717882D01*
X70668764Y-55869760D01*
X70738665Y-56038517D01*
X70774300Y-56217668D01*
X70774300Y-56400332D01*
X70738665Y-56579483D01*
X70668764Y-56748240D01*
X70567282Y-56900118D01*
X70438118Y-57029282D01*
X70286240Y-57130764D01*
X70117483Y-57200665D01*
X69938332Y-57236300D01*
X69755668Y-57236300D01*
X69576517Y-57200665D01*
X69407760Y-57130764D01*
X69255882Y-57029282D01*
X69126718Y-56900118D01*
X69025236Y-56748240D01*
X68955335Y-56579483D01*
X68919700Y-56400332D01*
X68919700Y-56217668D01*
X68955335Y-56038517D01*
X69025236Y-55869760D01*
X69126718Y-55717882D01*
X69255882Y-55588718D01*
X69407760Y-55487236D01*
X69576517Y-55417335D01*
X69755668Y-55381700D01*
X69938332Y-55381700D01*
X70117483Y-55417335D01*
G37*
G36*
X62497483Y-55417335D02*
G01*
X62666240Y-55487236D01*
X62818118Y-55588718D01*
X62947282Y-55717882D01*
X63048764Y-55869760D01*
X63118665Y-56038517D01*
X63154300Y-56217668D01*
X63154300Y-56400332D01*
X63118665Y-56579483D01*
X63048764Y-56748240D01*
X62947282Y-56900118D01*
X62818118Y-57029282D01*
X62666240Y-57130764D01*
X62497483Y-57200665D01*
X62318332Y-57236300D01*
X62135668Y-57236300D01*
X61956517Y-57200665D01*
X61787760Y-57130764D01*
X61635882Y-57029282D01*
X61506718Y-56900118D01*
X61405236Y-56748240D01*
X61335335Y-56579483D01*
X61299700Y-56400332D01*
X61299700Y-56217668D01*
X61335335Y-56038517D01*
X61405236Y-55869760D01*
X61506718Y-55717882D01*
X61635882Y-55588718D01*
X61787760Y-55487236D01*
X61956517Y-55417335D01*
X62135668Y-55381700D01*
X62318332Y-55381700D01*
X62497483Y-55417335D01*
G37*
G36*
X52337483Y-55417335D02*
G01*
X52506240Y-55487236D01*
X52658118Y-55588718D01*
X52787282Y-55717882D01*
X52888764Y-55869760D01*
X52958665Y-56038517D01*
X52994300Y-56217668D01*
X52994300Y-56400332D01*
X52958665Y-56579483D01*
X52888764Y-56748240D01*
X52787282Y-56900118D01*
X52658118Y-57029282D01*
X52506240Y-57130764D01*
X52337483Y-57200665D01*
X52158332Y-57236300D01*
X51975668Y-57236300D01*
X51796517Y-57200665D01*
X51627760Y-57130764D01*
X51475882Y-57029282D01*
X51346718Y-56900118D01*
X51245236Y-56748240D01*
X51175335Y-56579483D01*
X51139700Y-56400332D01*
X51139700Y-56217668D01*
X51175335Y-56038517D01*
X51245236Y-55869760D01*
X51346718Y-55717882D01*
X51475882Y-55588718D01*
X51627760Y-55487236D01*
X51796517Y-55417335D01*
X51975668Y-55381700D01*
X52158332Y-55381700D01*
X52337483Y-55417335D01*
G37*
G36*
X113303564Y-53238389D02*
G01*
X113494833Y-53317615D01*
X113494835Y-53317616D01*
X113666973Y-53432635D01*
X113813365Y-53579027D01*
X113928385Y-53751167D01*
X114007611Y-53942436D01*
X114048000Y-54145484D01*
X114048000Y-54352516D01*
X114007611Y-54555564D01*
X113928385Y-54746833D01*
X113928384Y-54746835D01*
X113813365Y-54918973D01*
X113666973Y-55065365D01*
X113494835Y-55180384D01*
X113494834Y-55180385D01*
X113494833Y-55180385D01*
X113303564Y-55259611D01*
X113100516Y-55300000D01*
X112893484Y-55300000D01*
X112690436Y-55259611D01*
X112499167Y-55180385D01*
X112499166Y-55180385D01*
X112499165Y-55180384D01*
X112327027Y-55065365D01*
X112180635Y-54918973D01*
X112065616Y-54746835D01*
X112065615Y-54746833D01*
X111986389Y-54555564D01*
X111946000Y-54352516D01*
X111946000Y-54145484D01*
X111986389Y-53942436D01*
X112065615Y-53751167D01*
X112180635Y-53579027D01*
X112327027Y-53432635D01*
X112499165Y-53317616D01*
X112499167Y-53317615D01*
X112690436Y-53238389D01*
X112893484Y-53198000D01*
X113100516Y-53198000D01*
X113303564Y-53238389D01*
G37*
G36*
X106803564Y-53238389D02*
G01*
X106994833Y-53317615D01*
X106994835Y-53317616D01*
X107166973Y-53432635D01*
X107313365Y-53579027D01*
X107428385Y-53751167D01*
X107507611Y-53942436D01*
X107548000Y-54145484D01*
X107548000Y-54352516D01*
X107507611Y-54555564D01*
X107428385Y-54746833D01*
X107428384Y-54746835D01*
X107313365Y-54918973D01*
X107166973Y-55065365D01*
X106994835Y-55180384D01*
X106994834Y-55180385D01*
X106994833Y-55180385D01*
X106803564Y-55259611D01*
X106600516Y-55300000D01*
X106393484Y-55300000D01*
X106190436Y-55259611D01*
X105999167Y-55180385D01*
X105999166Y-55180385D01*
X105999165Y-55180384D01*
X105827027Y-55065365D01*
X105680635Y-54918973D01*
X105565616Y-54746835D01*
X105565615Y-54746833D01*
X105486389Y-54555564D01*
X105446000Y-54352516D01*
X105446000Y-54145484D01*
X105486389Y-53942436D01*
X105565615Y-53751167D01*
X105680635Y-53579027D01*
X105827027Y-53432635D01*
X105999165Y-53317616D01*
X105999167Y-53317615D01*
X106190436Y-53238389D01*
X106393484Y-53198000D01*
X106600516Y-53198000D01*
X106803564Y-53238389D01*
G37*
G36*
X87298000Y-54050000D02*
G01*
X85696000Y-54050000D01*
X85696000Y-52448000D01*
X87298000Y-52448000D01*
X87298000Y-54050000D01*
G37*
G36*
X103298000Y-54050000D02*
G01*
X101696000Y-54050000D01*
X101696000Y-52448000D01*
X103298000Y-52448000D01*
X103298000Y-54050000D01*
G37*
G36*
X85298000Y-54050000D02*
G01*
X83696000Y-54050000D01*
X83696000Y-52448000D01*
X85298000Y-52448000D01*
X85298000Y-54050000D01*
G37*
G36*
X81298000Y-54050000D02*
G01*
X79696000Y-54050000D01*
X79696000Y-52448000D01*
X81298000Y-52448000D01*
X81298000Y-54050000D01*
G37*
G36*
X83298000Y-54050000D02*
G01*
X81696000Y-54050000D01*
X81696000Y-52448000D01*
X83298000Y-52448000D01*
X83298000Y-54050000D01*
G37*
G36*
X89298000Y-54050000D02*
G01*
X87696000Y-54050000D01*
X87696000Y-52448000D01*
X89298000Y-52448000D01*
X89298000Y-54050000D01*
G37*
G36*
X91298000Y-54050000D02*
G01*
X89696000Y-54050000D01*
X89696000Y-52448000D01*
X91298000Y-52448000D01*
X91298000Y-54050000D01*
G37*
G36*
X95298000Y-54050000D02*
G01*
X93696000Y-54050000D01*
X93696000Y-52448000D01*
X95298000Y-52448000D01*
X95298000Y-54050000D01*
G37*
G36*
X97298000Y-54050000D02*
G01*
X95696000Y-54050000D01*
X95696000Y-52448000D01*
X97298000Y-52448000D01*
X97298000Y-54050000D01*
G37*
G36*
X99298000Y-54050000D02*
G01*
X97696000Y-54050000D01*
X97696000Y-52448000D01*
X99298000Y-52448000D01*
X99298000Y-54050000D01*
G37*
G36*
X93298000Y-54050000D02*
G01*
X91696000Y-54050000D01*
X91696000Y-52448000D01*
X93298000Y-52448000D01*
X93298000Y-54050000D01*
G37*
G36*
X101298000Y-54050000D02*
G01*
X99696000Y-54050000D01*
X99696000Y-52448000D01*
X101298000Y-52448000D01*
X101298000Y-54050000D01*
G37*
G36*
X62745228Y-51550703D02*
G01*
X62900100Y-51614853D01*
X63039481Y-51707985D01*
X63158015Y-51826519D01*
X63251147Y-51965900D01*
X63315297Y-52120772D01*
X63348000Y-52285184D01*
X63348000Y-52452816D01*
X63315297Y-52617228D01*
X63251147Y-52772100D01*
X63158015Y-52911481D01*
X63039481Y-53030015D01*
X62900100Y-53123147D01*
X62745228Y-53187297D01*
X62580816Y-53220000D01*
X62413184Y-53220000D01*
X62248772Y-53187297D01*
X62093900Y-53123147D01*
X61954519Y-53030015D01*
X61835985Y-52911481D01*
X61742853Y-52772100D01*
X61678703Y-52617228D01*
X61646000Y-52452816D01*
X61646000Y-52285184D01*
X61678703Y-52120772D01*
X61742853Y-51965900D01*
X61835985Y-51826519D01*
X61954519Y-51707985D01*
X62093900Y-51614853D01*
X62248772Y-51550703D01*
X62413184Y-51518000D01*
X62580816Y-51518000D01*
X62745228Y-51550703D01*
G37*
G36*
X59745228Y-51550703D02*
G01*
X59900100Y-51614853D01*
X60039481Y-51707985D01*
X60158015Y-51826519D01*
X60251147Y-51965900D01*
X60315297Y-52120772D01*
X60348000Y-52285184D01*
X60348000Y-52452816D01*
X60315297Y-52617228D01*
X60251147Y-52772100D01*
X60158015Y-52911481D01*
X60039481Y-53030015D01*
X59900100Y-53123147D01*
X59745228Y-53187297D01*
X59580816Y-53220000D01*
X59413184Y-53220000D01*
X59248772Y-53187297D01*
X59093900Y-53123147D01*
X58954519Y-53030015D01*
X58835985Y-52911481D01*
X58742853Y-52772100D01*
X58678703Y-52617228D01*
X58646000Y-52452816D01*
X58646000Y-52285184D01*
X58678703Y-52120772D01*
X58742853Y-51965900D01*
X58835985Y-51826519D01*
X58954519Y-51707985D01*
X59093900Y-51614853D01*
X59248772Y-51550703D01*
X59413184Y-51518000D01*
X59580816Y-51518000D01*
X59745228Y-51550703D01*
G37*
G36*
X106803564Y-48738389D02*
G01*
X106994833Y-48817615D01*
X106994835Y-48817616D01*
X107166973Y-48932635D01*
X107313365Y-49079027D01*
X107428385Y-49251167D01*
X107507611Y-49442436D01*
X107548000Y-49645484D01*
X107548000Y-49852516D01*
X107507611Y-50055564D01*
X107428385Y-50246833D01*
X107428384Y-50246835D01*
X107313365Y-50418973D01*
X107166973Y-50565365D01*
X106994835Y-50680384D01*
X106994834Y-50680385D01*
X106994833Y-50680385D01*
X106803564Y-50759611D01*
X106600516Y-50800000D01*
X106393484Y-50800000D01*
X106190436Y-50759611D01*
X105999167Y-50680385D01*
X105999166Y-50680385D01*
X105999165Y-50680384D01*
X105827027Y-50565365D01*
X105680635Y-50418973D01*
X105565616Y-50246835D01*
X105565615Y-50246833D01*
X105486389Y-50055564D01*
X105446000Y-49852516D01*
X105446000Y-49645484D01*
X105486389Y-49442436D01*
X105565615Y-49251167D01*
X105680635Y-49079027D01*
X105827027Y-48932635D01*
X105999165Y-48817616D01*
X105999167Y-48817615D01*
X106190436Y-48738389D01*
X106393484Y-48698000D01*
X106600516Y-48698000D01*
X106803564Y-48738389D01*
G37*
G36*
X113303564Y-48738389D02*
G01*
X113494833Y-48817615D01*
X113494835Y-48817616D01*
X113666973Y-48932635D01*
X113813365Y-49079027D01*
X113928385Y-49251167D01*
X114007611Y-49442436D01*
X114048000Y-49645484D01*
X114048000Y-49852516D01*
X114007611Y-50055564D01*
X113928385Y-50246833D01*
X113928384Y-50246835D01*
X113813365Y-50418973D01*
X113666973Y-50565365D01*
X113494835Y-50680384D01*
X113494834Y-50680385D01*
X113494833Y-50680385D01*
X113303564Y-50759611D01*
X113100516Y-50800000D01*
X112893484Y-50800000D01*
X112690436Y-50759611D01*
X112499167Y-50680385D01*
X112499166Y-50680385D01*
X112499165Y-50680384D01*
X112327027Y-50565365D01*
X112180635Y-50418973D01*
X112065616Y-50246835D01*
X112065615Y-50246833D01*
X111986389Y-50055564D01*
X111946000Y-49852516D01*
X111946000Y-49645484D01*
X111986389Y-49442436D01*
X112065615Y-49251167D01*
X112180635Y-49079027D01*
X112327027Y-48932635D01*
X112499165Y-48817616D01*
X112499167Y-48817615D01*
X112690436Y-48738389D01*
X112893484Y-48698000D01*
X113100516Y-48698000D01*
X113303564Y-48738389D01*
G37*
G36*
X96730642Y-44858781D02*
G01*
X96876414Y-44919162D01*
X96876416Y-44919163D01*
X97007608Y-45006822D01*
X97119178Y-45118392D01*
X97206837Y-45249584D01*
X97206838Y-45249586D01*
X97267219Y-45395358D01*
X97298000Y-45550107D01*
X97298000Y-45707893D01*
X97267219Y-45862642D01*
X97206838Y-46008414D01*
X97206837Y-46008416D01*
X97119178Y-46139608D01*
X97007608Y-46251178D01*
X96876416Y-46338837D01*
X96876415Y-46338838D01*
X96876414Y-46338838D01*
X96730642Y-46399219D01*
X96575893Y-46430000D01*
X96418107Y-46430000D01*
X96263358Y-46399219D01*
X96117586Y-46338838D01*
X96117585Y-46338838D01*
X96117584Y-46338837D01*
X95986392Y-46251178D01*
X95874822Y-46139608D01*
X95787163Y-46008416D01*
X95787162Y-46008414D01*
X95726781Y-45862642D01*
X95696000Y-45707893D01*
X95696000Y-45550107D01*
X95726781Y-45395358D01*
X95787162Y-45249586D01*
X95787163Y-45249584D01*
X95874822Y-45118392D01*
X95986392Y-45006822D01*
X96117584Y-44919163D01*
X96117586Y-44919162D01*
X96263358Y-44858781D01*
X96418107Y-44828000D01*
X96575893Y-44828000D01*
X96730642Y-44858781D01*
G37*
G36*
X88730642Y-44858781D02*
G01*
X88876414Y-44919162D01*
X88876416Y-44919163D01*
X89007608Y-45006822D01*
X89119178Y-45118392D01*
X89206837Y-45249584D01*
X89206838Y-45249586D01*
X89267219Y-45395358D01*
X89298000Y-45550107D01*
X89298000Y-45707893D01*
X89267219Y-45862642D01*
X89206838Y-46008414D01*
X89206837Y-46008416D01*
X89119178Y-46139608D01*
X89007608Y-46251178D01*
X88876416Y-46338837D01*
X88876415Y-46338838D01*
X88876414Y-46338838D01*
X88730642Y-46399219D01*
X88575893Y-46430000D01*
X88418107Y-46430000D01*
X88263358Y-46399219D01*
X88117586Y-46338838D01*
X88117585Y-46338838D01*
X88117584Y-46338837D01*
X87986392Y-46251178D01*
X87874822Y-46139608D01*
X87787163Y-46008416D01*
X87787162Y-46008414D01*
X87726781Y-45862642D01*
X87696000Y-45707893D01*
X87696000Y-45550107D01*
X87726781Y-45395358D01*
X87787162Y-45249586D01*
X87787163Y-45249584D01*
X87874822Y-45118392D01*
X87986392Y-45006822D01*
X88117584Y-44919163D01*
X88117586Y-44919162D01*
X88263358Y-44858781D01*
X88418107Y-44828000D01*
X88575893Y-44828000D01*
X88730642Y-44858781D01*
G37*
G36*
X92730642Y-44858781D02*
G01*
X92876414Y-44919162D01*
X92876416Y-44919163D01*
X93007608Y-45006822D01*
X93119178Y-45118392D01*
X93206837Y-45249584D01*
X93206838Y-45249586D01*
X93267219Y-45395358D01*
X93298000Y-45550107D01*
X93298000Y-45707893D01*
X93267219Y-45862642D01*
X93206838Y-46008414D01*
X93206837Y-46008416D01*
X93119178Y-46139608D01*
X93007608Y-46251178D01*
X92876416Y-46338837D01*
X92876415Y-46338838D01*
X92876414Y-46338838D01*
X92730642Y-46399219D01*
X92575893Y-46430000D01*
X92418107Y-46430000D01*
X92263358Y-46399219D01*
X92117586Y-46338838D01*
X92117585Y-46338838D01*
X92117584Y-46338837D01*
X91986392Y-46251178D01*
X91874822Y-46139608D01*
X91787163Y-46008416D01*
X91787162Y-46008414D01*
X91726781Y-45862642D01*
X91696000Y-45707893D01*
X91696000Y-45550107D01*
X91726781Y-45395358D01*
X91787162Y-45249586D01*
X91787163Y-45249584D01*
X91874822Y-45118392D01*
X91986392Y-45006822D01*
X92117584Y-44919163D01*
X92117586Y-44919162D01*
X92263358Y-44858781D01*
X92418107Y-44828000D01*
X92575893Y-44828000D01*
X92730642Y-44858781D01*
G37*
G36*
X90730642Y-44858781D02*
G01*
X90876414Y-44919162D01*
X90876416Y-44919163D01*
X91007608Y-45006822D01*
X91119178Y-45118392D01*
X91206837Y-45249584D01*
X91206838Y-45249586D01*
X91267219Y-45395358D01*
X91298000Y-45550107D01*
X91298000Y-45707893D01*
X91267219Y-45862642D01*
X91206838Y-46008414D01*
X91206837Y-46008416D01*
X91119178Y-46139608D01*
X91007608Y-46251178D01*
X90876416Y-46338837D01*
X90876415Y-46338838D01*
X90876414Y-46338838D01*
X90730642Y-46399219D01*
X90575893Y-46430000D01*
X90418107Y-46430000D01*
X90263358Y-46399219D01*
X90117586Y-46338838D01*
X90117585Y-46338838D01*
X90117584Y-46338837D01*
X89986392Y-46251178D01*
X89874822Y-46139608D01*
X89787163Y-46008416D01*
X89787162Y-46008414D01*
X89726781Y-45862642D01*
X89696000Y-45707893D01*
X89696000Y-45550107D01*
X89726781Y-45395358D01*
X89787162Y-45249586D01*
X89787163Y-45249584D01*
X89874822Y-45118392D01*
X89986392Y-45006822D01*
X90117584Y-44919163D01*
X90117586Y-44919162D01*
X90263358Y-44858781D01*
X90418107Y-44828000D01*
X90575893Y-44828000D01*
X90730642Y-44858781D01*
G37*
G36*
X98730642Y-44858781D02*
G01*
X98876414Y-44919162D01*
X98876416Y-44919163D01*
X99007608Y-45006822D01*
X99119178Y-45118392D01*
X99206837Y-45249584D01*
X99206838Y-45249586D01*
X99267219Y-45395358D01*
X99298000Y-45550107D01*
X99298000Y-45707893D01*
X99267219Y-45862642D01*
X99206838Y-46008414D01*
X99206837Y-46008416D01*
X99119178Y-46139608D01*
X99007608Y-46251178D01*
X98876416Y-46338837D01*
X98876415Y-46338838D01*
X98876414Y-46338838D01*
X98730642Y-46399219D01*
X98575893Y-46430000D01*
X98418107Y-46430000D01*
X98263358Y-46399219D01*
X98117586Y-46338838D01*
X98117585Y-46338838D01*
X98117584Y-46338837D01*
X97986392Y-46251178D01*
X97874822Y-46139608D01*
X97787163Y-46008416D01*
X97787162Y-46008414D01*
X97726781Y-45862642D01*
X97696000Y-45707893D01*
X97696000Y-45550107D01*
X97726781Y-45395358D01*
X97787162Y-45249586D01*
X97787163Y-45249584D01*
X97874822Y-45118392D01*
X97986392Y-45006822D01*
X98117584Y-44919163D01*
X98117586Y-44919162D01*
X98263358Y-44858781D01*
X98418107Y-44828000D01*
X98575893Y-44828000D01*
X98730642Y-44858781D01*
G37*
G36*
X86730642Y-44858781D02*
G01*
X86876414Y-44919162D01*
X86876416Y-44919163D01*
X87007608Y-45006822D01*
X87119178Y-45118392D01*
X87206837Y-45249584D01*
X87206838Y-45249586D01*
X87267219Y-45395358D01*
X87298000Y-45550107D01*
X87298000Y-45707893D01*
X87267219Y-45862642D01*
X87206838Y-46008414D01*
X87206837Y-46008416D01*
X87119178Y-46139608D01*
X87007608Y-46251178D01*
X86876416Y-46338837D01*
X86876415Y-46338838D01*
X86876414Y-46338838D01*
X86730642Y-46399219D01*
X86575893Y-46430000D01*
X86418107Y-46430000D01*
X86263358Y-46399219D01*
X86117586Y-46338838D01*
X86117585Y-46338838D01*
X86117584Y-46338837D01*
X85986392Y-46251178D01*
X85874822Y-46139608D01*
X85787163Y-46008416D01*
X85787162Y-46008414D01*
X85726781Y-45862642D01*
X85696000Y-45707893D01*
X85696000Y-45550107D01*
X85726781Y-45395358D01*
X85787162Y-45249586D01*
X85787163Y-45249584D01*
X85874822Y-45118392D01*
X85986392Y-45006822D01*
X86117584Y-44919163D01*
X86117586Y-44919162D01*
X86263358Y-44858781D01*
X86418107Y-44828000D01*
X86575893Y-44828000D01*
X86730642Y-44858781D01*
G37*
G36*
X80730642Y-44858781D02*
G01*
X80876414Y-44919162D01*
X80876416Y-44919163D01*
X81007608Y-45006822D01*
X81119178Y-45118392D01*
X81206837Y-45249584D01*
X81206838Y-45249586D01*
X81267219Y-45395358D01*
X81298000Y-45550107D01*
X81298000Y-45707893D01*
X81267219Y-45862642D01*
X81206838Y-46008414D01*
X81206837Y-46008416D01*
X81119178Y-46139608D01*
X81007608Y-46251178D01*
X80876416Y-46338837D01*
X80876415Y-46338838D01*
X80876414Y-46338838D01*
X80730642Y-46399219D01*
X80575893Y-46430000D01*
X80418107Y-46430000D01*
X80263358Y-46399219D01*
X80117586Y-46338838D01*
X80117585Y-46338838D01*
X80117584Y-46338837D01*
X79986392Y-46251178D01*
X79874822Y-46139608D01*
X79787163Y-46008416D01*
X79787162Y-46008414D01*
X79726781Y-45862642D01*
X79696000Y-45707893D01*
X79696000Y-45550107D01*
X79726781Y-45395358D01*
X79787162Y-45249586D01*
X79787163Y-45249584D01*
X79874822Y-45118392D01*
X79986392Y-45006822D01*
X80117584Y-44919163D01*
X80117586Y-44919162D01*
X80263358Y-44858781D01*
X80418107Y-44828000D01*
X80575893Y-44828000D01*
X80730642Y-44858781D01*
G37*
G36*
X82730642Y-44858781D02*
G01*
X82876414Y-44919162D01*
X82876416Y-44919163D01*
X83007608Y-45006822D01*
X83119178Y-45118392D01*
X83206837Y-45249584D01*
X83206838Y-45249586D01*
X83267219Y-45395358D01*
X83298000Y-45550107D01*
X83298000Y-45707893D01*
X83267219Y-45862642D01*
X83206838Y-46008414D01*
X83206837Y-46008416D01*
X83119178Y-46139608D01*
X83007608Y-46251178D01*
X82876416Y-46338837D01*
X82876415Y-46338838D01*
X82876414Y-46338838D01*
X82730642Y-46399219D01*
X82575893Y-46430000D01*
X82418107Y-46430000D01*
X82263358Y-46399219D01*
X82117586Y-46338838D01*
X82117585Y-46338838D01*
X82117584Y-46338837D01*
X81986392Y-46251178D01*
X81874822Y-46139608D01*
X81787163Y-46008416D01*
X81787162Y-46008414D01*
X81726781Y-45862642D01*
X81696000Y-45707893D01*
X81696000Y-45550107D01*
X81726781Y-45395358D01*
X81787162Y-45249586D01*
X81787163Y-45249584D01*
X81874822Y-45118392D01*
X81986392Y-45006822D01*
X82117584Y-44919163D01*
X82117586Y-44919162D01*
X82263358Y-44858781D01*
X82418107Y-44828000D01*
X82575893Y-44828000D01*
X82730642Y-44858781D01*
G37*
G36*
X102730642Y-44858781D02*
G01*
X102876414Y-44919162D01*
X102876416Y-44919163D01*
X103007608Y-45006822D01*
X103119178Y-45118392D01*
X103206837Y-45249584D01*
X103206838Y-45249586D01*
X103267219Y-45395358D01*
X103298000Y-45550107D01*
X103298000Y-45707893D01*
X103267219Y-45862642D01*
X103206838Y-46008414D01*
X103206837Y-46008416D01*
X103119178Y-46139608D01*
X103007608Y-46251178D01*
X102876416Y-46338837D01*
X102876415Y-46338838D01*
X102876414Y-46338838D01*
X102730642Y-46399219D01*
X102575893Y-46430000D01*
X102418107Y-46430000D01*
X102263358Y-46399219D01*
X102117586Y-46338838D01*
X102117585Y-46338838D01*
X102117584Y-46338837D01*
X101986392Y-46251178D01*
X101874822Y-46139608D01*
X101787163Y-46008416D01*
X101787162Y-46008414D01*
X101726781Y-45862642D01*
X101696000Y-45707893D01*
X101696000Y-45550107D01*
X101726781Y-45395358D01*
X101787162Y-45249586D01*
X101787163Y-45249584D01*
X101874822Y-45118392D01*
X101986392Y-45006822D01*
X102117584Y-44919163D01*
X102117586Y-44919162D01*
X102263358Y-44858781D01*
X102418107Y-44828000D01*
X102575893Y-44828000D01*
X102730642Y-44858781D01*
G37*
G36*
X84730642Y-44858781D02*
G01*
X84876414Y-44919162D01*
X84876416Y-44919163D01*
X85007608Y-45006822D01*
X85119178Y-45118392D01*
X85206837Y-45249584D01*
X85206838Y-45249586D01*
X85267219Y-45395358D01*
X85298000Y-45550107D01*
X85298000Y-45707893D01*
X85267219Y-45862642D01*
X85206838Y-46008414D01*
X85206837Y-46008416D01*
X85119178Y-46139608D01*
X85007608Y-46251178D01*
X84876416Y-46338837D01*
X84876415Y-46338838D01*
X84876414Y-46338838D01*
X84730642Y-46399219D01*
X84575893Y-46430000D01*
X84418107Y-46430000D01*
X84263358Y-46399219D01*
X84117586Y-46338838D01*
X84117585Y-46338838D01*
X84117584Y-46338837D01*
X83986392Y-46251178D01*
X83874822Y-46139608D01*
X83787163Y-46008416D01*
X83787162Y-46008414D01*
X83726781Y-45862642D01*
X83696000Y-45707893D01*
X83696000Y-45550107D01*
X83726781Y-45395358D01*
X83787162Y-45249586D01*
X83787163Y-45249584D01*
X83874822Y-45118392D01*
X83986392Y-45006822D01*
X84117584Y-44919163D01*
X84117586Y-44919162D01*
X84263358Y-44858781D01*
X84418107Y-44828000D01*
X84575893Y-44828000D01*
X84730642Y-44858781D01*
G37*
G36*
X94730642Y-44858781D02*
G01*
X94876414Y-44919162D01*
X94876416Y-44919163D01*
X95007608Y-45006822D01*
X95119178Y-45118392D01*
X95206837Y-45249584D01*
X95206838Y-45249586D01*
X95267219Y-45395358D01*
X95298000Y-45550107D01*
X95298000Y-45707893D01*
X95267219Y-45862642D01*
X95206838Y-46008414D01*
X95206837Y-46008416D01*
X95119178Y-46139608D01*
X95007608Y-46251178D01*
X94876416Y-46338837D01*
X94876415Y-46338838D01*
X94876414Y-46338838D01*
X94730642Y-46399219D01*
X94575893Y-46430000D01*
X94418107Y-46430000D01*
X94263358Y-46399219D01*
X94117586Y-46338838D01*
X94117585Y-46338838D01*
X94117584Y-46338837D01*
X93986392Y-46251178D01*
X93874822Y-46139608D01*
X93787163Y-46008416D01*
X93787162Y-46008414D01*
X93726781Y-45862642D01*
X93696000Y-45707893D01*
X93696000Y-45550107D01*
X93726781Y-45395358D01*
X93787162Y-45249586D01*
X93787163Y-45249584D01*
X93874822Y-45118392D01*
X93986392Y-45006822D01*
X94117584Y-44919163D01*
X94117586Y-44919162D01*
X94263358Y-44858781D01*
X94418107Y-44828000D01*
X94575893Y-44828000D01*
X94730642Y-44858781D01*
G37*
G36*
X100730642Y-44858781D02*
G01*
X100876414Y-44919162D01*
X100876416Y-44919163D01*
X101007608Y-45006822D01*
X101119178Y-45118392D01*
X101206837Y-45249584D01*
X101206838Y-45249586D01*
X101267219Y-45395358D01*
X101298000Y-45550107D01*
X101298000Y-45707893D01*
X101267219Y-45862642D01*
X101206838Y-46008414D01*
X101206837Y-46008416D01*
X101119178Y-46139608D01*
X101007608Y-46251178D01*
X100876416Y-46338837D01*
X100876415Y-46338838D01*
X100876414Y-46338838D01*
X100730642Y-46399219D01*
X100575893Y-46430000D01*
X100418107Y-46430000D01*
X100263358Y-46399219D01*
X100117586Y-46338838D01*
X100117585Y-46338838D01*
X100117584Y-46338837D01*
X99986392Y-46251178D01*
X99874822Y-46139608D01*
X99787163Y-46008416D01*
X99787162Y-46008414D01*
X99726781Y-45862642D01*
X99696000Y-45707893D01*
X99696000Y-45550107D01*
X99726781Y-45395358D01*
X99787162Y-45249586D01*
X99787163Y-45249584D01*
X99874822Y-45118392D01*
X99986392Y-45006822D01*
X100117584Y-44919163D01*
X100117586Y-44919162D01*
X100263358Y-44858781D01*
X100418107Y-44828000D01*
X100575893Y-44828000D01*
X100730642Y-44858781D01*
G37*
G36*
X62745228Y-43930703D02*
G01*
X62900100Y-43994853D01*
X63039481Y-44087985D01*
X63158015Y-44206519D01*
X63251147Y-44345900D01*
X63315297Y-44500772D01*
X63348000Y-44665184D01*
X63348000Y-44832816D01*
X63315297Y-44997228D01*
X63251147Y-45152100D01*
X63158015Y-45291481D01*
X63039481Y-45410015D01*
X62900100Y-45503147D01*
X62745228Y-45567297D01*
X62580816Y-45600000D01*
X62413184Y-45600000D01*
X62248772Y-45567297D01*
X62093900Y-45503147D01*
X61954519Y-45410015D01*
X61835985Y-45291481D01*
X61742853Y-45152100D01*
X61678703Y-44997228D01*
X61646000Y-44832816D01*
X61646000Y-44665184D01*
X61678703Y-44500772D01*
X61742853Y-44345900D01*
X61835985Y-44206519D01*
X61954519Y-44087985D01*
X62093900Y-43994853D01*
X62248772Y-43930703D01*
X62413184Y-43898000D01*
X62580816Y-43898000D01*
X62745228Y-43930703D01*
G37*
G36*
X59745228Y-43930703D02*
G01*
X59900100Y-43994853D01*
X60039481Y-44087985D01*
X60158015Y-44206519D01*
X60251147Y-44345900D01*
X60315297Y-44500772D01*
X60348000Y-44665184D01*
X60348000Y-44832816D01*
X60315297Y-44997228D01*
X60251147Y-45152100D01*
X60158015Y-45291481D01*
X60039481Y-45410015D01*
X59900100Y-45503147D01*
X59745228Y-45567297D01*
X59580816Y-45600000D01*
X59413184Y-45600000D01*
X59248772Y-45567297D01*
X59093900Y-45503147D01*
X58954519Y-45410015D01*
X58835985Y-45291481D01*
X58742853Y-45152100D01*
X58678703Y-44997228D01*
X58646000Y-44832816D01*
X58646000Y-44665184D01*
X58678703Y-44500772D01*
X58742853Y-44345900D01*
X58835985Y-44206519D01*
X58954519Y-44087985D01*
X59093900Y-43994853D01*
X59248772Y-43930703D01*
X59413184Y-43898000D01*
X59580816Y-43898000D01*
X59745228Y-43930703D01*
G37*
G36*
X59957483Y-40177335D02*
G01*
X60126240Y-40247236D01*
X60278118Y-40348718D01*
X60407282Y-40477882D01*
X60508764Y-40629760D01*
X60578665Y-40798517D01*
X60614300Y-40977668D01*
X60614300Y-41160332D01*
X60578665Y-41339483D01*
X60508764Y-41508240D01*
X60407282Y-41660118D01*
X60278118Y-41789282D01*
X60126240Y-41890764D01*
X59957483Y-41960665D01*
X59778332Y-41996300D01*
X59595668Y-41996300D01*
X59416517Y-41960665D01*
X59247760Y-41890764D01*
X59095882Y-41789282D01*
X58966718Y-41660118D01*
X58865236Y-41508240D01*
X58795335Y-41339483D01*
X58759700Y-41160332D01*
X58759700Y-40977668D01*
X58795335Y-40798517D01*
X58865236Y-40629760D01*
X58966718Y-40477882D01*
X59095882Y-40348718D01*
X59247760Y-40247236D01*
X59416517Y-40177335D01*
X59595668Y-40141700D01*
X59778332Y-40141700D01*
X59957483Y-40177335D01*
G37*
G36*
X67577483Y-40177335D02*
G01*
X67746240Y-40247236D01*
X67898118Y-40348718D01*
X68027282Y-40477882D01*
X68128764Y-40629760D01*
X68198665Y-40798517D01*
X68234300Y-40977668D01*
X68234300Y-41160332D01*
X68198665Y-41339483D01*
X68128764Y-41508240D01*
X68027282Y-41660118D01*
X67898118Y-41789282D01*
X67746240Y-41890764D01*
X67577483Y-41960665D01*
X67398332Y-41996300D01*
X67215668Y-41996300D01*
X67036517Y-41960665D01*
X66867760Y-41890764D01*
X66715882Y-41789282D01*
X66586718Y-41660118D01*
X66485236Y-41508240D01*
X66415335Y-41339483D01*
X66379700Y-41160332D01*
X66379700Y-40977668D01*
X66415335Y-40798517D01*
X66485236Y-40629760D01*
X66586718Y-40477882D01*
X66715882Y-40348718D01*
X66867760Y-40247236D01*
X67036517Y-40177335D01*
X67215668Y-40141700D01*
X67398332Y-40141700D01*
X67577483Y-40177335D01*
G37*
G36*
X70117483Y-40177335D02*
G01*
X70286240Y-40247236D01*
X70438118Y-40348718D01*
X70567282Y-40477882D01*
X70668764Y-40629760D01*
X70738665Y-40798517D01*
X70774300Y-40977668D01*
X70774300Y-41160332D01*
X70738665Y-41339483D01*
X70668764Y-41508240D01*
X70567282Y-41660118D01*
X70438118Y-41789282D01*
X70286240Y-41890764D01*
X70117483Y-41960665D01*
X69938332Y-41996300D01*
X69755668Y-41996300D01*
X69576517Y-41960665D01*
X69407760Y-41890764D01*
X69255882Y-41789282D01*
X69126718Y-41660118D01*
X69025236Y-41508240D01*
X68955335Y-41339483D01*
X68919700Y-41160332D01*
X68919700Y-40977668D01*
X68955335Y-40798517D01*
X69025236Y-40629760D01*
X69126718Y-40477882D01*
X69255882Y-40348718D01*
X69407760Y-40247236D01*
X69576517Y-40177335D01*
X69755668Y-40141700D01*
X69938332Y-40141700D01*
X70117483Y-40177335D01*
G37*
G36*
X72657483Y-40177335D02*
G01*
X72826240Y-40247236D01*
X72978118Y-40348718D01*
X73107282Y-40477882D01*
X73208764Y-40629760D01*
X73278665Y-40798517D01*
X73314300Y-40977668D01*
X73314300Y-41160332D01*
X73278665Y-41339483D01*
X73208764Y-41508240D01*
X73107282Y-41660118D01*
X72978118Y-41789282D01*
X72826240Y-41890764D01*
X72657483Y-41960665D01*
X72478332Y-41996300D01*
X72295668Y-41996300D01*
X72116517Y-41960665D01*
X71947760Y-41890764D01*
X71795882Y-41789282D01*
X71666718Y-41660118D01*
X71565236Y-41508240D01*
X71495335Y-41339483D01*
X71459700Y-41160332D01*
X71459700Y-40977668D01*
X71495335Y-40798517D01*
X71565236Y-40629760D01*
X71666718Y-40477882D01*
X71795882Y-40348718D01*
X71947760Y-40247236D01*
X72116517Y-40177335D01*
X72295668Y-40141700D01*
X72478332Y-40141700D01*
X72657483Y-40177335D01*
G37*
G36*
X75197483Y-40177335D02*
G01*
X75366240Y-40247236D01*
X75518118Y-40348718D01*
X75647282Y-40477882D01*
X75748764Y-40629760D01*
X75818665Y-40798517D01*
X75854300Y-40977668D01*
X75854300Y-41160332D01*
X75818665Y-41339483D01*
X75748764Y-41508240D01*
X75647282Y-41660118D01*
X75518118Y-41789282D01*
X75366240Y-41890764D01*
X75197483Y-41960665D01*
X75018332Y-41996300D01*
X74835668Y-41996300D01*
X74656517Y-41960665D01*
X74487760Y-41890764D01*
X74335882Y-41789282D01*
X74206718Y-41660118D01*
X74105236Y-41508240D01*
X74035335Y-41339483D01*
X73999700Y-41160332D01*
X73999700Y-40977668D01*
X74035335Y-40798517D01*
X74105236Y-40629760D01*
X74206718Y-40477882D01*
X74335882Y-40348718D01*
X74487760Y-40247236D01*
X74656517Y-40177335D01*
X74835668Y-40141700D01*
X75018332Y-40141700D01*
X75197483Y-40177335D01*
G37*
G36*
X77737483Y-40177335D02*
G01*
X77906240Y-40247236D01*
X78058118Y-40348718D01*
X78187282Y-40477882D01*
X78288764Y-40629760D01*
X78358665Y-40798517D01*
X78394300Y-40977668D01*
X78394300Y-41160332D01*
X78358665Y-41339483D01*
X78288764Y-41508240D01*
X78187282Y-41660118D01*
X78058118Y-41789282D01*
X77906240Y-41890764D01*
X77737483Y-41960665D01*
X77558332Y-41996300D01*
X77375668Y-41996300D01*
X77196517Y-41960665D01*
X77027760Y-41890764D01*
X76875882Y-41789282D01*
X76746718Y-41660118D01*
X76645236Y-41508240D01*
X76575335Y-41339483D01*
X76539700Y-41160332D01*
X76539700Y-40977668D01*
X76575335Y-40798517D01*
X76645236Y-40629760D01*
X76746718Y-40477882D01*
X76875882Y-40348718D01*
X77027760Y-40247236D01*
X77196517Y-40177335D01*
X77375668Y-40141700D01*
X77558332Y-40141700D01*
X77737483Y-40177335D01*
G37*
G36*
X49797483Y-40177335D02*
G01*
X49966240Y-40247236D01*
X50118118Y-40348718D01*
X50247282Y-40477882D01*
X50348764Y-40629760D01*
X50418665Y-40798517D01*
X50454300Y-40977668D01*
X50454300Y-41160332D01*
X50418665Y-41339483D01*
X50348764Y-41508240D01*
X50247282Y-41660118D01*
X50118118Y-41789282D01*
X49966240Y-41890764D01*
X49797483Y-41960665D01*
X49618332Y-41996300D01*
X49435668Y-41996300D01*
X49256517Y-41960665D01*
X49087760Y-41890764D01*
X48935882Y-41789282D01*
X48806718Y-41660118D01*
X48705236Y-41508240D01*
X48635335Y-41339483D01*
X48599700Y-41160332D01*
X48599700Y-40977668D01*
X48635335Y-40798517D01*
X48705236Y-40629760D01*
X48806718Y-40477882D01*
X48935882Y-40348718D01*
X49087760Y-40247236D01*
X49256517Y-40177335D01*
X49435668Y-40141700D01*
X49618332Y-40141700D01*
X49797483Y-40177335D01*
G37*
G36*
X52337483Y-40177335D02*
G01*
X52506240Y-40247236D01*
X52658118Y-40348718D01*
X52787282Y-40477882D01*
X52888764Y-40629760D01*
X52958665Y-40798517D01*
X52994300Y-40977668D01*
X52994300Y-41160332D01*
X52958665Y-41339483D01*
X52888764Y-41508240D01*
X52787282Y-41660118D01*
X52658118Y-41789282D01*
X52506240Y-41890764D01*
X52337483Y-41960665D01*
X52158332Y-41996300D01*
X51975668Y-41996300D01*
X51796517Y-41960665D01*
X51627760Y-41890764D01*
X51475882Y-41789282D01*
X51346718Y-41660118D01*
X51245236Y-41508240D01*
X51175335Y-41339483D01*
X51139700Y-41160332D01*
X51139700Y-40977668D01*
X51175335Y-40798517D01*
X51245236Y-40629760D01*
X51346718Y-40477882D01*
X51475882Y-40348718D01*
X51627760Y-40247236D01*
X51796517Y-40177335D01*
X51975668Y-40141700D01*
X52158332Y-40141700D01*
X52337483Y-40177335D01*
G37*
G36*
X54877483Y-40177335D02*
G01*
X55046240Y-40247236D01*
X55198118Y-40348718D01*
X55327282Y-40477882D01*
X55428764Y-40629760D01*
X55498665Y-40798517D01*
X55534300Y-40977668D01*
X55534300Y-41160332D01*
X55498665Y-41339483D01*
X55428764Y-41508240D01*
X55327282Y-41660118D01*
X55198118Y-41789282D01*
X55046240Y-41890764D01*
X54877483Y-41960665D01*
X54698332Y-41996300D01*
X54515668Y-41996300D01*
X54336517Y-41960665D01*
X54167760Y-41890764D01*
X54015882Y-41789282D01*
X53886718Y-41660118D01*
X53785236Y-41508240D01*
X53715335Y-41339483D01*
X53679700Y-41160332D01*
X53679700Y-40977668D01*
X53715335Y-40798517D01*
X53785236Y-40629760D01*
X53886718Y-40477882D01*
X54015882Y-40348718D01*
X54167760Y-40247236D01*
X54336517Y-40177335D01*
X54515668Y-40141700D01*
X54698332Y-40141700D01*
X54877483Y-40177335D01*
G37*
G36*
X57417483Y-40177335D02*
G01*
X57586240Y-40247236D01*
X57738118Y-40348718D01*
X57867282Y-40477882D01*
X57968764Y-40629760D01*
X58038665Y-40798517D01*
X58074300Y-40977668D01*
X58074300Y-41160332D01*
X58038665Y-41339483D01*
X57968764Y-41508240D01*
X57867282Y-41660118D01*
X57738118Y-41789282D01*
X57586240Y-41890764D01*
X57417483Y-41960665D01*
X57238332Y-41996300D01*
X57055668Y-41996300D01*
X56876517Y-41960665D01*
X56707760Y-41890764D01*
X56555882Y-41789282D01*
X56426718Y-41660118D01*
X56325236Y-41508240D01*
X56255335Y-41339483D01*
X56219700Y-41160332D01*
X56219700Y-40977668D01*
X56255335Y-40798517D01*
X56325236Y-40629760D01*
X56426718Y-40477882D01*
X56555882Y-40348718D01*
X56707760Y-40247236D01*
X56876517Y-40177335D01*
X57055668Y-40141700D01*
X57238332Y-40141700D01*
X57417483Y-40177335D01*
G37*
G36*
X62497483Y-40177335D02*
G01*
X62666240Y-40247236D01*
X62818118Y-40348718D01*
X62947282Y-40477882D01*
X63048764Y-40629760D01*
X63118665Y-40798517D01*
X63154300Y-40977668D01*
X63154300Y-41160332D01*
X63118665Y-41339483D01*
X63048764Y-41508240D01*
X62947282Y-41660118D01*
X62818118Y-41789282D01*
X62666240Y-41890764D01*
X62497483Y-41960665D01*
X62318332Y-41996300D01*
X62135668Y-41996300D01*
X61956517Y-41960665D01*
X61787760Y-41890764D01*
X61635882Y-41789282D01*
X61506718Y-41660118D01*
X61405236Y-41508240D01*
X61335335Y-41339483D01*
X61299700Y-41160332D01*
X61299700Y-40977668D01*
X61335335Y-40798517D01*
X61405236Y-40629760D01*
X61506718Y-40477882D01*
X61635882Y-40348718D01*
X61787760Y-40247236D01*
X61956517Y-40177335D01*
X62135668Y-40141700D01*
X62318332Y-40141700D01*
X62497483Y-40177335D01*
G37*
G36*
X65037483Y-40177335D02*
G01*
X65206240Y-40247236D01*
X65358118Y-40348718D01*
X65487282Y-40477882D01*
X65588764Y-40629760D01*
X65658665Y-40798517D01*
X65694300Y-40977668D01*
X65694300Y-41160332D01*
X65658665Y-41339483D01*
X65588764Y-41508240D01*
X65487282Y-41660118D01*
X65358118Y-41789282D01*
X65206240Y-41890764D01*
X65037483Y-41960665D01*
X64858332Y-41996300D01*
X64675668Y-41996300D01*
X64496517Y-41960665D01*
X64327760Y-41890764D01*
X64175882Y-41789282D01*
X64046718Y-41660118D01*
X63945236Y-41508240D01*
X63875335Y-41339483D01*
X63839700Y-41160332D01*
X63839700Y-40977668D01*
X63875335Y-40798517D01*
X63945236Y-40629760D01*
X64046718Y-40477882D01*
X64175882Y-40348718D01*
X64327760Y-40247236D01*
X64496517Y-40177335D01*
X64675668Y-40141700D01*
X64858332Y-40141700D01*
X65037483Y-40177335D01*
G37*
M02*
