G04 #@! TF.GenerationSoftware,KiCad,Pcbnew,5.1.6*
G04 #@! TF.CreationDate,2020-07-01T23:17:58-05:00*
G04 #@! TF.ProjectId,fissure,66697373-7572-4652-9e6b-696361645f70,rev?*
G04 #@! TF.SameCoordinates,Original*
G04 #@! TF.FileFunction,Copper,L1,Top*
G04 #@! TF.FilePolarity,Positive*
%FSLAX46Y46*%
G04 Gerber Fmt 4.6, Leading zero omitted, Abs format (unit mm)*
G04 Created by KiCad (PCBNEW 5.1.6) date 2020-07-01 23:17:58*
%MOMM*%
%LPD*%
G01*
G04 APERTURE LIST*
G04 #@! TA.AperFunction,ComponentPad*
%ADD10C,2.000000*%
G04 #@! TD*
G04 #@! TA.AperFunction,ComponentPad*
%ADD11R,1.500000X1.500000*%
G04 #@! TD*
G04 #@! TA.AperFunction,ComponentPad*
%ADD12O,1.500000X1.500000*%
G04 #@! TD*
G04 #@! TA.AperFunction,WasherPad*
%ADD13C,1.524000*%
G04 #@! TD*
G04 #@! TA.AperFunction,ComponentPad*
%ADD14C,1.524000*%
G04 #@! TD*
G04 #@! TA.AperFunction,ComponentPad*
%ADD15C,1.752600*%
G04 #@! TD*
G04 #@! TA.AperFunction,ComponentPad*
%ADD16R,1.752600X1.752600*%
G04 #@! TD*
G04 #@! TA.AperFunction,SMDPad,CuDef*
%ADD17R,2.500000X1.200000*%
G04 #@! TD*
G04 #@! TA.AperFunction,ComponentPad*
%ADD18O,1.600000X1.600000*%
G04 #@! TD*
G04 #@! TA.AperFunction,ComponentPad*
%ADD19C,1.600000*%
G04 #@! TD*
G04 #@! TA.AperFunction,SMDPad,CuDef*
%ADD20R,1.600000X0.850000*%
G04 #@! TD*
G04 #@! TA.AperFunction,ViaPad*
%ADD21C,0.800000*%
G04 #@! TD*
G04 #@! TA.AperFunction,Conductor*
%ADD22C,0.250000*%
G04 #@! TD*
G04 #@! TA.AperFunction,Conductor*
%ADD23C,0.254000*%
G04 #@! TD*
G04 #@! TA.AperFunction,Conductor*
%ADD24C,0.508000*%
G04 #@! TD*
G04 APERTURE END LIST*
D10*
X115697000Y-117249000D03*
X113597000Y-122249000D03*
X115697000Y-127249000D03*
D11*
X51497000Y-67749000D03*
D12*
X51497000Y-60129000D03*
D13*
X108497000Y-114249000D03*
X96497000Y-126249000D03*
D14*
X104497000Y-111249000D03*
X102497000Y-111249000D03*
X100497000Y-111249000D03*
X93497000Y-118249000D03*
X93497000Y-120249000D03*
X93497000Y-122249000D03*
D15*
X49527000Y-41069000D03*
X77467000Y-56309000D03*
X52067000Y-41069000D03*
X54607000Y-41069000D03*
X57147000Y-41069000D03*
X59687000Y-41069000D03*
X62227000Y-41069000D03*
X64767000Y-41069000D03*
X67307000Y-41069000D03*
X69847000Y-41069000D03*
X72387000Y-41069000D03*
X74927000Y-41069000D03*
X77467000Y-41069000D03*
X74927000Y-56309000D03*
X72387000Y-56309000D03*
X69847000Y-56309000D03*
X67307000Y-56309000D03*
X64767000Y-56309000D03*
X62227000Y-56309000D03*
X59687000Y-56309000D03*
X57147000Y-56309000D03*
X54607000Y-56309000D03*
X52067000Y-56309000D03*
D16*
X49527000Y-56309000D03*
D13*
X96497000Y-126249000D03*
X108497000Y-114249000D03*
D14*
X93497000Y-122249000D03*
X93497000Y-120249000D03*
X93497000Y-118249000D03*
X100497000Y-111249000D03*
X102497000Y-111249000D03*
X104497000Y-111249000D03*
D10*
X56497000Y-83449000D03*
X51497000Y-81349000D03*
X46497000Y-83449000D03*
X128497000Y-83949000D03*
X123497000Y-81849000D03*
X118497000Y-83949000D03*
X74497000Y-97449000D03*
X69497000Y-95349000D03*
X64497000Y-97449000D03*
X92497000Y-58449000D03*
X87497000Y-56349000D03*
X82497000Y-58449000D03*
X106497000Y-54249000D03*
X106497000Y-49749000D03*
X112997000Y-54249000D03*
X112997000Y-49749000D03*
X110497000Y-97449000D03*
X105497000Y-95349000D03*
X100497000Y-97449000D03*
X132697000Y-122249000D03*
X130597000Y-127249000D03*
X132697000Y-132249000D03*
D17*
X142247000Y-106949000D03*
X142247000Y-103949000D03*
X142247000Y-110949000D03*
X135747000Y-112049000D03*
D11*
X49497000Y-67749000D03*
D12*
X49497000Y-60129000D03*
D11*
X59497000Y-67749000D03*
D12*
X59497000Y-60129000D03*
X80497000Y-45629000D03*
D11*
X80497000Y-53249000D03*
D12*
X94497000Y-45629000D03*
D11*
X94497000Y-53249000D03*
D12*
X100497000Y-45629000D03*
D11*
X100497000Y-53249000D03*
X57497000Y-67749000D03*
D12*
X57497000Y-60129000D03*
X82497000Y-45629000D03*
D11*
X82497000Y-53249000D03*
D12*
X90497000Y-45629000D03*
D11*
X90497000Y-53249000D03*
D12*
X98497000Y-45629000D03*
D11*
X98497000Y-53249000D03*
X53497000Y-67749000D03*
D12*
X53497000Y-60129000D03*
D11*
X55497000Y-67749000D03*
D12*
X55497000Y-60129000D03*
X84497000Y-45629000D03*
D11*
X84497000Y-53249000D03*
D12*
X88497000Y-45629000D03*
D11*
X88497000Y-53249000D03*
D12*
X96497000Y-45629000D03*
D11*
X96497000Y-53249000D03*
D12*
X86497000Y-45629000D03*
D11*
X86497000Y-53249000D03*
D12*
X92497000Y-45629000D03*
D11*
X92497000Y-53249000D03*
D12*
X102497000Y-45629000D03*
D11*
X102497000Y-53249000D03*
D18*
X62497000Y-52369000D03*
D19*
X62497000Y-44749000D03*
D18*
X59497000Y-52369000D03*
D19*
X59497000Y-44749000D03*
D10*
X92497000Y-75449000D03*
X87497000Y-73349000D03*
X82497000Y-75449000D03*
D20*
X141147000Y-116724000D03*
X141147000Y-114974000D03*
X137647000Y-116724000D03*
X137647000Y-114974000D03*
D10*
X128497000Y-66949000D03*
X123497000Y-64849000D03*
X118497000Y-66949000D03*
X74497000Y-63449000D03*
X69497000Y-61349000D03*
X64497000Y-63449000D03*
X56497000Y-100449000D03*
X51497000Y-98349000D03*
X46497000Y-100449000D03*
X110497000Y-63449000D03*
X105497000Y-61349000D03*
X100497000Y-63449000D03*
X98697000Y-115249000D03*
X96597000Y-120249000D03*
X98697000Y-125249000D03*
X128497000Y-100949000D03*
X123497000Y-98849000D03*
X118497000Y-100949000D03*
X92497000Y-92449000D03*
X87497000Y-90349000D03*
X82497000Y-92449000D03*
X59497000Y-117449000D03*
X54497000Y-115349000D03*
X49497000Y-117449000D03*
X110497000Y-80449000D03*
X105497000Y-78349000D03*
X100497000Y-80449000D03*
X74497000Y-80449000D03*
X69497000Y-78349000D03*
X64497000Y-80449000D03*
D21*
X138997000Y-113249000D03*
X138997000Y-103749000D03*
X134420000Y-114975000D03*
X133747000Y-101999000D03*
X138997000Y-110749000D03*
X81497000Y-107749000D03*
X138997000Y-107249000D03*
X81497000Y-105749000D03*
X139497000Y-115749000D03*
D22*
X46497000Y-83449000D02*
X56497000Y-83449000D01*
D23*
X64497000Y-63449000D02*
X74497000Y-63449000D01*
X82497000Y-55249000D02*
X82497000Y-58449000D01*
X80497000Y-53249000D02*
X82497000Y-55249000D01*
D22*
X100497000Y-59249000D02*
X94497000Y-53249000D01*
X100497000Y-63449000D02*
X100497000Y-59249000D01*
X105497000Y-58249000D02*
X100497000Y-53249000D01*
D23*
X110297000Y-58249000D02*
X118497000Y-66449000D01*
X105497000Y-58249000D02*
X110297000Y-58249000D01*
D22*
X46497000Y-100449000D02*
X56497000Y-100449000D01*
D23*
X64497000Y-80449000D02*
X74497000Y-80449000D01*
X64497000Y-74749000D02*
X64497000Y-80449000D01*
X57497000Y-67749000D02*
X64497000Y-74749000D01*
X83997000Y-73949000D02*
X82497000Y-75449000D01*
X83997000Y-54749000D02*
X83997000Y-73949000D01*
X82497000Y-53249000D02*
X83997000Y-54749000D01*
X90497000Y-70449000D02*
X90497000Y-53249000D01*
X100497000Y-80449000D02*
X90497000Y-70449000D01*
D22*
X102997000Y-57749000D02*
X98497000Y-53249000D01*
X102997000Y-67949000D02*
X102997000Y-57749000D01*
X118497000Y-83449000D02*
X102997000Y-67949000D01*
D23*
X59497000Y-73749000D02*
X53497000Y-67749000D01*
X59497000Y-117449000D02*
X59497000Y-73749000D01*
D22*
X49497000Y-117449000D02*
X59497000Y-117449000D01*
D23*
X74497000Y-97449000D02*
X64497000Y-97449000D01*
X60997000Y-73249000D02*
X60997000Y-93949000D01*
X60997000Y-93949000D02*
X64497000Y-97449000D01*
X55497000Y-67749000D02*
X60997000Y-73249000D01*
X84497000Y-90449000D02*
X82497000Y-92449000D01*
X84497000Y-53249000D02*
X84497000Y-90449000D01*
X89997000Y-54749000D02*
X88497000Y-53249000D01*
X89997000Y-83249000D02*
X89997000Y-54749000D01*
X100497000Y-93749000D02*
X89997000Y-83249000D01*
X100497000Y-97449000D02*
X100497000Y-93749000D01*
X115997000Y-82749000D02*
X101997000Y-68749000D01*
X115997000Y-97949000D02*
X115997000Y-82749000D01*
X118497000Y-100449000D02*
X115997000Y-97949000D01*
D22*
X101997000Y-58749000D02*
X96497000Y-53249000D01*
X101997000Y-68749000D02*
X101997000Y-58749000D01*
D23*
X98197000Y-94449000D02*
X84997000Y-81249000D01*
X84997000Y-54749000D02*
X86497000Y-53249000D01*
X84997000Y-81249000D02*
X84997000Y-54749000D01*
X105997000Y-110499000D02*
X98197000Y-102699000D01*
X105997000Y-113749000D02*
X105997000Y-110499000D01*
X98197000Y-102699000D02*
X98197000Y-94449000D01*
X98697000Y-125249000D02*
X98697000Y-117549000D01*
X98697000Y-117549000D02*
X98697000Y-115249000D01*
X98697000Y-117549000D02*
X102197000Y-117549000D01*
X102197000Y-117549000D02*
X105997000Y-113749000D01*
D22*
X96497000Y-57249000D02*
X92497000Y-53249000D01*
X96497000Y-66749000D02*
X96497000Y-57249000D01*
D23*
X115697000Y-127249000D02*
X115697000Y-117249000D01*
X102497000Y-104049000D02*
X102497000Y-72749000D01*
X102497000Y-72749000D02*
X96497000Y-66749000D01*
X115697000Y-117249000D02*
X102497000Y-104049000D01*
D22*
X132697000Y-132249000D02*
X132697000Y-122249000D01*
D23*
X106497000Y-57249000D02*
X102497000Y-53249000D01*
X121497000Y-57249000D02*
X106497000Y-57249000D01*
X132697000Y-68449000D02*
X121497000Y-57249000D01*
D22*
X132697000Y-122249000D02*
X132697000Y-68449000D01*
D24*
X141147000Y-114974000D02*
X139422000Y-113249000D01*
X139422000Y-113249000D02*
X138997000Y-113249000D01*
X135747000Y-112049000D02*
X137797000Y-112049000D01*
X137797000Y-112049000D02*
X138997000Y-113249000D01*
X135747000Y-69999000D02*
X135747000Y-112049000D01*
X119997000Y-54249000D02*
X135747000Y-69999000D01*
X106497000Y-54249000D02*
X119997000Y-54249000D01*
X57147000Y-52099000D02*
X57147000Y-56309000D01*
X102497000Y-50249000D02*
X58997000Y-50249000D01*
X58997000Y-50249000D02*
X57147000Y-52099000D01*
X106497000Y-54249000D02*
X102497000Y-50249000D01*
X139197000Y-103949000D02*
X138997000Y-103749000D01*
X142247000Y-103949000D02*
X139197000Y-103949000D01*
X134420000Y-114975000D02*
X136169000Y-116724000D01*
X136169000Y-116724000D02*
X137647000Y-116724000D01*
X133747000Y-114302000D02*
X133747000Y-101999000D01*
X134420000Y-114975000D02*
X133747000Y-114302000D01*
D23*
X53497000Y-60129000D02*
X49497000Y-60129000D01*
X49497000Y-56339000D02*
X49527000Y-56309000D01*
X49497000Y-60129000D02*
X49497000Y-56339000D01*
X59497000Y-60129000D02*
X55497000Y-60129000D01*
X52067000Y-56699000D02*
X52067000Y-56309000D01*
X55497000Y-60129000D02*
X52067000Y-56699000D01*
X74407000Y-45629000D02*
X69847000Y-41069000D01*
X86497000Y-45629000D02*
X74407000Y-45629000D01*
X94497000Y-45629000D02*
X88497000Y-45629000D01*
X87117000Y-44249000D02*
X88497000Y-45629000D01*
X75567000Y-44249000D02*
X87117000Y-44249000D01*
X72387000Y-41069000D02*
X75567000Y-44249000D01*
X102497000Y-45629000D02*
X96497000Y-45629000D01*
X77107000Y-43249000D02*
X74927000Y-41069000D01*
X94117000Y-43249000D02*
X77107000Y-43249000D01*
X96497000Y-45629000D02*
X94117000Y-43249000D01*
X61997000Y-70849000D02*
X69497000Y-78349000D01*
X61997000Y-61619000D02*
X61997000Y-70849000D01*
X67307000Y-56309000D02*
X61997000Y-61619000D01*
X76997000Y-63459000D02*
X69847000Y-56309000D01*
X76997000Y-87849000D02*
X76997000Y-63459000D01*
X69497000Y-95349000D02*
X76997000Y-87849000D01*
X96597000Y-121649000D02*
X96597000Y-120249000D01*
X94497000Y-123749000D02*
X96597000Y-121649000D01*
X91497000Y-123749000D02*
X94497000Y-123749000D01*
X77497000Y-109749000D02*
X91497000Y-123749000D01*
X77497000Y-61419000D02*
X77497000Y-109749000D01*
X72387000Y-56309000D02*
X77497000Y-61419000D01*
X142247000Y-110949000D02*
X139197000Y-110949000D01*
X139197000Y-110949000D02*
X138997000Y-110749000D01*
X79997000Y-106249000D02*
X81497000Y-107749000D01*
X79997000Y-56249000D02*
X79997000Y-106249000D01*
X77997000Y-54249000D02*
X79997000Y-56249000D01*
X61377000Y-54249000D02*
X77997000Y-54249000D01*
X59497000Y-52369000D02*
X61377000Y-54249000D01*
X139297000Y-106949000D02*
X138997000Y-107249000D01*
X142247000Y-106949000D02*
X139297000Y-106949000D01*
X80497000Y-104749000D02*
X81497000Y-105749000D01*
X80497000Y-55749000D02*
X80497000Y-104749000D01*
X77117000Y-52369000D02*
X80497000Y-55749000D01*
X62497000Y-52369000D02*
X77117000Y-52369000D01*
X138722000Y-114974000D02*
X139497000Y-115749000D01*
X137647000Y-114974000D02*
X138722000Y-114974000D01*
X139497000Y-118249000D02*
X139497000Y-115749000D01*
X142497000Y-118249000D02*
X139497000Y-118249000D01*
X142997000Y-117749000D02*
X142497000Y-118249000D01*
X142997000Y-114249000D02*
X142997000Y-117749000D01*
X138997000Y-112249000D02*
X140997000Y-112249000D01*
X136497000Y-109749000D02*
X138997000Y-112249000D01*
X140997000Y-112249000D02*
X142997000Y-114249000D01*
D22*
X136497000Y-69749000D02*
X114997000Y-48249000D01*
X136497000Y-109749000D02*
X136497000Y-69749000D01*
D23*
X93817000Y-41069000D02*
X114997000Y-48249000D01*
X77467000Y-41069000D02*
X93817000Y-41069000D01*
X100997000Y-109749000D02*
X102497000Y-111249000D01*
X81497000Y-109749000D02*
X100997000Y-109749000D01*
X78997000Y-107249000D02*
X81497000Y-109749000D01*
X78997000Y-57839000D02*
X78997000Y-107249000D01*
X77467000Y-56309000D02*
X78997000Y-57839000D01*
X78497000Y-108549000D02*
X90197000Y-120249000D01*
X78497000Y-59879000D02*
X78497000Y-108549000D01*
X74927000Y-56309000D02*
X78497000Y-59879000D01*
X90197000Y-120249000D02*
X93497000Y-120249000D01*
M02*
