G04 #@! TF.GenerationSoftware,KiCad,Pcbnew,5.1.8*
G04 #@! TF.CreationDate,2020-12-21T15:28:55-06:00*
G04 #@! TF.ProjectId,fissure,66697373-7572-4652-9e6b-696361645f70,rev?*
G04 #@! TF.SameCoordinates,Original*
G04 #@! TF.FileFunction,Profile,NP*
%FSLAX46Y46*%
G04 Gerber Fmt 4.6, Leading zero omitted, Abs format (unit mm)*
G04 Created by KiCad (PCBNEW 5.1.8) date 2020-12-21 15:28:55*
%MOMM*%
%LPD*%
G01*
G04 APERTURE LIST*
G04 #@! TA.AperFunction,Profile*
%ADD10C,0.050000*%
G04 #@! TD*
G04 #@! TA.AperFunction,Profile*
%ADD11C,0.150000*%
G04 #@! TD*
G04 APERTURE END LIST*
D10*
X137500000Y-96000000D02*
X137500000Y-100500000D01*
X135000000Y-96000000D02*
X137500000Y-96000000D01*
X137500000Y-90000000D02*
X135000000Y-90000000D01*
X137500000Y-73000000D02*
X137500000Y-90000000D01*
X135000000Y-73000000D02*
X137500000Y-73000000D01*
X137500000Y-67000000D02*
X137500000Y-59000000D01*
X135000000Y-67000000D02*
X137500000Y-67000000D01*
X135000000Y-54400000D02*
X135000000Y-67000000D01*
X135000000Y-90000000D02*
X135000000Y-73000000D01*
X89000000Y-112000000D02*
X89000000Y-108750000D01*
X99500000Y-112000000D02*
X89000000Y-112000000D01*
X99500000Y-108750000D02*
X99500000Y-112000000D01*
X89000000Y-108750000D02*
X99500000Y-108750000D01*
X105500000Y-112000000D02*
X126500000Y-112000000D01*
X105500000Y-108750000D02*
X105500000Y-112000000D01*
X113000000Y-108750000D02*
X105500000Y-108750000D01*
X77000000Y-108750000D02*
X83000000Y-108750000D01*
X83000000Y-112000000D02*
X83000000Y-108750000D01*
X71000000Y-112000000D02*
X83000000Y-112000000D01*
X71000000Y-132000000D02*
X71000000Y-112000000D01*
X26000000Y-112000000D02*
X26009155Y-113059135D01*
X26009155Y-113059135D02*
X26038085Y-114080505D01*
X26038085Y-114080505D02*
X26088989Y-115064430D01*
X26088989Y-115064430D02*
X26164062Y-116011230D01*
X26164062Y-116011230D02*
X26265502Y-116921226D01*
X26265502Y-116921226D02*
X26395507Y-117794738D01*
X26395507Y-117794738D02*
X26556274Y-118632087D01*
X26556274Y-118632087D02*
X26750000Y-119433593D01*
X26750000Y-119433593D02*
X26978881Y-120199577D01*
X26978881Y-120199577D02*
X27245117Y-120930358D01*
X27245117Y-120930358D02*
X27550903Y-121626258D01*
X27550903Y-121626258D02*
X27898437Y-122287597D01*
X27898437Y-122287597D02*
X28289916Y-122914695D01*
X28289916Y-122914695D02*
X28727539Y-123507873D01*
X28727539Y-123507873D02*
X29213500Y-124067451D01*
X29213500Y-124067451D02*
X29750000Y-124593750D01*
X29750000Y-124593750D02*
X30339233Y-125087089D01*
X30339233Y-125087089D02*
X30983398Y-125547790D01*
X30983398Y-125547790D02*
X31684692Y-125976173D01*
X31684692Y-125976173D02*
X32445312Y-126372558D01*
X32445312Y-126372558D02*
X33267456Y-126737266D01*
X33267456Y-126737266D02*
X34153320Y-127070617D01*
X34153320Y-127070617D02*
X35105102Y-127372932D01*
X35105102Y-127372932D02*
X36125000Y-127644531D01*
X36125000Y-127644531D02*
X37215209Y-127885734D01*
X37215209Y-127885734D02*
X38377929Y-128096862D01*
X38377929Y-128096862D02*
X39615356Y-128278236D01*
X39615356Y-128278236D02*
X40929687Y-128430175D01*
X40929687Y-128430175D02*
X42323120Y-128553001D01*
X42323120Y-128553001D02*
X43797851Y-128647033D01*
X43797851Y-128647033D02*
X45356079Y-128712593D01*
X45356079Y-128712593D02*
X47000000Y-128750000D01*
X135000000Y-102500000D02*
X135000000Y-96000000D01*
X120000000Y-132000000D02*
X113000000Y-132000000D01*
X146500000Y-93000000D02*
X146500000Y-59000000D01*
X113000000Y-132000000D02*
X102500000Y-132000000D01*
X120000000Y-132000000D02*
X126500000Y-132000000D01*
X135000000Y-106750000D02*
X135000000Y-102500000D01*
X96500000Y-132000000D02*
X71000000Y-132000000D01*
X102500000Y-132000000D02*
X96500000Y-132000000D01*
X135000000Y-106750000D02*
G75*
G02*
X131000000Y-110750000I-4000000J0D01*
G01*
X78500000Y-54400000D02*
X135000000Y-54400000D01*
X146500000Y-59000000D02*
G75*
G03*
X137500000Y-59000000I-4500000J0D01*
G01*
X137500000Y-100500000D02*
X137475608Y-102209182D01*
X137475608Y-102209182D02*
X137404479Y-103778930D01*
X137404479Y-103778930D02*
X137289680Y-105216293D01*
X137289680Y-105216293D02*
X137134277Y-106528320D01*
X137134277Y-106528320D02*
X136941337Y-107722061D01*
X136941337Y-107722061D02*
X136713928Y-108804565D01*
X136713928Y-108804565D02*
X136455116Y-109782882D01*
X136455116Y-109782882D02*
X136167968Y-110664062D01*
X136167968Y-110664062D02*
X135855552Y-111455154D01*
X135855552Y-111455154D02*
X135520935Y-112163208D01*
X135520935Y-112163208D02*
X135167182Y-112795272D01*
X135167182Y-112795272D02*
X134797363Y-113358398D01*
X134797363Y-113358398D02*
X134414543Y-113859634D01*
X134414543Y-113859634D02*
X134021789Y-114306030D01*
X134021789Y-114306030D02*
X133622169Y-114704635D01*
X133622169Y-114704635D02*
X133218750Y-115062500D01*
X133218750Y-115062500D02*
X132814598Y-115386672D01*
X132814598Y-115386672D02*
X132412780Y-115684204D01*
X132412780Y-115684204D02*
X132016365Y-115962142D01*
X132016365Y-115962142D02*
X131628417Y-116227539D01*
X131628417Y-116227539D02*
X131252006Y-116487442D01*
X131252006Y-116487442D02*
X130890197Y-116748901D01*
X130890197Y-116748901D02*
X130546058Y-117018966D01*
X130546058Y-117018966D02*
X130222656Y-117304687D01*
X130222656Y-117304687D02*
X129923057Y-117613113D01*
X129923057Y-117613113D02*
X129650329Y-117951293D01*
X129650329Y-117951293D02*
X129407539Y-118326278D01*
X129407539Y-118326278D02*
X129197753Y-118745117D01*
X129197753Y-118745117D02*
X129024040Y-119214859D01*
X129024040Y-119214859D02*
X128889465Y-119742553D01*
X128889465Y-119742553D02*
X128797096Y-120335250D01*
X128797096Y-120335250D02*
X128750000Y-121000000D01*
X146500000Y-93000000D02*
X146587501Y-95055450D01*
X146587501Y-95055450D02*
X146842590Y-96916259D01*
X146842590Y-96916259D02*
X147254142Y-98592864D01*
X147254142Y-98592864D02*
X147811035Y-100095703D01*
X147811035Y-100095703D02*
X148502143Y-101435211D01*
X148502143Y-101435211D02*
X149316345Y-102621826D01*
X149316345Y-102621826D02*
X150242515Y-103665985D01*
X150242515Y-103665985D02*
X151269531Y-104578125D01*
X151269531Y-104578125D02*
X152386268Y-105368682D01*
X152386268Y-105368682D02*
X153581604Y-106048095D01*
X153581604Y-106048095D02*
X154844413Y-106626800D01*
X154844413Y-106626800D02*
X156163574Y-107115234D01*
X156163574Y-107115234D02*
X157527961Y-107523834D01*
X157527961Y-107523834D02*
X158926452Y-107863037D01*
X158926452Y-107863037D02*
X160347923Y-108143280D01*
X160347923Y-108143280D02*
X161781250Y-108375000D01*
X161781250Y-108375000D02*
X163215309Y-108568634D01*
X163215309Y-108568634D02*
X164638977Y-108734619D01*
X164638977Y-108734619D02*
X166041130Y-108883392D01*
X166041130Y-108883392D02*
X167410644Y-109025390D01*
X167410644Y-109025390D02*
X168736396Y-109171051D01*
X168736396Y-109171051D02*
X170007263Y-109330810D01*
X170007263Y-109330810D02*
X171212120Y-109515106D01*
X171212120Y-109515106D02*
X172339843Y-109734375D01*
X172339843Y-109734375D02*
X173379310Y-109999053D01*
X173379310Y-109999053D02*
X174319396Y-110319580D01*
X174319396Y-110319580D02*
X175148979Y-110706390D01*
X175148979Y-110706390D02*
X175856933Y-111169921D01*
X175856933Y-111169921D02*
X176432136Y-111720611D01*
X176432136Y-111720611D02*
X176863464Y-112368896D01*
X176863464Y-112368896D02*
X177139793Y-113125213D01*
X177139793Y-113125213D02*
X177250000Y-114000000D01*
D11*
X97060000Y-119260000D02*
X119440000Y-119260000D01*
X97060000Y-124780000D02*
X97060000Y-119260000D01*
X119440000Y-124780000D02*
X97060000Y-124780000D01*
X119440000Y-119260000D02*
X119440000Y-124780000D01*
D10*
X126500000Y-132000000D02*
X126500000Y-112000000D01*
X116600000Y-110750000D02*
X113000000Y-108750000D01*
X131000000Y-110750000D02*
X116600000Y-110750000D01*
X47000000Y-128750000D02*
X62000000Y-128750000D01*
X26000000Y-64500000D02*
X26116546Y-63767453D01*
X26116546Y-63767453D02*
X26457763Y-63069311D01*
X26457763Y-63069311D02*
X27011016Y-62404824D01*
X27011016Y-62404824D02*
X27763671Y-61773242D01*
X27763671Y-61773242D02*
X28703094Y-61173812D01*
X28703094Y-61173812D02*
X29816650Y-60605786D01*
X29816650Y-60605786D02*
X31091705Y-60068411D01*
X31091705Y-60068411D02*
X32515625Y-59560937D01*
X32515625Y-59560937D02*
X34075775Y-59082614D01*
X34075775Y-59082614D02*
X35759521Y-58632690D01*
X35759521Y-58632690D02*
X37554229Y-58210415D01*
X37554229Y-58210415D02*
X39447265Y-57815039D01*
X39447265Y-57815039D02*
X41425994Y-57445809D01*
X41425994Y-57445809D02*
X43477783Y-57101977D01*
X43477783Y-57101977D02*
X45589996Y-56782791D01*
X45589996Y-56782791D02*
X47750000Y-56487500D01*
X47750000Y-56487500D02*
X49945159Y-56215353D01*
X49945159Y-56215353D02*
X52162841Y-55965600D01*
X52162841Y-55965600D02*
X54390411Y-55737490D01*
X54390411Y-55737490D02*
X56615234Y-55530273D01*
X56615234Y-55530273D02*
X58824676Y-55343197D01*
X58824676Y-55343197D02*
X61006103Y-55175512D01*
X61006103Y-55175512D02*
X63146881Y-55026467D01*
X63146881Y-55026467D02*
X65234375Y-54895312D01*
X65234375Y-54895312D02*
X67255950Y-54781295D01*
X67255950Y-54781295D02*
X69198974Y-54683666D01*
X69198974Y-54683666D02*
X71050811Y-54601675D01*
X71050811Y-54601675D02*
X72798828Y-54534570D01*
X72798828Y-54534570D02*
X74430389Y-54481600D01*
X74430389Y-54481600D02*
X75932861Y-54442016D01*
X75932861Y-54442016D02*
X77293609Y-54415066D01*
X77293609Y-54415066D02*
X78500000Y-54400000D01*
X77000000Y-108750000D02*
X75834487Y-108807373D01*
X75834487Y-108807373D02*
X74771606Y-108974609D01*
X74771606Y-108974609D02*
X73805587Y-109244384D01*
X73805587Y-109244384D02*
X72930664Y-109609375D01*
X72930664Y-109609375D02*
X72141067Y-110062255D01*
X72141067Y-110062255D02*
X71431030Y-110595703D01*
X71431030Y-110595703D02*
X70794784Y-111202392D01*
X70794784Y-111202392D02*
X70226562Y-111875000D01*
X70226562Y-111875000D02*
X69720596Y-112606201D01*
X69720596Y-112606201D02*
X69271118Y-113388671D01*
X69271118Y-113388671D02*
X68872360Y-114215087D01*
X68872360Y-114215087D02*
X68518554Y-115078125D01*
X68518554Y-115078125D02*
X68203933Y-115970458D01*
X68203933Y-115970458D02*
X67922729Y-116884765D01*
X67922729Y-116884765D02*
X67669174Y-117813720D01*
X67669174Y-117813720D02*
X67437500Y-118750000D01*
X67437500Y-118750000D02*
X67221939Y-119686279D01*
X67221939Y-119686279D02*
X67016723Y-120615234D01*
X67016723Y-120615234D02*
X66816085Y-121529541D01*
X66816085Y-121529541D02*
X66614257Y-122421875D01*
X66614257Y-122421875D02*
X66405471Y-123284912D01*
X66405471Y-123284912D02*
X66183959Y-124111328D01*
X66183959Y-124111328D02*
X65943954Y-124893798D01*
X65943954Y-124893798D02*
X65679687Y-125625000D01*
X65679687Y-125625000D02*
X65385391Y-126297607D01*
X65385391Y-126297607D02*
X65055297Y-126904296D01*
X65055297Y-126904296D02*
X64683639Y-127437744D01*
X64683639Y-127437744D02*
X64264648Y-127890625D01*
X64264648Y-127890625D02*
X63792556Y-128255615D01*
X63792556Y-128255615D02*
X63261596Y-128525390D01*
X63261596Y-128525390D02*
X62666000Y-128692626D01*
X62666000Y-128692626D02*
X62000000Y-128750000D01*
X177250000Y-129000000D02*
X177250000Y-114000000D01*
X128750000Y-136000000D02*
X128750000Y-121000000D01*
X144000000Y-136000000D02*
X128750000Y-136000000D01*
X177250000Y-129000000D02*
X144000000Y-136000000D01*
X26000000Y-112000000D02*
X26000000Y-64500000D01*
M02*
