G04 #@! TF.GenerationSoftware,KiCad,Pcbnew,5.1.6*
G04 #@! TF.CreationDate,2020-09-27T23:11:49-05:00*
G04 #@! TF.ProjectId,fissure,66697373-7572-4652-9e6b-696361645f70,rev?*
G04 #@! TF.SameCoordinates,Original*
G04 #@! TF.FileFunction,Legend,Top*
G04 #@! TF.FilePolarity,Positive*
%FSLAX46Y46*%
G04 Gerber Fmt 4.6, Leading zero omitted, Abs format (unit mm)*
G04 Created by KiCad (PCBNEW 5.1.6) date 2020-09-27 23:11:49*
%MOMM*%
%LPD*%
G01*
G04 APERTURE LIST*
%ADD10C,0.120000*%
%ADD11C,0.150000*%
%ADD12C,0.381000*%
G04 APERTURE END LIST*
D10*
X75500000Y-130000000D02*
G75*
G03*
X75500000Y-130000000I-3500000J0D01*
G01*
X62500000Y-136000000D02*
G75*
G03*
X62500000Y-136000000I-3500000J0D01*
G01*
X33000000Y-64500000D02*
G75*
G03*
X33000000Y-64500000I-3500000J0D01*
G01*
X33500000Y-108500000D02*
G75*
G03*
X33500000Y-108500000I-3500000J0D01*
G01*
X117500000Y-137000000D02*
G75*
G03*
X117500000Y-137000000I-3500000J0D01*
G01*
X29000000Y-50000000D02*
X30500000Y-50000000D01*
X29000000Y-50000000D02*
X29000000Y-52000000D01*
D11*
X60623809Y-74861904D02*
X60623809Y-74061904D01*
X60890476Y-74633333D01*
X61157142Y-74061904D01*
X61157142Y-74861904D01*
X61690476Y-74061904D02*
X61842857Y-74061904D01*
X61919047Y-74100000D01*
X61995238Y-74176190D01*
X62033333Y-74328571D01*
X62033333Y-74595238D01*
X61995238Y-74747619D01*
X61919047Y-74823809D01*
X61842857Y-74861904D01*
X61690476Y-74861904D01*
X61614285Y-74823809D01*
X61538095Y-74747619D01*
X61500000Y-74595238D01*
X61500000Y-74328571D01*
X61538095Y-74176190D01*
X61614285Y-74100000D01*
X61690476Y-74061904D01*
X62338095Y-74823809D02*
X62452380Y-74861904D01*
X62642857Y-74861904D01*
X62719047Y-74823809D01*
X62757142Y-74785714D01*
X62795238Y-74709523D01*
X62795238Y-74633333D01*
X62757142Y-74557142D01*
X62719047Y-74519047D01*
X62642857Y-74480952D01*
X62490476Y-74442857D01*
X62414285Y-74404761D01*
X62376190Y-74366666D01*
X62338095Y-74290476D01*
X62338095Y-74214285D01*
X62376190Y-74138095D01*
X62414285Y-74100000D01*
X62490476Y-74061904D01*
X62680952Y-74061904D01*
X62795238Y-74100000D01*
X63138095Y-74861904D02*
X63138095Y-74061904D01*
X64090476Y-74023809D02*
X63404761Y-75052380D01*
X64357142Y-74861904D02*
X64357142Y-74061904D01*
X64547619Y-74061904D01*
X64661904Y-74100000D01*
X64738095Y-74176190D01*
X64776190Y-74252380D01*
X64814285Y-74404761D01*
X64814285Y-74519047D01*
X64776190Y-74671428D01*
X64738095Y-74747619D01*
X64661904Y-74823809D01*
X64547619Y-74861904D01*
X64357142Y-74861904D01*
X65690476Y-74938095D02*
X65614285Y-74900000D01*
X65538095Y-74823809D01*
X65423809Y-74709523D01*
X65347619Y-74671428D01*
X65271428Y-74671428D01*
X65309523Y-74861904D02*
X65233333Y-74823809D01*
X65157142Y-74747619D01*
X65119047Y-74595238D01*
X65119047Y-74328571D01*
X65157142Y-74176190D01*
X65233333Y-74100000D01*
X65309523Y-74061904D01*
X65461904Y-74061904D01*
X65538095Y-74100000D01*
X65614285Y-74176190D01*
X65652380Y-74328571D01*
X65652380Y-74595238D01*
X65614285Y-74747619D01*
X65538095Y-74823809D01*
X65461904Y-74861904D01*
X65309523Y-74861904D01*
X66147619Y-74061904D02*
X66223809Y-74061904D01*
X66300000Y-74100000D01*
X66338095Y-74138095D01*
X66376190Y-74214285D01*
X66414285Y-74366666D01*
X66414285Y-74557142D01*
X66376190Y-74709523D01*
X66338095Y-74785714D01*
X66300000Y-74823809D01*
X66223809Y-74861904D01*
X66147619Y-74861904D01*
X66071428Y-74823809D01*
X66033333Y-74785714D01*
X65995238Y-74709523D01*
X65957142Y-74557142D01*
X65957142Y-74366666D01*
X65995238Y-74214285D01*
X66033333Y-74138095D01*
X66071428Y-74100000D01*
X66147619Y-74061904D01*
X61366666Y-77285714D02*
X61328571Y-77323809D01*
X61214285Y-77361904D01*
X61138095Y-77361904D01*
X61023809Y-77323809D01*
X60947619Y-77247619D01*
X60909523Y-77171428D01*
X60871428Y-77019047D01*
X60871428Y-76904761D01*
X60909523Y-76752380D01*
X60947619Y-76676190D01*
X61023809Y-76600000D01*
X61138095Y-76561904D01*
X61214285Y-76561904D01*
X61328571Y-76600000D01*
X61366666Y-76638095D01*
X61671428Y-77323809D02*
X61785714Y-77361904D01*
X61976190Y-77361904D01*
X62052380Y-77323809D01*
X62090476Y-77285714D01*
X62128571Y-77209523D01*
X62128571Y-77133333D01*
X62090476Y-77057142D01*
X62052380Y-77019047D01*
X61976190Y-76980952D01*
X61823809Y-76942857D01*
X61747619Y-76904761D01*
X61709523Y-76866666D01*
X61671428Y-76790476D01*
X61671428Y-76714285D01*
X61709523Y-76638095D01*
X61747619Y-76600000D01*
X61823809Y-76561904D01*
X62014285Y-76561904D01*
X62128571Y-76600000D01*
X60623809Y-72361904D02*
X60623809Y-71561904D01*
X60890476Y-72133333D01*
X61157142Y-71561904D01*
X61157142Y-72361904D01*
X61538095Y-72361904D02*
X61538095Y-71561904D01*
X61880952Y-72323809D02*
X61995238Y-72361904D01*
X62185714Y-72361904D01*
X62261904Y-72323809D01*
X62300000Y-72285714D01*
X62338095Y-72209523D01*
X62338095Y-72133333D01*
X62300000Y-72057142D01*
X62261904Y-72019047D01*
X62185714Y-71980952D01*
X62033333Y-71942857D01*
X61957142Y-71904761D01*
X61919047Y-71866666D01*
X61880952Y-71790476D01*
X61880952Y-71714285D01*
X61919047Y-71638095D01*
X61957142Y-71600000D01*
X62033333Y-71561904D01*
X62223809Y-71561904D01*
X62338095Y-71600000D01*
X62833333Y-71561904D02*
X62985714Y-71561904D01*
X63061904Y-71600000D01*
X63138095Y-71676190D01*
X63176190Y-71828571D01*
X63176190Y-72095238D01*
X63138095Y-72247619D01*
X63061904Y-72323809D01*
X62985714Y-72361904D01*
X62833333Y-72361904D01*
X62757142Y-72323809D01*
X62680952Y-72247619D01*
X62642857Y-72095238D01*
X62642857Y-71828571D01*
X62680952Y-71676190D01*
X62757142Y-71600000D01*
X62833333Y-71561904D01*
X64090476Y-71523809D02*
X63404761Y-72552380D01*
X64357142Y-72361904D02*
X64357142Y-71561904D01*
X64547619Y-71561904D01*
X64661904Y-71600000D01*
X64738095Y-71676190D01*
X64776190Y-71752380D01*
X64814285Y-71904761D01*
X64814285Y-72019047D01*
X64776190Y-72171428D01*
X64738095Y-72247619D01*
X64661904Y-72323809D01*
X64547619Y-72361904D01*
X64357142Y-72361904D01*
X65690476Y-72438095D02*
X65614285Y-72400000D01*
X65538095Y-72323809D01*
X65423809Y-72209523D01*
X65347619Y-72171428D01*
X65271428Y-72171428D01*
X65309523Y-72361904D02*
X65233333Y-72323809D01*
X65157142Y-72247619D01*
X65119047Y-72095238D01*
X65119047Y-71828571D01*
X65157142Y-71676190D01*
X65233333Y-71600000D01*
X65309523Y-71561904D01*
X65461904Y-71561904D01*
X65538095Y-71600000D01*
X65614285Y-71676190D01*
X65652380Y-71828571D01*
X65652380Y-72095238D01*
X65614285Y-72247619D01*
X65538095Y-72323809D01*
X65461904Y-72361904D01*
X65309523Y-72361904D01*
X66414285Y-72361904D02*
X65957142Y-72361904D01*
X66185714Y-72361904D02*
X66185714Y-71561904D01*
X66109523Y-71676190D01*
X66033333Y-71752380D01*
X65957142Y-71790476D01*
X60647619Y-69823809D02*
X60761904Y-69861904D01*
X60952380Y-69861904D01*
X61028571Y-69823809D01*
X61066666Y-69785714D01*
X61104761Y-69709523D01*
X61104761Y-69633333D01*
X61066666Y-69557142D01*
X61028571Y-69519047D01*
X60952380Y-69480952D01*
X60800000Y-69442857D01*
X60723809Y-69404761D01*
X60685714Y-69366666D01*
X60647619Y-69290476D01*
X60647619Y-69214285D01*
X60685714Y-69138095D01*
X60723809Y-69100000D01*
X60800000Y-69061904D01*
X60990476Y-69061904D01*
X61104761Y-69100000D01*
X61904761Y-69785714D02*
X61866666Y-69823809D01*
X61752380Y-69861904D01*
X61676190Y-69861904D01*
X61561904Y-69823809D01*
X61485714Y-69747619D01*
X61447619Y-69671428D01*
X61409523Y-69519047D01*
X61409523Y-69404761D01*
X61447619Y-69252380D01*
X61485714Y-69176190D01*
X61561904Y-69100000D01*
X61676190Y-69061904D01*
X61752380Y-69061904D01*
X61866666Y-69100000D01*
X61904761Y-69138095D01*
X62628571Y-69861904D02*
X62247619Y-69861904D01*
X62247619Y-69061904D01*
X62895238Y-69861904D02*
X62895238Y-69061904D01*
X63352380Y-69861904D02*
X63009523Y-69404761D01*
X63352380Y-69061904D02*
X62895238Y-69519047D01*
X60947619Y-67361904D02*
X60680952Y-66980952D01*
X60490476Y-67361904D02*
X60490476Y-66561904D01*
X60795238Y-66561904D01*
X60871428Y-66600000D01*
X60909523Y-66638095D01*
X60947619Y-66714285D01*
X60947619Y-66828571D01*
X60909523Y-66904761D01*
X60871428Y-66942857D01*
X60795238Y-66980952D01*
X60490476Y-66980952D01*
X61709523Y-66600000D02*
X61633333Y-66561904D01*
X61519047Y-66561904D01*
X61404761Y-66600000D01*
X61328571Y-66676190D01*
X61290476Y-66752380D01*
X61252380Y-66904761D01*
X61252380Y-67019047D01*
X61290476Y-67171428D01*
X61328571Y-67247619D01*
X61404761Y-67323809D01*
X61519047Y-67361904D01*
X61595238Y-67361904D01*
X61709523Y-67323809D01*
X61747619Y-67285714D01*
X61747619Y-67019047D01*
X61595238Y-67019047D01*
X62357142Y-66942857D02*
X62471428Y-66980952D01*
X62509523Y-67019047D01*
X62547619Y-67095238D01*
X62547619Y-67209523D01*
X62509523Y-67285714D01*
X62471428Y-67323809D01*
X62395238Y-67361904D01*
X62090476Y-67361904D01*
X62090476Y-66561904D01*
X62357142Y-66561904D01*
X62433333Y-66600000D01*
X62471428Y-66638095D01*
X62509523Y-66714285D01*
X62509523Y-66790476D01*
X62471428Y-66866666D01*
X62433333Y-66904761D01*
X62357142Y-66942857D01*
X62090476Y-66942857D01*
X61366666Y-64785714D02*
X61328571Y-64823809D01*
X61214285Y-64861904D01*
X61138095Y-64861904D01*
X61023809Y-64823809D01*
X60947619Y-64747619D01*
X60909523Y-64671428D01*
X60871428Y-64519047D01*
X60871428Y-64404761D01*
X60909523Y-64252380D01*
X60947619Y-64176190D01*
X61023809Y-64100000D01*
X61138095Y-64061904D01*
X61214285Y-64061904D01*
X61328571Y-64100000D01*
X61366666Y-64138095D01*
X62090476Y-64061904D02*
X61709523Y-64061904D01*
X61671428Y-64442857D01*
X61709523Y-64404761D01*
X61785714Y-64366666D01*
X61976190Y-64366666D01*
X62052380Y-64404761D01*
X62090476Y-64442857D01*
X62128571Y-64519047D01*
X62128571Y-64709523D01*
X62090476Y-64785714D01*
X62052380Y-64823809D01*
X61976190Y-64861904D01*
X61785714Y-64861904D01*
X61709523Y-64823809D01*
X61671428Y-64785714D01*
X61366666Y-62285714D02*
X61328571Y-62323809D01*
X61214285Y-62361904D01*
X61138095Y-62361904D01*
X61023809Y-62323809D01*
X60947619Y-62247619D01*
X60909523Y-62171428D01*
X60871428Y-62019047D01*
X60871428Y-61904761D01*
X60909523Y-61752380D01*
X60947619Y-61676190D01*
X61023809Y-61600000D01*
X61138095Y-61561904D01*
X61214285Y-61561904D01*
X61328571Y-61600000D01*
X61366666Y-61638095D01*
X62052380Y-61828571D02*
X62052380Y-62361904D01*
X61861904Y-61523809D02*
X61671428Y-62095238D01*
X62166666Y-62095238D01*
X61366666Y-59785714D02*
X61328571Y-59823809D01*
X61214285Y-59861904D01*
X61138095Y-59861904D01*
X61023809Y-59823809D01*
X60947619Y-59747619D01*
X60909523Y-59671428D01*
X60871428Y-59519047D01*
X60871428Y-59404761D01*
X60909523Y-59252380D01*
X60947619Y-59176190D01*
X61023809Y-59100000D01*
X61138095Y-59061904D01*
X61214285Y-59061904D01*
X61328571Y-59100000D01*
X61366666Y-59138095D01*
X61633333Y-59061904D02*
X62128571Y-59061904D01*
X61861904Y-59366666D01*
X61976190Y-59366666D01*
X62052380Y-59404761D01*
X62090476Y-59442857D01*
X62128571Y-59519047D01*
X62128571Y-59709523D01*
X62090476Y-59785714D01*
X62052380Y-59823809D01*
X61976190Y-59861904D01*
X61747619Y-59861904D01*
X61671428Y-59823809D01*
X61633333Y-59785714D01*
X40366666Y-49785714D02*
X40328571Y-49823809D01*
X40214285Y-49861904D01*
X40138095Y-49861904D01*
X40023809Y-49823809D01*
X39947619Y-49747619D01*
X39909523Y-49671428D01*
X39871428Y-49519047D01*
X39871428Y-49404761D01*
X39909523Y-49252380D01*
X39947619Y-49176190D01*
X40023809Y-49100000D01*
X40138095Y-49061904D01*
X40214285Y-49061904D01*
X40328571Y-49100000D01*
X40366666Y-49138095D01*
X41128571Y-49861904D02*
X40671428Y-49861904D01*
X40900000Y-49861904D02*
X40900000Y-49061904D01*
X40823809Y-49176190D01*
X40747619Y-49252380D01*
X40671428Y-49290476D01*
X40366666Y-52285714D02*
X40328571Y-52323809D01*
X40214285Y-52361904D01*
X40138095Y-52361904D01*
X40023809Y-52323809D01*
X39947619Y-52247619D01*
X39909523Y-52171428D01*
X39871428Y-52019047D01*
X39871428Y-51904761D01*
X39909523Y-51752380D01*
X39947619Y-51676190D01*
X40023809Y-51600000D01*
X40138095Y-51561904D01*
X40214285Y-51561904D01*
X40328571Y-51600000D01*
X40366666Y-51638095D01*
X40671428Y-51638095D02*
X40709523Y-51600000D01*
X40785714Y-51561904D01*
X40976190Y-51561904D01*
X41052380Y-51600000D01*
X41090476Y-51638095D01*
X41128571Y-51714285D01*
X41128571Y-51790476D01*
X41090476Y-51904761D01*
X40633333Y-52361904D01*
X41128571Y-52361904D01*
X49990476Y-70361904D02*
X49990476Y-69561904D01*
X50180952Y-69561904D01*
X50295238Y-69600000D01*
X50371428Y-69676190D01*
X50409523Y-69752380D01*
X50447619Y-69904761D01*
X50447619Y-70019047D01*
X50409523Y-70171428D01*
X50371428Y-70247619D01*
X50295238Y-70323809D01*
X50180952Y-70361904D01*
X49990476Y-70361904D01*
X51323809Y-70438095D02*
X51247619Y-70400000D01*
X51171428Y-70323809D01*
X51057142Y-70209523D01*
X50980952Y-70171428D01*
X50904761Y-70171428D01*
X50942857Y-70361904D02*
X50866666Y-70323809D01*
X50790476Y-70247619D01*
X50752380Y-70095238D01*
X50752380Y-69828571D01*
X50790476Y-69676190D01*
X50866666Y-69600000D01*
X50942857Y-69561904D01*
X51095238Y-69561904D01*
X51171428Y-69600000D01*
X51247619Y-69676190D01*
X51285714Y-69828571D01*
X51285714Y-70095238D01*
X51247619Y-70247619D01*
X51171428Y-70323809D01*
X51095238Y-70361904D01*
X50942857Y-70361904D01*
X51552380Y-69561904D02*
X52047619Y-69561904D01*
X51780952Y-69866666D01*
X51895238Y-69866666D01*
X51971428Y-69904761D01*
X52009523Y-69942857D01*
X52047619Y-70019047D01*
X52047619Y-70209523D01*
X52009523Y-70285714D01*
X51971428Y-70323809D01*
X51895238Y-70361904D01*
X51666666Y-70361904D01*
X51590476Y-70323809D01*
X51552380Y-70285714D01*
X47490476Y-70361904D02*
X47490476Y-69561904D01*
X47680952Y-69561904D01*
X47795238Y-69600000D01*
X47871428Y-69676190D01*
X47909523Y-69752380D01*
X47947619Y-69904761D01*
X47947619Y-70019047D01*
X47909523Y-70171428D01*
X47871428Y-70247619D01*
X47795238Y-70323809D01*
X47680952Y-70361904D01*
X47490476Y-70361904D01*
X48823809Y-70438095D02*
X48747619Y-70400000D01*
X48671428Y-70323809D01*
X48557142Y-70209523D01*
X48480952Y-70171428D01*
X48404761Y-70171428D01*
X48442857Y-70361904D02*
X48366666Y-70323809D01*
X48290476Y-70247619D01*
X48252380Y-70095238D01*
X48252380Y-69828571D01*
X48290476Y-69676190D01*
X48366666Y-69600000D01*
X48442857Y-69561904D01*
X48595238Y-69561904D01*
X48671428Y-69600000D01*
X48747619Y-69676190D01*
X48785714Y-69828571D01*
X48785714Y-70095238D01*
X48747619Y-70247619D01*
X48671428Y-70323809D01*
X48595238Y-70361904D01*
X48442857Y-70361904D01*
X49090476Y-69638095D02*
X49128571Y-69600000D01*
X49204761Y-69561904D01*
X49395238Y-69561904D01*
X49471428Y-69600000D01*
X49509523Y-69638095D01*
X49547619Y-69714285D01*
X49547619Y-69790476D01*
X49509523Y-69904761D01*
X49052380Y-70361904D01*
X49547619Y-70361904D01*
X40366666Y-77285714D02*
X40328571Y-77323809D01*
X40214285Y-77361904D01*
X40138095Y-77361904D01*
X40023809Y-77323809D01*
X39947619Y-77247619D01*
X39909523Y-77171428D01*
X39871428Y-77019047D01*
X39871428Y-76904761D01*
X39909523Y-76752380D01*
X39947619Y-76676190D01*
X40023809Y-76600000D01*
X40138095Y-76561904D01*
X40214285Y-76561904D01*
X40328571Y-76600000D01*
X40366666Y-76638095D01*
X40671428Y-77323809D02*
X40785714Y-77361904D01*
X40976190Y-77361904D01*
X41052380Y-77323809D01*
X41090476Y-77285714D01*
X41128571Y-77209523D01*
X41128571Y-77133333D01*
X41090476Y-77057142D01*
X41052380Y-77019047D01*
X40976190Y-76980952D01*
X40823809Y-76942857D01*
X40747619Y-76904761D01*
X40709523Y-76866666D01*
X40671428Y-76790476D01*
X40671428Y-76714285D01*
X40709523Y-76638095D01*
X40747619Y-76600000D01*
X40823809Y-76561904D01*
X41014285Y-76561904D01*
X41128571Y-76600000D01*
X35623809Y-74861904D02*
X35623809Y-74061904D01*
X35890476Y-74633333D01*
X36157142Y-74061904D01*
X36157142Y-74861904D01*
X36690476Y-74061904D02*
X36842857Y-74061904D01*
X36919047Y-74100000D01*
X36995238Y-74176190D01*
X37033333Y-74328571D01*
X37033333Y-74595238D01*
X36995238Y-74747619D01*
X36919047Y-74823809D01*
X36842857Y-74861904D01*
X36690476Y-74861904D01*
X36614285Y-74823809D01*
X36538095Y-74747619D01*
X36500000Y-74595238D01*
X36500000Y-74328571D01*
X36538095Y-74176190D01*
X36614285Y-74100000D01*
X36690476Y-74061904D01*
X37338095Y-74823809D02*
X37452380Y-74861904D01*
X37642857Y-74861904D01*
X37719047Y-74823809D01*
X37757142Y-74785714D01*
X37795238Y-74709523D01*
X37795238Y-74633333D01*
X37757142Y-74557142D01*
X37719047Y-74519047D01*
X37642857Y-74480952D01*
X37490476Y-74442857D01*
X37414285Y-74404761D01*
X37376190Y-74366666D01*
X37338095Y-74290476D01*
X37338095Y-74214285D01*
X37376190Y-74138095D01*
X37414285Y-74100000D01*
X37490476Y-74061904D01*
X37680952Y-74061904D01*
X37795238Y-74100000D01*
X38138095Y-74861904D02*
X38138095Y-74061904D01*
X39090476Y-74023809D02*
X38404761Y-75052380D01*
X39357142Y-74861904D02*
X39357142Y-74061904D01*
X39547619Y-74061904D01*
X39661904Y-74100000D01*
X39738095Y-74176190D01*
X39776190Y-74252380D01*
X39814285Y-74404761D01*
X39814285Y-74519047D01*
X39776190Y-74671428D01*
X39738095Y-74747619D01*
X39661904Y-74823809D01*
X39547619Y-74861904D01*
X39357142Y-74861904D01*
X40690476Y-74938095D02*
X40614285Y-74900000D01*
X40538095Y-74823809D01*
X40423809Y-74709523D01*
X40347619Y-74671428D01*
X40271428Y-74671428D01*
X40309523Y-74861904D02*
X40233333Y-74823809D01*
X40157142Y-74747619D01*
X40119047Y-74595238D01*
X40119047Y-74328571D01*
X40157142Y-74176190D01*
X40233333Y-74100000D01*
X40309523Y-74061904D01*
X40461904Y-74061904D01*
X40538095Y-74100000D01*
X40614285Y-74176190D01*
X40652380Y-74328571D01*
X40652380Y-74595238D01*
X40614285Y-74747619D01*
X40538095Y-74823809D01*
X40461904Y-74861904D01*
X40309523Y-74861904D01*
X41147619Y-74061904D02*
X41223809Y-74061904D01*
X41300000Y-74100000D01*
X41338095Y-74138095D01*
X41376190Y-74214285D01*
X41414285Y-74366666D01*
X41414285Y-74557142D01*
X41376190Y-74709523D01*
X41338095Y-74785714D01*
X41300000Y-74823809D01*
X41223809Y-74861904D01*
X41147619Y-74861904D01*
X41071428Y-74823809D01*
X41033333Y-74785714D01*
X40995238Y-74709523D01*
X40957142Y-74557142D01*
X40957142Y-74366666D01*
X40995238Y-74214285D01*
X41033333Y-74138095D01*
X41071428Y-74100000D01*
X41147619Y-74061904D01*
X40366666Y-72361904D02*
X40100000Y-71980952D01*
X39909523Y-72361904D02*
X39909523Y-71561904D01*
X40214285Y-71561904D01*
X40290476Y-71600000D01*
X40328571Y-71638095D01*
X40366666Y-71714285D01*
X40366666Y-71828571D01*
X40328571Y-71904761D01*
X40290476Y-71942857D01*
X40214285Y-71980952D01*
X39909523Y-71980952D01*
X41128571Y-72361904D02*
X40671428Y-72361904D01*
X40900000Y-72361904D02*
X40900000Y-71561904D01*
X40823809Y-71676190D01*
X40747619Y-71752380D01*
X40671428Y-71790476D01*
X40366666Y-69861904D02*
X40100000Y-69480952D01*
X39909523Y-69861904D02*
X39909523Y-69061904D01*
X40214285Y-69061904D01*
X40290476Y-69100000D01*
X40328571Y-69138095D01*
X40366666Y-69214285D01*
X40366666Y-69328571D01*
X40328571Y-69404761D01*
X40290476Y-69442857D01*
X40214285Y-69480952D01*
X39909523Y-69480952D01*
X40671428Y-69138095D02*
X40709523Y-69100000D01*
X40785714Y-69061904D01*
X40976190Y-69061904D01*
X41052380Y-69100000D01*
X41090476Y-69138095D01*
X41128571Y-69214285D01*
X41128571Y-69290476D01*
X41090476Y-69404761D01*
X40633333Y-69861904D01*
X41128571Y-69861904D01*
X40366666Y-67361904D02*
X40100000Y-66980952D01*
X39909523Y-67361904D02*
X39909523Y-66561904D01*
X40214285Y-66561904D01*
X40290476Y-66600000D01*
X40328571Y-66638095D01*
X40366666Y-66714285D01*
X40366666Y-66828571D01*
X40328571Y-66904761D01*
X40290476Y-66942857D01*
X40214285Y-66980952D01*
X39909523Y-66980952D01*
X40633333Y-66561904D02*
X41128571Y-66561904D01*
X40861904Y-66866666D01*
X40976190Y-66866666D01*
X41052380Y-66904761D01*
X41090476Y-66942857D01*
X41128571Y-67019047D01*
X41128571Y-67209523D01*
X41090476Y-67285714D01*
X41052380Y-67323809D01*
X40976190Y-67361904D01*
X40747619Y-67361904D01*
X40671428Y-67323809D01*
X40633333Y-67285714D01*
X40366666Y-64861904D02*
X40100000Y-64480952D01*
X39909523Y-64861904D02*
X39909523Y-64061904D01*
X40214285Y-64061904D01*
X40290476Y-64100000D01*
X40328571Y-64138095D01*
X40366666Y-64214285D01*
X40366666Y-64328571D01*
X40328571Y-64404761D01*
X40290476Y-64442857D01*
X40214285Y-64480952D01*
X39909523Y-64480952D01*
X41052380Y-64328571D02*
X41052380Y-64861904D01*
X40861904Y-64023809D02*
X40671428Y-64595238D01*
X41166666Y-64595238D01*
X39528571Y-62323809D02*
X39642857Y-62361904D01*
X39833333Y-62361904D01*
X39909523Y-62323809D01*
X39947619Y-62285714D01*
X39985714Y-62209523D01*
X39985714Y-62133333D01*
X39947619Y-62057142D01*
X39909523Y-62019047D01*
X39833333Y-61980952D01*
X39680952Y-61942857D01*
X39604761Y-61904761D01*
X39566666Y-61866666D01*
X39528571Y-61790476D01*
X39528571Y-61714285D01*
X39566666Y-61638095D01*
X39604761Y-61600000D01*
X39680952Y-61561904D01*
X39871428Y-61561904D01*
X39985714Y-61600000D01*
X40328571Y-62361904D02*
X40328571Y-61561904D01*
X40519047Y-61561904D01*
X40633333Y-61600000D01*
X40709523Y-61676190D01*
X40747619Y-61752380D01*
X40785714Y-61904761D01*
X40785714Y-62019047D01*
X40747619Y-62171428D01*
X40709523Y-62247619D01*
X40633333Y-62323809D01*
X40519047Y-62361904D01*
X40328571Y-62361904D01*
X41090476Y-62133333D02*
X41471428Y-62133333D01*
X41014285Y-62361904D02*
X41280952Y-61561904D01*
X41547619Y-62361904D01*
X39547619Y-59823809D02*
X39661904Y-59861904D01*
X39852380Y-59861904D01*
X39928571Y-59823809D01*
X39966666Y-59785714D01*
X40004761Y-59709523D01*
X40004761Y-59633333D01*
X39966666Y-59557142D01*
X39928571Y-59519047D01*
X39852380Y-59480952D01*
X39700000Y-59442857D01*
X39623809Y-59404761D01*
X39585714Y-59366666D01*
X39547619Y-59290476D01*
X39547619Y-59214285D01*
X39585714Y-59138095D01*
X39623809Y-59100000D01*
X39700000Y-59061904D01*
X39890476Y-59061904D01*
X40004761Y-59100000D01*
X40804761Y-59785714D02*
X40766666Y-59823809D01*
X40652380Y-59861904D01*
X40576190Y-59861904D01*
X40461904Y-59823809D01*
X40385714Y-59747619D01*
X40347619Y-59671428D01*
X40309523Y-59519047D01*
X40309523Y-59404761D01*
X40347619Y-59252380D01*
X40385714Y-59176190D01*
X40461904Y-59100000D01*
X40576190Y-59061904D01*
X40652380Y-59061904D01*
X40766666Y-59100000D01*
X40804761Y-59138095D01*
X41528571Y-59861904D02*
X41147619Y-59861904D01*
X41147619Y-59061904D01*
X31380952Y-121952380D02*
X31380952Y-122666666D01*
X31333333Y-122809523D01*
X31238095Y-122904761D01*
X31095238Y-122952380D01*
X31000000Y-122952380D01*
X32333333Y-122952380D02*
X31857142Y-122952380D01*
X31857142Y-121952380D01*
X33238095Y-122857142D02*
X33190476Y-122904761D01*
X33047619Y-122952380D01*
X32952380Y-122952380D01*
X32809523Y-122904761D01*
X32714285Y-122809523D01*
X32666666Y-122714285D01*
X32619047Y-122523809D01*
X32619047Y-122380952D01*
X32666666Y-122190476D01*
X32714285Y-122095238D01*
X32809523Y-122000000D01*
X32952380Y-121952380D01*
X33047619Y-121952380D01*
X33190476Y-122000000D01*
X33238095Y-122047619D01*
X33952380Y-121952380D02*
X33952380Y-122666666D01*
X33904761Y-122809523D01*
X33809523Y-122904761D01*
X33666666Y-122952380D01*
X33571428Y-122952380D01*
X34904761Y-122952380D02*
X34428571Y-122952380D01*
X34428571Y-121952380D01*
X35809523Y-122857142D02*
X35761904Y-122904761D01*
X35619047Y-122952380D01*
X35523809Y-122952380D01*
X35380952Y-122904761D01*
X35285714Y-122809523D01*
X35238095Y-122714285D01*
X35190476Y-122523809D01*
X35190476Y-122380952D01*
X35238095Y-122190476D01*
X35285714Y-122095238D01*
X35380952Y-122000000D01*
X35523809Y-121952380D01*
X35619047Y-121952380D01*
X35761904Y-122000000D01*
X35809523Y-122047619D01*
X36523809Y-121952380D02*
X36523809Y-122666666D01*
X36476190Y-122809523D01*
X36380952Y-122904761D01*
X36238095Y-122952380D01*
X36142857Y-122952380D01*
X37476190Y-122952380D02*
X37000000Y-122952380D01*
X37000000Y-121952380D01*
X38380952Y-122857142D02*
X38333333Y-122904761D01*
X38190476Y-122952380D01*
X38095238Y-122952380D01*
X37952380Y-122904761D01*
X37857142Y-122809523D01*
X37809523Y-122714285D01*
X37761904Y-122523809D01*
X37761904Y-122380952D01*
X37809523Y-122190476D01*
X37857142Y-122095238D01*
X37952380Y-122000000D01*
X38095238Y-121952380D01*
X38190476Y-121952380D01*
X38333333Y-122000000D01*
X38380952Y-122047619D01*
X39095238Y-121952380D02*
X39095238Y-122666666D01*
X39047619Y-122809523D01*
X38952380Y-122904761D01*
X38809523Y-122952380D01*
X38714285Y-122952380D01*
X40047619Y-122952380D02*
X39571428Y-122952380D01*
X39571428Y-121952380D01*
X40952380Y-122857142D02*
X40904761Y-122904761D01*
X40761904Y-122952380D01*
X40666666Y-122952380D01*
X40523809Y-122904761D01*
X40428571Y-122809523D01*
X40380952Y-122714285D01*
X40333333Y-122523809D01*
X40333333Y-122380952D01*
X40380952Y-122190476D01*
X40428571Y-122095238D01*
X40523809Y-122000000D01*
X40666666Y-121952380D01*
X40761904Y-121952380D01*
X40904761Y-122000000D01*
X40952380Y-122047619D01*
D10*
X47920000Y-59130000D02*
X47920000Y-59460000D01*
X54460000Y-59130000D02*
X47920000Y-59130000D01*
X54460000Y-59460000D02*
X54460000Y-59130000D01*
X47920000Y-61870000D02*
X47920000Y-61540000D01*
X54460000Y-61870000D02*
X47920000Y-61870000D01*
X54460000Y-61540000D02*
X54460000Y-61870000D01*
X97000000Y-58500000D02*
X97000000Y-46500000D01*
X97000000Y-46500000D02*
X135000000Y-46500000D01*
X135000000Y-46500000D02*
X135000000Y-58500000D01*
X135000000Y-58500000D02*
X97000000Y-58500000D01*
D12*
X42110000Y-45220000D02*
X42110000Y-47760000D01*
X59890000Y-45220000D02*
X42110000Y-45220000D01*
X59890000Y-47760000D02*
X59890000Y-45220000D01*
X59890000Y-78240000D02*
X59890000Y-47760000D01*
X42110000Y-78240000D02*
X59890000Y-78240000D01*
X42110000Y-47760000D02*
X42110000Y-78240000D01*
D10*
X65050000Y-45950000D02*
X65050000Y-45300000D01*
X65050000Y-45300000D02*
X66950000Y-45300000D01*
X66950000Y-45300000D02*
X66950000Y-45950000D01*
X67750000Y-49050000D02*
X64250000Y-49050000D01*
X64250000Y-45950000D02*
X67750000Y-45950000D01*
X47550000Y-47780000D02*
X47550000Y-48570000D01*
X54450000Y-48570000D02*
X54450000Y-47780000D01*
X52600000Y-49620000D02*
X50900000Y-49620000D01*
X53850000Y-46770000D02*
X48150000Y-46770000D01*
X51100000Y-45480000D02*
X51100000Y-46770000D01*
X52200000Y-45270000D02*
X51300000Y-45270000D01*
X52400000Y-46770000D02*
X52400000Y-45480000D01*
X51100000Y-45480000D02*
X51300000Y-45270000D01*
X52400000Y-45480000D02*
X52200000Y-45270000D01*
X49600000Y-49620000D02*
X49400000Y-49620000D01*
X47920000Y-56130000D02*
X47920000Y-56460000D01*
X54460000Y-56130000D02*
X47920000Y-56130000D01*
X54460000Y-56460000D02*
X54460000Y-56130000D01*
X47920000Y-58870000D02*
X47920000Y-58540000D01*
X54460000Y-58870000D02*
X47920000Y-58870000D01*
X54460000Y-58540000D02*
X54460000Y-58870000D01*
D11*
X132500000Y-56050000D02*
X132500000Y-49950000D01*
X120400000Y-56050000D02*
X120400000Y-49950000D01*
X132500000Y-56050000D02*
X120400000Y-56050000D01*
X132500000Y-49950000D02*
X120400000Y-49950000D01*
X132500000Y-55800000D02*
X134500000Y-55800000D01*
X132500000Y-50200000D02*
X134500000Y-50200000D01*
X134500000Y-55800000D02*
X134500000Y-50200000D01*
D10*
X67250000Y-71000000D02*
X71150000Y-71000000D01*
X67250000Y-73000000D02*
X71150000Y-73000000D01*
X67250000Y-71000000D02*
X67250000Y-73000000D01*
X85250000Y-66000000D02*
X89150000Y-66000000D01*
X85250000Y-68000000D02*
X89150000Y-68000000D01*
X85250000Y-66000000D02*
X85250000Y-68000000D01*
X103250000Y-71000000D02*
X107150000Y-71000000D01*
X103250000Y-73000000D02*
X107150000Y-73000000D01*
X103250000Y-71000000D02*
X103250000Y-73000000D01*
X121250000Y-74500000D02*
X125150000Y-74500000D01*
X121250000Y-76500000D02*
X125150000Y-76500000D01*
X121250000Y-74500000D02*
X121250000Y-76500000D01*
X49250000Y-91000000D02*
X53150000Y-91000000D01*
X49250000Y-93000000D02*
X53150000Y-93000000D01*
X49250000Y-91000000D02*
X49250000Y-93000000D01*
X67250000Y-88000000D02*
X71150000Y-88000000D01*
X67250000Y-90000000D02*
X71150000Y-90000000D01*
X67250000Y-88000000D02*
X67250000Y-90000000D01*
X85250000Y-83000000D02*
X89150000Y-83000000D01*
X85250000Y-85000000D02*
X89150000Y-85000000D01*
X85250000Y-83000000D02*
X85250000Y-85000000D01*
X103250000Y-88000000D02*
X107150000Y-88000000D01*
X103250000Y-90000000D02*
X107150000Y-90000000D01*
X103250000Y-88000000D02*
X103250000Y-90000000D01*
X121250000Y-91500000D02*
X125150000Y-91500000D01*
X121250000Y-93500000D02*
X125150000Y-93500000D01*
X121250000Y-91500000D02*
X121250000Y-93500000D01*
X49250000Y-108000000D02*
X53150000Y-108000000D01*
X49250000Y-110000000D02*
X53150000Y-110000000D01*
X49250000Y-108000000D02*
X49250000Y-110000000D01*
X67250000Y-105000000D02*
X71150000Y-105000000D01*
X67250000Y-107000000D02*
X71150000Y-107000000D01*
X67250000Y-105000000D02*
X67250000Y-107000000D01*
X85250000Y-100000000D02*
X89150000Y-100000000D01*
X85250000Y-102000000D02*
X89150000Y-102000000D01*
X85250000Y-100000000D02*
X85250000Y-102000000D01*
X103250000Y-105000000D02*
X107150000Y-105000000D01*
X103250000Y-107000000D02*
X107150000Y-107000000D01*
X103250000Y-105000000D02*
X103250000Y-107000000D01*
X121250000Y-108500000D02*
X125150000Y-108500000D01*
X121250000Y-110500000D02*
X125150000Y-110500000D01*
X121250000Y-108500000D02*
X121250000Y-110500000D01*
X52250000Y-125000000D02*
X56150000Y-125000000D01*
X52250000Y-127000000D02*
X56150000Y-127000000D01*
X52250000Y-125000000D02*
X52250000Y-127000000D01*
X70500000Y-128750000D02*
X70500000Y-124850000D01*
X72500000Y-128750000D02*
X72500000Y-124850000D01*
X70500000Y-128750000D02*
X72500000Y-128750000D01*
X96500000Y-130750000D02*
X96500000Y-126850000D01*
X98500000Y-130750000D02*
X98500000Y-126850000D01*
X96500000Y-130750000D02*
X98500000Y-130750000D01*
X113500000Y-135750000D02*
X113500000Y-131850000D01*
X115500000Y-135750000D02*
X115500000Y-131850000D01*
X113500000Y-135750000D02*
X115500000Y-135750000D01*
X134950000Y-69050000D02*
X133875000Y-69050000D01*
X134950000Y-74950000D02*
X134950000Y-69050000D01*
X131050000Y-74950000D02*
X131050000Y-69050000D01*
X31250000Y-91000000D02*
X35150000Y-91000000D01*
X31250000Y-93000000D02*
X35150000Y-93000000D01*
X31250000Y-91000000D02*
X31250000Y-93000000D01*
X31250000Y-108000000D02*
X35150000Y-108000000D01*
X31250000Y-110000000D02*
X35150000Y-110000000D01*
X31250000Y-108000000D02*
X31250000Y-110000000D01*
X48750000Y-74535000D02*
X47100000Y-74535000D01*
X48750000Y-74275000D02*
X48750000Y-74535000D01*
X51500000Y-74275000D02*
X48750000Y-74275000D01*
X54250000Y-74275000D02*
X54250000Y-74535000D01*
X51500000Y-74275000D02*
X54250000Y-74275000D01*
X48750000Y-79725000D02*
X48750000Y-79465000D01*
X51500000Y-79725000D02*
X48750000Y-79725000D01*
X54250000Y-79725000D02*
X54250000Y-79465000D01*
X51500000Y-79725000D02*
X54250000Y-79725000D01*
D11*
X55737191Y-73991904D02*
X55813381Y-73991904D01*
X55889571Y-74030000D01*
X55927667Y-74068095D01*
X55965762Y-74144285D01*
X56003857Y-74296666D01*
X56003857Y-74487142D01*
X55965762Y-74639523D01*
X55927667Y-74715714D01*
X55889571Y-74753809D01*
X55813381Y-74791904D01*
X55737191Y-74791904D01*
X55661000Y-74753809D01*
X55622905Y-74715714D01*
X55584810Y-74639523D01*
X55546714Y-74487142D01*
X55546714Y-74296666D01*
X55584810Y-74144285D01*
X55622905Y-74068095D01*
X55661000Y-74030000D01*
X55737191Y-73991904D01*
X56765762Y-74791904D02*
X56308619Y-74791904D01*
X56537191Y-74791904D02*
X56537191Y-73991904D01*
X56461000Y-74106190D01*
X56384810Y-74182380D01*
X56308619Y-74220476D01*
X57261000Y-73991904D02*
X57337191Y-73991904D01*
X57413381Y-74030000D01*
X57451476Y-74068095D01*
X57489571Y-74144285D01*
X57527667Y-74296666D01*
X57527667Y-74487142D01*
X57489571Y-74639523D01*
X57451476Y-74715714D01*
X57413381Y-74753809D01*
X57337191Y-74791904D01*
X57261000Y-74791904D01*
X57184810Y-74753809D01*
X57146714Y-74715714D01*
X57108619Y-74639523D01*
X57070524Y-74487142D01*
X57070524Y-74296666D01*
X57108619Y-74144285D01*
X57146714Y-74068095D01*
X57184810Y-74030000D01*
X57261000Y-73991904D01*
X56003857Y-67171904D02*
X55546714Y-67171904D01*
X55775286Y-67171904D02*
X55775286Y-66371904D01*
X55699095Y-66486190D01*
X55622905Y-66562380D01*
X55546714Y-66600476D01*
X56765762Y-67171904D02*
X56308619Y-67171904D01*
X56537191Y-67171904D02*
X56537191Y-66371904D01*
X56461000Y-66486190D01*
X56384810Y-66562380D01*
X56308619Y-66600476D01*
X57489571Y-66371904D02*
X57108619Y-66371904D01*
X57070524Y-66752857D01*
X57108619Y-66714761D01*
X57184810Y-66676666D01*
X57375286Y-66676666D01*
X57451476Y-66714761D01*
X57489571Y-66752857D01*
X57527667Y-66829047D01*
X57527667Y-67019523D01*
X57489571Y-67095714D01*
X57451476Y-67133809D01*
X57375286Y-67171904D01*
X57184810Y-67171904D01*
X57108619Y-67133809D01*
X57070524Y-67095714D01*
X55737191Y-63831904D02*
X55813381Y-63831904D01*
X55889571Y-63870000D01*
X55927667Y-63908095D01*
X55965762Y-63984285D01*
X56003857Y-64136666D01*
X56003857Y-64327142D01*
X55965762Y-64479523D01*
X55927667Y-64555714D01*
X55889571Y-64593809D01*
X55813381Y-64631904D01*
X55737191Y-64631904D01*
X55661000Y-64593809D01*
X55622905Y-64555714D01*
X55584810Y-64479523D01*
X55546714Y-64327142D01*
X55546714Y-64136666D01*
X55584810Y-63984285D01*
X55622905Y-63908095D01*
X55661000Y-63870000D01*
X55737191Y-63831904D01*
X56499095Y-63831904D02*
X56575286Y-63831904D01*
X56651476Y-63870000D01*
X56689571Y-63908095D01*
X56727667Y-63984285D01*
X56765762Y-64136666D01*
X56765762Y-64327142D01*
X56727667Y-64479523D01*
X56689571Y-64555714D01*
X56651476Y-64593809D01*
X56575286Y-64631904D01*
X56499095Y-64631904D01*
X56422905Y-64593809D01*
X56384810Y-64555714D01*
X56346714Y-64479523D01*
X56308619Y-64327142D01*
X56308619Y-64136666D01*
X56346714Y-63984285D01*
X56384810Y-63908095D01*
X56422905Y-63870000D01*
X56499095Y-63831904D01*
X57070524Y-63908095D02*
X57108619Y-63870000D01*
X57184810Y-63831904D01*
X57375286Y-63831904D01*
X57451476Y-63870000D01*
X57489571Y-63908095D01*
X57527667Y-63984285D01*
X57527667Y-64060476D01*
X57489571Y-64174761D01*
X57032429Y-64631904D01*
X57527667Y-64631904D01*
X55737191Y-61291904D02*
X55813381Y-61291904D01*
X55889571Y-61330000D01*
X55927667Y-61368095D01*
X55965762Y-61444285D01*
X56003857Y-61596666D01*
X56003857Y-61787142D01*
X55965762Y-61939523D01*
X55927667Y-62015714D01*
X55889571Y-62053809D01*
X55813381Y-62091904D01*
X55737191Y-62091904D01*
X55661000Y-62053809D01*
X55622905Y-62015714D01*
X55584810Y-61939523D01*
X55546714Y-61787142D01*
X55546714Y-61596666D01*
X55584810Y-61444285D01*
X55622905Y-61368095D01*
X55661000Y-61330000D01*
X55737191Y-61291904D01*
X56308619Y-61368095D02*
X56346714Y-61330000D01*
X56422905Y-61291904D01*
X56613381Y-61291904D01*
X56689571Y-61330000D01*
X56727667Y-61368095D01*
X56765762Y-61444285D01*
X56765762Y-61520476D01*
X56727667Y-61634761D01*
X56270524Y-62091904D01*
X56765762Y-62091904D01*
X57146714Y-62091904D02*
X57299095Y-62091904D01*
X57375286Y-62053809D01*
X57413381Y-62015714D01*
X57489571Y-61901428D01*
X57527667Y-61749047D01*
X57527667Y-61444285D01*
X57489571Y-61368095D01*
X57451476Y-61330000D01*
X57375286Y-61291904D01*
X57222905Y-61291904D01*
X57146714Y-61330000D01*
X57108619Y-61368095D01*
X57070524Y-61444285D01*
X57070524Y-61634761D01*
X57108619Y-61710952D01*
X57146714Y-61749047D01*
X57222905Y-61787142D01*
X57375286Y-61787142D01*
X57451476Y-61749047D01*
X57489571Y-61710952D01*
X57527667Y-61634761D01*
X55921334Y-49391904D02*
X55654667Y-49010952D01*
X55464191Y-49391904D02*
X55464191Y-48591904D01*
X55768953Y-48591904D01*
X55845143Y-48630000D01*
X55883238Y-48668095D01*
X55921334Y-48744285D01*
X55921334Y-48858571D01*
X55883238Y-48934761D01*
X55845143Y-48972857D01*
X55768953Y-49010952D01*
X55464191Y-49010952D01*
X56226095Y-49163333D02*
X56607048Y-49163333D01*
X56149905Y-49391904D02*
X56416572Y-48591904D01*
X56683238Y-49391904D01*
X56873715Y-48591904D02*
X57064191Y-49391904D01*
X57216572Y-48820476D01*
X57368953Y-49391904D01*
X57559429Y-48591904D01*
X55845143Y-51170000D02*
X55768952Y-51131904D01*
X55654667Y-51131904D01*
X55540381Y-51170000D01*
X55464190Y-51246190D01*
X55426095Y-51322380D01*
X55388000Y-51474761D01*
X55388000Y-51589047D01*
X55426095Y-51741428D01*
X55464190Y-51817619D01*
X55540381Y-51893809D01*
X55654667Y-51931904D01*
X55730857Y-51931904D01*
X55845143Y-51893809D01*
X55883238Y-51855714D01*
X55883238Y-51589047D01*
X55730857Y-51589047D01*
X56226095Y-51931904D02*
X56226095Y-51131904D01*
X56683238Y-51931904D01*
X56683238Y-51131904D01*
X57064190Y-51931904D02*
X57064190Y-51131904D01*
X57254667Y-51131904D01*
X57368952Y-51170000D01*
X57445143Y-51246190D01*
X57483238Y-51322380D01*
X57521333Y-51474761D01*
X57521333Y-51589047D01*
X57483238Y-51741428D01*
X57445143Y-51817619D01*
X57368952Y-51893809D01*
X57254667Y-51931904D01*
X57064190Y-51931904D01*
X56149904Y-54471904D02*
X55883238Y-54090952D01*
X55692761Y-54471904D02*
X55692761Y-53671904D01*
X55997523Y-53671904D01*
X56073714Y-53710000D01*
X56111809Y-53748095D01*
X56149904Y-53824285D01*
X56149904Y-53938571D01*
X56111809Y-54014761D01*
X56073714Y-54052857D01*
X55997523Y-54090952D01*
X55692761Y-54090952D01*
X56454666Y-54433809D02*
X56568952Y-54471904D01*
X56759428Y-54471904D01*
X56835619Y-54433809D01*
X56873714Y-54395714D01*
X56911809Y-54319523D01*
X56911809Y-54243333D01*
X56873714Y-54167142D01*
X56835619Y-54129047D01*
X56759428Y-54090952D01*
X56607047Y-54052857D01*
X56530857Y-54014761D01*
X56492761Y-53976666D01*
X56454666Y-53900476D01*
X56454666Y-53824285D01*
X56492761Y-53748095D01*
X56530857Y-53710000D01*
X56607047Y-53671904D01*
X56797523Y-53671904D01*
X56911809Y-53710000D01*
X57140380Y-53671904D02*
X57597523Y-53671904D01*
X57368952Y-54471904D02*
X57368952Y-53671904D01*
X55470524Y-56211904D02*
X55737191Y-57011904D01*
X56003857Y-56211904D01*
X56727667Y-56935714D02*
X56689571Y-56973809D01*
X56575286Y-57011904D01*
X56499095Y-57011904D01*
X56384810Y-56973809D01*
X56308619Y-56897619D01*
X56270524Y-56821428D01*
X56232429Y-56669047D01*
X56232429Y-56554761D01*
X56270524Y-56402380D01*
X56308619Y-56326190D01*
X56384810Y-56250000D01*
X56499095Y-56211904D01*
X56575286Y-56211904D01*
X56689571Y-56250000D01*
X56727667Y-56288095D01*
X57527667Y-56935714D02*
X57489571Y-56973809D01*
X57375286Y-57011904D01*
X57299095Y-57011904D01*
X57184810Y-56973809D01*
X57108619Y-56897619D01*
X57070524Y-56821428D01*
X57032429Y-56669047D01*
X57032429Y-56554761D01*
X57070524Y-56402380D01*
X57108619Y-56326190D01*
X57184810Y-56250000D01*
X57299095Y-56211904D01*
X57375286Y-56211904D01*
X57489571Y-56250000D01*
X57527667Y-56288095D01*
X55737191Y-58751904D02*
X55813381Y-58751904D01*
X55889571Y-58790000D01*
X55927667Y-58828095D01*
X55965762Y-58904285D01*
X56003857Y-59056666D01*
X56003857Y-59247142D01*
X55965762Y-59399523D01*
X55927667Y-59475714D01*
X55889571Y-59513809D01*
X55813381Y-59551904D01*
X55737191Y-59551904D01*
X55661000Y-59513809D01*
X55622905Y-59475714D01*
X55584810Y-59399523D01*
X55546714Y-59247142D01*
X55546714Y-59056666D01*
X55584810Y-58904285D01*
X55622905Y-58828095D01*
X55661000Y-58790000D01*
X55737191Y-58751904D01*
X56270524Y-58751904D02*
X56765762Y-58751904D01*
X56499095Y-59056666D01*
X56613381Y-59056666D01*
X56689571Y-59094761D01*
X56727667Y-59132857D01*
X56765762Y-59209047D01*
X56765762Y-59399523D01*
X56727667Y-59475714D01*
X56689571Y-59513809D01*
X56613381Y-59551904D01*
X56384810Y-59551904D01*
X56308619Y-59513809D01*
X56270524Y-59475714D01*
X57527667Y-59551904D02*
X57070524Y-59551904D01*
X57299095Y-59551904D02*
X57299095Y-58751904D01*
X57222905Y-58866190D01*
X57146714Y-58942380D01*
X57070524Y-58980476D01*
X56003857Y-69711904D02*
X55546714Y-69711904D01*
X55775286Y-69711904D02*
X55775286Y-68911904D01*
X55699095Y-69026190D01*
X55622905Y-69102380D01*
X55546714Y-69140476D01*
X56765762Y-69711904D02*
X56308619Y-69711904D01*
X56537191Y-69711904D02*
X56537191Y-68911904D01*
X56461000Y-69026190D01*
X56384810Y-69102380D01*
X56308619Y-69140476D01*
X57032429Y-68911904D02*
X57527667Y-68911904D01*
X57261000Y-69216666D01*
X57375286Y-69216666D01*
X57451476Y-69254761D01*
X57489571Y-69292857D01*
X57527667Y-69369047D01*
X57527667Y-69559523D01*
X57489571Y-69635714D01*
X57451476Y-69673809D01*
X57375286Y-69711904D01*
X57146714Y-69711904D01*
X57070524Y-69673809D01*
X57032429Y-69635714D01*
X56003857Y-72251904D02*
X55546714Y-72251904D01*
X55775286Y-72251904D02*
X55775286Y-71451904D01*
X55699095Y-71566190D01*
X55622905Y-71642380D01*
X55546714Y-71680476D01*
X56765762Y-72251904D02*
X56308619Y-72251904D01*
X56537191Y-72251904D02*
X56537191Y-71451904D01*
X56461000Y-71566190D01*
X56384810Y-71642380D01*
X56308619Y-71680476D01*
X57527667Y-72251904D02*
X57070524Y-72251904D01*
X57299095Y-72251904D02*
X57299095Y-71451904D01*
X57222905Y-71566190D01*
X57146714Y-71642380D01*
X57070524Y-71680476D01*
X44929476Y-74791904D02*
X44472333Y-74791904D01*
X44700905Y-74791904D02*
X44700905Y-73991904D01*
X44624714Y-74106190D01*
X44548524Y-74182380D01*
X44472333Y-74220476D01*
X45424714Y-73991904D02*
X45500905Y-73991904D01*
X45577095Y-74030000D01*
X45615190Y-74068095D01*
X45653286Y-74144285D01*
X45691381Y-74296666D01*
X45691381Y-74487142D01*
X45653286Y-74639523D01*
X45615190Y-74715714D01*
X45577095Y-74753809D01*
X45500905Y-74791904D01*
X45424714Y-74791904D01*
X45348524Y-74753809D01*
X45310429Y-74715714D01*
X45272333Y-74639523D01*
X45234238Y-74487142D01*
X45234238Y-74296666D01*
X45272333Y-74144285D01*
X45310429Y-74068095D01*
X45348524Y-74030000D01*
X45424714Y-73991904D01*
X46377095Y-74258571D02*
X46377095Y-74791904D01*
X46186619Y-73953809D02*
X45996143Y-74525238D01*
X46491381Y-74525238D01*
X44929476Y-69711904D02*
X44472333Y-69711904D01*
X44700905Y-69711904D02*
X44700905Y-68911904D01*
X44624714Y-69026190D01*
X44548524Y-69102380D01*
X44472333Y-69140476D01*
X45424714Y-68911904D02*
X45500905Y-68911904D01*
X45577095Y-68950000D01*
X45615190Y-68988095D01*
X45653286Y-69064285D01*
X45691381Y-69216666D01*
X45691381Y-69407142D01*
X45653286Y-69559523D01*
X45615190Y-69635714D01*
X45577095Y-69673809D01*
X45500905Y-69711904D01*
X45424714Y-69711904D01*
X45348524Y-69673809D01*
X45310429Y-69635714D01*
X45272333Y-69559523D01*
X45234238Y-69407142D01*
X45234238Y-69216666D01*
X45272333Y-69064285D01*
X45310429Y-68988095D01*
X45348524Y-68950000D01*
X45424714Y-68911904D01*
X46186619Y-68911904D02*
X46262810Y-68911904D01*
X46339000Y-68950000D01*
X46377095Y-68988095D01*
X46415190Y-69064285D01*
X46453286Y-69216666D01*
X46453286Y-69407142D01*
X46415190Y-69559523D01*
X46377095Y-69635714D01*
X46339000Y-69673809D01*
X46262810Y-69711904D01*
X46186619Y-69711904D01*
X46110429Y-69673809D01*
X46072333Y-69635714D01*
X46034238Y-69559523D01*
X45996143Y-69407142D01*
X45996143Y-69216666D01*
X46034238Y-69064285D01*
X46072333Y-68988095D01*
X46110429Y-68950000D01*
X46186619Y-68911904D01*
X44662810Y-66371904D02*
X44739000Y-66371904D01*
X44815190Y-66410000D01*
X44853286Y-66448095D01*
X44891381Y-66524285D01*
X44929476Y-66676666D01*
X44929476Y-66867142D01*
X44891381Y-67019523D01*
X44853286Y-67095714D01*
X44815190Y-67133809D01*
X44739000Y-67171904D01*
X44662810Y-67171904D01*
X44586619Y-67133809D01*
X44548524Y-67095714D01*
X44510429Y-67019523D01*
X44472333Y-66867142D01*
X44472333Y-66676666D01*
X44510429Y-66524285D01*
X44548524Y-66448095D01*
X44586619Y-66410000D01*
X44662810Y-66371904D01*
X45234238Y-66448095D02*
X45272333Y-66410000D01*
X45348524Y-66371904D01*
X45539000Y-66371904D01*
X45615190Y-66410000D01*
X45653286Y-66448095D01*
X45691381Y-66524285D01*
X45691381Y-66600476D01*
X45653286Y-66714761D01*
X45196143Y-67171904D01*
X45691381Y-67171904D01*
X46377095Y-66638571D02*
X46377095Y-67171904D01*
X46186619Y-66333809D02*
X45996143Y-66905238D01*
X46491381Y-66905238D01*
X44662810Y-63861904D02*
X44739000Y-63861904D01*
X44815190Y-63900000D01*
X44853286Y-63938095D01*
X44891381Y-64014285D01*
X44929476Y-64166666D01*
X44929476Y-64357142D01*
X44891381Y-64509523D01*
X44853286Y-64585714D01*
X44815190Y-64623809D01*
X44739000Y-64661904D01*
X44662810Y-64661904D01*
X44586619Y-64623809D01*
X44548524Y-64585714D01*
X44510429Y-64509523D01*
X44472333Y-64357142D01*
X44472333Y-64166666D01*
X44510429Y-64014285D01*
X44548524Y-63938095D01*
X44586619Y-63900000D01*
X44662810Y-63861904D01*
X45234238Y-63938095D02*
X45272333Y-63900000D01*
X45348524Y-63861904D01*
X45539000Y-63861904D01*
X45615190Y-63900000D01*
X45653286Y-63938095D01*
X45691381Y-64014285D01*
X45691381Y-64090476D01*
X45653286Y-64204761D01*
X45196143Y-64661904D01*
X45691381Y-64661904D01*
X45996143Y-63938095D02*
X46034238Y-63900000D01*
X46110429Y-63861904D01*
X46300905Y-63861904D01*
X46377095Y-63900000D01*
X46415190Y-63938095D01*
X46453286Y-64014285D01*
X46453286Y-64090476D01*
X46415190Y-64204761D01*
X45958048Y-64661904D01*
X46453286Y-64661904D01*
X44929476Y-53710000D02*
X44853285Y-53671904D01*
X44739000Y-53671904D01*
X44624714Y-53710000D01*
X44548523Y-53786190D01*
X44510428Y-53862380D01*
X44472333Y-54014761D01*
X44472333Y-54129047D01*
X44510428Y-54281428D01*
X44548523Y-54357619D01*
X44624714Y-54433809D01*
X44739000Y-54471904D01*
X44815190Y-54471904D01*
X44929476Y-54433809D01*
X44967571Y-54395714D01*
X44967571Y-54129047D01*
X44815190Y-54129047D01*
X45310428Y-54471904D02*
X45310428Y-53671904D01*
X45767571Y-54471904D01*
X45767571Y-53671904D01*
X46148523Y-54471904D02*
X46148523Y-53671904D01*
X46339000Y-53671904D01*
X46453285Y-53710000D01*
X46529476Y-53786190D01*
X46567571Y-53862380D01*
X46605666Y-54014761D01*
X46605666Y-54129047D01*
X46567571Y-54281428D01*
X46529476Y-54357619D01*
X46453285Y-54433809D01*
X46339000Y-54471904D01*
X46148523Y-54471904D01*
X44929476Y-56250000D02*
X44853285Y-56211904D01*
X44739000Y-56211904D01*
X44624714Y-56250000D01*
X44548523Y-56326190D01*
X44510428Y-56402380D01*
X44472333Y-56554761D01*
X44472333Y-56669047D01*
X44510428Y-56821428D01*
X44548523Y-56897619D01*
X44624714Y-56973809D01*
X44739000Y-57011904D01*
X44815190Y-57011904D01*
X44929476Y-56973809D01*
X44967571Y-56935714D01*
X44967571Y-56669047D01*
X44815190Y-56669047D01*
X45310428Y-57011904D02*
X45310428Y-56211904D01*
X45767571Y-57011904D01*
X45767571Y-56211904D01*
X46148523Y-57011904D02*
X46148523Y-56211904D01*
X46339000Y-56211904D01*
X46453285Y-56250000D01*
X46529476Y-56326190D01*
X46567571Y-56402380D01*
X46605666Y-56554761D01*
X46605666Y-56669047D01*
X46567571Y-56821428D01*
X46529476Y-56897619D01*
X46453285Y-56973809D01*
X46339000Y-57011904D01*
X46148523Y-57011904D01*
X44662810Y-58761904D02*
X44739000Y-58761904D01*
X44815190Y-58800000D01*
X44853286Y-58838095D01*
X44891381Y-58914285D01*
X44929476Y-59066666D01*
X44929476Y-59257142D01*
X44891381Y-59409523D01*
X44853286Y-59485714D01*
X44815190Y-59523809D01*
X44739000Y-59561904D01*
X44662810Y-59561904D01*
X44586619Y-59523809D01*
X44548524Y-59485714D01*
X44510429Y-59409523D01*
X44472333Y-59257142D01*
X44472333Y-59066666D01*
X44510429Y-58914285D01*
X44548524Y-58838095D01*
X44586619Y-58800000D01*
X44662810Y-58761904D01*
X45691381Y-59561904D02*
X45234238Y-59561904D01*
X45462810Y-59561904D02*
X45462810Y-58761904D01*
X45386619Y-58876190D01*
X45310429Y-58952380D01*
X45234238Y-58990476D01*
X45958048Y-58761904D02*
X46491381Y-58761904D01*
X46148524Y-59561904D01*
X44662810Y-61361904D02*
X44739000Y-61361904D01*
X44815190Y-61400000D01*
X44853286Y-61438095D01*
X44891381Y-61514285D01*
X44929476Y-61666666D01*
X44929476Y-61857142D01*
X44891381Y-62009523D01*
X44853286Y-62085714D01*
X44815190Y-62123809D01*
X44739000Y-62161904D01*
X44662810Y-62161904D01*
X44586619Y-62123809D01*
X44548524Y-62085714D01*
X44510429Y-62009523D01*
X44472333Y-61857142D01*
X44472333Y-61666666D01*
X44510429Y-61514285D01*
X44548524Y-61438095D01*
X44586619Y-61400000D01*
X44662810Y-61361904D01*
X45234238Y-61438095D02*
X45272333Y-61400000D01*
X45348524Y-61361904D01*
X45539000Y-61361904D01*
X45615190Y-61400000D01*
X45653286Y-61438095D01*
X45691381Y-61514285D01*
X45691381Y-61590476D01*
X45653286Y-61704761D01*
X45196143Y-62161904D01*
X45691381Y-62161904D01*
X46186619Y-61361904D02*
X46262810Y-61361904D01*
X46339000Y-61400000D01*
X46377095Y-61438095D01*
X46415190Y-61514285D01*
X46453286Y-61666666D01*
X46453286Y-61857142D01*
X46415190Y-62009523D01*
X46377095Y-62085714D01*
X46339000Y-62123809D01*
X46262810Y-62161904D01*
X46186619Y-62161904D01*
X46110429Y-62123809D01*
X46072333Y-62085714D01*
X46034238Y-62009523D01*
X45996143Y-61857142D01*
X45996143Y-61666666D01*
X46034238Y-61514285D01*
X46072333Y-61438095D01*
X46110429Y-61400000D01*
X46186619Y-61361904D01*
X44662810Y-51061904D02*
X44739000Y-51061904D01*
X44815190Y-51100000D01*
X44853286Y-51138095D01*
X44891381Y-51214285D01*
X44929476Y-51366666D01*
X44929476Y-51557142D01*
X44891381Y-51709523D01*
X44853286Y-51785714D01*
X44815190Y-51823809D01*
X44739000Y-51861904D01*
X44662810Y-51861904D01*
X44586619Y-51823809D01*
X44548524Y-51785714D01*
X44510429Y-51709523D01*
X44472333Y-51557142D01*
X44472333Y-51366666D01*
X44510429Y-51214285D01*
X44548524Y-51138095D01*
X44586619Y-51100000D01*
X44662810Y-51061904D01*
X45424714Y-51061904D02*
X45500905Y-51061904D01*
X45577095Y-51100000D01*
X45615190Y-51138095D01*
X45653286Y-51214285D01*
X45691381Y-51366666D01*
X45691381Y-51557142D01*
X45653286Y-51709523D01*
X45615190Y-51785714D01*
X45577095Y-51823809D01*
X45500905Y-51861904D01*
X45424714Y-51861904D01*
X45348524Y-51823809D01*
X45310429Y-51785714D01*
X45272333Y-51709523D01*
X45234238Y-51557142D01*
X45234238Y-51366666D01*
X45272333Y-51214285D01*
X45310429Y-51138095D01*
X45348524Y-51100000D01*
X45424714Y-51061904D01*
X46148524Y-51404761D02*
X46072333Y-51366666D01*
X46034238Y-51328571D01*
X45996143Y-51252380D01*
X45996143Y-51214285D01*
X46034238Y-51138095D01*
X46072333Y-51100000D01*
X46148524Y-51061904D01*
X46300905Y-51061904D01*
X46377095Y-51100000D01*
X46415190Y-51138095D01*
X46453286Y-51214285D01*
X46453286Y-51252380D01*
X46415190Y-51328571D01*
X46377095Y-51366666D01*
X46300905Y-51404761D01*
X46148524Y-51404761D01*
X46072333Y-51442857D01*
X46034238Y-51480952D01*
X45996143Y-51557142D01*
X45996143Y-51709523D01*
X46034238Y-51785714D01*
X46072333Y-51823809D01*
X46148524Y-51861904D01*
X46300905Y-51861904D01*
X46377095Y-51823809D01*
X46415190Y-51785714D01*
X46453286Y-51709523D01*
X46453286Y-51557142D01*
X46415190Y-51480952D01*
X46377095Y-51442857D01*
X46300905Y-51404761D01*
X44662810Y-48591904D02*
X44739000Y-48591904D01*
X44815190Y-48630000D01*
X44853286Y-48668095D01*
X44891381Y-48744285D01*
X44929476Y-48896666D01*
X44929476Y-49087142D01*
X44891381Y-49239523D01*
X44853286Y-49315714D01*
X44815190Y-49353809D01*
X44739000Y-49391904D01*
X44662810Y-49391904D01*
X44586619Y-49353809D01*
X44548524Y-49315714D01*
X44510429Y-49239523D01*
X44472333Y-49087142D01*
X44472333Y-48896666D01*
X44510429Y-48744285D01*
X44548524Y-48668095D01*
X44586619Y-48630000D01*
X44662810Y-48591904D01*
X45424714Y-48591904D02*
X45500905Y-48591904D01*
X45577095Y-48630000D01*
X45615190Y-48668095D01*
X45653286Y-48744285D01*
X45691381Y-48896666D01*
X45691381Y-49087142D01*
X45653286Y-49239523D01*
X45615190Y-49315714D01*
X45577095Y-49353809D01*
X45500905Y-49391904D01*
X45424714Y-49391904D01*
X45348524Y-49353809D01*
X45310429Y-49315714D01*
X45272333Y-49239523D01*
X45234238Y-49087142D01*
X45234238Y-48896666D01*
X45272333Y-48744285D01*
X45310429Y-48668095D01*
X45348524Y-48630000D01*
X45424714Y-48591904D01*
X46377095Y-48591904D02*
X46224714Y-48591904D01*
X46148524Y-48630000D01*
X46110429Y-48668095D01*
X46034238Y-48782380D01*
X45996143Y-48934761D01*
X45996143Y-49239523D01*
X46034238Y-49315714D01*
X46072333Y-49353809D01*
X46148524Y-49391904D01*
X46300905Y-49391904D01*
X46377095Y-49353809D01*
X46415190Y-49315714D01*
X46453286Y-49239523D01*
X46453286Y-49049047D01*
X46415190Y-48972857D01*
X46377095Y-48934761D01*
X46300905Y-48896666D01*
X46148524Y-48896666D01*
X46072333Y-48934761D01*
X46034238Y-48972857D01*
X45996143Y-49049047D01*
X45100904Y-46432857D02*
X45215190Y-46470952D01*
X45253285Y-46509047D01*
X45291380Y-46585238D01*
X45291380Y-46699523D01*
X45253285Y-46775714D01*
X45215190Y-46813809D01*
X45139000Y-46851904D01*
X44834238Y-46851904D01*
X44834238Y-46051904D01*
X45100904Y-46051904D01*
X45177095Y-46090000D01*
X45215190Y-46128095D01*
X45253285Y-46204285D01*
X45253285Y-46280476D01*
X45215190Y-46356666D01*
X45177095Y-46394761D01*
X45100904Y-46432857D01*
X44834238Y-46432857D01*
X45634238Y-46547142D02*
X46243761Y-46547142D01*
X56340381Y-46432857D02*
X56454667Y-46470952D01*
X56492762Y-46509047D01*
X56530857Y-46585238D01*
X56530857Y-46699523D01*
X56492762Y-46775714D01*
X56454667Y-46813809D01*
X56378477Y-46851904D01*
X56073715Y-46851904D01*
X56073715Y-46051904D01*
X56340381Y-46051904D01*
X56416572Y-46090000D01*
X56454667Y-46128095D01*
X56492762Y-46204285D01*
X56492762Y-46280476D01*
X56454667Y-46356666D01*
X56416572Y-46394761D01*
X56340381Y-46432857D01*
X56073715Y-46432857D01*
X56873715Y-46547142D02*
X57483238Y-46547142D01*
X57178477Y-46851904D02*
X57178477Y-46242380D01*
X132577380Y-75214285D02*
X132577380Y-75785714D01*
X132577380Y-75500000D02*
X131577380Y-75500000D01*
X131720238Y-75595238D01*
X131815476Y-75690476D01*
X131863095Y-75785714D01*
M02*
