M48
; DRILL file {KiCad 5.1.6} date Mon Aug 24 11:01:28 2020
; FORMAT={-:-/ absolute / inch / decimal}
; #@! TF.CreationDate,2020-08-24T11:01:28-05:00
; #@! TF.GenerationSoftware,Kicad,Pcbnew,5.1.6
; #@! TF.FileFunction,NonPlated,1,2,NPTH
FMAT,2
INCH
T1C0.0155
T2C0.0315
T3C0.0669
T4C0.1339
%
G90
G05
T1
X5.6793Y-2.8543
X5.7183Y-3.563
X5.5512Y-4.4785
X5.5906Y-4.4785
X5.6793Y-3.878
X5.6793Y-2.4213
X5.6793Y-4.3307
X5.7183Y-3.8976
X5.6793Y-3.563
X5.7183Y-2.4213
X4.0748Y-4.5176
X5.7183Y-2.4409
X5.6793Y-3.9173
X4.0748Y-4.4785
X5.5512Y-4.5176
X5.6793Y-2.4606
X5.5709Y-4.4785
X5.6793Y-2.8937
X4.0551Y-4.5176
X4.0551Y-4.4785
X5.6793Y-4.311
X5.7183Y-2.4606
X5.7183Y-4.3307
X5.6793Y-3.8976
X5.6793Y-3.5433
X5.6793Y-2.874
X5.5709Y-4.5176
X5.6793Y-2.4409
X5.7183Y-2.874
X4.0354Y-4.4785
X5.6793Y-3.5236
X5.7183Y-3.878
X5.6793Y-4.3504
X5.7183Y-3.5236
X5.7183Y-4.311
X5.7183Y-3.5433
X5.5906Y-4.5176
X5.7183Y-4.3504
X5.7183Y-2.8937
X4.0354Y-4.5176
X5.7183Y-2.8543
X5.7183Y-3.9173
T2
X5.4724Y-3.7047
X5.4724Y-3.9803
X5.4724Y-3.7047
X5.4724Y-3.9803
T3
X2.5197Y-2.6575
X2.9528Y-2.6575
X4.0354Y-4.7047
X4.0354Y-5.1378
X3.2283Y-2.4606
X3.6614Y-2.4606
X3.937Y-3.3268
X4.3701Y-3.3268
X1.811Y-3.4449
X2.2441Y-3.4449
X4.6457Y-3.4646
X5.0787Y-3.4646
X3.937Y-3.9961
X4.3701Y-3.9961
X4.6457Y-4.1339
X5.0787Y-4.1339
X3.2283Y-3.1299
X3.6614Y-3.1299
X1.811Y-4.1142
X2.2441Y-4.1142
X1.1024Y-3.4449
X1.5354Y-3.4449
X1.1024Y-4.1142
X1.5354Y-4.1142
X4.7047Y-4.7835
X4.7047Y-5.2165
X5.374Y-4.9803
X5.374Y-5.4134
X3.937Y-2.6575
X4.3701Y-2.6575
X2.5197Y-3.3268
X2.9528Y-3.3268
X4.6457Y-2.7953
X5.0787Y-2.7953
X2.5197Y-3.9961
X2.9528Y-3.9961
X3.2283Y-3.7992
X3.6614Y-3.7992
X1.9291Y-4.7835
X2.3622Y-4.7835
T4
X2.7362Y-2.6575
X4.0354Y-4.9213
X3.4449Y-2.4606
X4.1535Y-3.3268
X2.0276Y-3.4449
X4.8622Y-3.4646
X4.1535Y-3.9961
X4.8622Y-4.1339
X3.4449Y-3.1299
X2.0276Y-4.1142
X1.3189Y-3.4449
X1.3189Y-4.1142
X4.7047Y-5.0
X5.374Y-5.1969
X4.1535Y-2.6575
X2.7362Y-3.3268
X4.8622Y-2.7953
X2.7362Y-3.9961
X3.4449Y-3.7992
X2.1457Y-4.7835
T0
M30
