G04 #@! TF.GenerationSoftware,KiCad,Pcbnew,5.1.5*
G04 #@! TF.CreationDate,2020-03-16T15:52:58-05:00*
G04 #@! TF.ProjectId,fissure,66697373-7572-4652-9e6b-696361645f70,rev?*
G04 #@! TF.SameCoordinates,Original*
G04 #@! TF.FileFunction,Legend,Bot*
G04 #@! TF.FilePolarity,Positive*
%FSLAX46Y46*%
G04 Gerber Fmt 4.6, Leading zero omitted, Abs format (unit mm)*
G04 Created by KiCad (PCBNEW 5.1.5) date 2020-03-16 15:52:58*
%MOMM*%
%LPD*%
G04 APERTURE LIST*
%ADD10C,0.150000*%
%ADD11C,0.120000*%
%ADD12C,0.381000*%
G04 APERTURE END LIST*
D10*
X128016167Y-44266857D02*
X128282833Y-44266857D01*
X128282833Y-44685904D02*
X128282833Y-43885904D01*
X127901881Y-43885904D01*
X127597119Y-44685904D02*
X127597119Y-44152571D01*
X127597119Y-43885904D02*
X127635214Y-43924000D01*
X127597119Y-43962095D01*
X127559024Y-43924000D01*
X127597119Y-43885904D01*
X127597119Y-43962095D01*
X127254262Y-44647809D02*
X127178071Y-44685904D01*
X127025690Y-44685904D01*
X126949500Y-44647809D01*
X126911405Y-44571619D01*
X126911405Y-44533523D01*
X126949500Y-44457333D01*
X127025690Y-44419238D01*
X127139976Y-44419238D01*
X127216167Y-44381142D01*
X127254262Y-44304952D01*
X127254262Y-44266857D01*
X127216167Y-44190666D01*
X127139976Y-44152571D01*
X127025690Y-44152571D01*
X126949500Y-44190666D01*
X126606643Y-44647809D02*
X126530452Y-44685904D01*
X126378071Y-44685904D01*
X126301881Y-44647809D01*
X126263786Y-44571619D01*
X126263786Y-44533523D01*
X126301881Y-44457333D01*
X126378071Y-44419238D01*
X126492357Y-44419238D01*
X126568548Y-44381142D01*
X126606643Y-44304952D01*
X126606643Y-44266857D01*
X126568548Y-44190666D01*
X126492357Y-44152571D01*
X126378071Y-44152571D01*
X126301881Y-44190666D01*
X125578071Y-44152571D02*
X125578071Y-44685904D01*
X125920929Y-44152571D02*
X125920929Y-44571619D01*
X125882833Y-44647809D01*
X125806643Y-44685904D01*
X125692357Y-44685904D01*
X125616167Y-44647809D01*
X125578071Y-44609714D01*
X125197119Y-44685904D02*
X125197119Y-44152571D01*
X125197119Y-44304952D02*
X125159024Y-44228761D01*
X125120929Y-44190666D01*
X125044738Y-44152571D01*
X124968548Y-44152571D01*
X124397119Y-44647809D02*
X124473310Y-44685904D01*
X124625690Y-44685904D01*
X124701881Y-44647809D01*
X124739976Y-44571619D01*
X124739976Y-44266857D01*
X124701881Y-44190666D01*
X124625690Y-44152571D01*
X124473310Y-44152571D01*
X124397119Y-44190666D01*
X124359024Y-44266857D01*
X124359024Y-44343047D01*
X124739976Y-44419238D01*
X123482833Y-44152571D02*
X123292357Y-44685904D01*
X123101881Y-44152571D01*
X122835214Y-43962095D02*
X122797119Y-43924000D01*
X122720929Y-43885904D01*
X122530452Y-43885904D01*
X122454262Y-43924000D01*
X122416167Y-43962095D01*
X122378071Y-44038285D01*
X122378071Y-44114476D01*
X122416167Y-44228761D01*
X122873310Y-44685904D01*
X122378071Y-44685904D01*
X127939976Y-45502571D02*
X127939976Y-46150190D01*
X127978071Y-46226380D01*
X128016167Y-46264476D01*
X128092357Y-46302571D01*
X128206643Y-46302571D01*
X128282833Y-46264476D01*
X127939976Y-45997809D02*
X128016167Y-46035904D01*
X128168548Y-46035904D01*
X128244738Y-45997809D01*
X128282833Y-45959714D01*
X128320929Y-45883523D01*
X128320929Y-45654952D01*
X128282833Y-45578761D01*
X128244738Y-45540666D01*
X128168548Y-45502571D01*
X128016167Y-45502571D01*
X127939976Y-45540666D01*
X127559024Y-46035904D02*
X127559024Y-45502571D01*
X127559024Y-45235904D02*
X127597119Y-45274000D01*
X127559024Y-45312095D01*
X127520929Y-45274000D01*
X127559024Y-45235904D01*
X127559024Y-45312095D01*
X127292357Y-45502571D02*
X126987595Y-45502571D01*
X127178071Y-45235904D02*
X127178071Y-45921619D01*
X127139976Y-45997809D01*
X127063786Y-46035904D01*
X126987595Y-46035904D01*
X126720929Y-46035904D02*
X126720929Y-45235904D01*
X126378071Y-46035904D02*
X126378071Y-45616857D01*
X126416167Y-45540666D01*
X126492357Y-45502571D01*
X126606643Y-45502571D01*
X126682833Y-45540666D01*
X126720929Y-45578761D01*
X125654262Y-45502571D02*
X125654262Y-46035904D01*
X125997119Y-45502571D02*
X125997119Y-45921619D01*
X125959024Y-45997809D01*
X125882833Y-46035904D01*
X125768548Y-46035904D01*
X125692357Y-45997809D01*
X125654262Y-45959714D01*
X125273310Y-46035904D02*
X125273310Y-45235904D01*
X125273310Y-45540666D02*
X125197119Y-45502571D01*
X125044738Y-45502571D01*
X124968548Y-45540666D01*
X124930452Y-45578761D01*
X124892357Y-45654952D01*
X124892357Y-45883523D01*
X124930452Y-45959714D01*
X124968548Y-45997809D01*
X125044738Y-46035904D01*
X125197119Y-46035904D01*
X125273310Y-45997809D01*
X124549500Y-45959714D02*
X124511405Y-45997809D01*
X124549500Y-46035904D01*
X124587595Y-45997809D01*
X124549500Y-45959714D01*
X124549500Y-46035904D01*
X123825690Y-45997809D02*
X123901881Y-46035904D01*
X124054262Y-46035904D01*
X124130452Y-45997809D01*
X124168548Y-45959714D01*
X124206643Y-45883523D01*
X124206643Y-45654952D01*
X124168548Y-45578761D01*
X124130452Y-45540666D01*
X124054262Y-45502571D01*
X123901881Y-45502571D01*
X123825690Y-45540666D01*
X123368548Y-46035904D02*
X123444738Y-45997809D01*
X123482833Y-45959714D01*
X123520929Y-45883523D01*
X123520929Y-45654952D01*
X123482833Y-45578761D01*
X123444738Y-45540666D01*
X123368548Y-45502571D01*
X123254262Y-45502571D01*
X123178071Y-45540666D01*
X123139976Y-45578761D01*
X123101881Y-45654952D01*
X123101881Y-45883523D01*
X123139976Y-45959714D01*
X123178071Y-45997809D01*
X123254262Y-46035904D01*
X123368548Y-46035904D01*
X122759024Y-46035904D02*
X122759024Y-45502571D01*
X122759024Y-45578761D02*
X122720929Y-45540666D01*
X122644738Y-45502571D01*
X122530452Y-45502571D01*
X122454262Y-45540666D01*
X122416167Y-45616857D01*
X122416167Y-46035904D01*
X122416167Y-45616857D02*
X122378071Y-45540666D01*
X122301881Y-45502571D01*
X122187595Y-45502571D01*
X122111405Y-45540666D01*
X122073310Y-45616857D01*
X122073310Y-46035904D01*
X121120929Y-45197809D02*
X121806643Y-46226380D01*
X120511405Y-45997809D02*
X120587595Y-46035904D01*
X120739976Y-46035904D01*
X120816167Y-45997809D01*
X120854262Y-45959714D01*
X120892357Y-45883523D01*
X120892357Y-45654952D01*
X120854262Y-45578761D01*
X120816167Y-45540666D01*
X120739976Y-45502571D01*
X120587595Y-45502571D01*
X120511405Y-45540666D01*
X120168548Y-46035904D02*
X120168548Y-45502571D01*
X120168548Y-45654952D02*
X120130452Y-45578761D01*
X120092357Y-45540666D01*
X120016167Y-45502571D01*
X119939976Y-45502571D01*
X119673310Y-46035904D02*
X119673310Y-45502571D01*
X119673310Y-45235904D02*
X119711405Y-45274000D01*
X119673310Y-45312095D01*
X119635214Y-45274000D01*
X119673310Y-45235904D01*
X119673310Y-45312095D01*
X118949500Y-46035904D02*
X118949500Y-45235904D01*
X118949500Y-45997809D02*
X119025690Y-46035904D01*
X119178071Y-46035904D01*
X119254262Y-45997809D01*
X119292357Y-45959714D01*
X119330452Y-45883523D01*
X119330452Y-45654952D01*
X119292357Y-45578761D01*
X119254262Y-45540666D01*
X119178071Y-45502571D01*
X119025690Y-45502571D01*
X118949500Y-45540666D01*
X118263786Y-45997809D02*
X118339976Y-46035904D01*
X118492357Y-46035904D01*
X118568548Y-45997809D01*
X118606643Y-45921619D01*
X118606643Y-45616857D01*
X118568548Y-45540666D01*
X118492357Y-45502571D01*
X118339976Y-45502571D01*
X118263786Y-45540666D01*
X118225690Y-45616857D01*
X118225690Y-45693047D01*
X118606643Y-45769238D01*
X117920929Y-45997809D02*
X117844738Y-46035904D01*
X117692357Y-46035904D01*
X117616167Y-45997809D01*
X117578071Y-45921619D01*
X117578071Y-45883523D01*
X117616167Y-45807333D01*
X117692357Y-45769238D01*
X117806643Y-45769238D01*
X117882833Y-45731142D01*
X117920929Y-45654952D01*
X117920929Y-45616857D01*
X117882833Y-45540666D01*
X117806643Y-45502571D01*
X117692357Y-45502571D01*
X117616167Y-45540666D01*
X116663786Y-45197809D02*
X117349500Y-46226380D01*
X116511405Y-45502571D02*
X116206643Y-45502571D01*
X116397119Y-46035904D02*
X116397119Y-45350190D01*
X116359024Y-45274000D01*
X116282833Y-45235904D01*
X116206643Y-45235904D01*
X115939976Y-46035904D02*
X115939976Y-45502571D01*
X115939976Y-45235904D02*
X115978071Y-45274000D01*
X115939976Y-45312095D01*
X115901881Y-45274000D01*
X115939976Y-45235904D01*
X115939976Y-45312095D01*
X115597119Y-45997809D02*
X115520929Y-46035904D01*
X115368548Y-46035904D01*
X115292357Y-45997809D01*
X115254262Y-45921619D01*
X115254262Y-45883523D01*
X115292357Y-45807333D01*
X115368548Y-45769238D01*
X115482833Y-45769238D01*
X115559024Y-45731142D01*
X115597119Y-45654952D01*
X115597119Y-45616857D01*
X115559024Y-45540666D01*
X115482833Y-45502571D01*
X115368548Y-45502571D01*
X115292357Y-45540666D01*
X114949500Y-45997809D02*
X114873310Y-46035904D01*
X114720929Y-46035904D01*
X114644738Y-45997809D01*
X114606643Y-45921619D01*
X114606643Y-45883523D01*
X114644738Y-45807333D01*
X114720929Y-45769238D01*
X114835214Y-45769238D01*
X114911405Y-45731142D01*
X114949500Y-45654952D01*
X114949500Y-45616857D01*
X114911405Y-45540666D01*
X114835214Y-45502571D01*
X114720929Y-45502571D01*
X114644738Y-45540666D01*
X113920929Y-45502571D02*
X113920929Y-46035904D01*
X114263786Y-45502571D02*
X114263786Y-45921619D01*
X114225690Y-45997809D01*
X114149500Y-46035904D01*
X114035214Y-46035904D01*
X113959024Y-45997809D01*
X113920929Y-45959714D01*
X113539976Y-46035904D02*
X113539976Y-45502571D01*
X113539976Y-45654952D02*
X113501881Y-45578761D01*
X113463786Y-45540666D01*
X113387595Y-45502571D01*
X113311405Y-45502571D01*
X112739976Y-45997809D02*
X112816167Y-46035904D01*
X112968548Y-46035904D01*
X113044738Y-45997809D01*
X113082833Y-45921619D01*
X113082833Y-45616857D01*
X113044738Y-45540666D01*
X112968548Y-45502571D01*
X112816167Y-45502571D01*
X112739976Y-45540666D01*
X112701881Y-45616857D01*
X112701881Y-45693047D01*
X113082833Y-45769238D01*
X129311285Y-54534714D02*
X129349380Y-54572809D01*
X129463666Y-54610904D01*
X129539857Y-54610904D01*
X129654142Y-54572809D01*
X129730333Y-54496619D01*
X129768428Y-54420428D01*
X129806523Y-54268047D01*
X129806523Y-54153761D01*
X129768428Y-54001380D01*
X129730333Y-53925190D01*
X129654142Y-53849000D01*
X129539857Y-53810904D01*
X129463666Y-53810904D01*
X129349380Y-53849000D01*
X129311285Y-53887095D01*
X128968428Y-54191857D02*
X128701761Y-54191857D01*
X128587476Y-54610904D02*
X128968428Y-54610904D01*
X128968428Y-53810904D01*
X128587476Y-53810904D01*
X129330333Y-52534714D02*
X129368428Y-52572809D01*
X129482714Y-52610904D01*
X129558904Y-52610904D01*
X129673190Y-52572809D01*
X129749380Y-52496619D01*
X129787476Y-52420428D01*
X129825571Y-52268047D01*
X129825571Y-52153761D01*
X129787476Y-52001380D01*
X129749380Y-51925190D01*
X129673190Y-51849000D01*
X129558904Y-51810904D01*
X129482714Y-51810904D01*
X129368428Y-51849000D01*
X129330333Y-51887095D01*
X129025571Y-52572809D02*
X128911285Y-52610904D01*
X128720809Y-52610904D01*
X128644619Y-52572809D01*
X128606523Y-52534714D01*
X128568428Y-52458523D01*
X128568428Y-52382333D01*
X128606523Y-52306142D01*
X128644619Y-52268047D01*
X128720809Y-52229952D01*
X128873190Y-52191857D01*
X128949380Y-52153761D01*
X128987476Y-52115666D01*
X129025571Y-52039476D01*
X129025571Y-51963285D01*
X128987476Y-51887095D01*
X128949380Y-51849000D01*
X128873190Y-51810904D01*
X128682714Y-51810904D01*
X128568428Y-51849000D01*
X127475571Y-54572809D02*
X127361285Y-54610904D01*
X127170809Y-54610904D01*
X127094619Y-54572809D01*
X127056523Y-54534714D01*
X127018428Y-54458523D01*
X127018428Y-54382333D01*
X127056523Y-54306142D01*
X127094619Y-54268047D01*
X127170809Y-54229952D01*
X127323190Y-54191857D01*
X127399380Y-54153761D01*
X127437476Y-54115666D01*
X127475571Y-54039476D01*
X127475571Y-53963285D01*
X127437476Y-53887095D01*
X127399380Y-53849000D01*
X127323190Y-53810904D01*
X127132714Y-53810904D01*
X127018428Y-53849000D01*
X126218428Y-54534714D02*
X126256523Y-54572809D01*
X126370809Y-54610904D01*
X126447000Y-54610904D01*
X126561285Y-54572809D01*
X126637476Y-54496619D01*
X126675571Y-54420428D01*
X126713666Y-54268047D01*
X126713666Y-54153761D01*
X126675571Y-54001380D01*
X126637476Y-53925190D01*
X126561285Y-53849000D01*
X126447000Y-53810904D01*
X126370809Y-53810904D01*
X126256523Y-53849000D01*
X126218428Y-53887095D01*
X125875571Y-54610904D02*
X125875571Y-53810904D01*
X125418428Y-54610904D02*
X125761285Y-54153761D01*
X125418428Y-53810904D02*
X125875571Y-54268047D01*
X132763666Y-51810904D02*
X132497000Y-52610904D01*
X132230333Y-51810904D01*
X131506523Y-52534714D02*
X131544619Y-52572809D01*
X131658904Y-52610904D01*
X131735095Y-52610904D01*
X131849380Y-52572809D01*
X131925571Y-52496619D01*
X131963666Y-52420428D01*
X132001761Y-52268047D01*
X132001761Y-52153761D01*
X131963666Y-52001380D01*
X131925571Y-51925190D01*
X131849380Y-51849000D01*
X131735095Y-51810904D01*
X131658904Y-51810904D01*
X131544619Y-51849000D01*
X131506523Y-51887095D01*
X130706523Y-52534714D02*
X130744619Y-52572809D01*
X130858904Y-52610904D01*
X130935095Y-52610904D01*
X131049380Y-52572809D01*
X131125571Y-52496619D01*
X131163666Y-52420428D01*
X131201761Y-52268047D01*
X131201761Y-52153761D01*
X131163666Y-52001380D01*
X131125571Y-51925190D01*
X131049380Y-51849000D01*
X130935095Y-51810904D01*
X130858904Y-51810904D01*
X130744619Y-51849000D01*
X130706523Y-51887095D01*
X127382714Y-52610904D02*
X127382714Y-51810904D01*
X127116047Y-52382333D01*
X126849380Y-51810904D01*
X126849380Y-52610904D01*
X126316047Y-51810904D02*
X126163666Y-51810904D01*
X126087476Y-51849000D01*
X126011285Y-51925190D01*
X125973190Y-52077571D01*
X125973190Y-52344238D01*
X126011285Y-52496619D01*
X126087476Y-52572809D01*
X126163666Y-52610904D01*
X126316047Y-52610904D01*
X126392238Y-52572809D01*
X126468428Y-52496619D01*
X126506523Y-52344238D01*
X126506523Y-52077571D01*
X126468428Y-51925190D01*
X126392238Y-51849000D01*
X126316047Y-51810904D01*
X124404142Y-54610904D02*
X124404142Y-53810904D01*
X124137476Y-54382333D01*
X123870809Y-53810904D01*
X123870809Y-54610904D01*
X123489857Y-54610904D02*
X123489857Y-53810904D01*
X125016047Y-52610904D02*
X125016047Y-51810904D01*
X124177952Y-52610904D02*
X124444619Y-52229952D01*
X124635095Y-52610904D02*
X124635095Y-51810904D01*
X124330333Y-51810904D01*
X124254142Y-51849000D01*
X124216047Y-51887095D01*
X124177952Y-51963285D01*
X124177952Y-52077571D01*
X124216047Y-52153761D01*
X124254142Y-52191857D01*
X124330333Y-52229952D01*
X124635095Y-52229952D01*
X123301761Y-52687095D02*
X123377952Y-52649000D01*
X123454142Y-52572809D01*
X123568428Y-52458523D01*
X123644619Y-52420428D01*
X123720809Y-52420428D01*
X123682714Y-52610904D02*
X123758904Y-52572809D01*
X123835095Y-52496619D01*
X123873190Y-52344238D01*
X123873190Y-52077571D01*
X123835095Y-51925190D01*
X123758904Y-51849000D01*
X123682714Y-51810904D01*
X123530333Y-51810904D01*
X123454142Y-51849000D01*
X123377952Y-51925190D01*
X123339857Y-52077571D01*
X123339857Y-52344238D01*
X123377952Y-52496619D01*
X123454142Y-52572809D01*
X123530333Y-52610904D01*
X123682714Y-52610904D01*
X132306523Y-53849000D02*
X132382714Y-53810904D01*
X132497000Y-53810904D01*
X132611285Y-53849000D01*
X132687476Y-53925190D01*
X132725571Y-54001380D01*
X132763666Y-54153761D01*
X132763666Y-54268047D01*
X132725571Y-54420428D01*
X132687476Y-54496619D01*
X132611285Y-54572809D01*
X132497000Y-54610904D01*
X132420809Y-54610904D01*
X132306523Y-54572809D01*
X132268428Y-54534714D01*
X132268428Y-54268047D01*
X132420809Y-54268047D01*
X131925571Y-54610904D02*
X131925571Y-53810904D01*
X131468428Y-54610904D01*
X131468428Y-53810904D01*
X131087476Y-54610904D02*
X131087476Y-53810904D01*
X130897000Y-53810904D01*
X130782714Y-53849000D01*
X130706523Y-53925190D01*
X130668428Y-54001380D01*
X130630333Y-54153761D01*
X130630333Y-54268047D01*
X130668428Y-54420428D01*
X130706523Y-54496619D01*
X130782714Y-54572809D01*
X130897000Y-54610904D01*
X131087476Y-54610904D01*
X134550000Y-100700000D02*
X140650000Y-100700000D01*
X134550000Y-112800000D02*
X140650000Y-112800000D01*
X134550000Y-100700000D02*
X134550000Y-112800000D01*
X140650000Y-100700000D02*
X140650000Y-112800000D01*
X134800000Y-100700000D02*
X134800000Y-98700000D01*
X140400000Y-100700000D02*
X140400000Y-98700000D01*
X134800000Y-98700000D02*
X140400000Y-98700000D01*
D11*
X135947000Y-117799000D02*
X135947000Y-116724000D01*
X141847000Y-117799000D02*
X135947000Y-117799000D01*
X141847000Y-113899000D02*
X135947000Y-113899000D01*
D12*
X48257000Y-55039000D02*
X48257000Y-57579000D01*
X45717000Y-39799000D02*
X45717000Y-57579000D01*
X45717000Y-57579000D02*
X78737000Y-57579000D01*
X78737000Y-57579000D02*
X78737000Y-39799000D01*
X78737000Y-39799000D02*
X45717000Y-39799000D01*
D10*
G36*
X54146030Y-42844365D02*
G01*
X54246030Y-42844365D01*
X54246030Y-42344365D01*
X54146030Y-42344365D01*
X54146030Y-42844365D01*
G37*
X54146030Y-42844365D02*
X54246030Y-42844365D01*
X54246030Y-42344365D01*
X54146030Y-42344365D01*
X54146030Y-42844365D01*
G36*
X54146030Y-42844365D02*
G01*
X54446030Y-42844365D01*
X54446030Y-42744365D01*
X54146030Y-42744365D01*
X54146030Y-42844365D01*
G37*
X54146030Y-42844365D02*
X54446030Y-42844365D01*
X54446030Y-42744365D01*
X54146030Y-42744365D01*
X54146030Y-42844365D01*
G36*
X54746030Y-42844365D02*
G01*
X54946030Y-42844365D01*
X54946030Y-42744365D01*
X54746030Y-42744365D01*
X54746030Y-42844365D01*
G37*
X54746030Y-42844365D02*
X54946030Y-42844365D01*
X54946030Y-42744365D01*
X54746030Y-42744365D01*
X54746030Y-42844365D01*
G36*
X54146030Y-42444365D02*
G01*
X54946030Y-42444365D01*
X54946030Y-42344365D01*
X54146030Y-42344365D01*
X54146030Y-42444365D01*
G37*
X54146030Y-42444365D02*
X54946030Y-42444365D01*
X54946030Y-42344365D01*
X54146030Y-42344365D01*
X54146030Y-42444365D01*
G36*
X54546030Y-42644365D02*
G01*
X54646030Y-42644365D01*
X54646030Y-42544365D01*
X54546030Y-42544365D01*
X54546030Y-42644365D01*
G37*
X54546030Y-42644365D02*
X54646030Y-42644365D01*
X54646030Y-42544365D01*
X54546030Y-42544365D01*
X54546030Y-42644365D01*
D12*
X48257000Y-55039000D02*
X50797000Y-55039000D01*
X50797000Y-55039000D02*
X50797000Y-57579000D01*
D11*
X133257000Y-60814000D02*
X133257000Y-59484000D01*
X131927000Y-60814000D02*
X133257000Y-60814000D01*
X133257000Y-58214000D02*
X133257000Y-55614000D01*
X130657000Y-58214000D02*
X133257000Y-58214000D01*
X130657000Y-60814000D02*
X130657000Y-58214000D01*
X133257000Y-55614000D02*
X122977000Y-55614000D01*
X130657000Y-60814000D02*
X122977000Y-60814000D01*
X122977000Y-60814000D02*
X122977000Y-55614000D01*
D10*
X142111285Y-115426380D02*
X142682714Y-115426380D01*
X142397000Y-115426380D02*
X142397000Y-114426380D01*
X142492238Y-114569238D01*
X142587476Y-114664476D01*
X142682714Y-114712095D01*
X54910809Y-43115666D02*
X54948904Y-43229952D01*
X54948904Y-43420428D01*
X54910809Y-43496619D01*
X54872714Y-43534714D01*
X54796523Y-43572809D01*
X54720333Y-43572809D01*
X54644142Y-43534714D01*
X54606047Y-43496619D01*
X54567952Y-43420428D01*
X54529857Y-43268047D01*
X54491761Y-43191857D01*
X54453666Y-43153761D01*
X54377476Y-43115666D01*
X54301285Y-43115666D01*
X54225095Y-43153761D01*
X54187000Y-43191857D01*
X54148904Y-43268047D01*
X54148904Y-43458523D01*
X54187000Y-43572809D01*
X54148904Y-43801380D02*
X54148904Y-44258523D01*
X54948904Y-44029952D02*
X54148904Y-44029952D01*
X49088904Y-50070395D02*
X49088904Y-50527538D01*
X49888904Y-50298967D02*
X49088904Y-50298967D01*
X49088904Y-50718014D02*
X49888904Y-51251348D01*
X49088904Y-51251348D02*
X49888904Y-50718014D01*
X49088904Y-51708491D02*
X49088904Y-51784681D01*
X49127000Y-51860872D01*
X49165095Y-51898967D01*
X49241285Y-51937062D01*
X49393666Y-51975157D01*
X49584142Y-51975157D01*
X49736523Y-51937062D01*
X49812714Y-51898967D01*
X49850809Y-51860872D01*
X49888904Y-51784681D01*
X49888904Y-51708491D01*
X49850809Y-51632300D01*
X49812714Y-51594205D01*
X49736523Y-51556110D01*
X49584142Y-51518014D01*
X49393666Y-51518014D01*
X49241285Y-51556110D01*
X49165095Y-51594205D01*
X49127000Y-51632300D01*
X49088904Y-51708491D01*
X49050809Y-52889443D02*
X50079380Y-52203729D01*
X49888904Y-53156110D02*
X49088904Y-53156110D01*
X49088904Y-53346586D01*
X49127000Y-53460872D01*
X49203190Y-53537062D01*
X49279380Y-53575157D01*
X49431761Y-53613252D01*
X49546047Y-53613252D01*
X49698428Y-53575157D01*
X49774619Y-53537062D01*
X49850809Y-53460872D01*
X49888904Y-53346586D01*
X49888904Y-53156110D01*
X49088904Y-53879919D02*
X49088904Y-54375157D01*
X49393666Y-54108491D01*
X49393666Y-54222776D01*
X49431761Y-54298967D01*
X49469857Y-54337062D01*
X49546047Y-54375157D01*
X49736523Y-54375157D01*
X49812714Y-54337062D01*
X49850809Y-54298967D01*
X49888904Y-54222776D01*
X49888904Y-53994205D01*
X49850809Y-53918014D01*
X49812714Y-53879919D01*
X74869857Y-42904190D02*
X74907952Y-43018476D01*
X74946047Y-43056571D01*
X75022238Y-43094666D01*
X75136523Y-43094666D01*
X75212714Y-43056571D01*
X75250809Y-43018476D01*
X75288904Y-42942285D01*
X75288904Y-42637523D01*
X74488904Y-42637523D01*
X74488904Y-42904190D01*
X74527000Y-42980380D01*
X74565095Y-43018476D01*
X74641285Y-43056571D01*
X74717476Y-43056571D01*
X74793666Y-43018476D01*
X74831761Y-42980380D01*
X74869857Y-42904190D01*
X74869857Y-42637523D01*
X74565095Y-43399428D02*
X74527000Y-43437523D01*
X74488904Y-43513714D01*
X74488904Y-43704190D01*
X74527000Y-43780380D01*
X74565095Y-43818476D01*
X74641285Y-43856571D01*
X74717476Y-43856571D01*
X74831761Y-43818476D01*
X75288904Y-43361333D01*
X75288904Y-43856571D01*
X67249857Y-42961333D02*
X67249857Y-42694666D01*
X67668904Y-42694666D02*
X66868904Y-42694666D01*
X66868904Y-43075619D01*
X66868904Y-43304190D02*
X66868904Y-43837523D01*
X67668904Y-43494666D01*
X64709857Y-42961333D02*
X64709857Y-42694666D01*
X65128904Y-42694666D02*
X64328904Y-42694666D01*
X64328904Y-43075619D01*
X64328904Y-43723238D02*
X64328904Y-43570857D01*
X64367000Y-43494666D01*
X64405095Y-43456571D01*
X64519380Y-43380380D01*
X64671761Y-43342285D01*
X64976523Y-43342285D01*
X65052714Y-43380380D01*
X65090809Y-43418476D01*
X65128904Y-43494666D01*
X65128904Y-43647047D01*
X65090809Y-43723238D01*
X65052714Y-43761333D01*
X64976523Y-43799428D01*
X64786047Y-43799428D01*
X64709857Y-43761333D01*
X64671761Y-43723238D01*
X64633666Y-43647047D01*
X64633666Y-43494666D01*
X64671761Y-43418476D01*
X64709857Y-43380380D01*
X64786047Y-43342285D01*
X62169857Y-42961333D02*
X62169857Y-42694666D01*
X62588904Y-42694666D02*
X61788904Y-42694666D01*
X61788904Y-43075619D01*
X61788904Y-43761333D02*
X61788904Y-43380380D01*
X62169857Y-43342285D01*
X62131761Y-43380380D01*
X62093666Y-43456571D01*
X62093666Y-43647047D01*
X62131761Y-43723238D01*
X62169857Y-43761333D01*
X62246047Y-43799428D01*
X62436523Y-43799428D01*
X62512714Y-43761333D01*
X62550809Y-43723238D01*
X62588904Y-43647047D01*
X62588904Y-43456571D01*
X62550809Y-43380380D01*
X62512714Y-43342285D01*
X49888904Y-42675619D02*
X49507952Y-42408952D01*
X49888904Y-42218476D02*
X49088904Y-42218476D01*
X49088904Y-42523238D01*
X49127000Y-42599428D01*
X49165095Y-42637523D01*
X49241285Y-42675619D01*
X49355571Y-42675619D01*
X49431761Y-42637523D01*
X49469857Y-42599428D01*
X49507952Y-42523238D01*
X49507952Y-42218476D01*
X49660333Y-42980380D02*
X49660333Y-43361333D01*
X49888904Y-42904190D02*
X49088904Y-43170857D01*
X49888904Y-43437523D01*
X49088904Y-43628000D02*
X49888904Y-43818476D01*
X49317476Y-43970857D01*
X49888904Y-44123238D01*
X49088904Y-44313714D01*
X51667000Y-42618476D02*
X51628904Y-42542285D01*
X51628904Y-42428000D01*
X51667000Y-42313714D01*
X51743190Y-42237523D01*
X51819380Y-42199428D01*
X51971761Y-42161333D01*
X52086047Y-42161333D01*
X52238428Y-42199428D01*
X52314619Y-42237523D01*
X52390809Y-42313714D01*
X52428904Y-42428000D01*
X52428904Y-42504190D01*
X52390809Y-42618476D01*
X52352714Y-42656571D01*
X52086047Y-42656571D01*
X52086047Y-42504190D01*
X52428904Y-42999428D02*
X51628904Y-42999428D01*
X52428904Y-43456571D01*
X51628904Y-43456571D01*
X52428904Y-43837523D02*
X51628904Y-43837523D01*
X51628904Y-44028000D01*
X51667000Y-44142285D01*
X51743190Y-44218476D01*
X51819380Y-44256571D01*
X51971761Y-44294666D01*
X52086047Y-44294666D01*
X52238428Y-44256571D01*
X52314619Y-44218476D01*
X52390809Y-44142285D01*
X52428904Y-44028000D01*
X52428904Y-43837523D01*
X56708904Y-42161333D02*
X57508904Y-42428000D01*
X56708904Y-42694666D01*
X57432714Y-43418476D02*
X57470809Y-43380380D01*
X57508904Y-43266095D01*
X57508904Y-43189904D01*
X57470809Y-43075619D01*
X57394619Y-42999428D01*
X57318428Y-42961333D01*
X57166047Y-42923238D01*
X57051761Y-42923238D01*
X56899380Y-42961333D01*
X56823190Y-42999428D01*
X56747000Y-43075619D01*
X56708904Y-43189904D01*
X56708904Y-43266095D01*
X56747000Y-43380380D01*
X56785095Y-43418476D01*
X57432714Y-44218476D02*
X57470809Y-44180380D01*
X57508904Y-44066095D01*
X57508904Y-43989904D01*
X57470809Y-43875619D01*
X57394619Y-43799428D01*
X57318428Y-43761333D01*
X57166047Y-43723238D01*
X57051761Y-43723238D01*
X56899380Y-43761333D01*
X56823190Y-43799428D01*
X56747000Y-43875619D01*
X56708904Y-43989904D01*
X56708904Y-44066095D01*
X56747000Y-44180380D01*
X56785095Y-44218476D01*
X59629857Y-42961333D02*
X59629857Y-42694666D01*
X60048904Y-42694666D02*
X59248904Y-42694666D01*
X59248904Y-43075619D01*
X59515571Y-43723238D02*
X60048904Y-43723238D01*
X59210809Y-43532761D02*
X59782238Y-43342285D01*
X59782238Y-43837523D01*
X69789857Y-42904190D02*
X69827952Y-43018476D01*
X69866047Y-43056571D01*
X69942238Y-43094666D01*
X70056523Y-43094666D01*
X70132714Y-43056571D01*
X70170809Y-43018476D01*
X70208904Y-42942285D01*
X70208904Y-42637523D01*
X69408904Y-42637523D01*
X69408904Y-42904190D01*
X69447000Y-42980380D01*
X69485095Y-43018476D01*
X69561285Y-43056571D01*
X69637476Y-43056571D01*
X69713666Y-43018476D01*
X69751761Y-42980380D01*
X69789857Y-42904190D01*
X69789857Y-42637523D01*
X70208904Y-43856571D02*
X70208904Y-43399428D01*
X70208904Y-43628000D02*
X69408904Y-43628000D01*
X69523190Y-43551809D01*
X69599380Y-43475619D01*
X69637476Y-43399428D01*
X72329857Y-42904190D02*
X72367952Y-43018476D01*
X72406047Y-43056571D01*
X72482238Y-43094666D01*
X72596523Y-43094666D01*
X72672714Y-43056571D01*
X72710809Y-43018476D01*
X72748904Y-42942285D01*
X72748904Y-42637523D01*
X71948904Y-42637523D01*
X71948904Y-42904190D01*
X71987000Y-42980380D01*
X72025095Y-43018476D01*
X72101285Y-43056571D01*
X72177476Y-43056571D01*
X72253666Y-43018476D01*
X72291761Y-42980380D01*
X72329857Y-42904190D01*
X72329857Y-42637523D01*
X71948904Y-43361333D02*
X71948904Y-43856571D01*
X72253666Y-43589904D01*
X72253666Y-43704190D01*
X72291761Y-43780380D01*
X72329857Y-43818476D01*
X72406047Y-43856571D01*
X72596523Y-43856571D01*
X72672714Y-43818476D01*
X72710809Y-43780380D01*
X72748904Y-43704190D01*
X72748904Y-43475619D01*
X72710809Y-43399428D01*
X72672714Y-43361333D01*
X77409857Y-42904190D02*
X77447952Y-43018476D01*
X77486047Y-43056571D01*
X77562238Y-43094666D01*
X77676523Y-43094666D01*
X77752714Y-43056571D01*
X77790809Y-43018476D01*
X77828904Y-42942285D01*
X77828904Y-42637523D01*
X77028904Y-42637523D01*
X77028904Y-42904190D01*
X77067000Y-42980380D01*
X77105095Y-43018476D01*
X77181285Y-43056571D01*
X77257476Y-43056571D01*
X77333666Y-43018476D01*
X77371761Y-42980380D01*
X77409857Y-42904190D01*
X77409857Y-42637523D01*
X77028904Y-43780380D02*
X77028904Y-43628000D01*
X77067000Y-43551809D01*
X77105095Y-43513714D01*
X77219380Y-43437523D01*
X77371761Y-43399428D01*
X77676523Y-43399428D01*
X77752714Y-43437523D01*
X77790809Y-43475619D01*
X77828904Y-43551809D01*
X77828904Y-43704190D01*
X77790809Y-43780380D01*
X77752714Y-43818476D01*
X77676523Y-43856571D01*
X77486047Y-43856571D01*
X77409857Y-43818476D01*
X77371761Y-43780380D01*
X77333666Y-43704190D01*
X77333666Y-43551809D01*
X77371761Y-43475619D01*
X77409857Y-43437523D01*
X77486047Y-43399428D01*
X77409857Y-53826190D02*
X77447952Y-53940476D01*
X77486047Y-53978571D01*
X77562238Y-54016666D01*
X77676523Y-54016666D01*
X77752714Y-53978571D01*
X77790809Y-53940476D01*
X77828904Y-53864285D01*
X77828904Y-53559523D01*
X77028904Y-53559523D01*
X77028904Y-53826190D01*
X77067000Y-53902380D01*
X77105095Y-53940476D01*
X77181285Y-53978571D01*
X77257476Y-53978571D01*
X77333666Y-53940476D01*
X77371761Y-53902380D01*
X77409857Y-53826190D01*
X77409857Y-53559523D01*
X77028904Y-54740476D02*
X77028904Y-54359523D01*
X77409857Y-54321428D01*
X77371761Y-54359523D01*
X77333666Y-54435714D01*
X77333666Y-54626190D01*
X77371761Y-54702380D01*
X77409857Y-54740476D01*
X77486047Y-54778571D01*
X77676523Y-54778571D01*
X77752714Y-54740476D01*
X77790809Y-54702380D01*
X77828904Y-54626190D01*
X77828904Y-54435714D01*
X77790809Y-54359523D01*
X77752714Y-54321428D01*
X74869857Y-53826190D02*
X74907952Y-53940476D01*
X74946047Y-53978571D01*
X75022238Y-54016666D01*
X75136523Y-54016666D01*
X75212714Y-53978571D01*
X75250809Y-53940476D01*
X75288904Y-53864285D01*
X75288904Y-53559523D01*
X74488904Y-53559523D01*
X74488904Y-53826190D01*
X74527000Y-53902380D01*
X74565095Y-53940476D01*
X74641285Y-53978571D01*
X74717476Y-53978571D01*
X74793666Y-53940476D01*
X74831761Y-53902380D01*
X74869857Y-53826190D01*
X74869857Y-53559523D01*
X74755571Y-54702380D02*
X75288904Y-54702380D01*
X74450809Y-54511904D02*
X75022238Y-54321428D01*
X75022238Y-54816666D01*
X72329857Y-53597619D02*
X72329857Y-53864285D01*
X72748904Y-53978571D02*
X72748904Y-53597619D01*
X71948904Y-53597619D01*
X71948904Y-53978571D01*
X71948904Y-54664285D02*
X71948904Y-54511904D01*
X71987000Y-54435714D01*
X72025095Y-54397619D01*
X72139380Y-54321428D01*
X72291761Y-54283333D01*
X72596523Y-54283333D01*
X72672714Y-54321428D01*
X72710809Y-54359523D01*
X72748904Y-54435714D01*
X72748904Y-54588095D01*
X72710809Y-54664285D01*
X72672714Y-54702380D01*
X72596523Y-54740476D01*
X72406047Y-54740476D01*
X72329857Y-54702380D01*
X72291761Y-54664285D01*
X72253666Y-54588095D01*
X72253666Y-54435714D01*
X72291761Y-54359523D01*
X72329857Y-54321428D01*
X72406047Y-54283333D01*
X70208904Y-53559523D02*
X69408904Y-53559523D01*
X69408904Y-53750000D01*
X69447000Y-53864285D01*
X69523190Y-53940476D01*
X69599380Y-53978571D01*
X69751761Y-54016666D01*
X69866047Y-54016666D01*
X70018428Y-53978571D01*
X70094619Y-53940476D01*
X70170809Y-53864285D01*
X70208904Y-53750000D01*
X70208904Y-53559523D01*
X69408904Y-54283333D02*
X69408904Y-54816666D01*
X70208904Y-54473809D01*
X67592714Y-54016666D02*
X67630809Y-53978571D01*
X67668904Y-53864285D01*
X67668904Y-53788095D01*
X67630809Y-53673809D01*
X67554619Y-53597619D01*
X67478428Y-53559523D01*
X67326047Y-53521428D01*
X67211761Y-53521428D01*
X67059380Y-53559523D01*
X66983190Y-53597619D01*
X66907000Y-53673809D01*
X66868904Y-53788095D01*
X66868904Y-53864285D01*
X66907000Y-53978571D01*
X66945095Y-54016666D01*
X66868904Y-54702380D02*
X66868904Y-54550000D01*
X66907000Y-54473809D01*
X66945095Y-54435714D01*
X67059380Y-54359523D01*
X67211761Y-54321428D01*
X67516523Y-54321428D01*
X67592714Y-54359523D01*
X67630809Y-54397619D01*
X67668904Y-54473809D01*
X67668904Y-54626190D01*
X67630809Y-54702380D01*
X67592714Y-54740476D01*
X67516523Y-54778571D01*
X67326047Y-54778571D01*
X67249857Y-54740476D01*
X67211761Y-54702380D01*
X67173666Y-54626190D01*
X67173666Y-54473809D01*
X67211761Y-54397619D01*
X67249857Y-54359523D01*
X67326047Y-54321428D01*
X65128904Y-53559523D02*
X64328904Y-53559523D01*
X64328904Y-53750000D01*
X64367000Y-53864285D01*
X64443190Y-53940476D01*
X64519380Y-53978571D01*
X64671761Y-54016666D01*
X64786047Y-54016666D01*
X64938428Y-53978571D01*
X65014619Y-53940476D01*
X65090809Y-53864285D01*
X65128904Y-53750000D01*
X65128904Y-53559523D01*
X64595571Y-54702380D02*
X65128904Y-54702380D01*
X64290809Y-54511904D02*
X64862238Y-54321428D01*
X64862238Y-54816666D01*
X54207000Y-53540476D02*
X54168904Y-53464285D01*
X54168904Y-53350000D01*
X54207000Y-53235714D01*
X54283190Y-53159523D01*
X54359380Y-53121428D01*
X54511761Y-53083333D01*
X54626047Y-53083333D01*
X54778428Y-53121428D01*
X54854619Y-53159523D01*
X54930809Y-53235714D01*
X54968904Y-53350000D01*
X54968904Y-53426190D01*
X54930809Y-53540476D01*
X54892714Y-53578571D01*
X54626047Y-53578571D01*
X54626047Y-53426190D01*
X54968904Y-53921428D02*
X54168904Y-53921428D01*
X54968904Y-54378571D01*
X54168904Y-54378571D01*
X54968904Y-54759523D02*
X54168904Y-54759523D01*
X54168904Y-54950000D01*
X54207000Y-55064285D01*
X54283190Y-55140476D01*
X54359380Y-55178571D01*
X54511761Y-55216666D01*
X54626047Y-55216666D01*
X54778428Y-55178571D01*
X54854619Y-55140476D01*
X54930809Y-55064285D01*
X54968904Y-54950000D01*
X54968904Y-54759523D01*
X56747000Y-53540476D02*
X56708904Y-53464285D01*
X56708904Y-53350000D01*
X56747000Y-53235714D01*
X56823190Y-53159523D01*
X56899380Y-53121428D01*
X57051761Y-53083333D01*
X57166047Y-53083333D01*
X57318428Y-53121428D01*
X57394619Y-53159523D01*
X57470809Y-53235714D01*
X57508904Y-53350000D01*
X57508904Y-53426190D01*
X57470809Y-53540476D01*
X57432714Y-53578571D01*
X57166047Y-53578571D01*
X57166047Y-53426190D01*
X57508904Y-53921428D02*
X56708904Y-53921428D01*
X57508904Y-54378571D01*
X56708904Y-54378571D01*
X57508904Y-54759523D02*
X56708904Y-54759523D01*
X56708904Y-54950000D01*
X56747000Y-55064285D01*
X56823190Y-55140476D01*
X56899380Y-55178571D01*
X57051761Y-55216666D01*
X57166047Y-55216666D01*
X57318428Y-55178571D01*
X57394619Y-55140476D01*
X57470809Y-55064285D01*
X57508904Y-54950000D01*
X57508904Y-54759523D01*
X60048904Y-53559523D02*
X59248904Y-53559523D01*
X59248904Y-53750000D01*
X59287000Y-53864285D01*
X59363190Y-53940476D01*
X59439380Y-53978571D01*
X59591761Y-54016666D01*
X59706047Y-54016666D01*
X59858428Y-53978571D01*
X59934619Y-53940476D01*
X60010809Y-53864285D01*
X60048904Y-53750000D01*
X60048904Y-53559523D01*
X60048904Y-54778571D02*
X60048904Y-54321428D01*
X60048904Y-54550000D02*
X59248904Y-54550000D01*
X59363190Y-54473809D01*
X59439380Y-54397619D01*
X59477476Y-54321428D01*
X62588904Y-53559523D02*
X61788904Y-53559523D01*
X61788904Y-53750000D01*
X61827000Y-53864285D01*
X61903190Y-53940476D01*
X61979380Y-53978571D01*
X62131761Y-54016666D01*
X62246047Y-54016666D01*
X62398428Y-53978571D01*
X62474619Y-53940476D01*
X62550809Y-53864285D01*
X62588904Y-53750000D01*
X62588904Y-53559523D01*
X61788904Y-54511904D02*
X61788904Y-54588095D01*
X61827000Y-54664285D01*
X61865095Y-54702380D01*
X61941285Y-54740476D01*
X62093666Y-54778571D01*
X62284142Y-54778571D01*
X62436523Y-54740476D01*
X62512714Y-54702380D01*
X62550809Y-54664285D01*
X62588904Y-54588095D01*
X62588904Y-54511904D01*
X62550809Y-54435714D01*
X62512714Y-54397619D01*
X62436523Y-54359523D01*
X62284142Y-54321428D01*
X62093666Y-54321428D01*
X61941285Y-54359523D01*
X61865095Y-54397619D01*
X61827000Y-54435714D01*
X61788904Y-54511904D01*
X52428904Y-53559523D02*
X51628904Y-53559523D01*
X51628904Y-53750000D01*
X51667000Y-53864285D01*
X51743190Y-53940476D01*
X51819380Y-53978571D01*
X51971761Y-54016666D01*
X52086047Y-54016666D01*
X52238428Y-53978571D01*
X52314619Y-53940476D01*
X52390809Y-53864285D01*
X52428904Y-53750000D01*
X52428904Y-53559523D01*
X51705095Y-54321428D02*
X51667000Y-54359523D01*
X51628904Y-54435714D01*
X51628904Y-54626190D01*
X51667000Y-54702380D01*
X51705095Y-54740476D01*
X51781285Y-54778571D01*
X51857476Y-54778571D01*
X51971761Y-54740476D01*
X52428904Y-54283333D01*
X52428904Y-54778571D01*
M02*
