G04 #@! TF.GenerationSoftware,KiCad,Pcbnew,5.1.8*
G04 #@! TF.CreationDate,2021-03-09T15:57:41-06:00*
G04 #@! TF.ProjectId,fissure,66697373-7572-4652-9e6b-696361645f70,rev?*
G04 #@! TF.SameCoordinates,Original*
G04 #@! TF.FileFunction,Soldermask,Top*
G04 #@! TF.FilePolarity,Negative*
%FSLAX46Y46*%
G04 Gerber Fmt 4.6, Leading zero omitted, Abs format (unit mm)*
G04 Created by KiCad (PCBNEW 5.1.8) date 2021-03-09 15:57:41*
%MOMM*%
%LPD*%
G01*
G04 APERTURE LIST*
%ADD10O,1.700000X1.700000*%
%ADD11R,1.700000X1.700000*%
%ADD12C,2.000000*%
%ADD13C,3.400000*%
%ADD14C,1.700000*%
%ADD15R,0.900000X0.800000*%
%ADD16R,0.450000X0.600000*%
%ADD17R,0.800000X1.000000*%
%ADD18R,1.200000X0.800000*%
%ADD19R,0.800000X1.200000*%
%ADD20R,0.850000X1.200000*%
%ADD21R,1.000000X0.800000*%
%ADD22R,0.700000X1.500000*%
%ADD23C,0.900000*%
%ADD24R,0.900000X1.700000*%
%ADD25R,0.850000X1.600000*%
%ADD26R,1.220000X0.650000*%
%ADD27R,2.200000X2.000000*%
%ADD28R,0.600000X1.450000*%
%ADD29R,0.300000X1.450000*%
%ADD30O,1.000000X2.100000*%
%ADD31C,0.650000*%
%ADD32O,1.000000X1.600000*%
G04 APERTURE END LIST*
D10*
X30130000Y-56700000D03*
X32670000Y-56700000D03*
X35210000Y-56700000D03*
D11*
X37750000Y-56700000D03*
D12*
X28500000Y-100700000D03*
D13*
X33500000Y-104500000D03*
D14*
X39000000Y-104500000D03*
X28000000Y-104500000D03*
D12*
X33500000Y-98600000D03*
D15*
X54300000Y-77300000D03*
X52300000Y-78250000D03*
X52300000Y-76350000D03*
D12*
X64500000Y-97450000D03*
D13*
X69500000Y-101250000D03*
D14*
X75000000Y-101250000D03*
X64000000Y-101250000D03*
D12*
X69500000Y-95350000D03*
G36*
G01*
X51025000Y-78225000D02*
X51025000Y-78775000D01*
G75*
G02*
X50825000Y-78975000I-200000J0D01*
G01*
X50425000Y-78975000D01*
G75*
G02*
X50225000Y-78775000I0J200000D01*
G01*
X50225000Y-78225000D01*
G75*
G02*
X50425000Y-78025000I200000J0D01*
G01*
X50825000Y-78025000D01*
G75*
G02*
X51025000Y-78225000I0J-200000D01*
G01*
G37*
G36*
G01*
X49375000Y-78225000D02*
X49375000Y-78775000D01*
G75*
G02*
X49175000Y-78975000I-200000J0D01*
G01*
X48775000Y-78975000D01*
G75*
G02*
X48575000Y-78775000I0J200000D01*
G01*
X48575000Y-78225000D01*
G75*
G02*
X48775000Y-78025000I200000J0D01*
G01*
X49175000Y-78025000D01*
G75*
G02*
X49375000Y-78225000I0J-200000D01*
G01*
G37*
D16*
X48600000Y-71850000D03*
X48600000Y-69750000D03*
D12*
X64500000Y-80700000D03*
D13*
X69500000Y-84500000D03*
D14*
X75000000Y-84500000D03*
X64000000Y-84500000D03*
D12*
X69500000Y-78600000D03*
D17*
X40500000Y-66750000D03*
X39400000Y-66750000D03*
X38300000Y-66750000D03*
X37200000Y-66750000D03*
X36100000Y-66750000D03*
X35000000Y-66750000D03*
X33900000Y-66750000D03*
X32800000Y-66750000D03*
X31700000Y-66750000D03*
X31700000Y-75250000D03*
X32800000Y-75250000D03*
X33900000Y-75250000D03*
X35000000Y-75250000D03*
X36100000Y-75250000D03*
X37200000Y-75250000D03*
X38300000Y-75250000D03*
X39400000Y-75250000D03*
X40500000Y-75250000D03*
D18*
X44200000Y-76500000D03*
X44200000Y-75400000D03*
X44200000Y-74300000D03*
X44200000Y-73200000D03*
X44200000Y-72100000D03*
X44200000Y-71000000D03*
X44200000Y-69900000D03*
X44200000Y-68800000D03*
X44200000Y-67700000D03*
X44200000Y-66600000D03*
X44200000Y-65500000D03*
D19*
X42700000Y-64250000D03*
X41600000Y-64250000D03*
X40500000Y-64250000D03*
X39400000Y-64250000D03*
X38300000Y-64250000D03*
X37200000Y-64250000D03*
X36100000Y-64250000D03*
X35000000Y-64250000D03*
X33900000Y-64250000D03*
X32800000Y-64250000D03*
X31700000Y-64250000D03*
X30600000Y-64250000D03*
X29500000Y-64250000D03*
X42700000Y-77750000D03*
X41600000Y-77750000D03*
X40500000Y-77750000D03*
X39400000Y-77750000D03*
X38300000Y-77750000D03*
X37200000Y-77750000D03*
X36100000Y-77750000D03*
X35000000Y-77750000D03*
D20*
X33900000Y-77750000D03*
D19*
X32800000Y-77750000D03*
X31700000Y-77750000D03*
X30600000Y-77750000D03*
X29500000Y-77750000D03*
D12*
X100500000Y-63950000D03*
D13*
X105500000Y-67750000D03*
D14*
X111000000Y-67750000D03*
X100000000Y-67750000D03*
D12*
X105500000Y-61850000D03*
X82500000Y-75700000D03*
D13*
X87500000Y-79500000D03*
D14*
X93000000Y-79500000D03*
X82000000Y-79500000D03*
D12*
X87500000Y-73600000D03*
G36*
G01*
X49525000Y-68375000D02*
X49525000Y-67825000D01*
G75*
G02*
X49725000Y-67625000I200000J0D01*
G01*
X50125000Y-67625000D01*
G75*
G02*
X50325000Y-67825000I0J-200000D01*
G01*
X50325000Y-68375000D01*
G75*
G02*
X50125000Y-68575000I-200000J0D01*
G01*
X49725000Y-68575000D01*
G75*
G02*
X49525000Y-68375000I0J200000D01*
G01*
G37*
G36*
G01*
X47875000Y-68375000D02*
X47875000Y-67825000D01*
G75*
G02*
X48075000Y-67625000I200000J0D01*
G01*
X48475000Y-67625000D01*
G75*
G02*
X48675000Y-67825000I0J-200000D01*
G01*
X48675000Y-68375000D01*
G75*
G02*
X48475000Y-68575000I-200000J0D01*
G01*
X48075000Y-68575000D01*
G75*
G02*
X47875000Y-68375000I0J200000D01*
G01*
G37*
D21*
X49450000Y-59280000D03*
X42150000Y-59280000D03*
X42150000Y-57070000D03*
X49450000Y-57070000D03*
D22*
X43550000Y-59930000D03*
X45050000Y-59930000D03*
X48050000Y-59930000D03*
D23*
X44300000Y-58170000D03*
X47300000Y-58170000D03*
D12*
X82500000Y-92450000D03*
D13*
X87500000Y-96250000D03*
D14*
X93000000Y-96250000D03*
X82000000Y-96250000D03*
D12*
X87500000Y-90350000D03*
D24*
X36100000Y-60600000D03*
X39500000Y-60600000D03*
G36*
G01*
X52325000Y-74425000D02*
X52875000Y-74425000D01*
G75*
G02*
X53075000Y-74625000I0J-200000D01*
G01*
X53075000Y-75025000D01*
G75*
G02*
X52875000Y-75225000I-200000J0D01*
G01*
X52325000Y-75225000D01*
G75*
G02*
X52125000Y-75025000I0J200000D01*
G01*
X52125000Y-74625000D01*
G75*
G02*
X52325000Y-74425000I200000J0D01*
G01*
G37*
G36*
G01*
X52325000Y-72775000D02*
X52875000Y-72775000D01*
G75*
G02*
X53075000Y-72975000I0J-200000D01*
G01*
X53075000Y-73375000D01*
G75*
G02*
X52875000Y-73575000I-200000J0D01*
G01*
X52325000Y-73575000D01*
G75*
G02*
X52125000Y-73375000I0J200000D01*
G01*
X52125000Y-72975000D01*
G75*
G02*
X52325000Y-72775000I200000J0D01*
G01*
G37*
D12*
X49500000Y-117450000D03*
D13*
X54500000Y-121250000D03*
D14*
X60000000Y-121250000D03*
X49000000Y-121250000D03*
D12*
X54500000Y-115350000D03*
G36*
G01*
X54475000Y-73575000D02*
X53925000Y-73575000D01*
G75*
G02*
X53725000Y-73375000I0J200000D01*
G01*
X53725000Y-72975000D01*
G75*
G02*
X53925000Y-72775000I200000J0D01*
G01*
X54475000Y-72775000D01*
G75*
G02*
X54675000Y-72975000I0J-200000D01*
G01*
X54675000Y-73375000D01*
G75*
G02*
X54475000Y-73575000I-200000J0D01*
G01*
G37*
G36*
G01*
X54475000Y-75225000D02*
X53925000Y-75225000D01*
G75*
G02*
X53725000Y-75025000I0J200000D01*
G01*
X53725000Y-74625000D01*
G75*
G02*
X53925000Y-74425000I200000J0D01*
G01*
X54475000Y-74425000D01*
G75*
G02*
X54675000Y-74625000I0J-200000D01*
G01*
X54675000Y-75025000D01*
G75*
G02*
X54475000Y-75225000I-200000J0D01*
G01*
G37*
X100500000Y-97450000D03*
D13*
X105500000Y-101250000D03*
D14*
X111000000Y-101250000D03*
X100000000Y-101250000D03*
D12*
X105500000Y-95350000D03*
G36*
G01*
X46375000Y-78225000D02*
X46375000Y-78775000D01*
G75*
G02*
X46175000Y-78975000I-200000J0D01*
G01*
X45775000Y-78975000D01*
G75*
G02*
X45575000Y-78775000I0J200000D01*
G01*
X45575000Y-78225000D01*
G75*
G02*
X45775000Y-78025000I200000J0D01*
G01*
X46175000Y-78025000D01*
G75*
G02*
X46375000Y-78225000I0J-200000D01*
G01*
G37*
G36*
G01*
X48025000Y-78225000D02*
X48025000Y-78775000D01*
G75*
G02*
X47825000Y-78975000I-200000J0D01*
G01*
X47425000Y-78975000D01*
G75*
G02*
X47225000Y-78775000I0J200000D01*
G01*
X47225000Y-78225000D01*
G75*
G02*
X47425000Y-78025000I200000J0D01*
G01*
X47825000Y-78025000D01*
G75*
G02*
X48025000Y-78225000I0J-200000D01*
G01*
G37*
X82500000Y-58950000D03*
D13*
X87500000Y-62750000D03*
D14*
X93000000Y-62750000D03*
X82000000Y-62750000D03*
D12*
X87500000Y-56850000D03*
X118500000Y-100450000D03*
D13*
X123500000Y-104250000D03*
D14*
X129000000Y-104250000D03*
X118000000Y-104250000D03*
D12*
X123500000Y-98350000D03*
D10*
X58700000Y-70180000D03*
X58700000Y-72720000D03*
X58700000Y-75260000D03*
D11*
X58700000Y-77800000D03*
D25*
X132125000Y-88250000D03*
X133875000Y-88250000D03*
X132125000Y-84750000D03*
X133875000Y-84750000D03*
D12*
X28500000Y-83950000D03*
D13*
X33500000Y-87750000D03*
D14*
X39000000Y-87750000D03*
X28000000Y-87750000D03*
D12*
X33500000Y-81850000D03*
X64500000Y-63950000D03*
D13*
X69500000Y-67750000D03*
D14*
X75000000Y-67750000D03*
X64000000Y-67750000D03*
D12*
X69500000Y-61850000D03*
X118500000Y-66950000D03*
D13*
X123500000Y-70750000D03*
D14*
X129000000Y-70750000D03*
X118000000Y-70750000D03*
D12*
X123500000Y-64850000D03*
X118500000Y-83700000D03*
D13*
X123500000Y-87500000D03*
D14*
X129000000Y-87500000D03*
X118000000Y-87500000D03*
D12*
X123500000Y-81600000D03*
G36*
G01*
X131525000Y-67225000D02*
X132075000Y-67225000D01*
G75*
G02*
X132275000Y-67425000I0J-200000D01*
G01*
X132275000Y-67825000D01*
G75*
G02*
X132075000Y-68025000I-200000J0D01*
G01*
X131525000Y-68025000D01*
G75*
G02*
X131325000Y-67825000I0J200000D01*
G01*
X131325000Y-67425000D01*
G75*
G02*
X131525000Y-67225000I200000J0D01*
G01*
G37*
G36*
G01*
X131525000Y-65575000D02*
X132075000Y-65575000D01*
G75*
G02*
X132275000Y-65775000I0J-200000D01*
G01*
X132275000Y-66175000D01*
G75*
G02*
X132075000Y-66375000I-200000J0D01*
G01*
X131525000Y-66375000D01*
G75*
G02*
X131325000Y-66175000I0J200000D01*
G01*
X131325000Y-65775000D01*
G75*
G02*
X131525000Y-65575000I200000J0D01*
G01*
G37*
G36*
G01*
X134425000Y-71325000D02*
X133175000Y-71325000D01*
G75*
G02*
X132925000Y-71075000I0J250000D01*
G01*
X132925000Y-70325000D01*
G75*
G02*
X133175000Y-70075000I250000J0D01*
G01*
X134425000Y-70075000D01*
G75*
G02*
X134675000Y-70325000I0J-250000D01*
G01*
X134675000Y-71075000D01*
G75*
G02*
X134425000Y-71325000I-250000J0D01*
G01*
G37*
G36*
G01*
X134425000Y-74125000D02*
X133175000Y-74125000D01*
G75*
G02*
X132925000Y-73875000I0J250000D01*
G01*
X132925000Y-73125000D01*
G75*
G02*
X133175000Y-72875000I250000J0D01*
G01*
X134425000Y-72875000D01*
G75*
G02*
X134675000Y-73125000I0J-250000D01*
G01*
X134675000Y-73875000D01*
G75*
G02*
X134425000Y-74125000I-250000J0D01*
G01*
G37*
G36*
G01*
X56175000Y-73975000D02*
X55625000Y-73975000D01*
G75*
G02*
X55425000Y-73775000I0J200000D01*
G01*
X55425000Y-73375000D01*
G75*
G02*
X55625000Y-73175000I200000J0D01*
G01*
X56175000Y-73175000D01*
G75*
G02*
X56375000Y-73375000I0J-200000D01*
G01*
X56375000Y-73775000D01*
G75*
G02*
X56175000Y-73975000I-200000J0D01*
G01*
G37*
G36*
G01*
X56175000Y-75625000D02*
X55625000Y-75625000D01*
G75*
G02*
X55425000Y-75425000I0J200000D01*
G01*
X55425000Y-75025000D01*
G75*
G02*
X55625000Y-74825000I200000J0D01*
G01*
X56175000Y-74825000D01*
G75*
G02*
X56375000Y-75025000I0J-200000D01*
G01*
X56375000Y-75425000D01*
G75*
G02*
X56175000Y-75625000I-200000J0D01*
G01*
G37*
D23*
X47300000Y-58170000D03*
X44300000Y-58170000D03*
D12*
X46500000Y-83950000D03*
D13*
X51500000Y-87750000D03*
D14*
X57000000Y-87750000D03*
X46000000Y-87750000D03*
D12*
X51500000Y-81850000D03*
D15*
X48300000Y-74200000D03*
X50300000Y-73250000D03*
X50300000Y-75150000D03*
D26*
X53990000Y-71550000D03*
X53990000Y-69650000D03*
X56610000Y-69650000D03*
X56610000Y-70600000D03*
X56610000Y-71550000D03*
D12*
X100500000Y-80700000D03*
D13*
X105500000Y-84500000D03*
D14*
X111000000Y-84500000D03*
X100000000Y-84500000D03*
D12*
X105500000Y-78600000D03*
D27*
X128600000Y-57250000D03*
X132400000Y-57250000D03*
X128600000Y-61750000D03*
X132400000Y-61750000D03*
X128600000Y-77250000D03*
X132400000Y-77250000D03*
X128600000Y-91750000D03*
X132400000Y-91750000D03*
X128600000Y-96250000D03*
X132400000Y-96250000D03*
X132400000Y-108000000D03*
X128600000Y-108000000D03*
D28*
X53350000Y-63445000D03*
X54150000Y-63445000D03*
X59050000Y-63445000D03*
X59850000Y-63445000D03*
X59850000Y-63445000D03*
X59050000Y-63445000D03*
X54150000Y-63445000D03*
X53350000Y-63445000D03*
D29*
X58350000Y-63445000D03*
X57850000Y-63445000D03*
X57350000Y-63445000D03*
X56350000Y-63445000D03*
X55850000Y-63445000D03*
X55350000Y-63445000D03*
X54850000Y-63445000D03*
X56850000Y-63445000D03*
D30*
X52280000Y-62530000D03*
X60920000Y-62530000D03*
D31*
X59490000Y-62000000D03*
D32*
X60920000Y-58350000D03*
D31*
X53710000Y-62000000D03*
D32*
X52280000Y-58350000D03*
G36*
G01*
X51075000Y-65775000D02*
X51075000Y-65225000D01*
G75*
G02*
X51275000Y-65025000I200000J0D01*
G01*
X51675000Y-65025000D01*
G75*
G02*
X51875000Y-65225000I0J-200000D01*
G01*
X51875000Y-65775000D01*
G75*
G02*
X51675000Y-65975000I-200000J0D01*
G01*
X51275000Y-65975000D01*
G75*
G02*
X51075000Y-65775000I0J200000D01*
G01*
G37*
G36*
G01*
X52725000Y-65775000D02*
X52725000Y-65225000D01*
G75*
G02*
X52925000Y-65025000I200000J0D01*
G01*
X53325000Y-65025000D01*
G75*
G02*
X53525000Y-65225000I0J-200000D01*
G01*
X53525000Y-65775000D01*
G75*
G02*
X53325000Y-65975000I-200000J0D01*
G01*
X52925000Y-65975000D01*
G75*
G02*
X52725000Y-65775000I0J200000D01*
G01*
G37*
D15*
X52300000Y-70700000D03*
X50300000Y-71650000D03*
X50300000Y-69750000D03*
D12*
X46500000Y-100700000D03*
D13*
X51500000Y-104500000D03*
D14*
X57000000Y-104500000D03*
X46000000Y-104500000D03*
D12*
X51500000Y-98600000D03*
G36*
G01*
X58675000Y-65525000D02*
X58675000Y-66075000D01*
G75*
G02*
X58475000Y-66275000I-200000J0D01*
G01*
X58075000Y-66275000D01*
G75*
G02*
X57875000Y-66075000I0J200000D01*
G01*
X57875000Y-65525000D01*
G75*
G02*
X58075000Y-65325000I200000J0D01*
G01*
X58475000Y-65325000D01*
G75*
G02*
X58675000Y-65525000I0J-200000D01*
G01*
G37*
G36*
G01*
X60325000Y-65525000D02*
X60325000Y-66075000D01*
G75*
G02*
X60125000Y-66275000I-200000J0D01*
G01*
X59725000Y-66275000D01*
G75*
G02*
X59525000Y-66075000I0J200000D01*
G01*
X59525000Y-65525000D01*
G75*
G02*
X59725000Y-65325000I200000J0D01*
G01*
X60125000Y-65325000D01*
G75*
G02*
X60325000Y-65525000I0J-200000D01*
G01*
G37*
G36*
G01*
X133175000Y-68275000D02*
X134425000Y-68275000D01*
G75*
G02*
X134675000Y-68525000I0J-250000D01*
G01*
X134675000Y-69275000D01*
G75*
G02*
X134425000Y-69525000I-250000J0D01*
G01*
X133175000Y-69525000D01*
G75*
G02*
X132925000Y-69275000I0J250000D01*
G01*
X132925000Y-68525000D01*
G75*
G02*
X133175000Y-68275000I250000J0D01*
G01*
G37*
G36*
G01*
X133175000Y-65475000D02*
X134425000Y-65475000D01*
G75*
G02*
X134675000Y-65725000I0J-250000D01*
G01*
X134675000Y-66475000D01*
G75*
G02*
X134425000Y-66725000I-250000J0D01*
G01*
X133175000Y-66725000D01*
G75*
G02*
X132925000Y-66475000I0J250000D01*
G01*
X132925000Y-65725000D01*
G75*
G02*
X133175000Y-65475000I250000J0D01*
G01*
G37*
D10*
X60400000Y-76220000D03*
X60400000Y-73680000D03*
X60400000Y-71140000D03*
D11*
X60400000Y-68600000D03*
M02*
