G04 #@! TF.GenerationSoftware,KiCad,Pcbnew,5.1.6*
G04 #@! TF.CreationDate,2020-08-24T19:04:15-05:00*
G04 #@! TF.ProjectId,fissure,66697373-7572-4652-9e6b-696361645f70,rev?*
G04 #@! TF.SameCoordinates,Original*
G04 #@! TF.FileFunction,Legend,Top*
G04 #@! TF.FilePolarity,Positive*
%FSLAX46Y46*%
G04 Gerber Fmt 4.6, Leading zero omitted, Abs format (unit mm)*
G04 Created by KiCad (PCBNEW 5.1.6) date 2020-08-24 19:04:15*
%MOMM*%
%LPD*%
G01*
G04 APERTURE LIST*
%ADD10C,0.150000*%
%ADD11C,0.381000*%
%ADD12C,0.120000*%
G04 APERTURE END LIST*
D10*
X147119047Y-100047619D02*
X147119047Y-99333333D01*
X147166666Y-99190476D01*
X147261904Y-99095238D01*
X147404761Y-99047619D01*
X147500000Y-99047619D01*
X146166666Y-99047619D02*
X146642857Y-99047619D01*
X146642857Y-100047619D01*
X145261904Y-99142857D02*
X145309523Y-99095238D01*
X145452380Y-99047619D01*
X145547619Y-99047619D01*
X145690476Y-99095238D01*
X145785714Y-99190476D01*
X145833333Y-99285714D01*
X145880952Y-99476190D01*
X145880952Y-99619047D01*
X145833333Y-99809523D01*
X145785714Y-99904761D01*
X145690476Y-100000000D01*
X145547619Y-100047619D01*
X145452380Y-100047619D01*
X145309523Y-100000000D01*
X145261904Y-99952380D01*
X144547619Y-100047619D02*
X144547619Y-99333333D01*
X144595238Y-99190476D01*
X144690476Y-99095238D01*
X144833333Y-99047619D01*
X144928571Y-99047619D01*
X143595238Y-99047619D02*
X144071428Y-99047619D01*
X144071428Y-100047619D01*
X142690476Y-99142857D02*
X142738095Y-99095238D01*
X142880952Y-99047619D01*
X142976190Y-99047619D01*
X143119047Y-99095238D01*
X143214285Y-99190476D01*
X143261904Y-99285714D01*
X143309523Y-99476190D01*
X143309523Y-99619047D01*
X143261904Y-99809523D01*
X143214285Y-99904761D01*
X143119047Y-100000000D01*
X142976190Y-100047619D01*
X142880952Y-100047619D01*
X142738095Y-100000000D01*
X142690476Y-99952380D01*
X141976190Y-100047619D02*
X141976190Y-99333333D01*
X142023809Y-99190476D01*
X142119047Y-99095238D01*
X142261904Y-99047619D01*
X142357142Y-99047619D01*
X141023809Y-99047619D02*
X141500000Y-99047619D01*
X141500000Y-100047619D01*
X140119047Y-99142857D02*
X140166666Y-99095238D01*
X140309523Y-99047619D01*
X140404761Y-99047619D01*
X140547619Y-99095238D01*
X140642857Y-99190476D01*
X140690476Y-99285714D01*
X140738095Y-99476190D01*
X140738095Y-99619047D01*
X140690476Y-99809523D01*
X140642857Y-99904761D01*
X140547619Y-100000000D01*
X140404761Y-100047619D01*
X140309523Y-100047619D01*
X140166666Y-100000000D01*
X140119047Y-99952380D01*
X139404761Y-100047619D02*
X139404761Y-99333333D01*
X139452380Y-99190476D01*
X139547619Y-99095238D01*
X139690476Y-99047619D01*
X139785714Y-99047619D01*
X138452380Y-99047619D02*
X138928571Y-99047619D01*
X138928571Y-100047619D01*
X137547619Y-99142857D02*
X137595238Y-99095238D01*
X137738095Y-99047619D01*
X137833333Y-99047619D01*
X137976190Y-99095238D01*
X138071428Y-99190476D01*
X138119047Y-99285714D01*
X138166666Y-99476190D01*
X138166666Y-99619047D01*
X138119047Y-99809523D01*
X138071428Y-99904761D01*
X137976190Y-100000000D01*
X137833333Y-100047619D01*
X137738095Y-100047619D01*
X137595238Y-100000000D01*
X137547619Y-99952380D01*
D11*
X42110000Y-47760000D02*
X42110000Y-78240000D01*
X42110000Y-78240000D02*
X59890000Y-78240000D01*
X59890000Y-78240000D02*
X59890000Y-47760000D01*
X44650000Y-47760000D02*
X44650000Y-50300000D01*
X44650000Y-50300000D02*
X42110000Y-50300000D01*
D10*
G36*
X55931568Y-53639360D02*
G01*
X55931568Y-53939360D01*
X55831568Y-53939360D01*
X55831568Y-53639360D01*
X55931568Y-53639360D01*
G37*
X55931568Y-53639360D02*
X55931568Y-53939360D01*
X55831568Y-53939360D01*
X55831568Y-53639360D01*
X55931568Y-53639360D01*
G36*
X55731568Y-54039360D02*
G01*
X55731568Y-54139360D01*
X55631568Y-54139360D01*
X55631568Y-54039360D01*
X55731568Y-54039360D01*
G37*
X55731568Y-54039360D02*
X55731568Y-54139360D01*
X55631568Y-54139360D01*
X55631568Y-54039360D01*
X55731568Y-54039360D01*
G36*
X55931568Y-53639360D02*
G01*
X55931568Y-53739360D01*
X55431568Y-53739360D01*
X55431568Y-53639360D01*
X55931568Y-53639360D01*
G37*
X55931568Y-53639360D02*
X55931568Y-53739360D01*
X55431568Y-53739360D01*
X55431568Y-53639360D01*
X55931568Y-53639360D01*
G36*
X55531568Y-53639360D02*
G01*
X55531568Y-54439360D01*
X55431568Y-54439360D01*
X55431568Y-53639360D01*
X55531568Y-53639360D01*
G37*
X55531568Y-53639360D02*
X55531568Y-54439360D01*
X55431568Y-54439360D01*
X55431568Y-53639360D01*
X55531568Y-53639360D01*
G36*
X55931568Y-54239360D02*
G01*
X55931568Y-54439360D01*
X55831568Y-54439360D01*
X55831568Y-54239360D01*
X55931568Y-54239360D01*
G37*
X55931568Y-54239360D02*
X55931568Y-54439360D01*
X55831568Y-54439360D01*
X55831568Y-54239360D01*
X55931568Y-54239360D01*
D11*
X59890000Y-47760000D02*
X59890000Y-45220000D01*
X59890000Y-45220000D02*
X42110000Y-45220000D01*
X42110000Y-45220000D02*
X42110000Y-47760000D01*
X44650000Y-47760000D02*
X42110000Y-47760000D01*
D12*
X84460000Y-53460000D02*
X84130000Y-53460000D01*
X84130000Y-53460000D02*
X84130000Y-46920000D01*
X84130000Y-46920000D02*
X84460000Y-46920000D01*
X86540000Y-53460000D02*
X86870000Y-53460000D01*
X86870000Y-53460000D02*
X86870000Y-46920000D01*
X86870000Y-46920000D02*
X86540000Y-46920000D01*
X48250000Y-72535000D02*
X46600000Y-72535000D01*
X48250000Y-72275000D02*
X48250000Y-72535000D01*
X51000000Y-72275000D02*
X48250000Y-72275000D01*
X53750000Y-72275000D02*
X53750000Y-72535000D01*
X51000000Y-72275000D02*
X53750000Y-72275000D01*
X48250000Y-77725000D02*
X48250000Y-77465000D01*
X51000000Y-77725000D02*
X48250000Y-77725000D01*
X53750000Y-77725000D02*
X53750000Y-77465000D01*
X51000000Y-77725000D02*
X53750000Y-77725000D01*
X97070000Y-47370000D02*
X98400000Y-47370000D01*
X97070000Y-49970000D02*
X97070000Y-57650000D01*
X97070000Y-57650000D02*
X99730000Y-57650000D01*
X99730000Y-49970000D02*
X99730000Y-57650000D01*
X97070000Y-49970000D02*
X99730000Y-49970000D01*
X97070000Y-48700000D02*
X97070000Y-47370000D01*
X97000000Y-58500000D02*
X97000000Y-46500000D01*
X97000000Y-46500000D02*
X135000000Y-46500000D01*
X135000000Y-46500000D02*
X135000000Y-58500000D01*
X135000000Y-58500000D02*
X97000000Y-58500000D01*
X31250000Y-91000000D02*
X31250000Y-93000000D01*
X31250000Y-93000000D02*
X35150000Y-93000000D01*
X31250000Y-91000000D02*
X35150000Y-91000000D01*
X31250000Y-108000000D02*
X31250000Y-110000000D01*
X31250000Y-110000000D02*
X35150000Y-110000000D01*
X31250000Y-108000000D02*
X35150000Y-108000000D01*
X131050000Y-74950000D02*
X131050000Y-69050000D01*
X134950000Y-74950000D02*
X134950000Y-69050000D01*
X134950000Y-69050000D02*
X133875000Y-69050000D01*
X64000000Y-54500000D02*
X68500000Y-54500000D01*
X62750000Y-50500000D02*
X62750000Y-52000000D01*
X68500000Y-48000000D02*
X64000000Y-48000000D01*
X69750000Y-52000000D02*
X69750000Y-50500000D01*
X140000000Y-133750000D02*
X142000000Y-133750000D01*
X142000000Y-133750000D02*
X142000000Y-129850000D01*
X140000000Y-133750000D02*
X140000000Y-129850000D01*
X123000000Y-128750000D02*
X125000000Y-128750000D01*
X125000000Y-128750000D02*
X125000000Y-124850000D01*
X123000000Y-128750000D02*
X123000000Y-124850000D01*
X106000000Y-126750000D02*
X108000000Y-126750000D01*
X108000000Y-126750000D02*
X108000000Y-122850000D01*
X106000000Y-126750000D02*
X106000000Y-122850000D01*
X52250000Y-125000000D02*
X52250000Y-127000000D01*
X52250000Y-127000000D02*
X56150000Y-127000000D01*
X52250000Y-125000000D02*
X56150000Y-125000000D01*
X121250000Y-108500000D02*
X121250000Y-110500000D01*
X121250000Y-110500000D02*
X125150000Y-110500000D01*
X121250000Y-108500000D02*
X125150000Y-108500000D01*
X103250000Y-105000000D02*
X103250000Y-107000000D01*
X103250000Y-107000000D02*
X107150000Y-107000000D01*
X103250000Y-105000000D02*
X107150000Y-105000000D01*
X85250000Y-100000000D02*
X85250000Y-102000000D01*
X85250000Y-102000000D02*
X89150000Y-102000000D01*
X85250000Y-100000000D02*
X89150000Y-100000000D01*
X67250000Y-105000000D02*
X67250000Y-107000000D01*
X67250000Y-107000000D02*
X71150000Y-107000000D01*
X67250000Y-105000000D02*
X71150000Y-105000000D01*
X49250000Y-108000000D02*
X49250000Y-110000000D01*
X49250000Y-110000000D02*
X53150000Y-110000000D01*
X49250000Y-108000000D02*
X53150000Y-108000000D01*
X121250000Y-91500000D02*
X121250000Y-93500000D01*
X121250000Y-93500000D02*
X125150000Y-93500000D01*
X121250000Y-91500000D02*
X125150000Y-91500000D01*
X103250000Y-88000000D02*
X103250000Y-90000000D01*
X103250000Y-90000000D02*
X107150000Y-90000000D01*
X103250000Y-88000000D02*
X107150000Y-88000000D01*
X85250000Y-83000000D02*
X85250000Y-85000000D01*
X85250000Y-85000000D02*
X89150000Y-85000000D01*
X85250000Y-83000000D02*
X89150000Y-83000000D01*
X67250000Y-88000000D02*
X67250000Y-90000000D01*
X67250000Y-90000000D02*
X71150000Y-90000000D01*
X67250000Y-88000000D02*
X71150000Y-88000000D01*
X49250000Y-91000000D02*
X49250000Y-93000000D01*
X49250000Y-93000000D02*
X53150000Y-93000000D01*
X49250000Y-91000000D02*
X53150000Y-91000000D01*
X121250000Y-74500000D02*
X121250000Y-76500000D01*
X121250000Y-76500000D02*
X125150000Y-76500000D01*
X121250000Y-74500000D02*
X125150000Y-74500000D01*
X103250000Y-71000000D02*
X103250000Y-73000000D01*
X103250000Y-73000000D02*
X107150000Y-73000000D01*
X103250000Y-71000000D02*
X107150000Y-71000000D01*
X85250000Y-66000000D02*
X85250000Y-68000000D01*
X85250000Y-68000000D02*
X89150000Y-68000000D01*
X85250000Y-66000000D02*
X89150000Y-66000000D01*
X67250000Y-71000000D02*
X67250000Y-73000000D01*
X67250000Y-73000000D02*
X71150000Y-73000000D01*
X67250000Y-71000000D02*
X71150000Y-71000000D01*
D10*
X135000000Y-55800000D02*
X135000000Y-50200000D01*
X133000000Y-50200000D02*
X135000000Y-50200000D01*
X133000000Y-55800000D02*
X135000000Y-55800000D01*
X133000000Y-49950000D02*
X120900000Y-49950000D01*
X133000000Y-56050000D02*
X120900000Y-56050000D01*
X120900000Y-56050000D02*
X120900000Y-49950000D01*
X133000000Y-56050000D02*
X133000000Y-49950000D01*
D12*
X81460000Y-53460000D02*
X81130000Y-53460000D01*
X81130000Y-53460000D02*
X81130000Y-46920000D01*
X81130000Y-46920000D02*
X81460000Y-46920000D01*
X83540000Y-53460000D02*
X83870000Y-53460000D01*
X83870000Y-53460000D02*
X83870000Y-46920000D01*
X83870000Y-46920000D02*
X83540000Y-46920000D01*
D10*
X45237651Y-48591904D02*
X45694794Y-48591904D01*
X45466223Y-49391904D02*
X45466223Y-48591904D01*
X45885270Y-48591904D02*
X46418604Y-49391904D01*
X46418604Y-48591904D02*
X45885270Y-49391904D01*
X46875747Y-48591904D02*
X46951937Y-48591904D01*
X47028128Y-48630000D01*
X47066223Y-48668095D01*
X47104318Y-48744285D01*
X47142413Y-48896666D01*
X47142413Y-49087142D01*
X47104318Y-49239523D01*
X47066223Y-49315714D01*
X47028128Y-49353809D01*
X46951937Y-49391904D01*
X46875747Y-49391904D01*
X46799556Y-49353809D01*
X46761461Y-49315714D01*
X46723366Y-49239523D01*
X46685270Y-49087142D01*
X46685270Y-48896666D01*
X46723366Y-48744285D01*
X46761461Y-48668095D01*
X46799556Y-48630000D01*
X46875747Y-48591904D01*
X48056699Y-48553809D02*
X47370985Y-49582380D01*
X48323366Y-49391904D02*
X48323366Y-48591904D01*
X48513842Y-48591904D01*
X48628128Y-48630000D01*
X48704318Y-48706190D01*
X48742413Y-48782380D01*
X48780508Y-48934761D01*
X48780508Y-49049047D01*
X48742413Y-49201428D01*
X48704318Y-49277619D01*
X48628128Y-49353809D01*
X48513842Y-49391904D01*
X48323366Y-49391904D01*
X49047175Y-48591904D02*
X49542413Y-48591904D01*
X49275747Y-48896666D01*
X49390032Y-48896666D01*
X49466223Y-48934761D01*
X49504318Y-48972857D01*
X49542413Y-49049047D01*
X49542413Y-49239523D01*
X49504318Y-49315714D01*
X49466223Y-49353809D01*
X49390032Y-49391904D01*
X49161461Y-49391904D01*
X49085270Y-49353809D01*
X49047175Y-49315714D01*
X44948523Y-51931904D02*
X44948523Y-51131904D01*
X45139000Y-51131904D01*
X45253285Y-51170000D01*
X45329476Y-51246190D01*
X45367571Y-51322380D01*
X45405666Y-51474761D01*
X45405666Y-51589047D01*
X45367571Y-51741428D01*
X45329476Y-51817619D01*
X45253285Y-51893809D01*
X45139000Y-51931904D01*
X44948523Y-51931904D01*
X45710428Y-51208095D02*
X45748523Y-51170000D01*
X45824714Y-51131904D01*
X46015190Y-51131904D01*
X46091380Y-51170000D01*
X46129476Y-51208095D01*
X46167571Y-51284285D01*
X46167571Y-51360476D01*
X46129476Y-51474761D01*
X45672333Y-51931904D01*
X46167571Y-51931904D01*
X44948523Y-62091904D02*
X44948523Y-61291904D01*
X45139000Y-61291904D01*
X45253285Y-61330000D01*
X45329476Y-61406190D01*
X45367571Y-61482380D01*
X45405666Y-61634761D01*
X45405666Y-61749047D01*
X45367571Y-61901428D01*
X45329476Y-61977619D01*
X45253285Y-62053809D01*
X45139000Y-62091904D01*
X44948523Y-62091904D01*
X45900904Y-61291904D02*
X45977095Y-61291904D01*
X46053285Y-61330000D01*
X46091380Y-61368095D01*
X46129476Y-61444285D01*
X46167571Y-61596666D01*
X46167571Y-61787142D01*
X46129476Y-61939523D01*
X46091380Y-62015714D01*
X46053285Y-62053809D01*
X45977095Y-62091904D01*
X45900904Y-62091904D01*
X45824714Y-62053809D01*
X45786619Y-62015714D01*
X45748523Y-61939523D01*
X45710428Y-61787142D01*
X45710428Y-61596666D01*
X45748523Y-61444285D01*
X45786619Y-61368095D01*
X45824714Y-61330000D01*
X45900904Y-61291904D01*
X44948523Y-59551904D02*
X44948523Y-58751904D01*
X45139000Y-58751904D01*
X45253285Y-58790000D01*
X45329476Y-58866190D01*
X45367571Y-58942380D01*
X45405666Y-59094761D01*
X45405666Y-59209047D01*
X45367571Y-59361428D01*
X45329476Y-59437619D01*
X45253285Y-59513809D01*
X45139000Y-59551904D01*
X44948523Y-59551904D01*
X46167571Y-59551904D02*
X45710428Y-59551904D01*
X45939000Y-59551904D02*
X45939000Y-58751904D01*
X45862809Y-58866190D01*
X45786619Y-58942380D01*
X45710428Y-58980476D01*
X44929476Y-56250000D02*
X44853285Y-56211904D01*
X44739000Y-56211904D01*
X44624714Y-56250000D01*
X44548523Y-56326190D01*
X44510428Y-56402380D01*
X44472333Y-56554761D01*
X44472333Y-56669047D01*
X44510428Y-56821428D01*
X44548523Y-56897619D01*
X44624714Y-56973809D01*
X44739000Y-57011904D01*
X44815190Y-57011904D01*
X44929476Y-56973809D01*
X44967571Y-56935714D01*
X44967571Y-56669047D01*
X44815190Y-56669047D01*
X45310428Y-57011904D02*
X45310428Y-56211904D01*
X45767571Y-57011904D01*
X45767571Y-56211904D01*
X46148523Y-57011904D02*
X46148523Y-56211904D01*
X46339000Y-56211904D01*
X46453285Y-56250000D01*
X46529476Y-56326190D01*
X46567571Y-56402380D01*
X46605666Y-56554761D01*
X46605666Y-56669047D01*
X46567571Y-56821428D01*
X46529476Y-56897619D01*
X46453285Y-56973809D01*
X46339000Y-57011904D01*
X46148523Y-57011904D01*
X44929476Y-53710000D02*
X44853285Y-53671904D01*
X44739000Y-53671904D01*
X44624714Y-53710000D01*
X44548523Y-53786190D01*
X44510428Y-53862380D01*
X44472333Y-54014761D01*
X44472333Y-54129047D01*
X44510428Y-54281428D01*
X44548523Y-54357619D01*
X44624714Y-54433809D01*
X44739000Y-54471904D01*
X44815190Y-54471904D01*
X44929476Y-54433809D01*
X44967571Y-54395714D01*
X44967571Y-54129047D01*
X44815190Y-54129047D01*
X45310428Y-54471904D02*
X45310428Y-53671904D01*
X45767571Y-54471904D01*
X45767571Y-53671904D01*
X46148523Y-54471904D02*
X46148523Y-53671904D01*
X46339000Y-53671904D01*
X46453285Y-53710000D01*
X46529476Y-53786190D01*
X46567571Y-53862380D01*
X46605666Y-54014761D01*
X46605666Y-54129047D01*
X46567571Y-54281428D01*
X46529476Y-54357619D01*
X46453285Y-54433809D01*
X46339000Y-54471904D01*
X46148523Y-54471904D01*
X44948523Y-64631904D02*
X44948523Y-63831904D01*
X45139000Y-63831904D01*
X45253285Y-63870000D01*
X45329476Y-63946190D01*
X45367571Y-64022380D01*
X45405666Y-64174761D01*
X45405666Y-64289047D01*
X45367571Y-64441428D01*
X45329476Y-64517619D01*
X45253285Y-64593809D01*
X45139000Y-64631904D01*
X44948523Y-64631904D01*
X46091380Y-64098571D02*
X46091380Y-64631904D01*
X45900904Y-63793809D02*
X45710428Y-64365238D01*
X46205666Y-64365238D01*
X45405666Y-67095714D02*
X45367571Y-67133809D01*
X45253285Y-67171904D01*
X45177095Y-67171904D01*
X45062809Y-67133809D01*
X44986619Y-67057619D01*
X44948523Y-66981428D01*
X44910428Y-66829047D01*
X44910428Y-66714761D01*
X44948523Y-66562380D01*
X44986619Y-66486190D01*
X45062809Y-66410000D01*
X45177095Y-66371904D01*
X45253285Y-66371904D01*
X45367571Y-66410000D01*
X45405666Y-66448095D01*
X46091380Y-66371904D02*
X45939000Y-66371904D01*
X45862809Y-66410000D01*
X45824714Y-66448095D01*
X45748523Y-66562380D01*
X45710428Y-66714761D01*
X45710428Y-67019523D01*
X45748523Y-67095714D01*
X45786619Y-67133809D01*
X45862809Y-67171904D01*
X46015190Y-67171904D01*
X46091380Y-67133809D01*
X46129476Y-67095714D01*
X46167571Y-67019523D01*
X46167571Y-66829047D01*
X46129476Y-66752857D01*
X46091380Y-66714761D01*
X46015190Y-66676666D01*
X45862809Y-66676666D01*
X45786619Y-66714761D01*
X45748523Y-66752857D01*
X45710428Y-66829047D01*
X44948523Y-69711904D02*
X44948523Y-68911904D01*
X45139000Y-68911904D01*
X45253285Y-68950000D01*
X45329476Y-69026190D01*
X45367571Y-69102380D01*
X45405666Y-69254761D01*
X45405666Y-69369047D01*
X45367571Y-69521428D01*
X45329476Y-69597619D01*
X45253285Y-69673809D01*
X45139000Y-69711904D01*
X44948523Y-69711904D01*
X45672333Y-68911904D02*
X46205666Y-68911904D01*
X45862809Y-69711904D01*
X44986619Y-71832857D02*
X45253285Y-71832857D01*
X45367571Y-72251904D02*
X44986619Y-72251904D01*
X44986619Y-71451904D01*
X45367571Y-71451904D01*
X46053285Y-71451904D02*
X45900904Y-71451904D01*
X45824714Y-71490000D01*
X45786619Y-71528095D01*
X45710428Y-71642380D01*
X45672333Y-71794761D01*
X45672333Y-72099523D01*
X45710428Y-72175714D01*
X45748523Y-72213809D01*
X45824714Y-72251904D01*
X45977095Y-72251904D01*
X46053285Y-72213809D01*
X46091380Y-72175714D01*
X46129476Y-72099523D01*
X46129476Y-71909047D01*
X46091380Y-71832857D01*
X46053285Y-71794761D01*
X45977095Y-71756666D01*
X45824714Y-71756666D01*
X45748523Y-71794761D01*
X45710428Y-71832857D01*
X45672333Y-71909047D01*
X45215190Y-74372857D02*
X45329476Y-74410952D01*
X45367571Y-74449047D01*
X45405666Y-74525238D01*
X45405666Y-74639523D01*
X45367571Y-74715714D01*
X45329476Y-74753809D01*
X45253285Y-74791904D01*
X44948523Y-74791904D01*
X44948523Y-73991904D01*
X45215190Y-73991904D01*
X45291380Y-74030000D01*
X45329476Y-74068095D01*
X45367571Y-74144285D01*
X45367571Y-74220476D01*
X45329476Y-74296666D01*
X45291380Y-74334761D01*
X45215190Y-74372857D01*
X44948523Y-74372857D01*
X46091380Y-74258571D02*
X46091380Y-74791904D01*
X45900904Y-73953809D02*
X45710428Y-74525238D01*
X46205666Y-74525238D01*
X45215190Y-76912857D02*
X45329476Y-76950952D01*
X45367571Y-76989047D01*
X45405666Y-77065238D01*
X45405666Y-77179523D01*
X45367571Y-77255714D01*
X45329476Y-77293809D01*
X45253285Y-77331904D01*
X44948523Y-77331904D01*
X44948523Y-76531904D01*
X45215190Y-76531904D01*
X45291380Y-76570000D01*
X45329476Y-76608095D01*
X45367571Y-76684285D01*
X45367571Y-76760476D01*
X45329476Y-76836666D01*
X45291380Y-76874761D01*
X45215190Y-76912857D01*
X44948523Y-76912857D01*
X46129476Y-76531904D02*
X45748523Y-76531904D01*
X45710428Y-76912857D01*
X45748523Y-76874761D01*
X45824714Y-76836666D01*
X46015190Y-76836666D01*
X46091380Y-76874761D01*
X46129476Y-76912857D01*
X46167571Y-76989047D01*
X46167571Y-77179523D01*
X46129476Y-77255714D01*
X46091380Y-77293809D01*
X46015190Y-77331904D01*
X45824714Y-77331904D01*
X45748523Y-77293809D01*
X45710428Y-77255714D01*
X56137190Y-76912857D02*
X56251476Y-76950952D01*
X56289571Y-76989047D01*
X56327666Y-77065238D01*
X56327666Y-77179523D01*
X56289571Y-77255714D01*
X56251476Y-77293809D01*
X56175285Y-77331904D01*
X55870523Y-77331904D01*
X55870523Y-76531904D01*
X56137190Y-76531904D01*
X56213380Y-76570000D01*
X56251476Y-76608095D01*
X56289571Y-76684285D01*
X56289571Y-76760476D01*
X56251476Y-76836666D01*
X56213380Y-76874761D01*
X56137190Y-76912857D01*
X55870523Y-76912857D01*
X57013380Y-76531904D02*
X56861000Y-76531904D01*
X56784809Y-76570000D01*
X56746714Y-76608095D01*
X56670523Y-76722380D01*
X56632428Y-76874761D01*
X56632428Y-77179523D01*
X56670523Y-77255714D01*
X56708619Y-77293809D01*
X56784809Y-77331904D01*
X56937190Y-77331904D01*
X57013380Y-77293809D01*
X57051476Y-77255714D01*
X57089571Y-77179523D01*
X57089571Y-76989047D01*
X57051476Y-76912857D01*
X57013380Y-76874761D01*
X56937190Y-76836666D01*
X56784809Y-76836666D01*
X56708619Y-76874761D01*
X56670523Y-76912857D01*
X56632428Y-76989047D01*
X56137190Y-71832857D02*
X56251476Y-71870952D01*
X56289571Y-71909047D01*
X56327666Y-71985238D01*
X56327666Y-72099523D01*
X56289571Y-72175714D01*
X56251476Y-72213809D01*
X56175285Y-72251904D01*
X55870523Y-72251904D01*
X55870523Y-71451904D01*
X56137190Y-71451904D01*
X56213380Y-71490000D01*
X56251476Y-71528095D01*
X56289571Y-71604285D01*
X56289571Y-71680476D01*
X56251476Y-71756666D01*
X56213380Y-71794761D01*
X56137190Y-71832857D01*
X55870523Y-71832857D01*
X56594333Y-71451904D02*
X57089571Y-71451904D01*
X56822904Y-71756666D01*
X56937190Y-71756666D01*
X57013380Y-71794761D01*
X57051476Y-71832857D01*
X57089571Y-71909047D01*
X57089571Y-72099523D01*
X57051476Y-72175714D01*
X57013380Y-72213809D01*
X56937190Y-72251904D01*
X56708619Y-72251904D01*
X56632428Y-72213809D01*
X56594333Y-72175714D01*
X56137190Y-69292857D02*
X56251476Y-69330952D01*
X56289571Y-69369047D01*
X56327666Y-69445238D01*
X56327666Y-69559523D01*
X56289571Y-69635714D01*
X56251476Y-69673809D01*
X56175285Y-69711904D01*
X55870523Y-69711904D01*
X55870523Y-68911904D01*
X56137190Y-68911904D01*
X56213380Y-68950000D01*
X56251476Y-68988095D01*
X56289571Y-69064285D01*
X56289571Y-69140476D01*
X56251476Y-69216666D01*
X56213380Y-69254761D01*
X56137190Y-69292857D01*
X55870523Y-69292857D01*
X57089571Y-69711904D02*
X56632428Y-69711904D01*
X56861000Y-69711904D02*
X56861000Y-68911904D01*
X56784809Y-69026190D01*
X56708619Y-69102380D01*
X56632428Y-69140476D01*
X56194333Y-59132857D02*
X55927666Y-59132857D01*
X55927666Y-59551904D02*
X55927666Y-58751904D01*
X56308619Y-58751904D01*
X56956238Y-59018571D02*
X56956238Y-59551904D01*
X56765761Y-58713809D02*
X56575285Y-59285238D01*
X57070523Y-59285238D01*
X55394333Y-56211904D02*
X55661000Y-57011904D01*
X55927666Y-56211904D01*
X56651476Y-56935714D02*
X56613380Y-56973809D01*
X56499095Y-57011904D01*
X56422904Y-57011904D01*
X56308619Y-56973809D01*
X56232428Y-56897619D01*
X56194333Y-56821428D01*
X56156238Y-56669047D01*
X56156238Y-56554761D01*
X56194333Y-56402380D01*
X56232428Y-56326190D01*
X56308619Y-56250000D01*
X56422904Y-56211904D01*
X56499095Y-56211904D01*
X56613380Y-56250000D01*
X56651476Y-56288095D01*
X57451476Y-56935714D02*
X57413380Y-56973809D01*
X57299095Y-57011904D01*
X57222904Y-57011904D01*
X57108619Y-56973809D01*
X57032428Y-56897619D01*
X56994333Y-56821428D01*
X56956238Y-56669047D01*
X56956238Y-56554761D01*
X56994333Y-56402380D01*
X57032428Y-56326190D01*
X57108619Y-56250000D01*
X57222904Y-56211904D01*
X57299095Y-56211904D01*
X57413380Y-56250000D01*
X57451476Y-56288095D01*
X56199786Y-54403809D02*
X56314072Y-54441904D01*
X56504548Y-54441904D01*
X56580739Y-54403809D01*
X56618834Y-54365714D01*
X56656929Y-54289523D01*
X56656929Y-54213333D01*
X56618834Y-54137142D01*
X56580739Y-54099047D01*
X56504548Y-54060952D01*
X56352167Y-54022857D01*
X56275977Y-53984761D01*
X56237881Y-53946666D01*
X56199786Y-53870476D01*
X56199786Y-53794285D01*
X56237881Y-53718095D01*
X56275977Y-53680000D01*
X56352167Y-53641904D01*
X56542643Y-53641904D01*
X56656929Y-53680000D01*
X56885500Y-53641904D02*
X57342643Y-53641904D01*
X57114072Y-54441904D02*
X57114072Y-53641904D01*
X55851476Y-51170000D02*
X55775285Y-51131904D01*
X55661000Y-51131904D01*
X55546714Y-51170000D01*
X55470523Y-51246190D01*
X55432428Y-51322380D01*
X55394333Y-51474761D01*
X55394333Y-51589047D01*
X55432428Y-51741428D01*
X55470523Y-51817619D01*
X55546714Y-51893809D01*
X55661000Y-51931904D01*
X55737190Y-51931904D01*
X55851476Y-51893809D01*
X55889571Y-51855714D01*
X55889571Y-51589047D01*
X55737190Y-51589047D01*
X56232428Y-51931904D02*
X56232428Y-51131904D01*
X56689571Y-51931904D01*
X56689571Y-51131904D01*
X57070523Y-51931904D02*
X57070523Y-51131904D01*
X57261000Y-51131904D01*
X57375285Y-51170000D01*
X57451476Y-51246190D01*
X57489571Y-51322380D01*
X57527666Y-51474761D01*
X57527666Y-51589047D01*
X57489571Y-51741428D01*
X57451476Y-51817619D01*
X57375285Y-51893809D01*
X57261000Y-51931904D01*
X57070523Y-51931904D01*
X55908619Y-49391904D02*
X55641952Y-49010952D01*
X55451476Y-49391904D02*
X55451476Y-48591904D01*
X55756238Y-48591904D01*
X55832428Y-48630000D01*
X55870523Y-48668095D01*
X55908619Y-48744285D01*
X55908619Y-48858571D01*
X55870523Y-48934761D01*
X55832428Y-48972857D01*
X55756238Y-49010952D01*
X55451476Y-49010952D01*
X56213380Y-49163333D02*
X56594333Y-49163333D01*
X56137190Y-49391904D02*
X56403857Y-48591904D01*
X56670523Y-49391904D01*
X56861000Y-48591904D02*
X57051476Y-49391904D01*
X57203857Y-48820476D01*
X57356238Y-49391904D01*
X57546714Y-48591904D01*
X56194333Y-61672857D02*
X55927666Y-61672857D01*
X55927666Y-62091904D02*
X55927666Y-61291904D01*
X56308619Y-61291904D01*
X56994333Y-61291904D02*
X56613380Y-61291904D01*
X56575285Y-61672857D01*
X56613380Y-61634761D01*
X56689571Y-61596666D01*
X56880047Y-61596666D01*
X56956238Y-61634761D01*
X56994333Y-61672857D01*
X57032428Y-61749047D01*
X57032428Y-61939523D01*
X56994333Y-62015714D01*
X56956238Y-62053809D01*
X56880047Y-62091904D01*
X56689571Y-62091904D01*
X56613380Y-62053809D01*
X56575285Y-62015714D01*
X56194333Y-64212857D02*
X55927666Y-64212857D01*
X55927666Y-64631904D02*
X55927666Y-63831904D01*
X56308619Y-63831904D01*
X56956238Y-63831904D02*
X56803857Y-63831904D01*
X56727666Y-63870000D01*
X56689571Y-63908095D01*
X56613380Y-64022380D01*
X56575285Y-64174761D01*
X56575285Y-64479523D01*
X56613380Y-64555714D01*
X56651476Y-64593809D01*
X56727666Y-64631904D01*
X56880047Y-64631904D01*
X56956238Y-64593809D01*
X56994333Y-64555714D01*
X57032428Y-64479523D01*
X57032428Y-64289047D01*
X56994333Y-64212857D01*
X56956238Y-64174761D01*
X56880047Y-64136666D01*
X56727666Y-64136666D01*
X56651476Y-64174761D01*
X56613380Y-64212857D01*
X56575285Y-64289047D01*
X56194333Y-66752857D02*
X55927666Y-66752857D01*
X55927666Y-67171904D02*
X55927666Y-66371904D01*
X56308619Y-66371904D01*
X56537190Y-66371904D02*
X57070523Y-66371904D01*
X56727666Y-67171904D01*
X56137190Y-74372857D02*
X56251476Y-74410952D01*
X56289571Y-74449047D01*
X56327666Y-74525238D01*
X56327666Y-74639523D01*
X56289571Y-74715714D01*
X56251476Y-74753809D01*
X56175285Y-74791904D01*
X55870523Y-74791904D01*
X55870523Y-73991904D01*
X56137190Y-73991904D01*
X56213380Y-74030000D01*
X56251476Y-74068095D01*
X56289571Y-74144285D01*
X56289571Y-74220476D01*
X56251476Y-74296666D01*
X56213380Y-74334761D01*
X56137190Y-74372857D01*
X55870523Y-74372857D01*
X56632428Y-74068095D02*
X56670523Y-74030000D01*
X56746714Y-73991904D01*
X56937190Y-73991904D01*
X57013380Y-74030000D01*
X57051476Y-74068095D01*
X57089571Y-74144285D01*
X57089571Y-74220476D01*
X57051476Y-74334761D01*
X56594333Y-74791904D01*
X57089571Y-74791904D01*
X50238095Y-70892380D02*
X50238095Y-71701904D01*
X50285714Y-71797142D01*
X50333333Y-71844761D01*
X50428571Y-71892380D01*
X50619047Y-71892380D01*
X50714285Y-71844761D01*
X50761904Y-71797142D01*
X50809523Y-71701904D01*
X50809523Y-70892380D01*
X51238095Y-70987619D02*
X51285714Y-70940000D01*
X51380952Y-70892380D01*
X51619047Y-70892380D01*
X51714285Y-70940000D01*
X51761904Y-70987619D01*
X51809523Y-71082857D01*
X51809523Y-71178095D01*
X51761904Y-71320952D01*
X51190476Y-71892380D01*
X51809523Y-71892380D01*
X97066666Y-46822380D02*
X96733333Y-46346190D01*
X96495238Y-46822380D02*
X96495238Y-45822380D01*
X96876190Y-45822380D01*
X96971428Y-45870000D01*
X97019047Y-45917619D01*
X97066666Y-46012857D01*
X97066666Y-46155714D01*
X97019047Y-46250952D01*
X96971428Y-46298571D01*
X96876190Y-46346190D01*
X96495238Y-46346190D01*
X97495238Y-46298571D02*
X97828571Y-46298571D01*
X97971428Y-46822380D02*
X97495238Y-46822380D01*
X97495238Y-45822380D01*
X97971428Y-45822380D01*
X98733333Y-46298571D02*
X98400000Y-46298571D01*
X98400000Y-46822380D02*
X98400000Y-45822380D01*
X98876190Y-45822380D01*
X99400000Y-45822380D02*
X99400000Y-46060476D01*
X99161904Y-45965238D02*
X99400000Y-46060476D01*
X99638095Y-45965238D01*
X99257142Y-46250952D02*
X99400000Y-46060476D01*
X99542857Y-46250952D01*
X100161904Y-45822380D02*
X100161904Y-46060476D01*
X99923809Y-45965238D02*
X100161904Y-46060476D01*
X100400000Y-45965238D01*
X100019047Y-46250952D02*
X100161904Y-46060476D01*
X100304761Y-46250952D01*
X132577380Y-75214285D02*
X132577380Y-75785714D01*
X132577380Y-75500000D02*
X131577380Y-75500000D01*
X131720238Y-75595238D01*
X131815476Y-75690476D01*
X131863095Y-75785714D01*
M02*
