G04 #@! TF.GenerationSoftware,KiCad,Pcbnew,5.1.6*
G04 #@! TF.CreationDate,2020-09-27T23:11:50-05:00*
G04 #@! TF.ProjectId,fissure,66697373-7572-4652-9e6b-696361645f70,rev?*
G04 #@! TF.SameCoordinates,Original*
G04 #@! TF.FileFunction,Profile,NP*
%FSLAX46Y46*%
G04 Gerber Fmt 4.6, Leading zero omitted, Abs format (unit mm)*
G04 Created by KiCad (PCBNEW 5.1.6) date 2020-09-27 23:11:50*
%MOMM*%
%LPD*%
G01*
G04 APERTURE LIST*
G04 #@! TA.AperFunction,Profile*
%ADD10C,0.050000*%
G04 #@! TD*
G04 APERTURE END LIST*
D10*
X47000000Y-121000000D02*
X47000000Y-119500000D01*
X39500000Y-112000000D02*
G75*
G02*
X47000000Y-119500000I0J-7500000D01*
G01*
X135000000Y-109000000D02*
G75*
G02*
X131500000Y-112500000I-3500000J0D01*
G01*
X115000000Y-112500000D02*
G75*
G02*
X111500000Y-109000000I0J3500000D01*
G01*
X95000000Y-109000000D02*
X77000000Y-109000000D01*
X95000000Y-112000000D02*
X95000000Y-109000000D01*
X84500000Y-112000000D02*
X95000000Y-112000000D01*
X98000000Y-109000000D02*
X111500000Y-109000000D01*
X98000000Y-112000000D02*
X98000000Y-109000000D01*
X108000000Y-112000000D02*
X98000000Y-112000000D01*
X126500000Y-115500000D02*
X133000000Y-115500000D01*
X126500000Y-112500000D02*
X126500000Y-115500000D01*
X131500000Y-112500000D02*
X126500000Y-112500000D01*
X53500000Y-129000000D02*
X47000000Y-129000000D01*
X53500000Y-132000000D02*
X53500000Y-129000000D01*
X46500000Y-132000000D02*
X53500000Y-132000000D01*
X55500000Y-129000000D02*
X62000000Y-129000000D01*
X55500000Y-132000000D02*
X55500000Y-129000000D01*
X62500000Y-132000000D02*
X55500000Y-132000000D01*
X46500000Y-132000000D02*
X46500000Y-140000000D01*
X62500000Y-140000000D02*
X62500000Y-132000000D01*
X46500000Y-140000000D02*
X62500000Y-140000000D01*
X29000000Y-130000000D02*
X28000000Y-130000000D01*
X29000000Y-131500000D02*
X29000000Y-130000000D01*
X31000000Y-131500000D02*
X29000000Y-131500000D01*
X31000000Y-130000000D02*
X31000000Y-131500000D01*
X35000000Y-130000000D02*
X31000000Y-130000000D01*
X35000000Y-131500000D02*
X35000000Y-130000000D01*
X37000000Y-131500000D02*
X35000000Y-131500000D01*
X37000000Y-130000000D02*
X37000000Y-131500000D01*
X41000000Y-130000000D02*
X37000000Y-130000000D01*
X41000000Y-131500000D02*
X41000000Y-130000000D01*
X43000000Y-131500000D02*
X41000000Y-131500000D01*
X43000000Y-130000000D02*
X43000000Y-131500000D01*
X44000000Y-130000000D02*
X43000000Y-130000000D01*
X44000000Y-121000000D02*
X47000000Y-121000000D01*
X44000000Y-115500000D02*
X44000000Y-121000000D01*
X44000000Y-124000000D02*
X44000000Y-130000000D01*
X47000000Y-124000000D02*
X44000000Y-124000000D01*
X123500000Y-112500000D02*
X115000000Y-112500000D01*
X123500000Y-115500000D02*
X123500000Y-112500000D01*
X118500000Y-115500000D02*
X123500000Y-115500000D01*
X31000000Y-115500000D02*
X35000000Y-115500000D01*
X37000000Y-115500000D02*
X41000000Y-115500000D01*
X47000000Y-129000000D02*
X47000000Y-124000000D01*
X26000000Y-112000000D02*
X39500000Y-112000000D01*
X122030000Y-137500000D02*
X122015098Y-137392229D01*
X133000000Y-137500000D02*
X122030000Y-137500000D01*
X118693778Y-116656539D02*
X118500000Y-115500000D01*
X117212658Y-116893776D02*
X118693778Y-116656539D01*
X117528974Y-118868603D02*
X117212658Y-116893776D01*
X119010094Y-118631366D02*
X117528974Y-118868603D01*
X119484569Y-121593608D02*
X119010094Y-118631366D01*
X118003448Y-121830845D02*
X119484569Y-121593608D01*
X118319764Y-123805673D02*
X118003448Y-121830845D01*
X119800885Y-123568435D02*
X118319764Y-123805673D01*
X120749833Y-129492918D02*
X119800885Y-123568435D01*
X119268712Y-129730155D02*
X120749833Y-129492918D01*
X119585029Y-131704983D02*
X119268712Y-129730155D01*
X121066149Y-131467746D02*
X119585029Y-131704983D01*
X121540624Y-134429987D02*
X121066149Y-131467746D01*
X120059503Y-134667224D02*
X121540624Y-134429987D01*
X120375819Y-136642052D02*
X120059503Y-134667224D01*
X121856940Y-136404815D02*
X120375819Y-136642052D01*
X122015098Y-137392229D02*
X121856940Y-136404815D01*
X133000000Y-116500000D02*
X133000000Y-115500000D01*
X134500000Y-116500000D02*
X133000000Y-116500000D01*
X134500000Y-118500000D02*
X134500000Y-116500000D01*
X133000000Y-118500000D02*
X134500000Y-118500000D01*
X133000000Y-121500000D02*
X133000000Y-118500000D01*
X134500000Y-121500000D02*
X133000000Y-121500000D01*
X134500000Y-123500000D02*
X134500000Y-121500000D01*
X133000000Y-123500000D02*
X134500000Y-123500000D01*
X133000000Y-129500000D02*
X133000000Y-123500000D01*
X134500000Y-129500000D02*
X133000000Y-129500000D01*
X134500000Y-131500000D02*
X134500000Y-129500000D01*
X133000000Y-131500000D02*
X134500000Y-131500000D01*
X133000000Y-134500000D02*
X133000000Y-131500000D01*
X134500000Y-134500000D02*
X133000000Y-134500000D01*
X134500000Y-136500000D02*
X134500000Y-134500000D01*
X133000000Y-136500000D02*
X134500000Y-136500000D01*
X133000000Y-137500000D02*
X133000000Y-136500000D01*
X43000000Y-114000000D02*
X43000000Y-115500000D01*
X41000000Y-114000000D02*
X43000000Y-114000000D01*
X41000000Y-115500000D02*
X41000000Y-114000000D01*
X37000000Y-114000000D02*
X37000000Y-115500000D01*
X35000000Y-114000000D02*
X37000000Y-114000000D01*
X35000000Y-115500000D02*
X35000000Y-114000000D01*
X31000000Y-114000000D02*
X31000000Y-115500000D01*
X29000000Y-114000000D02*
X31000000Y-114000000D01*
X29000000Y-115500000D02*
X29000000Y-114000000D01*
X28000000Y-115500000D02*
X29000000Y-115500000D01*
X28000000Y-130000000D02*
X28000000Y-115500000D01*
X43000000Y-115500000D02*
X44000000Y-115500000D01*
X108000000Y-112000000D02*
X117500000Y-126000000D01*
X68500000Y-119000000D02*
X84500000Y-112000000D01*
X131000000Y-45000000D02*
G75*
G02*
X135000000Y-49000000I0J-4000000D01*
G01*
X26000000Y-65500000D02*
X26050155Y-64209442D01*
X26050155Y-64209442D02*
X26108276Y-62962646D01*
X26108276Y-62962646D02*
X26176467Y-61759429D01*
X26176467Y-61759429D02*
X26256835Y-60599609D01*
X26256835Y-60599609D02*
X26351486Y-59483001D01*
X26351486Y-59483001D02*
X26462524Y-58409423D01*
X26462524Y-58409423D02*
X26592056Y-57378692D01*
X26592056Y-57378692D02*
X26742187Y-56390625D01*
X26742187Y-56390625D02*
X26915023Y-55445037D01*
X26915023Y-55445037D02*
X27112670Y-54541748D01*
X27112670Y-54541748D02*
X27337234Y-53680572D01*
X27337234Y-53680572D02*
X27590820Y-52861328D01*
X27590820Y-52861328D02*
X27875534Y-52083831D01*
X27875534Y-52083831D02*
X28193481Y-51347900D01*
X28193481Y-51347900D02*
X28546768Y-50653350D01*
X28546768Y-50653350D02*
X28937500Y-50000000D01*
X28937500Y-50000000D02*
X29367782Y-49387664D01*
X29367782Y-49387664D02*
X29839721Y-48816162D01*
X29839721Y-48816162D02*
X30355422Y-48285308D01*
X30355422Y-48285308D02*
X30916992Y-47794921D01*
X30916992Y-47794921D02*
X31526535Y-47344818D01*
X31526535Y-47344818D02*
X32186157Y-46934814D01*
X32186157Y-46934814D02*
X32897964Y-46564727D01*
X32897964Y-46564727D02*
X33664062Y-46234375D01*
X33664062Y-46234375D02*
X34486557Y-45943572D01*
X34486557Y-45943572D02*
X35367553Y-45692138D01*
X35367553Y-45692138D02*
X36309158Y-45479888D01*
X36309158Y-45479888D02*
X37313476Y-45306640D01*
X37313476Y-45306640D02*
X38382614Y-45172210D01*
X38382614Y-45172210D02*
X39518676Y-45076416D01*
X39518676Y-45076416D02*
X40723770Y-45019073D01*
X40723770Y-45019073D02*
X42000000Y-45000000D01*
X135000000Y-49000000D02*
X135000000Y-109000000D01*
X77000000Y-109000000D02*
X75834487Y-109057373D01*
X75834487Y-109057373D02*
X74771606Y-109224609D01*
X74771606Y-109224609D02*
X73805587Y-109494384D01*
X73805587Y-109494384D02*
X72930664Y-109859375D01*
X72930664Y-109859375D02*
X72141067Y-110312255D01*
X72141067Y-110312255D02*
X71431030Y-110845703D01*
X71431030Y-110845703D02*
X70794784Y-111452392D01*
X70794784Y-111452392D02*
X70226562Y-112125000D01*
X70226562Y-112125000D02*
X69720596Y-112856201D01*
X69720596Y-112856201D02*
X69271118Y-113638671D01*
X69271118Y-113638671D02*
X68872360Y-114465087D01*
X68872360Y-114465087D02*
X68518554Y-115328125D01*
X68518554Y-115328125D02*
X68203933Y-116220458D01*
X68203933Y-116220458D02*
X67922729Y-117134765D01*
X67922729Y-117134765D02*
X67669174Y-118063720D01*
X67669174Y-118063720D02*
X67437500Y-119000000D01*
X67437500Y-119000000D02*
X67221939Y-119936279D01*
X67221939Y-119936279D02*
X67016723Y-120865234D01*
X67016723Y-120865234D02*
X66816085Y-121779541D01*
X66816085Y-121779541D02*
X66614257Y-122671875D01*
X66614257Y-122671875D02*
X66405471Y-123534912D01*
X66405471Y-123534912D02*
X66183959Y-124361328D01*
X66183959Y-124361328D02*
X65943954Y-125143798D01*
X65943954Y-125143798D02*
X65679687Y-125875000D01*
X65679687Y-125875000D02*
X65385391Y-126547607D01*
X65385391Y-126547607D02*
X65055297Y-127154296D01*
X65055297Y-127154296D02*
X64683639Y-127687744D01*
X64683639Y-127687744D02*
X64264648Y-128140625D01*
X64264648Y-128140625D02*
X63792556Y-128505615D01*
X63792556Y-128505615D02*
X63261596Y-128775390D01*
X63261596Y-128775390D02*
X62666000Y-128942626D01*
X62666000Y-128942626D02*
X62000000Y-129000000D01*
X68500000Y-134000000D02*
X68500000Y-119000000D01*
X117500000Y-141000000D02*
X117500000Y-126000000D01*
X102500000Y-141000000D02*
X117500000Y-141000000D01*
X68500000Y-134000000D02*
X102500000Y-141000000D01*
X42000000Y-45000000D02*
X131000000Y-45000000D01*
X26000000Y-112000000D02*
X26000000Y-65500000D01*
M02*
