M48
; DRILL file {KiCad 5.1.6} date Sun Sep 27 23:11:52 2020
; FORMAT={-:-/ absolute / inch / decimal}
; #@! TF.CreationDate,2020-09-27T23:11:52-05:00
; #@! TF.GenerationSoftware,Kicad,Pcbnew,5.1.6
; #@! TF.FileFunction,NonPlated,1,2,NPTH
FMAT,2
INCH
T1C0.0276
T2C0.0315
T3C0.0354
T4C0.0669
T5C0.1339
%
G90
G05
T1
X2.5984Y-1.8346
X2.5984Y-1.9055
X2.5984Y-1.8346
X2.5984Y-1.9055
T2
X4.878Y-2.0866
X5.1535Y-2.0866
X4.878Y-2.0866
X5.1535Y-2.0866
T3
X1.9488Y-1.8965
X2.0669Y-1.8965
X1.9488Y-1.8965
X2.0669Y-1.8965
T4
X2.5197Y-3.9961
X2.9528Y-3.9961
X1.1024Y-3.4449
X1.5354Y-3.4449
X1.811Y-3.4449
X2.2441Y-3.4449
X2.5197Y-3.3268
X2.9528Y-3.3268
X3.2283Y-3.1299
X3.6614Y-3.1299
X1.1024Y-4.1142
X1.5354Y-4.1142
X3.937Y-3.9961
X4.3701Y-3.9961
X3.937Y-2.6575
X4.3701Y-2.6575
X4.6457Y-3.4646
X5.0787Y-3.4646
X2.5197Y-2.6575
X2.9528Y-2.6575
X1.811Y-4.1142
X2.2441Y-4.1142
X3.937Y-3.3268
X4.3701Y-3.3268
X3.2283Y-2.4606
X3.6614Y-2.4606
X2.9921Y-4.7638
X2.9921Y-5.1969
X4.6457Y-4.1339
X5.0787Y-4.1339
X4.3307Y-5.0394
X4.3307Y-5.4724
X4.6457Y-2.7953
X5.0787Y-2.7953
X3.6614Y-4.8425
X3.6614Y-5.2756
X1.9291Y-4.7835
X2.3622Y-4.7835
X3.2283Y-3.7992
X3.6614Y-3.7992
T5
X4.1535Y-2.6575
X4.8622Y-3.4646
X2.7362Y-2.6575
X2.0276Y-4.1142
X4.1535Y-3.3268
X3.4449Y-2.4606
X2.9921Y-4.9803
X4.8622Y-4.1339
X4.3307Y-5.2559
X4.8622Y-2.7953
X3.6614Y-5.0591
X2.1457Y-4.7835
X3.4449Y-3.7992
X2.7362Y-3.9961
X1.3189Y-3.4449
X2.0276Y-3.4449
X2.7362Y-3.3268
X3.4449Y-3.1299
X1.3189Y-4.1142
X4.1535Y-3.9961
T0
M30
