M48
; DRILL file {KiCad 5.1.5} date Thu 19 Mar 2020 02:29:31 AM CDT
; FORMAT={-:-/ absolute / inch / decimal}
; #@! TF.CreationDate,2020-03-19T02:29:31-05:00
; #@! TF.GenerationSoftware,Kicad,Pcbnew,5.1.5
; #@! TF.FileFunction,Plated,1,2,PTH
FMAT,2
INCH
T1C0.0157
T2C0.0295
T3C0.0315
T4C0.0354
T5C0.0394
T6C0.0430
T7C0.0433
T8C0.0472
%
G90
G05
T1
X4.0393Y-4.4468
X5.2724Y-4.5266
X5.4684Y-4.561
T2
X3.4369Y-1.7767
X3.4369Y-2.0767
X4.2637Y-1.7767
X4.2637Y-2.0767
X4.0983Y-1.7767
X4.0983Y-2.0767
X3.6849Y-1.7767
X3.6849Y-2.0767
X3.5196Y-1.7767
X3.5196Y-2.0767
X2.2637Y-2.4578
X2.2637Y-2.7578
X2.3463Y-2.4578
X2.3463Y-2.7578
X1.933Y-2.4578
X1.933Y-2.7578
X2.0156Y-2.4578
X2.0156Y-2.7578
X3.6022Y-1.7767
X3.6022Y-2.0767
X3.933Y-1.7767
X3.933Y-2.0767
X2.0983Y-2.4578
X2.0983Y-2.7578
X3.7676Y-1.7767
X3.7676Y-2.0767
X4.0156Y-1.7767
X4.0156Y-2.0767
X2.181Y-2.4578
X2.181Y-2.7578
X4.181Y-1.7767
X4.181Y-2.0767
X3.8503Y-1.7767
X3.8503Y-2.0767
X3.3542Y-1.7767
X3.3542Y-2.0767
T3
X3.3377Y-4.2027
X3.6377Y-4.2027
X3.3377Y-4.3208
X3.6377Y-4.3208
T5
X4.894Y-2.2419
X4.894Y-2.3419
X4.994Y-2.2419
X4.994Y-2.3419
X5.094Y-2.2419
X5.094Y-2.3419
X5.194Y-2.2419
X5.194Y-2.3419
T6
X1.9499Y-1.6169
X1.9499Y-2.2169
X2.0499Y-1.6169
X2.0499Y-2.2169
X2.1499Y-1.6169
X2.1499Y-2.2169
X2.2499Y-1.6169
X2.2499Y-2.2169
X2.3499Y-1.6169
X2.3499Y-2.2169
X2.4499Y-1.6169
X2.4499Y-2.2169
X2.5499Y-1.6169
X2.5499Y-2.2169
X2.6499Y-1.6169
X2.6499Y-2.2169
X2.7499Y-1.6169
X2.7499Y-2.2169
X2.8499Y-1.6169
X2.8499Y-2.2169
X2.9499Y-1.6169
X2.9499Y-2.2169
X3.0499Y-1.6169
X3.0499Y-2.2169
T7
X4.429Y-1.8366
X4.429Y-2.0137
X4.6849Y-1.8366
X4.6849Y-2.0137
T8
X3.74Y-4.5846
X3.9369Y-4.5019
X4.1337Y-4.5846
X3.2873Y-3.6397
X3.4841Y-3.557
X3.681Y-3.6397
X1.8306Y-3.187
X2.0274Y-3.1043
X2.2243Y-3.187
X4.744Y-3.2854
X4.9408Y-3.2027
X5.1377Y-3.2854
X2.5589Y-3.1673
X2.7558Y-3.0846
X2.9526Y-3.1673
X2.5589Y-3.8366
X2.7558Y-3.7539
X2.9526Y-3.8366
X4.0156Y-2.498
X4.2125Y-2.4153
X4.4093Y-2.498
X1.9487Y-4.5256
X2.1456Y-4.4429
X2.3424Y-4.5256
X4.4487Y-4.6594
X4.6456Y-4.5767
X4.8424Y-4.6594
X4.744Y-2.6161
X4.9408Y-2.5334
X5.1377Y-2.6161
X4.0156Y-3.1673
X4.2125Y-3.0846
X4.4093Y-3.1673
X4.0156Y-3.8366
X4.2125Y-3.7539
X4.4093Y-3.8366
X4.744Y-3.9547
X4.9408Y-3.872
X5.1377Y-3.9547
X3.2873Y-2.3011
X3.4841Y-2.2185
X3.681Y-2.3011
X3.2873Y-2.9704
X3.4841Y-2.8878
X3.681Y-2.9704
X2.5589Y-2.498
X2.7558Y-2.4153
X2.9526Y-2.498
X5.1574Y-4.8602
X5.3542Y-4.7775
X5.5511Y-4.8602
X1.8306Y-3.8563
X2.0274Y-3.7736
X2.2243Y-3.8563
T4
G00X5.3268Y-4.0984
M15
G01X5.3268Y-4.0827
M16
G05
G00X5.3268Y-4.2165
M15
G01X5.3268Y-4.2008
M16
G05
G00X5.3268Y-4.374
M15
G01X5.3268Y-4.3583
M16
G05
G00X5.5079Y-4.4173
M15
G01X5.5079Y-4.4016
M16
G05
G00X5.4291Y-4.4016
M15
G01X5.4291Y-4.4173
M16
G05
G00X5.6102Y-4.0827
M15
G01X5.6102Y-4.0984
M16
G05
G00X5.6102Y-4.2008
M15
G01X5.6102Y-4.2165
M16
G05
G00X5.6102Y-4.3583
M15
G01X5.6102Y-4.374
M16
G05
T0
M30
