G04 #@! TF.GenerationSoftware,KiCad,Pcbnew,5.1.8*
G04 #@! TF.CreationDate,2021-03-14T21:51:01-05:00*
G04 #@! TF.ProjectId,fissure,66697373-7572-4652-9e6b-696361645f70,rev?*
G04 #@! TF.SameCoordinates,Original*
G04 #@! TF.FileFunction,Soldermask,Bot*
G04 #@! TF.FilePolarity,Negative*
%FSLAX46Y46*%
G04 Gerber Fmt 4.6, Leading zero omitted, Abs format (unit mm)*
G04 Created by KiCad (PCBNEW 5.1.8) date 2021-03-14 21:51:01*
%MOMM*%
%LPD*%
G01*
G04 APERTURE LIST*
%ADD10C,1.300000*%
%ADD11O,1.700000X1.700000*%
%ADD12R,1.700000X1.700000*%
%ADD13C,2.000000*%
%ADD14C,1.700000*%
%ADD15C,3.400000*%
%ADD16R,0.800000X1.000000*%
%ADD17C,0.900000*%
%ADD18R,0.900000X1.700000*%
%ADD19R,0.700000X1.500000*%
%ADD20R,1.000000X0.800000*%
%ADD21R,0.850000X1.600000*%
%ADD22R,2.200000X2.000000*%
%ADD23O,1.000000X1.600000*%
%ADD24C,0.650000*%
%ADD25O,1.000000X2.100000*%
G04 APERTURE END LIST*
D10*
X27600000Y-57900000D03*
X126600000Y-105600000D03*
X27400000Y-110500000D03*
D11*
X30130000Y-56700000D03*
X32670000Y-56700000D03*
X35210000Y-56700000D03*
D12*
X37750000Y-56700000D03*
D13*
X38500000Y-100700000D03*
X33500000Y-98600000D03*
D14*
X28000000Y-104500000D03*
X39000000Y-104500000D03*
D15*
X33500000Y-104500000D03*
D13*
X74500000Y-97450000D03*
X69500000Y-95350000D03*
D14*
X64000000Y-101250000D03*
X75000000Y-101250000D03*
D15*
X69500000Y-101250000D03*
D13*
X74500000Y-80700000D03*
X69500000Y-78600000D03*
D14*
X64000000Y-84500000D03*
X75000000Y-84500000D03*
D15*
X69500000Y-84500000D03*
D16*
X40500000Y-75250000D03*
X39400000Y-75250000D03*
X38300000Y-75250000D03*
X37200000Y-75250000D03*
X36100000Y-75250000D03*
X35000000Y-75250000D03*
X33900000Y-75250000D03*
X32800000Y-75250000D03*
X31700000Y-75250000D03*
X31700000Y-66750000D03*
X32800000Y-66750000D03*
X33900000Y-66750000D03*
X35000000Y-66750000D03*
X36100000Y-66750000D03*
X37200000Y-66750000D03*
X38300000Y-66750000D03*
X39400000Y-66750000D03*
X40500000Y-66750000D03*
D13*
X110500000Y-63950000D03*
X105500000Y-61850000D03*
D14*
X100000000Y-67750000D03*
X111000000Y-67750000D03*
D15*
X105500000Y-67750000D03*
D13*
X92500000Y-75700000D03*
X87500000Y-73600000D03*
D14*
X82000000Y-79500000D03*
X93000000Y-79500000D03*
D15*
X87500000Y-79500000D03*
D17*
X47300000Y-58170000D03*
X44300000Y-58170000D03*
D13*
X92500000Y-92450000D03*
X87500000Y-90350000D03*
D14*
X82000000Y-96250000D03*
X93000000Y-96250000D03*
D15*
X87500000Y-96250000D03*
G36*
G01*
X48545000Y-68300000D02*
X48845000Y-68300000D01*
G75*
G02*
X48995000Y-68450000I0J-150000D01*
G01*
X48995000Y-69750000D01*
G75*
G02*
X48845000Y-69900000I-150000J0D01*
G01*
X48545000Y-69900000D01*
G75*
G02*
X48395000Y-69750000I0J150000D01*
G01*
X48395000Y-68450000D01*
G75*
G02*
X48545000Y-68300000I150000J0D01*
G01*
G37*
G36*
G01*
X49815000Y-68300000D02*
X50115000Y-68300000D01*
G75*
G02*
X50265000Y-68450000I0J-150000D01*
G01*
X50265000Y-69750000D01*
G75*
G02*
X50115000Y-69900000I-150000J0D01*
G01*
X49815000Y-69900000D01*
G75*
G02*
X49665000Y-69750000I0J150000D01*
G01*
X49665000Y-68450000D01*
G75*
G02*
X49815000Y-68300000I150000J0D01*
G01*
G37*
G36*
G01*
X51085000Y-68300000D02*
X51385000Y-68300000D01*
G75*
G02*
X51535000Y-68450000I0J-150000D01*
G01*
X51535000Y-69750000D01*
G75*
G02*
X51385000Y-69900000I-150000J0D01*
G01*
X51085000Y-69900000D01*
G75*
G02*
X50935000Y-69750000I0J150000D01*
G01*
X50935000Y-68450000D01*
G75*
G02*
X51085000Y-68300000I150000J0D01*
G01*
G37*
G36*
G01*
X52355000Y-68300000D02*
X52655000Y-68300000D01*
G75*
G02*
X52805000Y-68450000I0J-150000D01*
G01*
X52805000Y-69750000D01*
G75*
G02*
X52655000Y-69900000I-150000J0D01*
G01*
X52355000Y-69900000D01*
G75*
G02*
X52205000Y-69750000I0J150000D01*
G01*
X52205000Y-68450000D01*
G75*
G02*
X52355000Y-68300000I150000J0D01*
G01*
G37*
G36*
G01*
X52355000Y-75500000D02*
X52655000Y-75500000D01*
G75*
G02*
X52805000Y-75650000I0J-150000D01*
G01*
X52805000Y-76950000D01*
G75*
G02*
X52655000Y-77100000I-150000J0D01*
G01*
X52355000Y-77100000D01*
G75*
G02*
X52205000Y-76950000I0J150000D01*
G01*
X52205000Y-75650000D01*
G75*
G02*
X52355000Y-75500000I150000J0D01*
G01*
G37*
G36*
G01*
X51085000Y-75500000D02*
X51385000Y-75500000D01*
G75*
G02*
X51535000Y-75650000I0J-150000D01*
G01*
X51535000Y-76950000D01*
G75*
G02*
X51385000Y-77100000I-150000J0D01*
G01*
X51085000Y-77100000D01*
G75*
G02*
X50935000Y-76950000I0J150000D01*
G01*
X50935000Y-75650000D01*
G75*
G02*
X51085000Y-75500000I150000J0D01*
G01*
G37*
G36*
G01*
X49815000Y-75500000D02*
X50115000Y-75500000D01*
G75*
G02*
X50265000Y-75650000I0J-150000D01*
G01*
X50265000Y-76950000D01*
G75*
G02*
X50115000Y-77100000I-150000J0D01*
G01*
X49815000Y-77100000D01*
G75*
G02*
X49665000Y-76950000I0J150000D01*
G01*
X49665000Y-75650000D01*
G75*
G02*
X49815000Y-75500000I150000J0D01*
G01*
G37*
G36*
G01*
X48545000Y-75500000D02*
X48845000Y-75500000D01*
G75*
G02*
X48995000Y-75650000I0J-150000D01*
G01*
X48995000Y-76950000D01*
G75*
G02*
X48845000Y-77100000I-150000J0D01*
G01*
X48545000Y-77100000D01*
G75*
G02*
X48395000Y-76950000I0J150000D01*
G01*
X48395000Y-75650000D01*
G75*
G02*
X48545000Y-75500000I150000J0D01*
G01*
G37*
D13*
X59500000Y-117450000D03*
X54500000Y-115350000D03*
D14*
X49000000Y-121250000D03*
X60000000Y-121250000D03*
D15*
X54500000Y-121250000D03*
G36*
G01*
X134425000Y-74125000D02*
X133175000Y-74125000D01*
G75*
G02*
X132925000Y-73875000I0J250000D01*
G01*
X132925000Y-73125000D01*
G75*
G02*
X133175000Y-72875000I250000J0D01*
G01*
X134425000Y-72875000D01*
G75*
G02*
X134675000Y-73125000I0J-250000D01*
G01*
X134675000Y-73875000D01*
G75*
G02*
X134425000Y-74125000I-250000J0D01*
G01*
G37*
G36*
G01*
X134425000Y-71325000D02*
X133175000Y-71325000D01*
G75*
G02*
X132925000Y-71075000I0J250000D01*
G01*
X132925000Y-70325000D01*
G75*
G02*
X133175000Y-70075000I250000J0D01*
G01*
X134425000Y-70075000D01*
G75*
G02*
X134675000Y-70325000I0J-250000D01*
G01*
X134675000Y-71075000D01*
G75*
G02*
X134425000Y-71325000I-250000J0D01*
G01*
G37*
D13*
X110500000Y-97450000D03*
X105500000Y-95350000D03*
D14*
X100000000Y-101250000D03*
X111000000Y-101250000D03*
D15*
X105500000Y-101250000D03*
G36*
G01*
X133175000Y-65475000D02*
X134425000Y-65475000D01*
G75*
G02*
X134675000Y-65725000I0J-250000D01*
G01*
X134675000Y-66475000D01*
G75*
G02*
X134425000Y-66725000I-250000J0D01*
G01*
X133175000Y-66725000D01*
G75*
G02*
X132925000Y-66475000I0J250000D01*
G01*
X132925000Y-65725000D01*
G75*
G02*
X133175000Y-65475000I250000J0D01*
G01*
G37*
G36*
G01*
X133175000Y-68275000D02*
X134425000Y-68275000D01*
G75*
G02*
X134675000Y-68525000I0J-250000D01*
G01*
X134675000Y-69275000D01*
G75*
G02*
X134425000Y-69525000I-250000J0D01*
G01*
X133175000Y-69525000D01*
G75*
G02*
X132925000Y-69275000I0J250000D01*
G01*
X132925000Y-68525000D01*
G75*
G02*
X133175000Y-68275000I250000J0D01*
G01*
G37*
D13*
X92500000Y-58950000D03*
X87500000Y-56850000D03*
D14*
X82000000Y-62750000D03*
X93000000Y-62750000D03*
D15*
X87500000Y-62750000D03*
D13*
X128500000Y-100450000D03*
X123500000Y-98350000D03*
D14*
X118000000Y-104250000D03*
X129000000Y-104250000D03*
D15*
X123500000Y-104250000D03*
D12*
X58700000Y-77800000D03*
D11*
X58700000Y-75260000D03*
X58700000Y-72720000D03*
X58700000Y-70180000D03*
D13*
X38500000Y-83950000D03*
X33500000Y-81850000D03*
D14*
X28000000Y-87750000D03*
X39000000Y-87750000D03*
D15*
X33500000Y-87750000D03*
D13*
X74500000Y-63950000D03*
X69500000Y-61850000D03*
D14*
X64000000Y-67750000D03*
X75000000Y-67750000D03*
D15*
X69500000Y-67750000D03*
D13*
X128500000Y-66950000D03*
X123500000Y-64850000D03*
D14*
X118000000Y-70750000D03*
X129000000Y-70750000D03*
D15*
X123500000Y-70750000D03*
D18*
X39500000Y-60600000D03*
X36100000Y-60600000D03*
D13*
X128500000Y-83700000D03*
X123500000Y-81600000D03*
D14*
X118000000Y-87500000D03*
X129000000Y-87500000D03*
D15*
X123500000Y-87500000D03*
D17*
X44300000Y-58170000D03*
X47300000Y-58170000D03*
D19*
X43550000Y-59930000D03*
X46550000Y-59930000D03*
X48050000Y-59930000D03*
D20*
X42150000Y-57070000D03*
X49450000Y-57070000D03*
X49450000Y-59280000D03*
X42150000Y-59280000D03*
D21*
X132125000Y-84750000D03*
X133875000Y-84750000D03*
X132125000Y-88250000D03*
X133875000Y-88250000D03*
D13*
X56500000Y-83950000D03*
X51500000Y-81850000D03*
D14*
X46000000Y-87750000D03*
X57000000Y-87750000D03*
D15*
X51500000Y-87750000D03*
D13*
X110500000Y-80700000D03*
X105500000Y-78600000D03*
D14*
X100000000Y-84500000D03*
X111000000Y-84500000D03*
D15*
X105500000Y-84500000D03*
D22*
X128600000Y-108000000D03*
X132400000Y-108000000D03*
X128600000Y-96250000D03*
X132400000Y-96250000D03*
X128600000Y-91750000D03*
X132400000Y-91750000D03*
X128600000Y-77250000D03*
X132400000Y-77250000D03*
X128600000Y-61750000D03*
X132400000Y-61750000D03*
X128600000Y-57250000D03*
X132400000Y-57250000D03*
D23*
X52280000Y-58350000D03*
D24*
X53710000Y-62000000D03*
D23*
X60920000Y-58350000D03*
D24*
X59490000Y-62000000D03*
D25*
X60920000Y-62530000D03*
X52280000Y-62530000D03*
D13*
X56500000Y-100700000D03*
X51500000Y-98600000D03*
D14*
X46000000Y-104500000D03*
X57000000Y-104500000D03*
D15*
X51500000Y-104500000D03*
D12*
X60400000Y-68600000D03*
D11*
X60400000Y-71140000D03*
X60400000Y-73680000D03*
X60400000Y-76220000D03*
G36*
G01*
X48575000Y-78850002D02*
X48575000Y-77949998D01*
G75*
G02*
X48824998Y-77700000I249998J0D01*
G01*
X49350002Y-77700000D01*
G75*
G02*
X49600000Y-77949998I0J-249998D01*
G01*
X49600000Y-78850002D01*
G75*
G02*
X49350002Y-79100000I-249998J0D01*
G01*
X48824998Y-79100000D01*
G75*
G02*
X48575000Y-78850002I0J249998D01*
G01*
G37*
G36*
G01*
X50400000Y-78850002D02*
X50400000Y-77949998D01*
G75*
G02*
X50649998Y-77700000I249998J0D01*
G01*
X51175002Y-77700000D01*
G75*
G02*
X51425000Y-77949998I0J-249998D01*
G01*
X51425000Y-78850002D01*
G75*
G02*
X51175002Y-79100000I-249998J0D01*
G01*
X50649998Y-79100000D01*
G75*
G02*
X50400000Y-78850002I0J249998D01*
G01*
G37*
M02*
