G04 #@! TF.GenerationSoftware,KiCad,Pcbnew,5.1.8*
G04 #@! TF.CreationDate,2021-03-14T21:51:01-05:00*
G04 #@! TF.ProjectId,fissure,66697373-7572-4652-9e6b-696361645f70,rev?*
G04 #@! TF.SameCoordinates,Original*
G04 #@! TF.FileFunction,Legend,Bot*
G04 #@! TF.FilePolarity,Positive*
%FSLAX46Y46*%
G04 Gerber Fmt 4.6, Leading zero omitted, Abs format (unit mm)*
G04 Created by KiCad (PCBNEW 5.1.8) date 2021-03-14 21:51:01*
%MOMM*%
%LPD*%
G01*
G04 APERTURE LIST*
%ADD10C,0.150000*%
%ADD11C,0.200000*%
%ADD12C,0.120000*%
G04 APERTURE END LIST*
D10*
X36976190Y-58952380D02*
X36642857Y-59952380D01*
X36309523Y-58952380D01*
X34690476Y-59000000D02*
X34785714Y-58952380D01*
X34928571Y-58952380D01*
X35071428Y-59000000D01*
X35166666Y-59095238D01*
X35214285Y-59190476D01*
X35261904Y-59380952D01*
X35261904Y-59523809D01*
X35214285Y-59714285D01*
X35166666Y-59809523D01*
X35071428Y-59904761D01*
X34928571Y-59952380D01*
X34833333Y-59952380D01*
X34690476Y-59904761D01*
X34642857Y-59857142D01*
X34642857Y-59523809D01*
X34833333Y-59523809D01*
X33452380Y-59952380D02*
X33452380Y-58952380D01*
X33214285Y-58952380D01*
X33071428Y-59000000D01*
X32976190Y-59095238D01*
X32928571Y-59190476D01*
X32880952Y-59380952D01*
X32880952Y-59523809D01*
X32928571Y-59714285D01*
X32976190Y-59809523D01*
X33071428Y-59904761D01*
X33214285Y-59952380D01*
X33452380Y-59952380D01*
X31119047Y-59857142D02*
X31166666Y-59904761D01*
X31309523Y-59952380D01*
X31404761Y-59952380D01*
X31547619Y-59904761D01*
X31642857Y-59809523D01*
X31690476Y-59714285D01*
X31738095Y-59523809D01*
X31738095Y-59380952D01*
X31690476Y-59190476D01*
X31642857Y-59095238D01*
X31547619Y-59000000D01*
X31404761Y-58952380D01*
X31309523Y-58952380D01*
X31166666Y-59000000D01*
X31119047Y-59047619D01*
D11*
X134214285Y-75657142D02*
X134261904Y-75704761D01*
X134404761Y-75752380D01*
X134500000Y-75752380D01*
X134642857Y-75704761D01*
X134738095Y-75609523D01*
X134785714Y-75514285D01*
X134833333Y-75323809D01*
X134833333Y-75180952D01*
X134785714Y-74990476D01*
X134738095Y-74895238D01*
X134642857Y-74800000D01*
X134500000Y-74752380D01*
X134404761Y-74752380D01*
X134261904Y-74800000D01*
X134214285Y-74847619D01*
X133785714Y-75752380D02*
X133785714Y-74752380D01*
X133785714Y-75228571D02*
X133214285Y-75228571D01*
X133214285Y-75752380D02*
X133214285Y-74752380D01*
X132214285Y-74800000D02*
X132309523Y-74752380D01*
X132452380Y-74752380D01*
X132595238Y-74800000D01*
X132690476Y-74895238D01*
X132738095Y-74990476D01*
X132785714Y-75180952D01*
X132785714Y-75323809D01*
X132738095Y-75514285D01*
X132690476Y-75609523D01*
X132595238Y-75704761D01*
X132452380Y-75752380D01*
X132357142Y-75752380D01*
X132214285Y-75704761D01*
X132166666Y-75657142D01*
X132166666Y-75323809D01*
X132357142Y-75323809D01*
X134509523Y-63928571D02*
X134366666Y-63976190D01*
X134319047Y-64023809D01*
X134271428Y-64119047D01*
X134271428Y-64261904D01*
X134319047Y-64357142D01*
X134366666Y-64404761D01*
X134461904Y-64452380D01*
X134842857Y-64452380D01*
X134842857Y-63452380D01*
X134509523Y-63452380D01*
X134414285Y-63500000D01*
X134366666Y-63547619D01*
X134319047Y-63642857D01*
X134319047Y-63738095D01*
X134366666Y-63833333D01*
X134414285Y-63880952D01*
X134509523Y-63928571D01*
X134842857Y-63928571D01*
X133366666Y-64452380D02*
X133842857Y-64452380D01*
X133842857Y-63452380D01*
X133033333Y-63452380D02*
X133033333Y-64261904D01*
X132985714Y-64357142D01*
X132938095Y-64404761D01*
X132842857Y-64452380D01*
X132652380Y-64452380D01*
X132557142Y-64404761D01*
X132509523Y-64357142D01*
X132461904Y-64261904D01*
X132461904Y-63452380D01*
X131985714Y-63928571D02*
X131652380Y-63928571D01*
X131509523Y-64452380D02*
X131985714Y-64452380D01*
X131985714Y-63452380D01*
X131509523Y-63452380D01*
D12*
X33000000Y-115500000D02*
G75*
G03*
X33000000Y-115500000I-3500000J0D01*
G01*
X33000000Y-58750000D02*
G75*
G03*
X33000000Y-58750000I-3500000J0D01*
G01*
X53325000Y-72700000D02*
X53325000Y-75450000D01*
X53325000Y-75450000D02*
X53065000Y-75450000D01*
X53325000Y-72700000D02*
X53325000Y-69950000D01*
X53325000Y-69950000D02*
X53065000Y-69950000D01*
X47875000Y-72700000D02*
X47875000Y-75450000D01*
X47875000Y-75450000D02*
X48135000Y-75450000D01*
X47875000Y-72700000D02*
X47875000Y-69950000D01*
X47875000Y-69950000D02*
X48135000Y-69950000D01*
X48135000Y-69950000D02*
X48135000Y-68300000D01*
X132665000Y-74385000D02*
X132665000Y-70500000D01*
X134935000Y-74385000D02*
X132665000Y-74385000D01*
X134935000Y-70500000D02*
X134935000Y-74385000D01*
X134935000Y-65215000D02*
X134935000Y-69100000D01*
X132665000Y-65215000D02*
X134935000Y-65215000D01*
X132665000Y-69100000D02*
X132665000Y-65215000D01*
X36150000Y-59200000D02*
X36150000Y-59500000D01*
X39450000Y-59200000D02*
X36150000Y-59200000D01*
X39450000Y-59500000D02*
X39450000Y-59200000D01*
X36150000Y-62000000D02*
X36150000Y-61700000D01*
X39450000Y-62000000D02*
X36150000Y-62000000D01*
X39450000Y-61700000D02*
X39450000Y-62000000D01*
X47200000Y-59620000D02*
X47400000Y-59620000D01*
X44400000Y-55480000D02*
X44600000Y-55270000D01*
X45700000Y-55480000D02*
X45500000Y-55270000D01*
X44400000Y-56770000D02*
X44400000Y-55480000D01*
X44600000Y-55270000D02*
X45500000Y-55270000D01*
X45700000Y-55480000D02*
X45700000Y-56770000D01*
X42950000Y-56770000D02*
X48650000Y-56770000D01*
X44200000Y-59620000D02*
X45900000Y-59620000D01*
X42350000Y-58570000D02*
X42350000Y-57780000D01*
X49250000Y-57780000D02*
X49250000Y-58570000D01*
X134950000Y-89450000D02*
X134950000Y-83550000D01*
X131050000Y-89450000D02*
X131050000Y-83550000D01*
X131050000Y-83550000D02*
X132125000Y-83550000D01*
X49772936Y-77665000D02*
X50227064Y-77665000D01*
X49772936Y-79135000D02*
X50227064Y-79135000D01*
D10*
X134327380Y-90285714D02*
X134327380Y-89714285D01*
X134327380Y-90000000D02*
X133327380Y-90000000D01*
X133470238Y-89904761D01*
X133565476Y-89809523D01*
X133613095Y-89714285D01*
X50166666Y-80502380D02*
X50500000Y-80026190D01*
X50738095Y-80502380D02*
X50738095Y-79502380D01*
X50357142Y-79502380D01*
X50261904Y-79550000D01*
X50214285Y-79597619D01*
X50166666Y-79692857D01*
X50166666Y-79835714D01*
X50214285Y-79930952D01*
X50261904Y-79978571D01*
X50357142Y-80026190D01*
X50738095Y-80026190D01*
X49833333Y-79502380D02*
X49214285Y-79502380D01*
X49547619Y-79883333D01*
X49404761Y-79883333D01*
X49309523Y-79930952D01*
X49261904Y-79978571D01*
X49214285Y-80073809D01*
X49214285Y-80311904D01*
X49261904Y-80407142D01*
X49309523Y-80454761D01*
X49404761Y-80502380D01*
X49690476Y-80502380D01*
X49785714Y-80454761D01*
X49833333Y-80407142D01*
M02*
