G04 #@! TF.GenerationSoftware,KiCad,Pcbnew,5.1.6*
G04 #@! TF.CreationDate,2020-08-24T19:04:15-05:00*
G04 #@! TF.ProjectId,fissure,66697373-7572-4652-9e6b-696361645f70,rev?*
G04 #@! TF.SameCoordinates,Original*
G04 #@! TF.FileFunction,Profile,NP*
%FSLAX46Y46*%
G04 Gerber Fmt 4.6, Leading zero omitted, Abs format (unit mm)*
G04 Created by KiCad (PCBNEW 5.1.6) date 2020-08-24 19:04:15*
%MOMM*%
%LPD*%
G01*
G04 APERTURE LIST*
G04 #@! TA.AperFunction,Profile*
%ADD10C,0.050000*%
G04 #@! TD*
G04 APERTURE END LIST*
D10*
X141500000Y-90500000D02*
X141500000Y-92000000D01*
X145500000Y-92000000D02*
X151000000Y-92000000D01*
X145500000Y-90500000D02*
X145500000Y-92000000D01*
X152500000Y-90500000D02*
X145500000Y-90500000D01*
X135000000Y-97500000D02*
X136500000Y-97500000D01*
X136500000Y-101500000D02*
X135000000Y-101500000D01*
X136500000Y-108000000D02*
X136500000Y-101500000D01*
X152500000Y-106500000D02*
X151000000Y-106500000D01*
X152500000Y-104500000D02*
X152500000Y-106500000D01*
X151000000Y-104500000D02*
X152500000Y-104500000D01*
X152500000Y-95500000D02*
X151000000Y-95500000D01*
X152500000Y-93500000D02*
X152500000Y-95500000D01*
X151000000Y-93500000D02*
X152500000Y-93500000D01*
X105000000Y-113500000D02*
X128500000Y-113500000D01*
X135000000Y-87500000D02*
X135000000Y-97500000D01*
X135000000Y-111000000D02*
G75*
G02*
X132500000Y-113500000I-2500000J0D01*
G01*
X131000000Y-45000000D02*
G75*
G02*
X135000000Y-49000000I0J-4000000D01*
G01*
X26000000Y-65500000D02*
X26067184Y-64209442D01*
X26067184Y-64209442D02*
X26174194Y-62962646D01*
X26174194Y-62962646D02*
X26319839Y-61759429D01*
X26319839Y-61759429D02*
X26502929Y-60599609D01*
X26502929Y-60599609D02*
X26722274Y-59483001D01*
X26722274Y-59483001D02*
X26976684Y-58409423D01*
X26976684Y-58409423D02*
X27264968Y-57378692D01*
X27264968Y-57378692D02*
X27585937Y-56390625D01*
X27585937Y-56390625D02*
X27938400Y-55445037D01*
X27938400Y-55445037D02*
X28321166Y-54541748D01*
X28321166Y-54541748D02*
X28733047Y-53680572D01*
X28733047Y-53680572D02*
X29172851Y-52861328D01*
X29172851Y-52861328D02*
X29639389Y-52083831D01*
X29639389Y-52083831D02*
X30131469Y-51347900D01*
X30131469Y-51347900D02*
X30647903Y-50653350D01*
X30647903Y-50653350D02*
X31187500Y-50000000D01*
X31187500Y-50000000D02*
X31749069Y-49387664D01*
X31749069Y-49387664D02*
X32331420Y-48816162D01*
X32331420Y-48816162D02*
X32933364Y-48285308D01*
X32933364Y-48285308D02*
X33553710Y-47794921D01*
X33553710Y-47794921D02*
X34191268Y-47344818D01*
X34191268Y-47344818D02*
X34844848Y-46934814D01*
X34844848Y-46934814D02*
X35513259Y-46564727D01*
X35513259Y-46564727D02*
X36195312Y-46234375D01*
X36195312Y-46234375D02*
X36889816Y-45943572D01*
X36889816Y-45943572D02*
X37595581Y-45692138D01*
X37595581Y-45692138D02*
X38311416Y-45479888D01*
X38311416Y-45479888D02*
X39036132Y-45306640D01*
X39036132Y-45306640D02*
X39768539Y-45172210D01*
X39768539Y-45172210D02*
X40507446Y-45076416D01*
X40507446Y-45076416D02*
X41251663Y-45019073D01*
X41251663Y-45019073D02*
X42000000Y-45000000D01*
X152500000Y-90500000D02*
X152500000Y-90000000D01*
X138000000Y-87500000D02*
X138000000Y-90500000D01*
X133000000Y-115000000D02*
X144000000Y-124000000D01*
X132500000Y-115000000D02*
X133000000Y-115000000D01*
X136500000Y-79500000D02*
X138000000Y-79500000D01*
X136500000Y-81500000D02*
X136500000Y-79500000D01*
X138000000Y-81500000D02*
X136500000Y-81500000D01*
X128500000Y-115000000D02*
X128500000Y-113500000D01*
X128500000Y-115000000D02*
X105000000Y-115000000D01*
X105000000Y-115000000D02*
X105000000Y-113500000D01*
X101000000Y-115000000D02*
X95000000Y-115000000D01*
X101000000Y-113500000D02*
X101000000Y-115000000D01*
X95000000Y-113500000D02*
X101000000Y-113500000D01*
X132500000Y-113500000D02*
X132500000Y-115000000D01*
X135000000Y-101500000D02*
X135000000Y-111000000D01*
X138000000Y-87500000D02*
X135000000Y-87500000D01*
X135000000Y-85500000D02*
X138000000Y-85500000D01*
X135000000Y-70500000D02*
X135000000Y-85500000D01*
X138000000Y-70500000D02*
X135000000Y-70500000D01*
X135000000Y-68500000D02*
X138000000Y-68500000D01*
X135000000Y-49000000D02*
X135000000Y-68500000D01*
X148899832Y-67126291D02*
X148899832Y-67000000D01*
X136500000Y-92000000D02*
X141500000Y-92000000D01*
X136500000Y-97500000D02*
X136500000Y-92000000D01*
X151000000Y-108000000D02*
X136500000Y-108000000D01*
X151000000Y-106500000D02*
X151000000Y-108000000D01*
X151000000Y-101000000D02*
X151000000Y-104500000D01*
X152500000Y-101000000D02*
X151000000Y-101000000D01*
X152500000Y-99000000D02*
X152500000Y-101000000D01*
X151000000Y-99000000D02*
X152500000Y-99000000D01*
X151000000Y-95500000D02*
X151000000Y-99000000D01*
X151000000Y-92000000D02*
X151000000Y-93500000D01*
X138000000Y-90500000D02*
X141500000Y-90500000D01*
X138000000Y-67000000D02*
X148899832Y-67000000D01*
X151825756Y-85393446D02*
X151193124Y-81443791D01*
X153623193Y-87131037D02*
X153306876Y-85156209D01*
X150876807Y-79468963D02*
X150323254Y-76013015D01*
X150934505Y-70345002D02*
X150618189Y-68370174D01*
X153306876Y-85156209D02*
X151825756Y-85393446D01*
X152500000Y-90000000D02*
X152142072Y-87368274D01*
X151488059Y-73800950D02*
X150006938Y-74038187D01*
X150618189Y-68370174D02*
X149137069Y-68607411D01*
X152142072Y-87368274D02*
X153623193Y-87131037D01*
X152674244Y-81206554D02*
X152357928Y-79231726D01*
X152357928Y-79231726D02*
X150876807Y-79468963D01*
X149453385Y-70582239D02*
X150934505Y-70345002D01*
X150323254Y-76013015D02*
X151804375Y-75775778D01*
X149137069Y-68607411D02*
X148899832Y-67126291D01*
X151804375Y-75775778D02*
X151488059Y-73800950D01*
X151193124Y-81443791D02*
X152674244Y-81206554D01*
X150006938Y-74038187D02*
X149453385Y-70582239D01*
X138000000Y-81500000D02*
X138000000Y-85500000D01*
X138000000Y-76000000D02*
X138000000Y-79500000D01*
X136500000Y-76000000D02*
X138000000Y-76000000D01*
X136500000Y-74000000D02*
X136500000Y-76000000D01*
X138000000Y-74000000D02*
X136500000Y-74000000D01*
X138000000Y-70500000D02*
X138000000Y-74000000D01*
X138000000Y-67000000D02*
X138000000Y-68500000D01*
X95000000Y-113500000D02*
X93865158Y-113510406D01*
X93865158Y-113510406D02*
X92712280Y-113542236D01*
X92712280Y-113542236D02*
X91543838Y-113596405D01*
X91543838Y-113596405D02*
X90362304Y-113673828D01*
X90362304Y-113673828D02*
X89170150Y-113775421D01*
X89170150Y-113775421D02*
X87969848Y-113902099D01*
X87969848Y-113902099D02*
X86763870Y-114054779D01*
X86763870Y-114054779D02*
X85554687Y-114234375D01*
X85554687Y-114234375D02*
X84344772Y-114441802D01*
X84344772Y-114441802D02*
X83136596Y-114677978D01*
X83136596Y-114677978D02*
X81932632Y-114943817D01*
X81932632Y-114943817D02*
X80735351Y-115240234D01*
X80735351Y-115240234D02*
X79547225Y-115568145D01*
X79547225Y-115568145D02*
X78370727Y-115928466D01*
X78370727Y-115928466D02*
X77208328Y-116322113D01*
X77208328Y-116322113D02*
X76062500Y-116750000D01*
X76062500Y-116750000D02*
X74935714Y-117213043D01*
X74935714Y-117213043D02*
X73830444Y-117712158D01*
X73830444Y-117712158D02*
X72749160Y-118248260D01*
X72749160Y-118248260D02*
X71694335Y-118822265D01*
X71694335Y-118822265D02*
X70668441Y-119435089D01*
X70668441Y-119435089D02*
X69673950Y-120087646D01*
X69673950Y-120087646D02*
X68713333Y-120780853D01*
X68713333Y-120780853D02*
X67789062Y-121515625D01*
X67789062Y-121515625D02*
X66903610Y-122292877D01*
X66903610Y-122292877D02*
X66059448Y-123113525D01*
X66059448Y-123113525D02*
X65259048Y-123978485D01*
X65259048Y-123978485D02*
X64504882Y-124888671D01*
X64504882Y-124888671D02*
X63799423Y-125845001D01*
X63799423Y-125845001D02*
X63145141Y-126848388D01*
X63145141Y-126848388D02*
X62544509Y-127899749D01*
X62544509Y-127899749D02*
X62000000Y-129000000D01*
X95000000Y-132000000D02*
X95000000Y-115000000D01*
X144000000Y-139000000D02*
X144000000Y-124000000D01*
X129000000Y-139000000D02*
X144000000Y-139000000D01*
X112000000Y-134000000D02*
X129000000Y-139000000D01*
X95000000Y-132000000D02*
X112000000Y-134000000D01*
X47000000Y-129000000D02*
X62000000Y-129000000D01*
X47000000Y-129000000D02*
X46631820Y-128965423D01*
X46631820Y-128965423D02*
X46187377Y-128864013D01*
X46187377Y-128864013D02*
X45672439Y-128699249D01*
X45672439Y-128699249D02*
X45092773Y-128474609D01*
X45092773Y-128474609D02*
X44454147Y-128193572D01*
X44454147Y-128193572D02*
X43762329Y-127859619D01*
X43762329Y-127859619D02*
X43023086Y-127476226D01*
X43023086Y-127476226D02*
X42242187Y-127046875D01*
X42242187Y-127046875D02*
X41425399Y-126575042D01*
X41425399Y-126575042D02*
X40578491Y-126064208D01*
X40578491Y-126064208D02*
X39707229Y-125517852D01*
X39707229Y-125517852D02*
X38817382Y-124939453D01*
X38817382Y-124939453D02*
X37914718Y-124332489D01*
X37914718Y-124332489D02*
X37005004Y-123700439D01*
X37005004Y-123700439D02*
X36094009Y-123046783D01*
X36094009Y-123046783D02*
X35187500Y-122375000D01*
X35187500Y-122375000D02*
X34291244Y-121688568D01*
X34291244Y-121688568D02*
X33411010Y-120990966D01*
X33411010Y-120990966D02*
X32552566Y-120285675D01*
X32552566Y-120285675D02*
X31721679Y-119576171D01*
X31721679Y-119576171D02*
X30924118Y-118865936D01*
X30924118Y-118865936D02*
X30165649Y-118158447D01*
X30165649Y-118158447D02*
X29452041Y-117457183D01*
X29452041Y-117457183D02*
X28789062Y-116765625D01*
X28789062Y-116765625D02*
X28182479Y-116087249D01*
X28182479Y-116087249D02*
X27638061Y-115425537D01*
X27638061Y-115425537D02*
X27161575Y-114783966D01*
X27161575Y-114783966D02*
X26758789Y-114166015D01*
X26758789Y-114166015D02*
X26435470Y-113575164D01*
X26435470Y-113575164D02*
X26197387Y-113014892D01*
X26197387Y-113014892D02*
X26050308Y-112488677D01*
X26050308Y-112488677D02*
X26000000Y-112000000D01*
X42000000Y-45000000D02*
X131000000Y-45000000D01*
X26000000Y-112000000D02*
X26000000Y-65500000D01*
M02*
