G04 #@! TF.GenerationSoftware,KiCad,Pcbnew,5.1.5*
G04 #@! TF.CreationDate,2020-03-16T15:52:58-05:00*
G04 #@! TF.ProjectId,fissure,66697373-7572-4652-9e6b-696361645f70,rev?*
G04 #@! TF.SameCoordinates,Original*
G04 #@! TF.FileFunction,Legend,Top*
G04 #@! TF.FilePolarity,Positive*
%FSLAX46Y46*%
G04 Gerber Fmt 4.6, Leading zero omitted, Abs format (unit mm)*
G04 Created by KiCad (PCBNEW 5.1.5) date 2020-03-16 15:52:58*
%MOMM*%
%LPD*%
G04 APERTURE LIST*
%ADD10C,0.150000*%
%ADD11C,0.120000*%
%ADD12C,0.381000*%
G04 APERTURE END LIST*
D10*
X125418428Y-54572809D02*
X125532714Y-54610904D01*
X125723190Y-54610904D01*
X125799380Y-54572809D01*
X125837476Y-54534714D01*
X125875571Y-54458523D01*
X125875571Y-54382333D01*
X125837476Y-54306142D01*
X125799380Y-54268047D01*
X125723190Y-54229952D01*
X125570809Y-54191857D01*
X125494619Y-54153761D01*
X125456523Y-54115666D01*
X125418428Y-54039476D01*
X125418428Y-53963285D01*
X125456523Y-53887095D01*
X125494619Y-53849000D01*
X125570809Y-53810904D01*
X125761285Y-53810904D01*
X125875571Y-53849000D01*
X126675571Y-54534714D02*
X126637476Y-54572809D01*
X126523190Y-54610904D01*
X126447000Y-54610904D01*
X126332714Y-54572809D01*
X126256523Y-54496619D01*
X126218428Y-54420428D01*
X126180333Y-54268047D01*
X126180333Y-54153761D01*
X126218428Y-54001380D01*
X126256523Y-53925190D01*
X126332714Y-53849000D01*
X126447000Y-53810904D01*
X126523190Y-53810904D01*
X126637476Y-53849000D01*
X126675571Y-53887095D01*
X127018428Y-54610904D02*
X127018428Y-53810904D01*
X127475571Y-54610904D02*
X127132714Y-54153761D01*
X127475571Y-53810904D02*
X127018428Y-54268047D01*
X129082714Y-54534714D02*
X129044619Y-54572809D01*
X128930333Y-54610904D01*
X128854142Y-54610904D01*
X128739857Y-54572809D01*
X128663666Y-54496619D01*
X128625571Y-54420428D01*
X128587476Y-54268047D01*
X128587476Y-54153761D01*
X128625571Y-54001380D01*
X128663666Y-53925190D01*
X128739857Y-53849000D01*
X128854142Y-53810904D01*
X128930333Y-53810904D01*
X129044619Y-53849000D01*
X129082714Y-53887095D01*
X129425571Y-54191857D02*
X129692238Y-54191857D01*
X129806523Y-54610904D02*
X129425571Y-54610904D01*
X129425571Y-53810904D01*
X129806523Y-53810904D01*
X130630333Y-51810904D02*
X130897000Y-52610904D01*
X131163666Y-51810904D01*
X131887476Y-52534714D02*
X131849380Y-52572809D01*
X131735095Y-52610904D01*
X131658904Y-52610904D01*
X131544619Y-52572809D01*
X131468428Y-52496619D01*
X131430333Y-52420428D01*
X131392238Y-52268047D01*
X131392238Y-52153761D01*
X131430333Y-52001380D01*
X131468428Y-51925190D01*
X131544619Y-51849000D01*
X131658904Y-51810904D01*
X131735095Y-51810904D01*
X131849380Y-51849000D01*
X131887476Y-51887095D01*
X132687476Y-52534714D02*
X132649380Y-52572809D01*
X132535095Y-52610904D01*
X132458904Y-52610904D01*
X132344619Y-52572809D01*
X132268428Y-52496619D01*
X132230333Y-52420428D01*
X132192238Y-52268047D01*
X132192238Y-52153761D01*
X132230333Y-52001380D01*
X132268428Y-51925190D01*
X132344619Y-51849000D01*
X132458904Y-51810904D01*
X132535095Y-51810904D01*
X132649380Y-51849000D01*
X132687476Y-51887095D01*
X123377952Y-52610904D02*
X123377952Y-51810904D01*
X124216047Y-52610904D02*
X123949380Y-52229952D01*
X123758904Y-52610904D02*
X123758904Y-51810904D01*
X124063666Y-51810904D01*
X124139857Y-51849000D01*
X124177952Y-51887095D01*
X124216047Y-51963285D01*
X124216047Y-52077571D01*
X124177952Y-52153761D01*
X124139857Y-52191857D01*
X124063666Y-52229952D01*
X123758904Y-52229952D01*
X125092238Y-52687095D02*
X125016047Y-52649000D01*
X124939857Y-52572809D01*
X124825571Y-52458523D01*
X124749380Y-52420428D01*
X124673190Y-52420428D01*
X124711285Y-52610904D02*
X124635095Y-52572809D01*
X124558904Y-52496619D01*
X124520809Y-52344238D01*
X124520809Y-52077571D01*
X124558904Y-51925190D01*
X124635095Y-51849000D01*
X124711285Y-51810904D01*
X124863666Y-51810904D01*
X124939857Y-51849000D01*
X125016047Y-51925190D01*
X125054142Y-52077571D01*
X125054142Y-52344238D01*
X125016047Y-52496619D01*
X124939857Y-52572809D01*
X124863666Y-52610904D01*
X124711285Y-52610904D01*
X131087476Y-53849000D02*
X131011285Y-53810904D01*
X130897000Y-53810904D01*
X130782714Y-53849000D01*
X130706523Y-53925190D01*
X130668428Y-54001380D01*
X130630333Y-54153761D01*
X130630333Y-54268047D01*
X130668428Y-54420428D01*
X130706523Y-54496619D01*
X130782714Y-54572809D01*
X130897000Y-54610904D01*
X130973190Y-54610904D01*
X131087476Y-54572809D01*
X131125571Y-54534714D01*
X131125571Y-54268047D01*
X130973190Y-54268047D01*
X131468428Y-54610904D02*
X131468428Y-53810904D01*
X131925571Y-54610904D01*
X131925571Y-53810904D01*
X132306523Y-54610904D02*
X132306523Y-53810904D01*
X132497000Y-53810904D01*
X132611285Y-53849000D01*
X132687476Y-53925190D01*
X132725571Y-54001380D01*
X132763666Y-54153761D01*
X132763666Y-54268047D01*
X132725571Y-54420428D01*
X132687476Y-54496619D01*
X132611285Y-54572809D01*
X132497000Y-54610904D01*
X132306523Y-54610904D01*
X129063666Y-52534714D02*
X129025571Y-52572809D01*
X128911285Y-52610904D01*
X128835095Y-52610904D01*
X128720809Y-52572809D01*
X128644619Y-52496619D01*
X128606523Y-52420428D01*
X128568428Y-52268047D01*
X128568428Y-52153761D01*
X128606523Y-52001380D01*
X128644619Y-51925190D01*
X128720809Y-51849000D01*
X128835095Y-51810904D01*
X128911285Y-51810904D01*
X129025571Y-51849000D01*
X129063666Y-51887095D01*
X129368428Y-52572809D02*
X129482714Y-52610904D01*
X129673190Y-52610904D01*
X129749380Y-52572809D01*
X129787476Y-52534714D01*
X129825571Y-52458523D01*
X129825571Y-52382333D01*
X129787476Y-52306142D01*
X129749380Y-52268047D01*
X129673190Y-52229952D01*
X129520809Y-52191857D01*
X129444619Y-52153761D01*
X129406523Y-52115666D01*
X129368428Y-52039476D01*
X129368428Y-51963285D01*
X129406523Y-51887095D01*
X129444619Y-51849000D01*
X129520809Y-51810904D01*
X129711285Y-51810904D01*
X129825571Y-51849000D01*
X126011285Y-52610904D02*
X126011285Y-51810904D01*
X126277952Y-52382333D01*
X126544619Y-51810904D01*
X126544619Y-52610904D01*
X127077952Y-51810904D02*
X127230333Y-51810904D01*
X127306523Y-51849000D01*
X127382714Y-51925190D01*
X127420809Y-52077571D01*
X127420809Y-52344238D01*
X127382714Y-52496619D01*
X127306523Y-52572809D01*
X127230333Y-52610904D01*
X127077952Y-52610904D01*
X127001761Y-52572809D01*
X126925571Y-52496619D01*
X126887476Y-52344238D01*
X126887476Y-52077571D01*
X126925571Y-51925190D01*
X127001761Y-51849000D01*
X127077952Y-51810904D01*
X123489857Y-54610904D02*
X123489857Y-53810904D01*
X123756523Y-54382333D01*
X124023190Y-53810904D01*
X124023190Y-54610904D01*
X124404142Y-54610904D02*
X124404142Y-53810904D01*
X113051642Y-44266857D02*
X112784976Y-44266857D01*
X112784976Y-44685904D02*
X112784976Y-43885904D01*
X113165928Y-43885904D01*
X113470690Y-44685904D02*
X113470690Y-44152571D01*
X113470690Y-43885904D02*
X113432595Y-43924000D01*
X113470690Y-43962095D01*
X113508785Y-43924000D01*
X113470690Y-43885904D01*
X113470690Y-43962095D01*
X113813547Y-44647809D02*
X113889738Y-44685904D01*
X114042119Y-44685904D01*
X114118309Y-44647809D01*
X114156404Y-44571619D01*
X114156404Y-44533523D01*
X114118309Y-44457333D01*
X114042119Y-44419238D01*
X113927833Y-44419238D01*
X113851642Y-44381142D01*
X113813547Y-44304952D01*
X113813547Y-44266857D01*
X113851642Y-44190666D01*
X113927833Y-44152571D01*
X114042119Y-44152571D01*
X114118309Y-44190666D01*
X114461166Y-44647809D02*
X114537357Y-44685904D01*
X114689738Y-44685904D01*
X114765928Y-44647809D01*
X114804023Y-44571619D01*
X114804023Y-44533523D01*
X114765928Y-44457333D01*
X114689738Y-44419238D01*
X114575452Y-44419238D01*
X114499261Y-44381142D01*
X114461166Y-44304952D01*
X114461166Y-44266857D01*
X114499261Y-44190666D01*
X114575452Y-44152571D01*
X114689738Y-44152571D01*
X114765928Y-44190666D01*
X115489738Y-44152571D02*
X115489738Y-44685904D01*
X115146880Y-44152571D02*
X115146880Y-44571619D01*
X115184976Y-44647809D01*
X115261166Y-44685904D01*
X115375452Y-44685904D01*
X115451642Y-44647809D01*
X115489738Y-44609714D01*
X115870690Y-44685904D02*
X115870690Y-44152571D01*
X115870690Y-44304952D02*
X115908785Y-44228761D01*
X115946880Y-44190666D01*
X116023071Y-44152571D01*
X116099261Y-44152571D01*
X116670690Y-44647809D02*
X116594500Y-44685904D01*
X116442119Y-44685904D01*
X116365928Y-44647809D01*
X116327833Y-44571619D01*
X116327833Y-44266857D01*
X116365928Y-44190666D01*
X116442119Y-44152571D01*
X116594500Y-44152571D01*
X116670690Y-44190666D01*
X116708785Y-44266857D01*
X116708785Y-44343047D01*
X116327833Y-44419238D01*
X117584976Y-44152571D02*
X117775452Y-44685904D01*
X117965928Y-44152571D01*
X118232595Y-43962095D02*
X118270690Y-43924000D01*
X118346880Y-43885904D01*
X118537357Y-43885904D01*
X118613547Y-43924000D01*
X118651642Y-43962095D01*
X118689738Y-44038285D01*
X118689738Y-44114476D01*
X118651642Y-44228761D01*
X118194500Y-44685904D01*
X118689738Y-44685904D01*
X113127833Y-45502571D02*
X113127833Y-46150190D01*
X113089738Y-46226380D01*
X113051642Y-46264476D01*
X112975452Y-46302571D01*
X112861166Y-46302571D01*
X112784976Y-46264476D01*
X113127833Y-45997809D02*
X113051642Y-46035904D01*
X112899261Y-46035904D01*
X112823071Y-45997809D01*
X112784976Y-45959714D01*
X112746880Y-45883523D01*
X112746880Y-45654952D01*
X112784976Y-45578761D01*
X112823071Y-45540666D01*
X112899261Y-45502571D01*
X113051642Y-45502571D01*
X113127833Y-45540666D01*
X113508785Y-46035904D02*
X113508785Y-45502571D01*
X113508785Y-45235904D02*
X113470690Y-45274000D01*
X113508785Y-45312095D01*
X113546880Y-45274000D01*
X113508785Y-45235904D01*
X113508785Y-45312095D01*
X113775452Y-45502571D02*
X114080214Y-45502571D01*
X113889738Y-45235904D02*
X113889738Y-45921619D01*
X113927833Y-45997809D01*
X114004023Y-46035904D01*
X114080214Y-46035904D01*
X114346880Y-46035904D02*
X114346880Y-45235904D01*
X114689738Y-46035904D02*
X114689738Y-45616857D01*
X114651642Y-45540666D01*
X114575452Y-45502571D01*
X114461166Y-45502571D01*
X114384976Y-45540666D01*
X114346880Y-45578761D01*
X115413547Y-45502571D02*
X115413547Y-46035904D01*
X115070690Y-45502571D02*
X115070690Y-45921619D01*
X115108785Y-45997809D01*
X115184976Y-46035904D01*
X115299261Y-46035904D01*
X115375452Y-45997809D01*
X115413547Y-45959714D01*
X115794500Y-46035904D02*
X115794500Y-45235904D01*
X115794500Y-45540666D02*
X115870690Y-45502571D01*
X116023071Y-45502571D01*
X116099261Y-45540666D01*
X116137357Y-45578761D01*
X116175452Y-45654952D01*
X116175452Y-45883523D01*
X116137357Y-45959714D01*
X116099261Y-45997809D01*
X116023071Y-46035904D01*
X115870690Y-46035904D01*
X115794500Y-45997809D01*
X116518309Y-45959714D02*
X116556404Y-45997809D01*
X116518309Y-46035904D01*
X116480214Y-45997809D01*
X116518309Y-45959714D01*
X116518309Y-46035904D01*
X117242119Y-45997809D02*
X117165928Y-46035904D01*
X117013547Y-46035904D01*
X116937357Y-45997809D01*
X116899261Y-45959714D01*
X116861166Y-45883523D01*
X116861166Y-45654952D01*
X116899261Y-45578761D01*
X116937357Y-45540666D01*
X117013547Y-45502571D01*
X117165928Y-45502571D01*
X117242119Y-45540666D01*
X117699261Y-46035904D02*
X117623071Y-45997809D01*
X117584976Y-45959714D01*
X117546880Y-45883523D01*
X117546880Y-45654952D01*
X117584976Y-45578761D01*
X117623071Y-45540666D01*
X117699261Y-45502571D01*
X117813547Y-45502571D01*
X117889738Y-45540666D01*
X117927833Y-45578761D01*
X117965928Y-45654952D01*
X117965928Y-45883523D01*
X117927833Y-45959714D01*
X117889738Y-45997809D01*
X117813547Y-46035904D01*
X117699261Y-46035904D01*
X118308785Y-46035904D02*
X118308785Y-45502571D01*
X118308785Y-45578761D02*
X118346880Y-45540666D01*
X118423071Y-45502571D01*
X118537357Y-45502571D01*
X118613547Y-45540666D01*
X118651642Y-45616857D01*
X118651642Y-46035904D01*
X118651642Y-45616857D02*
X118689738Y-45540666D01*
X118765928Y-45502571D01*
X118880214Y-45502571D01*
X118956404Y-45540666D01*
X118994500Y-45616857D01*
X118994500Y-46035904D01*
X119946880Y-45197809D02*
X119261166Y-46226380D01*
X120556404Y-45997809D02*
X120480214Y-46035904D01*
X120327833Y-46035904D01*
X120251642Y-45997809D01*
X120213547Y-45959714D01*
X120175452Y-45883523D01*
X120175452Y-45654952D01*
X120213547Y-45578761D01*
X120251642Y-45540666D01*
X120327833Y-45502571D01*
X120480214Y-45502571D01*
X120556404Y-45540666D01*
X120899261Y-46035904D02*
X120899261Y-45502571D01*
X120899261Y-45654952D02*
X120937357Y-45578761D01*
X120975452Y-45540666D01*
X121051642Y-45502571D01*
X121127833Y-45502571D01*
X121394500Y-46035904D02*
X121394500Y-45502571D01*
X121394500Y-45235904D02*
X121356404Y-45274000D01*
X121394500Y-45312095D01*
X121432595Y-45274000D01*
X121394500Y-45235904D01*
X121394500Y-45312095D01*
X122118309Y-46035904D02*
X122118309Y-45235904D01*
X122118309Y-45997809D02*
X122042119Y-46035904D01*
X121889738Y-46035904D01*
X121813547Y-45997809D01*
X121775452Y-45959714D01*
X121737357Y-45883523D01*
X121737357Y-45654952D01*
X121775452Y-45578761D01*
X121813547Y-45540666D01*
X121889738Y-45502571D01*
X122042119Y-45502571D01*
X122118309Y-45540666D01*
X122804023Y-45997809D02*
X122727833Y-46035904D01*
X122575452Y-46035904D01*
X122499261Y-45997809D01*
X122461166Y-45921619D01*
X122461166Y-45616857D01*
X122499261Y-45540666D01*
X122575452Y-45502571D01*
X122727833Y-45502571D01*
X122804023Y-45540666D01*
X122842119Y-45616857D01*
X122842119Y-45693047D01*
X122461166Y-45769238D01*
X123146880Y-45997809D02*
X123223071Y-46035904D01*
X123375452Y-46035904D01*
X123451642Y-45997809D01*
X123489738Y-45921619D01*
X123489738Y-45883523D01*
X123451642Y-45807333D01*
X123375452Y-45769238D01*
X123261166Y-45769238D01*
X123184976Y-45731142D01*
X123146880Y-45654952D01*
X123146880Y-45616857D01*
X123184976Y-45540666D01*
X123261166Y-45502571D01*
X123375452Y-45502571D01*
X123451642Y-45540666D01*
X124404023Y-45197809D02*
X123718309Y-46226380D01*
X124556404Y-45502571D02*
X124861166Y-45502571D01*
X124670690Y-46035904D02*
X124670690Y-45350190D01*
X124708785Y-45274000D01*
X124784976Y-45235904D01*
X124861166Y-45235904D01*
X125127833Y-46035904D02*
X125127833Y-45502571D01*
X125127833Y-45235904D02*
X125089738Y-45274000D01*
X125127833Y-45312095D01*
X125165928Y-45274000D01*
X125127833Y-45235904D01*
X125127833Y-45312095D01*
X125470690Y-45997809D02*
X125546880Y-46035904D01*
X125699261Y-46035904D01*
X125775452Y-45997809D01*
X125813547Y-45921619D01*
X125813547Y-45883523D01*
X125775452Y-45807333D01*
X125699261Y-45769238D01*
X125584976Y-45769238D01*
X125508785Y-45731142D01*
X125470690Y-45654952D01*
X125470690Y-45616857D01*
X125508785Y-45540666D01*
X125584976Y-45502571D01*
X125699261Y-45502571D01*
X125775452Y-45540666D01*
X126118309Y-45997809D02*
X126194500Y-46035904D01*
X126346880Y-46035904D01*
X126423071Y-45997809D01*
X126461166Y-45921619D01*
X126461166Y-45883523D01*
X126423071Y-45807333D01*
X126346880Y-45769238D01*
X126232595Y-45769238D01*
X126156404Y-45731142D01*
X126118309Y-45654952D01*
X126118309Y-45616857D01*
X126156404Y-45540666D01*
X126232595Y-45502571D01*
X126346880Y-45502571D01*
X126423071Y-45540666D01*
X127146880Y-45502571D02*
X127146880Y-46035904D01*
X126804023Y-45502571D02*
X126804023Y-45921619D01*
X126842119Y-45997809D01*
X126918309Y-46035904D01*
X127032595Y-46035904D01*
X127108785Y-45997809D01*
X127146880Y-45959714D01*
X127527833Y-46035904D02*
X127527833Y-45502571D01*
X127527833Y-45654952D02*
X127565928Y-45578761D01*
X127604023Y-45540666D01*
X127680214Y-45502571D01*
X127756404Y-45502571D01*
X128327833Y-45997809D02*
X128251642Y-46035904D01*
X128099261Y-46035904D01*
X128023071Y-45997809D01*
X127984976Y-45921619D01*
X127984976Y-45616857D01*
X128023071Y-45540666D01*
X128099261Y-45502571D01*
X128251642Y-45502571D01*
X128327833Y-45540666D01*
X128365928Y-45616857D01*
X128365928Y-45693047D01*
X127984976Y-45769238D01*
X143250000Y-100700000D02*
X137150000Y-100700000D01*
X143250000Y-112800000D02*
X137150000Y-112800000D01*
X143250000Y-100700000D02*
X143250000Y-112800000D01*
X137150000Y-100700000D02*
X137150000Y-112800000D01*
X143000000Y-100700000D02*
X143000000Y-98700000D01*
X137400000Y-100700000D02*
X137400000Y-98700000D01*
X143000000Y-98700000D02*
X137400000Y-98700000D01*
D11*
X45827000Y-67433000D02*
X47667000Y-67433000D01*
X45827000Y-67193000D02*
X47667000Y-67193000D01*
X45827000Y-67313000D02*
X47667000Y-67313000D01*
X46747000Y-63429000D02*
X46747000Y-64609000D01*
X46747000Y-69069000D02*
X46747000Y-67889000D01*
X45827000Y-64609000D02*
X45827000Y-67889000D01*
X47667000Y-64609000D02*
X45827000Y-64609000D01*
X47667000Y-67889000D02*
X47667000Y-64609000D01*
X45827000Y-67889000D02*
X47667000Y-67889000D01*
X59077000Y-67433000D02*
X60917000Y-67433000D01*
X59077000Y-67193000D02*
X60917000Y-67193000D01*
X59077000Y-67313000D02*
X60917000Y-67313000D01*
X59997000Y-63429000D02*
X59997000Y-64609000D01*
X59997000Y-69069000D02*
X59997000Y-67889000D01*
X59077000Y-64609000D02*
X59077000Y-67889000D01*
X60917000Y-64609000D02*
X59077000Y-64609000D01*
X60917000Y-67889000D02*
X60917000Y-64609000D01*
X59077000Y-67889000D02*
X60917000Y-67889000D01*
X84677000Y-48433000D02*
X86517000Y-48433000D01*
X84677000Y-48193000D02*
X86517000Y-48193000D01*
X84677000Y-48313000D02*
X86517000Y-48313000D01*
X85597000Y-44429000D02*
X85597000Y-45609000D01*
X85597000Y-50069000D02*
X85597000Y-48889000D01*
X84677000Y-45609000D02*
X84677000Y-48889000D01*
X86517000Y-45609000D02*
X84677000Y-45609000D01*
X86517000Y-48889000D02*
X86517000Y-45609000D01*
X84677000Y-48889000D02*
X86517000Y-48889000D01*
X102177000Y-53923000D02*
X104017000Y-53923000D01*
X102177000Y-53683000D02*
X104017000Y-53683000D01*
X102177000Y-53803000D02*
X104017000Y-53803000D01*
X103097000Y-49919000D02*
X103097000Y-51099000D01*
X103097000Y-55559000D02*
X103097000Y-54379000D01*
X102177000Y-51099000D02*
X102177000Y-54379000D01*
X104017000Y-51099000D02*
X102177000Y-51099000D01*
X104017000Y-54379000D02*
X104017000Y-51099000D01*
X102177000Y-54379000D02*
X104017000Y-54379000D01*
X112977000Y-53923000D02*
X114817000Y-53923000D01*
X112977000Y-53683000D02*
X114817000Y-53683000D01*
X112977000Y-53803000D02*
X114817000Y-53803000D01*
X113897000Y-49919000D02*
X113897000Y-51099000D01*
X113897000Y-55559000D02*
X113897000Y-54379000D01*
X112977000Y-51099000D02*
X112977000Y-54379000D01*
X114817000Y-51099000D02*
X112977000Y-51099000D01*
X114817000Y-54379000D02*
X114817000Y-51099000D01*
X112977000Y-54379000D02*
X114817000Y-54379000D01*
X48327000Y-67433000D02*
X50167000Y-67433000D01*
X48327000Y-67193000D02*
X50167000Y-67193000D01*
X48327000Y-67313000D02*
X50167000Y-67313000D01*
X49247000Y-63429000D02*
X49247000Y-64609000D01*
X49247000Y-69069000D02*
X49247000Y-67889000D01*
X48327000Y-64609000D02*
X48327000Y-67889000D01*
X50167000Y-64609000D02*
X48327000Y-64609000D01*
X50167000Y-67889000D02*
X50167000Y-64609000D01*
X48327000Y-67889000D02*
X50167000Y-67889000D01*
X56577000Y-67433000D02*
X58417000Y-67433000D01*
X56577000Y-67193000D02*
X58417000Y-67193000D01*
X56577000Y-67313000D02*
X58417000Y-67313000D01*
X57497000Y-63429000D02*
X57497000Y-64609000D01*
X57497000Y-69069000D02*
X57497000Y-67889000D01*
X56577000Y-64609000D02*
X56577000Y-67889000D01*
X58417000Y-64609000D02*
X56577000Y-64609000D01*
X58417000Y-67889000D02*
X58417000Y-64609000D01*
X56577000Y-67889000D02*
X58417000Y-67889000D01*
X86777000Y-48433000D02*
X88617000Y-48433000D01*
X86777000Y-48193000D02*
X88617000Y-48193000D01*
X86777000Y-48313000D02*
X88617000Y-48313000D01*
X87697000Y-44429000D02*
X87697000Y-45609000D01*
X87697000Y-50069000D02*
X87697000Y-48889000D01*
X86777000Y-45609000D02*
X86777000Y-48889000D01*
X88617000Y-45609000D02*
X86777000Y-45609000D01*
X88617000Y-48889000D02*
X88617000Y-45609000D01*
X86777000Y-48889000D02*
X88617000Y-48889000D01*
X104277000Y-53923000D02*
X106117000Y-53923000D01*
X104277000Y-53683000D02*
X106117000Y-53683000D01*
X104277000Y-53803000D02*
X106117000Y-53803000D01*
X105197000Y-49919000D02*
X105197000Y-51099000D01*
X105197000Y-55559000D02*
X105197000Y-54379000D01*
X104277000Y-51099000D02*
X104277000Y-54379000D01*
X106117000Y-51099000D02*
X104277000Y-51099000D01*
X106117000Y-54379000D02*
X106117000Y-51099000D01*
X104277000Y-54379000D02*
X106117000Y-54379000D01*
X115077000Y-53923000D02*
X116917000Y-53923000D01*
X115077000Y-53683000D02*
X116917000Y-53683000D01*
X115077000Y-53803000D02*
X116917000Y-53803000D01*
X115997000Y-49919000D02*
X115997000Y-51099000D01*
X115997000Y-55559000D02*
X115997000Y-54379000D01*
X115077000Y-51099000D02*
X115077000Y-54379000D01*
X116917000Y-51099000D02*
X115077000Y-51099000D01*
X116917000Y-54379000D02*
X116917000Y-51099000D01*
X115077000Y-54379000D02*
X116917000Y-54379000D01*
X50827000Y-67433000D02*
X52667000Y-67433000D01*
X50827000Y-67193000D02*
X52667000Y-67193000D01*
X50827000Y-67313000D02*
X52667000Y-67313000D01*
X51747000Y-63429000D02*
X51747000Y-64609000D01*
X51747000Y-69069000D02*
X51747000Y-67889000D01*
X50827000Y-64609000D02*
X50827000Y-67889000D01*
X52667000Y-64609000D02*
X50827000Y-64609000D01*
X52667000Y-67889000D02*
X52667000Y-64609000D01*
X50827000Y-67889000D02*
X52667000Y-67889000D01*
X54077000Y-67433000D02*
X55917000Y-67433000D01*
X54077000Y-67193000D02*
X55917000Y-67193000D01*
X54077000Y-67313000D02*
X55917000Y-67313000D01*
X54997000Y-63429000D02*
X54997000Y-64609000D01*
X54997000Y-69069000D02*
X54997000Y-67889000D01*
X54077000Y-64609000D02*
X54077000Y-67889000D01*
X55917000Y-64609000D02*
X54077000Y-64609000D01*
X55917000Y-67889000D02*
X55917000Y-64609000D01*
X54077000Y-67889000D02*
X55917000Y-67889000D01*
X88877000Y-48433000D02*
X90717000Y-48433000D01*
X88877000Y-48193000D02*
X90717000Y-48193000D01*
X88877000Y-48313000D02*
X90717000Y-48313000D01*
X89797000Y-44429000D02*
X89797000Y-45609000D01*
X89797000Y-50069000D02*
X89797000Y-48889000D01*
X88877000Y-45609000D02*
X88877000Y-48889000D01*
X90717000Y-45609000D02*
X88877000Y-45609000D01*
X90717000Y-48889000D02*
X90717000Y-45609000D01*
X88877000Y-48889000D02*
X90717000Y-48889000D01*
X106377000Y-53923000D02*
X108217000Y-53923000D01*
X106377000Y-53683000D02*
X108217000Y-53683000D01*
X106377000Y-53803000D02*
X108217000Y-53803000D01*
X107297000Y-49919000D02*
X107297000Y-51099000D01*
X107297000Y-55559000D02*
X107297000Y-54379000D01*
X106377000Y-51099000D02*
X106377000Y-54379000D01*
X108217000Y-51099000D02*
X106377000Y-51099000D01*
X108217000Y-54379000D02*
X108217000Y-51099000D01*
X106377000Y-54379000D02*
X108217000Y-54379000D01*
X117177000Y-53923000D02*
X119017000Y-53923000D01*
X117177000Y-53683000D02*
X119017000Y-53683000D01*
X117177000Y-53803000D02*
X119017000Y-53803000D01*
X118097000Y-49919000D02*
X118097000Y-51099000D01*
X118097000Y-55559000D02*
X118097000Y-54379000D01*
X117177000Y-51099000D02*
X117177000Y-54379000D01*
X119017000Y-51099000D02*
X117177000Y-51099000D01*
X119017000Y-54379000D02*
X119017000Y-51099000D01*
X117177000Y-54379000D02*
X119017000Y-54379000D01*
X90977000Y-48433000D02*
X92817000Y-48433000D01*
X90977000Y-48193000D02*
X92817000Y-48193000D01*
X90977000Y-48313000D02*
X92817000Y-48313000D01*
X91897000Y-44429000D02*
X91897000Y-45609000D01*
X91897000Y-50069000D02*
X91897000Y-48889000D01*
X90977000Y-45609000D02*
X90977000Y-48889000D01*
X92817000Y-45609000D02*
X90977000Y-45609000D01*
X92817000Y-48889000D02*
X92817000Y-45609000D01*
X90977000Y-48889000D02*
X92817000Y-48889000D01*
X108477000Y-53923000D02*
X110317000Y-53923000D01*
X108477000Y-53683000D02*
X110317000Y-53683000D01*
X108477000Y-53803000D02*
X110317000Y-53803000D01*
X109397000Y-49919000D02*
X109397000Y-51099000D01*
X109397000Y-55559000D02*
X109397000Y-54379000D01*
X108477000Y-51099000D02*
X108477000Y-54379000D01*
X110317000Y-51099000D02*
X108477000Y-51099000D01*
X110317000Y-54379000D02*
X110317000Y-51099000D01*
X108477000Y-54379000D02*
X110317000Y-54379000D01*
X119277000Y-53923000D02*
X121117000Y-53923000D01*
X119277000Y-53683000D02*
X121117000Y-53683000D01*
X119277000Y-53803000D02*
X121117000Y-53803000D01*
X120197000Y-49919000D02*
X120197000Y-51099000D01*
X120197000Y-55559000D02*
X120197000Y-54379000D01*
X119277000Y-51099000D02*
X119277000Y-54379000D01*
X121117000Y-51099000D02*
X119277000Y-51099000D01*
X121117000Y-54379000D02*
X121117000Y-51099000D01*
X119277000Y-54379000D02*
X121117000Y-54379000D01*
X85317000Y-105379000D02*
X85317000Y-105709000D01*
X91857000Y-105379000D02*
X85317000Y-105379000D01*
X91857000Y-105709000D02*
X91857000Y-105379000D01*
X85317000Y-108119000D02*
X85317000Y-107789000D01*
X91857000Y-108119000D02*
X85317000Y-108119000D01*
X91857000Y-107789000D02*
X91857000Y-108119000D01*
X85317000Y-108379000D02*
X85317000Y-108709000D01*
X91857000Y-108379000D02*
X85317000Y-108379000D01*
X91857000Y-108709000D02*
X91857000Y-108379000D01*
X85317000Y-111119000D02*
X85317000Y-110789000D01*
X91857000Y-111119000D02*
X85317000Y-111119000D01*
X91857000Y-110789000D02*
X91857000Y-111119000D01*
X135947000Y-113899000D02*
X135947000Y-114974000D01*
X141847000Y-113899000D02*
X135947000Y-113899000D01*
X141847000Y-117799000D02*
X135947000Y-117799000D01*
X103252000Y-43149000D02*
X103252000Y-44649000D01*
X104502000Y-47149000D02*
X109002000Y-47149000D01*
X110252000Y-44649000D02*
X110252000Y-43149000D01*
X109002000Y-40649000D02*
X104502000Y-40649000D01*
D12*
X48257000Y-55039000D02*
X48257000Y-57579000D01*
X45717000Y-57579000D02*
X48257000Y-57579000D01*
X45717000Y-39799000D02*
X45717000Y-57579000D01*
X48257000Y-39799000D02*
X45717000Y-39799000D01*
D10*
G36*
X54736360Y-43757432D02*
G01*
X54936360Y-43757432D01*
X54936360Y-43857432D01*
X54736360Y-43857432D01*
X54736360Y-43757432D01*
G37*
X54736360Y-43757432D02*
X54936360Y-43757432D01*
X54936360Y-43857432D01*
X54736360Y-43857432D01*
X54736360Y-43757432D01*
G36*
X54136360Y-44157432D02*
G01*
X54936360Y-44157432D01*
X54936360Y-44257432D01*
X54136360Y-44257432D01*
X54136360Y-44157432D01*
G37*
X54136360Y-44157432D02*
X54936360Y-44157432D01*
X54936360Y-44257432D01*
X54136360Y-44257432D01*
X54136360Y-44157432D01*
G36*
X54136360Y-43757432D02*
G01*
X54236360Y-43757432D01*
X54236360Y-44257432D01*
X54136360Y-44257432D01*
X54136360Y-43757432D01*
G37*
X54136360Y-43757432D02*
X54236360Y-43757432D01*
X54236360Y-44257432D01*
X54136360Y-44257432D01*
X54136360Y-43757432D01*
G36*
X54536360Y-43957432D02*
G01*
X54636360Y-43957432D01*
X54636360Y-44057432D01*
X54536360Y-44057432D01*
X54536360Y-43957432D01*
G37*
X54536360Y-43957432D02*
X54636360Y-43957432D01*
X54636360Y-44057432D01*
X54536360Y-44057432D01*
X54536360Y-43957432D01*
G36*
X54136360Y-43757432D02*
G01*
X54436360Y-43757432D01*
X54436360Y-43857432D01*
X54136360Y-43857432D01*
X54136360Y-43757432D01*
G37*
X54136360Y-43757432D02*
X54436360Y-43757432D01*
X54436360Y-43857432D01*
X54136360Y-43857432D01*
X54136360Y-43757432D01*
D12*
X50797000Y-55039000D02*
X50797000Y-57579000D01*
X48257000Y-55039000D02*
X50797000Y-55039000D01*
X78737000Y-39799000D02*
X48257000Y-39799000D01*
X78737000Y-57579000D02*
X78737000Y-39799000D01*
X48257000Y-57579000D02*
X78737000Y-57579000D01*
D10*
X88420333Y-109571380D02*
X88087000Y-109095190D01*
X87848904Y-109571380D02*
X87848904Y-108571380D01*
X88229857Y-108571380D01*
X88325095Y-108619000D01*
X88372714Y-108666619D01*
X88420333Y-108761857D01*
X88420333Y-108904714D01*
X88372714Y-108999952D01*
X88325095Y-109047571D01*
X88229857Y-109095190D01*
X87848904Y-109095190D01*
X89372714Y-109571380D02*
X88801285Y-109571380D01*
X89087000Y-109571380D02*
X89087000Y-108571380D01*
X88991761Y-108714238D01*
X88896523Y-108809476D01*
X88801285Y-108857095D01*
X88420333Y-112571380D02*
X88087000Y-112095190D01*
X87848904Y-112571380D02*
X87848904Y-111571380D01*
X88229857Y-111571380D01*
X88325095Y-111619000D01*
X88372714Y-111666619D01*
X88420333Y-111761857D01*
X88420333Y-111904714D01*
X88372714Y-111999952D01*
X88325095Y-112047571D01*
X88229857Y-112095190D01*
X87848904Y-112095190D01*
X88801285Y-111666619D02*
X88848904Y-111619000D01*
X88944142Y-111571380D01*
X89182238Y-111571380D01*
X89277476Y-111619000D01*
X89325095Y-111666619D01*
X89372714Y-111761857D01*
X89372714Y-111857095D01*
X89325095Y-111999952D01*
X88753666Y-112571380D01*
X89372714Y-112571380D01*
X142682714Y-117176380D02*
X142111285Y-117176380D01*
X142397000Y-117176380D02*
X142397000Y-116176380D01*
X142301761Y-116319238D01*
X142206523Y-116414476D01*
X142111285Y-116462095D01*
X49088904Y-54451348D02*
X49088904Y-53994205D01*
X49888904Y-54222776D02*
X49088904Y-54222776D01*
X49088904Y-53803729D02*
X49888904Y-53270395D01*
X49088904Y-53270395D02*
X49888904Y-53803729D01*
X49088904Y-52813252D02*
X49088904Y-52737062D01*
X49127000Y-52660872D01*
X49165095Y-52622776D01*
X49241285Y-52584681D01*
X49393666Y-52546586D01*
X49584142Y-52546586D01*
X49736523Y-52584681D01*
X49812714Y-52622776D01*
X49850809Y-52660872D01*
X49888904Y-52737062D01*
X49888904Y-52813252D01*
X49850809Y-52889443D01*
X49812714Y-52927538D01*
X49736523Y-52965633D01*
X49584142Y-53003729D01*
X49393666Y-53003729D01*
X49241285Y-52965633D01*
X49165095Y-52927538D01*
X49127000Y-52889443D01*
X49088904Y-52813252D01*
X49050809Y-51632300D02*
X50079380Y-52318014D01*
X49888904Y-51365633D02*
X49088904Y-51365633D01*
X49088904Y-51175157D01*
X49127000Y-51060872D01*
X49203190Y-50984681D01*
X49279380Y-50946586D01*
X49431761Y-50908491D01*
X49546047Y-50908491D01*
X49698428Y-50946586D01*
X49774619Y-50984681D01*
X49850809Y-51060872D01*
X49888904Y-51175157D01*
X49888904Y-51365633D01*
X49088904Y-50641824D02*
X49088904Y-50146586D01*
X49393666Y-50413252D01*
X49393666Y-50298967D01*
X49431761Y-50222776D01*
X49469857Y-50184681D01*
X49546047Y-50146586D01*
X49736523Y-50146586D01*
X49812714Y-50184681D01*
X49850809Y-50222776D01*
X49888904Y-50298967D01*
X49888904Y-50527538D01*
X49850809Y-50603729D01*
X49812714Y-50641824D01*
X52428904Y-54740476D02*
X51628904Y-54740476D01*
X51628904Y-54550000D01*
X51667000Y-54435714D01*
X51743190Y-54359523D01*
X51819380Y-54321428D01*
X51971761Y-54283333D01*
X52086047Y-54283333D01*
X52238428Y-54321428D01*
X52314619Y-54359523D01*
X52390809Y-54435714D01*
X52428904Y-54550000D01*
X52428904Y-54740476D01*
X51705095Y-53978571D02*
X51667000Y-53940476D01*
X51628904Y-53864285D01*
X51628904Y-53673809D01*
X51667000Y-53597619D01*
X51705095Y-53559523D01*
X51781285Y-53521428D01*
X51857476Y-53521428D01*
X51971761Y-53559523D01*
X52428904Y-54016666D01*
X52428904Y-53521428D01*
X62588904Y-54740476D02*
X61788904Y-54740476D01*
X61788904Y-54550000D01*
X61827000Y-54435714D01*
X61903190Y-54359523D01*
X61979380Y-54321428D01*
X62131761Y-54283333D01*
X62246047Y-54283333D01*
X62398428Y-54321428D01*
X62474619Y-54359523D01*
X62550809Y-54435714D01*
X62588904Y-54550000D01*
X62588904Y-54740476D01*
X61788904Y-53788095D02*
X61788904Y-53711904D01*
X61827000Y-53635714D01*
X61865095Y-53597619D01*
X61941285Y-53559523D01*
X62093666Y-53521428D01*
X62284142Y-53521428D01*
X62436523Y-53559523D01*
X62512714Y-53597619D01*
X62550809Y-53635714D01*
X62588904Y-53711904D01*
X62588904Y-53788095D01*
X62550809Y-53864285D01*
X62512714Y-53902380D01*
X62436523Y-53940476D01*
X62284142Y-53978571D01*
X62093666Y-53978571D01*
X61941285Y-53940476D01*
X61865095Y-53902380D01*
X61827000Y-53864285D01*
X61788904Y-53788095D01*
X60048904Y-54740476D02*
X59248904Y-54740476D01*
X59248904Y-54550000D01*
X59287000Y-54435714D01*
X59363190Y-54359523D01*
X59439380Y-54321428D01*
X59591761Y-54283333D01*
X59706047Y-54283333D01*
X59858428Y-54321428D01*
X59934619Y-54359523D01*
X60010809Y-54435714D01*
X60048904Y-54550000D01*
X60048904Y-54740476D01*
X60048904Y-53521428D02*
X60048904Y-53978571D01*
X60048904Y-53750000D02*
X59248904Y-53750000D01*
X59363190Y-53826190D01*
X59439380Y-53902380D01*
X59477476Y-53978571D01*
X56747000Y-54759523D02*
X56708904Y-54835714D01*
X56708904Y-54950000D01*
X56747000Y-55064285D01*
X56823190Y-55140476D01*
X56899380Y-55178571D01*
X57051761Y-55216666D01*
X57166047Y-55216666D01*
X57318428Y-55178571D01*
X57394619Y-55140476D01*
X57470809Y-55064285D01*
X57508904Y-54950000D01*
X57508904Y-54873809D01*
X57470809Y-54759523D01*
X57432714Y-54721428D01*
X57166047Y-54721428D01*
X57166047Y-54873809D01*
X57508904Y-54378571D02*
X56708904Y-54378571D01*
X57508904Y-53921428D01*
X56708904Y-53921428D01*
X57508904Y-53540476D02*
X56708904Y-53540476D01*
X56708904Y-53350000D01*
X56747000Y-53235714D01*
X56823190Y-53159523D01*
X56899380Y-53121428D01*
X57051761Y-53083333D01*
X57166047Y-53083333D01*
X57318428Y-53121428D01*
X57394619Y-53159523D01*
X57470809Y-53235714D01*
X57508904Y-53350000D01*
X57508904Y-53540476D01*
X54207000Y-54759523D02*
X54168904Y-54835714D01*
X54168904Y-54950000D01*
X54207000Y-55064285D01*
X54283190Y-55140476D01*
X54359380Y-55178571D01*
X54511761Y-55216666D01*
X54626047Y-55216666D01*
X54778428Y-55178571D01*
X54854619Y-55140476D01*
X54930809Y-55064285D01*
X54968904Y-54950000D01*
X54968904Y-54873809D01*
X54930809Y-54759523D01*
X54892714Y-54721428D01*
X54626047Y-54721428D01*
X54626047Y-54873809D01*
X54968904Y-54378571D02*
X54168904Y-54378571D01*
X54968904Y-53921428D01*
X54168904Y-53921428D01*
X54968904Y-53540476D02*
X54168904Y-53540476D01*
X54168904Y-53350000D01*
X54207000Y-53235714D01*
X54283190Y-53159523D01*
X54359380Y-53121428D01*
X54511761Y-53083333D01*
X54626047Y-53083333D01*
X54778428Y-53121428D01*
X54854619Y-53159523D01*
X54930809Y-53235714D01*
X54968904Y-53350000D01*
X54968904Y-53540476D01*
X65128904Y-54740476D02*
X64328904Y-54740476D01*
X64328904Y-54550000D01*
X64367000Y-54435714D01*
X64443190Y-54359523D01*
X64519380Y-54321428D01*
X64671761Y-54283333D01*
X64786047Y-54283333D01*
X64938428Y-54321428D01*
X65014619Y-54359523D01*
X65090809Y-54435714D01*
X65128904Y-54550000D01*
X65128904Y-54740476D01*
X64595571Y-53597619D02*
X65128904Y-53597619D01*
X64290809Y-53788095D02*
X64862238Y-53978571D01*
X64862238Y-53483333D01*
X67592714Y-54283333D02*
X67630809Y-54321428D01*
X67668904Y-54435714D01*
X67668904Y-54511904D01*
X67630809Y-54626190D01*
X67554619Y-54702380D01*
X67478428Y-54740476D01*
X67326047Y-54778571D01*
X67211761Y-54778571D01*
X67059380Y-54740476D01*
X66983190Y-54702380D01*
X66907000Y-54626190D01*
X66868904Y-54511904D01*
X66868904Y-54435714D01*
X66907000Y-54321428D01*
X66945095Y-54283333D01*
X66868904Y-53597619D02*
X66868904Y-53750000D01*
X66907000Y-53826190D01*
X66945095Y-53864285D01*
X67059380Y-53940476D01*
X67211761Y-53978571D01*
X67516523Y-53978571D01*
X67592714Y-53940476D01*
X67630809Y-53902380D01*
X67668904Y-53826190D01*
X67668904Y-53673809D01*
X67630809Y-53597619D01*
X67592714Y-53559523D01*
X67516523Y-53521428D01*
X67326047Y-53521428D01*
X67249857Y-53559523D01*
X67211761Y-53597619D01*
X67173666Y-53673809D01*
X67173666Y-53826190D01*
X67211761Y-53902380D01*
X67249857Y-53940476D01*
X67326047Y-53978571D01*
X70208904Y-54740476D02*
X69408904Y-54740476D01*
X69408904Y-54550000D01*
X69447000Y-54435714D01*
X69523190Y-54359523D01*
X69599380Y-54321428D01*
X69751761Y-54283333D01*
X69866047Y-54283333D01*
X70018428Y-54321428D01*
X70094619Y-54359523D01*
X70170809Y-54435714D01*
X70208904Y-54550000D01*
X70208904Y-54740476D01*
X69408904Y-54016666D02*
X69408904Y-53483333D01*
X70208904Y-53826190D01*
X72329857Y-54702380D02*
X72329857Y-54435714D01*
X72748904Y-54321428D02*
X72748904Y-54702380D01*
X71948904Y-54702380D01*
X71948904Y-54321428D01*
X71948904Y-53635714D02*
X71948904Y-53788095D01*
X71987000Y-53864285D01*
X72025095Y-53902380D01*
X72139380Y-53978571D01*
X72291761Y-54016666D01*
X72596523Y-54016666D01*
X72672714Y-53978571D01*
X72710809Y-53940476D01*
X72748904Y-53864285D01*
X72748904Y-53711904D01*
X72710809Y-53635714D01*
X72672714Y-53597619D01*
X72596523Y-53559523D01*
X72406047Y-53559523D01*
X72329857Y-53597619D01*
X72291761Y-53635714D01*
X72253666Y-53711904D01*
X72253666Y-53864285D01*
X72291761Y-53940476D01*
X72329857Y-53978571D01*
X72406047Y-54016666D01*
X74869857Y-54473809D02*
X74907952Y-54359523D01*
X74946047Y-54321428D01*
X75022238Y-54283333D01*
X75136523Y-54283333D01*
X75212714Y-54321428D01*
X75250809Y-54359523D01*
X75288904Y-54435714D01*
X75288904Y-54740476D01*
X74488904Y-54740476D01*
X74488904Y-54473809D01*
X74527000Y-54397619D01*
X74565095Y-54359523D01*
X74641285Y-54321428D01*
X74717476Y-54321428D01*
X74793666Y-54359523D01*
X74831761Y-54397619D01*
X74869857Y-54473809D01*
X74869857Y-54740476D01*
X74755571Y-53597619D02*
X75288904Y-53597619D01*
X74450809Y-53788095D02*
X75022238Y-53978571D01*
X75022238Y-53483333D01*
X77409857Y-54473809D02*
X77447952Y-54359523D01*
X77486047Y-54321428D01*
X77562238Y-54283333D01*
X77676523Y-54283333D01*
X77752714Y-54321428D01*
X77790809Y-54359523D01*
X77828904Y-54435714D01*
X77828904Y-54740476D01*
X77028904Y-54740476D01*
X77028904Y-54473809D01*
X77067000Y-54397619D01*
X77105095Y-54359523D01*
X77181285Y-54321428D01*
X77257476Y-54321428D01*
X77333666Y-54359523D01*
X77371761Y-54397619D01*
X77409857Y-54473809D01*
X77409857Y-54740476D01*
X77028904Y-53559523D02*
X77028904Y-53940476D01*
X77409857Y-53978571D01*
X77371761Y-53940476D01*
X77333666Y-53864285D01*
X77333666Y-53673809D01*
X77371761Y-53597619D01*
X77409857Y-53559523D01*
X77486047Y-53521428D01*
X77676523Y-53521428D01*
X77752714Y-53559523D01*
X77790809Y-53597619D01*
X77828904Y-53673809D01*
X77828904Y-53864285D01*
X77790809Y-53940476D01*
X77752714Y-53978571D01*
X77409857Y-43551809D02*
X77447952Y-43437523D01*
X77486047Y-43399428D01*
X77562238Y-43361333D01*
X77676523Y-43361333D01*
X77752714Y-43399428D01*
X77790809Y-43437523D01*
X77828904Y-43513714D01*
X77828904Y-43818476D01*
X77028904Y-43818476D01*
X77028904Y-43551809D01*
X77067000Y-43475619D01*
X77105095Y-43437523D01*
X77181285Y-43399428D01*
X77257476Y-43399428D01*
X77333666Y-43437523D01*
X77371761Y-43475619D01*
X77409857Y-43551809D01*
X77409857Y-43818476D01*
X77028904Y-42675619D02*
X77028904Y-42828000D01*
X77067000Y-42904190D01*
X77105095Y-42942285D01*
X77219380Y-43018476D01*
X77371761Y-43056571D01*
X77676523Y-43056571D01*
X77752714Y-43018476D01*
X77790809Y-42980380D01*
X77828904Y-42904190D01*
X77828904Y-42751809D01*
X77790809Y-42675619D01*
X77752714Y-42637523D01*
X77676523Y-42599428D01*
X77486047Y-42599428D01*
X77409857Y-42637523D01*
X77371761Y-42675619D01*
X77333666Y-42751809D01*
X77333666Y-42904190D01*
X77371761Y-42980380D01*
X77409857Y-43018476D01*
X77486047Y-43056571D01*
X72329857Y-43551809D02*
X72367952Y-43437523D01*
X72406047Y-43399428D01*
X72482238Y-43361333D01*
X72596523Y-43361333D01*
X72672714Y-43399428D01*
X72710809Y-43437523D01*
X72748904Y-43513714D01*
X72748904Y-43818476D01*
X71948904Y-43818476D01*
X71948904Y-43551809D01*
X71987000Y-43475619D01*
X72025095Y-43437523D01*
X72101285Y-43399428D01*
X72177476Y-43399428D01*
X72253666Y-43437523D01*
X72291761Y-43475619D01*
X72329857Y-43551809D01*
X72329857Y-43818476D01*
X71948904Y-43094666D02*
X71948904Y-42599428D01*
X72253666Y-42866095D01*
X72253666Y-42751809D01*
X72291761Y-42675619D01*
X72329857Y-42637523D01*
X72406047Y-42599428D01*
X72596523Y-42599428D01*
X72672714Y-42637523D01*
X72710809Y-42675619D01*
X72748904Y-42751809D01*
X72748904Y-42980380D01*
X72710809Y-43056571D01*
X72672714Y-43094666D01*
X69789857Y-43551809D02*
X69827952Y-43437523D01*
X69866047Y-43399428D01*
X69942238Y-43361333D01*
X70056523Y-43361333D01*
X70132714Y-43399428D01*
X70170809Y-43437523D01*
X70208904Y-43513714D01*
X70208904Y-43818476D01*
X69408904Y-43818476D01*
X69408904Y-43551809D01*
X69447000Y-43475619D01*
X69485095Y-43437523D01*
X69561285Y-43399428D01*
X69637476Y-43399428D01*
X69713666Y-43437523D01*
X69751761Y-43475619D01*
X69789857Y-43551809D01*
X69789857Y-43818476D01*
X70208904Y-42599428D02*
X70208904Y-43056571D01*
X70208904Y-42828000D02*
X69408904Y-42828000D01*
X69523190Y-42904190D01*
X69599380Y-42980380D01*
X69637476Y-43056571D01*
X59629857Y-43494666D02*
X59629857Y-43761333D01*
X60048904Y-43761333D02*
X59248904Y-43761333D01*
X59248904Y-43380380D01*
X59515571Y-42732761D02*
X60048904Y-42732761D01*
X59210809Y-42923238D02*
X59782238Y-43113714D01*
X59782238Y-42618476D01*
X56708904Y-44294666D02*
X57508904Y-44028000D01*
X56708904Y-43761333D01*
X57432714Y-43037523D02*
X57470809Y-43075619D01*
X57508904Y-43189904D01*
X57508904Y-43266095D01*
X57470809Y-43380380D01*
X57394619Y-43456571D01*
X57318428Y-43494666D01*
X57166047Y-43532761D01*
X57051761Y-43532761D01*
X56899380Y-43494666D01*
X56823190Y-43456571D01*
X56747000Y-43380380D01*
X56708904Y-43266095D01*
X56708904Y-43189904D01*
X56747000Y-43075619D01*
X56785095Y-43037523D01*
X57432714Y-42237523D02*
X57470809Y-42275619D01*
X57508904Y-42389904D01*
X57508904Y-42466095D01*
X57470809Y-42580380D01*
X57394619Y-42656571D01*
X57318428Y-42694666D01*
X57166047Y-42732761D01*
X57051761Y-42732761D01*
X56899380Y-42694666D01*
X56823190Y-42656571D01*
X56747000Y-42580380D01*
X56708904Y-42466095D01*
X56708904Y-42389904D01*
X56747000Y-42275619D01*
X56785095Y-42237523D01*
X54900809Y-43489213D02*
X54938904Y-43374927D01*
X54938904Y-43184451D01*
X54900809Y-43108260D01*
X54862714Y-43070165D01*
X54786523Y-43032070D01*
X54710333Y-43032070D01*
X54634142Y-43070165D01*
X54596047Y-43108260D01*
X54557952Y-43184451D01*
X54519857Y-43336832D01*
X54481761Y-43413022D01*
X54443666Y-43451118D01*
X54367476Y-43489213D01*
X54291285Y-43489213D01*
X54215095Y-43451118D01*
X54177000Y-43413022D01*
X54138904Y-43336832D01*
X54138904Y-43146356D01*
X54177000Y-43032070D01*
X54138904Y-42803499D02*
X54138904Y-42346356D01*
X54938904Y-42574927D02*
X54138904Y-42574927D01*
X51667000Y-43837523D02*
X51628904Y-43913714D01*
X51628904Y-44028000D01*
X51667000Y-44142285D01*
X51743190Y-44218476D01*
X51819380Y-44256571D01*
X51971761Y-44294666D01*
X52086047Y-44294666D01*
X52238428Y-44256571D01*
X52314619Y-44218476D01*
X52390809Y-44142285D01*
X52428904Y-44028000D01*
X52428904Y-43951809D01*
X52390809Y-43837523D01*
X52352714Y-43799428D01*
X52086047Y-43799428D01*
X52086047Y-43951809D01*
X52428904Y-43456571D02*
X51628904Y-43456571D01*
X52428904Y-42999428D01*
X51628904Y-42999428D01*
X52428904Y-42618476D02*
X51628904Y-42618476D01*
X51628904Y-42428000D01*
X51667000Y-42313714D01*
X51743190Y-42237523D01*
X51819380Y-42199428D01*
X51971761Y-42161333D01*
X52086047Y-42161333D01*
X52238428Y-42199428D01*
X52314619Y-42237523D01*
X52390809Y-42313714D01*
X52428904Y-42428000D01*
X52428904Y-42618476D01*
X49888904Y-43780380D02*
X49507952Y-44047047D01*
X49888904Y-44237523D02*
X49088904Y-44237523D01*
X49088904Y-43932761D01*
X49127000Y-43856571D01*
X49165095Y-43818476D01*
X49241285Y-43780380D01*
X49355571Y-43780380D01*
X49431761Y-43818476D01*
X49469857Y-43856571D01*
X49507952Y-43932761D01*
X49507952Y-44237523D01*
X49660333Y-43475619D02*
X49660333Y-43094666D01*
X49888904Y-43551809D02*
X49088904Y-43285142D01*
X49888904Y-43018476D01*
X49088904Y-42828000D02*
X49888904Y-42637523D01*
X49317476Y-42485142D01*
X49888904Y-42332761D01*
X49088904Y-42142285D01*
X62169857Y-43494666D02*
X62169857Y-43761333D01*
X62588904Y-43761333D02*
X61788904Y-43761333D01*
X61788904Y-43380380D01*
X61788904Y-42694666D02*
X61788904Y-43075619D01*
X62169857Y-43113714D01*
X62131761Y-43075619D01*
X62093666Y-42999428D01*
X62093666Y-42808952D01*
X62131761Y-42732761D01*
X62169857Y-42694666D01*
X62246047Y-42656571D01*
X62436523Y-42656571D01*
X62512714Y-42694666D01*
X62550809Y-42732761D01*
X62588904Y-42808952D01*
X62588904Y-42999428D01*
X62550809Y-43075619D01*
X62512714Y-43113714D01*
X64709857Y-43494666D02*
X64709857Y-43761333D01*
X65128904Y-43761333D02*
X64328904Y-43761333D01*
X64328904Y-43380380D01*
X64328904Y-42732761D02*
X64328904Y-42885142D01*
X64367000Y-42961333D01*
X64405095Y-42999428D01*
X64519380Y-43075619D01*
X64671761Y-43113714D01*
X64976523Y-43113714D01*
X65052714Y-43075619D01*
X65090809Y-43037523D01*
X65128904Y-42961333D01*
X65128904Y-42808952D01*
X65090809Y-42732761D01*
X65052714Y-42694666D01*
X64976523Y-42656571D01*
X64786047Y-42656571D01*
X64709857Y-42694666D01*
X64671761Y-42732761D01*
X64633666Y-42808952D01*
X64633666Y-42961333D01*
X64671761Y-43037523D01*
X64709857Y-43075619D01*
X64786047Y-43113714D01*
X67249857Y-43494666D02*
X67249857Y-43761333D01*
X67668904Y-43761333D02*
X66868904Y-43761333D01*
X66868904Y-43380380D01*
X66868904Y-43151809D02*
X66868904Y-42618476D01*
X67668904Y-42961333D01*
X74869857Y-43551809D02*
X74907952Y-43437523D01*
X74946047Y-43399428D01*
X75022238Y-43361333D01*
X75136523Y-43361333D01*
X75212714Y-43399428D01*
X75250809Y-43437523D01*
X75288904Y-43513714D01*
X75288904Y-43818476D01*
X74488904Y-43818476D01*
X74488904Y-43551809D01*
X74527000Y-43475619D01*
X74565095Y-43437523D01*
X74641285Y-43399428D01*
X74717476Y-43399428D01*
X74793666Y-43437523D01*
X74831761Y-43475619D01*
X74869857Y-43551809D01*
X74869857Y-43818476D01*
X74565095Y-43056571D02*
X74527000Y-43018476D01*
X74488904Y-42942285D01*
X74488904Y-42751809D01*
X74527000Y-42675619D01*
X74565095Y-42637523D01*
X74641285Y-42599428D01*
X74717476Y-42599428D01*
X74831761Y-42637523D01*
X75288904Y-43094666D01*
X75288904Y-42599428D01*
M02*
