G04 #@! TF.GenerationSoftware,KiCad,Pcbnew,5.1.8*
G04 #@! TF.CreationDate,2021-03-09T15:57:41-06:00*
G04 #@! TF.ProjectId,fissure,66697373-7572-4652-9e6b-696361645f70,rev?*
G04 #@! TF.SameCoordinates,Original*
G04 #@! TF.FileFunction,Legend,Top*
G04 #@! TF.FilePolarity,Positive*
%FSLAX46Y46*%
G04 Gerber Fmt 4.6, Leading zero omitted, Abs format (unit mm)*
G04 Created by KiCad (PCBNEW 5.1.8) date 2021-03-09 15:57:41*
%MOMM*%
%LPD*%
G01*
G04 APERTURE LIST*
%ADD10C,0.150000*%
%ADD11C,0.200000*%
%ADD12C,0.120000*%
G04 APERTURE END LIST*
D10*
X31738095Y-59857142D02*
X31690476Y-59904761D01*
X31547619Y-59952380D01*
X31452380Y-59952380D01*
X31309523Y-59904761D01*
X31214285Y-59809523D01*
X31166666Y-59714285D01*
X31119047Y-59523809D01*
X31119047Y-59380952D01*
X31166666Y-59190476D01*
X31214285Y-59095238D01*
X31309523Y-59000000D01*
X31452380Y-58952380D01*
X31547619Y-58952380D01*
X31690476Y-59000000D01*
X31738095Y-59047619D01*
X32928571Y-59952380D02*
X32928571Y-58952380D01*
X33166666Y-58952380D01*
X33309523Y-59000000D01*
X33404761Y-59095238D01*
X33452380Y-59190476D01*
X33500000Y-59380952D01*
X33500000Y-59523809D01*
X33452380Y-59714285D01*
X33404761Y-59809523D01*
X33309523Y-59904761D01*
X33166666Y-59952380D01*
X32928571Y-59952380D01*
X35214285Y-59000000D02*
X35119047Y-58952380D01*
X34976190Y-58952380D01*
X34833333Y-59000000D01*
X34738095Y-59095238D01*
X34690476Y-59190476D01*
X34642857Y-59380952D01*
X34642857Y-59523809D01*
X34690476Y-59714285D01*
X34738095Y-59809523D01*
X34833333Y-59904761D01*
X34976190Y-59952380D01*
X35071428Y-59952380D01*
X35214285Y-59904761D01*
X35261904Y-59857142D01*
X35261904Y-59523809D01*
X35071428Y-59523809D01*
X36309523Y-58952380D02*
X36642857Y-59952380D01*
X36976190Y-58952380D01*
D11*
X132685714Y-75657142D02*
X132638095Y-75704761D01*
X132495238Y-75752380D01*
X132400000Y-75752380D01*
X132257142Y-75704761D01*
X132161904Y-75609523D01*
X132114285Y-75514285D01*
X132066666Y-75323809D01*
X132066666Y-75180952D01*
X132114285Y-74990476D01*
X132161904Y-74895238D01*
X132257142Y-74800000D01*
X132400000Y-74752380D01*
X132495238Y-74752380D01*
X132638095Y-74800000D01*
X132685714Y-74847619D01*
X133114285Y-75752380D02*
X133114285Y-74752380D01*
X133114285Y-75228571D02*
X133685714Y-75228571D01*
X133685714Y-75752380D02*
X133685714Y-74752380D01*
X134685714Y-74800000D02*
X134590476Y-74752380D01*
X134447619Y-74752380D01*
X134304761Y-74800000D01*
X134209523Y-74895238D01*
X134161904Y-74990476D01*
X134114285Y-75180952D01*
X134114285Y-75323809D01*
X134161904Y-75514285D01*
X134209523Y-75609523D01*
X134304761Y-75704761D01*
X134447619Y-75752380D01*
X134542857Y-75752380D01*
X134685714Y-75704761D01*
X134733333Y-75657142D01*
X134733333Y-75323809D01*
X134542857Y-75323809D01*
D10*
X31280952Y-70652380D02*
X31280952Y-71366666D01*
X31233333Y-71509523D01*
X31138095Y-71604761D01*
X30995238Y-71652380D01*
X30900000Y-71652380D01*
X32233333Y-71652380D02*
X31757142Y-71652380D01*
X31757142Y-70652380D01*
X33138095Y-71557142D02*
X33090476Y-71604761D01*
X32947619Y-71652380D01*
X32852380Y-71652380D01*
X32709523Y-71604761D01*
X32614285Y-71509523D01*
X32566666Y-71414285D01*
X32519047Y-71223809D01*
X32519047Y-71080952D01*
X32566666Y-70890476D01*
X32614285Y-70795238D01*
X32709523Y-70700000D01*
X32852380Y-70652380D01*
X32947619Y-70652380D01*
X33090476Y-70700000D01*
X33138095Y-70747619D01*
X33852380Y-70652380D02*
X33852380Y-71366666D01*
X33804761Y-71509523D01*
X33709523Y-71604761D01*
X33566666Y-71652380D01*
X33471428Y-71652380D01*
X34804761Y-71652380D02*
X34328571Y-71652380D01*
X34328571Y-70652380D01*
X35709523Y-71557142D02*
X35661904Y-71604761D01*
X35519047Y-71652380D01*
X35423809Y-71652380D01*
X35280952Y-71604761D01*
X35185714Y-71509523D01*
X35138095Y-71414285D01*
X35090476Y-71223809D01*
X35090476Y-71080952D01*
X35138095Y-70890476D01*
X35185714Y-70795238D01*
X35280952Y-70700000D01*
X35423809Y-70652380D01*
X35519047Y-70652380D01*
X35661904Y-70700000D01*
X35709523Y-70747619D01*
X36423809Y-70652380D02*
X36423809Y-71366666D01*
X36376190Y-71509523D01*
X36280952Y-71604761D01*
X36138095Y-71652380D01*
X36042857Y-71652380D01*
X37376190Y-71652380D02*
X36900000Y-71652380D01*
X36900000Y-70652380D01*
X38280952Y-71557142D02*
X38233333Y-71604761D01*
X38090476Y-71652380D01*
X37995238Y-71652380D01*
X37852380Y-71604761D01*
X37757142Y-71509523D01*
X37709523Y-71414285D01*
X37661904Y-71223809D01*
X37661904Y-71080952D01*
X37709523Y-70890476D01*
X37757142Y-70795238D01*
X37852380Y-70700000D01*
X37995238Y-70652380D01*
X38090476Y-70652380D01*
X38233333Y-70700000D01*
X38280952Y-70747619D01*
X38995238Y-70652380D02*
X38995238Y-71366666D01*
X38947619Y-71509523D01*
X38852380Y-71604761D01*
X38709523Y-71652380D01*
X38614285Y-71652380D01*
X39947619Y-71652380D02*
X39471428Y-71652380D01*
X39471428Y-70652380D01*
X40852380Y-71557142D02*
X40804761Y-71604761D01*
X40661904Y-71652380D01*
X40566666Y-71652380D01*
X40423809Y-71604761D01*
X40328571Y-71509523D01*
X40280952Y-71414285D01*
X40233333Y-71223809D01*
X40233333Y-71080952D01*
X40280952Y-70890476D01*
X40328571Y-70795238D01*
X40423809Y-70700000D01*
X40566666Y-70652380D01*
X40661904Y-70652380D01*
X40804761Y-70700000D01*
X40852380Y-70747619D01*
D11*
X131790476Y-63928571D02*
X131933333Y-63976190D01*
X131980952Y-64023809D01*
X132028571Y-64119047D01*
X132028571Y-64261904D01*
X131980952Y-64357142D01*
X131933333Y-64404761D01*
X131838095Y-64452380D01*
X131457142Y-64452380D01*
X131457142Y-63452380D01*
X131790476Y-63452380D01*
X131885714Y-63500000D01*
X131933333Y-63547619D01*
X131980952Y-63642857D01*
X131980952Y-63738095D01*
X131933333Y-63833333D01*
X131885714Y-63880952D01*
X131790476Y-63928571D01*
X131457142Y-63928571D01*
X132933333Y-64452380D02*
X132457142Y-64452380D01*
X132457142Y-63452380D01*
X133266666Y-63452380D02*
X133266666Y-64261904D01*
X133314285Y-64357142D01*
X133361904Y-64404761D01*
X133457142Y-64452380D01*
X133647619Y-64452380D01*
X133742857Y-64404761D01*
X133790476Y-64357142D01*
X133838095Y-64261904D01*
X133838095Y-63452380D01*
X134314285Y-63928571D02*
X134647619Y-63928571D01*
X134790476Y-64452380D02*
X134314285Y-64452380D01*
X134314285Y-63452380D01*
X134790476Y-63452380D01*
D12*
X33000000Y-115500000D02*
G75*
G03*
X33000000Y-115500000I-3500000J0D01*
G01*
X33000000Y-58750000D02*
G75*
G03*
X33000000Y-58750000I-3500000J0D01*
G01*
X36480000Y-55370000D02*
X36480000Y-58030000D01*
X36480000Y-55370000D02*
X28800000Y-55370000D01*
X28800000Y-55370000D02*
X28800000Y-58030000D01*
X36480000Y-58030000D02*
X28800000Y-58030000D01*
X39080000Y-58030000D02*
X37750000Y-58030000D01*
X39080000Y-56700000D02*
X39080000Y-58030000D01*
X54060000Y-78880000D02*
X54060000Y-77950000D01*
X54060000Y-75720000D02*
X54060000Y-76650000D01*
X54060000Y-75720000D02*
X51900000Y-75720000D01*
X54060000Y-78880000D02*
X52600000Y-78880000D01*
X50037258Y-79022500D02*
X49562742Y-79022500D01*
X50037258Y-77977500D02*
X49562742Y-77977500D01*
X49450000Y-69300000D02*
X47750000Y-69300000D01*
X47750000Y-69300000D02*
X47750000Y-71850000D01*
X49450000Y-69300000D02*
X49450000Y-71850000D01*
D10*
X28850000Y-77900000D02*
X26050000Y-77900000D01*
X26050000Y-77900000D02*
X26050000Y-64100000D01*
X26050000Y-64100000D02*
X28850000Y-64100000D01*
X43350000Y-64100000D02*
X44350000Y-64100000D01*
X44350000Y-64850000D02*
X44350000Y-64100000D01*
X44350000Y-77900000D02*
X44350000Y-77150000D01*
X43350000Y-77900000D02*
X44350000Y-77900000D01*
D12*
X48862742Y-68622500D02*
X49337258Y-68622500D01*
X48862742Y-67577500D02*
X49337258Y-67577500D01*
X44400000Y-59620000D02*
X44200000Y-59620000D01*
X47200000Y-55480000D02*
X47000000Y-55270000D01*
X45900000Y-55480000D02*
X46100000Y-55270000D01*
X47200000Y-56770000D02*
X47200000Y-55480000D01*
X47000000Y-55270000D02*
X46100000Y-55270000D01*
X45900000Y-55480000D02*
X45900000Y-56770000D01*
X48650000Y-56770000D02*
X42950000Y-56770000D01*
X47400000Y-59620000D02*
X45700000Y-59620000D01*
X49250000Y-58570000D02*
X49250000Y-57780000D01*
X42350000Y-57780000D02*
X42350000Y-58570000D01*
X36150000Y-62000000D02*
X36150000Y-61700000D01*
X39450000Y-62000000D02*
X36150000Y-62000000D01*
X39450000Y-61700000D02*
X39450000Y-62000000D01*
X36150000Y-59200000D02*
X36150000Y-59500000D01*
X39450000Y-59200000D02*
X36150000Y-59200000D01*
X39450000Y-59500000D02*
X39450000Y-59200000D01*
X52077500Y-73762742D02*
X52077500Y-74237258D01*
X53122500Y-73762742D02*
X53122500Y-74237258D01*
X54722500Y-74237258D02*
X54722500Y-73762742D01*
X53677500Y-74237258D02*
X53677500Y-73762742D01*
X47037258Y-77977500D02*
X46562742Y-77977500D01*
X47037258Y-79022500D02*
X46562742Y-79022500D01*
X131050000Y-89450000D02*
X131050000Y-83550000D01*
X134950000Y-89450000D02*
X134950000Y-83550000D01*
X134950000Y-83550000D02*
X133875000Y-83550000D01*
X131277500Y-66562742D02*
X131277500Y-67037258D01*
X132322500Y-66562742D02*
X132322500Y-67037258D01*
X132665000Y-70500000D02*
X132665000Y-74385000D01*
X132665000Y-74385000D02*
X134935000Y-74385000D01*
X134935000Y-74385000D02*
X134935000Y-70500000D01*
X56422500Y-74637258D02*
X56422500Y-74162742D01*
X55377500Y-74637258D02*
X55377500Y-74162742D01*
X48540000Y-72620000D02*
X48540000Y-73550000D01*
X48540000Y-75780000D02*
X48540000Y-74850000D01*
X48540000Y-75780000D02*
X50700000Y-75780000D01*
X48540000Y-72620000D02*
X50000000Y-72620000D01*
X56180000Y-69040000D02*
X54420000Y-69040000D01*
X54420000Y-72110000D02*
X56850000Y-72110000D01*
X61300000Y-57400000D02*
X61300000Y-55500000D01*
X61300000Y-61300000D02*
X61300000Y-59300000D01*
X51900000Y-57400000D02*
X51900000Y-55500000D01*
X51900000Y-61300000D02*
X51900000Y-59300000D01*
X61300000Y-55500000D02*
X51900000Y-55500000D01*
X52062742Y-64977500D02*
X52537258Y-64977500D01*
X52062742Y-66022500D02*
X52537258Y-66022500D01*
X52060000Y-72280000D02*
X52060000Y-71350000D01*
X52060000Y-69120000D02*
X52060000Y-70050000D01*
X52060000Y-69120000D02*
X49900000Y-69120000D01*
X52060000Y-72280000D02*
X50600000Y-72280000D01*
X59337258Y-65277500D02*
X58862742Y-65277500D01*
X59337258Y-66322500D02*
X58862742Y-66322500D01*
X134935000Y-69100000D02*
X134935000Y-65215000D01*
X134935000Y-65215000D02*
X132665000Y-65215000D01*
X132665000Y-65215000D02*
X132665000Y-69100000D01*
D10*
X39972380Y-57033333D02*
X40686666Y-57033333D01*
X40829523Y-57080952D01*
X40924761Y-57176190D01*
X40972380Y-57319047D01*
X40972380Y-57414285D01*
X40972380Y-56033333D02*
X40972380Y-56604761D01*
X40972380Y-56319047D02*
X39972380Y-56319047D01*
X40115238Y-56414285D01*
X40210476Y-56509523D01*
X40258095Y-56604761D01*
X54804761Y-80247619D02*
X54709523Y-80200000D01*
X54614285Y-80104761D01*
X54471428Y-79961904D01*
X54376190Y-79914285D01*
X54280952Y-79914285D01*
X54328571Y-80152380D02*
X54233333Y-80104761D01*
X54138095Y-80009523D01*
X54090476Y-79819047D01*
X54090476Y-79485714D01*
X54138095Y-79295238D01*
X54233333Y-79200000D01*
X54328571Y-79152380D01*
X54519047Y-79152380D01*
X54614285Y-79200000D01*
X54709523Y-79295238D01*
X54757142Y-79485714D01*
X54757142Y-79819047D01*
X54709523Y-80009523D01*
X54614285Y-80104761D01*
X54519047Y-80152380D01*
X54328571Y-80152380D01*
X55138095Y-79247619D02*
X55185714Y-79200000D01*
X55280952Y-79152380D01*
X55519047Y-79152380D01*
X55614285Y-79200000D01*
X55661904Y-79247619D01*
X55709523Y-79342857D01*
X55709523Y-79438095D01*
X55661904Y-79580952D01*
X55090476Y-80152380D01*
X55709523Y-80152380D01*
X49733333Y-80352380D02*
X49400000Y-79876190D01*
X49161904Y-80352380D02*
X49161904Y-79352380D01*
X49542857Y-79352380D01*
X49638095Y-79400000D01*
X49685714Y-79447619D01*
X49733333Y-79542857D01*
X49733333Y-79685714D01*
X49685714Y-79780952D01*
X49638095Y-79828571D01*
X49542857Y-79876190D01*
X49161904Y-79876190D01*
X50638095Y-79352380D02*
X50161904Y-79352380D01*
X50114285Y-79828571D01*
X50161904Y-79780952D01*
X50257142Y-79733333D01*
X50495238Y-79733333D01*
X50590476Y-79780952D01*
X50638095Y-79828571D01*
X50685714Y-79923809D01*
X50685714Y-80161904D01*
X50638095Y-80257142D01*
X50590476Y-80304761D01*
X50495238Y-80352380D01*
X50257142Y-80352380D01*
X50161904Y-80304761D01*
X50114285Y-80257142D01*
X46252380Y-71638095D02*
X45252380Y-71638095D01*
X45252380Y-71400000D01*
X45300000Y-71257142D01*
X45395238Y-71161904D01*
X45490476Y-71114285D01*
X45680952Y-71066666D01*
X45823809Y-71066666D01*
X46014285Y-71114285D01*
X46109523Y-71161904D01*
X46204761Y-71257142D01*
X46252380Y-71400000D01*
X46252380Y-71638095D01*
X45252380Y-70733333D02*
X45252380Y-70114285D01*
X45633333Y-70447619D01*
X45633333Y-70304761D01*
X45680952Y-70209523D01*
X45728571Y-70161904D01*
X45823809Y-70114285D01*
X46061904Y-70114285D01*
X46157142Y-70161904D01*
X46204761Y-70209523D01*
X46252380Y-70304761D01*
X46252380Y-70590476D01*
X46204761Y-70685714D01*
X46157142Y-70733333D01*
X46757142Y-67152380D02*
X46423809Y-66676190D01*
X46185714Y-67152380D02*
X46185714Y-66152380D01*
X46566666Y-66152380D01*
X46661904Y-66200000D01*
X46709523Y-66247619D01*
X46757142Y-66342857D01*
X46757142Y-66485714D01*
X46709523Y-66580952D01*
X46661904Y-66628571D01*
X46566666Y-66676190D01*
X46185714Y-66676190D01*
X47709523Y-67152380D02*
X47138095Y-67152380D01*
X47423809Y-67152380D02*
X47423809Y-66152380D01*
X47328571Y-66295238D01*
X47233333Y-66390476D01*
X47138095Y-66438095D01*
X48090476Y-66247619D02*
X48138095Y-66200000D01*
X48233333Y-66152380D01*
X48471428Y-66152380D01*
X48566666Y-66200000D01*
X48614285Y-66247619D01*
X48661904Y-66342857D01*
X48661904Y-66438095D01*
X48614285Y-66580952D01*
X48042857Y-67152380D01*
X48661904Y-67152380D01*
X51952380Y-74742857D02*
X51476190Y-75076190D01*
X51952380Y-75314285D02*
X50952380Y-75314285D01*
X50952380Y-74933333D01*
X51000000Y-74838095D01*
X51047619Y-74790476D01*
X51142857Y-74742857D01*
X51285714Y-74742857D01*
X51380952Y-74790476D01*
X51428571Y-74838095D01*
X51476190Y-74933333D01*
X51476190Y-75314285D01*
X51952380Y-73790476D02*
X51952380Y-74361904D01*
X51952380Y-74076190D02*
X50952380Y-74076190D01*
X51095238Y-74171428D01*
X51190476Y-74266666D01*
X51238095Y-74361904D01*
X50952380Y-73171428D02*
X50952380Y-73076190D01*
X51000000Y-72980952D01*
X51047619Y-72933333D01*
X51142857Y-72885714D01*
X51333333Y-72838095D01*
X51571428Y-72838095D01*
X51761904Y-72885714D01*
X51857142Y-72933333D01*
X51904761Y-72980952D01*
X51952380Y-73076190D01*
X51952380Y-73171428D01*
X51904761Y-73266666D01*
X51857142Y-73314285D01*
X51761904Y-73361904D01*
X51571428Y-73409523D01*
X51333333Y-73409523D01*
X51142857Y-73361904D01*
X51047619Y-73314285D01*
X51000000Y-73266666D01*
X50952380Y-73171428D01*
X55757142Y-76952380D02*
X55423809Y-76476190D01*
X55185714Y-76952380D02*
X55185714Y-75952380D01*
X55566666Y-75952380D01*
X55661904Y-76000000D01*
X55709523Y-76047619D01*
X55757142Y-76142857D01*
X55757142Y-76285714D01*
X55709523Y-76380952D01*
X55661904Y-76428571D01*
X55566666Y-76476190D01*
X55185714Y-76476190D01*
X56709523Y-76952380D02*
X56138095Y-76952380D01*
X56423809Y-76952380D02*
X56423809Y-75952380D01*
X56328571Y-76095238D01*
X56233333Y-76190476D01*
X56138095Y-76238095D01*
X57661904Y-76952380D02*
X57090476Y-76952380D01*
X57376190Y-76952380D02*
X57376190Y-75952380D01*
X57280952Y-76095238D01*
X57185714Y-76190476D01*
X57090476Y-76238095D01*
X46633333Y-80382380D02*
X46300000Y-79906190D01*
X46061904Y-80382380D02*
X46061904Y-79382380D01*
X46442857Y-79382380D01*
X46538095Y-79430000D01*
X46585714Y-79477619D01*
X46633333Y-79572857D01*
X46633333Y-79715714D01*
X46585714Y-79810952D01*
X46538095Y-79858571D01*
X46442857Y-79906190D01*
X46061904Y-79906190D01*
X47204761Y-79810952D02*
X47109523Y-79763333D01*
X47061904Y-79715714D01*
X47014285Y-79620476D01*
X47014285Y-79572857D01*
X47061904Y-79477619D01*
X47109523Y-79430000D01*
X47204761Y-79382380D01*
X47395238Y-79382380D01*
X47490476Y-79430000D01*
X47538095Y-79477619D01*
X47585714Y-79572857D01*
X47585714Y-79620476D01*
X47538095Y-79715714D01*
X47490476Y-79763333D01*
X47395238Y-79810952D01*
X47204761Y-79810952D01*
X47109523Y-79858571D01*
X47061904Y-79906190D01*
X47014285Y-80001428D01*
X47014285Y-80191904D01*
X47061904Y-80287142D01*
X47109523Y-80334761D01*
X47204761Y-80382380D01*
X47395238Y-80382380D01*
X47490476Y-80334761D01*
X47538095Y-80287142D01*
X47585714Y-80191904D01*
X47585714Y-80001428D01*
X47538095Y-79906190D01*
X47490476Y-79858571D01*
X47395238Y-79810952D01*
X132577380Y-89714285D02*
X132577380Y-90285714D01*
X132577380Y-90000000D02*
X131577380Y-90000000D01*
X131720238Y-90095238D01*
X131815476Y-90190476D01*
X131863095Y-90285714D01*
X130133333Y-64852380D02*
X129800000Y-64376190D01*
X129561904Y-64852380D02*
X129561904Y-63852380D01*
X129942857Y-63852380D01*
X130038095Y-63900000D01*
X130085714Y-63947619D01*
X130133333Y-64042857D01*
X130133333Y-64185714D01*
X130085714Y-64280952D01*
X130038095Y-64328571D01*
X129942857Y-64376190D01*
X129561904Y-64376190D01*
X130990476Y-64185714D02*
X130990476Y-64852380D01*
X130752380Y-63804761D02*
X130514285Y-64519047D01*
X131133333Y-64519047D01*
X57752380Y-74366666D02*
X57276190Y-74700000D01*
X57752380Y-74938095D02*
X56752380Y-74938095D01*
X56752380Y-74557142D01*
X56800000Y-74461904D01*
X56847619Y-74414285D01*
X56942857Y-74366666D01*
X57085714Y-74366666D01*
X57180952Y-74414285D01*
X57228571Y-74461904D01*
X57276190Y-74557142D01*
X57276190Y-74938095D01*
X56752380Y-73509523D02*
X56752380Y-73700000D01*
X56800000Y-73795238D01*
X56847619Y-73842857D01*
X56990476Y-73938095D01*
X57180952Y-73985714D01*
X57561904Y-73985714D01*
X57657142Y-73938095D01*
X57704761Y-73890476D01*
X57752380Y-73795238D01*
X57752380Y-73604761D01*
X57704761Y-73509523D01*
X57657142Y-73461904D01*
X57561904Y-73414285D01*
X57323809Y-73414285D01*
X57228571Y-73461904D01*
X57180952Y-73509523D01*
X57133333Y-73604761D01*
X57133333Y-73795238D01*
X57180952Y-73890476D01*
X57228571Y-73938095D01*
X57323809Y-73985714D01*
X48538095Y-76252380D02*
X48538095Y-77061904D01*
X48585714Y-77157142D01*
X48633333Y-77204761D01*
X48728571Y-77252380D01*
X48919047Y-77252380D01*
X49014285Y-77204761D01*
X49061904Y-77157142D01*
X49109523Y-77061904D01*
X49109523Y-76252380D01*
X50014285Y-76585714D02*
X50014285Y-77252380D01*
X49776190Y-76204761D02*
X49538095Y-76919047D01*
X50157142Y-76919047D01*
X56138095Y-67652380D02*
X56138095Y-68461904D01*
X56185714Y-68557142D01*
X56233333Y-68604761D01*
X56328571Y-68652380D01*
X56519047Y-68652380D01*
X56614285Y-68604761D01*
X56661904Y-68557142D01*
X56709523Y-68461904D01*
X56709523Y-67652380D01*
X57090476Y-67652380D02*
X57709523Y-67652380D01*
X57376190Y-68033333D01*
X57519047Y-68033333D01*
X57614285Y-68080952D01*
X57661904Y-68128571D01*
X57709523Y-68223809D01*
X57709523Y-68461904D01*
X57661904Y-68557142D01*
X57614285Y-68604761D01*
X57519047Y-68652380D01*
X57233333Y-68652380D01*
X57138095Y-68604761D01*
X57090476Y-68557142D01*
X49733333Y-65252380D02*
X49400000Y-64776190D01*
X49161904Y-65252380D02*
X49161904Y-64252380D01*
X49542857Y-64252380D01*
X49638095Y-64300000D01*
X49685714Y-64347619D01*
X49733333Y-64442857D01*
X49733333Y-64585714D01*
X49685714Y-64680952D01*
X49638095Y-64728571D01*
X49542857Y-64776190D01*
X49161904Y-64776190D01*
X50209523Y-65252380D02*
X50400000Y-65252380D01*
X50495238Y-65204761D01*
X50542857Y-65157142D01*
X50638095Y-65014285D01*
X50685714Y-64823809D01*
X50685714Y-64442857D01*
X50638095Y-64347619D01*
X50590476Y-64300000D01*
X50495238Y-64252380D01*
X50304761Y-64252380D01*
X50209523Y-64300000D01*
X50161904Y-64347619D01*
X50114285Y-64442857D01*
X50114285Y-64680952D01*
X50161904Y-64776190D01*
X50209523Y-64823809D01*
X50304761Y-64871428D01*
X50495238Y-64871428D01*
X50590476Y-64823809D01*
X50638095Y-64776190D01*
X50685714Y-64680952D01*
X51904761Y-68747619D02*
X51809523Y-68700000D01*
X51714285Y-68604761D01*
X51571428Y-68461904D01*
X51476190Y-68414285D01*
X51380952Y-68414285D01*
X51428571Y-68652380D02*
X51333333Y-68604761D01*
X51238095Y-68509523D01*
X51190476Y-68319047D01*
X51190476Y-67985714D01*
X51238095Y-67795238D01*
X51333333Y-67700000D01*
X51428571Y-67652380D01*
X51619047Y-67652380D01*
X51714285Y-67700000D01*
X51809523Y-67795238D01*
X51857142Y-67985714D01*
X51857142Y-68319047D01*
X51809523Y-68509523D01*
X51714285Y-68604761D01*
X51619047Y-68652380D01*
X51428571Y-68652380D01*
X52809523Y-68652380D02*
X52238095Y-68652380D01*
X52523809Y-68652380D02*
X52523809Y-67652380D01*
X52428571Y-67795238D01*
X52333333Y-67890476D01*
X52238095Y-67938095D01*
X58933333Y-67682380D02*
X58600000Y-67206190D01*
X58361904Y-67682380D02*
X58361904Y-66682380D01*
X58742857Y-66682380D01*
X58838095Y-66730000D01*
X58885714Y-66777619D01*
X58933333Y-66872857D01*
X58933333Y-67015714D01*
X58885714Y-67110952D01*
X58838095Y-67158571D01*
X58742857Y-67206190D01*
X58361904Y-67206190D01*
X59266666Y-66682380D02*
X59933333Y-66682380D01*
X59504761Y-67682380D01*
M02*
