G04 #@! TF.GenerationSoftware,KiCad,Pcbnew,5.1.6*
G04 #@! TF.CreationDate,2020-08-24T11:01:31-05:00*
G04 #@! TF.ProjectId,fissure,66697373-7572-4652-9e6b-696361645f70,rev?*
G04 #@! TF.SameCoordinates,Original*
G04 #@! TF.FileFunction,Legend,Top*
G04 #@! TF.FilePolarity,Positive*
%FSLAX46Y46*%
G04 Gerber Fmt 4.6, Leading zero omitted, Abs format (unit mm)*
G04 Created by KiCad (PCBNEW 5.1.6) date 2020-08-24 11:01:31*
%MOMM*%
%LPD*%
G01*
G04 APERTURE LIST*
%ADD10C,0.120000*%
%ADD11C,0.381000*%
%ADD12C,0.150000*%
G04 APERTURE END LIST*
D10*
X143500000Y-71000000D02*
X143500000Y-55000000D01*
X143500000Y-55000000D02*
X141500000Y-55000000D01*
X141500000Y-55000000D02*
X141500000Y-71000000D01*
X141500000Y-71000000D02*
X143500000Y-71000000D01*
X111000000Y-117500000D02*
X144000000Y-117500000D01*
X111000000Y-115500000D02*
X111000000Y-117500000D01*
X144000000Y-115500000D02*
X111000000Y-115500000D01*
X144000000Y-117500000D02*
X144000000Y-115500000D01*
X111000000Y-113000000D02*
X144000000Y-113000000D01*
X111000000Y-111000000D02*
X111000000Y-113000000D01*
X144000000Y-111000000D02*
X111000000Y-111000000D01*
X144000000Y-113000000D02*
X144000000Y-111000000D01*
X31250000Y-91000000D02*
X35150000Y-91000000D01*
X31250000Y-93000000D02*
X35150000Y-93000000D01*
X31250000Y-91000000D02*
X31250000Y-93000000D01*
X31250000Y-108000000D02*
X35150000Y-108000000D01*
X31250000Y-110000000D02*
X35150000Y-110000000D01*
X31250000Y-108000000D02*
X31250000Y-110000000D01*
X136450000Y-105650000D02*
X136450000Y-106725000D01*
X142350000Y-105650000D02*
X136450000Y-105650000D01*
X142350000Y-109550000D02*
X136450000Y-109550000D01*
D11*
X99260000Y-55350000D02*
X99260000Y-57890000D01*
X96720000Y-57890000D02*
X99260000Y-57890000D01*
X96720000Y-40110000D02*
X96720000Y-57890000D01*
X99260000Y-40110000D02*
X96720000Y-40110000D01*
D12*
G36*
X105739360Y-44068432D02*
G01*
X105939360Y-44068432D01*
X105939360Y-44168432D01*
X105739360Y-44168432D01*
X105739360Y-44068432D01*
G37*
X105739360Y-44068432D02*
X105939360Y-44068432D01*
X105939360Y-44168432D01*
X105739360Y-44168432D01*
X105739360Y-44068432D01*
G36*
X105139360Y-44468432D02*
G01*
X105939360Y-44468432D01*
X105939360Y-44568432D01*
X105139360Y-44568432D01*
X105139360Y-44468432D01*
G37*
X105139360Y-44468432D02*
X105939360Y-44468432D01*
X105939360Y-44568432D01*
X105139360Y-44568432D01*
X105139360Y-44468432D01*
G36*
X105139360Y-44068432D02*
G01*
X105239360Y-44068432D01*
X105239360Y-44568432D01*
X105139360Y-44568432D01*
X105139360Y-44068432D01*
G37*
X105139360Y-44068432D02*
X105239360Y-44068432D01*
X105239360Y-44568432D01*
X105139360Y-44568432D01*
X105139360Y-44068432D01*
G36*
X105539360Y-44268432D02*
G01*
X105639360Y-44268432D01*
X105639360Y-44368432D01*
X105539360Y-44368432D01*
X105539360Y-44268432D01*
G37*
X105539360Y-44268432D02*
X105639360Y-44268432D01*
X105639360Y-44368432D01*
X105539360Y-44368432D01*
X105539360Y-44268432D01*
G36*
X105139360Y-44068432D02*
G01*
X105439360Y-44068432D01*
X105439360Y-44168432D01*
X105139360Y-44168432D01*
X105139360Y-44068432D01*
G37*
X105139360Y-44068432D02*
X105439360Y-44068432D01*
X105439360Y-44168432D01*
X105139360Y-44168432D01*
X105139360Y-44068432D01*
D11*
X101800000Y-55350000D02*
X101800000Y-57890000D01*
X99260000Y-55350000D02*
X101800000Y-55350000D01*
X129740000Y-40110000D02*
X99260000Y-40110000D01*
X129740000Y-57890000D02*
X129740000Y-40110000D01*
X99260000Y-57890000D02*
X129740000Y-57890000D01*
D10*
X130750000Y-49000000D02*
X130750000Y-50500000D01*
X132000000Y-53000000D02*
X136500000Y-53000000D01*
X137750000Y-50500000D02*
X137750000Y-49000000D01*
X136500000Y-46500000D02*
X132000000Y-46500000D01*
X140000000Y-134250000D02*
X140000000Y-130350000D01*
X142000000Y-134250000D02*
X142000000Y-130350000D01*
X140000000Y-134250000D02*
X142000000Y-134250000D01*
X123000000Y-129250000D02*
X123000000Y-125350000D01*
X125000000Y-129250000D02*
X125000000Y-125350000D01*
X123000000Y-129250000D02*
X125000000Y-129250000D01*
X106000000Y-127250000D02*
X106000000Y-123350000D01*
X108000000Y-127250000D02*
X108000000Y-123350000D01*
X106000000Y-127250000D02*
X108000000Y-127250000D01*
X52250000Y-125000000D02*
X56150000Y-125000000D01*
X52250000Y-127000000D02*
X56150000Y-127000000D01*
X52250000Y-125000000D02*
X52250000Y-127000000D01*
X125750000Y-110500000D02*
X121850000Y-110500000D01*
X125750000Y-108500000D02*
X121850000Y-108500000D01*
X125750000Y-110500000D02*
X125750000Y-108500000D01*
X103250000Y-105000000D02*
X107150000Y-105000000D01*
X103250000Y-107000000D02*
X107150000Y-107000000D01*
X103250000Y-105000000D02*
X103250000Y-107000000D01*
X85250000Y-100000000D02*
X89150000Y-100000000D01*
X85250000Y-102000000D02*
X89150000Y-102000000D01*
X85250000Y-100000000D02*
X85250000Y-102000000D01*
X67250000Y-105000000D02*
X71150000Y-105000000D01*
X67250000Y-107000000D02*
X71150000Y-107000000D01*
X67250000Y-105000000D02*
X67250000Y-107000000D01*
X49250000Y-108000000D02*
X53150000Y-108000000D01*
X49250000Y-110000000D02*
X53150000Y-110000000D01*
X49250000Y-108000000D02*
X49250000Y-110000000D01*
X125750000Y-93500000D02*
X121850000Y-93500000D01*
X125750000Y-91500000D02*
X121850000Y-91500000D01*
X125750000Y-93500000D02*
X125750000Y-91500000D01*
X103250000Y-88000000D02*
X107150000Y-88000000D01*
X103250000Y-90000000D02*
X107150000Y-90000000D01*
X103250000Y-88000000D02*
X103250000Y-90000000D01*
X85250000Y-83000000D02*
X89150000Y-83000000D01*
X85250000Y-85000000D02*
X89150000Y-85000000D01*
X85250000Y-83000000D02*
X85250000Y-85000000D01*
X67250000Y-88000000D02*
X71150000Y-88000000D01*
X67250000Y-90000000D02*
X71150000Y-90000000D01*
X67250000Y-88000000D02*
X67250000Y-90000000D01*
X49250000Y-91000000D02*
X53150000Y-91000000D01*
X49250000Y-93000000D02*
X53150000Y-93000000D01*
X49250000Y-91000000D02*
X49250000Y-93000000D01*
X125750000Y-76500000D02*
X121850000Y-76500000D01*
X125750000Y-74500000D02*
X121850000Y-74500000D01*
X125750000Y-76500000D02*
X125750000Y-74500000D01*
X103250000Y-71000000D02*
X107150000Y-71000000D01*
X103250000Y-73000000D02*
X107150000Y-73000000D01*
X103250000Y-71000000D02*
X103250000Y-73000000D01*
X85250000Y-66000000D02*
X89150000Y-66000000D01*
X85250000Y-68000000D02*
X89150000Y-68000000D01*
X85250000Y-66000000D02*
X85250000Y-68000000D01*
X67250000Y-71000000D02*
X71150000Y-71000000D01*
X67250000Y-73000000D02*
X71150000Y-73000000D01*
X67250000Y-71000000D02*
X67250000Y-73000000D01*
D12*
X142050000Y-92500000D02*
X135950000Y-92500000D01*
X142050000Y-104600000D02*
X135950000Y-104600000D01*
X142050000Y-92500000D02*
X142050000Y-104600000D01*
X135950000Y-92500000D02*
X135950000Y-104600000D01*
X141800000Y-92500000D02*
X141800000Y-90500000D01*
X136200000Y-92500000D02*
X136200000Y-90500000D01*
X141800000Y-90500000D02*
X136200000Y-90500000D01*
D10*
X112130000Y-53580000D02*
X112460000Y-53580000D01*
X112130000Y-47040000D02*
X112130000Y-53580000D01*
X112460000Y-47040000D02*
X112130000Y-47040000D01*
X114870000Y-53580000D02*
X114540000Y-53580000D01*
X114870000Y-47040000D02*
X114870000Y-53580000D01*
X114540000Y-47040000D02*
X114870000Y-47040000D01*
X109130000Y-53580000D02*
X109460000Y-53580000D01*
X109130000Y-47040000D02*
X109130000Y-53580000D01*
X109460000Y-47040000D02*
X109130000Y-47040000D01*
X111870000Y-53580000D02*
X111540000Y-53580000D01*
X111870000Y-47040000D02*
X111870000Y-53580000D01*
X111540000Y-47040000D02*
X111870000Y-47040000D01*
D12*
X144452380Y-63333333D02*
X145166666Y-63333333D01*
X145309523Y-63380952D01*
X145404761Y-63476190D01*
X145452380Y-63619047D01*
X145452380Y-63714285D01*
X144452380Y-62428571D02*
X144452380Y-62619047D01*
X144500000Y-62714285D01*
X144547619Y-62761904D01*
X144690476Y-62857142D01*
X144880952Y-62904761D01*
X145261904Y-62904761D01*
X145357142Y-62857142D01*
X145404761Y-62809523D01*
X145452380Y-62714285D01*
X145452380Y-62523809D01*
X145404761Y-62428571D01*
X145357142Y-62380952D01*
X145261904Y-62333333D01*
X145023809Y-62333333D01*
X144928571Y-62380952D01*
X144880952Y-62428571D01*
X144833333Y-62523809D01*
X144833333Y-62714285D01*
X144880952Y-62809523D01*
X144928571Y-62857142D01*
X145023809Y-62904761D01*
X127166666Y-118452380D02*
X127166666Y-119166666D01*
X127119047Y-119309523D01*
X127023809Y-119404761D01*
X126880952Y-119452380D01*
X126785714Y-119452380D01*
X128071428Y-118785714D02*
X128071428Y-119452380D01*
X127833333Y-118404761D02*
X127595238Y-119119047D01*
X128214285Y-119119047D01*
X127166666Y-113952380D02*
X127166666Y-114666666D01*
X127119047Y-114809523D01*
X127023809Y-114904761D01*
X126880952Y-114952380D01*
X126785714Y-114952380D01*
X127547619Y-113952380D02*
X128166666Y-113952380D01*
X127833333Y-114333333D01*
X127976190Y-114333333D01*
X128071428Y-114380952D01*
X128119047Y-114428571D01*
X128166666Y-114523809D01*
X128166666Y-114761904D01*
X128119047Y-114857142D01*
X128071428Y-114904761D01*
X127976190Y-114952380D01*
X127690476Y-114952380D01*
X127595238Y-114904761D01*
X127547619Y-114857142D01*
X143185714Y-108927380D02*
X142614285Y-108927380D01*
X142900000Y-108927380D02*
X142900000Y-107927380D01*
X142804761Y-108070238D01*
X142709523Y-108165476D01*
X142614285Y-108213095D01*
X105903809Y-43800213D02*
X105941904Y-43685927D01*
X105941904Y-43495451D01*
X105903809Y-43419260D01*
X105865714Y-43381165D01*
X105789523Y-43343070D01*
X105713333Y-43343070D01*
X105637142Y-43381165D01*
X105599047Y-43419260D01*
X105560952Y-43495451D01*
X105522857Y-43647832D01*
X105484761Y-43724022D01*
X105446666Y-43762118D01*
X105370476Y-43800213D01*
X105294285Y-43800213D01*
X105218095Y-43762118D01*
X105180000Y-43724022D01*
X105141904Y-43647832D01*
X105141904Y-43457356D01*
X105180000Y-43343070D01*
X105141904Y-43114499D02*
X105141904Y-42657356D01*
X105941904Y-42885927D02*
X105141904Y-42885927D01*
X105210000Y-55070523D02*
X105171904Y-55146714D01*
X105171904Y-55261000D01*
X105210000Y-55375285D01*
X105286190Y-55451476D01*
X105362380Y-55489571D01*
X105514761Y-55527666D01*
X105629047Y-55527666D01*
X105781428Y-55489571D01*
X105857619Y-55451476D01*
X105933809Y-55375285D01*
X105971904Y-55261000D01*
X105971904Y-55184809D01*
X105933809Y-55070523D01*
X105895714Y-55032428D01*
X105629047Y-55032428D01*
X105629047Y-55184809D01*
X105971904Y-54689571D02*
X105171904Y-54689571D01*
X105971904Y-54232428D01*
X105171904Y-54232428D01*
X105971904Y-53851476D02*
X105171904Y-53851476D01*
X105171904Y-53661000D01*
X105210000Y-53546714D01*
X105286190Y-53470523D01*
X105362380Y-53432428D01*
X105514761Y-53394333D01*
X105629047Y-53394333D01*
X105781428Y-53432428D01*
X105857619Y-53470523D01*
X105933809Y-53546714D01*
X105971904Y-53661000D01*
X105971904Y-53851476D01*
X125872857Y-43862809D02*
X125910952Y-43748523D01*
X125949047Y-43710428D01*
X126025238Y-43672333D01*
X126139523Y-43672333D01*
X126215714Y-43710428D01*
X126253809Y-43748523D01*
X126291904Y-43824714D01*
X126291904Y-44129476D01*
X125491904Y-44129476D01*
X125491904Y-43862809D01*
X125530000Y-43786619D01*
X125568095Y-43748523D01*
X125644285Y-43710428D01*
X125720476Y-43710428D01*
X125796666Y-43748523D01*
X125834761Y-43786619D01*
X125872857Y-43862809D01*
X125872857Y-44129476D01*
X125568095Y-43367571D02*
X125530000Y-43329476D01*
X125491904Y-43253285D01*
X125491904Y-43062809D01*
X125530000Y-42986619D01*
X125568095Y-42948523D01*
X125644285Y-42910428D01*
X125720476Y-42910428D01*
X125834761Y-42948523D01*
X126291904Y-43405666D01*
X126291904Y-42910428D01*
X118252857Y-43805666D02*
X118252857Y-44072333D01*
X118671904Y-44072333D02*
X117871904Y-44072333D01*
X117871904Y-43691380D01*
X117871904Y-43462809D02*
X117871904Y-42929476D01*
X118671904Y-43272333D01*
X115712857Y-43805666D02*
X115712857Y-44072333D01*
X116131904Y-44072333D02*
X115331904Y-44072333D01*
X115331904Y-43691380D01*
X115331904Y-43043761D02*
X115331904Y-43196142D01*
X115370000Y-43272333D01*
X115408095Y-43310428D01*
X115522380Y-43386619D01*
X115674761Y-43424714D01*
X115979523Y-43424714D01*
X116055714Y-43386619D01*
X116093809Y-43348523D01*
X116131904Y-43272333D01*
X116131904Y-43119952D01*
X116093809Y-43043761D01*
X116055714Y-43005666D01*
X115979523Y-42967571D01*
X115789047Y-42967571D01*
X115712857Y-43005666D01*
X115674761Y-43043761D01*
X115636666Y-43119952D01*
X115636666Y-43272333D01*
X115674761Y-43348523D01*
X115712857Y-43386619D01*
X115789047Y-43424714D01*
X113172857Y-43805666D02*
X113172857Y-44072333D01*
X113591904Y-44072333D02*
X112791904Y-44072333D01*
X112791904Y-43691380D01*
X112791904Y-43005666D02*
X112791904Y-43386619D01*
X113172857Y-43424714D01*
X113134761Y-43386619D01*
X113096666Y-43310428D01*
X113096666Y-43119952D01*
X113134761Y-43043761D01*
X113172857Y-43005666D01*
X113249047Y-42967571D01*
X113439523Y-42967571D01*
X113515714Y-43005666D01*
X113553809Y-43043761D01*
X113591904Y-43119952D01*
X113591904Y-43310428D01*
X113553809Y-43386619D01*
X113515714Y-43424714D01*
X105903809Y-43800213D02*
X105941904Y-43685927D01*
X105941904Y-43495451D01*
X105903809Y-43419260D01*
X105865714Y-43381165D01*
X105789523Y-43343070D01*
X105713333Y-43343070D01*
X105637142Y-43381165D01*
X105599047Y-43419260D01*
X105560952Y-43495451D01*
X105522857Y-43647832D01*
X105484761Y-43724022D01*
X105446666Y-43762118D01*
X105370476Y-43800213D01*
X105294285Y-43800213D01*
X105218095Y-43762118D01*
X105180000Y-43724022D01*
X105141904Y-43647832D01*
X105141904Y-43457356D01*
X105180000Y-43343070D01*
X105141904Y-43114499D02*
X105141904Y-42657356D01*
X105941904Y-42885927D02*
X105141904Y-42885927D01*
X102670000Y-44148523D02*
X102631904Y-44224714D01*
X102631904Y-44339000D01*
X102670000Y-44453285D01*
X102746190Y-44529476D01*
X102822380Y-44567571D01*
X102974761Y-44605666D01*
X103089047Y-44605666D01*
X103241428Y-44567571D01*
X103317619Y-44529476D01*
X103393809Y-44453285D01*
X103431904Y-44339000D01*
X103431904Y-44262809D01*
X103393809Y-44148523D01*
X103355714Y-44110428D01*
X103089047Y-44110428D01*
X103089047Y-44262809D01*
X103431904Y-43767571D02*
X102631904Y-43767571D01*
X103431904Y-43310428D01*
X102631904Y-43310428D01*
X103431904Y-42929476D02*
X102631904Y-42929476D01*
X102631904Y-42739000D01*
X102670000Y-42624714D01*
X102746190Y-42548523D01*
X102822380Y-42510428D01*
X102974761Y-42472333D01*
X103089047Y-42472333D01*
X103241428Y-42510428D01*
X103317619Y-42548523D01*
X103393809Y-42624714D01*
X103431904Y-42739000D01*
X103431904Y-42929476D01*
X113172857Y-43805666D02*
X113172857Y-44072333D01*
X113591904Y-44072333D02*
X112791904Y-44072333D01*
X112791904Y-43691380D01*
X112791904Y-43005666D02*
X112791904Y-43386619D01*
X113172857Y-43424714D01*
X113134761Y-43386619D01*
X113096666Y-43310428D01*
X113096666Y-43119952D01*
X113134761Y-43043761D01*
X113172857Y-43005666D01*
X113249047Y-42967571D01*
X113439523Y-42967571D01*
X113515714Y-43005666D01*
X113553809Y-43043761D01*
X113591904Y-43119952D01*
X113591904Y-43310428D01*
X113553809Y-43386619D01*
X113515714Y-43424714D01*
X115712857Y-43805666D02*
X115712857Y-44072333D01*
X116131904Y-44072333D02*
X115331904Y-44072333D01*
X115331904Y-43691380D01*
X115331904Y-43043761D02*
X115331904Y-43196142D01*
X115370000Y-43272333D01*
X115408095Y-43310428D01*
X115522380Y-43386619D01*
X115674761Y-43424714D01*
X115979523Y-43424714D01*
X116055714Y-43386619D01*
X116093809Y-43348523D01*
X116131904Y-43272333D01*
X116131904Y-43119952D01*
X116093809Y-43043761D01*
X116055714Y-43005666D01*
X115979523Y-42967571D01*
X115789047Y-42967571D01*
X115712857Y-43005666D01*
X115674761Y-43043761D01*
X115636666Y-43119952D01*
X115636666Y-43272333D01*
X115674761Y-43348523D01*
X115712857Y-43386619D01*
X115789047Y-43424714D01*
X118252857Y-43805666D02*
X118252857Y-44072333D01*
X118671904Y-44072333D02*
X117871904Y-44072333D01*
X117871904Y-43691380D01*
X117871904Y-43462809D02*
X117871904Y-42929476D01*
X118671904Y-43272333D01*
X125872857Y-43862809D02*
X125910952Y-43748523D01*
X125949047Y-43710428D01*
X126025238Y-43672333D01*
X126139523Y-43672333D01*
X126215714Y-43710428D01*
X126253809Y-43748523D01*
X126291904Y-43824714D01*
X126291904Y-44129476D01*
X125491904Y-44129476D01*
X125491904Y-43862809D01*
X125530000Y-43786619D01*
X125568095Y-43748523D01*
X125644285Y-43710428D01*
X125720476Y-43710428D01*
X125796666Y-43748523D01*
X125834761Y-43786619D01*
X125872857Y-43862809D01*
X125872857Y-44129476D01*
X125568095Y-43367571D02*
X125530000Y-43329476D01*
X125491904Y-43253285D01*
X125491904Y-43062809D01*
X125530000Y-42986619D01*
X125568095Y-42948523D01*
X125644285Y-42910428D01*
X125720476Y-42910428D01*
X125834761Y-42948523D01*
X126291904Y-43405666D01*
X126291904Y-42910428D01*
M02*
