G04 #@! TF.GenerationSoftware,KiCad,Pcbnew,5.1.5*
G04 #@! TF.CreationDate,2020-03-16T15:52:58-05:00*
G04 #@! TF.ProjectId,fissure,66697373-7572-4652-9e6b-696361645f70,rev?*
G04 #@! TF.SameCoordinates,Original*
G04 #@! TF.FileFunction,Copper,L1,Top*
G04 #@! TF.FilePolarity,Positive*
%FSLAX46Y46*%
G04 Gerber Fmt 4.6, Leading zero omitted, Abs format (unit mm)*
G04 Created by KiCad (PCBNEW 5.1.5) date 2020-03-16 15:52:58*
%MOMM*%
%LPD*%
G04 APERTURE LIST*
%ADD10O,1.600000X2.000000*%
%ADD11O,1.500000X1.500000*%
%ADD12R,1.500000X1.500000*%
%ADD13O,1.600000X1.600000*%
%ADD14C,1.600000*%
%ADD15C,2.000000*%
%ADD16R,1.600000X0.850000*%
%ADD17C,1.752600*%
%ADD18R,1.752600X1.752600*%
%ADD19O,1.700000X1.700000*%
%ADD20R,1.700000X1.700000*%
%ADD21C,0.800000*%
%ADD22C,0.508000*%
%ADD23C,1.270000*%
G04 APERTURE END LIST*
D10*
X142500000Y-106900000D03*
X142500000Y-103900000D03*
X142500000Y-110900000D03*
X137900000Y-112000000D03*
X135300000Y-106900000D03*
X135300000Y-103900000D03*
X135300000Y-110900000D03*
X139900000Y-112000000D03*
D11*
X46747000Y-62439000D03*
D12*
X46747000Y-70059000D03*
D11*
X59997000Y-62439000D03*
D12*
X59997000Y-70059000D03*
D11*
X85597000Y-43439000D03*
D12*
X85597000Y-51059000D03*
D11*
X103097000Y-48929000D03*
D12*
X103097000Y-56549000D03*
D11*
X113897000Y-48929000D03*
D12*
X113897000Y-56549000D03*
D11*
X49247000Y-62439000D03*
D12*
X49247000Y-70059000D03*
D11*
X57497000Y-62439000D03*
D12*
X57497000Y-70059000D03*
D11*
X87697000Y-43439000D03*
D12*
X87697000Y-51059000D03*
D11*
X105197000Y-48929000D03*
D12*
X105197000Y-56549000D03*
D11*
X115997000Y-48929000D03*
D12*
X115997000Y-56549000D03*
D11*
X51747000Y-62439000D03*
D12*
X51747000Y-70059000D03*
D11*
X54997000Y-62439000D03*
D12*
X54997000Y-70059000D03*
D11*
X89797000Y-43439000D03*
D12*
X89797000Y-51059000D03*
D11*
X107297000Y-48929000D03*
D12*
X107297000Y-56549000D03*
D11*
X118097000Y-48929000D03*
D12*
X118097000Y-56549000D03*
D11*
X91897000Y-43439000D03*
D12*
X91897000Y-51059000D03*
D11*
X109397000Y-48929000D03*
D12*
X109397000Y-56549000D03*
D11*
X120197000Y-48929000D03*
D12*
X120197000Y-56549000D03*
D13*
X84777000Y-106749000D03*
D14*
X92397000Y-106749000D03*
D13*
X84777000Y-109749000D03*
D14*
X92397000Y-109749000D03*
D15*
X93497000Y-75449000D03*
X88497000Y-73349000D03*
X83497000Y-75449000D03*
D16*
X140647000Y-116724000D03*
X140647000Y-114974000D03*
X137147000Y-116724000D03*
X137147000Y-114974000D03*
D15*
X103502000Y-46149000D03*
X103502000Y-41649000D03*
X110002000Y-46149000D03*
X110002000Y-41649000D03*
X56497000Y-80949000D03*
X51497000Y-78849000D03*
X46497000Y-80949000D03*
X120497000Y-74049000D03*
X125497000Y-76149000D03*
X130497000Y-74049000D03*
X64997000Y-71049000D03*
X69997000Y-73149000D03*
X74997000Y-71049000D03*
D17*
X49527000Y-41069000D03*
X77467000Y-56309000D03*
X52067000Y-41069000D03*
X54607000Y-41069000D03*
X57147000Y-41069000D03*
X59687000Y-41069000D03*
X62227000Y-41069000D03*
X64767000Y-41069000D03*
X67307000Y-41069000D03*
X69847000Y-41069000D03*
X72387000Y-41069000D03*
X74927000Y-41069000D03*
X77467000Y-41069000D03*
X74927000Y-56309000D03*
X72387000Y-56309000D03*
X69847000Y-56309000D03*
X67307000Y-56309000D03*
X64767000Y-56309000D03*
X62227000Y-56309000D03*
X59687000Y-56309000D03*
X57147000Y-56309000D03*
X54607000Y-56309000D03*
X52067000Y-56309000D03*
D18*
X49527000Y-56309000D03*
D15*
X56497000Y-97949000D03*
X51497000Y-95849000D03*
X46497000Y-97949000D03*
X101997000Y-71049000D03*
X106997000Y-73149000D03*
X111997000Y-71049000D03*
X140997000Y-123449000D03*
X135997000Y-121349000D03*
X130997000Y-123449000D03*
X122997000Y-118349000D03*
X117997000Y-116249000D03*
X112997000Y-118349000D03*
X104997000Y-116449000D03*
X99997000Y-114349000D03*
X94997000Y-116449000D03*
X130497000Y-100449000D03*
X125497000Y-98349000D03*
X120497000Y-100449000D03*
X111997000Y-97449000D03*
X106997000Y-95349000D03*
X101997000Y-97449000D03*
X93497000Y-92449000D03*
X88497000Y-90349000D03*
X83497000Y-92449000D03*
X74997000Y-97449000D03*
X69997000Y-95349000D03*
X64997000Y-97449000D03*
X59497000Y-114949000D03*
X54497000Y-112849000D03*
X49497000Y-114949000D03*
X130497000Y-83449000D03*
X125497000Y-81349000D03*
X120497000Y-83449000D03*
X111997000Y-80449000D03*
X106997000Y-78349000D03*
X101997000Y-80449000D03*
X74997000Y-80449000D03*
X69997000Y-78349000D03*
X64997000Y-80449000D03*
X83497000Y-66049000D03*
X88497000Y-68149000D03*
X93497000Y-66049000D03*
D19*
X124307000Y-56944000D03*
X124307000Y-59484000D03*
X126847000Y-56944000D03*
X126847000Y-59484000D03*
X129387000Y-56944000D03*
X129387000Y-59484000D03*
X131927000Y-56944000D03*
D20*
X131927000Y-59484000D03*
D21*
X133897000Y-115049000D03*
X83597000Y-45149000D03*
X67897000Y-43649000D03*
X138897000Y-115849000D03*
X102597000Y-112949000D03*
D22*
X46497000Y-70399000D02*
X46747000Y-70149000D01*
X56497000Y-80449000D02*
X46497000Y-80449000D01*
X60397000Y-70549000D02*
X59997000Y-70149000D01*
X93497000Y-65549000D02*
X93497000Y-65331000D01*
X93497000Y-64061078D02*
X90900000Y-61464078D01*
X93497000Y-66049000D02*
X93497000Y-64061078D01*
X85597000Y-52317000D02*
X85597000Y-51059000D01*
X90900000Y-57620000D02*
X85597000Y-52317000D01*
X90900000Y-61464078D02*
X90900000Y-57620000D01*
X103097000Y-69949000D02*
X103097000Y-56549000D01*
X101997000Y-71049000D02*
X103097000Y-69949000D01*
X113897000Y-67449000D02*
X120497000Y-74049000D01*
X113897000Y-56549000D02*
X113897000Y-67449000D01*
X57497000Y-72949000D02*
X64997000Y-80449000D01*
X57497000Y-70149000D02*
X57497000Y-72949000D01*
X83497000Y-75449000D02*
X93497000Y-75449000D01*
X93497000Y-75449000D02*
X93797000Y-75449000D01*
X93497000Y-75449000D02*
X95301001Y-73644999D01*
X87697000Y-52317000D02*
X95301001Y-59921001D01*
X95301001Y-59921001D02*
X95301001Y-73644999D01*
X87697000Y-51059000D02*
X87697000Y-52317000D01*
X101997000Y-80449000D02*
X101997000Y-74049000D01*
X101997000Y-74049000D02*
X104097000Y-71949000D01*
X105197000Y-57807000D02*
X105197000Y-56549000D01*
X104097000Y-58907000D02*
X105197000Y-57807000D01*
X104097000Y-71949000D02*
X104097000Y-58907000D01*
X115997000Y-64319078D02*
X115997000Y-56549000D01*
X122147000Y-70469078D02*
X115997000Y-64319078D01*
X120497000Y-83449000D02*
X120497000Y-77349000D01*
X122147000Y-75699000D02*
X122147000Y-70469078D01*
X120497000Y-77349000D02*
X122147000Y-75699000D01*
X51747000Y-72984000D02*
X51747000Y-70149000D01*
X59497000Y-80734000D02*
X51747000Y-72984000D01*
X59497000Y-80734000D02*
X59497000Y-114949000D01*
X59497000Y-114949000D02*
X49497000Y-114949000D01*
X54997000Y-70149000D02*
X54997000Y-73749000D01*
X54997000Y-73749000D02*
X61747000Y-80499000D01*
X61747000Y-94199000D02*
X64997000Y-97449000D01*
X61747000Y-80499000D02*
X61747000Y-94199000D01*
X93497000Y-92449000D02*
X96009011Y-89936989D01*
X96009011Y-57488213D02*
X96009011Y-89936989D01*
X89797000Y-51276202D02*
X96009011Y-57488213D01*
X89797000Y-51059000D02*
X89797000Y-51276202D01*
X110997001Y-96449001D02*
X111997000Y-97449000D01*
X109588991Y-95040991D02*
X110997001Y-96449001D01*
X109588991Y-60098991D02*
X109588991Y-95040991D01*
X107297000Y-57807000D02*
X109588991Y-60098991D01*
X107297000Y-56549000D02*
X107297000Y-57807000D01*
X123097000Y-97849000D02*
X120497000Y-100449000D01*
X123097000Y-97849000D02*
X123097000Y-69497000D01*
X118097000Y-64497000D02*
X118097000Y-56549000D01*
X123097000Y-69497000D02*
X118097000Y-64497000D01*
X104997000Y-116449000D02*
X94997000Y-116449000D01*
X104997000Y-116449000D02*
X104997000Y-109774800D01*
X104997000Y-109774800D02*
X97124200Y-101902000D01*
X97124200Y-55028200D02*
X97124200Y-101902000D01*
X93155000Y-51059000D02*
X97124200Y-55028200D01*
X91897000Y-51059000D02*
X93155000Y-51059000D01*
X122997000Y-118349000D02*
X112997000Y-118349000D01*
X110297001Y-58707001D02*
X109397000Y-57807000D01*
X115497000Y-110499000D02*
X115497000Y-89649000D01*
X109397000Y-57807000D02*
X109397000Y-56549000D01*
X112997000Y-118349000D02*
X112997000Y-112999000D01*
X112997000Y-112999000D02*
X115497000Y-110499000D01*
X115497000Y-89649000D02*
X110297001Y-84449001D01*
X110297001Y-84449001D02*
X110297001Y-58707001D01*
X140997000Y-123449000D02*
X130997000Y-123449000D01*
X127840000Y-120292000D02*
X130997000Y-123449000D01*
X127840000Y-120292000D02*
X127840000Y-69540000D01*
X120197000Y-61897000D02*
X120197000Y-56549000D01*
X127840000Y-69540000D02*
X120197000Y-61897000D01*
D23*
X54697000Y-56219000D02*
X54607000Y-56309000D01*
D22*
X140647000Y-112747000D02*
X139900000Y-112000000D01*
X140647000Y-114974000D02*
X140647000Y-112747000D01*
X134872000Y-116724000D02*
X137147000Y-116724000D01*
X133897000Y-115749000D02*
X134872000Y-116724000D01*
X133897000Y-115049000D02*
X133897000Y-115749000D01*
D23*
X133997000Y-56949000D02*
X133997000Y-91349000D01*
X131927000Y-56944000D02*
X133992000Y-56944000D01*
X133992000Y-56944000D02*
X133997000Y-56949000D01*
X83597000Y-45149000D02*
X96249000Y-45149000D01*
X125497001Y-50514001D02*
X131927000Y-56944000D01*
X101614001Y-50514001D02*
X125497001Y-50514001D01*
X96249000Y-45149000D02*
X101614001Y-50514001D01*
X135300000Y-103900000D02*
X142500000Y-103900000D01*
X133997000Y-100327000D02*
X133997000Y-91349000D01*
X135300000Y-101630000D02*
X133997000Y-100327000D01*
X135300000Y-103900000D02*
X135300000Y-101630000D01*
D22*
X133992000Y-103900000D02*
X135300000Y-103900000D01*
X133897000Y-103995000D02*
X133992000Y-103900000D01*
X133897000Y-115049000D02*
X133897000Y-103995000D01*
X46747000Y-62349000D02*
X51747000Y-62349000D01*
X51747000Y-62349000D02*
X51747000Y-61859000D01*
X54997000Y-62349000D02*
X59997000Y-62349000D01*
X70283000Y-55873000D02*
X69847000Y-56309000D01*
X69847000Y-45599000D02*
X69847000Y-56309000D01*
X67897000Y-43649000D02*
X69847000Y-45599000D01*
X45232000Y-72584000D02*
X51497000Y-78849000D01*
X45232000Y-44879000D02*
X45232000Y-72584000D01*
X46883000Y-43228000D02*
X45232000Y-44879000D01*
X59687000Y-41069000D02*
X57528000Y-43228000D01*
X57528000Y-43228000D02*
X46883000Y-43228000D01*
X58925000Y-44371000D02*
X62227000Y-41069000D01*
X47645000Y-44371000D02*
X58925000Y-44371000D01*
X49169000Y-60881000D02*
X46375000Y-58087000D01*
X64859000Y-78349000D02*
X61488000Y-74978000D01*
X46375000Y-58087000D02*
X46375000Y-45641000D01*
X61488000Y-74978000D02*
X61488000Y-61897000D01*
X69997000Y-78349000D02*
X64859000Y-78349000D01*
X46375000Y-45641000D02*
X47645000Y-44371000D01*
X60472000Y-60881000D02*
X49169000Y-60881000D01*
X61488000Y-61897000D02*
X60472000Y-60881000D01*
X47899000Y-45387000D02*
X60449000Y-45387000D01*
X64282000Y-76756000D02*
X62250000Y-74724000D01*
X71394000Y-76756000D02*
X64282000Y-76756000D01*
X60449000Y-45387000D02*
X64767000Y-41069000D01*
X62250000Y-61516000D02*
X60726000Y-59992000D01*
X49423000Y-59992000D02*
X47137000Y-57706000D01*
X60726000Y-59992000D02*
X49423000Y-59992000D01*
X72791000Y-78153000D02*
X71394000Y-76756000D01*
X62250000Y-74724000D02*
X62250000Y-61516000D01*
X47137000Y-57706000D02*
X47137000Y-46149000D01*
X47137000Y-46149000D02*
X47899000Y-45387000D01*
X72791000Y-92555000D02*
X69997000Y-95349000D01*
X72791000Y-78153000D02*
X72791000Y-92555000D01*
X78397000Y-108649000D02*
X84097000Y-114349000D01*
X78397000Y-65449000D02*
X78397000Y-108649000D01*
X64225724Y-61849000D02*
X74797000Y-61849000D01*
X61933734Y-46442266D02*
X47845010Y-46442266D01*
X67307000Y-41069000D02*
X61933734Y-46442266D01*
X74797000Y-61849000D02*
X78397000Y-65449000D01*
X61660714Y-59283990D02*
X64225724Y-61849000D01*
X49716266Y-59283990D02*
X61660714Y-59283990D01*
X47845010Y-46442266D02*
X47845010Y-57412734D01*
X47845010Y-57412734D02*
X49716266Y-59283990D01*
X99997000Y-114349000D02*
X84097000Y-114349000D01*
X72387000Y-42308275D02*
X77780429Y-47701704D01*
X72387000Y-41069000D02*
X72387000Y-42308275D01*
X95259059Y-47701704D02*
X100957355Y-53400000D01*
X77780429Y-47701704D02*
X95259059Y-47701704D01*
X100957355Y-53400000D02*
X122100000Y-53400000D01*
X122100000Y-53400000D02*
X122800000Y-54100000D01*
X122800000Y-57977000D02*
X124307000Y-59484000D01*
X122800000Y-54100000D02*
X122800000Y-57977000D01*
X126847000Y-55741919D02*
X126847000Y-56944000D01*
X80851694Y-46993694D02*
X95552325Y-46993694D01*
X74927000Y-41069000D02*
X80851694Y-46993694D01*
X101166641Y-52608010D02*
X123713091Y-52608010D01*
X95552325Y-46993694D02*
X101166641Y-52608010D01*
X123713091Y-52608010D02*
X126847000Y-55741919D01*
X94965793Y-48409714D02*
X101056079Y-54500000D01*
X69847000Y-41069000D02*
X77187714Y-48409714D01*
X77187714Y-48409714D02*
X94965793Y-48409714D01*
X121900000Y-54500000D02*
X122091990Y-54691990D01*
X101056079Y-54500000D02*
X121900000Y-54500000D01*
X122091990Y-54691990D02*
X122091990Y-60391990D01*
X122091990Y-60391990D02*
X122900000Y-61200000D01*
X125131000Y-61200000D02*
X126847000Y-59484000D01*
X122900000Y-61200000D02*
X125131000Y-61200000D01*
X77467000Y-42308275D02*
X81396735Y-46238010D01*
X77467000Y-41069000D02*
X77467000Y-42308275D01*
X95797918Y-46238010D02*
X101359908Y-51800000D01*
X81396735Y-46238010D02*
X95797918Y-46238010D01*
X124243000Y-51800000D02*
X129387000Y-56944000D01*
X101359908Y-51800000D02*
X124243000Y-51800000D01*
X79488990Y-104460990D02*
X79488990Y-64340990D01*
X84777000Y-109749000D02*
X79488990Y-104460990D01*
X79488990Y-64340990D02*
X76005010Y-60857010D01*
X64235010Y-60857010D02*
X59687000Y-56309000D01*
X76005010Y-60857010D02*
X64235010Y-60857010D01*
X140837990Y-110545990D02*
X141192000Y-110900000D01*
X137026563Y-110900000D02*
X137380573Y-110545990D01*
X141192000Y-110900000D02*
X142500000Y-110900000D01*
X137380573Y-110545990D02*
X140837990Y-110545990D01*
X135300000Y-110900000D02*
X137026563Y-110900000D01*
X84777000Y-105617630D02*
X80197000Y-101037630D01*
X84777000Y-106749000D02*
X84777000Y-105617630D01*
X80197000Y-101037630D02*
X80197000Y-63949000D01*
X80197000Y-63949000D02*
X76397000Y-60149000D01*
X66067000Y-60149000D02*
X62227000Y-56309000D01*
X76397000Y-60149000D02*
X66067000Y-60149000D01*
X136608000Y-106900000D02*
X142500000Y-106900000D01*
X135300000Y-106900000D02*
X136608000Y-106900000D01*
X103502000Y-41649000D02*
X110002000Y-41649000D01*
X138022000Y-114974000D02*
X137147000Y-114974000D01*
X138897000Y-115849000D02*
X138022000Y-114974000D01*
X81097000Y-98849000D02*
X81097000Y-59939000D01*
X86197000Y-103949000D02*
X81097000Y-98849000D01*
X102597000Y-112949000D02*
X93597000Y-103949000D01*
X81097000Y-59939000D02*
X77467000Y-56309000D01*
X93597000Y-103949000D02*
X86197000Y-103949000D01*
M02*
