M48
; DRILL file {KiCad 5.1.5} date Thu 19 Mar 2020 02:29:31 AM CDT
; FORMAT={-:-/ absolute / inch / decimal}
; #@! TF.CreationDate,2020-03-19T02:29:31-05:00
; #@! TF.GenerationSoftware,Kicad,Pcbnew,5.1.5
; #@! TF.FileFunction,NonPlated,1,2,NPTH
FMAT,2
INCH
T1C0.0315
T2C0.0669
T3C0.1339
%
G90
G05
T1
X5.4173Y-4.0276
X5.4173Y-4.3031
X5.5197Y-4.0276
X5.5197Y-4.3031
T2
X4.7243Y-4.1043
X5.1574Y-4.1043
X3.2676Y-2.4507
X3.7007Y-2.4507
X3.2676Y-3.12
X3.7007Y-3.12
X2.5393Y-2.6476
X2.9723Y-2.6476
X5.1377Y-5.0098
X5.5707Y-5.0098
X1.8109Y-4.0059
X2.244Y-4.0059
X3.7204Y-4.7342
X4.1534Y-4.7342
X3.2676Y-3.7893
X3.7007Y-3.7893
X1.8109Y-3.3366
X2.244Y-3.3366
X4.7243Y-3.435
X5.1574Y-3.435
X2.5393Y-3.3169
X2.9723Y-3.3169
X2.5393Y-3.9862
X2.9723Y-3.9862
X3.9959Y-2.6476
X4.429Y-2.6476
X1.929Y-4.6752
X2.3621Y-4.6752
X4.429Y-4.809
X4.8621Y-4.809
X4.7243Y-2.7657
X5.1574Y-2.7657
X3.9959Y-3.3169
X4.429Y-3.3169
X3.9959Y-3.9862
X4.429Y-3.9862
T3
X2.7558Y-3.3169
X2.7558Y-3.9862
X4.2125Y-2.6476
X2.1456Y-4.6752
X4.6456Y-4.809
X4.9408Y-2.7657
X4.2125Y-3.3169
X4.2125Y-3.9862
X4.9408Y-4.1043
X3.4841Y-2.4507
X3.4841Y-3.12
X2.7558Y-2.6476
X5.3542Y-5.0098
X2.0274Y-4.0059
X3.9369Y-4.7342
X3.4841Y-3.7893
X2.0274Y-3.3366
X4.9408Y-3.435
T0
M30
