G04 #@! TF.GenerationSoftware,KiCad,Pcbnew,5.1.6*
G04 #@! TF.CreationDate,2020-08-24T11:01:31-05:00*
G04 #@! TF.ProjectId,fissure,66697373-7572-4652-9e6b-696361645f70,rev?*
G04 #@! TF.SameCoordinates,Original*
G04 #@! TF.FileFunction,Legend,Bot*
G04 #@! TF.FilePolarity,Positive*
%FSLAX46Y46*%
G04 Gerber Fmt 4.6, Leading zero omitted, Abs format (unit mm)*
G04 Created by KiCad (PCBNEW 5.1.6) date 2020-08-24 11:01:31*
%MOMM*%
%LPD*%
G01*
G04 APERTURE LIST*
%ADD10C,0.120000*%
%ADD11C,0.381000*%
%ADD12C,0.150000*%
G04 APERTURE END LIST*
D10*
X31250000Y-93000000D02*
X35150000Y-93000000D01*
X31250000Y-91000000D02*
X35150000Y-91000000D01*
X31250000Y-93000000D02*
X31250000Y-91000000D01*
X31250000Y-110000000D02*
X35150000Y-110000000D01*
X31250000Y-108000000D02*
X35150000Y-108000000D01*
X31250000Y-110000000D02*
X31250000Y-108000000D01*
X136450000Y-109550000D02*
X136450000Y-108475000D01*
X142350000Y-109550000D02*
X136450000Y-109550000D01*
X142350000Y-105650000D02*
X136450000Y-105650000D01*
D11*
X99260000Y-55350000D02*
X99260000Y-57890000D01*
X96720000Y-40110000D02*
X96720000Y-57890000D01*
X96720000Y-57890000D02*
X129740000Y-57890000D01*
X129740000Y-57890000D02*
X129740000Y-40110000D01*
X129740000Y-40110000D02*
X96720000Y-40110000D01*
D12*
G36*
X105149030Y-43155365D02*
G01*
X105249030Y-43155365D01*
X105249030Y-42655365D01*
X105149030Y-42655365D01*
X105149030Y-43155365D01*
G37*
X105149030Y-43155365D02*
X105249030Y-43155365D01*
X105249030Y-42655365D01*
X105149030Y-42655365D01*
X105149030Y-43155365D01*
G36*
X105149030Y-43155365D02*
G01*
X105449030Y-43155365D01*
X105449030Y-43055365D01*
X105149030Y-43055365D01*
X105149030Y-43155365D01*
G37*
X105149030Y-43155365D02*
X105449030Y-43155365D01*
X105449030Y-43055365D01*
X105149030Y-43055365D01*
X105149030Y-43155365D01*
G36*
X105749030Y-43155365D02*
G01*
X105949030Y-43155365D01*
X105949030Y-43055365D01*
X105749030Y-43055365D01*
X105749030Y-43155365D01*
G37*
X105749030Y-43155365D02*
X105949030Y-43155365D01*
X105949030Y-43055365D01*
X105749030Y-43055365D01*
X105749030Y-43155365D01*
G36*
X105149030Y-42755365D02*
G01*
X105949030Y-42755365D01*
X105949030Y-42655365D01*
X105149030Y-42655365D01*
X105149030Y-42755365D01*
G37*
X105149030Y-42755365D02*
X105949030Y-42755365D01*
X105949030Y-42655365D01*
X105149030Y-42655365D01*
X105149030Y-42755365D01*
G36*
X105549030Y-42955365D02*
G01*
X105649030Y-42955365D01*
X105649030Y-42855365D01*
X105549030Y-42855365D01*
X105549030Y-42955365D01*
G37*
X105549030Y-42955365D02*
X105649030Y-42955365D01*
X105649030Y-42855365D01*
X105549030Y-42855365D01*
X105549030Y-42955365D01*
D11*
X99260000Y-55350000D02*
X101800000Y-55350000D01*
X101800000Y-55350000D02*
X101800000Y-57890000D01*
D10*
X125750000Y-91500000D02*
X121850000Y-91500000D01*
X125750000Y-93500000D02*
X121850000Y-93500000D01*
X125750000Y-91500000D02*
X125750000Y-93500000D01*
X125750000Y-108500000D02*
X121850000Y-108500000D01*
X125750000Y-110500000D02*
X121850000Y-110500000D01*
X125750000Y-108500000D02*
X125750000Y-110500000D01*
X49250000Y-93000000D02*
X53150000Y-93000000D01*
X49250000Y-91000000D02*
X53150000Y-91000000D01*
X49250000Y-93000000D02*
X49250000Y-91000000D01*
X142000000Y-134250000D02*
X142000000Y-130350000D01*
X140000000Y-134250000D02*
X140000000Y-130350000D01*
X142000000Y-134250000D02*
X140000000Y-134250000D01*
X125000000Y-129250000D02*
X125000000Y-125350000D01*
X123000000Y-129250000D02*
X123000000Y-125350000D01*
X125000000Y-129250000D02*
X123000000Y-129250000D01*
X108000000Y-127250000D02*
X108000000Y-123350000D01*
X106000000Y-127250000D02*
X106000000Y-123350000D01*
X108000000Y-127250000D02*
X106000000Y-127250000D01*
X52250000Y-127000000D02*
X56150000Y-127000000D01*
X52250000Y-125000000D02*
X56150000Y-125000000D01*
X52250000Y-127000000D02*
X52250000Y-125000000D01*
X103250000Y-107000000D02*
X107150000Y-107000000D01*
X103250000Y-105000000D02*
X107150000Y-105000000D01*
X103250000Y-107000000D02*
X103250000Y-105000000D01*
X85250000Y-102000000D02*
X89150000Y-102000000D01*
X85250000Y-100000000D02*
X89150000Y-100000000D01*
X85250000Y-102000000D02*
X85250000Y-100000000D01*
X67250000Y-107000000D02*
X71150000Y-107000000D01*
X67250000Y-105000000D02*
X71150000Y-105000000D01*
X67250000Y-107000000D02*
X67250000Y-105000000D01*
X49250000Y-110000000D02*
X53150000Y-110000000D01*
X49250000Y-108000000D02*
X53150000Y-108000000D01*
X49250000Y-110000000D02*
X49250000Y-108000000D01*
X103250000Y-90000000D02*
X107150000Y-90000000D01*
X103250000Y-88000000D02*
X107150000Y-88000000D01*
X103250000Y-90000000D02*
X103250000Y-88000000D01*
X85250000Y-85000000D02*
X89150000Y-85000000D01*
X85250000Y-83000000D02*
X89150000Y-83000000D01*
X85250000Y-85000000D02*
X85250000Y-83000000D01*
X67250000Y-90000000D02*
X71150000Y-90000000D01*
X67250000Y-88000000D02*
X71150000Y-88000000D01*
X67250000Y-90000000D02*
X67250000Y-88000000D01*
X125750000Y-74500000D02*
X121850000Y-74500000D01*
X125750000Y-76500000D02*
X121850000Y-76500000D01*
X125750000Y-74500000D02*
X125750000Y-76500000D01*
X103250000Y-73000000D02*
X107150000Y-73000000D01*
X103250000Y-71000000D02*
X107150000Y-71000000D01*
X103250000Y-73000000D02*
X103250000Y-71000000D01*
X85250000Y-68000000D02*
X89150000Y-68000000D01*
X85250000Y-66000000D02*
X89150000Y-66000000D01*
X85250000Y-68000000D02*
X85250000Y-66000000D01*
X67250000Y-73000000D02*
X71150000Y-73000000D01*
X67250000Y-71000000D02*
X71150000Y-71000000D01*
X67250000Y-73000000D02*
X67250000Y-71000000D01*
D12*
X135950000Y-92500000D02*
X142050000Y-92500000D01*
X135950000Y-104600000D02*
X142050000Y-104600000D01*
X135950000Y-92500000D02*
X135950000Y-104600000D01*
X142050000Y-92500000D02*
X142050000Y-104600000D01*
X136200000Y-92500000D02*
X136200000Y-90500000D01*
X141800000Y-92500000D02*
X141800000Y-90500000D01*
X136200000Y-90500000D02*
X141800000Y-90500000D01*
X142614285Y-107177380D02*
X143185714Y-107177380D01*
X142900000Y-107177380D02*
X142900000Y-106177380D01*
X142995238Y-106320238D01*
X143090476Y-106415476D01*
X143185714Y-106463095D01*
X100091904Y-50381395D02*
X100091904Y-50838538D01*
X100891904Y-50609967D02*
X100091904Y-50609967D01*
X100091904Y-51029014D02*
X100891904Y-51562348D01*
X100091904Y-51562348D02*
X100891904Y-51029014D01*
X100091904Y-52019491D02*
X100091904Y-52095681D01*
X100130000Y-52171872D01*
X100168095Y-52209967D01*
X100244285Y-52248062D01*
X100396666Y-52286157D01*
X100587142Y-52286157D01*
X100739523Y-52248062D01*
X100815714Y-52209967D01*
X100853809Y-52171872D01*
X100891904Y-52095681D01*
X100891904Y-52019491D01*
X100853809Y-51943300D01*
X100815714Y-51905205D01*
X100739523Y-51867110D01*
X100587142Y-51829014D01*
X100396666Y-51829014D01*
X100244285Y-51867110D01*
X100168095Y-51905205D01*
X100130000Y-51943300D01*
X100091904Y-52019491D01*
X100053809Y-53200443D02*
X101082380Y-52514729D01*
X100891904Y-53467110D02*
X100091904Y-53467110D01*
X100091904Y-53657586D01*
X100130000Y-53771872D01*
X100206190Y-53848062D01*
X100282380Y-53886157D01*
X100434761Y-53924252D01*
X100549047Y-53924252D01*
X100701428Y-53886157D01*
X100777619Y-53848062D01*
X100853809Y-53771872D01*
X100891904Y-53657586D01*
X100891904Y-53467110D01*
X100091904Y-54190919D02*
X100091904Y-54686157D01*
X100396666Y-54419491D01*
X100396666Y-54533776D01*
X100434761Y-54609967D01*
X100472857Y-54648062D01*
X100549047Y-54686157D01*
X100739523Y-54686157D01*
X100815714Y-54648062D01*
X100853809Y-54609967D01*
X100891904Y-54533776D01*
X100891904Y-54305205D01*
X100853809Y-54229014D01*
X100815714Y-54190919D01*
X100091904Y-50381395D02*
X100091904Y-50838538D01*
X100891904Y-50609967D02*
X100091904Y-50609967D01*
X100091904Y-51029014D02*
X100891904Y-51562348D01*
X100091904Y-51562348D02*
X100891904Y-51029014D01*
X100091904Y-52019491D02*
X100091904Y-52095681D01*
X100130000Y-52171872D01*
X100168095Y-52209967D01*
X100244285Y-52248062D01*
X100396666Y-52286157D01*
X100587142Y-52286157D01*
X100739523Y-52248062D01*
X100815714Y-52209967D01*
X100853809Y-52171872D01*
X100891904Y-52095681D01*
X100891904Y-52019491D01*
X100853809Y-51943300D01*
X100815714Y-51905205D01*
X100739523Y-51867110D01*
X100587142Y-51829014D01*
X100396666Y-51829014D01*
X100244285Y-51867110D01*
X100168095Y-51905205D01*
X100130000Y-51943300D01*
X100091904Y-52019491D01*
X100053809Y-53200443D02*
X101082380Y-52514729D01*
X100891904Y-53467110D02*
X100091904Y-53467110D01*
X100091904Y-53657586D01*
X100130000Y-53771872D01*
X100206190Y-53848062D01*
X100282380Y-53886157D01*
X100434761Y-53924252D01*
X100549047Y-53924252D01*
X100701428Y-53886157D01*
X100777619Y-53848062D01*
X100853809Y-53771872D01*
X100891904Y-53657586D01*
X100891904Y-53467110D01*
X100091904Y-54190919D02*
X100091904Y-54686157D01*
X100396666Y-54419491D01*
X100396666Y-54533776D01*
X100434761Y-54609967D01*
X100472857Y-54648062D01*
X100549047Y-54686157D01*
X100739523Y-54686157D01*
X100815714Y-54648062D01*
X100853809Y-54609967D01*
X100891904Y-54533776D01*
X100891904Y-54305205D01*
X100853809Y-54229014D01*
X100815714Y-54190919D01*
X103431904Y-53870523D02*
X102631904Y-53870523D01*
X102631904Y-54061000D01*
X102670000Y-54175285D01*
X102746190Y-54251476D01*
X102822380Y-54289571D01*
X102974761Y-54327666D01*
X103089047Y-54327666D01*
X103241428Y-54289571D01*
X103317619Y-54251476D01*
X103393809Y-54175285D01*
X103431904Y-54061000D01*
X103431904Y-53870523D01*
X102708095Y-54632428D02*
X102670000Y-54670523D01*
X102631904Y-54746714D01*
X102631904Y-54937190D01*
X102670000Y-55013380D01*
X102708095Y-55051476D01*
X102784285Y-55089571D01*
X102860476Y-55089571D01*
X102974761Y-55051476D01*
X103431904Y-54594333D01*
X103431904Y-55089571D01*
X113591904Y-53870523D02*
X112791904Y-53870523D01*
X112791904Y-54061000D01*
X112830000Y-54175285D01*
X112906190Y-54251476D01*
X112982380Y-54289571D01*
X113134761Y-54327666D01*
X113249047Y-54327666D01*
X113401428Y-54289571D01*
X113477619Y-54251476D01*
X113553809Y-54175285D01*
X113591904Y-54061000D01*
X113591904Y-53870523D01*
X112791904Y-54822904D02*
X112791904Y-54899095D01*
X112830000Y-54975285D01*
X112868095Y-55013380D01*
X112944285Y-55051476D01*
X113096666Y-55089571D01*
X113287142Y-55089571D01*
X113439523Y-55051476D01*
X113515714Y-55013380D01*
X113553809Y-54975285D01*
X113591904Y-54899095D01*
X113591904Y-54822904D01*
X113553809Y-54746714D01*
X113515714Y-54708619D01*
X113439523Y-54670523D01*
X113287142Y-54632428D01*
X113096666Y-54632428D01*
X112944285Y-54670523D01*
X112868095Y-54708619D01*
X112830000Y-54746714D01*
X112791904Y-54822904D01*
X111051904Y-53870523D02*
X110251904Y-53870523D01*
X110251904Y-54061000D01*
X110290000Y-54175285D01*
X110366190Y-54251476D01*
X110442380Y-54289571D01*
X110594761Y-54327666D01*
X110709047Y-54327666D01*
X110861428Y-54289571D01*
X110937619Y-54251476D01*
X111013809Y-54175285D01*
X111051904Y-54061000D01*
X111051904Y-53870523D01*
X111051904Y-55089571D02*
X111051904Y-54632428D01*
X111051904Y-54861000D02*
X110251904Y-54861000D01*
X110366190Y-54784809D01*
X110442380Y-54708619D01*
X110480476Y-54632428D01*
X107750000Y-53851476D02*
X107711904Y-53775285D01*
X107711904Y-53661000D01*
X107750000Y-53546714D01*
X107826190Y-53470523D01*
X107902380Y-53432428D01*
X108054761Y-53394333D01*
X108169047Y-53394333D01*
X108321428Y-53432428D01*
X108397619Y-53470523D01*
X108473809Y-53546714D01*
X108511904Y-53661000D01*
X108511904Y-53737190D01*
X108473809Y-53851476D01*
X108435714Y-53889571D01*
X108169047Y-53889571D01*
X108169047Y-53737190D01*
X108511904Y-54232428D02*
X107711904Y-54232428D01*
X108511904Y-54689571D01*
X107711904Y-54689571D01*
X108511904Y-55070523D02*
X107711904Y-55070523D01*
X107711904Y-55261000D01*
X107750000Y-55375285D01*
X107826190Y-55451476D01*
X107902380Y-55489571D01*
X108054761Y-55527666D01*
X108169047Y-55527666D01*
X108321428Y-55489571D01*
X108397619Y-55451476D01*
X108473809Y-55375285D01*
X108511904Y-55261000D01*
X108511904Y-55070523D01*
X116131904Y-53870523D02*
X115331904Y-53870523D01*
X115331904Y-54061000D01*
X115370000Y-54175285D01*
X115446190Y-54251476D01*
X115522380Y-54289571D01*
X115674761Y-54327666D01*
X115789047Y-54327666D01*
X115941428Y-54289571D01*
X116017619Y-54251476D01*
X116093809Y-54175285D01*
X116131904Y-54061000D01*
X116131904Y-53870523D01*
X115598571Y-55013380D02*
X116131904Y-55013380D01*
X115293809Y-54822904D02*
X115865238Y-54632428D01*
X115865238Y-55127666D01*
X118595714Y-54327666D02*
X118633809Y-54289571D01*
X118671904Y-54175285D01*
X118671904Y-54099095D01*
X118633809Y-53984809D01*
X118557619Y-53908619D01*
X118481428Y-53870523D01*
X118329047Y-53832428D01*
X118214761Y-53832428D01*
X118062380Y-53870523D01*
X117986190Y-53908619D01*
X117910000Y-53984809D01*
X117871904Y-54099095D01*
X117871904Y-54175285D01*
X117910000Y-54289571D01*
X117948095Y-54327666D01*
X117871904Y-55013380D02*
X117871904Y-54861000D01*
X117910000Y-54784809D01*
X117948095Y-54746714D01*
X118062380Y-54670523D01*
X118214761Y-54632428D01*
X118519523Y-54632428D01*
X118595714Y-54670523D01*
X118633809Y-54708619D01*
X118671904Y-54784809D01*
X118671904Y-54937190D01*
X118633809Y-55013380D01*
X118595714Y-55051476D01*
X118519523Y-55089571D01*
X118329047Y-55089571D01*
X118252857Y-55051476D01*
X118214761Y-55013380D01*
X118176666Y-54937190D01*
X118176666Y-54784809D01*
X118214761Y-54708619D01*
X118252857Y-54670523D01*
X118329047Y-54632428D01*
X121211904Y-53870523D02*
X120411904Y-53870523D01*
X120411904Y-54061000D01*
X120450000Y-54175285D01*
X120526190Y-54251476D01*
X120602380Y-54289571D01*
X120754761Y-54327666D01*
X120869047Y-54327666D01*
X121021428Y-54289571D01*
X121097619Y-54251476D01*
X121173809Y-54175285D01*
X121211904Y-54061000D01*
X121211904Y-53870523D01*
X120411904Y-54594333D02*
X120411904Y-55127666D01*
X121211904Y-54784809D01*
X123332857Y-53908619D02*
X123332857Y-54175285D01*
X123751904Y-54289571D02*
X123751904Y-53908619D01*
X122951904Y-53908619D01*
X122951904Y-54289571D01*
X122951904Y-54975285D02*
X122951904Y-54822904D01*
X122990000Y-54746714D01*
X123028095Y-54708619D01*
X123142380Y-54632428D01*
X123294761Y-54594333D01*
X123599523Y-54594333D01*
X123675714Y-54632428D01*
X123713809Y-54670523D01*
X123751904Y-54746714D01*
X123751904Y-54899095D01*
X123713809Y-54975285D01*
X123675714Y-55013380D01*
X123599523Y-55051476D01*
X123409047Y-55051476D01*
X123332857Y-55013380D01*
X123294761Y-54975285D01*
X123256666Y-54899095D01*
X123256666Y-54746714D01*
X123294761Y-54670523D01*
X123332857Y-54632428D01*
X123409047Y-54594333D01*
X125872857Y-54137190D02*
X125910952Y-54251476D01*
X125949047Y-54289571D01*
X126025238Y-54327666D01*
X126139523Y-54327666D01*
X126215714Y-54289571D01*
X126253809Y-54251476D01*
X126291904Y-54175285D01*
X126291904Y-53870523D01*
X125491904Y-53870523D01*
X125491904Y-54137190D01*
X125530000Y-54213380D01*
X125568095Y-54251476D01*
X125644285Y-54289571D01*
X125720476Y-54289571D01*
X125796666Y-54251476D01*
X125834761Y-54213380D01*
X125872857Y-54137190D01*
X125872857Y-53870523D01*
X125758571Y-55013380D02*
X126291904Y-55013380D01*
X125453809Y-54822904D02*
X126025238Y-54632428D01*
X126025238Y-55127666D01*
X128412857Y-54137190D02*
X128450952Y-54251476D01*
X128489047Y-54289571D01*
X128565238Y-54327666D01*
X128679523Y-54327666D01*
X128755714Y-54289571D01*
X128793809Y-54251476D01*
X128831904Y-54175285D01*
X128831904Y-53870523D01*
X128031904Y-53870523D01*
X128031904Y-54137190D01*
X128070000Y-54213380D01*
X128108095Y-54251476D01*
X128184285Y-54289571D01*
X128260476Y-54289571D01*
X128336666Y-54251476D01*
X128374761Y-54213380D01*
X128412857Y-54137190D01*
X128412857Y-53870523D01*
X128031904Y-55051476D02*
X128031904Y-54670523D01*
X128412857Y-54632428D01*
X128374761Y-54670523D01*
X128336666Y-54746714D01*
X128336666Y-54937190D01*
X128374761Y-55013380D01*
X128412857Y-55051476D01*
X128489047Y-55089571D01*
X128679523Y-55089571D01*
X128755714Y-55051476D01*
X128793809Y-55013380D01*
X128831904Y-54937190D01*
X128831904Y-54746714D01*
X128793809Y-54670523D01*
X128755714Y-54632428D01*
X128412857Y-43215190D02*
X128450952Y-43329476D01*
X128489047Y-43367571D01*
X128565238Y-43405666D01*
X128679523Y-43405666D01*
X128755714Y-43367571D01*
X128793809Y-43329476D01*
X128831904Y-43253285D01*
X128831904Y-42948523D01*
X128031904Y-42948523D01*
X128031904Y-43215190D01*
X128070000Y-43291380D01*
X128108095Y-43329476D01*
X128184285Y-43367571D01*
X128260476Y-43367571D01*
X128336666Y-43329476D01*
X128374761Y-43291380D01*
X128412857Y-43215190D01*
X128412857Y-42948523D01*
X128031904Y-44091380D02*
X128031904Y-43939000D01*
X128070000Y-43862809D01*
X128108095Y-43824714D01*
X128222380Y-43748523D01*
X128374761Y-43710428D01*
X128679523Y-43710428D01*
X128755714Y-43748523D01*
X128793809Y-43786619D01*
X128831904Y-43862809D01*
X128831904Y-44015190D01*
X128793809Y-44091380D01*
X128755714Y-44129476D01*
X128679523Y-44167571D01*
X128489047Y-44167571D01*
X128412857Y-44129476D01*
X128374761Y-44091380D01*
X128336666Y-44015190D01*
X128336666Y-43862809D01*
X128374761Y-43786619D01*
X128412857Y-43748523D01*
X128489047Y-43710428D01*
X123332857Y-43215190D02*
X123370952Y-43329476D01*
X123409047Y-43367571D01*
X123485238Y-43405666D01*
X123599523Y-43405666D01*
X123675714Y-43367571D01*
X123713809Y-43329476D01*
X123751904Y-43253285D01*
X123751904Y-42948523D01*
X122951904Y-42948523D01*
X122951904Y-43215190D01*
X122990000Y-43291380D01*
X123028095Y-43329476D01*
X123104285Y-43367571D01*
X123180476Y-43367571D01*
X123256666Y-43329476D01*
X123294761Y-43291380D01*
X123332857Y-43215190D01*
X123332857Y-42948523D01*
X122951904Y-43672333D02*
X122951904Y-44167571D01*
X123256666Y-43900904D01*
X123256666Y-44015190D01*
X123294761Y-44091380D01*
X123332857Y-44129476D01*
X123409047Y-44167571D01*
X123599523Y-44167571D01*
X123675714Y-44129476D01*
X123713809Y-44091380D01*
X123751904Y-44015190D01*
X123751904Y-43786619D01*
X123713809Y-43710428D01*
X123675714Y-43672333D01*
X120792857Y-43215190D02*
X120830952Y-43329476D01*
X120869047Y-43367571D01*
X120945238Y-43405666D01*
X121059523Y-43405666D01*
X121135714Y-43367571D01*
X121173809Y-43329476D01*
X121211904Y-43253285D01*
X121211904Y-42948523D01*
X120411904Y-42948523D01*
X120411904Y-43215190D01*
X120450000Y-43291380D01*
X120488095Y-43329476D01*
X120564285Y-43367571D01*
X120640476Y-43367571D01*
X120716666Y-43329476D01*
X120754761Y-43291380D01*
X120792857Y-43215190D01*
X120792857Y-42948523D01*
X121211904Y-44167571D02*
X121211904Y-43710428D01*
X121211904Y-43939000D02*
X120411904Y-43939000D01*
X120526190Y-43862809D01*
X120602380Y-43786619D01*
X120640476Y-43710428D01*
X110632857Y-43272333D02*
X110632857Y-43005666D01*
X111051904Y-43005666D02*
X110251904Y-43005666D01*
X110251904Y-43386619D01*
X110518571Y-44034238D02*
X111051904Y-44034238D01*
X110213809Y-43843761D02*
X110785238Y-43653285D01*
X110785238Y-44148523D01*
X107711904Y-42472333D02*
X108511904Y-42739000D01*
X107711904Y-43005666D01*
X108435714Y-43729476D02*
X108473809Y-43691380D01*
X108511904Y-43577095D01*
X108511904Y-43500904D01*
X108473809Y-43386619D01*
X108397619Y-43310428D01*
X108321428Y-43272333D01*
X108169047Y-43234238D01*
X108054761Y-43234238D01*
X107902380Y-43272333D01*
X107826190Y-43310428D01*
X107750000Y-43386619D01*
X107711904Y-43500904D01*
X107711904Y-43577095D01*
X107750000Y-43691380D01*
X107788095Y-43729476D01*
X108435714Y-44529476D02*
X108473809Y-44491380D01*
X108511904Y-44377095D01*
X108511904Y-44300904D01*
X108473809Y-44186619D01*
X108397619Y-44110428D01*
X108321428Y-44072333D01*
X108169047Y-44034238D01*
X108054761Y-44034238D01*
X107902380Y-44072333D01*
X107826190Y-44110428D01*
X107750000Y-44186619D01*
X107711904Y-44300904D01*
X107711904Y-44377095D01*
X107750000Y-44491380D01*
X107788095Y-44529476D01*
X100891904Y-42986619D02*
X100510952Y-42719952D01*
X100891904Y-42529476D02*
X100091904Y-42529476D01*
X100091904Y-42834238D01*
X100130000Y-42910428D01*
X100168095Y-42948523D01*
X100244285Y-42986619D01*
X100358571Y-42986619D01*
X100434761Y-42948523D01*
X100472857Y-42910428D01*
X100510952Y-42834238D01*
X100510952Y-42529476D01*
X100663333Y-43291380D02*
X100663333Y-43672333D01*
X100891904Y-43215190D02*
X100091904Y-43481857D01*
X100891904Y-43748523D01*
X100091904Y-43939000D02*
X100891904Y-44129476D01*
X100320476Y-44281857D01*
X100891904Y-44434238D01*
X100091904Y-44624714D01*
X100891904Y-42986619D02*
X100510952Y-42719952D01*
X100891904Y-42529476D02*
X100091904Y-42529476D01*
X100091904Y-42834238D01*
X100130000Y-42910428D01*
X100168095Y-42948523D01*
X100244285Y-42986619D01*
X100358571Y-42986619D01*
X100434761Y-42948523D01*
X100472857Y-42910428D01*
X100510952Y-42834238D01*
X100510952Y-42529476D01*
X100663333Y-43291380D02*
X100663333Y-43672333D01*
X100891904Y-43215190D02*
X100091904Y-43481857D01*
X100891904Y-43748523D01*
X100091904Y-43939000D02*
X100891904Y-44129476D01*
X100320476Y-44281857D01*
X100891904Y-44434238D01*
X100091904Y-44624714D01*
X102670000Y-42929476D02*
X102631904Y-42853285D01*
X102631904Y-42739000D01*
X102670000Y-42624714D01*
X102746190Y-42548523D01*
X102822380Y-42510428D01*
X102974761Y-42472333D01*
X103089047Y-42472333D01*
X103241428Y-42510428D01*
X103317619Y-42548523D01*
X103393809Y-42624714D01*
X103431904Y-42739000D01*
X103431904Y-42815190D01*
X103393809Y-42929476D01*
X103355714Y-42967571D01*
X103089047Y-42967571D01*
X103089047Y-42815190D01*
X103431904Y-43310428D02*
X102631904Y-43310428D01*
X103431904Y-43767571D01*
X102631904Y-43767571D01*
X103431904Y-44148523D02*
X102631904Y-44148523D01*
X102631904Y-44339000D01*
X102670000Y-44453285D01*
X102746190Y-44529476D01*
X102822380Y-44567571D01*
X102974761Y-44605666D01*
X103089047Y-44605666D01*
X103241428Y-44567571D01*
X103317619Y-44529476D01*
X103393809Y-44453285D01*
X103431904Y-44339000D01*
X103431904Y-44148523D01*
X107711904Y-42472333D02*
X108511904Y-42739000D01*
X107711904Y-43005666D01*
X108435714Y-43729476D02*
X108473809Y-43691380D01*
X108511904Y-43577095D01*
X108511904Y-43500904D01*
X108473809Y-43386619D01*
X108397619Y-43310428D01*
X108321428Y-43272333D01*
X108169047Y-43234238D01*
X108054761Y-43234238D01*
X107902380Y-43272333D01*
X107826190Y-43310428D01*
X107750000Y-43386619D01*
X107711904Y-43500904D01*
X107711904Y-43577095D01*
X107750000Y-43691380D01*
X107788095Y-43729476D01*
X108435714Y-44529476D02*
X108473809Y-44491380D01*
X108511904Y-44377095D01*
X108511904Y-44300904D01*
X108473809Y-44186619D01*
X108397619Y-44110428D01*
X108321428Y-44072333D01*
X108169047Y-44034238D01*
X108054761Y-44034238D01*
X107902380Y-44072333D01*
X107826190Y-44110428D01*
X107750000Y-44186619D01*
X107711904Y-44300904D01*
X107711904Y-44377095D01*
X107750000Y-44491380D01*
X107788095Y-44529476D01*
X110632857Y-43272333D02*
X110632857Y-43005666D01*
X111051904Y-43005666D02*
X110251904Y-43005666D01*
X110251904Y-43386619D01*
X110518571Y-44034238D02*
X111051904Y-44034238D01*
X110213809Y-43843761D02*
X110785238Y-43653285D01*
X110785238Y-44148523D01*
X120792857Y-43215190D02*
X120830952Y-43329476D01*
X120869047Y-43367571D01*
X120945238Y-43405666D01*
X121059523Y-43405666D01*
X121135714Y-43367571D01*
X121173809Y-43329476D01*
X121211904Y-43253285D01*
X121211904Y-42948523D01*
X120411904Y-42948523D01*
X120411904Y-43215190D01*
X120450000Y-43291380D01*
X120488095Y-43329476D01*
X120564285Y-43367571D01*
X120640476Y-43367571D01*
X120716666Y-43329476D01*
X120754761Y-43291380D01*
X120792857Y-43215190D01*
X120792857Y-42948523D01*
X121211904Y-44167571D02*
X121211904Y-43710428D01*
X121211904Y-43939000D02*
X120411904Y-43939000D01*
X120526190Y-43862809D01*
X120602380Y-43786619D01*
X120640476Y-43710428D01*
X123332857Y-43215190D02*
X123370952Y-43329476D01*
X123409047Y-43367571D01*
X123485238Y-43405666D01*
X123599523Y-43405666D01*
X123675714Y-43367571D01*
X123713809Y-43329476D01*
X123751904Y-43253285D01*
X123751904Y-42948523D01*
X122951904Y-42948523D01*
X122951904Y-43215190D01*
X122990000Y-43291380D01*
X123028095Y-43329476D01*
X123104285Y-43367571D01*
X123180476Y-43367571D01*
X123256666Y-43329476D01*
X123294761Y-43291380D01*
X123332857Y-43215190D01*
X123332857Y-42948523D01*
X122951904Y-43672333D02*
X122951904Y-44167571D01*
X123256666Y-43900904D01*
X123256666Y-44015190D01*
X123294761Y-44091380D01*
X123332857Y-44129476D01*
X123409047Y-44167571D01*
X123599523Y-44167571D01*
X123675714Y-44129476D01*
X123713809Y-44091380D01*
X123751904Y-44015190D01*
X123751904Y-43786619D01*
X123713809Y-43710428D01*
X123675714Y-43672333D01*
X128412857Y-43215190D02*
X128450952Y-43329476D01*
X128489047Y-43367571D01*
X128565238Y-43405666D01*
X128679523Y-43405666D01*
X128755714Y-43367571D01*
X128793809Y-43329476D01*
X128831904Y-43253285D01*
X128831904Y-42948523D01*
X128031904Y-42948523D01*
X128031904Y-43215190D01*
X128070000Y-43291380D01*
X128108095Y-43329476D01*
X128184285Y-43367571D01*
X128260476Y-43367571D01*
X128336666Y-43329476D01*
X128374761Y-43291380D01*
X128412857Y-43215190D01*
X128412857Y-42948523D01*
X128031904Y-44091380D02*
X128031904Y-43939000D01*
X128070000Y-43862809D01*
X128108095Y-43824714D01*
X128222380Y-43748523D01*
X128374761Y-43710428D01*
X128679523Y-43710428D01*
X128755714Y-43748523D01*
X128793809Y-43786619D01*
X128831904Y-43862809D01*
X128831904Y-44015190D01*
X128793809Y-44091380D01*
X128755714Y-44129476D01*
X128679523Y-44167571D01*
X128489047Y-44167571D01*
X128412857Y-44129476D01*
X128374761Y-44091380D01*
X128336666Y-44015190D01*
X128336666Y-43862809D01*
X128374761Y-43786619D01*
X128412857Y-43748523D01*
X128489047Y-43710428D01*
X128412857Y-54137190D02*
X128450952Y-54251476D01*
X128489047Y-54289571D01*
X128565238Y-54327666D01*
X128679523Y-54327666D01*
X128755714Y-54289571D01*
X128793809Y-54251476D01*
X128831904Y-54175285D01*
X128831904Y-53870523D01*
X128031904Y-53870523D01*
X128031904Y-54137190D01*
X128070000Y-54213380D01*
X128108095Y-54251476D01*
X128184285Y-54289571D01*
X128260476Y-54289571D01*
X128336666Y-54251476D01*
X128374761Y-54213380D01*
X128412857Y-54137190D01*
X128412857Y-53870523D01*
X128031904Y-55051476D02*
X128031904Y-54670523D01*
X128412857Y-54632428D01*
X128374761Y-54670523D01*
X128336666Y-54746714D01*
X128336666Y-54937190D01*
X128374761Y-55013380D01*
X128412857Y-55051476D01*
X128489047Y-55089571D01*
X128679523Y-55089571D01*
X128755714Y-55051476D01*
X128793809Y-55013380D01*
X128831904Y-54937190D01*
X128831904Y-54746714D01*
X128793809Y-54670523D01*
X128755714Y-54632428D01*
X125872857Y-54137190D02*
X125910952Y-54251476D01*
X125949047Y-54289571D01*
X126025238Y-54327666D01*
X126139523Y-54327666D01*
X126215714Y-54289571D01*
X126253809Y-54251476D01*
X126291904Y-54175285D01*
X126291904Y-53870523D01*
X125491904Y-53870523D01*
X125491904Y-54137190D01*
X125530000Y-54213380D01*
X125568095Y-54251476D01*
X125644285Y-54289571D01*
X125720476Y-54289571D01*
X125796666Y-54251476D01*
X125834761Y-54213380D01*
X125872857Y-54137190D01*
X125872857Y-53870523D01*
X125758571Y-55013380D02*
X126291904Y-55013380D01*
X125453809Y-54822904D02*
X126025238Y-54632428D01*
X126025238Y-55127666D01*
X123332857Y-53908619D02*
X123332857Y-54175285D01*
X123751904Y-54289571D02*
X123751904Y-53908619D01*
X122951904Y-53908619D01*
X122951904Y-54289571D01*
X122951904Y-54975285D02*
X122951904Y-54822904D01*
X122990000Y-54746714D01*
X123028095Y-54708619D01*
X123142380Y-54632428D01*
X123294761Y-54594333D01*
X123599523Y-54594333D01*
X123675714Y-54632428D01*
X123713809Y-54670523D01*
X123751904Y-54746714D01*
X123751904Y-54899095D01*
X123713809Y-54975285D01*
X123675714Y-55013380D01*
X123599523Y-55051476D01*
X123409047Y-55051476D01*
X123332857Y-55013380D01*
X123294761Y-54975285D01*
X123256666Y-54899095D01*
X123256666Y-54746714D01*
X123294761Y-54670523D01*
X123332857Y-54632428D01*
X123409047Y-54594333D01*
X121211904Y-53870523D02*
X120411904Y-53870523D01*
X120411904Y-54061000D01*
X120450000Y-54175285D01*
X120526190Y-54251476D01*
X120602380Y-54289571D01*
X120754761Y-54327666D01*
X120869047Y-54327666D01*
X121021428Y-54289571D01*
X121097619Y-54251476D01*
X121173809Y-54175285D01*
X121211904Y-54061000D01*
X121211904Y-53870523D01*
X120411904Y-54594333D02*
X120411904Y-55127666D01*
X121211904Y-54784809D01*
X118595714Y-54327666D02*
X118633809Y-54289571D01*
X118671904Y-54175285D01*
X118671904Y-54099095D01*
X118633809Y-53984809D01*
X118557619Y-53908619D01*
X118481428Y-53870523D01*
X118329047Y-53832428D01*
X118214761Y-53832428D01*
X118062380Y-53870523D01*
X117986190Y-53908619D01*
X117910000Y-53984809D01*
X117871904Y-54099095D01*
X117871904Y-54175285D01*
X117910000Y-54289571D01*
X117948095Y-54327666D01*
X117871904Y-55013380D02*
X117871904Y-54861000D01*
X117910000Y-54784809D01*
X117948095Y-54746714D01*
X118062380Y-54670523D01*
X118214761Y-54632428D01*
X118519523Y-54632428D01*
X118595714Y-54670523D01*
X118633809Y-54708619D01*
X118671904Y-54784809D01*
X118671904Y-54937190D01*
X118633809Y-55013380D01*
X118595714Y-55051476D01*
X118519523Y-55089571D01*
X118329047Y-55089571D01*
X118252857Y-55051476D01*
X118214761Y-55013380D01*
X118176666Y-54937190D01*
X118176666Y-54784809D01*
X118214761Y-54708619D01*
X118252857Y-54670523D01*
X118329047Y-54632428D01*
X116131904Y-53870523D02*
X115331904Y-53870523D01*
X115331904Y-54061000D01*
X115370000Y-54175285D01*
X115446190Y-54251476D01*
X115522380Y-54289571D01*
X115674761Y-54327666D01*
X115789047Y-54327666D01*
X115941428Y-54289571D01*
X116017619Y-54251476D01*
X116093809Y-54175285D01*
X116131904Y-54061000D01*
X116131904Y-53870523D01*
X115598571Y-55013380D02*
X116131904Y-55013380D01*
X115293809Y-54822904D02*
X115865238Y-54632428D01*
X115865238Y-55127666D01*
X105210000Y-53851476D02*
X105171904Y-53775285D01*
X105171904Y-53661000D01*
X105210000Y-53546714D01*
X105286190Y-53470523D01*
X105362380Y-53432428D01*
X105514761Y-53394333D01*
X105629047Y-53394333D01*
X105781428Y-53432428D01*
X105857619Y-53470523D01*
X105933809Y-53546714D01*
X105971904Y-53661000D01*
X105971904Y-53737190D01*
X105933809Y-53851476D01*
X105895714Y-53889571D01*
X105629047Y-53889571D01*
X105629047Y-53737190D01*
X105971904Y-54232428D02*
X105171904Y-54232428D01*
X105971904Y-54689571D01*
X105171904Y-54689571D01*
X105971904Y-55070523D02*
X105171904Y-55070523D01*
X105171904Y-55261000D01*
X105210000Y-55375285D01*
X105286190Y-55451476D01*
X105362380Y-55489571D01*
X105514761Y-55527666D01*
X105629047Y-55527666D01*
X105781428Y-55489571D01*
X105857619Y-55451476D01*
X105933809Y-55375285D01*
X105971904Y-55261000D01*
X105971904Y-55070523D01*
X107750000Y-53851476D02*
X107711904Y-53775285D01*
X107711904Y-53661000D01*
X107750000Y-53546714D01*
X107826190Y-53470523D01*
X107902380Y-53432428D01*
X108054761Y-53394333D01*
X108169047Y-53394333D01*
X108321428Y-53432428D01*
X108397619Y-53470523D01*
X108473809Y-53546714D01*
X108511904Y-53661000D01*
X108511904Y-53737190D01*
X108473809Y-53851476D01*
X108435714Y-53889571D01*
X108169047Y-53889571D01*
X108169047Y-53737190D01*
X108511904Y-54232428D02*
X107711904Y-54232428D01*
X108511904Y-54689571D01*
X107711904Y-54689571D01*
X108511904Y-55070523D02*
X107711904Y-55070523D01*
X107711904Y-55261000D01*
X107750000Y-55375285D01*
X107826190Y-55451476D01*
X107902380Y-55489571D01*
X108054761Y-55527666D01*
X108169047Y-55527666D01*
X108321428Y-55489571D01*
X108397619Y-55451476D01*
X108473809Y-55375285D01*
X108511904Y-55261000D01*
X108511904Y-55070523D01*
X111051904Y-53870523D02*
X110251904Y-53870523D01*
X110251904Y-54061000D01*
X110290000Y-54175285D01*
X110366190Y-54251476D01*
X110442380Y-54289571D01*
X110594761Y-54327666D01*
X110709047Y-54327666D01*
X110861428Y-54289571D01*
X110937619Y-54251476D01*
X111013809Y-54175285D01*
X111051904Y-54061000D01*
X111051904Y-53870523D01*
X111051904Y-55089571D02*
X111051904Y-54632428D01*
X111051904Y-54861000D02*
X110251904Y-54861000D01*
X110366190Y-54784809D01*
X110442380Y-54708619D01*
X110480476Y-54632428D01*
X113591904Y-53870523D02*
X112791904Y-53870523D01*
X112791904Y-54061000D01*
X112830000Y-54175285D01*
X112906190Y-54251476D01*
X112982380Y-54289571D01*
X113134761Y-54327666D01*
X113249047Y-54327666D01*
X113401428Y-54289571D01*
X113477619Y-54251476D01*
X113553809Y-54175285D01*
X113591904Y-54061000D01*
X113591904Y-53870523D01*
X112791904Y-54822904D02*
X112791904Y-54899095D01*
X112830000Y-54975285D01*
X112868095Y-55013380D01*
X112944285Y-55051476D01*
X113096666Y-55089571D01*
X113287142Y-55089571D01*
X113439523Y-55051476D01*
X113515714Y-55013380D01*
X113553809Y-54975285D01*
X113591904Y-54899095D01*
X113591904Y-54822904D01*
X113553809Y-54746714D01*
X113515714Y-54708619D01*
X113439523Y-54670523D01*
X113287142Y-54632428D01*
X113096666Y-54632428D01*
X112944285Y-54670523D01*
X112868095Y-54708619D01*
X112830000Y-54746714D01*
X112791904Y-54822904D01*
X103431904Y-53870523D02*
X102631904Y-53870523D01*
X102631904Y-54061000D01*
X102670000Y-54175285D01*
X102746190Y-54251476D01*
X102822380Y-54289571D01*
X102974761Y-54327666D01*
X103089047Y-54327666D01*
X103241428Y-54289571D01*
X103317619Y-54251476D01*
X103393809Y-54175285D01*
X103431904Y-54061000D01*
X103431904Y-53870523D01*
X102708095Y-54632428D02*
X102670000Y-54670523D01*
X102631904Y-54746714D01*
X102631904Y-54937190D01*
X102670000Y-55013380D01*
X102708095Y-55051476D01*
X102784285Y-55089571D01*
X102860476Y-55089571D01*
X102974761Y-55051476D01*
X103431904Y-54594333D01*
X103431904Y-55089571D01*
M02*
