G04 #@! TF.GenerationSoftware,KiCad,Pcbnew,5.1.8*
G04 #@! TF.CreationDate,2020-12-21T15:28:55-06:00*
G04 #@! TF.ProjectId,fissure,66697373-7572-4652-9e6b-696361645f70,rev?*
G04 #@! TF.SameCoordinates,Original*
G04 #@! TF.FileFunction,Legend,Top*
G04 #@! TF.FilePolarity,Positive*
%FSLAX46Y46*%
G04 Gerber Fmt 4.6, Leading zero omitted, Abs format (unit mm)*
G04 Created by KiCad (PCBNEW 5.1.8) date 2020-12-21 15:28:55*
%MOMM*%
%LPD*%
G01*
G04 APERTURE LIST*
%ADD10C,0.150000*%
%ADD11C,0.120000*%
%ADD12C,0.381000*%
G04 APERTURE END LIST*
D10*
X65080952Y-73852380D02*
X65080952Y-74566666D01*
X65033333Y-74709523D01*
X64938095Y-74804761D01*
X64795238Y-74852380D01*
X64700000Y-74852380D01*
X66033333Y-74852380D02*
X65557142Y-74852380D01*
X65557142Y-73852380D01*
X66938095Y-74757142D02*
X66890476Y-74804761D01*
X66747619Y-74852380D01*
X66652380Y-74852380D01*
X66509523Y-74804761D01*
X66414285Y-74709523D01*
X66366666Y-74614285D01*
X66319047Y-74423809D01*
X66319047Y-74280952D01*
X66366666Y-74090476D01*
X66414285Y-73995238D01*
X66509523Y-73900000D01*
X66652380Y-73852380D01*
X66747619Y-73852380D01*
X66890476Y-73900000D01*
X66938095Y-73947619D01*
X67652380Y-73852380D02*
X67652380Y-74566666D01*
X67604761Y-74709523D01*
X67509523Y-74804761D01*
X67366666Y-74852380D01*
X67271428Y-74852380D01*
X68604761Y-74852380D02*
X68128571Y-74852380D01*
X68128571Y-73852380D01*
X69509523Y-74757142D02*
X69461904Y-74804761D01*
X69319047Y-74852380D01*
X69223809Y-74852380D01*
X69080952Y-74804761D01*
X68985714Y-74709523D01*
X68938095Y-74614285D01*
X68890476Y-74423809D01*
X68890476Y-74280952D01*
X68938095Y-74090476D01*
X68985714Y-73995238D01*
X69080952Y-73900000D01*
X69223809Y-73852380D01*
X69319047Y-73852380D01*
X69461904Y-73900000D01*
X69509523Y-73947619D01*
X70223809Y-73852380D02*
X70223809Y-74566666D01*
X70176190Y-74709523D01*
X70080952Y-74804761D01*
X69938095Y-74852380D01*
X69842857Y-74852380D01*
X71176190Y-74852380D02*
X70700000Y-74852380D01*
X70700000Y-73852380D01*
X72080952Y-74757142D02*
X72033333Y-74804761D01*
X71890476Y-74852380D01*
X71795238Y-74852380D01*
X71652380Y-74804761D01*
X71557142Y-74709523D01*
X71509523Y-74614285D01*
X71461904Y-74423809D01*
X71461904Y-74280952D01*
X71509523Y-74090476D01*
X71557142Y-73995238D01*
X71652380Y-73900000D01*
X71795238Y-73852380D01*
X71890476Y-73852380D01*
X72033333Y-73900000D01*
X72080952Y-73947619D01*
X72795238Y-73852380D02*
X72795238Y-74566666D01*
X72747619Y-74709523D01*
X72652380Y-74804761D01*
X72509523Y-74852380D01*
X72414285Y-74852380D01*
X73747619Y-74852380D02*
X73271428Y-74852380D01*
X73271428Y-73852380D01*
X74652380Y-74757142D02*
X74604761Y-74804761D01*
X74461904Y-74852380D01*
X74366666Y-74852380D01*
X74223809Y-74804761D01*
X74128571Y-74709523D01*
X74080952Y-74614285D01*
X74033333Y-74423809D01*
X74033333Y-74280952D01*
X74080952Y-74090476D01*
X74128571Y-73995238D01*
X74223809Y-73900000D01*
X74366666Y-73852380D01*
X74461904Y-73852380D01*
X74604761Y-73900000D01*
X74652380Y-73947619D01*
D11*
X145500000Y-96000000D02*
G75*
G03*
X145500000Y-96000000I-3500000J0D01*
G01*
X145500000Y-59000000D02*
G75*
G03*
X145500000Y-59000000I-3500000J0D01*
G01*
X177100000Y-125000000D02*
G75*
G03*
X177100000Y-125000000I-3500000J0D01*
G01*
X33000000Y-64500000D02*
G75*
G03*
X33000000Y-64500000I-3500000J0D01*
G01*
X33000000Y-115500000D02*
G75*
G03*
X33000000Y-115500000I-3500000J0D01*
G01*
X135850000Y-132000000D02*
G75*
G03*
X135850000Y-132000000I-3500000J0D01*
G01*
D12*
X60610000Y-59230000D02*
X60610000Y-89710000D01*
X60610000Y-89710000D02*
X78390000Y-89710000D01*
X78390000Y-89710000D02*
X78390000Y-59230000D01*
X63150000Y-59230000D02*
X63150000Y-61770000D01*
X63150000Y-61770000D02*
X60610000Y-61770000D01*
D10*
G36*
X74431568Y-65109360D02*
G01*
X74431568Y-65409360D01*
X74331568Y-65409360D01*
X74331568Y-65109360D01*
X74431568Y-65109360D01*
G37*
X74431568Y-65109360D02*
X74431568Y-65409360D01*
X74331568Y-65409360D01*
X74331568Y-65109360D01*
X74431568Y-65109360D01*
G36*
X74231568Y-65509360D02*
G01*
X74231568Y-65609360D01*
X74131568Y-65609360D01*
X74131568Y-65509360D01*
X74231568Y-65509360D01*
G37*
X74231568Y-65509360D02*
X74231568Y-65609360D01*
X74131568Y-65609360D01*
X74131568Y-65509360D01*
X74231568Y-65509360D01*
G36*
X74431568Y-65109360D02*
G01*
X74431568Y-65209360D01*
X73931568Y-65209360D01*
X73931568Y-65109360D01*
X74431568Y-65109360D01*
G37*
X74431568Y-65109360D02*
X74431568Y-65209360D01*
X73931568Y-65209360D01*
X73931568Y-65109360D01*
X74431568Y-65109360D01*
G36*
X74031568Y-65109360D02*
G01*
X74031568Y-65909360D01*
X73931568Y-65909360D01*
X73931568Y-65109360D01*
X74031568Y-65109360D01*
G37*
X74031568Y-65109360D02*
X74031568Y-65909360D01*
X73931568Y-65909360D01*
X73931568Y-65109360D01*
X74031568Y-65109360D01*
G36*
X74431568Y-65709360D02*
G01*
X74431568Y-65909360D01*
X74331568Y-65909360D01*
X74331568Y-65709360D01*
X74431568Y-65709360D01*
G37*
X74431568Y-65709360D02*
X74431568Y-65909360D01*
X74331568Y-65909360D01*
X74331568Y-65709360D01*
X74431568Y-65709360D01*
D12*
X78390000Y-59230000D02*
X78390000Y-56690000D01*
X78390000Y-56690000D02*
X60610000Y-56690000D01*
X60610000Y-56690000D02*
X60610000Y-59230000D01*
X63150000Y-59230000D02*
X60610000Y-59230000D01*
D11*
X117550000Y-61700000D02*
X117550000Y-61500000D01*
X117550000Y-55500000D02*
X117550000Y-55700000D01*
X124250000Y-55500000D02*
X124250000Y-55700000D01*
X124250000Y-61700000D02*
X124250000Y-61500000D01*
X124250000Y-59800000D02*
X124250000Y-57400000D01*
X117550000Y-59800000D02*
X117550000Y-57400000D01*
X117550000Y-61700000D02*
X124250000Y-61700000D01*
X124250000Y-55500000D02*
X117550000Y-55500000D01*
D10*
X71000000Y-117700000D02*
X71000000Y-123300000D01*
X73000000Y-123300000D02*
X71000000Y-123300000D01*
X73000000Y-117700000D02*
X71000000Y-117700000D01*
X73000000Y-123550000D02*
X85100000Y-123550000D01*
X73000000Y-117450000D02*
X85100000Y-117450000D01*
X85100000Y-117450000D02*
X85100000Y-123550000D01*
X73000000Y-117450000D02*
X73000000Y-123550000D01*
D11*
X173250000Y-123750000D02*
X173250000Y-119850000D01*
X175250000Y-123750000D02*
X175250000Y-119850000D01*
X173250000Y-123750000D02*
X175250000Y-123750000D01*
X147500000Y-125750000D02*
X147500000Y-121850000D01*
X149500000Y-125750000D02*
X149500000Y-121850000D01*
X147500000Y-125750000D02*
X149500000Y-125750000D01*
X130750000Y-130750000D02*
X130750000Y-126850000D01*
X132750000Y-130750000D02*
X132750000Y-126850000D01*
X130750000Y-130750000D02*
X132750000Y-130750000D01*
X67250000Y-71250000D02*
X67250000Y-73250000D01*
X67250000Y-73250000D02*
X71150000Y-73250000D01*
X67250000Y-71250000D02*
X71150000Y-71250000D01*
X85250000Y-66250000D02*
X85250000Y-68250000D01*
X85250000Y-68250000D02*
X89150000Y-68250000D01*
X85250000Y-66250000D02*
X89150000Y-66250000D01*
X103250000Y-71250000D02*
X103250000Y-73250000D01*
X103250000Y-73250000D02*
X107150000Y-73250000D01*
X103250000Y-71250000D02*
X107150000Y-71250000D01*
X121250000Y-74250000D02*
X121250000Y-76250000D01*
X121250000Y-76250000D02*
X125150000Y-76250000D01*
X121250000Y-74250000D02*
X125150000Y-74250000D01*
X49250000Y-91250000D02*
X49250000Y-93250000D01*
X49250000Y-93250000D02*
X53150000Y-93250000D01*
X49250000Y-91250000D02*
X53150000Y-91250000D01*
X67250000Y-88000000D02*
X67250000Y-90000000D01*
X67250000Y-90000000D02*
X71150000Y-90000000D01*
X67250000Y-88000000D02*
X71150000Y-88000000D01*
X85250000Y-83000000D02*
X85250000Y-85000000D01*
X85250000Y-85000000D02*
X89150000Y-85000000D01*
X85250000Y-83000000D02*
X89150000Y-83000000D01*
X103250000Y-88000000D02*
X103250000Y-90000000D01*
X103250000Y-90000000D02*
X107150000Y-90000000D01*
X103250000Y-88000000D02*
X107150000Y-88000000D01*
X121250000Y-91000000D02*
X121250000Y-93000000D01*
X121250000Y-93000000D02*
X125150000Y-93000000D01*
X121250000Y-91000000D02*
X125150000Y-91000000D01*
X49250000Y-108000000D02*
X49250000Y-110000000D01*
X49250000Y-110000000D02*
X53150000Y-110000000D01*
X49250000Y-108000000D02*
X53150000Y-108000000D01*
X67250000Y-104750000D02*
X67250000Y-106750000D01*
X67250000Y-106750000D02*
X71150000Y-106750000D01*
X67250000Y-104750000D02*
X71150000Y-104750000D01*
X85250000Y-99750000D02*
X85250000Y-101750000D01*
X85250000Y-101750000D02*
X89150000Y-101750000D01*
X85250000Y-99750000D02*
X89150000Y-99750000D01*
X103250000Y-104750000D02*
X103250000Y-106750000D01*
X103250000Y-106750000D02*
X107150000Y-106750000D01*
X103250000Y-104750000D02*
X107150000Y-104750000D01*
X121250000Y-107750000D02*
X121250000Y-109750000D01*
X121250000Y-109750000D02*
X125150000Y-109750000D01*
X121250000Y-107750000D02*
X125150000Y-107750000D01*
X52250000Y-124750000D02*
X52250000Y-126750000D01*
X52250000Y-126750000D02*
X56150000Y-126750000D01*
X52250000Y-124750000D02*
X56150000Y-124750000D01*
X131050000Y-89450000D02*
X131050000Y-83550000D01*
X134950000Y-89450000D02*
X134950000Y-83550000D01*
X134950000Y-83550000D02*
X133875000Y-83550000D01*
X31250000Y-91250000D02*
X31250000Y-93250000D01*
X31250000Y-93250000D02*
X35150000Y-93250000D01*
X31250000Y-91250000D02*
X35150000Y-91250000D01*
X31250000Y-108000000D02*
X31250000Y-110000000D01*
X31250000Y-110000000D02*
X35150000Y-110000000D01*
X31250000Y-108000000D02*
X35150000Y-108000000D01*
D10*
X63737651Y-60061904D02*
X64194794Y-60061904D01*
X63966223Y-60861904D02*
X63966223Y-60061904D01*
X64385270Y-60061904D02*
X64918604Y-60861904D01*
X64918604Y-60061904D02*
X64385270Y-60861904D01*
X65375747Y-60061904D02*
X65451937Y-60061904D01*
X65528128Y-60100000D01*
X65566223Y-60138095D01*
X65604318Y-60214285D01*
X65642413Y-60366666D01*
X65642413Y-60557142D01*
X65604318Y-60709523D01*
X65566223Y-60785714D01*
X65528128Y-60823809D01*
X65451937Y-60861904D01*
X65375747Y-60861904D01*
X65299556Y-60823809D01*
X65261461Y-60785714D01*
X65223366Y-60709523D01*
X65185270Y-60557142D01*
X65185270Y-60366666D01*
X65223366Y-60214285D01*
X65261461Y-60138095D01*
X65299556Y-60100000D01*
X65375747Y-60061904D01*
X66556699Y-60023809D02*
X65870985Y-61052380D01*
X66823366Y-60861904D02*
X66823366Y-60061904D01*
X67013842Y-60061904D01*
X67128128Y-60100000D01*
X67204318Y-60176190D01*
X67242413Y-60252380D01*
X67280508Y-60404761D01*
X67280508Y-60519047D01*
X67242413Y-60671428D01*
X67204318Y-60747619D01*
X67128128Y-60823809D01*
X67013842Y-60861904D01*
X66823366Y-60861904D01*
X67547175Y-60061904D02*
X68042413Y-60061904D01*
X67775747Y-60366666D01*
X67890032Y-60366666D01*
X67966223Y-60404761D01*
X68004318Y-60442857D01*
X68042413Y-60519047D01*
X68042413Y-60709523D01*
X68004318Y-60785714D01*
X67966223Y-60823809D01*
X67890032Y-60861904D01*
X67661461Y-60861904D01*
X67585270Y-60823809D01*
X67547175Y-60785714D01*
X63448523Y-63401904D02*
X63448523Y-62601904D01*
X63639000Y-62601904D01*
X63753285Y-62640000D01*
X63829476Y-62716190D01*
X63867571Y-62792380D01*
X63905666Y-62944761D01*
X63905666Y-63059047D01*
X63867571Y-63211428D01*
X63829476Y-63287619D01*
X63753285Y-63363809D01*
X63639000Y-63401904D01*
X63448523Y-63401904D01*
X64210428Y-62678095D02*
X64248523Y-62640000D01*
X64324714Y-62601904D01*
X64515190Y-62601904D01*
X64591380Y-62640000D01*
X64629476Y-62678095D01*
X64667571Y-62754285D01*
X64667571Y-62830476D01*
X64629476Y-62944761D01*
X64172333Y-63401904D01*
X64667571Y-63401904D01*
X63448523Y-73561904D02*
X63448523Y-72761904D01*
X63639000Y-72761904D01*
X63753285Y-72800000D01*
X63829476Y-72876190D01*
X63867571Y-72952380D01*
X63905666Y-73104761D01*
X63905666Y-73219047D01*
X63867571Y-73371428D01*
X63829476Y-73447619D01*
X63753285Y-73523809D01*
X63639000Y-73561904D01*
X63448523Y-73561904D01*
X64400904Y-72761904D02*
X64477095Y-72761904D01*
X64553285Y-72800000D01*
X64591380Y-72838095D01*
X64629476Y-72914285D01*
X64667571Y-73066666D01*
X64667571Y-73257142D01*
X64629476Y-73409523D01*
X64591380Y-73485714D01*
X64553285Y-73523809D01*
X64477095Y-73561904D01*
X64400904Y-73561904D01*
X64324714Y-73523809D01*
X64286619Y-73485714D01*
X64248523Y-73409523D01*
X64210428Y-73257142D01*
X64210428Y-73066666D01*
X64248523Y-72914285D01*
X64286619Y-72838095D01*
X64324714Y-72800000D01*
X64400904Y-72761904D01*
X63448523Y-71021904D02*
X63448523Y-70221904D01*
X63639000Y-70221904D01*
X63753285Y-70260000D01*
X63829476Y-70336190D01*
X63867571Y-70412380D01*
X63905666Y-70564761D01*
X63905666Y-70679047D01*
X63867571Y-70831428D01*
X63829476Y-70907619D01*
X63753285Y-70983809D01*
X63639000Y-71021904D01*
X63448523Y-71021904D01*
X64667571Y-71021904D02*
X64210428Y-71021904D01*
X64439000Y-71021904D02*
X64439000Y-70221904D01*
X64362809Y-70336190D01*
X64286619Y-70412380D01*
X64210428Y-70450476D01*
X63429476Y-67720000D02*
X63353285Y-67681904D01*
X63239000Y-67681904D01*
X63124714Y-67720000D01*
X63048523Y-67796190D01*
X63010428Y-67872380D01*
X62972333Y-68024761D01*
X62972333Y-68139047D01*
X63010428Y-68291428D01*
X63048523Y-68367619D01*
X63124714Y-68443809D01*
X63239000Y-68481904D01*
X63315190Y-68481904D01*
X63429476Y-68443809D01*
X63467571Y-68405714D01*
X63467571Y-68139047D01*
X63315190Y-68139047D01*
X63810428Y-68481904D02*
X63810428Y-67681904D01*
X64267571Y-68481904D01*
X64267571Y-67681904D01*
X64648523Y-68481904D02*
X64648523Y-67681904D01*
X64839000Y-67681904D01*
X64953285Y-67720000D01*
X65029476Y-67796190D01*
X65067571Y-67872380D01*
X65105666Y-68024761D01*
X65105666Y-68139047D01*
X65067571Y-68291428D01*
X65029476Y-68367619D01*
X64953285Y-68443809D01*
X64839000Y-68481904D01*
X64648523Y-68481904D01*
X63429476Y-65180000D02*
X63353285Y-65141904D01*
X63239000Y-65141904D01*
X63124714Y-65180000D01*
X63048523Y-65256190D01*
X63010428Y-65332380D01*
X62972333Y-65484761D01*
X62972333Y-65599047D01*
X63010428Y-65751428D01*
X63048523Y-65827619D01*
X63124714Y-65903809D01*
X63239000Y-65941904D01*
X63315190Y-65941904D01*
X63429476Y-65903809D01*
X63467571Y-65865714D01*
X63467571Y-65599047D01*
X63315190Y-65599047D01*
X63810428Y-65941904D02*
X63810428Y-65141904D01*
X64267571Y-65941904D01*
X64267571Y-65141904D01*
X64648523Y-65941904D02*
X64648523Y-65141904D01*
X64839000Y-65141904D01*
X64953285Y-65180000D01*
X65029476Y-65256190D01*
X65067571Y-65332380D01*
X65105666Y-65484761D01*
X65105666Y-65599047D01*
X65067571Y-65751428D01*
X65029476Y-65827619D01*
X64953285Y-65903809D01*
X64839000Y-65941904D01*
X64648523Y-65941904D01*
X63448523Y-76101904D02*
X63448523Y-75301904D01*
X63639000Y-75301904D01*
X63753285Y-75340000D01*
X63829476Y-75416190D01*
X63867571Y-75492380D01*
X63905666Y-75644761D01*
X63905666Y-75759047D01*
X63867571Y-75911428D01*
X63829476Y-75987619D01*
X63753285Y-76063809D01*
X63639000Y-76101904D01*
X63448523Y-76101904D01*
X64591380Y-75568571D02*
X64591380Y-76101904D01*
X64400904Y-75263809D02*
X64210428Y-75835238D01*
X64705666Y-75835238D01*
X63905666Y-78565714D02*
X63867571Y-78603809D01*
X63753285Y-78641904D01*
X63677095Y-78641904D01*
X63562809Y-78603809D01*
X63486619Y-78527619D01*
X63448523Y-78451428D01*
X63410428Y-78299047D01*
X63410428Y-78184761D01*
X63448523Y-78032380D01*
X63486619Y-77956190D01*
X63562809Y-77880000D01*
X63677095Y-77841904D01*
X63753285Y-77841904D01*
X63867571Y-77880000D01*
X63905666Y-77918095D01*
X64591380Y-77841904D02*
X64439000Y-77841904D01*
X64362809Y-77880000D01*
X64324714Y-77918095D01*
X64248523Y-78032380D01*
X64210428Y-78184761D01*
X64210428Y-78489523D01*
X64248523Y-78565714D01*
X64286619Y-78603809D01*
X64362809Y-78641904D01*
X64515190Y-78641904D01*
X64591380Y-78603809D01*
X64629476Y-78565714D01*
X64667571Y-78489523D01*
X64667571Y-78299047D01*
X64629476Y-78222857D01*
X64591380Y-78184761D01*
X64515190Y-78146666D01*
X64362809Y-78146666D01*
X64286619Y-78184761D01*
X64248523Y-78222857D01*
X64210428Y-78299047D01*
X63448523Y-81181904D02*
X63448523Y-80381904D01*
X63639000Y-80381904D01*
X63753285Y-80420000D01*
X63829476Y-80496190D01*
X63867571Y-80572380D01*
X63905666Y-80724761D01*
X63905666Y-80839047D01*
X63867571Y-80991428D01*
X63829476Y-81067619D01*
X63753285Y-81143809D01*
X63639000Y-81181904D01*
X63448523Y-81181904D01*
X64172333Y-80381904D02*
X64705666Y-80381904D01*
X64362809Y-81181904D01*
X63486619Y-83302857D02*
X63753285Y-83302857D01*
X63867571Y-83721904D02*
X63486619Y-83721904D01*
X63486619Y-82921904D01*
X63867571Y-82921904D01*
X64553285Y-82921904D02*
X64400904Y-82921904D01*
X64324714Y-82960000D01*
X64286619Y-82998095D01*
X64210428Y-83112380D01*
X64172333Y-83264761D01*
X64172333Y-83569523D01*
X64210428Y-83645714D01*
X64248523Y-83683809D01*
X64324714Y-83721904D01*
X64477095Y-83721904D01*
X64553285Y-83683809D01*
X64591380Y-83645714D01*
X64629476Y-83569523D01*
X64629476Y-83379047D01*
X64591380Y-83302857D01*
X64553285Y-83264761D01*
X64477095Y-83226666D01*
X64324714Y-83226666D01*
X64248523Y-83264761D01*
X64210428Y-83302857D01*
X64172333Y-83379047D01*
X63715190Y-85842857D02*
X63829476Y-85880952D01*
X63867571Y-85919047D01*
X63905666Y-85995238D01*
X63905666Y-86109523D01*
X63867571Y-86185714D01*
X63829476Y-86223809D01*
X63753285Y-86261904D01*
X63448523Y-86261904D01*
X63448523Y-85461904D01*
X63715190Y-85461904D01*
X63791380Y-85500000D01*
X63829476Y-85538095D01*
X63867571Y-85614285D01*
X63867571Y-85690476D01*
X63829476Y-85766666D01*
X63791380Y-85804761D01*
X63715190Y-85842857D01*
X63448523Y-85842857D01*
X64591380Y-85728571D02*
X64591380Y-86261904D01*
X64400904Y-85423809D02*
X64210428Y-85995238D01*
X64705666Y-85995238D01*
X63715190Y-88382857D02*
X63829476Y-88420952D01*
X63867571Y-88459047D01*
X63905666Y-88535238D01*
X63905666Y-88649523D01*
X63867571Y-88725714D01*
X63829476Y-88763809D01*
X63753285Y-88801904D01*
X63448523Y-88801904D01*
X63448523Y-88001904D01*
X63715190Y-88001904D01*
X63791380Y-88040000D01*
X63829476Y-88078095D01*
X63867571Y-88154285D01*
X63867571Y-88230476D01*
X63829476Y-88306666D01*
X63791380Y-88344761D01*
X63715190Y-88382857D01*
X63448523Y-88382857D01*
X64629476Y-88001904D02*
X64248523Y-88001904D01*
X64210428Y-88382857D01*
X64248523Y-88344761D01*
X64324714Y-88306666D01*
X64515190Y-88306666D01*
X64591380Y-88344761D01*
X64629476Y-88382857D01*
X64667571Y-88459047D01*
X64667571Y-88649523D01*
X64629476Y-88725714D01*
X64591380Y-88763809D01*
X64515190Y-88801904D01*
X64324714Y-88801904D01*
X64248523Y-88763809D01*
X64210428Y-88725714D01*
X74637190Y-88382857D02*
X74751476Y-88420952D01*
X74789571Y-88459047D01*
X74827666Y-88535238D01*
X74827666Y-88649523D01*
X74789571Y-88725714D01*
X74751476Y-88763809D01*
X74675285Y-88801904D01*
X74370523Y-88801904D01*
X74370523Y-88001904D01*
X74637190Y-88001904D01*
X74713380Y-88040000D01*
X74751476Y-88078095D01*
X74789571Y-88154285D01*
X74789571Y-88230476D01*
X74751476Y-88306666D01*
X74713380Y-88344761D01*
X74637190Y-88382857D01*
X74370523Y-88382857D01*
X75513380Y-88001904D02*
X75361000Y-88001904D01*
X75284809Y-88040000D01*
X75246714Y-88078095D01*
X75170523Y-88192380D01*
X75132428Y-88344761D01*
X75132428Y-88649523D01*
X75170523Y-88725714D01*
X75208619Y-88763809D01*
X75284809Y-88801904D01*
X75437190Y-88801904D01*
X75513380Y-88763809D01*
X75551476Y-88725714D01*
X75589571Y-88649523D01*
X75589571Y-88459047D01*
X75551476Y-88382857D01*
X75513380Y-88344761D01*
X75437190Y-88306666D01*
X75284809Y-88306666D01*
X75208619Y-88344761D01*
X75170523Y-88382857D01*
X75132428Y-88459047D01*
X74637190Y-83302857D02*
X74751476Y-83340952D01*
X74789571Y-83379047D01*
X74827666Y-83455238D01*
X74827666Y-83569523D01*
X74789571Y-83645714D01*
X74751476Y-83683809D01*
X74675285Y-83721904D01*
X74370523Y-83721904D01*
X74370523Y-82921904D01*
X74637190Y-82921904D01*
X74713380Y-82960000D01*
X74751476Y-82998095D01*
X74789571Y-83074285D01*
X74789571Y-83150476D01*
X74751476Y-83226666D01*
X74713380Y-83264761D01*
X74637190Y-83302857D01*
X74370523Y-83302857D01*
X75094333Y-82921904D02*
X75589571Y-82921904D01*
X75322904Y-83226666D01*
X75437190Y-83226666D01*
X75513380Y-83264761D01*
X75551476Y-83302857D01*
X75589571Y-83379047D01*
X75589571Y-83569523D01*
X75551476Y-83645714D01*
X75513380Y-83683809D01*
X75437190Y-83721904D01*
X75208619Y-83721904D01*
X75132428Y-83683809D01*
X75094333Y-83645714D01*
X74637190Y-80762857D02*
X74751476Y-80800952D01*
X74789571Y-80839047D01*
X74827666Y-80915238D01*
X74827666Y-81029523D01*
X74789571Y-81105714D01*
X74751476Y-81143809D01*
X74675285Y-81181904D01*
X74370523Y-81181904D01*
X74370523Y-80381904D01*
X74637190Y-80381904D01*
X74713380Y-80420000D01*
X74751476Y-80458095D01*
X74789571Y-80534285D01*
X74789571Y-80610476D01*
X74751476Y-80686666D01*
X74713380Y-80724761D01*
X74637190Y-80762857D01*
X74370523Y-80762857D01*
X75589571Y-81181904D02*
X75132428Y-81181904D01*
X75361000Y-81181904D02*
X75361000Y-80381904D01*
X75284809Y-80496190D01*
X75208619Y-80572380D01*
X75132428Y-80610476D01*
X74694333Y-70602857D02*
X74427666Y-70602857D01*
X74427666Y-71021904D02*
X74427666Y-70221904D01*
X74808619Y-70221904D01*
X75456238Y-70488571D02*
X75456238Y-71021904D01*
X75265761Y-70183809D02*
X75075285Y-70755238D01*
X75570523Y-70755238D01*
X73894333Y-67681904D02*
X74161000Y-68481904D01*
X74427666Y-67681904D01*
X75151476Y-68405714D02*
X75113380Y-68443809D01*
X74999095Y-68481904D01*
X74922904Y-68481904D01*
X74808619Y-68443809D01*
X74732428Y-68367619D01*
X74694333Y-68291428D01*
X74656238Y-68139047D01*
X74656238Y-68024761D01*
X74694333Y-67872380D01*
X74732428Y-67796190D01*
X74808619Y-67720000D01*
X74922904Y-67681904D01*
X74999095Y-67681904D01*
X75113380Y-67720000D01*
X75151476Y-67758095D01*
X75951476Y-68405714D02*
X75913380Y-68443809D01*
X75799095Y-68481904D01*
X75722904Y-68481904D01*
X75608619Y-68443809D01*
X75532428Y-68367619D01*
X75494333Y-68291428D01*
X75456238Y-68139047D01*
X75456238Y-68024761D01*
X75494333Y-67872380D01*
X75532428Y-67796190D01*
X75608619Y-67720000D01*
X75722904Y-67681904D01*
X75799095Y-67681904D01*
X75913380Y-67720000D01*
X75951476Y-67758095D01*
X74699786Y-65873809D02*
X74814072Y-65911904D01*
X75004548Y-65911904D01*
X75080739Y-65873809D01*
X75118834Y-65835714D01*
X75156929Y-65759523D01*
X75156929Y-65683333D01*
X75118834Y-65607142D01*
X75080739Y-65569047D01*
X75004548Y-65530952D01*
X74852167Y-65492857D01*
X74775977Y-65454761D01*
X74737881Y-65416666D01*
X74699786Y-65340476D01*
X74699786Y-65264285D01*
X74737881Y-65188095D01*
X74775977Y-65150000D01*
X74852167Y-65111904D01*
X75042643Y-65111904D01*
X75156929Y-65150000D01*
X75385500Y-65111904D02*
X75842643Y-65111904D01*
X75614072Y-65911904D02*
X75614072Y-65111904D01*
X74351476Y-62640000D02*
X74275285Y-62601904D01*
X74161000Y-62601904D01*
X74046714Y-62640000D01*
X73970523Y-62716190D01*
X73932428Y-62792380D01*
X73894333Y-62944761D01*
X73894333Y-63059047D01*
X73932428Y-63211428D01*
X73970523Y-63287619D01*
X74046714Y-63363809D01*
X74161000Y-63401904D01*
X74237190Y-63401904D01*
X74351476Y-63363809D01*
X74389571Y-63325714D01*
X74389571Y-63059047D01*
X74237190Y-63059047D01*
X74732428Y-63401904D02*
X74732428Y-62601904D01*
X75189571Y-63401904D01*
X75189571Y-62601904D01*
X75570523Y-63401904D02*
X75570523Y-62601904D01*
X75761000Y-62601904D01*
X75875285Y-62640000D01*
X75951476Y-62716190D01*
X75989571Y-62792380D01*
X76027666Y-62944761D01*
X76027666Y-63059047D01*
X75989571Y-63211428D01*
X75951476Y-63287619D01*
X75875285Y-63363809D01*
X75761000Y-63401904D01*
X75570523Y-63401904D01*
X74408619Y-60861904D02*
X74141952Y-60480952D01*
X73951476Y-60861904D02*
X73951476Y-60061904D01*
X74256238Y-60061904D01*
X74332428Y-60100000D01*
X74370523Y-60138095D01*
X74408619Y-60214285D01*
X74408619Y-60328571D01*
X74370523Y-60404761D01*
X74332428Y-60442857D01*
X74256238Y-60480952D01*
X73951476Y-60480952D01*
X74713380Y-60633333D02*
X75094333Y-60633333D01*
X74637190Y-60861904D02*
X74903857Y-60061904D01*
X75170523Y-60861904D01*
X75361000Y-60061904D02*
X75551476Y-60861904D01*
X75703857Y-60290476D01*
X75856238Y-60861904D01*
X76046714Y-60061904D01*
X74694333Y-73142857D02*
X74427666Y-73142857D01*
X74427666Y-73561904D02*
X74427666Y-72761904D01*
X74808619Y-72761904D01*
X75494333Y-72761904D02*
X75113380Y-72761904D01*
X75075285Y-73142857D01*
X75113380Y-73104761D01*
X75189571Y-73066666D01*
X75380047Y-73066666D01*
X75456238Y-73104761D01*
X75494333Y-73142857D01*
X75532428Y-73219047D01*
X75532428Y-73409523D01*
X75494333Y-73485714D01*
X75456238Y-73523809D01*
X75380047Y-73561904D01*
X75189571Y-73561904D01*
X75113380Y-73523809D01*
X75075285Y-73485714D01*
X74694333Y-75682857D02*
X74427666Y-75682857D01*
X74427666Y-76101904D02*
X74427666Y-75301904D01*
X74808619Y-75301904D01*
X75456238Y-75301904D02*
X75303857Y-75301904D01*
X75227666Y-75340000D01*
X75189571Y-75378095D01*
X75113380Y-75492380D01*
X75075285Y-75644761D01*
X75075285Y-75949523D01*
X75113380Y-76025714D01*
X75151476Y-76063809D01*
X75227666Y-76101904D01*
X75380047Y-76101904D01*
X75456238Y-76063809D01*
X75494333Y-76025714D01*
X75532428Y-75949523D01*
X75532428Y-75759047D01*
X75494333Y-75682857D01*
X75456238Y-75644761D01*
X75380047Y-75606666D01*
X75227666Y-75606666D01*
X75151476Y-75644761D01*
X75113380Y-75682857D01*
X75075285Y-75759047D01*
X74694333Y-78222857D02*
X74427666Y-78222857D01*
X74427666Y-78641904D02*
X74427666Y-77841904D01*
X74808619Y-77841904D01*
X75037190Y-77841904D02*
X75570523Y-77841904D01*
X75227666Y-78641904D01*
X74637190Y-85842857D02*
X74751476Y-85880952D01*
X74789571Y-85919047D01*
X74827666Y-85995238D01*
X74827666Y-86109523D01*
X74789571Y-86185714D01*
X74751476Y-86223809D01*
X74675285Y-86261904D01*
X74370523Y-86261904D01*
X74370523Y-85461904D01*
X74637190Y-85461904D01*
X74713380Y-85500000D01*
X74751476Y-85538095D01*
X74789571Y-85614285D01*
X74789571Y-85690476D01*
X74751476Y-85766666D01*
X74713380Y-85804761D01*
X74637190Y-85842857D01*
X74370523Y-85842857D01*
X75132428Y-85538095D02*
X75170523Y-85500000D01*
X75246714Y-85461904D01*
X75437190Y-85461904D01*
X75513380Y-85500000D01*
X75551476Y-85538095D01*
X75589571Y-85614285D01*
X75589571Y-85690476D01*
X75551476Y-85804761D01*
X75094333Y-86261904D01*
X75589571Y-86261904D01*
X132577380Y-89714285D02*
X132577380Y-90285714D01*
X132577380Y-90000000D02*
X131577380Y-90000000D01*
X131720238Y-90095238D01*
X131815476Y-90190476D01*
X131863095Y-90285714D01*
M02*
