G04 #@! TF.GenerationSoftware,KiCad,Pcbnew,5.1.8*
G04 #@! TF.CreationDate,2020-12-21T15:28:55-06:00*
G04 #@! TF.ProjectId,fissure,66697373-7572-4652-9e6b-696361645f70,rev?*
G04 #@! TF.SameCoordinates,Original*
G04 #@! TF.FileFunction,Copper,L2,Bot*
G04 #@! TF.FilePolarity,Positive*
%FSLAX46Y46*%
G04 Gerber Fmt 4.6, Leading zero omitted, Abs format (unit mm)*
G04 Created by KiCad (PCBNEW 5.1.8) date 2020-12-21 15:28:55*
%MOMM*%
%LPD*%
G01*
G04 APERTURE LIST*
G04 #@! TA.AperFunction,ComponentPad*
%ADD10O,1.700000X1.700000*%
G04 #@! TD*
G04 #@! TA.AperFunction,ComponentPad*
%ADD11R,1.700000X1.700000*%
G04 #@! TD*
G04 #@! TA.AperFunction,ComponentPad*
%ADD12C,2.000000*%
G04 #@! TD*
G04 #@! TA.AperFunction,SMDPad,CuDef*
%ADD13R,2.200000X2.000000*%
G04 #@! TD*
G04 #@! TA.AperFunction,ComponentPad*
%ADD14R,6.000000X2.000000*%
G04 #@! TD*
G04 #@! TA.AperFunction,ComponentPad*
%ADD15R,2.000000X2.000000*%
G04 #@! TD*
G04 #@! TA.AperFunction,ComponentPad*
%ADD16C,1.752600*%
G04 #@! TD*
G04 #@! TA.AperFunction,ComponentPad*
%ADD17R,1.752600X1.752600*%
G04 #@! TD*
G04 #@! TA.AperFunction,SMDPad,CuDef*
%ADD18R,3.200000X1.000000*%
G04 #@! TD*
G04 #@! TA.AperFunction,SMDPad,CuDef*
%ADD19R,1.200000X2.500000*%
G04 #@! TD*
G04 #@! TA.AperFunction,SMDPad,CuDef*
%ADD20R,0.900000X1.200000*%
G04 #@! TD*
G04 #@! TA.AperFunction,SMDPad,CuDef*
%ADD21R,1.200000X0.900000*%
G04 #@! TD*
G04 #@! TA.AperFunction,SMDPad,CuDef*
%ADD22R,0.850000X1.600000*%
G04 #@! TD*
G04 #@! TA.AperFunction,ViaPad*
%ADD23C,0.800000*%
G04 #@! TD*
G04 #@! TA.AperFunction,Conductor*
%ADD24C,0.254000*%
G04 #@! TD*
G04 #@! TA.AperFunction,Conductor*
%ADD25C,0.508000*%
G04 #@! TD*
G04 #@! TA.AperFunction,Conductor*
%ADD26C,0.250000*%
G04 #@! TD*
G04 APERTURE END LIST*
D10*
X124900000Y-124820000D03*
X124900000Y-122280000D03*
X124900000Y-119740000D03*
D11*
X124900000Y-117200000D03*
D12*
X56500000Y-83950000D03*
X51500000Y-81850000D03*
X46500000Y-83950000D03*
X38500000Y-100700000D03*
X33500000Y-98600000D03*
X28500000Y-100700000D03*
X38500000Y-83950000D03*
X33500000Y-81850000D03*
X28500000Y-83950000D03*
X165950000Y-126500000D03*
X163850000Y-121500000D03*
X165950000Y-116500000D03*
X74500000Y-63950000D03*
X69500000Y-61850000D03*
X64500000Y-63950000D03*
X156800000Y-118500000D03*
X158900000Y-123500000D03*
X156800000Y-128500000D03*
X74500000Y-97450000D03*
X69500000Y-95350000D03*
X64500000Y-97450000D03*
X110500000Y-97450000D03*
X105500000Y-95350000D03*
X100500000Y-97450000D03*
X140050000Y-123500000D03*
X142150000Y-128500000D03*
X140050000Y-133500000D03*
X92500000Y-75700000D03*
X87500000Y-73600000D03*
X82500000Y-75700000D03*
X110500000Y-63950000D03*
X105500000Y-61850000D03*
X100500000Y-63950000D03*
X128500000Y-100450000D03*
X123500000Y-98350000D03*
X118500000Y-100450000D03*
X92500000Y-92450000D03*
X87500000Y-90350000D03*
X82500000Y-92450000D03*
X110500000Y-80700000D03*
X105500000Y-78600000D03*
X100500000Y-80700000D03*
X92500000Y-58950000D03*
X87500000Y-56850000D03*
X82500000Y-58950000D03*
X128500000Y-83700000D03*
X123500000Y-81600000D03*
X118500000Y-83700000D03*
X74500000Y-80700000D03*
X69500000Y-78600000D03*
X64500000Y-80700000D03*
X59500000Y-117450000D03*
X54500000Y-115350000D03*
X49500000Y-117450000D03*
X56500000Y-100700000D03*
X51500000Y-98600000D03*
X46500000Y-100700000D03*
X128500000Y-66950000D03*
X123500000Y-64850000D03*
X118500000Y-66950000D03*
D13*
X143900000Y-58000000D03*
D14*
X142000000Y-58000000D03*
D13*
X140100000Y-58000000D03*
X143900000Y-61500000D03*
D14*
X142000000Y-61500000D03*
D13*
X140100000Y-61500000D03*
X143900000Y-65000000D03*
D14*
X142000000Y-65000000D03*
D13*
X140100000Y-65000000D03*
X143900000Y-76500000D03*
D14*
X142000000Y-76500000D03*
D13*
X140100000Y-76500000D03*
X143900000Y-81000000D03*
D14*
X142000000Y-81000000D03*
D13*
X140100000Y-81000000D03*
X143900000Y-93000000D03*
D14*
X142000000Y-93000000D03*
D13*
X140100000Y-93000000D03*
X143900000Y-97500000D03*
D14*
X142000000Y-97500000D03*
D13*
X140100000Y-97500000D03*
X140100000Y-109500000D03*
X143900000Y-109500000D03*
D14*
X142000000Y-109500000D03*
X130500000Y-57000000D03*
D13*
X132400000Y-57000000D03*
X128600000Y-57000000D03*
D14*
X130500000Y-60500000D03*
D13*
X132400000Y-60500000D03*
X128600000Y-60500000D03*
D14*
X130500000Y-64000000D03*
D13*
X132400000Y-64000000D03*
X128600000Y-64000000D03*
D14*
X130500000Y-75500000D03*
D13*
X132400000Y-75500000D03*
X128600000Y-75500000D03*
D14*
X130500000Y-80000000D03*
D13*
X132400000Y-80000000D03*
X128600000Y-80000000D03*
D14*
X130500000Y-92000000D03*
D13*
X132400000Y-92000000D03*
X128600000Y-92000000D03*
D14*
X130500000Y-96500000D03*
D13*
X132400000Y-96500000D03*
X128600000Y-96500000D03*
X132400000Y-108500000D03*
X128600000Y-108500000D03*
D14*
X130500000Y-108500000D03*
D15*
X73500000Y-113000000D03*
X77000000Y-113000000D03*
X80500000Y-113000000D03*
X92000000Y-113000000D03*
X96500000Y-113000000D03*
X108500000Y-113000000D03*
X113000000Y-113000000D03*
X125000000Y-113000000D03*
X73500000Y-131000000D03*
X77000000Y-131000000D03*
X80500000Y-131000000D03*
X92000000Y-131000000D03*
X96500000Y-131000000D03*
X108500000Y-131000000D03*
X113000000Y-131000000D03*
X125000000Y-131000000D03*
G04 #@! TA.AperFunction,SMDPad,CuDef*
G36*
G01*
X80812500Y-126950002D02*
X80812500Y-126049998D01*
G75*
G02*
X81062498Y-125800000I249998J0D01*
G01*
X81587502Y-125800000D01*
G75*
G02*
X81837500Y-126049998I0J-249998D01*
G01*
X81837500Y-126950002D01*
G75*
G02*
X81587502Y-127200000I-249998J0D01*
G01*
X81062498Y-127200000D01*
G75*
G02*
X80812500Y-126950002I0J249998D01*
G01*
G37*
G04 #@! TD.AperFunction*
G04 #@! TA.AperFunction,SMDPad,CuDef*
G36*
G01*
X78987500Y-126950002D02*
X78987500Y-126049998D01*
G75*
G02*
X79237498Y-125800000I249998J0D01*
G01*
X79762502Y-125800000D01*
G75*
G02*
X80012500Y-126049998I0J-249998D01*
G01*
X80012500Y-126950002D01*
G75*
G02*
X79762502Y-127200000I-249998J0D01*
G01*
X79237498Y-127200000D01*
G75*
G02*
X78987500Y-126950002I0J249998D01*
G01*
G37*
G04 #@! TD.AperFunction*
G04 #@! TA.AperFunction,SMDPad,CuDef*
G36*
G01*
X73449998Y-88500000D02*
X74350002Y-88500000D01*
G75*
G02*
X74600000Y-88749998I0J-249998D01*
G01*
X74600000Y-89275002D01*
G75*
G02*
X74350002Y-89525000I-249998J0D01*
G01*
X73449998Y-89525000D01*
G75*
G02*
X73200000Y-89275002I0J249998D01*
G01*
X73200000Y-88749998D01*
G75*
G02*
X73449998Y-88500000I249998J0D01*
G01*
G37*
G04 #@! TD.AperFunction*
G04 #@! TA.AperFunction,SMDPad,CuDef*
G36*
G01*
X73449998Y-86675000D02*
X74350002Y-86675000D01*
G75*
G02*
X74600000Y-86924998I0J-249998D01*
G01*
X74600000Y-87450002D01*
G75*
G02*
X74350002Y-87700000I-249998J0D01*
G01*
X73449998Y-87700000D01*
G75*
G02*
X73200000Y-87450002I0J249998D01*
G01*
X73200000Y-86924998D01*
G75*
G02*
X73449998Y-86675000I249998J0D01*
G01*
G37*
G04 #@! TD.AperFunction*
G04 #@! TA.AperFunction,SMDPad,CuDef*
G36*
G01*
X80812500Y-128950002D02*
X80812500Y-128049998D01*
G75*
G02*
X81062498Y-127800000I249998J0D01*
G01*
X81587502Y-127800000D01*
G75*
G02*
X81837500Y-128049998I0J-249998D01*
G01*
X81837500Y-128950002D01*
G75*
G02*
X81587502Y-129200000I-249998J0D01*
G01*
X81062498Y-129200000D01*
G75*
G02*
X80812500Y-128950002I0J249998D01*
G01*
G37*
G04 #@! TD.AperFunction*
G04 #@! TA.AperFunction,SMDPad,CuDef*
G36*
G01*
X78987500Y-128950002D02*
X78987500Y-128049998D01*
G75*
G02*
X79237498Y-127800000I249998J0D01*
G01*
X79762502Y-127800000D01*
G75*
G02*
X80012500Y-128049998I0J-249998D01*
G01*
X80012500Y-128950002D01*
G75*
G02*
X79762502Y-129200000I-249998J0D01*
G01*
X79237498Y-129200000D01*
G75*
G02*
X78987500Y-128950002I0J249998D01*
G01*
G37*
G04 #@! TD.AperFunction*
D16*
X77120000Y-60500000D03*
X61880000Y-88440000D03*
X77120000Y-63040000D03*
X77120000Y-65580000D03*
X77120000Y-68120000D03*
X77120000Y-70660000D03*
X77120000Y-73200000D03*
X77120000Y-75740000D03*
X77120000Y-78280000D03*
X77120000Y-80820000D03*
X77120000Y-83360000D03*
X77120000Y-85900000D03*
X77120000Y-88440000D03*
X61880000Y-85900000D03*
X61880000Y-83360000D03*
X61880000Y-80820000D03*
X61880000Y-78280000D03*
X61880000Y-75740000D03*
X61880000Y-73200000D03*
X61880000Y-70660000D03*
X61880000Y-68120000D03*
X61880000Y-65580000D03*
X61880000Y-63040000D03*
D17*
X61880000Y-60500000D03*
D18*
X124300000Y-56600000D03*
X117500000Y-56600000D03*
X117500000Y-60600000D03*
X124300000Y-60600000D03*
D19*
X79200000Y-123750000D03*
X76200000Y-123750000D03*
X83200000Y-123750000D03*
X84300000Y-117250000D03*
D20*
X71150000Y-72250000D03*
X67850000Y-72250000D03*
X89150000Y-67250000D03*
X85850000Y-67250000D03*
X107150000Y-72250000D03*
X103850000Y-72250000D03*
X125150000Y-75250000D03*
X121850000Y-75250000D03*
X71150000Y-89000000D03*
X67850000Y-89000000D03*
X89150000Y-84000000D03*
X85850000Y-84000000D03*
X107150000Y-89000000D03*
X103850000Y-89000000D03*
X53150000Y-109000000D03*
X49850000Y-109000000D03*
X71150000Y-105750000D03*
X67850000Y-105750000D03*
X89150000Y-100750000D03*
X85850000Y-100750000D03*
X107150000Y-105750000D03*
X103850000Y-105750000D03*
X56150000Y-125750000D03*
X52850000Y-125750000D03*
D21*
X174250000Y-123150000D03*
X174250000Y-119850000D03*
X148500000Y-125150000D03*
X148500000Y-121850000D03*
X131750000Y-130150000D03*
X131750000Y-126850000D03*
D20*
X53150000Y-92250000D03*
X49850000Y-92250000D03*
X125150000Y-108750000D03*
X121850000Y-108750000D03*
X125150000Y-92000000D03*
X121850000Y-92000000D03*
D22*
X133875000Y-88250000D03*
X132125000Y-88250000D03*
X133875000Y-84750000D03*
X132125000Y-84750000D03*
D20*
X35150000Y-92250000D03*
X31850000Y-92250000D03*
X35150000Y-109000000D03*
X31850000Y-109000000D03*
G04 #@! TA.AperFunction,SMDPad,CuDef*
G36*
G01*
X73200000Y-90945000D02*
X73200000Y-91245000D01*
G75*
G02*
X73050000Y-91395000I-150000J0D01*
G01*
X71750000Y-91395000D01*
G75*
G02*
X71600000Y-91245000I0J150000D01*
G01*
X71600000Y-90945000D01*
G75*
G02*
X71750000Y-90795000I150000J0D01*
G01*
X73050000Y-90795000D01*
G75*
G02*
X73200000Y-90945000I0J-150000D01*
G01*
G37*
G04 #@! TD.AperFunction*
G04 #@! TA.AperFunction,SMDPad,CuDef*
G36*
G01*
X73200000Y-92215000D02*
X73200000Y-92515000D01*
G75*
G02*
X73050000Y-92665000I-150000J0D01*
G01*
X71750000Y-92665000D01*
G75*
G02*
X71600000Y-92515000I0J150000D01*
G01*
X71600000Y-92215000D01*
G75*
G02*
X71750000Y-92065000I150000J0D01*
G01*
X73050000Y-92065000D01*
G75*
G02*
X73200000Y-92215000I0J-150000D01*
G01*
G37*
G04 #@! TD.AperFunction*
G04 #@! TA.AperFunction,SMDPad,CuDef*
G36*
G01*
X73200000Y-93485000D02*
X73200000Y-93785000D01*
G75*
G02*
X73050000Y-93935000I-150000J0D01*
G01*
X71750000Y-93935000D01*
G75*
G02*
X71600000Y-93785000I0J150000D01*
G01*
X71600000Y-93485000D01*
G75*
G02*
X71750000Y-93335000I150000J0D01*
G01*
X73050000Y-93335000D01*
G75*
G02*
X73200000Y-93485000I0J-150000D01*
G01*
G37*
G04 #@! TD.AperFunction*
G04 #@! TA.AperFunction,SMDPad,CuDef*
G36*
G01*
X73200000Y-94755000D02*
X73200000Y-95055000D01*
G75*
G02*
X73050000Y-95205000I-150000J0D01*
G01*
X71750000Y-95205000D01*
G75*
G02*
X71600000Y-95055000I0J150000D01*
G01*
X71600000Y-94755000D01*
G75*
G02*
X71750000Y-94605000I150000J0D01*
G01*
X73050000Y-94605000D01*
G75*
G02*
X73200000Y-94755000I0J-150000D01*
G01*
G37*
G04 #@! TD.AperFunction*
G04 #@! TA.AperFunction,SMDPad,CuDef*
G36*
G01*
X80400000Y-94755000D02*
X80400000Y-95055000D01*
G75*
G02*
X80250000Y-95205000I-150000J0D01*
G01*
X78950000Y-95205000D01*
G75*
G02*
X78800000Y-95055000I0J150000D01*
G01*
X78800000Y-94755000D01*
G75*
G02*
X78950000Y-94605000I150000J0D01*
G01*
X80250000Y-94605000D01*
G75*
G02*
X80400000Y-94755000I0J-150000D01*
G01*
G37*
G04 #@! TD.AperFunction*
G04 #@! TA.AperFunction,SMDPad,CuDef*
G36*
G01*
X80400000Y-93485000D02*
X80400000Y-93785000D01*
G75*
G02*
X80250000Y-93935000I-150000J0D01*
G01*
X78950000Y-93935000D01*
G75*
G02*
X78800000Y-93785000I0J150000D01*
G01*
X78800000Y-93485000D01*
G75*
G02*
X78950000Y-93335000I150000J0D01*
G01*
X80250000Y-93335000D01*
G75*
G02*
X80400000Y-93485000I0J-150000D01*
G01*
G37*
G04 #@! TD.AperFunction*
G04 #@! TA.AperFunction,SMDPad,CuDef*
G36*
G01*
X80400000Y-92215000D02*
X80400000Y-92515000D01*
G75*
G02*
X80250000Y-92665000I-150000J0D01*
G01*
X78950000Y-92665000D01*
G75*
G02*
X78800000Y-92515000I0J150000D01*
G01*
X78800000Y-92215000D01*
G75*
G02*
X78950000Y-92065000I150000J0D01*
G01*
X80250000Y-92065000D01*
G75*
G02*
X80400000Y-92215000I0J-150000D01*
G01*
G37*
G04 #@! TD.AperFunction*
G04 #@! TA.AperFunction,SMDPad,CuDef*
G36*
G01*
X80400000Y-90945000D02*
X80400000Y-91245000D01*
G75*
G02*
X80250000Y-91395000I-150000J0D01*
G01*
X78950000Y-91395000D01*
G75*
G02*
X78800000Y-91245000I0J150000D01*
G01*
X78800000Y-90945000D01*
G75*
G02*
X78950000Y-90795000I150000J0D01*
G01*
X80250000Y-90795000D01*
G75*
G02*
X80400000Y-90945000I0J-150000D01*
G01*
G37*
G04 #@! TD.AperFunction*
D23*
X49850000Y-92250000D03*
X67850000Y-72250000D03*
X85850000Y-67250000D03*
X103850000Y-72250000D03*
X121850000Y-75250000D03*
X49850000Y-109000000D03*
X67850000Y-89000000D03*
X85850000Y-84000000D03*
X103850000Y-89000000D03*
X79500000Y-95900008D03*
X130500000Y-87000000D03*
X120900000Y-56600000D03*
X134000000Y-82500000D03*
X73045999Y-86133499D03*
X35150000Y-92250000D03*
X53150000Y-109000000D03*
X56150000Y-125750000D03*
X53150000Y-92250000D03*
X71150000Y-105750000D03*
X71150000Y-72250000D03*
X35150000Y-109000000D03*
X71150000Y-89000000D03*
X89150000Y-100750000D03*
X89150000Y-84000000D03*
X89150000Y-67250000D03*
X107150000Y-105750000D03*
X107150000Y-89000000D03*
X107150000Y-72250000D03*
X125150000Y-75250000D03*
X125150000Y-92000000D03*
X125150000Y-108750000D03*
X67000000Y-82700000D03*
X120900000Y-60600000D03*
X133000000Y-86500000D03*
X79000000Y-80500000D03*
X121850000Y-92000000D03*
X52850000Y-125750000D03*
X67850000Y-105750000D03*
X85850000Y-100750000D03*
X103850000Y-105750000D03*
X121850000Y-108750000D03*
X31850000Y-92250000D03*
X31850000Y-109000000D03*
X174250000Y-123150000D03*
X148500000Y-125150000D03*
X131750000Y-130150000D03*
X174250000Y-119850000D03*
X148500000Y-121850000D03*
X131750000Y-126850000D03*
X79500000Y-120500000D03*
X94900000Y-127800000D03*
X76500000Y-120500000D03*
X87900000Y-123800000D03*
X83000000Y-120500000D03*
X84500000Y-120500000D03*
X76800000Y-93600000D03*
X74000000Y-90100000D03*
D24*
X46500000Y-83950000D02*
X56500000Y-83950000D01*
X64500000Y-63950000D02*
X74500000Y-63950000D01*
X82500000Y-58950000D02*
X92500000Y-58950000D01*
X110500000Y-63950000D02*
X100500000Y-63950000D01*
X118500000Y-66950000D02*
X128500000Y-66950000D01*
X46500000Y-100700000D02*
X56500000Y-100700000D01*
X64500000Y-80700000D02*
X74500000Y-80700000D01*
X82500000Y-75700000D02*
X92500000Y-75700000D01*
X100500000Y-80700000D02*
X110500000Y-80700000D01*
D25*
X61880000Y-68120000D02*
X61880000Y-65580000D01*
X77120000Y-63631922D02*
X77120000Y-63040000D01*
X75171922Y-65580000D02*
X77120000Y-63631922D01*
X61880000Y-65580000D02*
X75171922Y-65580000D01*
X79600000Y-94905000D02*
X79600000Y-95800008D01*
X79600000Y-95800008D02*
X79500000Y-95900008D01*
X131750000Y-88250000D02*
X130500000Y-87000000D01*
X132125000Y-88250000D02*
X131750000Y-88250000D01*
X124300000Y-56600000D02*
X120900000Y-56600000D01*
X120900000Y-56600000D02*
X117500000Y-56600000D01*
X133875000Y-84750000D02*
X133875000Y-82625000D01*
X133875000Y-82625000D02*
X134000000Y-82500000D01*
X72345990Y-86833508D02*
X73045999Y-86133499D01*
X72345990Y-91040990D02*
X72345990Y-86833508D01*
X72400000Y-91095000D02*
X72345990Y-91040990D01*
X73045999Y-86333499D02*
X73900000Y-87187500D01*
X73045999Y-86133499D02*
X73045999Y-86333499D01*
X95000000Y-65500000D02*
X79740000Y-65500000D01*
X100500000Y-60000000D02*
X95000000Y-65500000D01*
X107400000Y-60000000D02*
X100500000Y-60000000D01*
X109400000Y-62000000D02*
X107400000Y-60000000D01*
X129000000Y-62000000D02*
X109400000Y-62000000D01*
X79740000Y-65500000D02*
X77120000Y-68120000D01*
X130500000Y-60500000D02*
X129000000Y-62000000D01*
D26*
X35150000Y-92250000D02*
X35150000Y-92250000D01*
D24*
X35150000Y-92250000D02*
X36650000Y-93750000D01*
X36650000Y-93750000D02*
X51650000Y-93750000D01*
X51650000Y-93750000D02*
X53150000Y-92250000D01*
D26*
X35150000Y-109000000D02*
X35150000Y-109000000D01*
D24*
X35150000Y-109150000D02*
X35150000Y-109000000D01*
X36500000Y-110500000D02*
X35150000Y-109150000D01*
X66650000Y-110500000D02*
X36500000Y-110500000D01*
X71150000Y-106000000D02*
X66650000Y-110500000D01*
D26*
X87900000Y-68500000D02*
X89150000Y-67250000D01*
X79280000Y-68500000D02*
X87900000Y-68500000D01*
X77120000Y-70660000D02*
X79280000Y-68500000D01*
X95800000Y-107250000D02*
X89150000Y-100600000D01*
X129250000Y-107250000D02*
X95800000Y-107250000D01*
X130500000Y-108500000D02*
X129250000Y-107250000D01*
D24*
X124000000Y-96500000D02*
X130500000Y-96500000D01*
X116500000Y-89000000D02*
X124000000Y-96500000D01*
X107150000Y-89000000D02*
X116500000Y-89000000D01*
X105900000Y-71000000D02*
X107150000Y-72250000D01*
X90500000Y-71000000D02*
X105900000Y-71000000D01*
X90100000Y-70600000D02*
X90500000Y-71000000D01*
X81400000Y-70600000D02*
X90100000Y-70600000D01*
X78800000Y-73200000D02*
X81400000Y-70600000D01*
X77120000Y-73200000D02*
X78800000Y-73200000D01*
D26*
X125150000Y-75250000D02*
X125150000Y-74900000D01*
X89100000Y-71600000D02*
X82400000Y-71600000D01*
X101000000Y-72500000D02*
X90000000Y-72500000D01*
X90000000Y-72500000D02*
X89100000Y-71600000D01*
X123900000Y-74000000D02*
X102500000Y-74000000D01*
X102500000Y-74000000D02*
X101000000Y-72500000D01*
X125150000Y-75250000D02*
X123900000Y-74000000D01*
D24*
X78260000Y-75740000D02*
X82400000Y-71600000D01*
X77120000Y-75740000D02*
X78260000Y-75740000D01*
X74500000Y-57000000D02*
X87500000Y-57000000D01*
X69500000Y-62000000D02*
X74500000Y-57000000D01*
X60370000Y-81850000D02*
X61880000Y-83360000D01*
X51500000Y-81850000D02*
X60370000Y-81850000D01*
X87500000Y-73600000D02*
X100457932Y-73600000D01*
X100457932Y-73600000D02*
X105457932Y-78600000D01*
X105457932Y-78600000D02*
X105500000Y-78600000D01*
X51500000Y-96130000D02*
X61880000Y-85750000D01*
X51500000Y-98600000D02*
X51500000Y-96130000D01*
D26*
X120500000Y-78600000D02*
X123500000Y-81600000D01*
X105500000Y-78600000D02*
X120500000Y-78600000D01*
X67000000Y-84600000D02*
X67000000Y-82700000D01*
X65700000Y-85900000D02*
X67000000Y-84600000D01*
X61880000Y-85900000D02*
X65700000Y-85900000D01*
D24*
X80000000Y-77500000D02*
X80000000Y-76236038D01*
X82636038Y-73600000D02*
X87500000Y-73600000D01*
X77900000Y-79600000D02*
X80000000Y-77500000D01*
X75879557Y-79600000D02*
X77900000Y-79600000D01*
X80000000Y-76236038D02*
X82636038Y-73600000D01*
X74879557Y-78600000D02*
X75879557Y-79600000D01*
X69500000Y-78600000D02*
X74879557Y-78600000D01*
X62740000Y-88440000D02*
X61880000Y-88440000D01*
X69500000Y-95200000D02*
X62740000Y-88440000D01*
D26*
X120350000Y-95200000D02*
X123500000Y-98350000D01*
X105500000Y-95200000D02*
X120350000Y-95200000D01*
D24*
X98200000Y-95200000D02*
X105500000Y-95200000D01*
X93200000Y-90200000D02*
X98200000Y-95200000D01*
X87500000Y-90200000D02*
X93200000Y-90200000D01*
D26*
X77524038Y-95600000D02*
X77724038Y-95800000D01*
X73850000Y-95600000D02*
X77524038Y-95600000D01*
X72950000Y-96500000D02*
X73850000Y-95600000D01*
X70650000Y-96500000D02*
X72950000Y-96500000D01*
X69500000Y-95350000D02*
X70650000Y-96500000D01*
D24*
X98175000Y-95200000D02*
X105500000Y-95200000D01*
X94575000Y-98800000D02*
X98175000Y-95200000D01*
X80724038Y-98800000D02*
X94575000Y-98800000D01*
X77724038Y-95800000D02*
X80724038Y-98800000D01*
X61003701Y-79943701D02*
X61880000Y-80820000D01*
D26*
X35406299Y-79943701D02*
X61003701Y-79943701D01*
X33500000Y-81850000D02*
X35406299Y-79943701D01*
D24*
X123000000Y-80000000D02*
X130500000Y-80000000D01*
X119500000Y-76500000D02*
X123000000Y-80000000D01*
X100500000Y-73000000D02*
X104000000Y-76500000D01*
X104000000Y-76500000D02*
X119500000Y-76500000D01*
X89500000Y-73000000D02*
X100500000Y-73000000D01*
X82900000Y-72100000D02*
X88600000Y-72100000D01*
X78000000Y-77000000D02*
X82900000Y-72100000D01*
X88600000Y-72100000D02*
X89500000Y-73000000D01*
X65700000Y-77000000D02*
X78000000Y-77000000D01*
X61880000Y-80820000D02*
X65700000Y-77000000D01*
D26*
X128650000Y-73500000D02*
X130500000Y-75350000D01*
X102657499Y-73500000D02*
X128650000Y-73500000D01*
X101157499Y-72000000D02*
X102657499Y-73500000D01*
X89600000Y-71100000D02*
X90500000Y-72000000D01*
X90500000Y-72000000D02*
X101157499Y-72000000D01*
X78598699Y-74401301D02*
X81900000Y-71100000D01*
X63081301Y-74401301D02*
X78598699Y-74401301D01*
X81900000Y-71100000D02*
X89600000Y-71100000D01*
X61880000Y-73200000D02*
X63081301Y-74401301D01*
X118500000Y-63250000D02*
X129250000Y-63250000D01*
X111650000Y-70100000D02*
X118500000Y-63250000D01*
X129250000Y-63250000D02*
X130500000Y-64500000D01*
X79900000Y-70100000D02*
X111650000Y-70100000D01*
X78001301Y-71998699D02*
X79900000Y-70100000D01*
X75998699Y-71998699D02*
X78001301Y-71998699D01*
X74660000Y-70660000D02*
X75998699Y-71998699D01*
X61880000Y-70660000D02*
X74660000Y-70660000D01*
D24*
X115800000Y-60600000D02*
X117500000Y-60600000D01*
X114400000Y-59200000D02*
X115800000Y-60600000D01*
X96800000Y-60700000D02*
X98300000Y-59200000D01*
X98300000Y-59200000D02*
X114400000Y-59200000D01*
X82000000Y-60700000D02*
X96800000Y-60700000D01*
X77120000Y-65580000D02*
X82000000Y-60700000D01*
X124300000Y-60600000D02*
X120900000Y-60600000D01*
X117500000Y-60600000D02*
X120900000Y-60600000D01*
X132125000Y-85625000D02*
X133000000Y-86500000D01*
D26*
X132125000Y-84750000D02*
X132125000Y-85625000D01*
X80700000Y-82200000D02*
X79000000Y-80500000D01*
X111700000Y-82200000D02*
X80700000Y-82200000D01*
X114750000Y-85250000D02*
X111700000Y-82200000D01*
X131625000Y-85250000D02*
X114750000Y-85250000D01*
X132125000Y-84750000D02*
X131625000Y-85250000D01*
D24*
X118500000Y-83700000D02*
X128500000Y-83700000D01*
D26*
X121850000Y-92000000D02*
X121850000Y-92000000D01*
D24*
X49500000Y-117450000D02*
X59500000Y-117450000D01*
X64500000Y-97450000D02*
X74500000Y-97450000D01*
X82500000Y-92450000D02*
X92500000Y-92450000D01*
X100500000Y-97450000D02*
X110500000Y-97450000D01*
D26*
X118500000Y-100450000D02*
X128500000Y-100450000D01*
D24*
X28500000Y-83950000D02*
X38500000Y-83950000D01*
D26*
X31850000Y-92250000D02*
X31850000Y-92250000D01*
D24*
X28500000Y-100700000D02*
X38500000Y-100700000D01*
D26*
X31850000Y-109000000D02*
X31850000Y-109000000D01*
D24*
X165950000Y-126500000D02*
X165950000Y-124500000D01*
X165950000Y-124500000D02*
X165950000Y-116500000D01*
X174250000Y-123150000D02*
X174400000Y-123150000D01*
X174250000Y-123150000D02*
X174250000Y-123150000D01*
D26*
X172900000Y-124500000D02*
X165950000Y-124500000D01*
X174250000Y-123150000D02*
X172900000Y-124500000D01*
D24*
X156800000Y-126500000D02*
X156800000Y-118500000D01*
X156800000Y-128500000D02*
X156800000Y-126500000D01*
D26*
X156800000Y-126500000D02*
X149850000Y-126500000D01*
X149850000Y-126500000D02*
X148500000Y-125150000D01*
X140050000Y-131500000D02*
X140050000Y-123500000D01*
X140050000Y-133500000D02*
X140050000Y-131500000D01*
X140050000Y-131500000D02*
X133100000Y-131500000D01*
X133100000Y-131500000D02*
X131750000Y-130150000D01*
D24*
X75340000Y-82600000D02*
X77120000Y-80820000D01*
X74200000Y-86000000D02*
X73300000Y-85100000D01*
X74800000Y-86000000D02*
X74200000Y-86000000D01*
X74000000Y-82600000D02*
X75340000Y-82600000D01*
X73300000Y-83300000D02*
X74000000Y-82600000D01*
X75300000Y-86500000D02*
X74800000Y-86000000D01*
X73300000Y-85100000D02*
X73300000Y-83300000D01*
X75300000Y-91617500D02*
X75300000Y-86500000D01*
X73282500Y-93635000D02*
X75300000Y-91617500D01*
X72400000Y-93635000D02*
X73282500Y-93635000D01*
X79600000Y-92365000D02*
X79600000Y-92400000D01*
X80400000Y-92365000D02*
X81000000Y-91765000D01*
X79600000Y-92365000D02*
X80400000Y-92365000D01*
X81000000Y-87240000D02*
X77120000Y-83360000D01*
X81000000Y-91765000D02*
X81000000Y-87240000D01*
X75916699Y-87103301D02*
X75916699Y-92188301D01*
X75916699Y-92188301D02*
X73200000Y-94905000D01*
X77120000Y-85900000D02*
X75916699Y-87103301D01*
D26*
X72400000Y-94905000D02*
X73200000Y-94905000D01*
D24*
X77120000Y-88615000D02*
X77120000Y-88440000D01*
X79600000Y-91095000D02*
X77120000Y-88615000D01*
D26*
X174250000Y-119850000D02*
X171500000Y-119850000D01*
D24*
X145000000Y-112500000D02*
X142000000Y-109500000D01*
X164000000Y-112500000D02*
X145000000Y-112500000D01*
X171350000Y-119850000D02*
X164000000Y-112500000D01*
X171500000Y-119850000D02*
X171350000Y-119850000D01*
X138500000Y-101000000D02*
X142000000Y-97500000D01*
X138500000Y-111850000D02*
X138500000Y-101000000D01*
X148500000Y-121850000D02*
X138500000Y-111850000D01*
X131750000Y-125250000D02*
X131750000Y-126850000D01*
X138000000Y-119000000D02*
X131750000Y-125250000D01*
X138000000Y-96500000D02*
X138000000Y-119000000D01*
X141500000Y-93000000D02*
X138000000Y-96500000D01*
X142000000Y-93000000D02*
X141500000Y-93000000D01*
X79200000Y-120800000D02*
X79500000Y-120500000D01*
X79200000Y-123750000D02*
X79200000Y-120800000D01*
D26*
X81325000Y-125875000D02*
X79200000Y-123750000D01*
X81325000Y-126500000D02*
X81325000Y-125875000D01*
X80487490Y-127337510D02*
X81325000Y-126500000D01*
X80487490Y-130987490D02*
X80487490Y-127337510D01*
X80500000Y-131000000D02*
X80487490Y-130987490D01*
D24*
X121920000Y-127800000D02*
X94900000Y-127800000D01*
X124900000Y-124820000D02*
X121920000Y-127800000D01*
D25*
X76200000Y-123750000D02*
X76200000Y-120800000D01*
X76200000Y-120800000D02*
X76500000Y-120500000D01*
X76000000Y-123950000D02*
X76200000Y-123750000D01*
X77000000Y-127500000D02*
X77000000Y-131000000D01*
X76200000Y-126700000D02*
X77000000Y-127500000D01*
X76200000Y-123750000D02*
X76200000Y-126700000D01*
X77000000Y-127500000D02*
X79500000Y-127500000D01*
X79500000Y-127500000D02*
X79500000Y-128500000D01*
X79500000Y-127500000D02*
X79500000Y-126500000D01*
X93400000Y-118300000D02*
X87900000Y-123800000D01*
X123460000Y-118300000D02*
X93400000Y-118300000D01*
X124900000Y-119740000D02*
X123460000Y-118300000D01*
D24*
X83200000Y-120700000D02*
X83000000Y-120500000D01*
X83200000Y-123750000D02*
X83200000Y-120700000D01*
X84750000Y-123750000D02*
X83200000Y-123750000D01*
X92000000Y-131000000D02*
X84750000Y-123750000D01*
D26*
X83200000Y-126625000D02*
X83200000Y-123750000D01*
X81325000Y-128500000D02*
X83200000Y-126625000D01*
D24*
X92000000Y-128900000D02*
X92000000Y-131000000D01*
X95200000Y-125700000D02*
X92000000Y-128900000D01*
X121480000Y-125700000D02*
X95200000Y-125700000D01*
X124900000Y-122280000D02*
X121480000Y-125700000D01*
D25*
X84300000Y-120300000D02*
X84500000Y-120500000D01*
X84300000Y-117250000D02*
X84300000Y-120300000D01*
X87800000Y-117200000D02*
X124900000Y-117200000D01*
X84500000Y-120500000D02*
X87800000Y-117200000D01*
D24*
X76835000Y-93635000D02*
X76800000Y-93600000D01*
X79600000Y-93635000D02*
X76835000Y-93635000D01*
X74000000Y-91600000D02*
X74000000Y-90100000D01*
X73235000Y-92365000D02*
X74000000Y-91600000D01*
X72400000Y-92365000D02*
X73235000Y-92365000D01*
X74000000Y-89112500D02*
X73900000Y-89012500D01*
X74000000Y-90100000D02*
X74000000Y-89112500D01*
M02*
