M48
; DRILL file {KiCad 5.1.8} date Tue Mar  9 15:57:43 2021
; FORMAT={-:-/ absolute / inch / decimal}
; #@! TF.CreationDate,2021-03-09T15:57:43-06:00
; #@! TF.GenerationSoftware,Kicad,Pcbnew,5.1.8
; #@! TF.FileFunction,NonPlated,1,2,NPTH
FMAT,2
INCH
T1C0.0256
T2C0.0354
T3C0.0669
T4C0.1339
%
G90
G05
T1
X2.1146Y-2.4409
X2.3421Y-2.4409
T2
X1.7441Y-2.2902
X1.8622Y-2.2902
X1.7441Y-2.2902
X1.8622Y-2.2902
T3
X3.937Y-3.3268
X4.3701Y-3.3268
X1.9291Y-4.7736
X2.3622Y-4.7736
X2.5197Y-3.9862
X2.9528Y-3.9862
X1.1024Y-3.4547
X1.5354Y-3.4547
X1.811Y-3.4547
X2.2441Y-3.4547
X2.5197Y-2.6673
X2.9528Y-2.6673
X3.937Y-2.6673
X4.3701Y-2.6673
X3.937Y-3.9862
X4.3701Y-3.9862
X1.811Y-4.1142
X2.2441Y-4.1142
X2.5197Y-3.3268
X2.9528Y-3.3268
X3.2283Y-3.7894
X3.6614Y-3.7894
X3.2283Y-2.4705
X3.6614Y-2.4705
X4.6457Y-4.1043
X5.0787Y-4.1043
X3.2283Y-3.1299
X3.6614Y-3.1299
X4.6457Y-3.4449
X5.0787Y-3.4449
X1.1024Y-4.1142
X1.5354Y-4.1142
X4.6457Y-2.7854
X5.0787Y-2.7854
T4
X4.8622Y-3.4449
X1.3189Y-4.1142
X4.8622Y-2.7854
X4.1535Y-3.3268
X2.1457Y-4.7736
X2.7362Y-3.9862
X1.3189Y-3.4547
X2.0276Y-3.4547
X2.7362Y-2.6673
X4.1535Y-2.6673
X4.1535Y-3.9862
X2.0276Y-4.1142
X2.7362Y-3.3268
X3.4449Y-3.7894
X3.4449Y-2.4705
X4.8622Y-4.1043
X3.4449Y-3.1299
T0
M30
