G04 #@! TF.GenerationSoftware,KiCad,Pcbnew,5.1.8*
G04 #@! TF.CreationDate,2020-12-21T15:28:55-06:00*
G04 #@! TF.ProjectId,fissure,66697373-7572-4652-9e6b-696361645f70,rev?*
G04 #@! TF.SameCoordinates,Original*
G04 #@! TF.FileFunction,Soldermask,Top*
G04 #@! TF.FilePolarity,Negative*
%FSLAX46Y46*%
G04 Gerber Fmt 4.6, Leading zero omitted, Abs format (unit mm)*
G04 Created by KiCad (PCBNEW 5.1.8) date 2020-12-21 15:28:55*
%MOMM*%
%LPD*%
G01*
G04 APERTURE LIST*
%ADD10O,1.700000X1.700000*%
%ADD11R,1.700000X1.700000*%
%ADD12C,0.787400*%
%ADD13C,1.700000*%
%ADD14C,2.000000*%
%ADD15C,3.400000*%
%ADD16R,2.200000X2.000000*%
%ADD17R,2.000000X2.000000*%
%ADD18C,1.752600*%
%ADD19R,1.752600X1.752600*%
%ADD20R,3.200000X1.000000*%
%ADD21R,1.200000X2.500000*%
%ADD22C,0.800000*%
%ADD23R,1.200000X0.900000*%
%ADD24R,0.900000X1.200000*%
%ADD25R,0.850000X1.600000*%
G04 APERTURE END LIST*
D10*
X124900000Y-124820000D03*
X124900000Y-122280000D03*
X124900000Y-119740000D03*
D11*
X124900000Y-117200000D03*
D12*
X135254000Y-93000000D03*
X135254000Y-94270000D03*
X135254000Y-95540000D03*
X135254000Y-91730000D03*
X135254000Y-90460000D03*
X137246000Y-93000000D03*
X137246000Y-91730000D03*
X137246000Y-90460000D03*
X137246000Y-94270000D03*
X137246000Y-95540000D03*
X135254000Y-70000000D03*
X135254000Y-71270000D03*
X135254000Y-72540000D03*
X135254000Y-68730000D03*
X135254000Y-67460000D03*
X137246000Y-70000000D03*
X137246000Y-68730000D03*
X137246000Y-67460000D03*
X137246000Y-71270000D03*
X137246000Y-72540000D03*
X102500000Y-109004000D03*
X101230000Y-109004000D03*
X99960000Y-109004000D03*
X103770000Y-109004000D03*
X105040000Y-109004000D03*
X86000000Y-109004000D03*
X84730000Y-109004000D03*
X83460000Y-109004000D03*
X87270000Y-109004000D03*
X88540000Y-109004000D03*
X102500000Y-111746000D03*
X103770000Y-111746000D03*
X105040000Y-111746000D03*
X101230000Y-111746000D03*
X99960000Y-111746000D03*
X83460000Y-111746000D03*
X84730000Y-111746000D03*
X88540000Y-111746000D03*
X87270000Y-111746000D03*
X86000000Y-111746000D03*
D13*
X46000000Y-87750000D03*
X57000000Y-87750000D03*
D14*
X51500000Y-81850000D03*
D15*
X51500000Y-87750000D03*
D14*
X46500000Y-83950000D03*
D13*
X28000000Y-104500000D03*
X39000000Y-104500000D03*
D14*
X33500000Y-98600000D03*
D15*
X33500000Y-104500000D03*
D14*
X28500000Y-100700000D03*
D13*
X28000000Y-87750000D03*
X39000000Y-87750000D03*
D14*
X33500000Y-81850000D03*
D15*
X33500000Y-87750000D03*
D14*
X28500000Y-83950000D03*
D13*
X169750000Y-116000000D03*
X169750000Y-127000000D03*
D14*
X165950000Y-126500000D03*
X163850000Y-121500000D03*
D15*
X169750000Y-121500000D03*
D13*
X64000000Y-67750000D03*
X75000000Y-67750000D03*
D14*
X69500000Y-61850000D03*
D15*
X69500000Y-67750000D03*
D14*
X64500000Y-63950000D03*
D13*
X153000000Y-129000000D03*
X153000000Y-118000000D03*
D14*
X156800000Y-118500000D03*
X158900000Y-123500000D03*
D15*
X153000000Y-123500000D03*
D13*
X64000000Y-101250000D03*
X75000000Y-101250000D03*
D14*
X69500000Y-95350000D03*
D15*
X69500000Y-101250000D03*
D14*
X64500000Y-97450000D03*
D13*
X100000000Y-101250000D03*
X111000000Y-101250000D03*
D14*
X105500000Y-95350000D03*
D15*
X105500000Y-101250000D03*
D14*
X100500000Y-97450000D03*
D13*
X136250000Y-134000000D03*
X136250000Y-123000000D03*
D14*
X140050000Y-123500000D03*
X142150000Y-128500000D03*
D15*
X136250000Y-128500000D03*
D13*
X82000000Y-79500000D03*
X93000000Y-79500000D03*
D14*
X87500000Y-73600000D03*
D15*
X87500000Y-79500000D03*
D14*
X82500000Y-75700000D03*
D13*
X100000000Y-67750000D03*
X111000000Y-67750000D03*
D14*
X105500000Y-61850000D03*
D15*
X105500000Y-67750000D03*
D14*
X100500000Y-63950000D03*
D13*
X118000000Y-104250000D03*
X129000000Y-104250000D03*
D14*
X123500000Y-98350000D03*
D15*
X123500000Y-104250000D03*
D14*
X118500000Y-100450000D03*
D13*
X82000000Y-96250000D03*
X93000000Y-96250000D03*
D14*
X87500000Y-90350000D03*
D15*
X87500000Y-96250000D03*
D14*
X82500000Y-92450000D03*
D13*
X100000000Y-84500000D03*
X111000000Y-84500000D03*
D14*
X105500000Y-78600000D03*
D15*
X105500000Y-84500000D03*
D14*
X100500000Y-80700000D03*
D13*
X82000000Y-62750000D03*
X93000000Y-62750000D03*
D14*
X87500000Y-56850000D03*
D15*
X87500000Y-62750000D03*
D14*
X82500000Y-58950000D03*
D13*
X118000000Y-87500000D03*
X129000000Y-87500000D03*
D14*
X123500000Y-81600000D03*
D15*
X123500000Y-87500000D03*
D14*
X118500000Y-83700000D03*
D13*
X64000000Y-84500000D03*
X75000000Y-84500000D03*
D14*
X69500000Y-78600000D03*
D15*
X69500000Y-84500000D03*
D14*
X64500000Y-80700000D03*
D13*
X49000000Y-121250000D03*
X60000000Y-121250000D03*
D14*
X54500000Y-115350000D03*
D15*
X54500000Y-121250000D03*
D14*
X49500000Y-117450000D03*
D13*
X46000000Y-104500000D03*
X57000000Y-104500000D03*
D14*
X51500000Y-98600000D03*
D15*
X51500000Y-104500000D03*
D14*
X46500000Y-100700000D03*
D13*
X118000000Y-70750000D03*
X129000000Y-70750000D03*
D14*
X123500000Y-64850000D03*
D15*
X123500000Y-70750000D03*
D14*
X118500000Y-66950000D03*
D16*
X140100000Y-58000000D03*
X143900000Y-58000000D03*
X140100000Y-61500000D03*
X143900000Y-61500000D03*
X140100000Y-65000000D03*
X143900000Y-65000000D03*
X140100000Y-76500000D03*
X143900000Y-76500000D03*
X140100000Y-81000000D03*
X143900000Y-81000000D03*
X140100000Y-93000000D03*
X143900000Y-93000000D03*
X140100000Y-97500000D03*
X143900000Y-97500000D03*
X140100000Y-109500000D03*
X143900000Y-109500000D03*
X128600000Y-57000000D03*
X132400000Y-57000000D03*
X128600000Y-60500000D03*
X132400000Y-60500000D03*
X128600000Y-64000000D03*
X132400000Y-64000000D03*
X128600000Y-75500000D03*
X132400000Y-75500000D03*
X128600000Y-80000000D03*
X132400000Y-80000000D03*
X128600000Y-92000000D03*
X132400000Y-92000000D03*
X128600000Y-96500000D03*
X132400000Y-96500000D03*
X132400000Y-108500000D03*
X128600000Y-108500000D03*
D17*
X73500000Y-113000000D03*
X77000000Y-113000000D03*
X80500000Y-113000000D03*
X92000000Y-113000000D03*
X96500000Y-113000000D03*
X108500000Y-113000000D03*
X113000000Y-113000000D03*
X125000000Y-113000000D03*
X73500000Y-131000000D03*
X77000000Y-131000000D03*
X80500000Y-131000000D03*
X92000000Y-131000000D03*
X96500000Y-131000000D03*
X108500000Y-131000000D03*
X113000000Y-131000000D03*
X125000000Y-131000000D03*
D18*
X77120000Y-60500000D03*
X61880000Y-88440000D03*
X77120000Y-63040000D03*
X77120000Y-65580000D03*
X77120000Y-68120000D03*
X77120000Y-70660000D03*
X77120000Y-73200000D03*
X77120000Y-75740000D03*
X77120000Y-78280000D03*
X77120000Y-80820000D03*
X77120000Y-83360000D03*
X77120000Y-85900000D03*
X77120000Y-88440000D03*
X61880000Y-85900000D03*
X61880000Y-83360000D03*
X61880000Y-80820000D03*
X61880000Y-78280000D03*
X61880000Y-75740000D03*
X61880000Y-73200000D03*
X61880000Y-70660000D03*
X61880000Y-68120000D03*
X61880000Y-65580000D03*
X61880000Y-63040000D03*
D19*
X61880000Y-60500000D03*
D20*
X117500000Y-56600000D03*
X124300000Y-56600000D03*
X124300000Y-60600000D03*
X117500000Y-60600000D03*
D21*
X79200000Y-117250000D03*
D22*
X74600000Y-120500000D03*
X81600000Y-120500000D03*
D21*
X76200000Y-117250000D03*
X83200000Y-117250000D03*
X84300000Y-123750000D03*
D22*
X74600000Y-120500000D03*
X81600000Y-120500000D03*
D23*
X174250000Y-123150000D03*
X174250000Y-119850000D03*
X148500000Y-125150000D03*
X148500000Y-121850000D03*
X131750000Y-130150000D03*
X131750000Y-126850000D03*
D24*
X71150000Y-72250000D03*
X67850000Y-72250000D03*
X89150000Y-67250000D03*
X85850000Y-67250000D03*
X107150000Y-72250000D03*
X103850000Y-72250000D03*
X125150000Y-75250000D03*
X121850000Y-75250000D03*
X53150000Y-92250000D03*
X49850000Y-92250000D03*
X71150000Y-89000000D03*
X67850000Y-89000000D03*
X89150000Y-84000000D03*
X85850000Y-84000000D03*
X107150000Y-89000000D03*
X103850000Y-89000000D03*
X125150000Y-92000000D03*
X121850000Y-92000000D03*
X53150000Y-109000000D03*
X49850000Y-109000000D03*
X71150000Y-105750000D03*
X67850000Y-105750000D03*
X89150000Y-100750000D03*
X85850000Y-100750000D03*
X107150000Y-105750000D03*
X103850000Y-105750000D03*
X125150000Y-108750000D03*
X121850000Y-108750000D03*
X56150000Y-125750000D03*
X52850000Y-125750000D03*
D25*
X132125000Y-88250000D03*
X133875000Y-88250000D03*
X132125000Y-84750000D03*
X133875000Y-84750000D03*
D24*
X35150000Y-92250000D03*
X31850000Y-92250000D03*
X35150000Y-109000000D03*
X31850000Y-109000000D03*
M02*
