G04 #@! TF.GenerationSoftware,KiCad,Pcbnew,5.1.6*
G04 #@! TF.CreationDate,2020-09-27T23:11:49-05:00*
G04 #@! TF.ProjectId,fissure,66697373-7572-4652-9e6b-696361645f70,rev?*
G04 #@! TF.SameCoordinates,Original*
G04 #@! TF.FileFunction,Soldermask,Top*
G04 #@! TF.FilePolarity,Negative*
%FSLAX46Y46*%
G04 Gerber Fmt 4.6, Leading zero omitted, Abs format (unit mm)*
G04 Created by KiCad (PCBNEW 5.1.6) date 2020-09-27 23:11:49*
%MOMM*%
%LPD*%
G01*
G04 APERTURE LIST*
%ADD10C,0.100000*%
G04 APERTURE END LIST*
D10*
G36*
X110113512Y-138103927D02*
G01*
X110262812Y-138133624D01*
X110426784Y-138201544D01*
X110574354Y-138300147D01*
X110699853Y-138425646D01*
X110798456Y-138573216D01*
X110866376Y-138737188D01*
X110901000Y-138911259D01*
X110901000Y-139088741D01*
X110866376Y-139262812D01*
X110798456Y-139426784D01*
X110699853Y-139574354D01*
X110574354Y-139699853D01*
X110426784Y-139798456D01*
X110262812Y-139866376D01*
X110113512Y-139896073D01*
X110088742Y-139901000D01*
X109911258Y-139901000D01*
X109886488Y-139896073D01*
X109737188Y-139866376D01*
X109573216Y-139798456D01*
X109425646Y-139699853D01*
X109300147Y-139574354D01*
X109201544Y-139426784D01*
X109133624Y-139262812D01*
X109099000Y-139088741D01*
X109099000Y-138911259D01*
X109133624Y-138737188D01*
X109201544Y-138573216D01*
X109300147Y-138425646D01*
X109425646Y-138300147D01*
X109573216Y-138201544D01*
X109737188Y-138133624D01*
X109886488Y-138103927D01*
X109911258Y-138099000D01*
X110088742Y-138099000D01*
X110113512Y-138103927D01*
G37*
G36*
X106506564Y-137489389D02*
G01*
X106697833Y-137568615D01*
X106697835Y-137568616D01*
X106869973Y-137683635D01*
X107016365Y-137830027D01*
X107131385Y-138002167D01*
X107210611Y-138193436D01*
X107251000Y-138396484D01*
X107251000Y-138603516D01*
X107210611Y-138806564D01*
X107167245Y-138911258D01*
X107131384Y-138997835D01*
X107016365Y-139169973D01*
X106869973Y-139316365D01*
X106697835Y-139431384D01*
X106697834Y-139431385D01*
X106697833Y-139431385D01*
X106506564Y-139510611D01*
X106303516Y-139551000D01*
X106096484Y-139551000D01*
X105893436Y-139510611D01*
X105702167Y-139431385D01*
X105702166Y-139431385D01*
X105702165Y-139431384D01*
X105530027Y-139316365D01*
X105383635Y-139169973D01*
X105268616Y-138997835D01*
X105232755Y-138911258D01*
X105189389Y-138806564D01*
X105149000Y-138603516D01*
X105149000Y-138396484D01*
X105189389Y-138193436D01*
X105268615Y-138002167D01*
X105383635Y-137830027D01*
X105530027Y-137683635D01*
X105702165Y-137568616D01*
X105702167Y-137568615D01*
X105893436Y-137489389D01*
X106096484Y-137449000D01*
X106303516Y-137449000D01*
X106506564Y-137489389D01*
G37*
G36*
X56551000Y-138301000D02*
G01*
X52449000Y-138301000D01*
X52449000Y-134199000D01*
X56551000Y-134199000D01*
X56551000Y-138301000D01*
G37*
G36*
X50551000Y-138301000D02*
G01*
X46449000Y-138301000D01*
X46449000Y-134199000D01*
X50551000Y-134199000D01*
X50551000Y-138301000D01*
G37*
G36*
X62551000Y-138301000D02*
G01*
X58449000Y-138301000D01*
X58449000Y-134199000D01*
X62551000Y-134199000D01*
X62551000Y-138301000D01*
G37*
G36*
X122902778Y-136288950D02*
G01*
X120333528Y-136700478D01*
X120001080Y-134624934D01*
X122570330Y-134213406D01*
X122902778Y-136288950D01*
G37*
G36*
X134551000Y-136551000D02*
G01*
X131949000Y-136551000D01*
X131949000Y-134449000D01*
X134551000Y-134449000D01*
X134551000Y-136551000D01*
G37*
G36*
X115151000Y-135651000D02*
G01*
X113849000Y-135651000D01*
X113849000Y-134649000D01*
X115151000Y-134649000D01*
X115151000Y-135651000D01*
G37*
G36*
X110397985Y-131793860D02*
G01*
X110510748Y-131816290D01*
X110642741Y-131870963D01*
X110829408Y-131948283D01*
X111116196Y-132139909D01*
X111360091Y-132383804D01*
X111551717Y-132670592D01*
X111563837Y-132699853D01*
X111683710Y-132989252D01*
X111686279Y-133002167D01*
X111751000Y-133327540D01*
X111751000Y-133672460D01*
X111706140Y-133897985D01*
X111686279Y-133997835D01*
X111683710Y-134010747D01*
X111551717Y-134329408D01*
X111360091Y-134616196D01*
X111116196Y-134860091D01*
X110829408Y-135051717D01*
X110642741Y-135129037D01*
X110510748Y-135183710D01*
X110397985Y-135206140D01*
X110172460Y-135251000D01*
X109827540Y-135251000D01*
X109602015Y-135206140D01*
X109489252Y-135183710D01*
X109357259Y-135129037D01*
X109170592Y-135051717D01*
X108883804Y-134860091D01*
X108639909Y-134616196D01*
X108448283Y-134329408D01*
X108316290Y-134010747D01*
X108313722Y-133997835D01*
X108293860Y-133897985D01*
X108249000Y-133672460D01*
X108249000Y-133327540D01*
X108313721Y-133002167D01*
X108316290Y-132989252D01*
X108436163Y-132699853D01*
X108448283Y-132670592D01*
X108639909Y-132383804D01*
X108883804Y-132139909D01*
X109170592Y-131948283D01*
X109357259Y-131870963D01*
X109489252Y-131816290D01*
X109602015Y-131793860D01*
X109827540Y-131749000D01*
X110172460Y-131749000D01*
X110397985Y-131793860D01*
G37*
G36*
X93113512Y-133103927D02*
G01*
X93262812Y-133133624D01*
X93426784Y-133201544D01*
X93574354Y-133300147D01*
X93699853Y-133425646D01*
X93798456Y-133573216D01*
X93866376Y-133737188D01*
X93901000Y-133911259D01*
X93901000Y-134088741D01*
X93866376Y-134262812D01*
X93798456Y-134426784D01*
X93699853Y-134574354D01*
X93574354Y-134699853D01*
X93426784Y-134798456D01*
X93262812Y-134866376D01*
X93113512Y-134896073D01*
X93088742Y-134901000D01*
X92911258Y-134901000D01*
X92886488Y-134896073D01*
X92737188Y-134866376D01*
X92573216Y-134798456D01*
X92425646Y-134699853D01*
X92300147Y-134574354D01*
X92201544Y-134426784D01*
X92133624Y-134262812D01*
X92099000Y-134088741D01*
X92099000Y-133911259D01*
X92133624Y-133737188D01*
X92201544Y-133573216D01*
X92300147Y-133425646D01*
X92425646Y-133300147D01*
X92573216Y-133201544D01*
X92737188Y-133133624D01*
X92886488Y-133103927D01*
X92911258Y-133099000D01*
X93088742Y-133099000D01*
X93113512Y-133103927D01*
G37*
G36*
X89506564Y-132489389D02*
G01*
X89697833Y-132568615D01*
X89697835Y-132568616D01*
X89869973Y-132683635D01*
X90016365Y-132830027D01*
X90122756Y-132989252D01*
X90131385Y-133002167D01*
X90210611Y-133193436D01*
X90251000Y-133396484D01*
X90251000Y-133603516D01*
X90210611Y-133806564D01*
X90167245Y-133911258D01*
X90131384Y-133997835D01*
X90016365Y-134169973D01*
X89869973Y-134316365D01*
X89697835Y-134431384D01*
X89697834Y-134431385D01*
X89697833Y-134431385D01*
X89506564Y-134510611D01*
X89303516Y-134551000D01*
X89096484Y-134551000D01*
X88893436Y-134510611D01*
X88702167Y-134431385D01*
X88702166Y-134431385D01*
X88702165Y-134431384D01*
X88530027Y-134316365D01*
X88383635Y-134169973D01*
X88268616Y-133997835D01*
X88232755Y-133911258D01*
X88189389Y-133806564D01*
X88149000Y-133603516D01*
X88149000Y-133396484D01*
X88189389Y-133193436D01*
X88268615Y-133002167D01*
X88277245Y-132989252D01*
X88383635Y-132830027D01*
X88530027Y-132683635D01*
X88702165Y-132568616D01*
X88702167Y-132568615D01*
X88893436Y-132489389D01*
X89096484Y-132449000D01*
X89303516Y-132449000D01*
X89506564Y-132489389D01*
G37*
G36*
X104406564Y-132489389D02*
G01*
X104597833Y-132568615D01*
X104597835Y-132568616D01*
X104769973Y-132683635D01*
X104916365Y-132830027D01*
X105022756Y-132989252D01*
X105031385Y-133002167D01*
X105110611Y-133193436D01*
X105151000Y-133396484D01*
X105151000Y-133603516D01*
X105110611Y-133806564D01*
X105067245Y-133911258D01*
X105031384Y-133997835D01*
X104916365Y-134169973D01*
X104769973Y-134316365D01*
X104597835Y-134431384D01*
X104597834Y-134431385D01*
X104597833Y-134431385D01*
X104406564Y-134510611D01*
X104203516Y-134551000D01*
X103996484Y-134551000D01*
X103793436Y-134510611D01*
X103602167Y-134431385D01*
X103602166Y-134431385D01*
X103602165Y-134431384D01*
X103430027Y-134316365D01*
X103283635Y-134169973D01*
X103168616Y-133997835D01*
X103132755Y-133911258D01*
X103089389Y-133806564D01*
X103049000Y-133603516D01*
X103049000Y-133396484D01*
X103089389Y-133193436D01*
X103168615Y-133002167D01*
X103177245Y-132989252D01*
X103283635Y-132830027D01*
X103430027Y-132683635D01*
X103602165Y-132568616D01*
X103602167Y-132568615D01*
X103793436Y-132489389D01*
X103996484Y-132449000D01*
X104203516Y-132449000D01*
X104406564Y-132489389D01*
G37*
G36*
X76113512Y-131103927D02*
G01*
X76262812Y-131133624D01*
X76426784Y-131201544D01*
X76574354Y-131300147D01*
X76699853Y-131425646D01*
X76798456Y-131573216D01*
X76866376Y-131737188D01*
X76901000Y-131911259D01*
X76901000Y-132088741D01*
X76866376Y-132262812D01*
X76798456Y-132426784D01*
X76699853Y-132574354D01*
X76574354Y-132699853D01*
X76426784Y-132798456D01*
X76262812Y-132866376D01*
X76113512Y-132896073D01*
X76088742Y-132901000D01*
X75911258Y-132901000D01*
X75886488Y-132896073D01*
X75737188Y-132866376D01*
X75573216Y-132798456D01*
X75425646Y-132699853D01*
X75300147Y-132574354D01*
X75201544Y-132426784D01*
X75133624Y-132262812D01*
X75099000Y-132088741D01*
X75099000Y-131911259D01*
X75133624Y-131737188D01*
X75201544Y-131573216D01*
X75300147Y-131425646D01*
X75425646Y-131300147D01*
X75573216Y-131201544D01*
X75737188Y-131133624D01*
X75886488Y-131103927D01*
X75911258Y-131099000D01*
X76088742Y-131099000D01*
X76113512Y-131103927D01*
G37*
G36*
X115151000Y-132351000D02*
G01*
X113849000Y-132351000D01*
X113849000Y-131349000D01*
X115151000Y-131349000D01*
X115151000Y-132351000D01*
G37*
G36*
X122111987Y-131351881D02*
G01*
X119542737Y-131763409D01*
X119210289Y-129687865D01*
X121779539Y-129276337D01*
X122111987Y-131351881D01*
G37*
G36*
X31051000Y-131551000D02*
G01*
X28949000Y-131551000D01*
X28949000Y-128949000D01*
X31051000Y-128949000D01*
X31051000Y-131551000D01*
G37*
G36*
X37051000Y-131551000D02*
G01*
X34949000Y-131551000D01*
X34949000Y-128949000D01*
X37051000Y-128949000D01*
X37051000Y-131551000D01*
G37*
G36*
X43051000Y-131551000D02*
G01*
X40949000Y-131551000D01*
X40949000Y-128949000D01*
X43051000Y-128949000D01*
X43051000Y-131551000D01*
G37*
G36*
X134551000Y-131551000D02*
G01*
X131949000Y-131551000D01*
X131949000Y-129449000D01*
X134551000Y-129449000D01*
X134551000Y-131551000D01*
G37*
G36*
X98151000Y-130651000D02*
G01*
X96849000Y-130651000D01*
X96849000Y-129649000D01*
X98151000Y-129649000D01*
X98151000Y-130651000D01*
G37*
G36*
X93397985Y-126793860D02*
G01*
X93510748Y-126816290D01*
X93642741Y-126870963D01*
X93829408Y-126948283D01*
X94116196Y-127139909D01*
X94360091Y-127383804D01*
X94551717Y-127670592D01*
X94579302Y-127737189D01*
X94683710Y-127989252D01*
X94686279Y-128002167D01*
X94751000Y-128327540D01*
X94751000Y-128672460D01*
X94712428Y-128866375D01*
X94686279Y-128997835D01*
X94683710Y-129010747D01*
X94551717Y-129329408D01*
X94360091Y-129616196D01*
X94116196Y-129860091D01*
X93829408Y-130051717D01*
X93642741Y-130129037D01*
X93510748Y-130183710D01*
X93397985Y-130206140D01*
X93172460Y-130251000D01*
X92827540Y-130251000D01*
X92602015Y-130206140D01*
X92489252Y-130183710D01*
X92357259Y-130129037D01*
X92170592Y-130051717D01*
X91883804Y-129860091D01*
X91639909Y-129616196D01*
X91448283Y-129329408D01*
X91316290Y-129010747D01*
X91313722Y-128997835D01*
X91287572Y-128866375D01*
X91249000Y-128672460D01*
X91249000Y-128327540D01*
X91313721Y-128002167D01*
X91316290Y-127989252D01*
X91420698Y-127737189D01*
X91448283Y-127670592D01*
X91639909Y-127383804D01*
X91883804Y-127139909D01*
X92170592Y-126948283D01*
X92357259Y-126870963D01*
X92489252Y-126816290D01*
X92602015Y-126793860D01*
X92827540Y-126749000D01*
X93172460Y-126749000D01*
X93397985Y-126793860D01*
G37*
G36*
X87406564Y-127489389D02*
G01*
X87597833Y-127568615D01*
X87597835Y-127568616D01*
X87769973Y-127683635D01*
X87916365Y-127830027D01*
X88022756Y-127989252D01*
X88031385Y-128002167D01*
X88110611Y-128193436D01*
X88151000Y-128396484D01*
X88151000Y-128603516D01*
X88110611Y-128806564D01*
X88085836Y-128866376D01*
X88031384Y-128997835D01*
X87916365Y-129169973D01*
X87769973Y-129316365D01*
X87597835Y-129431384D01*
X87597834Y-129431385D01*
X87597833Y-129431385D01*
X87406564Y-129510611D01*
X87203516Y-129551000D01*
X86996484Y-129551000D01*
X86793436Y-129510611D01*
X86602167Y-129431385D01*
X86602166Y-129431385D01*
X86602165Y-129431384D01*
X86430027Y-129316365D01*
X86283635Y-129169973D01*
X86168616Y-128997835D01*
X86114164Y-128866376D01*
X86089389Y-128806564D01*
X86049000Y-128603516D01*
X86049000Y-128396484D01*
X86089389Y-128193436D01*
X86168615Y-128002167D01*
X86177245Y-127989252D01*
X86283635Y-127830027D01*
X86430027Y-127683635D01*
X86602165Y-127568616D01*
X86602167Y-127568615D01*
X86793436Y-127489389D01*
X86996484Y-127449000D01*
X87203516Y-127449000D01*
X87406564Y-127489389D01*
G37*
G36*
X110113512Y-127103927D02*
G01*
X110262812Y-127133624D01*
X110426784Y-127201544D01*
X110574354Y-127300147D01*
X110699853Y-127425646D01*
X110798456Y-127573216D01*
X110866376Y-127737188D01*
X110901000Y-127911259D01*
X110901000Y-128088741D01*
X110866376Y-128262812D01*
X110798456Y-128426784D01*
X110699853Y-128574354D01*
X110574354Y-128699853D01*
X110426784Y-128798456D01*
X110262812Y-128866376D01*
X110113512Y-128896073D01*
X110088742Y-128901000D01*
X109911258Y-128901000D01*
X109886488Y-128896073D01*
X109737188Y-128866376D01*
X109573216Y-128798456D01*
X109425646Y-128699853D01*
X109300147Y-128574354D01*
X109201544Y-128426784D01*
X109133624Y-128262812D01*
X109099000Y-128088741D01*
X109099000Y-127911259D01*
X109133624Y-127737188D01*
X109201544Y-127573216D01*
X109300147Y-127425646D01*
X109425646Y-127300147D01*
X109573216Y-127201544D01*
X109737188Y-127133624D01*
X109886488Y-127103927D01*
X109911258Y-127099000D01*
X110088742Y-127099000D01*
X110113512Y-127103927D01*
G37*
G36*
X72151000Y-128651000D02*
G01*
X70849000Y-128651000D01*
X70849000Y-127649000D01*
X72151000Y-127649000D01*
X72151000Y-128651000D01*
G37*
G36*
X76397985Y-124793860D02*
G01*
X76510748Y-124816290D01*
X76642741Y-124870963D01*
X76829408Y-124948283D01*
X77116196Y-125139909D01*
X77360091Y-125383804D01*
X77551717Y-125670592D01*
X77617757Y-125830027D01*
X77683710Y-125989252D01*
X77686279Y-126002167D01*
X77751000Y-126327540D01*
X77751000Y-126672460D01*
X77722390Y-126816290D01*
X77686279Y-126997835D01*
X77683710Y-127010747D01*
X77551717Y-127329408D01*
X77360091Y-127616196D01*
X77116196Y-127860091D01*
X76829408Y-128051717D01*
X76740021Y-128088742D01*
X76510748Y-128183710D01*
X76397985Y-128206140D01*
X76172460Y-128251000D01*
X75827540Y-128251000D01*
X75602015Y-128206140D01*
X75489252Y-128183710D01*
X75259979Y-128088742D01*
X75170592Y-128051717D01*
X74883804Y-127860091D01*
X74639909Y-127616196D01*
X74448283Y-127329408D01*
X74316290Y-127010747D01*
X74313722Y-126997835D01*
X74277610Y-126816290D01*
X74249000Y-126672460D01*
X74249000Y-126327540D01*
X74313721Y-126002167D01*
X74316290Y-125989252D01*
X74382243Y-125830027D01*
X74448283Y-125670592D01*
X74639909Y-125383804D01*
X74883804Y-125139909D01*
X75170592Y-124948283D01*
X75357259Y-124870963D01*
X75489252Y-124816290D01*
X75602015Y-124793860D01*
X75827540Y-124749000D01*
X76172460Y-124749000D01*
X76397985Y-124793860D01*
G37*
G36*
X82206564Y-125489389D02*
G01*
X82397833Y-125568615D01*
X82397835Y-125568616D01*
X82569973Y-125683635D01*
X82716365Y-125830027D01*
X82822756Y-125989252D01*
X82831385Y-126002167D01*
X82910611Y-126193436D01*
X82951000Y-126396484D01*
X82951000Y-126603516D01*
X82910611Y-126806564D01*
X82906582Y-126816290D01*
X82831384Y-126997835D01*
X82716365Y-127169973D01*
X82569973Y-127316365D01*
X82397835Y-127431384D01*
X82397834Y-127431385D01*
X82397833Y-127431385D01*
X82206564Y-127510611D01*
X82003516Y-127551000D01*
X81796484Y-127551000D01*
X81593436Y-127510611D01*
X81402167Y-127431385D01*
X81402166Y-127431385D01*
X81402165Y-127431384D01*
X81230027Y-127316365D01*
X81083635Y-127169973D01*
X80968616Y-126997835D01*
X80893418Y-126816290D01*
X80889389Y-126806564D01*
X80849000Y-126603516D01*
X80849000Y-126396484D01*
X80889389Y-126193436D01*
X80968615Y-126002167D01*
X80977245Y-125989252D01*
X81083635Y-125830027D01*
X81230027Y-125683635D01*
X81402165Y-125568616D01*
X81402167Y-125568615D01*
X81593436Y-125489389D01*
X81796484Y-125449000D01*
X82003516Y-125449000D01*
X82206564Y-125489389D01*
G37*
G36*
X98151000Y-127351000D02*
G01*
X96849000Y-127351000D01*
X96849000Y-126349000D01*
X98151000Y-126349000D01*
X98151000Y-127351000D01*
G37*
G36*
X53351000Y-126651000D02*
G01*
X52349000Y-126651000D01*
X52349000Y-125349000D01*
X53351000Y-125349000D01*
X53351000Y-126651000D01*
G37*
G36*
X56651000Y-126651000D02*
G01*
X55649000Y-126651000D01*
X55649000Y-125349000D01*
X56651000Y-125349000D01*
X56651000Y-126651000D01*
G37*
G36*
X72151000Y-125351000D02*
G01*
X70849000Y-125351000D01*
X70849000Y-124349000D01*
X72151000Y-124349000D01*
X72151000Y-125351000D01*
G37*
G36*
X93113512Y-122103927D02*
G01*
X93262812Y-122133624D01*
X93426784Y-122201544D01*
X93574354Y-122300147D01*
X93699853Y-122425646D01*
X93798456Y-122573216D01*
X93866376Y-122737188D01*
X93901000Y-122911259D01*
X93901000Y-123088741D01*
X93866376Y-123262812D01*
X93798456Y-123426784D01*
X93699853Y-123574354D01*
X93574354Y-123699853D01*
X93426784Y-123798456D01*
X93262812Y-123866376D01*
X93113512Y-123896073D01*
X93088742Y-123901000D01*
X92911258Y-123901000D01*
X92886488Y-123896073D01*
X92737188Y-123866376D01*
X92573216Y-123798456D01*
X92425646Y-123699853D01*
X92300147Y-123574354D01*
X92201544Y-123426784D01*
X92133624Y-123262812D01*
X92099000Y-123088741D01*
X92099000Y-122911259D01*
X92133624Y-122737188D01*
X92201544Y-122573216D01*
X92300147Y-122425646D01*
X92425646Y-122300147D01*
X92573216Y-122201544D01*
X92737188Y-122133624D01*
X92886488Y-122103927D01*
X92911258Y-122099000D01*
X93088742Y-122099000D01*
X93113512Y-122103927D01*
G37*
G36*
X120846723Y-123452571D02*
G01*
X118277473Y-123864099D01*
X117945025Y-121788555D01*
X120514275Y-121377027D01*
X120846723Y-123452571D01*
G37*
G36*
X134551000Y-123551000D02*
G01*
X131949000Y-123551000D01*
X131949000Y-121449000D01*
X134551000Y-121449000D01*
X134551000Y-123551000D01*
G37*
G36*
X54897985Y-119793860D02*
G01*
X55010748Y-119816290D01*
X55142741Y-119870963D01*
X55329408Y-119948283D01*
X55616196Y-120139909D01*
X55860091Y-120383804D01*
X56051717Y-120670592D01*
X56117757Y-120830027D01*
X56183710Y-120989252D01*
X56186279Y-121002167D01*
X56251000Y-121327540D01*
X56251000Y-121672460D01*
X56212428Y-121866375D01*
X56186279Y-121997835D01*
X56183710Y-122010747D01*
X56051717Y-122329408D01*
X55860091Y-122616196D01*
X55616196Y-122860091D01*
X55329408Y-123051717D01*
X55240021Y-123088742D01*
X55010748Y-123183710D01*
X54897985Y-123206140D01*
X54672460Y-123251000D01*
X54327540Y-123251000D01*
X54102015Y-123206140D01*
X53989252Y-123183710D01*
X53759979Y-123088742D01*
X53670592Y-123051717D01*
X53383804Y-122860091D01*
X53139909Y-122616196D01*
X52948283Y-122329408D01*
X52816290Y-122010747D01*
X52813722Y-121997835D01*
X52787572Y-121866375D01*
X52749000Y-121672460D01*
X52749000Y-121327540D01*
X52813721Y-121002167D01*
X52816290Y-120989252D01*
X52882243Y-120830027D01*
X52948283Y-120670592D01*
X53139909Y-120383804D01*
X53383804Y-120139909D01*
X53670592Y-119948283D01*
X53857259Y-119870963D01*
X53989252Y-119816290D01*
X54102015Y-119793860D01*
X54327540Y-119749000D01*
X54672460Y-119749000D01*
X54897985Y-119793860D01*
G37*
G36*
X80106564Y-120489389D02*
G01*
X80297833Y-120568615D01*
X80297835Y-120568616D01*
X80469973Y-120683635D01*
X80616365Y-120830027D01*
X80722756Y-120989252D01*
X80731385Y-121002167D01*
X80810611Y-121193436D01*
X80851000Y-121396484D01*
X80851000Y-121603516D01*
X80810611Y-121806564D01*
X80785836Y-121866376D01*
X80731384Y-121997835D01*
X80616365Y-122169973D01*
X80469973Y-122316365D01*
X80297835Y-122431384D01*
X80297834Y-122431385D01*
X80297833Y-122431385D01*
X80106564Y-122510611D01*
X79903516Y-122551000D01*
X79696484Y-122551000D01*
X79493436Y-122510611D01*
X79302167Y-122431385D01*
X79302166Y-122431385D01*
X79302165Y-122431384D01*
X79130027Y-122316365D01*
X78983635Y-122169973D01*
X78868616Y-121997835D01*
X78814164Y-121866376D01*
X78789389Y-121806564D01*
X78749000Y-121603516D01*
X78749000Y-121396484D01*
X78789389Y-121193436D01*
X78868615Y-121002167D01*
X78877245Y-120989252D01*
X78983635Y-120830027D01*
X79130027Y-120683635D01*
X79302165Y-120568616D01*
X79302167Y-120568615D01*
X79493436Y-120489389D01*
X79696484Y-120449000D01*
X79903516Y-120449000D01*
X80106564Y-120489389D01*
G37*
G36*
X60113512Y-120603927D02*
G01*
X60262812Y-120633624D01*
X60426784Y-120701544D01*
X60574354Y-120800147D01*
X60699853Y-120925646D01*
X60798456Y-121073216D01*
X60866376Y-121237188D01*
X60901000Y-121411259D01*
X60901000Y-121588741D01*
X60866376Y-121762812D01*
X60798456Y-121926784D01*
X60699853Y-122074354D01*
X60574354Y-122199853D01*
X60426784Y-122298456D01*
X60262812Y-122366376D01*
X60113512Y-122396073D01*
X60088742Y-122401000D01*
X59911258Y-122401000D01*
X59886488Y-122396073D01*
X59737188Y-122366376D01*
X59573216Y-122298456D01*
X59425646Y-122199853D01*
X59300147Y-122074354D01*
X59201544Y-121926784D01*
X59133624Y-121762812D01*
X59099000Y-121588741D01*
X59099000Y-121411259D01*
X59133624Y-121237188D01*
X59201544Y-121073216D01*
X59300147Y-120925646D01*
X59425646Y-120800147D01*
X59573216Y-120701544D01*
X59737188Y-120633624D01*
X59886488Y-120603927D01*
X59911258Y-120599000D01*
X60088742Y-120599000D01*
X60113512Y-120603927D01*
G37*
G36*
X49113512Y-120603927D02*
G01*
X49262812Y-120633624D01*
X49426784Y-120701544D01*
X49574354Y-120800147D01*
X49699853Y-120925646D01*
X49798456Y-121073216D01*
X49866376Y-121237188D01*
X49901000Y-121411259D01*
X49901000Y-121588741D01*
X49866376Y-121762812D01*
X49798456Y-121926784D01*
X49699853Y-122074354D01*
X49574354Y-122199853D01*
X49426784Y-122298456D01*
X49262812Y-122366376D01*
X49113512Y-122396073D01*
X49088742Y-122401000D01*
X48911258Y-122401000D01*
X48886488Y-122396073D01*
X48737188Y-122366376D01*
X48573216Y-122298456D01*
X48425646Y-122199853D01*
X48300147Y-122074354D01*
X48201544Y-121926784D01*
X48133624Y-121762812D01*
X48099000Y-121588741D01*
X48099000Y-121411259D01*
X48133624Y-121237188D01*
X48201544Y-121073216D01*
X48300147Y-120925646D01*
X48425646Y-120800147D01*
X48573216Y-120701544D01*
X48737188Y-120633624D01*
X48886488Y-120603927D01*
X48911258Y-120599000D01*
X49088742Y-120599000D01*
X49113512Y-120603927D01*
G37*
G36*
X76113512Y-120103927D02*
G01*
X76262812Y-120133624D01*
X76426784Y-120201544D01*
X76574354Y-120300147D01*
X76699853Y-120425646D01*
X76798456Y-120573216D01*
X76866376Y-120737188D01*
X76901000Y-120911259D01*
X76901000Y-121088741D01*
X76866376Y-121262812D01*
X76798456Y-121426784D01*
X76699853Y-121574354D01*
X76574354Y-121699853D01*
X76426784Y-121798456D01*
X76262812Y-121866376D01*
X76113512Y-121896073D01*
X76088742Y-121901000D01*
X75911258Y-121901000D01*
X75886488Y-121896073D01*
X75737188Y-121866376D01*
X75573216Y-121798456D01*
X75425646Y-121699853D01*
X75300147Y-121574354D01*
X75201544Y-121426784D01*
X75133624Y-121262812D01*
X75099000Y-121088741D01*
X75099000Y-120911259D01*
X75133624Y-120737188D01*
X75201544Y-120573216D01*
X75300147Y-120425646D01*
X75425646Y-120300147D01*
X75573216Y-120201544D01*
X75737188Y-120133624D01*
X75886488Y-120103927D01*
X75911258Y-120099000D01*
X76088742Y-120099000D01*
X76113512Y-120103927D01*
G37*
G36*
X120055932Y-118515502D02*
G01*
X117486682Y-118927030D01*
X117154234Y-116851486D01*
X119723484Y-116439958D01*
X120055932Y-118515502D01*
G37*
G36*
X49806564Y-116689389D02*
G01*
X49997833Y-116768615D01*
X49997835Y-116768616D01*
X50121859Y-116851486D01*
X50169973Y-116883635D01*
X50316365Y-117030027D01*
X50431385Y-117202167D01*
X50510611Y-117393436D01*
X50551000Y-117596484D01*
X50551000Y-117803516D01*
X50510611Y-118006564D01*
X50431385Y-118197833D01*
X50431384Y-118197835D01*
X50316365Y-118369973D01*
X50169973Y-118516365D01*
X49997835Y-118631384D01*
X49997834Y-118631385D01*
X49997833Y-118631385D01*
X49806564Y-118710611D01*
X49603516Y-118751000D01*
X49396484Y-118751000D01*
X49193436Y-118710611D01*
X49002167Y-118631385D01*
X49002166Y-118631385D01*
X49002165Y-118631384D01*
X48830027Y-118516365D01*
X48683635Y-118369973D01*
X48568616Y-118197835D01*
X48568615Y-118197833D01*
X48489389Y-118006564D01*
X48449000Y-117803516D01*
X48449000Y-117596484D01*
X48489389Y-117393436D01*
X48568615Y-117202167D01*
X48683635Y-117030027D01*
X48830027Y-116883635D01*
X48878141Y-116851486D01*
X49002165Y-116768616D01*
X49002167Y-116768615D01*
X49193436Y-116689389D01*
X49396484Y-116649000D01*
X49603516Y-116649000D01*
X49806564Y-116689389D01*
G37*
G36*
X134551000Y-118551000D02*
G01*
X131949000Y-118551000D01*
X131949000Y-116449000D01*
X134551000Y-116449000D01*
X134551000Y-118551000D01*
G37*
G36*
X54806564Y-114589389D02*
G01*
X54997833Y-114668615D01*
X54997835Y-114668616D01*
X55169973Y-114783635D01*
X55316365Y-114930027D01*
X55431385Y-115102167D01*
X55510611Y-115293436D01*
X55551000Y-115496484D01*
X55551000Y-115703516D01*
X55510611Y-115906564D01*
X55431385Y-116097833D01*
X55431384Y-116097835D01*
X55316365Y-116269973D01*
X55169973Y-116416365D01*
X54997835Y-116531384D01*
X54997834Y-116531385D01*
X54997833Y-116531385D01*
X54806564Y-116610611D01*
X54603516Y-116651000D01*
X54396484Y-116651000D01*
X54193436Y-116610611D01*
X54002167Y-116531385D01*
X54002166Y-116531385D01*
X54002165Y-116531384D01*
X53830027Y-116416365D01*
X53683635Y-116269973D01*
X53568616Y-116097835D01*
X53568615Y-116097833D01*
X53489389Y-115906564D01*
X53449000Y-115703516D01*
X53449000Y-115496484D01*
X53489389Y-115293436D01*
X53568615Y-115102167D01*
X53683635Y-114930027D01*
X53830027Y-114783635D01*
X54002165Y-114668616D01*
X54002167Y-114668615D01*
X54193436Y-114589389D01*
X54396484Y-114549000D01*
X54603516Y-114549000D01*
X54806564Y-114589389D01*
G37*
G36*
X37051000Y-116551000D02*
G01*
X34949000Y-116551000D01*
X34949000Y-113949000D01*
X37051000Y-113949000D01*
X37051000Y-116551000D01*
G37*
G36*
X43051000Y-116551000D02*
G01*
X40949000Y-116551000D01*
X40949000Y-113949000D01*
X43051000Y-113949000D01*
X43051000Y-116551000D01*
G37*
G36*
X31051000Y-116551000D02*
G01*
X28949000Y-116551000D01*
X28949000Y-113949000D01*
X31051000Y-113949000D01*
X31051000Y-116551000D01*
G37*
G36*
X107551000Y-116301000D02*
G01*
X103449000Y-116301000D01*
X103449000Y-112199000D01*
X107551000Y-112199000D01*
X107551000Y-116301000D01*
G37*
G36*
X102551000Y-116301000D02*
G01*
X98449000Y-116301000D01*
X98449000Y-112199000D01*
X102551000Y-112199000D01*
X102551000Y-116301000D01*
G37*
G36*
X94551000Y-116301000D02*
G01*
X90449000Y-116301000D01*
X90449000Y-112199000D01*
X94551000Y-112199000D01*
X94551000Y-116301000D01*
G37*
G36*
X89551000Y-116301000D02*
G01*
X85449000Y-116301000D01*
X85449000Y-112199000D01*
X89551000Y-112199000D01*
X89551000Y-116301000D01*
G37*
G36*
X123897985Y-103293860D02*
G01*
X124010748Y-103316290D01*
X124142741Y-103370963D01*
X124329408Y-103448283D01*
X124616196Y-103639909D01*
X124860091Y-103883804D01*
X125051717Y-104170592D01*
X125183710Y-104489253D01*
X125251000Y-104827540D01*
X125251000Y-105172460D01*
X125183710Y-105510747D01*
X125051717Y-105829408D01*
X124934687Y-106004555D01*
X124923136Y-106026166D01*
X124916023Y-106049615D01*
X124913621Y-106074001D01*
X124916023Y-106098387D01*
X124923136Y-106121836D01*
X124934687Y-106143446D01*
X124950232Y-106162388D01*
X124969174Y-106177934D01*
X124990785Y-106189485D01*
X125014234Y-106196598D01*
X125038620Y-106199000D01*
X129051000Y-106199000D01*
X129051000Y-110301000D01*
X124949000Y-110301000D01*
X124949000Y-110275999D01*
X124946598Y-110251613D01*
X124939485Y-110228164D01*
X124927934Y-110206553D01*
X124912389Y-110187611D01*
X124893447Y-110172066D01*
X124871836Y-110160515D01*
X124848387Y-110153402D01*
X124824001Y-110151000D01*
X124649000Y-110151000D01*
X124649000Y-108849000D01*
X124824001Y-108849000D01*
X124848387Y-108846598D01*
X124871836Y-108839485D01*
X124893447Y-108827934D01*
X124912389Y-108812389D01*
X124927934Y-108793447D01*
X124939485Y-108771836D01*
X124946598Y-108748387D01*
X124949000Y-108724001D01*
X124949000Y-106329062D01*
X124946598Y-106304676D01*
X124939485Y-106281227D01*
X124927934Y-106259616D01*
X124912389Y-106240674D01*
X124893447Y-106225129D01*
X124871836Y-106213578D01*
X124848387Y-106206465D01*
X124824001Y-106204063D01*
X124799615Y-106206465D01*
X124776166Y-106213578D01*
X124754555Y-106225129D01*
X124735613Y-106240674D01*
X124616196Y-106360091D01*
X124329408Y-106551717D01*
X124142741Y-106629037D01*
X124010748Y-106683710D01*
X123897985Y-106706140D01*
X123672460Y-106751000D01*
X123327540Y-106751000D01*
X123102015Y-106706140D01*
X122989252Y-106683710D01*
X122857259Y-106629037D01*
X122670592Y-106551717D01*
X122383804Y-106360091D01*
X122139909Y-106116196D01*
X121948283Y-105829408D01*
X121816290Y-105510747D01*
X121749000Y-105172460D01*
X121749000Y-104827540D01*
X121816290Y-104489253D01*
X121948283Y-104170592D01*
X122139909Y-103883804D01*
X122383804Y-103639909D01*
X122670592Y-103448283D01*
X122857259Y-103370963D01*
X122989252Y-103316290D01*
X123102015Y-103293860D01*
X123327540Y-103249000D01*
X123672460Y-103249000D01*
X123897985Y-103293860D01*
G37*
G36*
X116051000Y-110301000D02*
G01*
X111949000Y-110301000D01*
X111949000Y-106199000D01*
X116051000Y-106199000D01*
X116051000Y-110301000D01*
G37*
G36*
X121051000Y-110301000D02*
G01*
X116949000Y-110301000D01*
X116949000Y-106199000D01*
X121051000Y-106199000D01*
X121051000Y-110301000D01*
G37*
G36*
X134051000Y-110301000D02*
G01*
X129949000Y-110301000D01*
X129949000Y-106199000D01*
X134051000Y-106199000D01*
X134051000Y-110301000D01*
G37*
G36*
X122351000Y-110151000D02*
G01*
X121349000Y-110151000D01*
X121349000Y-108849000D01*
X122351000Y-108849000D01*
X122351000Y-110151000D01*
G37*
G36*
X53651000Y-109651000D02*
G01*
X52649000Y-109651000D01*
X52649000Y-108349000D01*
X53651000Y-108349000D01*
X53651000Y-109651000D01*
G37*
G36*
X50351000Y-109651000D02*
G01*
X49349000Y-109651000D01*
X49349000Y-108349000D01*
X50351000Y-108349000D01*
X50351000Y-109651000D01*
G37*
G36*
X32351000Y-109651000D02*
G01*
X31349000Y-109651000D01*
X31349000Y-108349000D01*
X32351000Y-108349000D01*
X32351000Y-109651000D01*
G37*
G36*
X35651000Y-109651000D02*
G01*
X34649000Y-109651000D01*
X34649000Y-108349000D01*
X35651000Y-108349000D01*
X35651000Y-109651000D01*
G37*
G36*
X71651000Y-106651000D02*
G01*
X70649000Y-106651000D01*
X70649000Y-105349000D01*
X71651000Y-105349000D01*
X71651000Y-106651000D01*
G37*
G36*
X68351000Y-106651000D02*
G01*
X67349000Y-106651000D01*
X67349000Y-105349000D01*
X68351000Y-105349000D01*
X68351000Y-106651000D01*
G37*
G36*
X107651000Y-106651000D02*
G01*
X106649000Y-106651000D01*
X106649000Y-105349000D01*
X107651000Y-105349000D01*
X107651000Y-106651000D01*
G37*
G36*
X104351000Y-106651000D02*
G01*
X103349000Y-106651000D01*
X103349000Y-105349000D01*
X104351000Y-105349000D01*
X104351000Y-106651000D01*
G37*
G36*
X33897985Y-102793860D02*
G01*
X34010748Y-102816290D01*
X34116490Y-102860090D01*
X34329408Y-102948283D01*
X34616196Y-103139909D01*
X34860091Y-103383804D01*
X35051717Y-103670592D01*
X35183710Y-103989253D01*
X35251000Y-104327540D01*
X35251000Y-104672460D01*
X35183710Y-105010747D01*
X35051717Y-105329408D01*
X34860091Y-105616196D01*
X34616196Y-105860091D01*
X34329408Y-106051717D01*
X34160125Y-106121836D01*
X34010748Y-106183710D01*
X33933880Y-106199000D01*
X33672460Y-106251000D01*
X33327540Y-106251000D01*
X33066120Y-106199000D01*
X32989252Y-106183710D01*
X32839875Y-106121836D01*
X32670592Y-106051717D01*
X32383804Y-105860091D01*
X32139909Y-105616196D01*
X31948283Y-105329408D01*
X31816290Y-105010747D01*
X31749000Y-104672460D01*
X31749000Y-104327540D01*
X31816290Y-103989253D01*
X31948283Y-103670592D01*
X32139909Y-103383804D01*
X32383804Y-103139909D01*
X32670592Y-102948283D01*
X32883510Y-102860090D01*
X32989252Y-102816290D01*
X33102015Y-102793860D01*
X33327540Y-102749000D01*
X33672460Y-102749000D01*
X33897985Y-102793860D01*
G37*
G36*
X51897985Y-102793860D02*
G01*
X52010748Y-102816290D01*
X52116490Y-102860090D01*
X52329408Y-102948283D01*
X52616196Y-103139909D01*
X52860091Y-103383804D01*
X53051717Y-103670592D01*
X53183710Y-103989253D01*
X53251000Y-104327540D01*
X53251000Y-104672460D01*
X53183710Y-105010747D01*
X53051717Y-105329408D01*
X52860091Y-105616196D01*
X52616196Y-105860091D01*
X52329408Y-106051717D01*
X52160125Y-106121836D01*
X52010748Y-106183710D01*
X51933880Y-106199000D01*
X51672460Y-106251000D01*
X51327540Y-106251000D01*
X51066120Y-106199000D01*
X50989252Y-106183710D01*
X50839875Y-106121836D01*
X50670592Y-106051717D01*
X50383804Y-105860091D01*
X50139909Y-105616196D01*
X49948283Y-105329408D01*
X49816290Y-105010747D01*
X49749000Y-104672460D01*
X49749000Y-104327540D01*
X49816290Y-103989253D01*
X49948283Y-103670592D01*
X50139909Y-103383804D01*
X50383804Y-103139909D01*
X50670592Y-102948283D01*
X50883510Y-102860090D01*
X50989252Y-102816290D01*
X51102015Y-102793860D01*
X51327540Y-102749000D01*
X51672460Y-102749000D01*
X51897985Y-102793860D01*
G37*
G36*
X118113512Y-104103927D02*
G01*
X118262812Y-104133624D01*
X118426784Y-104201544D01*
X118574354Y-104300147D01*
X118699853Y-104425646D01*
X118798456Y-104573216D01*
X118866376Y-104737188D01*
X118901000Y-104911259D01*
X118901000Y-105088741D01*
X118866376Y-105262812D01*
X118798456Y-105426784D01*
X118699853Y-105574354D01*
X118574354Y-105699853D01*
X118426784Y-105798456D01*
X118262812Y-105866376D01*
X118113512Y-105896073D01*
X118088742Y-105901000D01*
X117911258Y-105901000D01*
X117886488Y-105896073D01*
X117737188Y-105866376D01*
X117573216Y-105798456D01*
X117425646Y-105699853D01*
X117300147Y-105574354D01*
X117201544Y-105426784D01*
X117133624Y-105262812D01*
X117099000Y-105088741D01*
X117099000Y-104911259D01*
X117133624Y-104737188D01*
X117201544Y-104573216D01*
X117300147Y-104425646D01*
X117425646Y-104300147D01*
X117573216Y-104201544D01*
X117737188Y-104133624D01*
X117886488Y-104103927D01*
X117911258Y-104099000D01*
X118088742Y-104099000D01*
X118113512Y-104103927D01*
G37*
G36*
X129113512Y-104103927D02*
G01*
X129262812Y-104133624D01*
X129426784Y-104201544D01*
X129574354Y-104300147D01*
X129699853Y-104425646D01*
X129798456Y-104573216D01*
X129866376Y-104737188D01*
X129901000Y-104911259D01*
X129901000Y-105088741D01*
X129866376Y-105262812D01*
X129798456Y-105426784D01*
X129699853Y-105574354D01*
X129574354Y-105699853D01*
X129426784Y-105798456D01*
X129262812Y-105866376D01*
X129113512Y-105896073D01*
X129088742Y-105901000D01*
X128911258Y-105901000D01*
X128886488Y-105896073D01*
X128737188Y-105866376D01*
X128573216Y-105798456D01*
X128425646Y-105699853D01*
X128300147Y-105574354D01*
X128201544Y-105426784D01*
X128133624Y-105262812D01*
X128099000Y-105088741D01*
X128099000Y-104911259D01*
X128133624Y-104737188D01*
X128201544Y-104573216D01*
X128300147Y-104425646D01*
X128425646Y-104300147D01*
X128573216Y-104201544D01*
X128737188Y-104133624D01*
X128886488Y-104103927D01*
X128911258Y-104099000D01*
X129088742Y-104099000D01*
X129113512Y-104103927D01*
G37*
G36*
X46113512Y-103603927D02*
G01*
X46262812Y-103633624D01*
X46426784Y-103701544D01*
X46574354Y-103800147D01*
X46699853Y-103925646D01*
X46798456Y-104073216D01*
X46866376Y-104237188D01*
X46901000Y-104411259D01*
X46901000Y-104588741D01*
X46866376Y-104762812D01*
X46798456Y-104926784D01*
X46699853Y-105074354D01*
X46574354Y-105199853D01*
X46426784Y-105298456D01*
X46262812Y-105366376D01*
X46113512Y-105396073D01*
X46088742Y-105401000D01*
X45911258Y-105401000D01*
X45886488Y-105396073D01*
X45737188Y-105366376D01*
X45573216Y-105298456D01*
X45425646Y-105199853D01*
X45300147Y-105074354D01*
X45201544Y-104926784D01*
X45133624Y-104762812D01*
X45099000Y-104588741D01*
X45099000Y-104411259D01*
X45133624Y-104237188D01*
X45201544Y-104073216D01*
X45300147Y-103925646D01*
X45425646Y-103800147D01*
X45573216Y-103701544D01*
X45737188Y-103633624D01*
X45886488Y-103603927D01*
X45911258Y-103599000D01*
X46088742Y-103599000D01*
X46113512Y-103603927D01*
G37*
G36*
X57113512Y-103603927D02*
G01*
X57262812Y-103633624D01*
X57426784Y-103701544D01*
X57574354Y-103800147D01*
X57699853Y-103925646D01*
X57798456Y-104073216D01*
X57866376Y-104237188D01*
X57901000Y-104411259D01*
X57901000Y-104588741D01*
X57866376Y-104762812D01*
X57798456Y-104926784D01*
X57699853Y-105074354D01*
X57574354Y-105199853D01*
X57426784Y-105298456D01*
X57262812Y-105366376D01*
X57113512Y-105396073D01*
X57088742Y-105401000D01*
X56911258Y-105401000D01*
X56886488Y-105396073D01*
X56737188Y-105366376D01*
X56573216Y-105298456D01*
X56425646Y-105199853D01*
X56300147Y-105074354D01*
X56201544Y-104926784D01*
X56133624Y-104762812D01*
X56099000Y-104588741D01*
X56099000Y-104411259D01*
X56133624Y-104237188D01*
X56201544Y-104073216D01*
X56300147Y-103925646D01*
X56425646Y-103800147D01*
X56573216Y-103701544D01*
X56737188Y-103633624D01*
X56886488Y-103603927D01*
X56911258Y-103599000D01*
X57088742Y-103599000D01*
X57113512Y-103603927D01*
G37*
G36*
X39113512Y-103603927D02*
G01*
X39262812Y-103633624D01*
X39426784Y-103701544D01*
X39574354Y-103800147D01*
X39699853Y-103925646D01*
X39798456Y-104073216D01*
X39866376Y-104237188D01*
X39901000Y-104411259D01*
X39901000Y-104588741D01*
X39866376Y-104762812D01*
X39798456Y-104926784D01*
X39699853Y-105074354D01*
X39574354Y-105199853D01*
X39426784Y-105298456D01*
X39262812Y-105366376D01*
X39113512Y-105396073D01*
X39088742Y-105401000D01*
X38911258Y-105401000D01*
X38886488Y-105396073D01*
X38737188Y-105366376D01*
X38573216Y-105298456D01*
X38425646Y-105199853D01*
X38300147Y-105074354D01*
X38201544Y-104926784D01*
X38133624Y-104762812D01*
X38099000Y-104588741D01*
X38099000Y-104411259D01*
X38133624Y-104237188D01*
X38201544Y-104073216D01*
X38300147Y-103925646D01*
X38425646Y-103800147D01*
X38573216Y-103701544D01*
X38737188Y-103633624D01*
X38886488Y-103603927D01*
X38911258Y-103599000D01*
X39088742Y-103599000D01*
X39113512Y-103603927D01*
G37*
G36*
X28113512Y-103603927D02*
G01*
X28262812Y-103633624D01*
X28426784Y-103701544D01*
X28574354Y-103800147D01*
X28699853Y-103925646D01*
X28798456Y-104073216D01*
X28866376Y-104237188D01*
X28901000Y-104411259D01*
X28901000Y-104588741D01*
X28866376Y-104762812D01*
X28798456Y-104926784D01*
X28699853Y-105074354D01*
X28574354Y-105199853D01*
X28426784Y-105298456D01*
X28262812Y-105366376D01*
X28113512Y-105396073D01*
X28088742Y-105401000D01*
X27911258Y-105401000D01*
X27886488Y-105396073D01*
X27737188Y-105366376D01*
X27573216Y-105298456D01*
X27425646Y-105199853D01*
X27300147Y-105074354D01*
X27201544Y-104926784D01*
X27133624Y-104762812D01*
X27099000Y-104588741D01*
X27099000Y-104411259D01*
X27133624Y-104237188D01*
X27201544Y-104073216D01*
X27300147Y-103925646D01*
X27425646Y-103800147D01*
X27573216Y-103701544D01*
X27737188Y-103633624D01*
X27886488Y-103603927D01*
X27911258Y-103599000D01*
X28088742Y-103599000D01*
X28113512Y-103603927D01*
G37*
G36*
X69897985Y-99793860D02*
G01*
X70010748Y-99816290D01*
X70142741Y-99870963D01*
X70329408Y-99948283D01*
X70616196Y-100139909D01*
X70860091Y-100383804D01*
X71051717Y-100670592D01*
X71129037Y-100857259D01*
X71183710Y-100989252D01*
X71187154Y-101006565D01*
X71251000Y-101327540D01*
X71251000Y-101672460D01*
X71183710Y-102010747D01*
X71051717Y-102329408D01*
X70860091Y-102616196D01*
X70616196Y-102860091D01*
X70329408Y-103051717D01*
X70142741Y-103129037D01*
X70010748Y-103183710D01*
X69897985Y-103206140D01*
X69672460Y-103251000D01*
X69327540Y-103251000D01*
X69102015Y-103206140D01*
X68989252Y-103183710D01*
X68857259Y-103129037D01*
X68670592Y-103051717D01*
X68383804Y-102860091D01*
X68139909Y-102616196D01*
X67948283Y-102329408D01*
X67816290Y-102010747D01*
X67749000Y-101672460D01*
X67749000Y-101327540D01*
X67812846Y-101006565D01*
X67816290Y-100989252D01*
X67870963Y-100857259D01*
X67948283Y-100670592D01*
X68139909Y-100383804D01*
X68383804Y-100139909D01*
X68670592Y-99948283D01*
X68857259Y-99870963D01*
X68989252Y-99816290D01*
X69102015Y-99793860D01*
X69327540Y-99749000D01*
X69672460Y-99749000D01*
X69897985Y-99793860D01*
G37*
G36*
X105897985Y-99793860D02*
G01*
X106010748Y-99816290D01*
X106142741Y-99870963D01*
X106329408Y-99948283D01*
X106616196Y-100139909D01*
X106860091Y-100383804D01*
X107051717Y-100670592D01*
X107129037Y-100857259D01*
X107183710Y-100989252D01*
X107187154Y-101006565D01*
X107251000Y-101327540D01*
X107251000Y-101672460D01*
X107183710Y-102010747D01*
X107051717Y-102329408D01*
X106860091Y-102616196D01*
X106616196Y-102860091D01*
X106329408Y-103051717D01*
X106142741Y-103129037D01*
X106010748Y-103183710D01*
X105897985Y-103206140D01*
X105672460Y-103251000D01*
X105327540Y-103251000D01*
X105102015Y-103206140D01*
X104989252Y-103183710D01*
X104857259Y-103129037D01*
X104670592Y-103051717D01*
X104383804Y-102860091D01*
X104139909Y-102616196D01*
X103948283Y-102329408D01*
X103816290Y-102010747D01*
X103749000Y-101672460D01*
X103749000Y-101327540D01*
X103812846Y-101006565D01*
X103816290Y-100989252D01*
X103870963Y-100857259D01*
X103948283Y-100670592D01*
X104139909Y-100383804D01*
X104383804Y-100139909D01*
X104670592Y-99948283D01*
X104857259Y-99870963D01*
X104989252Y-99816290D01*
X105102015Y-99793860D01*
X105327540Y-99749000D01*
X105672460Y-99749000D01*
X105897985Y-99793860D01*
G37*
G36*
X111113512Y-100603927D02*
G01*
X111262812Y-100633624D01*
X111426784Y-100701544D01*
X111574354Y-100800147D01*
X111699853Y-100925646D01*
X111798456Y-101073216D01*
X111866376Y-101237188D01*
X111901000Y-101411259D01*
X111901000Y-101588741D01*
X111866376Y-101762812D01*
X111798456Y-101926784D01*
X111699853Y-102074354D01*
X111574354Y-102199853D01*
X111426784Y-102298456D01*
X111262812Y-102366376D01*
X111113512Y-102396073D01*
X111088742Y-102401000D01*
X110911258Y-102401000D01*
X110886488Y-102396073D01*
X110737188Y-102366376D01*
X110573216Y-102298456D01*
X110425646Y-102199853D01*
X110300147Y-102074354D01*
X110201544Y-101926784D01*
X110133624Y-101762812D01*
X110099000Y-101588741D01*
X110099000Y-101411259D01*
X110133624Y-101237188D01*
X110201544Y-101073216D01*
X110300147Y-100925646D01*
X110425646Y-100800147D01*
X110573216Y-100701544D01*
X110737188Y-100633624D01*
X110886488Y-100603927D01*
X110911258Y-100599000D01*
X111088742Y-100599000D01*
X111113512Y-100603927D01*
G37*
G36*
X64113512Y-100603927D02*
G01*
X64262812Y-100633624D01*
X64426784Y-100701544D01*
X64574354Y-100800147D01*
X64699853Y-100925646D01*
X64798456Y-101073216D01*
X64866376Y-101237188D01*
X64901000Y-101411259D01*
X64901000Y-101588741D01*
X64866376Y-101762812D01*
X64798456Y-101926784D01*
X64699853Y-102074354D01*
X64574354Y-102199853D01*
X64426784Y-102298456D01*
X64262812Y-102366376D01*
X64113512Y-102396073D01*
X64088742Y-102401000D01*
X63911258Y-102401000D01*
X63886488Y-102396073D01*
X63737188Y-102366376D01*
X63573216Y-102298456D01*
X63425646Y-102199853D01*
X63300147Y-102074354D01*
X63201544Y-101926784D01*
X63133624Y-101762812D01*
X63099000Y-101588741D01*
X63099000Y-101411259D01*
X63133624Y-101237188D01*
X63201544Y-101073216D01*
X63300147Y-100925646D01*
X63425646Y-100800147D01*
X63573216Y-100701544D01*
X63737188Y-100633624D01*
X63886488Y-100603927D01*
X63911258Y-100599000D01*
X64088742Y-100599000D01*
X64113512Y-100603927D01*
G37*
G36*
X75113512Y-100603927D02*
G01*
X75262812Y-100633624D01*
X75426784Y-100701544D01*
X75574354Y-100800147D01*
X75699853Y-100925646D01*
X75798456Y-101073216D01*
X75866376Y-101237188D01*
X75901000Y-101411259D01*
X75901000Y-101588741D01*
X75866376Y-101762812D01*
X75798456Y-101926784D01*
X75699853Y-102074354D01*
X75574354Y-102199853D01*
X75426784Y-102298456D01*
X75262812Y-102366376D01*
X75113512Y-102396073D01*
X75088742Y-102401000D01*
X74911258Y-102401000D01*
X74886488Y-102396073D01*
X74737188Y-102366376D01*
X74573216Y-102298456D01*
X74425646Y-102199853D01*
X74300147Y-102074354D01*
X74201544Y-101926784D01*
X74133624Y-101762812D01*
X74099000Y-101588741D01*
X74099000Y-101411259D01*
X74133624Y-101237188D01*
X74201544Y-101073216D01*
X74300147Y-100925646D01*
X74425646Y-100800147D01*
X74573216Y-100701544D01*
X74737188Y-100633624D01*
X74886488Y-100603927D01*
X74911258Y-100599000D01*
X75088742Y-100599000D01*
X75113512Y-100603927D01*
G37*
G36*
X100113512Y-100603927D02*
G01*
X100262812Y-100633624D01*
X100426784Y-100701544D01*
X100574354Y-100800147D01*
X100699853Y-100925646D01*
X100798456Y-101073216D01*
X100866376Y-101237188D01*
X100901000Y-101411259D01*
X100901000Y-101588741D01*
X100866376Y-101762812D01*
X100798456Y-101926784D01*
X100699853Y-102074354D01*
X100574354Y-102199853D01*
X100426784Y-102298456D01*
X100262812Y-102366376D01*
X100113512Y-102396073D01*
X100088742Y-102401000D01*
X99911258Y-102401000D01*
X99886488Y-102396073D01*
X99737188Y-102366376D01*
X99573216Y-102298456D01*
X99425646Y-102199853D01*
X99300147Y-102074354D01*
X99201544Y-101926784D01*
X99133624Y-101762812D01*
X99099000Y-101588741D01*
X99099000Y-101411259D01*
X99133624Y-101237188D01*
X99201544Y-101073216D01*
X99300147Y-100925646D01*
X99425646Y-100800147D01*
X99573216Y-100701544D01*
X99737188Y-100633624D01*
X99886488Y-100603927D01*
X99911258Y-100599000D01*
X100088742Y-100599000D01*
X100113512Y-100603927D01*
G37*
G36*
X118806564Y-100189389D02*
G01*
X118997833Y-100268615D01*
X118997835Y-100268616D01*
X119169973Y-100383635D01*
X119316365Y-100530027D01*
X119410288Y-100670592D01*
X119431385Y-100702167D01*
X119510611Y-100893436D01*
X119551000Y-101096484D01*
X119551000Y-101303516D01*
X119510611Y-101506564D01*
X119441895Y-101672460D01*
X119431384Y-101697835D01*
X119316365Y-101869973D01*
X119169973Y-102016365D01*
X118997835Y-102131384D01*
X118997834Y-102131385D01*
X118997833Y-102131385D01*
X118806564Y-102210611D01*
X118603516Y-102251000D01*
X118396484Y-102251000D01*
X118193436Y-102210611D01*
X118002167Y-102131385D01*
X118002166Y-102131385D01*
X118002165Y-102131384D01*
X117830027Y-102016365D01*
X117683635Y-101869973D01*
X117568616Y-101697835D01*
X117558105Y-101672460D01*
X117489389Y-101506564D01*
X117449000Y-101303516D01*
X117449000Y-101096484D01*
X117489389Y-100893436D01*
X117568615Y-100702167D01*
X117589713Y-100670592D01*
X117683635Y-100530027D01*
X117830027Y-100383635D01*
X118002165Y-100268616D01*
X118002167Y-100268615D01*
X118193436Y-100189389D01*
X118396484Y-100149000D01*
X118603516Y-100149000D01*
X118806564Y-100189389D01*
G37*
G36*
X46806564Y-99689389D02*
G01*
X46997833Y-99768615D01*
X46997835Y-99768616D01*
X47169973Y-99883635D01*
X47316365Y-100030027D01*
X47397197Y-100151000D01*
X47431385Y-100202167D01*
X47510611Y-100393436D01*
X47551000Y-100596484D01*
X47551000Y-100803516D01*
X47510611Y-101006564D01*
X47483002Y-101073218D01*
X47431384Y-101197835D01*
X47316365Y-101369973D01*
X47169973Y-101516365D01*
X46997835Y-101631384D01*
X46997834Y-101631385D01*
X46997833Y-101631385D01*
X46806564Y-101710611D01*
X46603516Y-101751000D01*
X46396484Y-101751000D01*
X46193436Y-101710611D01*
X46002167Y-101631385D01*
X46002166Y-101631385D01*
X46002165Y-101631384D01*
X45830027Y-101516365D01*
X45683635Y-101369973D01*
X45568616Y-101197835D01*
X45516998Y-101073218D01*
X45489389Y-101006564D01*
X45449000Y-100803516D01*
X45449000Y-100596484D01*
X45489389Y-100393436D01*
X45568615Y-100202167D01*
X45602804Y-100151000D01*
X45683635Y-100030027D01*
X45830027Y-99883635D01*
X46002165Y-99768616D01*
X46002167Y-99768615D01*
X46193436Y-99689389D01*
X46396484Y-99649000D01*
X46603516Y-99649000D01*
X46806564Y-99689389D01*
G37*
G36*
X28806564Y-99689389D02*
G01*
X28997833Y-99768615D01*
X28997835Y-99768616D01*
X29169973Y-99883635D01*
X29316365Y-100030027D01*
X29397197Y-100151000D01*
X29431385Y-100202167D01*
X29510611Y-100393436D01*
X29551000Y-100596484D01*
X29551000Y-100803516D01*
X29510611Y-101006564D01*
X29483002Y-101073218D01*
X29431384Y-101197835D01*
X29316365Y-101369973D01*
X29169973Y-101516365D01*
X28997835Y-101631384D01*
X28997834Y-101631385D01*
X28997833Y-101631385D01*
X28806564Y-101710611D01*
X28603516Y-101751000D01*
X28396484Y-101751000D01*
X28193436Y-101710611D01*
X28002167Y-101631385D01*
X28002166Y-101631385D01*
X28002165Y-101631384D01*
X27830027Y-101516365D01*
X27683635Y-101369973D01*
X27568616Y-101197835D01*
X27516998Y-101073218D01*
X27489389Y-101006564D01*
X27449000Y-100803516D01*
X27449000Y-100596484D01*
X27489389Y-100393436D01*
X27568615Y-100202167D01*
X27602804Y-100151000D01*
X27683635Y-100030027D01*
X27830027Y-99883635D01*
X28002165Y-99768616D01*
X28002167Y-99768615D01*
X28193436Y-99689389D01*
X28396484Y-99649000D01*
X28603516Y-99649000D01*
X28806564Y-99689389D01*
G37*
G36*
X89651000Y-101651000D02*
G01*
X88649000Y-101651000D01*
X88649000Y-100349000D01*
X89651000Y-100349000D01*
X89651000Y-101651000D01*
G37*
G36*
X86351000Y-101651000D02*
G01*
X85349000Y-101651000D01*
X85349000Y-100349000D01*
X86351000Y-100349000D01*
X86351000Y-101651000D01*
G37*
G36*
X123806564Y-98089389D02*
G01*
X123997833Y-98168615D01*
X123997835Y-98168616D01*
X124169973Y-98283635D01*
X124316365Y-98430027D01*
X124360772Y-98496486D01*
X124431385Y-98602167D01*
X124510611Y-98793436D01*
X124551000Y-98996484D01*
X124551000Y-99203516D01*
X124510611Y-99406564D01*
X124431385Y-99597833D01*
X124431384Y-99597835D01*
X124316365Y-99769973D01*
X124169973Y-99916365D01*
X123997835Y-100031384D01*
X123997834Y-100031385D01*
X123997833Y-100031385D01*
X123806564Y-100110611D01*
X123603516Y-100151000D01*
X123396484Y-100151000D01*
X123193436Y-100110611D01*
X123002167Y-100031385D01*
X123002166Y-100031385D01*
X123002165Y-100031384D01*
X122830027Y-99916365D01*
X122683635Y-99769973D01*
X122568616Y-99597835D01*
X122568615Y-99597833D01*
X122489389Y-99406564D01*
X122449000Y-99203516D01*
X122449000Y-98996484D01*
X122489389Y-98793436D01*
X122568615Y-98602167D01*
X122639229Y-98496486D01*
X122683635Y-98430027D01*
X122830027Y-98283635D01*
X123002165Y-98168616D01*
X123002167Y-98168615D01*
X123193436Y-98089389D01*
X123396484Y-98049000D01*
X123603516Y-98049000D01*
X123806564Y-98089389D01*
G37*
G36*
X51806564Y-97589389D02*
G01*
X51997833Y-97668615D01*
X51997835Y-97668616D01*
X52169973Y-97783635D01*
X52316365Y-97930027D01*
X52397676Y-98051717D01*
X52431385Y-98102167D01*
X52510611Y-98293436D01*
X52551000Y-98496484D01*
X52551000Y-98703516D01*
X52510611Y-98906564D01*
X52473365Y-98996484D01*
X52431384Y-99097835D01*
X52316365Y-99269973D01*
X52169973Y-99416365D01*
X51997835Y-99531384D01*
X51997834Y-99531385D01*
X51997833Y-99531385D01*
X51806564Y-99610611D01*
X51603516Y-99651000D01*
X51396484Y-99651000D01*
X51193436Y-99610611D01*
X51002167Y-99531385D01*
X51002166Y-99531385D01*
X51002165Y-99531384D01*
X50830027Y-99416365D01*
X50683635Y-99269973D01*
X50568616Y-99097835D01*
X50526635Y-98996484D01*
X50489389Y-98906564D01*
X50449000Y-98703516D01*
X50449000Y-98496484D01*
X50489389Y-98293436D01*
X50568615Y-98102167D01*
X50602325Y-98051717D01*
X50683635Y-97930027D01*
X50830027Y-97783635D01*
X51002165Y-97668616D01*
X51002167Y-97668615D01*
X51193436Y-97589389D01*
X51396484Y-97549000D01*
X51603516Y-97549000D01*
X51806564Y-97589389D01*
G37*
G36*
X33806564Y-97589389D02*
G01*
X33997833Y-97668615D01*
X33997835Y-97668616D01*
X34169973Y-97783635D01*
X34316365Y-97930027D01*
X34397676Y-98051717D01*
X34431385Y-98102167D01*
X34510611Y-98293436D01*
X34551000Y-98496484D01*
X34551000Y-98703516D01*
X34510611Y-98906564D01*
X34473365Y-98996484D01*
X34431384Y-99097835D01*
X34316365Y-99269973D01*
X34169973Y-99416365D01*
X33997835Y-99531384D01*
X33997834Y-99531385D01*
X33997833Y-99531385D01*
X33806564Y-99610611D01*
X33603516Y-99651000D01*
X33396484Y-99651000D01*
X33193436Y-99610611D01*
X33002167Y-99531385D01*
X33002166Y-99531385D01*
X33002165Y-99531384D01*
X32830027Y-99416365D01*
X32683635Y-99269973D01*
X32568616Y-99097835D01*
X32526635Y-98996484D01*
X32489389Y-98906564D01*
X32449000Y-98703516D01*
X32449000Y-98496484D01*
X32489389Y-98293436D01*
X32568615Y-98102167D01*
X32602325Y-98051717D01*
X32683635Y-97930027D01*
X32830027Y-97783635D01*
X33002165Y-97668616D01*
X33002167Y-97668615D01*
X33193436Y-97589389D01*
X33396484Y-97549000D01*
X33603516Y-97549000D01*
X33806564Y-97589389D01*
G37*
G36*
X64806564Y-96689389D02*
G01*
X64983823Y-96762812D01*
X64997835Y-96768616D01*
X65169973Y-96883635D01*
X65316365Y-97030027D01*
X65429839Y-97199852D01*
X65431385Y-97202167D01*
X65510611Y-97393436D01*
X65551000Y-97596484D01*
X65551000Y-97803516D01*
X65510611Y-98006564D01*
X65471011Y-98102167D01*
X65431384Y-98197835D01*
X65316365Y-98369973D01*
X65169973Y-98516365D01*
X64997835Y-98631384D01*
X64997834Y-98631385D01*
X64997833Y-98631385D01*
X64806564Y-98710611D01*
X64603516Y-98751000D01*
X64396484Y-98751000D01*
X64193436Y-98710611D01*
X64002167Y-98631385D01*
X64002166Y-98631385D01*
X64002165Y-98631384D01*
X63830027Y-98516365D01*
X63683635Y-98369973D01*
X63568616Y-98197835D01*
X63528989Y-98102167D01*
X63489389Y-98006564D01*
X63449000Y-97803516D01*
X63449000Y-97596484D01*
X63489389Y-97393436D01*
X63568615Y-97202167D01*
X63570162Y-97199852D01*
X63683635Y-97030027D01*
X63830027Y-96883635D01*
X64002165Y-96768616D01*
X64016177Y-96762812D01*
X64193436Y-96689389D01*
X64396484Y-96649000D01*
X64603516Y-96649000D01*
X64806564Y-96689389D01*
G37*
G36*
X100806564Y-96689389D02*
G01*
X100983823Y-96762812D01*
X100997835Y-96768616D01*
X101169973Y-96883635D01*
X101316365Y-97030027D01*
X101429839Y-97199852D01*
X101431385Y-97202167D01*
X101510611Y-97393436D01*
X101551000Y-97596484D01*
X101551000Y-97803516D01*
X101510611Y-98006564D01*
X101471011Y-98102167D01*
X101431384Y-98197835D01*
X101316365Y-98369973D01*
X101169973Y-98516365D01*
X100997835Y-98631384D01*
X100997834Y-98631385D01*
X100997833Y-98631385D01*
X100806564Y-98710611D01*
X100603516Y-98751000D01*
X100396484Y-98751000D01*
X100193436Y-98710611D01*
X100002167Y-98631385D01*
X100002166Y-98631385D01*
X100002165Y-98631384D01*
X99830027Y-98516365D01*
X99683635Y-98369973D01*
X99568616Y-98197835D01*
X99528989Y-98102167D01*
X99489389Y-98006564D01*
X99449000Y-97803516D01*
X99449000Y-97596484D01*
X99489389Y-97393436D01*
X99568615Y-97202167D01*
X99570162Y-97199852D01*
X99683635Y-97030027D01*
X99830027Y-96883635D01*
X100002165Y-96768616D01*
X100016177Y-96762812D01*
X100193436Y-96689389D01*
X100396484Y-96649000D01*
X100603516Y-96649000D01*
X100806564Y-96689389D01*
G37*
G36*
X87897985Y-94793860D02*
G01*
X88010748Y-94816290D01*
X88142741Y-94870963D01*
X88329408Y-94948283D01*
X88616196Y-95139909D01*
X88860091Y-95383804D01*
X89051717Y-95670592D01*
X89183710Y-95989253D01*
X89251000Y-96327540D01*
X89251000Y-96672460D01*
X89183710Y-97010747D01*
X89051717Y-97329408D01*
X88860091Y-97616196D01*
X88616196Y-97860091D01*
X88329408Y-98051717D01*
X88207615Y-98102165D01*
X88010748Y-98183710D01*
X87897985Y-98206140D01*
X87672460Y-98251000D01*
X87327540Y-98251000D01*
X87102015Y-98206140D01*
X86989252Y-98183710D01*
X86792385Y-98102165D01*
X86670592Y-98051717D01*
X86383804Y-97860091D01*
X86139909Y-97616196D01*
X85948283Y-97329408D01*
X85816290Y-97010747D01*
X85749000Y-96672460D01*
X85749000Y-96327540D01*
X85816290Y-95989253D01*
X85948283Y-95670592D01*
X86139909Y-95383804D01*
X86383804Y-95139909D01*
X86670592Y-94948283D01*
X86857259Y-94870963D01*
X86989252Y-94816290D01*
X87102015Y-94793860D01*
X87327540Y-94749000D01*
X87672460Y-94749000D01*
X87897985Y-94793860D01*
G37*
G36*
X93113512Y-95603927D02*
G01*
X93262812Y-95633624D01*
X93426784Y-95701544D01*
X93574354Y-95800147D01*
X93699853Y-95925646D01*
X93798456Y-96073216D01*
X93866376Y-96237188D01*
X93901000Y-96411259D01*
X93901000Y-96588741D01*
X93866376Y-96762812D01*
X93798456Y-96926784D01*
X93699853Y-97074354D01*
X93574354Y-97199853D01*
X93426784Y-97298456D01*
X93262812Y-97366376D01*
X93113512Y-97396073D01*
X93088742Y-97401000D01*
X92911258Y-97401000D01*
X92886488Y-97396073D01*
X92737188Y-97366376D01*
X92573216Y-97298456D01*
X92425646Y-97199853D01*
X92300147Y-97074354D01*
X92201544Y-96926784D01*
X92133624Y-96762812D01*
X92099000Y-96588741D01*
X92099000Y-96411259D01*
X92133624Y-96237188D01*
X92201544Y-96073216D01*
X92300147Y-95925646D01*
X92425646Y-95800147D01*
X92573216Y-95701544D01*
X92737188Y-95633624D01*
X92886488Y-95603927D01*
X92911258Y-95599000D01*
X93088742Y-95599000D01*
X93113512Y-95603927D01*
G37*
G36*
X82113512Y-95603927D02*
G01*
X82262812Y-95633624D01*
X82426784Y-95701544D01*
X82574354Y-95800147D01*
X82699853Y-95925646D01*
X82798456Y-96073216D01*
X82866376Y-96237188D01*
X82901000Y-96411259D01*
X82901000Y-96588741D01*
X82866376Y-96762812D01*
X82798456Y-96926784D01*
X82699853Y-97074354D01*
X82574354Y-97199853D01*
X82426784Y-97298456D01*
X82262812Y-97366376D01*
X82113512Y-97396073D01*
X82088742Y-97401000D01*
X81911258Y-97401000D01*
X81886488Y-97396073D01*
X81737188Y-97366376D01*
X81573216Y-97298456D01*
X81425646Y-97199853D01*
X81300147Y-97074354D01*
X81201544Y-96926784D01*
X81133624Y-96762812D01*
X81099000Y-96588741D01*
X81099000Y-96411259D01*
X81133624Y-96237188D01*
X81201544Y-96073216D01*
X81300147Y-95925646D01*
X81425646Y-95800147D01*
X81573216Y-95701544D01*
X81737188Y-95633624D01*
X81886488Y-95603927D01*
X81911258Y-95599000D01*
X82088742Y-95599000D01*
X82113512Y-95603927D01*
G37*
G36*
X69806564Y-94589389D02*
G01*
X69997833Y-94668615D01*
X69997835Y-94668616D01*
X70118138Y-94749000D01*
X70169973Y-94783635D01*
X70316365Y-94930027D01*
X70431385Y-95102167D01*
X70510611Y-95293436D01*
X70551000Y-95496484D01*
X70551000Y-95703516D01*
X70510611Y-95906564D01*
X70441581Y-96073218D01*
X70431384Y-96097835D01*
X70316365Y-96269973D01*
X70169973Y-96416365D01*
X69997835Y-96531384D01*
X69997834Y-96531385D01*
X69997833Y-96531385D01*
X69806564Y-96610611D01*
X69603516Y-96651000D01*
X69396484Y-96651000D01*
X69193436Y-96610611D01*
X69002167Y-96531385D01*
X69002166Y-96531385D01*
X69002165Y-96531384D01*
X68830027Y-96416365D01*
X68683635Y-96269973D01*
X68568616Y-96097835D01*
X68558419Y-96073218D01*
X68489389Y-95906564D01*
X68449000Y-95703516D01*
X68449000Y-95496484D01*
X68489389Y-95293436D01*
X68568615Y-95102167D01*
X68683635Y-94930027D01*
X68830027Y-94783635D01*
X68881862Y-94749000D01*
X69002165Y-94668616D01*
X69002167Y-94668615D01*
X69193436Y-94589389D01*
X69396484Y-94549000D01*
X69603516Y-94549000D01*
X69806564Y-94589389D01*
G37*
G36*
X105806564Y-94589389D02*
G01*
X105997833Y-94668615D01*
X105997835Y-94668616D01*
X106118138Y-94749000D01*
X106169973Y-94783635D01*
X106316365Y-94930027D01*
X106431385Y-95102167D01*
X106510611Y-95293436D01*
X106551000Y-95496484D01*
X106551000Y-95703516D01*
X106510611Y-95906564D01*
X106441581Y-96073218D01*
X106431384Y-96097835D01*
X106316365Y-96269973D01*
X106169973Y-96416365D01*
X105997835Y-96531384D01*
X105997834Y-96531385D01*
X105997833Y-96531385D01*
X105806564Y-96610611D01*
X105603516Y-96651000D01*
X105396484Y-96651000D01*
X105193436Y-96610611D01*
X105002167Y-96531385D01*
X105002166Y-96531385D01*
X105002165Y-96531384D01*
X104830027Y-96416365D01*
X104683635Y-96269973D01*
X104568616Y-96097835D01*
X104558419Y-96073218D01*
X104489389Y-95906564D01*
X104449000Y-95703516D01*
X104449000Y-95496484D01*
X104489389Y-95293436D01*
X104568615Y-95102167D01*
X104683635Y-94930027D01*
X104830027Y-94783635D01*
X104881862Y-94749000D01*
X105002165Y-94668616D01*
X105002167Y-94668615D01*
X105193436Y-94589389D01*
X105396484Y-94549000D01*
X105603516Y-94549000D01*
X105806564Y-94589389D01*
G37*
G36*
X82806564Y-91689389D02*
G01*
X82997833Y-91768615D01*
X82997835Y-91768616D01*
X83118138Y-91849000D01*
X83169973Y-91883635D01*
X83316365Y-92030027D01*
X83431385Y-92202167D01*
X83510611Y-92393436D01*
X83551000Y-92596484D01*
X83551000Y-92803516D01*
X83510611Y-93006564D01*
X83450784Y-93151000D01*
X83431384Y-93197835D01*
X83316365Y-93369973D01*
X83169973Y-93516365D01*
X82997835Y-93631384D01*
X82997834Y-93631385D01*
X82997833Y-93631385D01*
X82806564Y-93710611D01*
X82603516Y-93751000D01*
X82396484Y-93751000D01*
X82193436Y-93710611D01*
X82002167Y-93631385D01*
X82002166Y-93631385D01*
X82002165Y-93631384D01*
X81830027Y-93516365D01*
X81683635Y-93369973D01*
X81568616Y-93197835D01*
X81549216Y-93151000D01*
X81489389Y-93006564D01*
X81449000Y-92803516D01*
X81449000Y-92596484D01*
X81489389Y-92393436D01*
X81568615Y-92202167D01*
X81683635Y-92030027D01*
X81830027Y-91883635D01*
X81881862Y-91849000D01*
X82002165Y-91768616D01*
X82002167Y-91768615D01*
X82193436Y-91689389D01*
X82396484Y-91649000D01*
X82603516Y-91649000D01*
X82806564Y-91689389D01*
G37*
G36*
X125651000Y-93151000D02*
G01*
X124649000Y-93151000D01*
X124649000Y-91849000D01*
X125651000Y-91849000D01*
X125651000Y-93151000D01*
G37*
G36*
X122351000Y-93151000D02*
G01*
X121349000Y-93151000D01*
X121349000Y-91849000D01*
X122351000Y-91849000D01*
X122351000Y-93151000D01*
G37*
G36*
X32351000Y-92651000D02*
G01*
X31349000Y-92651000D01*
X31349000Y-91349000D01*
X32351000Y-91349000D01*
X32351000Y-92651000D01*
G37*
G36*
X35651000Y-92651000D02*
G01*
X34649000Y-92651000D01*
X34649000Y-91349000D01*
X35651000Y-91349000D01*
X35651000Y-92651000D01*
G37*
G36*
X53651000Y-92651000D02*
G01*
X52649000Y-92651000D01*
X52649000Y-91349000D01*
X53651000Y-91349000D01*
X53651000Y-92651000D01*
G37*
G36*
X50351000Y-92651000D02*
G01*
X49349000Y-92651000D01*
X49349000Y-91349000D01*
X50351000Y-91349000D01*
X50351000Y-92651000D01*
G37*
G36*
X87806564Y-89589389D02*
G01*
X87997833Y-89668615D01*
X87997835Y-89668616D01*
X88121131Y-89751000D01*
X88169973Y-89783635D01*
X88316365Y-89930027D01*
X88431385Y-90102167D01*
X88510611Y-90293436D01*
X88551000Y-90496484D01*
X88551000Y-90703516D01*
X88510611Y-90906564D01*
X88431385Y-91097833D01*
X88431384Y-91097835D01*
X88316365Y-91269973D01*
X88169973Y-91416365D01*
X87997835Y-91531384D01*
X87997834Y-91531385D01*
X87997833Y-91531385D01*
X87806564Y-91610611D01*
X87603516Y-91651000D01*
X87396484Y-91651000D01*
X87193436Y-91610611D01*
X87002167Y-91531385D01*
X87002166Y-91531385D01*
X87002165Y-91531384D01*
X86830027Y-91416365D01*
X86683635Y-91269973D01*
X86568616Y-91097835D01*
X86568615Y-91097833D01*
X86489389Y-90906564D01*
X86449000Y-90703516D01*
X86449000Y-90496484D01*
X86489389Y-90293436D01*
X86568615Y-90102167D01*
X86683635Y-89930027D01*
X86830027Y-89783635D01*
X86878869Y-89751000D01*
X87002165Y-89668616D01*
X87002167Y-89668615D01*
X87193436Y-89589389D01*
X87396484Y-89549000D01*
X87603516Y-89549000D01*
X87806564Y-89589389D01*
G37*
G36*
X123897985Y-86293860D02*
G01*
X124010748Y-86316290D01*
X124142741Y-86370963D01*
X124329408Y-86448283D01*
X124616196Y-86639909D01*
X124860091Y-86883804D01*
X125051717Y-87170592D01*
X125183710Y-87489253D01*
X125251000Y-87827540D01*
X125251000Y-88172460D01*
X125183710Y-88510747D01*
X125051717Y-88829408D01*
X124860091Y-89116196D01*
X124616196Y-89360091D01*
X124329408Y-89551717D01*
X124142741Y-89629037D01*
X124010748Y-89683710D01*
X123897985Y-89706140D01*
X123672460Y-89751000D01*
X123327540Y-89751000D01*
X123102015Y-89706140D01*
X122989252Y-89683710D01*
X122857259Y-89629037D01*
X122670592Y-89551717D01*
X122383804Y-89360091D01*
X122139909Y-89116196D01*
X121948283Y-88829408D01*
X121816290Y-88510747D01*
X121749000Y-88172460D01*
X121749000Y-87827540D01*
X121816290Y-87489253D01*
X121948283Y-87170592D01*
X122139909Y-86883804D01*
X122383804Y-86639909D01*
X122670592Y-86448283D01*
X122857259Y-86370963D01*
X122989252Y-86316290D01*
X123102015Y-86293860D01*
X123327540Y-86249000D01*
X123672460Y-86249000D01*
X123897985Y-86293860D01*
G37*
G36*
X107651000Y-89651000D02*
G01*
X106649000Y-89651000D01*
X106649000Y-88349000D01*
X107651000Y-88349000D01*
X107651000Y-89651000D01*
G37*
G36*
X104351000Y-89651000D02*
G01*
X103349000Y-89651000D01*
X103349000Y-88349000D01*
X104351000Y-88349000D01*
X104351000Y-89651000D01*
G37*
G36*
X71651000Y-89651000D02*
G01*
X70649000Y-89651000D01*
X70649000Y-88349000D01*
X71651000Y-88349000D01*
X71651000Y-89651000D01*
G37*
G36*
X68351000Y-89651000D02*
G01*
X67349000Y-89651000D01*
X67349000Y-88349000D01*
X68351000Y-88349000D01*
X68351000Y-89651000D01*
G37*
G36*
X51897985Y-85793860D02*
G01*
X52010748Y-85816290D01*
X52116490Y-85860090D01*
X52329408Y-85948283D01*
X52616196Y-86139909D01*
X52860091Y-86383804D01*
X53051717Y-86670592D01*
X53183710Y-86989253D01*
X53251000Y-87327540D01*
X53251000Y-87672460D01*
X53183710Y-88010747D01*
X53051717Y-88329408D01*
X52860091Y-88616196D01*
X52616196Y-88860091D01*
X52329408Y-89051717D01*
X52142741Y-89129037D01*
X52010748Y-89183710D01*
X51897985Y-89206140D01*
X51672460Y-89251000D01*
X51327540Y-89251000D01*
X51102015Y-89206140D01*
X50989252Y-89183710D01*
X50857259Y-89129037D01*
X50670592Y-89051717D01*
X50383804Y-88860091D01*
X50139909Y-88616196D01*
X49948283Y-88329408D01*
X49816290Y-88010747D01*
X49749000Y-87672460D01*
X49749000Y-87327540D01*
X49816290Y-86989253D01*
X49948283Y-86670592D01*
X50139909Y-86383804D01*
X50383804Y-86139909D01*
X50670592Y-85948283D01*
X50883510Y-85860090D01*
X50989252Y-85816290D01*
X51102015Y-85793860D01*
X51327540Y-85749000D01*
X51672460Y-85749000D01*
X51897985Y-85793860D01*
G37*
G36*
X33897985Y-85793860D02*
G01*
X34010748Y-85816290D01*
X34116490Y-85860090D01*
X34329408Y-85948283D01*
X34616196Y-86139909D01*
X34860091Y-86383804D01*
X35051717Y-86670592D01*
X35183710Y-86989253D01*
X35251000Y-87327540D01*
X35251000Y-87672460D01*
X35183710Y-88010747D01*
X35051717Y-88329408D01*
X34860091Y-88616196D01*
X34616196Y-88860091D01*
X34329408Y-89051717D01*
X34142741Y-89129037D01*
X34010748Y-89183710D01*
X33897985Y-89206140D01*
X33672460Y-89251000D01*
X33327540Y-89251000D01*
X33102015Y-89206140D01*
X32989252Y-89183710D01*
X32857259Y-89129037D01*
X32670592Y-89051717D01*
X32383804Y-88860091D01*
X32139909Y-88616196D01*
X31948283Y-88329408D01*
X31816290Y-88010747D01*
X31749000Y-87672460D01*
X31749000Y-87327540D01*
X31816290Y-86989253D01*
X31948283Y-86670592D01*
X32139909Y-86383804D01*
X32383804Y-86139909D01*
X32670592Y-85948283D01*
X32883510Y-85860090D01*
X32989252Y-85816290D01*
X33102015Y-85793860D01*
X33327540Y-85749000D01*
X33672460Y-85749000D01*
X33897985Y-85793860D01*
G37*
G36*
X129113512Y-87103927D02*
G01*
X129262812Y-87133624D01*
X129426784Y-87201544D01*
X129574354Y-87300147D01*
X129699853Y-87425646D01*
X129798456Y-87573216D01*
X129866376Y-87737188D01*
X129901000Y-87911259D01*
X129901000Y-88088741D01*
X129866376Y-88262812D01*
X129798456Y-88426784D01*
X129699853Y-88574354D01*
X129574354Y-88699853D01*
X129426784Y-88798456D01*
X129262812Y-88866376D01*
X129113512Y-88896073D01*
X129088742Y-88901000D01*
X128911258Y-88901000D01*
X128886488Y-88896073D01*
X128737188Y-88866376D01*
X128573216Y-88798456D01*
X128425646Y-88699853D01*
X128300147Y-88574354D01*
X128201544Y-88426784D01*
X128133624Y-88262812D01*
X128099000Y-88088741D01*
X128099000Y-87911259D01*
X128133624Y-87737188D01*
X128201544Y-87573216D01*
X128300147Y-87425646D01*
X128425646Y-87300147D01*
X128573216Y-87201544D01*
X128737188Y-87133624D01*
X128886488Y-87103927D01*
X128911258Y-87099000D01*
X129088742Y-87099000D01*
X129113512Y-87103927D01*
G37*
G36*
X118113512Y-87103927D02*
G01*
X118262812Y-87133624D01*
X118426784Y-87201544D01*
X118574354Y-87300147D01*
X118699853Y-87425646D01*
X118798456Y-87573216D01*
X118866376Y-87737188D01*
X118901000Y-87911259D01*
X118901000Y-88088741D01*
X118866376Y-88262812D01*
X118798456Y-88426784D01*
X118699853Y-88574354D01*
X118574354Y-88699853D01*
X118426784Y-88798456D01*
X118262812Y-88866376D01*
X118113512Y-88896073D01*
X118088742Y-88901000D01*
X117911258Y-88901000D01*
X117886488Y-88896073D01*
X117737188Y-88866376D01*
X117573216Y-88798456D01*
X117425646Y-88699853D01*
X117300147Y-88574354D01*
X117201544Y-88426784D01*
X117133624Y-88262812D01*
X117099000Y-88088741D01*
X117099000Y-87911259D01*
X117133624Y-87737188D01*
X117201544Y-87573216D01*
X117300147Y-87425646D01*
X117425646Y-87300147D01*
X117573216Y-87201544D01*
X117737188Y-87133624D01*
X117886488Y-87103927D01*
X117911258Y-87099000D01*
X118088742Y-87099000D01*
X118113512Y-87103927D01*
G37*
G36*
X46113512Y-86603927D02*
G01*
X46262812Y-86633624D01*
X46426784Y-86701544D01*
X46574354Y-86800147D01*
X46699853Y-86925646D01*
X46798456Y-87073216D01*
X46866376Y-87237188D01*
X46901000Y-87411259D01*
X46901000Y-87588741D01*
X46866376Y-87762812D01*
X46798456Y-87926784D01*
X46699853Y-88074354D01*
X46574354Y-88199853D01*
X46426784Y-88298456D01*
X46262812Y-88366376D01*
X46113512Y-88396073D01*
X46088742Y-88401000D01*
X45911258Y-88401000D01*
X45886488Y-88396073D01*
X45737188Y-88366376D01*
X45573216Y-88298456D01*
X45425646Y-88199853D01*
X45300147Y-88074354D01*
X45201544Y-87926784D01*
X45133624Y-87762812D01*
X45099000Y-87588741D01*
X45099000Y-87411259D01*
X45133624Y-87237188D01*
X45201544Y-87073216D01*
X45300147Y-86925646D01*
X45425646Y-86800147D01*
X45573216Y-86701544D01*
X45737188Y-86633624D01*
X45886488Y-86603927D01*
X45911258Y-86599000D01*
X46088742Y-86599000D01*
X46113512Y-86603927D01*
G37*
G36*
X28113512Y-86603927D02*
G01*
X28262812Y-86633624D01*
X28426784Y-86701544D01*
X28574354Y-86800147D01*
X28699853Y-86925646D01*
X28798456Y-87073216D01*
X28866376Y-87237188D01*
X28901000Y-87411259D01*
X28901000Y-87588741D01*
X28866376Y-87762812D01*
X28798456Y-87926784D01*
X28699853Y-88074354D01*
X28574354Y-88199853D01*
X28426784Y-88298456D01*
X28262812Y-88366376D01*
X28113512Y-88396073D01*
X28088742Y-88401000D01*
X27911258Y-88401000D01*
X27886488Y-88396073D01*
X27737188Y-88366376D01*
X27573216Y-88298456D01*
X27425646Y-88199853D01*
X27300147Y-88074354D01*
X27201544Y-87926784D01*
X27133624Y-87762812D01*
X27099000Y-87588741D01*
X27099000Y-87411259D01*
X27133624Y-87237188D01*
X27201544Y-87073216D01*
X27300147Y-86925646D01*
X27425646Y-86800147D01*
X27573216Y-86701544D01*
X27737188Y-86633624D01*
X27886488Y-86603927D01*
X27911258Y-86599000D01*
X28088742Y-86599000D01*
X28113512Y-86603927D01*
G37*
G36*
X57113512Y-86603927D02*
G01*
X57262812Y-86633624D01*
X57426784Y-86701544D01*
X57574354Y-86800147D01*
X57699853Y-86925646D01*
X57798456Y-87073216D01*
X57866376Y-87237188D01*
X57901000Y-87411259D01*
X57901000Y-87588741D01*
X57866376Y-87762812D01*
X57798456Y-87926784D01*
X57699853Y-88074354D01*
X57574354Y-88199853D01*
X57426784Y-88298456D01*
X57262812Y-88366376D01*
X57113512Y-88396073D01*
X57088742Y-88401000D01*
X56911258Y-88401000D01*
X56886488Y-88396073D01*
X56737188Y-88366376D01*
X56573216Y-88298456D01*
X56425646Y-88199853D01*
X56300147Y-88074354D01*
X56201544Y-87926784D01*
X56133624Y-87762812D01*
X56099000Y-87588741D01*
X56099000Y-87411259D01*
X56133624Y-87237188D01*
X56201544Y-87073216D01*
X56300147Y-86925646D01*
X56425646Y-86800147D01*
X56573216Y-86701544D01*
X56737188Y-86633624D01*
X56886488Y-86603927D01*
X56911258Y-86599000D01*
X57088742Y-86599000D01*
X57113512Y-86603927D01*
G37*
G36*
X39113512Y-86603927D02*
G01*
X39262812Y-86633624D01*
X39426784Y-86701544D01*
X39574354Y-86800147D01*
X39699853Y-86925646D01*
X39798456Y-87073216D01*
X39866376Y-87237188D01*
X39901000Y-87411259D01*
X39901000Y-87588741D01*
X39866376Y-87762812D01*
X39798456Y-87926784D01*
X39699853Y-88074354D01*
X39574354Y-88199853D01*
X39426784Y-88298456D01*
X39262812Y-88366376D01*
X39113512Y-88396073D01*
X39088742Y-88401000D01*
X38911258Y-88401000D01*
X38886488Y-88396073D01*
X38737188Y-88366376D01*
X38573216Y-88298456D01*
X38425646Y-88199853D01*
X38300147Y-88074354D01*
X38201544Y-87926784D01*
X38133624Y-87762812D01*
X38099000Y-87588741D01*
X38099000Y-87411259D01*
X38133624Y-87237188D01*
X38201544Y-87073216D01*
X38300147Y-86925646D01*
X38425646Y-86800147D01*
X38573216Y-86701544D01*
X38737188Y-86633624D01*
X38886488Y-86603927D01*
X38911258Y-86599000D01*
X39088742Y-86599000D01*
X39113512Y-86603927D01*
G37*
G36*
X69897985Y-82793860D02*
G01*
X70010748Y-82816290D01*
X70142741Y-82870963D01*
X70329408Y-82948283D01*
X70616196Y-83139909D01*
X70860091Y-83383804D01*
X71051717Y-83670592D01*
X71129037Y-83857259D01*
X71183710Y-83989252D01*
X71187154Y-84006565D01*
X71251000Y-84327540D01*
X71251000Y-84672460D01*
X71183710Y-85010747D01*
X71051717Y-85329408D01*
X70860091Y-85616196D01*
X70616196Y-85860091D01*
X70329408Y-86051717D01*
X70142741Y-86129037D01*
X70010748Y-86183710D01*
X69897985Y-86206140D01*
X69672460Y-86251000D01*
X69327540Y-86251000D01*
X69102015Y-86206140D01*
X68989252Y-86183710D01*
X68857259Y-86129037D01*
X68670592Y-86051717D01*
X68383804Y-85860091D01*
X68139909Y-85616196D01*
X67948283Y-85329408D01*
X67816290Y-85010747D01*
X67749000Y-84672460D01*
X67749000Y-84327540D01*
X67812846Y-84006565D01*
X67816290Y-83989252D01*
X67870963Y-83857259D01*
X67948283Y-83670592D01*
X68139909Y-83383804D01*
X68383804Y-83139909D01*
X68670592Y-82948283D01*
X68857259Y-82870963D01*
X68989252Y-82816290D01*
X69102015Y-82793860D01*
X69327540Y-82749000D01*
X69672460Y-82749000D01*
X69897985Y-82793860D01*
G37*
G36*
X105897985Y-82793860D02*
G01*
X106010748Y-82816290D01*
X106142741Y-82870963D01*
X106329408Y-82948283D01*
X106616196Y-83139909D01*
X106860091Y-83383804D01*
X107051717Y-83670592D01*
X107129037Y-83857259D01*
X107183710Y-83989252D01*
X107187154Y-84006565D01*
X107251000Y-84327540D01*
X107251000Y-84672460D01*
X107183710Y-85010747D01*
X107051717Y-85329408D01*
X106860091Y-85616196D01*
X106616196Y-85860091D01*
X106329408Y-86051717D01*
X106142741Y-86129037D01*
X106010748Y-86183710D01*
X105897985Y-86206140D01*
X105672460Y-86251000D01*
X105327540Y-86251000D01*
X105102015Y-86206140D01*
X104989252Y-86183710D01*
X104857259Y-86129037D01*
X104670592Y-86051717D01*
X104383804Y-85860091D01*
X104139909Y-85616196D01*
X103948283Y-85329408D01*
X103816290Y-85010747D01*
X103749000Y-84672460D01*
X103749000Y-84327540D01*
X103812846Y-84006565D01*
X103816290Y-83989252D01*
X103870963Y-83857259D01*
X103948283Y-83670592D01*
X104139909Y-83383804D01*
X104383804Y-83139909D01*
X104670592Y-82948283D01*
X104857259Y-82870963D01*
X104989252Y-82816290D01*
X105102015Y-82793860D01*
X105327540Y-82749000D01*
X105672460Y-82749000D01*
X105897985Y-82793860D01*
G37*
G36*
X75113512Y-83603927D02*
G01*
X75262812Y-83633624D01*
X75426784Y-83701544D01*
X75574354Y-83800147D01*
X75699853Y-83925646D01*
X75798456Y-84073216D01*
X75866376Y-84237188D01*
X75901000Y-84411259D01*
X75901000Y-84588741D01*
X75866376Y-84762812D01*
X75798456Y-84926784D01*
X75699853Y-85074354D01*
X75574354Y-85199853D01*
X75426784Y-85298456D01*
X75262812Y-85366376D01*
X75113512Y-85396073D01*
X75088742Y-85401000D01*
X74911258Y-85401000D01*
X74886488Y-85396073D01*
X74737188Y-85366376D01*
X74573216Y-85298456D01*
X74425646Y-85199853D01*
X74300147Y-85074354D01*
X74201544Y-84926784D01*
X74133624Y-84762812D01*
X74099000Y-84588741D01*
X74099000Y-84411259D01*
X74133624Y-84237188D01*
X74201544Y-84073216D01*
X74300147Y-83925646D01*
X74425646Y-83800147D01*
X74573216Y-83701544D01*
X74737188Y-83633624D01*
X74886488Y-83603927D01*
X74911258Y-83599000D01*
X75088742Y-83599000D01*
X75113512Y-83603927D01*
G37*
G36*
X64113512Y-83603927D02*
G01*
X64262812Y-83633624D01*
X64426784Y-83701544D01*
X64574354Y-83800147D01*
X64699853Y-83925646D01*
X64798456Y-84073216D01*
X64866376Y-84237188D01*
X64901000Y-84411259D01*
X64901000Y-84588741D01*
X64866376Y-84762812D01*
X64798456Y-84926784D01*
X64699853Y-85074354D01*
X64574354Y-85199853D01*
X64426784Y-85298456D01*
X64262812Y-85366376D01*
X64113512Y-85396073D01*
X64088742Y-85401000D01*
X63911258Y-85401000D01*
X63886488Y-85396073D01*
X63737188Y-85366376D01*
X63573216Y-85298456D01*
X63425646Y-85199853D01*
X63300147Y-85074354D01*
X63201544Y-84926784D01*
X63133624Y-84762812D01*
X63099000Y-84588741D01*
X63099000Y-84411259D01*
X63133624Y-84237188D01*
X63201544Y-84073216D01*
X63300147Y-83925646D01*
X63425646Y-83800147D01*
X63573216Y-83701544D01*
X63737188Y-83633624D01*
X63886488Y-83603927D01*
X63911258Y-83599000D01*
X64088742Y-83599000D01*
X64113512Y-83603927D01*
G37*
G36*
X100113512Y-83603927D02*
G01*
X100262812Y-83633624D01*
X100426784Y-83701544D01*
X100574354Y-83800147D01*
X100699853Y-83925646D01*
X100798456Y-84073216D01*
X100866376Y-84237188D01*
X100901000Y-84411259D01*
X100901000Y-84588741D01*
X100866376Y-84762812D01*
X100798456Y-84926784D01*
X100699853Y-85074354D01*
X100574354Y-85199853D01*
X100426784Y-85298456D01*
X100262812Y-85366376D01*
X100113512Y-85396073D01*
X100088742Y-85401000D01*
X99911258Y-85401000D01*
X99886488Y-85396073D01*
X99737188Y-85366376D01*
X99573216Y-85298456D01*
X99425646Y-85199853D01*
X99300147Y-85074354D01*
X99201544Y-84926784D01*
X99133624Y-84762812D01*
X99099000Y-84588741D01*
X99099000Y-84411259D01*
X99133624Y-84237188D01*
X99201544Y-84073216D01*
X99300147Y-83925646D01*
X99425646Y-83800147D01*
X99573216Y-83701544D01*
X99737188Y-83633624D01*
X99886488Y-83603927D01*
X99911258Y-83599000D01*
X100088742Y-83599000D01*
X100113512Y-83603927D01*
G37*
G36*
X111113512Y-83603927D02*
G01*
X111262812Y-83633624D01*
X111426784Y-83701544D01*
X111574354Y-83800147D01*
X111699853Y-83925646D01*
X111798456Y-84073216D01*
X111866376Y-84237188D01*
X111901000Y-84411259D01*
X111901000Y-84588741D01*
X111866376Y-84762812D01*
X111798456Y-84926784D01*
X111699853Y-85074354D01*
X111574354Y-85199853D01*
X111426784Y-85298456D01*
X111262812Y-85366376D01*
X111113512Y-85396073D01*
X111088742Y-85401000D01*
X110911258Y-85401000D01*
X110886488Y-85396073D01*
X110737188Y-85366376D01*
X110573216Y-85298456D01*
X110425646Y-85199853D01*
X110300147Y-85074354D01*
X110201544Y-84926784D01*
X110133624Y-84762812D01*
X110099000Y-84588741D01*
X110099000Y-84411259D01*
X110133624Y-84237188D01*
X110201544Y-84073216D01*
X110300147Y-83925646D01*
X110425646Y-83800147D01*
X110573216Y-83701544D01*
X110737188Y-83633624D01*
X110886488Y-83603927D01*
X110911258Y-83599000D01*
X111088742Y-83599000D01*
X111113512Y-83603927D01*
G37*
G36*
X118806564Y-83189389D02*
G01*
X118997833Y-83268615D01*
X118997835Y-83268616D01*
X119169973Y-83383635D01*
X119316365Y-83530027D01*
X119410288Y-83670592D01*
X119431385Y-83702167D01*
X119510611Y-83893436D01*
X119551000Y-84096484D01*
X119551000Y-84303516D01*
X119510611Y-84506564D01*
X119441895Y-84672460D01*
X119431384Y-84697835D01*
X119316365Y-84869973D01*
X119169973Y-85016365D01*
X118997835Y-85131384D01*
X118997834Y-85131385D01*
X118997833Y-85131385D01*
X118806564Y-85210611D01*
X118603516Y-85251000D01*
X118396484Y-85251000D01*
X118193436Y-85210611D01*
X118002167Y-85131385D01*
X118002166Y-85131385D01*
X118002165Y-85131384D01*
X117830027Y-85016365D01*
X117683635Y-84869973D01*
X117568616Y-84697835D01*
X117558105Y-84672460D01*
X117489389Y-84506564D01*
X117449000Y-84303516D01*
X117449000Y-84096484D01*
X117489389Y-83893436D01*
X117568615Y-83702167D01*
X117589713Y-83670592D01*
X117683635Y-83530027D01*
X117830027Y-83383635D01*
X118002165Y-83268616D01*
X118002167Y-83268615D01*
X118193436Y-83189389D01*
X118396484Y-83149000D01*
X118603516Y-83149000D01*
X118806564Y-83189389D01*
G37*
G36*
X28806564Y-82689389D02*
G01*
X28997833Y-82768615D01*
X28997835Y-82768616D01*
X29169973Y-82883635D01*
X29316365Y-83030027D01*
X29397197Y-83151000D01*
X29431385Y-83202167D01*
X29510611Y-83393436D01*
X29551000Y-83596484D01*
X29551000Y-83803516D01*
X29510611Y-84006564D01*
X29483002Y-84073218D01*
X29431384Y-84197835D01*
X29316365Y-84369973D01*
X29169973Y-84516365D01*
X28997835Y-84631384D01*
X28997834Y-84631385D01*
X28997833Y-84631385D01*
X28806564Y-84710611D01*
X28603516Y-84751000D01*
X28396484Y-84751000D01*
X28193436Y-84710611D01*
X28002167Y-84631385D01*
X28002166Y-84631385D01*
X28002165Y-84631384D01*
X27830027Y-84516365D01*
X27683635Y-84369973D01*
X27568616Y-84197835D01*
X27516998Y-84073218D01*
X27489389Y-84006564D01*
X27449000Y-83803516D01*
X27449000Y-83596484D01*
X27489389Y-83393436D01*
X27568615Y-83202167D01*
X27602804Y-83151000D01*
X27683635Y-83030027D01*
X27830027Y-82883635D01*
X28002165Y-82768616D01*
X28002167Y-82768615D01*
X28193436Y-82689389D01*
X28396484Y-82649000D01*
X28603516Y-82649000D01*
X28806564Y-82689389D01*
G37*
G36*
X46806564Y-82689389D02*
G01*
X46997833Y-82768615D01*
X46997835Y-82768616D01*
X47169973Y-82883635D01*
X47316365Y-83030027D01*
X47397197Y-83151000D01*
X47431385Y-83202167D01*
X47510611Y-83393436D01*
X47551000Y-83596484D01*
X47551000Y-83803516D01*
X47510611Y-84006564D01*
X47483002Y-84073218D01*
X47431384Y-84197835D01*
X47316365Y-84369973D01*
X47169973Y-84516365D01*
X46997835Y-84631384D01*
X46997834Y-84631385D01*
X46997833Y-84631385D01*
X46806564Y-84710611D01*
X46603516Y-84751000D01*
X46396484Y-84751000D01*
X46193436Y-84710611D01*
X46002167Y-84631385D01*
X46002166Y-84631385D01*
X46002165Y-84631384D01*
X45830027Y-84516365D01*
X45683635Y-84369973D01*
X45568616Y-84197835D01*
X45516998Y-84073218D01*
X45489389Y-84006564D01*
X45449000Y-83803516D01*
X45449000Y-83596484D01*
X45489389Y-83393436D01*
X45568615Y-83202167D01*
X45602804Y-83151000D01*
X45683635Y-83030027D01*
X45830027Y-82883635D01*
X46002165Y-82768616D01*
X46002167Y-82768615D01*
X46193436Y-82689389D01*
X46396484Y-82649000D01*
X46603516Y-82649000D01*
X46806564Y-82689389D01*
G37*
G36*
X89651000Y-84651000D02*
G01*
X88649000Y-84651000D01*
X88649000Y-83349000D01*
X89651000Y-83349000D01*
X89651000Y-84651000D01*
G37*
G36*
X86351000Y-84651000D02*
G01*
X85349000Y-84651000D01*
X85349000Y-83349000D01*
X86351000Y-83349000D01*
X86351000Y-84651000D01*
G37*
G36*
X123806564Y-81089389D02*
G01*
X123997833Y-81168615D01*
X123997835Y-81168616D01*
X124169973Y-81283635D01*
X124316365Y-81430027D01*
X124360772Y-81496486D01*
X124431385Y-81602167D01*
X124510611Y-81793436D01*
X124551000Y-81996484D01*
X124551000Y-82203516D01*
X124510611Y-82406564D01*
X124431385Y-82597833D01*
X124431384Y-82597835D01*
X124316365Y-82769973D01*
X124169973Y-82916365D01*
X123997835Y-83031384D01*
X123997834Y-83031385D01*
X123997833Y-83031385D01*
X123806564Y-83110611D01*
X123603516Y-83151000D01*
X123396484Y-83151000D01*
X123193436Y-83110611D01*
X123002167Y-83031385D01*
X123002166Y-83031385D01*
X123002165Y-83031384D01*
X122830027Y-82916365D01*
X122683635Y-82769973D01*
X122568616Y-82597835D01*
X122568615Y-82597833D01*
X122489389Y-82406564D01*
X122449000Y-82203516D01*
X122449000Y-81996484D01*
X122489389Y-81793436D01*
X122568615Y-81602167D01*
X122639229Y-81496486D01*
X122683635Y-81430027D01*
X122830027Y-81283635D01*
X123002165Y-81168616D01*
X123002167Y-81168615D01*
X123193436Y-81089389D01*
X123396484Y-81049000D01*
X123603516Y-81049000D01*
X123806564Y-81089389D01*
G37*
G36*
X51806564Y-80589389D02*
G01*
X51997833Y-80668615D01*
X51997835Y-80668616D01*
X52169973Y-80783635D01*
X52316365Y-80930027D01*
X52397676Y-81051717D01*
X52431385Y-81102167D01*
X52510611Y-81293436D01*
X52551000Y-81496484D01*
X52551000Y-81703516D01*
X52510611Y-81906564D01*
X52473365Y-81996484D01*
X52431384Y-82097835D01*
X52316365Y-82269973D01*
X52169973Y-82416365D01*
X51997835Y-82531384D01*
X51997834Y-82531385D01*
X51997833Y-82531385D01*
X51806564Y-82610611D01*
X51603516Y-82651000D01*
X51396484Y-82651000D01*
X51193436Y-82610611D01*
X51002167Y-82531385D01*
X51002166Y-82531385D01*
X51002165Y-82531384D01*
X50830027Y-82416365D01*
X50683635Y-82269973D01*
X50568616Y-82097835D01*
X50526635Y-81996484D01*
X50489389Y-81906564D01*
X50449000Y-81703516D01*
X50449000Y-81496484D01*
X50489389Y-81293436D01*
X50568615Y-81102167D01*
X50602325Y-81051717D01*
X50683635Y-80930027D01*
X50830027Y-80783635D01*
X51002165Y-80668616D01*
X51002167Y-80668615D01*
X51193436Y-80589389D01*
X51396484Y-80549000D01*
X51603516Y-80549000D01*
X51806564Y-80589389D01*
G37*
G36*
X33806564Y-80589389D02*
G01*
X33997833Y-80668615D01*
X33997835Y-80668616D01*
X34169973Y-80783635D01*
X34316365Y-80930027D01*
X34397676Y-81051717D01*
X34431385Y-81102167D01*
X34510611Y-81293436D01*
X34551000Y-81496484D01*
X34551000Y-81703516D01*
X34510611Y-81906564D01*
X34473365Y-81996484D01*
X34431384Y-82097835D01*
X34316365Y-82269973D01*
X34169973Y-82416365D01*
X33997835Y-82531384D01*
X33997834Y-82531385D01*
X33997833Y-82531385D01*
X33806564Y-82610611D01*
X33603516Y-82651000D01*
X33396484Y-82651000D01*
X33193436Y-82610611D01*
X33002167Y-82531385D01*
X33002166Y-82531385D01*
X33002165Y-82531384D01*
X32830027Y-82416365D01*
X32683635Y-82269973D01*
X32568616Y-82097835D01*
X32526635Y-81996484D01*
X32489389Y-81906564D01*
X32449000Y-81703516D01*
X32449000Y-81496484D01*
X32489389Y-81293436D01*
X32568615Y-81102167D01*
X32602325Y-81051717D01*
X32683635Y-80930027D01*
X32830027Y-80783635D01*
X33002165Y-80668616D01*
X33002167Y-80668615D01*
X33193436Y-80589389D01*
X33396484Y-80549000D01*
X33603516Y-80549000D01*
X33806564Y-80589389D01*
G37*
G36*
X100806564Y-79689389D02*
G01*
X100983823Y-79762812D01*
X100997835Y-79768616D01*
X101169973Y-79883635D01*
X101316365Y-80030027D01*
X101429839Y-80199852D01*
X101431385Y-80202167D01*
X101510611Y-80393436D01*
X101551000Y-80596484D01*
X101551000Y-80803516D01*
X101510611Y-81006564D01*
X101471011Y-81102167D01*
X101431384Y-81197835D01*
X101316365Y-81369973D01*
X101169973Y-81516365D01*
X100997835Y-81631384D01*
X100997834Y-81631385D01*
X100997833Y-81631385D01*
X100806564Y-81710611D01*
X100603516Y-81751000D01*
X100396484Y-81751000D01*
X100193436Y-81710611D01*
X100002167Y-81631385D01*
X100002166Y-81631385D01*
X100002165Y-81631384D01*
X99830027Y-81516365D01*
X99683635Y-81369973D01*
X99568616Y-81197835D01*
X99528989Y-81102167D01*
X99489389Y-81006564D01*
X99449000Y-80803516D01*
X99449000Y-80596484D01*
X99489389Y-80393436D01*
X99568615Y-80202167D01*
X99570162Y-80199852D01*
X99683635Y-80030027D01*
X99830027Y-79883635D01*
X100002165Y-79768616D01*
X100016177Y-79762812D01*
X100193436Y-79689389D01*
X100396484Y-79649000D01*
X100603516Y-79649000D01*
X100806564Y-79689389D01*
G37*
G36*
X64806564Y-79689389D02*
G01*
X64983823Y-79762812D01*
X64997835Y-79768616D01*
X65169973Y-79883635D01*
X65316365Y-80030027D01*
X65429839Y-80199852D01*
X65431385Y-80202167D01*
X65510611Y-80393436D01*
X65551000Y-80596484D01*
X65551000Y-80803516D01*
X65510611Y-81006564D01*
X65471011Y-81102167D01*
X65431384Y-81197835D01*
X65316365Y-81369973D01*
X65169973Y-81516365D01*
X64997835Y-81631384D01*
X64997834Y-81631385D01*
X64997833Y-81631385D01*
X64806564Y-81710611D01*
X64603516Y-81751000D01*
X64396484Y-81751000D01*
X64193436Y-81710611D01*
X64002167Y-81631385D01*
X64002166Y-81631385D01*
X64002165Y-81631384D01*
X63830027Y-81516365D01*
X63683635Y-81369973D01*
X63568616Y-81197835D01*
X63528989Y-81102167D01*
X63489389Y-81006564D01*
X63449000Y-80803516D01*
X63449000Y-80596484D01*
X63489389Y-80393436D01*
X63568615Y-80202167D01*
X63570162Y-80199852D01*
X63683635Y-80030027D01*
X63830027Y-79883635D01*
X64002165Y-79768616D01*
X64016177Y-79762812D01*
X64193436Y-79689389D01*
X64396484Y-79649000D01*
X64603516Y-79649000D01*
X64806564Y-79689389D01*
G37*
G36*
X87887442Y-77791763D02*
G01*
X88010748Y-77816290D01*
X88142741Y-77870963D01*
X88329408Y-77948283D01*
X88616196Y-78139909D01*
X88860091Y-78383804D01*
X89051717Y-78670592D01*
X89183710Y-78989253D01*
X89251000Y-79327540D01*
X89251000Y-79672460D01*
X89183710Y-80010747D01*
X89051717Y-80329408D01*
X88860091Y-80616196D01*
X88616196Y-80860091D01*
X88329408Y-81051717D01*
X88207615Y-81102165D01*
X88010748Y-81183710D01*
X87897985Y-81206140D01*
X87672460Y-81251000D01*
X87327540Y-81251000D01*
X87102015Y-81206140D01*
X86989252Y-81183710D01*
X86792385Y-81102165D01*
X86670592Y-81051717D01*
X86383804Y-80860091D01*
X86139909Y-80616196D01*
X85948283Y-80329408D01*
X85816290Y-80010747D01*
X85749000Y-79672460D01*
X85749000Y-79327540D01*
X85816290Y-78989253D01*
X85948283Y-78670592D01*
X86139909Y-78383804D01*
X86383804Y-78139909D01*
X86670592Y-77948283D01*
X86857259Y-77870963D01*
X86989252Y-77816290D01*
X87112558Y-77791763D01*
X87327540Y-77749000D01*
X87672460Y-77749000D01*
X87887442Y-77791763D01*
G37*
G36*
X93113512Y-78603927D02*
G01*
X93262812Y-78633624D01*
X93426784Y-78701544D01*
X93574354Y-78800147D01*
X93699853Y-78925646D01*
X93798456Y-79073216D01*
X93866376Y-79237188D01*
X93901000Y-79411259D01*
X93901000Y-79588741D01*
X93866376Y-79762812D01*
X93798456Y-79926784D01*
X93699853Y-80074354D01*
X93574354Y-80199853D01*
X93426784Y-80298456D01*
X93262812Y-80366376D01*
X93113512Y-80396073D01*
X93088742Y-80401000D01*
X92911258Y-80401000D01*
X92886488Y-80396073D01*
X92737188Y-80366376D01*
X92573216Y-80298456D01*
X92425646Y-80199853D01*
X92300147Y-80074354D01*
X92201544Y-79926784D01*
X92133624Y-79762812D01*
X92099000Y-79588741D01*
X92099000Y-79411259D01*
X92133624Y-79237188D01*
X92201544Y-79073216D01*
X92300147Y-78925646D01*
X92425646Y-78800147D01*
X92573216Y-78701544D01*
X92737188Y-78633624D01*
X92886488Y-78603927D01*
X92911258Y-78599000D01*
X93088742Y-78599000D01*
X93113512Y-78603927D01*
G37*
G36*
X82113512Y-78603927D02*
G01*
X82262812Y-78633624D01*
X82426784Y-78701544D01*
X82574354Y-78800147D01*
X82699853Y-78925646D01*
X82798456Y-79073216D01*
X82866376Y-79237188D01*
X82901000Y-79411259D01*
X82901000Y-79588741D01*
X82866376Y-79762812D01*
X82798456Y-79926784D01*
X82699853Y-80074354D01*
X82574354Y-80199853D01*
X82426784Y-80298456D01*
X82262812Y-80366376D01*
X82113512Y-80396073D01*
X82088742Y-80401000D01*
X81911258Y-80401000D01*
X81886488Y-80396073D01*
X81737188Y-80366376D01*
X81573216Y-80298456D01*
X81425646Y-80199853D01*
X81300147Y-80074354D01*
X81201544Y-79926784D01*
X81133624Y-79762812D01*
X81099000Y-79588741D01*
X81099000Y-79411259D01*
X81133624Y-79237188D01*
X81201544Y-79073216D01*
X81300147Y-78925646D01*
X81425646Y-78800147D01*
X81573216Y-78701544D01*
X81737188Y-78633624D01*
X81886488Y-78603927D01*
X81911258Y-78599000D01*
X82088742Y-78599000D01*
X82113512Y-78603927D01*
G37*
G36*
X69806564Y-77589389D02*
G01*
X69997833Y-77668615D01*
X69997835Y-77668616D01*
X70030259Y-77690281D01*
X70169973Y-77783635D01*
X70316365Y-77930027D01*
X70431385Y-78102167D01*
X70510611Y-78293436D01*
X70551000Y-78496484D01*
X70551000Y-78703516D01*
X70510611Y-78906564D01*
X70431385Y-79097833D01*
X70431384Y-79097835D01*
X70316365Y-79269973D01*
X70169973Y-79416365D01*
X69997835Y-79531384D01*
X69997834Y-79531385D01*
X69997833Y-79531385D01*
X69806564Y-79610611D01*
X69603516Y-79651000D01*
X69396484Y-79651000D01*
X69193436Y-79610611D01*
X69002167Y-79531385D01*
X69002166Y-79531385D01*
X69002165Y-79531384D01*
X68830027Y-79416365D01*
X68683635Y-79269973D01*
X68568616Y-79097835D01*
X68568615Y-79097833D01*
X68489389Y-78906564D01*
X68449000Y-78703516D01*
X68449000Y-78496484D01*
X68489389Y-78293436D01*
X68568615Y-78102167D01*
X68683635Y-77930027D01*
X68830027Y-77783635D01*
X68969741Y-77690281D01*
X69002165Y-77668616D01*
X69002167Y-77668615D01*
X69193436Y-77589389D01*
X69396484Y-77549000D01*
X69603516Y-77549000D01*
X69806564Y-77589389D01*
G37*
G36*
X105806564Y-77589389D02*
G01*
X105997833Y-77668615D01*
X105997835Y-77668616D01*
X106030259Y-77690281D01*
X106169973Y-77783635D01*
X106316365Y-77930027D01*
X106431385Y-78102167D01*
X106510611Y-78293436D01*
X106551000Y-78496484D01*
X106551000Y-78703516D01*
X106510611Y-78906564D01*
X106431385Y-79097833D01*
X106431384Y-79097835D01*
X106316365Y-79269973D01*
X106169973Y-79416365D01*
X105997835Y-79531384D01*
X105997834Y-79531385D01*
X105997833Y-79531385D01*
X105806564Y-79610611D01*
X105603516Y-79651000D01*
X105396484Y-79651000D01*
X105193436Y-79610611D01*
X105002167Y-79531385D01*
X105002166Y-79531385D01*
X105002165Y-79531384D01*
X104830027Y-79416365D01*
X104683635Y-79269973D01*
X104568616Y-79097835D01*
X104568615Y-79097833D01*
X104489389Y-78906564D01*
X104449000Y-78703516D01*
X104449000Y-78496484D01*
X104489389Y-78293436D01*
X104568615Y-78102167D01*
X104683635Y-77930027D01*
X104830027Y-77783635D01*
X104969741Y-77690281D01*
X105002165Y-77668616D01*
X105002167Y-77668615D01*
X105193436Y-77589389D01*
X105396484Y-77549000D01*
X105603516Y-77549000D01*
X105806564Y-77589389D01*
G37*
G36*
X55859928Y-78556764D02*
G01*
X55881009Y-78563160D01*
X55900445Y-78573548D01*
X55917476Y-78587524D01*
X55931452Y-78604555D01*
X55941840Y-78623991D01*
X55948236Y-78645072D01*
X55951000Y-78673140D01*
X55951000Y-79136860D01*
X55948236Y-79164928D01*
X55941840Y-79186009D01*
X55931452Y-79205445D01*
X55917476Y-79222476D01*
X55900445Y-79236452D01*
X55881009Y-79246840D01*
X55859928Y-79253236D01*
X55831860Y-79256000D01*
X54368140Y-79256000D01*
X54340072Y-79253236D01*
X54318991Y-79246840D01*
X54299555Y-79236452D01*
X54282524Y-79222476D01*
X54268548Y-79205445D01*
X54258160Y-79186009D01*
X54251764Y-79164928D01*
X54249000Y-79136860D01*
X54249000Y-78673140D01*
X54251764Y-78645072D01*
X54258160Y-78623991D01*
X54268548Y-78604555D01*
X54282524Y-78587524D01*
X54299555Y-78573548D01*
X54318991Y-78563160D01*
X54340072Y-78556764D01*
X54368140Y-78554000D01*
X55831860Y-78554000D01*
X55859928Y-78556764D01*
G37*
G36*
X48659928Y-78556764D02*
G01*
X48681009Y-78563160D01*
X48700445Y-78573548D01*
X48717476Y-78587524D01*
X48731452Y-78604555D01*
X48741840Y-78623991D01*
X48748236Y-78645072D01*
X48751000Y-78673140D01*
X48751000Y-79136860D01*
X48748236Y-79164928D01*
X48741840Y-79186009D01*
X48731452Y-79205445D01*
X48717476Y-79222476D01*
X48700445Y-79236452D01*
X48681009Y-79246840D01*
X48659928Y-79253236D01*
X48631860Y-79256000D01*
X47168140Y-79256000D01*
X47140072Y-79253236D01*
X47118991Y-79246840D01*
X47099555Y-79236452D01*
X47082524Y-79222476D01*
X47068548Y-79205445D01*
X47058160Y-79186009D01*
X47051764Y-79164928D01*
X47049000Y-79136860D01*
X47049000Y-78673140D01*
X47051764Y-78645072D01*
X47058160Y-78623991D01*
X47068548Y-78604555D01*
X47082524Y-78587524D01*
X47099555Y-78573548D01*
X47118991Y-78563160D01*
X47140072Y-78556764D01*
X47168140Y-78554000D01*
X48631860Y-78554000D01*
X48659928Y-78556764D01*
G37*
G36*
X48659928Y-77286764D02*
G01*
X48681009Y-77293160D01*
X48700445Y-77303548D01*
X48717476Y-77317524D01*
X48731452Y-77334555D01*
X48741840Y-77353991D01*
X48748236Y-77375072D01*
X48751000Y-77403140D01*
X48751000Y-77866860D01*
X48748236Y-77894928D01*
X48741840Y-77916009D01*
X48731452Y-77935445D01*
X48717476Y-77952476D01*
X48700445Y-77966452D01*
X48681009Y-77976840D01*
X48659928Y-77983236D01*
X48631860Y-77986000D01*
X47168140Y-77986000D01*
X47140072Y-77983236D01*
X47118991Y-77976840D01*
X47099555Y-77966452D01*
X47082524Y-77952476D01*
X47068548Y-77935445D01*
X47058160Y-77916009D01*
X47051764Y-77894928D01*
X47049000Y-77866860D01*
X47049000Y-77403140D01*
X47051764Y-77375072D01*
X47058160Y-77353991D01*
X47068548Y-77334555D01*
X47082524Y-77317524D01*
X47099555Y-77303548D01*
X47118991Y-77293160D01*
X47140072Y-77286764D01*
X47168140Y-77284000D01*
X48631860Y-77284000D01*
X48659928Y-77286764D01*
G37*
G36*
X55859928Y-77286764D02*
G01*
X55881009Y-77293160D01*
X55900445Y-77303548D01*
X55917476Y-77317524D01*
X55931452Y-77334555D01*
X55941840Y-77353991D01*
X55948236Y-77375072D01*
X55951000Y-77403140D01*
X55951000Y-77866860D01*
X55948236Y-77894928D01*
X55941840Y-77916009D01*
X55931452Y-77935445D01*
X55917476Y-77952476D01*
X55900445Y-77966452D01*
X55881009Y-77976840D01*
X55859928Y-77983236D01*
X55831860Y-77986000D01*
X54368140Y-77986000D01*
X54340072Y-77983236D01*
X54318991Y-77976840D01*
X54299555Y-77966452D01*
X54282524Y-77952476D01*
X54268548Y-77935445D01*
X54258160Y-77916009D01*
X54251764Y-77894928D01*
X54249000Y-77866860D01*
X54249000Y-77403140D01*
X54251764Y-77375072D01*
X54258160Y-77353991D01*
X54268548Y-77334555D01*
X54282524Y-77317524D01*
X54299555Y-77303548D01*
X54318991Y-77293160D01*
X54340072Y-77286764D01*
X54368140Y-77284000D01*
X55831860Y-77284000D01*
X55859928Y-77286764D01*
G37*
G36*
X43650483Y-76078335D02*
G01*
X43819240Y-76148236D01*
X43971118Y-76249718D01*
X44100282Y-76378882D01*
X44201764Y-76530760D01*
X44271665Y-76699517D01*
X44307300Y-76878668D01*
X44307300Y-77061332D01*
X44271665Y-77240483D01*
X44201764Y-77409240D01*
X44100282Y-77561118D01*
X43971118Y-77690282D01*
X43819240Y-77791764D01*
X43650483Y-77861665D01*
X43471332Y-77897300D01*
X43288668Y-77897300D01*
X43109517Y-77861665D01*
X42940760Y-77791764D01*
X42788882Y-77690282D01*
X42659718Y-77561118D01*
X42558236Y-77409240D01*
X42488335Y-77240483D01*
X42452700Y-77061332D01*
X42452700Y-76878668D01*
X42488335Y-76699517D01*
X42558236Y-76530760D01*
X42659718Y-76378882D01*
X42788882Y-76249718D01*
X42940760Y-76148236D01*
X43109517Y-76078335D01*
X43288668Y-76042700D01*
X43471332Y-76042700D01*
X43650483Y-76078335D01*
G37*
G36*
X58890483Y-76078335D02*
G01*
X59059240Y-76148236D01*
X59211118Y-76249718D01*
X59340282Y-76378882D01*
X59441764Y-76530760D01*
X59511665Y-76699517D01*
X59547300Y-76878668D01*
X59547300Y-77061332D01*
X59511665Y-77240483D01*
X59441764Y-77409240D01*
X59340282Y-77561118D01*
X59211118Y-77690282D01*
X59059240Y-77791764D01*
X58890483Y-77861665D01*
X58711332Y-77897300D01*
X58528668Y-77897300D01*
X58349517Y-77861665D01*
X58180760Y-77791764D01*
X58028882Y-77690282D01*
X57899718Y-77561118D01*
X57798236Y-77409240D01*
X57728335Y-77240483D01*
X57692700Y-77061332D01*
X57692700Y-76878668D01*
X57728335Y-76699517D01*
X57798236Y-76530760D01*
X57899718Y-76378882D01*
X58028882Y-76249718D01*
X58180760Y-76148236D01*
X58349517Y-76078335D01*
X58528668Y-76042700D01*
X58711332Y-76042700D01*
X58890483Y-76078335D01*
G37*
G36*
X82806564Y-74689389D02*
G01*
X82985600Y-74763548D01*
X82997835Y-74768616D01*
X83065743Y-74813991D01*
X83169973Y-74883635D01*
X83316365Y-75030027D01*
X83431385Y-75202167D01*
X83510611Y-75393436D01*
X83551000Y-75596484D01*
X83551000Y-75803516D01*
X83510611Y-76006564D01*
X83431385Y-76197833D01*
X83431384Y-76197835D01*
X83316365Y-76369973D01*
X83169973Y-76516365D01*
X82997835Y-76631384D01*
X82997834Y-76631385D01*
X82997833Y-76631385D01*
X82806564Y-76710611D01*
X82603516Y-76751000D01*
X82396484Y-76751000D01*
X82193436Y-76710611D01*
X82002167Y-76631385D01*
X82002166Y-76631385D01*
X82002165Y-76631384D01*
X81830027Y-76516365D01*
X81683635Y-76369973D01*
X81568616Y-76197835D01*
X81568615Y-76197833D01*
X81489389Y-76006564D01*
X81449000Y-75803516D01*
X81449000Y-75596484D01*
X81489389Y-75393436D01*
X81568615Y-75202167D01*
X81683635Y-75030027D01*
X81830027Y-74883635D01*
X81934257Y-74813991D01*
X82002165Y-74768616D01*
X82014400Y-74763548D01*
X82193436Y-74689389D01*
X82396484Y-74649000D01*
X82603516Y-74649000D01*
X82806564Y-74689389D01*
G37*
G36*
X55859928Y-76016764D02*
G01*
X55881009Y-76023160D01*
X55900445Y-76033548D01*
X55917476Y-76047524D01*
X55931452Y-76064555D01*
X55941840Y-76083991D01*
X55948236Y-76105072D01*
X55951000Y-76133140D01*
X55951000Y-76596860D01*
X55948236Y-76624928D01*
X55941840Y-76646009D01*
X55931452Y-76665445D01*
X55917476Y-76682476D01*
X55900445Y-76696452D01*
X55881009Y-76706840D01*
X55859928Y-76713236D01*
X55831860Y-76716000D01*
X54368140Y-76716000D01*
X54340072Y-76713236D01*
X54318991Y-76706840D01*
X54299555Y-76696452D01*
X54282524Y-76682476D01*
X54268548Y-76665445D01*
X54258160Y-76646009D01*
X54251764Y-76624928D01*
X54249000Y-76596860D01*
X54249000Y-76133140D01*
X54251764Y-76105072D01*
X54258160Y-76083991D01*
X54268548Y-76064555D01*
X54282524Y-76047524D01*
X54299555Y-76033548D01*
X54318991Y-76023160D01*
X54340072Y-76016764D01*
X54368140Y-76014000D01*
X55831860Y-76014000D01*
X55859928Y-76016764D01*
G37*
G36*
X48659928Y-76016764D02*
G01*
X48681009Y-76023160D01*
X48700445Y-76033548D01*
X48717476Y-76047524D01*
X48731452Y-76064555D01*
X48741840Y-76083991D01*
X48748236Y-76105072D01*
X48751000Y-76133140D01*
X48751000Y-76596860D01*
X48748236Y-76624928D01*
X48741840Y-76646009D01*
X48731452Y-76665445D01*
X48717476Y-76682476D01*
X48700445Y-76696452D01*
X48681009Y-76706840D01*
X48659928Y-76713236D01*
X48631860Y-76716000D01*
X47168140Y-76716000D01*
X47140072Y-76713236D01*
X47118991Y-76706840D01*
X47099555Y-76696452D01*
X47082524Y-76682476D01*
X47068548Y-76665445D01*
X47058160Y-76646009D01*
X47051764Y-76624928D01*
X47049000Y-76596860D01*
X47049000Y-76133140D01*
X47051764Y-76105072D01*
X47058160Y-76083991D01*
X47068548Y-76064555D01*
X47082524Y-76047524D01*
X47099555Y-76033548D01*
X47118991Y-76023160D01*
X47140072Y-76016764D01*
X47168140Y-76014000D01*
X48631860Y-76014000D01*
X48659928Y-76016764D01*
G37*
G36*
X125651000Y-76151000D02*
G01*
X124649000Y-76151000D01*
X124649000Y-74849000D01*
X125651000Y-74849000D01*
X125651000Y-76151000D01*
G37*
G36*
X122351000Y-76151000D02*
G01*
X121349000Y-76151000D01*
X121349000Y-74849000D01*
X122351000Y-74849000D01*
X122351000Y-76151000D01*
G37*
G36*
X48659928Y-74746764D02*
G01*
X48681009Y-74753160D01*
X48700445Y-74763548D01*
X48717476Y-74777524D01*
X48731452Y-74794555D01*
X48741840Y-74813991D01*
X48748236Y-74835072D01*
X48751000Y-74863140D01*
X48751000Y-75326860D01*
X48748236Y-75354928D01*
X48741840Y-75376009D01*
X48731452Y-75395445D01*
X48717476Y-75412476D01*
X48700445Y-75426452D01*
X48681009Y-75436840D01*
X48659928Y-75443236D01*
X48631860Y-75446000D01*
X47168140Y-75446000D01*
X47140072Y-75443236D01*
X47118991Y-75436840D01*
X47099555Y-75426452D01*
X47082524Y-75412476D01*
X47068548Y-75395445D01*
X47058160Y-75376009D01*
X47051764Y-75354928D01*
X47049000Y-75326860D01*
X47049000Y-74863140D01*
X47051764Y-74835072D01*
X47058160Y-74813991D01*
X47068548Y-74794555D01*
X47082524Y-74777524D01*
X47099555Y-74763548D01*
X47118991Y-74753160D01*
X47140072Y-74746764D01*
X47168140Y-74744000D01*
X48631860Y-74744000D01*
X48659928Y-74746764D01*
G37*
G36*
X55859928Y-74746764D02*
G01*
X55881009Y-74753160D01*
X55900445Y-74763548D01*
X55917476Y-74777524D01*
X55931452Y-74794555D01*
X55941840Y-74813991D01*
X55948236Y-74835072D01*
X55951000Y-74863140D01*
X55951000Y-75326860D01*
X55948236Y-75354928D01*
X55941840Y-75376009D01*
X55931452Y-75395445D01*
X55917476Y-75412476D01*
X55900445Y-75426452D01*
X55881009Y-75436840D01*
X55859928Y-75443236D01*
X55831860Y-75446000D01*
X54368140Y-75446000D01*
X54340072Y-75443236D01*
X54318991Y-75436840D01*
X54299555Y-75426452D01*
X54282524Y-75412476D01*
X54268548Y-75395445D01*
X54258160Y-75376009D01*
X54251764Y-75354928D01*
X54249000Y-75326860D01*
X54249000Y-74863140D01*
X54251764Y-74835072D01*
X54258160Y-74813991D01*
X54268548Y-74794555D01*
X54282524Y-74777524D01*
X54299555Y-74763548D01*
X54318991Y-74753160D01*
X54340072Y-74746764D01*
X54368140Y-74744000D01*
X55831860Y-74744000D01*
X55859928Y-74746764D01*
G37*
G36*
X58890483Y-73538335D02*
G01*
X59059240Y-73608236D01*
X59211118Y-73709718D01*
X59340282Y-73838882D01*
X59441764Y-73990760D01*
X59511665Y-74159517D01*
X59547300Y-74338668D01*
X59547300Y-74521332D01*
X59511665Y-74700483D01*
X59441764Y-74869240D01*
X59340282Y-75021118D01*
X59211118Y-75150282D01*
X59059240Y-75251764D01*
X58890483Y-75321665D01*
X58711332Y-75357300D01*
X58528668Y-75357300D01*
X58349517Y-75321665D01*
X58180760Y-75251764D01*
X58028882Y-75150282D01*
X57899718Y-75021118D01*
X57798236Y-74869240D01*
X57728335Y-74700483D01*
X57692700Y-74521332D01*
X57692700Y-74338668D01*
X57728335Y-74159517D01*
X57798236Y-73990760D01*
X57899718Y-73838882D01*
X58028882Y-73709718D01*
X58180760Y-73608236D01*
X58349517Y-73538335D01*
X58528668Y-73502700D01*
X58711332Y-73502700D01*
X58890483Y-73538335D01*
G37*
G36*
X43650483Y-73538335D02*
G01*
X43819240Y-73608236D01*
X43971118Y-73709718D01*
X44100282Y-73838882D01*
X44201764Y-73990760D01*
X44271665Y-74159517D01*
X44307300Y-74338668D01*
X44307300Y-74521332D01*
X44271665Y-74700483D01*
X44201764Y-74869240D01*
X44100282Y-75021118D01*
X43971118Y-75150282D01*
X43819240Y-75251764D01*
X43650483Y-75321665D01*
X43471332Y-75357300D01*
X43288668Y-75357300D01*
X43109517Y-75321665D01*
X42940760Y-75251764D01*
X42788882Y-75150282D01*
X42659718Y-75021118D01*
X42558236Y-74869240D01*
X42488335Y-74700483D01*
X42452700Y-74521332D01*
X42452700Y-74338668D01*
X42488335Y-74159517D01*
X42558236Y-73990760D01*
X42659718Y-73838882D01*
X42788882Y-73709718D01*
X42940760Y-73608236D01*
X43109517Y-73538335D01*
X43288668Y-73502700D01*
X43471332Y-73502700D01*
X43650483Y-73538335D01*
G37*
G36*
X87806564Y-72589389D02*
G01*
X87997833Y-72668615D01*
X87997835Y-72668616D01*
X88121131Y-72751000D01*
X88169973Y-72783635D01*
X88316365Y-72930027D01*
X88431385Y-73102167D01*
X88510611Y-73293436D01*
X88551000Y-73496484D01*
X88551000Y-73703516D01*
X88510611Y-73906564D01*
X88475736Y-73990759D01*
X88431384Y-74097835D01*
X88316365Y-74269973D01*
X88169973Y-74416365D01*
X87997835Y-74531384D01*
X87997834Y-74531385D01*
X87997833Y-74531385D01*
X87806564Y-74610611D01*
X87603516Y-74651000D01*
X87396484Y-74651000D01*
X87193436Y-74610611D01*
X87002167Y-74531385D01*
X87002166Y-74531385D01*
X87002165Y-74531384D01*
X86830027Y-74416365D01*
X86683635Y-74269973D01*
X86568616Y-74097835D01*
X86524264Y-73990759D01*
X86489389Y-73906564D01*
X86449000Y-73703516D01*
X86449000Y-73496484D01*
X86489389Y-73293436D01*
X86568615Y-73102167D01*
X86683635Y-72930027D01*
X86830027Y-72783635D01*
X86878869Y-72751000D01*
X87002165Y-72668616D01*
X87002167Y-72668615D01*
X87193436Y-72589389D01*
X87396484Y-72549000D01*
X87603516Y-72549000D01*
X87806564Y-72589389D01*
G37*
G36*
X134351000Y-74601000D02*
G01*
X133399000Y-74601000D01*
X133399000Y-72899000D01*
X134351000Y-72899000D01*
X134351000Y-74601000D01*
G37*
G36*
X132601000Y-74601000D02*
G01*
X131649000Y-74601000D01*
X131649000Y-72899000D01*
X132601000Y-72899000D01*
X132601000Y-74601000D01*
G37*
G36*
X48730483Y-70998335D02*
G01*
X48899240Y-71068236D01*
X49051118Y-71169718D01*
X49180282Y-71298882D01*
X49281764Y-71450760D01*
X49351665Y-71619517D01*
X49387300Y-71798668D01*
X49387300Y-71981332D01*
X49351665Y-72160483D01*
X49281764Y-72329240D01*
X49180282Y-72481118D01*
X49051118Y-72610282D01*
X48899240Y-72711764D01*
X48730483Y-72781665D01*
X48551332Y-72817300D01*
X48368668Y-72817300D01*
X48189517Y-72781665D01*
X48020760Y-72711764D01*
X47868882Y-72610282D01*
X47739718Y-72481118D01*
X47638236Y-72329240D01*
X47568335Y-72160483D01*
X47532700Y-71981332D01*
X47532700Y-71798668D01*
X47568335Y-71619517D01*
X47638236Y-71450760D01*
X47739718Y-71298882D01*
X47868882Y-71169718D01*
X48020760Y-71068236D01*
X48189517Y-70998335D01*
X48368668Y-70962700D01*
X48551332Y-70962700D01*
X48730483Y-70998335D01*
G37*
G36*
X58890483Y-70998335D02*
G01*
X59059240Y-71068236D01*
X59211118Y-71169718D01*
X59340282Y-71298882D01*
X59441764Y-71450760D01*
X59511665Y-71619517D01*
X59547300Y-71798668D01*
X59547300Y-71981332D01*
X59511665Y-72160483D01*
X59441764Y-72329240D01*
X59340282Y-72481118D01*
X59211118Y-72610282D01*
X59059240Y-72711764D01*
X58890483Y-72781665D01*
X58711332Y-72817300D01*
X58528668Y-72817300D01*
X58349517Y-72781665D01*
X58180760Y-72711764D01*
X58028882Y-72610282D01*
X57899718Y-72481118D01*
X57798236Y-72329240D01*
X57728335Y-72160483D01*
X57692700Y-71981332D01*
X57692700Y-71798668D01*
X57728335Y-71619517D01*
X57798236Y-71450760D01*
X57899718Y-71298882D01*
X58028882Y-71169718D01*
X58180760Y-71068236D01*
X58349517Y-70998335D01*
X58528668Y-70962700D01*
X58711332Y-70962700D01*
X58890483Y-70998335D01*
G37*
G36*
X51270483Y-70998335D02*
G01*
X51439240Y-71068236D01*
X51591118Y-71169718D01*
X51720282Y-71298882D01*
X51821764Y-71450760D01*
X51891665Y-71619517D01*
X51927300Y-71798668D01*
X51927300Y-71981332D01*
X51891665Y-72160483D01*
X51821764Y-72329240D01*
X51720282Y-72481118D01*
X51591118Y-72610282D01*
X51439240Y-72711764D01*
X51270483Y-72781665D01*
X51091332Y-72817300D01*
X50908668Y-72817300D01*
X50729517Y-72781665D01*
X50560760Y-72711764D01*
X50408882Y-72610282D01*
X50279718Y-72481118D01*
X50178236Y-72329240D01*
X50108335Y-72160483D01*
X50072700Y-71981332D01*
X50072700Y-71798668D01*
X50108335Y-71619517D01*
X50178236Y-71450760D01*
X50279718Y-71298882D01*
X50408882Y-71169718D01*
X50560760Y-71068236D01*
X50729517Y-70998335D01*
X50908668Y-70962700D01*
X51091332Y-70962700D01*
X51270483Y-70998335D01*
G37*
G36*
X46190483Y-70998335D02*
G01*
X46359240Y-71068236D01*
X46511118Y-71169718D01*
X46640282Y-71298882D01*
X46741764Y-71450760D01*
X46811665Y-71619517D01*
X46847300Y-71798668D01*
X46847300Y-71981332D01*
X46811665Y-72160483D01*
X46741764Y-72329240D01*
X46640282Y-72481118D01*
X46511118Y-72610282D01*
X46359240Y-72711764D01*
X46190483Y-72781665D01*
X46011332Y-72817300D01*
X45828668Y-72817300D01*
X45649517Y-72781665D01*
X45480760Y-72711764D01*
X45328882Y-72610282D01*
X45199718Y-72481118D01*
X45098236Y-72329240D01*
X45028335Y-72160483D01*
X44992700Y-71981332D01*
X44992700Y-71798668D01*
X45028335Y-71619517D01*
X45098236Y-71450760D01*
X45199718Y-71298882D01*
X45328882Y-71169718D01*
X45480760Y-71068236D01*
X45649517Y-70998335D01*
X45828668Y-70962700D01*
X46011332Y-70962700D01*
X46190483Y-70998335D01*
G37*
G36*
X43650483Y-70998335D02*
G01*
X43819240Y-71068236D01*
X43971118Y-71169718D01*
X44100282Y-71298882D01*
X44201764Y-71450760D01*
X44271665Y-71619517D01*
X44307300Y-71798668D01*
X44307300Y-71981332D01*
X44271665Y-72160483D01*
X44201764Y-72329240D01*
X44100282Y-72481118D01*
X43971118Y-72610282D01*
X43819240Y-72711764D01*
X43650483Y-72781665D01*
X43471332Y-72817300D01*
X43288668Y-72817300D01*
X43109517Y-72781665D01*
X42940760Y-72711764D01*
X42788882Y-72610282D01*
X42659718Y-72481118D01*
X42558236Y-72329240D01*
X42488335Y-72160483D01*
X42452700Y-71981332D01*
X42452700Y-71798668D01*
X42488335Y-71619517D01*
X42558236Y-71450760D01*
X42659718Y-71298882D01*
X42788882Y-71169718D01*
X42940760Y-71068236D01*
X43109517Y-70998335D01*
X43288668Y-70962700D01*
X43471332Y-70962700D01*
X43650483Y-70998335D01*
G37*
G36*
X123897985Y-69293860D02*
G01*
X124010748Y-69316290D01*
X124142741Y-69370963D01*
X124329408Y-69448283D01*
X124616196Y-69639909D01*
X124860091Y-69883804D01*
X125051717Y-70170592D01*
X125183710Y-70489253D01*
X125251000Y-70827540D01*
X125251000Y-71172460D01*
X125225853Y-71298881D01*
X125195643Y-71450759D01*
X125183710Y-71510747D01*
X125051717Y-71829408D01*
X124860091Y-72116196D01*
X124616196Y-72360091D01*
X124329408Y-72551717D01*
X124142741Y-72629037D01*
X124010748Y-72683710D01*
X123897985Y-72706140D01*
X123672460Y-72751000D01*
X123327540Y-72751000D01*
X123102015Y-72706140D01*
X122989252Y-72683710D01*
X122857259Y-72629037D01*
X122670592Y-72551717D01*
X122383804Y-72360091D01*
X122139909Y-72116196D01*
X121948283Y-71829408D01*
X121816290Y-71510747D01*
X121804358Y-71450759D01*
X121774147Y-71298881D01*
X121749000Y-71172460D01*
X121749000Y-70827540D01*
X121816290Y-70489253D01*
X121948283Y-70170592D01*
X122139909Y-69883804D01*
X122383804Y-69639909D01*
X122670592Y-69448283D01*
X122857259Y-69370963D01*
X122989252Y-69316290D01*
X123102015Y-69293860D01*
X123327540Y-69249000D01*
X123672460Y-69249000D01*
X123897985Y-69293860D01*
G37*
G36*
X68351000Y-72651000D02*
G01*
X67349000Y-72651000D01*
X67349000Y-71349000D01*
X68351000Y-71349000D01*
X68351000Y-72651000D01*
G37*
G36*
X107651000Y-72651000D02*
G01*
X106649000Y-72651000D01*
X106649000Y-71349000D01*
X107651000Y-71349000D01*
X107651000Y-72651000D01*
G37*
G36*
X104351000Y-72651000D02*
G01*
X103349000Y-72651000D01*
X103349000Y-71349000D01*
X104351000Y-71349000D01*
X104351000Y-72651000D01*
G37*
G36*
X71651000Y-72651000D02*
G01*
X70649000Y-72651000D01*
X70649000Y-71349000D01*
X71651000Y-71349000D01*
X71651000Y-72651000D01*
G37*
G36*
X118113512Y-70103927D02*
G01*
X118262812Y-70133624D01*
X118426784Y-70201544D01*
X118574354Y-70300147D01*
X118699853Y-70425646D01*
X118798456Y-70573216D01*
X118866376Y-70737188D01*
X118901000Y-70911259D01*
X118901000Y-71088741D01*
X118866376Y-71262812D01*
X118798456Y-71426784D01*
X118699853Y-71574354D01*
X118574354Y-71699853D01*
X118426784Y-71798456D01*
X118262812Y-71866376D01*
X118113512Y-71896073D01*
X118088742Y-71901000D01*
X117911258Y-71901000D01*
X117886488Y-71896073D01*
X117737188Y-71866376D01*
X117573216Y-71798456D01*
X117425646Y-71699853D01*
X117300147Y-71574354D01*
X117201544Y-71426784D01*
X117133624Y-71262812D01*
X117099000Y-71088741D01*
X117099000Y-70911259D01*
X117133624Y-70737188D01*
X117201544Y-70573216D01*
X117300147Y-70425646D01*
X117425646Y-70300147D01*
X117573216Y-70201544D01*
X117737188Y-70133624D01*
X117886488Y-70103927D01*
X117911258Y-70099000D01*
X118088742Y-70099000D01*
X118113512Y-70103927D01*
G37*
G36*
X129113512Y-70103927D02*
G01*
X129262812Y-70133624D01*
X129426784Y-70201544D01*
X129574354Y-70300147D01*
X129699853Y-70425646D01*
X129798456Y-70573216D01*
X129866376Y-70737188D01*
X129901000Y-70911259D01*
X129901000Y-71088741D01*
X129866376Y-71262812D01*
X129798456Y-71426784D01*
X129699853Y-71574354D01*
X129574354Y-71699853D01*
X129426784Y-71798456D01*
X129262812Y-71866376D01*
X129113512Y-71896073D01*
X129088742Y-71901000D01*
X128911258Y-71901000D01*
X128886488Y-71896073D01*
X128737188Y-71866376D01*
X128573216Y-71798456D01*
X128425646Y-71699853D01*
X128300147Y-71574354D01*
X128201544Y-71426784D01*
X128133624Y-71262812D01*
X128099000Y-71088741D01*
X128099000Y-70911259D01*
X128133624Y-70737188D01*
X128201544Y-70573216D01*
X128300147Y-70425646D01*
X128425646Y-70300147D01*
X128573216Y-70201544D01*
X128737188Y-70133624D01*
X128886488Y-70103927D01*
X128911258Y-70099000D01*
X129088742Y-70099000D01*
X129113512Y-70103927D01*
G37*
G36*
X132601000Y-71101000D02*
G01*
X131649000Y-71101000D01*
X131649000Y-69399000D01*
X132601000Y-69399000D01*
X132601000Y-71101000D01*
G37*
G36*
X134351000Y-71101000D02*
G01*
X133399000Y-71101000D01*
X133399000Y-69399000D01*
X134351000Y-69399000D01*
X134351000Y-71101000D01*
G37*
G36*
X58890483Y-68458335D02*
G01*
X59059240Y-68528236D01*
X59211118Y-68629718D01*
X59340282Y-68758882D01*
X59441764Y-68910760D01*
X59511665Y-69079517D01*
X59547300Y-69258668D01*
X59547300Y-69441332D01*
X59511665Y-69620483D01*
X59441764Y-69789240D01*
X59340282Y-69941118D01*
X59211118Y-70070282D01*
X59059240Y-70171764D01*
X58890483Y-70241665D01*
X58711332Y-70277300D01*
X58528668Y-70277300D01*
X58349517Y-70241665D01*
X58180760Y-70171764D01*
X58028882Y-70070282D01*
X57899718Y-69941118D01*
X57798236Y-69789240D01*
X57728335Y-69620483D01*
X57692700Y-69441332D01*
X57692700Y-69258668D01*
X57728335Y-69079517D01*
X57798236Y-68910760D01*
X57899718Y-68758882D01*
X58028882Y-68629718D01*
X58180760Y-68528236D01*
X58349517Y-68458335D01*
X58528668Y-68422700D01*
X58711332Y-68422700D01*
X58890483Y-68458335D01*
G37*
G36*
X43650483Y-68458335D02*
G01*
X43819240Y-68528236D01*
X43971118Y-68629718D01*
X44100282Y-68758882D01*
X44201764Y-68910760D01*
X44271665Y-69079517D01*
X44307300Y-69258668D01*
X44307300Y-69441332D01*
X44271665Y-69620483D01*
X44201764Y-69789240D01*
X44100282Y-69941118D01*
X43971118Y-70070282D01*
X43819240Y-70171764D01*
X43650483Y-70241665D01*
X43471332Y-70277300D01*
X43288668Y-70277300D01*
X43109517Y-70241665D01*
X42940760Y-70171764D01*
X42788882Y-70070282D01*
X42659718Y-69941118D01*
X42558236Y-69789240D01*
X42488335Y-69620483D01*
X42452700Y-69441332D01*
X42452700Y-69258668D01*
X42488335Y-69079517D01*
X42558236Y-68910760D01*
X42659718Y-68758882D01*
X42788882Y-68629718D01*
X42940760Y-68528236D01*
X43109517Y-68458335D01*
X43288668Y-68422700D01*
X43471332Y-68422700D01*
X43650483Y-68458335D01*
G37*
G36*
X69897985Y-65793860D02*
G01*
X70010748Y-65816290D01*
X70142741Y-65870963D01*
X70329408Y-65948283D01*
X70616196Y-66139909D01*
X70860091Y-66383804D01*
X71051717Y-66670592D01*
X71183710Y-66989253D01*
X71251000Y-67327540D01*
X71251000Y-67672460D01*
X71183710Y-68010747D01*
X71051717Y-68329408D01*
X70860091Y-68616196D01*
X70616196Y-68860091D01*
X70329408Y-69051717D01*
X70142741Y-69129037D01*
X70010748Y-69183710D01*
X69897985Y-69206140D01*
X69672460Y-69251000D01*
X69327540Y-69251000D01*
X69102015Y-69206140D01*
X68989252Y-69183710D01*
X68857259Y-69129037D01*
X68670592Y-69051717D01*
X68383804Y-68860091D01*
X68139909Y-68616196D01*
X67948283Y-68329408D01*
X67816290Y-68010747D01*
X67749000Y-67672460D01*
X67749000Y-67327540D01*
X67816290Y-66989253D01*
X67948283Y-66670592D01*
X68139909Y-66383804D01*
X68383804Y-66139909D01*
X68670592Y-65948283D01*
X68857259Y-65870963D01*
X68989252Y-65816290D01*
X69102015Y-65793860D01*
X69327540Y-65749000D01*
X69672460Y-65749000D01*
X69897985Y-65793860D01*
G37*
G36*
X105897985Y-65793860D02*
G01*
X106010748Y-65816290D01*
X106142741Y-65870963D01*
X106329408Y-65948283D01*
X106616196Y-66139909D01*
X106860091Y-66383804D01*
X107051717Y-66670592D01*
X107183710Y-66989253D01*
X107251000Y-67327540D01*
X107251000Y-67672460D01*
X107183710Y-68010747D01*
X107051717Y-68329408D01*
X106860091Y-68616196D01*
X106616196Y-68860091D01*
X106329408Y-69051717D01*
X106142741Y-69129037D01*
X106010748Y-69183710D01*
X105897985Y-69206140D01*
X105672460Y-69251000D01*
X105327540Y-69251000D01*
X105102015Y-69206140D01*
X104989252Y-69183710D01*
X104857259Y-69129037D01*
X104670592Y-69051717D01*
X104383804Y-68860091D01*
X104139909Y-68616196D01*
X103948283Y-68329408D01*
X103816290Y-68010747D01*
X103749000Y-67672460D01*
X103749000Y-67327540D01*
X103816290Y-66989253D01*
X103948283Y-66670592D01*
X104139909Y-66383804D01*
X104383804Y-66139909D01*
X104670592Y-65948283D01*
X104857259Y-65870963D01*
X104989252Y-65816290D01*
X105102015Y-65793860D01*
X105327540Y-65749000D01*
X105672460Y-65749000D01*
X105897985Y-65793860D01*
G37*
G36*
X111113512Y-66603927D02*
G01*
X111262812Y-66633624D01*
X111426784Y-66701544D01*
X111574354Y-66800147D01*
X111699853Y-66925646D01*
X111798456Y-67073216D01*
X111866376Y-67237188D01*
X111901000Y-67411259D01*
X111901000Y-67588741D01*
X111866376Y-67762812D01*
X111798456Y-67926784D01*
X111699853Y-68074354D01*
X111574354Y-68199853D01*
X111426784Y-68298456D01*
X111262812Y-68366376D01*
X111113512Y-68396073D01*
X111088742Y-68401000D01*
X110911258Y-68401000D01*
X110886488Y-68396073D01*
X110737188Y-68366376D01*
X110573216Y-68298456D01*
X110425646Y-68199853D01*
X110300147Y-68074354D01*
X110201544Y-67926784D01*
X110133624Y-67762812D01*
X110099000Y-67588741D01*
X110099000Y-67411259D01*
X110133624Y-67237188D01*
X110201544Y-67073216D01*
X110300147Y-66925646D01*
X110425646Y-66800147D01*
X110573216Y-66701544D01*
X110737188Y-66633624D01*
X110886488Y-66603927D01*
X110911258Y-66599000D01*
X111088742Y-66599000D01*
X111113512Y-66603927D01*
G37*
G36*
X100113512Y-66603927D02*
G01*
X100262812Y-66633624D01*
X100426784Y-66701544D01*
X100574354Y-66800147D01*
X100699853Y-66925646D01*
X100798456Y-67073216D01*
X100866376Y-67237188D01*
X100901000Y-67411259D01*
X100901000Y-67588741D01*
X100866376Y-67762812D01*
X100798456Y-67926784D01*
X100699853Y-68074354D01*
X100574354Y-68199853D01*
X100426784Y-68298456D01*
X100262812Y-68366376D01*
X100113512Y-68396073D01*
X100088742Y-68401000D01*
X99911258Y-68401000D01*
X99886488Y-68396073D01*
X99737188Y-68366376D01*
X99573216Y-68298456D01*
X99425646Y-68199853D01*
X99300147Y-68074354D01*
X99201544Y-67926784D01*
X99133624Y-67762812D01*
X99099000Y-67588741D01*
X99099000Y-67411259D01*
X99133624Y-67237188D01*
X99201544Y-67073216D01*
X99300147Y-66925646D01*
X99425646Y-66800147D01*
X99573216Y-66701544D01*
X99737188Y-66633624D01*
X99886488Y-66603927D01*
X99911258Y-66599000D01*
X100088742Y-66599000D01*
X100113512Y-66603927D01*
G37*
G36*
X75113512Y-66603927D02*
G01*
X75262812Y-66633624D01*
X75426784Y-66701544D01*
X75574354Y-66800147D01*
X75699853Y-66925646D01*
X75798456Y-67073216D01*
X75866376Y-67237188D01*
X75901000Y-67411259D01*
X75901000Y-67588741D01*
X75866376Y-67762812D01*
X75798456Y-67926784D01*
X75699853Y-68074354D01*
X75574354Y-68199853D01*
X75426784Y-68298456D01*
X75262812Y-68366376D01*
X75113512Y-68396073D01*
X75088742Y-68401000D01*
X74911258Y-68401000D01*
X74886488Y-68396073D01*
X74737188Y-68366376D01*
X74573216Y-68298456D01*
X74425646Y-68199853D01*
X74300147Y-68074354D01*
X74201544Y-67926784D01*
X74133624Y-67762812D01*
X74099000Y-67588741D01*
X74099000Y-67411259D01*
X74133624Y-67237188D01*
X74201544Y-67073216D01*
X74300147Y-66925646D01*
X74425646Y-66800147D01*
X74573216Y-66701544D01*
X74737188Y-66633624D01*
X74886488Y-66603927D01*
X74911258Y-66599000D01*
X75088742Y-66599000D01*
X75113512Y-66603927D01*
G37*
G36*
X64113512Y-66603927D02*
G01*
X64262812Y-66633624D01*
X64426784Y-66701544D01*
X64574354Y-66800147D01*
X64699853Y-66925646D01*
X64798456Y-67073216D01*
X64866376Y-67237188D01*
X64901000Y-67411259D01*
X64901000Y-67588741D01*
X64866376Y-67762812D01*
X64798456Y-67926784D01*
X64699853Y-68074354D01*
X64574354Y-68199853D01*
X64426784Y-68298456D01*
X64262812Y-68366376D01*
X64113512Y-68396073D01*
X64088742Y-68401000D01*
X63911258Y-68401000D01*
X63886488Y-68396073D01*
X63737188Y-68366376D01*
X63573216Y-68298456D01*
X63425646Y-68199853D01*
X63300147Y-68074354D01*
X63201544Y-67926784D01*
X63133624Y-67762812D01*
X63099000Y-67588741D01*
X63099000Y-67411259D01*
X63133624Y-67237188D01*
X63201544Y-67073216D01*
X63300147Y-66925646D01*
X63425646Y-66800147D01*
X63573216Y-66701544D01*
X63737188Y-66633624D01*
X63886488Y-66603927D01*
X63911258Y-66599000D01*
X64088742Y-66599000D01*
X64113512Y-66603927D01*
G37*
G36*
X118806564Y-66189389D02*
G01*
X118997833Y-66268615D01*
X118997835Y-66268616D01*
X119169973Y-66383635D01*
X119316365Y-66530027D01*
X119410288Y-66670592D01*
X119431385Y-66702167D01*
X119510611Y-66893436D01*
X119551000Y-67096484D01*
X119551000Y-67303516D01*
X119510611Y-67506564D01*
X119441895Y-67672460D01*
X119431384Y-67697835D01*
X119316365Y-67869973D01*
X119169973Y-68016365D01*
X118997835Y-68131384D01*
X118997834Y-68131385D01*
X118997833Y-68131385D01*
X118806564Y-68210611D01*
X118603516Y-68251000D01*
X118396484Y-68251000D01*
X118193436Y-68210611D01*
X118002167Y-68131385D01*
X118002166Y-68131385D01*
X118002165Y-68131384D01*
X117830027Y-68016365D01*
X117683635Y-67869973D01*
X117568616Y-67697835D01*
X117558105Y-67672460D01*
X117489389Y-67506564D01*
X117449000Y-67303516D01*
X117449000Y-67096484D01*
X117489389Y-66893436D01*
X117568615Y-66702167D01*
X117589713Y-66670592D01*
X117683635Y-66530027D01*
X117830027Y-66383635D01*
X118002165Y-66268616D01*
X118002167Y-66268615D01*
X118193436Y-66189389D01*
X118396484Y-66149000D01*
X118603516Y-66149000D01*
X118806564Y-66189389D01*
G37*
G36*
X58890483Y-65918335D02*
G01*
X59059240Y-65988236D01*
X59211118Y-66089718D01*
X59340282Y-66218882D01*
X59441764Y-66370760D01*
X59511665Y-66539517D01*
X59547300Y-66718668D01*
X59547300Y-66901332D01*
X59511665Y-67080483D01*
X59441764Y-67249240D01*
X59340282Y-67401118D01*
X59211118Y-67530282D01*
X59059240Y-67631764D01*
X58890483Y-67701665D01*
X58711332Y-67737300D01*
X58528668Y-67737300D01*
X58349517Y-67701665D01*
X58180760Y-67631764D01*
X58028882Y-67530282D01*
X57899718Y-67401118D01*
X57798236Y-67249240D01*
X57728335Y-67080483D01*
X57692700Y-66901332D01*
X57692700Y-66718668D01*
X57728335Y-66539517D01*
X57798236Y-66370760D01*
X57899718Y-66218882D01*
X58028882Y-66089718D01*
X58180760Y-65988236D01*
X58349517Y-65918335D01*
X58528668Y-65882700D01*
X58711332Y-65882700D01*
X58890483Y-65918335D01*
G37*
G36*
X43650483Y-65918335D02*
G01*
X43819240Y-65988236D01*
X43971118Y-66089718D01*
X44100282Y-66218882D01*
X44201764Y-66370760D01*
X44271665Y-66539517D01*
X44307300Y-66718668D01*
X44307300Y-66901332D01*
X44271665Y-67080483D01*
X44201764Y-67249240D01*
X44100282Y-67401118D01*
X43971118Y-67530282D01*
X43819240Y-67631764D01*
X43650483Y-67701665D01*
X43471332Y-67737300D01*
X43288668Y-67737300D01*
X43109517Y-67701665D01*
X42940760Y-67631764D01*
X42788882Y-67530282D01*
X42659718Y-67401118D01*
X42558236Y-67249240D01*
X42488335Y-67080483D01*
X42452700Y-66901332D01*
X42452700Y-66718668D01*
X42488335Y-66539517D01*
X42558236Y-66370760D01*
X42659718Y-66218882D01*
X42788882Y-66089718D01*
X42940760Y-65988236D01*
X43109517Y-65918335D01*
X43288668Y-65882700D01*
X43471332Y-65882700D01*
X43650483Y-65918335D01*
G37*
G36*
X89651000Y-67651000D02*
G01*
X88649000Y-67651000D01*
X88649000Y-66349000D01*
X89651000Y-66349000D01*
X89651000Y-67651000D01*
G37*
G36*
X86351000Y-67651000D02*
G01*
X85349000Y-67651000D01*
X85349000Y-66349000D01*
X86351000Y-66349000D01*
X86351000Y-67651000D01*
G37*
G36*
X123806564Y-64089389D02*
G01*
X123997833Y-64168615D01*
X123997835Y-64168616D01*
X124041561Y-64197833D01*
X124169973Y-64283635D01*
X124316365Y-64430027D01*
X124431385Y-64602167D01*
X124510611Y-64793436D01*
X124551000Y-64996484D01*
X124551000Y-65203516D01*
X124510611Y-65406564D01*
X124431385Y-65597833D01*
X124431384Y-65597835D01*
X124316365Y-65769973D01*
X124169973Y-65916365D01*
X123997835Y-66031384D01*
X123997834Y-66031385D01*
X123997833Y-66031385D01*
X123806564Y-66110611D01*
X123603516Y-66151000D01*
X123396484Y-66151000D01*
X123193436Y-66110611D01*
X123002167Y-66031385D01*
X123002166Y-66031385D01*
X123002165Y-66031384D01*
X122830027Y-65916365D01*
X122683635Y-65769973D01*
X122568616Y-65597835D01*
X122568615Y-65597833D01*
X122489389Y-65406564D01*
X122449000Y-65203516D01*
X122449000Y-64996484D01*
X122489389Y-64793436D01*
X122568615Y-64602167D01*
X122683635Y-64430027D01*
X122830027Y-64283635D01*
X122958439Y-64197833D01*
X123002165Y-64168616D01*
X123002167Y-64168615D01*
X123193436Y-64089389D01*
X123396484Y-64049000D01*
X123603516Y-64049000D01*
X123806564Y-64089389D01*
G37*
G36*
X58890483Y-63378335D02*
G01*
X59059240Y-63448236D01*
X59211118Y-63549718D01*
X59340282Y-63678882D01*
X59441764Y-63830760D01*
X59511665Y-63999517D01*
X59547300Y-64178668D01*
X59547300Y-64361332D01*
X59511665Y-64540483D01*
X59441764Y-64709240D01*
X59340282Y-64861118D01*
X59211118Y-64990282D01*
X59059240Y-65091764D01*
X58890483Y-65161665D01*
X58711332Y-65197300D01*
X58528668Y-65197300D01*
X58349517Y-65161665D01*
X58180760Y-65091764D01*
X58028882Y-64990282D01*
X57899718Y-64861118D01*
X57798236Y-64709240D01*
X57728335Y-64540483D01*
X57692700Y-64361332D01*
X57692700Y-64178668D01*
X57728335Y-63999517D01*
X57798236Y-63830760D01*
X57899718Y-63678882D01*
X58028882Y-63549718D01*
X58180760Y-63448236D01*
X58349517Y-63378335D01*
X58528668Y-63342700D01*
X58711332Y-63342700D01*
X58890483Y-63378335D01*
G37*
G36*
X43650483Y-63378335D02*
G01*
X43819240Y-63448236D01*
X43971118Y-63549718D01*
X44100282Y-63678882D01*
X44201764Y-63830760D01*
X44271665Y-63999517D01*
X44307300Y-64178668D01*
X44307300Y-64361332D01*
X44271665Y-64540483D01*
X44201764Y-64709240D01*
X44100282Y-64861118D01*
X43971118Y-64990282D01*
X43819240Y-65091764D01*
X43650483Y-65161665D01*
X43471332Y-65197300D01*
X43288668Y-65197300D01*
X43109517Y-65161665D01*
X42940760Y-65091764D01*
X42788882Y-64990282D01*
X42659718Y-64861118D01*
X42558236Y-64709240D01*
X42488335Y-64540483D01*
X42452700Y-64361332D01*
X42452700Y-64178668D01*
X42488335Y-63999517D01*
X42558236Y-63830760D01*
X42659718Y-63678882D01*
X42788882Y-63549718D01*
X42940760Y-63448236D01*
X43109517Y-63378335D01*
X43288668Y-63342700D01*
X43471332Y-63342700D01*
X43650483Y-63378335D01*
G37*
G36*
X100806564Y-62689389D02*
G01*
X100983823Y-62762812D01*
X100997835Y-62768616D01*
X101169973Y-62883635D01*
X101316365Y-63030027D01*
X101429839Y-63199852D01*
X101431385Y-63202167D01*
X101510611Y-63393436D01*
X101551000Y-63596484D01*
X101551000Y-63803516D01*
X101510611Y-64006564D01*
X101476303Y-64089390D01*
X101431384Y-64197835D01*
X101316365Y-64369973D01*
X101169973Y-64516365D01*
X100997835Y-64631384D01*
X100997834Y-64631385D01*
X100997833Y-64631385D01*
X100806564Y-64710611D01*
X100603516Y-64751000D01*
X100396484Y-64751000D01*
X100193436Y-64710611D01*
X100002167Y-64631385D01*
X100002166Y-64631385D01*
X100002165Y-64631384D01*
X99830027Y-64516365D01*
X99683635Y-64369973D01*
X99568616Y-64197835D01*
X99523697Y-64089390D01*
X99489389Y-64006564D01*
X99449000Y-63803516D01*
X99449000Y-63596484D01*
X99489389Y-63393436D01*
X99568615Y-63202167D01*
X99570162Y-63199852D01*
X99683635Y-63030027D01*
X99830027Y-62883635D01*
X100002165Y-62768616D01*
X100016177Y-62762812D01*
X100193436Y-62689389D01*
X100396484Y-62649000D01*
X100603516Y-62649000D01*
X100806564Y-62689389D01*
G37*
G36*
X64806564Y-62689389D02*
G01*
X64983823Y-62762812D01*
X64997835Y-62768616D01*
X65169973Y-62883635D01*
X65316365Y-63030027D01*
X65429839Y-63199852D01*
X65431385Y-63202167D01*
X65510611Y-63393436D01*
X65551000Y-63596484D01*
X65551000Y-63803516D01*
X65510611Y-64006564D01*
X65476303Y-64089390D01*
X65431384Y-64197835D01*
X65316365Y-64369973D01*
X65169973Y-64516365D01*
X64997835Y-64631384D01*
X64997834Y-64631385D01*
X64997833Y-64631385D01*
X64806564Y-64710611D01*
X64603516Y-64751000D01*
X64396484Y-64751000D01*
X64193436Y-64710611D01*
X64002167Y-64631385D01*
X64002166Y-64631385D01*
X64002165Y-64631384D01*
X63830027Y-64516365D01*
X63683635Y-64369973D01*
X63568616Y-64197835D01*
X63523697Y-64089390D01*
X63489389Y-64006564D01*
X63449000Y-63803516D01*
X63449000Y-63596484D01*
X63489389Y-63393436D01*
X63568615Y-63202167D01*
X63570162Y-63199852D01*
X63683635Y-63030027D01*
X63830027Y-62883635D01*
X64002165Y-62768616D01*
X64016177Y-62762812D01*
X64193436Y-62689389D01*
X64396484Y-62649000D01*
X64603516Y-62649000D01*
X64806564Y-62689389D01*
G37*
G36*
X87897985Y-60793860D02*
G01*
X88010748Y-60816290D01*
X88063969Y-60838335D01*
X88329408Y-60948283D01*
X88616196Y-61139909D01*
X88860091Y-61383804D01*
X89051717Y-61670592D01*
X89183710Y-61989253D01*
X89251000Y-62327540D01*
X89251000Y-62672460D01*
X89183710Y-63010747D01*
X89051717Y-63329408D01*
X88860091Y-63616196D01*
X88616196Y-63860091D01*
X88329408Y-64051717D01*
X88142741Y-64129037D01*
X88010748Y-64183710D01*
X87897985Y-64206140D01*
X87672460Y-64251000D01*
X87327540Y-64251000D01*
X87102015Y-64206140D01*
X86989252Y-64183710D01*
X86857259Y-64129037D01*
X86670592Y-64051717D01*
X86383804Y-63860091D01*
X86139909Y-63616196D01*
X85948283Y-63329408D01*
X85816290Y-63010747D01*
X85749000Y-62672460D01*
X85749000Y-62327540D01*
X85816290Y-61989253D01*
X85948283Y-61670592D01*
X86139909Y-61383804D01*
X86383804Y-61139909D01*
X86670592Y-60948283D01*
X86936031Y-60838335D01*
X86989252Y-60816290D01*
X87102015Y-60793860D01*
X87327540Y-60749000D01*
X87672460Y-60749000D01*
X87897985Y-60793860D01*
G37*
G36*
X134801000Y-64051000D02*
G01*
X130699000Y-64051000D01*
X130699000Y-59949000D01*
X134801000Y-59949000D01*
X134801000Y-64051000D01*
G37*
G36*
X82113512Y-61603927D02*
G01*
X82262812Y-61633624D01*
X82426784Y-61701544D01*
X82574354Y-61800147D01*
X82699853Y-61925646D01*
X82798456Y-62073216D01*
X82866376Y-62237188D01*
X82901000Y-62411259D01*
X82901000Y-62588741D01*
X82866376Y-62762812D01*
X82798456Y-62926784D01*
X82699853Y-63074354D01*
X82574354Y-63199853D01*
X82426784Y-63298456D01*
X82262812Y-63366376D01*
X82113512Y-63396073D01*
X82088742Y-63401000D01*
X81911258Y-63401000D01*
X81886488Y-63396073D01*
X81737188Y-63366376D01*
X81573216Y-63298456D01*
X81425646Y-63199853D01*
X81300147Y-63074354D01*
X81201544Y-62926784D01*
X81133624Y-62762812D01*
X81099000Y-62588741D01*
X81099000Y-62411259D01*
X81133624Y-62237188D01*
X81201544Y-62073216D01*
X81300147Y-61925646D01*
X81425646Y-61800147D01*
X81573216Y-61701544D01*
X81737188Y-61633624D01*
X81886488Y-61603927D01*
X81911258Y-61599000D01*
X82088742Y-61599000D01*
X82113512Y-61603927D01*
G37*
G36*
X93113512Y-61603927D02*
G01*
X93262812Y-61633624D01*
X93426784Y-61701544D01*
X93574354Y-61800147D01*
X93699853Y-61925646D01*
X93798456Y-62073216D01*
X93866376Y-62237188D01*
X93901000Y-62411259D01*
X93901000Y-62588741D01*
X93866376Y-62762812D01*
X93798456Y-62926784D01*
X93699853Y-63074354D01*
X93574354Y-63199853D01*
X93426784Y-63298456D01*
X93262812Y-63366376D01*
X93113512Y-63396073D01*
X93088742Y-63401000D01*
X92911258Y-63401000D01*
X92886488Y-63396073D01*
X92737188Y-63366376D01*
X92573216Y-63298456D01*
X92425646Y-63199853D01*
X92300147Y-63074354D01*
X92201544Y-62926784D01*
X92133624Y-62762812D01*
X92099000Y-62588741D01*
X92099000Y-62411259D01*
X92133624Y-62237188D01*
X92201544Y-62073216D01*
X92300147Y-61925646D01*
X92425646Y-61800147D01*
X92573216Y-61701544D01*
X92737188Y-61633624D01*
X92886488Y-61603927D01*
X92911258Y-61599000D01*
X93088742Y-61599000D01*
X93113512Y-61603927D01*
G37*
G36*
X58890483Y-60838335D02*
G01*
X59059240Y-60908236D01*
X59211118Y-61009718D01*
X59340282Y-61138882D01*
X59441764Y-61290760D01*
X59511665Y-61459517D01*
X59547300Y-61638668D01*
X59547300Y-61821332D01*
X59511665Y-62000483D01*
X59441764Y-62169240D01*
X59340282Y-62321118D01*
X59211118Y-62450282D01*
X59059240Y-62551764D01*
X58890483Y-62621665D01*
X58711332Y-62657300D01*
X58528668Y-62657300D01*
X58349517Y-62621665D01*
X58180760Y-62551764D01*
X58028882Y-62450282D01*
X57899718Y-62321118D01*
X57798236Y-62169240D01*
X57728335Y-62000483D01*
X57692700Y-61821332D01*
X57692700Y-61638668D01*
X57728335Y-61459517D01*
X57798236Y-61290760D01*
X57899718Y-61138882D01*
X58028882Y-61009718D01*
X58180760Y-60908236D01*
X58349517Y-60838335D01*
X58528668Y-60802700D01*
X58711332Y-60802700D01*
X58890483Y-60838335D01*
G37*
G36*
X43650483Y-60838335D02*
G01*
X43819240Y-60908236D01*
X43971118Y-61009718D01*
X44100282Y-61138882D01*
X44201764Y-61290760D01*
X44271665Y-61459517D01*
X44307300Y-61638668D01*
X44307300Y-61821332D01*
X44271665Y-62000483D01*
X44201764Y-62169240D01*
X44100282Y-62321118D01*
X43971118Y-62450282D01*
X43819240Y-62551764D01*
X43650483Y-62621665D01*
X43471332Y-62657300D01*
X43288668Y-62657300D01*
X43109517Y-62621665D01*
X42940760Y-62551764D01*
X42788882Y-62450282D01*
X42659718Y-62321118D01*
X42558236Y-62169240D01*
X42488335Y-62000483D01*
X42452700Y-61821332D01*
X42452700Y-61638668D01*
X42488335Y-61459517D01*
X42558236Y-61290760D01*
X42659718Y-61138882D01*
X42788882Y-61009718D01*
X42940760Y-60908236D01*
X43109517Y-60838335D01*
X43288668Y-60802700D01*
X43471332Y-60802700D01*
X43650483Y-60838335D01*
G37*
G36*
X69806564Y-60589389D02*
G01*
X69997833Y-60668615D01*
X69997835Y-60668616D01*
X70169973Y-60783635D01*
X70316365Y-60930027D01*
X70369614Y-61009719D01*
X70431385Y-61102167D01*
X70510611Y-61293436D01*
X70551000Y-61496484D01*
X70551000Y-61703516D01*
X70510611Y-61906564D01*
X70441581Y-62073218D01*
X70431384Y-62097835D01*
X70316365Y-62269973D01*
X70169973Y-62416365D01*
X69997835Y-62531384D01*
X69997834Y-62531385D01*
X69997833Y-62531385D01*
X69806564Y-62610611D01*
X69603516Y-62651000D01*
X69396484Y-62651000D01*
X69193436Y-62610611D01*
X69002167Y-62531385D01*
X69002166Y-62531385D01*
X69002165Y-62531384D01*
X68830027Y-62416365D01*
X68683635Y-62269973D01*
X68568616Y-62097835D01*
X68558419Y-62073218D01*
X68489389Y-61906564D01*
X68449000Y-61703516D01*
X68449000Y-61496484D01*
X68489389Y-61293436D01*
X68568615Y-61102167D01*
X68630387Y-61009719D01*
X68683635Y-60930027D01*
X68830027Y-60783635D01*
X69002165Y-60668616D01*
X69002167Y-60668615D01*
X69193436Y-60589389D01*
X69396484Y-60549000D01*
X69603516Y-60549000D01*
X69806564Y-60589389D01*
G37*
G36*
X105806564Y-60589389D02*
G01*
X105997833Y-60668615D01*
X105997835Y-60668616D01*
X106169973Y-60783635D01*
X106316365Y-60930027D01*
X106369614Y-61009719D01*
X106431385Y-61102167D01*
X106510611Y-61293436D01*
X106551000Y-61496484D01*
X106551000Y-61703516D01*
X106510611Y-61906564D01*
X106441581Y-62073218D01*
X106431384Y-62097835D01*
X106316365Y-62269973D01*
X106169973Y-62416365D01*
X105997835Y-62531384D01*
X105997834Y-62531385D01*
X105997833Y-62531385D01*
X105806564Y-62610611D01*
X105603516Y-62651000D01*
X105396484Y-62651000D01*
X105193436Y-62610611D01*
X105002167Y-62531385D01*
X105002166Y-62531385D01*
X105002165Y-62531384D01*
X104830027Y-62416365D01*
X104683635Y-62269973D01*
X104568616Y-62097835D01*
X104558419Y-62073218D01*
X104489389Y-61906564D01*
X104449000Y-61703516D01*
X104449000Y-61496484D01*
X104489389Y-61293436D01*
X104568615Y-61102167D01*
X104630387Y-61009719D01*
X104683635Y-60930027D01*
X104830027Y-60783635D01*
X105002165Y-60668616D01*
X105002167Y-60668615D01*
X105193436Y-60589389D01*
X105396484Y-60549000D01*
X105603516Y-60549000D01*
X105806564Y-60589389D01*
G37*
G36*
X55248228Y-59681703D02*
G01*
X55403100Y-59745853D01*
X55542481Y-59838985D01*
X55661015Y-59957519D01*
X55754147Y-60096900D01*
X55818297Y-60251772D01*
X55851000Y-60416184D01*
X55851000Y-60583816D01*
X55818297Y-60748228D01*
X55754147Y-60903100D01*
X55661015Y-61042481D01*
X55542481Y-61161015D01*
X55403100Y-61254147D01*
X55248228Y-61318297D01*
X55083816Y-61351000D01*
X54916184Y-61351000D01*
X54751772Y-61318297D01*
X54596900Y-61254147D01*
X54457519Y-61161015D01*
X54338985Y-61042481D01*
X54245853Y-60903100D01*
X54181703Y-60748228D01*
X54149000Y-60583816D01*
X54149000Y-60416184D01*
X54181703Y-60251772D01*
X54245853Y-60096900D01*
X54338985Y-59957519D01*
X54457519Y-59838985D01*
X54596900Y-59745853D01*
X54751772Y-59681703D01*
X54916184Y-59649000D01*
X55083816Y-59649000D01*
X55248228Y-59681703D01*
G37*
G36*
X47628228Y-59681703D02*
G01*
X47783100Y-59745853D01*
X47922481Y-59838985D01*
X48041015Y-59957519D01*
X48134147Y-60096900D01*
X48198297Y-60251772D01*
X48231000Y-60416184D01*
X48231000Y-60583816D01*
X48198297Y-60748228D01*
X48134147Y-60903100D01*
X48041015Y-61042481D01*
X47922481Y-61161015D01*
X47783100Y-61254147D01*
X47628228Y-61318297D01*
X47463816Y-61351000D01*
X47296184Y-61351000D01*
X47131772Y-61318297D01*
X46976900Y-61254147D01*
X46837519Y-61161015D01*
X46718985Y-61042481D01*
X46625853Y-60903100D01*
X46561703Y-60748228D01*
X46529000Y-60583816D01*
X46529000Y-60416184D01*
X46561703Y-60251772D01*
X46625853Y-60096900D01*
X46718985Y-59957519D01*
X46837519Y-59838985D01*
X46976900Y-59745853D01*
X47131772Y-59681703D01*
X47296184Y-59649000D01*
X47463816Y-59649000D01*
X47628228Y-59681703D01*
G37*
G36*
X43650483Y-58298335D02*
G01*
X43819240Y-58368236D01*
X43971118Y-58469718D01*
X44100282Y-58598882D01*
X44201764Y-58750760D01*
X44271665Y-58919517D01*
X44307300Y-59098668D01*
X44307300Y-59281332D01*
X44271665Y-59460483D01*
X44201764Y-59629240D01*
X44100282Y-59781118D01*
X43971118Y-59910282D01*
X43819240Y-60011764D01*
X43650483Y-60081665D01*
X43471332Y-60117300D01*
X43288668Y-60117300D01*
X43109517Y-60081665D01*
X42940760Y-60011764D01*
X42788882Y-59910282D01*
X42659718Y-59781118D01*
X42558236Y-59629240D01*
X42488335Y-59460483D01*
X42452700Y-59281332D01*
X42452700Y-59098668D01*
X42488335Y-58919517D01*
X42558236Y-58750760D01*
X42659718Y-58598882D01*
X42788882Y-58469718D01*
X42940760Y-58368236D01*
X43109517Y-58298335D01*
X43288668Y-58262700D01*
X43471332Y-58262700D01*
X43650483Y-58298335D01*
G37*
G36*
X58890483Y-58298335D02*
G01*
X59059240Y-58368236D01*
X59211118Y-58469718D01*
X59340282Y-58598882D01*
X59441764Y-58750760D01*
X59511665Y-58919517D01*
X59547300Y-59098668D01*
X59547300Y-59281332D01*
X59511665Y-59460483D01*
X59441764Y-59629240D01*
X59340282Y-59781118D01*
X59211118Y-59910282D01*
X59059240Y-60011764D01*
X58890483Y-60081665D01*
X58711332Y-60117300D01*
X58528668Y-60117300D01*
X58349517Y-60081665D01*
X58180760Y-60011764D01*
X58028882Y-59910282D01*
X57899718Y-59781118D01*
X57798236Y-59629240D01*
X57728335Y-59460483D01*
X57692700Y-59281332D01*
X57692700Y-59098668D01*
X57728335Y-58919517D01*
X57798236Y-58750760D01*
X57899718Y-58598882D01*
X58028882Y-58469718D01*
X58180760Y-58368236D01*
X58349517Y-58298335D01*
X58528668Y-58262700D01*
X58711332Y-58262700D01*
X58890483Y-58298335D01*
G37*
G36*
X82806564Y-57689389D02*
G01*
X82997833Y-57768615D01*
X82997835Y-57768616D01*
X83169973Y-57883635D01*
X83316365Y-58030027D01*
X83324687Y-58042481D01*
X83431385Y-58202167D01*
X83510611Y-58393436D01*
X83551000Y-58596484D01*
X83551000Y-58803516D01*
X83510611Y-59006564D01*
X83472460Y-59098668D01*
X83431384Y-59197835D01*
X83316365Y-59369973D01*
X83169973Y-59516365D01*
X82997835Y-59631384D01*
X82997834Y-59631385D01*
X82997833Y-59631385D01*
X82806564Y-59710611D01*
X82603516Y-59751000D01*
X82396484Y-59751000D01*
X82193436Y-59710611D01*
X82002167Y-59631385D01*
X82002166Y-59631385D01*
X82002165Y-59631384D01*
X81830027Y-59516365D01*
X81683635Y-59369973D01*
X81568616Y-59197835D01*
X81527540Y-59098668D01*
X81489389Y-59006564D01*
X81449000Y-58803516D01*
X81449000Y-58596484D01*
X81489389Y-58393436D01*
X81568615Y-58202167D01*
X81675314Y-58042481D01*
X81683635Y-58030027D01*
X81830027Y-57883635D01*
X82002165Y-57768616D01*
X82002167Y-57768615D01*
X82193436Y-57689389D01*
X82396484Y-57649000D01*
X82603516Y-57649000D01*
X82806564Y-57689389D01*
G37*
G36*
X47628228Y-56681703D02*
G01*
X47783100Y-56745853D01*
X47922481Y-56838985D01*
X48041015Y-56957519D01*
X48134147Y-57096900D01*
X48198297Y-57251772D01*
X48231000Y-57416184D01*
X48231000Y-57583816D01*
X48198297Y-57748228D01*
X48134147Y-57903100D01*
X48041015Y-58042481D01*
X47922481Y-58161015D01*
X47783100Y-58254147D01*
X47628228Y-58318297D01*
X47463816Y-58351000D01*
X47296184Y-58351000D01*
X47131772Y-58318297D01*
X46976900Y-58254147D01*
X46837519Y-58161015D01*
X46718985Y-58042481D01*
X46625853Y-57903100D01*
X46561703Y-57748228D01*
X46529000Y-57583816D01*
X46529000Y-57416184D01*
X46561703Y-57251772D01*
X46625853Y-57096900D01*
X46718985Y-56957519D01*
X46837519Y-56838985D01*
X46976900Y-56745853D01*
X47131772Y-56681703D01*
X47296184Y-56649000D01*
X47463816Y-56649000D01*
X47628228Y-56681703D01*
G37*
G36*
X55248228Y-56681703D02*
G01*
X55403100Y-56745853D01*
X55542481Y-56838985D01*
X55661015Y-56957519D01*
X55754147Y-57096900D01*
X55818297Y-57251772D01*
X55851000Y-57416184D01*
X55851000Y-57583816D01*
X55818297Y-57748228D01*
X55754147Y-57903100D01*
X55661015Y-58042481D01*
X55542481Y-58161015D01*
X55403100Y-58254147D01*
X55248228Y-58318297D01*
X55083816Y-58351000D01*
X54916184Y-58351000D01*
X54751772Y-58318297D01*
X54596900Y-58254147D01*
X54457519Y-58161015D01*
X54338985Y-58042481D01*
X54245853Y-57903100D01*
X54181703Y-57748228D01*
X54149000Y-57583816D01*
X54149000Y-57416184D01*
X54181703Y-57251772D01*
X54245853Y-57096900D01*
X54338985Y-56957519D01*
X54457519Y-56838985D01*
X54596900Y-56745853D01*
X54751772Y-56681703D01*
X54916184Y-56649000D01*
X55083816Y-56649000D01*
X55248228Y-56681703D01*
G37*
G36*
X134801000Y-58051000D02*
G01*
X130699000Y-58051000D01*
X130699000Y-53949000D01*
X134801000Y-53949000D01*
X134801000Y-58051000D01*
G37*
G36*
X87806564Y-55589389D02*
G01*
X87997833Y-55668615D01*
X87997835Y-55668616D01*
X88169973Y-55783635D01*
X88316365Y-55930027D01*
X88402463Y-56058881D01*
X88431385Y-56102167D01*
X88510611Y-56293436D01*
X88551000Y-56496484D01*
X88551000Y-56703516D01*
X88510611Y-56906564D01*
X88463685Y-57019853D01*
X88431384Y-57097835D01*
X88316365Y-57269973D01*
X88169973Y-57416365D01*
X87997835Y-57531384D01*
X87997834Y-57531385D01*
X87997833Y-57531385D01*
X87806564Y-57610611D01*
X87603516Y-57651000D01*
X87396484Y-57651000D01*
X87193436Y-57610611D01*
X87002167Y-57531385D01*
X87002166Y-57531385D01*
X87002165Y-57531384D01*
X86830027Y-57416365D01*
X86683635Y-57269973D01*
X86568616Y-57097835D01*
X86536315Y-57019853D01*
X86489389Y-56906564D01*
X86449000Y-56703516D01*
X86449000Y-56496484D01*
X86489389Y-56293436D01*
X86568615Y-56102167D01*
X86597538Y-56058881D01*
X86683635Y-55930027D01*
X86830027Y-55783635D01*
X87002165Y-55668616D01*
X87002167Y-55668615D01*
X87193436Y-55589389D01*
X87396484Y-55549000D01*
X87603516Y-55549000D01*
X87806564Y-55589389D01*
G37*
G36*
X58890483Y-55758335D02*
G01*
X59059240Y-55828236D01*
X59211118Y-55929718D01*
X59340282Y-56058882D01*
X59441764Y-56210760D01*
X59511665Y-56379517D01*
X59547300Y-56558668D01*
X59547300Y-56741332D01*
X59511665Y-56920483D01*
X59441764Y-57089240D01*
X59340282Y-57241118D01*
X59211118Y-57370282D01*
X59059240Y-57471764D01*
X58890483Y-57541665D01*
X58711332Y-57577300D01*
X58528668Y-57577300D01*
X58349517Y-57541665D01*
X58180760Y-57471764D01*
X58028882Y-57370282D01*
X57899718Y-57241118D01*
X57798236Y-57089240D01*
X57728335Y-56920483D01*
X57692700Y-56741332D01*
X57692700Y-56558668D01*
X57728335Y-56379517D01*
X57798236Y-56210760D01*
X57899718Y-56058882D01*
X58028882Y-55929718D01*
X58180760Y-55828236D01*
X58349517Y-55758335D01*
X58528668Y-55722700D01*
X58711332Y-55722700D01*
X58890483Y-55758335D01*
G37*
G36*
X43650483Y-55758335D02*
G01*
X43819240Y-55828236D01*
X43971118Y-55929718D01*
X44100282Y-56058882D01*
X44201764Y-56210760D01*
X44271665Y-56379517D01*
X44307300Y-56558668D01*
X44307300Y-56741332D01*
X44271665Y-56920483D01*
X44201764Y-57089240D01*
X44100282Y-57241118D01*
X43971118Y-57370282D01*
X43819240Y-57471764D01*
X43650483Y-57541665D01*
X43471332Y-57577300D01*
X43288668Y-57577300D01*
X43109517Y-57541665D01*
X42940760Y-57471764D01*
X42788882Y-57370282D01*
X42659718Y-57241118D01*
X42558236Y-57089240D01*
X42488335Y-56920483D01*
X42452700Y-56741332D01*
X42452700Y-56558668D01*
X42488335Y-56379517D01*
X42558236Y-56210760D01*
X42659718Y-56058882D01*
X42788882Y-55929718D01*
X42940760Y-55828236D01*
X43109517Y-55758335D01*
X43288668Y-55722700D01*
X43471332Y-55722700D01*
X43650483Y-55758335D01*
G37*
G36*
X129951000Y-57551000D02*
G01*
X128649000Y-57551000D01*
X128649000Y-54949000D01*
X129951000Y-54949000D01*
X129951000Y-57551000D01*
G37*
G36*
X126951000Y-57551000D02*
G01*
X125649000Y-57551000D01*
X125649000Y-54949000D01*
X126951000Y-54949000D01*
X126951000Y-57551000D01*
G37*
G36*
X122951000Y-57551000D02*
G01*
X121649000Y-57551000D01*
X121649000Y-54949000D01*
X122951000Y-54949000D01*
X122951000Y-57551000D01*
G37*
G36*
X98513512Y-55423927D02*
G01*
X98662812Y-55453624D01*
X98826784Y-55521544D01*
X98974354Y-55620147D01*
X99099853Y-55745646D01*
X99198456Y-55893216D01*
X99266376Y-56057188D01*
X99301000Y-56231259D01*
X99301000Y-56408741D01*
X99266376Y-56582812D01*
X99198456Y-56746784D01*
X99099853Y-56894354D01*
X98974354Y-57019853D01*
X98826784Y-57118456D01*
X98662812Y-57186376D01*
X98513512Y-57216073D01*
X98488742Y-57221000D01*
X98311258Y-57221000D01*
X98286488Y-57216073D01*
X98137188Y-57186376D01*
X97973216Y-57118456D01*
X97825646Y-57019853D01*
X97700147Y-56894354D01*
X97601544Y-56746784D01*
X97533624Y-56582812D01*
X97499000Y-56408741D01*
X97499000Y-56231259D01*
X97533624Y-56057188D01*
X97601544Y-55893216D01*
X97700147Y-55745646D01*
X97825646Y-55620147D01*
X97973216Y-55521544D01*
X98137188Y-55453624D01*
X98286488Y-55423927D01*
X98311258Y-55419000D01*
X98488742Y-55419000D01*
X98513512Y-55423927D01*
G37*
G36*
X58890483Y-53218335D02*
G01*
X59059240Y-53288236D01*
X59211118Y-53389718D01*
X59340282Y-53518882D01*
X59441764Y-53670760D01*
X59511665Y-53839517D01*
X59547300Y-54018668D01*
X59547300Y-54201332D01*
X59511665Y-54380483D01*
X59441764Y-54549240D01*
X59340282Y-54701118D01*
X59211118Y-54830282D01*
X59059240Y-54931764D01*
X58890483Y-55001665D01*
X58711332Y-55037300D01*
X58528668Y-55037300D01*
X58349517Y-55001665D01*
X58180760Y-54931764D01*
X58028882Y-54830282D01*
X57899718Y-54701118D01*
X57798236Y-54549240D01*
X57728335Y-54380483D01*
X57692700Y-54201332D01*
X57692700Y-54018668D01*
X57728335Y-53839517D01*
X57798236Y-53670760D01*
X57899718Y-53518882D01*
X58028882Y-53389718D01*
X58180760Y-53288236D01*
X58349517Y-53218335D01*
X58528668Y-53182700D01*
X58711332Y-53182700D01*
X58890483Y-53218335D01*
G37*
G36*
X43650483Y-53218335D02*
G01*
X43819240Y-53288236D01*
X43971118Y-53389718D01*
X44100282Y-53518882D01*
X44201764Y-53670760D01*
X44271665Y-53839517D01*
X44307300Y-54018668D01*
X44307300Y-54201332D01*
X44271665Y-54380483D01*
X44201764Y-54549240D01*
X44100282Y-54701118D01*
X43971118Y-54830282D01*
X43819240Y-54931764D01*
X43650483Y-55001665D01*
X43471332Y-55037300D01*
X43288668Y-55037300D01*
X43109517Y-55001665D01*
X42940760Y-54931764D01*
X42788882Y-54830282D01*
X42659718Y-54701118D01*
X42558236Y-54549240D01*
X42488335Y-54380483D01*
X42452700Y-54201332D01*
X42452700Y-54018668D01*
X42488335Y-53839517D01*
X42558236Y-53670760D01*
X42659718Y-53518882D01*
X42788882Y-53389718D01*
X42940760Y-53288236D01*
X43109517Y-53218335D01*
X43288668Y-53182700D01*
X43471332Y-53182700D01*
X43650483Y-53218335D01*
G37*
G36*
X98513512Y-52883927D02*
G01*
X98662812Y-52913624D01*
X98826784Y-52981544D01*
X98974354Y-53080147D01*
X99099853Y-53205646D01*
X99198456Y-53353216D01*
X99266376Y-53517188D01*
X99301000Y-53691259D01*
X99301000Y-53868741D01*
X99266376Y-54042812D01*
X99198456Y-54206784D01*
X99099853Y-54354354D01*
X98974354Y-54479853D01*
X98826784Y-54578456D01*
X98662812Y-54646376D01*
X98513512Y-54676073D01*
X98488742Y-54681000D01*
X98311258Y-54681000D01*
X98286488Y-54676073D01*
X98137188Y-54646376D01*
X97973216Y-54578456D01*
X97825646Y-54479853D01*
X97700147Y-54354354D01*
X97601544Y-54206784D01*
X97533624Y-54042812D01*
X97499000Y-53868741D01*
X97499000Y-53691259D01*
X97533624Y-53517188D01*
X97601544Y-53353216D01*
X97700147Y-53205646D01*
X97825646Y-53080147D01*
X97973216Y-52981544D01*
X98137188Y-52913624D01*
X98286488Y-52883927D01*
X98311258Y-52879000D01*
X98488742Y-52879000D01*
X98513512Y-52883927D01*
G37*
G36*
X131031552Y-52566331D02*
G01*
X131113627Y-52600328D01*
X131113629Y-52600329D01*
X131150813Y-52625175D01*
X131187495Y-52649685D01*
X131250315Y-52712505D01*
X131299672Y-52786373D01*
X131333669Y-52868448D01*
X131351000Y-52955579D01*
X131351000Y-53044421D01*
X131333669Y-53131552D01*
X131302978Y-53205646D01*
X131299671Y-53213629D01*
X131250314Y-53287496D01*
X131187496Y-53350314D01*
X131113629Y-53399671D01*
X131113628Y-53399672D01*
X131113627Y-53399672D01*
X131031552Y-53433669D01*
X130944421Y-53451000D01*
X130855579Y-53451000D01*
X130768448Y-53433669D01*
X130686373Y-53399672D01*
X130686372Y-53399672D01*
X130686371Y-53399671D01*
X130612504Y-53350314D01*
X130549686Y-53287496D01*
X130500329Y-53213629D01*
X130497022Y-53205646D01*
X130466331Y-53131552D01*
X130449000Y-53044421D01*
X130449000Y-52955579D01*
X130466331Y-52868448D01*
X130500328Y-52786373D01*
X130549685Y-52712505D01*
X130612505Y-52649685D01*
X130649187Y-52625175D01*
X130686371Y-52600329D01*
X130686373Y-52600328D01*
X130768448Y-52566331D01*
X130855579Y-52549000D01*
X130944421Y-52549000D01*
X131031552Y-52566331D01*
G37*
G36*
X124031552Y-52566331D02*
G01*
X124113627Y-52600328D01*
X124113629Y-52600329D01*
X124150813Y-52625175D01*
X124187495Y-52649685D01*
X124250315Y-52712505D01*
X124299672Y-52786373D01*
X124333669Y-52868448D01*
X124351000Y-52955579D01*
X124351000Y-53044421D01*
X124333669Y-53131552D01*
X124302978Y-53205646D01*
X124299671Y-53213629D01*
X124250314Y-53287496D01*
X124187496Y-53350314D01*
X124113629Y-53399671D01*
X124113628Y-53399672D01*
X124113627Y-53399672D01*
X124031552Y-53433669D01*
X123944421Y-53451000D01*
X123855579Y-53451000D01*
X123768448Y-53433669D01*
X123686373Y-53399672D01*
X123686372Y-53399672D01*
X123686371Y-53399671D01*
X123612504Y-53350314D01*
X123549686Y-53287496D01*
X123500329Y-53213629D01*
X123497022Y-53205646D01*
X123466331Y-53131552D01*
X123449000Y-53044421D01*
X123449000Y-52955579D01*
X123466331Y-52868448D01*
X123500328Y-52786373D01*
X123549685Y-52712505D01*
X123612505Y-52649685D01*
X123649187Y-52625175D01*
X123686371Y-52600329D01*
X123686373Y-52600328D01*
X123768448Y-52566331D01*
X123855579Y-52549000D01*
X123944421Y-52549000D01*
X124031552Y-52566331D01*
G37*
G36*
X43650483Y-50678335D02*
G01*
X43819240Y-50748236D01*
X43971118Y-50849718D01*
X44100282Y-50978882D01*
X44201764Y-51130760D01*
X44271665Y-51299517D01*
X44307300Y-51478668D01*
X44307300Y-51661332D01*
X44271665Y-51840483D01*
X44201764Y-52009240D01*
X44100282Y-52161118D01*
X43971118Y-52290282D01*
X43819240Y-52391764D01*
X43650483Y-52461665D01*
X43471332Y-52497300D01*
X43288668Y-52497300D01*
X43109517Y-52461665D01*
X42940760Y-52391764D01*
X42788882Y-52290282D01*
X42659718Y-52161118D01*
X42558236Y-52009240D01*
X42488335Y-51840483D01*
X42452700Y-51661332D01*
X42452700Y-51478668D01*
X42488335Y-51299517D01*
X42558236Y-51130760D01*
X42659718Y-50978882D01*
X42788882Y-50849718D01*
X42940760Y-50748236D01*
X43109517Y-50678335D01*
X43288668Y-50642700D01*
X43471332Y-50642700D01*
X43650483Y-50678335D01*
G37*
G36*
X58890483Y-50678335D02*
G01*
X59059240Y-50748236D01*
X59211118Y-50849718D01*
X59340282Y-50978882D01*
X59441764Y-51130760D01*
X59511665Y-51299517D01*
X59547300Y-51478668D01*
X59547300Y-51661332D01*
X59511665Y-51840483D01*
X59441764Y-52009240D01*
X59340282Y-52161118D01*
X59211118Y-52290282D01*
X59059240Y-52391764D01*
X58890483Y-52461665D01*
X58711332Y-52497300D01*
X58528668Y-52497300D01*
X58349517Y-52461665D01*
X58180760Y-52391764D01*
X58028882Y-52290282D01*
X57899718Y-52161118D01*
X57798236Y-52009240D01*
X57728335Y-51840483D01*
X57692700Y-51661332D01*
X57692700Y-51478668D01*
X57728335Y-51299517D01*
X57798236Y-51130760D01*
X57899718Y-50978882D01*
X58028882Y-50849718D01*
X58180760Y-50748236D01*
X58349517Y-50678335D01*
X58528668Y-50642700D01*
X58711332Y-50642700D01*
X58890483Y-50678335D01*
G37*
G36*
X98513512Y-50343927D02*
G01*
X98662812Y-50373624D01*
X98826784Y-50441544D01*
X98974354Y-50540147D01*
X99099853Y-50665646D01*
X99198456Y-50813216D01*
X99266376Y-50977188D01*
X99301000Y-51151259D01*
X99301000Y-51328741D01*
X99266376Y-51502812D01*
X99198456Y-51666784D01*
X99099853Y-51814354D01*
X98974354Y-51939853D01*
X98826784Y-52038456D01*
X98662812Y-52106376D01*
X98513512Y-52136073D01*
X98488742Y-52141000D01*
X98311258Y-52141000D01*
X98286488Y-52136073D01*
X98137188Y-52106376D01*
X97973216Y-52038456D01*
X97825646Y-51939853D01*
X97700147Y-51814354D01*
X97601544Y-51666784D01*
X97533624Y-51502812D01*
X97499000Y-51328741D01*
X97499000Y-51151259D01*
X97533624Y-50977188D01*
X97601544Y-50813216D01*
X97700147Y-50665646D01*
X97825646Y-50540147D01*
X97973216Y-50441544D01*
X98137188Y-50373624D01*
X98286488Y-50343927D01*
X98311258Y-50339000D01*
X98488742Y-50339000D01*
X98513512Y-50343927D01*
G37*
G36*
X134801000Y-52051000D02*
G01*
X130699000Y-52051000D01*
X130699000Y-47949000D01*
X134801000Y-47949000D01*
X134801000Y-52051000D01*
G37*
G36*
X121851000Y-51051000D02*
G01*
X120549000Y-51051000D01*
X120549000Y-48449000D01*
X121851000Y-48449000D01*
X121851000Y-51051000D01*
G37*
G36*
X50651000Y-50731000D02*
G01*
X49849000Y-50731000D01*
X49849000Y-49129000D01*
X50651000Y-49129000D01*
X50651000Y-50731000D01*
G37*
G36*
X53651000Y-50731000D02*
G01*
X52849000Y-50731000D01*
X52849000Y-49129000D01*
X53651000Y-49129000D01*
X53651000Y-50731000D01*
G37*
G36*
X49151000Y-50731000D02*
G01*
X48349000Y-50731000D01*
X48349000Y-49129000D01*
X49151000Y-49129000D01*
X49151000Y-50731000D01*
G37*
G36*
X58890483Y-48138335D02*
G01*
X59059240Y-48208236D01*
X59211118Y-48309718D01*
X59340282Y-48438882D01*
X59441764Y-48590760D01*
X59511665Y-48759517D01*
X59547300Y-48938668D01*
X59547300Y-49121332D01*
X59511665Y-49300483D01*
X59441764Y-49469240D01*
X59340282Y-49621118D01*
X59211118Y-49750282D01*
X59059240Y-49851764D01*
X58890483Y-49921665D01*
X58711332Y-49957300D01*
X58528668Y-49957300D01*
X58349517Y-49921665D01*
X58180760Y-49851764D01*
X58028882Y-49750282D01*
X57899718Y-49621118D01*
X57798236Y-49469240D01*
X57728335Y-49300483D01*
X57692700Y-49121332D01*
X57692700Y-48938668D01*
X57728335Y-48759517D01*
X57798236Y-48590760D01*
X57899718Y-48438882D01*
X58028882Y-48309718D01*
X58180760Y-48208236D01*
X58349517Y-48138335D01*
X58528668Y-48102700D01*
X58711332Y-48102700D01*
X58890483Y-48138335D01*
G37*
G36*
X43650483Y-48138335D02*
G01*
X43819240Y-48208236D01*
X43971118Y-48309718D01*
X44100282Y-48438882D01*
X44201764Y-48590760D01*
X44271665Y-48759517D01*
X44307300Y-48938668D01*
X44307300Y-49121332D01*
X44271665Y-49300483D01*
X44201764Y-49469240D01*
X44100282Y-49621118D01*
X43971118Y-49750282D01*
X43819240Y-49851764D01*
X43650483Y-49921665D01*
X43471332Y-49957300D01*
X43288668Y-49957300D01*
X43109517Y-49921665D01*
X42940760Y-49851764D01*
X42788882Y-49750282D01*
X42659718Y-49621118D01*
X42558236Y-49469240D01*
X42488335Y-49300483D01*
X42452700Y-49121332D01*
X42452700Y-48938668D01*
X42488335Y-48759517D01*
X42558236Y-48590760D01*
X42659718Y-48438882D01*
X42788882Y-48309718D01*
X42940760Y-48208236D01*
X43109517Y-48138335D01*
X43288668Y-48102700D01*
X43471332Y-48102700D01*
X43650483Y-48138335D01*
G37*
G36*
X55201000Y-49731000D02*
G01*
X54099000Y-49731000D01*
X54099000Y-48829000D01*
X55201000Y-48829000D01*
X55201000Y-49731000D01*
G37*
G36*
X47901000Y-49731000D02*
G01*
X46799000Y-49731000D01*
X46799000Y-48829000D01*
X47901000Y-48829000D01*
X47901000Y-49731000D01*
G37*
G36*
X99301000Y-49601000D02*
G01*
X97499000Y-49601000D01*
X97499000Y-47799000D01*
X99301000Y-47799000D01*
X99301000Y-49601000D01*
G37*
G36*
X66078231Y-48006705D02*
G01*
X66116967Y-48014410D01*
X66139793Y-48023865D01*
X66189944Y-48044638D01*
X66255622Y-48088523D01*
X66311477Y-48144378D01*
X66355362Y-48210056D01*
X66385590Y-48283034D01*
X66401000Y-48360504D01*
X66401000Y-48439496D01*
X66393295Y-48478231D01*
X66391080Y-48489369D01*
X66385590Y-48516966D01*
X66355362Y-48589944D01*
X66311477Y-48655622D01*
X66255622Y-48711477D01*
X66189944Y-48755362D01*
X66147195Y-48773069D01*
X66116967Y-48785590D01*
X66078231Y-48793295D01*
X66039496Y-48801000D01*
X65960504Y-48801000D01*
X65921769Y-48793295D01*
X65883033Y-48785590D01*
X65852805Y-48773069D01*
X65810056Y-48755362D01*
X65744378Y-48711477D01*
X65688523Y-48655622D01*
X65644638Y-48589944D01*
X65614410Y-48516966D01*
X65608921Y-48489369D01*
X65606705Y-48478231D01*
X65599000Y-48439496D01*
X65599000Y-48360504D01*
X65614410Y-48283034D01*
X65644638Y-48210056D01*
X65688523Y-48144378D01*
X65744378Y-48088523D01*
X65810056Y-48044638D01*
X65860207Y-48023865D01*
X65883033Y-48014410D01*
X65921769Y-48006705D01*
X65960504Y-47999000D01*
X66039496Y-47999000D01*
X66078231Y-48006705D01*
G37*
G36*
X68551000Y-48796000D02*
G01*
X67049000Y-48796000D01*
X67049000Y-47644000D01*
X68551000Y-47644000D01*
X68551000Y-48796000D01*
G37*
G36*
X64951000Y-48796000D02*
G01*
X63449000Y-48796000D01*
X63449000Y-47644000D01*
X64951000Y-47644000D01*
X64951000Y-48796000D01*
G37*
G36*
X49597740Y-47678627D02*
G01*
X49646136Y-47688253D01*
X49683902Y-47703896D01*
X49737311Y-47726019D01*
X49737312Y-47726020D01*
X49819369Y-47780848D01*
X49889152Y-47850631D01*
X49889153Y-47850633D01*
X49943981Y-47932689D01*
X49950737Y-47949000D01*
X49981747Y-48023864D01*
X50001000Y-48120656D01*
X50001000Y-48219344D01*
X49983024Y-48309718D01*
X49981747Y-48316135D01*
X49943981Y-48407311D01*
X49943980Y-48407312D01*
X49889152Y-48489369D01*
X49819369Y-48559152D01*
X49778062Y-48586752D01*
X49737311Y-48613981D01*
X49683902Y-48636104D01*
X49646136Y-48651747D01*
X49597740Y-48661374D01*
X49549345Y-48671000D01*
X49450655Y-48671000D01*
X49402260Y-48661373D01*
X49353864Y-48651747D01*
X49316098Y-48636104D01*
X49262689Y-48613981D01*
X49221938Y-48586752D01*
X49180631Y-48559152D01*
X49110848Y-48489369D01*
X49056020Y-48407312D01*
X49056019Y-48407311D01*
X49018253Y-48316135D01*
X49016977Y-48309718D01*
X48999000Y-48219344D01*
X48999000Y-48120656D01*
X49018253Y-48023864D01*
X49049263Y-47949000D01*
X49056019Y-47932689D01*
X49110847Y-47850633D01*
X49110848Y-47850631D01*
X49180631Y-47780848D01*
X49262688Y-47726020D01*
X49262689Y-47726019D01*
X49316098Y-47703896D01*
X49353864Y-47688253D01*
X49402260Y-47678627D01*
X49450655Y-47669000D01*
X49549345Y-47669000D01*
X49597740Y-47678627D01*
G37*
G36*
X52597740Y-47678627D02*
G01*
X52646136Y-47688253D01*
X52683902Y-47703896D01*
X52737311Y-47726019D01*
X52737312Y-47726020D01*
X52819369Y-47780848D01*
X52889152Y-47850631D01*
X52889153Y-47850633D01*
X52943981Y-47932689D01*
X52950737Y-47949000D01*
X52981747Y-48023864D01*
X53001000Y-48120656D01*
X53001000Y-48219344D01*
X52983024Y-48309718D01*
X52981747Y-48316135D01*
X52943981Y-48407311D01*
X52943980Y-48407312D01*
X52889152Y-48489369D01*
X52819369Y-48559152D01*
X52778062Y-48586752D01*
X52737311Y-48613981D01*
X52683902Y-48636104D01*
X52646136Y-48651747D01*
X52597740Y-48661374D01*
X52549345Y-48671000D01*
X52450655Y-48671000D01*
X52402260Y-48661373D01*
X52353864Y-48651747D01*
X52316098Y-48636104D01*
X52262689Y-48613981D01*
X52221938Y-48586752D01*
X52180631Y-48559152D01*
X52110848Y-48489369D01*
X52056020Y-48407312D01*
X52056019Y-48407311D01*
X52018253Y-48316135D01*
X52016977Y-48309718D01*
X51999000Y-48219344D01*
X51999000Y-48120656D01*
X52018253Y-48023864D01*
X52049263Y-47949000D01*
X52056019Y-47932689D01*
X52110847Y-47850633D01*
X52110848Y-47850631D01*
X52180631Y-47780848D01*
X52262688Y-47726020D01*
X52262689Y-47726019D01*
X52316098Y-47703896D01*
X52353864Y-47688253D01*
X52402260Y-47678627D01*
X52450655Y-47669000D01*
X52549345Y-47669000D01*
X52597740Y-47678627D01*
G37*
G36*
X47901000Y-47521000D02*
G01*
X46799000Y-47521000D01*
X46799000Y-46619000D01*
X47901000Y-46619000D01*
X47901000Y-47521000D01*
G37*
G36*
X55201000Y-47521000D02*
G01*
X54099000Y-47521000D01*
X54099000Y-46619000D01*
X55201000Y-46619000D01*
X55201000Y-47521000D01*
G37*
G36*
X58890483Y-45598335D02*
G01*
X59059240Y-45668236D01*
X59211118Y-45769718D01*
X59340282Y-45898882D01*
X59441764Y-46050760D01*
X59511665Y-46219517D01*
X59547300Y-46398668D01*
X59547300Y-46581332D01*
X59511665Y-46760483D01*
X59441764Y-46929240D01*
X59340282Y-47081118D01*
X59211118Y-47210282D01*
X59059240Y-47311764D01*
X58890483Y-47381665D01*
X58711332Y-47417300D01*
X58528668Y-47417300D01*
X58349517Y-47381665D01*
X58180760Y-47311764D01*
X58028882Y-47210282D01*
X57899718Y-47081118D01*
X57798236Y-46929240D01*
X57728335Y-46760483D01*
X57692700Y-46581332D01*
X57692700Y-46398668D01*
X57728335Y-46219517D01*
X57798236Y-46050760D01*
X57899718Y-45898882D01*
X58028882Y-45769718D01*
X58180760Y-45668236D01*
X58349517Y-45598335D01*
X58528668Y-45562700D01*
X58711332Y-45562700D01*
X58890483Y-45598335D01*
G37*
G36*
X43650483Y-45598335D02*
G01*
X43819240Y-45668236D01*
X43971118Y-45769718D01*
X44100282Y-45898882D01*
X44201764Y-46050760D01*
X44271665Y-46219517D01*
X44307300Y-46398668D01*
X44307300Y-46581332D01*
X44271665Y-46760483D01*
X44201764Y-46929240D01*
X44100282Y-47081118D01*
X43971118Y-47210282D01*
X43819240Y-47311764D01*
X43650483Y-47381665D01*
X43471332Y-47417300D01*
X43288668Y-47417300D01*
X43109517Y-47381665D01*
X42940760Y-47311764D01*
X42788882Y-47210282D01*
X42659718Y-47081118D01*
X42558236Y-46929240D01*
X42488335Y-46760483D01*
X42452700Y-46581332D01*
X42452700Y-46398668D01*
X42488335Y-46219517D01*
X42558236Y-46050760D01*
X42659718Y-45898882D01*
X42788882Y-45769718D01*
X42940760Y-45668236D01*
X43109517Y-45598335D01*
X43288668Y-45562700D01*
X43471332Y-45562700D01*
X43650483Y-45598335D01*
G37*
G36*
X64951000Y-47356000D02*
G01*
X63449000Y-47356000D01*
X63449000Y-46204000D01*
X64951000Y-46204000D01*
X64951000Y-47356000D01*
G37*
G36*
X68551000Y-47356000D02*
G01*
X67049000Y-47356000D01*
X67049000Y-46204000D01*
X68551000Y-46204000D01*
X68551000Y-47356000D01*
G37*
G36*
X66064632Y-46204000D02*
G01*
X66116967Y-46214410D01*
X66129296Y-46219517D01*
X66189944Y-46244638D01*
X66255622Y-46288523D01*
X66311477Y-46344378D01*
X66355362Y-46410056D01*
X66385590Y-46483034D01*
X66401000Y-46560504D01*
X66401000Y-46639496D01*
X66385590Y-46716966D01*
X66355362Y-46789944D01*
X66311477Y-46855622D01*
X66255622Y-46911477D01*
X66189944Y-46955362D01*
X66147195Y-46973069D01*
X66116967Y-46985590D01*
X66078231Y-46993295D01*
X66039496Y-47001000D01*
X65960504Y-47001000D01*
X65921769Y-46993295D01*
X65883033Y-46985590D01*
X65852805Y-46973069D01*
X65810056Y-46955362D01*
X65744378Y-46911477D01*
X65688523Y-46855622D01*
X65644638Y-46789944D01*
X65614410Y-46716966D01*
X65599000Y-46639496D01*
X65599000Y-46560504D01*
X65614410Y-46483034D01*
X65644638Y-46410056D01*
X65688523Y-46344378D01*
X65744378Y-46288523D01*
X65810056Y-46244638D01*
X65870704Y-46219517D01*
X65883033Y-46214410D01*
X65935368Y-46204000D01*
X65960504Y-46199000D01*
X66039496Y-46199000D01*
X66064632Y-46204000D01*
G37*
M02*
