G04 #@! TF.GenerationSoftware,KiCad,Pcbnew,5.1.6*
G04 #@! TF.CreationDate,2020-09-27T23:11:49-05:00*
G04 #@! TF.ProjectId,fissure,66697373-7572-4652-9e6b-696361645f70,rev?*
G04 #@! TF.SameCoordinates,Original*
G04 #@! TF.FileFunction,Legend,Bot*
G04 #@! TF.FilePolarity,Positive*
%FSLAX46Y46*%
G04 Gerber Fmt 4.6, Leading zero omitted, Abs format (unit mm)*
G04 Created by KiCad (PCBNEW 5.1.6) date 2020-09-27 23:11:49*
%MOMM*%
%LPD*%
G01*
G04 APERTURE LIST*
%ADD10C,0.120000*%
%ADD11C,0.150000*%
%ADD12C,0.381000*%
G04 APERTURE END LIST*
D10*
X75500000Y-130000000D02*
G75*
G03*
X75500000Y-130000000I-3500000J0D01*
G01*
X62500000Y-136000000D02*
G75*
G03*
X62500000Y-136000000I-3500000J0D01*
G01*
X33000000Y-64500000D02*
G75*
G03*
X33000000Y-64500000I-3500000J0D01*
G01*
X33500000Y-108500000D02*
G75*
G03*
X33500000Y-108500000I-3500000J0D01*
G01*
X117500000Y-137000000D02*
G75*
G03*
X117500000Y-137000000I-3500000J0D01*
G01*
D11*
X52009523Y-70361904D02*
X52009523Y-69561904D01*
X51819047Y-69561904D01*
X51704761Y-69600000D01*
X51628571Y-69676190D01*
X51590476Y-69752380D01*
X51552380Y-69904761D01*
X51552380Y-70019047D01*
X51590476Y-70171428D01*
X51628571Y-70247619D01*
X51704761Y-70323809D01*
X51819047Y-70361904D01*
X52009523Y-70361904D01*
X50676190Y-70438095D02*
X50752380Y-70400000D01*
X50828571Y-70323809D01*
X50942857Y-70209523D01*
X51019047Y-70171428D01*
X51095238Y-70171428D01*
X51057142Y-70361904D02*
X51133333Y-70323809D01*
X51209523Y-70247619D01*
X51247619Y-70095238D01*
X51247619Y-69828571D01*
X51209523Y-69676190D01*
X51133333Y-69600000D01*
X51057142Y-69561904D01*
X50904761Y-69561904D01*
X50828571Y-69600000D01*
X50752380Y-69676190D01*
X50714285Y-69828571D01*
X50714285Y-70095238D01*
X50752380Y-70247619D01*
X50828571Y-70323809D01*
X50904761Y-70361904D01*
X51057142Y-70361904D01*
X50447619Y-69561904D02*
X49952380Y-69561904D01*
X50219047Y-69866666D01*
X50104761Y-69866666D01*
X50028571Y-69904761D01*
X49990476Y-69942857D01*
X49952380Y-70019047D01*
X49952380Y-70209523D01*
X49990476Y-70285714D01*
X50028571Y-70323809D01*
X50104761Y-70361904D01*
X50333333Y-70361904D01*
X50409523Y-70323809D01*
X50447619Y-70285714D01*
X49509523Y-70361904D02*
X49509523Y-69561904D01*
X49319047Y-69561904D01*
X49204761Y-69600000D01*
X49128571Y-69676190D01*
X49090476Y-69752380D01*
X49052380Y-69904761D01*
X49052380Y-70019047D01*
X49090476Y-70171428D01*
X49128571Y-70247619D01*
X49204761Y-70323809D01*
X49319047Y-70361904D01*
X49509523Y-70361904D01*
X48176190Y-70438095D02*
X48252380Y-70400000D01*
X48328571Y-70323809D01*
X48442857Y-70209523D01*
X48519047Y-70171428D01*
X48595238Y-70171428D01*
X48557142Y-70361904D02*
X48633333Y-70323809D01*
X48709523Y-70247619D01*
X48747619Y-70095238D01*
X48747619Y-69828571D01*
X48709523Y-69676190D01*
X48633333Y-69600000D01*
X48557142Y-69561904D01*
X48404761Y-69561904D01*
X48328571Y-69600000D01*
X48252380Y-69676190D01*
X48214285Y-69828571D01*
X48214285Y-70095238D01*
X48252380Y-70247619D01*
X48328571Y-70323809D01*
X48404761Y-70361904D01*
X48557142Y-70361904D01*
X47909523Y-69638095D02*
X47871428Y-69600000D01*
X47795238Y-69561904D01*
X47604761Y-69561904D01*
X47528571Y-69600000D01*
X47490476Y-69638095D01*
X47452380Y-69714285D01*
X47452380Y-69790476D01*
X47490476Y-69904761D01*
X47947619Y-70361904D01*
X47452380Y-70361904D01*
X66376190Y-74861904D02*
X66376190Y-74061904D01*
X66109523Y-74633333D01*
X65842857Y-74061904D01*
X65842857Y-74861904D01*
X65309523Y-74061904D02*
X65157142Y-74061904D01*
X65080952Y-74100000D01*
X65004761Y-74176190D01*
X64966666Y-74328571D01*
X64966666Y-74595238D01*
X65004761Y-74747619D01*
X65080952Y-74823809D01*
X65157142Y-74861904D01*
X65309523Y-74861904D01*
X65385714Y-74823809D01*
X65461904Y-74747619D01*
X65500000Y-74595238D01*
X65500000Y-74328571D01*
X65461904Y-74176190D01*
X65385714Y-74100000D01*
X65309523Y-74061904D01*
X64661904Y-74823809D02*
X64547619Y-74861904D01*
X64357142Y-74861904D01*
X64280952Y-74823809D01*
X64242857Y-74785714D01*
X64204761Y-74709523D01*
X64204761Y-74633333D01*
X64242857Y-74557142D01*
X64280952Y-74519047D01*
X64357142Y-74480952D01*
X64509523Y-74442857D01*
X64585714Y-74404761D01*
X64623809Y-74366666D01*
X64661904Y-74290476D01*
X64661904Y-74214285D01*
X64623809Y-74138095D01*
X64585714Y-74100000D01*
X64509523Y-74061904D01*
X64319047Y-74061904D01*
X64204761Y-74100000D01*
X63861904Y-74861904D02*
X63861904Y-74061904D01*
X62909523Y-74023809D02*
X63595238Y-75052380D01*
X62642857Y-74861904D02*
X62642857Y-74061904D01*
X62452380Y-74061904D01*
X62338095Y-74100000D01*
X62261904Y-74176190D01*
X62223809Y-74252380D01*
X62185714Y-74404761D01*
X62185714Y-74519047D01*
X62223809Y-74671428D01*
X62261904Y-74747619D01*
X62338095Y-74823809D01*
X62452380Y-74861904D01*
X62642857Y-74861904D01*
X61309523Y-74938095D02*
X61385714Y-74900000D01*
X61461904Y-74823809D01*
X61576190Y-74709523D01*
X61652380Y-74671428D01*
X61728571Y-74671428D01*
X61690476Y-74861904D02*
X61766666Y-74823809D01*
X61842857Y-74747619D01*
X61880952Y-74595238D01*
X61880952Y-74328571D01*
X61842857Y-74176190D01*
X61766666Y-74100000D01*
X61690476Y-74061904D01*
X61538095Y-74061904D01*
X61461904Y-74100000D01*
X61385714Y-74176190D01*
X61347619Y-74328571D01*
X61347619Y-74595238D01*
X61385714Y-74747619D01*
X61461904Y-74823809D01*
X61538095Y-74861904D01*
X61690476Y-74861904D01*
X60852380Y-74061904D02*
X60776190Y-74061904D01*
X60700000Y-74100000D01*
X60661904Y-74138095D01*
X60623809Y-74214285D01*
X60585714Y-74366666D01*
X60585714Y-74557142D01*
X60623809Y-74709523D01*
X60661904Y-74785714D01*
X60700000Y-74823809D01*
X60776190Y-74861904D01*
X60852380Y-74861904D01*
X60928571Y-74823809D01*
X60966666Y-74785714D01*
X61004761Y-74709523D01*
X61042857Y-74557142D01*
X61042857Y-74366666D01*
X61004761Y-74214285D01*
X60966666Y-74138095D01*
X60928571Y-74100000D01*
X60852380Y-74061904D01*
X61633333Y-77285714D02*
X61671428Y-77323809D01*
X61785714Y-77361904D01*
X61861904Y-77361904D01*
X61976190Y-77323809D01*
X62052380Y-77247619D01*
X62090476Y-77171428D01*
X62128571Y-77019047D01*
X62128571Y-76904761D01*
X62090476Y-76752380D01*
X62052380Y-76676190D01*
X61976190Y-76600000D01*
X61861904Y-76561904D01*
X61785714Y-76561904D01*
X61671428Y-76600000D01*
X61633333Y-76638095D01*
X61328571Y-77323809D02*
X61214285Y-77361904D01*
X61023809Y-77361904D01*
X60947619Y-77323809D01*
X60909523Y-77285714D01*
X60871428Y-77209523D01*
X60871428Y-77133333D01*
X60909523Y-77057142D01*
X60947619Y-77019047D01*
X61023809Y-76980952D01*
X61176190Y-76942857D01*
X61252380Y-76904761D01*
X61290476Y-76866666D01*
X61328571Y-76790476D01*
X61328571Y-76714285D01*
X61290476Y-76638095D01*
X61252380Y-76600000D01*
X61176190Y-76561904D01*
X60985714Y-76561904D01*
X60871428Y-76600000D01*
X61633333Y-64785714D02*
X61671428Y-64823809D01*
X61785714Y-64861904D01*
X61861904Y-64861904D01*
X61976190Y-64823809D01*
X62052380Y-64747619D01*
X62090476Y-64671428D01*
X62128571Y-64519047D01*
X62128571Y-64404761D01*
X62090476Y-64252380D01*
X62052380Y-64176190D01*
X61976190Y-64100000D01*
X61861904Y-64061904D01*
X61785714Y-64061904D01*
X61671428Y-64100000D01*
X61633333Y-64138095D01*
X60909523Y-64061904D02*
X61290476Y-64061904D01*
X61328571Y-64442857D01*
X61290476Y-64404761D01*
X61214285Y-64366666D01*
X61023809Y-64366666D01*
X60947619Y-64404761D01*
X60909523Y-64442857D01*
X60871428Y-64519047D01*
X60871428Y-64709523D01*
X60909523Y-64785714D01*
X60947619Y-64823809D01*
X61023809Y-64861904D01*
X61214285Y-64861904D01*
X61290476Y-64823809D01*
X61328571Y-64785714D01*
X61633333Y-59785714D02*
X61671428Y-59823809D01*
X61785714Y-59861904D01*
X61861904Y-59861904D01*
X61976190Y-59823809D01*
X62052380Y-59747619D01*
X62090476Y-59671428D01*
X62128571Y-59519047D01*
X62128571Y-59404761D01*
X62090476Y-59252380D01*
X62052380Y-59176190D01*
X61976190Y-59100000D01*
X61861904Y-59061904D01*
X61785714Y-59061904D01*
X61671428Y-59100000D01*
X61633333Y-59138095D01*
X61366666Y-59061904D02*
X60871428Y-59061904D01*
X61138095Y-59366666D01*
X61023809Y-59366666D01*
X60947619Y-59404761D01*
X60909523Y-59442857D01*
X60871428Y-59519047D01*
X60871428Y-59709523D01*
X60909523Y-59785714D01*
X60947619Y-59823809D01*
X61023809Y-59861904D01*
X61252380Y-59861904D01*
X61328571Y-59823809D01*
X61366666Y-59785714D01*
X61633333Y-62285714D02*
X61671428Y-62323809D01*
X61785714Y-62361904D01*
X61861904Y-62361904D01*
X61976190Y-62323809D01*
X62052380Y-62247619D01*
X62090476Y-62171428D01*
X62128571Y-62019047D01*
X62128571Y-61904761D01*
X62090476Y-61752380D01*
X62052380Y-61676190D01*
X61976190Y-61600000D01*
X61861904Y-61561904D01*
X61785714Y-61561904D01*
X61671428Y-61600000D01*
X61633333Y-61638095D01*
X60947619Y-61828571D02*
X60947619Y-62361904D01*
X61138095Y-61523809D02*
X61328571Y-62095238D01*
X60833333Y-62095238D01*
X66376190Y-72361904D02*
X66376190Y-71561904D01*
X66109523Y-72133333D01*
X65842857Y-71561904D01*
X65842857Y-72361904D01*
X65461904Y-72361904D02*
X65461904Y-71561904D01*
X65119047Y-72323809D02*
X65004761Y-72361904D01*
X64814285Y-72361904D01*
X64738095Y-72323809D01*
X64700000Y-72285714D01*
X64661904Y-72209523D01*
X64661904Y-72133333D01*
X64700000Y-72057142D01*
X64738095Y-72019047D01*
X64814285Y-71980952D01*
X64966666Y-71942857D01*
X65042857Y-71904761D01*
X65080952Y-71866666D01*
X65119047Y-71790476D01*
X65119047Y-71714285D01*
X65080952Y-71638095D01*
X65042857Y-71600000D01*
X64966666Y-71561904D01*
X64776190Y-71561904D01*
X64661904Y-71600000D01*
X64166666Y-71561904D02*
X64014285Y-71561904D01*
X63938095Y-71600000D01*
X63861904Y-71676190D01*
X63823809Y-71828571D01*
X63823809Y-72095238D01*
X63861904Y-72247619D01*
X63938095Y-72323809D01*
X64014285Y-72361904D01*
X64166666Y-72361904D01*
X64242857Y-72323809D01*
X64319047Y-72247619D01*
X64357142Y-72095238D01*
X64357142Y-71828571D01*
X64319047Y-71676190D01*
X64242857Y-71600000D01*
X64166666Y-71561904D01*
X62909523Y-71523809D02*
X63595238Y-72552380D01*
X62642857Y-72361904D02*
X62642857Y-71561904D01*
X62452380Y-71561904D01*
X62338095Y-71600000D01*
X62261904Y-71676190D01*
X62223809Y-71752380D01*
X62185714Y-71904761D01*
X62185714Y-72019047D01*
X62223809Y-72171428D01*
X62261904Y-72247619D01*
X62338095Y-72323809D01*
X62452380Y-72361904D01*
X62642857Y-72361904D01*
X61309523Y-72438095D02*
X61385714Y-72400000D01*
X61461904Y-72323809D01*
X61576190Y-72209523D01*
X61652380Y-72171428D01*
X61728571Y-72171428D01*
X61690476Y-72361904D02*
X61766666Y-72323809D01*
X61842857Y-72247619D01*
X61880952Y-72095238D01*
X61880952Y-71828571D01*
X61842857Y-71676190D01*
X61766666Y-71600000D01*
X61690476Y-71561904D01*
X61538095Y-71561904D01*
X61461904Y-71600000D01*
X61385714Y-71676190D01*
X61347619Y-71828571D01*
X61347619Y-72095238D01*
X61385714Y-72247619D01*
X61461904Y-72323809D01*
X61538095Y-72361904D01*
X61690476Y-72361904D01*
X60585714Y-72361904D02*
X61042857Y-72361904D01*
X60814285Y-72361904D02*
X60814285Y-71561904D01*
X60890476Y-71676190D01*
X60966666Y-71752380D01*
X61042857Y-71790476D01*
X62052380Y-67361904D02*
X62319047Y-66980952D01*
X62509523Y-67361904D02*
X62509523Y-66561904D01*
X62204761Y-66561904D01*
X62128571Y-66600000D01*
X62090476Y-66638095D01*
X62052380Y-66714285D01*
X62052380Y-66828571D01*
X62090476Y-66904761D01*
X62128571Y-66942857D01*
X62204761Y-66980952D01*
X62509523Y-66980952D01*
X61290476Y-66600000D02*
X61366666Y-66561904D01*
X61480952Y-66561904D01*
X61595238Y-66600000D01*
X61671428Y-66676190D01*
X61709523Y-66752380D01*
X61747619Y-66904761D01*
X61747619Y-67019047D01*
X61709523Y-67171428D01*
X61671428Y-67247619D01*
X61595238Y-67323809D01*
X61480952Y-67361904D01*
X61404761Y-67361904D01*
X61290476Y-67323809D01*
X61252380Y-67285714D01*
X61252380Y-67019047D01*
X61404761Y-67019047D01*
X60642857Y-66942857D02*
X60528571Y-66980952D01*
X60490476Y-67019047D01*
X60452380Y-67095238D01*
X60452380Y-67209523D01*
X60490476Y-67285714D01*
X60528571Y-67323809D01*
X60604761Y-67361904D01*
X60909523Y-67361904D01*
X60909523Y-66561904D01*
X60642857Y-66561904D01*
X60566666Y-66600000D01*
X60528571Y-66638095D01*
X60490476Y-66714285D01*
X60490476Y-66790476D01*
X60528571Y-66866666D01*
X60566666Y-66904761D01*
X60642857Y-66942857D01*
X60909523Y-66942857D01*
X63352380Y-69823809D02*
X63238095Y-69861904D01*
X63047619Y-69861904D01*
X62971428Y-69823809D01*
X62933333Y-69785714D01*
X62895238Y-69709523D01*
X62895238Y-69633333D01*
X62933333Y-69557142D01*
X62971428Y-69519047D01*
X63047619Y-69480952D01*
X63200000Y-69442857D01*
X63276190Y-69404761D01*
X63314285Y-69366666D01*
X63352380Y-69290476D01*
X63352380Y-69214285D01*
X63314285Y-69138095D01*
X63276190Y-69100000D01*
X63200000Y-69061904D01*
X63009523Y-69061904D01*
X62895238Y-69100000D01*
X62095238Y-69785714D02*
X62133333Y-69823809D01*
X62247619Y-69861904D01*
X62323809Y-69861904D01*
X62438095Y-69823809D01*
X62514285Y-69747619D01*
X62552380Y-69671428D01*
X62590476Y-69519047D01*
X62590476Y-69404761D01*
X62552380Y-69252380D01*
X62514285Y-69176190D01*
X62438095Y-69100000D01*
X62323809Y-69061904D01*
X62247619Y-69061904D01*
X62133333Y-69100000D01*
X62095238Y-69138095D01*
X61371428Y-69861904D02*
X61752380Y-69861904D01*
X61752380Y-69061904D01*
X61104761Y-69861904D02*
X61104761Y-69061904D01*
X60647619Y-69861904D02*
X60990476Y-69404761D01*
X60647619Y-69061904D02*
X61104761Y-69519047D01*
X40633333Y-52285714D02*
X40671428Y-52323809D01*
X40785714Y-52361904D01*
X40861904Y-52361904D01*
X40976190Y-52323809D01*
X41052380Y-52247619D01*
X41090476Y-52171428D01*
X41128571Y-52019047D01*
X41128571Y-51904761D01*
X41090476Y-51752380D01*
X41052380Y-51676190D01*
X40976190Y-51600000D01*
X40861904Y-51561904D01*
X40785714Y-51561904D01*
X40671428Y-51600000D01*
X40633333Y-51638095D01*
X40328571Y-51638095D02*
X40290476Y-51600000D01*
X40214285Y-51561904D01*
X40023809Y-51561904D01*
X39947619Y-51600000D01*
X39909523Y-51638095D01*
X39871428Y-51714285D01*
X39871428Y-51790476D01*
X39909523Y-51904761D01*
X40366666Y-52361904D01*
X39871428Y-52361904D01*
X41471428Y-62323809D02*
X41357142Y-62361904D01*
X41166666Y-62361904D01*
X41090476Y-62323809D01*
X41052380Y-62285714D01*
X41014285Y-62209523D01*
X41014285Y-62133333D01*
X41052380Y-62057142D01*
X41090476Y-62019047D01*
X41166666Y-61980952D01*
X41319047Y-61942857D01*
X41395238Y-61904761D01*
X41433333Y-61866666D01*
X41471428Y-61790476D01*
X41471428Y-61714285D01*
X41433333Y-61638095D01*
X41395238Y-61600000D01*
X41319047Y-61561904D01*
X41128571Y-61561904D01*
X41014285Y-61600000D01*
X40671428Y-62361904D02*
X40671428Y-61561904D01*
X40480952Y-61561904D01*
X40366666Y-61600000D01*
X40290476Y-61676190D01*
X40252380Y-61752380D01*
X40214285Y-61904761D01*
X40214285Y-62019047D01*
X40252380Y-62171428D01*
X40290476Y-62247619D01*
X40366666Y-62323809D01*
X40480952Y-62361904D01*
X40671428Y-62361904D01*
X39909523Y-62133333D02*
X39528571Y-62133333D01*
X39985714Y-62361904D02*
X39719047Y-61561904D01*
X39452380Y-62361904D01*
X40633333Y-72361904D02*
X40900000Y-71980952D01*
X41090476Y-72361904D02*
X41090476Y-71561904D01*
X40785714Y-71561904D01*
X40709523Y-71600000D01*
X40671428Y-71638095D01*
X40633333Y-71714285D01*
X40633333Y-71828571D01*
X40671428Y-71904761D01*
X40709523Y-71942857D01*
X40785714Y-71980952D01*
X41090476Y-71980952D01*
X39871428Y-72361904D02*
X40328571Y-72361904D01*
X40100000Y-72361904D02*
X40100000Y-71561904D01*
X40176190Y-71676190D01*
X40252380Y-71752380D01*
X40328571Y-71790476D01*
X40633333Y-67361904D02*
X40900000Y-66980952D01*
X41090476Y-67361904D02*
X41090476Y-66561904D01*
X40785714Y-66561904D01*
X40709523Y-66600000D01*
X40671428Y-66638095D01*
X40633333Y-66714285D01*
X40633333Y-66828571D01*
X40671428Y-66904761D01*
X40709523Y-66942857D01*
X40785714Y-66980952D01*
X41090476Y-66980952D01*
X40366666Y-66561904D02*
X39871428Y-66561904D01*
X40138095Y-66866666D01*
X40023809Y-66866666D01*
X39947619Y-66904761D01*
X39909523Y-66942857D01*
X39871428Y-67019047D01*
X39871428Y-67209523D01*
X39909523Y-67285714D01*
X39947619Y-67323809D01*
X40023809Y-67361904D01*
X40252380Y-67361904D01*
X40328571Y-67323809D01*
X40366666Y-67285714D01*
X40633333Y-69861904D02*
X40900000Y-69480952D01*
X41090476Y-69861904D02*
X41090476Y-69061904D01*
X40785714Y-69061904D01*
X40709523Y-69100000D01*
X40671428Y-69138095D01*
X40633333Y-69214285D01*
X40633333Y-69328571D01*
X40671428Y-69404761D01*
X40709523Y-69442857D01*
X40785714Y-69480952D01*
X41090476Y-69480952D01*
X40328571Y-69138095D02*
X40290476Y-69100000D01*
X40214285Y-69061904D01*
X40023809Y-69061904D01*
X39947619Y-69100000D01*
X39909523Y-69138095D01*
X39871428Y-69214285D01*
X39871428Y-69290476D01*
X39909523Y-69404761D01*
X40366666Y-69861904D01*
X39871428Y-69861904D01*
X40633333Y-49785714D02*
X40671428Y-49823809D01*
X40785714Y-49861904D01*
X40861904Y-49861904D01*
X40976190Y-49823809D01*
X41052380Y-49747619D01*
X41090476Y-49671428D01*
X41128571Y-49519047D01*
X41128571Y-49404761D01*
X41090476Y-49252380D01*
X41052380Y-49176190D01*
X40976190Y-49100000D01*
X40861904Y-49061904D01*
X40785714Y-49061904D01*
X40671428Y-49100000D01*
X40633333Y-49138095D01*
X39871428Y-49861904D02*
X40328571Y-49861904D01*
X40100000Y-49861904D02*
X40100000Y-49061904D01*
X40176190Y-49176190D01*
X40252380Y-49252380D01*
X40328571Y-49290476D01*
X40633333Y-64861904D02*
X40900000Y-64480952D01*
X41090476Y-64861904D02*
X41090476Y-64061904D01*
X40785714Y-64061904D01*
X40709523Y-64100000D01*
X40671428Y-64138095D01*
X40633333Y-64214285D01*
X40633333Y-64328571D01*
X40671428Y-64404761D01*
X40709523Y-64442857D01*
X40785714Y-64480952D01*
X41090476Y-64480952D01*
X39947619Y-64328571D02*
X39947619Y-64861904D01*
X40138095Y-64023809D02*
X40328571Y-64595238D01*
X39833333Y-64595238D01*
X41376190Y-74861904D02*
X41376190Y-74061904D01*
X41109523Y-74633333D01*
X40842857Y-74061904D01*
X40842857Y-74861904D01*
X40309523Y-74061904D02*
X40157142Y-74061904D01*
X40080952Y-74100000D01*
X40004761Y-74176190D01*
X39966666Y-74328571D01*
X39966666Y-74595238D01*
X40004761Y-74747619D01*
X40080952Y-74823809D01*
X40157142Y-74861904D01*
X40309523Y-74861904D01*
X40385714Y-74823809D01*
X40461904Y-74747619D01*
X40500000Y-74595238D01*
X40500000Y-74328571D01*
X40461904Y-74176190D01*
X40385714Y-74100000D01*
X40309523Y-74061904D01*
X39661904Y-74823809D02*
X39547619Y-74861904D01*
X39357142Y-74861904D01*
X39280952Y-74823809D01*
X39242857Y-74785714D01*
X39204761Y-74709523D01*
X39204761Y-74633333D01*
X39242857Y-74557142D01*
X39280952Y-74519047D01*
X39357142Y-74480952D01*
X39509523Y-74442857D01*
X39585714Y-74404761D01*
X39623809Y-74366666D01*
X39661904Y-74290476D01*
X39661904Y-74214285D01*
X39623809Y-74138095D01*
X39585714Y-74100000D01*
X39509523Y-74061904D01*
X39319047Y-74061904D01*
X39204761Y-74100000D01*
X38861904Y-74861904D02*
X38861904Y-74061904D01*
X37909523Y-74023809D02*
X38595238Y-75052380D01*
X37642857Y-74861904D02*
X37642857Y-74061904D01*
X37452380Y-74061904D01*
X37338095Y-74100000D01*
X37261904Y-74176190D01*
X37223809Y-74252380D01*
X37185714Y-74404761D01*
X37185714Y-74519047D01*
X37223809Y-74671428D01*
X37261904Y-74747619D01*
X37338095Y-74823809D01*
X37452380Y-74861904D01*
X37642857Y-74861904D01*
X36309523Y-74938095D02*
X36385714Y-74900000D01*
X36461904Y-74823809D01*
X36576190Y-74709523D01*
X36652380Y-74671428D01*
X36728571Y-74671428D01*
X36690476Y-74861904D02*
X36766666Y-74823809D01*
X36842857Y-74747619D01*
X36880952Y-74595238D01*
X36880952Y-74328571D01*
X36842857Y-74176190D01*
X36766666Y-74100000D01*
X36690476Y-74061904D01*
X36538095Y-74061904D01*
X36461904Y-74100000D01*
X36385714Y-74176190D01*
X36347619Y-74328571D01*
X36347619Y-74595238D01*
X36385714Y-74747619D01*
X36461904Y-74823809D01*
X36538095Y-74861904D01*
X36690476Y-74861904D01*
X35852380Y-74061904D02*
X35776190Y-74061904D01*
X35700000Y-74100000D01*
X35661904Y-74138095D01*
X35623809Y-74214285D01*
X35585714Y-74366666D01*
X35585714Y-74557142D01*
X35623809Y-74709523D01*
X35661904Y-74785714D01*
X35700000Y-74823809D01*
X35776190Y-74861904D01*
X35852380Y-74861904D01*
X35928571Y-74823809D01*
X35966666Y-74785714D01*
X36004761Y-74709523D01*
X36042857Y-74557142D01*
X36042857Y-74366666D01*
X36004761Y-74214285D01*
X35966666Y-74138095D01*
X35928571Y-74100000D01*
X35852380Y-74061904D01*
X40633333Y-77285714D02*
X40671428Y-77323809D01*
X40785714Y-77361904D01*
X40861904Y-77361904D01*
X40976190Y-77323809D01*
X41052380Y-77247619D01*
X41090476Y-77171428D01*
X41128571Y-77019047D01*
X41128571Y-76904761D01*
X41090476Y-76752380D01*
X41052380Y-76676190D01*
X40976190Y-76600000D01*
X40861904Y-76561904D01*
X40785714Y-76561904D01*
X40671428Y-76600000D01*
X40633333Y-76638095D01*
X40328571Y-77323809D02*
X40214285Y-77361904D01*
X40023809Y-77361904D01*
X39947619Y-77323809D01*
X39909523Y-77285714D01*
X39871428Y-77209523D01*
X39871428Y-77133333D01*
X39909523Y-77057142D01*
X39947619Y-77019047D01*
X40023809Y-76980952D01*
X40176190Y-76942857D01*
X40252380Y-76904761D01*
X40290476Y-76866666D01*
X40328571Y-76790476D01*
X40328571Y-76714285D01*
X40290476Y-76638095D01*
X40252380Y-76600000D01*
X40176190Y-76561904D01*
X39985714Y-76561904D01*
X39871428Y-76600000D01*
X41452380Y-59823809D02*
X41338095Y-59861904D01*
X41147619Y-59861904D01*
X41071428Y-59823809D01*
X41033333Y-59785714D01*
X40995238Y-59709523D01*
X40995238Y-59633333D01*
X41033333Y-59557142D01*
X41071428Y-59519047D01*
X41147619Y-59480952D01*
X41300000Y-59442857D01*
X41376190Y-59404761D01*
X41414285Y-59366666D01*
X41452380Y-59290476D01*
X41452380Y-59214285D01*
X41414285Y-59138095D01*
X41376190Y-59100000D01*
X41300000Y-59061904D01*
X41109523Y-59061904D01*
X40995238Y-59100000D01*
X40195238Y-59785714D02*
X40233333Y-59823809D01*
X40347619Y-59861904D01*
X40423809Y-59861904D01*
X40538095Y-59823809D01*
X40614285Y-59747619D01*
X40652380Y-59671428D01*
X40690476Y-59519047D01*
X40690476Y-59404761D01*
X40652380Y-59252380D01*
X40614285Y-59176190D01*
X40538095Y-59100000D01*
X40423809Y-59061904D01*
X40347619Y-59061904D01*
X40233333Y-59100000D01*
X40195238Y-59138095D01*
X39471428Y-59861904D02*
X39852380Y-59861904D01*
X39852380Y-59061904D01*
D12*
X59890000Y-45220000D02*
X42110000Y-45220000D01*
X42110000Y-45220000D02*
X42110000Y-78240000D01*
X42110000Y-78240000D02*
X59890000Y-78240000D01*
X59890000Y-78240000D02*
X59890000Y-45220000D01*
D10*
X66950000Y-45950000D02*
X66950000Y-45300000D01*
X66950000Y-45300000D02*
X65050000Y-45300000D01*
X65050000Y-45300000D02*
X65050000Y-45950000D01*
X64250000Y-49050000D02*
X67750000Y-49050000D01*
X67750000Y-45950000D02*
X64250000Y-45950000D01*
X54450000Y-47780000D02*
X54450000Y-48570000D01*
X47550000Y-48570000D02*
X47550000Y-47780000D01*
X49400000Y-49620000D02*
X51100000Y-49620000D01*
X48150000Y-46770000D02*
X53850000Y-46770000D01*
X50900000Y-45480000D02*
X50900000Y-46770000D01*
X49800000Y-45270000D02*
X50700000Y-45270000D01*
X49600000Y-46770000D02*
X49600000Y-45480000D01*
X50900000Y-45480000D02*
X50700000Y-45270000D01*
X49600000Y-45480000D02*
X49800000Y-45270000D01*
X52400000Y-49620000D02*
X52600000Y-49620000D01*
D11*
X132500000Y-49950000D02*
X132500000Y-56050000D01*
X120400000Y-49950000D02*
X120400000Y-56050000D01*
X132500000Y-49950000D02*
X120400000Y-49950000D01*
X132500000Y-56050000D02*
X120400000Y-56050000D01*
X132500000Y-50200000D02*
X134500000Y-50200000D01*
X132500000Y-55800000D02*
X134500000Y-55800000D01*
X134500000Y-50200000D02*
X134500000Y-55800000D01*
D10*
X67250000Y-73000000D02*
X71150000Y-73000000D01*
X67250000Y-71000000D02*
X71150000Y-71000000D01*
X67250000Y-73000000D02*
X67250000Y-71000000D01*
X85250000Y-68000000D02*
X89150000Y-68000000D01*
X85250000Y-66000000D02*
X89150000Y-66000000D01*
X85250000Y-68000000D02*
X85250000Y-66000000D01*
X103250000Y-73000000D02*
X107150000Y-73000000D01*
X103250000Y-71000000D02*
X107150000Y-71000000D01*
X103250000Y-73000000D02*
X103250000Y-71000000D01*
X121250000Y-76500000D02*
X125150000Y-76500000D01*
X121250000Y-74500000D02*
X125150000Y-74500000D01*
X121250000Y-76500000D02*
X121250000Y-74500000D01*
X67250000Y-90000000D02*
X71150000Y-90000000D01*
X67250000Y-88000000D02*
X71150000Y-88000000D01*
X67250000Y-90000000D02*
X67250000Y-88000000D01*
X85250000Y-85000000D02*
X89150000Y-85000000D01*
X85250000Y-83000000D02*
X89150000Y-83000000D01*
X85250000Y-85000000D02*
X85250000Y-83000000D01*
X103250000Y-90000000D02*
X107150000Y-90000000D01*
X103250000Y-88000000D02*
X107150000Y-88000000D01*
X103250000Y-90000000D02*
X103250000Y-88000000D01*
X49250000Y-110000000D02*
X53150000Y-110000000D01*
X49250000Y-108000000D02*
X53150000Y-108000000D01*
X49250000Y-110000000D02*
X49250000Y-108000000D01*
X67250000Y-107000000D02*
X71150000Y-107000000D01*
X67250000Y-105000000D02*
X71150000Y-105000000D01*
X67250000Y-107000000D02*
X67250000Y-105000000D01*
X85250000Y-102000000D02*
X89150000Y-102000000D01*
X85250000Y-100000000D02*
X89150000Y-100000000D01*
X85250000Y-102000000D02*
X85250000Y-100000000D01*
X103250000Y-107000000D02*
X107150000Y-107000000D01*
X103250000Y-105000000D02*
X107150000Y-105000000D01*
X103250000Y-107000000D02*
X103250000Y-105000000D01*
X52250000Y-127000000D02*
X56150000Y-127000000D01*
X52250000Y-125000000D02*
X56150000Y-125000000D01*
X52250000Y-127000000D02*
X52250000Y-125000000D01*
X72500000Y-128750000D02*
X72500000Y-124850000D01*
X70500000Y-128750000D02*
X70500000Y-124850000D01*
X72500000Y-128750000D02*
X70500000Y-128750000D01*
X98500000Y-130750000D02*
X98500000Y-126850000D01*
X96500000Y-130750000D02*
X96500000Y-126850000D01*
X98500000Y-130750000D02*
X96500000Y-130750000D01*
X115500000Y-135750000D02*
X115500000Y-131850000D01*
X113500000Y-135750000D02*
X113500000Y-131850000D01*
X115500000Y-135750000D02*
X113500000Y-135750000D01*
X49250000Y-93000000D02*
X53150000Y-93000000D01*
X49250000Y-91000000D02*
X53150000Y-91000000D01*
X49250000Y-93000000D02*
X49250000Y-91000000D01*
X121250000Y-110500000D02*
X125150000Y-110500000D01*
X121250000Y-108500000D02*
X125150000Y-108500000D01*
X121250000Y-110500000D02*
X121250000Y-108500000D01*
X121250000Y-93500000D02*
X125150000Y-93500000D01*
X121250000Y-91500000D02*
X125150000Y-91500000D01*
X121250000Y-93500000D02*
X121250000Y-91500000D01*
X131050000Y-69050000D02*
X132125000Y-69050000D01*
X131050000Y-74950000D02*
X131050000Y-69050000D01*
X134950000Y-74950000D02*
X134950000Y-69050000D01*
X31250000Y-93000000D02*
X35150000Y-93000000D01*
X31250000Y-91000000D02*
X35150000Y-91000000D01*
X31250000Y-93000000D02*
X31250000Y-91000000D01*
X31250000Y-110000000D02*
X35150000Y-110000000D01*
X31250000Y-108000000D02*
X35150000Y-108000000D01*
X31250000Y-110000000D02*
X31250000Y-108000000D01*
X54250000Y-74535000D02*
X55900000Y-74535000D01*
X54250000Y-74275000D02*
X54250000Y-74535000D01*
X51500000Y-74275000D02*
X54250000Y-74275000D01*
X48750000Y-74275000D02*
X48750000Y-74535000D01*
X51500000Y-74275000D02*
X48750000Y-74275000D01*
X54250000Y-79725000D02*
X54250000Y-79465000D01*
X51500000Y-79725000D02*
X54250000Y-79725000D01*
X48750000Y-79725000D02*
X48750000Y-79465000D01*
X51500000Y-79725000D02*
X48750000Y-79725000D01*
D11*
X46262810Y-51061904D02*
X46186619Y-51061904D01*
X46110429Y-51100000D01*
X46072333Y-51138095D01*
X46034238Y-51214285D01*
X45996143Y-51366666D01*
X45996143Y-51557142D01*
X46034238Y-51709523D01*
X46072333Y-51785714D01*
X46110429Y-51823809D01*
X46186619Y-51861904D01*
X46262810Y-51861904D01*
X46339000Y-51823809D01*
X46377095Y-51785714D01*
X46415190Y-51709523D01*
X46453286Y-51557142D01*
X46453286Y-51366666D01*
X46415190Y-51214285D01*
X46377095Y-51138095D01*
X46339000Y-51100000D01*
X46262810Y-51061904D01*
X45500905Y-51061904D02*
X45424714Y-51061904D01*
X45348524Y-51100000D01*
X45310429Y-51138095D01*
X45272333Y-51214285D01*
X45234238Y-51366666D01*
X45234238Y-51557142D01*
X45272333Y-51709523D01*
X45310429Y-51785714D01*
X45348524Y-51823809D01*
X45424714Y-51861904D01*
X45500905Y-51861904D01*
X45577095Y-51823809D01*
X45615190Y-51785714D01*
X45653286Y-51709523D01*
X45691381Y-51557142D01*
X45691381Y-51366666D01*
X45653286Y-51214285D01*
X45615190Y-51138095D01*
X45577095Y-51100000D01*
X45500905Y-51061904D01*
X44777095Y-51404761D02*
X44853286Y-51366666D01*
X44891381Y-51328571D01*
X44929476Y-51252380D01*
X44929476Y-51214285D01*
X44891381Y-51138095D01*
X44853286Y-51100000D01*
X44777095Y-51061904D01*
X44624714Y-51061904D01*
X44548524Y-51100000D01*
X44510429Y-51138095D01*
X44472333Y-51214285D01*
X44472333Y-51252380D01*
X44510429Y-51328571D01*
X44548524Y-51366666D01*
X44624714Y-51404761D01*
X44777095Y-51404761D01*
X44853286Y-51442857D01*
X44891381Y-51480952D01*
X44929476Y-51557142D01*
X44929476Y-51709523D01*
X44891381Y-51785714D01*
X44853286Y-51823809D01*
X44777095Y-51861904D01*
X44624714Y-51861904D01*
X44548524Y-51823809D01*
X44510429Y-51785714D01*
X44472333Y-51709523D01*
X44472333Y-51557142D01*
X44510429Y-51480952D01*
X44548524Y-51442857D01*
X44624714Y-51404761D01*
X46262810Y-61361904D02*
X46186619Y-61361904D01*
X46110429Y-61400000D01*
X46072333Y-61438095D01*
X46034238Y-61514285D01*
X45996143Y-61666666D01*
X45996143Y-61857142D01*
X46034238Y-62009523D01*
X46072333Y-62085714D01*
X46110429Y-62123809D01*
X46186619Y-62161904D01*
X46262810Y-62161904D01*
X46339000Y-62123809D01*
X46377095Y-62085714D01*
X46415190Y-62009523D01*
X46453286Y-61857142D01*
X46453286Y-61666666D01*
X46415190Y-61514285D01*
X46377095Y-61438095D01*
X46339000Y-61400000D01*
X46262810Y-61361904D01*
X45691381Y-61438095D02*
X45653286Y-61400000D01*
X45577095Y-61361904D01*
X45386619Y-61361904D01*
X45310429Y-61400000D01*
X45272333Y-61438095D01*
X45234238Y-61514285D01*
X45234238Y-61590476D01*
X45272333Y-61704761D01*
X45729476Y-62161904D01*
X45234238Y-62161904D01*
X44739000Y-61361904D02*
X44662810Y-61361904D01*
X44586619Y-61400000D01*
X44548524Y-61438095D01*
X44510429Y-61514285D01*
X44472333Y-61666666D01*
X44472333Y-61857142D01*
X44510429Y-62009523D01*
X44548524Y-62085714D01*
X44586619Y-62123809D01*
X44662810Y-62161904D01*
X44739000Y-62161904D01*
X44815190Y-62123809D01*
X44853286Y-62085714D01*
X44891381Y-62009523D01*
X44929476Y-61857142D01*
X44929476Y-61666666D01*
X44891381Y-61514285D01*
X44853286Y-61438095D01*
X44815190Y-61400000D01*
X44739000Y-61361904D01*
X46262810Y-58751904D02*
X46186619Y-58751904D01*
X46110429Y-58790000D01*
X46072333Y-58828095D01*
X46034238Y-58904285D01*
X45996143Y-59056666D01*
X45996143Y-59247142D01*
X46034238Y-59399523D01*
X46072333Y-59475714D01*
X46110429Y-59513809D01*
X46186619Y-59551904D01*
X46262810Y-59551904D01*
X46339000Y-59513809D01*
X46377095Y-59475714D01*
X46415190Y-59399523D01*
X46453286Y-59247142D01*
X46453286Y-59056666D01*
X46415190Y-58904285D01*
X46377095Y-58828095D01*
X46339000Y-58790000D01*
X46262810Y-58751904D01*
X45234238Y-59551904D02*
X45691381Y-59551904D01*
X45462810Y-59551904D02*
X45462810Y-58751904D01*
X45539000Y-58866190D01*
X45615190Y-58942380D01*
X45691381Y-58980476D01*
X44967571Y-58751904D02*
X44434238Y-58751904D01*
X44777095Y-59551904D01*
X46148523Y-56250000D02*
X46224714Y-56211904D01*
X46339000Y-56211904D01*
X46453285Y-56250000D01*
X46529476Y-56326190D01*
X46567571Y-56402380D01*
X46605666Y-56554761D01*
X46605666Y-56669047D01*
X46567571Y-56821428D01*
X46529476Y-56897619D01*
X46453285Y-56973809D01*
X46339000Y-57011904D01*
X46262809Y-57011904D01*
X46148523Y-56973809D01*
X46110428Y-56935714D01*
X46110428Y-56669047D01*
X46262809Y-56669047D01*
X45767571Y-57011904D02*
X45767571Y-56211904D01*
X45310428Y-57011904D01*
X45310428Y-56211904D01*
X44929476Y-57011904D02*
X44929476Y-56211904D01*
X44739000Y-56211904D01*
X44624714Y-56250000D01*
X44548523Y-56326190D01*
X44510428Y-56402380D01*
X44472333Y-56554761D01*
X44472333Y-56669047D01*
X44510428Y-56821428D01*
X44548523Y-56897619D01*
X44624714Y-56973809D01*
X44739000Y-57011904D01*
X44929476Y-57011904D01*
X46148523Y-53710000D02*
X46224714Y-53671904D01*
X46339000Y-53671904D01*
X46453285Y-53710000D01*
X46529476Y-53786190D01*
X46567571Y-53862380D01*
X46605666Y-54014761D01*
X46605666Y-54129047D01*
X46567571Y-54281428D01*
X46529476Y-54357619D01*
X46453285Y-54433809D01*
X46339000Y-54471904D01*
X46262809Y-54471904D01*
X46148523Y-54433809D01*
X46110428Y-54395714D01*
X46110428Y-54129047D01*
X46262809Y-54129047D01*
X45767571Y-54471904D02*
X45767571Y-53671904D01*
X45310428Y-54471904D01*
X45310428Y-53671904D01*
X44929476Y-54471904D02*
X44929476Y-53671904D01*
X44739000Y-53671904D01*
X44624714Y-53710000D01*
X44548523Y-53786190D01*
X44510428Y-53862380D01*
X44472333Y-54014761D01*
X44472333Y-54129047D01*
X44510428Y-54281428D01*
X44548523Y-54357619D01*
X44624714Y-54433809D01*
X44739000Y-54471904D01*
X44929476Y-54471904D01*
X46262810Y-63861904D02*
X46186619Y-63861904D01*
X46110429Y-63900000D01*
X46072333Y-63938095D01*
X46034238Y-64014285D01*
X45996143Y-64166666D01*
X45996143Y-64357142D01*
X46034238Y-64509523D01*
X46072333Y-64585714D01*
X46110429Y-64623809D01*
X46186619Y-64661904D01*
X46262810Y-64661904D01*
X46339000Y-64623809D01*
X46377095Y-64585714D01*
X46415190Y-64509523D01*
X46453286Y-64357142D01*
X46453286Y-64166666D01*
X46415190Y-64014285D01*
X46377095Y-63938095D01*
X46339000Y-63900000D01*
X46262810Y-63861904D01*
X45691381Y-63938095D02*
X45653286Y-63900000D01*
X45577095Y-63861904D01*
X45386619Y-63861904D01*
X45310429Y-63900000D01*
X45272333Y-63938095D01*
X45234238Y-64014285D01*
X45234238Y-64090476D01*
X45272333Y-64204761D01*
X45729476Y-64661904D01*
X45234238Y-64661904D01*
X44929476Y-63938095D02*
X44891381Y-63900000D01*
X44815190Y-63861904D01*
X44624714Y-63861904D01*
X44548524Y-63900000D01*
X44510429Y-63938095D01*
X44472333Y-64014285D01*
X44472333Y-64090476D01*
X44510429Y-64204761D01*
X44967571Y-64661904D01*
X44472333Y-64661904D01*
X46262810Y-66361904D02*
X46186619Y-66361904D01*
X46110429Y-66400000D01*
X46072333Y-66438095D01*
X46034238Y-66514285D01*
X45996143Y-66666666D01*
X45996143Y-66857142D01*
X46034238Y-67009523D01*
X46072333Y-67085714D01*
X46110429Y-67123809D01*
X46186619Y-67161904D01*
X46262810Y-67161904D01*
X46339000Y-67123809D01*
X46377095Y-67085714D01*
X46415190Y-67009523D01*
X46453286Y-66857142D01*
X46453286Y-66666666D01*
X46415190Y-66514285D01*
X46377095Y-66438095D01*
X46339000Y-66400000D01*
X46262810Y-66361904D01*
X45691381Y-66438095D02*
X45653286Y-66400000D01*
X45577095Y-66361904D01*
X45386619Y-66361904D01*
X45310429Y-66400000D01*
X45272333Y-66438095D01*
X45234238Y-66514285D01*
X45234238Y-66590476D01*
X45272333Y-66704761D01*
X45729476Y-67161904D01*
X45234238Y-67161904D01*
X44548524Y-66628571D02*
X44548524Y-67161904D01*
X44739000Y-66323809D02*
X44929476Y-66895238D01*
X44434238Y-66895238D01*
X45996143Y-69711904D02*
X46453286Y-69711904D01*
X46224714Y-69711904D02*
X46224714Y-68911904D01*
X46300905Y-69026190D01*
X46377095Y-69102380D01*
X46453286Y-69140476D01*
X45500905Y-68911904D02*
X45424714Y-68911904D01*
X45348524Y-68950000D01*
X45310429Y-68988095D01*
X45272333Y-69064285D01*
X45234238Y-69216666D01*
X45234238Y-69407142D01*
X45272333Y-69559523D01*
X45310429Y-69635714D01*
X45348524Y-69673809D01*
X45424714Y-69711904D01*
X45500905Y-69711904D01*
X45577095Y-69673809D01*
X45615190Y-69635714D01*
X45653286Y-69559523D01*
X45691381Y-69407142D01*
X45691381Y-69216666D01*
X45653286Y-69064285D01*
X45615190Y-68988095D01*
X45577095Y-68950000D01*
X45500905Y-68911904D01*
X44739000Y-68911904D02*
X44662810Y-68911904D01*
X44586619Y-68950000D01*
X44548524Y-68988095D01*
X44510429Y-69064285D01*
X44472333Y-69216666D01*
X44472333Y-69407142D01*
X44510429Y-69559523D01*
X44548524Y-69635714D01*
X44586619Y-69673809D01*
X44662810Y-69711904D01*
X44739000Y-69711904D01*
X44815190Y-69673809D01*
X44853286Y-69635714D01*
X44891381Y-69559523D01*
X44929476Y-69407142D01*
X44929476Y-69216666D01*
X44891381Y-69064285D01*
X44853286Y-68988095D01*
X44815190Y-68950000D01*
X44739000Y-68911904D01*
X45996143Y-74791904D02*
X46453286Y-74791904D01*
X46224714Y-74791904D02*
X46224714Y-73991904D01*
X46300905Y-74106190D01*
X46377095Y-74182380D01*
X46453286Y-74220476D01*
X45500905Y-73991904D02*
X45424714Y-73991904D01*
X45348524Y-74030000D01*
X45310429Y-74068095D01*
X45272333Y-74144285D01*
X45234238Y-74296666D01*
X45234238Y-74487142D01*
X45272333Y-74639523D01*
X45310429Y-74715714D01*
X45348524Y-74753809D01*
X45424714Y-74791904D01*
X45500905Y-74791904D01*
X45577095Y-74753809D01*
X45615190Y-74715714D01*
X45653286Y-74639523D01*
X45691381Y-74487142D01*
X45691381Y-74296666D01*
X45653286Y-74144285D01*
X45615190Y-74068095D01*
X45577095Y-74030000D01*
X45500905Y-73991904D01*
X44548524Y-74258571D02*
X44548524Y-74791904D01*
X44739000Y-73953809D02*
X44929476Y-74525238D01*
X44434238Y-74525238D01*
X57070524Y-72251904D02*
X57527667Y-72251904D01*
X57299095Y-72251904D02*
X57299095Y-71451904D01*
X57375286Y-71566190D01*
X57451476Y-71642380D01*
X57527667Y-71680476D01*
X56308619Y-72251904D02*
X56765762Y-72251904D01*
X56537191Y-72251904D02*
X56537191Y-71451904D01*
X56613381Y-71566190D01*
X56689571Y-71642380D01*
X56765762Y-71680476D01*
X55546714Y-72251904D02*
X56003857Y-72251904D01*
X55775286Y-72251904D02*
X55775286Y-71451904D01*
X55851476Y-71566190D01*
X55927667Y-71642380D01*
X56003857Y-71680476D01*
X57070524Y-69711904D02*
X57527667Y-69711904D01*
X57299095Y-69711904D02*
X57299095Y-68911904D01*
X57375286Y-69026190D01*
X57451476Y-69102380D01*
X57527667Y-69140476D01*
X56308619Y-69711904D02*
X56765762Y-69711904D01*
X56537191Y-69711904D02*
X56537191Y-68911904D01*
X56613381Y-69026190D01*
X56689571Y-69102380D01*
X56765762Y-69140476D01*
X56041952Y-68911904D02*
X55546714Y-68911904D01*
X55813381Y-69216666D01*
X55699095Y-69216666D01*
X55622905Y-69254761D01*
X55584810Y-69292857D01*
X55546714Y-69369047D01*
X55546714Y-69559523D01*
X55584810Y-69635714D01*
X55622905Y-69673809D01*
X55699095Y-69711904D01*
X55927667Y-69711904D01*
X56003857Y-69673809D01*
X56041952Y-69635714D01*
X57337191Y-58751904D02*
X57261000Y-58751904D01*
X57184810Y-58790000D01*
X57146714Y-58828095D01*
X57108619Y-58904285D01*
X57070524Y-59056666D01*
X57070524Y-59247142D01*
X57108619Y-59399523D01*
X57146714Y-59475714D01*
X57184810Y-59513809D01*
X57261000Y-59551904D01*
X57337191Y-59551904D01*
X57413381Y-59513809D01*
X57451476Y-59475714D01*
X57489571Y-59399523D01*
X57527667Y-59247142D01*
X57527667Y-59056666D01*
X57489571Y-58904285D01*
X57451476Y-58828095D01*
X57413381Y-58790000D01*
X57337191Y-58751904D01*
X56803857Y-58751904D02*
X56308619Y-58751904D01*
X56575286Y-59056666D01*
X56461000Y-59056666D01*
X56384810Y-59094761D01*
X56346714Y-59132857D01*
X56308619Y-59209047D01*
X56308619Y-59399523D01*
X56346714Y-59475714D01*
X56384810Y-59513809D01*
X56461000Y-59551904D01*
X56689571Y-59551904D01*
X56765762Y-59513809D01*
X56803857Y-59475714D01*
X55546714Y-59551904D02*
X56003857Y-59551904D01*
X55775286Y-59551904D02*
X55775286Y-58751904D01*
X55851476Y-58866190D01*
X55927667Y-58942380D01*
X56003857Y-58980476D01*
X57603857Y-56211904D02*
X57337191Y-57011904D01*
X57070524Y-56211904D01*
X56346714Y-56935714D02*
X56384810Y-56973809D01*
X56499095Y-57011904D01*
X56575286Y-57011904D01*
X56689571Y-56973809D01*
X56765762Y-56897619D01*
X56803857Y-56821428D01*
X56841952Y-56669047D01*
X56841952Y-56554761D01*
X56803857Y-56402380D01*
X56765762Y-56326190D01*
X56689571Y-56250000D01*
X56575286Y-56211904D01*
X56499095Y-56211904D01*
X56384810Y-56250000D01*
X56346714Y-56288095D01*
X55546714Y-56935714D02*
X55584810Y-56973809D01*
X55699095Y-57011904D01*
X55775286Y-57011904D01*
X55889571Y-56973809D01*
X55965762Y-56897619D01*
X56003857Y-56821428D01*
X56041952Y-56669047D01*
X56041952Y-56554761D01*
X56003857Y-56402380D01*
X55965762Y-56326190D01*
X55889571Y-56250000D01*
X55775286Y-56211904D01*
X55699095Y-56211904D01*
X55584810Y-56250000D01*
X55546714Y-56288095D01*
X57064190Y-51170000D02*
X57140381Y-51131904D01*
X57254667Y-51131904D01*
X57368952Y-51170000D01*
X57445143Y-51246190D01*
X57483238Y-51322380D01*
X57521333Y-51474761D01*
X57521333Y-51589047D01*
X57483238Y-51741428D01*
X57445143Y-51817619D01*
X57368952Y-51893809D01*
X57254667Y-51931904D01*
X57178476Y-51931904D01*
X57064190Y-51893809D01*
X57026095Y-51855714D01*
X57026095Y-51589047D01*
X57178476Y-51589047D01*
X56683238Y-51931904D02*
X56683238Y-51131904D01*
X56226095Y-51931904D01*
X56226095Y-51131904D01*
X55845143Y-51931904D02*
X55845143Y-51131904D01*
X55654667Y-51131904D01*
X55540381Y-51170000D01*
X55464190Y-51246190D01*
X55426095Y-51322380D01*
X55388000Y-51474761D01*
X55388000Y-51589047D01*
X55426095Y-51741428D01*
X55464190Y-51817619D01*
X55540381Y-51893809D01*
X55654667Y-51931904D01*
X55845143Y-51931904D01*
X57026095Y-49391904D02*
X57292762Y-49010952D01*
X57483238Y-49391904D02*
X57483238Y-48591904D01*
X57178476Y-48591904D01*
X57102286Y-48630000D01*
X57064191Y-48668095D01*
X57026095Y-48744285D01*
X57026095Y-48858571D01*
X57064191Y-48934761D01*
X57102286Y-48972857D01*
X57178476Y-49010952D01*
X57483238Y-49010952D01*
X56721334Y-49163333D02*
X56340381Y-49163333D01*
X56797524Y-49391904D02*
X56530857Y-48591904D01*
X56264191Y-49391904D01*
X56073715Y-48591904D02*
X55883238Y-49391904D01*
X55730857Y-48820476D01*
X55578476Y-49391904D01*
X55388000Y-48591904D01*
X57337191Y-61291904D02*
X57261000Y-61291904D01*
X57184810Y-61330000D01*
X57146714Y-61368095D01*
X57108619Y-61444285D01*
X57070524Y-61596666D01*
X57070524Y-61787142D01*
X57108619Y-61939523D01*
X57146714Y-62015714D01*
X57184810Y-62053809D01*
X57261000Y-62091904D01*
X57337191Y-62091904D01*
X57413381Y-62053809D01*
X57451476Y-62015714D01*
X57489571Y-61939523D01*
X57527667Y-61787142D01*
X57527667Y-61596666D01*
X57489571Y-61444285D01*
X57451476Y-61368095D01*
X57413381Y-61330000D01*
X57337191Y-61291904D01*
X56765762Y-61368095D02*
X56727667Y-61330000D01*
X56651476Y-61291904D01*
X56461000Y-61291904D01*
X56384810Y-61330000D01*
X56346714Y-61368095D01*
X56308619Y-61444285D01*
X56308619Y-61520476D01*
X56346714Y-61634761D01*
X56803857Y-62091904D01*
X56308619Y-62091904D01*
X55927667Y-62091904D02*
X55775286Y-62091904D01*
X55699095Y-62053809D01*
X55661000Y-62015714D01*
X55584810Y-61901428D01*
X55546714Y-61749047D01*
X55546714Y-61444285D01*
X55584810Y-61368095D01*
X55622905Y-61330000D01*
X55699095Y-61291904D01*
X55851476Y-61291904D01*
X55927667Y-61330000D01*
X55965762Y-61368095D01*
X56003857Y-61444285D01*
X56003857Y-61634761D01*
X55965762Y-61710952D01*
X55927667Y-61749047D01*
X55851476Y-61787142D01*
X55699095Y-61787142D01*
X55622905Y-61749047D01*
X55584810Y-61710952D01*
X55546714Y-61634761D01*
X57337191Y-63831904D02*
X57261000Y-63831904D01*
X57184810Y-63870000D01*
X57146714Y-63908095D01*
X57108619Y-63984285D01*
X57070524Y-64136666D01*
X57070524Y-64327142D01*
X57108619Y-64479523D01*
X57146714Y-64555714D01*
X57184810Y-64593809D01*
X57261000Y-64631904D01*
X57337191Y-64631904D01*
X57413381Y-64593809D01*
X57451476Y-64555714D01*
X57489571Y-64479523D01*
X57527667Y-64327142D01*
X57527667Y-64136666D01*
X57489571Y-63984285D01*
X57451476Y-63908095D01*
X57413381Y-63870000D01*
X57337191Y-63831904D01*
X56575286Y-63831904D02*
X56499095Y-63831904D01*
X56422905Y-63870000D01*
X56384810Y-63908095D01*
X56346714Y-63984285D01*
X56308619Y-64136666D01*
X56308619Y-64327142D01*
X56346714Y-64479523D01*
X56384810Y-64555714D01*
X56422905Y-64593809D01*
X56499095Y-64631904D01*
X56575286Y-64631904D01*
X56651476Y-64593809D01*
X56689571Y-64555714D01*
X56727667Y-64479523D01*
X56765762Y-64327142D01*
X56765762Y-64136666D01*
X56727667Y-63984285D01*
X56689571Y-63908095D01*
X56651476Y-63870000D01*
X56575286Y-63831904D01*
X56003857Y-63908095D02*
X55965762Y-63870000D01*
X55889571Y-63831904D01*
X55699095Y-63831904D01*
X55622905Y-63870000D01*
X55584810Y-63908095D01*
X55546714Y-63984285D01*
X55546714Y-64060476D01*
X55584810Y-64174761D01*
X56041952Y-64631904D01*
X55546714Y-64631904D01*
X57070524Y-67171904D02*
X57527667Y-67171904D01*
X57299095Y-67171904D02*
X57299095Y-66371904D01*
X57375286Y-66486190D01*
X57451476Y-66562380D01*
X57527667Y-66600476D01*
X56308619Y-67171904D02*
X56765762Y-67171904D01*
X56537191Y-67171904D02*
X56537191Y-66371904D01*
X56613381Y-66486190D01*
X56689571Y-66562380D01*
X56765762Y-66600476D01*
X55584810Y-66371904D02*
X55965762Y-66371904D01*
X56003857Y-66752857D01*
X55965762Y-66714761D01*
X55889571Y-66676666D01*
X55699095Y-66676666D01*
X55622905Y-66714761D01*
X55584810Y-66752857D01*
X55546714Y-66829047D01*
X55546714Y-67019523D01*
X55584810Y-67095714D01*
X55622905Y-67133809D01*
X55699095Y-67171904D01*
X55889571Y-67171904D01*
X55965762Y-67133809D01*
X56003857Y-67095714D01*
X57337191Y-73991904D02*
X57261000Y-73991904D01*
X57184810Y-74030000D01*
X57146714Y-74068095D01*
X57108619Y-74144285D01*
X57070524Y-74296666D01*
X57070524Y-74487142D01*
X57108619Y-74639523D01*
X57146714Y-74715714D01*
X57184810Y-74753809D01*
X57261000Y-74791904D01*
X57337191Y-74791904D01*
X57413381Y-74753809D01*
X57451476Y-74715714D01*
X57489571Y-74639523D01*
X57527667Y-74487142D01*
X57527667Y-74296666D01*
X57489571Y-74144285D01*
X57451476Y-74068095D01*
X57413381Y-74030000D01*
X57337191Y-73991904D01*
X56308619Y-74791904D02*
X56765762Y-74791904D01*
X56537191Y-74791904D02*
X56537191Y-73991904D01*
X56613381Y-74106190D01*
X56689571Y-74182380D01*
X56765762Y-74220476D01*
X55813381Y-73991904D02*
X55737191Y-73991904D01*
X55661000Y-74030000D01*
X55622905Y-74068095D01*
X55584810Y-74144285D01*
X55546714Y-74296666D01*
X55546714Y-74487142D01*
X55584810Y-74639523D01*
X55622905Y-74715714D01*
X55661000Y-74753809D01*
X55737191Y-74791904D01*
X55813381Y-74791904D01*
X55889571Y-74753809D01*
X55927667Y-74715714D01*
X55965762Y-74639523D01*
X56003857Y-74487142D01*
X56003857Y-74296666D01*
X55965762Y-74144285D01*
X55927667Y-74068095D01*
X55889571Y-74030000D01*
X55813381Y-73991904D01*
X46262810Y-48591904D02*
X46186619Y-48591904D01*
X46110429Y-48630000D01*
X46072333Y-48668095D01*
X46034238Y-48744285D01*
X45996143Y-48896666D01*
X45996143Y-49087142D01*
X46034238Y-49239523D01*
X46072333Y-49315714D01*
X46110429Y-49353809D01*
X46186619Y-49391904D01*
X46262810Y-49391904D01*
X46339000Y-49353809D01*
X46377095Y-49315714D01*
X46415190Y-49239523D01*
X46453286Y-49087142D01*
X46453286Y-48896666D01*
X46415190Y-48744285D01*
X46377095Y-48668095D01*
X46339000Y-48630000D01*
X46262810Y-48591904D01*
X45500905Y-48591904D02*
X45424714Y-48591904D01*
X45348524Y-48630000D01*
X45310429Y-48668095D01*
X45272333Y-48744285D01*
X45234238Y-48896666D01*
X45234238Y-49087142D01*
X45272333Y-49239523D01*
X45310429Y-49315714D01*
X45348524Y-49353809D01*
X45424714Y-49391904D01*
X45500905Y-49391904D01*
X45577095Y-49353809D01*
X45615190Y-49315714D01*
X45653286Y-49239523D01*
X45691381Y-49087142D01*
X45691381Y-48896666D01*
X45653286Y-48744285D01*
X45615190Y-48668095D01*
X45577095Y-48630000D01*
X45500905Y-48591904D01*
X44548524Y-48591904D02*
X44700905Y-48591904D01*
X44777095Y-48630000D01*
X44815190Y-48668095D01*
X44891381Y-48782380D01*
X44929476Y-48934761D01*
X44929476Y-49239523D01*
X44891381Y-49315714D01*
X44853286Y-49353809D01*
X44777095Y-49391904D01*
X44624714Y-49391904D01*
X44548524Y-49353809D01*
X44510429Y-49315714D01*
X44472333Y-49239523D01*
X44472333Y-49049047D01*
X44510429Y-48972857D01*
X44548524Y-48934761D01*
X44624714Y-48896666D01*
X44777095Y-48896666D01*
X44853286Y-48934761D01*
X44891381Y-48972857D01*
X44929476Y-49049047D01*
X57026095Y-54471904D02*
X57292761Y-54090952D01*
X57483238Y-54471904D02*
X57483238Y-53671904D01*
X57178476Y-53671904D01*
X57102285Y-53710000D01*
X57064190Y-53748095D01*
X57026095Y-53824285D01*
X57026095Y-53938571D01*
X57064190Y-54014761D01*
X57102285Y-54052857D01*
X57178476Y-54090952D01*
X57483238Y-54090952D01*
X56721333Y-54433809D02*
X56607047Y-54471904D01*
X56416571Y-54471904D01*
X56340380Y-54433809D01*
X56302285Y-54395714D01*
X56264190Y-54319523D01*
X56264190Y-54243333D01*
X56302285Y-54167142D01*
X56340380Y-54129047D01*
X56416571Y-54090952D01*
X56568952Y-54052857D01*
X56645142Y-54014761D01*
X56683238Y-53976666D01*
X56721333Y-53900476D01*
X56721333Y-53824285D01*
X56683238Y-53748095D01*
X56645142Y-53710000D01*
X56568952Y-53671904D01*
X56378476Y-53671904D01*
X56264190Y-53710000D01*
X56035619Y-53671904D02*
X55578476Y-53671904D01*
X55807047Y-54471904D02*
X55807047Y-53671904D01*
X45977095Y-46432857D02*
X45862809Y-46470952D01*
X45824714Y-46509047D01*
X45786619Y-46585238D01*
X45786619Y-46699523D01*
X45824714Y-46775714D01*
X45862809Y-46813809D01*
X45939000Y-46851904D01*
X46243761Y-46851904D01*
X46243761Y-46051904D01*
X45977095Y-46051904D01*
X45900904Y-46090000D01*
X45862809Y-46128095D01*
X45824714Y-46204285D01*
X45824714Y-46280476D01*
X45862809Y-46356666D01*
X45900904Y-46394761D01*
X45977095Y-46432857D01*
X46243761Y-46432857D01*
X45443761Y-46547142D02*
X44834238Y-46547142D01*
X57216572Y-46432857D02*
X57102286Y-46470952D01*
X57064191Y-46509047D01*
X57026096Y-46585238D01*
X57026096Y-46699523D01*
X57064191Y-46775714D01*
X57102286Y-46813809D01*
X57178477Y-46851904D01*
X57483238Y-46851904D01*
X57483238Y-46051904D01*
X57216572Y-46051904D01*
X57140381Y-46090000D01*
X57102286Y-46128095D01*
X57064191Y-46204285D01*
X57064191Y-46280476D01*
X57102286Y-46356666D01*
X57140381Y-46394761D01*
X57216572Y-46432857D01*
X57483238Y-46432857D01*
X56683238Y-46547142D02*
X56073715Y-46547142D01*
X56378477Y-46851904D02*
X56378477Y-46242380D01*
X134327380Y-75785714D02*
X134327380Y-75214285D01*
X134327380Y-75500000D02*
X133327380Y-75500000D01*
X133470238Y-75404761D01*
X133565476Y-75309523D01*
X133613095Y-75214285D01*
M02*
